STARTFONT 2.1
COMMENT
COMMENT Converted from OpenType font "manrope-medium.otf" by "otf2bdf 3.0".
COMMENT
FONT -FreeType-Manrope Medium-Medium-R-Normal--17-120-100-100-P-79-ISO10646-1
SIZE 12 100 100
FONTBOUNDINGBOX 16 21 0 -4
STARTPROPERTIES 19
FOUNDRY "FreeType"
FAMILY_NAME "Manrope Medium"
WEIGHT_NAME "Medium"
SLANT "R"
SETWIDTH_NAME "Normal"
ADD_STYLE_NAME ""
PIXEL_SIZE 17
POINT_SIZE 120
RESOLUTION_X 100
RESOLUTION_Y 100
SPACING "P"
AVERAGE_WIDTH 79
CHARSET_REGISTRY "ISO10646"
CHARSET_ENCODING "1"
FONT_ASCENT 18
FONT_DESCENT 5
COPYRIGHT "Copyright 2019-2021 The Manrope Project Authors (https://github.com/sharanda/manrope)"
_OTF_FONTFILE "manrope-medium.otf"
_OTF_PSNAME "Manrope-Medium"
ENDPROPERTIES
CHARS 191
STARTCHAR 0020
ENCODING 32
SWIDTH 180 0
DWIDTH 3 0
BBX 0 0 0 0
BITMAP
ENDCHAR
STARTCHAR 0021
ENCODING 33
SWIDTH 300 0
DWIDTH 5 0
BBX 1 12 2 0
BITMAP
80
80
80
80
80
80
80
80
80
00
80
80
ENDCHAR
STARTCHAR 0022
ENCODING 34
SWIDTH 420 0
DWIDTH 7 0
BBX 4 3 1 9
BITMAP
90
90
90
ENDCHAR
STARTCHAR 0023
ENCODING 35
SWIDTH 900 0
DWIDTH 15 0
BBX 13 12 1 0
BITMAP
0660
0660
0440
7FF8
0CC0
0880
0880
FFF0
1980
1100
1100
3300
ENDCHAR
STARTCHAR 0024
ENCODING 36
SWIDTH 600 0
DWIDTH 10 0
BBX 8 15 1 -2
BITMAP
18
3C
67
C3
C0
C0
7C
1F
03
01
81
C3
3E
18
18
ENDCHAR
STARTCHAR 0025
ENCODING 37
SWIDTH 900 0
DWIDTH 15 0
BBX 13 12 1 0
BITMAP
7810
CC30
8460
84C0
CD80
7B00
0600
0CF0
1998
3108
6198
40F0
ENDCHAR
STARTCHAR 0026
ENCODING 38
SWIDTH 660 0
DWIDTH 11 0
BBX 9 12 1 0
BITMAP
3C00
6600
4000
C000
6000
3000
F900
CD00
8700
C300
E780
3C80
ENDCHAR
STARTCHAR 0027
ENCODING 39
SWIDTH 240 0
DWIDTH 4 0
BBX 1 3 1 9
BITMAP
80
80
80
ENDCHAR
STARTCHAR 0028
ENCODING 40
SWIDTH 420 0
DWIDTH 7 0
BBX 4 17 2 -3
BITMAP
10
30
20
60
40
40
C0
C0
C0
C0
C0
40
40
60
20
30
10
ENDCHAR
STARTCHAR 0029
ENCODING 41
SWIDTH 420 0
DWIDTH 7 0
BBX 4 17 1 -3
BITMAP
80
C0
40
60
20
30
30
10
10
10
30
30
20
60
60
C0
80
ENDCHAR
STARTCHAR 002A
ENCODING 42
SWIDTH 420 0
DWIDTH 7 0
BBX 5 5 1 6
BITMAP
20
20
F8
70
D0
ENDCHAR
STARTCHAR 002B
ENCODING 43
SWIDTH 600 0
DWIDTH 10 0
BBX 8 7 1 3
BITMAP
10
10
10
FF
10
10
10
ENDCHAR
STARTCHAR 002C
ENCODING 44
SWIDTH 300 0
DWIDTH 5 0
BBX 2 4 1 -2
BITMAP
C0
C0
40
80
ENDCHAR
STARTCHAR 002D
ENCODING 45
SWIDTH 420 0
DWIDTH 7 0
BBX 5 1 1 5
BITMAP
F8
ENDCHAR
STARTCHAR 002E
ENCODING 46
SWIDTH 300 0
DWIDTH 5 0
BBX 2 2 1 0
BITMAP
C0
C0
ENDCHAR
STARTCHAR 002F
ENCODING 47
SWIDTH 420 0
DWIDTH 7 0
BBX 5 12 1 0
BITMAP
18
10
10
30
30
20
60
60
40
40
C0
C0
ENDCHAR
STARTCHAR 0030
ENCODING 48
SWIDTH 600 0
DWIDTH 10 0
BBX 8 12 1 0
BITMAP
3C
76
C3
C1
C1
C1
C1
C1
C1
C3
76
3C
ENDCHAR
STARTCHAR 0031
ENCODING 49
SWIDTH 420 0
DWIDTH 7 0
BBX 4 12 1 0
BITMAP
70
F0
B0
30
30
30
30
30
30
30
30
30
ENDCHAR
STARTCHAR 0032
ENCODING 50
SWIDTH 600 0
DWIDTH 10 0
BBX 8 12 1 0
BITMAP
3C
6E
C3
83
03
02
06
1C
30
60
C0
FF
ENDCHAR
STARTCHAR 0033
ENCODING 51
SWIDTH 540 0
DWIDTH 9 0
BBX 7 12 1 0
BITMAP
FE
06
0C
18
30
3C
06
02
02
82
EE
78
ENDCHAR
STARTCHAR 0034
ENCODING 52
SWIDTH 600 0
DWIDTH 10 0
BBX 8 12 1 0
BITMAP
08
18
10
30
20
66
46
C6
C6
FF
06
06
ENDCHAR
STARTCHAR 0035
ENCODING 53
SWIDTH 600 0
DWIDTH 10 0
BBX 8 12 1 0
BITMAP
7E
C0
C0
C0
FC
E6
43
03
03
C3
6E
3C
ENDCHAR
STARTCHAR 0036
ENCODING 54
SWIDTH 600 0
DWIDTH 10 0
BBX 8 12 1 0
BITMAP
3C
77
42
C0
C0
FE
E3
C1
C1
C3
77
3C
ENDCHAR
STARTCHAR 0037
ENCODING 55
SWIDTH 540 0
DWIDTH 9 0
BBX 7 12 1 0
BITMAP
FE
06
04
0C
08
18
18
10
30
20
60
60
ENDCHAR
STARTCHAR 0038
ENCODING 56
SWIDTH 600 0
DWIDTH 10 0
BBX 8 12 1 0
BITMAP
3C
66
C2
C3
46
7E
66
C3
C3
C3
66
3C
ENDCHAR
STARTCHAR 0039
ENCODING 57
SWIDTH 600 0
DWIDTH 10 0
BBX 8 12 1 0
BITMAP
3C
66
C3
81
C1
C3
7D
01
01
03
66
3C
ENDCHAR
STARTCHAR 003A
ENCODING 58
SWIDTH 300 0
DWIDTH 5 0
BBX 1 7 2 1
BITMAP
80
80
00
00
00
80
80
ENDCHAR
STARTCHAR 003B
ENCODING 59
SWIDTH 300 0
DWIDTH 5 0
BBX 1 11 2 -2
BITMAP
80
80
00
00
00
00
00
80
80
80
80
ENDCHAR
STARTCHAR 003C
ENCODING 60
SWIDTH 600 0
DWIDTH 10 0
BBX 4 8 3 1
BITMAP
10
30
60
C0
C0
60
30
10
ENDCHAR
STARTCHAR 003D
ENCODING 61
SWIDTH 780 0
DWIDTH 13 0
BBX 8 4 2 4
BITMAP
FF
00
00
FF
ENDCHAR
STARTCHAR 003E
ENCODING 62
SWIDTH 600 0
DWIDTH 10 0
BBX 4 7 4 1
BITMAP
80
C0
60
30
20
40
80
ENDCHAR
STARTCHAR 003F
ENCODING 63
SWIDTH 540 0
DWIDTH 9 0
BBX 7 12 1 0
BITMAP
7C
EE
86
06
06
0C
18
10
30
00
30
30
ENDCHAR
STARTCHAR 0040
ENCODING 64
SWIDTH 900 0
DWIDTH 15 0
BBX 13 13 1 -2
BITMAP
0F80
38E0
6030
4010
4F98
C898
C898
C898
4FF0
6000
2000
3880
0F80
ENDCHAR
STARTCHAR 0041
ENCODING 65
SWIDTH 660 0
DWIDTH 11 0
BBX 10 12 0 0
BITMAP
0E00
0E00
0A00
1B00
1300
1100
3180
2180
7F80
60C0
40C0
C040
ENDCHAR
STARTCHAR 0042
ENCODING 66
SWIDTH 600 0
DWIDTH 10 0
BBX 9 12 1 0
BITMAP
FE00
C700
C100
C100
C300
FE00
C300
C180
C180
C180
C300
FE00
ENDCHAR
STARTCHAR 0043
ENCODING 67
SWIDTH 720 0
DWIDTH 12 0
BBX 11 12 0 0
BITMAP
0F80
39C0
6060
6020
4000
C000
C000
4000
6020
6060
39C0
0F80
ENDCHAR
STARTCHAR 0044
ENCODING 68
SWIDTH 660 0
DWIDTH 11 0
BBX 10 12 1 0
BITMAP
FE00
C700
C180
C080
C080
C0C0
C0C0
C080
C080
C180
C700
FE00
ENDCHAR
STARTCHAR 0045
ENCODING 69
SWIDTH 600 0
DWIDTH 10 0
BBX 8 12 1 0
BITMAP
FF
C0
C0
C0
C0
FE
C0
C0
C0
C0
C0
FF
ENDCHAR
STARTCHAR 0046
ENCODING 70
SWIDTH 540 0
DWIDTH 9 0
BBX 7 12 1 0
BITMAP
FE
C0
C0
C0
C0
C0
FC
C0
C0
C0
C0
C0
ENDCHAR
STARTCHAR 0047
ENCODING 71
SWIDTH 720 0
DWIDTH 12 0
BBX 11 12 0 0
BITMAP
0F80
39C0
6060
6040
4000
C000
41E0
4020
6060
6060
39C0
0F80
ENDCHAR
STARTCHAR 0048
ENCODING 72
SWIDTH 720 0
DWIDTH 12 0
BBX 9 12 1 0
BITMAP
C080
C080
C080
C080
C080
FF80
C080
C080
C080
C080
C080
C080
ENDCHAR
STARTCHAR 0049
ENCODING 73
SWIDTH 240 0
DWIDTH 4 0
BBX 2 12 1 0
BITMAP
C0
C0
C0
C0
C0
C0
C0
C0
C0
C0
C0
C0
ENDCHAR
STARTCHAR 004A
ENCODING 74
SWIDTH 480 0
DWIDTH 8 0
BBX 7 12 0 0
BITMAP
06
06
06
06
06
06
06
06
06
C6
EC
78
ENDCHAR
STARTCHAR 004B
ENCODING 75
SWIDTH 600 0
DWIDTH 10 0
BBX 9 12 1 0
BITMAP
C300
C600
C400
C800
D800
F000
F000
D800
CC00
C600
C300
C180
ENDCHAR
STARTCHAR 004C
ENCODING 76
SWIDTH 540 0
DWIDTH 9 0
BBX 7 12 1 0
BITMAP
C0
C0
C0
C0
C0
C0
C0
C0
C0
C0
C0
FE
ENDCHAR
STARTCHAR 004D
ENCODING 77
SWIDTH 840 0
DWIDTH 14 0
BBX 12 12 1 0
BITMAP
C030
C030
E070
E070
F0F0
D0B0
D9B0
C9B0
CD30
CF30
C630
C630
ENDCHAR
STARTCHAR 004E
ENCODING 78
SWIDTH 720 0
DWIDTH 12 0
BBX 9 12 1 0
BITMAP
C080
E080
E080
F080
D880
C880
CC80
C680
C280
C380
C180
C080
ENDCHAR
STARTCHAR 004F
ENCODING 79
SWIDTH 720 0
DWIDTH 12 0
BBX 12 12 0 0
BITMAP
0F80
39C0
6060
6020
4030
C030
C030
4030
6020
6060
39C0
0F80
ENDCHAR
STARTCHAR 0050
ENCODING 80
SWIDTH 600 0
DWIDTH 10 0
BBX 9 12 1 0
BITMAP
FE00
C300
C180
C180
C180
C300
FF00
C000
C000
C000
C000
C000
ENDCHAR
STARTCHAR 0051
ENCODING 81
SWIDTH 720 0
DWIDTH 12 0
BBX 12 12 0 0
BITMAP
0F80
39C0
6060
6020
4030
C030
C030
4030
60A0
60E0
39E0
0FA0
ENDCHAR
STARTCHAR 0052
ENCODING 82
SWIDTH 660 0
DWIDTH 11 0
BBX 9 12 1 0
BITMAP
FE00
C300
C180
C180
C180
C300
FF00
C600
C200
C300
C100
C180
ENDCHAR
STARTCHAR 0053
ENCODING 83
SWIDTH 660 0
DWIDTH 11 0
BBX 9 12 1 0
BITMAP
3E00
6700
C180
C100
E000
7C00
0F00
0180
8180
C180
7700
3E00
ENDCHAR
STARTCHAR 0054
ENCODING 84
SWIDTH 600 0
DWIDTH 10 0
BBX 10 12 0 0
BITMAP
FFC0
0C00
0C00
0C00
0C00
0C00
0C00
0C00
0C00
0C00
0C00
0C00
ENDCHAR
STARTCHAR 0055
ENCODING 85
SWIDTH 720 0
DWIDTH 12 0
BBX 10 12 1 0
BITMAP
C0C0
C0C0
C0C0
C0C0
C0C0
C0C0
C0C0
C0C0
C0C0
4180
7380
1E00
ENDCHAR
STARTCHAR 0056
ENCODING 86
SWIDTH 600 0
DWIDTH 10 0
BBX 10 12 0 0
BITMAP
C0C0
40C0
4080
6180
2180
2100
3300
1300
1200
1E00
0E00
0C00
ENDCHAR
STARTCHAR 0057
ENCODING 87
SWIDTH 960 0
DWIDTH 16 0
BBX 15 12 0 0
BITMAP
C182
4182
4386
63C6
22C4
224C
366C
3468
1428
1C38
1C38
0830
ENDCHAR
STARTCHAR 0058
ENCODING 88
SWIDTH 600 0
DWIDTH 10 0
BBX 10 12 0 0
BITMAP
40C0
6180
3100
1300
1E00
0C00
0C00
1E00
1300
3180
6180
C0C0
ENDCHAR
STARTCHAR 0059
ENCODING 89
SWIDTH 600 0
DWIDTH 10 0
BBX 9 12 0 0
BITMAP
C080
6180
6300
3300
1600
1C00
0C00
0C00
0C00
0C00
0C00
0C00
ENDCHAR
STARTCHAR 005A
ENCODING 90
SWIDTH 660 0
DWIDTH 11 0
BBX 9 12 1 0
BITMAP
FF80
0300
0200
0600
0C00
0800
1800
3000
3000
6000
4000
FF80
ENDCHAR
STARTCHAR 005B
ENCODING 91
SWIDTH 420 0
DWIDTH 7 0
BBX 4 18 2 -3
BITMAP
F0
C0
C0
C0
C0
C0
C0
C0
C0
C0
C0
C0
C0
C0
C0
C0
C0
F0
ENDCHAR
STARTCHAR 005C
ENCODING 92
SWIDTH 420 0
DWIDTH 7 0
BBX 5 12 1 0
BITMAP
C0
C0
40
40
60
60
20
30
30
10
10
18
ENDCHAR
STARTCHAR 005D
ENCODING 93
SWIDTH 420 0
DWIDTH 7 0
BBX 4 18 1 -3
BITMAP
F0
30
30
30
30
30
30
30
30
30
30
30
30
30
30
30
30
F0
ENDCHAR
STARTCHAR 005E
ENCODING 94
SWIDTH 660 0
DWIDTH 11 0
BBX 7 5 2 7
BITMAP
10
38
6C
C6
82
ENDCHAR
STARTCHAR 005F
ENCODING 95
SWIDTH 660 0
DWIDTH 11 0
BBX 11 1 0 -2
BITMAP
FFE0
ENDCHAR
STARTCHAR 0060
ENCODING 96
SWIDTH 480 0
DWIDTH 8 0
BBX 2 3 3 13
BITMAP
80
C0
40
ENDCHAR
STARTCHAR 0061
ENCODING 97
SWIDTH 540 0
DWIDTH 9 0
BBX 7 9 1 0
BITMAP
7C
E6
02
3E
F2
82
86
CE
7A
ENDCHAR
STARTCHAR 0062
ENCODING 98
SWIDTH 600 0
DWIDTH 10 0
BBX 8 12 1 0
BITMAP
C0
C0
C0
FC
E6
C3
C1
81
C1
C3
E6
BC
ENDCHAR
STARTCHAR 0063
ENCODING 99
SWIDTH 540 0
DWIDTH 9 0
BBX 8 9 1 0
BITMAP
3C
66
C3
80
80
80
C3
66
3C
ENDCHAR
STARTCHAR 0064
ENCODING 100
SWIDTH 600 0
DWIDTH 10 0
BBX 8 12 1 0
BITMAP
03
03
03
3F
67
C3
83
83
83
C3
67
3F
ENDCHAR
STARTCHAR 0065
ENCODING 101
SWIDTH 600 0
DWIDTH 10 0
BBX 8 9 1 0
BITMAP
3C
66
C3
81
FF
80
C3
66
3C
ENDCHAR
STARTCHAR 0066
ENCODING 102
SWIDTH 360 0
DWIDTH 6 0
BBX 6 12 0 0
BITMAP
1C
30
30
FC
30
30
30
30
30
30
30
30
ENDCHAR
STARTCHAR 0067
ENCODING 103
SWIDTH 600 0
DWIDTH 10 0
BBX 8 13 1 -4
BITMAP
3F
67
C3
83
83
83
C3
67
3F
03
43
66
3C
ENDCHAR
STARTCHAR 0068
ENCODING 104
SWIDTH 600 0
DWIDTH 10 0
BBX 8 12 1 0
BITMAP
80
80
80
BC
E6
C3
C3
C1
C1
C1
C1
C1
ENDCHAR
STARTCHAR 0069
ENCODING 105
SWIDTH 240 0
DWIDTH 4 0
BBX 2 12 1 0
BITMAP
C0
C0
00
C0
C0
C0
C0
C0
C0
C0
C0
C0
ENDCHAR
STARTCHAR 006A
ENCODING 106
SWIDTH 240 0
DWIDTH 4 0
BBX 3 16 0 -4
BITMAP
20
20
00
20
20
20
20
20
20
20
20
20
20
20
60
C0
ENDCHAR
STARTCHAR 006B
ENCODING 107
SWIDTH 540 0
DWIDTH 9 0
BBX 7 12 1 0
BITMAP
C0
C0
C0
C6
CC
D8
F0
E0
F0
D8
CC
C6
ENDCHAR
STARTCHAR 006C
ENCODING 108
SWIDTH 240 0
DWIDTH 4 0
BBX 2 12 1 0
BITMAP
C0
C0
C0
C0
C0
C0
C0
C0
C0
C0
C0
C0
ENDCHAR
STARTCHAR 006D
ENCODING 109
SWIDTH 840 0
DWIDTH 14 0
BBX 12 9 1 0
BITMAP
BCE0
EF30
C610
C210
C210
C210
C210
C210
C210
ENDCHAR
STARTCHAR 006E
ENCODING 110
SWIDTH 600 0
DWIDTH 10 0
BBX 8 9 1 0
BITMAP
BC
E6
C3
C3
C1
C1
C1
C1
C1
ENDCHAR
STARTCHAR 006F
ENCODING 111
SWIDTH 600 0
DWIDTH 10 0
BBX 8 9 1 0
BITMAP
3C
66
C3
81
81
81
C3
66
3C
ENDCHAR
STARTCHAR 0070
ENCODING 112
SWIDTH 600 0
DWIDTH 10 0
BBX 8 13 1 -4
BITMAP
BC
E6
C3
C1
81
C1
C3
E6
FC
C0
C0
C0
C0
ENDCHAR
STARTCHAR 0071
ENCODING 113
SWIDTH 600 0
DWIDTH 10 0
BBX 8 13 1 -4
BITMAP
3F
67
C3
83
83
83
C3
67
3F
03
03
03
03
ENDCHAR
STARTCHAR 0072
ENCODING 114
SWIDTH 360 0
DWIDTH 6 0
BBX 5 9 1 0
BITMAP
B8
E0
C0
C0
C0
C0
C0
C0
C0
ENDCHAR
STARTCHAR 0073
ENCODING 115
SWIDTH 540 0
DWIDTH 9 0
BBX 7 9 1 0
BITMAP
7C
CE
82
E0
3C
06
82
C6
7C
ENDCHAR
STARTCHAR 0074
ENCODING 116
SWIDTH 420 0
DWIDTH 7 0
BBX 6 11 0 0
BITMAP
20
20
FC
20
20
20
20
20
20
30
1C
ENDCHAR
STARTCHAR 0075
ENCODING 117
SWIDTH 600 0
DWIDTH 10 0
BBX 8 9 1 0
BITMAP
83
83
83
83
83
C3
C3
67
3D
ENDCHAR
STARTCHAR 0076
ENCODING 118
SWIDTH 540 0
DWIDTH 9 0
BBX 7 9 1 0
BITMAP
82
86
C4
44
4C
68
28
38
30
ENDCHAR
STARTCHAR 0077
ENCODING 119
SWIDTH 780 0
DWIDTH 13 0
BBX 12 9 0 0
BITMAP
C210
4710
6530
6530
2DA0
28E0
38E0
18C0
10C0
ENDCHAR
STARTCHAR 0078
ENCODING 120
SWIDTH 540 0
DWIDTH 9 0
BBX 7 9 1 0
BITMAP
82
C6
6C
38
10
38
6C
C6
82
ENDCHAR
STARTCHAR 0079
ENCODING 121
SWIDTH 540 0
DWIDTH 9 0
BBX 9 13 0 -4
BITMAP
C180
4100
6300
2200
3200
3600
1400
1C00
0C00
0800
1800
1000
1000
ENDCHAR
STARTCHAR 007A
ENCODING 122
SWIDTH 540 0
DWIDTH 9 0
BBX 7 9 1 0
BITMAP
FE
04
0C
18
30
20
60
C0
FE
ENDCHAR
STARTCHAR 007B
ENCODING 123
SWIDTH 420 0
DWIDTH 7 0
BBX 4 18 2 -3
BITMAP
30
60
60
60
60
60
60
60
40
C0
60
60
60
60
60
60
60
30
ENDCHAR
STARTCHAR 007C
ENCODING 124
SWIDTH 240 0
DWIDTH 4 0
BBX 2 12 1 0
BITMAP
C0
C0
C0
C0
C0
C0
C0
C0
C0
C0
C0
C0
ENDCHAR
STARTCHAR 007D
ENCODING 125
SWIDTH 420 0
DWIDTH 7 0
BBX 4 18 1 -3
BITMAP
C0
60
60
60
60
60
60
60
20
30
60
60
60
60
60
60
60
E0
ENDCHAR
STARTCHAR 007E
ENCODING 126
SWIDTH 660 0
DWIDTH 11 0
BBX 7 3 2 4
BITMAP
42
FE
8E
ENDCHAR
STARTCHAR 00A0
ENCODING 160
SWIDTH 180 0
DWIDTH 3 0
BBX 0 0 0 0
BITMAP
ENDCHAR
STARTCHAR 00A1
ENCODING 161
SWIDTH 300 0
DWIDTH 5 0
BBX 1 12 2 -3
BITMAP
80
80
00
80
80
80
80
80
80
80
80
80
ENDCHAR
STARTCHAR 00A2
ENCODING 162
SWIDTH 540 0
DWIDTH 9 0
BBX 8 13 1 -1
BITMAP
18
18
7E
C3
C2
80
80
80
C3
66
3C
18
18
ENDCHAR
STARTCHAR 00A3
ENCODING 163
SWIDTH 600 0
DWIDTH 10 0
BBX 8 12 1 0
BITMAP
1C
36
63
60
60
60
FC
60
60
60
60
FE
ENDCHAR
STARTCHAR 00A4
ENCODING 164
SWIDTH 660 0
DWIDTH 11 0
BBX 9 10 1 1
BITMAP
8080
FF80
6300
C180
8180
8180
C180
6300
FF80
8080
ENDCHAR
STARTCHAR 00A5
ENCODING 165
SWIDTH 600 0
DWIDTH 10 0
BBX 9 12 0 0
BITMAP
C080
6180
6300
3300
3600
1E00
0C00
3F00
0C00
3F00
0C00
0C00
ENDCHAR
STARTCHAR 00A6
ENCODING 166
SWIDTH 240 0
DWIDTH 4 0
BBX 2 15 1 -3
BITMAP
C0
C0
C0
C0
C0
C0
00
00
C0
C0
C0
C0
C0
C0
C0
ENDCHAR
STARTCHAR 00A7
ENCODING 167
SWIDTH 540 0
DWIDTH 9 0
BBX 7 13 1 -2
BITMAP
78
CC
C6
C0
7C
C6
82
C6
7C
0E
06
C6
7C
ENDCHAR
STARTCHAR 00A8
ENCODING 168
SWIDTH 540 0
DWIDTH 9 0
BBX 5 2 2 13
BITMAP
98
98
ENDCHAR
STARTCHAR 00A9
ENCODING 169
SWIDTH 840 0
DWIDTH 14 0
BBX 13 12 0 0
BITMAP
0F80
1CE0
3030
6798
4CC8
4808
C808
4808
4CD8
6798
3870
1FC0
ENDCHAR
STARTCHAR 00AA
ENCODING 170
SWIDTH 300 0
DWIDTH 5 0
BBX 4 5 1 4
BITMAP
E0
30
D0
B0
D0
ENDCHAR
STARTCHAR 00AB
ENCODING 171
SWIDTH 540 0
DWIDTH 9 0
BBX 7 7 1 1
BITMAP
12
24
48
D8
6C
24
12
ENDCHAR
STARTCHAR 00AC
ENCODING 172
SWIDTH 600 0
DWIDTH 10 0
BBX 8 3 1 3
BITMAP
FF
01
01
ENDCHAR
STARTCHAR 00AD
ENCODING 173
SWIDTH 420 0
DWIDTH 7 0
BBX 5 1 1 5
BITMAP
F8
ENDCHAR
STARTCHAR 00AE
ENCODING 174
SWIDTH 660 0
DWIDTH 11 0
BBX 8 8 1 5
BITMAP
3C
62
59
95
99
D5
63
3C
ENDCHAR
STARTCHAR 00AF
ENCODING 175
SWIDTH 480 0
DWIDTH 8 0
BBX 4 1 2 14
BITMAP
F0
ENDCHAR
STARTCHAR 00B0
ENCODING 176
SWIDTH 480 0
DWIDTH 8 0
BBX 5 6 1 6
BITMAP
70
D8
88
88
D8
70
ENDCHAR
STARTCHAR 00B1
ENCODING 177
SWIDTH 600 0
DWIDTH 10 0
BBX 8 8 1 1
BITMAP
18
18
FF
18
18
00
00
FF
ENDCHAR
STARTCHAR 00B2
ENCODING 178
SWIDTH 420 0
DWIDTH 7 0
BBX 5 8 1 4
BITMAP
70
98
88
08
10
60
C0
F8
ENDCHAR
STARTCHAR 00B3
ENCODING 179
SWIDTH 420 0
DWIDTH 7 0
BBX 5 8 1 4
BITMAP
F0
10
20
70
10
18
90
70
ENDCHAR
STARTCHAR 00B4
ENCODING 180
SWIDTH 480 0
DWIDTH 8 0
BBX 2 3 3 13
BITMAP
40
40
C0
ENDCHAR
STARTCHAR 00B5
ENCODING 181
SWIDTH 600 0
DWIDTH 10 0
BBX 8 13 1 -4
BITMAP
C1
C1
C1
C1
C1
C1
C3
E7
BD
80
80
80
80
ENDCHAR
STARTCHAR 00B6
ENCODING 182
SWIDTH 660 0
DWIDTH 11 0
BBX 9 14 1 -2
BITMAP
3D80
7D80
FD80
FD80
FD80
FD80
7D80
1D80
0580
0580
0580
0580
0580
0580
ENDCHAR
STARTCHAR 00B7
ENCODING 183
SWIDTH 240 0
DWIDTH 4 0
BBX 2 2 1 4
BITMAP
C0
C0
ENDCHAR
STARTCHAR 00B8
ENCODING 184
SWIDTH 420 0
DWIDTH 7 0
BBX 3 4 2 -4
BITMAP
40
C0
20
C0
ENDCHAR
STARTCHAR 00B9
ENCODING 185
SWIDTH 300 0
DWIDTH 5 0
BBX 2 8 1 4
BITMAP
40
C0
40
40
40
40
40
40
ENDCHAR
STARTCHAR 00BA
ENCODING 186
SWIDTH 360 0
DWIDTH 6 0
BBX 4 5 1 4
BITMAP
E0
90
90
90
60
ENDCHAR
STARTCHAR 00BB
ENCODING 187
SWIDTH 540 0
DWIDTH 9 0
BBX 7 7 1 1
BITMAP
D8
48
24
36
24
48
90
ENDCHAR
STARTCHAR 00BC
ENCODING 188
SWIDTH 1020 0
DWIDTH 17 0
BBX 14 12 1 0
BITMAP
4020
C060
40C0
4080
4100
4330
4620
4460
0848
1048
30FC
2008
ENDCHAR
STARTCHAR 00BD
ENCODING 189
SWIDTH 960 0
DWIDTH 16 0
BBX 14 12 1 0
BITMAP
C020
C040
40C0
4080
4138
4264
4644
0C04
0808
1010
3020
207C
ENDCHAR
STARTCHAR 00BE
ENCODING 190
SWIDTH 1020 0
DWIDTH 17 0
BBX 15 12 1 0
BITMAP
F010
1030
2060
7040
1080
1998
9310
7210
0424
0C24
187E
1004
ENDCHAR
STARTCHAR 00BF
ENCODING 191
SWIDTH 540 0
DWIDTH 9 0
BBX 7 12 1 -3
BITMAP
10
10
00
10
10
30
60
C0
80
86
C6
7C
ENDCHAR
STARTCHAR 00C0
ENCODING 192
SWIDTH 660 0
DWIDTH 11 0
BBX 10 16 0 0
BITMAP
0800
0800
0400
0000
0E00
0E00
0A00
1B00
1300
1100
3180
2180
7F80
60C0
40C0
C040
ENDCHAR
STARTCHAR 00C1
ENCODING 193
SWIDTH 660 0
DWIDTH 11 0
BBX 10 16 0 0
BITMAP
0200
0600
0400
0000
0E00
0E00
0A00
1B00
1300
1100
3180
2180
7F80
60C0
40C0
C040
ENDCHAR
STARTCHAR 00C2
ENCODING 194
SWIDTH 660 0
DWIDTH 11 0
BBX 10 16 0 0
BITMAP
0C00
1A00
0100
0000
0E00
0E00
0A00
1B00
1300
1100
3180
2180
7F80
60C0
40C0
C040
ENDCHAR
STARTCHAR 00C3
ENCODING 195
SWIDTH 660 0
DWIDTH 11 0
BBX 10 16 0 0
BITMAP
1900
1700
0000
0000
0E00
0E00
0A00
1B00
1300
1100
3180
2180
7F80
60C0
40C0
C040
ENDCHAR
STARTCHAR 00C4
ENCODING 196
SWIDTH 660 0
DWIDTH 11 0
BBX 10 15 0 0
BITMAP
1B00
1B00
0000
0E00
0E00
0A00
1B00
1300
1100
3180
2180
7F80
60C0
40C0
C040
ENDCHAR
STARTCHAR 00C5
ENCODING 197
SWIDTH 660 0
DWIDTH 11 0
BBX 10 17 0 0
BITMAP
0E00
0A00
0A00
0E00
0000
0E00
0E00
0A00
1B00
1300
1100
3180
2180
7F80
60C0
40C0
C040
ENDCHAR
STARTCHAR 00C6
ENCODING 198
SWIDTH 900 0
DWIDTH 15 0
BBX 15 12 0 0
BITMAP
0FFE
0900
0900
1900
1100
11FC
3100
2100
7F00
6100
4100
C1FE
ENDCHAR
STARTCHAR 00C7
ENCODING 199
SWIDTH 720 0
DWIDTH 12 0
BBX 11 16 0 -4
BITMAP
0F80
39C0
6060
6020
4000
C000
C000
4000
6020
6060
39C0
0F80
0200
0200
0300
0600
ENDCHAR
STARTCHAR 00C8
ENCODING 200
SWIDTH 600 0
DWIDTH 10 0
BBX 8 16 1 0
BITMAP
10
10
08
00
FF
C0
C0
C0
C0
FE
C0
C0
C0
C0
C0
FF
ENDCHAR
STARTCHAR 00C9
ENCODING 201
SWIDTH 600 0
DWIDTH 10 0
BBX 8 16 1 0
BITMAP
0C
08
08
00
FF
C0
C0
C0
C0
FE
C0
C0
C0
C0
C0
FF
ENDCHAR
STARTCHAR 00CA
ENCODING 202
SWIDTH 600 0
DWIDTH 10 0
BBX 8 16 1 0
BITMAP
18
2C
00
00
FF
C0
C0
C0
C0
FE
C0
C0
C0
C0
C0
FF
ENDCHAR
STARTCHAR 00CB
ENCODING 203
SWIDTH 600 0
DWIDTH 10 0
BBX 8 15 1 0
BITMAP
64
64
00
FF
C0
C0
C0
C0
FE
C0
C0
C0
C0
C0
FF
ENDCHAR
STARTCHAR 00CC
ENCODING 204
SWIDTH 240 0
DWIDTH 4 0
BBX 2 16 1 0
BITMAP
80
80
C0
00
C0
C0
C0
C0
C0
C0
C0
C0
C0
C0
C0
C0
ENDCHAR
STARTCHAR 00CD
ENCODING 205
SWIDTH 240 0
DWIDTH 4 0
BBX 3 16 1 0
BITMAP
60
40
40
00
C0
C0
C0
C0
C0
C0
C0
C0
C0
C0
C0
C0
ENDCHAR
STARTCHAR 00CE
ENCODING 206
SWIDTH 240 0
DWIDTH 4 0
BBX 4 16 0 0
BITMAP
60
D0
00
00
60
60
60
60
60
60
60
60
60
60
60
60
ENDCHAR
STARTCHAR 00CF
ENCODING 207
SWIDTH 240 0
DWIDTH 4 0
BBX 4 15 0 0
BITMAP
90
90
00
60
60
60
60
60
60
60
60
60
60
60
60
ENDCHAR
STARTCHAR 00D0
ENCODING 208
SWIDTH 660 0
DWIDTH 11 0
BBX 11 12 0 0
BITMAP
7F00
6380
60C0
6040
6040
FC60
6040
6040
60C0
60C0
6380
7F00
ENDCHAR
STARTCHAR 00D1
ENCODING 209
SWIDTH 720 0
DWIDTH 12 0
BBX 9 15 1 0
BITMAP
3900
2600
0000
C080
E080
E080
F080
D880
C880
CC80
C680
C280
C380
C180
C080
ENDCHAR
STARTCHAR 00D2
ENCODING 210
SWIDTH 720 0
DWIDTH 12 0
BBX 12 16 0 0
BITMAP
0C00
0400
0400
0000
0F80
39C0
6060
6020
4030
C030
C030
4030
6020
6060
39C0
0F80
ENDCHAR
STARTCHAR 00D3
ENCODING 211
SWIDTH 720 0
DWIDTH 12 0
BBX 12 16 0 0
BITMAP
0100
0200
0200
0000
0F80
39C0
6060
6020
4030
C030
C030
4030
6020
6060
39C0
0F80
ENDCHAR
STARTCHAR 00D4
ENCODING 212
SWIDTH 720 0
DWIDTH 12 0
BBX 12 15 0 0
BITMAP
0600
0900
0000
0F80
39C0
6060
6020
4030
C030
C030
4030
6020
6060
39C0
0F80
ENDCHAR
STARTCHAR 00D5
ENCODING 213
SWIDTH 720 0
DWIDTH 12 0
BBX 12 15 0 0
BITMAP
0C80
0B80
0000
0F80
39C0
6060
6020
4030
C030
C030
4030
6020
6060
39C0
0F80
ENDCHAR
STARTCHAR 00D6
ENCODING 214
SWIDTH 720 0
DWIDTH 12 0
BBX 12 15 0 0
BITMAP
0900
0900
0000
0F80
39C0
6060
6020
4030
C030
C030
4030
6020
6060
39C0
0F80
ENDCHAR
STARTCHAR 00D7
ENCODING 215
SWIDTH 480 0
DWIDTH 8 0
BBX 6 6 1 3
BITMAP
84
4C
38
30
68
C4
ENDCHAR
STARTCHAR 00D8
ENCODING 216
SWIDTH 720 0
DWIDTH 12 0
BBX 12 12 0 0
BITMAP
0FA0
39E0
6060
60E0
41B0
C330
C630
4C30
7820
7060
79C0
4F80
ENDCHAR
STARTCHAR 00D9
ENCODING 217
SWIDTH 720 0
DWIDTH 12 0
BBX 10 16 1 0
BITMAP
0800
0800
0C00
0000
C0C0
C0C0
C0C0
C0C0
C0C0
C0C0
C0C0
C0C0
C0C0
4180
7380
1E00
ENDCHAR
STARTCHAR 00DA
ENCODING 218
SWIDTH 720 0
DWIDTH 12 0
BBX 10 16 1 0
BITMAP
0400
0400
0800
0000
C0C0
C0C0
C0C0
C0C0
C0C0
C0C0
C0C0
C0C0
C0C0
4180
7380
1E00
ENDCHAR
STARTCHAR 00DB
ENCODING 219
SWIDTH 720 0
DWIDTH 12 0
BBX 10 16 1 0
BITMAP
0C00
1600
0000
0000
C0C0
C0C0
C0C0
C0C0
C0C0
C0C0
C0C0
C0C0
C0C0
4180
7380
1E00
ENDCHAR
STARTCHAR 00DC
ENCODING 220
SWIDTH 720 0
DWIDTH 12 0
BBX 10 15 1 0
BITMAP
1200
1200
0000
C0C0
C0C0
C0C0
C0C0
C0C0
C0C0
C0C0
C0C0
C0C0
4180
7380
1E00
ENDCHAR
STARTCHAR 00DD
ENCODING 221
SWIDTH 600 0
DWIDTH 10 0
BBX 9 16 0 0
BITMAP
0400
0400
0800
0000
C080
6180
6300
3300
1600
1C00
0C00
0C00
0C00
0C00
0C00
0C00
ENDCHAR
STARTCHAR 00DE
ENCODING 222
SWIDTH 600 0
DWIDTH 10 0
BBX 9 12 1 0
BITMAP
C000
C000
FE00
C700
C100
C180
C180
C100
C700
FE00
C000
C000
ENDCHAR
STARTCHAR 00DF
ENCODING 223
SWIDTH 600 0
DWIDTH 10 0
BBX 8 12 1 0
BITMAP
3C
6E
C2
C2
C6
CC
C6
C3
C1
C3
D7
DE
ENDCHAR
STARTCHAR 00E0
ENCODING 224
SWIDTH 540 0
DWIDTH 9 0
BBX 7 13 1 0
BITMAP
20
10
10
00
7C
E6
02
3E
F2
82
86
CE
7A
ENDCHAR
STARTCHAR 00E1
ENCODING 225
SWIDTH 540 0
DWIDTH 9 0
BBX 7 13 1 0
BITMAP
08
08
18
00
7C
E6
02
3E
F2
82
86
CE
7A
ENDCHAR
STARTCHAR 00E2
ENCODING 226
SWIDTH 540 0
DWIDTH 9 0
BBX 7 12 1 0
BITMAP
38
24
00
7C
E6
02
3E
F2
82
86
CE
7A
ENDCHAR
STARTCHAR 00E3
ENCODING 227
SWIDTH 540 0
DWIDTH 9 0
BBX 7 12 1 0
BITMAP
72
4C
00
7C
E6
02
3E
F2
82
86
CE
7A
ENDCHAR
STARTCHAR 00E4
ENCODING 228
SWIDTH 540 0
DWIDTH 9 0
BBX 7 12 1 0
BITMAP
64
64
00
7C
E6
02
3E
F2
82
86
CE
7A
ENDCHAR
STARTCHAR 00E5
ENCODING 229
SWIDTH 540 0
DWIDTH 9 0
BBX 7 14 1 0
BITMAP
18
24
24
38
00
7C
E6
02
3E
F2
82
86
CE
7A
ENDCHAR
STARTCHAR 00E6
ENCODING 230
SWIDTH 960 0
DWIDTH 16 0
BBX 14 9 1 0
BITMAP
3CF0
E798
C30C
030C
7FFC
C300
8308
CD98
78F0
ENDCHAR
STARTCHAR 00E7
ENCODING 231
SWIDTH 540 0
DWIDTH 9 0
BBX 8 13 1 -4
BITMAP
3C
66
C3
80
80
80
C2
66
3C
10
18
08
18
ENDCHAR
STARTCHAR 00E8
ENCODING 232
SWIDTH 600 0
DWIDTH 10 0
BBX 8 13 1 0
BITMAP
10
10
18
00
3C
66
C3
81
FF
80
C3
66
3C
ENDCHAR
STARTCHAR 00E9
ENCODING 233
SWIDTH 600 0
DWIDTH 10 0
BBX 8 13 1 0
BITMAP
04
08
08
00
3C
66
C3
81
FF
80
C3
66
3C
ENDCHAR
STARTCHAR 00EA
ENCODING 234
SWIDTH 600 0
DWIDTH 10 0
BBX 8 12 1 0
BITMAP
18
24
00
3C
66
C3
81
FF
80
C3
66
3C
ENDCHAR
STARTCHAR 00EB
ENCODING 235
SWIDTH 600 0
DWIDTH 10 0
BBX 8 12 1 0
BITMAP
24
24
00
3C
66
C3
81
FF
80
C3
66
3C
ENDCHAR
STARTCHAR 00EC
ENCODING 236
SWIDTH 240 0
DWIDTH 4 0
BBX 2 13 1 0
BITMAP
80
80
C0
00
C0
C0
C0
C0
C0
C0
C0
C0
C0
ENDCHAR
STARTCHAR 00ED
ENCODING 237
SWIDTH 240 0
DWIDTH 4 0
BBX 3 13 1 0
BITMAP
60
40
40
00
C0
C0
C0
C0
C0
C0
C0
C0
C0
ENDCHAR
STARTCHAR 00EE
ENCODING 238
SWIDTH 240 0
DWIDTH 4 0
BBX 4 13 0 0
BITMAP
60
D0
00
00
60
60
60
60
60
60
60
60
60
ENDCHAR
STARTCHAR 00EF
ENCODING 239
SWIDTH 240 0
DWIDTH 4 0
BBX 4 12 0 0
BITMAP
90
90
00
60
60
60
60
60
60
60
60
60
ENDCHAR
STARTCHAR 00F0
ENCODING 240
SWIDTH 600 0
DWIDTH 10 0
BBX 8 13 1 1
BITMAP
1C
0C
1E
02
3D
67
C3
83
81
83
C3
66
3C
ENDCHAR
STARTCHAR 00F1
ENCODING 241
SWIDTH 600 0
DWIDTH 10 0
BBX 8 12 1 0
BITMAP
32
4C
00
BC
E6
C3
C3
C1
C1
C1
C1
C1
ENDCHAR
STARTCHAR 00F2
ENCODING 242
SWIDTH 600 0
DWIDTH 10 0
BBX 8 13 1 0
BITMAP
30
10
10
00
3C
66
C3
81
81
81
C3
66
3C
ENDCHAR
STARTCHAR 00F3
ENCODING 243
SWIDTH 600 0
DWIDTH 10 0
BBX 8 13 1 0
BITMAP
0C
08
08
00
3C
66
C3
81
81
81
C3
66
3C
ENDCHAR
STARTCHAR 00F4
ENCODING 244
SWIDTH 600 0
DWIDTH 10 0
BBX 8 12 1 0
BITMAP
18
24
00
3C
66
C3
81
81
81
C3
66
3C
ENDCHAR
STARTCHAR 00F5
ENCODING 245
SWIDTH 600 0
DWIDTH 10 0
BBX 8 12 1 0
BITMAP
32
4C
00
3C
66
C3
81
81
81
C3
66
3C
ENDCHAR
STARTCHAR 00F6
ENCODING 246
SWIDTH 600 0
DWIDTH 10 0
BBX 8 12 1 0
BITMAP
24
24
00
3C
66
C3
81
81
81
C3
66
3C
ENDCHAR
STARTCHAR 00F7
ENCODING 247
SWIDTH 540 0
DWIDTH 9 0
BBX 7 6 1 3
BITMAP
10
10
00
FE
10
10
ENDCHAR
STARTCHAR 00F8
ENCODING 248
SWIDTH 600 0
DWIDTH 10 0
BBX 8 9 1 0
BITMAP
3D
67
C7
8D
99
B1
E3
E6
BC
ENDCHAR
STARTCHAR 00F9
ENCODING 249
SWIDTH 600 0
DWIDTH 10 0
BBX 8 13 1 0
BITMAP
10
10
18
00
83
83
83
83
83
C3
C3
67
3D
ENDCHAR
STARTCHAR 00FA
ENCODING 250
SWIDTH 600 0
DWIDTH 10 0
BBX 8 13 1 0
BITMAP
08
08
18
00
83
83
83
83
83
C3
C3
67
3D
ENDCHAR
STARTCHAR 00FB
ENCODING 251
SWIDTH 600 0
DWIDTH 10 0
BBX 8 13 1 0
BITMAP
18
3C
60
00
83
83
83
83
83
C3
C3
67
3D
ENDCHAR
STARTCHAR 00FC
ENCODING 252
SWIDTH 600 0
DWIDTH 10 0
BBX 8 12 1 0
BITMAP
24
24
00
83
83
83
83
83
C3
C3
67
3D
ENDCHAR
STARTCHAR 00FD
ENCODING 253
SWIDTH 540 0
DWIDTH 9 0
BBX 9 17 0 -4
BITMAP
0400
0C00
0800
0000
C180
4100
6300
2200
3200
3600
1400
1C00
0C00
0800
1800
1000
1000
ENDCHAR
STARTCHAR 00FE
ENCODING 254
SWIDTH 600 0
DWIDTH 10 0
BBX 8 16 1 -4
BITMAP
C0
C0
C0
FC
E6
C3
C1
81
C1
C3
E6
FC
C0
C0
C0
C0
ENDCHAR
STARTCHAR 00FF
ENCODING 255
SWIDTH 540 0
DWIDTH 9 0
BBX 9 16 0 -4
BITMAP
3600
3600
0000
C180
4100
6300
2200
3200
3600
1400
1C00
0C00
0800
1800
1000
1000
ENDCHAR
ENDFONT
