STARTFONT 2.1
COMMENT
COMMENT Converted from OpenType font "manrope-semibold.otf" by "otf2bdf 3.0".
COMMENT
FONT -FreeType-Manrope SemiBold-Medium-R-Normal--24-170-100-100-P-112-ISO10646-1
SIZE 17 100 100
FONTBOUNDINGBOX 23 30 -1 -6
STARTPROPERTIES 19
FOUNDRY "FreeType"
FAMILY_NAME "Manrope SemiBold"
WEIGHT_NAME "Medium"
SLANT "R"
SETWIDTH_NAME "Normal"
ADD_STYLE_NAME ""
PIXEL_SIZE 24
POINT_SIZE 170
RESOLUTION_X 100
RESOLUTION_Y 100
SPACING "P"
AVERAGE_WIDTH 112
CHARSET_REGISTRY "ISO10646"
CHARSET_ENCODING "1"
FONT_ASCENT 25
FONT_DESCENT 7
COPYRIGHT "Copyright 2019-2021 The Manrope Project Authors (https://github.com/sharanda/manrope)"
_OTF_FONTFILE "manrope-semibold.otf"
_OTF_PSNAME "Manrope-SemiBold"
ENDPROPERTIES
CHARS 191
STARTCHAR 0020
ENCODING 32
SWIDTH 211 0
DWIDTH 5 0
BBX 0 0 0 0
BITMAP
ENDCHAR
STARTCHAR 0021
ENCODING 33
SWIDTH 338 0
DWIDTH 8 0
BBX 2 17 3 0
BITMAP
C0
C0
C0
C0
C0
C0
C0
C0
C0
C0
C0
C0
C0
00
00
C0
C0
ENDCHAR
STARTCHAR 0022
ENCODING 34
SWIDTH 423 0
DWIDTH 10 0
BBX 7 4 1 13
BITMAP
E6
E6
E6
E6
ENDCHAR
STARTCHAR 0023
ENCODING 35
SWIDTH 931 0
DWIDTH 22 0
BBX 18 17 2 0
BITMAP
018600
018E00
038E00
038C00
030C00
7FFFC0
7FFFC0
071800
061800
063800
FFFF80
FFFF80
0C7000
0C7000
1C6000
186000
18E000
ENDCHAR
STARTCHAR 0024
ENCODING 36
SWIDTH 635 0
DWIDTH 15 0
BBX 13 21 1 -2
BITMAP
0700
0700
1F80
3FE0
78F0
6070
E030
6000
7800
3F00
1FE0
03F0
0070
0038
E038
E030
78F0
3FE0
1FC0
0700
0700
ENDCHAR
STARTCHAR 0025
ENCODING 37
SWIDTH 889 0
DWIDTH 21 0
BBX 19 17 1 0
BITMAP
1E0080
7F01C0
738380
E18700
E18E00
639C00
7F3800
3E7000
00E000
01CF80
039FC0
0718E0
0E3860
1C3860
3818E0
301FC0
200780
ENDCHAR
STARTCHAR 0026
ENCODING 38
SWIDTH 677 0
DWIDTH 16 0
BBX 14 17 1 0
BITMAP
0F80
3FC0
39E0
7040
7000
7000
3800
3C00
3E30
7730
E3B0
E1F0
E0F0
E070
79F8
3FFC
1F88
ENDCHAR
STARTCHAR 0027
ENCODING 39
SWIDTH 254 0
DWIDTH 6 0
BBX 3 4 1 13
BITMAP
E0
E0
E0
E0
ENDCHAR
STARTCHAR 0028
ENCODING 40
SWIDTH 423 0
DWIDTH 10 0
BBX 6 24 3 -4
BITMAP
08
1C
1C
38
30
70
70
60
60
E0
E0
E0
E0
E0
E0
60
60
60
70
30
38
18
1C
0C
ENDCHAR
STARTCHAR 0029
ENCODING 41
SWIDTH 423 0
DWIDTH 10 0
BBX 6 24 1 -4
BITMAP
40
E0
70
70
38
18
18
1C
1C
0C
0C
0C
0C
0C
0C
0C
1C
18
18
38
30
70
E0
60
ENDCHAR
STARTCHAR 002A
ENCODING 42
SWIDTH 465 0
DWIDTH 11 0
BBX 8 8 1 9
BITMAP
18
18
DB
FF
7E
3C
7E
66
ENDCHAR
STARTCHAR 002B
ENCODING 43
SWIDTH 592 0
DWIDTH 14 0
BBX 11 10 1 4
BITMAP
0600
0600
0600
0600
FFE0
FFE0
0600
0600
0600
0600
ENDCHAR
STARTCHAR 002C
ENCODING 44
SWIDTH 296 0
DWIDTH 7 0
BBX 3 6 1 -3
BITMAP
E0
E0
E0
20
60
C0
ENDCHAR
STARTCHAR 002D
ENCODING 45
SWIDTH 423 0
DWIDTH 10 0
BBX 8 2 1 6
BITMAP
FF
FF
ENDCHAR
STARTCHAR 002E
ENCODING 46
SWIDTH 296 0
DWIDTH 7 0
BBX 3 3 2 0
BITMAP
E0
E0
E0
ENDCHAR
STARTCHAR 002F
ENCODING 47
SWIDTH 423 0
DWIDTH 10 0
BBX 6 17 2 0
BITMAP
0C
0C
1C
1C
18
38
38
30
30
70
70
60
60
E0
E0
C0
C0
ENDCHAR
STARTCHAR 0030
ENCODING 48
SWIDTH 635 0
DWIDTH 15 0
BBX 12 17 2 0
BITMAP
1F00
7FC0
7BE0
E0E0
C060
C070
C070
C070
C070
C070
C070
C060
C060
E0E0
7BE0
7FC0
1F00
ENDCHAR
STARTCHAR 0031
ENCODING 49
SWIDTH 423 0
DWIDTH 10 0
BBX 6 17 1 0
BITMAP
1C
7C
FC
CC
8C
0C
0C
0C
0C
0C
0C
0C
0C
0C
0C
0C
0C
ENDCHAR
STARTCHAR 0032
ENCODING 50
SWIDTH 592 0
DWIDTH 14 0
BBX 12 17 1 0
BITMAP
1F00
3FC0
79E0
60E0
E070
0070
0070
00E0
01E0
03C0
0780
0F00
1C00
3800
7000
FFF0
FFF0
ENDCHAR
STARTCHAR 0033
ENCODING 51
SWIDTH 592 0
DWIDTH 14 0
BBX 11 17 1 0
BITMAP
7FE0
7FE0
00E0
03C0
0780
0E00
1F00
1F80
0BC0
00E0
00E0
0060
00E0
E0E0
73C0
7F80
1F00
ENDCHAR
STARTCHAR 0034
ENCODING 52
SWIDTH 592 0
DWIDTH 14 0
BBX 12 17 1 0
BITMAP
0700
0700
0600
0E00
0C00
1C00
1800
38C0
38C0
70C0
70C0
E0C0
FFF0
FFF0
00C0
00C0
00C0
ENDCHAR
STARTCHAR 0035
ENCODING 53
SWIDTH 592 0
DWIDTH 14 0
BBX 12 17 1 0
BITMAP
7FC0
7FC0
6000
6000
6000
6000
6F00
7FC0
79E0
00E0
0070
0070
2060
E0E0
7BE0
3FC0
1F00
ENDCHAR
STARTCHAR 0036
ENCODING 54
SWIDTH 635 0
DWIDTH 15 0
BBX 11 17 2 0
BITMAP
1F00
7FC0
7BC0
E080
C000
C000
CF00
FFC0
F1C0
E0E0
C060
C060
C060
E0E0
7BC0
7F80
1F00
ENDCHAR
STARTCHAR 0037
ENCODING 55
SWIDTH 508 0
DWIDTH 12 0
BBX 10 17 1 0
BITMAP
FFC0
FFC0
01C0
01C0
0180
0380
0300
0700
0700
0600
0E00
0C00
1C00
1C00
1800
3800
3000
ENDCHAR
STARTCHAR 0038
ENCODING 56
SWIDTH 592 0
DWIDTH 14 0
BBX 12 17 1 0
BITMAP
0F80
3FC0
79E0
70E0
6060
70E0
79E0
3FC0
3FE0
70E0
6070
E070
E070
6060
79E0
3FC0
0F80
ENDCHAR
STARTCHAR 0039
ENCODING 57
SWIDTH 635 0
DWIDTH 15 0
BBX 12 17 1 0
BITMAP
0F80
3FC0
7DE0
7070
E070
E070
E070
7070
79F0
3FF0
1F70
0070
0070
0070
39E0
3FC0
1F80
ENDCHAR
STARTCHAR 003A
ENCODING 58
SWIDTH 338 0
DWIDTH 8 0
BBX 2 10 3 1
BITMAP
C0
C0
C0
00
00
00
00
C0
C0
C0
ENDCHAR
STARTCHAR 003B
ENCODING 59
SWIDTH 338 0
DWIDTH 8 0
BBX 2 16 3 -3
BITMAP
C0
C0
C0
00
00
00
00
00
00
00
C0
C0
C0
40
40
80
ENDCHAR
STARTCHAR 003C
ENCODING 60
SWIDTH 635 0
DWIDTH 15 0
BBX 7 11 3 2
BITMAP
04
0E
1E
38
70
E0
70
38
1C
0E
06
ENDCHAR
STARTCHAR 003D
ENCODING 61
SWIDTH 762 0
DWIDTH 18 0
BBX 12 7 3 5
BITMAP
FFF0
FFF0
0000
0000
0000
FFF0
FFF0
ENDCHAR
STARTCHAR 003E
ENCODING 62
SWIDTH 635 0
DWIDTH 15 0
BBX 7 11 4 2
BITMAP
40
E0
70
38
1C
0E
0E
1C
38
70
60
ENDCHAR
STARTCHAR 003F
ENCODING 63
SWIDTH 550 0
DWIDTH 13 0
BBX 11 17 1 0
BITMAP
1F00
3F80
73C0
E0E0
E0E0
00E0
01C0
03C0
0780
0F00
0E00
0C00
0000
0000
0C00
0C00
0C00
ENDCHAR
STARTCHAR 0040
ENCODING 64
SWIDTH 931 0
DWIDTH 22 0
BBX 18 17 2 -2
BITMAP
03F000
0FFC00
3C0E00
700700
600380
E3D980
C7F980
C631C0
CE11C0
CE19C0
C63980
C7FF80
61CF00
700000
3C0000
1FF000
03F000
ENDCHAR
STARTCHAR 0041
ENCODING 65
SWIDTH 677 0
DWIDTH 16 0
BBX 14 17 1 0
BITMAP
0780
0F80
0F80
0DC0
0DC0
1CC0
18E0
18E0
3860
3070
3070
7FF0
7FF8
6038
E018
E01C
C01C
ENDCHAR
STARTCHAR 0042
ENCODING 66
SWIDTH 635 0
DWIDTH 15 0
BBX 12 17 2 0
BITMAP
FF80
FFC0
C1E0
C0E0
C060
C060
C0E0
FFC0
FFC0
C0E0
C070
C070
C070
C070
C0F0
FFE0
FFC0
ENDCHAR
STARTCHAR 0043
ENCODING 67
SWIDTH 720 0
DWIDTH 17 0
BBX 15 17 1 0
BITMAP
07E0
1FF8
3E7C
701C
E00E
E006
E000
C000
C000
C000
C000
E006
E00E
701C
3E7C
1FF8
07E0
ENDCHAR
STARTCHAR 0044
ENCODING 68
SWIDTH 677 0
DWIDTH 16 0
BBX 13 17 2 0
BITMAP
FF80
FFC0
C1E0
C070
C030
C038
C038
C018
C018
C018
C038
C038
C030
C070
C1E0
FFC0
FF80
ENDCHAR
STARTCHAR 0045
ENCODING 69
SWIDTH 592 0
DWIDTH 14 0
BBX 11 17 2 0
BITMAP
FFE0
FFE0
C000
C000
C000
C000
C000
FF80
FF80
C000
C000
C000
C000
C000
C000
FFE0
FFE0
ENDCHAR
STARTCHAR 0046
ENCODING 70
SWIDTH 508 0
DWIDTH 12 0
BBX 10 17 2 0
BITMAP
FFC0
FFC0
C000
C000
C000
C000
C000
FF00
FF00
C000
C000
C000
C000
C000
C000
C000
C000
ENDCHAR
STARTCHAR 0047
ENCODING 71
SWIDTH 720 0
DWIDTH 17 0
BBX 15 17 1 0
BITMAP
07E0
1FF8
3E7C
701C
E00E
E000
C000
C000
C07E
C07E
E006
E00E
E00E
701C
3E7C
1FF8
07E0
ENDCHAR
STARTCHAR 0048
ENCODING 72
SWIDTH 720 0
DWIDTH 17 0
BBX 13 17 2 0
BITMAP
C018
C018
C018
C018
C018
C018
C018
FFF8
FFF8
C018
C018
C018
C018
C018
C018
C018
C018
ENDCHAR
STARTCHAR 0049
ENCODING 73
SWIDTH 254 0
DWIDTH 6 0
BBX 2 17 2 0
BITMAP
C0
C0
C0
C0
C0
C0
C0
C0
C0
C0
C0
C0
C0
C0
C0
C0
C0
ENDCHAR
STARTCHAR 004A
ENCODING 74
SWIDTH 508 0
DWIDTH 12 0
BBX 10 17 0 0
BITMAP
01C0
01C0
01C0
01C0
01C0
01C0
01C0
01C0
01C0
01C0
01C0
01C0
01C0
E1C0
F380
7F80
3E00
ENDCHAR
STARTCHAR 004B
ENCODING 75
SWIDTH 635 0
DWIDTH 15 0
BBX 12 17 2 0
BITMAP
C070
C0E0
C1C0
C380
C700
CE00
DC00
FC00
F800
DC00
CE00
C700
C780
C3C0
C1E0
C0E0
C070
ENDCHAR
STARTCHAR 004C
ENCODING 76
SWIDTH 508 0
DWIDTH 12 0
BBX 10 17 2 0
BITMAP
C000
C000
C000
C000
C000
C000
C000
C000
C000
C000
C000
C000
C000
C000
C000
FFC0
FFC0
ENDCHAR
STARTCHAR 004D
ENCODING 77
SWIDTH 847 0
DWIDTH 20 0
BBX 16 17 2 0
BITMAP
C003
E007
E007
F007
F00F
F80F
F81F
DC1B
DC3B
CC33
CE73
C663
C7E3
C3C3
C3C3
C183
C183
ENDCHAR
STARTCHAR 004E
ENCODING 78
SWIDTH 720 0
DWIDTH 17 0
BBX 13 17 2 0
BITMAP
E018
E018
F018
F018
F818
DC18
CC18
CE18
C718
C318
C398
C1D8
C0D8
C0F8
C078
C038
C038
ENDCHAR
STARTCHAR 004F
ENCODING 79
SWIDTH 720 0
DWIDTH 17 0
BBX 16 17 1 0
BITMAP
07E0
1FF8
3EFC
701C
E00E
E006
E007
C007
C007
C007
E007
E006
E00E
701C
3E7C
1FF8
07E0
ENDCHAR
STARTCHAR 0050
ENCODING 80
SWIDTH 635 0
DWIDTH 15 0
BBX 12 17 2 0
BITMAP
FF80
FFE0
C0E0
C070
C070
C030
C070
C070
C0E0
FFE0
FF80
C000
C000
C000
C000
C000
C000
ENDCHAR
STARTCHAR 0051
ENCODING 81
SWIDTH 720 0
DWIDTH 17 0
BBX 16 17 1 0
BITMAP
07E0
1FF8
3EFC
701C
E00E
E006
E007
C007
C007
C007
E007
E026
E07E
703C
3E7E
1FFE
07E4
ENDCHAR
STARTCHAR 0052
ENCODING 82
SWIDTH 635 0
DWIDTH 15 0
BBX 12 17 2 0
BITMAP
FF80
FFE0
C0E0
C070
C070
C030
C070
C070
C0E0
FFE0
FF80
C1C0
C1C0
C0E0
C0E0
C070
C070
ENDCHAR
STARTCHAR 0053
ENCODING 83
SWIDTH 635 0
DWIDTH 15 0
BBX 13 17 1 0
BITMAP
0F80
3FE0
78F0
7038
6038
6000
7800
3F80
1FE0
01F8
0038
0018
E018
F038
7CF8
3FF0
0FC0
ENDCHAR
STARTCHAR 0054
ENCODING 84
SWIDTH 592 0
DWIDTH 14 0
BBX 14 17 0 0
BITMAP
FFFC
FFFC
0300
0300
0300
0300
0300
0300
0300
0300
0300
0300
0300
0300
0300
0300
0300
ENDCHAR
STARTCHAR 0055
ENCODING 85
SWIDTH 720 0
DWIDTH 17 0
BBX 13 17 2 0
BITMAP
C018
C018
C018
C018
C018
C018
C018
C018
C018
C018
C018
C018
E038
E078
79F0
3FE0
0F80
ENDCHAR
STARTCHAR 0056
ENCODING 86
SWIDTH 635 0
DWIDTH 15 0
BBX 15 17 0 0
BITMAP
E00E
600C
701C
701C
3018
3038
3838
1830
1870
1C70
0C60
0CE0
0EE0
0EC0
07C0
07C0
0780
ENDCHAR
STARTCHAR 0057
ENCODING 87
SWIDTH 974 0
DWIDTH 23 0
BBX 22 17 0 0
BITMAP
E0380C
60381C
70781C
707C18
307C18
306C38
38EC38
38CE30
18C670
1DC670
1DC760
0D8760
0D83E0
0F83C0
0703C0
0701C0
0701C0
ENDCHAR
STARTCHAR 0058
ENCODING 88
SWIDTH 635 0
DWIDTH 15 0
BBX 14 17 1 0
BITMAP
E038
E038
7070
38E0
38E0
1DC0
0F80
0F80
0700
0F80
0FC0
1DC0
38E0
3870
7070
E038
E03C
ENDCHAR
STARTCHAR 0059
ENCODING 89
SWIDTH 592 0
DWIDTH 14 0
BBX 14 17 0 0
BITMAP
E01C
7038
7038
3870
1860
1CE0
0FC0
0FC0
0780
0780
0300
0300
0300
0300
0300
0300
0300
ENDCHAR
STARTCHAR 005A
ENCODING 90
SWIDTH 635 0
DWIDTH 15 0
BBX 13 17 1 0
BITMAP
7FF8
7FF0
0070
00E0
00E0
01C0
0380
0380
0700
0F00
0E00
1C00
1C00
3800
7800
7FF8
FFF8
ENDCHAR
STARTCHAR 005B
ENCODING 91
SWIDTH 423 0
DWIDTH 10 0
BBX 5 26 3 -5
BITMAP
F8
F8
E0
E0
E0
E0
E0
E0
E0
E0
E0
E0
E0
E0
E0
E0
E0
E0
E0
E0
E0
E0
E0
E0
F8
F8
ENDCHAR
STARTCHAR 005C
ENCODING 92
SWIDTH 423 0
DWIDTH 10 0
BBX 6 17 2 0
BITMAP
C0
C0
E0
E0
60
60
70
70
30
30
38
38
18
1C
1C
0C
0C
ENDCHAR
STARTCHAR 005D
ENCODING 93
SWIDTH 423 0
DWIDTH 10 0
BBX 5 26 2 -5
BITMAP
F8
F8
38
38
38
38
38
38
38
38
38
38
38
38
38
38
38
38
38
38
38
38
38
38
F8
F8
ENDCHAR
STARTCHAR 005E
ENCODING 94
SWIDTH 677 0
DWIDTH 16 0
BBX 11 7 3 10
BITMAP
0400
0E00
1F00
3B80
71C0
E0E0
C040
ENDCHAR
STARTCHAR 005F
ENCODING 95
SWIDTH 677 0
DWIDTH 16 0
BBX 16 2 0 -3
BITMAP
FFFF
FFFF
ENDCHAR
STARTCHAR 0060
ENCODING 96
SWIDTH 508 0
DWIDTH 12 0
BBX 3 4 4 19
BITMAP
C0
40
60
60
ENDCHAR
STARTCHAR 0061
ENCODING 97
SWIDTH 550 0
DWIDTH 13 0
BBX 11 13 1 0
BITMAP
1F00
3FC0
79E0
E0E0
0060
0FE0
7FE0
F860
E0E0
C0E0
E1E0
7F60
3E60
ENDCHAR
STARTCHAR 0062
ENCODING 98
SWIDTH 592 0
DWIDTH 14 0
BBX 11 17 2 0
BITMAP
C000
C000
C000
C000
DF00
FF80
F3C0
E0E0
C0E0
C060
C060
C060
C0E0
E0E0
F1C0
FF80
DF00
ENDCHAR
STARTCHAR 0063
ENCODING 99
SWIDTH 550 0
DWIDTH 13 0
BBX 12 13 1 0
BITMAP
1F80
3FC0
79E0
6070
E000
E000
E000
E000
E000
E070
79E0
3FC0
1F80
ENDCHAR
STARTCHAR 0064
ENCODING 100
SWIDTH 592 0
DWIDTH 14 0
BBX 12 17 1 0
BITMAP
0070
0070
0070
0070
1F70
3FF0
79F0
E070
E070
E070
E030
E070
E070
E070
79F0
3FF0
1F30
ENDCHAR
STARTCHAR 0065
ENCODING 101
SWIDTH 592 0
DWIDTH 14 0
BBX 12 13 1 0
BITMAP
0F80
3FC0
78E0
E070
E070
FFF0
FFF0
E000
E000
6070
79E0
3FC0
0F80
ENDCHAR
STARTCHAR 0066
ENCODING 102
SWIDTH 381 0
DWIDTH 9 0
BBX 8 17 1 0
BITMAP
1F
3F
38
30
FF
FF
30
30
30
30
30
30
30
30
30
30
30
ENDCHAR
STARTCHAR 0067
ENCODING 103
SWIDTH 592 0
DWIDTH 14 0
BBX 12 18 1 -5
BITMAP
1F30
3FF0
79F0
E070
E070
E070
E030
E070
E070
E070
79F0
3FF0
1F70
0070
0070
70E0
7FE0
1FC0
ENDCHAR
STARTCHAR 0068
ENCODING 104
SWIDTH 635 0
DWIDTH 15 0
BBX 11 17 2 0
BITMAP
C000
C000
C000
C000
CF00
FFC0
FBC0
E0E0
C0E0
C0E0
C060
C060
C060
C060
C060
C060
C060
ENDCHAR
STARTCHAR 0069
ENCODING 105
SWIDTH 254 0
DWIDTH 6 0
BBX 2 17 2 0
BITMAP
C0
C0
00
00
C0
C0
C0
C0
C0
C0
C0
C0
C0
C0
C0
C0
C0
ENDCHAR
STARTCHAR 006A
ENCODING 106
SWIDTH 296 0
DWIDTH 7 0
BBX 5 22 0 -5
BITMAP
38
38
00
00
38
38
38
38
38
38
38
38
38
38
38
38
38
38
38
38
F8
F0
ENDCHAR
STARTCHAR 006B
ENCODING 107
SWIDTH 508 0
DWIDTH 12 0
BBX 10 17 2 0
BITMAP
C000
C000
C000
C000
C1C0
C380
C700
CE00
CE00
DC00
F800
DC00
CE00
CF00
C780
C3C0
C1C0
ENDCHAR
STARTCHAR 006C
ENCODING 108
SWIDTH 254 0
DWIDTH 6 0
BBX 2 17 2 0
BITMAP
C0
C0
C0
C0
C0
C0
C0
C0
C0
C0
C0
C0
C0
C0
C0
C0
C0
ENDCHAR
STARTCHAR 006D
ENCODING 109
SWIDTH 889 0
DWIDTH 21 0
BBX 17 13 2 0
BITMAP
DF1E00
FFBF00
F3E380
C1C180
C1C180
C1C180
C1C180
C1C180
C1C180
C1C180
C1C180
C1C180
C1C180
ENDCHAR
STARTCHAR 006E
ENCODING 110
SWIDTH 635 0
DWIDTH 15 0
BBX 11 13 2 0
BITMAP
CF00
FFC0
F3C0
E0E0
C0E0
C0E0
C060
C060
C060
C060
C060
C060
C060
ENDCHAR
STARTCHAR 006F
ENCODING 111
SWIDTH 592 0
DWIDTH 14 0
BBX 12 13 1 0
BITMAP
0F80
3FC0
79E0
6070
E070
E030
E030
E030
E070
6070
79E0
3FC0
0F80
ENDCHAR
STARTCHAR 0070
ENCODING 112
SWIDTH 592 0
DWIDTH 14 0
BBX 11 18 2 -5
BITMAP
DF00
FF80
F3C0
E0E0
C0E0
C060
C060
C060
C0E0
E0E0
F1C0
FF80
DF00
C000
C000
C000
C000
C000
ENDCHAR
STARTCHAR 0071
ENCODING 113
SWIDTH 592 0
DWIDTH 14 0
BBX 12 18 1 -5
BITMAP
1F30
3FF0
79F0
E070
E070
E070
E030
E070
E070
E070
79F0
3FF0
1F70
0070
0070
0070
0070
0070
ENDCHAR
STARTCHAR 0072
ENCODING 114
SWIDTH 381 0
DWIDTH 9 0
BBX 7 13 2 0
BITMAP
CE
FE
F8
E0
C0
C0
C0
C0
C0
C0
C0
C0
C0
ENDCHAR
STARTCHAR 0073
ENCODING 115
SWIDTH 550 0
DWIDTH 13 0
BBX 11 13 1 0
BITMAP
1F00
7FC0
71C0
E0E0
E000
7E00
3F80
03C0
00E0
E0E0
F1C0
7FC0
1F00
ENDCHAR
STARTCHAR 0074
ENCODING 116
SWIDTH 423 0
DWIDTH 10 0
BBX 9 17 0 0
BITMAP
1800
1800
1800
1800
FF80
FF80
1800
1800
1800
1800
1800
1800
1800
1800
1C00
1F80
0F80
ENDCHAR
STARTCHAR 0075
ENCODING 117
SWIDTH 635 0
DWIDTH 15 0
BBX 12 13 1 0
BITMAP
E070
E070
E070
E070
E070
E070
E070
E070
E070
7070
79F0
3FB0
1F30
ENDCHAR
STARTCHAR 0076
ENCODING 118
SWIDTH 550 0
DWIDTH 13 0
BBX 11 13 1 0
BITMAP
C060
C0E0
E0C0
60C0
71C0
7180
3380
3B80
3B00
1F00
1E00
0E00
0E00
ENDCHAR
STARTCHAR 0077
ENCODING 119
SWIDTH 804 0
DWIDTH 19 0
BBX 17 13 1 0
BITMAP
C1C180
C1C380
E1C300
63C300
636700
736700
766600
363600
363E00
3C3C00
1C1C00
1C1C00
1C1800
ENDCHAR
STARTCHAR 0078
ENCODING 120
SWIDTH 550 0
DWIDTH 13 0
BBX 11 13 1 0
BITMAP
E0E0
E0C0
71C0
3B80
1F00
1F00
0E00
1F00
3B00
3B80
71C0
E0E0
E0E0
ENDCHAR
STARTCHAR 0079
ENCODING 121
SWIDTH 550 0
DWIDTH 13 0
BBX 12 18 1 -5
BITMAP
C070
E060
E0E0
60C0
70C0
31C0
3180
3B80
1B80
1F00
0F00
0E00
0E00
0E00
0C00
1C00
1800
1800
ENDCHAR
STARTCHAR 007A
ENCODING 122
SWIDTH 550 0
DWIDTH 13 0
BBX 11 13 1 0
BITMAP
FFE0
FFC0
0380
0300
0700
0E00
0C00
1C00
3800
3000
7000
FFC0
FFC0
ENDCHAR
STARTCHAR 007B
ENCODING 123
SWIDTH 423 0
DWIDTH 10 0
BBX 6 26 3 -5
BITMAP
1C
3C
38
30
30
30
30
30
30
30
30
70
E0
E0
70
30
30
30
30
30
30
30
30
38
3C
1C
ENDCHAR
STARTCHAR 007C
ENCODING 124
SWIDTH 296 0
DWIDTH 7 0
BBX 3 17 2 0
BITMAP
E0
E0
E0
E0
E0
E0
E0
E0
E0
E0
E0
E0
E0
E0
E0
E0
E0
ENDCHAR
STARTCHAR 007D
ENCODING 125
SWIDTH 423 0
DWIDTH 10 0
BBX 6 26 1 -5
BITMAP
E0
F0
38
38
38
38
38
38
38
38
38
18
1C
1C
18
38
38
38
38
38
38
38
38
38
F0
E0
ENDCHAR
STARTCHAR 007E
ENCODING 126
SWIDTH 677 0
DWIDTH 16 0
BBX 11 5 3 5
BITMAP
7000
FCE0
FFE0
CFE0
03C0
ENDCHAR
STARTCHAR 00A0
ENCODING 160
SWIDTH 211 0
DWIDTH 5 0
BBX 0 0 0 0
BITMAP
ENDCHAR
STARTCHAR 00A1
ENCODING 161
SWIDTH 338 0
DWIDTH 8 0
BBX 2 17 3 -4
BITMAP
C0
C0
00
00
C0
C0
C0
C0
C0
C0
C0
C0
C0
C0
C0
C0
C0
ENDCHAR
STARTCHAR 00A2
ENCODING 162
SWIDTH 550 0
DWIDTH 13 0
BBX 11 18 1 -1
BITMAP
0600
0600
0F00
3FC0
7FE0
70E0
E040
E000
E000
E000
E000
E060
70E0
7FE0
3FC0
0600
0600
0600
ENDCHAR
STARTCHAR 00A3
ENCODING 163
SWIDTH 550 0
DWIDTH 13 0
BBX 11 17 1 0
BITMAP
0780
1FC0
1CE0
3860
3860
3800
3800
3800
FF80
FF80
3800
3800
3800
3800
7800
FFE0
FFE0
ENDCHAR
STARTCHAR 00A4
ENCODING 164
SWIDTH 677 0
DWIDTH 16 0
BBX 14 15 1 1
BITMAP
4008
EF9C
FFF8
78F0
7030
6038
6018
6018
6018
6038
7030
78F0
FFF8
EF9C
4008
ENDCHAR
STARTCHAR 00A5
ENCODING 165
SWIDTH 592 0
DWIDTH 14 0
BBX 14 17 0 0
BITMAP
E01C
7038
7038
3870
1860
1CE0
0FC0
0FC0
0780
3FF0
3FF0
0300
0300
3FF0
3FF0
0300
0300
ENDCHAR
STARTCHAR 00A6
ENCODING 166
SWIDTH 296 0
DWIDTH 7 0
BBX 3 21 2 -4
BITMAP
E0
E0
E0
E0
E0
E0
E0
E0
E0
00
00
00
E0
E0
E0
E0
E0
E0
E0
E0
E0
ENDCHAR
STARTCHAR 00A7
ENCODING 167
SWIDTH 550 0
DWIDTH 13 0
BBX 11 19 1 -3
BITMAP
1E00
7F80
73C0
E1C0
E000
7C00
3F80
77C0
E0E0
E0E0
E0E0
7FC0
3F80
03C0
00C0
E0C0
71C0
7FC0
1F00
ENDCHAR
STARTCHAR 00A8
ENCODING 168
SWIDTH 550 0
DWIDTH 13 0
BBX 7 2 3 19
BITMAP
C6
C6
ENDCHAR
STARTCHAR 00A9
ENCODING 169
SWIDTH 847 0
DWIDTH 20 0
BBX 19 19 1 -1
BITMAP
03F000
0FFC00
1F3E00
3C0700
700380
71E180
E3F9C0
C718C0
C600C0
C600E0
C600E0
C600C0
E718C0
E3F9C0
71E380
380780
1F1F00
0FFC00
03F000
ENDCHAR
STARTCHAR 00AA
ENCODING 170
SWIDTH 338 0
DWIDTH 8 0
BBX 6 7 1 6
BITMAP
78
C8
1C
FC
8C
FC
2C
ENDCHAR
STARTCHAR 00AB
ENCODING 171
SWIDTH 550 0
DWIDTH 13 0
BBX 10 10 2 1
BITMAP
18C0
3980
3300
6700
C600
E600
6300
3180
19C0
0880
ENDCHAR
STARTCHAR 00AC
ENCODING 172
SWIDTH 592 0
DWIDTH 14 0
BBX 12 5 1 4
BITMAP
FFF0
FFF0
0030
0030
0030
ENDCHAR
STARTCHAR 00AD
ENCODING 173
SWIDTH 423 0
DWIDTH 10 0
BBX 8 2 1 6
BITMAP
FF
FF
ENDCHAR
STARTCHAR 00AE
ENCODING 174
SWIDTH 635 0
DWIDTH 15 0
BBX 12 13 2 6
BITMAP
0E00
3F80
71C0
E060
CE60
8930
8E30
CA20
C960
E060
71C0
3F80
0E00
ENDCHAR
STARTCHAR 00AF
ENCODING 175
SWIDTH 508 0
DWIDTH 12 0
BBX 6 2 3 20
BITMAP
FC
FC
ENDCHAR
STARTCHAR 00B0
ENCODING 176
SWIDTH 465 0
DWIDTH 11 0
BBX 8 8 1 9
BITMAP
3C
7E
E7
C3
C3
E7
7E
3C
ENDCHAR
STARTCHAR 00B1
ENCODING 177
SWIDTH 592 0
DWIDTH 14 0
BBX 12 11 1 2
BITMAP
0600
0600
0600
FFF0
FFF0
0600
0600
0600
0000
FFF0
FFF0
ENDCHAR
STARTCHAR 00B2
ENCODING 178
SWIDTH 423 0
DWIDTH 10 0
BBX 7 11 1 6
BITMAP
3C
7E
C6
02
06
0E
1C
30
60
FE
FE
ENDCHAR
STARTCHAR 00B3
ENCODING 179
SWIDTH 381 0
DWIDTH 9 0
BBX 7 11 1 6
BITMAP
FE
FE
0C
18
3C
2E
06
06
C6
FC
38
ENDCHAR
STARTCHAR 00B4
ENCODING 180
SWIDTH 508 0
DWIDTH 12 0
BBX 3 4 5 19
BITMAP
60
60
C0
C0
ENDCHAR
STARTCHAR 00B5
ENCODING 181
SWIDTH 635 0
DWIDTH 15 0
BBX 11 18 2 -5
BITMAP
C060
C060
C060
C060
C060
C060
C060
C060
C0E0
E0E0
FBE0
FFE0
FE60
C000
C000
C000
C000
C000
ENDCHAR
STARTCHAR 00B6
ENCODING 182
SWIDTH 677 0
DWIDTH 16 0
BBX 14 20 1 -3
BITMAP
1F9C
3F9C
7F9C
7F9C
FF9C
FF9C
FF9C
7F9C
7F9C
3F9C
1F9C
019C
019C
019C
019C
019C
019C
019C
019C
019C
ENDCHAR
STARTCHAR 00B7
ENCODING 183
SWIDTH 254 0
DWIDTH 6 0
BBX 4 3 1 6
BITMAP
60
F0
60
ENDCHAR
STARTCHAR 00B8
ENCODING 184
SWIDTH 423 0
DWIDTH 10 0
BBX 4 6 3 -6
BITMAP
60
60
70
30
F0
E0
ENDCHAR
STARTCHAR 00B9
ENCODING 185
SWIDTH 338 0
DWIDTH 8 0
BBX 4 11 1 6
BITMAP
30
F0
B0
30
30
30
30
30
30
30
30
ENDCHAR
STARTCHAR 00BA
ENCODING 186
SWIDTH 338 0
DWIDTH 8 0
BBX 6 7 1 6
BITMAP
78
CC
C4
84
C4
CC
78
ENDCHAR
STARTCHAR 00BB
ENCODING 187
SWIDTH 550 0
DWIDTH 13 0
BBX 9 10 2 1
BITMAP
CC00
C600
6700
3380
1980
3180
7300
6600
CE00
8400
ENDCHAR
STARTCHAR 00BC
ENCODING 188
SWIDTH 1016 0
DWIDTH 24 0
BBX 20 17 1 0
BITMAP
300100
F00300
B00600
300E00
300C00
301800
3030C0
307080
306180
30C100
318300
038360
030660
0607F0
0C07F0
1C0060
080060
ENDCHAR
STARTCHAR 00BD
ENCODING 189
SWIDTH 974 0
DWIDTH 23 0
BBX 21 17 1 0
BITMAP
300100
F00300
B00600
300E00
300C00
301800
3030E0
3073F8
306318
30C318
318018
038038
030070
0600E0
0C0180
1C03F8
0803F8
ENDCHAR
STARTCHAR 00BE
ENCODING 190
SWIDTH 1016 0
DWIDTH 24 0
BBX 21 17 1 0
BITMAP
FE0080
FE01C0
0C0180
180300
3C0600
2E0E00
060C60
061860
C630C0
FC70C0
386180
00C190
018310
0383F8
0303F8
060010
040010
ENDCHAR
STARTCHAR 00BF
ENCODING 191
SWIDTH 550 0
DWIDTH 13 0
BBX 10 17 1 -4
BITMAP
0E00
0E00
0E00
0000
0000
0E00
0E00
1C00
3C00
7800
7000
E000
E000
E0C0
71C0
7FC0
3F00
ENDCHAR
STARTCHAR 00C0
ENCODING 192
SWIDTH 677 0
DWIDTH 16 0
BBX 14 23 1 0
BITMAP
0C00
0C00
0600
0600
0000
0000
0780
0F80
0F80
0DC0
0DC0
1CC0
18E0
18E0
3860
3870
3070
7FF0
7FF8
6038
E018
E01C
C01C
ENDCHAR
STARTCHAR 00C1
ENCODING 193
SWIDTH 677 0
DWIDTH 16 0
BBX 14 23 1 0
BITMAP
0080
0180
0180
0300
0000
0000
0780
0F80
0F80
0DC0
0DC0
1CC0
18E0
18E0
3860
3070
3070
7FF0
7FF8
6038
E018
E01C
C01C
ENDCHAR
STARTCHAR 00C2
ENCODING 194
SWIDTH 677 0
DWIDTH 16 0
BBX 14 23 1 0
BITMAP
0300
0780
0DC0
18C0
0000
0000
0780
0F80
0F80
0DC0
0DC0
1CC0
18E0
18E0
3860
3070
3070
7FF0
7FF8
6038
E018
E01C
C01C
ENDCHAR
STARTCHAR 00C3
ENCODING 195
SWIDTH 677 0
DWIDTH 16 0
BBX 14 23 1 0
BITMAP
0C00
1F60
13E0
01C0
0000
0000
0780
0F80
0F80
0DC0
0DC0
1CC0
18E0
18E0
3860
3070
3070
7FF0
7FF8
6038
E018
E01C
C01C
ENDCHAR
STARTCHAR 00C4
ENCODING 196
SWIDTH 677 0
DWIDTH 16 0
BBX 14 21 1 0
BITMAP
1CC0
1CC0
0000
0000
0780
0F80
0F80
0DC0
0DC0
1CC0
18E0
18E0
3860
3070
3070
7FF0
7FF8
6038
E018
E01C
C01C
ENDCHAR
STARTCHAR 00C5
ENCODING 197
SWIDTH 677 0
DWIDTH 16 0
BBX 14 24 1 0
BITMAP
0700
0F80
0CC0
0CC0
0F80
0200
0000
0780
0F80
0F80
0DC0
0DC0
1CC0
18E0
18E0
3860
3070
3070
7FF0
7FF8
6038
E018
E01C
C01C
ENDCHAR
STARTCHAR 00C6
ENCODING 198
SWIDTH 931 0
DWIDTH 22 0
BBX 20 17 1 0
BITMAP
07FFF0
0FFFF0
0E6000
0C6000
0C6000
1C6000
186000
187FC0
387FC0
306000
306000
7FE000
7FE000
606000
E06000
E07FF0
C07FF0
ENDCHAR
STARTCHAR 00C7
ENCODING 199
SWIDTH 720 0
DWIDTH 17 0
BBX 15 22 1 -5
BITMAP
07E0
1FF8
3E7C
701C
E00E
E006
E000
C000
C000
C000
C000
E006
E00E
701C
3E7C
1FF8
07E0
0180
01C0
00C0
03C0
0380
ENDCHAR
STARTCHAR 00C8
ENCODING 200
SWIDTH 592 0
DWIDTH 14 0
BBX 11 23 2 0
BITMAP
1800
1800
0C00
0C00
0000
0000
FFE0
FFE0
C000
C000
C000
C000
C000
FF80
FF80
C000
C000
C000
C000
C000
C000
FFE0
FFE0
ENDCHAR
STARTCHAR 00C9
ENCODING 201
SWIDTH 592 0
DWIDTH 14 0
BBX 11 23 2 0
BITMAP
0300
0600
0600
0600
0000
0000
FFE0
FFE0
C000
C000
C000
C000
C000
FF80
FF80
C000
C000
C000
C000
C000
C000
FFE0
FFE0
ENDCHAR
STARTCHAR 00CA
ENCODING 202
SWIDTH 592 0
DWIDTH 14 0
BBX 11 23 2 0
BITMAP
0C00
1E00
3700
7380
0000
0000
FFE0
FFE0
C000
C000
C000
C000
C000
FF80
FF80
C000
C000
C000
C000
C000
C000
FFE0
FFE0
ENDCHAR
STARTCHAR 00CB
ENCODING 203
SWIDTH 592 0
DWIDTH 14 0
BBX 11 21 2 0
BITMAP
7380
7380
0000
0000
FFE0
FFE0
C000
C000
C000
C000
C000
FF80
FF80
C000
C000
C000
C000
C000
C000
FFE0
FFE0
ENDCHAR
STARTCHAR 00CC
ENCODING 204
SWIDTH 254 0
DWIDTH 6 0
BBX 3 23 1 0
BITMAP
C0
C0
C0
60
00
00
60
60
60
60
60
60
60
60
60
60
60
60
60
60
60
60
60
ENDCHAR
STARTCHAR 00CD
ENCODING 205
SWIDTH 254 0
DWIDTH 6 0
BBX 4 23 2 0
BITMAP
30
60
60
C0
00
00
C0
C0
C0
C0
C0
C0
C0
C0
C0
C0
C0
C0
C0
C0
C0
C0
C0
ENDCHAR
STARTCHAR 00CE
ENCODING 206
SWIDTH 254 0
DWIDTH 6 0
BBX 8 23 -1 0
BITMAP
18
3C
76
E7
00
00
18
18
18
18
18
18
18
18
18
18
18
18
18
18
18
18
18
ENDCHAR
STARTCHAR 00CF
ENCODING 207
SWIDTH 254 0
DWIDTH 6 0
BBX 7 21 0 0
BITMAP
CE
CE
00
00
30
30
30
30
30
30
30
30
30
30
30
30
30
30
30
30
30
ENDCHAR
STARTCHAR 00D0
ENCODING 208
SWIDTH 677 0
DWIDTH 16 0
BBX 15 17 0 0
BITMAP
3FE0
3FF0
3078
301C
300E
300E
300E
FF06
FF06
300E
300E
300E
300C
301C
3078
3FF0
3FE0
ENDCHAR
STARTCHAR 00D1
ENCODING 209
SWIDTH 720 0
DWIDTH 17 0
BBX 13 22 2 0
BITMAP
1C60
1FC0
11C0
0000
0000
E018
E018
F018
F018
F818
DC18
CC18
CE18
C718
C318
C398
C1D8
C0D8
C0F8
C078
C038
C038
ENDCHAR
STARTCHAR 00D2
ENCODING 210
SWIDTH 720 0
DWIDTH 17 0
BBX 16 23 1 0
BITMAP
0600
0600
0300
0300
0000
0000
07E0
1FF8
3EFC
701C
E00E
E006
E007
C007
C007
C007
E007
E006
E00E
701C
3E7C
1FF8
07E0
ENDCHAR
STARTCHAR 00D3
ENCODING 211
SWIDTH 720 0
DWIDTH 17 0
BBX 16 23 1 0
BITMAP
0040
00C0
00C0
0180
0000
0000
07E0
1FF8
3EFC
701C
E00E
E006
E007
C007
C007
C007
E007
E006
E00E
701C
3E7C
1FF8
07E0
ENDCHAR
STARTCHAR 00D4
ENCODING 212
SWIDTH 720 0
DWIDTH 17 0
BBX 16 22 1 0
BITMAP
0380
07C0
0660
0C70
0000
07E0
1FF8
3EFC
701C
E00E
E006
E007
C007
C007
C007
E007
E006
E00E
701C
3E7C
1FF8
07E0
ENDCHAR
STARTCHAR 00D5
ENCODING 213
SWIDTH 720 0
DWIDTH 17 0
BBX 16 22 1 0
BITMAP
0730
0FF0
0CE0
0000
0000
07E0
1FF8
3EFC
701C
E00E
E006
E007
C007
C007
C007
E007
E006
E00E
701C
3E7C
1FF8
07E0
ENDCHAR
STARTCHAR 00D6
ENCODING 214
SWIDTH 720 0
DWIDTH 17 0
BBX 16 21 1 0
BITMAP
0E60
0E60
0000
0000
07E0
1FF8
3EFC
701C
E00E
E006
E007
C007
C007
C007
E007
E006
E00E
701C
3E7C
1FF8
07E0
ENDCHAR
STARTCHAR 00D7
ENCODING 215
SWIDTH 508 0
DWIDTH 12 0
BBX 9 9 1 4
BITMAP
4100
6380
7700
3E00
1C00
3E00
7700
E380
4100
ENDCHAR
STARTCHAR 00D8
ENCODING 216
SWIDTH 720 0
DWIDTH 17 0
BBX 16 17 1 0
BITMAP
07E2
1FFF
3E7E
701E
E03E
E076
E0E7
C1C7
C387
C707
EF07
FE06
FC0E
781C
7E7C
FFF8
47E0
ENDCHAR
STARTCHAR 00D9
ENCODING 217
SWIDTH 720 0
DWIDTH 17 0
BBX 13 23 2 0
BITMAP
0C00
0600
0600
0600
0000
0000
C018
C018
C018
C018
C018
C018
C018
C018
C018
C018
C018
C018
E038
E078
79F0
3FE0
0F80
ENDCHAR
STARTCHAR 00DA
ENCODING 218
SWIDTH 720 0
DWIDTH 17 0
BBX 13 23 2 0
BITMAP
0180
0300
0300
0300
0000
0000
C018
C018
C018
C018
C018
C018
C018
C018
C018
C018
C018
C018
E038
E078
79F0
3FE0
0F80
ENDCHAR
STARTCHAR 00DB
ENCODING 219
SWIDTH 720 0
DWIDTH 17 0
BBX 13 23 2 0
BITMAP
0700
0F00
0D80
18C0
0000
0000
C018
C018
C018
C018
C018
C018
C018
C018
C018
C018
C018
C018
E038
E078
79F0
3FE0
0F80
ENDCHAR
STARTCHAR 00DC
ENCODING 220
SWIDTH 720 0
DWIDTH 17 0
BBX 13 21 2 0
BITMAP
18C0
18C0
0000
0000
C018
C018
C018
C018
C018
C018
C018
C018
C018
C018
C018
C018
E038
E078
79F0
3FE0
0F80
ENDCHAR
STARTCHAR 00DD
ENCODING 221
SWIDTH 592 0
DWIDTH 14 0
BBX 14 23 0 0
BITMAP
0180
0180
0180
0300
0000
0000
E01C
7038
7038
3870
1860
1CE0
0FC0
0FC0
0780
0780
0300
0300
0300
0300
0300
0300
0300
ENDCHAR
STARTCHAR 00DE
ENCODING 222
SWIDTH 635 0
DWIDTH 15 0
BBX 12 17 2 0
BITMAP
C000
C000
C000
FF80
FFC0
C1E0
C060
C070
C070
C070
C060
C1E0
FFC0
FF80
C000
C000
C000
ENDCHAR
STARTCHAR 00DF
ENCODING 223
SWIDTH 635 0
DWIDTH 15 0
BBX 11 17 2 0
BITMAP
3E00
7F80
F380
C1C0
C1C0
C1C0
C380
C780
C7C0
C1E0
C0E0
C060
C060
C0E0
CBE0
CFC0
CF00
ENDCHAR
STARTCHAR 00E0
ENCODING 224
SWIDTH 550 0
DWIDTH 13 0
BBX 11 19 1 0
BITMAP
1800
0C00
0C00
0600
0000
0000
1F00
3FC0
79E0
E0E0
0060
0FE0
7FE0
F860
E0E0
C0E0
E1E0
7F60
3E60
ENDCHAR
STARTCHAR 00E1
ENCODING 225
SWIDTH 550 0
DWIDTH 13 0
BBX 11 19 1 0
BITMAP
0300
0300
0300
0600
0000
0000
1F00
3FC0
79E0
E0E0
0060
0FE0
7FE0
F860
E0E0
C0E0
E1E0
7F60
3E60
ENDCHAR
STARTCHAR 00E2
ENCODING 226
SWIDTH 550 0
DWIDTH 13 0
BBX 11 18 1 0
BITMAP
0E00
0F00
1980
30C0
0000
1F00
3FC0
79E0
E0E0
0060
0FE0
7FE0
F860
E0E0
C0E0
E1E0
7F60
3E60
ENDCHAR
STARTCHAR 00E3
ENCODING 227
SWIDTH 550 0
DWIDTH 13 0
BBX 11 18 1 0
BITMAP
1CC0
3FC0
3380
0000
0000
1F00
3FC0
79E0
E0E0
0060
0FE0
7FE0
F860
E0E0
C0E0
E1E0
7F60
3E60
ENDCHAR
STARTCHAR 00E4
ENCODING 228
SWIDTH 550 0
DWIDTH 13 0
BBX 11 17 1 0
BITMAP
39C0
39C0
0000
0000
1F00
3FC0
79E0
E0E0
0060
0FE0
7FE0
F860
E0E0
C0E0
E1E0
7F60
3E60
ENDCHAR
STARTCHAR 00E5
ENCODING 229
SWIDTH 550 0
DWIDTH 13 0
BBX 11 20 1 0
BITMAP
0600
0F00
1980
1980
1F00
0F00
0000
1F00
3FC0
79E0
E0E0
0060
0FE0
7FE0
F860
E0E0
C0E0
E1E0
7F60
3E60
ENDCHAR
STARTCHAR 00E6
ENCODING 230
SWIDTH 931 0
DWIDTH 22 0
BBX 20 13 1 0
BITMAP
1F0F80
3FDFC0
79F8E0
60F070
006030
0FFFF0
7FFFF0
F06000
E0E000
C0F070
E1BCE0
7F9FE0
3E0F80
ENDCHAR
STARTCHAR 00E7
ENCODING 231
SWIDTH 550 0
DWIDTH 13 0
BBX 12 18 1 -5
BITMAP
1F80
3FC0
79E0
6070
E000
E000
E000
E000
E000
E070
78E0
3FC0
1F80
0600
0700
0300
0F00
0E00
ENDCHAR
STARTCHAR 00E8
ENCODING 232
SWIDTH 592 0
DWIDTH 14 0
BBX 12 19 1 0
BITMAP
0C00
0C00
0C00
0600
0000
0000
0F80
3FC0
78E0
E070
E070
FFF0
FFF0
E000
E000
6070
79E0
3FC0
0F80
ENDCHAR
STARTCHAR 00E9
ENCODING 233
SWIDTH 592 0
DWIDTH 14 0
BBX 12 19 1 0
BITMAP
0180
0180
0300
0300
0000
0000
0F80
3FC0
78E0
E070
E070
FFF0
FFF0
E000
E000
6070
79E0
3FC0
0F80
ENDCHAR
STARTCHAR 00EA
ENCODING 234
SWIDTH 592 0
DWIDTH 14 0
BBX 12 18 1 0
BITMAP
0700
0F80
1980
30C0
0000
0F80
3FC0
78E0
E070
E070
FFF0
FFF0
E000
E000
6070
79E0
3FC0
0F80
ENDCHAR
STARTCHAR 00EB
ENCODING 235
SWIDTH 592 0
DWIDTH 14 0
BBX 12 17 1 0
BITMAP
19C0
19C0
0000
0000
0F80
3FC0
78E0
E070
E070
FFF0
FFF0
E000
E000
6070
79E0
3FC0
0F80
ENDCHAR
STARTCHAR 00EC
ENCODING 236
SWIDTH 254 0
DWIDTH 6 0
BBX 3 19 1 0
BITMAP
C0
C0
C0
60
00
00
60
60
60
60
60
60
60
60
60
60
60
60
60
ENDCHAR
STARTCHAR 00ED
ENCODING 237
SWIDTH 254 0
DWIDTH 6 0
BBX 4 19 2 0
BITMAP
30
60
60
C0
00
00
C0
C0
C0
C0
C0
C0
C0
C0
C0
C0
C0
C0
C0
ENDCHAR
STARTCHAR 00EE
ENCODING 238
SWIDTH 254 0
DWIDTH 6 0
BBX 7 19 0 0
BITMAP
30
78
EC
C6
00
00
30
30
30
30
30
30
30
30
30
30
30
30
30
ENDCHAR
STARTCHAR 00EF
ENCODING 239
SWIDTH 254 0
DWIDTH 6 0
BBX 7 17 0 0
BITMAP
CE
CE
00
00
30
30
30
30
30
30
30
30
30
30
30
30
30
ENDCHAR
STARTCHAR 00F0
ENCODING 240
SWIDTH 592 0
DWIDTH 14 0
BBX 12 18 1 0
BITMAP
0CC0
0FC0
0780
07C0
02E0
0060
1FF0
3FF0
70F0
E070
E070
C070
C070
E070
E070
71E0
3FC0
1F80
ENDCHAR
STARTCHAR 00F1
ENCODING 241
SWIDTH 635 0
DWIDTH 15 0
BBX 11 18 2 0
BITMAP
3880
7F80
6380
0000
0000
CF00
FFC0
FBC0
E0E0
C0E0
C0E0
C060
C060
C060
C060
C060
C060
C060
ENDCHAR
STARTCHAR 00F2
ENCODING 242
SWIDTH 592 0
DWIDTH 14 0
BBX 12 19 1 0
BITMAP
1800
0C00
0C00
0600
0000
0000
0F80
3FC0
79E0
6070
E070
E030
E030
E030
E070
6070
79E0
3FC0
0F80
ENDCHAR
STARTCHAR 00F3
ENCODING 243
SWIDTH 592 0
DWIDTH 14 0
BBX 12 19 1 0
BITMAP
0180
0300
0300
0300
0000
0000
0F80
3FC0
79E0
6070
E070
E030
E030
E030
E070
6070
79E0
3FC0
0F80
ENDCHAR
STARTCHAR 00F4
ENCODING 244
SWIDTH 592 0
DWIDTH 14 0
BBX 12 18 1 0
BITMAP
0700
0F80
1980
30C0
0000
0F80
3FC0
79E0
6070
E070
E030
E030
E030
E070
6070
79E0
3FC0
0F80
ENDCHAR
STARTCHAR 00F5
ENCODING 245
SWIDTH 592 0
DWIDTH 14 0
BBX 12 18 1 0
BITMAP
1CC0
3FC0
31C0
0000
0000
0F80
3FC0
79E0
6070
E070
E030
E030
E030
E070
6070
79E0
3FC0
0F80
ENDCHAR
STARTCHAR 00F6
ENCODING 246
SWIDTH 592 0
DWIDTH 14 0
BBX 12 17 1 0
BITMAP
19C0
19C0
0000
0000
0F80
3FC0
79E0
6070
E070
E030
E030
E030
E070
6070
79E0
3FC0
0F80
ENDCHAR
STARTCHAR 00F7
ENCODING 247
SWIDTH 550 0
DWIDTH 13 0
BBX 10 9 1 4
BITMAP
0E00
0E00
0000
FFC0
FFC0
0000
0000
0E00
0E00
ENDCHAR
STARTCHAR 00F8
ENCODING 248
SWIDTH 592 0
DWIDTH 14 0
BBX 13 13 1 0
BITMAP
0F90
3FF8
79F0
60F0
E1F0
E3B0
E730
EC30
F870
7070
F9E0
FFC0
4F80
ENDCHAR
STARTCHAR 00F9
ENCODING 249
SWIDTH 635 0
DWIDTH 15 0
BBX 12 19 1 0
BITMAP
0C00
0C00
0600
0600
0000
0000
E070
E070
E070
E070
E070
E070
E070
E070
E070
7070
79F0
3FB0
1F30
ENDCHAR
STARTCHAR 00FA
ENCODING 250
SWIDTH 635 0
DWIDTH 15 0
BBX 12 19 1 0
BITMAP
0100
0300
0300
0600
0000
0000
E070
E070
E070
E070
E070
E070
E070
E070
E070
7070
79F0
3FB0
1F30
ENDCHAR
STARTCHAR 00FB
ENCODING 251
SWIDTH 635 0
DWIDTH 15 0
BBX 12 19 1 0
BITMAP
0600
0F00
1D80
39C0
0000
0000
E070
E070
E070
E070
E070
E070
E070
E070
E070
7070
79F0
3FB0
1F30
ENDCHAR
STARTCHAR 00FC
ENCODING 252
SWIDTH 635 0
DWIDTH 15 0
BBX 12 17 1 0
BITMAP
19C0
19C0
0000
0000
E070
E070
E070
E070
E070
E070
E070
E070
E070
7070
79F0
3FB0
1F30
ENDCHAR
STARTCHAR 00FD
ENCODING 253
SWIDTH 550 0
DWIDTH 13 0
BBX 12 24 1 -5
BITMAP
0300
0300
0600
0600
0000
0000
C070
E060
E0E0
60C0
70C0
31C0
3180
3B80
1B80
1F00
0F00
0E00
0E00
0E00
0C00
1C00
1800
1800
ENDCHAR
STARTCHAR 00FE
ENCODING 254
SWIDTH 592 0
DWIDTH 14 0
BBX 11 22 2 -5
BITMAP
C000
C000
C000
C000
DF00
FF80
F3C0
E0E0
C0E0
C060
C060
C060
C0E0
E0E0
F1C0
FF80
DF00
C000
C000
C000
C000
C000
ENDCHAR
STARTCHAR 00FF
ENCODING 255
SWIDTH 550 0
DWIDTH 13 0
BBX 12 22 1 -5
BITMAP
3180
3180
0000
0000
C070
E060
E0E0
60C0
70C0
31C0
3180
3B80
1B80
1F00
0F00
0E00
0E00
0E00
0C00
1C00
1800
1800
ENDCHAR
ENDFONT
