STARTFONT 2.1
COMMENT
COMMENT Converted from OpenType font "manrope-light.otf" by "otf2bdf 3.0".
COMMENT
FONT -FreeType-Manrope Light-Medium-R-Normal--30-220-100-100-P-135-ISO10646-1
SIZE 22 100 100
FONTBOUNDINGBOX 29 38 -1 -8
STARTPROPERTIES 19
FOUNDRY "FreeType"
FAMILY_NAME "Manrope Light"
WEIGHT_NAME "Medium"
SLANT "R"
SETWIDTH_NAME "Normal"
ADD_STYLE_NAME ""
PIXEL_SIZE 30
POINT_SIZE 220
RESOLUTION_X 100
RESOLUTION_Y 100
SPACING "P"
AVERAGE_WIDTH 135
CHARSET_REGISTRY "ISO10646"
CHARSET_ENCODING "1"
FONT_ASCENT 33
FONT_DESCENT 9
COPYRIGHT "Copyright 2019-2021 The Manrope Project Authors (https://github.com/sharanda/manrope)"
_OTF_FONTFILE "manrope-light.otf"
_OTF_PSNAME "Manrope-Light"
ENDPROPERTIES
CHARS 191
STARTCHAR 0020
ENCODING 32
SWIDTH 196 0
DWIDTH 6 0
BBX 0 0 0 0
BITMAP
ENDCHAR
STARTCHAR 0021
ENCODING 33
SWIDTH 294 0
DWIDTH 9 0
BBX 1 22 4 0
BITMAP
80
80
80
80
80
80
80
80
80
80
80
80
80
80
80
80
80
00
00
00
80
80
ENDCHAR
STARTCHAR 0022
ENCODING 34
SWIDTH 360 0
DWIDTH 11 0
BBX 6 6 2 16
BITMAP
CC
CC
CC
CC
CC
CC
ENDCHAR
STARTCHAR 0023
ENCODING 35
SWIDTH 916 0
DWIDTH 28 0
BBX 24 22 2 0
BITMAP
003020
003060
002060
006040
0060C0
0060C0
3FFFFF
3FFFFF
00C180
00C180
018180
018100
018300
FFFFFC
FFFFFC
030600
030600
020600
060400
060C00
060C00
040C00
ENDCHAR
STARTCHAR 0024
ENCODING 36
SWIDTH 589 0
DWIDTH 18 0
BBX 16 27 1 -3
BITMAP
0180
0180
07E0
1FF8
381C
600E
6006
6002
6000
6000
3800
1E00
07E0
00F8
001C
0006
0002
0003
C003
C002
6006
380C
1FF8
07E0
0180
0180
0180
ENDCHAR
STARTCHAR 0025
ENCODING 37
SWIDTH 916 0
DWIDTH 28 0
BBX 24 22 2 0
BITMAP
1F0004
3F800E
60C01C
C04038
C06070
8060E0
C061C0
C0C380
61C700
3F8E00
041C00
003860
0071FC
00E30E
01C606
030603
060403
0C0403
180606
300306
6003FC
4000F8
ENDCHAR
STARTCHAR 0026
ENCODING 38
SWIDTH 654 0
DWIDTH 20 0
BBX 17 22 2 0
BITMAP
0FC000
1FF000
303800
601800
600000
600000
600000
600000
300000
380000
1C0000
7E0000
E30600
C18600
C0C600
807600
801E00
C00E00
C00E00
701B00
3FF180
0FE080
ENDCHAR
STARTCHAR 0027
ENCODING 39
SWIDTH 196 0
DWIDTH 6 0
BBX 2 6 2 16
BITMAP
C0
C0
C0
C0
C0
C0
ENDCHAR
STARTCHAR 0028
ENCODING 40
SWIDTH 425 0
DWIDTH 13 0
BBX 7 31 4 -5
BITMAP
02
06
0C
0C
18
10
30
30
60
60
60
40
C0
C0
C0
C0
C0
C0
C0
40
60
60
60
20
30
30
18
0C
0C
06
02
ENDCHAR
STARTCHAR 0029
ENCODING 41
SWIDTH 425 0
DWIDTH 13 0
BBX 6 31 2 -5
BITMAP
80
C0
C0
60
30
30
18
18
08
0C
0C
0C
04
04
04
04
04
04
04
0C
0C
0C
08
18
18
30
30
60
E0
C0
80
ENDCHAR
STARTCHAR 002A
ENCODING 42
SWIDTH 425 0
DWIDTH 13 0
BBX 10 10 1 12
BITMAP
0C00
0C00
0C00
EDC0
FFC0
0E00
1E00
3300
3380
2100
ENDCHAR
STARTCHAR 002B
ENCODING 43
SWIDTH 589 0
DWIDTH 18 0
BBX 14 14 2 4
BITMAP
0300
0300
0300
0300
0300
0300
FFFC
FFFC
0300
0300
0300
0300
0300
0300
ENDCHAR
STARTCHAR 002C
ENCODING 44
SWIDTH 261 0
DWIDTH 8 0
BBX 2 6 2 -3
BITMAP
C0
C0
C0
40
40
80
ENDCHAR
STARTCHAR 002D
ENCODING 45
SWIDTH 425 0
DWIDTH 13 0
BBX 9 2 2 9
BITMAP
FF80
FF80
ENDCHAR
STARTCHAR 002E
ENCODING 46
SWIDTH 229 0
DWIDTH 7 0
BBX 3 2 2 0
BITMAP
E0
E0
ENDCHAR
STARTCHAR 002F
ENCODING 47
SWIDTH 360 0
DWIDTH 11 0
BBX 7 22 2 0
BITMAP
02
06
06
06
0C
0C
0C
0C
18
18
18
10
30
30
30
20
60
60
60
C0
C0
C0
ENDCHAR
STARTCHAR 0030
ENCODING 48
SWIDTH 589 0
DWIDTH 18 0
BBX 14 22 2 0
BITMAP
0FC0
1FE0
3030
6018
C00C
C00C
C00C
C00C
C00C
C00C
C00C
C00C
C00C
C00C
C00C
C00C
C00C
C00C
6018
3030
1FE0
0FC0
ENDCHAR
STARTCHAR 0031
ENCODING 49
SWIDTH 360 0
DWIDTH 11 0
BBX 6 22 2 0
BITMAP
1C
7C
EC
CC
0C
0C
0C
0C
0C
0C
0C
0C
0C
0C
0C
0C
0C
0C
0C
0C
0C
0C
ENDCHAR
STARTCHAR 0032
ENCODING 50
SWIDTH 556 0
DWIDTH 17 0
BBX 14 22 2 0
BITMAP
0F80
3FE0
7070
6018
C018
C008
800C
000C
0008
0018
0038
0070
00E0
01C0
0380
0700
0C00
1800
3000
E000
FFFC
FFFC
ENDCHAR
STARTCHAR 0033
ENCODING 51
SWIDTH 556 0
DWIDTH 17 0
BBX 14 22 1 0
BITMAP
7FFC
7FFC
0038
0070
00E0
0180
0300
0600
0FC0
0FE0
0030
0018
0018
000C
000C
000C
000C
C018
6018
7030
3FE0
0FC0
ENDCHAR
STARTCHAR 0034
ENCODING 52
SWIDTH 589 0
DWIDTH 18 0
BBX 14 22 2 0
BITMAP
0180
0300
0300
0600
0600
0C00
0C00
1800
1800
1830
3030
3030
6030
6030
C030
C030
FFFC
FFFC
0030
0030
0030
0030
ENDCHAR
STARTCHAR 0035
ENCODING 53
SWIDTH 589 0
DWIDTH 18 0
BBX 14 22 2 0
BITMAP
7FF0
7FF0
4000
4000
4000
C000
C000
C700
DFE0
F070
E038
4018
000C
000C
000C
000C
800C
C018
E018
7070
3FE0
0F80
ENDCHAR
STARTCHAR 0036
ENCODING 54
SWIDTH 621 0
DWIDTH 19 0
BBX 15 22 2 0
BITMAP
07C0
1FF0
3838
600C
6000
C000
C000
C000
C7C0
DFF0
F838
E00C
E00C
C006
C006
C006
C006
600C
600C
3838
1FF0
07C0
ENDCHAR
STARTCHAR 0037
ENCODING 55
SWIDTH 490 0
DWIDTH 15 0
BBX 12 22 1 0
BITMAP
FFF0
FFF0
0030
0030
0060
0060
0060
00C0
00C0
0180
0180
0180
0300
0300
0600
0600
0400
0C00
0C00
1800
1800
1000
ENDCHAR
STARTCHAR 0038
ENCODING 56
SWIDTH 556 0
DWIDTH 17 0
BBX 14 22 2 0
BITMAP
0FC0
3FE0
7030
6018
C018
C018
C018
6018
7030
3FE0
3FE0
7070
6018
C018
C008
C00C
C008
C018
E018
7030
3FE0
0FC0
ENDCHAR
STARTCHAR 0039
ENCODING 57
SWIDTH 621 0
DWIDTH 19 0
BBX 15 22 2 0
BITMAP
07C0
1FF0
3838
600C
400C
C006
C006
C006
C006
C00E
600E
303E
1FF6
07C6
0006
0006
0006
000C
600C
3038
1FF0
07C0
ENDCHAR
STARTCHAR 003A
ENCODING 58
SWIDTH 294 0
DWIDTH 9 0
BBX 3 11 3 3
BITMAP
E0
E0
00
00
00
00
00
00
00
E0
E0
ENDCHAR
STARTCHAR 003B
ENCODING 59
SWIDTH 294 0
DWIDTH 9 0
BBX 3 20 3 -3
BITMAP
E0
E0
00
00
00
00
00
00
00
00
00
00
00
00
E0
E0
E0
20
40
C0
ENDCHAR
STARTCHAR 003C
ENCODING 60
SWIDTH 621 0
DWIDTH 19 0
BBX 7 14 5 3
BITMAP
02
06
0C
18
30
60
C0
C0
60
30
18
0C
06
02
ENDCHAR
STARTCHAR 003D
ENCODING 61
SWIDTH 752 0
DWIDTH 23 0
BBX 15 8 4 7
BITMAP
FFFE
FFFE
0000
0000
0000
0000
FFFE
FFFE
ENDCHAR
STARTCHAR 003E
ENCODING 62
SWIDTH 621 0
DWIDTH 19 0
BBX 8 14 6 3
BITMAP
40
E0
70
38
1C
0E
07
03
06
0C
18
30
60
C0
ENDCHAR
STARTCHAR 003F
ENCODING 63
SWIDTH 523 0
DWIDTH 16 0
BBX 12 22 2 0
BITMAP
1F80
7FC0
E060
C030
C030
8030
0030
0030
0060
00E0
01C0
0300
0600
0600
0400
0400
0000
0000
0000
0400
0400
0400
ENDCHAR
STARTCHAR 0040
ENCODING 64
SWIDTH 916 0
DWIDTH 28 0
BBX 23 23 2 -3
BITMAP
003800
01FF80
0781E0
0C0030
180018
30000C
20000C
601006
60FF06
40C706
C18306
C18306
C18306
418306
60C70C
60FDFC
6010F8
300000
180000
1C0000
0F00C0
03FFC0
00FE00
ENDCHAR
STARTCHAR 0041
ENCODING 65
SWIDTH 621 0
DWIDTH 19 0
BBX 17 22 1 0
BITMAP
01C000
01C000
014000
036000
036000
063000
063000
063000
0C1800
0C1800
0C1800
180C00
180C00
180C00
300600
3FFE00
3FFE00
600300
600300
C00100
C00180
C00180
ENDCHAR
STARTCHAR 0042
ENCODING 66
SWIDTH 621 0
DWIDTH 19 0
BBX 16 22 2 0
BITMAP
FFE0
FFF8
C01C
C00C
C004
C006
C004
C00C
C01C
FFF8
FFF8
C01C
C00E
C006
C003
C003
C003
C006
C006
C00E
FFFC
FFF0
ENDCHAR
STARTCHAR 0043
ENCODING 67
SWIDTH 720 0
DWIDTH 22 0
BBX 19 22 1 0
BITMAP
03F800
0FFE00
1C0380
3801C0
7000C0
600060
600060
C00000
C00000
C00000
C00000
C00000
C00000
C00000
C00000
600060
600060
7000C0
3801C0
1C0380
0FFF00
03F800
ENDCHAR
STARTCHAR 0044
ENCODING 68
SWIDTH 654 0
DWIDTH 20 0
BBX 17 22 2 0
BITMAP
FFE000
FFF800
C01C00
C00600
C00700
C00300
C00300
C00180
C00180
C00180
C00180
C00180
C00180
C00180
C00180
C00300
C00300
C00700
C00600
C01C00
FFF800
FFE000
ENDCHAR
STARTCHAR 0045
ENCODING 69
SWIDTH 556 0
DWIDTH 17 0
BBX 14 22 2 0
BITMAP
FFFC
FFFC
C000
C000
C000
C000
C000
C000
C000
C000
FFF0
FFF0
C000
C000
C000
C000
C000
C000
C000
C000
FFFC
FFFC
ENDCHAR
STARTCHAR 0046
ENCODING 70
SWIDTH 490 0
DWIDTH 15 0
BBX 13 22 2 0
BITMAP
FFF8
FFF8
C000
C000
C000
C000
C000
C000
C000
C000
FFE0
FFE0
C000
C000
C000
C000
C000
C000
C000
C000
C000
C000
ENDCHAR
STARTCHAR 0047
ENCODING 71
SWIDTH 687 0
DWIDTH 21 0
BBX 19 22 1 0
BITMAP
03F800
0FFE00
1C0700
380180
7000C0
6000C0
600000
C00000
C00000
C00000
C00000
C00FE0
C00FE0
C00060
C00060
600060
600060
7000C0
3801C0
1C0380
0FFF00
03FC00
ENDCHAR
STARTCHAR 0048
ENCODING 72
SWIDTH 687 0
DWIDTH 21 0
BBX 16 22 2 0
BITMAP
C001
C001
C001
C001
C001
C001
C001
C001
C001
C001
FFFF
FFFF
C001
C001
C001
C001
C001
C001
C001
C001
C001
C001
ENDCHAR
STARTCHAR 0049
ENCODING 73
SWIDTH 229 0
DWIDTH 7 0
BBX 2 22 2 0
BITMAP
C0
C0
C0
C0
C0
C0
C0
C0
C0
C0
C0
C0
C0
C0
C0
C0
C0
C0
C0
C0
C0
C0
ENDCHAR
STARTCHAR 004A
ENCODING 74
SWIDTH 458 0
DWIDTH 14 0
BBX 11 22 0 0
BITMAP
0020
0020
0020
0020
0020
0020
0020
0020
0020
0020
0020
0020
0020
0020
0020
0020
0020
4060
C060
60E0
3FC0
1F00
ENDCHAR
STARTCHAR 004B
ENCODING 75
SWIDTH 589 0
DWIDTH 18 0
BBX 15 22 2 0
BITMAP
C00C
C018
C030
C060
C0C0
C180
C300
C600
CC00
D800
F000
D800
CC00
C600
C300
C180
C0C0
C060
C030
C018
C00C
C006
ENDCHAR
STARTCHAR 004C
ENCODING 76
SWIDTH 490 0
DWIDTH 15 0
BBX 13 22 2 0
BITMAP
C000
C000
C000
C000
C000
C000
C000
C000
C000
C000
C000
C000
C000
C000
C000
C000
C000
C000
C000
C000
FFF8
FFF8
ENDCHAR
STARTCHAR 004D
ENCODING 77
SWIDTH 850 0
DWIDTH 26 0
BBX 21 22 2 0
BITMAP
C00018
C00018
E00018
E00038
F00028
F00068
D80068
D800C8
CC00C8
CC0188
C60188
C60308
C30308
C30208
C10608
C18408
C08C08
C0CC08
C0D808
C07808
C07008
C03008
ENDCHAR
STARTCHAR 004E
ENCODING 78
SWIDTH 687 0
DWIDTH 21 0
BBX 16 22 2 0
BITMAP
C001
E001
F001
F001
D801
CC01
CC01
C601
C301
C301
C181
C0C1
C0C1
C061
C031
C031
C019
C00D
C00D
C007
C003
C003
ENDCHAR
STARTCHAR 004F
ENCODING 79
SWIDTH 720 0
DWIDTH 22 0
BBX 20 22 1 0
BITMAP
03F800
0FFF00
1C0380
3801C0
7000C0
600060
600060
C00030
C00030
C00030
C00030
C00030
C00030
C00030
C00030
600060
600060
7000C0
3801C0
1C0380
0FFF00
03F800
ENDCHAR
STARTCHAR 0050
ENCODING 80
SWIDTH 589 0
DWIDTH 18 0
BBX 15 22 2 0
BITMAP
FFE0
FFF8
C01C
C00C
C006
C006
C006
C006
C006
C006
C00C
C01C
FFF8
FFE0
C000
C000
C000
C000
C000
C000
C000
C000
ENDCHAR
STARTCHAR 0051
ENCODING 81
SWIDTH 720 0
DWIDTH 22 0
BBX 20 22 1 0
BITMAP
03F800
0FFF00
1C0380
3801C0
7000C0
600060
600060
C00030
C00030
C00030
C00030
C00030
C00030
C00030
C00030
600060
600660
7003C0
3801C0
1C03C0
0FFF60
03F820
ENDCHAR
STARTCHAR 0052
ENCODING 82
SWIDTH 621 0
DWIDTH 19 0
BBX 15 22 2 0
BITMAP
FFE0
FFF8
C01C
C00C
C006
C006
C006
C006
C006
C006
C00C
C01C
FFF8
FFE0
C030
C030
C018
C018
C00C
C00C
C006
C006
ENDCHAR
STARTCHAR 0053
ENCODING 83
SWIDTH 589 0
DWIDTH 18 0
BBX 16 22 1 0
BITMAP
07E0
1FF8
380C
7006
6003
6003
6002
6000
3800
1F00
07E0
00FC
000E
0003
0003
0001
C001
E003
6003
380E
1FFC
07F0
ENDCHAR
STARTCHAR 0054
ENCODING 84
SWIDTH 589 0
DWIDTH 18 0
BBX 18 22 0 0
BITMAP
FFFFC0
FFFFC0
00C000
00C000
00C000
00C000
00C000
00C000
00C000
00C000
00C000
00C000
00C000
00C000
00C000
00C000
00C000
00C000
00C000
00C000
00C000
00C000
ENDCHAR
STARTCHAR 0055
ENCODING 85
SWIDTH 687 0
DWIDTH 21 0
BBX 17 22 2 0
BITMAP
C00180
C00180
C00180
C00180
C00180
C00180
C00180
C00180
C00180
C00180
C00180
C00180
C00180
C00180
C00180
C00180
C00180
600300
700700
380E00
1FFC00
03F000
ENDCHAR
STARTCHAR 0056
ENCODING 86
SWIDTH 589 0
DWIDTH 18 0
BBX 18 22 0 0
BITMAP
C000C0
600080
600180
600180
300300
300300
300300
180600
180600
180600
0C0C00
0C0C00
040800
061800
061800
021000
033000
033000
01E000
01E000
01E000
00C000
ENDCHAR
STARTCHAR 0057
ENCODING 87
SWIDTH 916 0
DWIDTH 28 0
BBX 26 22 1 0
BITMAP
C00C0040
C00C00C0
C01E00C0
401E00C0
601E0180
60130180
60330180
30330100
30310300
30618300
10618300
18618200
1840C600
18C0C600
0CC0C400
0CC04C00
0D806C00
05806C00
07806800
07003800
07003800
03003000
ENDCHAR
STARTCHAR 0058
ENCODING 88
SWIDTH 589 0
DWIDTH 18 0
BBX 16 22 1 0
BITMAP
C003
6006
6006
300C
1818
1818
0C30
0660
0660
03C0
0180
0180
03C0
0660
0E70
0C30
1818
301C
300C
6006
C003
C003
ENDCHAR
STARTCHAR 0059
ENCODING 89
SWIDTH 523 0
DWIDTH 16 0
BBX 16 22 0 0
BITMAP
C003
6003
6006
300C
180C
1818
0C18
0C30
0670
0760
03C0
01C0
0180
0180
0180
0180
0180
0180
0180
0180
0180
0180
ENDCHAR
STARTCHAR 005A
ENCODING 90
SWIDTH 589 0
DWIDTH 18 0
BBX 15 22 2 0
BITMAP
FFFE
FFFC
0018
0018
0030
0030
0060
00C0
00C0
0180
0380
0300
0600
0600
0C00
1800
1800
3000
6000
6000
FFFE
FFFE
ENDCHAR
STARTCHAR 005B
ENCODING 91
SWIDTH 392 0
DWIDTH 12 0
BBX 6 34 4 -7
BITMAP
FC
FC
C0
C0
C0
C0
C0
C0
C0
C0
C0
C0
C0
C0
C0
C0
C0
C0
C0
C0
C0
C0
C0
C0
C0
C0
C0
C0
C0
C0
C0
C0
FC
FC
ENDCHAR
STARTCHAR 005C
ENCODING 92
SWIDTH 360 0
DWIDTH 11 0
BBX 7 22 2 0
BITMAP
C0
C0
C0
60
60
60
20
30
30
30
10
18
18
18
0C
0C
0C
0C
06
06
06
02
ENDCHAR
STARTCHAR 005D
ENCODING 93
SWIDTH 392 0
DWIDTH 12 0
BBX 5 34 3 -7
BITMAP
F8
F8
18
18
18
18
18
18
18
18
18
18
18
18
18
18
18
18
18
18
18
18
18
18
18
18
18
18
18
18
18
18
F8
F8
ENDCHAR
STARTCHAR 005E
ENCODING 94
SWIDTH 654 0
DWIDTH 20 0
BBX 13 8 4 14
BITMAP
0200
0700
0D80
18C0
3060
6030
C018
8008
ENDCHAR
STARTCHAR 005F
ENCODING 95
SWIDTH 654 0
DWIDTH 20 0
BBX 20 2 0 -3
BITMAP
FFFFF0
FFFFF0
ENDCHAR
STARTCHAR 0060
ENCODING 96
SWIDTH 458 0
DWIDTH 14 0
BBX 2 4 6 25
BITMAP
80
C0
C0
40
ENDCHAR
STARTCHAR 0061
ENCODING 97
SWIDTH 556 0
DWIDTH 17 0
BBX 14 17 1 0
BITMAP
0FC0
1FF0
3018
600C
600C
000C
001C
0FFC
3F0C
700C
E00C
C00C
C01C
C01C
607C
3FEC
1F8C
ENDCHAR
STARTCHAR 0062
ENCODING 98
SWIDTH 589 0
DWIDTH 18 0
BBX 15 22 2 0
BITMAP
C000
C000
C000
C000
C000
C7C0
DFF0
F038
E018
E00C
C00C
C004
C006
C006
C006
C004
C00C
E00C
E018
F038
DFF0
C7C0
ENDCHAR
STARTCHAR 0063
ENCODING 99
SWIDTH 556 0
DWIDTH 17 0
BBX 14 17 1 0
BITMAP
07E0
1FF8
381C
700C
6004
6000
C000
C000
C000
C000
C000
6000
6004
700C
381C
1FF8
07E0
ENDCHAR
STARTCHAR 0064
ENCODING 100
SWIDTH 589 0
DWIDTH 18 0
BBX 15 22 1 0
BITMAP
0006
0006
0006
0006
0006
07C6
1FF6
383E
700E
600E
6006
C006
C006
C006
C006
C006
6006
600E
700E
383E
1FF6
07C6
ENDCHAR
STARTCHAR 0065
ENCODING 101
SWIDTH 589 0
DWIDTH 18 0
BBX 15 17 1 0
BITMAP
07E0
1FF8
381C
700C
6006
4006
C006
FFFE
FFFE
C000
C000
6000
6006
700E
381C
1FF8
07E0
ENDCHAR
STARTCHAR 0066
ENCODING 102
SWIDTH 360 0
DWIDTH 11 0
BBX 9 22 1 0
BITMAP
0780
1F80
1800
1800
1800
FF80
FF80
1800
1800
1800
1800
1800
1800
1800
1800
1800
1800
1800
1800
1800
1800
1800
ENDCHAR
STARTCHAR 0067
ENCODING 103
SWIDTH 589 0
DWIDTH 18 0
BBX 15 24 1 -7
BITMAP
07C6
1FF6
383E
700E
600E
6006
C006
C006
C006
C006
C006
6006
600E
700E
383E
1FF6
07C6
0006
0006
000C
600C
3818
1FF8
07E0
ENDCHAR
STARTCHAR 0068
ENCODING 104
SWIDTH 589 0
DWIDTH 18 0
BBX 14 22 2 0
BITMAP
C000
C000
C000
C000
C000
C7C0
DFF0
F030
E018
E008
C00C
C00C
C00C
C00C
C00C
C00C
C00C
C00C
C00C
C00C
C00C
C00C
ENDCHAR
STARTCHAR 0069
ENCODING 105
SWIDTH 229 0
DWIDTH 7 0
BBX 2 22 2 0
BITMAP
C0
C0
00
00
00
C0
C0
C0
C0
C0
C0
C0
C0
C0
C0
C0
C0
C0
C0
C0
C0
C0
ENDCHAR
STARTCHAR 006A
ENCODING 106
SWIDTH 229 0
DWIDTH 7 0
BBX 5 29 0 -7
BITMAP
18
18
00
00
00
18
18
18
18
18
18
18
18
18
18
18
18
18
18
18
18
18
18
18
18
18
18
F0
E0
ENDCHAR
STARTCHAR 006B
ENCODING 107
SWIDTH 490 0
DWIDTH 15 0
BBX 13 22 2 0
BITMAP
C000
C000
C000
C000
C000
C070
C0E0
C1C0
C380
C700
CE00
CC00
D800
F000
D800
CC00
C600
C300
C1C0
C0E0
C070
C038
ENDCHAR
STARTCHAR 006C
ENCODING 108
SWIDTH 229 0
DWIDTH 7 0
BBX 2 22 2 0
BITMAP
C0
C0
C0
C0
C0
C0
C0
C0
C0
C0
C0
C0
C0
C0
C0
C0
C0
C0
C0
C0
C0
C0
ENDCHAR
STARTCHAR 006D
ENCODING 109
SWIDTH 818 0
DWIDTH 25 0
BBX 22 17 2 0
BITMAP
CF83E0
FFCFF0
E07838
C07018
C03008
C0300C
C0300C
C0300C
C0300C
C0300C
C0300C
C0300C
C0300C
C0300C
C0300C
C0300C
C0300C
ENDCHAR
STARTCHAR 006E
ENCODING 110
SWIDTH 589 0
DWIDTH 18 0
BBX 14 17 2 0
BITMAP
C7C0
DFF0
F030
E018
E008
C00C
C00C
C00C
C00C
C00C
C00C
C00C
C00C
C00C
C00C
C00C
C00C
ENDCHAR
STARTCHAR 006F
ENCODING 111
SWIDTH 589 0
DWIDTH 18 0
BBX 16 17 1 0
BITMAP
07E0
1FF8
381C
700C
6006
6006
C002
C003
C003
C003
C002
6006
6006
700C
381C
1FF8
07E0
ENDCHAR
STARTCHAR 0070
ENCODING 112
SWIDTH 589 0
DWIDTH 18 0
BBX 15 24 2 -7
BITMAP
C7C0
DFF0
F038
E018
E00C
C00C
C004
C006
C006
C006
C004
C00C
E00C
E018
F038
DFF0
C7C0
C000
C000
C000
C000
C000
C000
C000
ENDCHAR
STARTCHAR 0071
ENCODING 113
SWIDTH 589 0
DWIDTH 18 0
BBX 15 24 1 -7
BITMAP
07C6
1FF6
383E
700E
600E
6006
C006
C006
C006
C006
C006
6006
600E
700E
383E
1FF6
07C6
0006
0006
0006
0006
0006
0006
0006
ENDCHAR
STARTCHAR 0072
ENCODING 114
SWIDTH 360 0
DWIDTH 11 0
BBX 8 17 2 0
BITMAP
CF
DF
F0
E0
E0
C0
C0
C0
C0
C0
C0
C0
C0
C0
C0
C0
C0
ENDCHAR
STARTCHAR 0073
ENCODING 115
SWIDTH 523 0
DWIDTH 16 0
BBX 14 17 1 0
BITMAP
0FC0
3FF0
7038
6018
600C
6000
7000
1F00
07E0
0078
0018
000C
C00C
6018
7018
3FF0
0FC0
ENDCHAR
STARTCHAR 0074
ENCODING 116
SWIDTH 392 0
DWIDTH 12 0
BBX 11 22 0 0
BITMAP
0C00
0C00
0C00
0C00
0C00
FFE0
FFE0
0C00
0C00
0C00
0C00
0C00
0C00
0C00
0C00
0C00
0C00
0C00
0C00
0C00
07E0
03E0
ENDCHAR
STARTCHAR 0075
ENCODING 117
SWIDTH 589 0
DWIDTH 18 0
BBX 14 17 2 0
BITMAP
C00C
C00C
C00C
C00C
C00C
C00C
C00C
C00C
C00C
C00C
C00C
C00C
C01C
601C
703C
3FEC
0F8C
ENDCHAR
STARTCHAR 0076
ENCODING 118
SWIDTH 490 0
DWIDTH 15 0
BBX 13 17 1 0
BITMAP
C018
C018
C018
6030
6030
2030
3060
3060
1040
18C0
18C0
0880
0D80
0D80
0700
0700
0700
ENDCHAR
STARTCHAR 0077
ENCODING 119
SWIDTH 752 0
DWIDTH 23 0
BBX 21 17 1 0
BITMAP
C03008
C07018
C07018
405010
60D830
60D830
208830
318C60
318C60
318460
190640
1B06C0
1B06C0
0A0280
0E0380
0E0380
0C0180
ENDCHAR
STARTCHAR 0078
ENCODING 120
SWIDTH 523 0
DWIDTH 16 0
BBX 14 17 1 0
BITMAP
C00C
6018
7030
3030
1860
0CC0
0F80
0780
0300
0780
0DC0
1CC0
1860
3030
6038
E018
C00C
ENDCHAR
STARTCHAR 0079
ENCODING 121
SWIDTH 523 0
DWIDTH 16 0
BBX 14 24 1 -7
BITMAP
C00C
C00C
4018
6018
6010
3030
3030
1020
1860
1860
0CC0
0CC0
04C0
0780
0780
0300
0300
0300
0200
0600
0600
0C00
0C00
0C00
ENDCHAR
STARTCHAR 007A
ENCODING 122
SWIDTH 523 0
DWIDTH 16 0
BBX 14 17 1 0
BITMAP
FFFC
FFF8
0030
0030
0060
00C0
0180
0380
0300
0600
0C00
1C00
1800
3000
6000
FFF8
FFF8
ENDCHAR
STARTCHAR 007B
ENCODING 123
SWIDTH 425 0
DWIDTH 13 0
BBX 7 34 4 -7
BITMAP
0E
1E
30
30
30
30
30
30
30
30
30
30
30
30
30
60
C0
60
60
30
30
30
30
30
30
30
30
30
30
30
30
30
1E
0E
ENDCHAR
STARTCHAR 007C
ENCODING 124
SWIDTH 229 0
DWIDTH 7 0
BBX 2 22 3 0
BITMAP
C0
C0
C0
C0
C0
C0
C0
C0
C0
C0
C0
C0
C0
C0
C0
C0
C0
C0
C0
C0
C0
C0
ENDCHAR
STARTCHAR 007D
ENCODING 125
SWIDTH 425 0
DWIDTH 13 0
BBX 7 34 1 -7
BITMAP
F0
F8
18
0C
0C
0C
0C
0C
0C
0C
0C
0C
0C
0C
0C
0C
06
06
0C
0C
0C
0C
0C
0C
0C
0C
0C
0C
0C
0C
08
18
F8
E0
ENDCHAR
STARTCHAR 007E
ENCODING 126
SWIDTH 654 0
DWIDTH 20 0
BBX 12 5 4 7
BITMAP
7030
FC30
CF30
C3F0
C1E0
ENDCHAR
STARTCHAR 00A0
ENCODING 160
SWIDTH 196 0
DWIDTH 6 0
BBX 0 0 0 0
BITMAP
ENDCHAR
STARTCHAR 00A1
ENCODING 161
SWIDTH 294 0
DWIDTH 9 0
BBX 1 22 4 -5
BITMAP
80
80
00
00
00
80
80
80
80
80
80
80
80
80
80
80
80
80
80
80
80
80
ENDCHAR
STARTCHAR 00A2
ENCODING 162
SWIDTH 556 0
DWIDTH 17 0
BBX 14 23 1 -1
BITMAP
0180
0180
0180
0FE0
1FF8
301C
600C
6000
4000
C000
C000
C000
C000
C000
6000
6004
700C
381C
1FF8
07E0
0180
0180
0180
ENDCHAR
STARTCHAR 00A3
ENCODING 163
SWIDTH 556 0
DWIDTH 17 0
BBX 15 22 1 0
BITMAP
01F0
03F8
060C
0C06
0C06
0C02
0C00
0C00
0C00
0C00
FFF0
FFF0
0C00
0C00
0C00
0C00
0C00
0C00
0C00
0C00
FFFE
FFFE
ENDCHAR
STARTCHAR 00A4
ENCODING 164
SWIDTH 621 0
DWIDTH 19 0
BBX 17 16 1 3
BITMAP
C3E180
6FFB00
3C0E00
300600
600300
600300
400180
400180
400180
600180
600300
600300
300600
380E00
6FFB00
C3F180
ENDCHAR
STARTCHAR 00A5
ENCODING 165
SWIDTH 523 0
DWIDTH 16 0
BBX 16 22 0 0
BITMAP
C003
6007
7006
300C
180C
1818
0C18
0C30
0660
0360
03C0
01C0
1FFC
1FFC
0180
0180
0180
1FFC
1FFC
0180
0180
0180
ENDCHAR
STARTCHAR 00A6
ENCODING 166
SWIDTH 229 0
DWIDTH 7 0
BBX 2 26 3 -4
BITMAP
C0
C0
C0
C0
C0
C0
C0
C0
C0
C0
C0
00
00
00
00
C0
C0
C0
C0
C0
C0
C0
C0
C0
C0
C0
ENDCHAR
STARTCHAR 00A7
ENCODING 167
SWIDTH 523 0
DWIDTH 16 0
BBX 14 25 1 -5
BITMAP
0F80
3FE0
7030
6018
6018
6000
3000
1F00
1FE0
7078
6018
C00C
C00C
600C
3C18
0FF0
01F0
0038
0018
0018
6018
7018
3830
1FE0
0780
ENDCHAR
STARTCHAR 00A8
ENCODING 168
SWIDTH 490 0
DWIDTH 15 0
BBX 7 2 4 26
BITMAP
C6
C6
ENDCHAR
STARTCHAR 00A9
ENCODING 169
SWIDTH 785 0
DWIDTH 24 0
BBX 22 23 1 -1
BITMAP
00F800
03FF00
0F0380
1C00C0
380060
30F830
61FE18
630318
C30318
C6000C
C6000C
C6000C
C6000C
C6000C
C30318
630318
61FE18
30F830
380060
1C00E0
0F0380
03FF00
00F800
ENDCHAR
STARTCHAR 00AA
ENCODING 170
SWIDTH 327 0
DWIDTH 10 0
BBX 7 9 1 8
BITMAP
3C
6E
42
0E
7A
C2
C6
7E
30
ENDCHAR
STARTCHAR 00AB
ENCODING 171
SWIDTH 523 0
DWIDTH 16 0
BBX 12 13 2 2
BITMAP
0420
0460
0C40
18C0
3180
6300
C600
6300
3180
18C0
08C0
0C60
0630
ENDCHAR
STARTCHAR 00AC
ENCODING 172
SWIDTH 589 0
DWIDTH 18 0
BBX 14 6 2 6
BITMAP
FFFC
FFFC
0004
0004
0004
0004
ENDCHAR
STARTCHAR 00AD
ENCODING 173
SWIDTH 425 0
DWIDTH 13 0
BBX 9 2 2 9
BITMAP
FF80
FF80
ENDCHAR
STARTCHAR 00AE
ENCODING 174
SWIDTH 621 0
DWIDTH 19 0
BBX 15 14 2 10
BITMAP
0FE0
3830
7018
678C
C444
C446
C446
C786
C484
444C
600C
3018
1FF0
07C0
ENDCHAR
STARTCHAR 00AF
ENCODING 175
SWIDTH 490 0
DWIDTH 15 0
BBX 7 2 4 25
BITMAP
FE
FE
ENDCHAR
STARTCHAR 00B0
ENCODING 176
SWIDTH 458 0
DWIDTH 14 0
BBX 11 11 1 11
BITMAP
1F00
3F80
60C0
C060
C060
C060
C060
C0C0
61C0
3F80
0400
ENDCHAR
STARTCHAR 00B1
ENCODING 177
SWIDTH 589 0
DWIDTH 18 0
BBX 14 15 2 2
BITMAP
0300
0300
0300
0300
FFFC
FFFC
0300
0300
0300
0300
0000
0000
0000
FFFC
FFFC
ENDCHAR
STARTCHAR 00B2
ENCODING 178
SWIDTH 392 0
DWIDTH 12 0
BBX 9 14 2 8
BITMAP
3C00
7600
C300
8100
0180
0100
0300
0600
0C00
1800
3000
6000
C000
FF80
ENDCHAR
STARTCHAR 00B3
ENCODING 179
SWIDTH 392 0
DWIDTH 12 0
BBX 9 14 1 8
BITMAP
7F80
0180
0300
0C00
1800
3E00
1300
0180
0180
0180
0180
C100
7700
3E00
ENDCHAR
STARTCHAR 00B4
ENCODING 180
SWIDTH 458 0
DWIDTH 14 0
BBX 3 4 6 25
BITMAP
60
60
40
C0
ENDCHAR
STARTCHAR 00B5
ENCODING 181
SWIDTH 589 0
DWIDTH 18 0
BBX 14 24 2 -7
BITMAP
C00C
C00C
C00C
C00C
C00C
C00C
C00C
C00C
C00C
C00C
C00C
C00C
E00C
E01C
F03C
DFEC
CFCC
C000
C000
C000
C000
C000
C000
C000
ENDCHAR
STARTCHAR 00B6
ENCODING 182
SWIDTH 621 0
DWIDTH 19 0
BBX 14 26 2 -4
BITMAP
0FCC
1FCC
3FCC
7FCC
7FCC
7FCC
FFCC
FFCC
7FCC
7FCC
7FCC
3FCC
1FCC
004C
004C
004C
004C
004C
004C
004C
004C
004C
004C
004C
004C
004C
ENDCHAR
STARTCHAR 00B7
ENCODING 183
SWIDTH 229 0
DWIDTH 7 0
BBX 3 3 2 8
BITMAP
C0
E0
C0
ENDCHAR
STARTCHAR 00B8
ENCODING 184
SWIDTH 392 0
DWIDTH 12 0
BBX 4 8 4 -8
BITMAP
20
60
60
30
10
30
F0
40
ENDCHAR
STARTCHAR 00B9
ENCODING 185
SWIDTH 327 0
DWIDTH 10 0
BBX 4 14 2 8
BITMAP
30
F0
B0
30
30
30
30
30
30
30
30
30
30
30
ENDCHAR
STARTCHAR 00BA
ENCODING 186
SWIDTH 327 0
DWIDTH 10 0
BBX 8 9 1 8
BITMAP
3C
76
43
C1
C1
C1
43
76
3C
ENDCHAR
STARTCHAR 00BB
ENCODING 187
SWIDTH 523 0
DWIDTH 16 0
BBX 11 13 2 2
BITMAP
4200
4600
6300
3180
18C0
0C60
0460
0C60
18C0
3180
2300
6300
C600
ENDCHAR
STARTCHAR 00BC
ENCODING 188
SWIDTH 949 0
DWIDTH 29 0
BBX 23 22 2 0
BITMAP
300020
F00060
B000C0
3001C0
300180
300300
300600
300C00
301C10
301830
303020
306060
30C040
30C0C0
01808C
03018C
06010C
0E030C
0C03FE
18000C
30000C
20000C
ENDCHAR
STARTCHAR 00BD
ENCODING 189
SWIDTH 916 0
DWIDTH 28 0
BBX 24 22 2 0
BITMAP
300020
F00060
B000C0
3001C0
300180
300300
300600
300C00
301C3C
3018EE
303083
306181
30C001
30C003
018003
030006
06000C
0E0018
0C0030
1800E0
3001C0
2001FF
ENDCHAR
STARTCHAR 00BE
ENCODING 190
SWIDTH 949 0
DWIDTH 29 0
BBX 27 22 1 0
BITMAP
7F800400
01800C00
03001800
0C001800
18003000
3E006000
1300C000
0181C000
01818200
01830600
01860400
C10C0C00
770C0800
3E181800
00301080
00603080
00E03080
00C06080
01807FE0
03000080
06000080
02000080
ENDCHAR
STARTCHAR 00BF
ENCODING 191
SWIDTH 523 0
DWIDTH 16 0
BBX 12 23 2 -6
BITMAP
0600
0600
0600
0000
0000
0000
0600
0600
0600
0600
0C00
1800
3000
6000
C000
C000
8000
8030
C030
C030
E060
7FC0
1F80
ENDCHAR
STARTCHAR 00C0
ENCODING 192
SWIDTH 621 0
DWIDTH 19 0
BBX 17 29 1 0
BITMAP
030000
030000
010000
018000
000000
000000
000000
01C000
01C000
014000
036000
036000
063000
063000
063000
0C1800
0C1800
0C1800
180C00
180C00
180C00
300600
3FFE00
3FFE00
600300
600300
C00100
C00180
C00180
ENDCHAR
STARTCHAR 00C1
ENCODING 193
SWIDTH 621 0
DWIDTH 19 0
BBX 17 29 1 0
BITMAP
006000
006000
004000
00C000
000000
000000
000000
01C000
01C000
014000
036000
036000
063000
063000
063000
0C1800
0C1800
0C1800
180C00
180C00
180C00
300600
3FFE00
3FFE00
600300
600300
C00100
C00180
C00180
ENDCHAR
STARTCHAR 00C2
ENCODING 194
SWIDTH 621 0
DWIDTH 19 0
BBX 17 28 1 0
BITMAP
01C000
036000
063000
000000
000000
000000
01C000
01C000
014000
036000
036000
063000
063000
063000
0C1800
0C1800
0C1800
180C00
180C00
180C00
300600
3FFE00
3FFE00
600300
600300
C00100
C00180
C00180
ENDCHAR
STARTCHAR 00C3
ENCODING 195
SWIDTH 621 0
DWIDTH 19 0
BBX 17 29 1 0
BITMAP
070800
0F9800
08F800
087000
000000
000000
000000
01C000
01C000
014000
036000
036000
063000
063000
063000
0C1800
0C1800
0C1800
180C00
180C00
180C00
300600
3FFE00
3FFE00
600300
600300
C00100
C00180
C00180
ENDCHAR
STARTCHAR 00C4
ENCODING 196
SWIDTH 621 0
DWIDTH 19 0
BBX 17 28 1 0
BITMAP
063000
063000
000000
000000
000000
000000
01C000
01C000
014000
036000
036000
063000
063000
063000
0C1800
0C1800
0C1800
180C00
180C00
180C00
300600
3FFE00
3FFE00
600300
600300
C00100
C00180
C00180
ENDCHAR
STARTCHAR 00C5
ENCODING 197
SWIDTH 621 0
DWIDTH 19 0
BBX 17 30 1 0
BITMAP
01C000
036000
063000
063000
036000
01C000
000000
000000
01C000
01C000
014000
036000
036000
063000
063000
063000
0C1800
0C1800
0C1800
180C00
180C00
180C00
300600
3FFE00
3FFE00
600300
600300
C00100
C00180
C00180
ENDCHAR
STARTCHAR 00C6
ENCODING 198
SWIDTH 916 0
DWIDTH 28 0
BBX 25 22 1 0
BITMAP
01FFFF80
01FFFF80
01080000
03080000
03080000
06080000
06080000
06080000
0C080000
0C080000
0C0FFE00
180FFE00
18080000
18080000
30080000
3FF80000
3FF80000
60080000
60080000
C0080000
C00FFF80
C00FFF80
ENDCHAR
STARTCHAR 00C7
ENCODING 199
SWIDTH 720 0
DWIDTH 22 0
BBX 19 29 1 -7
BITMAP
03F800
0FFE00
1C0380
3801C0
7000C0
600060
600060
C00000
C00000
C00000
C00000
C00000
C00000
C00000
C00000
600060
600060
7000C0
3801C0
1C0380
0FFF00
03F800
002000
006000
007000
001000
001000
00F000
00E000
ENDCHAR
STARTCHAR 00C8
ENCODING 200
SWIDTH 556 0
DWIDTH 17 0
BBX 14 29 2 0
BITMAP
0600
0200
0300
0300
0000
0000
0000
FFFC
FFFC
C000
C000
C000
C000
C000
C000
C000
C000
FFF0
FFF0
C000
C000
C000
C000
C000
C000
C000
C000
FFFC
FFFC
ENDCHAR
STARTCHAR 00C9
ENCODING 201
SWIDTH 556 0
DWIDTH 17 0
BBX 14 29 2 0
BITMAP
00C0
0080
0180
0100
0000
0000
0000
FFFC
FFFC
C000
C000
C000
C000
C000
C000
C000
C000
FFF0
FFF0
C000
C000
C000
C000
C000
C000
C000
C000
FFFC
FFFC
ENDCHAR
STARTCHAR 00CA
ENCODING 202
SWIDTH 556 0
DWIDTH 17 0
BBX 14 28 2 0
BITMAP
0700
0D80
18C0
0000
0000
0000
FFFC
FFFC
C000
C000
C000
C000
C000
C000
C000
C000
FFF0
FFF0
C000
C000
C000
C000
C000
C000
C000
C000
FFFC
FFFC
ENDCHAR
STARTCHAR 00CB
ENCODING 203
SWIDTH 556 0
DWIDTH 17 0
BBX 14 28 2 0
BITMAP
18C0
18C0
0000
0000
0000
0000
FFFC
FFFC
C000
C000
C000
C000
C000
C000
C000
C000
FFF0
FFF0
C000
C000
C000
C000
C000
C000
C000
C000
FFFC
FFFC
ENDCHAR
STARTCHAR 00CC
ENCODING 204
SWIDTH 229 0
DWIDTH 7 0
BBX 3 29 1 0
BITMAP
C0
C0
40
60
00
00
00
60
60
60
60
60
60
60
60
60
60
60
60
60
60
60
60
60
60
60
60
60
60
ENDCHAR
STARTCHAR 00CD
ENCODING 205
SWIDTH 229 0
DWIDTH 7 0
BBX 4 29 2 0
BITMAP
30
20
60
60
00
00
00
C0
C0
C0
C0
C0
C0
C0
C0
C0
C0
C0
C0
C0
C0
C0
C0
C0
C0
C0
C0
C0
C0
ENDCHAR
STARTCHAR 00CE
ENCODING 206
SWIDTH 229 0
DWIDTH 7 0
BBX 7 29 0 0
BITMAP
38
78
EC
C6
00
00
00
30
30
30
30
30
30
30
30
30
30
30
30
30
30
30
30
30
30
30
30
30
30
ENDCHAR
STARTCHAR 00CF
ENCODING 207
SWIDTH 229 0
DWIDTH 7 0
BBX 8 28 -1 0
BITMAP
E3
E3
00
00
00
00
18
18
18
18
18
18
18
18
18
18
18
18
18
18
18
18
18
18
18
18
18
18
ENDCHAR
STARTCHAR 00D0
ENCODING 208
SWIDTH 654 0
DWIDTH 20 0
BBX 19 22 0 0
BITMAP
3FF800
3FFE00
300700
300380
300180
3000C0
3000C0
3000C0
300060
300060
FFC060
FFC060
300060
300040
3000C0
3000C0
3000C0
300180
300380
300700
3FFE00
3FF800
ENDCHAR
STARTCHAR 00D1
ENCODING 209
SWIDTH 687 0
DWIDTH 21 0
BBX 16 28 2 0
BITMAP
0708
0FC8
0CF8
0000
0000
0000
C001
E001
F001
F001
D801
CC01
CC01
C601
C301
C301
C181
C0C1
C0C1
C061
C031
C031
C019
C00D
C00D
C007
C003
C003
ENDCHAR
STARTCHAR 00D2
ENCODING 210
SWIDTH 720 0
DWIDTH 22 0
BBX 20 28 1 0
BITMAP
008000
00C000
004000
006000
000000
000000
03F800
0FFF00
1C0380
3801C0
7000C0
600060
600060
C00030
C00030
C00030
C00030
C00030
C00030
C00030
C00030
600060
600060
7000C0
3801C0
1C0380
0FFF00
03F800
ENDCHAR
STARTCHAR 00D3
ENCODING 211
SWIDTH 720 0
DWIDTH 22 0
BBX 20 29 1 0
BITMAP
001800
001000
003000
003000
006000
000000
000000
03F800
0FFF00
1C0380
3801C0
7000C0
600060
600060
C00030
C00030
C00030
C00030
C00030
C00030
C00030
C00030
600060
600060
7000C0
3801C0
1C0380
0FFF00
03F800
ENDCHAR
STARTCHAR 00D4
ENCODING 212
SWIDTH 720 0
DWIDTH 22 0
BBX 20 28 1 0
BITMAP
006000
00F000
019800
030C00
000000
000000
03F800
0FFF00
1C0380
3801C0
7000C0
600060
600060
C00030
C00030
C00030
C00030
C00030
C00030
C00030
C00030
600060
600060
7000C0
3801C0
1C0380
0FFF00
03F800
ENDCHAR
STARTCHAR 00D5
ENCODING 213
SWIDTH 720 0
DWIDTH 22 0
BBX 20 27 1 1
BITMAP
03C600
027C00
021C00
000000
000000
03F800
0FFF00
1C0380
3801C0
7000C0
600060
600060
C00030
C00030
C00030
C00030
C00030
C00030
C00030
C00030
600060
600060
7000C0
3801C0
1C0380
0FFF00
03F800
ENDCHAR
STARTCHAR 00D6
ENCODING 214
SWIDTH 720 0
DWIDTH 22 0
BBX 20 27 1 0
BITMAP
030C00
030C00
000000
000000
000000
03F800
0FFF00
1C0380
3801C0
7000C0
600060
600060
C00030
C00030
C00030
C00030
C00030
C00030
C00030
C00030
600060
600060
7000C0
3801C0
1C0380
0FFF00
03F800
ENDCHAR
STARTCHAR 00D7
ENCODING 215
SWIDTH 490 0
DWIDTH 15 0
BBX 11 11 2 6
BITMAP
8040
C0E0
61C0
3380
1F00
0C00
1E00
3300
6180
C0C0
8040
ENDCHAR
STARTCHAR 00D8
ENCODING 216
SWIDTH 720 0
DWIDTH 22 0
BBX 20 22 1 0
BITMAP
03F810
0FFF30
1C03E0
3801C0
7001C0
6003E0
600760
C00E30
C01C30
C03830
C07030
C0E030
C1C030
C38030
C30020
460060
6C0060
7800C0
3801C0
7C0380
CFFF00
81F800
ENDCHAR
STARTCHAR 00D9
ENCODING 217
SWIDTH 687 0
DWIDTH 21 0
BBX 17 29 2 0
BITMAP
010000
018000
018000
008000
000000
000000
000000
C00180
C00180
C00180
C00180
C00180
C00180
C00180
C00180
C00180
C00180
C00180
C00180
C00180
C00180
C00180
C00180
C00180
600300
700700
380E00
1FFC00
03F000
ENDCHAR
STARTCHAR 00DA
ENCODING 218
SWIDTH 687 0
DWIDTH 21 0
BBX 17 29 2 0
BITMAP
006000
004000
00C000
008000
000000
000000
000000
C00180
C00180
C00180
C00180
C00180
C00180
C00180
C00180
C00180
C00180
C00180
C00180
C00180
C00180
C00180
C00180
C00180
600300
700700
380E00
1FFC00
03F000
ENDCHAR
STARTCHAR 00DB
ENCODING 219
SWIDTH 687 0
DWIDTH 21 0
BBX 17 28 2 0
BITMAP
01C000
036000
063000
000000
000000
000000
C00180
C00180
C00180
C00180
C00180
C00180
C00180
C00180
C00180
C00180
C00180
C00180
C00180
C00180
C00180
C00180
C00180
600300
700700
380E00
1FFC00
03F000
ENDCHAR
STARTCHAR 00DC
ENCODING 220
SWIDTH 687 0
DWIDTH 21 0
BBX 17 28 2 0
BITMAP
063800
063800
000000
000000
000000
000000
C00180
C00180
C00180
C00180
C00180
C00180
C00180
C00180
C00180
C00180
C00180
C00180
C00180
C00180
C00180
C00180
C00180
600300
700700
380E00
1FFC00
03F000
ENDCHAR
STARTCHAR 00DD
ENCODING 221
SWIDTH 523 0
DWIDTH 16 0
BBX 16 29 0 0
BITMAP
00C0
00C0
0080
0180
0000
0000
0000
C003
6003
6006
300C
180C
1818
0C18
0C30
0670
0760
03C0
01C0
0180
0180
0180
0180
0180
0180
0180
0180
0180
0180
ENDCHAR
STARTCHAR 00DE
ENCODING 222
SWIDTH 589 0
DWIDTH 18 0
BBX 15 22 2 0
BITMAP
C000
C000
C000
C000
FF80
FFF0
C038
C00C
C00C
C006
C006
C006
C006
C00C
C00C
C038
FFF0
FFC0
C000
C000
C000
C000
ENDCHAR
STARTCHAR 00DF
ENCODING 223
SWIDTH 589 0
DWIDTH 18 0
BBX 14 22 2 0
BITMAP
1F80
3FC0
7060
6030
C030
C030
C030
C030
C060
C1C0
C3E0
C0F0
C018
C00C
C00C
C00C
C00C
C00C
C01C
C038
CFF0
CFC0
ENDCHAR
STARTCHAR 00E0
ENCODING 224
SWIDTH 556 0
DWIDTH 17 0
BBX 14 23 1 0
BITMAP
0200
0300
0300
0100
0000
0000
0FC0
1FF0
3018
600C
600C
000C
001C
0FFC
3F0C
700C
E00C
C00C
C01C
C01C
607C
3FEC
1F8C
ENDCHAR
STARTCHAR 00E1
ENCODING 225
SWIDTH 556 0
DWIDTH 17 0
BBX 14 23 1 0
BITMAP
00C0
0080
0180
0180
0000
0000
0FC0
1FF0
3018
600C
600C
000C
001C
0FFC
3F0C
700C
E00C
C00C
C01C
C01C
607C
3FEC
1F8C
ENDCHAR
STARTCHAR 00E2
ENCODING 226
SWIDTH 556 0
DWIDTH 17 0
BBX 14 23 1 0
BITMAP
0380
06C0
0660
0C60
0000
0000
0FC0
1FF0
3018
600C
600C
000C
001C
0FFC
3F0C
700C
E00C
C00C
C01C
C01C
607C
3FEC
1F8C
ENDCHAR
STARTCHAR 00E3
ENCODING 227
SWIDTH 556 0
DWIDTH 17 0
BBX 14 22 1 0
BITMAP
0E10
1F90
18F0
0000
0000
0FC0
1FF0
3018
600C
600C
000C
001C
0FFC
3F0C
700C
E00C
C00C
C01C
C01C
607C
3FEC
1F8C
ENDCHAR
STARTCHAR 00E4
ENCODING 228
SWIDTH 556 0
DWIDTH 17 0
BBX 14 22 1 0
BITMAP
0C30
0C30
0000
0000
0000
0FC0
1FF0
3018
600C
600C
000C
001C
0FFC
3F0C
700C
E00C
C00C
C01C
C01C
607C
3FEC
1F8C
ENDCHAR
STARTCHAR 00E5
ENCODING 229
SWIDTH 556 0
DWIDTH 17 0
BBX 14 24 1 0
BITMAP
07C0
0460
0C60
0460
07C0
0000
0000
0FC0
1FF0
3018
600C
600C
000C
001C
0FFC
3F0C
700C
E00C
C00C
C01C
C01C
607C
3FEC
1F8C
ENDCHAR
STARTCHAR 00E6
ENCODING 230
SWIDTH 949 0
DWIDTH 29 0
BBX 27 17 1 0
BITMAP
0FC07C00
1FF1FF00
303B0380
601E0180
600E00C0
000C00C0
000C0040
001FFFE0
3FFFFFE0
700C0000
600C0000
C00C0000
C01E00C0
C01E00C0
60738380
7FE1FF00
1F807C00
ENDCHAR
STARTCHAR 00E7
ENCODING 231
SWIDTH 556 0
DWIDTH 17 0
BBX 14 24 1 -7
BITMAP
07E0
1FF8
381C
700C
6004
6000
C000
C000
C000
C000
C000
6000
6004
700C
381C
1FF8
07E0
0100
0100
0380
00C0
00C0
03C0
0780
ENDCHAR
STARTCHAR 00E8
ENCODING 232
SWIDTH 589 0
DWIDTH 18 0
BBX 15 23 1 0
BITMAP
0300
0300
0100
0180
0000
0000
07E0
1FF8
381C
700C
6006
4006
C006
FFFE
FFFE
C000
C000
6000
6006
700E
381C
1FF8
07E0
ENDCHAR
STARTCHAR 00E9
ENCODING 233
SWIDTH 589 0
DWIDTH 18 0
BBX 15 24 1 0
BITMAP
0060
0040
00C0
00C0
0180
0000
0000
07E0
1FF8
381C
700C
6006
4006
C006
FFFE
FFFE
C000
C000
6000
6006
700E
381C
1FF8
07E0
ENDCHAR
STARTCHAR 00EA
ENCODING 234
SWIDTH 589 0
DWIDTH 18 0
BBX 15 23 1 0
BITMAP
0180
03C0
0660
0C30
0000
0000
07E0
1FF8
381C
700C
6006
4006
C006
FFFE
FFFE
C000
C000
6000
6006
700E
381C
1FF8
07E0
ENDCHAR
STARTCHAR 00EB
ENCODING 235
SWIDTH 589 0
DWIDTH 18 0
BBX 15 22 1 0
BITMAP
0C30
0C30
0000
0000
0000
07E0
1FF8
381C
700C
6006
4006
C006
FFFE
FFFE
C000
C000
6000
6006
700E
381C
1FF8
07E0
ENDCHAR
STARTCHAR 00EC
ENCODING 236
SWIDTH 229 0
DWIDTH 7 0
BBX 3 24 1 0
BITMAP
C0
C0
40
60
00
00
00
60
60
60
60
60
60
60
60
60
60
60
60
60
60
60
60
60
ENDCHAR
STARTCHAR 00ED
ENCODING 237
SWIDTH 229 0
DWIDTH 7 0
BBX 4 24 2 0
BITMAP
30
20
60
40
00
00
00
C0
C0
C0
C0
C0
C0
C0
C0
C0
C0
C0
C0
C0
C0
C0
C0
C0
ENDCHAR
STARTCHAR 00EE
ENCODING 238
SWIDTH 229 0
DWIDTH 7 0
BBX 7 23 0 0
BITMAP
38
6C
C6
00
00
00
30
30
30
30
30
30
30
30
30
30
30
30
30
30
30
30
30
ENDCHAR
STARTCHAR 00EF
ENCODING 239
SWIDTH 229 0
DWIDTH 7 0
BBX 8 22 -1 0
BITMAP
E3
E3
00
00
00
18
18
18
18
18
18
18
18
18
18
18
18
18
18
18
18
18
ENDCHAR
STARTCHAR 00F0
ENCODING 240
SWIDTH 589 0
DWIDTH 18 0
BBX 15 24 1 0
BITMAP
0018
03B0
03E0
00F0
00D8
018C
000C
0004
07E6
1FF6
381E
600E
6006
C006
C006
C002
C002
C006
C006
6006
600C
381C
1FF8
07E0
ENDCHAR
STARTCHAR 00F1
ENCODING 241
SWIDTH 589 0
DWIDTH 18 0
BBX 14 22 2 0
BITMAP
1C20
1FE0
31E0
0000
0000
C7C0
DFF0
F030
E018
E008
C00C
C00C
C00C
C00C
C00C
C00C
C00C
C00C
C00C
C00C
C00C
C00C
ENDCHAR
STARTCHAR 00F2
ENCODING 242
SWIDTH 589 0
DWIDTH 18 0
BBX 16 23 1 0
BITMAP
0200
0300
0300
0100
0000
0000
07E0
1FF8
381C
700C
6006
6006
C002
C003
C003
C003
C002
6006
6006
700C
381C
1FF8
07E0
ENDCHAR
STARTCHAR 00F3
ENCODING 243
SWIDTH 589 0
DWIDTH 18 0
BBX 16 24 1 0
BITMAP
0040
00C0
00C0
0080
0180
0000
0000
07E0
1FF8
381C
700C
6006
6006
C002
C003
C003
C003
C002
6006
6006
700C
381C
1FF8
07E0
ENDCHAR
STARTCHAR 00F4
ENCODING 244
SWIDTH 589 0
DWIDTH 18 0
BBX 16 23 1 0
BITMAP
0180
03C0
0660
0C30
0000
0000
07E0
1FF8
381C
700C
6006
6006
C002
C003
C003
C003
C002
6006
6006
700C
381C
1FF8
07E0
ENDCHAR
STARTCHAR 00F5
ENCODING 245
SWIDTH 589 0
DWIDTH 18 0
BBX 16 22 1 0
BITMAP
0E10
0F90
18F0
0020
0000
07E0
1FF8
381C
700C
6006
6006
C002
C003
C003
C003
C002
6006
6006
700C
381C
1FF8
07E0
ENDCHAR
STARTCHAR 00F6
ENCODING 246
SWIDTH 589 0
DWIDTH 18 0
BBX 16 22 1 0
BITMAP
0C30
0C30
0000
0000
0000
07E0
1FF8
381C
700C
6006
6006
C002
C003
C003
C003
C002
6006
6006
700C
381C
1FF8
07E0
ENDCHAR
STARTCHAR 00F7
ENCODING 247
SWIDTH 556 0
DWIDTH 17 0
BBX 13 10 2 6
BITMAP
0600
0600
0000
0000
FFF8
FFF8
0000
0000
0600
0600
ENDCHAR
STARTCHAR 00F8
ENCODING 248
SWIDTH 589 0
DWIDTH 18 0
BBX 16 17 1 0
BITMAP
07E1
1FFF
381E
700E
601E
6036
C062
C0C3
C183
C303
C602
4C06
7806
700C
781C
DFF8
87E0
ENDCHAR
STARTCHAR 00F9
ENCODING 249
SWIDTH 589 0
DWIDTH 18 0
BBX 14 24 2 0
BITMAP
0400
0600
0200
0300
0000
0000
0000
C00C
C00C
C00C
C00C
C00C
C00C
C00C
C00C
C00C
C00C
C00C
C00C
C01C
601C
703C
3FEC
0F8C
ENDCHAR
STARTCHAR 00FA
ENCODING 250
SWIDTH 589 0
DWIDTH 18 0
BBX 14 24 2 0
BITMAP
0180
0180
0100
0300
0000
0000
0000
C00C
C00C
C00C
C00C
C00C
C00C
C00C
C00C
C00C
C00C
C00C
C00C
C01C
601C
703C
3FEC
0F8C
ENDCHAR
STARTCHAR 00FB
ENCODING 251
SWIDTH 589 0
DWIDTH 18 0
BBX 14 23 2 0
BITMAP
0700
0D80
18C0
0000
0000
0000
C00C
C00C
C00C
C00C
C00C
C00C
C00C
C00C
C00C
C00C
C00C
C00C
C01C
601C
703C
3FEC
0F8C
ENDCHAR
STARTCHAR 00FC
ENCODING 252
SWIDTH 589 0
DWIDTH 18 0
BBX 14 22 2 0
BITMAP
18E0
18E0
0000
0000
0000
C00C
C00C
C00C
C00C
C00C
C00C
C00C
C00C
C00C
C00C
C00C
C00C
C01C
601C
703C
3FEC
0F8C
ENDCHAR
STARTCHAR 00FD
ENCODING 253
SWIDTH 523 0
DWIDTH 16 0
BBX 14 31 1 -7
BITMAP
0180
0180
0100
0300
0000
0000
0000
C00C
C00C
4018
6018
6010
3030
3030
1020
1860
1860
0CC0
0CC0
04C0
0780
0780
0300
0300
0300
0200
0600
0600
0C00
0C00
0C00
ENDCHAR
STARTCHAR 00FE
ENCODING 254
SWIDTH 589 0
DWIDTH 18 0
BBX 15 29 2 -7
BITMAP
C000
C000
C000
C000
C000
C7C0
DFF0
F038
E018
E00C
C00C
C004
C006
C006
C006
C004
C00C
E00C
E018
F038
DFF0
C7C0
C000
C000
C000
C000
C000
C000
C000
ENDCHAR
STARTCHAR 00FF
ENCODING 255
SWIDTH 523 0
DWIDTH 16 0
BBX 14 29 1 -7
BITMAP
1860
1860
0000
0000
0000
C00C
C00C
4018
6018
6010
3030
3030
1020
1860
1860
0CC0
0CC0
04C0
0780
0780
0300
0300
0300
0200
0600
0600
0C00
0C00
0C00
ENDCHAR
ENDFONT
