STARTFONT 2.1
COMMENT
COMMENT Converted from OpenType font "Manrope-ExtraLight.otf" by "otf2bdf 3.0".
COMMENT
FONT -FreeType-Manrope ExtraLight-Medium-R-Normal--28-200-100-100-P-120-ISO10646-1
SIZE 20 100 100
FONTBOUNDINGBOX 26 34 -1 -7
STARTPROPERTIES 19
FOUNDRY "FreeType"
FAMILY_NAME "Manrope ExtraLight"
WEIGHT_NAME "Medium"
SLANT "R"
SETWIDTH_NAME "Normal"
ADD_STYLE_NAME ""
PIXEL_SIZE 28
POINT_SIZE 200
RESOLUTION_X 100
RESOLUTION_Y 100
SPACING "P"
AVERAGE_WIDTH 120
CHARSET_REGISTRY "ISO10646"
CHARSET_ENCODING "1"
FONT_ASCENT 29
FONT_DESCENT 8
COPYRIGHT "Copyright 2019-2021 The Manrope Project Authors (https://github.com/sharanda/manrope)"
_OTF_FONTFILE "Manrope-ExtraLight.otf"
_OTF_PSNAME "Manrope-ExtraLight"
ENDPROPERTIES
CHARS 191
STARTCHAR 0020
ENCODING 32
SWIDTH 216 0
DWIDTH 6 0
BBX 0 0 0 0
BITMAP
ENDCHAR
STARTCHAR 0021
ENCODING 33
SWIDTH 288 0
DWIDTH 8 0
BBX 1 20 3 0
BITMAP
80
80
80
80
80
80
80
80
80
80
80
80
80
80
80
00
00
00
80
80
ENDCHAR
STARTCHAR 0022
ENCODING 34
SWIDTH 360 0
DWIDTH 10 0
BBX 5 5 2 15
BITMAP
88
88
88
88
88
ENDCHAR
STARTCHAR 0023
ENCODING 35
SWIDTH 900 0
DWIDTH 25 0
BBX 22 20 2 0
BITMAP
004080
004080
004180
00C100
008100
008100
3FFFFC
018200
010200
010200
010600
030400
020400
FFFFF0
020800
060800
040800
041800
0C1000
081000
ENDCHAR
STARTCHAR 0024
ENCODING 36
SWIDTH 576 0
DWIDTH 16 0
BBX 14 24 1 -2
BITMAP
0200
0200
0FC0
3860
6010
4008
4008
4004
4000
6000
3800
0780
00E0
0018
0008
0004
0004
8004
C008
6018
3830
0FC0
0200
0200
ENDCHAR
STARTCHAR 0025
ENCODING 37
SWIDTH 900 0
DWIDTH 25 0
BBX 21 20 2 0
BITMAP
1E0010
630030
C18060
8080C0
80C180
80C300
808600
C08C00
631800
1E3000
006000
00C3E0
018430
030818
061808
0C1808
180808
300818
600630
4003E0
ENDCHAR
STARTCHAR 0026
ENCODING 38
SWIDTH 648 0
DWIDTH 18 0
BBX 16 20 1 0
BITMAP
07C0
1860
3010
2000
2000
2000
2000
3000
1800
0C00
3600
6104
4084
C044
C024
C014
400C
600E
3833
0FE1
ENDCHAR
STARTCHAR 0027
ENCODING 39
SWIDTH 180 0
DWIDTH 5 0
BBX 1 5 2 15
BITMAP
80
80
80
80
80
ENDCHAR
STARTCHAR 0028
ENCODING 40
SWIDTH 396 0
DWIDTH 11 0
BBX 6 28 4 -5
BITMAP
04
08
18
10
20
20
60
40
40
C0
80
80
80
80
80
80
80
80
C0
40
40
60
20
30
10
18
0C
04
ENDCHAR
STARTCHAR 0029
ENCODING 41
SWIDTH 396 0
DWIDTH 11 0
BBX 5 27 2 -5
BITMAP
80
80
40
60
20
30
10
10
18
08
08
08
08
08
08
08
08
08
08
18
10
10
30
20
60
C0
80
ENDCHAR
STARTCHAR 002A
ENCODING 42
SWIDTH 432 0
DWIDTH 12 0
BBX 9 9 1 11
BITMAP
0800
0800
0800
EB80
3E00
1C00
3400
2200
0200
ENDCHAR
STARTCHAR 002B
ENCODING 43
SWIDTH 576 0
DWIDTH 16 0
BBX 12 13 2 3
BITMAP
0600
0600
0600
0600
0600
0600
FFF0
0600
0600
0600
0600
0600
0600
ENDCHAR
STARTCHAR 002C
ENCODING 44
SWIDTH 252 0
DWIDTH 7 0
BBX 1 5 2 -3
BITMAP
80
80
80
80
80
ENDCHAR
STARTCHAR 002D
ENCODING 45
SWIDTH 432 0
DWIDTH 12 0
BBX 8 1 2 8
BITMAP
FF
ENDCHAR
STARTCHAR 002E
ENCODING 46
SWIDTH 216 0
DWIDTH 6 0
BBX 2 2 2 0
BITMAP
C0
C0
ENDCHAR
STARTCHAR 002F
ENCODING 47
SWIDTH 360 0
DWIDTH 10 0
BBX 6 20 2 0
BITMAP
04
04
0C
08
08
08
18
10
10
30
20
20
20
60
40
40
40
C0
80
80
ENDCHAR
STARTCHAR 0030
ENCODING 48
SWIDTH 576 0
DWIDTH 16 0
BBX 12 20 2 0
BITMAP
0F00
30C0
6060
C030
8010
8010
8010
8010
8010
8010
8010
8010
8010
8010
8010
8010
C030
6060
30C0
0F80
ENDCHAR
STARTCHAR 0031
ENCODING 49
SWIDTH 360 0
DWIDTH 10 0
BBX 5 20 2 0
BITMAP
18
78
D8
18
18
18
18
18
18
18
18
18
18
18
18
18
18
18
18
18
ENDCHAR
STARTCHAR 0032
ENCODING 50
SWIDTH 540 0
DWIDTH 15 0
BBX 13 20 1 0
BITMAP
0F80
18E0
2030
4010
4008
4008
0008
0008
0018
0010
0020
0040
0080
0300
0600
0C00
1800
3000
6000
FFF8
ENDCHAR
STARTCHAR 0033
ENCODING 51
SWIDTH 540 0
DWIDTH 15 0
BBX 12 20 1 0
BITMAP
7FF0
0030
0060
00C0
0180
0300
0600
0C00
1F80
10C0
0020
0030
0010
0010
0010
0010
C030
4020
30C0
1F80
ENDCHAR
STARTCHAR 0034
ENCODING 52
SWIDTH 576 0
DWIDTH 16 0
BBX 14 20 1 0
BITMAP
0100
0100
0200
0200
0400
0400
0C00
0800
1820
1020
3020
2020
6020
4020
4020
FFFC
0020
0020
0020
0020
ENDCHAR
STARTCHAR 0035
ENCODING 53
SWIDTH 576 0
DWIDTH 16 0
BBX 13 20 1 0
BITMAP
7FF0
6000
6000
4000
4000
4000
4000
4FC0
7860
6010
0018
0008
0008
0008
0008
C008
4018
2030
18E0
0F80
ENDCHAR
STARTCHAR 0036
ENCODING 54
SWIDTH 612 0
DWIDTH 17 0
BBX 13 20 2 0
BITMAP
0F80
38E0
6030
4010
8000
8000
8000
8F80
B8E0
E030
C018
C008
8008
8008
8008
C008
4018
6030
38E0
0F80
ENDCHAR
STARTCHAR 0037
ENCODING 55
SWIDTH 468 0
DWIDTH 13 0
BBX 11 20 1 0
BITMAP
FFE0
0020
0040
0040
00C0
0080
0080
0100
0100
0300
0200
0200
0400
0400
0C00
0800
1800
1000
1000
3000
ENDCHAR
STARTCHAR 0038
ENCODING 56
SWIDTH 576 0
DWIDTH 16 0
BBX 12 20 2 0
BITMAP
1F00
71C0
4060
C020
8020
8020
C020
4060
70C0
1F80
60C0
C020
8030
8030
8010
8030
8020
C060
70C0
1F00
ENDCHAR
STARTCHAR 0039
ENCODING 57
SWIDTH 612 0
DWIDTH 17 0
BBX 13 20 2 0
BITMAP
0F80
38E0
6030
4018
C008
8008
8008
8008
C008
4018
6038
38E8
0F88
0008
0008
0008
4018
6030
38E0
0F80
ENDCHAR
STARTCHAR 003A
ENCODING 58
SWIDTH 288 0
DWIDTH 8 0
BBX 2 11 3 2
BITMAP
C0
C0
00
00
00
00
00
00
00
C0
C0
ENDCHAR
STARTCHAR 003B
ENCODING 59
SWIDTH 288 0
DWIDTH 8 0
BBX 2 18 3 -3
BITMAP
C0
C0
00
00
00
00
00
00
00
00
00
00
00
C0
C0
40
40
80
ENDCHAR
STARTCHAR 003C
ENCODING 60
SWIDTH 612 0
DWIDTH 17 0
BBX 7 13 4 2
BITMAP
02
04
08
10
20
40
80
40
20
10
08
04
02
ENDCHAR
STARTCHAR 003D
ENCODING 61
SWIDTH 756 0
DWIDTH 21 0
BBX 14 6 3 7
BITMAP
FFFC
0000
0000
0000
0000
FFFC
ENDCHAR
STARTCHAR 003E
ENCODING 62
SWIDTH 612 0
DWIDTH 17 0
BBX 7 13 6 2
BITMAP
80
C0
60
30
18
0C
06
0C
18
30
60
C0
80
ENDCHAR
STARTCHAR 003F
ENCODING 63
SWIDTH 504 0
DWIDTH 14 0
BBX 12 20 1 0
BITMAP
1F80
30C0
4060
4020
C030
0030
0020
0020
00C0
0180
0300
0600
0400
0400
0400
0000
0000
0000
0400
0400
ENDCHAR
STARTCHAR 0040
ENCODING 64
SWIDTH 900 0
DWIDTH 25 0
BBX 21 21 2 -3
BITMAP
01FC00
070700
0C00C0
100060
300020
600010
400010
40F418
C18C18
C10418
830418
C30410
C10C10
40FE30
4003C0
600000
300000
180000
0C0100
070700
01FC00
ENDCHAR
STARTCHAR 0041
ENCODING 65
SWIDTH 612 0
DWIDTH 17 0
BBX 15 20 1 0
BITMAP
0100
0380
0280
0280
04C0
0440
0C40
0820
0820
1830
1010
1010
3018
2008
3FF8
600C
4004
C004
8002
8002
ENDCHAR
STARTCHAR 0042
ENCODING 66
SWIDTH 612 0
DWIDTH 17 0
BBX 14 20 2 0
BITMAP
FFC0
8060
8010
8018
8008
8008
8018
8010
8060
FFE0
8030
8018
800C
800C
8004
8004
800C
8018
8030
FFE0
ENDCHAR
STARTCHAR 0043
ENCODING 67
SWIDTH 684 0
DWIDTH 19 0
BBX 17 20 1 0
BITMAP
07F000
1C1C00
300600
200300
400180
400080
C00080
800000
800000
800000
800000
800000
800000
C00080
400080
400180
200300
300600
0C1C00
03F000
ENDCHAR
STARTCHAR 0044
ENCODING 68
SWIDTH 648 0
DWIDTH 18 0
BBX 15 20 2 0
BITMAP
FFC0
8070
8018
8008
8004
8004
8006
8002
8002
8002
8002
8002
8002
8006
8004
8004
8008
8018
8070
FFC0
ENDCHAR
STARTCHAR 0045
ENCODING 69
SWIDTH 576 0
DWIDTH 16 0
BBX 12 20 2 0
BITMAP
FFF0
8000
8000
8000
8000
8000
8000
8000
8000
8000
FFC0
8000
8000
8000
8000
8000
8000
8000
8000
FFF0
ENDCHAR
STARTCHAR 0046
ENCODING 70
SWIDTH 504 0
DWIDTH 14 0
BBX 11 20 2 0
BITMAP
FFE0
8000
8000
8000
8000
8000
8000
8000
8000
8000
FF80
8000
8000
8000
8000
8000
8000
8000
8000
8000
ENDCHAR
STARTCHAR 0047
ENCODING 71
SWIDTH 684 0
DWIDTH 19 0
BBX 17 20 1 0
BITMAP
07F000
1C1C00
300600
200300
400100
400000
C00000
800000
800000
800000
801F80
800080
800080
C00080
400180
400100
200300
300600
0C1C00
03F000
ENDCHAR
STARTCHAR 0048
ENCODING 72
SWIDTH 648 0
DWIDTH 18 0
BBX 14 20 2 0
BITMAP
8004
8004
8004
8004
8004
8004
8004
8004
8004
8004
FFFC
8004
8004
8004
8004
8004
8004
8004
8004
8004
ENDCHAR
STARTCHAR 0049
ENCODING 73
SWIDTH 216 0
DWIDTH 6 0
BBX 1 20 2 0
BITMAP
80
80
80
80
80
80
80
80
80
80
80
80
80
80
80
80
80
80
80
80
ENDCHAR
STARTCHAR 004A
ENCODING 74
SWIDTH 432 0
DWIDTH 12 0
BBX 10 20 0 0
BITMAP
0040
0040
0040
0040
0040
0040
0040
0040
0040
0040
0040
0040
0040
0040
0040
0040
8040
C080
6380
1E00
ENDCHAR
STARTCHAR 004B
ENCODING 75
SWIDTH 576 0
DWIDTH 16 0
BBX 13 20 2 0
BITMAP
8030
8060
80C0
8180
8300
8600
8C00
9800
B000
E000
B000
9800
8C00
8600
8300
8180
80C0
8060
8030
8018
ENDCHAR
STARTCHAR 004C
ENCODING 76
SWIDTH 504 0
DWIDTH 14 0
BBX 11 20 2 0
BITMAP
8000
8000
8000
8000
8000
8000
8000
8000
8000
8000
8000
8000
8000
8000
8000
8000
8000
8000
8000
FFE0
ENDCHAR
STARTCHAR 004D
ENCODING 77
SWIDTH 828 0
DWIDTH 23 0
BBX 19 20 2 0
BITMAP
800020
C00060
C00060
E000E0
A000A0
B001A0
900120
900120
880220
880220
840420
840420
860C20
820820
831820
811020
819020
80A020
80E020
804020
ENDCHAR
STARTCHAR 004E
ENCODING 78
SWIDTH 648 0
DWIDTH 18 0
BBX 14 20 2 0
BITMAP
8004
C004
E004
B004
9004
9804
8C04
8404
8604
8304
8104
8184
80C4
8044
8024
8034
8014
800C
800C
8004
ENDCHAR
STARTCHAR 004F
ENCODING 79
SWIDTH 720 0
DWIDTH 20 0
BBX 18 20 1 0
BITMAP
07F000
1C1C00
300600
200300
400180
400080
C00080
8000C0
8000C0
8000C0
8000C0
8000C0
8000C0
C00080
400080
400180
200300
300600
0C1C00
03F000
ENDCHAR
STARTCHAR 0050
ENCODING 80
SWIDTH 576 0
DWIDTH 16 0
BBX 13 20 2 0
BITMAP
FFC0
8060
8010
8018
8008
8008
8008
8008
8018
8010
8060
FFC0
8000
8000
8000
8000
8000
8000
8000
8000
ENDCHAR
STARTCHAR 0051
ENCODING 81
SWIDTH 720 0
DWIDTH 20 0
BBX 18 20 1 0
BITMAP
07F000
1C1C00
300600
200300
400180
400080
C00080
8000C0
8000C0
8000C0
8000C0
8000C0
8000C0
C00080
400880
400D80
200700
300700
0C1D80
03F080
ENDCHAR
STARTCHAR 0052
ENCODING 82
SWIDTH 612 0
DWIDTH 17 0
BBX 14 20 2 0
BITMAP
FFC0
8060
8010
8018
8008
8008
8008
8008
8018
8010
8070
FFC0
8040
8060
8020
8030
8010
8018
8008
800C
ENDCHAR
STARTCHAR 0053
ENCODING 83
SWIDTH 576 0
DWIDTH 16 0
BBX 15 20 1 0
BITMAP
0FC0
3870
6018
400C
4004
4004
4000
6000
3C00
0780
00F0
0018
0004
0004
0006
8004
C004
600C
3838
0FE0
ENDCHAR
STARTCHAR 0054
ENCODING 84
SWIDTH 576 0
DWIDTH 16 0
BBX 16 20 0 0
BITMAP
FFFF
0080
0080
0080
0080
0080
0080
0080
0080
0080
0080
0080
0080
0080
0080
0080
0080
0080
0080
0080
ENDCHAR
STARTCHAR 0055
ENCODING 85
SWIDTH 684 0
DWIDTH 19 0
BBX 15 20 2 0
BITMAP
8002
8002
8002
8002
8002
8002
8002
8002
8002
8002
8002
8002
8002
8002
8002
C006
4004
200C
1830
07E0
ENDCHAR
STARTCHAR 0056
ENCODING 86
SWIDTH 576 0
DWIDTH 16 0
BBX 16 20 0 0
BITMAP
C003
4002
4002
6006
2004
2004
300C
1008
1008
0810
0810
0C30
0420
0420
0660
0240
0240
03C0
0180
0180
ENDCHAR
STARTCHAR 0057
ENCODING 87
SWIDTH 900 0
DWIDTH 25 0
BBX 24 20 1 0
BITMAP
801003
801802
803802
402806
402C04
406404
604404
20440C
204608
208208
108218
108310
118110
190110
090130
0901A0
0A00A0
0600E0
0600C0
060040
ENDCHAR
STARTCHAR 0058
ENCODING 88
SWIDTH 576 0
DWIDTH 16 0
BBX 14 20 1 0
BITMAP
8004
C008
6018
2010
1020
1860
0840
0480
0780
0300
0300
0580
0C80
0840
1060
3030
2010
4008
C00C
8004
ENDCHAR
STARTCHAR 0059
ENCODING 89
SWIDTH 504 0
DWIDTH 14 0
BBX 14 20 0 0
BITMAP
C004
400C
6008
2010
1030
1820
0860
0C40
04C0
0680
0300
0100
0100
0100
0100
0100
0100
0100
0100
0100
ENDCHAR
STARTCHAR 005A
ENCODING 90
SWIDTH 576 0
DWIDTH 16 0
BBX 14 20 1 0
BITMAP
FFFC
0008
0010
0010
0020
0060
0040
0080
0180
0100
0200
0600
0400
0C00
0800
1000
3000
2000
4000
FFFC
ENDCHAR
STARTCHAR 005B
ENCODING 91
SWIDTH 396 0
DWIDTH 11 0
BBX 4 30 4 -6
BITMAP
F0
80
80
80
80
80
80
80
80
80
80
80
80
80
80
80
80
80
80
80
80
80
80
80
80
80
80
80
80
F0
ENDCHAR
STARTCHAR 005C
ENCODING 92
SWIDTH 360 0
DWIDTH 10 0
BBX 6 20 2 0
BITMAP
80
80
C0
40
40
40
60
20
20
20
30
10
10
18
08
08
08
0C
04
04
ENDCHAR
STARTCHAR 005D
ENCODING 93
SWIDTH 396 0
DWIDTH 11 0
BBX 5 30 2 -6
BITMAP
F8
08
08
08
08
08
08
08
08
08
08
08
08
08
08
08
08
08
08
08
08
08
08
08
08
08
08
08
08
F8
ENDCHAR
STARTCHAR 005E
ENCODING 94
SWIDTH 648 0
DWIDTH 18 0
BBX 12 7 3 13
BITMAP
0200
0700
0980
10C0
2060
4030
8010
ENDCHAR
STARTCHAR 005F
ENCODING 95
SWIDTH 648 0
DWIDTH 18 0
BBX 18 1 0 -3
BITMAP
FFFFC0
ENDCHAR
STARTCHAR 0060
ENCODING 96
SWIDTH 468 0
DWIDTH 13 0
BBX 2 4 5 22
BITMAP
80
C0
40
40
ENDCHAR
STARTCHAR 0061
ENCODING 97
SWIDTH 540 0
DWIDTH 15 0
BBX 12 15 1 0
BITMAP
0F80
3860
6030
4010
0010
0010
03F0
3C10
6010
C010
8010
8030
C070
61D0
1F10
ENDCHAR
STARTCHAR 0062
ENCODING 98
SWIDTH 576 0
DWIDTH 16 0
BBX 13 20 2 0
BITMAP
8000
8000
8000
8000
8000
8F80
B8E0
A020
C010
C010
8018
8008
8008
8008
8018
C010
C010
E020
B8E0
8F80
ENDCHAR
STARTCHAR 0063
ENCODING 99
SWIDTH 540 0
DWIDTH 15 0
BBX 13 15 1 0
BITMAP
0FC0
3860
2010
4008
4000
C000
8000
8000
8000
C000
4000
4008
2010
3860
0FC0
ENDCHAR
STARTCHAR 0064
ENCODING 100
SWIDTH 576 0
DWIDTH 16 0
BBX 13 20 1 0
BITMAP
0008
0008
0008
0008
0008
0F88
38E8
2028
4018
4018
C008
8008
8008
8008
C008
C018
4018
6028
38E8
0F88
ENDCHAR
STARTCHAR 0065
ENCODING 101
SWIDTH 576 0
DWIDTH 16 0
BBX 14 15 1 0
BITMAP
0FC0
3860
2010
4018
4008
C00C
800C
FFFC
8000
C000
C000
4008
6018
3870
0FC0
ENDCHAR
STARTCHAR 0066
ENCODING 102
SWIDTH 324 0
DWIDTH 9 0
BBX 8 20 1 0
BITMAP
0F
18
10
10
10
FF
10
10
10
10
10
10
10
10
10
10
10
10
10
10
ENDCHAR
STARTCHAR 0067
ENCODING 103
SWIDTH 576 0
DWIDTH 16 0
BBX 13 22 1 -7
BITMAP
0F88
38E8
6038
4018
4018
C008
8008
8008
8008
C008
4018
4018
2028
38E8
0F88
0008
0008
0018
4010
6030
38E0
0FC0
ENDCHAR
STARTCHAR 0068
ENCODING 104
SWIDTH 576 0
DWIDTH 16 0
BBX 12 20 2 0
BITMAP
8000
8000
8000
8000
8000
8F80
B0C0
E020
C030
8010
8010
8010
8010
8010
8010
8010
8010
8010
8010
8010
ENDCHAR
STARTCHAR 0069
ENCODING 105
SWIDTH 216 0
DWIDTH 6 0
BBX 1 20 2 0
BITMAP
80
80
00
00
00
80
80
80
80
80
80
80
80
80
80
80
80
80
80
80
ENDCHAR
STARTCHAR 006A
ENCODING 106
SWIDTH 216 0
DWIDTH 6 0
BBX 4 27 0 -7
BITMAP
10
10
00
00
00
10
10
10
10
10
10
10
10
10
10
10
10
10
10
10
10
10
10
10
10
30
E0
ENDCHAR
STARTCHAR 006B
ENCODING 107
SWIDTH 468 0
DWIDTH 13 0
BBX 11 20 2 0
BITMAP
8000
8000
8000
8000
8000
80C0
8180
8300
8600
8C00
9800
B000
E000
B000
9800
8C00
8600
8180
80C0
8060
ENDCHAR
STARTCHAR 006C
ENCODING 108
SWIDTH 216 0
DWIDTH 6 0
BBX 1 20 2 0
BITMAP
80
80
80
80
80
80
80
80
80
80
80
80
80
80
80
80
80
80
80
80
ENDCHAR
STARTCHAR 006D
ENCODING 109
SWIDTH 828 0
DWIDTH 23 0
BBX 19 15 2 0
BITMAP
9E0F00
E1B0C0
C0E040
804060
804020
804020
804020
804020
804020
804020
804020
804020
804020
804020
804020
ENDCHAR
STARTCHAR 006E
ENCODING 110
SWIDTH 576 0
DWIDTH 16 0
BBX 12 15 2 0
BITMAP
8F80
B0C0
E020
C030
8010
8010
8010
8010
8010
8010
8010
8010
8010
8010
8010
ENDCHAR
STARTCHAR 006F
ENCODING 111
SWIDTH 576 0
DWIDTH 16 0
BBX 14 15 1 0
BITMAP
0FC0
3860
2010
4008
4008
C00C
8004
8004
8004
C00C
4008
4008
2010
1860
0FC0
ENDCHAR
STARTCHAR 0070
ENCODING 112
SWIDTH 576 0
DWIDTH 16 0
BBX 13 21 2 -6
BITMAP
8F80
B8E0
E020
C010
C010
8018
8008
8008
8008
8018
C010
C010
A020
B8E0
8F80
8000
8000
8000
8000
8000
8000
ENDCHAR
STARTCHAR 0071
ENCODING 113
SWIDTH 576 0
DWIDTH 16 0
BBX 13 21 1 -6
BITMAP
0F88
38E8
6038
4018
4018
C008
8008
8008
8008
C008
4018
4018
2028
38E8
0F88
0008
0008
0008
0008
0008
0008
ENDCHAR
STARTCHAR 0072
ENCODING 114
SWIDTH 324 0
DWIDTH 9 0
BBX 7 15 2 0
BITMAP
9E
B0
C0
C0
80
80
80
80
80
80
80
80
80
80
80
ENDCHAR
STARTCHAR 0073
ENCODING 115
SWIDTH 504 0
DWIDTH 14 0
BBX 12 15 1 0
BITMAP
1F80
30E0
4030
4010
4000
6000
3C00
0780
0060
0030
0010
8010
4030
7060
1FC0
ENDCHAR
STARTCHAR 0074
ENCODING 116
SWIDTH 396 0
DWIDTH 11 0
BBX 10 19 0 0
BITMAP
0800
0800
0800
0800
FFC0
0800
0800
0800
0800
0800
0800
0800
0800
0800
0800
0800
0800
0C00
03C0
ENDCHAR
STARTCHAR 0075
ENCODING 117
SWIDTH 576 0
DWIDTH 16 0
BBX 12 15 2 0
BITMAP
8010
8010
8010
8010
8010
8010
8010
8010
8010
8010
8030
C030
4070
30D0
1F10
ENDCHAR
STARTCHAR 0076
ENCODING 118
SWIDTH 468 0
DWIDTH 13 0
BBX 12 15 1 0
BITMAP
8030
8020
C020
4040
4040
20C0
2080
3080
1180
1100
1900
0B00
0A00
0E00
0400
ENDCHAR
STARTCHAR 0077
ENCODING 119
SWIDTH 756 0
DWIDTH 21 0
BBX 19 15 1 0
BITMAP
804020
80C060
C0E040
40A040
41A040
413080
211080
231080
221980
320900
120900
140B00
1C0600
0C0600
0C0600
ENDCHAR
STARTCHAR 0078
ENCODING 120
SWIDTH 504 0
DWIDTH 14 0
BBX 12 15 1 0
BITMAP
8010
4030
6060
3040
1080
0900
0600
0600
0F00
0900
1080
3040
6060
C030
8010
ENDCHAR
STARTCHAR 0079
ENCODING 121
SWIDTH 504 0
DWIDTH 14 0
BBX 12 22 1 -7
BITMAP
8010
8010
4020
4020
6060
2040
2040
10C0
1080
1880
0980
0900
0500
0600
0600
0600
0400
0400
0C00
0800
0800
1800
ENDCHAR
STARTCHAR 007A
ENCODING 122
SWIDTH 540 0
DWIDTH 15 0
BBX 13 15 1 0
BITMAP
FFF8
0030
0060
0040
0080
0100
0300
0600
0C00
0800
1000
3000
6000
C000
FFF0
ENDCHAR
STARTCHAR 007B
ENCODING 123
SWIDTH 396 0
DWIDTH 11 0
BBX 6 30 4 -6
BITMAP
3C
20
60
60
60
60
60
60
60
60
60
60
60
40
C0
C0
40
60
60
60
60
60
60
60
60
60
60
60
20
3C
ENDCHAR
STARTCHAR 007C
ENCODING 124
SWIDTH 216 0
DWIDTH 6 0
BBX 2 20 2 0
BITMAP
C0
C0
C0
C0
C0
C0
C0
C0
C0
C0
C0
C0
C0
C0
C0
C0
C0
C0
C0
C0
ENDCHAR
STARTCHAR 007D
ENCODING 125
SWIDTH 396 0
DWIDTH 11 0
BBX 6 30 1 -6
BITMAP
F0
10
18
18
18
18
18
18
18
18
18
18
18
08
04
04
08
18
18
18
18
18
18
18
18
18
18
18
10
F0
ENDCHAR
STARTCHAR 007E
ENCODING 126
SWIDTH 612 0
DWIDTH 17 0
BBX 11 4 3 7
BITMAP
7C20
CE60
C3E0
0080
ENDCHAR
STARTCHAR 00A0
ENCODING 160
SWIDTH 216 0
DWIDTH 6 0
BBX 0 0 0 0
BITMAP
ENDCHAR
STARTCHAR 00A1
ENCODING 161
SWIDTH 288 0
DWIDTH 8 0
BBX 1 20 3 -5
BITMAP
80
80
00
00
00
80
80
80
80
80
80
80
80
80
80
80
80
80
80
80
ENDCHAR
STARTCHAR 00A2
ENCODING 162
SWIDTH 540 0
DWIDTH 15 0
BBX 13 21 1 -1
BITMAP
0300
0300
0300
0FC0
3070
6010
4008
4000
C000
8000
8000
8000
C000
4000
4008
6010
3070
0FC0
0300
0300
0300
ENDCHAR
STARTCHAR 00A3
ENCODING 163
SWIDTH 576 0
DWIDTH 16 0
BBX 14 20 1 0
BITMAP
01E0
0630
0C08
080C
0804
0800
0800
0800
0800
FFE0
0800
0800
0800
0800
0800
0800
0800
0800
1800
FFFC
ENDCHAR
STARTCHAR 00A4
ENCODING 164
SWIDTH 612 0
DWIDTH 17 0
BBX 15 16 1 2
BITMAP
0002
C7E6
783C
3008
6004
4004
C002
C002
C002
C002
4004
6004
3008
783C
C7E6
8002
ENDCHAR
STARTCHAR 00A5
ENCODING 165
SWIDTH 504 0
DWIDTH 14 0
BBX 14 20 0 0
BITMAP
C004
400C
6008
2010
1010
1820
0860
0C40
04C0
0680
0300
0100
3FF0
0100
0100
0100
3FF0
0100
0100
0100
ENDCHAR
STARTCHAR 00A6
ENCODING 166
SWIDTH 216 0
DWIDTH 6 0
BBX 2 23 2 -3
BITMAP
C0
C0
C0
C0
C0
C0
C0
C0
C0
C0
00
00
00
00
C0
C0
C0
C0
C0
C0
C0
C0
C0
ENDCHAR
STARTCHAR 00A7
ENCODING 167
SWIDTH 504 0
DWIDTH 14 0
BBX 12 22 1 -4
BITMAP
1F80
30C0
4020
4020
4000
6000
3C00
3F80
6060
C010
8010
C010
6010
3C30
07C0
0060
0030
0010
4010
6030
3060
1FC0
ENDCHAR
STARTCHAR 00A8
ENCODING 168
SWIDTH 468 0
DWIDTH 13 0
BBX 7 2 3 23
BITMAP
C6
C6
ENDCHAR
STARTCHAR 00A9
ENCODING 169
SWIDTH 756 0
DWIDTH 21 0
BBX 19 19 1 0
BITMAP
03F000
0E1C00
180300
300180
61F080
431840
C40C40
840060
8C0020
8C0020
8C0020
840060
C40440
421840
61F080
300180
180300
0E1E00
03F000
ENDCHAR
STARTCHAR 00AA
ENCODING 170
SWIDTH 324 0
DWIDTH 9 0
BBX 7 8 1 7
BITMAP
78
44
06
7E
C6
86
FE
30
ENDCHAR
STARTCHAR 00AB
ENCODING 171
SWIDTH 504 0
DWIDTH 14 0
BBX 9 12 3 2
BITMAP
0080
1100
2300
6600
C400
8800
8800
C400
6600
2300
1100
0880
ENDCHAR
STARTCHAR 00AC
ENCODING 172
SWIDTH 612 0
DWIDTH 17 0
BBX 13 5 2 5
BITMAP
FFF8
0008
0008
0008
0008
ENDCHAR
STARTCHAR 00AD
ENCODING 173
SWIDTH 432 0
DWIDTH 12 0
BBX 8 1 2 8
BITMAP
FF
ENDCHAR
STARTCHAR 00AE
ENCODING 174
SWIDTH 612 0
DWIDTH 17 0
BBX 13 13 2 8
BITMAP
0F80
3060
6030
4F10
8898
8888
8F08
8908
C990
4010
6020
38C0
0F80
ENDCHAR
STARTCHAR 00AF
ENCODING 175
SWIDTH 468 0
DWIDTH 13 0
BBX 7 1 3 23
BITMAP
FE
ENDCHAR
STARTCHAR 00B0
ENCODING 176
SWIDTH 468 0
DWIDTH 13 0
BBX 10 10 1 10
BITMAP
1E00
6300
C080
80C0
8040
8040
80C0
C080
6300
1E00
ENDCHAR
STARTCHAR 00B1
ENCODING 177
SWIDTH 612 0
DWIDTH 17 0
BBX 13 12 2 3
BITMAP
0200
0200
0200
0200
FFF8
0200
0200
0200
0200
0000
0000
FFF8
ENDCHAR
STARTCHAR 00B2
ENCODING 178
SWIDTH 396 0
DWIDTH 11 0
BBX 8 13 1 7
BITMAP
3C
63
41
C1
01
01
03
06
0C
18
30
60
FF
ENDCHAR
STARTCHAR 00B3
ENCODING 179
SWIDTH 396 0
DWIDTH 11 0
BBX 8 13 1 7
BITMAP
7F
02
04
08
10
3C
02
03
01
01
83
46
3C
ENDCHAR
STARTCHAR 00B4
ENCODING 180
SWIDTH 468 0
DWIDTH 13 0
BBX 3 4 5 22
BITMAP
60
40
40
C0
ENDCHAR
STARTCHAR 00B5
ENCODING 181
SWIDTH 576 0
DWIDTH 16 0
BBX 12 21 2 -6
BITMAP
8010
8010
8010
8010
8010
8010
8010
8010
8010
8010
8010
C030
E030
B0D0
9F90
8000
8000
8000
8000
8000
8000
ENDCHAR
STARTCHAR 00B6
ENCODING 182
SWIDTH 576 0
DWIDTH 16 0
BBX 12 24 2 -4
BITMAP
0FB0
3FB0
7FB0
7FB0
7FB0
FFB0
FFB0
7FB0
7FB0
7FB0
3FB0
0FB0
00B0
00B0
00B0
00B0
00B0
00B0
00B0
00B0
00B0
00B0
00B0
00B0
ENDCHAR
STARTCHAR 00B7
ENCODING 183
SWIDTH 216 0
DWIDTH 6 0
BBX 2 2 2 8
BITMAP
C0
C0
ENDCHAR
STARTCHAR 00B8
ENCODING 184
SWIDTH 396 0
DWIDTH 11 0
BBX 4 7 3 -7
BITMAP
20
20
20
30
10
10
E0
ENDCHAR
STARTCHAR 00B9
ENCODING 185
SWIDTH 324 0
DWIDTH 9 0
BBX 3 13 2 7
BITMAP
60
E0
20
20
20
20
20
20
20
20
20
20
20
ENDCHAR
STARTCHAR 00BA
ENCODING 186
SWIDTH 324 0
DWIDTH 9 0
BBX 7 8 1 7
BITMAP
3C
66
C2
82
82
C2
66
3C
ENDCHAR
STARTCHAR 00BB
ENCODING 187
SWIDTH 504 0
DWIDTH 14 0
BBX 9 12 2 2
BITMAP
8800
4400
6600
3300
1180
0880
0880
1180
3300
6200
4400
8800
ENDCHAR
STARTCHAR 00BC
ENCODING 188
SWIDTH 936 0
DWIDTH 26 0
BBX 21 20 2 0
BITMAP
600080
E00180
200300
200600
200400
200800
201800
2030C0
206080
204180
208100
218300
030220
060620
040420
0C0C20
180FF8
300020
600020
400020
ENDCHAR
STARTCHAR 00BD
ENCODING 189
SWIDTH 864 0
DWIDTH 24 0
BBX 21 20 2 0
BITMAP
600080
E00180
200300
200600
200400
200800
201800
2031E0
206330
204618
208408
218008
030008
060010
040020
0C0040
180080
300100
600600
4007F8
ENDCHAR
STARTCHAR 00BE
ENCODING 190
SWIDTH 936 0
DWIDTH 26 0
BBX 24 20 1 0
BITMAP
7F0010
020030
040060
0800C0
100080
3C0100
020300
030600
010C10
010810
831820
463020
3C6060
004044
0080C4
018084
030184
0601FF
040004
080004
ENDCHAR
STARTCHAR 00BF
ENCODING 191
SWIDTH 504 0
DWIDTH 14 0
BBX 12 20 1 -5
BITMAP
0200
0200
0000
0000
0000
0200
0200
0200
0600
0C00
1800
3000
6000
4000
C000
C030
4020
4020
30C0
1F80
ENDCHAR
STARTCHAR 00C0
ENCODING 192
SWIDTH 612 0
DWIDTH 17 0
BBX 15 26 1 0
BITMAP
0200
0200
0300
0100
0000
0000
0100
0380
0280
0280
04C0
0440
0C40
0820
0820
1830
1010
1010
3018
2008
3FF8
600C
4004
C004
8002
8002
ENDCHAR
STARTCHAR 00C1
ENCODING 193
SWIDTH 612 0
DWIDTH 17 0
BBX 15 26 1 0
BITMAP
0080
0080
0180
0100
0000
0000
0100
0380
0280
0280
04C0
0440
0C40
0820
0820
1830
1010
1010
3018
2008
3FF8
600C
4004
C004
8002
8002
ENDCHAR
STARTCHAR 00C2
ENCODING 194
SWIDTH 612 0
DWIDTH 17 0
BBX 15 26 1 0
BITMAP
0300
0280
0440
0000
0000
0000
0100
0380
0280
0280
04C0
0440
0C40
0820
0820
1830
1010
1010
3018
2008
3FF8
600C
4004
C004
8002
8002
ENDCHAR
STARTCHAR 00C3
ENCODING 195
SWIDTH 612 0
DWIDTH 17 0
BBX 15 26 1 0
BITMAP
0E20
0B20
08E0
0000
0000
0000
0100
0380
0280
0280
04C0
0440
0C40
0820
0820
1830
1010
1010
3018
2008
3FF8
600C
4004
C004
8002
8002
ENDCHAR
STARTCHAR 00C4
ENCODING 196
SWIDTH 612 0
DWIDTH 17 0
BBX 15 25 1 0
BITMAP
0C60
0C60
0000
0000
0000
0100
0380
0280
0280
04C0
0440
0C40
0820
0820
1830
1010
1010
3018
2008
3FF8
600C
4004
C004
8002
8002
ENDCHAR
STARTCHAR 00C5
ENCODING 197
SWIDTH 612 0
DWIDTH 17 0
BBX 15 27 1 0
BITMAP
0380
06C0
0440
0440
0380
0000
0000
0100
0380
0280
0280
04C0
0440
0C40
0820
0820
1830
1010
1010
3018
2008
3FF8
600C
4004
C004
8002
8002
ENDCHAR
STARTCHAR 00C6
ENCODING 198
SWIDTH 900 0
DWIDTH 25 0
BBX 23 20 1 0
BITMAP
01FFFE
021000
021000
021000
041000
041000
0C1000
081000
081000
181000
101FF8
101000
301000
201000
3FF000
401000
401000
C01000
801000
801FFE
ENDCHAR
STARTCHAR 00C7
ENCODING 199
SWIDTH 684 0
DWIDTH 19 0
BBX 17 26 1 -6
BITMAP
07F000
1C1C00
300600
200300
400180
400080
C00080
800000
800000
800000
800000
800000
800000
C00080
400080
400180
200300
300600
0C1C00
03F000
004000
008000
006000
002000
002000
01C000
ENDCHAR
STARTCHAR 00C8
ENCODING 200
SWIDTH 576 0
DWIDTH 16 0
BBX 12 26 2 0
BITMAP
0400
0400
0600
0200
0000
0000
FFF0
8000
8000
8000
8000
8000
8000
8000
8000
8000
FFC0
8000
8000
8000
8000
8000
8000
8000
8000
FFF0
ENDCHAR
STARTCHAR 00C9
ENCODING 201
SWIDTH 576 0
DWIDTH 16 0
BBX 12 26 2 0
BITMAP
0100
0300
0200
0200
0000
0000
FFF0
8000
8000
8000
8000
8000
8000
8000
8000
8000
FFC0
8000
8000
8000
8000
8000
8000
8000
8000
FFF0
ENDCHAR
STARTCHAR 00CA
ENCODING 202
SWIDTH 576 0
DWIDTH 16 0
BBX 12 26 2 0
BITMAP
0600
0F00
1980
0000
0000
0000
FFF0
8000
8000
8000
8000
8000
8000
8000
8000
8000
FFC0
8000
8000
8000
8000
8000
8000
8000
8000
FFF0
ENDCHAR
STARTCHAR 00CB
ENCODING 203
SWIDTH 576 0
DWIDTH 16 0
BBX 12 25 2 0
BITMAP
3180
3180
0000
0000
0000
FFF0
8000
8000
8000
8000
8000
8000
8000
8000
8000
FFC0
8000
8000
8000
8000
8000
8000
8000
8000
FFF0
ENDCHAR
STARTCHAR 00CC
ENCODING 204
SWIDTH 216 0
DWIDTH 6 0
BBX 2 26 1 0
BITMAP
80
C0
40
40
00
00
40
40
40
40
40
40
40
40
40
40
40
40
40
40
40
40
40
40
40
40
ENDCHAR
STARTCHAR 00CD
ENCODING 205
SWIDTH 216 0
DWIDTH 6 0
BBX 3 26 2 0
BITMAP
60
40
40
80
00
00
80
80
80
80
80
80
80
80
80
80
80
80
80
80
80
80
80
80
80
80
ENDCHAR
STARTCHAR 00CE
ENCODING 206
SWIDTH 216 0
DWIDTH 6 0
BBX 6 26 0 0
BITMAP
30
58
C8
04
00
00
20
20
20
20
20
20
20
20
20
20
20
20
20
20
20
20
20
20
20
20
ENDCHAR
STARTCHAR 00CF
ENCODING 207
SWIDTH 216 0
DWIDTH 6 0
BBX 7 25 -1 0
BITMAP
C6
C6
00
00
00
10
10
10
10
10
10
10
10
10
10
10
10
10
10
10
10
10
10
10
10
ENDCHAR
STARTCHAR 00D0
ENCODING 208
SWIDTH 648 0
DWIDTH 18 0
BBX 17 20 0 0
BITMAP
3FF000
201800
200400
200200
200300
200100
200100
200100
200180
200180
FF8180
200180
200180
200100
200100
200300
200200
200600
201C00
3FF000
ENDCHAR
STARTCHAR 00D1
ENCODING 209
SWIDTH 648 0
DWIDTH 18 0
BBX 14 25 2 0
BITMAP
0E20
09A0
08E0
0000
0000
8004
C004
E004
B004
9004
9804
8C04
8404
8604
8304
8104
8184
80C4
8044
8024
8034
8014
800C
800C
8004
ENDCHAR
STARTCHAR 00D2
ENCODING 210
SWIDTH 720 0
DWIDTH 20 0
BBX 18 26 1 0
BITMAP
010000
018000
008000
008000
000000
000000
07F000
1C1C00
300600
200300
400180
400080
C00080
8000C0
8000C0
8000C0
8000C0
8000C0
8000C0
C00080
400080
400180
200300
300600
0C1C00
03F000
ENDCHAR
STARTCHAR 00D3
ENCODING 211
SWIDTH 720 0
DWIDTH 20 0
BBX 18 26 1 0
BITMAP
002000
006000
004000
004000
000000
000000
07F000
1C1C00
300600
200300
400180
400080
C00080
8000C0
8000C0
8000C0
8000C0
8000C0
8000C0
C00080
400080
400180
200300
300600
0C1C00
03F000
ENDCHAR
STARTCHAR 00D4
ENCODING 212
SWIDTH 720 0
DWIDTH 20 0
BBX 18 25 1 0
BITMAP
00C000
016000
023000
000000
000000
07F000
1C1C00
300600
200300
400180
400080
C00080
8000C0
8000C0
8000C0
8000C0
8000C0
8000C0
C00080
400080
400180
200300
300600
0C1C00
03F000
ENDCHAR
STARTCHAR 00D5
ENCODING 213
SWIDTH 720 0
DWIDTH 20 0
BBX 18 25 1 0
BITMAP
030800
04C800
047000
000000
000000
07F000
1C1C00
300600
200300
400180
400080
C00080
8000C0
8000C0
8000C0
8000C0
8000C0
8000C0
C00080
400080
400180
200300
300600
0C1C00
03F000
ENDCHAR
STARTCHAR 00D6
ENCODING 214
SWIDTH 720 0
DWIDTH 20 0
BBX 18 25 1 0
BITMAP
063000
063000
000000
000000
000000
07F000
1C1C00
300600
200300
400180
400080
C00080
8000C0
8000C0
8000C0
8000C0
8000C0
8000C0
C00080
400080
400180
200300
300600
0C1C00
03F000
ENDCHAR
STARTCHAR 00D7
ENCODING 215
SWIDTH 468 0
DWIDTH 13 0
BBX 9 10 2 5
BITMAP
8080
C180
6300
3600
1C00
1C00
3600
6300
C180
8080
ENDCHAR
STARTCHAR 00D8
ENCODING 216
SWIDTH 720 0
DWIDTH 20 0
BBX 19 20 0 0
BITMAP
03F820
0E0E60
1803C0
100180
2003C0
200640
600440
400860
401060
402060
404060
408060
410060
420040
640040
2800C0
300180
380300
4E0E00
81F800
ENDCHAR
STARTCHAR 00D9
ENCODING 217
SWIDTH 684 0
DWIDTH 19 0
BBX 15 26 2 0
BITMAP
0200
0300
0100
0100
0000
0000
8002
8002
8002
8002
8002
8002
8002
8002
8002
8002
8002
8002
8002
8002
8002
C006
4004
200C
1830
07E0
ENDCHAR
STARTCHAR 00DA
ENCODING 218
SWIDTH 684 0
DWIDTH 19 0
BBX 15 26 2 0
BITMAP
0080
0180
0100
0100
0000
0000
8002
8002
8002
8002
8002
8002
8002
8002
8002
8002
8002
8002
8002
8002
8002
C006
4004
200C
1830
07E0
ENDCHAR
STARTCHAR 00DB
ENCODING 219
SWIDTH 684 0
DWIDTH 19 0
BBX 15 26 2 0
BITMAP
0180
0280
0440
0000
0000
0000
8002
8002
8002
8002
8002
8002
8002
8002
8002
8002
8002
8002
8002
8002
8002
C006
4004
200C
1830
07E0
ENDCHAR
STARTCHAR 00DC
ENCODING 220
SWIDTH 684 0
DWIDTH 19 0
BBX 15 25 2 0
BITMAP
0C60
0C60
0000
0000
0000
8002
8002
8002
8002
8002
8002
8002
8002
8002
8002
8002
8002
8002
8002
8002
C006
4004
200C
1830
07E0
ENDCHAR
STARTCHAR 00DD
ENCODING 221
SWIDTH 504 0
DWIDTH 14 0
BBX 14 26 0 0
BITMAP
0100
0100
0100
0200
0000
0000
C004
400C
6008
2010
1030
1820
0860
0C40
04C0
0680
0300
0100
0100
0100
0100
0100
0100
0100
0100
0100
ENDCHAR
STARTCHAR 00DE
ENCODING 222
SWIDTH 576 0
DWIDTH 16 0
BBX 13 20 2 0
BITMAP
8000
8000
8000
8000
FF80
8060
8030
8010
8018
8008
8008
8008
8010
8030
80E0
FF80
8000
8000
8000
8000
ENDCHAR
STARTCHAR 00DF
ENCODING 223
SWIDTH 576 0
DWIDTH 16 0
BBX 12 20 2 0
BITMAP
1F00
7180
40C0
8040
8040
8040
8040
80C0
8180
8780
80C0
8020
8030
8010
8010
8010
8010
8020
80E0
8F80
ENDCHAR
STARTCHAR 00E0
ENCODING 224
SWIDTH 540 0
DWIDTH 15 0
BBX 12 21 1 0
BITMAP
0400
0600
0200
0200
0000
0000
0F80
3860
6030
4010
0010
0010
03F0
3C10
6010
C010
8010
8030
C070
61D0
1F10
ENDCHAR
STARTCHAR 00E1
ENCODING 225
SWIDTH 540 0
DWIDTH 15 0
BBX 12 21 1 0
BITMAP
0100
0100
0100
0200
0000
0000
0F80
3860
6030
4010
0010
0010
03F0
3C10
6010
C010
8010
8030
C070
61D0
1F10
ENDCHAR
STARTCHAR 00E2
ENCODING 226
SWIDTH 540 0
DWIDTH 15 0
BBX 12 20 1 0
BITMAP
0700
0580
08C0
0000
0000
0F80
3860
6030
4010
0010
0010
03F0
3C10
6010
C010
8010
8030
C070
61D0
1F10
ENDCHAR
STARTCHAR 00E3
ENCODING 227
SWIDTH 540 0
DWIDTH 15 0
BBX 12 20 1 0
BITMAP
0C20
1360
11C0
0000
0000
0F80
3860
6030
4010
0010
0010
03F0
3C10
6010
C010
8010
8030
C070
61D0
1F10
ENDCHAR
STARTCHAR 00E4
ENCODING 228
SWIDTH 540 0
DWIDTH 15 0
BBX 12 20 1 0
BITMAP
0840
0840
0000
0000
0000
0F80
3860
6030
4010
0010
0010
03F0
3C10
6010
C010
8010
8030
C070
61D0
1F10
ENDCHAR
STARTCHAR 00E5
ENCODING 229
SWIDTH 540 0
DWIDTH 15 0
BBX 12 22 1 0
BITMAP
0700
0C80
0880
0880
0C80
0700
0000
0F80
3860
6030
4010
0010
0010
03F0
3C10
6010
C010
8010
8030
C070
61D0
1F10
ENDCHAR
STARTCHAR 00E6
ENCODING 230
SWIDTH 936 0
DWIDTH 26 0
BBX 24 15 1 0
BITMAP
0F81F0
38670C
603406
401802
001803
001801
001001
3FFFFF
601000
C01800
801800
803803
C06402
61C70C
1F01F0
ENDCHAR
STARTCHAR 00E7
ENCODING 231
SWIDTH 540 0
DWIDTH 15 0
BBX 13 21 1 -6
BITMAP
0FC0
3860
2010
4008
4000
C000
8000
8000
8000
C000
4000
4008
2010
3860
0FC0
0200
0200
0300
0180
0100
0700
ENDCHAR
STARTCHAR 00E8
ENCODING 232
SWIDTH 576 0
DWIDTH 16 0
BBX 14 21 1 0
BITMAP
0600
0200
0200
0300
0000
0000
0FC0
3860
2010
4018
4008
C00C
800C
FFFC
8000
C000
C000
4008
6018
3870
0FC0
ENDCHAR
STARTCHAR 00E9
ENCODING 233
SWIDTH 576 0
DWIDTH 16 0
BBX 14 21 1 0
BITMAP
0080
0180
0100
0100
0000
0000
0FC0
3860
2010
4018
4008
C00C
800C
FFFC
8000
C000
C000
4008
6018
3870
0FC0
ENDCHAR
STARTCHAR 00EA
ENCODING 234
SWIDTH 576 0
DWIDTH 16 0
BBX 14 20 1 0
BITMAP
0300
0580
0CC0
0000
0000
0FC0
3860
2010
4018
4008
C00C
800C
FFFC
8000
C000
C000
4008
6018
3870
0FC0
ENDCHAR
STARTCHAR 00EB
ENCODING 235
SWIDTH 576 0
DWIDTH 16 0
BBX 14 20 1 0
BITMAP
0840
0840
0000
0000
0000
0FC0
3860
2010
4018
4008
C00C
800C
FFFC
8000
C000
C000
4008
6018
3870
0FC0
ENDCHAR
STARTCHAR 00EC
ENCODING 236
SWIDTH 216 0
DWIDTH 6 0
BBX 2 21 1 0
BITMAP
80
C0
40
40
00
00
40
40
40
40
40
40
40
40
40
40
40
40
40
40
40
ENDCHAR
STARTCHAR 00ED
ENCODING 237
SWIDTH 216 0
DWIDTH 6 0
BBX 3 21 2 0
BITMAP
60
40
40
80
00
00
80
80
80
80
80
80
80
80
80
80
80
80
80
80
80
ENDCHAR
STARTCHAR 00EE
ENCODING 238
SWIDTH 216 0
DWIDTH 6 0
BBX 6 21 0 0
BITMAP
30
58
C8
04
00
00
20
20
20
20
20
20
20
20
20
20
20
20
20
20
20
ENDCHAR
STARTCHAR 00EF
ENCODING 239
SWIDTH 216 0
DWIDTH 6 0
BBX 7 20 -1 0
BITMAP
C6
C6
00
00
00
10
10
10
10
10
10
10
10
10
10
10
10
10
10
10
ENDCHAR
STARTCHAR 00F0
ENCODING 240
SWIDTH 576 0
DWIDTH 16 0
BBX 14 21 1 0
BITMAP
0020
0740
01C0
01E0
0130
0018
0008
0FC8
307C
601C
400C
C00C
800C
8004
8004
800C
C008
4008
6010
3870
0FC0
ENDCHAR
STARTCHAR 00F1
ENCODING 241
SWIDTH 576 0
DWIDTH 16 0
BBX 12 20 2 0
BITMAP
1840
26C0
2380
0000
0000
8F80
B0C0
E020
C030
8010
8010
8010
8010
8010
8010
8010
8010
8010
8010
8010
ENDCHAR
STARTCHAR 00F2
ENCODING 242
SWIDTH 576 0
DWIDTH 16 0
BBX 14 21 1 0
BITMAP
0400
0600
0200
0200
0000
0000
0FC0
3860
2010
4008
4008
C00C
8004
8004
8004
C00C
4008
4008
2010
1860
0FC0
ENDCHAR
STARTCHAR 00F3
ENCODING 243
SWIDTH 576 0
DWIDTH 16 0
BBX 14 21 1 0
BITMAP
0080
0100
0100
0300
0000
0000
0FC0
3860
2010
4008
4008
C00C
8004
8004
8004
C00C
4008
4008
2010
1860
0FC0
ENDCHAR
STARTCHAR 00F4
ENCODING 244
SWIDTH 576 0
DWIDTH 16 0
BBX 14 20 1 0
BITMAP
0300
0580
0CC0
0000
0000
0FC0
3860
2010
4008
4008
C00C
8004
8004
8004
C00C
4008
4008
2010
1860
0FC0
ENDCHAR
STARTCHAR 00F5
ENCODING 245
SWIDTH 576 0
DWIDTH 16 0
BBX 14 20 1 0
BITMAP
0C20
1320
11C0
0000
0000
0FC0
3860
2010
4008
4008
C00C
8004
8004
8004
C00C
4008
4008
2010
1860
0FC0
ENDCHAR
STARTCHAR 00F6
ENCODING 246
SWIDTH 576 0
DWIDTH 16 0
BBX 14 20 1 0
BITMAP
0840
0840
0000
0000
0000
0FC0
3860
2010
4008
4008
C00C
8004
8004
8004
C00C
4008
4008
2010
1860
0FC0
ENDCHAR
STARTCHAR 00F7
ENCODING 247
SWIDTH 540 0
DWIDTH 15 0
BBX 11 8 2 6
BITMAP
0400
0400
0000
0000
FFE0
0000
0400
0400
ENDCHAR
STARTCHAR 00F8
ENCODING 248
SWIDTH 576 0
DWIDTH 16 0
BBX 14 15 1 0
BITMAP
0FC4
387C
2018
4038
4068
C0CC
8184
8304
8604
CC0C
D808
7008
6010
F860
8FC0
ENDCHAR
STARTCHAR 00F9
ENCODING 249
SWIDTH 576 0
DWIDTH 16 0
BBX 12 21 2 0
BITMAP
0C00
0400
0400
0600
0000
0000
8010
8010
8010
8010
8010
8010
8010
8010
8010
8010
8030
C030
4070
30D0
1F10
ENDCHAR
STARTCHAR 00FA
ENCODING 250
SWIDTH 576 0
DWIDTH 16 0
BBX 12 21 2 0
BITMAP
0200
0200
0200
0400
0000
0000
8010
8010
8010
8010
8010
8010
8010
8010
8010
8010
8030
C030
4070
30D0
1F10
ENDCHAR
STARTCHAR 00FB
ENCODING 251
SWIDTH 576 0
DWIDTH 16 0
BBX 12 21 2 0
BITMAP
0600
0B00
1900
0080
0000
0000
8010
8010
8010
8010
8010
8010
8010
8010
8010
8010
8030
C030
4070
30D0
1F10
ENDCHAR
STARTCHAR 00FC
ENCODING 252
SWIDTH 576 0
DWIDTH 16 0
BBX 12 20 2 0
BITMAP
3180
3180
0000
0000
0000
8010
8010
8010
8010
8010
8010
8010
8010
8010
8010
8030
C030
4070
30D0
1F10
ENDCHAR
STARTCHAR 00FD
ENCODING 253
SWIDTH 504 0
DWIDTH 14 0
BBX 12 28 1 -7
BITMAP
0300
0200
0200
0600
0000
0000
8010
8010
4020
4020
6060
2040
2040
10C0
1080
1880
0980
0900
0500
0600
0600
0600
0400
0400
0C00
0800
0800
1800
ENDCHAR
STARTCHAR 00FE
ENCODING 254
SWIDTH 576 0
DWIDTH 16 0
BBX 13 26 2 -6
BITMAP
8000
8000
8000
8000
8000
8F80
B8E0
A020
C010
C010
8018
8008
8008
8008
8018
C010
C010
A020
B8E0
8F80
8000
8000
8000
8000
8000
8000
ENDCHAR
STARTCHAR 00FF
ENCODING 255
SWIDTH 504 0
DWIDTH 14 0
BBX 12 27 1 -7
BITMAP
1080
1080
0000
0000
0000
8010
8010
4020
4020
6060
2040
2040
10C0
1080
1880
0980
0900
0500
0600
0600
0600
0400
0400
0C00
0800
0800
1800
ENDCHAR
ENDFONT
