STARTFONT 2.1
COMMENT
COMMENT Converted from OpenType font "manrope-bold.otf" by "otf2bdf 3.0".
COMMENT
FONT -FreeType-Manrope-Bold-R-Normal--33-240-100-100-P-162-ISO10646-1
SIZE 24 100 100
FONTBOUNDINGBOX 33 42 -1 -8
STARTPROPERTIES 19
FOUNDRY "FreeType"
FAMILY_NAME "Manrope"
WEIGHT_NAME "Bold"
SLANT "R"
SETWIDTH_NAME "Normal"
ADD_STYLE_NAME ""
PIXEL_SIZE 33
POINT_SIZE 240
RESOLUTION_X 100
RESOLUTION_Y 100
SPACING "P"
AVERAGE_WIDTH 162
CHARSET_REGISTRY "ISO10646"
CHARSET_ENCODING "1"
FONT_ASCENT 35
FONT_DESCENT 9
COPYRIGHT "Copyright 2019-2021 The Manrope Project Authors (https://github.com/sharanda/manrope)"
_OTF_FONTFILE "manrope-bold.otf"
_OTF_PSNAME "Manrope-Bold"
ENDPROPERTIES
CHARS 191
STARTCHAR 0020
ENCODING 32
SWIDTH 210 0
DWIDTH 7 0
BBX 0 0 0 0
BITMAP
ENDCHAR
STARTCHAR 0021
ENCODING 33
SWIDTH 360 0
DWIDTH 12 0
BBX 4 24 4 0
BITMAP
F0
F0
F0
F0
F0
F0
F0
F0
F0
F0
F0
F0
F0
F0
F0
F0
F0
F0
00
00
F0
F0
F0
F0
ENDCHAR
STARTCHAR 0022
ENCODING 34
SWIDTH 480 0
DWIDTH 16 0
BBX 10 6 2 18
BITMAP
F3C0
F3C0
F3C0
F3C0
F3C0
F3C0
ENDCHAR
STARTCHAR 0023
ENCODING 35
SWIDTH 930 0
DWIDTH 31 0
BBX 27 24 2 0
BITMAP
001C1C00
003C3C00
003C3C00
003C3C00
00787800
00787800
1FFFFFE0
1FFFFFE0
3FFFFFC0
3FFFFFC0
00F0F000
00F0F000
01E1E000
01E1E000
7FFFFF80
7FFFFF80
FFFFFF00
FFFFFF00
03C3C000
03838000
07878000
07878000
07878000
0F0F0000
ENDCHAR
STARTCHAR 0024
ENCODING 36
SWIDTH 630 0
DWIDTH 21 0
BBX 19 30 1 -3
BITMAP
00F000
00F000
00F000
03F800
0FFE00
1FFF00
3FBF80
7C07C0
7803C0
7803C0
780000
7E0000
3F8000
1FF800
0FFE00
03FF80
007FC0
000FC0
0003E0
3001E0
F801E0
7803C0
7C07C0
3FFFC0
1FFF80
0FFF00
03FC00
00F000
00F000
00F000
ENDCHAR
STARTCHAR 0025
ENCODING 37
SWIDTH 900 0
DWIDTH 30 0
BBX 26 24 2 0
BITMAP
0F000200
3FC00700
7FE00F80
FFE01F00
F0F03E00
E0707C00
F0F0F800
F0F1F000
7FE3E000
7FC7C000
1F8F8000
001F0000
003E0000
00FC7E00
01F8FF00
03F1FF80
07E3C3C0
0FC3C3C0
1F8381C0
3F03C3C0
7E03FFC0
3C01FF80
3800FF00
10003C00
ENDCHAR
STARTCHAR 0026
ENCODING 38
SWIDTH 660 0
DWIDTH 22 0
BBX 20 24 2 0
BITMAP
07F000
1FF800
3FFC00
3FFE00
7C1F00
780800
780000
780000
7C0000
3E0000
3F0000
3F8000
7FC380
FFE380
F1F380
F0FB80
F07F80
F03F80
F01F80
F81FC0
7FFFE0
7FFFF0
1FFCE0
07F040
ENDCHAR
STARTCHAR 0027
ENCODING 39
SWIDTH 270 0
DWIDTH 9 0
BBX 4 6 2 18
BITMAP
F0
F0
F0
F0
F0
F0
ENDCHAR
STARTCHAR 0028
ENCODING 40
SWIDTH 450 0
DWIDTH 15 0
BBX 9 34 5 -7
BITMAP
0400
0700
0F00
1F00
1E00
3C00
3C00
7800
7800
7800
F000
F000
F000
F000
E000
E000
E000
E000
E000
E000
E000
F000
F000
F000
7000
7800
7800
7800
3C00
3E00
1E00
1F00
0F80
0600
ENDCHAR
STARTCHAR 0029
ENCODING 41
SWIDTH 450 0
DWIDTH 15 0
BBX 9 35 1 -7
BITMAP
1000
7000
7800
7C00
3C00
1E00
1E00
0F00
0F00
0700
0780
0780
0780
0780
0380
0380
0380
0380
0380
0380
0380
0780
0780
0780
0780
0F00
0F00
0F00
1E00
3E00
3C00
7C00
F800
3000
1000
ENDCHAR
STARTCHAR 002A
ENCODING 42
SWIDTH 450 0
DWIDTH 15 0
BBX 12 12 1 12
BITMAP
0F00
0700
0700
6770
FFF0
FFF0
3FE0
1F80
1FC0
3DE0
39C0
1880
ENDCHAR
STARTCHAR 002B
ENCODING 43
SWIDTH 570 0
DWIDTH 19 0
BBX 15 15 2 5
BITMAP
0380
0380
0380
0380
0380
0380
FFFE
FFFE
FFFE
0380
0380
0380
0380
0380
0380
ENDCHAR
STARTCHAR 002C
ENCODING 44
SWIDTH 300 0
DWIDTH 10 0
BBX 4 8 2 -5
BITMAP
F0
F0
F0
F0
30
30
70
E0
ENDCHAR
STARTCHAR 002D
ENCODING 45
SWIDTH 420 0
DWIDTH 14 0
BBX 10 3 2 9
BITMAP
FFC0
FFC0
FFC0
ENDCHAR
STARTCHAR 002E
ENCODING 46
SWIDTH 300 0
DWIDTH 10 0
BBX 4 4 3 0
BITMAP
F0
F0
F0
F0
ENDCHAR
STARTCHAR 002F
ENCODING 47
SWIDTH 420 0
DWIDTH 14 0
BBX 10 24 2 0
BITMAP
03C0
03C0
03C0
0780
0780
0780
0780
0F00
0F00
0F00
0F00
1E00
1E00
1E00
1E00
3C00
3C00
3C00
7C00
7800
7800
7800
F000
F000
ENDCHAR
STARTCHAR 0030
ENCODING 48
SWIDTH 660 0
DWIDTH 22 0
BBX 18 24 2 0
BITMAP
03F000
0FFC00
1FFE00
3FFF00
7C1F80
780780
780780
F007C0
F007C0
F007C0
F007C0
F007C0
F007C0
F007C0
F007C0
F007C0
F007C0
F80780
780780
7C1F80
3FFF00
1FFE00
0FFC00
03F000
ENDCHAR
STARTCHAR 0031
ENCODING 49
SWIDTH 450 0
DWIDTH 15 0
BBX 9 24 2 0
BITMAP
0F80
3F80
FF80
FF80
FF80
EF80
8F80
0F80
0F80
0F80
0F80
0F80
0F80
0F80
0F80
0F80
0F80
0F80
0F80
0F80
0F80
0F80
0F80
0F80
ENDCHAR
STARTCHAR 0032
ENCODING 50
SWIDTH 600 0
DWIDTH 20 0
BBX 16 24 2 0
BITMAP
07E0
1FF8
3FFC
7FFE
FC3E
F81F
F00F
F00F
000F
000F
001F
003E
007E
00FC
01F8
07E0
0FC0
1F80
3F00
7E00
FFFF
FFFF
FFFF
FFFF
ENDCHAR
STARTCHAR 0033
ENCODING 51
SWIDTH 570 0
DWIDTH 19 0
BBX 16 24 1 0
BITMAP
7FFF
7FFF
7FFF
7FFF
003E
007C
00F8
01F0
03E0
0FF0
07FC
07FE
003E
001F
000F
000F
000F
000F
F80F
7C3F
7FFE
3FFC
1FF8
07E0
ENDCHAR
STARTCHAR 0034
ENCODING 52
SWIDTH 600 0
DWIDTH 20 0
BBX 17 24 2 0
BITMAP
01F000
01E000
03E000
03C000
07C000
078000
0F8000
0F0000
1F0000
1E0000
3E3C00
3C3C00
7C3C00
7C3C00
F83C00
F83C00
FFFF80
FFFF80
FFFF80
FFFF80
003C00
003C00
003C00
003C00
ENDCHAR
STARTCHAR 0035
ENCODING 53
SWIDTH 600 0
DWIDTH 20 0
BBX 16 24 2 0
BITMAP
7FFC
7FFC
7FFC
7FFC
7800
7800
7800
7800
71C0
7FF0
7FFC
7FFC
783E
001E
001F
000F
000F
300F
F01E
F83E
7FFC
3FFC
1FF0
07C0
ENDCHAR
STARTCHAR 0036
ENCODING 54
SWIDTH 630 0
DWIDTH 21 0
BBX 17 24 2 0
BITMAP
03F000
0FFC00
1FFE00
3FFC00
7C0800
780000
F80000
F00000
F04000
F7F800
FFFE00
FFFE00
FE1F00
F80F80
F80780
F00780
F00780
780780
780F80
7C1F00
3FFF00
1FFE00
0FF800
03E000
ENDCHAR
STARTCHAR 0037
ENCODING 55
SWIDTH 540 0
DWIDTH 18 0
BBX 15 24 1 0
BITMAP
FFFE
FFFE
FFFE
FFFE
001E
003C
003C
007C
0078
00F8
00F0
00F0
01F0
01E0
03E0
03C0
03C0
07C0
0780
0F80
0F00
0F00
1E00
1E00
ENDCHAR
STARTCHAR 0038
ENCODING 56
SWIDTH 600 0
DWIDTH 20 0
BBX 16 24 2 0
BITMAP
07E0
1FF8
3FFC
7FFE
7C1E
781F
781F
781F
7C1E
7FFE
3FFC
3FFC
7FFE
7C3F
F80F
F00F
F00F
F00F
F80F
7C1F
7FFE
3FFE
1FF8
07E0
ENDCHAR
STARTCHAR 0039
ENCODING 57
SWIDTH 630 0
DWIDTH 21 0
BBX 16 24 2 0
BITMAP
07E0
1FF8
3FFC
7FFE
7C3E
F81F
F00F
F00F
F00F
F00F
F81F
7C3F
7FFF
3FFF
1FEF
030F
000F
000F
001F
183F
3FFE
7FFC
3FF8
07E0
ENDCHAR
STARTCHAR 003A
ENCODING 58
SWIDTH 330 0
DWIDTH 11 0
BBX 4 14 4 2
BITMAP
F0
F0
F0
F0
00
00
00
00
00
00
F0
F0
F0
F0
ENDCHAR
STARTCHAR 003B
ENCODING 59
SWIDTH 330 0
DWIDTH 11 0
BBX 4 22 4 -5
BITMAP
F0
F0
F0
F0
00
00
00
00
00
00
00
00
00
00
F0
F0
F0
F0
30
30
E0
E0
ENDCHAR
STARTCHAR 003C
ENCODING 60
SWIDTH 630 0
DWIDTH 21 0
BBX 10 16 5 2
BITMAP
0100
0380
07C0
0F80
1F00
3E00
7C00
F800
F800
7C00
3E00
1F00
0F80
07C0
0380
0100
ENDCHAR
STARTCHAR 003D
ENCODING 61
SWIDTH 750 0
DWIDTH 25 0
BBX 17 10 4 7
BITMAP
FFFF80
FFFF80
FFFF80
000000
000000
000000
000000
FFFF80
FFFF80
FFFF80
ENDCHAR
STARTCHAR 003E
ENCODING 62
SWIDTH 630 0
DWIDTH 21 0
BBX 10 16 6 2
BITMAP
2000
7000
F800
7C00
3E00
1F00
0F80
07C0
07C0
0F80
1F00
3E00
7C00
F800
7000
2000
ENDCHAR
STARTCHAR 003F
ENCODING 63
SWIDTH 540 0
DWIDTH 18 0
BBX 15 24 2 0
BITMAP
0FC0
3FF0
7FF8
7FFC
F83C
F03E
F03E
003E
003C
003C
0078
01F8
03F0
03E0
07C0
0780
0780
0780
0000
0000
0780
0780
0780
0780
ENDCHAR
STARTCHAR 0040
ENCODING 64
SWIDTH 900 0
DWIDTH 30 0
BBX 25 24 3 -3
BITMAP
00FF8000
07FFE000
0FFFF800
1F80FC00
3E003E00
78001E00
787DCF00
F0FFC700
F1FFC700
E3E3C780
E3C3C780
E381C780
E381C780
E381C780
E3C3C700
F1FFFF00
F1FFFF00
787E7C00
78000000
3E000000
1F800000
0FFF8000
07FF8000
00FF0000
ENDCHAR
STARTCHAR 0041
ENCODING 65
SWIDTH 660 0
DWIDTH 22 0
BBX 21 24 1 0
BITMAP
01F800
01FC00
03FC00
03FC00
03FE00
07DE00
079E00
079E00
078F00
0F0F00
0F0F00
0F0780
1E0780
1E0780
1E03C0
3FFFC0
3FFFC0
3FFFE0
7FFFE0
7801E0
7801F0
F800F0
F000F0
F000F8
ENDCHAR
STARTCHAR 0042
ENCODING 66
SWIDTH 630 0
DWIDTH 21 0
BBX 18 24 2 0
BITMAP
FFF800
FFFE00
FFFF00
FFFF00
F00F80
F00780
F00780
F00780
F00F80
FFFF00
FFFE00
FFFE00
FFFF80
F00F80
F007C0
F003C0
F003C0
F003C0
F007C0
F007C0
FFFF80
FFFF80
FFFF00
FFFC00
ENDCHAR
STARTCHAR 0043
ENCODING 67
SWIDTH 750 0
DWIDTH 25 0
BBX 22 24 1 0
BITMAP
00FE00
07FFC0
0FFFE0
1FFFF0
3F01F8
7E00F8
7C007C
78003C
F80000
F00000
F00000
F00000
F00000
F00000
F00000
F80000
78003C
7C007C
7E00F8
3F01F8
1FFFF0
0FFFE0
07FFC0
00FE00
ENDCHAR
STARTCHAR 0044
ENCODING 68
SWIDTH 690 0
DWIDTH 23 0
BBX 20 24 2 0
BITMAP
FFF800
FFFE00
FFFF00
FFFF80
F00FC0
F007C0
F003E0
F001E0
F001E0
F001F0
F001F0
F001F0
F001F0
F001F0
F001F0
F001E0
F001E0
F003E0
F007C0
F00FC0
FFFF80
FFFF00
FFFE00
FFF800
ENDCHAR
STARTCHAR 0045
ENCODING 69
SWIDTH 600 0
DWIDTH 20 0
BBX 16 24 2 0
BITMAP
FFFF
FFFF
FFFF
FFFF
F000
F000
F000
F000
F000
F000
FFFC
FFFC
FFFC
FFFC
F000
F000
F000
F000
F000
F000
FFFF
FFFF
FFFF
FFFF
ENDCHAR
STARTCHAR 0046
ENCODING 70
SWIDTH 510 0
DWIDTH 17 0
BBX 15 24 2 0
BITMAP
FFFE
FFFE
FFFE
FFFE
F000
F000
F000
F000
F000
F000
FFF8
FFF8
FFF8
FFF8
F000
F000
F000
F000
F000
F000
F000
F000
F000
F000
ENDCHAR
STARTCHAR 0047
ENCODING 71
SWIDTH 720 0
DWIDTH 24 0
BBX 22 24 1 0
BITMAP
00FE00
07FF80
0FFFE0
1FFFF0
3F01F8
7C00F8
7C0078
780078
F80000
F00000
F00000
F003FC
F003FC
F003FC
F8003C
F8003C
78007C
7C0078
3E00F8
3F01F0
1FFFF0
0FFFE0
07FF80
00FE00
ENDCHAR
STARTCHAR 0048
ENCODING 72
SWIDTH 720 0
DWIDTH 24 0
BBX 20 24 2 0
BITMAP
F000F0
F000F0
F000F0
F000F0
F000F0
F000F0
F000F0
F000F0
F000F0
F000F0
FFFFF0
FFFFF0
FFFFF0
FFFFF0
F000F0
F000F0
F000F0
F000F0
F000F0
F000F0
F000F0
F000F0
F000F0
F000F0
ENDCHAR
STARTCHAR 0049
ENCODING 73
SWIDTH 270 0
DWIDTH 9 0
BBX 4 24 3 0
BITMAP
F0
F0
F0
F0
F0
F0
F0
F0
F0
F0
F0
F0
F0
F0
F0
F0
F0
F0
F0
F0
F0
F0
F0
F0
ENDCHAR
STARTCHAR 004A
ENCODING 74
SWIDTH 510 0
DWIDTH 17 0
BBX 14 24 0 0
BITMAP
003C
003C
003C
003C
003C
003C
003C
003C
003C
003C
003C
003C
003C
003C
003C
003C
003C
003C
703C
F87C
7FF8
7FF8
3FF0
0FC0
ENDCHAR
STARTCHAR 004B
ENCODING 75
SWIDTH 660 0
DWIDTH 22 0
BBX 19 24 2 0
BITMAP
F007C0
F007C0
F00F80
F01F00
F03E00
F07C00
F0F800
F1F000
F1E000
F3E000
F7C000
FF8000
FF8000
F7C000
F3E000
F1F000
F0F800
F07C00
F07E00
F03F00
F01F00
F00F80
F007C0
F003E0
ENDCHAR
STARTCHAR 004C
ENCODING 76
SWIDTH 540 0
DWIDTH 18 0
BBX 14 24 3 0
BITMAP
F000
F000
F000
F000
F000
F000
F000
F000
F000
F000
F000
F000
F000
F000
F000
F000
F000
F000
F000
F000
FFFC
FFFC
FFFC
FFFC
ENDCHAR
STARTCHAR 004D
ENCODING 77
SWIDTH 870 0
DWIDTH 29 0
BBX 24 24 2 0
BITMAP
F0000F
F8000F
F8001F
FC001F
FC003F
FE003F
FE007F
FF007F
FF00FF
F780FF
F781FF
F7C1EF
F3C3EF
F3E3CF
F1E7CF
F1F78F
F0FF8F
F0FF0F
F07F0F
F07E0F
F03E0F
F03C0F
F01C0F
F0180F
ENDCHAR
STARTCHAR 004E
ENCODING 78
SWIDTH 720 0
DWIDTH 24 0
BBX 20 24 2 0
BITMAP
F800F0
F800F0
FC00F0
FE00F0
FE00F0
FF00F0
FF80F0
F780F0
F7C0F0
F3E0F0
F1E0F0
F1F0F0
F0F8F0
F078F0
F07CF0
F03EF0
F01EF0
F01FF0
F00FF0
F007F0
F007F0
F003F0
F001F0
F001F0
ENDCHAR
STARTCHAR 004F
ENCODING 79
SWIDTH 750 0
DWIDTH 25 0
BBX 23 24 1 0
BITMAP
00FE00
07FFC0
0FFFE0
1FFFF0
3F01F8
7E00F8
7C007C
78003C
F8003E
F0003E
F0001E
F0001E
F0001E
F0001E
F0003E
F8003E
78003C
7C007C
7E00F8
3F01F8
1FFFF0
0FFFE0
07FFC0
00FE00
ENDCHAR
STARTCHAR 0050
ENCODING 80
SWIDTH 630 0
DWIDTH 21 0
BBX 18 24 2 0
BITMAP
FFFC00
FFFF00
FFFF80
FFFF80
F007C0
F003C0
F003C0
F003C0
F003C0
F003C0
F007C0
F00FC0
FFFF80
FFFF00
FFFE00
FFF800
F00000
F00000
F00000
F00000
F00000
F00000
F00000
F00000
ENDCHAR
STARTCHAR 0051
ENCODING 81
SWIDTH 750 0
DWIDTH 25 0
BBX 23 24 1 0
BITMAP
00FE00
07FFC0
0FFFE0
1FFFF0
3F01F8
7E00F8
7C007C
78003C
F8003E
F0003E
F0001E
F0001E
F0001E
F0001E
F0003E
F8013E
7803BC
7C07FC
7E03F8
3F01F8
1FFFFC
0FFFFE
07FFDC
00FE08
ENDCHAR
STARTCHAR 0052
ENCODING 82
SWIDTH 660 0
DWIDTH 22 0
BBX 18 24 2 0
BITMAP
FFFC00
FFFF00
FFFF80
FFFF80
F007C0
F003C0
F003C0
F003C0
F003C0
F003C0
F007C0
F00FC0
FFFF80
FFFF00
FFFE00
FFFC00
F03E00
F01E00
F01F00
F00F00
F00F80
F00780
F007C0
F003C0
ENDCHAR
STARTCHAR 0053
ENCODING 83
SWIDTH 660 0
DWIDTH 22 0
BBX 20 24 1 0
BITMAP
03F800
0FFF00
1FFF80
3FFFC0
3E07C0
7C03E0
7801E0
7C0000
7E0000
3F8000
3FF800
0FFF00
03FFC0
003FE0
0007E0
0001F0
7801F0
F801F0
7C01E0
7E03E0
3FFFC0
1FFFC0
0FFF00
01FC00
ENDCHAR
STARTCHAR 0054
ENCODING 84
SWIDTH 600 0
DWIDTH 20 0
BBX 20 24 0 0
BITMAP
FFFFF0
FFFFF0
FFFFF0
FFFFF0
00F000
00F000
00F000
00F000
00F000
00F000
00F000
00F000
00F000
00F000
00F000
00F000
00F000
00F000
00F000
00F000
00F000
00F000
00F000
00F000
ENDCHAR
STARTCHAR 0055
ENCODING 85
SWIDTH 720 0
DWIDTH 24 0
BBX 20 24 2 0
BITMAP
F000F0
F000F0
F000F0
F000F0
F000F0
F000F0
F000F0
F000F0
F000F0
F000F0
F000F0
F000F0
F000F0
F000F0
F000F0
F000F0
F801F0
7801E0
7C03E0
7E07C0
3FFFC0
1FFF80
0FFF00
01FC00
ENDCHAR
STARTCHAR 0056
ENCODING 86
SWIDTH 630 0
DWIDTH 21 0
BBX 21 24 0 0
BITMAP
F00078
780078
7800F0
7800F0
3C00F0
3C01E0
3C01E0
1E01E0
1E03C0
1E03C0
1F03C0
0F07C0
0F0780
0F8780
078F80
078F00
07CF00
03DF00
03DE00
03DE00
01FE00
01FC00
01FC00
00FC00
ENDCHAR
STARTCHAR 0057
ENCODING 87
SWIDTH 990 0
DWIDTH 33 0
BBX 31 24 1 0
BITMAP
F007C01E
F007C03E
F00FC03C
F80FC03C
780FE03C
780FE07C
781FE078
3C1FE078
3C1EF078
3C1EF0F0
3E3CF0F0
1E3C78F0
1E3C79E0
1E7879E0
0F7879E0
0F783DE0
0F783FC0
0FF03FC0
07F01FC0
07F01F80
07E01F80
03E01F80
03E00F80
03E00F00
ENDCHAR
STARTCHAR 0058
ENCODING 88
SWIDTH 660 0
DWIDTH 22 0
BBX 20 24 1 0
BITMAP
F801F0
7803E0
7C03E0
3E07C0
1E0F80
1F0F80
0F9F00
079E00
07FE00
03FC00
01F800
01F800
01F800
03FC00
03FC00
07FE00
0F9F00
0F9F00
1F0F80
3E07C0
3E07C0
7C03E0
F801F0
F801F0
ENDCHAR
STARTCHAR 0059
ENCODING 89
SWIDTH 600 0
DWIDTH 20 0
BBX 20 24 0 0
BITMAP
F801F0
7C01F0
7C03E0
3E03C0
1E07C0
1F0780
0F0F80
0F9F00
07DE00
07FE00
03FC00
01FC00
01F800
00F800
00F000
00F000
00F000
00F000
00F000
00F000
00F000
00F000
00F000
00F000
ENDCHAR
STARTCHAR 005A
ENCODING 90
SWIDTH 660 0
DWIDTH 22 0
BBX 18 24 2 0
BITMAP
FFFFC0
FFFFC0
FFFF80
FFFF80
001F00
003F00
003E00
007C00
007C00
00F800
01F800
01F000
03E000
03E000
07C000
0FC000
0F8000
1F0000
1F0000
3E0000
7FFFC0
7FFFC0
FFFFC0
FFFFC0
ENDCHAR
STARTCHAR 005B
ENCODING 91
SWIDTH 420 0
DWIDTH 14 0
BBX 7 37 5 -7
BITMAP
FE
FE
FE
FE
E0
E0
E0
E0
E0
E0
E0
E0
E0
E0
E0
E0
E0
E0
E0
E0
E0
E0
E0
E0
E0
E0
E0
E0
E0
E0
E0
E0
E0
FE
FE
FE
FE
ENDCHAR
STARTCHAR 005C
ENCODING 92
SWIDTH 420 0
DWIDTH 14 0
BBX 10 24 2 0
BITMAP
F000
F000
7800
7800
7800
7C00
3C00
3C00
3C00
1E00
1E00
1E00
1E00
0F00
0F00
0F00
0F00
0780
0780
0780
0780
03C0
03C0
03C0
ENDCHAR
STARTCHAR 005D
ENCODING 93
SWIDTH 420 0
DWIDTH 14 0
BBX 7 37 2 -7
BITMAP
FE
FE
FE
FE
0E
0E
0E
0E
0E
0E
0E
0E
0E
0E
0E
0E
0E
0E
0E
0E
0E
0E
0E
0E
0E
0E
0E
0E
0E
0E
0E
0E
0E
FE
FE
FE
FE
ENDCHAR
STARTCHAR 005E
ENCODING 94
SWIDTH 690 0
DWIDTH 23 0
BBX 15 10 4 14
BITMAP
0100
0380
07C0
0FE0
1FF0
3EF8
7C7C
F83E
F01E
600C
ENDCHAR
STARTCHAR 005F
ENCODING 95
SWIDTH 660 0
DWIDTH 22 0
BBX 22 3 0 -4
BITMAP
FFFFFC
FFFFFC
FFFFFC
ENDCHAR
STARTCHAR 0060
ENCODING 96
SWIDTH 540 0
DWIDTH 18 0
BBX 5 6 6 27
BITMAP
E0
E0
F0
70
70
38
ENDCHAR
STARTCHAR 0061
ENCODING 97
SWIDTH 570 0
DWIDTH 19 0
BBX 16 18 1 0
BITMAP
07F0
1FFC
3FFE
3FFF
7C1F
180F
000F
01FF
1FFF
3FFF
7F0F
780F
F00F
F01F
7C7F
7FF7
3FE7
0F87
ENDCHAR
STARTCHAR 0062
ENCODING 98
SWIDTH 630 0
DWIDTH 21 0
BBX 17 24 2 0
BITMAP
F00000
F00000
F00000
F00000
F00000
F00000
F3F000
FFFC00
FFFE00
FFFF00
F81F00
F80F80
F00F80
F00780
F00780
F00780
F00780
F00780
F80F80
F81F00
FFFF00
FFFE00
FFFC00
F3F000
ENDCHAR
STARTCHAR 0063
ENCODING 99
SWIDTH 570 0
DWIDTH 19 0
BBX 17 18 1 0
BITMAP
03F000
0FFC00
1FFF00
3FFF00
7E0F80
7C0780
780000
F80000
F80000
F80000
F80000
780000
7C0780
7E0F80
3FFF00
1FFE00
0FFC00
03F000
ENDCHAR
STARTCHAR 0064
ENCODING 100
SWIDTH 630 0
DWIDTH 21 0
BBX 17 24 1 0
BITMAP
000780
000780
000780
000780
000780
000780
03E780
0FFF80
1FFF80
3FFF80
7C0F80
7C0780
780780
F80380
F80380
F80380
F80380
780780
780780
7C0F80
3FFF80
1FFF80
0FFB80
03E380
ENDCHAR
STARTCHAR 0065
ENCODING 101
SWIDTH 600 0
DWIDTH 20 0
BBX 18 18 1 0
BITMAP
03F000
0FFC00
1FFE00
3FFF00
7C0F80
780780
780780
FFFFC0
FFFFC0
FFFFC0
F80000
780000
780700
7E0F80
3FFF80
1FFF00
0FFE00
03F000
ENDCHAR
STARTCHAR 0066
ENCODING 102
SWIDTH 390 0
DWIDTH 13 0
BBX 11 24 1 0
BITMAP
03E0
0FE0
1FE0
1F00
1E00
1E00
FFE0
FFE0
FFE0
1E00
1E00
1E00
1E00
1E00
1E00
1E00
1E00
1E00
1E00
1E00
1E00
1E00
1E00
1E00
ENDCHAR
STARTCHAR 0067
ENCODING 103
SWIDTH 630 0
DWIDTH 21 0
BBX 17 26 1 -8
BITMAP
03F380
0FFF80
1FFF80
3FFF80
7C0F80
7C0780
780780
F80380
F80380
F80380
F80380
780780
780780
7C0F80
3FFF80
1FFF80
0FFF80
03F780
000780
000780
040780
1E0F80
3FFF00
1FFF00
0FFE00
03F000
ENDCHAR
STARTCHAR 0068
ENCODING 104
SWIDTH 630 0
DWIDTH 21 0
BBX 17 24 2 0
BITMAP
F00000
F00000
F00000
F00000
F00000
F1F000
F7FC00
FFFE00
FFFF00
FE1F00
F80F00
F80F80
F80F80
F00780
F00780
F00780
F00780
F00780
F00780
F00780
F00780
F00780
F00780
F00780
ENDCHAR
STARTCHAR 0069
ENCODING 105
SWIDTH 270 0
DWIDTH 9 0
BBX 4 24 3 0
BITMAP
F0
F0
F0
F0
00
00
F0
F0
F0
F0
F0
F0
F0
F0
F0
F0
F0
F0
F0
F0
F0
F0
F0
F0
ENDCHAR
STARTCHAR 006A
ENCODING 106
SWIDTH 300 0
DWIDTH 10 0
BBX 7 32 0 -8
BITMAP
1E
1E
1E
1E
00
00
1E
1E
1E
1E
1E
1E
1E
1E
1E
1E
1E
1E
1E
1E
1E
1E
1E
1E
1E
1E
1E
1E
FE
FE
FC
F8
ENDCHAR
STARTCHAR 006B
ENCODING 107
SWIDTH 540 0
DWIDTH 18 0
BBX 16 24 2 0
BITMAP
F000
F000
F000
F000
F000
F000
F01F
F03E
F07C
F0F8
F0F8
F1F0
F3E0
F7C0
F780
FF80
F7C0
F3E0
F1F0
F0F8
F0FC
F07C
F03E
F01F
ENDCHAR
STARTCHAR 006C
ENCODING 108
SWIDTH 270 0
DWIDTH 9 0
BBX 4 24 3 0
BITMAP
F0
F0
F0
F0
F0
F0
F0
F0
F0
F0
F0
F0
F0
F0
F0
F0
F0
F0
F0
F0
F0
F0
F0
F0
ENDCHAR
STARTCHAR 006D
ENCODING 109
SWIDTH 900 0
DWIDTH 30 0
BBX 26 18 2 0
BITMAP
F3F07E00
F7F9FF00
FFFDFF80
FFFFFF80
F83F07C0
F81E03C0
F01E03C0
F01E03C0
F01E03C0
F01E03C0
F01E03C0
F01E03C0
F01E03C0
F01E03C0
F01E03C0
F01E03C0
F01E03C0
F01E03C0
ENDCHAR
STARTCHAR 006E
ENCODING 110
SWIDTH 630 0
DWIDTH 21 0
BBX 17 19 2 0
BITMAP
01F000
F7FC00
FFFE00
FFFF00
FE1F00
F80F00
F80F80
F80F80
F00780
F00780
F00780
F00780
F00780
F00780
F00780
F00780
F00780
F00780
F00780
ENDCHAR
STARTCHAR 006F
ENCODING 111
SWIDTH 630 0
DWIDTH 21 0
BBX 18 18 1 0
BITMAP
03F000
0FFC00
1FFF00
3FFF80
7E0F80
7C07C0
7803C0
F803C0
F803C0
F803C0
F803C0
7803C0
7807C0
7E0F80
3FFF80
1FFF00
0FFE00
03F800
ENDCHAR
STARTCHAR 0070
ENCODING 112
SWIDTH 630 0
DWIDTH 21 0
BBX 17 26 2 -8
BITMAP
F3F000
FFFC00
FFFE00
FFFF00
F81F00
F80F80
F00F80
F00780
F00780
F00780
F00780
F00780
F80F80
F81F00
FFFF00
FFFE00
FFFC00
F3F000
F00000
F00000
F00000
F00000
F00000
F00000
F00000
F00000
ENDCHAR
STARTCHAR 0071
ENCODING 113
SWIDTH 630 0
DWIDTH 21 0
BBX 17 26 1 -8
BITMAP
03F380
0FFF80
1FFF80
3FFF80
7C0F80
7C0780
780780
F80380
F80380
F80380
F80380
780780
780780
7C0F80
3FFF80
1FFF80
0FFF80
03F780
000780
000780
000780
000780
000780
000780
000780
000780
ENDCHAR
STARTCHAR 0072
ENCODING 114
SWIDTH 390 0
DWIDTH 13 0
BBX 10 18 2 0
BITMAP
F1C0
F7C0
FFC0
FFC0
FC00
F800
F800
F000
F000
F000
F000
F000
F000
F000
F000
F000
F000
F000
ENDCHAR
STARTCHAR 0073
ENCODING 115
SWIDTH 540 0
DWIDTH 18 0
BBX 16 18 1 0
BITMAP
07E0
1FF8
3FFC
7FFE
781E
781C
7C00
7FC0
1FF8
07FE
00FE
001F
F80F
781F
7F7E
3FFE
1FFC
07F0
ENDCHAR
STARTCHAR 0074
ENCODING 116
SWIDTH 420 0
DWIDTH 14 0
BBX 13 23 0 0
BITMAP
0F00
0F00
0F00
0F00
0F00
FFF8
FFF8
FFF8
0F00
0F00
0F00
0F00
0F00
0F00
0F00
0F00
0F00
0F00
0F00
0FD8
0FF8
07F8
01F8
ENDCHAR
STARTCHAR 0075
ENCODING 117
SWIDTH 630 0
DWIDTH 21 0
BBX 17 19 2 -1
BITMAP
F00F80
F00F80
F00F80
F00F80
F00F80
F00F80
F00F80
F00F80
F00F80
F00F80
F00F80
F00F80
F80F80
F81F80
7C3F80
7FFF80
3FFF80
1FF780
07C000
ENDCHAR
STARTCHAR 0076
ENCODING 118
SWIDTH 540 0
DWIDTH 18 0
BBX 17 18 1 0
BITMAP
F00780
F00F00
780F00
780E00
781E00
3C1E00
3C3C00
3C3C00
1E3C00
1E7800
1E7800
0F7800
0FF000
07F000
07E000
07E000
03E000
03C000
ENDCHAR
STARTCHAR 0077
ENCODING 119
SWIDTH 810 0
DWIDTH 27 0
BBX 25 18 1 0
BITMAP
F01C0780
F03E0780
F03E0F00
783E0F00
787E0F00
787F1E00
3C771E00
3CF71E00
3CE79C00
1CE3BC00
1FE3BC00
1FC3FC00
1FC1F800
0FC1F800
0F81F800
0F80F000
0780F000
0700F000
ENDCHAR
STARTCHAR 0078
ENCODING 120
SWIDTH 540 0
DWIDTH 18 0
BBX 17 18 1 0
BITMAP
F80F80
781F00
7C3E00
3E3C00
1E7C00
1FF800
0FF000
07F000
03E000
07E000
07F000
0FF000
1F7800
1E7C00
3E3E00
7C1E00
F81F00
F00F80
ENDCHAR
STARTCHAR 0079
ENCODING 121
SWIDTH 570 0
DWIDTH 19 0
BBX 17 26 1 -8
BITMAP
F00780
F00780
F80780
780F00
780F00
3C1E00
3C1E00
3E1E00
1E3C00
1E3C00
0F7800
0F7800
0F7800
07F000
07F000
03E000
03E000
03E000
03C000
03C000
03C000
078000
078000
070000
0F0000
0F0000
ENDCHAR
STARTCHAR 007A
ENCODING 122
SWIDTH 540 0
DWIDTH 18 0
BBX 15 18 1 0
BITMAP
7FFE
7FFE
7FFC
7FF8
0078
00F0
01E0
03E0
03C0
0780
0F80
0F00
1E00
3E00
3FFE
7FFE
FFFE
FFFE
ENDCHAR
STARTCHAR 007B
ENCODING 123
SWIDTH 450 0
DWIDTH 15 0
BBX 9 37 5 -7
BITMAP
0F80
1F80
3F80
3F80
3C00
3800
3800
3800
3800
3800
3800
3800
3800
3800
3800
7800
7800
F800
F000
F800
7800
7800
3800
3800
3800
3800
3800
3800
3800
3800
3800
3800
3C00
3F80
3F80
1F80
0F80
ENDCHAR
STARTCHAR 007C
ENCODING 124
SWIDTH 300 0
DWIDTH 10 0
BBX 4 24 3 0
BITMAP
F0
F0
F0
F0
F0
F0
F0
F0
F0
F0
F0
F0
F0
F0
F0
F0
F0
F0
F0
F0
F0
F0
F0
F0
ENDCHAR
STARTCHAR 007D
ENCODING 125
SWIDTH 450 0
DWIDTH 15 0
BBX 9 37 1 -7
BITMAP
F800
FC00
FE00
FE00
1E00
1E00
1E00
1E00
1E00
1E00
1E00
1E00
1E00
1E00
1E00
0F00
0F00
0F80
0780
0F80
0F00
0F00
1E00
1E00
1E00
1E00
1E00
1E00
1E00
1E00
1E00
1E00
1E00
FE00
FE00
FC00
F800
ENDCHAR
STARTCHAR 007E
ENCODING 126
SWIDTH 720 0
DWIDTH 24 0
BBX 16 7 4 7
BITMAP
3C0F
FF0F
FFCF
FFFF
F3FF
E0FE
E07C
ENDCHAR
STARTCHAR 00A0
ENCODING 160
SWIDTH 210 0
DWIDTH 7 0
BBX 0 0 0 0
BITMAP
ENDCHAR
STARTCHAR 00A1
ENCODING 161
SWIDTH 360 0
DWIDTH 12 0
BBX 4 24 4 -6
BITMAP
F0
F0
F0
F0
00
00
F0
F0
F0
F0
F0
F0
F0
F0
F0
F0
F0
F0
F0
F0
F0
F0
F0
F0
ENDCHAR
STARTCHAR 00A2
ENCODING 162
SWIDTH 570 0
DWIDTH 19 0
BBX 17 25 1 -1
BITMAP
00E000
00E000
00E000
03F000
0FFC00
1FFE00
3FFF00
7E1F80
7C0F80
780400
F80000
F80000
F80000
F80000
F80000
780400
7C0780
7E0F80
3FFF00
1FFE00
0FFC00
03F000
00E000
00E000
00E000
ENDCHAR
STARTCHAR 00A3
ENCODING 163
SWIDTH 570 0
DWIDTH 19 0
BBX 17 24 1 0
BITMAP
01F000
03FC00
07FE00
0FFF00
1F0F00
1E0F80
1E0600
1E0000
1E0000
1E0000
FFF000
FFF000
FFF000
FFF000
1E0000
1E0000
1E0000
1E0000
1E0000
3E0000
FFFE00
FFFE00
FFFE00
FFFE00
ENDCHAR
STARTCHAR 00A4
ENCODING 164
SWIDTH 660 0
DWIDTH 22 0
BBX 20 20 1 2
BITMAP
300060
79F8F0
FFFFF0
7FFFE0
3FFFC0
1E07C0
3C03C0
3801E0
3801E0
7801E0
7801E0
3801E0
3801E0
3C03C0
1E07C0
3FDFC0
7FFFE0
FFFFF0
79F8F0
300060
ENDCHAR
STARTCHAR 00A5
ENCODING 165
SWIDTH 600 0
DWIDTH 20 0
BBX 20 24 0 0
BITMAP
F801F0
7C01F0
7C03E0
3E03C0
1E07C0
1F0F80
0F0F80
0F9F00
07DE00
03FE00
03FC00
01FC00
1FFF80
1FFF80
1FFF80
00F000
00F000
00F000
1FFF80
1FFF80
1FFF80
00F000
00F000
00F000
ENDCHAR
STARTCHAR 00A6
ENCODING 166
SWIDTH 300 0
DWIDTH 10 0
BBX 4 31 3 -7
BITMAP
F0
F0
F0
F0
F0
F0
F0
F0
F0
F0
F0
F0
F0
F0
00
00
00
F0
F0
F0
F0
F0
F0
F0
F0
F0
F0
F0
F0
F0
F0
ENDCHAR
STARTCHAR 00A7
ENCODING 167
SWIDTH 540 0
DWIDTH 18 0
BBX 15 26 2 -4
BITMAP
0FC0
3FE0
7FF0
FDF8
F078
F078
F800
FF00
7FE0
1FF8
7FFC
F07E
F03E
F01E
F83C
FFFC
7FF8
1FF8
03FC
007C
303C
F03C
FC7C
7FFC
3FF8
1FF0
ENDCHAR
STARTCHAR 00A8
ENCODING 168
SWIDTH 570 0
DWIDTH 19 0
BBX 11 4 4 27
BITMAP
F1E0
F1E0
F1E0
F1E0
ENDCHAR
STARTCHAR 00A9
ENCODING 169
SWIDTH 900 0
DWIDTH 30 0
BBX 28 28 1 -2
BITMAP
001F0000
00FFE000
03FFF800
07FFFE00
0FE07F00
1F801F00
3E000F80
3C0F07C0
783FC3C0
787FE1E0
F0F0F1E0
F0E071E0
F0E000E0
F1E000F0
F1E000F0
F1E000E0
F0E061E0
F0F0F1E0
787FE1E0
783FC3C0
3C1F87C0
3E000F80
1F001F80
0FC07F00
07FFFE00
03FFFC00
00FFF000
003F8000
ENDCHAR
STARTCHAR 00AA
ENCODING 170
SWIDTH 330 0
DWIDTH 11 0
BBX 8 10 1 9
BITMAP
18
7F
67
03
3F
7B
E3
E7
7F
3F
ENDCHAR
STARTCHAR 00AB
ENCODING 171
SWIDTH 600 0
DWIDTH 20 0
BBX 14 15 3 1
BITMAP
0408
0E1C
0E3C
1C38
3870
78E0
F1E0
E1C0
71E0
78F0
3C70
1C38
0E1C
061C
0408
ENDCHAR
STARTCHAR 00AC
ENCODING 172
SWIDTH 600 0
DWIDTH 20 0
BBX 16 7 2 6
BITMAP
FFFF
FFFF
FFFF
0007
0007
0007
0007
ENDCHAR
STARTCHAR 00AD
ENCODING 173
SWIDTH 420 0
DWIDTH 14 0
BBX 10 3 2 9
BITMAP
FFC0
FFC0
FFC0
ENDCHAR
STARTCHAR 00AE
ENCODING 174
SWIDTH 660 0
DWIDTH 22 0
BBX 17 17 2 9
BITMAP
03F000
0FFC00
1FFE00
3C0F00
780780
73F380
E31180
E31180
E3F180
E36180
632380
733380
780700
3C0F00
1FFE00
0FFC00
03F000
ENDCHAR
STARTCHAR 00AF
ENCODING 175
SWIDTH 510 0
DWIDTH 17 0
BBX 9 3 4 28
BITMAP
FF80
FF80
FF80
ENDCHAR
STARTCHAR 00B0
ENCODING 176
SWIDTH 450 0
DWIDTH 15 0
BBX 12 12 1 12
BITMAP
0F00
3FC0
7FE0
7FE0
F0F0
E0F0
E0F0
F0F0
FFE0
7FE0
3FC0
1F00
ENDCHAR
STARTCHAR 00B1
ENCODING 177
SWIDTH 600 0
DWIDTH 20 0
BBX 16 16 2 2
BITMAP
03C0
03C0
03C0
03C0
FFFF
FFFF
FFFF
03C0
03C0
03C0
03C0
0000
0000
FFFF
FFFF
FFFF
ENDCHAR
STARTCHAR 00B2
ENCODING 178
SWIDTH 420 0
DWIDTH 14 0
BBX 10 15 2 9
BITMAP
3E00
7F80
FF80
E1C0
C1C0
01C0
01C0
0380
0700
1E00
3C00
7800
F000
FFC0
FFC0
ENDCHAR
STARTCHAR 00B3
ENCODING 179
SWIDTH 390 0
DWIDTH 13 0
BBX 9 15 2 9
BITMAP
FF80
FF80
0380
0700
0E00
1C00
3E00
3F00
0380
0180
0180
4180
E380
FF00
7E00
ENDCHAR
STARTCHAR 00B4
ENCODING 180
SWIDTH 540 0
DWIDTH 18 0
BBX 5 6 7 27
BITMAP
38
38
70
70
70
E0
ENDCHAR
STARTCHAR 00B5
ENCODING 181
SWIDTH 630 0
DWIDTH 21 0
BBX 17 26 2 -8
BITMAP
F00780
F00780
F00780
F00780
F00780
F00780
F00780
F00780
F00780
F00780
F00780
F80780
F80F80
F80F80
FE1F80
FFFF80
FFFF80
FFF780
F7C000
F00000
F00000
F00000
F00000
F00000
F00000
F00000
ENDCHAR
STARTCHAR 00B6
ENCODING 182
SWIDTH 720 0
DWIDTH 24 0
BBX 20 29 2 -5
BITMAP
0FF8F0
3FF8F0
7FF8F0
7FF8F0
FFF8F0
FFF8F0
FFF8F0
FFF8F0
FFF8F0
FFF8F0
FFF8F0
FFF8F0
7FF8F0
3FF8F0
1FF8F0
03F8F0
0078F0
0078F0
0078F0
0078F0
0078F0
0078F0
0078F0
0078F0
0078F0
0078F0
0078F0
0078F0
0078F0
ENDCHAR
STARTCHAR 00B7
ENCODING 183
SWIDTH 270 0
DWIDTH 9 0
BBX 5 5 2 8
BITMAP
70
F8
F8
F8
70
ENDCHAR
STARTCHAR 00B8
ENCODING 184
SWIDTH 420 0
DWIDTH 14 0
BBX 6 9 4 -8
BITMAP
30
30
70
78
3C
1C
7C
F8
F0
ENDCHAR
STARTCHAR 00B9
ENCODING 185
SWIDTH 330 0
DWIDTH 11 0
BBX 5 15 2 9
BITMAP
38
F8
F8
D8
18
18
18
18
18
18
18
18
18
18
18
ENDCHAR
STARTCHAR 00BA
ENCODING 186
SWIDTH 360 0
DWIDTH 12 0
BBX 9 9 1 9
BITMAP
1E00
7F00
6380
E180
E180
E180
6380
7F00
1E00
ENDCHAR
STARTCHAR 00BB
ENCODING 187
SWIDTH 600 0
DWIDTH 20 0
BBX 15 14 2 1
BITMAP
2080
E1C0
71E0
78F0
3C78
1E38
0E1C
0F1E
0E3C
1C38
3C70
78F0
71E0
61C0
ENDCHAR
STARTCHAR 00BC
ENCODING 188
SWIDTH 1050 0
DWIDTH 35 0
BBX 29 24 2 0
BITMAP
38000C00
F8000E00
F8001C00
D8003C00
18007800
18007000
1800F000
1801E000
1803C000
18038380
18078380
180F0700
180E0700
181C0600
183C0E00
00780EE0
00701CE0
00E01CE0
01E038E0
03C03FF8
03803FF8
078000E0
070000E0
020000E0
ENDCHAR
STARTCHAR 00BD
ENCODING 189
SWIDTH 1020 0
DWIDTH 34 0
BBX 30 24 2 0
BITMAP
38000C00
F8000E00
F8001C00
D8003C00
18007800
18007000
1800F000
1801E000
1801C000
180383F0
180787F8
180F0E3C
180E0E1C
181C0C1C
183C001C
0078001C
00700038
00E000F0
01E001E0
03C003C0
03800780
07800F00
07000FFC
02000FFC
ENDCHAR
STARTCHAR 00BE
ENCODING 190
SWIDTH 1020 0
DWIDTH 34 0
BBX 30 24 2 0
BITMAP
FF800300
FF800380
03800700
07000F00
0E001E00
1C001C00
3E003C00
3F007800
0380F000
0180E0E0
0181E0E0
4183C1C0
E38381C0
FF070380
7E0F0380
001E0738
001C0738
00380E38
00780E38
00F00FFC
00E00FFC
01E00038
01C00038
00800038
ENDCHAR
STARTCHAR 00BF
ENCODING 191
SWIDTH 540 0
DWIDTH 18 0
BBX 15 25 2 -7
BITMAP
07C0
07C0
07C0
07C0
0000
0000
0000
07C0
07C0
0780
0F80
1F00
3F00
7C00
7800
F800
F000
F000
F03E
F03C
F87C
7FFC
7FF8
3FF0
0780
ENDCHAR
STARTCHAR 00C0
ENCODING 192
SWIDTH 660 0
DWIDTH 22 0
BBX 21 33 1 0
BITMAP
038000
038000
01C000
01C000
01C000
00E000
000000
000000
000000
01F800
01FC00
03FC00
03FC00
03FE00
07DE00
079E00
079E00
078F00
0F0F00
0F0F00
0F0780
1E0780
1E0780
1E03C0
3FFFC0
3FFFC0
3FFFE0
7FFFE0
7801E0
7801F0
F800F0
F000F0
F000F8
ENDCHAR
STARTCHAR 00C1
ENCODING 193
SWIDTH 660 0
DWIDTH 22 0
BBX 21 33 1 0
BITMAP
000E00
001C00
001C00
003800
003800
007800
000000
000000
000000
01F800
01FC00
03FC00
03FC00
03FE00
07DE00
079E00
079E00
078F00
0F0F00
0F0F00
0F0780
1E0780
1E0780
1E03C0
3FFFC0
3FFFC0
3FFFE0
7FFFE0
7801E0
7801F0
F800F0
F000F0
F000F8
ENDCHAR
STARTCHAR 00C2
ENCODING 194
SWIDTH 660 0
DWIDTH 22 0
BBX 21 32 1 0
BITMAP
00F000
01F800
03FC00
079E00
070F00
080000
000000
000000
01F800
01FC00
03FC00
03FC00
03FE00
07DE00
079E00
079E00
078F00
0F0F00
0F0F00
0F0780
1E0780
1E0780
1E03C0
3FFFC0
3FFFC0
3FFFE0
7FFFE0
7801E0
7801F0
F800F0
F000F0
F000F8
ENDCHAR
STARTCHAR 00C3
ENCODING 195
SWIDTH 660 0
DWIDTH 22 0
BBX 21 33 1 0
BITMAP
038000
07E700
0FF700
0EFF00
0E3F00
001E00
000000
000000
000000
01F800
01FC00
03FC00
03FC00
03FE00
07DE00
079E00
079E00
078F00
0F0F00
0F0F00
0F0780
1E0780
1E0780
1E03C0
3FFFC0
3FFFC0
3FFFE0
7FFFE0
7801E0
7801F0
F800F0
F000F0
F000F8
ENDCHAR
STARTCHAR 00C4
ENCODING 196
SWIDTH 660 0
DWIDTH 22 0
BBX 21 31 1 0
BITMAP
078E00
078E00
078E00
078E00
000000
000000
000000
01F800
01FC00
03FC00
03FC00
03FE00
07DE00
079E00
079E00
078F00
0F0F00
0F0F00
0F0780
1E0780
1E0780
1E03C0
3FFFC0
3FFFC0
3FFFE0
7FFFE0
7801E0
7801F0
F800F0
F000F0
F000F8
ENDCHAR
STARTCHAR 00C5
ENCODING 197
SWIDTH 660 0
DWIDTH 22 0
BBX 21 34 1 0
BITMAP
01F800
01FC00
039C00
030C00
038C00
03FC00
01F800
00F000
000000
000000
01F800
01FC00
03FC00
03FC00
03FE00
07DE00
079E00
079E00
078F00
0F0F00
0F0F00
0F0780
1E0780
1E0780
1E03C0
3FFFC0
3FFFC0
3FFFE0
7FFFE0
7801E0
7801F0
F800F0
F000F0
F000F8
ENDCHAR
STARTCHAR 00C6
ENCODING 198
SWIDTH 930 0
DWIDTH 31 0
BBX 29 24 1 0
BITMAP
01FFFFF8
01FFFFF8
03FFFFF8
03FFFFF8
03C78000
07C78000
07878000
07878000
07878000
0F078000
0F07FFE0
0F07FFE0
1E07FFE0
1E07FFE0
1E078000
3FFF8000
3FFF8000
3FFF8000
7FFF8000
78078000
7807FFF8
F807FFF8
F007FFF8
F007FFF8
ENDCHAR
STARTCHAR 00C7
ENCODING 199
SWIDTH 750 0
DWIDTH 25 0
BBX 22 32 1 -8
BITMAP
00FE00
07FF80
0FFFE0
1FFFF0
3F01F8
3E00F8
7C007C
78003C
F80000
F00000
F00000
F00000
F00000
F00000
F00000
F80000
780038
7C007C
7C007C
3F01F8
1FFFF0
0FFFE0
07FFC0
01FE00
003800
003800
003C00
000E00
000E00
007C00
007C00
003000
ENDCHAR
STARTCHAR 00C8
ENCODING 200
SWIDTH 600 0
DWIDTH 20 0
BBX 16 33 2 0
BITMAP
0E00
0700
0700
0380
0380
03C0
0000
0000
0000
FFFF
FFFF
FFFF
FFFF
F000
F000
F000
F000
F000
F000
FFFC
FFFC
FFFC
FFFC
F000
F000
F000
F000
F000
F000
FFFF
FFFF
FFFF
FFFF
ENDCHAR
STARTCHAR 00C9
ENCODING 201
SWIDTH 600 0
DWIDTH 20 0
BBX 16 33 2 0
BITMAP
0078
0070
0070
00E0
00E0
01C0
0000
0000
0000
FFFF
FFFF
FFFF
FFFF
F000
F000
F000
F000
F000
F000
FFFC
FFFC
FFFC
FFFC
F000
F000
F000
F000
F000
F000
FFFF
FFFF
FFFF
FFFF
ENDCHAR
STARTCHAR 00CA
ENCODING 202
SWIDTH 600 0
DWIDTH 20 0
BBX 16 32 2 0
BITMAP
03C0
07E0
0FF0
1E78
3C38
0004
0000
0000
FFFF
FFFF
FFFF
FFFF
F000
F000
F000
F000
F000
F000
FFFC
FFFC
FFFC
FFFC
F000
F000
F000
F000
F000
F000
FFFF
FFFF
FFFF
FFFF
ENDCHAR
STARTCHAR 00CB
ENCODING 203
SWIDTH 600 0
DWIDTH 20 0
BBX 16 31 2 0
BITMAP
1C38
1C38
1C38
1C38
0000
0000
0000
FFFF
FFFF
FFFF
FFFF
F000
F000
F000
F000
F000
F000
FFFC
FFFC
FFFC
FFFC
F000
F000
F000
F000
F000
F000
FFFF
FFFF
FFFF
FFFF
ENDCHAR
STARTCHAR 00CC
ENCODING 204
SWIDTH 270 0
DWIDTH 9 0
BBX 6 33 1 0
BITMAP
E0
E0
70
70
70
38
00
00
00
3C
3C
3C
3C
3C
3C
3C
3C
3C
3C
3C
3C
3C
3C
3C
3C
3C
3C
3C
3C
3C
3C
3C
3C
ENDCHAR
STARTCHAR 00CD
ENCODING 205
SWIDTH 270 0
DWIDTH 9 0
BBX 6 33 3 0
BITMAP
1C
38
38
70
70
F0
00
00
00
F0
F0
F0
F0
F0
F0
F0
F0
F0
F0
F0
F0
F0
F0
F0
F0
F0
F0
F0
F0
F0
F0
F0
F0
ENDCHAR
STARTCHAR 00CE
ENCODING 206
SWIDTH 270 0
DWIDTH 9 0
BBX 11 32 -1 0
BITMAP
1F00
1F80
3B80
79C0
F1E0
0000
0000
0000
0F00
0F00
0F00
0F00
0F00
0F00
0F00
0F00
0F00
0F00
0F00
0F00
0F00
0F00
0F00
0F00
0F00
0F00
0F00
0F00
0F00
0F00
0F00
0F00
ENDCHAR
STARTCHAR 00CF
ENCODING 207
SWIDTH 270 0
DWIDTH 9 0
BBX 11 31 -1 0
BITMAP
F1E0
F1E0
F1E0
F1E0
0000
0000
0000
0F00
0F00
0F00
0F00
0F00
0F00
0F00
0F00
0F00
0F00
0F00
0F00
0F00
0F00
0F00
0F00
0F00
0F00
0F00
0F00
0F00
0F00
0F00
0F00
ENDCHAR
STARTCHAR 00D0
ENCODING 208
SWIDTH 690 0
DWIDTH 23 0
BBX 22 24 0 0
BITMAP
3FFC00
3FFF80
3FFFC0
3FFFE0
3C03F0
3C00F0
3C00F8
3C0078
3C0078
3C007C
FFF07C
FFF07C
FFF07C
3C007C
3C007C
3C0078
3C0078
3C00F8
3C01F0
3C03F0
3FFFE0
3FFFC0
3FFF80
3FFE00
ENDCHAR
STARTCHAR 00D1
ENCODING 209
SWIDTH 720 0
DWIDTH 24 0
BBX 20 32 2 0
BITMAP
038700
07E700
07FF00
0E3F00
061E00
000000
000000
000000
F800F0
F800F0
FC00F0
FE00F0
FE00F0
FF00F0
FF80F0
F780F0
F7C0F0
F3E0F0
F1E0F0
F1F0F0
F0F8F0
F078F0
F07CF0
F03EF0
F01EF0
F01FF0
F00FF0
F007F0
F007F0
F003F0
F001F0
F001F0
ENDCHAR
STARTCHAR 00D2
ENCODING 210
SWIDTH 750 0
DWIDTH 25 0
BBX 23 32 1 0
BITMAP
01C000
00E000
00E000
007000
007000
007000
000000
000000
00FE00
07FFC0
0FFFE0
1FFFF0
3F01F8
7E00F8
7C007C
78003C
F8003E
F0003E
F0001E
F0001E
F0001E
F0001E
F0003E
F8003E
78003C
7C007C
7E00F8
3F01F8
1FFFF0
0FFFE0
07FFC0
00FE00
ENDCHAR
STARTCHAR 00D3
ENCODING 211
SWIDTH 750 0
DWIDTH 25 0
BBX 23 32 1 0
BITMAP
000E00
000E00
000E00
001C00
001C00
003800
000000
000000
00FE00
07FFC0
0FFFE0
1FFFF0
3F01F8
7E00F8
7C007C
78003C
F8003E
F0003E
F0001E
F0001E
F0001E
F0001E
F0003E
F8003E
78003C
7C007C
7E00F8
3F01F8
1FFFF0
0FFFE0
07FFC0
00FE00
ENDCHAR
STARTCHAR 00D4
ENCODING 212
SWIDTH 750 0
DWIDTH 25 0
BBX 23 31 1 0
BITMAP
007C00
00FE00
01EE00
03C700
038780
000000
000000
00FE00
07FFC0
0FFFE0
1FFFF0
3F01F8
7E00F8
7C007C
78003C
F8003E
F0003E
F0001E
F0001E
F0001E
F0001E
F0003E
F8003E
78003C
7C007C
7E00F8
3F01F8
1FFFF0
0FFFE0
07FFC0
00FE00
ENDCHAR
STARTCHAR 00D5
ENCODING 213
SWIDTH 750 0
DWIDTH 25 0
BBX 23 31 1 0
BITMAP
01E180
03F1C0
03FF80
039F80
038700
000000
000000
00FE00
07FFC0
0FFFE0
1FFFF0
3F01F8
7E00F8
7C007C
78003C
F8003E
F0003E
F0001E
F0001E
F0001E
F0001E
F0003E
F8003E
78003C
7C007C
7E00F8
3F01F8
1FFFF0
0FFFE0
07FFC0
00FE00
ENDCHAR
STARTCHAR 00D6
ENCODING 214
SWIDTH 750 0
DWIDTH 25 0
BBX 23 30 1 0
BITMAP
03C780
03C780
03C780
03C780
000000
000000
00FE00
07FFC0
0FFFE0
1FFFF0
3F01F8
7E00F8
7C007C
78003C
F8003E
F0003E
F0001E
F0001E
F0001E
F0001E
F0003E
F8003E
78003C
7C007C
7E00F8
3F01F8
1FFFF0
0FFFE0
07FFC0
00FE00
ENDCHAR
STARTCHAR 00D7
ENCODING 215
SWIDTH 510 0
DWIDTH 17 0
BBX 13 13 2 5
BITMAP
2020
7070
F8F8
7DF0
3FE0
1FC0
0F80
1FC0
3FE0
7DF0
F8F8
7070
2020
ENDCHAR
STARTCHAR 00D8
ENCODING 216
SWIDTH 750 0
DWIDTH 25 0
BBX 23 24 1 0
BITMAP
00FE08
07FFDC
0FFFFE
1FFFFC
3F01F8
7E01FC
7C03FC
7803FC
F807FE
F00FBE
F01F1E
F03E1E
F07C1E
F0F81E
F1F03E
FBE03E
7FC03C
7F807C
3F00F8
3F01F8
7FFFF0
FFFFE0
7FFFC0
10FE00
ENDCHAR
STARTCHAR 00D9
ENCODING 217
SWIDTH 720 0
DWIDTH 24 0
BBX 20 33 2 0
BITMAP
038000
01C000
01C000
00E000
00E000
00E000
000000
000000
000000
F000F0
F000F0
F000F0
F000F0
F000F0
F000F0
F000F0
F000F0
F000F0
F000F0
F000F0
F000F0
F000F0
F000F0
F000F0
F000F0
F801F0
7801E0
7C03E0
7E07C0
3FFFC0
1FFF80
0FFF00
01FC00
ENDCHAR
STARTCHAR 00DA
ENCODING 218
SWIDTH 720 0
DWIDTH 24 0
BBX 20 33 2 0
BITMAP
001C00
003800
003800
003800
007000
007000
000000
000000
000000
F000F0
F000F0
F000F0
F000F0
F000F0
F000F0
F000F0
F000F0
F000F0
F000F0
F000F0
F000F0
F000F0
F000F0
F000F0
F000F0
F801F0
7801E0
7C03E0
7E07C0
3FFFC0
1FFF80
0FFF00
01FC00
ENDCHAR
STARTCHAR 00DB
ENCODING 219
SWIDTH 720 0
DWIDTH 24 0
BBX 20 32 2 0
BITMAP
00F000
01F800
03FC00
079E00
0F0F00
000000
000000
000000
F000F0
F000F0
F000F0
F000F0
F000F0
F000F0
F000F0
F000F0
F000F0
F000F0
F000F0
F000F0
F000F0
F000F0
F000F0
F000F0
F801F0
7801E0
7C03E0
7E07C0
3FFFC0
1FFF80
0FFF00
01FC00
ENDCHAR
STARTCHAR 00DC
ENCODING 220
SWIDTH 720 0
DWIDTH 24 0
BBX 20 31 2 0
BITMAP
070E00
070E00
070E00
070E00
000000
000000
000000
F000F0
F000F0
F000F0
F000F0
F000F0
F000F0
F000F0
F000F0
F000F0
F000F0
F000F0
F000F0
F000F0
F000F0
F000F0
F000F0
F801F0
7801E0
7C03E0
7E07C0
3FFFC0
1FFF80
0FFF00
01FC00
ENDCHAR
STARTCHAR 00DD
ENCODING 221
SWIDTH 600 0
DWIDTH 20 0
BBX 20 33 0 0
BITMAP
001C00
001C00
003800
003800
007000
007000
000000
000000
000000
F801F0
7C01F0
7C03E0
3E03C0
1E07C0
1F0780
0F0F80
0F9F00
07DE00
07FE00
03FC00
01FC00
01F800
00F800
00F000
00F000
00F000
00F000
00F000
00F000
00F000
00F000
00F000
00F000
ENDCHAR
STARTCHAR 00DE
ENCODING 222
SWIDTH 630 0
DWIDTH 21 0
BBX 18 24 2 0
BITMAP
F00000
F00000
F00000
F00000
FFF000
FFFC00
FFFF00
FFFF00
F00F80
F007C0
F003C0
F003C0
F003C0
F003C0
F007C0
F00F80
FFFF80
FFFF00
FFFC00
FFF000
F00000
F00000
F00000
F00000
ENDCHAR
STARTCHAR 00DF
ENCODING 223
SWIDTH 630 0
DWIDTH 21 0
BBX 17 24 2 0
BITMAP
07E000
1FF800
3FFC00
7FFC00
783E00
F81E00
F01E00
F01E00
F03E00
F0FC00
F0F800
F0FE00
F0FF00
F01F00
F00F80
F00780
F00780
F00780
F00780
F01F80
F3FF00
F3FF00
F3FE00
F3F800
ENDCHAR
STARTCHAR 00E0
ENCODING 224
SWIDTH 570 0
DWIDTH 19 0
BBX 16 26 1 0
BITMAP
0700
0700
0380
0380
01C0
01C0
0000
0000
07F0
1FFC
3FFE
3FFF
7C1F
180F
000F
01FF
1FFF
3FFF
7F0F
780F
F00F
F01F
7C7F
7FF7
3FE7
0F87
ENDCHAR
STARTCHAR 00E1
ENCODING 225
SWIDTH 570 0
DWIDTH 19 0
BBX 16 26 1 0
BITMAP
0038
0070
0070
00E0
00E0
00E0
0000
0000
07F0
1FFC
3FFE
3FFF
7C1F
180F
000F
01FF
1FFF
3FFF
7F0F
780F
F00F
F01F
7C7F
7FF7
3FE7
0F87
ENDCHAR
STARTCHAR 00E2
ENCODING 226
SWIDTH 570 0
DWIDTH 19 0
BBX 16 25 1 0
BITMAP
03E0
03F0
0778
0F3C
1E1E
0000
0000
07F0
1FFC
3FFE
3FFF
7C1F
180F
000F
01FF
1FFF
3FFF
7F0F
780F
F00F
F01F
7C7F
7FF7
3FE7
1F87
ENDCHAR
STARTCHAR 00E3
ENCODING 227
SWIDTH 570 0
DWIDTH 19 0
BBX 16 25 1 0
BITMAP
070E
0FCE
1FFE
1CFE
1C3C
0000
0000
07F0
1FFC
3FFE
3FFF
7C1F
180F
000F
01FF
1FFF
3FFF
7F8F
780F
F00F
F01F
7C7F
7FF7
3FE7
0F87
ENDCHAR
STARTCHAR 00E4
ENCODING 228
SWIDTH 570 0
DWIDTH 19 0
BBX 16 24 1 0
BITMAP
0E3C
0E3C
0E3C
0E3C
0000
0000
07F0
1FFC
3FFE
3FFF
7C1F
180F
000F
01FF
1FFF
3FFF
7F0F
780F
F00F
F01F
7C7F
7FF7
3FE7
1F87
ENDCHAR
STARTCHAR 00E5
ENCODING 229
SWIDTH 570 0
DWIDTH 19 0
BBX 16 28 1 0
BITMAP
01E0
03F0
07F8
0638
0618
0738
07F0
03F0
0000
0000
07F0
1FFC
3FFE
3FFF
7C1F
180F
000F
01FF
1FFF
3FFF
7F0F
780F
F00F
F01F
7C7F
7FF7
3FE7
0F87
ENDCHAR
STARTCHAR 00E6
ENCODING 230
SWIDTH 930 0
DWIDTH 31 0
BBX 29 18 1 0
BITMAP
03F03F00
0FFCFFC0
1FFFFFE0
3FFFFFE0
7C1FC0F0
180F8070
000F8078
01FFFFF8
1FFFFFF8
3FFFFFF8
7E0F8000
F80F8000
F00F80E0
F01FC1F0
7C7FFFF0
7FF9FFE0
3FF0FFC0
0FC03F00
ENDCHAR
STARTCHAR 00E7
ENCODING 231
SWIDTH 570 0
DWIDTH 19 0
BBX 17 26 1 -8
BITMAP
03F000
0FFC00
1FFE00
3FFF00
7E0F80
7C0780
780400
F80000
F80000
F80000
F80000
780000
780700
7C0F80
3FFF00
1FFF00
0FFE00
03F800
00C000
01E000
01F000
007000
007000
01F000
03E000
01C000
ENDCHAR
STARTCHAR 00E8
ENCODING 232
SWIDTH 600 0
DWIDTH 20 0
BBX 18 26 1 0
BITMAP
038000
038000
038000
01C000
01C000
00E000
000000
000000
03F000
0FFC00
1FFE00
3FFF00
7C0F80
780780
780780
FFFFC0
FFFFC0
FFFFC0
F80000
780000
780700
7E0F80
3FFF80
1FFF00
0FFE00
03F000
ENDCHAR
STARTCHAR 00E9
ENCODING 233
SWIDTH 600 0
DWIDTH 20 0
BBX 18 26 1 0
BITMAP
003800
003800
003800
007000
007000
00E000
000000
000000
03F000
0FFC00
1FFE00
3FFF00
7C0F80
780780
780780
FFFFC0
FFFFC0
FFFFC0
F80000
780000
780700
7E0F80
3FFF80
1FFF00
0FFE00
03F000
ENDCHAR
STARTCHAR 00EA
ENCODING 234
SWIDTH 600 0
DWIDTH 20 0
BBX 18 25 1 0
BITMAP
01F000
03F000
07B800
0F3C00
1E1E00
000000
000000
03F000
0FFC00
1FFE00
3FFF00
7C0F80
780780
780780
FFFFC0
FFFFC0
FFFFC0
F80000
780000
780700
7E0F80
3FFF80
1FFF00
0FFE00
03F000
ENDCHAR
STARTCHAR 00EB
ENCODING 235
SWIDTH 600 0
DWIDTH 20 0
BBX 18 24 1 0
BITMAP
0F1E00
0F1E00
0F1E00
0F1E00
000000
000000
03F000
0FFC00
1FFE00
3FFF00
7C0F80
780780
780780
FFFFC0
FFFFC0
FFFFC0
F80000
780000
780700
7E0F80
3FFF80
1FFF00
0FFE00
03F000
ENDCHAR
STARTCHAR 00EC
ENCODING 236
SWIDTH 270 0
DWIDTH 9 0
BBX 6 27 1 0
BITMAP
E0
E0
F0
70
70
38
00
00
00
3C
3C
3C
3C
3C
3C
3C
3C
3C
3C
3C
3C
3C
3C
3C
3C
3C
3C
ENDCHAR
STARTCHAR 00ED
ENCODING 237
SWIDTH 270 0
DWIDTH 9 0
BBX 6 27 3 0
BITMAP
1C
38
38
70
70
70
00
00
00
F0
F0
F0
F0
F0
F0
F0
F0
F0
F0
F0
F0
F0
F0
F0
F0
F0
F0
ENDCHAR
STARTCHAR 00EE
ENCODING 238
SWIDTH 270 0
DWIDTH 9 0
BBX 12 26 -1 0
BITMAP
0F00
1F80
3FC0
79E0
F0E0
0010
0000
0000
0F00
0F00
0F00
0F00
0F00
0F00
0F00
0F00
0F00
0F00
0F00
0F00
0F00
0F00
0F00
0F00
0F00
0F00
ENDCHAR
STARTCHAR 00EF
ENCODING 239
SWIDTH 270 0
DWIDTH 9 0
BBX 11 24 -1 0
BITMAP
F1E0
F1E0
F1E0
F1E0
0000
0000
0F00
0F00
0F00
0F00
0F00
0F00
0F00
0F00
0F00
0F00
0F00
0F00
0F00
0F00
0F00
0F00
0F00
0F00
ENDCHAR
STARTCHAR 00F0
ENCODING 240
SWIDTH 600 0
DWIDTH 20 0
BBX 18 26 1 0
BITMAP
000800
03DC00
03FC00
03FC00
007C00
00FE00
00EF00
004700
008780
07FB80
1FFF80
3FFF80
7E1F80
780F80
780780
F807C0
F007C0
F007C0
F00780
780780
780780
7C0F80
3FFF00
1FFE00
0FFC00
03F000
ENDCHAR
STARTCHAR 00F1
ENCODING 241
SWIDTH 630 0
DWIDTH 21 0
BBX 17 26 2 0
BITMAP
0E0C00
1F8C00
1FFC00
18FC00
187800
000000
000000
01F000
F7FC00
FFFE00
FFFF00
FE1F00
F80F00
F80F80
F80F80
F00780
F00780
F00780
F00780
F00780
F00780
F00780
F00780
F00780
F00780
F00780
ENDCHAR
STARTCHAR 00F2
ENCODING 242
SWIDTH 630 0
DWIDTH 21 0
BBX 18 26 1 0
BITMAP
070000
038000
038000
01C000
01C000
01C000
000000
000000
03F000
0FFC00
1FFF00
3FFF80
7E0F80
7C07C0
7803C0
F803C0
F803C0
F803C0
F803C0
7803C0
7807C0
7E0F80
3FFF80
1FFF00
0FFE00
03F800
ENDCHAR
STARTCHAR 00F3
ENCODING 243
SWIDTH 630 0
DWIDTH 21 0
BBX 18 26 1 0
BITMAP
003800
003800
007000
007000
00E000
00E000
000000
000000
03F000
0FFC00
1FFF00
3FFF80
7E0F80
7C07C0
7803C0
F803C0
F803C0
F803C0
F803C0
7803C0
7807C0
7E0F80
3FFF80
1FFF00
0FFE00
03F800
ENDCHAR
STARTCHAR 00F4
ENCODING 244
SWIDTH 630 0
DWIDTH 21 0
BBX 18 25 1 0
BITMAP
01F000
03F000
07B800
0F3C00
1E1E00
000000
000000
03F000
0FFC00
1FFF00
3FFF80
7E0F80
7C07C0
7803C0
F803C0
F803C0
F803C0
F803C0
7803C0
7807C0
7E0F80
3FFF80
1FFF00
0FFE00
03F800
ENDCHAR
STARTCHAR 00F5
ENCODING 245
SWIDTH 630 0
DWIDTH 21 0
BBX 18 25 1 0
BITMAP
070E00
0FCE00
1FFE00
1C7E00
0C3C00
000000
000000
03F000
0FFC00
1FFF00
3FFF80
7E0F80
7C07C0
7803C0
F803C0
F803C0
F803C0
F803C0
7803C0
7807C0
7E0F80
3FFF80
1FFF00
0FFE00
03F800
ENDCHAR
STARTCHAR 00F6
ENCODING 246
SWIDTH 630 0
DWIDTH 21 0
BBX 18 24 1 0
BITMAP
0F1E00
0F1E00
0F1E00
0F1E00
000000
000000
03F000
0FFC00
1FFF00
3FFF80
7E0F80
7C07C0
7803C0
F803C0
F803C0
F803C0
F803C0
7803C0
7807C0
7E0F80
3FFF80
1FFF00
0FFE00
03F800
ENDCHAR
STARTCHAR 00F7
ENCODING 247
SWIDTH 540 0
DWIDTH 18 0
BBX 14 14 2 5
BITMAP
0780
0780
0780
0780
0000
FFFC
FFFC
FFFC
0000
0000
0780
0780
0780
0780
ENDCHAR
STARTCHAR 00F8
ENCODING 248
SWIDTH 630 0
DWIDTH 21 0
BBX 19 18 1 0
BITMAP
03F080
0FFDC0
1FFFE0
3FFFC0
7E0F80
7C1FC0
783FC0
F87BC0
F8F3C0
F9E3C0
FBC3C0
7F83C0
7F07C0
7E0F80
7FFF80
FFFF00
7FFC00
23F000
ENDCHAR
STARTCHAR 00F9
ENCODING 249
SWIDTH 630 0
DWIDTH 21 0
BBX 17 28 2 -1
BITMAP
0E0000
070000
070000
038000
038000
038000
000000
000000
000000
F00F80
F00F80
F00F80
F00F80
F00F80
F00F80
F00F80
F00F80
F00F80
F00F80
F00F80
F00F80
F80F80
F81F80
7C3F80
7FFF80
3FFF80
1FF780
07C000
ENDCHAR
STARTCHAR 00FA
ENCODING 250
SWIDTH 630 0
DWIDTH 21 0
BBX 17 28 2 -1
BITMAP
007000
007000
00E000
00E000
01C000
01C000
000000
000000
000000
F00F80
F00F80
F00F80
F00F80
F00F80
F00F80
F00F80
F00F80
F00F80
F00F80
F00F80
F00F80
F80F80
F81F80
7C3F80
7FFF80
3FFF80
1FF780
07C000
ENDCHAR
STARTCHAR 00FB
ENCODING 251
SWIDTH 630 0
DWIDTH 21 0
BBX 17 27 2 -1
BITMAP
03C000
07E000
0FF000
1E7800
1C3C00
200000
000000
000000
F00F80
F00F80
F00F80
F00F80
F00F80
F00F80
F00F80
F00F80
F00F80
F00F80
F00F80
F00F80
F80F80
F81F80
7C3F80
7FFF80
3FFF80
1FF780
07C000
ENDCHAR
STARTCHAR 00FC
ENCODING 252
SWIDTH 630 0
DWIDTH 21 0
BBX 17 25 2 -1
BITMAP
1E3C00
1E3C00
1E3C00
1E3C00
000000
000000
F00F80
F00F80
F00F80
F00F80
F00F80
F00F80
F00F80
F00F80
F00F80
F00F80
F00F80
F00F80
F80F80
F81F80
7C3F80
7FFF80
3FFF80
1FF780
07C000
ENDCHAR
STARTCHAR 00FD
ENCODING 253
SWIDTH 570 0
DWIDTH 19 0
BBX 17 35 1 -8
BITMAP
007800
007000
007000
00E000
00E000
01C000
000000
000000
000000
F00780
F00780
F80780
780F00
780F00
3C1E00
3C1E00
3E1E00
1E3C00
1E3C00
0F7800
0F7800
0F7800
07F000
07F000
03E000
03E000
03E000
03C000
03C000
03C000
078000
078000
070000
0F0000
0F0000
ENDCHAR
STARTCHAR 00FE
ENCODING 254
SWIDTH 630 0
DWIDTH 21 0
BBX 17 32 2 -8
BITMAP
F00000
F00000
F00000
F00000
F00000
F00000
F3F000
FFFC00
FFFE00
FFFF00
F81F00
F80F80
F00F80
F00780
F00780
F00780
F00780
F00780
F80F80
F81F00
FFFF00
FFFE00
FFFC00
F3F000
F00000
F00000
F00000
F00000
F00000
F00000
F00000
F00000
ENDCHAR
STARTCHAR 00FF
ENCODING 255
SWIDTH 570 0
DWIDTH 19 0
BBX 17 32 1 -8
BITMAP
1E3C00
1E3C00
1E3C00
1E3C00
000000
000000
F00780
F00780
F80780
780F00
780F00
3C1E00
3C1E00
3E1E00
1E3C00
1E3C00
0F7800
0F7800
0F7800
07F000
07F000
03E000
03E000
03E000
03C000
03C000
03C000
078000
078000
070000
0F0000
0F0000
ENDCHAR
ENDFONT
