STARTFONT 2.1
COMMENT
COMMENT Converted from OpenType font "manrope-regular.otf" by "otf2bdf 3.0".
COMMENT
FONT -FreeType-Manrope-Medium-R-Normal--18-130-100-100-P-83-ISO10646-1
SIZE 13 100 100
FONTBOUNDINGBOX 17 22 0 -4
STARTPROPERTIES 19
FOUNDRY "FreeType"
FAMILY_NAME "Manrope"
WEIGHT_NAME "Medium"
SLANT "R"
SETWIDTH_NAME "Normal"
ADD_STYLE_NAME ""
PIXEL_SIZE 18
POINT_SIZE 130
RESOLUTION_X 100
RESOLUTION_Y 100
SPACING "P"
AVERAGE_WIDTH 83
CHARSET_REGISTRY "ISO10646"
CHARSET_ENCODING "1"
FONT_ASCENT 19
FONT_DESCENT 5
COPYRIGHT "Copyright 2019-2021 The Manrope Project Authors (https://github.com/sharanda/manrope)"
_OTF_FONTFILE "manrope-regular.otf"
_OTF_PSNAME "Manrope-Regular"
ENDPROPERTIES
CHARS 191
STARTCHAR 0020
ENCODING 32
SWIDTH 221 0
DWIDTH 4 0
BBX 0 0 0 0
BITMAP
ENDCHAR
STARTCHAR 0021
ENCODING 33
SWIDTH 332 0
DWIDTH 6 0
BBX 1 13 2 0
BITMAP
80
80
80
80
80
80
80
80
80
80
00
00
80
ENDCHAR
STARTCHAR 0022
ENCODING 34
SWIDTH 387 0
DWIDTH 7 0
BBX 4 3 1 10
BITMAP
90
90
90
ENDCHAR
STARTCHAR 0023
ENCODING 35
SWIDTH 941 0
DWIDTH 17 0
BBX 14 13 1 0
BITMAP
0230
0220
0220
0620
7FFC
0440
0C40
0840
FFF8
0880
1880
1180
1100
ENDCHAR
STARTCHAR 0024
ENCODING 36
SWIDTH 609 0
DWIDTH 11 0
BBX 9 17 1 -2
BITMAP
0800
0800
3E00
6300
C180
8080
C000
7000
1E00
0300
0080
8080
C180
6300
3E00
0800
0800
ENDCHAR
STARTCHAR 0025
ENCODING 37
SWIDTH 886 0
DWIDTH 16 0
BBX 14 13 1 0
BITMAP
3808
4C18
8630
8660
C4C0
7980
0300
0678
0CCC
1884
3084
60CC
4078
ENDCHAR
STARTCHAR 0026
ENCODING 38
SWIDTH 664 0
DWIDTH 12 0
BBX 10 13 1 0
BITMAP
3E00
6300
4000
4000
4000
6000
7000
C880
8680
8380
C180
63C0
3E40
ENDCHAR
STARTCHAR 0027
ENCODING 39
SWIDTH 221 0
DWIDTH 4 0
BBX 1 3 1 10
BITMAP
80
80
80
ENDCHAR
STARTCHAR 0028
ENCODING 40
SWIDTH 443 0
DWIDTH 8 0
BBX 4 18 3 -3
BITMAP
10
20
60
40
C0
80
80
80
80
80
80
80
80
80
40
40
20
30
ENDCHAR
STARTCHAR 0029
ENCODING 41
SWIDTH 443 0
DWIDTH 8 0
BBX 4 18 1 -3
BITMAP
80
C0
40
20
20
30
10
10
10
10
10
10
30
20
20
60
40
80
ENDCHAR
STARTCHAR 002A
ENCODING 42
SWIDTH 443 0
DWIDTH 8 0
BBX 6 6 1 7
BITMAP
20
20
FC
30
50
48
ENDCHAR
STARTCHAR 002B
ENCODING 43
SWIDTH 553 0
DWIDTH 10 0
BBX 8 9 1 2
BITMAP
08
08
08
08
FF
08
08
08
08
ENDCHAR
STARTCHAR 002C
ENCODING 44
SWIDTH 276 0
DWIDTH 5 0
BBX 2 4 1 -2
BITMAP
C0
C0
40
80
ENDCHAR
STARTCHAR 002D
ENCODING 45
SWIDTH 443 0
DWIDTH 8 0
BBX 6 1 1 5
BITMAP
FC
ENDCHAR
STARTCHAR 002E
ENCODING 46
SWIDTH 276 0
DWIDTH 5 0
BBX 1 2 2 0
BITMAP
80
80
ENDCHAR
STARTCHAR 002F
ENCODING 47
SWIDTH 387 0
DWIDTH 7 0
BBX 5 13 1 0
BITMAP
18
18
10
10
30
20
20
20
60
40
40
C0
C0
ENDCHAR
STARTCHAR 0030
ENCODING 48
SWIDTH 609 0
DWIDTH 11 0
BBX 9 13 1 0
BITMAP
3E00
6300
4100
C180
C180
C180
C180
C180
C180
C180
4100
6300
3E00
ENDCHAR
STARTCHAR 0031
ENCODING 49
SWIDTH 387 0
DWIDTH 7 0
BBX 4 13 1 0
BITMAP
30
F0
90
10
10
10
10
10
10
10
10
10
10
ENDCHAR
STARTCHAR 0032
ENCODING 50
SWIDTH 553 0
DWIDTH 10 0
BBX 8 13 1 0
BITMAP
3C
66
C1
81
01
01
03
06
0C
10
60
C0
FF
ENDCHAR
STARTCHAR 0033
ENCODING 51
SWIDTH 553 0
DWIDTH 10 0
BBX 8 13 1 0
BITMAP
FF
03
04
08
30
3C
06
03
01
03
83
C6
3C
ENDCHAR
STARTCHAR 0034
ENCODING 52
SWIDTH 609 0
DWIDTH 11 0
BBX 9 13 1 0
BITMAP
0800
0800
1800
1000
3000
2200
6200
4200
C200
FF80
0200
0200
0200
ENDCHAR
STARTCHAR 0035
ENCODING 53
SWIDTH 553 0
DWIDTH 10 0
BBX 8 13 1 0
BITMAP
7F
40
40
C0
C0
FE
C3
01
01
01
C1
66
3C
ENDCHAR
STARTCHAR 0036
ENCODING 54
SWIDTH 609 0
DWIDTH 11 0
BBX 9 13 1 0
BITMAP
1E00
7300
4100
C000
C000
FE00
E300
C180
C080
C080
4180
6300
1E00
ENDCHAR
STARTCHAR 0037
ENCODING 55
SWIDTH 498 0
DWIDTH 9 0
BBX 7 13 1 0
BITMAP
FE
02
06
04
0C
08
08
18
10
30
20
20
60
ENDCHAR
STARTCHAR 0038
ENCODING 56
SWIDTH 553 0
DWIDTH 10 0
BBX 8 13 1 0
BITMAP
3C
66
43
C1
43
66
3E
43
C1
81
C1
63
3C
ENDCHAR
STARTCHAR 0039
ENCODING 57
SWIDTH 609 0
DWIDTH 11 0
BBX 9 13 1 0
BITMAP
3E00
6300
C180
C080
8080
C180
6380
3E80
0080
0180
0180
6300
3E00
ENDCHAR
STARTCHAR 003A
ENCODING 58
SWIDTH 276 0
DWIDTH 5 0
BBX 2 8 2 1
BITMAP
C0
C0
00
00
00
00
C0
C0
ENDCHAR
STARTCHAR 003B
ENCODING 59
SWIDTH 332 0
DWIDTH 6 0
BBX 2 12 2 -2
BITMAP
C0
C0
00
00
00
00
00
00
C0
C0
40
80
ENDCHAR
STARTCHAR 003C
ENCODING 60
SWIDTH 609 0
DWIDTH 11 0
BBX 4 8 3 2
BITMAP
10
30
60
C0
80
40
20
10
ENDCHAR
STARTCHAR 003D
ENCODING 61
SWIDTH 775 0
DWIDTH 14 0
BBX 9 5 2 4
BITMAP
FF80
0000
0000
0000
FF80
ENDCHAR
STARTCHAR 003E
ENCODING 62
SWIDTH 609 0
DWIDTH 11 0
BBX 4 8 4 2
BITMAP
80
C0
60
30
10
20
40
80
ENDCHAR
STARTCHAR 003F
ENCODING 63
SWIDTH 498 0
DWIDTH 9 0
BBX 8 13 1 0
BITMAP
3C
46
82
03
02
06
0C
18
10
10
00
10
10
ENDCHAR
STARTCHAR 0040
ENCODING 64
SWIDTH 886 0
DWIDTH 16 0
BBX 14 14 1 -2
BITMAP
07C0
1870
3010
6008
400C
47C4
CCC4
C844
4CCC
47F8
6000
2000
1840
07C0
ENDCHAR
STARTCHAR 0041
ENCODING 65
SWIDTH 609 0
DWIDTH 11 0
BBX 10 13 1 0
BITMAP
0C00
1C00
1400
1600
3200
2200
2300
6100
4180
7F80
C080
80C0
8040
ENDCHAR
STARTCHAR 0042
ENCODING 66
SWIDTH 609 0
DWIDTH 11 0
BBX 10 13 1 0
BITMAP
FE00
C300
C180
C080
C180
C300
FF00
C180
C080
C0C0
C080
C180
FF00
ENDCHAR
STARTCHAR 0043
ENCODING 67
SWIDTH 720 0
DWIDTH 13 0
BBX 11 13 1 0
BITMAP
1F00
71C0
4040
C060
8000
8000
8000
8000
8000
C060
4040
71C0
1F00
ENDCHAR
STARTCHAR 0044
ENCODING 68
SWIDTH 664 0
DWIDTH 12 0
BBX 10 13 1 0
BITMAP
FE00
C380
C080
C0C0
C040
C040
C040
C040
C040
C0C0
C080
C380
FE00
ENDCHAR
STARTCHAR 0045
ENCODING 69
SWIDTH 553 0
DWIDTH 10 0
BBX 8 13 1 0
BITMAP
FF
C0
C0
C0
C0
C0
FE
C0
C0
C0
C0
C0
FF
ENDCHAR
STARTCHAR 0046
ENCODING 70
SWIDTH 498 0
DWIDTH 9 0
BBX 8 13 1 0
BITMAP
FF
C0
C0
C0
C0
C0
FE
C0
C0
C0
C0
C0
C0
ENDCHAR
STARTCHAR 0047
ENCODING 71
SWIDTH 720 0
DWIDTH 13 0
BBX 11 13 1 0
BITMAP
1F00
71C0
C040
C040
8000
8000
81E0
8020
8020
C060
4040
71C0
1F00
ENDCHAR
STARTCHAR 0048
ENCODING 72
SWIDTH 664 0
DWIDTH 12 0
BBX 10 13 1 0
BITMAP
C040
C040
C040
C040
C040
C040
FFC0
C040
C040
C040
C040
C040
C040
ENDCHAR
STARTCHAR 0049
ENCODING 73
SWIDTH 221 0
DWIDTH 4 0
BBX 2 13 1 0
BITMAP
C0
C0
C0
C0
C0
C0
C0
C0
C0
C0
C0
C0
C0
ENDCHAR
STARTCHAR 004A
ENCODING 74
SWIDTH 443 0
DWIDTH 8 0
BBX 7 13 0 0
BITMAP
02
02
02
02
02
02
02
02
02
02
86
4C
38
ENDCHAR
STARTCHAR 004B
ENCODING 75
SWIDTH 609 0
DWIDTH 11 0
BBX 9 13 1 0
BITMAP
C180
C300
C600
CC00
D800
F000
E000
D000
C800
C400
C200
C100
C180
ENDCHAR
STARTCHAR 004C
ENCODING 76
SWIDTH 498 0
DWIDTH 9 0
BBX 8 13 1 0
BITMAP
C0
C0
C0
C0
C0
C0
C0
C0
C0
C0
C0
C0
FF
ENDCHAR
STARTCHAR 004D
ENCODING 77
SWIDTH 830 0
DWIDTH 15 0
BBX 13 13 1 0
BITMAP
C018
C018
E018
E028
F028
D048
D848
C8C8
C888
C588
C508
C708
C208
ENDCHAR
STARTCHAR 004E
ENCODING 78
SWIDTH 664 0
DWIDTH 12 0
BBX 10 13 1 0
BITMAP
C040
E040
E040
F040
D840
C840
CC40
C640
C240
C340
C1C0
C0C0
C0C0
ENDCHAR
STARTCHAR 004F
ENCODING 79
SWIDTH 720 0
DWIDTH 13 0
BBX 12 13 1 0
BITMAP
1F00
71C0
4040
C060
8020
8020
8030
8020
8020
C060
4040
71C0
1F00
ENDCHAR
STARTCHAR 0050
ENCODING 80
SWIDTH 609 0
DWIDTH 11 0
BBX 9 13 1 0
BITMAP
FE00
C180
C080
C080
C080
C080
C180
FE00
C000
C000
C000
C000
C000
ENDCHAR
STARTCHAR 0051
ENCODING 81
SWIDTH 720 0
DWIDTH 13 0
BBX 12 13 1 0
BITMAP
1F00
71C0
4040
C060
8020
8020
8030
8020
8020
C1E0
40C0
71E0
1F20
ENDCHAR
STARTCHAR 0052
ENCODING 82
SWIDTH 609 0
DWIDTH 11 0
BBX 9 13 1 0
BITMAP
FE00
C180
C080
C080
C080
C080
C180
FE00
C200
C300
C100
C180
C080
ENDCHAR
STARTCHAR 0053
ENCODING 83
SWIDTH 609 0
DWIDTH 11 0
BBX 10 13 1 0
BITMAP
3E00
6300
C180
C080
C000
7000
1F00
0180
0080
80C0
C080
6380
3E00
ENDCHAR
STARTCHAR 0054
ENCODING 84
SWIDTH 609 0
DWIDTH 11 0
BBX 11 13 0 0
BITMAP
FFE0
0400
0400
0400
0400
0400
0400
0400
0400
0400
0400
0400
0400
ENDCHAR
STARTCHAR 0055
ENCODING 85
SWIDTH 720 0
DWIDTH 13 0
BBX 10 13 1 0
BITMAP
C040
C040
C040
C040
C040
C040
C040
C040
C040
C040
40C0
3180
1F00
ENDCHAR
STARTCHAR 0056
ENCODING 86
SWIDTH 609 0
DWIDTH 11 0
BBX 11 13 0 0
BITMAP
C060
4040
4040
60C0
2080
2080
3180
1100
1300
1B00
0A00
0E00
0E00
ENDCHAR
STARTCHAR 0057
ENCODING 87
SWIDTH 941 0
DWIDTH 17 0
BBX 16 13 0 0
BITMAP
C081
41C1
41C3
6143
2342
2362
3226
3224
1634
1414
1C1C
0C18
0C18
ENDCHAR
STARTCHAR 0058
ENCODING 88
SWIDTH 609 0
DWIDTH 11 0
BBX 9 13 1 0
BITMAP
8080
C180
6300
2200
3600
1C00
0800
1C00
3600
2200
4300
C180
8080
ENDCHAR
STARTCHAR 0059
ENCODING 89
SWIDTH 553 0
DWIDTH 10 0
BBX 10 13 0 0
BITMAP
C0C0
4080
6180
3300
1200
1E00
0C00
0C00
0C00
0C00
0C00
0C00
0C00
ENDCHAR
STARTCHAR 005A
ENCODING 90
SWIDTH 609 0
DWIDTH 11 0
BBX 9 13 1 0
BITMAP
FF80
0100
0300
0200
0600
0C00
0800
1800
1000
3000
6000
4000
FF80
ENDCHAR
STARTCHAR 005B
ENCODING 91
SWIDTH 387 0
DWIDTH 7 0
BBX 3 20 3 -4
BITMAP
E0
80
80
80
80
80
80
80
80
80
80
80
80
80
80
80
80
80
80
E0
ENDCHAR
STARTCHAR 005C
ENCODING 92
SWIDTH 387 0
DWIDTH 7 0
BBX 5 13 1 0
BITMAP
C0
C0
40
40
60
20
20
20
30
10
10
18
18
ENDCHAR
STARTCHAR 005D
ENCODING 93
SWIDTH 387 0
DWIDTH 7 0
BBX 4 20 1 -4
BITMAP
F0
10
10
10
10
10
10
10
10
10
10
10
10
10
10
10
10
10
10
F0
ENDCHAR
STARTCHAR 005E
ENCODING 94
SWIDTH 664 0
DWIDTH 12 0
BBX 8 5 2 8
BITMAP
08
1C
26
43
81
ENDCHAR
STARTCHAR 005F
ENCODING 95
SWIDTH 664 0
DWIDTH 12 0
BBX 12 1 0 -2
BITMAP
FFF0
ENDCHAR
STARTCHAR 0060
ENCODING 96
SWIDTH 498 0
DWIDTH 9 0
BBX 2 3 3 14
BITMAP
80
40
40
ENDCHAR
STARTCHAR 0061
ENCODING 97
SWIDTH 553 0
DWIDTH 10 0
BBX 8 10 1 0
BITMAP
3C
66
C3
01
3F
E1
83
83
C7
79
ENDCHAR
STARTCHAR 0062
ENCODING 98
SWIDTH 609 0
DWIDTH 11 0
BBX 9 13 1 0
BITMAP
C000
C000
C000
DE00
E300
C100
C180
8080
8080
C180
C100
E300
9E00
ENDCHAR
STARTCHAR 0063
ENCODING 99
SWIDTH 553 0
DWIDTH 10 0
BBX 8 10 1 0
BITMAP
3E
63
C1
80
80
80
80
C1
63
3E
ENDCHAR
STARTCHAR 0064
ENCODING 100
SWIDTH 609 0
DWIDTH 11 0
BBX 8 13 1 0
BITMAP
01
01
01
3D
67
C1
81
81
81
81
C1
67
3D
ENDCHAR
STARTCHAR 0065
ENCODING 101
SWIDTH 609 0
DWIDTH 11 0
BBX 9 10 1 0
BITMAP
3E00
6300
C100
8180
FF80
8000
8000
C180
6300
3E00
ENDCHAR
STARTCHAR 0066
ENCODING 102
SWIDTH 332 0
DWIDTH 6 0
BBX 5 13 1 0
BITMAP
38
60
60
F8
60
60
60
60
60
60
60
60
60
ENDCHAR
STARTCHAR 0067
ENCODING 103
SWIDTH 609 0
DWIDTH 11 0
BBX 8 14 1 -4
BITMAP
3D
67
C1
81
81
81
81
C1
67
3D
01
01
C3
7E
ENDCHAR
STARTCHAR 0068
ENCODING 104
SWIDTH 609 0
DWIDTH 11 0
BBX 9 13 1 0
BITMAP
8000
8000
8000
9E00
A300
C100
C180
C180
C180
C180
C180
C180
C180
ENDCHAR
STARTCHAR 0069
ENCODING 105
SWIDTH 221 0
DWIDTH 4 0
BBX 2 13 1 0
BITMAP
C0
C0
00
C0
C0
C0
C0
C0
C0
C0
C0
C0
C0
ENDCHAR
STARTCHAR 006A
ENCODING 106
SWIDTH 276 0
DWIDTH 5 0
BBX 3 17 0 -4
BITMAP
20
20
00
20
20
20
20
20
20
20
20
20
20
20
20
20
E0
ENDCHAR
STARTCHAR 006B
ENCODING 107
SWIDTH 498 0
DWIDTH 9 0
BBX 8 13 1 0
BITMAP
C0
C0
C0
C2
C4
C8
D8
F0
F0
D8
CC
C6
C3
ENDCHAR
STARTCHAR 006C
ENCODING 108
SWIDTH 221 0
DWIDTH 4 0
BBX 2 13 1 0
BITMAP
C0
C0
C0
C0
C0
C0
C0
C0
C0
C0
C0
C0
C0
ENDCHAR
STARTCHAR 006D
ENCODING 109
SWIDTH 830 0
DWIDTH 15 0
BBX 13 10 1 0
BITMAP
BCF0
E798
C308
C208
C208
C208
C208
C208
C208
C208
ENDCHAR
STARTCHAR 006E
ENCODING 110
SWIDTH 609 0
DWIDTH 11 0
BBX 9 10 1 0
BITMAP
9E00
A300
C100
C180
C180
C180
C180
C180
C180
C180
ENDCHAR
STARTCHAR 006F
ENCODING 111
SWIDTH 609 0
DWIDTH 11 0
BBX 9 10 1 0
BITMAP
3E00
6300
C100
8180
8080
8080
8180
C100
6300
3E00
ENDCHAR
STARTCHAR 0070
ENCODING 112
SWIDTH 609 0
DWIDTH 11 0
BBX 9 14 1 -4
BITMAP
9E00
A300
C100
C180
8080
8080
C180
C100
E300
DE00
C000
C000
C000
C000
ENDCHAR
STARTCHAR 0071
ENCODING 113
SWIDTH 609 0
DWIDTH 11 0
BBX 8 14 1 -4
BITMAP
3D
67
C1
81
81
81
81
C1
67
3D
01
01
01
01
ENDCHAR
STARTCHAR 0072
ENCODING 114
SWIDTH 387 0
DWIDTH 7 0
BBX 5 10 1 0
BITMAP
98
A0
C0
C0
C0
C0
C0
C0
C0
C0
ENDCHAR
STARTCHAR 0073
ENCODING 115
SWIDTH 498 0
DWIDTH 9 0
BBX 8 10 1 0
BITMAP
7C
C6
83
C0
78
0E
03
83
C6
7C
ENDCHAR
STARTCHAR 0074
ENCODING 116
SWIDTH 387 0
DWIDTH 7 0
BBX 7 13 0 0
BITMAP
30
30
30
FE
30
30
30
30
30
30
30
30
1E
ENDCHAR
STARTCHAR 0075
ENCODING 117
SWIDTH 609 0
DWIDTH 11 0
BBX 8 10 1 0
BITMAP
81
81
81
81
81
81
C1
C1
63
3D
ENDCHAR
STARTCHAR 0076
ENCODING 118
SWIDTH 498 0
DWIDTH 9 0
BBX 8 10 1 0
BITMAP
83
82
C2
46
44
64
2C
28
38
10
ENDCHAR
STARTCHAR 0077
ENCODING 119
SWIDTH 775 0
DWIDTH 14 0
BBX 12 10 1 0
BITMAP
8610
8610
8630
CB20
4920
4920
7960
30C0
30C0
30C0
ENDCHAR
STARTCHAR 0078
ENCODING 120
SWIDTH 553 0
DWIDTH 10 0
BBX 8 10 1 0
BITMAP
83
C2
64
2C
18
18
2C
64
C2
83
ENDCHAR
STARTCHAR 0079
ENCODING 121
SWIDTH 553 0
DWIDTH 10 0
BBX 9 14 0 -4
BITMAP
C080
4180
6100
2100
2300
1200
1600
1C00
0C00
0C00
0800
0800
1800
1000
ENDCHAR
STARTCHAR 007A
ENCODING 122
SWIDTH 553 0
DWIDTH 10 0
BBX 8 10 1 0
BITMAP
FF
06
04
08
18
10
20
40
C0
FF
ENDCHAR
STARTCHAR 007B
ENCODING 123
SWIDTH 443 0
DWIDTH 8 0
BBX 4 20 3 -4
BITMAP
70
40
40
40
40
40
40
40
C0
80
80
C0
40
40
40
40
40
40
40
70
ENDCHAR
STARTCHAR 007C
ENCODING 124
SWIDTH 276 0
DWIDTH 5 0
BBX 1 13 2 0
BITMAP
80
80
80
80
80
80
80
80
80
80
80
80
80
ENDCHAR
STARTCHAR 007D
ENCODING 125
SWIDTH 443 0
DWIDTH 8 0
BBX 4 20 1 -4
BITMAP
C0
60
20
20
20
20
20
20
20
30
30
20
20
20
20
20
20
20
60
C0
ENDCHAR
STARTCHAR 007E
ENCODING 126
SWIDTH 664 0
DWIDTH 12 0
BBX 8 3 2 4
BITMAP
73
FF
8E
ENDCHAR
STARTCHAR 00A0
ENCODING 160
SWIDTH 221 0
DWIDTH 4 0
BBX 0 0 0 0
BITMAP
ENDCHAR
STARTCHAR 00A1
ENCODING 161
SWIDTH 332 0
DWIDTH 6 0
BBX 1 13 2 -3
BITMAP
80
80
00
80
80
80
80
80
80
80
80
80
80
ENDCHAR
STARTCHAR 00A2
ENCODING 162
SWIDTH 553 0
DWIDTH 10 0
BBX 8 14 1 -1
BITMAP
08
08
3E
43
C1
80
80
80
80
C1
63
3E
08
08
ENDCHAR
STARTCHAR 00A3
ENCODING 163
SWIDTH 553 0
DWIDTH 10 0
BBX 8 13 1 0
BITMAP
1E
33
21
21
20
20
FC
20
20
20
20
60
FF
ENDCHAR
STARTCHAR 00A4
ENCODING 164
SWIDTH 664 0
DWIDTH 12 0
BBX 10 11 1 1
BITMAP
8000
FEC0
6180
4080
8080
80C0
8080
4080
6180
FEC0
8000
ENDCHAR
STARTCHAR 00A5
ENCODING 165
SWIDTH 553 0
DWIDTH 10 0
BBX 10 13 0 0
BITMAP
C0C0
4080
6180
3300
1200
1E00
0C00
3F00
0C00
0C00
3F00
0C00
0C00
ENDCHAR
STARTCHAR 00A6
ENCODING 166
SWIDTH 276 0
DWIDTH 5 0
BBX 1 16 2 -3
BITMAP
80
80
80
80
80
80
80
00
00
80
80
80
80
80
80
80
ENDCHAR
STARTCHAR 00A7
ENCODING 167
SWIDTH 498 0
DWIDTH 9 0
BBX 8 15 1 -3
BITMAP
3C
C6
82
C0
70
7E
83
83
E3
3E
06
03
C3
66
3C
ENDCHAR
STARTCHAR 00A8
ENCODING 168
SWIDTH 498 0
DWIDTH 9 0
BBX 5 1 2 15
BITMAP
C8
ENDCHAR
STARTCHAR 00A9
ENCODING 169
SWIDTH 830 0
DWIDTH 15 0
BBX 13 13 1 0
BITMAP
0F80
38C0
6020
CF10
9898
9018
9008
9008
9018
9890
4F30
7060
1FC0
ENDCHAR
STARTCHAR 00AA
ENCODING 170
SWIDTH 332 0
DWIDTH 6 0
BBX 4 5 1 5
BITMAP
E0
10
F0
90
F0
ENDCHAR
STARTCHAR 00AB
ENCODING 171
SWIDTH 553 0
DWIDTH 10 0
BBX 6 8 2 1
BITMAP
24
64
48
90
90
48
6C
24
ENDCHAR
STARTCHAR 00AC
ENCODING 172
SWIDTH 609 0
DWIDTH 11 0
BBX 9 3 1 4
BITMAP
FF80
0080
0080
ENDCHAR
STARTCHAR 00AD
ENCODING 173
SWIDTH 443 0
DWIDTH 8 0
BBX 6 1 1 5
BITMAP
FC
ENDCHAR
STARTCHAR 00AE
ENCODING 174
SWIDTH 609 0
DWIDTH 11 0
BBX 9 9 1 5
BITMAP
1E00
6300
5D80
9480
9C80
9480
5180
6300
1E00
ENDCHAR
STARTCHAR 00AF
ENCODING 175
SWIDTH 498 0
DWIDTH 9 0
BBX 5 1 2 15
BITMAP
F8
ENDCHAR
STARTCHAR 00B0
ENCODING 176
SWIDTH 443 0
DWIDTH 8 0
BBX 6 6 1 7
BITMAP
78
CC
84
84
8C
78
ENDCHAR
STARTCHAR 00B1
ENCODING 177
SWIDTH 609 0
DWIDTH 11 0
BBX 9 8 1 2
BITMAP
0800
0800
FF80
0800
0800
0800
0000
FF80
ENDCHAR
STARTCHAR 00B2
ENCODING 178
SWIDTH 387 0
DWIDTH 7 0
BBX 5 8 1 5
BITMAP
70
88
88
08
10
20
40
F8
ENDCHAR
STARTCHAR 00B3
ENCODING 179
SWIDTH 387 0
DWIDTH 7 0
BBX 5 8 1 5
BITMAP
F8
10
20
70
08
08
88
70
ENDCHAR
STARTCHAR 00B4
ENCODING 180
SWIDTH 498 0
DWIDTH 9 0
BBX 2 3 4 14
BITMAP
C0
80
80
ENDCHAR
STARTCHAR 00B5
ENCODING 181
SWIDTH 609 0
DWIDTH 11 0
BBX 9 14 1 -4
BITMAP
C180
C180
C180
C180
C180
C180
C180
C180
E380
BD80
8000
8000
8000
8000
ENDCHAR
STARTCHAR 00B6
ENCODING 182
SWIDTH 609 0
DWIDTH 11 0
BBX 9 16 1 -3
BITMAP
3E80
7E80
7E80
FE80
FE80
7E80
7E80
3E80
0680
0680
0680
0680
0680
0680
0680
0680
ENDCHAR
STARTCHAR 00B7
ENCODING 183
SWIDTH 221 0
DWIDTH 4 0
BBX 2 2 1 5
BITMAP
C0
C0
ENDCHAR
STARTCHAR 00B8
ENCODING 184
SWIDTH 387 0
DWIDTH 7 0
BBX 3 4 2 -4
BITMAP
40
60
20
E0
ENDCHAR
STARTCHAR 00B9
ENCODING 185
SWIDTH 332 0
DWIDTH 6 0
BBX 3 8 1 5
BITMAP
60
A0
20
20
20
20
20
20
ENDCHAR
STARTCHAR 00BA
ENCODING 186
SWIDTH 332 0
DWIDTH 6 0
BBX 5 5 1 5
BITMAP
70
90
98
90
70
ENDCHAR
STARTCHAR 00BB
ENCODING 187
SWIDTH 553 0
DWIDTH 10 0
BBX 7 7 1 2
BITMAP
48
24
36
32
24
48
90
ENDCHAR
STARTCHAR 00BC
ENCODING 188
SWIDTH 996 0
DWIDTH 18 0
BBX 14 13 1 0
BITMAP
6010
A020
2060
20C0
2080
2110
2210
2630
2420
0864
1044
307C
2004
ENDCHAR
STARTCHAR 00BD
ENCODING 189
SWIDTH 941 0
DWIDTH 17 0
BBX 15 13 1 0
BITMAP
6010
A020
2060
20C0
2080
211C
2222
2622
0C02
0804
1018
3030
203E
ENDCHAR
STARTCHAR 00BE
ENCODING 190
SWIDTH 996 0
DWIDTH 18 0
BBX 16 13 1 0
BITMAP
F808
1018
2030
7020
0840
088C
8988
7108
0212
0412
0C22
083F
1002
ENDCHAR
STARTCHAR 00BF
ENCODING 191
SWIDTH 498 0
DWIDTH 9 0
BBX 7 13 1 -3
BITMAP
18
18
00
00
18
10
30
60
C0
80
82
C6
7C
ENDCHAR
STARTCHAR 00C0
ENCODING 192
SWIDTH 609 0
DWIDTH 11 0
BBX 10 17 1 0
BITMAP
1000
0800
0800
0000
0C00
1C00
1400
1600
3200
2200
2300
6100
4180
7F80
C080
80C0
8040
ENDCHAR
STARTCHAR 00C1
ENCODING 193
SWIDTH 609 0
DWIDTH 11 0
BBX 10 17 1 0
BITMAP
0400
0400
0000
0000
0C00
1C00
1400
1600
3200
2200
2300
6100
4180
7F80
C080
80C0
8040
ENDCHAR
STARTCHAR 00C2
ENCODING 194
SWIDTH 609 0
DWIDTH 11 0
BBX 10 17 1 0
BITMAP
0C00
1600
0000
0000
0C00
1C00
1400
1600
3200
2200
2300
6100
4180
7F80
C080
80C0
8040
ENDCHAR
STARTCHAR 00C3
ENCODING 195
SWIDTH 609 0
DWIDTH 11 0
BBX 10 17 1 0
BITMAP
3800
2600
0000
0000
0C00
1C00
1400
1600
3200
2200
2300
6100
4180
7F80
C080
80C0
8040
ENDCHAR
STARTCHAR 00C4
ENCODING 196
SWIDTH 609 0
DWIDTH 11 0
BBX 10 16 1 0
BITMAP
3200
0000
0000
0C00
1C00
1400
1600
3200
2200
2300
6100
4180
7F80
C080
80C0
8040
ENDCHAR
STARTCHAR 00C5
ENCODING 197
SWIDTH 609 0
DWIDTH 11 0
BBX 10 18 1 0
BITMAP
1C00
1200
1200
1C00
0000
0C00
1C00
1400
1600
3200
2200
2300
6100
4180
7F80
C080
80C0
8040
ENDCHAR
STARTCHAR 00C6
ENCODING 198
SWIDTH 941 0
DWIDTH 17 0
BBX 15 13 1 0
BITMAP
0FFE
1900
1100
1100
3100
2100
21FC
6100
4100
7F00
C100
8100
81FE
ENDCHAR
STARTCHAR 00C7
ENCODING 199
SWIDTH 720 0
DWIDTH 13 0
BBX 11 17 1 -4
BITMAP
1F00
71C0
4040
C060
8000
8000
8000
8000
8000
C060
4040
71C0
1F00
0400
0600
0200
0E00
ENDCHAR
STARTCHAR 00C8
ENCODING 200
SWIDTH 553 0
DWIDTH 10 0
BBX 8 17 1 0
BITMAP
10
08
08
00
FF
C0
C0
C0
C0
C0
FE
C0
C0
C0
C0
C0
FF
ENDCHAR
STARTCHAR 00C9
ENCODING 201
SWIDTH 553 0
DWIDTH 10 0
BBX 8 17 1 0
BITMAP
04
08
00
00
FF
C0
C0
C0
C0
C0
FE
C0
C0
C0
C0
C0
FF
ENDCHAR
STARTCHAR 00CA
ENCODING 202
SWIDTH 553 0
DWIDTH 10 0
BBX 8 17 1 0
BITMAP
18
34
00
00
FF
C0
C0
C0
C0
C0
FE
C0
C0
C0
C0
C0
FF
ENDCHAR
STARTCHAR 00CB
ENCODING 203
SWIDTH 553 0
DWIDTH 10 0
BBX 8 16 1 0
BITMAP
26
00
00
FF
C0
C0
C0
C0
C0
FE
C0
C0
C0
C0
C0
FF
ENDCHAR
STARTCHAR 00CC
ENCODING 204
SWIDTH 221 0
DWIDTH 4 0
BBX 2 17 1 0
BITMAP
80
80
C0
00
C0
C0
C0
C0
C0
C0
C0
C0
C0
C0
C0
C0
C0
ENDCHAR
STARTCHAR 00CD
ENCODING 205
SWIDTH 221 0
DWIDTH 4 0
BBX 3 17 1 0
BITMAP
60
40
40
00
C0
C0
C0
C0
C0
C0
C0
C0
C0
C0
C0
C0
C0
ENDCHAR
STARTCHAR 00CE
ENCODING 206
SWIDTH 221 0
DWIDTH 4 0
BBX 4 17 0 0
BITMAP
60
D0
00
00
60
60
60
60
60
60
60
60
60
60
60
60
60
ENDCHAR
STARTCHAR 00CF
ENCODING 207
SWIDTH 221 0
DWIDTH 4 0
BBX 5 16 0 0
BITMAP
98
00
00
60
60
60
60
60
60
60
60
60
60
60
60
60
ENDCHAR
STARTCHAR 00D0
ENCODING 208
SWIDTH 664 0
DWIDTH 12 0
BBX 11 13 0 0
BITMAP
7F00
61C0
6040
6060
6020
6020
FC20
6020
6020
6060
6040
61C0
7F00
ENDCHAR
STARTCHAR 00D1
ENCODING 209
SWIDTH 664 0
DWIDTH 12 0
BBX 10 17 1 0
BITMAP
1900
1700
0000
0000
C040
E040
E040
F040
D840
C840
CC40
C640
C240
C340
C1C0
C0C0
C0C0
ENDCHAR
STARTCHAR 00D2
ENCODING 210
SWIDTH 720 0
DWIDTH 13 0
BBX 12 17 1 0
BITMAP
0800
0C00
0400
0000
1F00
71C0
4040
C060
8020
8020
8030
8020
8020
C060
4040
71C0
1F00
ENDCHAR
STARTCHAR 00D3
ENCODING 211
SWIDTH 720 0
DWIDTH 13 0
BBX 12 17 1 0
BITMAP
0200
0200
0400
0000
1F00
71C0
4040
C060
8020
8020
8030
8020
8020
C060
4040
71C0
1F00
ENDCHAR
STARTCHAR 00D4
ENCODING 212
SWIDTH 720 0
DWIDTH 13 0
BBX 12 16 1 0
BITMAP
0E00
1B00
0000
1F00
71C0
4040
C060
8020
8020
8030
8020
8020
C060
4040
71C0
1F00
ENDCHAR
STARTCHAR 00D5
ENCODING 213
SWIDTH 720 0
DWIDTH 13 0
BBX 12 16 1 0
BITMAP
1D00
1300
0000
1F00
71C0
4040
C060
8020
8020
8030
8020
8020
C060
4040
71C0
1F00
ENDCHAR
STARTCHAR 00D6
ENCODING 214
SWIDTH 720 0
DWIDTH 13 0
BBX 12 16 1 0
BITMAP
1900
0000
0000
1F00
71C0
4040
C060
8020
8020
8030
8020
8020
C060
4040
71C0
1F00
ENDCHAR
STARTCHAR 00D7
ENCODING 215
SWIDTH 498 0
DWIDTH 9 0
BBX 6 6 1 3
BITMAP
84
4C
38
30
68
C4
ENDCHAR
STARTCHAR 00D8
ENCODING 216
SWIDTH 720 0
DWIDTH 13 0
BBX 12 13 1 0
BITMAP
1F20
71E0
4060
C0E0
8120
8220
8430
8820
9820
F060
6040
F1C0
9F00
ENDCHAR
STARTCHAR 00D9
ENCODING 217
SWIDTH 720 0
DWIDTH 13 0
BBX 10 17 1 0
BITMAP
0800
0C00
0400
0000
C040
C040
C040
C040
C040
C040
C040
C040
C040
C040
40C0
3180
1F00
ENDCHAR
STARTCHAR 00DA
ENCODING 218
SWIDTH 720 0
DWIDTH 13 0
BBX 10 17 1 0
BITMAP
0600
0400
0000
0000
C040
C040
C040
C040
C040
C040
C040
C040
C040
C040
40C0
3180
1F00
ENDCHAR
STARTCHAR 00DB
ENCODING 219
SWIDTH 720 0
DWIDTH 13 0
BBX 10 17 1 0
BITMAP
0C00
1A00
0100
0000
C040
C040
C040
C040
C040
C040
C040
C040
C040
C040
40C0
3180
1F00
ENDCHAR
STARTCHAR 00DC
ENCODING 220
SWIDTH 720 0
DWIDTH 13 0
BBX 10 16 1 0
BITMAP
1300
0000
0000
C040
C040
C040
C040
C040
C040
C040
C040
C040
C040
40C0
3180
1F00
ENDCHAR
STARTCHAR 00DD
ENCODING 221
SWIDTH 553 0
DWIDTH 10 0
BBX 10 17 0 0
BITMAP
0400
0400
0000
0000
C0C0
4080
6180
3300
1200
1E00
0C00
0C00
0C00
0C00
0C00
0C00
0C00
ENDCHAR
STARTCHAR 00DE
ENCODING 222
SWIDTH 609 0
DWIDTH 11 0
BBX 9 13 1 0
BITMAP
C000
C000
C000
FF00
C180
C080
C080
C080
C180
FF00
C000
C000
C000
ENDCHAR
STARTCHAR 00DF
ENCODING 223
SWIDTH 609 0
DWIDTH 11 0
BBX 9 13 1 0
BITMAP
3C00
6600
C200
C300
C200
C600
CE00
C100
C180
C180
C180
C300
DE00
ENDCHAR
STARTCHAR 00E0
ENCODING 224
SWIDTH 553 0
DWIDTH 10 0
BBX 8 14 1 0
BITMAP
10
10
18
00
3C
66
C3
01
3F
E1
83
83
C7
79
ENDCHAR
STARTCHAR 00E1
ENCODING 225
SWIDTH 553 0
DWIDTH 10 0
BBX 8 14 1 0
BITMAP
0C
08
08
00
3C
66
C3
01
3F
E1
83
83
C7
79
ENDCHAR
STARTCHAR 00E2
ENCODING 226
SWIDTH 553 0
DWIDTH 10 0
BBX 8 13 1 0
BITMAP
1C
24
00
3C
66
C3
01
3F
E1
83
83
C7
79
ENDCHAR
STARTCHAR 00E3
ENCODING 227
SWIDTH 553 0
DWIDTH 10 0
BBX 8 13 1 0
BITMAP
32
0E
00
3C
66
C3
01
3F
E1
83
83
C7
79
ENDCHAR
STARTCHAR 00E4
ENCODING 228
SWIDTH 553 0
DWIDTH 10 0
BBX 8 13 1 0
BITMAP
26
00
00
3C
66
C3
01
3F
E1
83
83
C7
79
ENDCHAR
STARTCHAR 00E5
ENCODING 229
SWIDTH 553 0
DWIDTH 10 0
BBX 8 15 1 0
BITMAP
18
24
24
18
00
3C
66
C3
01
3F
E1
83
83
C7
79
ENDCHAR
STARTCHAR 00E6
ENCODING 230
SWIDTH 941 0
DWIDTH 17 0
BBX 15 10 1 0
BITMAP
3C78
66CC
8382
0102
7FFE
C100
8300
8382
C6CC
7878
ENDCHAR
STARTCHAR 00E7
ENCODING 231
SWIDTH 553 0
DWIDTH 10 0
BBX 8 14 1 -4
BITMAP
3E
63
C1
80
80
80
80
C1
63
3E
08
08
0C
18
ENDCHAR
STARTCHAR 00E8
ENCODING 232
SWIDTH 609 0
DWIDTH 11 0
BBX 9 14 1 0
BITMAP
1000
1800
0800
0000
3E00
6300
C100
8180
FF80
8000
8000
C180
6300
3E00
ENDCHAR
STARTCHAR 00E9
ENCODING 233
SWIDTH 609 0
DWIDTH 11 0
BBX 9 14 1 0
BITMAP
0400
0C00
0800
0000
3E00
6300
C100
8180
FF80
8000
8000
C180
6300
3E00
ENDCHAR
STARTCHAR 00EA
ENCODING 234
SWIDTH 609 0
DWIDTH 11 0
BBX 9 13 1 0
BITMAP
1C00
2600
0000
3E00
6300
C100
8180
FF80
8000
8000
C180
6300
3E00
ENDCHAR
STARTCHAR 00EB
ENCODING 235
SWIDTH 609 0
DWIDTH 11 0
BBX 9 13 1 0
BITMAP
2600
0000
0000
3E00
6300
C100
8180
FF80
8000
8000
C180
6300
3E00
ENDCHAR
STARTCHAR 00EC
ENCODING 236
SWIDTH 221 0
DWIDTH 4 0
BBX 2 14 1 0
BITMAP
80
80
C0
00
C0
C0
C0
C0
C0
C0
C0
C0
C0
C0
ENDCHAR
STARTCHAR 00ED
ENCODING 237
SWIDTH 221 0
DWIDTH 4 0
BBX 2 14 1 0
BITMAP
40
40
00
00
C0
C0
C0
C0
C0
C0
C0
C0
C0
C0
ENDCHAR
STARTCHAR 00EE
ENCODING 238
SWIDTH 221 0
DWIDTH 4 0
BBX 4 14 0 0
BITMAP
60
D0
00
00
60
60
60
60
60
60
60
60
60
60
ENDCHAR
STARTCHAR 00EF
ENCODING 239
SWIDTH 221 0
DWIDTH 4 0
BBX 5 13 0 0
BITMAP
98
00
00
60
60
60
60
60
60
60
60
60
60
ENDCHAR
STARTCHAR 00F0
ENCODING 240
SWIDTH 609 0
DWIDTH 11 0
BBX 9 15 1 0
BITMAP
0200
1E00
0600
0B00
0100
3D00
6380
C180
8180
8180
8180
8180
C100
6300
3C00
ENDCHAR
STARTCHAR 00F1
ENCODING 241
SWIDTH 609 0
DWIDTH 11 0
BBX 9 13 1 0
BITMAP
3A00
2E00
0000
9E00
A300
C100
C180
C180
C180
C180
C180
C180
C180
ENDCHAR
STARTCHAR 00F2
ENCODING 242
SWIDTH 609 0
DWIDTH 11 0
BBX 9 14 1 0
BITMAP
1000
1000
0800
0000
3E00
6300
C100
8180
8080
8080
8180
C100
6300
3E00
ENDCHAR
STARTCHAR 00F3
ENCODING 243
SWIDTH 609 0
DWIDTH 11 0
BBX 9 14 1 0
BITMAP
0400
0800
0800
0000
3E00
6300
C100
8180
8080
8080
8180
C100
6300
3E00
ENDCHAR
STARTCHAR 00F4
ENCODING 244
SWIDTH 609 0
DWIDTH 11 0
BBX 9 13 1 0
BITMAP
1C00
2600
0000
3E00
6300
C100
8180
8080
8080
8180
C100
6300
3E00
ENDCHAR
STARTCHAR 00F5
ENCODING 245
SWIDTH 609 0
DWIDTH 11 0
BBX 9 13 1 0
BITMAP
3A00
2E00
0000
3E00
6300
C100
8180
8080
8080
8180
C100
6300
3E00
ENDCHAR
STARTCHAR 00F6
ENCODING 246
SWIDTH 609 0
DWIDTH 11 0
BBX 9 13 1 0
BITMAP
2600
0000
0000
3E00
6300
C100
8180
8080
8080
8180
C100
6300
3E00
ENDCHAR
STARTCHAR 00F7
ENCODING 247
SWIDTH 553 0
DWIDTH 10 0
BBX 8 6 1 3
BITMAP
18
00
FF
00
18
18
ENDCHAR
STARTCHAR 00F8
ENCODING 248
SWIDTH 609 0
DWIDTH 11 0
BBX 9 10 1 0
BITMAP
3E80
6380
C380
8780
8C80
9880
B180
E100
E300
BE00
ENDCHAR
STARTCHAR 00F9
ENCODING 249
SWIDTH 609 0
DWIDTH 11 0
BBX 8 14 1 0
BITMAP
10
10
08
00
81
81
81
81
81
81
C1
C1
63
3D
ENDCHAR
STARTCHAR 00FA
ENCODING 250
SWIDTH 609 0
DWIDTH 11 0
BBX 8 14 1 0
BITMAP
0C
08
00
00
81
81
81
81
81
81
C1
C1
63
3D
ENDCHAR
STARTCHAR 00FB
ENCODING 251
SWIDTH 609 0
DWIDTH 11 0
BBX 8 14 1 0
BITMAP
18
34
00
00
81
81
81
81
81
81
C1
C1
63
3D
ENDCHAR
STARTCHAR 00FC
ENCODING 252
SWIDTH 609 0
DWIDTH 11 0
BBX 8 13 1 0
BITMAP
26
00
00
81
81
81
81
81
81
C1
C1
63
3D
ENDCHAR
STARTCHAR 00FD
ENCODING 253
SWIDTH 553 0
DWIDTH 10 0
BBX 9 18 0 -4
BITMAP
0400
0400
0000
0000
C080
4180
6100
2100
2300
1200
1600
1C00
0C00
0C00
0800
0800
1800
1000
ENDCHAR
STARTCHAR 00FE
ENCODING 254
SWIDTH 609 0
DWIDTH 11 0
BBX 9 17 1 -4
BITMAP
C000
C000
C000
DE00
E300
C100
C180
8080
8080
C180
C100
E300
DE00
C000
C000
C000
C000
ENDCHAR
STARTCHAR 00FF
ENCODING 255
SWIDTH 553 0
DWIDTH 10 0
BBX 9 17 0 -4
BITMAP
3200
0000
0000
C080
4180
6100
2100
2300
1200
1600
1C00
0C00
0C00
0800
0800
1800
1000
ENDCHAR
ENDFONT
