STARTFONT 2.1
COMMENT
COMMENT Converted from OpenType font "manrope-bold.otf" by "otf2bdf 3.0".
COMMENT
FONT -FreeType-Manrope-Bold-R-Normal--28-200-100-100-P-134-ISO10646-1
SIZE 20 100 100
FONTBOUNDINGBOX 28 36 -1 -7
STARTPROPERTIES 19
FOUNDRY "FreeType"
FAMILY_NAME "Manrope"
WEIGHT_NAME "Bold"
SLANT "R"
SETWIDTH_NAME "Normal"
ADD_STYLE_NAME ""
PIXEL_SIZE 28
POINT_SIZE 200
RESOLUTION_X 100
RESOLUTION_Y 100
SPACING "P"
AVERAGE_WIDTH 134
CHARSET_REGISTRY "ISO10646"
CHARSET_ENCODING "1"
FONT_ASCENT 29
FONT_DESCENT 8
COPYRIGHT "Copyright 2019-2021 The Manrope Project Authors (https://github.com/sharanda/manrope)"
_OTF_FONTFILE "manrope-bold.otf"
_OTF_PSNAME "Manrope-Bold"
ENDPROPERTIES
CHARS 191
STARTCHAR 0020
ENCODING 32
SWIDTH 216 0
DWIDTH 6 0
BBX 0 0 0 0
BITMAP
ENDCHAR
STARTCHAR 0021
ENCODING 33
SWIDTH 360 0
DWIDTH 10 0
BBX 4 20 3 0
BITMAP
F0
F0
F0
F0
F0
F0
F0
F0
F0
F0
F0
F0
F0
F0
F0
00
00
F0
F0
F0
ENDCHAR
STARTCHAR 0022
ENCODING 34
SWIDTH 468 0
DWIDTH 13 0
BBX 8 5 2 15
BITMAP
E7
E7
E7
E7
E7
ENDCHAR
STARTCHAR 0023
ENCODING 35
SWIDTH 936 0
DWIDTH 26 0
BBX 22 20 2 0
BITMAP
00F1C0
00E1C0
00E1C0
00E3C0
01E380
3FFFFC
3FFFFC
3FFFFC
03C700
038700
038F00
FFFFF0
FFFFF0
FFFFF0
071C00
0F1C00
0E1C00
0E3C00
0E3800
1E3800
ENDCHAR
STARTCHAR 0024
ENCODING 36
SWIDTH 612 0
DWIDTH 17 0
BBX 15 26 1 -3
BITMAP
03C0
03C0
03C0
0FE0
1FF8
3FFC
783C
701E
700E
7800
7C00
3FC0
1FF0
07FC
00FE
001E
000E
F00E
F00E
7C1E
3FFC
1FF8
0FF0
03C0
03C0
03C0
ENDCHAR
STARTCHAR 0025
ENCODING 37
SWIDTH 900 0
DWIDTH 25 0
BBX 21 20 2 0
BITMAP
1E0020
7F0070
FF80F0
E381E0
E1C3C0
E1C780
E38F00
FF9E00
7F3C00
1E7800
00F000
03E3E0
07C7F0
0F8FF8
1F1E38
3E1C38
7C1E38
780FF8
7007F0
2003E0
ENDCHAR
STARTCHAR 0026
ENCODING 38
SWIDTH 684 0
DWIDTH 19 0
BBX 17 20 1 0
BITMAP
07C000
1FF000
3FF800
3C7C00
783000
780000
780000
3C0000
3E0000
3F0000
7F8E00
7BCE00
71EE00
F0FE00
F07E00
703E00
7C3F00
7FFF80
3FFB80
0FE100
ENDCHAR
STARTCHAR 0027
ENCODING 39
SWIDTH 252 0
DWIDTH 7 0
BBX 3 5 2 15
BITMAP
E0
E0
E0
E0
E0
ENDCHAR
STARTCHAR 0028
ENCODING 40
SWIDTH 468 0
DWIDTH 13 0
BBX 7 29 4 -5
BITMAP
04
0E
1E
1C
3C
38
78
70
70
E0
E0
E0
E0
E0
E0
E0
E0
E0
E0
E0
70
70
70
38
3C
1C
1E
0E
04
ENDCHAR
STARTCHAR 0029
ENCODING 41
SWIDTH 468 0
DWIDTH 13 0
BBX 7 29 2 -5
BITMAP
40
E0
E0
F0
70
38
38
3C
1C
1C
1C
1E
0E
0E
0E
0E
0E
1E
1C
1C
1C
3C
38
38
70
F0
E0
E0
40
ENDCHAR
STARTCHAR 002A
ENCODING 42
SWIDTH 468 0
DWIDTH 13 0
BBX 10 10 1 10
BITMAP
0C00
0C00
4C80
FFC0
FFC0
3F00
3F00
3F00
7380
1300
ENDCHAR
STARTCHAR 002B
ENCODING 43
SWIDTH 576 0
DWIDTH 16 0
BBX 12 13 2 4
BITMAP
0600
0600
0600
0600
0600
FFF0
FFF0
FFF0
0600
0600
0600
0600
0600
ENDCHAR
STARTCHAR 002C
ENCODING 44
SWIDTH 288 0
DWIDTH 8 0
BBX 3 8 2 -4
BITMAP
E0
E0
E0
E0
60
60
E0
80
ENDCHAR
STARTCHAR 002D
ENCODING 45
SWIDTH 432 0
DWIDTH 12 0
BBX 8 3 2 7
BITMAP
FF
FF
FF
ENDCHAR
STARTCHAR 002E
ENCODING 46
SWIDTH 288 0
DWIDTH 8 0
BBX 4 3 2 0
BITMAP
F0
F0
F0
ENDCHAR
STARTCHAR 002F
ENCODING 47
SWIDTH 432 0
DWIDTH 12 0
BBX 8 20 2 0
BITMAP
07
07
0F
0E
0E
0E
1E
1C
1C
3C
3C
38
38
78
70
70
70
F0
E0
E0
ENDCHAR
STARTCHAR 0030
ENCODING 48
SWIDTH 648 0
DWIDTH 18 0
BBX 14 20 2 0
BITMAP
0FC0
3FF0
7FF8
7C78
F03C
F01C
E01C
E01C
E01C
E01C
E01C
E01C
E01C
E01C
F01C
F03C
7C78
7FF8
3FF0
0FC0
ENDCHAR
STARTCHAR 0031
ENCODING 49
SWIDTH 432 0
DWIDTH 12 0
BBX 7 20 2 0
BITMAP
1E
7E
FE
FE
DE
1E
1E
1E
1E
1E
1E
1E
1E
1E
1E
1E
1E
1E
1E
1E
ENDCHAR
STARTCHAR 0032
ENCODING 50
SWIDTH 612 0
DWIDTH 17 0
BBX 14 20 1 0
BITMAP
0FC0
1FF0
3FF8
7C78
783C
F01C
F01C
001C
003C
0078
00F8
01F0
03E0
0F80
1F00
3E00
7C00
FFFC
FFFC
FFFC
ENDCHAR
STARTCHAR 0033
ENCODING 51
SWIDTH 576 0
DWIDTH 16 0
BBX 13 20 1 0
BITMAP
7FF8
7FF8
7FF8
0078
00F0
03E0
07C0
0F80
0FE0
0FF0
00F8
0078
0038
0038
0038
F078
78F8
7FF0
3FE0
0F80
ENDCHAR
STARTCHAR 0034
ENCODING 52
SWIDTH 612 0
DWIDTH 17 0
BBX 15 20 1 0
BITMAP
01C0
03C0
0380
0780
0780
0F00
0F00
1E00
1E00
3C78
3C78
7878
7878
7078
FFFE
FFFE
FFFE
0078
0078
0078
ENDCHAR
STARTCHAR 0035
ENCODING 53
SWIDTH 576 0
DWIDTH 16 0
BBX 14 20 1 0
BITMAP
3FF8
3FF8
3FF8
7800
7800
7800
7000
77C0
7FF0
7FF8
7878
003C
003C
001C
103C
F038
7CF8
3FF0
1FE0
0FC0
ENDCHAR
STARTCHAR 0036
ENCODING 54
SWIDTH 612 0
DWIDTH 17 0
BBX 14 20 2 0
BITMAP
0FC0
3FF0
7FF0
7860
F000
F000
E000
E7C0
FFF0
FFF8
F878
F03C
E03C
E03C
F03C
F038
78F8
7FF0
3FE0
0F80
ENDCHAR
STARTCHAR 0037
ENCODING 55
SWIDTH 540 0
DWIDTH 15 0
BBX 12 20 1 0
BITMAP
FFF0
FFF0
FFF0
0070
00F0
00E0
01E0
01E0
01C0
03C0
0380
0780
0780
0700
0F00
0E00
1E00
1E00
1C00
3C00
ENDCHAR
STARTCHAR 0038
ENCODING 56
SWIDTH 612 0
DWIDTH 17 0
BBX 13 20 2 0
BITMAP
0F80
3FE0
7FF0
F8F0
F078
F078
F078
78F0
7FF0
3FE0
7FF0
F0F8
F078
E038
E038
F078
F8F8
7FF0
3FE0
0F80
ENDCHAR
STARTCHAR 0039
ENCODING 57
SWIDTH 612 0
DWIDTH 17 0
BBX 14 20 1 0
BITMAP
07C0
1FF0
3FF8
7C78
783C
701C
F01C
F01C
703C
7C7C
3FFC
1FFC
0F9C
001C
001C
003C
1878
3FF8
3FF0
0FC0
ENDCHAR
STARTCHAR 003A
ENCODING 58
SWIDTH 360 0
DWIDTH 10 0
BBX 4 11 3 2
BITMAP
F0
F0
F0
00
00
00
00
00
E0
E0
E0
ENDCHAR
STARTCHAR 003B
ENCODING 59
SWIDTH 360 0
DWIDTH 10 0
BBX 3 19 3 -4
BITMAP
E0
E0
E0
00
00
00
00
00
00
00
00
E0
E0
E0
E0
20
20
E0
C0
ENDCHAR
STARTCHAR 003C
ENCODING 60
SWIDTH 648 0
DWIDTH 18 0
BBX 8 13 4 2
BITMAP
02
07
0F
1E
3C
78
F0
78
3C
1E
0F
07
02
ENDCHAR
STARTCHAR 003D
ENCODING 61
SWIDTH 756 0
DWIDTH 21 0
BBX 14 8 3 6
BITMAP
FFFC
FFFC
FFFC
0000
0000
FFFC
FFFC
FFFC
ENDCHAR
STARTCHAR 003E
ENCODING 62
SWIDTH 648 0
DWIDTH 18 0
BBX 9 13 5 2
BITMAP
2000
7000
F800
3C00
1E00
0F00
0780
0F00
1E00
3C00
7800
F000
6000
ENDCHAR
STARTCHAR 003F
ENCODING 63
SWIDTH 540 0
DWIDTH 15 0
BBX 13 20 1 0
BITMAP
0FC0
3FE0
7FF0
78F8
7078
F078
0078
0078
00F0
01E0
03C0
0780
0780
0700
0700
0000
0700
0700
0700
0700
ENDCHAR
STARTCHAR 0040
ENCODING 64
SWIDTH 900 0
DWIDTH 25 0
BBX 21 21 2 -3
BITMAP
01FC00
07FF80
1FFFC0
1E01E0
3800F0
702070
71FE38
63FE38
E38E38
E70638
E70638
E70638
E38F38
63FFF0
71FBF0
7061C0
380000
1E0000
1FFC00
07FE00
01FC00
ENDCHAR
STARTCHAR 0041
ENCODING 65
SWIDTH 684 0
DWIDTH 19 0
BBX 17 20 1 0
BITMAP
03E000
07E000
07F000
07F000
0F7000
0F7800
0E7800
1E3800
1E3800
1C3C00
1C3C00
3C1C00
381E00
3FFE00
7FFE00
7FFF00
700F00
F00700
F00780
E00780
ENDCHAR
STARTCHAR 0042
ENCODING 66
SWIDTH 648 0
DWIDTH 18 0
BBX 15 20 2 0
BITMAP
FFE0
FFF0
FFF8
E078
E03C
E03C
E03C
E078
FFF8
FFF0
FFF8
E03C
E01C
E01E
E01E
E01E
E03C
FFFC
FFF8
FFF0
ENDCHAR
STARTCHAR 0043
ENCODING 67
SWIDTH 756 0
DWIDTH 21 0
BBX 18 20 1 0
BITMAP
03F800
0FFE00
1FFF00
3E0F80
7807C0
7803C0
F00180
F00000
E00000
E00000
E00000
E00000
F00000
F00180
7803C0
7807C0
3E0F80
1FFF00
0FFE00
03F800
ENDCHAR
STARTCHAR 0044
ENCODING 68
SWIDTH 684 0
DWIDTH 19 0
BBX 16 20 2 0
BITMAP
FFC0
FFF0
FFF8
E07C
E01E
E01E
E00F
E00F
E00F
E007
E007
E00F
E00F
E00F
E01E
E01E
E07C
FFFC
FFF0
FFC0
ENDCHAR
STARTCHAR 0045
ENCODING 69
SWIDTH 576 0
DWIDTH 16 0
BBX 13 20 2 0
BITMAP
FFF8
FFF8
FFF8
E000
E000
E000
E000
E000
FFE0
FFE0
FFE0
E000
E000
E000
E000
E000
E000
FFF8
FFF8
FFF8
ENDCHAR
STARTCHAR 0046
ENCODING 70
SWIDTH 540 0
DWIDTH 15 0
BBX 12 20 2 0
BITMAP
FFF0
FFF0
FFF0
E000
E000
E000
E000
E000
E000
FFC0
FFC0
FFC0
E000
E000
E000
E000
E000
E000
E000
E000
ENDCHAR
STARTCHAR 0047
ENCODING 71
SWIDTH 720 0
DWIDTH 20 0
BBX 18 20 1 0
BITMAP
03F800
0FFE00
1FFF00
3F1F80
780780
7003C0
F00300
F00000
E00000
E01FC0
E01FC0
E01FC0
F001C0
F003C0
7803C0
780780
3E0F80
1FFF00
0FFE00
03F000
ENDCHAR
STARTCHAR 0048
ENCODING 72
SWIDTH 720 0
DWIDTH 20 0
BBX 16 20 2 0
BITMAP
E007
E007
E007
E007
E007
E007
E007
E007
FFFF
FFFF
FFFF
E007
E007
E007
E007
E007
E007
E007
E007
E007
ENDCHAR
STARTCHAR 0049
ENCODING 73
SWIDTH 288 0
DWIDTH 8 0
BBX 4 20 2 0
BITMAP
F0
F0
F0
F0
F0
F0
F0
F0
F0
F0
F0
F0
F0
F0
F0
F0
F0
F0
F0
F0
ENDCHAR
STARTCHAR 004A
ENCODING 74
SWIDTH 504 0
DWIDTH 14 0
BBX 12 20 0 0
BITMAP
00F0
00F0
00F0
00F0
00F0
00F0
00F0
00F0
00F0
00F0
00F0
00F0
00F0
00F0
00F0
F0F0
F9E0
7FE0
3FC0
1F00
ENDCHAR
STARTCHAR 004B
ENCODING 75
SWIDTH 648 0
DWIDTH 18 0
BBX 16 20 2 0
BITMAP
E01E
E03C
E078
E0F0
E1E0
E1E0
E3C0
E780
EF00
FE00
FE00
EF00
E780
E3C0
E1E0
E0F0
E078
E07C
E03E
E01F
ENDCHAR
STARTCHAR 004C
ENCODING 76
SWIDTH 540 0
DWIDTH 15 0
BBX 12 20 2 0
BITMAP
F000
F000
F000
F000
F000
F000
F000
F000
F000
F000
F000
F000
F000
F000
F000
F000
F000
FFF0
FFF0
FFF0
ENDCHAR
STARTCHAR 004D
ENCODING 77
SWIDTH 864 0
DWIDTH 24 0
BBX 20 20 2 0
BITMAP
E00070
F000F0
F000F0
F801F0
F801F0
FC03F0
FC03F0
FE07F0
EE0770
EF0F70
E70E70
E79E70
E39C70
E3FC70
E1F870
E1F870
E0F070
E0F070
E0E070
E06070
ENDCHAR
STARTCHAR 004E
ENCODING 78
SWIDTH 720 0
DWIDTH 20 0
BBX 16 20 2 0
BITMAP
F007
F007
F807
FC07
FC07
FE07
EF07
EF07
E787
E3C7
E3C7
E1E7
E0F7
E0F7
E07F
E03F
E03F
E01F
E00F
E00F
ENDCHAR
STARTCHAR 004F
ENCODING 79
SWIDTH 756 0
DWIDTH 21 0
BBX 19 20 1 0
BITMAP
03F800
0FFE00
1FFF00
3F1F80
7807C0
7803C0
F001C0
F001E0
E001E0
E001E0
E001E0
E001E0
F001E0
F001C0
7803C0
7807C0
3E0F80
1FFF00
0FFE00
03F800
ENDCHAR
STARTCHAR 0050
ENCODING 80
SWIDTH 648 0
DWIDTH 18 0
BBX 15 20 2 0
BITMAP
FFE0
FFF8
FFFC
E03C
E01E
E01E
E01E
E01E
E01E
E03C
FFFC
FFF8
FFE0
E000
E000
E000
E000
E000
E000
E000
ENDCHAR
STARTCHAR 0051
ENCODING 81
SWIDTH 756 0
DWIDTH 21 0
BBX 19 20 1 0
BITMAP
03F800
0FFE00
1FFF00
3F1F80
7807C0
7803C0
F001C0
F001E0
E001E0
E001E0
E001E0
E001E0
F001E0
F00DC0
781FC0
780FC0
3E0F80
1FFFC0
0FFFC0
03F880
ENDCHAR
STARTCHAR 0052
ENCODING 82
SWIDTH 648 0
DWIDTH 18 0
BBX 15 20 2 0
BITMAP
FFE0
FFF8
FFFC
E03C
E01E
E01E
E01E
E01E
E01E
E03C
FFFC
FFF8
FFF0
E0F0
E078
E078
E03C
E03C
E01C
E01E
ENDCHAR
STARTCHAR 0053
ENCODING 83
SWIDTH 648 0
DWIDTH 18 0
BBX 16 20 1 0
BITMAP
07E0
1FF8
3FFC
7C3E
781F
700F
7800
7C00
3FC0
1FF8
07FE
007F
000F
1007
F007
780F
7C1F
3FFE
1FFC
07F0
ENDCHAR
STARTCHAR 0054
ENCODING 84
SWIDTH 612 0
DWIDTH 17 0
BBX 17 20 0 0
BITMAP
FFFF80
FFFF80
FFFF80
01C000
01C000
01C000
01C000
01C000
01C000
01C000
01C000
01C000
01C000
01C000
01C000
01C000
01C000
01C000
01C000
01C000
ENDCHAR
STARTCHAR 0055
ENCODING 85
SWIDTH 720 0
DWIDTH 20 0
BBX 16 20 2 0
BITMAP
E007
E007
E007
E007
E007
E007
E007
E007
E007
E007
E007
E007
E007
E00F
F00F
781E
7C3E
3FFC
1FF8
07E0
ENDCHAR
STARTCHAR 0056
ENCODING 86
SWIDTH 648 0
DWIDTH 18 0
BBX 17 20 0 0
BITMAP
F00380
700380
700780
780780
380700
380F00
3C0F00
3C0E00
1C1E00
1E1E00
1E1C00
0E1C00
0F3C00
0F3800
073800
077800
07F000
03F000
03F000
03F000
ENDCHAR
STARTCHAR 0057
ENCODING 87
SWIDTH 972 0
DWIDTH 27 0
BBX 27 20 0 0
BITMAP
F00E01E0
701F01C0
781F01C0
781F03C0
381F8380
383F8380
3C3B8780
3C3B8780
1C7BC700
1C71C700
1E71CF00
0E71CE00
0EF1EE00
0FE0EE00
07E0FE00
07E0FC00
07C07C00
07C07C00
03C07800
03C07800
ENDCHAR
STARTCHAR 0058
ENCODING 88
SWIDTH 648 0
DWIDTH 18 0
BBX 17 20 1 0
BITMAP
F00F00
F80F00
781E00
3C3C00
3C3C00
1E7800
0FF000
0FF000
07E000
03C000
03E000
07E000
0FF000
0F7800
1E7800
3C3C00
3C1E00
781E00
F00F00
F00F80
ENDCHAR
STARTCHAR 0059
ENCODING 89
SWIDTH 612 0
DWIDTH 17 0
BBX 17 20 0 0
BITMAP
F00780
780F00
780F00
3C1E00
1C3C00
1E3C00
0F7800
0F7800
07F000
07F000
03E000
01C000
01C000
01C000
01C000
01C000
01C000
01C000
01C000
01C000
ENDCHAR
STARTCHAR 005A
ENCODING 90
SWIDTH 648 0
DWIDTH 18 0
BBX 16 20 1 0
BITMAP
7FFF
7FFE
7FFE
003C
007C
0078
00F0
00F0
01E0
03E0
03C0
0780
0780
0F00
1F00
1E00
3C00
3FFF
7FFF
FFFF
ENDCHAR
STARTCHAR 005B
ENCODING 91
SWIDTH 432 0
DWIDTH 12 0
BBX 6 31 4 -6
BITMAP
FC
FC
FC
E0
E0
E0
E0
E0
E0
E0
E0
E0
E0
E0
E0
E0
E0
E0
E0
E0
E0
E0
E0
E0
E0
E0
E0
E0
FC
FC
FC
ENDCHAR
STARTCHAR 005C
ENCODING 92
SWIDTH 432 0
DWIDTH 12 0
BBX 8 20 2 0
BITMAP
E0
E0
F0
70
70
70
78
38
38
3C
3C
1C
1C
1E
0E
0E
0E
0F
07
07
ENDCHAR
STARTCHAR 005D
ENCODING 93
SWIDTH 432 0
DWIDTH 12 0
BBX 6 31 2 -6
BITMAP
FC
FC
FC
1C
1C
1C
1C
1C
1C
1C
1C
1C
1C
1C
1C
1C
1C
1C
1C
1C
1C
1C
1C
1C
1C
1C
1C
1C
FC
FC
FC
ENDCHAR
STARTCHAR 005E
ENCODING 94
SWIDTH 684 0
DWIDTH 19 0
BBX 13 8 3 11
BITMAP
0200
0700
0F80
1FC0
3DE0
78F0
F078
6030
ENDCHAR
STARTCHAR 005F
ENCODING 95
SWIDTH 648 0
DWIDTH 18 0
BBX 18 3 0 -4
BITMAP
FFFFC0
FFFFC0
FFFFC0
ENDCHAR
STARTCHAR 0060
ENCODING 96
SWIDTH 540 0
DWIDTH 15 0
BBX 4 5 5 22
BITMAP
C0
E0
60
70
70
ENDCHAR
STARTCHAR 0061
ENCODING 97
SWIDTH 576 0
DWIDTH 16 0
BBX 13 15 1 0
BITMAP
0FC0
3FF0
7FF8
7878
3038
00F8
1FF8
3FF8
7E38
F038
E078
F078
7FF8
7FF8
1F38
ENDCHAR
STARTCHAR 0062
ENCODING 98
SWIDTH 612 0
DWIDTH 17 0
BBX 14 20 2 0
BITMAP
E000
E000
E000
E000
E000
EFC0
FFE0
FFF0
F8F8
F038
E03C
E03C
E03C
E03C
E03C
F038
F878
FFF0
FFE0
EFC0
ENDCHAR
STARTCHAR 0063
ENCODING 99
SWIDTH 576 0
DWIDTH 16 0
BBX 14 15 1 0
BITMAP
07C0
1FF0
3FF8
7C7C
783C
F000
F000
F000
F000
F000
703C
7C7C
3FF8
1FF0
07C0
ENDCHAR
STARTCHAR 0064
ENCODING 100
SWIDTH 612 0
DWIDTH 17 0
BBX 14 20 1 0
BITMAP
001C
001C
001C
001C
001C
0FDC
1FFC
3FFC
7C7C
703C
F01C
F01C
F01C
F01C
F01C
703C
787C
3FFC
1FFC
0FDC
ENDCHAR
STARTCHAR 0065
ENCODING 101
SWIDTH 612 0
DWIDTH 17 0
BBX 15 15 1 0
BITMAP
07C0
1FF0
3FF8
783C
701C
F01C
FFFE
FFFE
FFFE
F000
7018
7C7C
3FF8
1FF0
07C0
ENDCHAR
STARTCHAR 0066
ENCODING 102
SWIDTH 396 0
DWIDTH 11 0
BBX 9 20 1 0
BITMAP
0F80
1F80
1F80
3C00
3C00
FF80
FF80
FF80
3C00
3C00
3C00
3C00
3C00
3C00
3C00
3C00
3C00
3C00
3C00
3C00
ENDCHAR
STARTCHAR 0067
ENCODING 103
SWIDTH 612 0
DWIDTH 17 0
BBX 14 22 1 -7
BITMAP
0FDC
1FFC
3FFC
7C7C
703C
F01C
F01C
F01C
F01C
F01C
703C
787C
3FFC
1FFC
0FDC
001C
001C
083C
3C7C
3FF8
1FF0
07E0
ENDCHAR
STARTCHAR 0068
ENCODING 104
SWIDTH 612 0
DWIDTH 17 0
BBX 14 20 2 0
BITMAP
E000
E000
E000
E000
E000
E7E0
FFF0
FFF8
F878
F038
F03C
E03C
E03C
E03C
E03C
E03C
E03C
E03C
E03C
E03C
ENDCHAR
STARTCHAR 0069
ENCODING 105
SWIDTH 288 0
DWIDTH 8 0
BBX 4 20 2 0
BITMAP
F0
F0
F0
00
00
F0
F0
F0
F0
F0
F0
F0
F0
F0
F0
F0
F0
F0
F0
F0
ENDCHAR
STARTCHAR 006A
ENCODING 106
SWIDTH 288 0
DWIDTH 8 0
BBX 6 27 0 -7
BITMAP
1C
1C
1C
00
00
1C
1C
1C
1C
1C
1C
1C
1C
1C
1C
1C
1C
1C
1C
1C
1C
1C
1C
3C
FC
F8
F0
ENDCHAR
STARTCHAR 006B
ENCODING 107
SWIDTH 540 0
DWIDTH 15 0
BBX 13 20 2 0
BITMAP
E000
E000
E000
E000
E000
E0F8
E0F0
E1E0
E3C0
E7C0
E780
EF00
FE00
EF00
E780
E7C0
E3E0
E1E0
E0F0
E078
ENDCHAR
STARTCHAR 006C
ENCODING 108
SWIDTH 288 0
DWIDTH 8 0
BBX 4 20 2 0
BITMAP
F0
F0
F0
F0
F0
F0
F0
F0
F0
F0
F0
F0
F0
F0
F0
F0
F0
F0
F0
F0
ENDCHAR
STARTCHAR 006D
ENCODING 109
SWIDTH 900 0
DWIDTH 25 0
BBX 21 15 2 0
BITMAP
E7C3E0
FFEFF0
FFFFF8
F0F878
F07838
E07038
E07038
E07038
E07038
E07038
E07038
E07038
E07038
E07038
E07038
ENDCHAR
STARTCHAR 006E
ENCODING 110
SWIDTH 612 0
DWIDTH 17 0
BBX 14 15 2 0
BITMAP
E7E0
FFF0
FFF8
F878
F038
F03C
E03C
E03C
E03C
E03C
E03C
E03C
E03C
E03C
E03C
ENDCHAR
STARTCHAR 006F
ENCODING 111
SWIDTH 612 0
DWIDTH 17 0
BBX 15 15 1 0
BITMAP
07C0
1FF0
3FF8
7C7C
701E
F01E
F01E
F01E
F01E
F01E
781C
7C7C
3FF8
1FF0
07C0
ENDCHAR
STARTCHAR 0070
ENCODING 112
SWIDTH 612 0
DWIDTH 17 0
BBX 14 21 2 -6
BITMAP
EFC0
FFE0
FFF0
F8F8
F038
E03C
E03C
E03C
E03C
E03C
F038
F878
FFF0
FFE0
E7C0
E000
E000
E000
E000
E000
E000
ENDCHAR
STARTCHAR 0071
ENCODING 113
SWIDTH 612 0
DWIDTH 17 0
BBX 14 21 1 -6
BITMAP
0FDC
1FFC
3FFC
7C7C
703C
F01C
F01C
F01C
F01C
F01C
703C
787C
3FFC
1FFC
0FDC
001C
001C
001C
001C
001C
001C
ENDCHAR
STARTCHAR 0072
ENCODING 114
SWIDTH 396 0
DWIDTH 11 0
BBX 8 15 2 0
BITMAP
E7
EF
FF
F8
F0
F0
E0
E0
E0
E0
E0
E0
E0
E0
E0
ENDCHAR
STARTCHAR 0073
ENCODING 115
SWIDTH 540 0
DWIDTH 15 0
BBX 13 15 1 0
BITMAP
0F80
3FE0
7FF0
70F8
7070
7800
7F80
1FE0
03F0
0078
F078
F878
7FF0
3FF0
0FC0
ENDCHAR
STARTCHAR 0074
ENCODING 116
SWIDTH 432 0
DWIDTH 12 0
BBX 11 19 0 0
BITMAP
1C00
1C00
1C00
1C00
FFE0
FFE0
FFE0
1C00
1C00
1C00
1C00
1C00
1C00
1C00
1C00
1E00
1FE0
0FE0
07E0
ENDCHAR
STARTCHAR 0075
ENCODING 117
SWIDTH 612 0
DWIDTH 17 0
BBX 13 15 2 0
BITMAP
E038
E038
E038
E038
E038
E038
E038
E038
E038
E038
F078
F8F8
7FF8
7FF8
1FB8
ENDCHAR
STARTCHAR 0076
ENCODING 118
SWIDTH 540 0
DWIDTH 15 0
BBX 14 15 1 0
BITMAP
E03C
E038
F038
7078
7070
3870
38E0
3CE0
1DE0
1DC0
1FC0
0FC0
0F80
0F80
0780
ENDCHAR
STARTCHAR 0077
ENCODING 119
SWIDTH 792 0
DWIDTH 22 0
BBX 21 15 1 0
BITMAP
E07078
E0F070
F0F070
70F8F0
71F8E0
79F8E0
39DDE0
3B9DC0
3B9DC0
3F8DC0
1F0FC0
1F0F80
1F0780
0E0780
0E0700
ENDCHAR
STARTCHAR 0078
ENCODING 120
SWIDTH 540 0
DWIDTH 15 0
BBX 14 15 1 0
BITMAP
F03C
F078
78F0
3CE0
1FE0
1FC0
0F80
0780
0F80
1FC0
1DE0
3CF0
78F0
F078
F03C
ENDCHAR
STARTCHAR 0079
ENCODING 121
SWIDTH 576 0
DWIDTH 16 0
BBX 14 22 1 -7
BITMAP
E01C
E03C
F038
7038
7878
3870
3870
3CF0
1CE0
1FE0
0FC0
0FC0
0FC0
0780
0780
0700
0700
0F00
0E00
0E00
1E00
1C00
ENDCHAR
STARTCHAR 007A
ENCODING 122
SWIDTH 540 0
DWIDTH 15 0
BBX 13 15 1 0
BITMAP
FFF8
FFF0
FFE0
01E0
03C0
0380
0780
0F00
0E00
1E00
3C00
3800
7FF0
FFF0
FFF0
ENDCHAR
STARTCHAR 007B
ENCODING 123
SWIDTH 432 0
DWIDTH 12 0
BBX 7 31 4 -6
BITMAP
1E
3E
3E
38
38
38
38
38
38
38
38
38
38
78
F0
E0
F0
78
78
38
38
38
38
38
38
38
38
38
3E
3E
1E
ENDCHAR
STARTCHAR 007C
ENCODING 124
SWIDTH 288 0
DWIDTH 8 0
BBX 4 20 2 0
BITMAP
F0
F0
F0
F0
F0
F0
F0
F0
F0
F0
F0
F0
F0
F0
F0
F0
F0
F0
F0
F0
ENDCHAR
STARTCHAR 007D
ENCODING 125
SWIDTH 432 0
DWIDTH 12 0
BBX 8 31 1 -6
BITMAP
F0
F8
FC
3C
1C
1C
1C
1C
1C
1C
1C
1C
1C
1E
1E
0F
1E
1E
1C
1C
1C
1C
1C
1C
1C
1C
1C
3C
FC
F8
F0
ENDCHAR
STARTCHAR 007E
ENCODING 126
SWIDTH 720 0
DWIDTH 20 0
BBX 14 6 3 6
BITMAP
3C00
7E1C
FF9C
FFFC
E3F8
E1F8
ENDCHAR
STARTCHAR 00A0
ENCODING 160
SWIDTH 216 0
DWIDTH 6 0
BBX 0 0 0 0
BITMAP
ENDCHAR
STARTCHAR 00A1
ENCODING 161
SWIDTH 360 0
DWIDTH 10 0
BBX 4 20 3 -5
BITMAP
F0
F0
F0
00
00
F0
F0
F0
F0
F0
F0
F0
F0
F0
F0
F0
F0
F0
F0
F0
ENDCHAR
STARTCHAR 00A2
ENCODING 162
SWIDTH 576 0
DWIDTH 16 0
BBX 14 21 1 -1
BITMAP
0380
0380
0380
0FE0
3FF8
7FF8
783C
7038
F000
F000
F000
F000
F000
703C
783C
3FF8
3FF0
0FE0
0380
0380
0380
ENDCHAR
STARTCHAR 00A3
ENCODING 163
SWIDTH 576 0
DWIDTH 16 0
BBX 14 20 1 0
BITMAP
03C0
0FF0
1FF8
1E78
1C3C
3C18
3C00
3C00
3C00
FFC0
FFC0
FFC0
3C00
3C00
3C00
3C00
3C00
FFF0
FFF0
FFF0
ENDCHAR
STARTCHAR 00A4
ENCODING 164
SWIDTH 684 0
DWIDTH 19 0
BBX 16 16 1 2
BITMAP
6002
F3E7
FFFF
7FFE
3C1E
780E
700E
7007
7007
700E
380E
3C1E
7FFE
FFFF
F3E7
6002
ENDCHAR
STARTCHAR 00A5
ENCODING 165
SWIDTH 612 0
DWIDTH 17 0
BBX 17 20 0 0
BITMAP
F00780
780F00
780F00
3C1E00
1E3C00
1E3C00
0F7800
0F7800
07F000
03E000
1FFC00
1FFC00
1FFC00
01C000
1FFC00
1FFC00
1FFC00
01C000
01C000
01C000
ENDCHAR
STARTCHAR 00A6
ENCODING 166
SWIDTH 288 0
DWIDTH 8 0
BBX 4 26 2 -6
BITMAP
F0
F0
F0
F0
F0
F0
F0
F0
F0
F0
F0
00
00
00
F0
F0
F0
F0
F0
F0
F0
F0
F0
F0
F0
F0
ENDCHAR
STARTCHAR 00A7
ENCODING 167
SWIDTH 540 0
DWIDTH 15 0
BBX 13 22 1 -4
BITMAP
0F80
3FC0
7FE0
70F0
70F0
7800
7F00
3FE0
3FF0
70F8
F078
F078
7E78
7FF0
1FF0
01F0
0078
F078
7870
7FF0
3FE0
0F80
ENDCHAR
STARTCHAR 00A8
ENCODING 168
SWIDTH 540 0
DWIDTH 15 0
BBX 9 3 3 22
BITMAP
E380
E380
E380
ENDCHAR
STARTCHAR 00A9
ENCODING 169
SWIDTH 900 0
DWIDTH 25 0
BBX 23 23 1 -2
BITMAP
01FE00
07FF80
0FFFE0
1F03F0
3C00F8
787C78
70FE3C
F1EF1C
E3831E
E3801E
E3800E
E3800E
E3801E
E3831E
F1EF1C
70FE3C
787C38
3C0078
3E00F0
1F83E0
0FFFC0
03FF80
00FE00
ENDCHAR
STARTCHAR 00AA
ENCODING 170
SWIDTH 324 0
DWIDTH 9 0
BBX 7 8 1 7
BITMAP
7C
6E
06
7E
E6
C6
FE
76
ENDCHAR
STARTCHAR 00AB
ENCODING 171
SWIDTH 576 0
DWIDTH 16 0
BBX 12 12 2 1
BITMAP
0C30
0E70
1C60
38E0
71C0
E380
7380
31C0
38E0
1C70
0E30
0420
ENDCHAR
STARTCHAR 00AC
ENCODING 172
SWIDTH 612 0
DWIDTH 17 0
BBX 13 6 2 5
BITMAP
FFF8
FFF8
FFF8
0038
0038
0038
ENDCHAR
STARTCHAR 00AD
ENCODING 173
SWIDTH 432 0
DWIDTH 12 0
BBX 8 3 2 7
BITMAP
FF
FF
FF
ENDCHAR
STARTCHAR 00AE
ENCODING 174
SWIDTH 648 0
DWIDTH 18 0
BBX 14 14 2 8
BITMAP
0FC0
1FE0
3CF0
7038
E79C
C4CC
C4CC
C78C
C48C
E49C
7018
7878
3FF0
0FC0
ENDCHAR
STARTCHAR 00AF
ENCODING 175
SWIDTH 504 0
DWIDTH 14 0
BBX 8 3 3 23
BITMAP
FF
FF
FF
ENDCHAR
STARTCHAR 00B0
ENCODING 176
SWIDTH 468 0
DWIDTH 13 0
BBX 10 10 1 10
BITMAP
1E00
7F00
FF80
E3C0
E1C0
E1C0
E3C0
7F80
7F00
1E00
ENDCHAR
STARTCHAR 00B1
ENCODING 177
SWIDTH 612 0
DWIDTH 17 0
BBX 13 13 2 2
BITMAP
0700
0700
0700
FFF8
FFF8
FFF8
0700
0700
0700
0000
FFF8
FFF8
FFF8
ENDCHAR
STARTCHAR 00B2
ENCODING 178
SWIDTH 396 0
DWIDTH 11 0
BBX 9 13 1 7
BITMAP
1E00
7F00
6380
E180
0180
0380
0700
0F00
1C00
3800
7000
FF80
FF80
ENDCHAR
STARTCHAR 00B3
ENCODING 179
SWIDTH 396 0
DWIDTH 11 0
BBX 9 13 1 7
BITMAP
7F00
7F00
0700
0E00
1C00
3E00
1F00
0300
0380
0300
E700
7F00
3C00
ENDCHAR
STARTCHAR 00B4
ENCODING 180
SWIDTH 540 0
DWIDTH 15 0
BBX 4 5 6 22
BITMAP
30
70
60
E0
C0
ENDCHAR
STARTCHAR 00B5
ENCODING 181
SWIDTH 648 0
DWIDTH 18 0
BBX 14 22 2 -7
BITMAP
E03C
E03C
E03C
E03C
E03C
E03C
E03C
E03C
E03C
F03C
F03C
F87C
FFFC
FFDC
FF9C
E000
E000
E000
E000
E000
E000
E000
ENDCHAR
STARTCHAR 00B6
ENCODING 182
SWIDTH 720 0
DWIDTH 20 0
BBX 18 24 1 -4
BITMAP
0FF3C0
3FF3C0
7FF3C0
7FF3C0
7FF3C0
FFF3C0
FFF3C0
FFF3C0
7FF3C0
7FF3C0
7FF3C0
3FF3C0
0FF3C0
00F3C0
00F3C0
00F3C0
00F3C0
00F3C0
00F3C0
00F3C0
00F3C0
00F3C0
00F3C0
00F3C0
ENDCHAR
STARTCHAR 00B7
ENCODING 183
SWIDTH 252 0
DWIDTH 7 0
BBX 4 4 2 7
BITMAP
E0
F0
F0
E0
ENDCHAR
STARTCHAR 00B8
ENCODING 184
SWIDTH 396 0
DWIDTH 11 0
BBX 5 7 3 -7
BITMAP
30
70
78
18
18
78
F0
ENDCHAR
STARTCHAR 00B9
ENCODING 185
SWIDTH 360 0
DWIDTH 10 0
BBX 4 13 2 7
BITMAP
70
F0
F0
30
30
30
30
30
30
30
30
30
30
ENDCHAR
STARTCHAR 00BA
ENCODING 186
SWIDTH 360 0
DWIDTH 10 0
BBX 8 8 1 7
BITMAP
3C
7E
C6
C3
C3
E6
7E
18
ENDCHAR
STARTCHAR 00BB
ENCODING 187
SWIDTH 576 0
DWIDTH 16 0
BBX 12 12 2 1
BITMAP
C300
E380
7380
39C0
38E0
1C70
1C70
38E0
71C0
6380
E700
4100
ENDCHAR
STARTCHAR 00BC
ENCODING 188
SWIDTH 1044 0
DWIDTH 29 0
BBX 23 20 2 0
BITMAP
700040
F000E0
F001C0
300380
300380
300700
300E00
301C00
301C38
303830
307070
306060
30E0E0
01C0CC
0381CC
03818C
0701FE
0E01FE
1C000C
04000C
ENDCHAR
STARTCHAR 00BD
ENCODING 189
SWIDTH 1008 0
DWIDTH 28 0
BBX 25 20 2 0
BITMAP
70004000
F000E000
F001C000
30038000
30038000
30070000
300E0000
301C3E00
301C7F00
3038E300
3070C380
30E00380
00E00380
01C00700
03800E00
03801C00
07003800
0E007000
1C00FF80
0400FF80
ENDCHAR
STARTCHAR 00BE
ENCODING 190
SWIDTH 1044 0
DWIDTH 29 0
BBX 26 20 1 0
BITMAP
7F001000
7F001800
07003800
0E007000
1C00E000
3E00E000
1F01C000
03038000
03870600
03070E00
E70E0C00
7F1C1C00
3C381800
00383980
00703180
00E07180
00C07FC0
01C07FC0
03800180
01000180
ENDCHAR
STARTCHAR 00BF
ENCODING 191
SWIDTH 540 0
DWIDTH 15 0
BBX 13 20 1 -5
BITMAP
0780
0780
0780
0780
0000
0780
0780
0780
0F00
1F00
3E00
7800
7800
F000
F000
F078
78F0
7FF0
3FE0
1FC0
ENDCHAR
STARTCHAR 00C0
ENCODING 192
SWIDTH 684 0
DWIDTH 19 0
BBX 17 27 1 0
BITMAP
060000
070000
030000
038000
018000
000000
000000
03E000
07E000
07F000
07F000
0F7000
0F7800
0E7800
1E3800
1E3800
1C3C00
1C1C00
3C1C00
381E00
3FFE00
7FFE00
7FFF00
700F00
F00700
F00780
E00780
ENDCHAR
STARTCHAR 00C1
ENCODING 193
SWIDTH 684 0
DWIDTH 19 0
BBX 17 27 1 0
BITMAP
007000
006000
00E000
00C000
00C000
000000
000000
03E000
07E000
07F000
07F000
0F7000
0F7800
0E7800
1E3800
1E3800
1C3C00
1C3C00
3C1C00
381E00
3FFE00
7FFE00
7FFF00
700F00
F00700
F00780
E00780
ENDCHAR
STARTCHAR 00C2
ENCODING 194
SWIDTH 684 0
DWIDTH 19 0
BBX 17 26 1 0
BITMAP
03C000
07E000
0E7000
0E3800
000000
000000
03E000
07E000
07F000
07F000
0F7000
0F7800
0E7800
1E3800
1E3800
1C3C00
1C3C00
3C1C00
381E00
3FFE00
7FFE00
7FFF00
700F00
F00700
F00780
E00780
ENDCHAR
STARTCHAR 00C3
ENCODING 195
SWIDTH 684 0
DWIDTH 19 0
BBX 17 27 1 0
BITMAP
0F1800
1FF800
1DF800
0C7000
000000
000000
000000
03E000
07E000
07F000
07F000
0F7000
0F7800
0E7800
1E3800
1E3800
1C3C00
1C3C00
3C1C00
381E00
3FFE00
7FFE00
7FFF00
700F00
F00700
F00780
E00780
ENDCHAR
STARTCHAR 00C4
ENCODING 196
SWIDTH 684 0
DWIDTH 19 0
BBX 17 25 1 0
BITMAP
0E3800
0E3800
0E3800
000000
000000
03E000
07E000
07F000
07F000
0F7000
0F7800
0E7800
1E3800
1E3800
1C3C00
1C3C00
3C1C00
381E00
3FFE00
7FFE00
7FFF00
700F00
F00700
F00780
E00780
ENDCHAR
STARTCHAR 00C5
ENCODING 197
SWIDTH 684 0
DWIDTH 19 0
BBX 17 29 1 0
BITMAP
03C000
07E000
067000
063000
067000
07E000
03C000
000000
000000
03E000
07E000
07F000
07F000
0F7000
0F7800
0E7800
1E3800
1E3800
1C3C00
1C3C00
3C1C00
381E00
3FFE00
7FFE00
7FFF00
700F00
F00700
F00780
E00780
ENDCHAR
STARTCHAR 00C6
ENCODING 198
SWIDTH 936 0
DWIDTH 26 0
BBX 24 20 1 0
BITMAP
03FFFF
07FFFF
07FFFF
071C00
0F1C00
0F1C00
0E1C00
1E1C00
1E1FFC
1C1FFC
1C1FFC
3C1C00
381C00
3FFC00
7FFC00
7FFC00
701C00
F01FFF
F01FFF
E01FFF
ENDCHAR
STARTCHAR 00C7
ENCODING 199
SWIDTH 756 0
DWIDTH 21 0
BBX 18 26 1 -6
BITMAP
03F800
0FFE00
1FFF00
3E0F80
7807C0
7803C0
F00180
F00000
E00000
E00000
E00000
E00000
F00000
F00180
7003C0
7803C0
3E0F80
1FFF00
0FFE00
03F800
00C000
00E000
007000
003000
00F000
01E000
ENDCHAR
STARTCHAR 00C8
ENCODING 200
SWIDTH 576 0
DWIDTH 16 0
BBX 13 27 2 0
BITMAP
0C00
0E00
0E00
0600
0700
0000
0000
FFF8
FFF8
FFF8
E000
E000
E000
E000
E000
FFE0
FFE0
FFE0
E000
E000
E000
E000
E000
E000
FFF8
FFF8
FFF8
ENDCHAR
STARTCHAR 00C9
ENCODING 201
SWIDTH 576 0
DWIDTH 16 0
BBX 13 27 2 0
BITMAP
01C0
0180
0380
0380
0300
0000
0000
FFF8
FFF8
FFF8
E000
E000
E000
E000
E000
FFE0
FFE0
FFE0
E000
E000
E000
E000
E000
E000
FFF8
FFF8
FFF8
ENDCHAR
STARTCHAR 00CA
ENCODING 202
SWIDTH 576 0
DWIDTH 16 0
BBX 13 26 2 0
BITMAP
0F00
1F80
39C0
78E0
0000
0000
FFF8
FFF8
FFF8
E000
E000
E000
E000
E000
FFE0
FFE0
FFE0
E000
E000
E000
E000
E000
E000
FFF8
FFF8
FFF8
ENDCHAR
STARTCHAR 00CB
ENCODING 203
SWIDTH 576 0
DWIDTH 16 0
BBX 13 25 2 0
BITMAP
38E0
38E0
38E0
0000
0000
FFF8
FFF8
FFF8
E000
E000
E000
E000
E000
FFE0
FFE0
FFE0
E000
E000
E000
E000
E000
E000
FFF8
FFF8
FFF8
ENDCHAR
STARTCHAR 00CC
ENCODING 204
SWIDTH 288 0
DWIDTH 8 0
BBX 5 27 1 0
BITMAP
C0
E0
60
70
70
00
00
78
78
78
78
78
78
78
78
78
78
78
78
78
78
78
78
78
78
78
78
ENDCHAR
STARTCHAR 00CD
ENCODING 205
SWIDTH 288 0
DWIDTH 8 0
BBX 5 27 2 0
BITMAP
18
38
30
70
60
00
00
F0
F0
F0
F0
F0
F0
F0
F0
F0
F0
F0
F0
F0
F0
F0
F0
F0
F0
F0
F0
ENDCHAR
STARTCHAR 00CE
ENCODING 206
SWIDTH 288 0
DWIDTH 8 0
BBX 10 26 -1 0
BITMAP
1E00
3F00
7380
E3C0
0000
0000
1E00
1E00
1E00
1E00
1E00
1E00
1E00
1E00
1E00
1E00
1E00
1E00
1E00
1E00
1E00
1E00
1E00
1E00
1E00
1E00
ENDCHAR
STARTCHAR 00CF
ENCODING 207
SWIDTH 288 0
DWIDTH 8 0
BBX 9 25 -1 0
BITMAP
F380
F380
F380
0000
0000
1E00
1E00
1E00
1E00
1E00
1E00
1E00
1E00
1E00
1E00
1E00
1E00
1E00
1E00
1E00
1E00
1E00
1E00
1E00
1E00
ENDCHAR
STARTCHAR 00D0
ENCODING 208
SWIDTH 720 0
DWIDTH 20 0
BBX 18 20 0 0
BITMAP
3FF000
3FFC00
3FFF00
381F00
380780
380380
3803C0
3803C0
FFC3C0
FFC1C0
FFC1C0
3803C0
3803C0
3803C0
380780
380780
381F00
3FFF00
3FFC00
3FF800
ENDCHAR
STARTCHAR 00D1
ENCODING 209
SWIDTH 720 0
DWIDTH 20 0
BBX 16 26 2 0
BITMAP
0F18
1FF8
1DF8
0C70
0000
0000
F007
F007
F807
FC07
FC07
FE07
EF07
EF07
E787
E3C7
E3C7
E1E7
E0F7
E0F7
E07F
E03F
E03F
E01F
E00F
E00F
ENDCHAR
STARTCHAR 00D2
ENCODING 210
SWIDTH 756 0
DWIDTH 21 0
BBX 19 27 1 0
BITMAP
030000
038000
018000
01C000
01C000
000000
000000
03F800
0FFE00
1FFF00
3F1F80
7807C0
7803C0
F001C0
F001E0
E001E0
E001E0
E001E0
E001E0
F001E0
F001C0
7803C0
7807C0
3E0F80
1FFF00
0FFE00
03F800
ENDCHAR
STARTCHAR 00D3
ENCODING 211
SWIDTH 756 0
DWIDTH 21 0
BBX 19 27 1 0
BITMAP
003800
003000
007000
007000
006000
000000
000000
03F800
0FFE00
1FFF00
3F1F80
7807C0
7803C0
F001C0
F001E0
E001E0
E001E0
E001E0
E001E0
F001E0
F001C0
7803C0
7807C0
3E0F80
1FFF00
0FFE00
03F800
ENDCHAR
STARTCHAR 00D4
ENCODING 212
SWIDTH 756 0
DWIDTH 21 0
BBX 19 26 1 0
BITMAP
01E000
01F000
03B800
071C00
000000
000000
03F800
0FFE00
1FFF00
3F1F80
7807C0
7803C0
F001C0
F001E0
E001E0
E001E0
E001E0
E001E0
F001E0
F001C0
7803C0
7807C0
3E0F80
1FFF00
0FFE00
03F800
ENDCHAR
STARTCHAR 00D5
ENCODING 213
SWIDTH 756 0
DWIDTH 21 0
BBX 19 26 1 0
BITMAP
038C00
07EC00
06FC00
063C00
000000
000000
03F800
0FFE00
1FFF00
3F1F80
7807C0
7803C0
F001C0
F001E0
E001E0
E001E0
E001E0
E001E0
F001E0
F001C0
7803C0
7807C0
3E0F80
1FFF00
0FFE00
03F800
ENDCHAR
STARTCHAR 00D6
ENCODING 214
SWIDTH 756 0
DWIDTH 21 0
BBX 19 25 1 0
BITMAP
071C00
071C00
071C00
000000
000000
03F800
0FFE00
1FFF00
3F1F80
7807C0
7803C0
F001C0
F001E0
E001E0
E001E0
E001E0
E001E0
F001E0
F001C0
7803C0
7807C0
3E0F80
1FFF00
0FFE00
03F800
ENDCHAR
STARTCHAR 00D7
ENCODING 215
SWIDTH 504 0
DWIDTH 14 0
BBX 10 11 2 4
BITMAP
4080
E1C0
F3C0
7F80
3F00
1E00
3F00
7F80
F3C0
E1C0
4080
ENDCHAR
STARTCHAR 00D8
ENCODING 216
SWIDTH 756 0
DWIDTH 21 0
BBX 19 20 1 0
BITMAP
03F880
0FFFC0
1FFFE0
3F0FC0
7807C0
780FC0
F01FE0
F03DE0
E079E0
E0F1E0
E1E1E0
E3C1E0
F781E0
FF01C0
7E03C0
7C07C0
7E0F80
FFFF00
7FFE00
23F800
ENDCHAR
STARTCHAR 00D9
ENCODING 217
SWIDTH 720 0
DWIDTH 20 0
BBX 16 27 2 0
BITMAP
0700
0300
0380
0380
0180
0000
0000
E007
E007
E007
E007
E007
E007
E007
E007
E007
E007
E007
E007
E007
E00F
F00F
781E
7C3E
3FFC
1FF8
07E0
ENDCHAR
STARTCHAR 00DA
ENCODING 218
SWIDTH 720 0
DWIDTH 20 0
BBX 16 27 2 0
BITMAP
00E0
00E0
00C0
01C0
0180
0000
0000
E007
E007
E007
E007
E007
E007
E007
E007
E007
E007
E007
E007
E007
E00F
F00F
781E
7C3E
3FFC
1FF8
07E0
ENDCHAR
STARTCHAR 00DB
ENCODING 219
SWIDTH 720 0
DWIDTH 20 0
BBX 16 26 2 0
BITMAP
03C0
07E0
0E70
1C38
0000
0000
E007
E007
E007
E007
E007
E007
E007
E007
E007
E007
E007
E007
E007
E00F
F00F
781E
7C3E
3FFC
1FF8
07E0
ENDCHAR
STARTCHAR 00DC
ENCODING 220
SWIDTH 720 0
DWIDTH 20 0
BBX 16 25 2 0
BITMAP
0E70
0E70
0E70
0000
0000
E007
E007
E007
E007
E007
E007
E007
E007
E007
E007
E007
E007
E007
E00F
F00F
781E
7C3E
3FFC
1FF8
07E0
ENDCHAR
STARTCHAR 00DD
ENCODING 221
SWIDTH 612 0
DWIDTH 17 0
BBX 17 27 0 0
BITMAP
007000
006000
00E000
00C000
01C000
000000
000000
F00780
780F00
780F00
3C1E00
1C3C00
1E3C00
0F7800
0F7800
07F000
07F000
03E000
01C000
01C000
01C000
01C000
01C000
01C000
01C000
01C000
01C000
ENDCHAR
STARTCHAR 00DE
ENCODING 222
SWIDTH 648 0
DWIDTH 18 0
BBX 15 20 2 0
BITMAP
E000
E000
E000
E000
FFE0
FFF0
FFF8
E03C
E01C
E01E
E01E
E01C
E03C
FFF8
FFF0
FFE0
E000
E000
E000
E000
ENDCHAR
STARTCHAR 00DF
ENCODING 223
SWIDTH 648 0
DWIDTH 18 0
BBX 14 20 2 0
BITMAP
1F80
3FC0
7FE0
F8F0
F070
E070
E070
E0F0
E3E0
E3F0
E3F8
E078
E03C
E01C
E01C
E03C
E47C
E7F8
E7F0
E7C0
ENDCHAR
STARTCHAR 00E0
ENCODING 224
SWIDTH 576 0
DWIDTH 16 0
BBX 13 22 1 0
BITMAP
0E00
0E00
0600
0700
0300
0000
0000
0FC0
3FF0
7FF8
7878
3038
00F8
1FF8
3FF8
7E38
F038
E078
F078
7FF8
7FF8
1F38
ENDCHAR
STARTCHAR 00E1
ENCODING 225
SWIDTH 576 0
DWIDTH 16 0
BBX 13 22 1 0
BITMAP
00C0
01C0
01C0
0180
0380
0000
0000
0FC0
3FF0
7FF8
7878
3038
00F8
1FF8
3FF8
7E38
F038
E078
F078
7FF8
7FF8
1F38
ENDCHAR
STARTCHAR 00E2
ENCODING 226
SWIDTH 576 0
DWIDTH 16 0
BBX 13 21 1 0
BITMAP
0780
0FC0
0EE0
1C70
2000
0000
0FC0
3FF0
7FF8
7878
3038
00F8
1FF8
3FF8
7E38
F038
E078
F078
FFF8
7FF8
1F38
ENDCHAR
STARTCHAR 00E3
ENCODING 227
SWIDTH 576 0
DWIDTH 16 0
BBX 13 21 1 0
BITMAP
1E30
1FB0
1BF0
18E0
0000
0000
0FC0
3FF0
7FF8
7878
3038
00F8
1FF8
3FF8
7E38
F038
E038
F078
7FF8
7FF8
1F38
ENDCHAR
STARTCHAR 00E4
ENCODING 228
SWIDTH 576 0
DWIDTH 16 0
BBX 13 20 1 0
BITMAP
1C70
1C70
1C70
0000
0000
0FC0
3FF0
7FF8
7878
3038
00F8
1FF8
3FF8
7E38
F038
E078
F078
FFF8
7FF8
1F38
ENDCHAR
STARTCHAR 00E5
ENCODING 229
SWIDTH 576 0
DWIDTH 16 0
BBX 13 23 1 0
BITMAP
0780
0FC0
0CE0
0C60
0CE0
0FC0
0780
0000
0FC0
3FF0
7FF8
7878
3038
00F8
1FF8
3FF8
7E38
F038
E078
F078
7FF8
7FF8
1F38
ENDCHAR
STARTCHAR 00E6
ENCODING 230
SWIDTH 936 0
DWIDTH 26 0
BBX 24 15 1 0
BITMAP
0FC1F0
1FF7F8
3FFFFC
787E1E
303C0E
003C0F
03FFFF
3FFFFF
7F3FFF
F03C00
E03C0C
F07E1E
FFEFFE
7FC7FC
1F01F0
ENDCHAR
STARTCHAR 00E7
ENCODING 231
SWIDTH 576 0
DWIDTH 16 0
BBX 14 21 1 -6
BITMAP
07C0
1FF0
3FF8
7C7C
783C
F000
F000
F000
F000
F000
703C
783C
3FF8
1FF0
0FE0
0300
0380
01C0
01C0
03C0
0780
ENDCHAR
STARTCHAR 00E8
ENCODING 232
SWIDTH 612 0
DWIDTH 17 0
BBX 15 22 1 0
BITMAP
0E00
0600
0700
0300
0380
0000
0000
07C0
1FF0
3FF8
783C
701C
F01C
FFFE
FFFE
FFFE
F000
7018
7C7C
3FF8
1FF0
07C0
ENDCHAR
STARTCHAR 00E9
ENCODING 233
SWIDTH 612 0
DWIDTH 17 0
BBX 15 22 1 0
BITMAP
0060
00E0
00C0
01C0
0180
0000
0000
07C0
1FF0
3FF8
783C
701C
F01C
FFFE
FFFE
FFFE
F000
7018
7C7C
3FF8
1FF0
07C0
ENDCHAR
STARTCHAR 00EA
ENCODING 234
SWIDTH 612 0
DWIDTH 17 0
BBX 15 21 1 0
BITMAP
0380
07C0
0EE0
1C70
0000
0000
07C0
1FF0
3FF8
783C
701C
F01C
FFFE
FFFE
FFFE
F000
7018
7C7C
3FF8
1FF0
07C0
ENDCHAR
STARTCHAR 00EB
ENCODING 235
SWIDTH 612 0
DWIDTH 17 0
BBX 15 20 1 0
BITMAP
1C70
1C70
1C70
0000
0000
07C0
1FF0
3FF8
783C
701C
F01C
FFFE
FFFE
FFFE
F000
7018
7C7C
3FF8
1FF0
07C0
ENDCHAR
STARTCHAR 00EC
ENCODING 236
SWIDTH 288 0
DWIDTH 8 0
BBX 5 22 1 0
BITMAP
C0
E0
60
70
70
00
00
78
78
78
78
78
78
78
78
78
78
78
78
78
78
78
ENDCHAR
STARTCHAR 00ED
ENCODING 237
SWIDTH 288 0
DWIDTH 8 0
BBX 5 22 2 0
BITMAP
38
38
30
70
60
00
00
F0
F0
F0
F0
F0
F0
F0
F0
F0
F0
F0
F0
F0
F0
F0
ENDCHAR
STARTCHAR 00EE
ENCODING 238
SWIDTH 288 0
DWIDTH 8 0
BBX 10 21 -1 0
BITMAP
1E00
3F00
7380
E1C0
0000
0000
1E00
1E00
1E00
1E00
1E00
1E00
1E00
1E00
1E00
1E00
1E00
1E00
1E00
1E00
1E00
ENDCHAR
STARTCHAR 00EF
ENCODING 239
SWIDTH 288 0
DWIDTH 8 0
BBX 9 20 -1 0
BITMAP
F380
F380
F380
0000
0000
1E00
1E00
1E00
1E00
1E00
1E00
1E00
1E00
1E00
1E00
1E00
1E00
1E00
1E00
1E00
ENDCHAR
STARTCHAR 00F0
ENCODING 240
SWIDTH 612 0
DWIDTH 17 0
BBX 14 22 1 0
BITMAP
0020
0770
07F0
07E0
01F0
03B8
0018
07DC
1FFC
3FFC
787C
703C
F01C
F01C
E01C
F01C
F01C
703C
787C
3FF8
1FF0
0FC0
ENDCHAR
STARTCHAR 00F1
ENCODING 241
SWIDTH 612 0
DWIDTH 17 0
BBX 14 21 2 0
BITMAP
3E70
3FF0
33E0
31E0
0000
0000
E7E0
FFF0
FFF8
F878
F038
F03C
E03C
E03C
E03C
E03C
E03C
E03C
E03C
E03C
E03C
ENDCHAR
STARTCHAR 00F2
ENCODING 242
SWIDTH 612 0
DWIDTH 17 0
BBX 15 22 1 0
BITMAP
0E00
0600
0700
0700
0300
0000
0000
07C0
1FF0
3FF8
7C7C
701E
F01E
F01E
F01E
F01E
F01E
781C
7C7C
3FF8
1FF0
07C0
ENDCHAR
STARTCHAR 00F3
ENCODING 243
SWIDTH 612 0
DWIDTH 17 0
BBX 15 22 1 0
BITMAP
00E0
00C0
01C0
01C0
0180
0000
0000
07C0
1FF0
3FF8
7C7C
701E
F01E
F01E
F01E
F01E
F01E
781C
7C7C
3FF8
1FF0
07C0
ENDCHAR
STARTCHAR 00F4
ENCODING 244
SWIDTH 612 0
DWIDTH 17 0
BBX 15 21 1 0
BITMAP
0380
07C0
0EE0
1C70
0000
0000
07C0
1FF0
3FF8
7C7C
701E
F01E
F01E
F01E
F01E
F01E
781C
7C7C
3FF8
1FF0
07C0
ENDCHAR
STARTCHAR 00F5
ENCODING 245
SWIDTH 612 0
DWIDTH 17 0
BBX 15 21 1 0
BITMAP
0E30
1FB0
1BF0
18F0
0000
0000
07C0
1FF0
3FF8
7C7C
701E
F01E
F01E
F01E
F01E
F01E
781C
7C7C
3FF8
1FF0
07C0
ENDCHAR
STARTCHAR 00F6
ENCODING 246
SWIDTH 612 0
DWIDTH 17 0
BBX 15 20 1 0
BITMAP
1C70
1C70
1C70
0000
0000
07C0
1FF0
3FF8
7C7C
701E
F01E
F01E
F01E
F01E
F01E
781C
7C7C
3FF8
1FF0
07C0
ENDCHAR
STARTCHAR 00F7
ENCODING 247
SWIDTH 540 0
DWIDTH 15 0
BBX 11 12 2 4
BITMAP
0E00
0E00
0E00
0000
FFE0
FFE0
FFE0
0000
0000
0E00
0E00
0E00
ENDCHAR
STARTCHAR 00F8
ENCODING 248
SWIDTH 612 0
DWIDTH 17 0
BBX 15 15 1 0
BITMAP
07C4
1FFE
3FFE
7C7C
707E
F0FE
F1DE
F39E
F71E
FE1E
7C1C
7C7C
FFF8
FFF0
47C0
ENDCHAR
STARTCHAR 00F9
ENCODING 249
SWIDTH 612 0
DWIDTH 17 0
BBX 13 22 2 0
BITMAP
1C00
0C00
0E00
0600
0700
0000
0000
E038
E038
E038
E038
E038
E038
E038
E038
E038
E038
F078
F8F8
7FF8
7FF8
1FB8
ENDCHAR
STARTCHAR 00FA
ENCODING 250
SWIDTH 612 0
DWIDTH 17 0
BBX 13 22 2 0
BITMAP
0180
0180
0380
0300
0700
0000
0000
E038
E038
E038
E038
E038
E038
E038
E038
E038
E038
F078
F8F8
7FF8
7FF8
1FB8
ENDCHAR
STARTCHAR 00FB
ENCODING 251
SWIDTH 612 0
DWIDTH 17 0
BBX 13 21 2 0
BITMAP
0F80
1FC0
1DC0
38E0
0000
0000
E038
E038
E038
E038
E038
E038
E038
E038
E038
E038
F078
F8F8
7FF8
7FF8
1FB8
ENDCHAR
STARTCHAR 00FC
ENCODING 252
SWIDTH 612 0
DWIDTH 17 0
BBX 13 20 2 0
BITMAP
38E0
38E0
38E0
0000
0000
E038
E038
E038
E038
E038
E038
E038
E038
E038
E038
F078
F8F8
7FF8
7FF8
1FB8
ENDCHAR
STARTCHAR 00FD
ENCODING 253
SWIDTH 576 0
DWIDTH 16 0
BBX 14 29 1 -7
BITMAP
01C0
01C0
0180
0380
0300
0000
0000
E01C
E03C
F038
7038
7878
3870
3870
3CF0
1CE0
1FE0
0FC0
0FC0
0FC0
0780
0780
0700
0700
0F00
0E00
0E00
1E00
1C00
ENDCHAR
STARTCHAR 00FE
ENCODING 254
SWIDTH 612 0
DWIDTH 17 0
BBX 14 26 2 -6
BITMAP
E000
E000
E000
E000
E000
EFC0
FFE0
FFF0
F8F8
F038
E03C
E03C
E03C
E03C
E03C
F038
F878
FFF0
FFE0
E7C0
E000
E000
E000
E000
E000
E000
ENDCHAR
STARTCHAR 00FF
ENCODING 255
SWIDTH 576 0
DWIDTH 16 0
BBX 14 27 1 -7
BITMAP
1CE0
1CE0
1CE0
0000
0000
E01C
E03C
F038
7038
7878
3870
3870
3CF0
1CE0
1FE0
0FC0
0FC0
0FC0
0780
0780
0700
0700
0F00
0E00
0E00
1E00
1C00
ENDCHAR
ENDFONT
