STARTFONT 2.1
COMMENT
COMMENT Converted from OpenType font "manrope-light.otf" by "otf2bdf 3.0".
COMMENT
FONT -FreeType-Manrope Light-Medium-R-Normal--19-140-100-100-P-87-ISO10646-1
SIZE 14 100 100
FONTBOUNDINGBOX 18 24 0 -5
STARTPROPERTIES 19
FOUNDRY "FreeType"
FAMILY_NAME "Manrope Light"
WEIGHT_NAME "Medium"
SLANT "R"
SETWIDTH_NAME "Normal"
ADD_STYLE_NAME ""
PIXEL_SIZE 19
POINT_SIZE 140
RESOLUTION_X 100
RESOLUTION_Y 100
SPACING "P"
AVERAGE_WIDTH 87
CHARSET_REGISTRY "ISO10646"
CHARSET_ENCODING "1"
FONT_ASCENT 20
FONT_DESCENT 5
COPYRIGHT "Copyright 2019-2021 The Manrope Project Authors (https://github.com/sharanda/manrope)"
_OTF_FONTFILE "manrope-light.otf"
_OTF_PSNAME "Manrope-Light"
ENDPROPERTIES
CHARS 191
STARTCHAR 0020
ENCODING 32
SWIDTH 205 0
DWIDTH 4 0
BBX 0 0 0 0
BITMAP
ENDCHAR
STARTCHAR 0021
ENCODING 33
SWIDTH 308 0
DWIDTH 6 0
BBX 1 14 2 0
BITMAP
80
80
80
80
80
80
80
80
80
80
80
00
00
80
ENDCHAR
STARTCHAR 0022
ENCODING 34
SWIDTH 360 0
DWIDTH 7 0
BBX 4 4 1 10
BITMAP
90
90
90
90
ENDCHAR
STARTCHAR 0023
ENCODING 35
SWIDTH 925 0
DWIDTH 18 0
BBX 16 14 1 0
BITMAP
0118
0310
0210
0210
3FFF
0420
0420
0420
0440
FFFC
0840
08C0
0880
1080
ENDCHAR
STARTCHAR 0024
ENCODING 36
SWIDTH 565 0
DWIDTH 11 0
BBX 10 18 1 -2
BITMAP
0800
0800
3E00
6300
C080
8080
C000
6000
3C00
0700
0080
00C0
80C0
8080
6180
3E00
0800
0800
ENDCHAR
STARTCHAR 0025
ENCODING 37
SWIDTH 925 0
DWIDTH 18 0
BBX 15 14 1 0
BITMAP
3804
460C
8218
8210
8220
4640
3880
0100
023C
0446
0882
1082
2046
403C
ENDCHAR
STARTCHAR 0026
ENCODING 38
SWIDTH 668 0
DWIDTH 13 0
BBX 11 14 1 0
BITMAP
1E00
6100
4000
4000
4000
6000
3000
6800
C440
8240
8140
C0C0
61E0
3E20
ENDCHAR
STARTCHAR 0027
ENCODING 39
SWIDTH 205 0
DWIDTH 4 0
BBX 1 4 1 10
BITMAP
80
80
80
80
ENDCHAR
STARTCHAR 0028
ENCODING 40
SWIDTH 411 0
DWIDTH 8 0
BBX 4 20 3 -4
BITMAP
10
30
20
40
40
80
80
80
80
80
80
80
80
80
C0
40
60
20
30
10
ENDCHAR
STARTCHAR 0029
ENCODING 41
SWIDTH 411 0
DWIDTH 8 0
BBX 4 20 1 -4
BITMAP
80
40
40
20
20
10
10
10
10
10
10
10
10
10
30
20
20
40
C0
80
ENDCHAR
STARTCHAR 002A
ENCODING 42
SWIDTH 411 0
DWIDTH 8 0
BBX 6 6 1 8
BITMAP
20
20
EC
30
70
48
ENDCHAR
STARTCHAR 002B
ENCODING 43
SWIDTH 565 0
DWIDTH 11 0
BBX 9 9 1 3
BITMAP
0800
0800
0800
0800
FF80
0800
0800
0800
0800
ENDCHAR
STARTCHAR 002C
ENCODING 44
SWIDTH 257 0
DWIDTH 5 0
BBX 2 4 1 -2
BITMAP
C0
C0
40
80
ENDCHAR
STARTCHAR 002D
ENCODING 45
SWIDTH 411 0
DWIDTH 8 0
BBX 6 1 1 6
BITMAP
FC
ENDCHAR
STARTCHAR 002E
ENCODING 46
SWIDTH 257 0
DWIDTH 5 0
BBX 1 1 2 0
BITMAP
80
ENDCHAR
STARTCHAR 002F
ENCODING 47
SWIDTH 360 0
DWIDTH 7 0
BBX 5 14 1 0
BITMAP
08
18
10
10
10
30
20
20
20
60
40
40
40
80
ENDCHAR
STARTCHAR 0030
ENCODING 48
SWIDTH 617 0
DWIDTH 12 0
BBX 9 14 1 0
BITMAP
1E00
6300
4180
C080
8080
8080
8080
8080
8080
8080
C080
4080
6300
1E00
ENDCHAR
STARTCHAR 0031
ENCODING 49
SWIDTH 360 0
DWIDTH 7 0
BBX 4 14 1 0
BITMAP
30
D0
90
10
10
10
10
10
10
10
10
10
10
10
ENDCHAR
STARTCHAR 0032
ENCODING 50
SWIDTH 565 0
DWIDTH 11 0
BBX 9 14 1 0
BITMAP
3E00
6300
C180
8080
0080
0080
0100
0300
0600
0C00
1000
2000
C000
FF80
ENDCHAR
STARTCHAR 0033
ENCODING 51
SWIDTH 565 0
DWIDTH 11 0
BBX 8 14 1 0
BITMAP
FF
03
06
0C
10
3C
02
01
01
01
01
81
42
3C
ENDCHAR
STARTCHAR 0034
ENCODING 52
SWIDTH 565 0
DWIDTH 11 0
BBX 9 14 1 0
BITMAP
0C00
0800
0800
1000
1000
2000
2100
4100
4100
8100
FF80
0100
0100
0100
ENDCHAR
STARTCHAR 0035
ENCODING 53
SWIDTH 565 0
DWIDTH 11 0
BBX 9 14 1 0
BITMAP
7F00
4000
4000
4000
4000
FE00
E300
4180
0080
0080
8080
C180
6300
3E00
ENDCHAR
STARTCHAR 0036
ENCODING 54
SWIDTH 617 0
DWIDTH 12 0
BBX 10 14 1 0
BITMAP
1E00
2180
4000
C000
8000
9E00
A180
C080
C0C0
8040
C0C0
4080
2180
1E00
ENDCHAR
STARTCHAR 0037
ENCODING 55
SWIDTH 514 0
DWIDTH 10 0
BBX 8 14 1 0
BITMAP
FF
02
02
06
04
04
08
08
18
10
10
20
20
60
ENDCHAR
STARTCHAR 0038
ENCODING 56
SWIDTH 565 0
DWIDTH 11 0
BBX 9 14 1 0
BITMAP
3E00
6300
4100
C180
4100
6300
3E00
6300
C180
8080
8080
C180
6300
3E00
ENDCHAR
STARTCHAR 0039
ENCODING 57
SWIDTH 617 0
DWIDTH 12 0
BBX 10 14 1 0
BITMAP
1E00
2100
4080
C0C0
8040
C0C0
40C0
6140
1E40
0040
00C0
0080
6100
1E00
ENDCHAR
STARTCHAR 003A
ENCODING 58
SWIDTH 308 0
DWIDTH 6 0
BBX 2 7 2 2
BITMAP
C0
00
00
00
00
00
C0
ENDCHAR
STARTCHAR 003B
ENCODING 59
SWIDTH 308 0
DWIDTH 6 0
BBX 2 13 2 -2
BITMAP
C0
00
00
00
00
00
00
00
00
C0
C0
40
80
ENDCHAR
STARTCHAR 003C
ENCODING 60
SWIDTH 617 0
DWIDTH 12 0
BBX 5 9 3 2
BITMAP
08
10
20
40
80
40
20
10
08
ENDCHAR
STARTCHAR 003D
ENCODING 61
SWIDTH 771 0
DWIDTH 15 0
BBX 10 4 2 5
BITMAP
FFC0
0000
0000
FFC0
ENDCHAR
STARTCHAR 003E
ENCODING 62
SWIDTH 617 0
DWIDTH 12 0
BBX 5 9 4 2
BITMAP
80
40
20
10
08
10
20
40
80
ENDCHAR
STARTCHAR 003F
ENCODING 63
SWIDTH 514 0
DWIDTH 10 0
BBX 8 14 1 0
BITMAP
3C
42
81
81
01
02
06
08
18
10
00
00
10
10
ENDCHAR
STARTCHAR 0040
ENCODING 64
SWIDTH 925 0
DWIDTH 18 0
BBX 14 15 2 -2
BITMAP
0FC0
3060
6010
4008
800C
8704
8884
8884
8884
8DC8
8778
4000
6000
3040
0FC0
ENDCHAR
STARTCHAR 0041
ENCODING 65
SWIDTH 617 0
DWIDTH 12 0
BBX 11 14 1 0
BITMAP
0C00
0C00
1E00
1200
1200
2100
2100
2100
4080
7F80
4080
8040
8040
8060
ENDCHAR
STARTCHAR 0042
ENCODING 66
SWIDTH 617 0
DWIDTH 12 0
BBX 10 14 1 0
BITMAP
FF00
8180
8080
80C0
8080
8180
FF00
8080
8040
8040
8040
8040
8080
FF00
ENDCHAR
STARTCHAR 0043
ENCODING 67
SWIDTH 720 0
DWIDTH 14 0
BBX 12 14 1 0
BITMAP
1F80
30C0
4020
C030
8010
8000
8000
8000
8000
8010
C030
4020
30C0
1F80
ENDCHAR
STARTCHAR 0044
ENCODING 68
SWIDTH 668 0
DWIDTH 13 0
BBX 11 14 1 0
BITMAP
FF00
C180
C040
C040
C020
C020
C020
C020
C020
C020
C040
C040
C180
FF00
ENDCHAR
STARTCHAR 0045
ENCODING 69
SWIDTH 565 0
DWIDTH 11 0
BBX 9 14 1 0
BITMAP
FF80
8000
8000
8000
8000
8000
FF00
8000
8000
8000
8000
8000
8000
FF80
ENDCHAR
STARTCHAR 0046
ENCODING 70
SWIDTH 514 0
DWIDTH 10 0
BBX 8 14 1 0
BITMAP
FF
80
80
80
80
80
80
FE
80
80
80
80
80
80
ENDCHAR
STARTCHAR 0047
ENCODING 71
SWIDTH 720 0
DWIDTH 14 0
BBX 12 14 1 0
BITMAP
1F80
30C0
4060
C020
8000
8000
8000
81F0
8010
8010
C020
4020
30C0
1F80
ENDCHAR
STARTCHAR 0048
ENCODING 72
SWIDTH 668 0
DWIDTH 13 0
BBX 11 14 1 0
BITMAP
8020
8020
8020
8020
8020
8020
8020
FFE0
8020
8020
8020
8020
8020
8020
ENDCHAR
STARTCHAR 0049
ENCODING 73
SWIDTH 205 0
DWIDTH 4 0
BBX 1 14 2 0
BITMAP
80
80
80
80
80
80
80
80
80
80
80
80
80
80
ENDCHAR
STARTCHAR 004A
ENCODING 74
SWIDTH 462 0
DWIDTH 9 0
BBX 7 14 0 0
BITMAP
02
02
02
02
02
02
02
02
02
02
02
82
46
3C
ENDCHAR
STARTCHAR 004B
ENCODING 75
SWIDTH 565 0
DWIDTH 11 0
BBX 10 14 1 0
BITMAP
8080
8100
8200
8400
8800
9000
A000
F000
9800
8C00
8600
8300
8180
80C0
ENDCHAR
STARTCHAR 004C
ENCODING 76
SWIDTH 514 0
DWIDTH 10 0
BBX 7 14 2 0
BITMAP
80
80
80
80
80
80
80
80
80
80
80
80
80
FE
ENDCHAR
STARTCHAR 004D
ENCODING 77
SWIDTH 822 0
DWIDTH 16 0
BBX 14 14 1 0
BITMAP
C004
C00C
E00C
A014
A014
9024
9024
8864
8844
84C4
8484
8284
8304
8304
ENDCHAR
STARTCHAR 004E
ENCODING 78
SWIDTH 668 0
DWIDTH 13 0
BBX 11 14 1 0
BITMAP
C020
C020
A020
9020
9820
8820
8420
8620
8220
8120
81A0
80A0
8060
8060
ENDCHAR
STARTCHAR 004F
ENCODING 79
SWIDTH 720 0
DWIDTH 14 0
BBX 12 14 1 0
BITMAP
1F80
30C0
4020
C030
8010
8010
8010
8010
8010
8010
C030
4020
30C0
1F80
ENDCHAR
STARTCHAR 0050
ENCODING 80
SWIDTH 617 0
DWIDTH 12 0
BBX 10 14 1 0
BITMAP
FF00
8180
80C0
8040
8040
80C0
8080
FF00
8000
8000
8000
8000
8000
8000
ENDCHAR
STARTCHAR 0051
ENCODING 81
SWIDTH 720 0
DWIDTH 14 0
BBX 12 14 1 0
BITMAP
1F80
30C0
4020
C030
8010
8010
8010
8010
8010
8010
C0B0
4060
30E0
1F90
ENDCHAR
STARTCHAR 0052
ENCODING 82
SWIDTH 617 0
DWIDTH 12 0
BBX 10 14 1 0
BITMAP
FF00
8180
80C0
8040
8040
80C0
8080
FF00
8100
8100
8180
8080
80C0
8040
ENDCHAR
STARTCHAR 0053
ENCODING 83
SWIDTH 617 0
DWIDTH 12 0
BBX 10 14 1 0
BITMAP
3E00
6180
C0C0
8040
C000
6000
3C00
0380
00C0
0040
8040
C040
6180
3F00
ENDCHAR
STARTCHAR 0054
ENCODING 84
SWIDTH 617 0
DWIDTH 12 0
BBX 11 14 0 0
BITMAP
FFE0
0400
0400
0400
0400
0400
0400
0400
0400
0400
0400
0400
0400
0400
ENDCHAR
STARTCHAR 0055
ENCODING 85
SWIDTH 720 0
DWIDTH 14 0
BBX 11 14 1 0
BITMAP
8020
8020
8020
8020
8020
8020
8020
8020
8020
C020
4020
4040
30C0
1F00
ENDCHAR
STARTCHAR 0056
ENCODING 86
SWIDTH 617 0
DWIDTH 12 0
BBX 11 14 0 0
BITMAP
8020
4020
4060
6040
2040
2080
3080
1080
1100
1900
0B00
0A00
0600
0600
ENDCHAR
STARTCHAR 0057
ENCODING 87
SWIDTH 925 0
DWIDTH 18 0
BBX 16 14 1 0
BITMAP
8181
8181
8181
C3C3
4242
4242
4242
2424
2424
2424
2C3C
1818
1818
1818
ENDCHAR
STARTCHAR 0058
ENCODING 88
SWIDTH 565 0
DWIDTH 11 0
BBX 10 14 1 0
BITMAP
80C0
C080
4100
2300
3200
1400
0C00
0C00
1400
3200
2100
4180
C080
8040
ENDCHAR
STARTCHAR 0059
ENCODING 89
SWIDTH 514 0
DWIDTH 10 0
BBX 10 14 0 0
BITMAP
C040
40C0
6080
2100
1100
1200
0E00
0C00
0400
0400
0400
0400
0400
0400
ENDCHAR
STARTCHAR 005A
ENCODING 90
SWIDTH 617 0
DWIDTH 12 0
BBX 10 14 1 0
BITMAP
FFC0
0080
0100
0300
0200
0400
0C00
0800
1800
1000
2000
6000
4000
FFC0
ENDCHAR
STARTCHAR 005B
ENCODING 91
SWIDTH 411 0
DWIDTH 8 0
BBX 3 21 3 -4
BITMAP
E0
80
80
80
80
80
80
80
80
80
80
80
80
80
80
80
80
80
80
80
E0
ENDCHAR
STARTCHAR 005C
ENCODING 92
SWIDTH 360 0
DWIDTH 7 0
BBX 5 14 1 0
BITMAP
80
40
40
40
60
20
20
20
30
10
10
10
18
08
ENDCHAR
STARTCHAR 005D
ENCODING 93
SWIDTH 411 0
DWIDTH 8 0
BBX 3 21 2 -4
BITMAP
E0
20
20
20
20
20
20
20
20
20
20
20
20
20
20
20
20
20
20
20
E0
ENDCHAR
STARTCHAR 005E
ENCODING 94
SWIDTH 668 0
DWIDTH 13 0
BBX 9 5 2 9
BITMAP
0800
1400
2200
4100
8080
ENDCHAR
STARTCHAR 005F
ENCODING 95
SWIDTH 668 0
DWIDTH 13 0
BBX 13 1 0 -2
BITMAP
FFF8
ENDCHAR
STARTCHAR 0060
ENCODING 96
SWIDTH 462 0
DWIDTH 9 0
BBX 1 3 4 16
BITMAP
80
80
80
ENDCHAR
STARTCHAR 0061
ENCODING 97
SWIDTH 565 0
DWIDTH 11 0
BBX 9 11 1 0
BITMAP
3E00
6300
C100
0100
1F80
7180
8180
8180
8180
C780
7D80
ENDCHAR
STARTCHAR 0062
ENCODING 98
SWIDTH 565 0
DWIDTH 11 0
BBX 10 14 1 0
BITMAP
8000
8000
8000
9E00
A100
C080
C080
80C0
80C0
80C0
C080
C080
A100
9E00
ENDCHAR
STARTCHAR 0063
ENCODING 99
SWIDTH 565 0
DWIDTH 11 0
BBX 9 11 1 0
BITMAP
3E00
6300
C080
8000
8000
8000
8000
8000
C080
6300
3E00
ENDCHAR
STARTCHAR 0064
ENCODING 100
SWIDTH 565 0
DWIDTH 11 0
BBX 9 14 1 0
BITMAP
0080
0080
0080
3C80
6380
C180
8080
8080
8080
8080
8080
C180
6380
3C80
ENDCHAR
STARTCHAR 0065
ENCODING 101
SWIDTH 565 0
DWIDTH 11 0
BBX 9 11 1 0
BITMAP
3E00
6300
C080
8080
8080
FF80
8000
8000
C080
6100
3E00
ENDCHAR
STARTCHAR 0066
ENCODING 102
SWIDTH 360 0
DWIDTH 7 0
BBX 6 14 1 0
BITMAP
3C
20
60
FC
60
60
60
60
60
60
60
60
60
60
ENDCHAR
STARTCHAR 0067
ENCODING 103
SWIDTH 565 0
DWIDTH 11 0
BBX 9 16 1 -5
BITMAP
3C80
6380
C180
8080
8080
8080
8080
8080
C180
6380
3C80
0080
0080
C180
6300
3E00
ENDCHAR
STARTCHAR 0068
ENCODING 104
SWIDTH 565 0
DWIDTH 11 0
BBX 9 14 1 0
BITMAP
8000
8000
8000
9E00
A300
C180
C080
C080
8080
8080
8080
8080
8080
8080
ENDCHAR
STARTCHAR 0069
ENCODING 105
SWIDTH 205 0
DWIDTH 4 0
BBX 1 14 2 0
BITMAP
80
00
00
80
80
80
80
80
80
80
80
80
80
80
ENDCHAR
STARTCHAR 006A
ENCODING 106
SWIDTH 257 0
DWIDTH 5 0
BBX 3 19 0 -5
BITMAP
20
00
00
20
20
20
20
20
20
20
20
20
20
20
20
20
20
20
C0
ENDCHAR
STARTCHAR 006B
ENCODING 107
SWIDTH 462 0
DWIDTH 9 0
BBX 8 14 1 0
BITMAP
80
80
80
83
86
8C
98
B0
E0
B0
98
8C
86
83
ENDCHAR
STARTCHAR 006C
ENCODING 108
SWIDTH 205 0
DWIDTH 4 0
BBX 1 14 2 0
BITMAP
80
80
80
80
80
80
80
80
80
80
80
80
80
80
ENDCHAR
STARTCHAR 006D
ENCODING 109
SWIDTH 822 0
DWIDTH 16 0
BBX 14 11 1 0
BITMAP
BC70
E288
C304
8104
8104
8104
8104
8104
8104
8104
8104
ENDCHAR
STARTCHAR 006E
ENCODING 110
SWIDTH 565 0
DWIDTH 11 0
BBX 9 11 1 0
BITMAP
9E00
A300
C180
C080
C080
8080
8080
8080
8080
8080
8080
ENDCHAR
STARTCHAR 006F
ENCODING 111
SWIDTH 565 0
DWIDTH 11 0
BBX 10 11 1 0
BITMAP
3E00
6300
C080
8080
8080
80C0
8080
8080
C080
6300
3E00
ENDCHAR
STARTCHAR 0070
ENCODING 112
SWIDTH 565 0
DWIDTH 11 0
BBX 10 15 1 -4
BITMAP
9E00
A100
C080
C080
80C0
80C0
80C0
C080
C080
A100
9E00
8000
8000
8000
8000
ENDCHAR
STARTCHAR 0071
ENCODING 113
SWIDTH 565 0
DWIDTH 11 0
BBX 9 15 1 -4
BITMAP
3C80
6380
C180
8080
8080
8080
8080
8080
C180
6380
3C80
0080
0080
0080
0080
ENDCHAR
STARTCHAR 0072
ENCODING 114
SWIDTH 360 0
DWIDTH 7 0
BBX 5 11 1 0
BITMAP
98
A0
C0
C0
C0
80
80
80
80
80
80
ENDCHAR
STARTCHAR 0073
ENCODING 115
SWIDTH 514 0
DWIDTH 10 0
BBX 8 11 1 0
BITMAP
3C
43
81
80
60
1E
03
01
81
C3
3E
ENDCHAR
STARTCHAR 0074
ENCODING 116
SWIDTH 411 0
DWIDTH 8 0
BBX 7 14 0 0
BITMAP
10
10
10
FE
10
10
10
10
10
10
10
10
10
0E
ENDCHAR
STARTCHAR 0075
ENCODING 117
SWIDTH 565 0
DWIDTH 11 0
BBX 9 11 1 0
BITMAP
8080
8080
8080
8080
8080
8080
8080
8080
4180
6380
3E80
ENDCHAR
STARTCHAR 0076
ENCODING 118
SWIDTH 514 0
DWIDTH 10 0
BBX 8 11 1 0
BITMAP
81
83
82
42
46
44
24
2C
28
18
18
ENDCHAR
STARTCHAR 0077
ENCODING 119
SWIDTH 771 0
DWIDTH 15 0
BBX 13 11 1 0
BITMAP
8208
8608
8518
C510
4D10
4910
48A0
28A0
30A0
3060
3040
ENDCHAR
STARTCHAR 0078
ENCODING 120
SWIDTH 514 0
DWIDTH 10 0
BBX 8 11 1 0
BITMAP
81
C3
42
24
18
18
18
24
42
C3
81
ENDCHAR
STARTCHAR 0079
ENCODING 121
SWIDTH 514 0
DWIDTH 10 0
BBX 8 15 1 -4
BITMAP
81
81
C1
42
42
26
24
34
1C
18
08
10
10
10
20
ENDCHAR
STARTCHAR 007A
ENCODING 122
SWIDTH 514 0
DWIDTH 10 0
BBX 8 11 1 0
BITMAP
FF
03
02
04
08
18
10
20
40
C0
FF
ENDCHAR
STARTCHAR 007B
ENCODING 123
SWIDTH 411 0
DWIDTH 8 0
BBX 4 21 3 -4
BITMAP
70
40
40
40
40
40
40
40
40
C0
80
C0
40
40
40
40
40
40
40
40
70
ENDCHAR
STARTCHAR 007C
ENCODING 124
SWIDTH 257 0
DWIDTH 5 0
BBX 1 14 2 0
BITMAP
80
80
80
80
80
80
80
80
80
80
80
80
80
80
ENDCHAR
STARTCHAR 007D
ENCODING 125
SWIDTH 411 0
DWIDTH 8 0
BBX 4 21 1 -4
BITMAP
C0
20
20
20
20
20
20
20
20
30
10
30
20
20
20
20
20
20
20
20
C0
ENDCHAR
STARTCHAR 007E
ENCODING 126
SWIDTH 668 0
DWIDTH 13 0
BBX 8 3 2 5
BITMAP
71
D9
CF
ENDCHAR
STARTCHAR 00A0
ENCODING 160
SWIDTH 205 0
DWIDTH 4 0
BBX 0 0 0 0
BITMAP
ENDCHAR
STARTCHAR 00A1
ENCODING 161
SWIDTH 308 0
DWIDTH 6 0
BBX 1 14 2 -3
BITMAP
80
00
00
80
80
80
80
80
80
80
80
80
80
80
ENDCHAR
STARTCHAR 00A2
ENCODING 162
SWIDTH 565 0
DWIDTH 11 0
BBX 9 15 1 -1
BITMAP
0800
0800
3E00
4100
C080
8000
8000
8000
8000
8000
C080
6300
3E00
0800
0800
ENDCHAR
STARTCHAR 00A3
ENCODING 163
SWIDTH 565 0
DWIDTH 11 0
BBX 9 14 1 0
BITMAP
0F00
1180
3080
2080
2000
2000
2000
FE00
2000
2000
2000
2000
2000
FF80
ENDCHAR
STARTCHAR 00A4
ENCODING 164
SWIDTH 617 0
DWIDTH 12 0
BBX 10 10 1 1
BITMAP
9E40
6180
40C0
8040
8040
8040
8040
40C0
6180
9E40
ENDCHAR
STARTCHAR 00A5
ENCODING 165
SWIDTH 514 0
DWIDTH 10 0
BBX 10 14 0 0
BITMAP
C040
40C0
6080
2100
1100
1200
0E00
0C00
3F80
0400
0400
3F80
0400
0400
ENDCHAR
STARTCHAR 00A6
ENCODING 166
SWIDTH 257 0
DWIDTH 5 0
BBX 1 17 2 -3
BITMAP
80
80
80
80
80
80
80
00
00
00
80
80
80
80
80
80
80
ENDCHAR
STARTCHAR 00A7
ENCODING 167
SWIDTH 514 0
DWIDTH 10 0
BBX 8 16 1 -3
BITMAP
3C
42
83
C0
60
7E
C3
81
81
71
1E
03
01
C1
63
3E
ENDCHAR
STARTCHAR 00A8
ENCODING 168
SWIDTH 514 0
DWIDTH 10 0
BBX 5 1 2 16
BITMAP
C8
ENDCHAR
STARTCHAR 00A9
ENCODING 169
SWIDTH 771 0
DWIDTH 15 0
BBX 13 14 1 0
BITMAP
0F80
3860
6030
4798
88C8
9008
9008
9008
9008
88C8
4798
6030
3060
0F80
ENDCHAR
STARTCHAR 00AA
ENCODING 170
SWIDTH 308 0
DWIDTH 6 0
BBX 4 6 1 5
BITMAP
70
90
70
90
B0
70
ENDCHAR
STARTCHAR 00AB
ENCODING 171
SWIDTH 514 0
DWIDTH 10 0
BBX 7 8 2 1
BITMAP
26
64
48
90
90
48
24
32
ENDCHAR
STARTCHAR 00AC
ENCODING 172
SWIDTH 617 0
DWIDTH 12 0
BBX 9 3 1 4
BITMAP
FF80
0080
0080
ENDCHAR
STARTCHAR 00AD
ENCODING 173
SWIDTH 411 0
DWIDTH 8 0
BBX 6 1 1 6
BITMAP
FC
ENDCHAR
STARTCHAR 00AE
ENCODING 174
SWIDTH 617 0
DWIDTH 12 0
BBX 10 9 1 6
BITMAP
1E00
2100
5C80
9280
9E40
9480
5280
2100
1E00
ENDCHAR
STARTCHAR 00AF
ENCODING 175
SWIDTH 462 0
DWIDTH 9 0
BBX 5 1 2 16
BITMAP
F8
ENDCHAR
STARTCHAR 00B0
ENCODING 176
SWIDTH 462 0
DWIDTH 9 0
BBX 7 7 1 7
BITMAP
78
CC
84
82
84
CC
78
ENDCHAR
STARTCHAR 00B1
ENCODING 177
SWIDTH 617 0
DWIDTH 12 0
BBX 9 9 1 2
BITMAP
0800
0800
0800
FF80
0800
0800
0000
0000
FF80
ENDCHAR
STARTCHAR 00B2
ENCODING 178
SWIDTH 411 0
DWIDTH 8 0
BBX 6 9 1 5
BITMAP
78
88
84
04
08
10
20
40
FC
ENDCHAR
STARTCHAR 00B3
ENCODING 179
SWIDTH 360 0
DWIDTH 7 0
BBX 5 9 1 5
BITMAP
F8
18
20
70
08
08
08
88
70
ENDCHAR
STARTCHAR 00B4
ENCODING 180
SWIDTH 462 0
DWIDTH 9 0
BBX 2 3 4 16
BITMAP
40
80
80
ENDCHAR
STARTCHAR 00B5
ENCODING 181
SWIDTH 617 0
DWIDTH 12 0
BBX 9 15 1 -4
BITMAP
8080
8080
8080
8080
8080
8080
C080
C080
C180
E380
9E80
8000
8000
8000
8000
ENDCHAR
STARTCHAR 00B6
ENCODING 182
SWIDTH 617 0
DWIDTH 12 0
BBX 8 17 2 -3
BITMAP
3D
FD
FD
FD
FD
FD
FD
7D
1D
05
05
05
05
05
05
05
05
ENDCHAR
STARTCHAR 00B7
ENCODING 183
SWIDTH 205 0
DWIDTH 4 0
BBX 2 2 1 5
BITMAP
C0
C0
ENDCHAR
STARTCHAR 00B8
ENCODING 184
SWIDTH 411 0
DWIDTH 8 0
BBX 3 5 2 -5
BITMAP
20
40
20
20
E0
ENDCHAR
STARTCHAR 00B9
ENCODING 185
SWIDTH 308 0
DWIDTH 6 0
BBX 3 9 1 5
BITMAP
60
A0
20
20
20
20
20
20
20
ENDCHAR
STARTCHAR 00BA
ENCODING 186
SWIDTH 360 0
DWIDTH 7 0
BBX 5 6 1 5
BITMAP
70
88
88
88
98
70
ENDCHAR
STARTCHAR 00BB
ENCODING 187
SWIDTH 514 0
DWIDTH 10 0
BBX 7 8 1 1
BITMAP
48
64
24
12
12
24
48
88
ENDCHAR
STARTCHAR 00BC
ENCODING 188
SWIDTH 977 0
DWIDTH 19 0
BBX 15 14 1 0
BITMAP
6010
A010
2020
2040
20C0
2188
2118
2210
2630
0C24
0824
107E
2004
2004
ENDCHAR
STARTCHAR 00BD
ENCODING 189
SWIDTH 925 0
DWIDTH 18 0
BBX 16 14 1 0
BITMAP
6010
A010
2020
2040
20C0
209C
2132
2221
2601
0C02
0804
1008
2010
203F
ENDCHAR
STARTCHAR 00BE
ENCODING 190
SWIDTH 977 0
DWIDTH 19 0
BBX 17 14 1 0
BITMAP
F80400
180800
201800
703000
082000
084400
088400
898800
730800
021100
041100
0C1F80
180100
100100
ENDCHAR
STARTCHAR 00BF
ENCODING 191
SWIDTH 514 0
DWIDTH 10 0
BBX 8 15 1 -4
BITMAP
08
08
00
00
08
08
10
30
60
C0
80
81
81
42
3C
ENDCHAR
STARTCHAR 00C0
ENCODING 192
SWIDTH 617 0
DWIDTH 12 0
BBX 11 19 1 0
BITMAP
1800
0800
0800
0000
0000
0C00
0C00
1E00
1200
1200
2100
2100
2100
4080
7F80
4080
8040
8040
8060
ENDCHAR
STARTCHAR 00C1
ENCODING 193
SWIDTH 617 0
DWIDTH 12 0
BBX 11 19 1 0
BITMAP
0200
0400
0400
0000
0000
0C00
0C00
1E00
1200
1200
2100
2100
2100
4080
7F80
4080
8040
8040
8060
ENDCHAR
STARTCHAR 00C2
ENCODING 194
SWIDTH 617 0
DWIDTH 12 0
BBX 11 18 1 0
BITMAP
0C00
1200
0000
0000
0C00
0C00
1E00
1200
1200
2100
2100
2100
4080
7F80
4080
8040
8040
8060
ENDCHAR
STARTCHAR 00C3
ENCODING 195
SWIDTH 617 0
DWIDTH 12 0
BBX 11 19 1 0
BITMAP
1900
2D00
2600
0000
0000
0C00
0C00
1E00
1200
1200
2100
2100
2100
4080
7F80
4080
8040
8040
8060
ENDCHAR
STARTCHAR 00C4
ENCODING 196
SWIDTH 617 0
DWIDTH 12 0
BBX 11 17 1 0
BITMAP
1300
0000
0000
0C00
0C00
1E00
1200
1200
2100
2100
2100
4080
7F80
4080
8040
8040
8060
ENDCHAR
STARTCHAR 00C5
ENCODING 197
SWIDTH 617 0
DWIDTH 12 0
BBX 11 19 1 0
BITMAP
0C00
1200
1200
0C00
0000
0C00
0C00
1E00
1200
1200
2100
2100
2100
4080
7F80
4080
8040
8040
8060
ENDCHAR
STARTCHAR 00C6
ENCODING 198
SWIDTH 925 0
DWIDTH 18 0
BBX 16 14 1 0
BITMAP
0FFF
0900
1900
1100
1100
2100
21FE
2100
4100
7F00
4100
8100
8100
81FF
ENDCHAR
STARTCHAR 00C7
ENCODING 199
SWIDTH 720 0
DWIDTH 14 0
BBX 12 18 1 -4
BITMAP
1F80
30C0
4020
C030
8010
8000
8000
8000
8000
8010
C030
4020
30C0
1F80
0200
0200
0100
0600
ENDCHAR
STARTCHAR 00C8
ENCODING 200
SWIDTH 565 0
DWIDTH 11 0
BBX 9 19 1 0
BITMAP
0800
0800
0800
0000
0000
FF80
8000
8000
8000
8000
8000
FF00
8000
8000
8000
8000
8000
8000
FF80
ENDCHAR
STARTCHAR 00C9
ENCODING 201
SWIDTH 565 0
DWIDTH 11 0
BBX 9 19 1 0
BITMAP
0400
0400
0400
0000
0000
FF80
8000
8000
8000
8000
8000
FF00
8000
8000
8000
8000
8000
8000
FF80
ENDCHAR
STARTCHAR 00CA
ENCODING 202
SWIDTH 565 0
DWIDTH 11 0
BBX 9 18 1 0
BITMAP
0C00
1400
2200
0000
FF80
8000
8000
8000
8000
8000
FF00
8000
8000
8000
8000
8000
8000
FF80
ENDCHAR
STARTCHAR 00CB
ENCODING 203
SWIDTH 565 0
DWIDTH 11 0
BBX 9 17 1 0
BITMAP
2200
0000
0000
FF80
8000
8000
8000
8000
8000
FF00
8000
8000
8000
8000
8000
8000
FF80
ENDCHAR
STARTCHAR 00CC
ENCODING 204
SWIDTH 205 0
DWIDTH 4 0
BBX 2 19 1 0
BITMAP
80
80
80
00
00
40
40
40
40
40
40
40
40
40
40
40
40
40
40
ENDCHAR
STARTCHAR 00CD
ENCODING 205
SWIDTH 205 0
DWIDTH 4 0
BBX 2 19 2 0
BITMAP
40
80
80
00
00
80
80
80
80
80
80
80
80
80
80
80
80
80
80
ENDCHAR
STARTCHAR 00CE
ENCODING 206
SWIDTH 205 0
DWIDTH 4 0
BBX 4 18 0 0
BITMAP
60
D0
00
00
20
20
20
20
20
20
20
20
20
20
20
20
20
20
ENDCHAR
STARTCHAR 00CF
ENCODING 207
SWIDTH 205 0
DWIDTH 4 0
BBX 5 17 0 0
BITMAP
98
00
00
20
20
20
20
20
20
20
20
20
20
20
20
20
20
ENDCHAR
STARTCHAR 00D0
ENCODING 208
SWIDTH 668 0
DWIDTH 13 0
BBX 12 14 0 0
BITMAP
7F80
40C0
4020
4020
4030
4010
FC10
4010
4010
4030
4020
4060
40C0
7F80
ENDCHAR
STARTCHAR 00D1
ENCODING 209
SWIDTH 668 0
DWIDTH 13 0
BBX 11 18 1 0
BITMAP
1880
1480
1300
0000
C020
C020
A020
9020
9820
8820
8420
8620
8220
8120
81A0
80A0
8060
8060
ENDCHAR
STARTCHAR 00D2
ENCODING 210
SWIDTH 720 0
DWIDTH 14 0
BBX 12 18 1 0
BITMAP
0400
0400
0400
0000
1F80
30C0
4020
C030
8010
8010
8010
8010
8010
8010
C030
4020
30C0
1F80
ENDCHAR
STARTCHAR 00D3
ENCODING 211
SWIDTH 720 0
DWIDTH 14 0
BBX 12 18 1 0
BITMAP
0200
0200
0200
0000
1F80
30C0
4020
C030
8010
8010
8010
8010
8010
8010
C030
4020
30C0
1F80
ENDCHAR
STARTCHAR 00D4
ENCODING 212
SWIDTH 720 0
DWIDTH 14 0
BBX 12 18 1 0
BITMAP
0600
0F00
1800
0000
1F80
30C0
4020
C030
8010
8010
8010
8010
8010
8010
C030
4020
30C0
1F80
ENDCHAR
STARTCHAR 00D5
ENCODING 213
SWIDTH 720 0
DWIDTH 14 0
BBX 12 18 1 0
BITMAP
0C80
1280
1180
0000
1F80
30C0
4020
C030
8010
8010
8010
8010
8010
8010
C030
4020
30C0
1F80
ENDCHAR
STARTCHAR 00D6
ENCODING 214
SWIDTH 720 0
DWIDTH 14 0
BBX 12 17 1 0
BITMAP
1900
0000
0000
1F80
30C0
4020
C030
8010
8010
8010
8010
8010
8010
C030
4020
30C0
1F80
ENDCHAR
STARTCHAR 00D7
ENCODING 215
SWIDTH 462 0
DWIDTH 9 0
BBX 7 7 1 4
BITMAP
82
44
28
10
28
44
82
ENDCHAR
STARTCHAR 00D8
ENCODING 216
SWIDTH 720 0
DWIDTH 14 0
BBX 14 14 0 0
BITMAP
0FCC
1868
2010
6038
4048
4088
4108
4208
4408
4808
7018
2010
5860
CFC0
ENDCHAR
STARTCHAR 00D9
ENCODING 217
SWIDTH 720 0
DWIDTH 14 0
BBX 11 19 1 0
BITMAP
0400
0400
0400
0000
0000
8020
8020
8020
8020
8020
8020
8020
8020
8020
C020
4020
4040
30C0
1F00
ENDCHAR
STARTCHAR 00DA
ENCODING 218
SWIDTH 720 0
DWIDTH 14 0
BBX 11 19 1 0
BITMAP
0200
0200
0400
0000
0000
8020
8020
8020
8020
8020
8020
8020
8020
8020
C020
4020
4040
30C0
1F00
ENDCHAR
STARTCHAR 00DB
ENCODING 219
SWIDTH 720 0
DWIDTH 14 0
BBX 11 18 1 0
BITMAP
0600
0B00
0000
0000
8020
8020
8020
8020
8020
8020
8020
8020
8020
C020
4020
4040
30C0
1F00
ENDCHAR
STARTCHAR 00DC
ENCODING 220
SWIDTH 720 0
DWIDTH 14 0
BBX 11 17 1 0
BITMAP
1900
0000
0000
8020
8020
8020
8020
8020
8020
8020
8020
8020
C020
4020
4040
30C0
1F00
ENDCHAR
STARTCHAR 00DD
ENCODING 221
SWIDTH 514 0
DWIDTH 10 0
BBX 10 19 0 0
BITMAP
0200
0400
0400
0000
0000
C040
40C0
6080
2100
1100
1200
0E00
0C00
0400
0400
0400
0400
0400
0400
ENDCHAR
STARTCHAR 00DE
ENCODING 222
SWIDTH 565 0
DWIDTH 11 0
BBX 10 14 1 0
BITMAP
8000
8000
8000
FF00
8180
8080
8040
8040
8080
8180
FF00
8000
8000
8000
ENDCHAR
STARTCHAR 00DF
ENCODING 223
SWIDTH 565 0
DWIDTH 11 0
BBX 9 14 1 0
BITMAP
3C00
6200
4100
C100
C100
C200
CE00
C300
C080
C080
C080
C080
C100
DE00
ENDCHAR
STARTCHAR 00E0
ENCODING 224
SWIDTH 565 0
DWIDTH 11 0
BBX 9 15 1 0
BITMAP
1000
1800
0800
0000
3E00
6300
C100
0100
1F80
7180
8180
8180
8180
C780
7D80
ENDCHAR
STARTCHAR 00E1
ENCODING 225
SWIDTH 565 0
DWIDTH 11 0
BBX 9 15 1 0
BITMAP
0400
0800
0800
0000
3E00
6300
C100
0100
1F80
7180
8180
8180
8180
C780
7D80
ENDCHAR
STARTCHAR 00E2
ENCODING 226
SWIDTH 565 0
DWIDTH 11 0
BBX 9 15 1 0
BITMAP
0800
1400
2200
0000
3E00
6300
C100
0100
1F80
7180
8180
8180
8180
C780
7D80
ENDCHAR
STARTCHAR 00E3
ENCODING 227
SWIDTH 565 0
DWIDTH 11 0
BBX 9 14 1 0
BITMAP
3800
2600
0000
3E00
6300
C100
0100
1F80
7180
8180
8180
8180
C780
7D80
ENDCHAR
STARTCHAR 00E4
ENCODING 228
SWIDTH 565 0
DWIDTH 11 0
BBX 9 14 1 0
BITMAP
2200
0000
0000
3E00
6300
C100
0100
1F80
7180
8180
8180
8180
C780
7D80
ENDCHAR
STARTCHAR 00E5
ENCODING 229
SWIDTH 565 0
DWIDTH 11 0
BBX 9 16 1 0
BITMAP
1C00
1400
1400
1C00
0000
3E00
6300
C100
0100
1F80
7180
8180
8180
8180
C780
7D80
ENDCHAR
STARTCHAR 00E6
ENCODING 230
SWIDTH 925 0
DWIDTH 18 0
BBX 17 11 1 0
BITMAP
3E3C00
634200
C18100
018100
018100
7FFF80
C18000
818000
818100
C24300
7C3C00
ENDCHAR
STARTCHAR 00E7
ENCODING 231
SWIDTH 565 0
DWIDTH 11 0
BBX 9 15 1 -4
BITMAP
3E00
6300
C080
8000
8000
8000
8000
8000
C080
6300
3E00
0800
0C00
0400
1800
ENDCHAR
STARTCHAR 00E8
ENCODING 232
SWIDTH 565 0
DWIDTH 11 0
BBX 9 15 1 0
BITMAP
1000
0800
0800
0000
3E00
6300
C080
8080
8080
FF80
8000
8000
C080
6100
3E00
ENDCHAR
STARTCHAR 00E9
ENCODING 233
SWIDTH 565 0
DWIDTH 11 0
BBX 9 15 1 0
BITMAP
0400
0400
0800
0000
3E00
6300
C080
8080
8080
FF80
8000
8000
C080
6100
3E00
ENDCHAR
STARTCHAR 00EA
ENCODING 234
SWIDTH 565 0
DWIDTH 11 0
BBX 9 15 1 0
BITMAP
0800
1400
2200
0000
3E00
6300
C080
8080
8080
FF80
8000
8000
C080
6100
3E00
ENDCHAR
STARTCHAR 00EB
ENCODING 235
SWIDTH 565 0
DWIDTH 11 0
BBX 9 14 1 0
BITMAP
3200
0000
0000
3E00
6300
C080
8080
8080
FF80
8000
8000
C080
6100
3E00
ENDCHAR
STARTCHAR 00EC
ENCODING 236
SWIDTH 205 0
DWIDTH 4 0
BBX 2 16 1 0
BITMAP
80
80
80
00
00
40
40
40
40
40
40
40
40
40
40
40
ENDCHAR
STARTCHAR 00ED
ENCODING 237
SWIDTH 205 0
DWIDTH 4 0
BBX 2 16 2 0
BITMAP
40
80
80
00
00
80
80
80
80
80
80
80
80
80
80
80
ENDCHAR
STARTCHAR 00EE
ENCODING 238
SWIDTH 205 0
DWIDTH 4 0
BBX 4 15 0 0
BITMAP
60
D0
00
00
20
20
20
20
20
20
20
20
20
20
20
ENDCHAR
STARTCHAR 00EF
ENCODING 239
SWIDTH 205 0
DWIDTH 4 0
BBX 5 14 0 0
BITMAP
98
00
00
20
20
20
20
20
20
20
20
20
20
20
ENDCHAR
STARTCHAR 00F0
ENCODING 240
SWIDTH 565 0
DWIDTH 11 0
BBX 9 15 1 1
BITMAP
1E00
0600
0D00
0100
0080
3E80
6180
C080
8080
8080
8080
8080
C080
6100
3E00
ENDCHAR
STARTCHAR 00F1
ENCODING 241
SWIDTH 565 0
DWIDTH 11 0
BBX 9 14 1 0
BITMAP
3800
2600
0000
9E00
A300
C180
C080
C080
8080
8080
8080
8080
8080
8080
ENDCHAR
STARTCHAR 00F2
ENCODING 242
SWIDTH 565 0
DWIDTH 11 0
BBX 10 15 1 0
BITMAP
1000
0800
0800
0000
3E00
6300
C080
8080
8080
80C0
8080
8080
C080
6300
3E00
ENDCHAR
STARTCHAR 00F3
ENCODING 243
SWIDTH 565 0
DWIDTH 11 0
BBX 10 15 1 0
BITMAP
0400
0400
0800
0000
3E00
6300
C080
8080
8080
80C0
8080
8080
C080
6300
3E00
ENDCHAR
STARTCHAR 00F4
ENCODING 244
SWIDTH 565 0
DWIDTH 11 0
BBX 10 15 1 0
BITMAP
0800
1400
2200
0000
3E00
6300
C080
8080
8080
80C0
8080
8080
C080
6300
3E00
ENDCHAR
STARTCHAR 00F5
ENCODING 245
SWIDTH 565 0
DWIDTH 11 0
BBX 10 14 1 0
BITMAP
3800
2600
0000
3E00
6300
C080
8080
8080
80C0
8080
8080
C080
6300
3E00
ENDCHAR
STARTCHAR 00F6
ENCODING 246
SWIDTH 565 0
DWIDTH 11 0
BBX 10 14 1 0
BITMAP
3200
0000
0000
3E00
6300
C080
8080
8080
80C0
8080
8080
C080
6300
3E00
ENDCHAR
STARTCHAR 00F7
ENCODING 247
SWIDTH 565 0
DWIDTH 11 0
BBX 8 6 1 4
BITMAP
08
00
FF
00
00
08
ENDCHAR
STARTCHAR 00F8
ENCODING 248
SWIDTH 565 0
DWIDTH 11 0
BBX 10 11 1 0
BITMAP
3E40
6380
C180
8280
84C0
88C0
9080
A080
C080
E300
BE00
ENDCHAR
STARTCHAR 00F9
ENCODING 249
SWIDTH 565 0
DWIDTH 11 0
BBX 9 16 1 0
BITMAP
1000
0800
0800
0000
0000
8080
8080
8080
8080
8080
8080
8080
8080
4180
6380
3E80
ENDCHAR
STARTCHAR 00FA
ENCODING 250
SWIDTH 565 0
DWIDTH 11 0
BBX 9 16 1 0
BITMAP
0400
0400
0800
0000
0000
8080
8080
8080
8080
8080
8080
8080
8080
4180
6380
3E80
ENDCHAR
STARTCHAR 00FB
ENCODING 251
SWIDTH 565 0
DWIDTH 11 0
BBX 9 15 1 0
BITMAP
0C00
1400
2200
0000
8080
8080
8080
8080
8080
8080
8080
8080
4180
6380
3E80
ENDCHAR
STARTCHAR 00FC
ENCODING 252
SWIDTH 565 0
DWIDTH 11 0
BBX 9 14 1 0
BITMAP
2200
0000
0000
8080
8080
8080
8080
8080
8080
8080
8080
4180
6380
3E80
ENDCHAR
STARTCHAR 00FD
ENCODING 253
SWIDTH 514 0
DWIDTH 10 0
BBX 8 20 1 -4
BITMAP
0C
08
08
00
00
81
81
C1
42
42
26
24
34
1C
18
08
10
10
10
20
ENDCHAR
STARTCHAR 00FE
ENCODING 254
SWIDTH 565 0
DWIDTH 11 0
BBX 10 18 1 -4
BITMAP
8000
8000
8000
9E00
A100
C080
C080
80C0
80C0
80C0
C080
C080
A100
9E00
8000
8000
8000
8000
ENDCHAR
STARTCHAR 00FF
ENCODING 255
SWIDTH 514 0
DWIDTH 10 0
BBX 8 18 1 -4
BITMAP
26
00
00
81
81
C1
42
42
26
24
34
1C
18
08
10
10
10
20
ENDCHAR
ENDFONT
