STARTFONT 2.1
COMMENT
COMMENT Converted from OpenType font "manrope-extrabold.otf" by "otf2bdf 3.0".
COMMENT
FONT -FreeType-Manrope ExtraBold-Medium-R-Normal--19-140-100-100-P-96-ISO10646-1
SIZE 14 100 100
FONTBOUNDINGBOX 20 26 -1 -5
STARTPROPERTIES 19
FOUNDRY "FreeType"
FAMILY_NAME "Manrope ExtraBold"
WEIGHT_NAME "Medium"
SLANT "R"
SETWIDTH_NAME "Normal"
ADD_STYLE_NAME ""
PIXEL_SIZE 19
POINT_SIZE 140
RESOLUTION_X 100
RESOLUTION_Y 100
SPACING "P"
AVERAGE_WIDTH 96
CHARSET_REGISTRY "ISO10646"
CHARSET_ENCODING "1"
FONT_ASCENT 20
FONT_DESCENT 5
COPYRIGHT "Copyright 2019-2021 The Manrope Project Authors (https://github.com/sharanda/manrope)"
_OTF_FONTFILE "manrope-extrabold.otf"
_OTF_PSNAME "Manrope-ExtraBold"
ENDPROPERTIES
CHARS 191
STARTCHAR 0020
ENCODING 32
SWIDTH 205 0
DWIDTH 4 0
BBX 0 0 0 0
BITMAP
ENDCHAR
STARTCHAR 0021
ENCODING 33
SWIDTH 360 0
DWIDTH 7 0
BBX 3 14 2 0
BITMAP
E0
E0
E0
E0
E0
E0
E0
E0
E0
E0
E0
00
E0
E0
ENDCHAR
STARTCHAR 0022
ENCODING 34
SWIDTH 514 0
DWIDTH 10 0
BBX 7 4 1 10
BITMAP
EE
EE
EE
EE
ENDCHAR
STARTCHAR 0023
ENCODING 35
SWIDTH 925 0
DWIDTH 18 0
BBX 16 14 1 0
BITMAP
0398
0318
0338
3FFF
3FFF
0670
0E70
0E60
7FFE
FFFC
1CE0
1CC0
18C0
19C0
ENDCHAR
STARTCHAR 0024
ENCODING 36
SWIDTH 617 0
DWIDTH 12 0
BBX 11 18 1 -2
BITMAP
0E00
0E00
3F00
7F80
73C0
E0C0
E000
7800
7F80
1FC0
03C0
40E0
E0E0
F1C0
7FC0
3F00
0E00
0E00
ENDCHAR
STARTCHAR 0025
ENCODING 37
SWIDTH 925 0
DWIDTH 18 0
BBX 15 14 1 0
BITMAP
3808
7E1C
EE3C
C678
EEF0
7FE0
3BC0
0780
0F3C
1E7E
3CE6
78E6
707E
203C
ENDCHAR
STARTCHAR 0026
ENCODING 38
SWIDTH 668 0
DWIDTH 13 0
BBX 12 14 1 0
BITMAP
1E00
7F80
7F80
6000
6000
7000
3800
7CC0
EFC0
E7C0
E3C0
FFE0
7FF0
3F20
ENDCHAR
STARTCHAR 0027
ENCODING 39
SWIDTH 257 0
DWIDTH 5 0
BBX 3 4 1 10
BITMAP
E0
E0
E0
E0
ENDCHAR
STARTCHAR 0028
ENCODING 40
SWIDTH 462 0
DWIDTH 9 0
BBX 5 20 3 -4
BITMAP
10
38
70
70
60
E0
C0
C0
C0
C0
C0
C0
C0
E0
E0
60
70
30
38
10
ENDCHAR
STARTCHAR 0029
ENCODING 41
SWIDTH 462 0
DWIDTH 9 0
BBX 5 20 1 -4
BITMAP
40
E0
70
70
30
38
18
18
18
18
18
18
18
38
38
30
70
60
E0
40
ENDCHAR
STARTCHAR 002A
ENCODING 42
SWIDTH 462 0
DWIDTH 9 0
BBX 7 7 1 7
BITMAP
30
B0
FE
FE
78
7C
68
ENDCHAR
STARTCHAR 002B
ENCODING 43
SWIDTH 565 0
DWIDTH 11 0
BBX 9 8 1 3
BITMAP
0C00
0C00
0C00
FF80
FF80
0C00
0C00
0C00
ENDCHAR
STARTCHAR 002C
ENCODING 44
SWIDTH 308 0
DWIDTH 6 0
BBX 3 6 1 -3
BITMAP
E0
E0
E0
20
60
C0
ENDCHAR
STARTCHAR 002D
ENCODING 45
SWIDTH 411 0
DWIDTH 8 0
BBX 6 2 1 5
BITMAP
FC
FC
ENDCHAR
STARTCHAR 002E
ENCODING 46
SWIDTH 308 0
DWIDTH 6 0
BBX 2 3 2 0
BITMAP
C0
C0
C0
ENDCHAR
STARTCHAR 002F
ENCODING 47
SWIDTH 462 0
DWIDTH 9 0
BBX 6 14 1 0
BITMAP
0C
1C
1C
1C
18
38
38
38
30
70
70
60
60
E0
ENDCHAR
STARTCHAR 0030
ENCODING 48
SWIDTH 668 0
DWIDTH 13 0
BBX 11 14 1 0
BITMAP
1F00
3F80
7FC0
60E0
E0E0
E0E0
E0E0
E0E0
E0E0
E0E0
60E0
7FC0
3F80
1F00
ENDCHAR
STARTCHAR 0031
ENCODING 49
SWIDTH 462 0
DWIDTH 9 0
BBX 5 14 1 0
BITMAP
38
F8
F8
D8
18
18
18
18
18
18
18
18
18
18
ENDCHAR
STARTCHAR 0032
ENCODING 50
SWIDTH 617 0
DWIDTH 12 0
BBX 10 14 1 0
BITMAP
1E00
7F80
FF80
E1C0
E1C0
01C0
0380
0780
0F00
1C00
7800
F000
FFC0
FFC0
ENDCHAR
STARTCHAR 0033
ENCODING 51
SWIDTH 565 0
DWIDTH 11 0
BBX 9 14 1 0
BITMAP
FF80
FF80
FF80
0700
1E00
3E00
1F00
0780
0380
0180
E380
F780
7F00
3E00
ENDCHAR
STARTCHAR 0034
ENCODING 52
SWIDTH 617 0
DWIDTH 12 0
BBX 10 14 1 0
BITMAP
0E00
0E00
1C00
1C00
3800
3800
7380
7380
E380
E380
FFC0
FFC0
0380
0380
ENDCHAR
STARTCHAR 0035
ENCODING 53
SWIDTH 565 0
DWIDTH 11 0
BBX 9 14 1 0
BITMAP
7F80
7F80
6000
6000
6000
7E00
7F00
7780
0180
0180
E380
FF80
7F00
3E00
ENDCHAR
STARTCHAR 0036
ENCODING 54
SWIDTH 617 0
DWIDTH 12 0
BBX 10 14 1 0
BITMAP
1F00
3F80
7B00
6000
E000
EF00
FF80
FBC0
E1C0
E1C0
61C0
7FC0
3F80
1E00
ENDCHAR
STARTCHAR 0037
ENCODING 55
SWIDTH 565 0
DWIDTH 11 0
BBX 9 14 1 0
BITMAP
FF80
FF80
FF80
0700
0700
0600
0E00
0E00
1C00
1C00
3800
3800
3800
7000
ENDCHAR
STARTCHAR 0038
ENCODING 56
SWIDTH 617 0
DWIDTH 12 0
BBX 10 14 1 0
BITMAP
1E00
7F80
7F80
61C0
61C0
7F80
3F00
7F80
E1C0
E1C0
E1C0
7FC0
7F80
1E00
ENDCHAR
STARTCHAR 0039
ENCODING 57
SWIDTH 617 0
DWIDTH 12 0
BBX 10 14 1 0
BITMAP
1E00
7F00
7F80
E1C0
E1C0
E1C0
F3C0
7FC0
3DC0
01C0
01C0
3780
7F00
3E00
ENDCHAR
STARTCHAR 003A
ENCODING 58
SWIDTH 360 0
DWIDTH 7 0
BBX 3 9 2 1
BITMAP
E0
E0
E0
00
00
00
E0
E0
E0
ENDCHAR
STARTCHAR 003B
ENCODING 59
SWIDTH 360 0
DWIDTH 7 0
BBX 3 14 2 -3
BITMAP
E0
E0
E0
00
00
00
00
00
E0
E0
E0
20
60
C0
ENDCHAR
STARTCHAR 003C
ENCODING 60
SWIDTH 668 0
DWIDTH 13 0
BBX 6 9 3 2
BITMAP
08
1C
38
70
E0
F0
78
3C
18
ENDCHAR
STARTCHAR 003D
ENCODING 61
SWIDTH 771 0
DWIDTH 15 0
BBX 10 6 2 4
BITMAP
FFC0
FFC0
0000
0000
FFC0
FFC0
ENDCHAR
STARTCHAR 003E
ENCODING 62
SWIDTH 668 0
DWIDTH 13 0
BBX 6 9 4 2
BITMAP
40
E0
F0
78
3C
38
70
E0
C0
ENDCHAR
STARTCHAR 003F
ENCODING 63
SWIDTH 565 0
DWIDTH 11 0
BBX 9 14 1 0
BITMAP
3E00
7F00
F780
E380
0380
0380
0700
0E00
1C00
1C00
0000
1C00
1C00
1C00
ENDCHAR
STARTCHAR 0040
ENCODING 64
SWIDTH 925 0
DWIDTH 18 0
BBX 14 15 2 -2
BITMAP
0FC0
3FF0
7878
6018
C7DC
CFCC
DCCC
D8CC
DCCC
CFFC
C7F8
E000
7800
3F80
0FC0
ENDCHAR
STARTCHAR 0041
ENCODING 65
SWIDTH 668 0
DWIDTH 13 0
BBX 12 14 1 0
BITMAP
0F00
1F00
1F00
1B80
3B80
3980
31C0
71C0
71C0
7FE0
FFE0
E0E0
E060
C070
ENDCHAR
STARTCHAR 0042
ENCODING 66
SWIDTH 617 0
DWIDTH 12 0
BBX 11 14 1 0
BITMAP
FF00
FF80
E3C0
E1C0
E1C0
E3C0
FF80
FFC0
E0E0
E0E0
E0E0
E3E0
FFC0
FF80
ENDCHAR
STARTCHAR 0043
ENCODING 67
SWIDTH 771 0
DWIDTH 15 0
BBX 12 14 1 0
BITMAP
0F80
3FE0
7FF0
F070
E030
E000
C000
C000
E000
E030
F070
7DF0
3FE0
0F80
ENDCHAR
STARTCHAR 0044
ENCODING 68
SWIDTH 720 0
DWIDTH 14 0
BBX 12 14 1 0
BITMAP
FF00
FFC0
FFE0
E0E0
E060
E070
E070
E070
E070
E060
E0E0
E3E0
FFC0
FF00
ENDCHAR
STARTCHAR 0045
ENCODING 69
SWIDTH 565 0
DWIDTH 11 0
BBX 9 14 1 0
BITMAP
FF80
FF80
E000
E000
E000
E000
FF00
FF00
E000
E000
E000
E000
FF80
FF80
ENDCHAR
STARTCHAR 0046
ENCODING 70
SWIDTH 514 0
DWIDTH 10 0
BBX 9 14 1 0
BITMAP
FF80
FF80
FF80
E000
E000
E000
FF00
FF00
FF00
E000
E000
E000
E000
E000
ENDCHAR
STARTCHAR 0047
ENCODING 71
SWIDTH 720 0
DWIDTH 14 0
BBX 13 14 1 0
BITMAP
0F80
3FE0
7FF0
F070
E030
E000
C000
C0F8
C0F8
E038
E070
7DF0
3FE0
0F80
ENDCHAR
STARTCHAR 0048
ENCODING 72
SWIDTH 720 0
DWIDTH 14 0
BBX 12 14 1 0
BITMAP
E070
E070
E070
E070
E070
E070
FFF0
FFF0
E070
E070
E070
E070
E070
E070
ENDCHAR
STARTCHAR 0049
ENCODING 73
SWIDTH 308 0
DWIDTH 6 0
BBX 2 14 2 0
BITMAP
C0
C0
C0
C0
C0
C0
C0
C0
C0
C0
C0
C0
C0
C0
ENDCHAR
STARTCHAR 004A
ENCODING 74
SWIDTH 514 0
DWIDTH 10 0
BBX 8 14 0 0
BITMAP
03
03
03
03
03
03
03
03
03
03
23
FF
7F
3C
ENDCHAR
STARTCHAR 004B
ENCODING 75
SWIDTH 668 0
DWIDTH 13 0
BBX 11 14 1 0
BITMAP
E0E0
E1C0
E380
E780
E700
EE00
FC00
FC00
EE00
E700
E380
E3C0
E1E0
E0E0
ENDCHAR
STARTCHAR 004C
ENCODING 76
SWIDTH 565 0
DWIDTH 11 0
BBX 8 14 2 0
BITMAP
C0
C0
C0
C0
C0
C0
C0
C0
C0
C0
C0
C0
FF
FF
ENDCHAR
STARTCHAR 004D
ENCODING 77
SWIDTH 874 0
DWIDTH 17 0
BBX 14 14 1 0
BITMAP
E00C
E01C
F01C
F03C
F83C
F87C
FC6C
ECEC
EECC
E7CC
E7CC
E38C
E38C
E10C
ENDCHAR
STARTCHAR 004E
ENCODING 78
SWIDTH 720 0
DWIDTH 14 0
BBX 12 14 1 0
BITMAP
E070
F070
F870
F870
FC70
EE70
EE70
E770
E3F0
E3F0
E1F0
E1F0
E0F0
E070
ENDCHAR
STARTCHAR 004F
ENCODING 79
SWIDTH 771 0
DWIDTH 15 0
BBX 13 14 1 0
BITMAP
0F80
3FE0
7FF0
F070
E038
E038
C038
C038
E038
E038
F070
7DF0
3FE0
0F80
ENDCHAR
STARTCHAR 0050
ENCODING 80
SWIDTH 668 0
DWIDTH 13 0
BBX 11 14 1 0
BITMAP
FF80
FFC0
E1E0
E0E0
E0E0
E0E0
E0E0
FFC0
FFC0
E000
E000
E000
E000
E000
ENDCHAR
STARTCHAR 0051
ENCODING 81
SWIDTH 771 0
DWIDTH 15 0
BBX 13 14 1 0
BITMAP
0F80
3FE0
7FF0
F070
E038
E038
C038
C038
E038
E0F8
F0F0
7DF0
3FF8
0F90
ENDCHAR
STARTCHAR 0052
ENCODING 82
SWIDTH 668 0
DWIDTH 13 0
BBX 11 14 1 0
BITMAP
FF80
FFC0
E1E0
E0E0
E0E0
E0E0
E0E0
FFC0
FFC0
E380
E380
E1C0
E1C0
E0E0
ENDCHAR
STARTCHAR 0053
ENCODING 83
SWIDTH 668 0
DWIDTH 13 0
BBX 11 14 1 0
BITMAP
1F00
7FC0
7BE0
E0E0
E000
7800
7F80
1FC0
01E0
E0E0
E0E0
FBE0
7FC0
1F00
ENDCHAR
STARTCHAR 0054
ENCODING 84
SWIDTH 617 0
DWIDTH 12 0
BBX 12 14 0 0
BITMAP
FFF0
FFF0
0600
0600
0600
0600
0600
0600
0600
0600
0600
0600
0600
0600
ENDCHAR
STARTCHAR 0055
ENCODING 85
SWIDTH 720 0
DWIDTH 14 0
BBX 12 14 1 0
BITMAP
E070
E070
E070
E070
E070
E070
E070
E070
E070
E070
70E0
7FE0
3FC0
1F80
ENDCHAR
STARTCHAR 0056
ENCODING 86
SWIDTH 668 0
DWIDTH 13 0
BBX 12 14 0 0
BITMAP
E030
6070
7070
7070
70E0
30E0
38E0
38C0
19C0
1DC0
1D80
0F80
0F80
0F00
ENDCHAR
STARTCHAR 0057
ENCODING 87
SWIDTH 977 0
DWIDTH 19 0
BBX 19 14 0 0
BITMAP
E0E0E0
60E0E0
70F0C0
71F1C0
31F1C0
31B180
3BBB80
3BBB80
1B1B80
1F1F00
1F1F00
0F0F00
0E0E00
0E0E00
ENDCHAR
STARTCHAR 0058
ENCODING 88
SWIDTH 668 0
DWIDTH 13 0
BBX 12 14 1 0
BITMAP
E0E0
F0E0
71C0
3B80
3B80
1F00
0E00
0F00
1F00
3B80
3BC0
71C0
E0E0
E0F0
ENDCHAR
STARTCHAR 0059
ENCODING 89
SWIDTH 617 0
DWIDTH 12 0
BBX 12 14 0 0
BITMAP
E070
70E0
78E0
39C0
1DC0
1F80
0F00
0F00
0600
0600
0600
0600
0600
0600
ENDCHAR
STARTCHAR 005A
ENCODING 90
SWIDTH 668 0
DWIDTH 13 0
BBX 11 14 1 0
BITMAP
7FE0
7FE0
01C0
0380
0780
0700
0F00
0E00
1C00
3C00
3800
7800
7FE0
FFE0
ENDCHAR
STARTCHAR 005B
ENCODING 91
SWIDTH 411 0
DWIDTH 8 0
BBX 4 21 3 -4
BITMAP
F0
F0
C0
C0
C0
C0
C0
C0
C0
C0
C0
C0
C0
C0
C0
C0
C0
C0
C0
F0
F0
ENDCHAR
STARTCHAR 005C
ENCODING 92
SWIDTH 462 0
DWIDTH 9 0
BBX 6 14 1 0
BITMAP
E0
60
60
70
70
30
38
38
38
18
1C
1C
1C
0C
ENDCHAR
STARTCHAR 005D
ENCODING 93
SWIDTH 411 0
DWIDTH 8 0
BBX 5 21 1 -4
BITMAP
F8
F8
38
38
38
38
38
38
38
38
38
38
38
38
38
38
38
38
38
F8
F8
ENDCHAR
STARTCHAR 005E
ENCODING 94
SWIDTH 668 0
DWIDTH 13 0
BBX 9 6 2 8
BITMAP
0800
1C00
3E00
7700
E380
4180
ENDCHAR
STARTCHAR 005F
ENCODING 95
SWIDTH 668 0
DWIDTH 13 0
BBX 13 2 0 -2
BITMAP
FFF8
FFF8
ENDCHAR
STARTCHAR 0060
ENCODING 96
SWIDTH 565 0
DWIDTH 11 0
BBX 4 4 3 15
BITMAP
C0
60
60
30
ENDCHAR
STARTCHAR 0061
ENCODING 97
SWIDTH 565 0
DWIDTH 11 0
BBX 9 11 1 0
BITMAP
3E00
7F00
F780
2380
1F80
7F80
F180
C380
E780
FF80
7D80
ENDCHAR
STARTCHAR 0062
ENCODING 98
SWIDTH 617 0
DWIDTH 12 0
BBX 10 14 1 0
BITMAP
E000
E000
E000
FF00
FF80
F3C0
E1C0
E1C0
E0C0
E1C0
E1C0
F3C0
FF80
FF00
ENDCHAR
STARTCHAR 0063
ENCODING 99
SWIDTH 565 0
DWIDTH 11 0
BBX 10 11 1 0
BITMAP
1E00
7F80
7F80
E1C0
E000
E000
E000
E1C0
FF80
7F80
1E00
ENDCHAR
STARTCHAR 0064
ENCODING 100
SWIDTH 617 0
DWIDTH 12 0
BBX 10 14 1 0
BITMAP
01C0
01C0
01C0
1FC0
7FC0
F3C0
E1C0
E1C0
E1C0
E1C0
E1C0
F3C0
7FC0
3FC0
ENDCHAR
STARTCHAR 0065
ENCODING 101
SWIDTH 617 0
DWIDTH 12 0
BBX 10 11 1 0
BITMAP
1E00
7F80
7380
E1C0
FFC0
FFC0
E000
E180
7FC0
7F80
1E00
ENDCHAR
STARTCHAR 0066
ENCODING 102
SWIDTH 411 0
DWIDTH 8 0
BBX 6 14 1 0
BITMAP
3C
3C
70
FC
FC
70
70
70
70
70
70
70
70
70
ENDCHAR
STARTCHAR 0067
ENCODING 103
SWIDTH 617 0
DWIDTH 12 0
BBX 10 15 1 -5
BITMAP
1FC0
7FC0
F3C0
E1C0
E1C0
E1C0
E1C0
E1C0
F3C0
7FC0
3FC0
01C0
21C0
7F80
3F00
ENDCHAR
STARTCHAR 0068
ENCODING 104
SWIDTH 617 0
DWIDTH 12 0
BBX 10 14 1 0
BITMAP
E000
E000
E000
EF00
FF80
FFC0
E1C0
E1C0
E1C0
E1C0
E1C0
E1C0
E1C0
E1C0
ENDCHAR
STARTCHAR 0069
ENCODING 105
SWIDTH 308 0
DWIDTH 6 0
BBX 2 14 2 0
BITMAP
C0
C0
00
C0
C0
C0
C0
C0
C0
C0
C0
C0
C0
C0
ENDCHAR
STARTCHAR 006A
ENCODING 106
SWIDTH 308 0
DWIDTH 6 0
BBX 4 18 0 -4
BITMAP
30
30
00
30
30
30
30
30
30
30
30
30
30
30
30
30
F0
F0
ENDCHAR
STARTCHAR 006B
ENCODING 107
SWIDTH 565 0
DWIDTH 11 0
BBX 10 14 1 0
BITMAP
E000
E000
E000
E3C0
E380
E700
EE00
EE00
FC00
EE00
EF00
E700
E380
E3C0
ENDCHAR
STARTCHAR 006C
ENCODING 108
SWIDTH 308 0
DWIDTH 6 0
BBX 2 14 2 0
BITMAP
C0
C0
C0
C0
C0
C0
C0
C0
C0
C0
C0
C0
C0
C0
ENDCHAR
STARTCHAR 006D
ENCODING 109
SWIDTH 925 0
DWIDTH 18 0
BBX 16 11 1 0
BITMAP
EF3C
FFFE
F3CE
E387
E187
E187
E187
E187
E187
E187
E187
ENDCHAR
STARTCHAR 006E
ENCODING 110
SWIDTH 617 0
DWIDTH 12 0
BBX 10 11 1 0
BITMAP
FF80
FFC0
F1C0
E1C0
E1C0
E1C0
E1C0
E1C0
E1C0
E1C0
E1C0
ENDCHAR
STARTCHAR 006F
ENCODING 111
SWIDTH 617 0
DWIDTH 12 0
BBX 10 11 1 0
BITMAP
1E00
7F80
7FC0
E1C0
E0C0
E0C0
E0C0
E1C0
7FC0
7F80
1E00
ENDCHAR
STARTCHAR 0070
ENCODING 112
SWIDTH 617 0
DWIDTH 12 0
BBX 10 15 1 -4
BITMAP
FF00
FF80
F3C0
E1C0
E1C0
E0C0
E1C0
E1C0
F3C0
FF80
FF00
E000
E000
E000
E000
ENDCHAR
STARTCHAR 0071
ENCODING 113
SWIDTH 617 0
DWIDTH 12 0
BBX 10 15 1 -4
BITMAP
1FC0
7FC0
F3C0
E1C0
E1C0
E1C0
E1C0
E1C0
F3C0
7FC0
3FC0
01C0
01C0
01C0
01C0
ENDCHAR
STARTCHAR 0072
ENCODING 114
SWIDTH 411 0
DWIDTH 8 0
BBX 7 11 1 0
BITMAP
EE
FE
FA
F0
E0
E0
E0
E0
E0
E0
E0
ENDCHAR
STARTCHAR 0073
ENCODING 115
SWIDTH 565 0
DWIDTH 11 0
BBX 9 11 1 0
BITMAP
3E00
7F00
E780
E200
FC00
7F00
0F80
E380
F380
7F00
3E00
ENDCHAR
STARTCHAR 0074
ENCODING 116
SWIDTH 462 0
DWIDTH 9 0
BBX 8 14 0 0
BITMAP
38
38
38
FF
FF
38
38
38
38
38
38
38
3F
1F
ENDCHAR
STARTCHAR 0075
ENCODING 117
SWIDTH 617 0
DWIDTH 12 0
BBX 10 11 1 -1
BITMAP
E1C0
E1C0
E1C0
E1C0
E1C0
E1C0
E1C0
E1C0
F3C0
7FC0
7EC0
ENDCHAR
STARTCHAR 0076
ENCODING 118
SWIDTH 565 0
DWIDTH 11 0
BBX 9 11 1 0
BITMAP
C180
E180
E380
6300
6300
7700
3600
3600
3E00
1C00
1C00
ENDCHAR
STARTCHAR 0077
ENCODING 119
SWIDTH 822 0
DWIDTH 16 0
BBX 14 11 1 0
BITMAP
C30C
C71C
E79C
E798
6F98
7DF8
7CF8
3CF0
38F0
3870
3860
ENDCHAR
STARTCHAR 0078
ENCODING 120
SWIDTH 565 0
DWIDTH 11 0
BBX 9 11 1 0
BITMAP
E380
E380
7700
3E00
3E00
1C00
3E00
3E00
7700
E380
E380
ENDCHAR
STARTCHAR 0079
ENCODING 121
SWIDTH 565 0
DWIDTH 11 0
BBX 11 15 0 -4
BITMAP
E0E0
70C0
71C0
31C0
3980
3B80
1B80
1F00
0F00
0E00
0E00
0E00
0C00
1C00
1800
ENDCHAR
STARTCHAR 007A
ENCODING 122
SWIDTH 514 0
DWIDTH 10 0
BBX 10 11 0 0
BITMAP
7FC0
7F80
0700
0700
0E00
0C00
1C00
3800
3800
7F80
FF80
ENDCHAR
STARTCHAR 007B
ENCODING 123
SWIDTH 462 0
DWIDTH 9 0
BBX 5 21 3 -4
BITMAP
78
78
60
60
60
60
60
60
60
E0
E0
E0
60
60
60
60
60
60
70
78
38
ENDCHAR
STARTCHAR 007C
ENCODING 124
SWIDTH 308 0
DWIDTH 6 0
BBX 2 14 2 0
BITMAP
C0
C0
C0
C0
C0
C0
C0
C0
C0
C0
C0
C0
C0
C0
ENDCHAR
STARTCHAR 007D
ENCODING 125
SWIDTH 462 0
DWIDTH 9 0
BBX 5 21 1 -4
BITMAP
E0
F0
30
30
30
30
30
30
30
38
38
38
30
30
30
30
30
30
70
F0
E0
ENDCHAR
STARTCHAR 007E
ENCODING 126
SWIDTH 720 0
DWIDTH 14 0
BBX 10 5 2 4
BITMAP
3000
F8C0
FFC0
EFC0
E380
ENDCHAR
STARTCHAR 00A0
ENCODING 160
SWIDTH 205 0
DWIDTH 4 0
BBX 0 0 0 0
BITMAP
ENDCHAR
STARTCHAR 00A1
ENCODING 161
SWIDTH 360 0
DWIDTH 7 0
BBX 3 14 2 -3
BITMAP
E0
E0
00
E0
E0
E0
E0
E0
E0
E0
E0
E0
E0
E0
ENDCHAR
STARTCHAR 00A2
ENCODING 162
SWIDTH 565 0
DWIDTH 11 0
BBX 10 15 1 -1
BITMAP
0C00
0C00
3F00
7F80
F3C0
E180
E000
E000
E000
E1C0
7F80
7F80
1E00
0C00
0C00
ENDCHAR
STARTCHAR 00A3
ENCODING 163
SWIDTH 565 0
DWIDTH 11 0
BBX 9 14 1 0
BITMAP
1E00
3F00
7F80
7180
7000
7000
FE00
FE00
FE00
7000
7000
F000
FF00
FF00
ENDCHAR
STARTCHAR 00A4
ENCODING 164
SWIDTH 668 0
DWIDTH 13 0
BBX 11 12 1 1
BITMAP
4040
FFE0
FFE0
71C0
60C0
60E0
60E0
60C0
71C0
FFE0
FFE0
4040
ENDCHAR
STARTCHAR 00A5
ENCODING 165
SWIDTH 617 0
DWIDTH 12 0
BBX 12 14 0 0
BITMAP
E070
70E0
70E0
39C0
1DC0
1F80
0F80
3FC0
3FC0
0600
3FC0
3FC0
0600
0600
ENDCHAR
STARTCHAR 00A6
ENCODING 166
SWIDTH 308 0
DWIDTH 6 0
BBX 2 18 2 -4
BITMAP
C0
C0
C0
C0
C0
C0
C0
C0
00
00
C0
C0
C0
C0
C0
C0
C0
C0
ENDCHAR
STARTCHAR 00A7
ENCODING 167
SWIDTH 565 0
DWIDTH 11 0
BBX 9 15 1 -2
BITMAP
3C00
7E00
E700
E400
FC00
7F00
EF80
E380
F380
7F00
1F00
2380
E380
7F00
3E00
ENDCHAR
STARTCHAR 00A8
ENCODING 168
SWIDTH 565 0
DWIDTH 11 0
BBX 7 2 2 16
BITMAP
EE
EE
ENDCHAR
STARTCHAR 00A9
ENCODING 169
SWIDTH 925 0
DWIDTH 18 0
BBX 16 16 1 -1
BITMAP
0FF0
1FF8
3C3C
700E
E3C6
E7E7
CE77
CC03
CC03
CE77
E7E7
E3C6
700E
3C3C
1FF8
0FF0
ENDCHAR
STARTCHAR 00AA
ENCODING 170
SWIDTH 308 0
DWIDTH 6 0
BBX 4 6 1 5
BITMAP
70
90
70
90
B0
40
ENDCHAR
STARTCHAR 00AB
ENCODING 171
SWIDTH 617 0
DWIDTH 12 0
BBX 8 8 2 2
BITMAP
33
77
E6
CC
CE
66
33
11
ENDCHAR
STARTCHAR 00AC
ENCODING 172
SWIDTH 617 0
DWIDTH 12 0
BBX 9 4 1 4
BITMAP
FF80
FF80
0180
0180
ENDCHAR
STARTCHAR 00AD
ENCODING 173
SWIDTH 411 0
DWIDTH 8 0
BBX 6 2 1 5
BITMAP
FC
FC
ENDCHAR
STARTCHAR 00AE
ENCODING 174
SWIDTH 668 0
DWIDTH 13 0
BBX 11 11 1 5
BITMAP
0E00
3F80
71C0
6EC0
4A40
CA60
CE60
4AC0
71C0
3F80
0E00
ENDCHAR
STARTCHAR 00AF
ENCODING 175
SWIDTH 514 0
DWIDTH 10 0
BBX 6 2 2 16
BITMAP
FC
FC
ENDCHAR
STARTCHAR 00B0
ENCODING 176
SWIDTH 462 0
DWIDTH 9 0
BBX 7 7 1 7
BITMAP
78
FC
CC
CE
CC
FC
78
ENDCHAR
STARTCHAR 00B1
ENCODING 177
SWIDTH 617 0
DWIDTH 12 0
BBX 9 10 1 1
BITMAP
0C00
0C00
FF80
FF80
0C00
0C00
0C00
0000
FF80
FF80
ENDCHAR
STARTCHAR 00B2
ENCODING 178
SWIDTH 411 0
DWIDTH 8 0
BBX 6 9 1 5
BITMAP
78
FC
CC
0C
1C
38
70
FC
FC
ENDCHAR
STARTCHAR 00B3
ENCODING 179
SWIDTH 411 0
DWIDTH 8 0
BBX 6 9 1 5
BITMAP
FC
FC
30
78
18
0C
0C
F8
70
ENDCHAR
STARTCHAR 00B4
ENCODING 180
SWIDTH 565 0
DWIDTH 11 0
BBX 3 4 4 15
BITMAP
60
60
60
C0
ENDCHAR
STARTCHAR 00B5
ENCODING 181
SWIDTH 668 0
DWIDTH 13 0
BBX 10 16 1 -5
BITMAP
E1C0
E1C0
E1C0
E1C0
E1C0
E1C0
E1C0
E1C0
F1C0
FFC0
FEC0
E800
E000
E000
E000
E000
ENDCHAR
STARTCHAR 00B6
ENCODING 182
SWIDTH 720 0
DWIDTH 14 0
BBX 13 17 1 -3
BITMAP
3F38
7F38
FF38
FF38
FF38
FF38
FF38
7F38
3F38
0738
0738
0738
0738
0738
0738
0738
0738
ENDCHAR
STARTCHAR 00B7
ENCODING 183
SWIDTH 257 0
DWIDTH 5 0
BBX 3 3 1 5
BITMAP
60
E0
E0
ENDCHAR
STARTCHAR 00B8
ENCODING 184
SWIDTH 411 0
DWIDTH 8 0
BBX 3 5 3 -5
BITMAP
C0
C0
60
E0
C0
ENDCHAR
STARTCHAR 00B9
ENCODING 185
SWIDTH 360 0
DWIDTH 7 0
BBX 4 9 1 5
BITMAP
70
F0
B0
30
30
30
30
30
30
ENDCHAR
STARTCHAR 00BA
ENCODING 186
SWIDTH 360 0
DWIDTH 7 0
BBX 5 6 1 5
BITMAP
70
D8
88
88
D8
70
ENDCHAR
STARTCHAR 00BB
ENCODING 187
SWIDTH 617 0
DWIDTH 12 0
BBX 9 9 1 1
BITMAP
4000
CE00
6600
3300
1980
3300
7700
E600
4400
ENDCHAR
STARTCHAR 00BC
ENCODING 188
SWIDTH 1080 0
DWIDTH 21 0
BBX 17 14 1 0
BITMAP
700800
F01C00
B01800
303000
306000
30E200
30C600
318600
338C00
070D00
061900
0C1F80
1C1F80
080100
ENDCHAR
STARTCHAR 00BD
ENCODING 189
SWIDTH 1028 0
DWIDTH 20 0
BBX 18 14 1 0
BITMAP
700800
F01C00
B01800
303000
306000
30E780
30CFC0
318CC0
3380C0
0300C0
060380
0C0700
1C0FC0
080FC0
ENDCHAR
STARTCHAR 00BE
ENCODING 190
SWIDTH 1028 0
DWIDTH 20 0
BBX 18 14 1 0
BITMAP
FC0400
FC0E00
300C00
781800
183800
0C3300
0C6300
F8C200
71C600
018480
030C80
060FC0
0E0FC0
040080
ENDCHAR
STARTCHAR 00BF
ENCODING 191
SWIDTH 565 0
DWIDTH 11 0
BBX 9 15 1 -4
BITMAP
1C00
1C00
1C00
0000
1C00
1C00
3C00
7800
7000
E000
E000
E380
F780
7F00
3E00
ENDCHAR
STARTCHAR 00C0
ENCODING 192
SWIDTH 668 0
DWIDTH 13 0
BBX 12 19 1 0
BITMAP
1800
0800
0C00
0C00
0000
0F00
1F00
1F00
1B80
3B80
3980
31C0
71C0
70C0
7FE0
FFE0
E0E0
E060
C070
ENDCHAR
STARTCHAR 00C1
ENCODING 193
SWIDTH 668 0
DWIDTH 13 0
BBX 12 19 1 0
BITMAP
0300
0300
0600
0600
0000
0F00
1F00
1F00
1B80
3B80
3980
31C0
71C0
71C0
7FE0
FFE0
E0E0
E060
C070
ENDCHAR
STARTCHAR 00C2
ENCODING 194
SWIDTH 668 0
DWIDTH 13 0
BBX 12 19 1 0
BITMAP
0E00
1F00
3B80
0000
0000
0F00
1F00
1F00
1B80
3B80
3980
31C0
71C0
71C0
7FE0
FFE0
E0E0
E060
C070
ENDCHAR
STARTCHAR 00C3
ENCODING 195
SWIDTH 668 0
DWIDTH 13 0
BBX 12 19 1 0
BITMAP
1880
3F80
3380
0000
0000
0F00
1F00
1F00
1B80
3B80
3980
31C0
71C0
71C0
7FE0
FFE0
E0E0
E060
C070
ENDCHAR
STARTCHAR 00C4
ENCODING 196
SWIDTH 668 0
DWIDTH 13 0
BBX 12 18 1 0
BITMAP
3980
3980
0000
0000
0F00
1F00
1F00
1B80
3B80
3980
31C0
71C0
71C0
7FE0
FFE0
E0E0
E060
C070
ENDCHAR
STARTCHAR 00C5
ENCODING 197
SWIDTH 668 0
DWIDTH 13 0
BBX 12 21 1 0
BITMAP
0400
0F00
1B00
1900
1F00
0E00
0000
0F00
1F00
1F00
1B80
3B80
3980
31C0
71C0
71C0
7FE0
FFE0
E0E0
E060
C070
ENDCHAR
STARTCHAR 00C6
ENCODING 198
SWIDTH 925 0
DWIDTH 18 0
BBX 16 14 1 0
BITMAP
0FFF
1FFF
1DC0
19C0
39C0
39C0
31FE
71FE
71C0
7FC0
FFC0
E1C0
E1FF
C1FF
ENDCHAR
STARTCHAR 00C7
ENCODING 199
SWIDTH 771 0
DWIDTH 15 0
BBX 12 19 1 -5
BITMAP
0F80
3FE0
7FF0
F070
E030
E000
C000
C000
C000
E030
E070
78F0
3FE0
1F80
0200
0700
0300
0700
0600
ENDCHAR
STARTCHAR 00C8
ENCODING 200
SWIDTH 565 0
DWIDTH 11 0
BBX 9 19 1 0
BITMAP
1800
1800
0C00
0C00
0000
FF80
FF80
E000
E000
E000
E000
FF00
FF00
E000
E000
E000
E000
FF80
FF80
ENDCHAR
STARTCHAR 00C9
ENCODING 201
SWIDTH 565 0
DWIDTH 11 0
BBX 9 19 1 0
BITMAP
0200
0600
0600
0C00
0000
FF80
FF80
E000
E000
E000
E000
FF00
FF00
E000
E000
E000
E000
FF80
FF80
ENDCHAR
STARTCHAR 00CA
ENCODING 202
SWIDTH 565 0
DWIDTH 11 0
BBX 9 19 1 0
BITMAP
1C00
3E00
3300
4000
0000
FF80
FF80
E000
E000
E000
E000
FF00
FF00
E000
E000
E000
E000
FF80
FF80
ENDCHAR
STARTCHAR 00CB
ENCODING 203
SWIDTH 565 0
DWIDTH 11 0
BBX 9 18 1 0
BITMAP
3300
3300
0000
0000
FF80
FF80
E000
E000
E000
E000
FF00
FF00
E000
E000
E000
E000
FF80
FF80
ENDCHAR
STARTCHAR 00CC
ENCODING 204
SWIDTH 308 0
DWIDTH 6 0
BBX 4 19 0 0
BITMAP
C0
60
60
30
00
30
30
30
30
30
30
30
30
30
30
30
30
30
30
ENDCHAR
STARTCHAR 00CD
ENCODING 205
SWIDTH 308 0
DWIDTH 6 0
BBX 3 19 2 0
BITMAP
60
60
C0
C0
00
C0
C0
C0
C0
C0
C0
C0
C0
C0
C0
C0
C0
C0
C0
ENDCHAR
STARTCHAR 00CE
ENCODING 206
SWIDTH 308 0
DWIDTH 6 0
BBX 7 19 -1 0
BITMAP
38
7C
66
80
00
18
18
18
18
18
18
18
18
18
18
18
18
18
18
ENDCHAR
STARTCHAR 00CF
ENCODING 207
SWIDTH 308 0
DWIDTH 6 0
BBX 6 18 0 0
BITMAP
CC
CC
00
00
30
30
30
30
30
30
30
30
30
30
30
30
30
30
ENDCHAR
STARTCHAR 00D0
ENCODING 208
SWIDTH 720 0
DWIDTH 14 0
BBX 13 14 0 0
BITMAP
7F80
7FE0
7FF0
7070
7038
7038
FE38
FE38
7038
7038
7070
71F0
7FE0
7F80
ENDCHAR
STARTCHAR 00D1
ENCODING 209
SWIDTH 720 0
DWIDTH 14 0
BBX 12 19 1 0
BITMAP
1C00
1EC0
13C0
0180
0000
E070
F070
F870
F870
FC70
EE70
EE70
E770
E3F0
E3F0
E1F0
E1F0
E0F0
E070
ENDCHAR
STARTCHAR 00D2
ENCODING 210
SWIDTH 771 0
DWIDTH 15 0
BBX 13 19 1 0
BITMAP
0C00
0C00
0400
0600
0000
0F80
3FE0
7FF0
F070
E038
E038
C038
C038
E038
E038
F070
7DF0
3FE0
0F80
ENDCHAR
STARTCHAR 00D3
ENCODING 211
SWIDTH 771 0
DWIDTH 15 0
BBX 13 19 1 0
BITMAP
0180
0300
0300
0300
0000
0F80
3FE0
7FF0
F070
E038
E038
C038
C038
E038
E038
F070
7DF0
3FE0
0F80
ENDCHAR
STARTCHAR 00D4
ENCODING 212
SWIDTH 771 0
DWIDTH 15 0
BBX 13 18 1 0
BITMAP
0700
0D80
19C0
0000
0F80
3FE0
7FF0
F070
E038
E038
C038
C038
E038
E038
F070
7DF0
3FE0
0F80
ENDCHAR
STARTCHAR 00D5
ENCODING 213
SWIDTH 771 0
DWIDTH 15 0
BBX 13 19 1 0
BITMAP
0C00
1EC0
1BC0
0180
0000
0F80
3FE0
7FF0
F070
E038
E038
C038
C038
E038
E038
F070
7DF0
3FE0
0F80
ENDCHAR
STARTCHAR 00D6
ENCODING 214
SWIDTH 771 0
DWIDTH 15 0
BBX 13 17 1 0
BITMAP
19C0
19C0
0000
0F80
3FE0
7FF0
F070
E038
E038
C038
C038
E038
E038
F070
7DF0
3FE0
0F80
ENDCHAR
STARTCHAR 00D7
ENCODING 215
SWIDTH 514 0
DWIDTH 10 0
BBX 8 8 1 3
BITMAP
42
E7
7E
3C
3C
7E
E6
40
ENDCHAR
STARTCHAR 00D8
ENCODING 216
SWIDTH 771 0
DWIDTH 15 0
BBX 13 14 1 0
BITMAP
0F90
3FF8
7FF0
F0F0
E1F8
E3F8
C7B8
CF38
EE38
FC38
F870
7DF0
FFE0
4F80
ENDCHAR
STARTCHAR 00D9
ENCODING 217
SWIDTH 720 0
DWIDTH 14 0
BBX 12 19 1 0
BITMAP
0C00
0C00
0600
0600
0000
E070
E070
E070
E070
E070
E070
E070
E070
E070
E070
70E0
7FE0
3FC0
1F80
ENDCHAR
STARTCHAR 00DA
ENCODING 218
SWIDTH 720 0
DWIDTH 14 0
BBX 12 19 1 0
BITMAP
0300
0300
0600
0600
0000
E070
E070
E070
E070
E070
E070
E070
E070
E070
E070
70E0
7FE0
3FC0
1F80
ENDCHAR
STARTCHAR 00DB
ENCODING 219
SWIDTH 720 0
DWIDTH 14 0
BBX 12 19 1 0
BITMAP
0F00
0F00
1980
0000
0000
E070
E070
E070
E070
E070
E070
E070
E070
E070
E070
70E0
7FE0
3FC0
1F80
ENDCHAR
STARTCHAR 00DC
ENCODING 220
SWIDTH 720 0
DWIDTH 14 0
BBX 12 18 1 0
BITMAP
1980
1980
0000
0000
E070
E070
E070
E070
E070
E070
E070
E070
E070
E070
70E0
7FE0
3FC0
1F80
ENDCHAR
STARTCHAR 00DD
ENCODING 221
SWIDTH 617 0
DWIDTH 12 0
BBX 12 19 0 0
BITMAP
0300
0300
0300
0600
0000
E070
70E0
78E0
39C0
1DC0
1F80
0F00
0F00
0600
0600
0600
0600
0600
0600
ENDCHAR
STARTCHAR 00DE
ENCODING 222
SWIDTH 617 0
DWIDTH 12 0
BBX 11 14 1 0
BITMAP
E000
E000
E000
FF80
FFC0
E1E0
E0E0
E0E0
E1E0
FFC0
FF80
E000
E000
E000
ENDCHAR
STARTCHAR 00DF
ENCODING 223
SWIDTH 668 0
DWIDTH 13 0
BBX 10 14 1 0
BITMAP
3E00
7F00
7F80
E180
E180
E380
E700
E7C0
E1C0
E0C0
E0C0
EFC0
EFC0
EF00
ENDCHAR
STARTCHAR 00E0
ENCODING 224
SWIDTH 565 0
DWIDTH 11 0
BBX 9 16 1 0
BITMAP
3000
1800
1800
0C00
0000
3E00
7F00
F780
2380
1F80
7F80
F180
C380
E780
FF80
7D80
ENDCHAR
STARTCHAR 00E1
ENCODING 225
SWIDTH 565 0
DWIDTH 11 0
BBX 9 16 1 0
BITMAP
0600
0600
0C00
0C00
0000
3E00
7F00
F780
2380
1F80
7F80
F180
C380
E780
FF80
7D80
ENDCHAR
STARTCHAR 00E2
ENCODING 226
SWIDTH 565 0
DWIDTH 11 0
BBX 9 15 1 0
BITMAP
1C00
3E00
7300
0000
3E00
7F00
F780
2380
1F80
7F80
F180
C380
E780
FF80
7D80
ENDCHAR
STARTCHAR 00E3
ENCODING 227
SWIDTH 565 0
DWIDTH 11 0
BBX 9 16 1 0
BITMAP
3000
3D80
6F80
0700
0000
3E00
7F00
F780
2380
1F80
7F80
F180
C380
C380
FF80
7D80
ENDCHAR
STARTCHAR 00E4
ENCODING 228
SWIDTH 565 0
DWIDTH 11 0
BBX 9 14 1 0
BITMAP
3300
3300
0000
3E00
7F00
F780
2380
1F80
7F80
F180
C380
E780
FF80
7D80
ENDCHAR
STARTCHAR 00E5
ENCODING 229
SWIDTH 565 0
DWIDTH 11 0
BBX 9 17 1 0
BITMAP
1C00
3E00
3200
3E00
1C00
0000
3E00
7F00
F780
2380
1F80
7F80
F180
C380
E780
FF80
7D80
ENDCHAR
STARTCHAR 00E6
ENCODING 230
SWIDTH 925 0
DWIDTH 18 0
BBX 16 11 1 0
BITMAP
3E7C
7FFE
F7E7
23C3
1FFF
7FFF
E180
C3C2
E7EF
FEFE
7C7C
ENDCHAR
STARTCHAR 00E7
ENCODING 231
SWIDTH 565 0
DWIDTH 11 0
BBX 10 16 1 -5
BITMAP
1E00
7F80
7F80
E1C0
E000
E000
E000
E180
F380
7F80
1E00
0C00
0E00
0600
0E00
1C00
ENDCHAR
STARTCHAR 00E8
ENCODING 232
SWIDTH 617 0
DWIDTH 12 0
BBX 10 16 1 0
BITMAP
1800
1800
0800
0C00
0000
1E00
7F80
7380
E1C0
FFC0
FFC0
E000
E180
7FC0
7F80
1E00
ENDCHAR
STARTCHAR 00E9
ENCODING 233
SWIDTH 617 0
DWIDTH 12 0
BBX 10 16 1 0
BITMAP
0300
0600
0600
0C00
0000
1E00
7F80
7380
E1C0
FFC0
FFC0
E000
E180
7FC0
7F80
1E00
ENDCHAR
STARTCHAR 00EA
ENCODING 234
SWIDTH 617 0
DWIDTH 12 0
BBX 10 15 1 0
BITMAP
1E00
3F00
3300
0000
1E00
7F80
7380
E1C0
FFC0
FFC0
E000
E180
7FC0
7F80
1E00
ENDCHAR
STARTCHAR 00EB
ENCODING 235
SWIDTH 617 0
DWIDTH 12 0
BBX 10 14 1 0
BITMAP
3300
3300
0000
1E00
7F80
7380
E1C0
FFC0
FFC0
E000
E180
7FC0
7F80
1E00
ENDCHAR
STARTCHAR 00EC
ENCODING 236
SWIDTH 308 0
DWIDTH 6 0
BBX 3 16 1 0
BITMAP
C0
C0
C0
60
00
60
60
60
60
60
60
60
60
60
60
60
ENDCHAR
STARTCHAR 00ED
ENCODING 237
SWIDTH 308 0
DWIDTH 6 0
BBX 3 16 2 0
BITMAP
60
60
C0
C0
00
C0
C0
C0
C0
C0
C0
C0
C0
C0
C0
C0
ENDCHAR
STARTCHAR 00EE
ENCODING 238
SWIDTH 308 0
DWIDTH 6 0
BBX 6 16 0 0
BITMAP
38
78
CC
00
00
30
30
30
30
30
30
30
30
30
30
30
ENDCHAR
STARTCHAR 00EF
ENCODING 239
SWIDTH 308 0
DWIDTH 6 0
BBX 6 15 0 0
BITMAP
CC
CC
00
00
30
30
30
30
30
30
30
30
30
30
30
ENDCHAR
STARTCHAR 00F0
ENCODING 240
SWIDTH 617 0
DWIDTH 12 0
BBX 10 15 1 0
BITMAP
1300
1F00
0F00
0F80
0180
1F80
7FC0
F3C0
E1C0
C1C0
C1C0
E1C0
F380
7F80
3E00
ENDCHAR
STARTCHAR 00F1
ENCODING 241
SWIDTH 617 0
DWIDTH 12 0
BBX 10 16 1 0
BITMAP
3800
3D80
2F80
0300
0000
FF80
FFC0
F1C0
E1C0
E1C0
E1C0
E1C0
E1C0
E1C0
E1C0
E1C0
ENDCHAR
STARTCHAR 00F2
ENCODING 242
SWIDTH 617 0
DWIDTH 12 0
BBX 10 16 1 0
BITMAP
1800
1800
1800
0C00
0000
1E00
7F80
7FC0
E1C0
E0C0
E0C0
E0C0
E1C0
7FC0
7F80
1E00
ENDCHAR
STARTCHAR 00F3
ENCODING 243
SWIDTH 617 0
DWIDTH 12 0
BBX 10 16 1 0
BITMAP
0300
0600
0600
0C00
0000
1E00
7F80
7FC0
E1C0
E0C0
E0C0
E0C0
E1C0
7FC0
7F80
1E00
ENDCHAR
STARTCHAR 00F4
ENCODING 244
SWIDTH 617 0
DWIDTH 12 0
BBX 10 15 1 0
BITMAP
1E00
3F00
3380
0000
1E00
7F80
7FC0
E1C0
E0C0
E0C0
E0C0
E1C0
7FC0
7F80
1E00
ENDCHAR
STARTCHAR 00F5
ENCODING 245
SWIDTH 617 0
DWIDTH 12 0
BBX 10 16 1 0
BITMAP
3800
3D80
2F80
0300
0000
1E00
7F80
7FC0
E1C0
E0C0
E0C0
E0C0
E1C0
7FC0
7F80
1E00
ENDCHAR
STARTCHAR 00F6
ENCODING 246
SWIDTH 617 0
DWIDTH 12 0
BBX 10 14 1 0
BITMAP
3300
3300
0000
1E00
7F80
7FC0
E1C0
E0C0
E0C0
E0C0
E1C0
7FC0
7F80
1E00
ENDCHAR
STARTCHAR 00F7
ENCODING 247
SWIDTH 565 0
DWIDTH 11 0
BBX 8 8 1 3
BITMAP
18
18
00
FF
FF
00
18
18
ENDCHAR
STARTCHAR 00F8
ENCODING 248
SWIDTH 617 0
DWIDTH 12 0
BBX 10 11 1 0
BITMAP
1E80
7FC0
7FC0
E3C0
E6C0
ECC0
F8C0
F1C0
FFC0
FF80
5E00
ENDCHAR
STARTCHAR 00F9
ENCODING 249
SWIDTH 617 0
DWIDTH 12 0
BBX 10 16 1 -1
BITMAP
1800
1800
0C00
0C00
0000
E1C0
E1C0
E1C0
E1C0
E1C0
E1C0
E1C0
E1C0
F3C0
7FC0
7EC0
ENDCHAR
STARTCHAR 00FA
ENCODING 250
SWIDTH 617 0
DWIDTH 12 0
BBX 10 16 1 -1
BITMAP
0600
0600
0C00
0C00
0000
E1C0
E1C0
E1C0
E1C0
E1C0
E1C0
E1C0
E1C0
F3C0
7FC0
7EC0
ENDCHAR
STARTCHAR 00FB
ENCODING 251
SWIDTH 617 0
DWIDTH 12 0
BBX 10 16 1 -1
BITMAP
0E00
1E00
3300
0000
0000
E1C0
E1C0
E1C0
E1C0
E1C0
E1C0
E1C0
E1C0
F3C0
7FC0
7EC0
ENDCHAR
STARTCHAR 00FC
ENCODING 252
SWIDTH 617 0
DWIDTH 12 0
BBX 10 15 1 -1
BITMAP
3300
3300
0000
0000
E1C0
E1C0
E1C0
E1C0
E1C0
E1C0
E1C0
E1C0
F3C0
7FC0
7EC0
ENDCHAR
STARTCHAR 00FD
ENCODING 253
SWIDTH 565 0
DWIDTH 11 0
BBX 11 20 0 -4
BITMAP
0300
0300
0600
0600
0000
E0E0
70C0
71C0
31C0
3980
3B80
1B80
1F00
0F00
0E00
0E00
0E00
0C00
1C00
1800
ENDCHAR
STARTCHAR 00FE
ENCODING 254
SWIDTH 617 0
DWIDTH 12 0
BBX 10 18 1 -4
BITMAP
E000
E000
E000
FF00
FF80
F3C0
E1C0
E1C0
E0C0
E1C0
E1C0
F3C0
FF80
FF00
E000
E000
E000
E000
ENDCHAR
STARTCHAR 00FF
ENCODING 255
SWIDTH 565 0
DWIDTH 11 0
BBX 11 19 0 -4
BITMAP
3980
3980
0000
0000
E0E0
70C0
71C0
31C0
3980
3B80
1B80
1F00
0F00
0E00
0E00
0E00
0C00
1C00
1800
ENDCHAR
ENDFONT
