STARTFONT 2.1
COMMENT
COMMENT Converted from OpenType font "manrope-bold.otf" by "otf2bdf 3.0".
COMMENT
FONT -FreeType-Manrope-Bold-R-Normal--25-180-100-100-P-121-ISO10646-1
SIZE 18 100 100
FONTBOUNDINGBOX 25 32 -1 -6
STARTPROPERTIES 19
FOUNDRY "FreeType"
FAMILY_NAME "Manrope"
WEIGHT_NAME "Bold"
SLANT "R"
SETWIDTH_NAME "Normal"
ADD_STYLE_NAME ""
PIXEL_SIZE 25
POINT_SIZE 180
RESOLUTION_X 100
RESOLUTION_Y 100
SPACING "P"
AVERAGE_WIDTH 121
CHARSET_REGISTRY "ISO10646"
CHARSET_ENCODING "1"
FONT_ASCENT 26
FONT_DESCENT 7
COPYRIGHT "Copyright 2019-2021 The Manrope Project Authors (https://github.com/sharanda/manrope)"
_OTF_FONTFILE "manrope-bold.otf"
_OTF_PSNAME "Manrope-Bold"
ENDPROPERTIES
CHARS 191
STARTCHAR 0020
ENCODING 32
SWIDTH 200 0
DWIDTH 5 0
BBX 0 0 0 0
BITMAP
ENDCHAR
STARTCHAR 0021
ENCODING 33
SWIDTH 360 0
DWIDTH 9 0
BBX 3 18 3 0
BITMAP
E0
E0
E0
E0
E0
E0
E0
E0
E0
E0
E0
E0
E0
E0
00
E0
E0
E0
ENDCHAR
STARTCHAR 0022
ENCODING 34
SWIDTH 480 0
DWIDTH 12 0
BBX 8 5 1 13
BITMAP
F7
F7
F7
F7
F7
ENDCHAR
STARTCHAR 0023
ENCODING 35
SWIDTH 920 0
DWIDTH 23 0
BBX 20 18 2 0
BITMAP
01C700
01C700
01C700
038E00
3FFFF0
7FFFE0
7FFFE0
071C00
071C00
071C00
FFFFC0
FFFFC0
FFFFC0
0E3800
0E3800
1C7000
1C7000
1C7000
ENDCHAR
STARTCHAR 0024
ENCODING 36
SWIDTH 640 0
DWIDTH 16 0
BBX 14 22 1 -2
BITMAP
0700
0700
0FC0
3FF0
7FF8
7078
7038
7000
7800
7F00
3FE0
0FF8
00F8
003C
E01C
F01C
7038
7FF8
3FF0
0FC0
0700
0700
ENDCHAR
STARTCHAR 0025
ENCODING 37
SWIDTH 920 0
DWIDTH 23 0
BBX 20 18 1 0
BITMAP
1E0040
3F00E0
7F81E0
6183C0
E18780
738F00
7F9E00
3F3C00
007800
00F100
03E7C0
07CFE0
0F9C70
1F1C70
3E1C70
7C1FF0
380FE0
1007C0
ENDCHAR
STARTCHAR 0026
ENCODING 38
SWIDTH 680 0
DWIDTH 17 0
BBX 15 18 1 0
BITMAP
0F80
1FE0
3FF0
7870
7000
7000
7800
3C00
3E00
7F18
7798
E3D8
E0F8
F078
707C
7FFE
3FFE
0FC4
ENDCHAR
STARTCHAR 0027
ENCODING 39
SWIDTH 280 0
DWIDTH 7 0
BBX 4 5 1 13
BITMAP
F0
F0
F0
F0
F0
ENDCHAR
STARTCHAR 0028
ENCODING 40
SWIDTH 440 0
DWIDTH 11 0
BBX 7 26 3 -5
BITMAP
04
0E
1E
1C
38
38
70
70
70
70
60
E0
E0
E0
E0
60
70
70
70
70
38
38
1C
1E
0E
04
ENDCHAR
STARTCHAR 0029
ENCODING 41
SWIDTH 440 0
DWIDTH 11 0
BBX 7 26 1 -5
BITMAP
20
E0
70
78
38
38
1C
1C
0C
0E
0E
0E
0E
0E
0E
0E
0E
0C
1C
1C
38
38
78
70
E0
20
ENDCHAR
STARTCHAR 002A
ENCODING 42
SWIDTH 480 0
DWIDTH 12 0
BBX 9 8 1 9
BITMAP
1C00
1C00
FF80
FF80
3E00
3E00
7700
7600
ENDCHAR
STARTCHAR 002B
ENCODING 43
SWIDTH 560 0
DWIDTH 14 0
BBX 12 11 1 4
BITMAP
0600
0600
0600
0600
0600
FFF0
FFF0
0600
0600
0600
0600
ENDCHAR
STARTCHAR 002C
ENCODING 44
SWIDTH 320 0
DWIDTH 8 0
BBX 4 6 1 -4
BITMAP
F0
F0
F0
30
20
60
ENDCHAR
STARTCHAR 002D
ENCODING 45
SWIDTH 440 0
DWIDTH 11 0
BBX 8 2 1 7
BITMAP
FF
FF
ENDCHAR
STARTCHAR 002E
ENCODING 46
SWIDTH 320 0
DWIDTH 8 0
BBX 3 3 2 0
BITMAP
E0
E0
E0
ENDCHAR
STARTCHAR 002F
ENCODING 47
SWIDTH 440 0
DWIDTH 11 0
BBX 7 18 2 0
BITMAP
0E
0E
0E
1C
1C
1C
1C
38
38
38
78
70
70
70
E0
E0
E0
E0
ENDCHAR
STARTCHAR 0030
ENCODING 48
SWIDTH 640 0
DWIDTH 16 0
BBX 13 18 2 0
BITMAP
1F80
3FE0
7FF0
F0F0
E070
E038
E038
E038
E038
E038
E038
E038
E038
E070
F0F0
7FF0
3FE0
1F80
ENDCHAR
STARTCHAR 0031
ENCODING 49
SWIDTH 440 0
DWIDTH 11 0
BBX 7 18 1 0
BITMAP
1E
7E
FE
FE
CE
0E
0E
0E
0E
0E
0E
0E
0E
0E
0E
0E
0E
0E
ENDCHAR
STARTCHAR 0032
ENCODING 50
SWIDTH 600 0
DWIDTH 15 0
BBX 13 18 1 0
BITMAP
0F80
3FE0
7FF0
78F0
F070
E078
0078
0070
00F0
01E0
03C0
0780
0F00
3E00
7C00
FFF8
FFF8
FFF8
ENDCHAR
STARTCHAR 0033
ENCODING 51
SWIDTH 600 0
DWIDTH 15 0
BBX 12 18 1 0
BITMAP
7FF0
7FF0
7FF0
01E0
03C0
0780
0F00
1FC0
0FE0
01E0
00F0
0070
0070
6070
F0F0
7FE0
3FC0
1F00
ENDCHAR
STARTCHAR 0034
ENCODING 52
SWIDTH 600 0
DWIDTH 15 0
BBX 13 18 1 0
BITMAP
0380
0780
0700
0F00
0E00
1E00
1C00
3C00
38E0
38E0
70E0
70E0
FFF8
FFF8
FFF8
00E0
00E0
00E0
ENDCHAR
STARTCHAR 0035
ENCODING 53
SWIDTH 600 0
DWIDTH 15 0
BBX 11 18 2 0
BITMAP
FFC0
FFC0
FFC0
E000
E000
E000
EE00
FF80
FFC0
E1E0
00E0
00E0
00E0
C0E0
E1E0
FFC0
7F80
1F00
ENDCHAR
STARTCHAR 0036
ENCODING 54
SWIDTH 640 0
DWIDTH 16 0
BBX 12 18 2 0
BITMAP
1F80
3FE0
7FC0
F080
E000
E000
E600
FFC0
FFE0
F0F0
E070
E070
E070
E070
F0F0
7FE0
3FC0
1F80
ENDCHAR
STARTCHAR 0037
ENCODING 55
SWIDTH 520 0
DWIDTH 13 0
BBX 11 18 1 0
BITMAP
FFE0
FFE0
FFE0
00E0
01C0
01C0
03C0
0380
0380
0700
0700
0F00
0E00
1E00
1C00
1C00
3C00
3800
ENDCHAR
STARTCHAR 0038
ENCODING 56
SWIDTH 600 0
DWIDTH 15 0
BBX 13 18 1 0
BITMAP
0F80
3FE0
3FF0
7870
7070
7070
78F0
3FF0
3FE0
7FF0
7870
7078
F038
7078
7870
7FF0
3FE0
0F80
ENDCHAR
STARTCHAR 0039
ENCODING 57
SWIDTH 640 0
DWIDTH 16 0
BBX 13 18 1 0
BITMAP
0F80
3FE0
7FF0
78F0
F078
E038
E038
F078
78F8
7FF8
3FF8
0638
0038
0078
10F0
3FF0
3FE0
1F80
ENDCHAR
STARTCHAR 003A
ENCODING 58
SWIDTH 360 0
DWIDTH 9 0
BBX 3 10 3 2
BITMAP
E0
E0
E0
00
00
00
00
E0
E0
E0
ENDCHAR
STARTCHAR 003B
ENCODING 59
SWIDTH 360 0
DWIDTH 9 0
BBX 3 17 3 -4
BITMAP
E0
E0
E0
00
00
00
00
00
00
00
00
E0
E0
E0
60
60
C0
ENDCHAR
STARTCHAR 003C
ENCODING 60
SWIDTH 640 0
DWIDTH 16 0
BBX 7 12 4 2
BITMAP
04
0E
1E
3C
78
F0
F0
78
3C
1E
0E
04
ENDCHAR
STARTCHAR 003D
ENCODING 61
SWIDTH 760 0
DWIDTH 19 0
BBX 13 6 3 6
BITMAP
FFF8
FFF8
0000
0000
FFF8
FFF8
ENDCHAR
STARTCHAR 003E
ENCODING 62
SWIDTH 640 0
DWIDTH 16 0
BBX 7 12 5 2
BITMAP
40
E0
F0
78
3C
1E
1E
3C
78
F0
E0
40
ENDCHAR
STARTCHAR 003F
ENCODING 63
SWIDTH 560 0
DWIDTH 14 0
BBX 12 18 1 0
BITMAP
1F80
3FC0
7FE0
70E0
E0F0
00F0
00E0
01E0
03C0
0780
0700
0E00
0E00
0000
0000
0E00
0E00
0E00
ENDCHAR
STARTCHAR 0040
ENCODING 64
SWIDTH 920 0
DWIDTH 23 0
BBX 19 18 2 -2
BITMAP
03F800
0FFE00
1F3F00
380380
7001C0
63FCC0
E7FCE0
E71CE0
E61CE0
E61CE0
E61CE0
E7BFC0
E3FFC0
71E780
780000
3C0000
1FF800
07F800
ENDCHAR
STARTCHAR 0041
ENCODING 65
SWIDTH 680 0
DWIDTH 17 0
BBX 15 18 1 0
BITMAP
07C0
07C0
0FC0
0EE0
0EE0
1EE0
1CF0
1C70
3C70
3878
3838
3FF8
7FFC
7FFC
701C
E01C
E00E
E00E
ENDCHAR
STARTCHAR 0042
ENCODING 66
SWIDTH 640 0
DWIDTH 16 0
BBX 13 18 2 0
BITMAP
FF80
FFE0
FFF0
E070
E070
E070
E070
FFE0
FFC0
FFF0
E070
E038
E038
E038
E078
FFF0
FFF0
FFC0
ENDCHAR
STARTCHAR 0043
ENCODING 67
SWIDTH 720 0
DWIDTH 18 0
BBX 16 18 1 0
BITMAP
07E0
1FF8
3FFE
7C1E
700F
F007
E000
E000
E000
E000
E000
E000
F007
700F
7C1E
3FFE
1FFC
07E0
ENDCHAR
STARTCHAR 0044
ENCODING 68
SWIDTH 720 0
DWIDTH 18 0
BBX 14 18 2 0
BITMAP
FF80
FFE0
FFF0
E078
E038
E03C
E01C
E01C
E01C
E01C
E01C
E01C
E03C
E038
E078
FFF0
FFE0
FF80
ENDCHAR
STARTCHAR 0045
ENCODING 69
SWIDTH 600 0
DWIDTH 15 0
BBX 11 18 2 0
BITMAP
FFE0
FFE0
FFE0
E000
E000
E000
E000
FFC0
FFC0
FFC0
E000
E000
E000
E000
E000
FFE0
FFE0
FFE0
ENDCHAR
STARTCHAR 0046
ENCODING 70
SWIDTH 520 0
DWIDTH 13 0
BBX 11 18 2 0
BITMAP
FFE0
FFE0
FFE0
E000
E000
E000
E000
E000
FF80
FF80
FF80
E000
E000
E000
E000
E000
E000
E000
ENDCHAR
STARTCHAR 0047
ENCODING 71
SWIDTH 720 0
DWIDTH 18 0
BBX 17 18 1 0
BITMAP
07E000
1FF800
3FFC00
7C1E00
700F00
F00700
E00000
E00000
E00000
E03F80
E03F00
E00700
F00700
700F00
7C1E00
3FFC00
1FF800
07E000
ENDCHAR
STARTCHAR 0048
ENCODING 72
SWIDTH 720 0
DWIDTH 18 0
BBX 14 18 2 0
BITMAP
E01C
E01C
E01C
E01C
E01C
E01C
E01C
FFFC
FFFC
FFFC
E01C
E01C
E01C
E01C
E01C
E01C
E01C
E01C
ENDCHAR
STARTCHAR 0049
ENCODING 73
SWIDTH 280 0
DWIDTH 7 0
BBX 3 18 2 0
BITMAP
E0
E0
E0
E0
E0
E0
E0
E0
E0
E0
E0
E0
E0
E0
E0
E0
E0
E0
ENDCHAR
STARTCHAR 004A
ENCODING 74
SWIDTH 520 0
DWIDTH 13 0
BBX 11 18 0 0
BITMAP
01E0
01E0
01E0
01E0
01E0
01E0
01E0
01E0
01E0
01E0
01E0
01E0
01E0
21C0
F1C0
7FC0
7F80
1F00
ENDCHAR
STARTCHAR 004B
ENCODING 75
SWIDTH 640 0
DWIDTH 16 0
BBX 14 18 2 0
BITMAP
E078
E070
E0E0
E1E0
E3C0
E780
EF00
FE00
FC00
FE00
EE00
EF00
E780
E3C0
E1E0
E0F0
E078
E03C
ENDCHAR
STARTCHAR 004C
ENCODING 76
SWIDTH 520 0
DWIDTH 13 0
BBX 11 18 2 0
BITMAP
E000
E000
E000
E000
E000
E000
E000
E000
E000
E000
E000
E000
E000
E000
E000
FFE0
FFE0
FFE0
ENDCHAR
STARTCHAR 004D
ENCODING 77
SWIDTH 840 0
DWIDTH 21 0
BBX 18 18 2 0
BITMAP
E001C0
E003C0
F003C0
F007C0
F807C0
F80FC0
FC0FC0
FC1DC0
EE1DC0
EE39C0
EF39C0
E771C0
E7F1C0
E3E1C0
E3E1C0
E1C1C0
E1C1C0
E0C1C0
ENDCHAR
STARTCHAR 004E
ENCODING 78
SWIDTH 720 0
DWIDTH 18 0
BBX 14 18 2 0
BITMAP
E01C
F01C
F01C
F81C
FC1C
FC1C
EE1C
EF1C
E71C
E39C
E3DC
E1DC
E1FC
E0FC
E07C
E07C
E03C
E01C
ENDCHAR
STARTCHAR 004F
ENCODING 79
SWIDTH 760 0
DWIDTH 19 0
BBX 17 18 1 0
BITMAP
07F000
1FF800
3FFE00
7C1E00
700F00
F00700
E00780
E00380
E00380
E00380
E00380
E00780
F00700
700F00
7C1E00
3FFE00
1FFC00
07F000
ENDCHAR
STARTCHAR 0050
ENCODING 80
SWIDTH 640 0
DWIDTH 16 0
BBX 13 18 2 0
BITMAP
FFC0
FFF0
FFF0
E078
E038
E038
E038
E038
E078
FFF0
FFE0
FFC0
E000
E000
E000
E000
E000
E000
ENDCHAR
STARTCHAR 0051
ENCODING 81
SWIDTH 760 0
DWIDTH 19 0
BBX 17 18 1 0
BITMAP
07F000
1FF800
3FFE00
7C1E00
700F00
F00700
E00780
E00380
E00380
E00380
E00380
E01780
F03F00
703F00
7C1E00
3FFF00
1FFF00
07E200
ENDCHAR
STARTCHAR 0052
ENCODING 82
SWIDTH 680 0
DWIDTH 17 0
BBX 13 18 2 0
BITMAP
FFC0
FFF0
FFF0
E078
E038
E038
E038
E038
E078
FFF0
FFE0
FFC0
E1E0
E0E0
E0F0
E070
E078
E038
ENDCHAR
STARTCHAR 0053
ENCODING 83
SWIDTH 640 0
DWIDTH 16 0
BBX 14 18 1 0
BITMAP
0FC0
3FF0
7FF8
783C
701C
7010
7800
7F00
3FF0
07F8
00FC
001C
E01C
F01C
783C
7FF8
3FF0
0FE0
ENDCHAR
STARTCHAR 0054
ENCODING 84
SWIDTH 600 0
DWIDTH 15 0
BBX 15 18 0 0
BITMAP
FFFE
FFFE
FFFE
0380
0380
0380
0380
0380
0380
0380
0380
0380
0380
0380
0380
0380
0380
0380
ENDCHAR
STARTCHAR 0055
ENCODING 85
SWIDTH 720 0
DWIDTH 18 0
BBX 14 18 2 0
BITMAP
E01C
E01C
E01C
E01C
E01C
E01C
E01C
E01C
E01C
E01C
E01C
E01C
E01C
F03C
7878
7FF8
3FF0
0FC0
ENDCHAR
STARTCHAR 0056
ENCODING 86
SWIDTH 640 0
DWIDTH 16 0
BBX 16 18 0 0
BITMAP
E007
700E
700E
700E
381C
381C
381C
3C3C
1C38
1C38
1E78
0E70
0E70
0EF0
07E0
07E0
07E0
03C0
ENDCHAR
STARTCHAR 0057
ENCODING 87
SWIDTH 960 0
DWIDTH 24 0
BBX 24 18 0 0
BITMAP
F03C07
703C07
703C0E
703E0E
387E0E
387E1C
38771C
3C771C
1CE71C
1CE738
1CE3B8
0FC3B8
0FC3F0
0FC1F0
07C1F0
0781F0
0781E0
0780E0
ENDCHAR
STARTCHAR 0058
ENCODING 88
SWIDTH 640 0
DWIDTH 16 0
BBX 15 18 1 0
BITMAP
E01E
F03C
7838
3878
3CF0
1EE0
0FE0
0FC0
0780
0780
0FC0
0FE0
1EE0
3CF0
3878
7838
F03C
E01E
ENDCHAR
STARTCHAR 0059
ENCODING 89
SWIDTH 600 0
DWIDTH 15 0
BBX 15 18 0 0
BITMAP
F01E
701C
783C
3C38
1C78
1E70
0EF0
0FE0
07C0
07C0
0380
0380
0380
0380
0380
0380
0380
0380
ENDCHAR
STARTCHAR 005A
ENCODING 90
SWIDTH 680 0
DWIDTH 17 0
BBX 14 18 1 0
BITMAP
7FFC
7FFC
7FF8
0078
00F0
01E0
01E0
03C0
03C0
0780
0F00
0F00
1E00
1E00
3C00
7FFC
7FFC
FFFC
ENDCHAR
STARTCHAR 005B
ENCODING 91
SWIDTH 440 0
DWIDTH 11 0
BBX 6 28 3 -5
BITMAP
FC
FC
FC
E0
E0
E0
E0
E0
E0
E0
E0
E0
E0
E0
E0
E0
E0
E0
E0
E0
E0
E0
E0
E0
E0
FC
FC
FC
ENDCHAR
STARTCHAR 005C
ENCODING 92
SWIDTH 440 0
DWIDTH 11 0
BBX 7 18 2 0
BITMAP
E0
E0
E0
E0
70
70
70
78
38
38
38
1C
1C
1C
1C
0E
0E
0E
ENDCHAR
STARTCHAR 005D
ENCODING 93
SWIDTH 440 0
DWIDTH 11 0
BBX 5 28 2 -5
BITMAP
F8
F8
F8
38
38
38
38
38
38
38
38
38
38
38
38
38
38
38
38
38
38
38
38
38
38
F8
F8
F8
ENDCHAR
STARTCHAR 005E
ENCODING 94
SWIDTH 680 0
DWIDTH 17 0
BBX 11 8 3 10
BITMAP
0400
0E00
1F00
3F80
7BC0
F1E0
E0E0
4040
ENDCHAR
STARTCHAR 005F
ENCODING 95
SWIDTH 680 0
DWIDTH 17 0
BBX 16 2 0 -3
BITMAP
FFFF
FFFF
ENDCHAR
STARTCHAR 0060
ENCODING 96
SWIDTH 520 0
DWIDTH 13 0
BBX 4 5 4 20
BITMAP
C0
60
60
70
30
ENDCHAR
STARTCHAR 0061
ENCODING 97
SWIDTH 560 0
DWIDTH 14 0
BBX 12 14 1 0
BITMAP
1F80
3FE0
7FE0
70F0
0070
0FF0
3FF0
7E70
F070
E070
E0F0
FBF0
7FF0
3E70
ENDCHAR
STARTCHAR 0062
ENCODING 98
SWIDTH 600 0
DWIDTH 15 0
BBX 12 18 2 0
BITMAP
E000
E000
E000
E000
EF80
FFC0
FFE0
F0F0
E070
C070
C070
C070
C070
E070
E0F0
FFE0
FFC0
CF80
ENDCHAR
STARTCHAR 0063
ENCODING 99
SWIDTH 560 0
DWIDTH 14 0
BBX 12 14 1 0
BITMAP
0F80
3FE0
7FF0
7870
F070
E000
E000
E000
E000
F060
7870
7FF0
3FE0
0F80
ENDCHAR
STARTCHAR 0064
ENCODING 100
SWIDTH 600 0
DWIDTH 15 0
BBX 13 18 1 0
BITMAP
0038
0038
0038
0038
0FB8
3FF8
7FF8
7078
F038
E038
E038
E038
E038
F038
7078
7FF8
3FF8
0FB8
ENDCHAR
STARTCHAR 0065
ENCODING 101
SWIDTH 600 0
DWIDTH 15 0
BBX 13 14 1 0
BITMAP
0F80
3FE0
7FF0
7070
F038
E038
FFF8
FFF8
E000
F000
7078
7FF0
3FE0
0FC0
ENDCHAR
STARTCHAR 0066
ENCODING 102
SWIDTH 360 0
DWIDTH 9 0
BBX 8 18 1 0
BITMAP
0F
1F
3C
38
FF
FF
38
38
38
38
38
38
38
38
38
38
38
38
ENDCHAR
STARTCHAR 0067
ENCODING 103
SWIDTH 600 0
DWIDTH 15 0
BBX 13 20 1 -6
BITMAP
0FB8
3FF8
7FF8
7078
F038
E038
E038
E038
E038
F038
7078
7FF8
3FF8
0FB8
0038
0078
3870
7FF0
3FE0
0FC0
ENDCHAR
STARTCHAR 0068
ENCODING 104
SWIDTH 640 0
DWIDTH 16 0
BBX 12 18 2 0
BITMAP
C000
C000
C000
C000
C780
DFC0
FFE0
F0F0
E0F0
E070
E070
E070
E070
E070
E070
E070
E070
E070
ENDCHAR
STARTCHAR 0069
ENCODING 105
SWIDTH 280 0
DWIDTH 7 0
BBX 3 18 2 0
BITMAP
E0
E0
E0
00
E0
E0
E0
E0
E0
E0
E0
E0
E0
E0
E0
E0
E0
E0
ENDCHAR
STARTCHAR 006A
ENCODING 106
SWIDTH 280 0
DWIDTH 7 0
BBX 5 24 0 -6
BITMAP
38
38
38
00
38
38
38
38
38
38
38
38
38
38
38
38
38
38
38
38
38
F8
F8
F0
ENDCHAR
STARTCHAR 006B
ENCODING 107
SWIDTH 520 0
DWIDTH 13 0
BBX 12 18 2 0
BITMAP
E000
E000
E000
E000
E1E0
E1C0
E3C0
E780
EF00
EE00
FE00
FE00
EE00
EF00
E780
E3C0
E1E0
E0F0
ENDCHAR
STARTCHAR 006C
ENCODING 108
SWIDTH 280 0
DWIDTH 7 0
BBX 3 18 2 0
BITMAP
E0
E0
E0
E0
E0
E0
E0
E0
E0
E0
E0
E0
E0
E0
E0
E0
E0
E0
ENDCHAR
STARTCHAR 006D
ENCODING 109
SWIDTH 880 0
DWIDTH 22 0
BBX 19 14 2 0
BITMAP
CF0F80
DFDFC0
FFFFC0
E1F1E0
E0E0E0
E0E0E0
E0E0E0
E0E0E0
E0E0E0
E0E0E0
E0E0E0
E0E0E0
E0E0E0
E0E0E0
ENDCHAR
STARTCHAR 006E
ENCODING 110
SWIDTH 640 0
DWIDTH 16 0
BBX 12 14 2 0
BITMAP
CF80
DFE0
FFE0
F0F0
E070
E070
E070
E070
E070
E070
E070
E070
E070
E070
ENDCHAR
STARTCHAR 006F
ENCODING 111
SWIDTH 600 0
DWIDTH 15 0
BBX 13 14 1 0
BITMAP
0F80
3FE0
7FF0
7878
F038
E038
E038
E038
E038
F038
7878
7FF0
3FE0
0F80
ENDCHAR
STARTCHAR 0070
ENCODING 112
SWIDTH 600 0
DWIDTH 15 0
BBX 12 20 2 -6
BITMAP
CF80
FFC0
FFE0
F0F0
E070
C070
C070
C070
C070
E070
E0F0
FFE0
FFC0
EF80
E000
E000
E000
E000
E000
E000
ENDCHAR
STARTCHAR 0071
ENCODING 113
SWIDTH 600 0
DWIDTH 15 0
BBX 13 20 1 -6
BITMAP
0FB8
3FF8
7FF8
7078
F038
E038
E038
E038
E038
F038
7078
7FF8
3FF8
0FB8
0038
0038
0038
0038
0038
0038
ENDCHAR
STARTCHAR 0072
ENCODING 114
SWIDTH 400 0
DWIDTH 10 0
BBX 7 14 2 0
BITMAP
CE
DE
FE
F0
E0
E0
E0
E0
E0
E0
E0
E0
E0
E0
ENDCHAR
STARTCHAR 0073
ENCODING 115
SWIDTH 560 0
DWIDTH 14 0
BBX 12 14 1 0
BITMAP
1F80
7FC0
7FE0
F0E0
F000
7C00
3F80
0FE0
01E0
20F0
F0E0
7FE0
7FC0
1F80
ENDCHAR
STARTCHAR 0074
ENCODING 116
SWIDTH 440 0
DWIDTH 11 0
BBX 10 18 0 0
BITMAP
1C00
1C00
1C00
1C00
FFC0
FFC0
1C00
1C00
1C00
1C00
1C00
1C00
1C00
1C00
1C00
1FC0
1FC0
07C0
ENDCHAR
STARTCHAR 0075
ENCODING 117
SWIDTH 640 0
DWIDTH 16 0
BBX 13 14 1 0
BITMAP
F038
F038
F038
F038
F038
F038
F038
F038
F038
7078
7878
7FF8
3FF8
1F38
ENDCHAR
STARTCHAR 0076
ENCODING 118
SWIDTH 560 0
DWIDTH 14 0
BBX 12 14 1 0
BITMAP
E070
E070
E0E0
70E0
70E0
71C0
39C0
39C0
3B80
1F80
1F80
1F00
0F00
0F00
ENDCHAR
STARTCHAR 0077
ENCODING 119
SWIDTH 800 0
DWIDTH 20 0
BBX 18 14 1 0
BITMAP
E0C1C0
E1E1C0
E1E1C0
E1E1C0
73F380
73F380
733380
3B3F00
3F3F00
3E1F00
1E1E00
1E1E00
1C0E00
1C0E00
ENDCHAR
STARTCHAR 0078
ENCODING 120
SWIDTH 560 0
DWIDTH 14 0
BBX 12 14 1 0
BITMAP
E070
F0E0
79E0
39C0
3F80
1F80
0F00
0F00
1F80
3F80
39C0
71E0
F0F0
E070
ENDCHAR
STARTCHAR 0079
ENCODING 121
SWIDTH 560 0
DWIDTH 14 0
BBX 14 20 0 -6
BITMAP
F01C
7038
7038
3838
3870
1C70
1CE0
1CE0
0EE0
0FC0
07C0
0780
0780
0380
0700
0700
0700
0E00
0E00
0C00
ENDCHAR
STARTCHAR 007A
ENCODING 122
SWIDTH 520 0
DWIDTH 13 0
BBX 11 14 1 0
BITMAP
FFE0
FFE0
FFC0
0380
0780
0700
0E00
1E00
1C00
3800
7800
7FE0
FFE0
FFE0
ENDCHAR
STARTCHAR 007B
ENCODING 123
SWIDTH 440 0
DWIDTH 11 0
BBX 6 28 4 -5
BITMAP
1C
3C
7C
70
70
70
70
70
70
70
70
70
F0
E0
E0
F0
70
70
70
70
70
70
70
70
70
7C
7C
1C
ENDCHAR
STARTCHAR 007C
ENCODING 124
SWIDTH 320 0
DWIDTH 8 0
BBX 3 18 2 0
BITMAP
E0
E0
E0
E0
E0
E0
E0
E0
E0
E0
E0
E0
E0
E0
E0
E0
E0
E0
ENDCHAR
STARTCHAR 007D
ENCODING 125
SWIDTH 440 0
DWIDTH 11 0
BBX 7 28 1 -5
BITMAP
E0
F8
F8
38
38
38
38
38
38
38
38
38
1C
1E
1E
1C
38
38
38
38
38
38
38
38
38
F8
F8
F0
ENDCHAR
STARTCHAR 007E
ENCODING 126
SWIDTH 720 0
DWIDTH 18 0
BBX 12 6 3 5
BITMAP
7800
FC70
FF70
EFF0
E7F0
01E0
ENDCHAR
STARTCHAR 00A0
ENCODING 160
SWIDTH 200 0
DWIDTH 5 0
BBX 0 0 0 0
BITMAP
ENDCHAR
STARTCHAR 00A1
ENCODING 161
SWIDTH 360 0
DWIDTH 9 0
BBX 3 18 3 -4
BITMAP
E0
E0
E0
00
E0
E0
E0
E0
E0
E0
E0
E0
E0
E0
E0
E0
E0
E0
ENDCHAR
STARTCHAR 00A2
ENCODING 162
SWIDTH 560 0
DWIDTH 14 0
BBX 13 19 1 -1
BITMAP
0300
0300
0700
1FE0
3FF0
78F0
F078
E000
E000
E000
E000
F000
7078
7CF0
3FE0
1FC0
0300
0300
0300
ENDCHAR
STARTCHAR 00A3
ENCODING 163
SWIDTH 560 0
DWIDTH 14 0
BBX 12 18 1 0
BITMAP
0780
1FE0
1FE0
3C70
3870
3800
3800
3800
FF80
FF80
FF80
3800
3800
3800
3800
FFE0
FFE0
FFE0
ENDCHAR
STARTCHAR 00A4
ENCODING 164
SWIDTH 680 0
DWIDTH 17 0
BBX 15 14 1 2
BITMAP
630C
FFFE
7FFC
3878
7038
701C
601C
601C
701C
7038
3878
7FFC
FFFE
630C
ENDCHAR
STARTCHAR 00A5
ENCODING 165
SWIDTH 600 0
DWIDTH 15 0
BBX 15 18 0 0
BITMAP
F01E
701C
783C
3C38
1C78
1E70
0EF0
0FE0
07C0
1FF8
1FF8
0380
0380
1FF8
1FF8
0380
0380
0380
ENDCHAR
STARTCHAR 00A6
ENCODING 166
SWIDTH 320 0
DWIDTH 8 0
BBX 3 23 2 -5
BITMAP
E0
E0
E0
E0
E0
E0
E0
E0
E0
E0
00
00
00
E0
E0
E0
E0
E0
E0
E0
E0
E0
E0
ENDCHAR
STARTCHAR 00A7
ENCODING 167
SWIDTH 560 0
DWIDTH 14 0
BBX 12 21 1 -4
BITMAP
0600
3F80
7FC0
71C0
F0C0
7000
7F00
3FC0
7FE0
E0F0
E0F0
F0E0
7FE0
3FC0
07E0
00E0
F0E0
70E0
7FE0
3FC0
0700
ENDCHAR
STARTCHAR 00A8
ENCODING 168
SWIDTH 560 0
DWIDTH 14 0
BBX 8 3 3 20
BITMAP
E7
E7
E7
ENDCHAR
STARTCHAR 00A9
ENCODING 169
SWIDTH 880 0
DWIDTH 22 0
BBX 20 21 1 -2
BITMAP
01F800
07FE00
1FFF80
3E07C0
7801E0
70F8E0
F1FC70
E38E70
E70870
E70030
E70030
E70070
E38E70
E1FC70
70F8E0
7801E0
3C03C0
1F0780
0FFF00
07FE00
00F800
ENDCHAR
STARTCHAR 00AA
ENCODING 170
SWIDTH 320 0
DWIDTH 8 0
BBX 6 7 1 7
BITMAP
78
FC
0C
7C
CC
CC
74
ENDCHAR
STARTCHAR 00AB
ENCODING 171
SWIDTH 600 0
DWIDTH 15 0
BBX 11 11 2 1
BITMAP
0840
1CE0
39C0
3180
6300
E700
6380
3180
39C0
1CE0
0840
ENDCHAR
STARTCHAR 00AC
ENCODING 172
SWIDTH 600 0
DWIDTH 15 0
BBX 12 5 1 5
BITMAP
FFF0
FFF0
0030
0030
0030
ENDCHAR
STARTCHAR 00AD
ENCODING 173
SWIDTH 440 0
DWIDTH 11 0
BBX 8 2 1 7
BITMAP
FF
FF
ENDCHAR
STARTCHAR 00AE
ENCODING 174
SWIDTH 640 0
DWIDTH 16 0
BBX 13 13 2 7
BITMAP
0F00
3FC0
70E0
6070
CF30
C9B0
C998
CF18
C930
E9B0
70E0
3FC0
0F80
ENDCHAR
STARTCHAR 00AF
ENCODING 175
SWIDTH 520 0
DWIDTH 13 0
BBX 7 2 3 21
BITMAP
FE
FE
ENDCHAR
STARTCHAR 00B0
ENCODING 176
SWIDTH 440 0
DWIDTH 11 0
BBX 9 9 1 9
BITMAP
3C00
7F00
FF00
E380
C380
E380
FF00
7F00
3C00
ENDCHAR
STARTCHAR 00B1
ENCODING 177
SWIDTH 600 0
DWIDTH 15 0
BBX 12 12 1 2
BITMAP
0700
0700
0700
FFF0
FFF0
0700
0700
0700
0000
0000
FFF0
FFF0
ENDCHAR
STARTCHAR 00B2
ENCODING 178
SWIDTH 400 0
DWIDTH 10 0
BBX 8 11 1 7
BITMAP
3C
7E
E3
C3
03
06
0C
38
70
FF
FF
ENDCHAR
STARTCHAR 00B3
ENCODING 179
SWIDTH 400 0
DWIDTH 10 0
BBX 8 11 1 7
BITMAP
FE
FE
0E
1C
3C
1E
07
03
C6
7E
3C
ENDCHAR
STARTCHAR 00B4
ENCODING 180
SWIDTH 520 0
DWIDTH 13 0
BBX 4 5 5 20
BITMAP
30
30
70
60
E0
ENDCHAR
STARTCHAR 00B5
ENCODING 181
SWIDTH 640 0
DWIDTH 16 0
BBX 12 20 2 -6
BITMAP
E070
E070
E070
E070
E070
E070
E070
E070
E070
E070
F0F0
FFF0
FFF0
DF70
C000
C000
C000
C000
C000
C000
ENDCHAR
STARTCHAR 00B6
ENCODING 182
SWIDTH 720 0
DWIDTH 18 0
BBX 16 22 1 -4
BITMAP
1FC7
3FC7
7FC7
7FC7
FFC7
FFC7
FFC7
FFC7
7FC7
7FC7
3FC7
0FC7
01C7
01C7
01C7
01C7
01C7
01C7
01C7
01C7
01C7
01C7
ENDCHAR
STARTCHAR 00B7
ENCODING 183
SWIDTH 280 0
DWIDTH 7 0
BBX 4 4 1 6
BITMAP
20
70
F0
70
ENDCHAR
STARTCHAR 00B8
ENCODING 184
SWIDTH 400 0
DWIDTH 10 0
BBX 4 6 3 -6
BITMAP
60
60
70
30
F0
E0
ENDCHAR
STARTCHAR 00B9
ENCODING 185
SWIDTH 360 0
DWIDTH 9 0
BBX 5 11 1 7
BITMAP
38
F8
D8
18
18
18
18
18
18
18
18
ENDCHAR
STARTCHAR 00BA
ENCODING 186
SWIDTH 360 0
DWIDTH 9 0
BBX 7 7 1 7
BITMAP
78
FC
C6
C6
C6
FC
78
ENDCHAR
STARTCHAR 00BB
ENCODING 187
SWIDTH 600 0
DWIDTH 15 0
BBX 11 11 2 1
BITMAP
C200
C700
6300
7380
39C0
1CE0
39C0
7380
6300
C600
C200
ENDCHAR
STARTCHAR 00BC
ENCODING 188
SWIDTH 1040 0
DWIDTH 26 0
BBX 22 18 1 0
BITMAP
380080
F801C0
D80380
180700
180600
180E00
181C00
181860
183860
1870C0
18E0C0
00C198
01C198
038318
0703FC
0603FC
0E0018
040018
ENDCHAR
STARTCHAR 00BD
ENCODING 189
SWIDTH 1000 0
DWIDTH 25 0
BBX 23 18 1 0
BITMAP
380080
F801C0
D80380
180300
180600
180E00
181C38
1818FC
1830CE
187186
18E006
00C00E
01C01C
038038
070070
0600E0
0E01FE
0401FE
ENDCHAR
STARTCHAR 00BE
ENCODING 190
SWIDTH 1040 0
DWIDTH 26 0
BBX 23 18 1 0
BITMAP
FE0040
FE00E0
0E00C0
1C01C0
3C0380
1E0700
070618
030E38
C61C30
7E1870
3C3860
0070EC
00E0CC
00C0CC
01C1FE
0381FE
07000C
02000C
ENDCHAR
STARTCHAR 00BF
ENCODING 191
SWIDTH 560 0
DWIDTH 14 0
BBX 11 19 1 -5
BITMAP
0700
0700
0700
0000
0000
0700
0F00
0E00
1E00
3C00
7800
7000
F000
E000
F0E0
70E0
7FE0
3FC0
0F00
ENDCHAR
STARTCHAR 00C0
ENCODING 192
SWIDTH 680 0
DWIDTH 17 0
BBX 15 25 1 0
BITMAP
0C00
0E00
0600
0700
0300
0000
0000
07C0
07C0
0FC0
0EE0
0EE0
1EE0
1C70
1C70
3C70
3878
3838
3FF8
7FFC
7FFC
701C
E01C
E00E
E00E
ENDCHAR
STARTCHAR 00C1
ENCODING 193
SWIDTH 680 0
DWIDTH 17 0
BBX 15 25 1 0
BITMAP
00E0
00C0
00C0
0180
0180
0000
0000
07C0
07C0
0FC0
0EE0
0EE0
1EE0
1CF0
1C70
3C70
3878
3838
3FF8
7FFC
7FFC
701C
E01C
E00E
E00E
ENDCHAR
STARTCHAR 00C2
ENCODING 194
SWIDTH 680 0
DWIDTH 17 0
BBX 15 24 1 0
BITMAP
0380
07C0
0EE0
1C70
0000
0000
07C0
07C0
0FC0
0EE0
0EE0
1EE0
1CF0
1C70
3C70
3878
3838
3FF8
7FFC
7FFC
701C
E01C
E00E
E00E
ENDCHAR
STARTCHAR 00C3
ENCODING 195
SWIDTH 680 0
DWIDTH 17 0
BBX 15 24 1 0
BITMAP
0E30
1FF0
19E0
0000
0000
0000
07C0
07C0
0FC0
0EE0
0EE0
1EE0
1CF0
1C70
3C70
3878
3838
3FF8
7FFC
7FFC
701C
E01C
E00E
E00E
ENDCHAR
STARTCHAR 00C4
ENCODING 196
SWIDTH 680 0
DWIDTH 17 0
BBX 15 23 1 0
BITMAP
1C60
1C60
1C60
0000
0000
07C0
07C0
0FC0
0EE0
0EE0
1EE0
1CF0
1C70
3C70
3878
3838
3FF8
7FFC
7FFC
701C
E01C
E00E
E00E
ENDCHAR
STARTCHAR 00C5
ENCODING 197
SWIDTH 680 0
DWIDTH 17 0
BBX 15 26 1 0
BITMAP
0380
07C0
0CC0
0C60
0CC0
07C0
0380
0000
07C0
07C0
0FC0
0EE0
0EE0
1EE0
1CF0
1C70
3C70
3878
3838
3FF8
7FFC
7FFC
701C
E01C
E00E
E00E
ENDCHAR
STARTCHAR 00C6
ENCODING 198
SWIDTH 920 0
DWIDTH 23 0
BBX 21 18 1 0
BITMAP
07FFF8
07FFF8
0FFFF8
0E3800
0E3800
1E3800
1C3800
1C3FF0
3C3FF0
383FF0
383800
3FF800
7FF800
7FF800
703800
E03FF8
E03FF8
E03FF8
ENDCHAR
STARTCHAR 00C7
ENCODING 199
SWIDTH 720 0
DWIDTH 18 0
BBX 16 24 1 -6
BITMAP
07E0
1FF8
3FFE
7C1E
700F
F007
E000
E000
E000
E000
E000
E000
F007
700F
781F
3FFE
1FFC
07F0
0180
01C0
00E0
00E0
01C0
03C0
ENDCHAR
STARTCHAR 00C8
ENCODING 200
SWIDTH 600 0
DWIDTH 15 0
BBX 11 25 2 0
BITMAP
1800
1800
0C00
0C00
0E00
0000
0000
FFE0
FFE0
FFE0
E000
E000
E000
E000
FFC0
FFC0
FFC0
E000
E000
E000
E000
E000
FFE0
FFE0
FFE0
ENDCHAR
STARTCHAR 00C9
ENCODING 201
SWIDTH 600 0
DWIDTH 15 0
BBX 11 25 2 0
BITMAP
0180
0380
0300
0700
0600
0000
0000
FFE0
FFE0
FFE0
E000
E000
E000
E000
FFC0
FFC0
FFC0
E000
E000
E000
E000
E000
FFE0
FFE0
FFE0
ENDCHAR
STARTCHAR 00CA
ENCODING 202
SWIDTH 600 0
DWIDTH 15 0
BBX 11 24 2 0
BITMAP
0E00
1F00
3B80
71C0
0000
0000
FFE0
FFE0
FFE0
E000
E000
E000
E000
FFC0
FFC0
FFC0
E000
E000
E000
E000
E000
FFE0
FFE0
FFE0
ENDCHAR
STARTCHAR 00CB
ENCODING 203
SWIDTH 600 0
DWIDTH 15 0
BBX 11 23 2 0
BITMAP
3180
3180
3180
0000
0000
FFE0
FFE0
FFE0
E000
E000
E000
E000
FFC0
FFC0
FFC0
E000
E000
E000
E000
E000
FFE0
FFE0
FFE0
ENDCHAR
STARTCHAR 00CC
ENCODING 204
SWIDTH 280 0
DWIDTH 7 0
BBX 5 25 0 0
BITMAP
E0
60
70
30
30
00
00
38
38
38
38
38
38
38
38
38
38
38
38
38
38
38
38
38
38
ENDCHAR
STARTCHAR 00CD
ENCODING 205
SWIDTH 280 0
DWIDTH 7 0
BBX 5 25 2 0
BITMAP
38
30
70
60
60
00
00
E0
E0
E0
E0
E0
E0
E0
E0
E0
E0
E0
E0
E0
E0
E0
E0
E0
E0
ENDCHAR
STARTCHAR 00CE
ENCODING 206
SWIDTH 280 0
DWIDTH 7 0
BBX 9 24 -1 0
BITMAP
1C00
3E00
7700
E380
0000
0000
1C00
1C00
1C00
1C00
1C00
1C00
1C00
1C00
1C00
1C00
1C00
1C00
1C00
1C00
1C00
1C00
1C00
1C00
ENDCHAR
STARTCHAR 00CF
ENCODING 207
SWIDTH 280 0
DWIDTH 7 0
BBX 7 23 0 0
BITMAP
C6
C6
C6
00
00
38
38
38
38
38
38
38
38
38
38
38
38
38
38
38
38
38
38
ENDCHAR
STARTCHAR 00D0
ENCODING 208
SWIDTH 720 0
DWIDTH 18 0
BBX 16 18 0 0
BITMAP
3FE0
3FF8
3FFC
381E
380E
380F
3807
3807
FF87
FF87
3807
3807
380F
380E
381E
3FFC
3FF8
3FE0
ENDCHAR
STARTCHAR 00D1
ENCODING 209
SWIDTH 720 0
DWIDTH 18 0
BBX 14 24 2 0
BITMAP
0E30
1F70
1BE0
18E0
0000
0000
E01C
F01C
F01C
F81C
FC1C
FC1C
EE1C
EF1C
E71C
E39C
E3DC
E1DC
E1FC
E0FC
E07C
E07C
E03C
E01C
ENDCHAR
STARTCHAR 00D2
ENCODING 210
SWIDTH 760 0
DWIDTH 19 0
BBX 17 24 1 0
BITMAP
070000
030000
030000
018000
000000
000000
07F000
1FF800
3FFE00
7C1E00
700F00
F00700
E00780
E00380
E00380
E00380
E00380
E00780
F00700
700F00
7C1E00
3FFE00
1FFC00
07F000
ENDCHAR
STARTCHAR 00D3
ENCODING 211
SWIDTH 760 0
DWIDTH 19 0
BBX 17 24 1 0
BITMAP
006000
006000
00C000
00C000
000000
000000
07F000
1FF800
3FFE00
7C1E00
700F00
F00700
E00780
E00380
E00380
E00380
E00380
E00780
F00700
700F00
7C1E00
3FFE00
1FFC00
07F000
ENDCHAR
STARTCHAR 00D4
ENCODING 212
SWIDTH 760 0
DWIDTH 19 0
BBX 17 24 1 0
BITMAP
01C000
03E000
077000
0E3800
000000
000000
07F000
1FF800
3FFE00
7C1E00
700F00
F00700
E00780
E00380
E00380
E00380
E00380
E00780
F00700
700F00
7C1E00
3FFE00
1FFC00
07F000
ENDCHAR
STARTCHAR 00D5
ENCODING 213
SWIDTH 760 0
DWIDTH 19 0
BBX 17 23 1 0
BITMAP
071800
0FF800
0C7000
000000
000000
07F000
1FF800
3FFE00
7C1E00
700F00
F00700
E00780
E00380
E00380
E00380
E00380
E00780
F00700
700F00
7C1E00
3FFE00
1FFC00
07F000
ENDCHAR
STARTCHAR 00D6
ENCODING 214
SWIDTH 760 0
DWIDTH 19 0
BBX 17 23 1 0
BITMAP
0E3000
0E3000
0E3000
000000
000000
07F000
1FF800
3FFE00
7C1E00
700F00
F00700
E00780
E00380
E00380
E00380
E00380
E00780
F00700
700F00
7C1E00
3FFE00
1FFC00
07F000
ENDCHAR
STARTCHAR 00D7
ENCODING 215
SWIDTH 520 0
DWIDTH 13 0
BBX 9 10 2 4
BITMAP
4100
E380
F700
7E00
3C00
3E00
7F00
E780
C380
0100
ENDCHAR
STARTCHAR 00D8
ENCODING 216
SWIDTH 760 0
DWIDTH 19 0
BBX 17 18 1 0
BITMAP
07F300
1FFF80
3FFF00
7C1F00
701F00
F03F00
E07F80
E0F380
E1E380
E3C380
E78380
EF0780
FE0700
7C0F00
7C1E00
7FFE00
FFFC00
27F000
ENDCHAR
STARTCHAR 00D9
ENCODING 217
SWIDTH 720 0
DWIDTH 18 0
BBX 14 25 2 0
BITMAP
0C00
0600
0600
0700
0300
0000
0000
E01C
E01C
E01C
E01C
E01C
E01C
E01C
E01C
E01C
E01C
E01C
E01C
E01C
F03C
7878
7FF8
3FF0
0FC0
ENDCHAR
STARTCHAR 00DA
ENCODING 218
SWIDTH 720 0
DWIDTH 18 0
BBX 14 25 2 0
BITMAP
00C0
01C0
0180
0380
0300
0000
0000
E01C
E01C
E01C
E01C
E01C
E01C
E01C
E01C
E01C
E01C
E01C
E01C
E01C
F03C
7878
7FF8
3FF0
0FC0
ENDCHAR
STARTCHAR 00DB
ENCODING 219
SWIDTH 720 0
DWIDTH 18 0
BBX 14 24 2 0
BITMAP
0780
0F80
0CC0
1CE0
0000
0000
E01C
E01C
E01C
E01C
E01C
E01C
E01C
E01C
E01C
E01C
E01C
E01C
E01C
F03C
7878
7FF8
3FF0
0FC0
ENDCHAR
STARTCHAR 00DC
ENCODING 220
SWIDTH 720 0
DWIDTH 18 0
BBX 14 23 2 0
BITMAP
1CE0
1CE0
1CE0
0000
0000
E01C
E01C
E01C
E01C
E01C
E01C
E01C
E01C
E01C
E01C
E01C
E01C
E01C
F03C
7878
7FF8
3FF0
0FC0
ENDCHAR
STARTCHAR 00DD
ENCODING 221
SWIDTH 600 0
DWIDTH 15 0
BBX 15 25 0 0
BITMAP
00E0
00C0
01C0
0180
0180
0000
0000
F01E
701C
783C
3C38
1C78
1E70
0EF0
0FE0
07C0
07C0
0380
0380
0380
0380
0380
0380
0380
0380
ENDCHAR
STARTCHAR 00DE
ENCODING 222
SWIDTH 640 0
DWIDTH 16 0
BBX 13 18 2 0
BITMAP
E000
E000
E000
FF80
FFE0
FFF0
E070
E078
E038
E038
E038
E070
FFF0
FFE0
FF80
E000
E000
E000
ENDCHAR
STARTCHAR 00DF
ENCODING 223
SWIDTH 640 0
DWIDTH 16 0
BBX 12 18 2 0
BITMAP
1F00
7F80
FFC0
E1E0
E0E0
E0E0
E1E0
E7C0
E7C0
E7E0
E0F0
E070
E070
E070
E0F0
EFF0
EFE0
EF80
ENDCHAR
STARTCHAR 00E0
ENCODING 224
SWIDTH 560 0
DWIDTH 14 0
BBX 12 20 1 0
BITMAP
1C00
0C00
0E00
0600
0600
0000
1F80
3FE0
7FE0
70F0
0070
0FF0
3FF0
7E70
F070
E070
E0F0
FBF0
7FF0
3E70
ENDCHAR
STARTCHAR 00E1
ENCODING 225
SWIDTH 560 0
DWIDTH 14 0
BBX 12 20 1 0
BITMAP
0180
0180
0300
0300
0700
0000
1F80
3FE0
7FE0
70F0
0070
0FF0
3FF0
7E70
F070
E070
E0F0
FBF0
7FF0
3E70
ENDCHAR
STARTCHAR 00E2
ENCODING 226
SWIDTH 560 0
DWIDTH 14 0
BBX 12 20 1 0
BITMAP
0700
0F80
1DC0
38E0
0000
0000
1F80
3FE0
7FE0
70F0
0070
0FF0
3FF0
7E70
F070
E070
E0F0
FBF0
7FF0
3E70
ENDCHAR
STARTCHAR 00E3
ENCODING 227
SWIDTH 560 0
DWIDTH 14 0
BBX 12 19 1 0
BITMAP
1C60
3FE0
31C0
0000
0000
1F80
3FE0
7FE0
70F0
0070
0FF0
3FF0
7E70
F070
E070
E0F0
FBF0
7FF0
3E70
ENDCHAR
STARTCHAR 00E4
ENCODING 228
SWIDTH 560 0
DWIDTH 14 0
BBX 12 18 1 0
BITMAP
38C0
38C0
38C0
0000
1F80
3FE0
7FE0
70F0
0070
0FF0
3FF0
7E70
F070
E070
E0F0
FBF0
7FF0
3E70
ENDCHAR
STARTCHAR 00E5
ENCODING 229
SWIDTH 560 0
DWIDTH 14 0
BBX 12 22 1 0
BITMAP
0700
0F80
1980
18C0
1980
0F80
0700
0000
1F80
3FE0
7FE0
70F0
0070
0FF0
3FF0
7E70
F070
E070
E0F0
FBF0
7FF0
3E70
ENDCHAR
STARTCHAR 00E6
ENCODING 230
SWIDTH 920 0
DWIDTH 23 0
BBX 21 14 1 0
BITMAP
0F87C0
3FFFE0
7FFFF0
70F838
007838
007038
1FFFF8
7FFFF8
F07000
E07820
E0F878
FBFFF8
7F9FF0
3E07C0
ENDCHAR
STARTCHAR 00E7
ENCODING 231
SWIDTH 560 0
DWIDTH 14 0
BBX 12 20 1 -6
BITMAP
0F80
3FE0
7FF0
7870
F070
E000
E000
E000
E000
F060
7070
7FF0
3FE0
0FC0
0200
0700
0380
0180
0780
0F00
ENDCHAR
STARTCHAR 00E8
ENCODING 232
SWIDTH 600 0
DWIDTH 15 0
BBX 13 20 1 0
BITMAP
0C00
0E00
0600
0600
0000
0000
0F80
3FE0
7FF0
7070
F038
E038
FFF8
FFF8
E000
F000
7078
7FF0
3FE0
0FC0
ENDCHAR
STARTCHAR 00E9
ENCODING 233
SWIDTH 600 0
DWIDTH 15 0
BBX 13 20 1 0
BITMAP
01C0
0180
0180
0380
0000
0000
0F80
3FE0
7FF0
7070
F038
E038
FFF8
FFF8
E000
F000
7078
7FF0
3FE0
0FC0
ENDCHAR
STARTCHAR 00EA
ENCODING 234
SWIDTH 600 0
DWIDTH 15 0
BBX 13 20 1 0
BITMAP
0700
0F80
1DC0
38E0
0000
0000
0F80
3FE0
7FF0
7070
F038
E038
FFF8
FFF8
E000
F000
7078
7FF0
3FE0
0FC0
ENDCHAR
STARTCHAR 00EB
ENCODING 235
SWIDTH 600 0
DWIDTH 15 0
BBX 13 18 1 0
BITMAP
1CE0
1CE0
1CE0
0000
0F80
3FE0
7FF0
7070
F038
E038
FFF8
FFF8
E000
F000
7078
7FF0
3FE0
0FC0
ENDCHAR
STARTCHAR 00EC
ENCODING 236
SWIDTH 280 0
DWIDTH 7 0
BBX 5 21 0 0
BITMAP
E0
60
70
30
30
00
00
38
38
38
38
38
38
38
38
38
38
38
38
38
38
ENDCHAR
STARTCHAR 00ED
ENCODING 237
SWIDTH 280 0
DWIDTH 7 0
BBX 5 21 2 0
BITMAP
38
30
70
60
60
00
00
E0
E0
E0
E0
E0
E0
E0
E0
E0
E0
E0
E0
E0
E0
ENDCHAR
STARTCHAR 00EE
ENCODING 238
SWIDTH 280 0
DWIDTH 7 0
BBX 9 20 -1 0
BITMAP
1C00
3E00
7700
E380
0000
0000
1C00
1C00
1C00
1C00
1C00
1C00
1C00
1C00
1C00
1C00
1C00
1C00
1C00
1C00
ENDCHAR
STARTCHAR 00EF
ENCODING 239
SWIDTH 280 0
DWIDTH 7 0
BBX 7 18 0 0
BITMAP
C6
C6
C6
00
38
38
38
38
38
38
38
38
38
38
38
38
38
38
ENDCHAR
STARTCHAR 00F0
ENCODING 240
SWIDTH 600 0
DWIDTH 15 0
BBX 13 19 1 0
BITMAP
06C0
0FE0
0FC0
03E0
0370
0070
0FB0
3FF8
7FF8
7078
E078
E038
E038
E038
E078
7070
7FF0
3FE0
0F80
ENDCHAR
STARTCHAR 00F1
ENCODING 241
SWIDTH 640 0
DWIDTH 16 0
BBX 12 19 2 0
BITMAP
3CC0
7FC0
63C0
0000
0000
0780
DFC0
FFE0
F0F0
E0F0
E070
E070
E070
E070
E070
E070
E070
E070
E070
ENDCHAR
STARTCHAR 00F2
ENCODING 242
SWIDTH 600 0
DWIDTH 15 0
BBX 13 20 1 0
BITMAP
0C00
0E00
0600
0600
0000
0000
0F80
3FE0
7FF0
7878
F038
E038
E038
E038
E038
F038
7878
7FF0
3FE0
0F80
ENDCHAR
STARTCHAR 00F3
ENCODING 243
SWIDTH 600 0
DWIDTH 15 0
BBX 13 20 1 0
BITMAP
01C0
0180
0380
0300
0000
0000
0F80
3FE0
7FF0
7878
F038
E038
E038
E038
E038
F038
7878
7FF0
3FE0
0F80
ENDCHAR
STARTCHAR 00F4
ENCODING 244
SWIDTH 600 0
DWIDTH 15 0
BBX 13 20 1 0
BITMAP
0700
0F80
1DC0
38E0
0000
0000
0F80
3FE0
7FF0
7878
F038
E038
E038
E038
E038
F038
7878
7FF0
3FE0
0F80
ENDCHAR
STARTCHAR 00F5
ENCODING 245
SWIDTH 600 0
DWIDTH 15 0
BBX 13 19 1 0
BITMAP
1E60
3FE0
31E0
0000
0000
0F80
3FE0
7FF0
7878
F038
E038
E038
E038
E038
F038
7878
7FF0
3FE0
0F80
ENDCHAR
STARTCHAR 00F6
ENCODING 246
SWIDTH 600 0
DWIDTH 15 0
BBX 13 18 1 0
BITMAP
1CE0
1CE0
1CE0
0000
0F80
3FE0
7FF0
7878
F038
E038
E038
E038
E038
F038
7878
7FF0
3FE0
0F80
ENDCHAR
STARTCHAR 00F7
ENCODING 247
SWIDTH 560 0
DWIDTH 14 0
BBX 11 10 1 4
BITMAP
0E00
0E00
0E00
0000
FFE0
FFE0
0000
0E00
0E00
0E00
ENDCHAR
STARTCHAR 00F8
ENCODING 248
SWIDTH 600 0
DWIDTH 15 0
BBX 13 14 1 0
BITMAP
0F90
3FF8
7FF8
7878
F0F8
E1F8
E3B8
E738
EE38
FC38
7878
FFF0
FFE0
4F80
ENDCHAR
STARTCHAR 00F9
ENCODING 249
SWIDTH 640 0
DWIDTH 16 0
BBX 13 21 1 0
BITMAP
0C00
0C00
0E00
0600
0700
0000
0000
F038
F038
F038
F038
F038
F038
F038
F038
F038
7078
7878
7FF8
3FF8
1F38
ENDCHAR
STARTCHAR 00FA
ENCODING 250
SWIDTH 640 0
DWIDTH 16 0
BBX 13 21 1 0
BITMAP
01C0
0180
0380
0300
0300
0000
0000
F038
F038
F038
F038
F038
F038
F038
F038
F038
7078
7878
7FF8
3FF8
1F38
ENDCHAR
STARTCHAR 00FB
ENCODING 251
SWIDTH 640 0
DWIDTH 16 0
BBX 13 20 1 0
BITMAP
0700
0F80
1DC0
38E0
0000
0000
F038
F038
F038
F038
F038
F038
F038
F038
F038
7078
7878
7FF8
3FF8
1F38
ENDCHAR
STARTCHAR 00FC
ENCODING 252
SWIDTH 640 0
DWIDTH 16 0
BBX 13 18 1 0
BITMAP
18E0
18E0
18E0
0000
F038
F038
F038
F038
F038
F038
F038
F038
F038
7078
7878
7FF8
3FF8
1F38
ENDCHAR
STARTCHAR 00FD
ENCODING 253
SWIDTH 560 0
DWIDTH 14 0
BBX 14 27 0 -6
BITMAP
00C0
01C0
0180
0180
0380
0000
0000
F01C
7038
7038
3838
3870
1C70
1CE0
1CE0
0EE0
0FC0
07C0
0780
0780
0380
0700
0700
0700
0E00
0E00
0C00
ENDCHAR
STARTCHAR 00FE
ENCODING 254
SWIDTH 600 0
DWIDTH 15 0
BBX 12 24 2 -6
BITMAP
E000
E000
E000
E000
EF80
FFC0
FFE0
F0F0
E070
C070
C070
C070
C070
E070
E0F0
FFE0
FFC0
EF80
E000
E000
E000
E000
E000
E000
ENDCHAR
STARTCHAR 00FF
ENCODING 255
SWIDTH 560 0
DWIDTH 14 0
BBX 14 24 0 -6
BITMAP
1CE0
1CE0
1CE0
0000
F01C
7038
7038
3838
3870
1C70
1CE0
1CE0
0EE0
0FC0
07C0
0780
0780
0380
0700
0700
0700
0E00
0E00
0C00
ENDCHAR
ENDFONT
