STARTFONT 2.1
COMMENT
COMMENT Converted from OpenType font "Manrope-ExtraLight.otf" by "otf2bdf 3.0".
COMMENT
FONT -FreeType-Manrope ExtraLight-Medium-R-Normal--15-110-100-100-P-68-ISO10646-1
SIZE 11 100 100
FONTBOUNDINGBOX 14 19 0 -4
STARTPROPERTIES 19
FOUNDRY "FreeType"
FAMILY_NAME "Manrope ExtraLight"
WEIGHT_NAME "Medium"
SLANT "R"
SETWIDTH_NAME "Normal"
ADD_STYLE_NAME ""
PIXEL_SIZE 15
POINT_SIZE 110
RESOLUTION_X 100
RESOLUTION_Y 100
SPACING "P"
AVERAGE_WIDTH 68
CHARSET_REGISTRY "ISO10646"
CHARSET_ENCODING "1"
FONT_ASCENT 15
FONT_DESCENT 4
COPYRIGHT "Copyright 2019-2021 The Manrope Project Authors (https://github.com/sharanda/manrope)"
_OTF_FONTFILE "Manrope-ExtraLight.otf"
_OTF_PSNAME "Manrope-ExtraLight"
ENDPROPERTIES
CHARS 191
STARTCHAR 0020
ENCODING 32
SWIDTH 196 0
DWIDTH 3 0
BBX 0 0 0 0
BITMAP
ENDCHAR
STARTCHAR 0021
ENCODING 33
SWIDTH 261 0
DWIDTH 4 0
BBX 1 8 2 0
BITMAP
80
80
80
80
80
80
80
80
ENDCHAR
STARTCHAR 0022
ENCODING 34
SWIDTH 327 0
DWIDTH 5 0
BBX 3 3 1 8
BITMAP
A0
A0
A0
ENDCHAR
STARTCHAR 0023
ENCODING 35
SWIDTH 916 0
DWIDTH 14 0
BBX 12 11 1 0
BITMAP
0480
0480
0880
7FF0
0900
1100
1100
FFE0
1200
2200
2200
ENDCHAR
STARTCHAR 0024
ENCODING 36
SWIDTH 589 0
DWIDTH 9 0
BBX 7 13 1 -1
BITMAP
10
78
84
82
80
40
38
06
02
02
82
7C
10
ENDCHAR
STARTCHAR 0025
ENCODING 37
SWIDTH 916 0
DWIDTH 14 0
BBX 12 11 1 0
BITMAP
7020
8840
8880
8900
7200
0400
08E0
1310
2210
4210
81E0
ENDCHAR
STARTCHAR 0026
ENCODING 38
SWIDTH 654 0
DWIDTH 10 0
BBX 9 11 1 0
BITMAP
3800
C400
8000
8000
4000
6000
9000
8A00
8600
8200
7D80
ENDCHAR
STARTCHAR 0027
ENCODING 39
SWIDTH 196 0
DWIDTH 3 0
BBX 1 3 1 8
BITMAP
80
80
80
ENDCHAR
STARTCHAR 0028
ENCODING 40
SWIDTH 392 0
DWIDTH 6 0
BBX 3 15 2 -2
BITMAP
20
20
40
40
80
80
80
80
80
80
80
80
40
40
20
ENDCHAR
STARTCHAR 0029
ENCODING 41
SWIDTH 392 0
DWIDTH 6 0
BBX 3 15 1 -2
BITMAP
80
80
40
40
20
20
20
20
20
20
20
40
40
80
80
ENDCHAR
STARTCHAR 002A
ENCODING 42
SWIDTH 392 0
DWIDTH 6 0
BBX 5 4 0 7
BITMAP
20
E8
30
48
ENDCHAR
STARTCHAR 002B
ENCODING 43
SWIDTH 589 0
DWIDTH 9 0
BBX 7 7 1 2
BITMAP
10
10
10
FE
10
10
10
ENDCHAR
STARTCHAR 002C
ENCODING 44
SWIDTH 261 0
DWIDTH 4 0
BBX 1 2 1 -2
BITMAP
80
80
ENDCHAR
STARTCHAR 002D
ENCODING 45
SWIDTH 392 0
DWIDTH 6 0
BBX 5 1 1 4
BITMAP
F8
ENDCHAR
STARTCHAR 002E
ENCODING 46
SWIDTH 196 0
DWIDTH 3 0
BBX 1 1 1 0
BITMAP
80
ENDCHAR
STARTCHAR 002F
ENCODING 47
SWIDTH 327 0
DWIDTH 5 0
BBX 3 11 1 0
BITMAP
20
20
20
20
40
40
40
40
80
80
80
ENDCHAR
STARTCHAR 0030
ENCODING 48
SWIDTH 589 0
DWIDTH 9 0
BBX 7 11 1 0
BITMAP
38
C4
82
82
82
82
82
82
82
84
78
ENDCHAR
STARTCHAR 0031
ENCODING 49
SWIDTH 327 0
DWIDTH 5 0
BBX 3 11 1 0
BITMAP
60
A0
20
20
20
20
20
20
20
20
20
ENDCHAR
STARTCHAR 0032
ENCODING 50
SWIDTH 523 0
DWIDTH 8 0
BBX 7 11 1 0
BITMAP
78
84
82
02
02
04
08
10
20
40
FE
ENDCHAR
STARTCHAR 0033
ENCODING 51
SWIDTH 523 0
DWIDTH 8 0
BBX 6 11 1 0
BITMAP
FC
08
10
20
78
04
04
04
04
84
78
ENDCHAR
STARTCHAR 0034
ENCODING 52
SWIDTH 589 0
DWIDTH 9 0
BBX 7 11 1 0
BITMAP
10
10
20
20
40
44
84
84
FE
04
04
ENDCHAR
STARTCHAR 0035
ENCODING 53
SWIDTH 589 0
DWIDTH 9 0
BBX 7 11 1 0
BITMAP
FC
80
80
80
F8
84
02
02
02
84
78
ENDCHAR
STARTCHAR 0036
ENCODING 54
SWIDTH 589 0
DWIDTH 9 0
BBX 7 11 1 0
BITMAP
3C
42
80
80
BC
C2
82
82
82
42
3C
ENDCHAR
STARTCHAR 0037
ENCODING 55
SWIDTH 458 0
DWIDTH 7 0
BBX 6 11 1 0
BITMAP
FC
08
08
10
10
10
20
20
40
40
40
ENDCHAR
STARTCHAR 0038
ENCODING 56
SWIDTH 589 0
DWIDTH 9 0
BBX 7 11 1 0
BITMAP
78
84
84
84
44
78
84
82
82
84
78
ENDCHAR
STARTCHAR 0039
ENCODING 57
SWIDTH 589 0
DWIDTH 9 0
BBX 7 11 1 0
BITMAP
3C
42
82
82
82
42
3E
02
02
42
3C
ENDCHAR
STARTCHAR 003A
ENCODING 58
SWIDTH 261 0
DWIDTH 4 0
BBX 1 6 2 1
BITMAP
80
00
00
00
00
80
ENDCHAR
STARTCHAR 003B
ENCODING 59
SWIDTH 261 0
DWIDTH 4 0
BBX 1 10 2 -2
BITMAP
80
00
00
00
00
00
00
00
80
80
ENDCHAR
STARTCHAR 003C
ENCODING 60
SWIDTH 589 0
DWIDTH 9 0
BBX 4 7 2 2
BITMAP
10
20
40
80
40
20
10
ENDCHAR
STARTCHAR 003D
ENCODING 61
SWIDTH 720 0
DWIDTH 11 0
BBX 8 3 2 4
BITMAP
FF
00
FF
ENDCHAR
STARTCHAR 003E
ENCODING 62
SWIDTH 589 0
DWIDTH 9 0
BBX 4 7 3 2
BITMAP
80
40
20
10
20
40
80
ENDCHAR
STARTCHAR 003F
ENCODING 63
SWIDTH 523 0
DWIDTH 8 0
BBX 6 11 1 0
BITMAP
78
84
04
04
08
10
20
20
00
00
20
ENDCHAR
STARTCHAR 0040
ENCODING 64
SWIDTH 916 0
DWIDTH 14 0
BBX 11 12 1 -2
BITMAP
0F80
3040
4020
8020
8F20
9120
9120
8EE0
4000
2000
1080
0F00
ENDCHAR
STARTCHAR 0041
ENCODING 65
SWIDTH 589 0
DWIDTH 9 0
BBX 9 11 0 0
BITMAP
0800
1400
1400
1400
2200
2200
2200
3F00
4100
4100
8080
ENDCHAR
STARTCHAR 0042
ENCODING 66
SWIDTH 589 0
DWIDTH 9 0
BBX 8 11 1 0
BITMAP
FC
82
82
82
82
FC
82
81
81
82
FC
ENDCHAR
STARTCHAR 0043
ENCODING 67
SWIDTH 720 0
DWIDTH 11 0
BBX 10 11 0 0
BITMAP
1F00
2080
4040
8040
8000
8000
8000
8040
4040
2080
1F00
ENDCHAR
STARTCHAR 0044
ENCODING 68
SWIDTH 654 0
DWIDTH 10 0
BBX 8 11 1 0
BITMAP
FC
82
81
81
81
81
81
81
81
82
FC
ENDCHAR
STARTCHAR 0045
ENCODING 69
SWIDTH 589 0
DWIDTH 9 0
BBX 7 11 1 0
BITMAP
FE
80
80
80
80
FC
80
80
80
80
FE
ENDCHAR
STARTCHAR 0046
ENCODING 70
SWIDTH 458 0
DWIDTH 7 0
BBX 6 11 1 0
BITMAP
FC
80
80
80
80
F8
80
80
80
80
80
ENDCHAR
STARTCHAR 0047
ENCODING 71
SWIDTH 720 0
DWIDTH 11 0
BBX 10 11 0 0
BITMAP
1F00
2080
4000
8000
8000
83C0
8040
8040
4040
2080
1F00
ENDCHAR
STARTCHAR 0048
ENCODING 72
SWIDTH 654 0
DWIDTH 10 0
BBX 8 11 1 0
BITMAP
81
81
81
81
81
FF
81
81
81
81
81
ENDCHAR
STARTCHAR 0049
ENCODING 73
SWIDTH 196 0
DWIDTH 3 0
BBX 1 11 1 0
BITMAP
80
80
80
80
80
80
80
80
80
80
80
ENDCHAR
STARTCHAR 004A
ENCODING 74
SWIDTH 458 0
DWIDTH 7 0
BBX 5 11 0 0
BITMAP
08
08
08
08
08
08
08
08
08
88
70
ENDCHAR
STARTCHAR 004B
ENCODING 75
SWIDTH 589 0
DWIDTH 9 0
BBX 7 11 1 0
BITMAP
82
8C
90
A0
C0
C0
A0
90
88
84
82
ENDCHAR
STARTCHAR 004C
ENCODING 76
SWIDTH 523 0
DWIDTH 8 0
BBX 6 11 1 0
BITMAP
80
80
80
80
80
80
80
80
80
80
FC
ENDCHAR
STARTCHAR 004D
ENCODING 77
SWIDTH 850 0
DWIDTH 13 0
BBX 11 11 1 0
BITMAP
8020
8060
C060
C0A0
A0A0
A120
9120
9220
8A20
8C20
8420
ENDCHAR
STARTCHAR 004E
ENCODING 78
SWIDTH 654 0
DWIDTH 10 0
BBX 8 11 1 0
BITMAP
81
C1
C1
A1
91
91
89
85
85
83
81
ENDCHAR
STARTCHAR 004F
ENCODING 79
SWIDTH 720 0
DWIDTH 11 0
BBX 10 11 0 0
BITMAP
1F00
2080
4040
8040
8040
8040
8040
8040
4040
2080
1F00
ENDCHAR
STARTCHAR 0050
ENCODING 80
SWIDTH 589 0
DWIDTH 9 0
BBX 7 11 1 0
BITMAP
FC
82
82
82
82
82
FC
80
80
80
80
ENDCHAR
STARTCHAR 0051
ENCODING 81
SWIDTH 720 0
DWIDTH 11 0
BBX 10 11 0 0
BITMAP
1F00
2080
4040
8040
8040
8040
8040
8040
4140
2080
1F40
ENDCHAR
STARTCHAR 0052
ENCODING 82
SWIDTH 589 0
DWIDTH 9 0
BBX 7 11 1 0
BITMAP
FC
82
82
82
82
82
FC
84
84
82
82
ENDCHAR
STARTCHAR 0053
ENCODING 83
SWIDTH 589 0
DWIDTH 9 0
BBX 7 11 1 0
BITMAP
7C
82
82
80
40
3C
02
02
02
82
7C
ENDCHAR
STARTCHAR 0054
ENCODING 84
SWIDTH 589 0
DWIDTH 9 0
BBX 9 11 0 0
BITMAP
FF80
0800
0800
0800
0800
0800
0800
0800
0800
0800
0800
ENDCHAR
STARTCHAR 0055
ENCODING 85
SWIDTH 720 0
DWIDTH 11 0
BBX 8 11 1 0
BITMAP
81
81
81
81
81
81
81
81
81
41
3E
ENDCHAR
STARTCHAR 0056
ENCODING 86
SWIDTH 589 0
DWIDTH 9 0
BBX 9 11 0 0
BITMAP
8080
8100
4100
4200
4200
2200
2400
2400
1400
1800
0800
ENDCHAR
STARTCHAR 0057
ENCODING 87
SWIDTH 916 0
DWIDTH 14 0
BBX 13 11 0 0
BITMAP
8208
8308
4308
4508
4490
2490
2890
28A0
2860
1860
1020
ENDCHAR
STARTCHAR 0058
ENCODING 88
SWIDTH 589 0
DWIDTH 9 0
BBX 8 11 0 0
BITMAP
81
42
22
24
18
08
18
24
22
41
81
ENDCHAR
STARTCHAR 0059
ENCODING 89
SWIDTH 523 0
DWIDTH 8 0
BBX 8 11 0 0
BITMAP
81
42
44
24
28
18
10
10
10
10
10
ENDCHAR
STARTCHAR 005A
ENCODING 90
SWIDTH 589 0
DWIDTH 9 0
BBX 7 11 1 0
BITMAP
FE
04
04
08
10
10
20
20
40
80
FE
ENDCHAR
STARTCHAR 005B
ENCODING 91
SWIDTH 392 0
DWIDTH 6 0
BBX 3 18 2 -4
BITMAP
E0
80
80
80
80
80
80
80
80
80
80
80
80
80
80
80
80
E0
ENDCHAR
STARTCHAR 005C
ENCODING 92
SWIDTH 327 0
DWIDTH 5 0
BBX 3 11 1 0
BITMAP
80
80
80
40
40
40
40
20
20
20
20
ENDCHAR
STARTCHAR 005D
ENCODING 93
SWIDTH 392 0
DWIDTH 6 0
BBX 3 18 1 -4
BITMAP
E0
20
20
20
20
20
20
20
20
20
20
20
20
20
20
20
20
E0
ENDCHAR
STARTCHAR 005E
ENCODING 94
SWIDTH 654 0
DWIDTH 10 0
BBX 7 4 2 7
BITMAP
10
68
84
02
ENDCHAR
STARTCHAR 005F
ENCODING 95
SWIDTH 654 0
DWIDTH 10 0
BBX 10 1 0 -2
BITMAP
FFC0
ENDCHAR
STARTCHAR 0060
ENCODING 96
SWIDTH 458 0
DWIDTH 7 0
BBX 1 2 3 12
BITMAP
80
80
ENDCHAR
STARTCHAR 0061
ENCODING 97
SWIDTH 523 0
DWIDTH 8 0
BBX 6 9 1 0
BITMAP
78
84
04
04
FC
84
84
84
78
ENDCHAR
STARTCHAR 0062
ENCODING 98
SWIDTH 589 0
DWIDTH 9 0
BBX 7 11 1 0
BITMAP
80
80
B8
C4
82
82
82
82
82
C4
B8
ENDCHAR
STARTCHAR 0063
ENCODING 99
SWIDTH 523 0
DWIDTH 8 0
BBX 6 9 1 0
BITMAP
78
84
80
80
80
80
80
84
78
ENDCHAR
STARTCHAR 0064
ENCODING 100
SWIDTH 589 0
DWIDTH 9 0
BBX 7 11 1 0
BITMAP
02
02
7A
86
82
82
82
82
82
86
7A
ENDCHAR
STARTCHAR 0065
ENCODING 101
SWIDTH 589 0
DWIDTH 9 0
BBX 7 9 1 0
BITMAP
78
84
82
82
FE
80
82
84
78
ENDCHAR
STARTCHAR 0066
ENCODING 102
SWIDTH 327 0
DWIDTH 5 0
BBX 5 11 0 0
BITMAP
38
20
F8
20
20
20
20
20
20
20
20
ENDCHAR
STARTCHAR 0067
ENCODING 103
SWIDTH 589 0
DWIDTH 9 0
BBX 7 13 1 -4
BITMAP
7A
86
82
82
82
82
82
86
7A
02
82
84
78
ENDCHAR
STARTCHAR 0068
ENCODING 104
SWIDTH 589 0
DWIDTH 9 0
BBX 7 11 1 0
BITMAP
80
80
B8
C4
82
82
82
82
82
82
82
ENDCHAR
STARTCHAR 0069
ENCODING 105
SWIDTH 196 0
DWIDTH 3 0
BBX 1 11 1 0
BITMAP
80
00
80
80
80
80
80
80
80
80
80
ENDCHAR
STARTCHAR 006A
ENCODING 106
SWIDTH 196 0
DWIDTH 3 0
BBX 2 13 0 -2
BITMAP
40
40
40
40
40
40
40
40
40
40
40
40
80
ENDCHAR
STARTCHAR 006B
ENCODING 107
SWIDTH 458 0
DWIDTH 7 0
BBX 6 11 1 0
BITMAP
80
80
88
90
A0
C0
80
E0
90
88
84
ENDCHAR
STARTCHAR 006C
ENCODING 108
SWIDTH 196 0
DWIDTH 3 0
BBX 1 11 1 0
BITMAP
80
80
80
80
80
80
80
80
80
80
80
ENDCHAR
STARTCHAR 006D
ENCODING 109
SWIDTH 785 0
DWIDTH 12 0
BBX 11 9 1 0
BITMAP
FB80
8440
8440
8420
8420
8420
8420
8420
8420
ENDCHAR
STARTCHAR 006E
ENCODING 110
SWIDTH 589 0
DWIDTH 9 0
BBX 7 9 1 0
BITMAP
B8
C4
82
82
82
82
82
82
82
ENDCHAR
STARTCHAR 006F
ENCODING 111
SWIDTH 589 0
DWIDTH 9 0
BBX 7 9 1 0
BITMAP
78
84
82
82
82
82
82
84
78
ENDCHAR
STARTCHAR 0070
ENCODING 112
SWIDTH 589 0
DWIDTH 9 0
BBX 7 12 1 -3
BITMAP
B8
C4
82
82
82
82
82
C4
B8
80
80
80
ENDCHAR
STARTCHAR 0071
ENCODING 113
SWIDTH 589 0
DWIDTH 9 0
BBX 7 12 1 -3
BITMAP
7A
86
82
82
82
82
82
86
7A
02
02
02
ENDCHAR
STARTCHAR 0072
ENCODING 114
SWIDTH 327 0
DWIDTH 5 0
BBX 4 9 1 0
BITMAP
F0
80
80
80
80
80
80
80
80
ENDCHAR
STARTCHAR 0073
ENCODING 115
SWIDTH 523 0
DWIDTH 8 0
BBX 6 9 1 0
BITMAP
78
84
80
C0
38
04
04
84
78
ENDCHAR
STARTCHAR 0074
ENCODING 116
SWIDTH 392 0
DWIDTH 6 0
BBX 5 11 0 0
BITMAP
20
20
F8
20
20
20
20
20
20
20
18
ENDCHAR
STARTCHAR 0075
ENCODING 117
SWIDTH 589 0
DWIDTH 9 0
BBX 7 9 1 0
BITMAP
82
82
82
82
82
82
82
86
7A
ENDCHAR
STARTCHAR 0076
ENCODING 118
SWIDTH 458 0
DWIDTH 7 0
BBX 7 9 0 0
BITMAP
82
82
44
44
44
28
28
28
10
ENDCHAR
STARTCHAR 0077
ENCODING 119
SWIDTH 720 0
DWIDTH 11 0
BBX 11 9 0 0
BITMAP
8420
8420
4A40
4A40
4A40
5140
3180
3180
1080
ENDCHAR
STARTCHAR 0078
ENCODING 120
SWIDTH 523 0
DWIDTH 8 0
BBX 7 9 0 0
BITMAP
82
44
24
18
10
18
24
42
82
ENDCHAR
STARTCHAR 0079
ENCODING 121
SWIDTH 523 0
DWIDTH 8 0
BBX 7 12 0 -3
BITMAP
82
42
44
44
24
28
18
18
10
10
10
20
ENDCHAR
STARTCHAR 007A
ENCODING 122
SWIDTH 523 0
DWIDTH 8 0
BBX 6 9 1 0
BITMAP
FC
04
08
10
20
20
40
80
FC
ENDCHAR
STARTCHAR 007B
ENCODING 123
SWIDTH 392 0
DWIDTH 6 0
BBX 3 18 2 -4
BITMAP
20
40
40
40
40
40
40
40
80
80
40
40
40
40
40
40
40
20
ENDCHAR
STARTCHAR 007C
ENCODING 124
SWIDTH 196 0
DWIDTH 3 0
BBX 1 11 1 0
BITMAP
80
80
80
80
80
80
80
80
80
80
80
ENDCHAR
STARTCHAR 007D
ENCODING 125
SWIDTH 392 0
DWIDTH 6 0
BBX 3 18 1 -4
BITMAP
80
40
40
40
40
40
40
40
20
20
40
40
40
40
40
40
40
80
ENDCHAR
STARTCHAR 007E
ENCODING 126
SWIDTH 654 0
DWIDTH 10 0
BBX 6 3 2 3
BITMAP
C4
A4
98
ENDCHAR
STARTCHAR 00A0
ENCODING 160
SWIDTH 196 0
DWIDTH 3 0
BBX 0 0 0 0
BITMAP
ENDCHAR
STARTCHAR 00A1
ENCODING 161
SWIDTH 261 0
DWIDTH 4 0
BBX 1 8 2 1
BITMAP
80
80
80
80
80
80
80
80
ENDCHAR
STARTCHAR 00A2
ENCODING 162
SWIDTH 523 0
DWIDTH 8 0
BBX 6 11 1 0
BITMAP
10
30
4C
80
80
80
80
80
84
78
10
ENDCHAR
STARTCHAR 00A3
ENCODING 163
SWIDTH 589 0
DWIDTH 9 0
BBX 8 11 0 0
BITMAP
0E
11
20
20
20
FC
20
20
20
20
FF
ENDCHAR
STARTCHAR 00A4
ENCODING 164
SWIDTH 654 0
DWIDTH 10 0
BBX 9 9 0 1
BITMAP
0C80
7300
4100
4080
8080
4080
4100
6300
9C80
ENDCHAR
STARTCHAR 00A5
ENCODING 165
SWIDTH 523 0
DWIDTH 8 0
BBX 8 11 0 0
BITMAP
81
42
44
24
28
18
7E
10
7E
10
10
ENDCHAR
STARTCHAR 00A6
ENCODING 166
SWIDTH 196 0
DWIDTH 3 0
BBX 1 13 1 -2
BITMAP
80
80
80
80
80
00
00
00
80
80
80
80
80
ENDCHAR
STARTCHAR 00A7
ENCODING 167
SWIDTH 523 0
DWIDTH 8 0
BBX 6 13 1 -3
BITMAP
78
84
84
40
78
84
84
C4
38
04
84
84
78
ENDCHAR
STARTCHAR 00A8
ENCODING 168
SWIDTH 458 0
DWIDTH 7 0
BBX 4 1 2 13
BITMAP
90
ENDCHAR
STARTCHAR 00A9
ENCODING 169
SWIDTH 720 0
DWIDTH 11 0
BBX 11 11 0 0
BITMAP
1F00
2080
4E40
9120
9020
9020
9020
9120
4E40
2080
1F00
ENDCHAR
STARTCHAR 00AA
ENCODING 170
SWIDTH 327 0
DWIDTH 5 0
BBX 3 4 1 4
BITMAP
E0
60
A0
C0
ENDCHAR
STARTCHAR 00AB
ENCODING 171
SWIDTH 523 0
DWIDTH 8 0
BBX 5 6 1 2
BITMAP
28
50
A0
50
48
28
ENDCHAR
STARTCHAR 00AC
ENCODING 172
SWIDTH 589 0
DWIDTH 9 0
BBX 7 2 1 3
BITMAP
FE
02
ENDCHAR
STARTCHAR 00AD
ENCODING 173
SWIDTH 392 0
DWIDTH 6 0
BBX 5 1 1 4
BITMAP
F8
ENDCHAR
STARTCHAR 00AE
ENCODING 174
SWIDTH 589 0
DWIDTH 9 0
BBX 7 8 1 4
BITMAP
18
64
BA
AA
B2
AA
44
38
ENDCHAR
STARTCHAR 00AF
ENCODING 175
SWIDTH 458 0
DWIDTH 7 0
BBX 4 1 2 13
BITMAP
F0
ENDCHAR
STARTCHAR 00B0
ENCODING 176
SWIDTH 458 0
DWIDTH 7 0
BBX 6 6 0 5
BITMAP
38
44
84
84
48
30
ENDCHAR
STARTCHAR 00B1
ENCODING 177
SWIDTH 589 0
DWIDTH 9 0
BBX 7 8 1 1
BITMAP
10
10
FE
10
10
00
00
FE
ENDCHAR
STARTCHAR 00B2
ENCODING 178
SWIDTH 392 0
DWIDTH 6 0
BBX 4 7 1 4
BITMAP
60
90
10
10
20
40
F0
ENDCHAR
STARTCHAR 00B3
ENCODING 179
SWIDTH 392 0
DWIDTH 6 0
BBX 4 7 1 4
BITMAP
F0
40
60
10
10
90
60
ENDCHAR
STARTCHAR 00B4
ENCODING 180
SWIDTH 458 0
DWIDTH 7 0
BBX 1 2 3 12
BITMAP
80
80
ENDCHAR
STARTCHAR 00B5
ENCODING 181
SWIDTH 589 0
DWIDTH 9 0
BBX 7 13 1 -4
BITMAP
82
82
82
82
82
82
82
86
FA
80
80
80
80
ENDCHAR
STARTCHAR 00B6
ENCODING 182
SWIDTH 589 0
DWIDTH 9 0
BBX 7 13 1 -2
BITMAP
3A
7A
FA
FA
7A
7A
1A
0A
0A
0A
0A
0A
0A
ENDCHAR
STARTCHAR 00B7
ENCODING 183
SWIDTH 196 0
DWIDTH 3 0
BBX 1 1 1 4
BITMAP
80
ENDCHAR
STARTCHAR 00B8
ENCODING 184
SWIDTH 392 0
DWIDTH 6 0
BBX 2 4 2 -4
BITMAP
80
40
40
80
ENDCHAR
STARTCHAR 00B9
ENCODING 185
SWIDTH 327 0
DWIDTH 5 0
BBX 2 7 1 4
BITMAP
C0
40
40
40
40
40
40
ENDCHAR
STARTCHAR 00BA
ENCODING 186
SWIDTH 327 0
DWIDTH 5 0
BBX 4 5 1 4
BITMAP
E0
A0
90
A0
40
ENDCHAR
STARTCHAR 00BB
ENCODING 187
SWIDTH 523 0
DWIDTH 8 0
BBX 5 7 1 1
BITMAP
80
90
50
28
28
50
A0
ENDCHAR
STARTCHAR 00BC
ENCODING 188
SWIDTH 916 0
DWIDTH 14 0
BBX 11 11 1 0
BITMAP
C080
4080
4100
4200
4440
4480
4880
1120
2120
41E0
4020
ENDCHAR
STARTCHAR 00BD
ENCODING 189
SWIDTH 850 0
DWIDTH 13 0
BBX 12 11 1 0
BITMAP
C080
4080
4100
4200
44E0
4510
4810
1020
2040
4080
41F0
ENDCHAR
STARTCHAR 00BE
ENCODING 190
SWIDTH 916 0
DWIDTH 14 0
BBX 13 11 1 0
BITMAP
F020
4040
6080
1100
1220
9240
6440
0890
1090
20F8
2010
ENDCHAR
STARTCHAR 00BF
ENCODING 191
SWIDTH 523 0
DWIDTH 8 0
BBX 6 12 1 -3
BITMAP
20
00
00
00
20
20
40
80
80
84
84
78
ENDCHAR
STARTCHAR 00C0
ENCODING 192
SWIDTH 589 0
DWIDTH 9 0
BBX 9 14 0 0
BITMAP
1000
0800
0000
0800
1400
1400
1400
2200
2200
2200
3F00
4100
4100
8080
ENDCHAR
STARTCHAR 00C1
ENCODING 193
SWIDTH 589 0
DWIDTH 9 0
BBX 9 14 0 0
BITMAP
0800
0800
0000
0800
1400
1400
1400
2200
2200
2200
3F00
4100
4100
8080
ENDCHAR
STARTCHAR 00C2
ENCODING 194
SWIDTH 589 0
DWIDTH 9 0
BBX 9 14 0 0
BITMAP
0800
1400
0000
0800
1400
1400
1400
2200
2200
2200
3F00
4100
4100
8080
ENDCHAR
STARTCHAR 00C3
ENCODING 195
SWIDTH 589 0
DWIDTH 9 0
BBX 9 15 0 0
BITMAP
1200
2A00
0400
0000
0800
1400
1400
1400
2200
2200
2200
3F00
4100
4100
8080
ENDCHAR
STARTCHAR 00C4
ENCODING 196
SWIDTH 589 0
DWIDTH 9 0
BBX 9 14 0 0
BITMAP
1000
0000
0000
0800
1400
1400
1400
2200
2200
2200
3F00
4100
4100
8080
ENDCHAR
STARTCHAR 00C5
ENCODING 197
SWIDTH 589 0
DWIDTH 9 0
BBX 9 15 0 0
BITMAP
0C00
1400
0C00
0000
0800
1400
1400
1400
2200
2200
2200
3F00
4100
4100
8080
ENDCHAR
STARTCHAR 00C6
ENCODING 198
SWIDTH 916 0
DWIDTH 14 0
BBX 13 11 0 0
BITMAP
0FF8
1200
1200
1200
2200
23F0
2200
3E00
4200
4200
83F8
ENDCHAR
STARTCHAR 00C7
ENCODING 199
SWIDTH 720 0
DWIDTH 11 0
BBX 10 15 0 -4
BITMAP
1F00
2080
4040
8040
8000
8000
8000
8040
4040
2080
1F00
0400
0400
0200
0400
ENDCHAR
STARTCHAR 00C8
ENCODING 200
SWIDTH 589 0
DWIDTH 9 0
BBX 7 14 1 0
BITMAP
10
10
00
FE
80
80
80
80
FC
80
80
80
80
FE
ENDCHAR
STARTCHAR 00C9
ENCODING 201
SWIDTH 589 0
DWIDTH 9 0
BBX 7 14 1 0
BITMAP
10
10
00
FE
80
80
80
80
FC
80
80
80
80
FE
ENDCHAR
STARTCHAR 00CA
ENCODING 202
SWIDTH 589 0
DWIDTH 9 0
BBX 7 14 1 0
BITMAP
10
28
00
FE
80
80
80
80
FC
80
80
80
80
FE
ENDCHAR
STARTCHAR 00CB
ENCODING 203
SWIDTH 589 0
DWIDTH 9 0
BBX 7 14 1 0
BITMAP
48
00
00
FE
80
80
80
80
FC
80
80
80
80
FE
ENDCHAR
STARTCHAR 00CC
ENCODING 204
SWIDTH 196 0
DWIDTH 3 0
BBX 2 14 0 0
BITMAP
80
40
00
40
40
40
40
40
40
40
40
40
40
40
ENDCHAR
STARTCHAR 00CD
ENCODING 205
SWIDTH 196 0
DWIDTH 3 0
BBX 1 14 1 0
BITMAP
80
80
00
80
80
80
80
80
80
80
80
80
80
80
ENDCHAR
STARTCHAR 00CE
ENCODING 206
SWIDTH 196 0
DWIDTH 3 0
BBX 3 14 0 0
BITMAP
40
A0
00
40
40
40
40
40
40
40
40
40
40
40
ENDCHAR
STARTCHAR 00CF
ENCODING 207
SWIDTH 196 0
DWIDTH 3 0
BBX 3 14 0 0
BITMAP
A0
00
00
40
40
40
40
40
40
40
40
40
40
40
ENDCHAR
STARTCHAR 00D0
ENCODING 208
SWIDTH 654 0
DWIDTH 10 0
BBX 9 11 0 0
BITMAP
7E00
4100
4080
4080
4080
F880
4080
4080
4080
4100
7E00
ENDCHAR
STARTCHAR 00D1
ENCODING 209
SWIDTH 654 0
DWIDTH 10 0
BBX 8 14 1 0
BITMAP
30
2C
00
81
C1
C1
A1
91
91
89
85
85
83
81
ENDCHAR
STARTCHAR 00D2
ENCODING 210
SWIDTH 720 0
DWIDTH 11 0
BBX 10 14 0 0
BITMAP
0800
0400
0000
1F00
2080
4040
8040
8040
8040
8040
8040
4040
2080
1F00
ENDCHAR
STARTCHAR 00D3
ENCODING 211
SWIDTH 720 0
DWIDTH 11 0
BBX 10 14 0 0
BITMAP
0400
0400
0000
1F00
2080
4040
8040
8040
8040
8040
8040
4040
2080
1F00
ENDCHAR
STARTCHAR 00D4
ENCODING 212
SWIDTH 720 0
DWIDTH 11 0
BBX 10 14 0 0
BITMAP
0400
0A00
0000
1F00
2080
4040
8040
8040
8040
8040
8040
4040
2080
1F00
ENDCHAR
STARTCHAR 00D5
ENCODING 213
SWIDTH 720 0
DWIDTH 11 0
BBX 10 14 0 0
BITMAP
0900
1600
0000
1F00
2080
4040
8040
8040
8040
8040
8040
4040
2080
1F00
ENDCHAR
STARTCHAR 00D6
ENCODING 214
SWIDTH 720 0
DWIDTH 11 0
BBX 10 14 0 0
BITMAP
0200
0000
0000
1F00
2080
4040
8040
8040
8040
8040
8040
4040
2080
1F00
ENDCHAR
STARTCHAR 00D7
ENCODING 215
SWIDTH 458 0
DWIDTH 7 0
BBX 5 5 1 3
BITMAP
88
50
20
50
88
ENDCHAR
STARTCHAR 00D8
ENCODING 216
SWIDTH 720 0
DWIDTH 11 0
BBX 11 11 0 0
BITMAP
1F20
20C0
40C0
8140
8240
8440
8840
9040
6040
6080
9F00
ENDCHAR
STARTCHAR 00D9
ENCODING 217
SWIDTH 720 0
DWIDTH 11 0
BBX 8 14 1 0
BITMAP
10
08
00
81
81
81
81
81
81
81
81
81
41
3E
ENDCHAR
STARTCHAR 00DA
ENCODING 218
SWIDTH 720 0
DWIDTH 11 0
BBX 8 14 1 0
BITMAP
08
00
00
81
81
81
81
81
81
81
81
81
41
3E
ENDCHAR
STARTCHAR 00DB
ENCODING 219
SWIDTH 720 0
DWIDTH 11 0
BBX 8 14 1 0
BITMAP
18
04
00
81
81
81
81
81
81
81
81
81
41
3E
ENDCHAR
STARTCHAR 00DC
ENCODING 220
SWIDTH 720 0
DWIDTH 11 0
BBX 8 14 1 0
BITMAP
24
00
00
81
81
81
81
81
81
81
81
81
41
3E
ENDCHAR
STARTCHAR 00DD
ENCODING 221
SWIDTH 523 0
DWIDTH 8 0
BBX 8 14 0 0
BITMAP
10
10
00
81
42
44
24
28
18
10
10
10
10
10
ENDCHAR
STARTCHAR 00DE
ENCODING 222
SWIDTH 589 0
DWIDTH 9 0
BBX 7 11 1 0
BITMAP
80
80
F8
84
82
82
82
84
F8
80
80
ENDCHAR
STARTCHAR 00DF
ENCODING 223
SWIDTH 589 0
DWIDTH 9 0
BBX 7 11 1 0
BITMAP
78
84
84
84
88
9C
82
82
82
84
B8
ENDCHAR
STARTCHAR 00E0
ENCODING 224
SWIDTH 523 0
DWIDTH 8 0
BBX 6 12 1 0
BITMAP
20
20
00
78
84
04
04
FC
84
84
84
78
ENDCHAR
STARTCHAR 00E1
ENCODING 225
SWIDTH 523 0
DWIDTH 8 0
BBX 6 12 1 0
BITMAP
10
10
00
78
84
04
04
FC
84
84
84
78
ENDCHAR
STARTCHAR 00E2
ENCODING 226
SWIDTH 523 0
DWIDTH 8 0
BBX 6 12 1 0
BITMAP
30
08
00
78
84
04
04
FC
84
84
84
78
ENDCHAR
STARTCHAR 00E3
ENCODING 227
SWIDTH 523 0
DWIDTH 8 0
BBX 6 12 1 0
BITMAP
20
58
00
78
84
04
04
FC
84
84
84
78
ENDCHAR
STARTCHAR 00E4
ENCODING 228
SWIDTH 523 0
DWIDTH 8 0
BBX 6 11 1 0
BITMAP
48
00
78
84
04
04
FC
84
84
84
78
ENDCHAR
STARTCHAR 00E5
ENCODING 229
SWIDTH 523 0
DWIDTH 8 0
BBX 6 13 1 0
BITMAP
10
68
30
00
78
84
04
04
FC
84
84
84
78
ENDCHAR
STARTCHAR 00E6
ENCODING 230
SWIDTH 916 0
DWIDTH 14 0
BBX 13 9 1 0
BITMAP
79E0
8610
0208
0408
7FF8
8400
8600
8610
79E0
ENDCHAR
STARTCHAR 00E7
ENCODING 231
SWIDTH 523 0
DWIDTH 8 0
BBX 6 13 1 -4
BITMAP
78
84
80
80
80
80
80
84
78
10
10
10
30
ENDCHAR
STARTCHAR 00E8
ENCODING 232
SWIDTH 589 0
DWIDTH 9 0
BBX 7 12 1 0
BITMAP
20
10
00
78
84
82
82
FE
80
82
84
78
ENDCHAR
STARTCHAR 00E9
ENCODING 233
SWIDTH 589 0
DWIDTH 9 0
BBX 7 12 1 0
BITMAP
10
10
00
78
84
82
82
FE
80
82
84
78
ENDCHAR
STARTCHAR 00EA
ENCODING 234
SWIDTH 589 0
DWIDTH 9 0
BBX 7 12 1 0
BITMAP
10
28
00
78
84
82
82
FE
80
82
84
78
ENDCHAR
STARTCHAR 00EB
ENCODING 235
SWIDTH 589 0
DWIDTH 9 0
BBX 7 11 1 0
BITMAP
08
00
78
84
82
82
FE
80
82
84
78
ENDCHAR
STARTCHAR 00EC
ENCODING 236
SWIDTH 196 0
DWIDTH 3 0
BBX 2 12 0 0
BITMAP
80
40
00
40
40
40
40
40
40
40
40
40
ENDCHAR
STARTCHAR 00ED
ENCODING 237
SWIDTH 196 0
DWIDTH 3 0
BBX 1 12 1 0
BITMAP
80
80
00
80
80
80
80
80
80
80
80
80
ENDCHAR
STARTCHAR 00EE
ENCODING 238
SWIDTH 196 0
DWIDTH 3 0
BBX 3 12 0 0
BITMAP
40
A0
00
40
40
40
40
40
40
40
40
40
ENDCHAR
STARTCHAR 00EF
ENCODING 239
SWIDTH 196 0
DWIDTH 3 0
BBX 3 11 0 0
BITMAP
A0
00
40
40
40
40
40
40
40
40
40
ENDCHAR
STARTCHAR 00F0
ENCODING 240
SWIDTH 589 0
DWIDTH 9 0
BBX 7 12 1 0
BITMAP
04
18
14
02
7A
86
82
82
82
82
84
78
ENDCHAR
STARTCHAR 00F1
ENCODING 241
SWIDTH 589 0
DWIDTH 9 0
BBX 7 12 1 0
BITMAP
20
58
00
B8
C4
82
82
82
82
82
82
82
ENDCHAR
STARTCHAR 00F2
ENCODING 242
SWIDTH 589 0
DWIDTH 9 0
BBX 7 12 1 0
BITMAP
20
20
00
78
84
82
82
82
82
82
84
78
ENDCHAR
STARTCHAR 00F3
ENCODING 243
SWIDTH 589 0
DWIDTH 9 0
BBX 7 12 1 0
BITMAP
10
10
00
78
84
82
82
82
82
82
84
78
ENDCHAR
STARTCHAR 00F4
ENCODING 244
SWIDTH 589 0
DWIDTH 9 0
BBX 7 12 1 0
BITMAP
10
28
00
78
84
82
82
82
82
82
84
78
ENDCHAR
STARTCHAR 00F5
ENCODING 245
SWIDTH 589 0
DWIDTH 9 0
BBX 7 12 1 0
BITMAP
20
58
00
78
84
82
82
82
82
82
84
78
ENDCHAR
STARTCHAR 00F6
ENCODING 246
SWIDTH 589 0
DWIDTH 9 0
BBX 7 11 1 0
BITMAP
08
00
78
84
82
82
82
82
82
84
78
ENDCHAR
STARTCHAR 00F7
ENCODING 247
SWIDTH 523 0
DWIDTH 8 0
BBX 6 5 1 3
BITMAP
10
00
FC
00
10
ENDCHAR
STARTCHAR 00F8
ENCODING 248
SWIDTH 589 0
DWIDTH 9 0
BBX 9 9 0 0
BITMAP
3C80
4300
4300
8500
8900
9100
6100
4200
BC00
ENDCHAR
STARTCHAR 00F9
ENCODING 249
SWIDTH 589 0
DWIDTH 9 0
BBX 7 12 1 0
BITMAP
20
10
00
82
82
82
82
82
82
82
86
7A
ENDCHAR
STARTCHAR 00FA
ENCODING 250
SWIDTH 589 0
DWIDTH 9 0
BBX 7 12 1 0
BITMAP
10
10
00
82
82
82
82
82
82
82
86
7A
ENDCHAR
STARTCHAR 00FB
ENCODING 251
SWIDTH 589 0
DWIDTH 9 0
BBX 7 12 1 0
BITMAP
30
08
00
82
82
82
82
82
82
82
86
7A
ENDCHAR
STARTCHAR 00FC
ENCODING 252
SWIDTH 589 0
DWIDTH 9 0
BBX 7 11 1 0
BITMAP
48
00
82
82
82
82
82
82
82
86
7A
ENDCHAR
STARTCHAR 00FD
ENCODING 253
SWIDTH 523 0
DWIDTH 8 0
BBX 7 15 0 -3
BITMAP
08
10
00
82
42
44
44
24
28
18
18
10
10
10
20
ENDCHAR
STARTCHAR 00FE
ENCODING 254
SWIDTH 589 0
DWIDTH 9 0
BBX 7 14 1 -3
BITMAP
80
80
B8
C4
82
82
82
82
82
C4
B8
80
80
80
ENDCHAR
STARTCHAR 00FF
ENCODING 255
SWIDTH 523 0
DWIDTH 8 0
BBX 7 14 0 -3
BITMAP
24
00
82
42
44
44
24
28
18
18
10
10
10
20
ENDCHAR
ENDFONT
