STARTFONT 2.1
COMMENT
COMMENT Converted from OpenType font "manrope-medium.otf" by "otf2bdf 3.0".
COMMENT
FONT -FreeType-Manrope Medium-Medium-R-Normal--35-250-100-100-P-161-ISO10646-1
SIZE 25 100 100
FONTBOUNDINGBOX 33 43 -1 -8
STARTPROPERTIES 19
FOUNDRY "FreeType"
FAMILY_NAME "Manrope Medium"
WEIGHT_NAME "Medium"
SLANT "R"
SETWIDTH_NAME "Normal"
ADD_STYLE_NAME ""
PIXEL_SIZE 35
POINT_SIZE 250
RESOLUTION_X 100
RESOLUTION_Y 100
SPACING "P"
AVERAGE_WIDTH 161
CHARSET_REGISTRY "ISO10646"
CHARSET_ENCODING "1"
FONT_ASCENT 37
FONT_DESCENT 10
COPYRIGHT "Copyright 2019-2021 The Manrope Project Authors (https://github.com/sharanda/manrope)"
_OTF_FONTFILE "manrope-medium.otf"
_OTF_PSNAME "Manrope-Medium"
ENDPROPERTIES
CHARS 191
STARTCHAR 0020
ENCODING 32
SWIDTH 201 0
DWIDTH 7 0
BBX 0 0 0 0
BITMAP
ENDCHAR
STARTCHAR 0021
ENCODING 33
SWIDTH 316 0
DWIDTH 11 0
BBX 3 25 4 0
BITMAP
E0
E0
E0
E0
E0
E0
E0
E0
E0
E0
E0
E0
E0
E0
E0
E0
E0
E0
E0
00
00
00
E0
E0
E0
ENDCHAR
STARTCHAR 0022
ENCODING 34
SWIDTH 403 0
DWIDTH 14 0
BBX 9 6 2 19
BITMAP
E380
E380
E380
E380
E380
E380
ENDCHAR
STARTCHAR 0023
ENCODING 35
SWIDTH 921 0
DWIDTH 32 0
BBX 28 25 2 0
BITMAP
001E0E00
001C0E00
001C1C00
001C1C00
003C1C00
00381C00
00383800
1FFFFFF0
1FFFFFF0
3FFFFFE0
00707000
00707000
00E07000
00E0E000
00E0E000
7FFFFFC0
FFFFFF80
FFFFFF80
01C1C000
03C1C000
0383C000
03838000
03838000
07038000
07070000
ENDCHAR
STARTCHAR 0024
ENCODING 36
SWIDTH 604 0
DWIDTH 21 0
BBX 19 31 1 -3
BITMAP
00E000
00E000
00E000
03F800
0FFE00
1FFF00
3C0F80
7803C0
7001C0
7001C0
700100
780000
3E0000
1FC000
0FF800
03FF00
007F80
0007C0
0001C0
0001E0
2000E0
F001E0
7001C0
7801C0
3E07C0
1FFF80
0FFF00
03FC00
00E000
00E000
00E000
ENDCHAR
STARTCHAR 0025
ENCODING 37
SWIDTH 892 0
DWIDTH 31 0
BBX 27 25 2 0
BITMAP
0F800080
3FC001C0
7FE007C0
70700F80
E0701F00
E0383E00
E0387C00
E070F800
7071F000
7FE3E000
3FC7C000
0F8F8000
001F0000
003E1E00
007C7F80
00F8FFC0
01F1E1E0
03E1C0E0
07C180E0
0F8180E0
1F01C0E0
3E01E1E0
7C00FFC0
38007F80
10001E00
ENDCHAR
STARTCHAR 0026
ENCODING 38
SWIDTH 662 0
DWIDTH 23 0
BBX 20 25 2 0
BITMAP
07F000
0FFC00
1FFE00
3C1E00
780F00
700000
700000
700000
780000
3C0000
1E0000
1F0000
3F8000
7FC1C0
F1E1C0
E0F1C0
E079C0
E03DC0
E00F80
E00780
F007C0
7C0FE0
3FFFF0
1FFC70
07F020
ENDCHAR
STARTCHAR 0027
ENCODING 39
SWIDTH 230 0
DWIDTH 8 0
BBX 3 6 2 19
BITMAP
E0
E0
E0
E0
E0
E0
ENDCHAR
STARTCHAR 0028
ENCODING 40
SWIDTH 432 0
DWIDTH 15 0
BBX 8 36 5 -7
BITMAP
02
07
0F
0E
1E
1C
38
38
70
70
70
60
E0
E0
E0
E0
E0
E0
E0
E0
E0
E0
E0
E0
70
70
70
38
38
3C
1C
1E
0E
07
07
02
ENDCHAR
STARTCHAR 0029
ENCODING 41
SWIDTH 432 0
DWIDTH 15 0
BBX 8 35 2 -7
BITMAP
40
E0
F0
70
78
38
1C
1C
0E
0E
0E
06
07
07
07
07
07
07
07
07
07
07
07
07
0E
0E
0E
1E
1C
3C
38
78
70
E0
E0
ENDCHAR
STARTCHAR 002A
ENCODING 42
SWIDTH 432 0
DWIDTH 15 0
BBX 12 12 1 13
BITMAP
0700
0700
0700
6730
FFF0
FFF0
1F80
0F80
1FC0
39C0
38C0
1080
ENDCHAR
STARTCHAR 002B
ENCODING 43
SWIDTH 576 0
DWIDTH 20 0
BBX 16 16 2 5
BITMAP
0180
0180
0180
0180
0180
0180
0180
FFFF
FFFF
FFFF
0180
0180
0180
0180
0180
0180
ENDCHAR
STARTCHAR 002C
ENCODING 44
SWIDTH 288 0
DWIDTH 10 0
BBX 3 8 2 -4
BITMAP
E0
E0
E0
E0
20
20
60
C0
ENDCHAR
STARTCHAR 002D
ENCODING 45
SWIDTH 432 0
DWIDTH 15 0
BBX 11 3 2 9
BITMAP
FFE0
FFE0
FFE0
ENDCHAR
STARTCHAR 002E
ENCODING 46
SWIDTH 259 0
DWIDTH 9 0
BBX 3 3 3 0
BITMAP
E0
E0
E0
ENDCHAR
STARTCHAR 002F
ENCODING 47
SWIDTH 403 0
DWIDTH 14 0
BBX 10 25 2 0
BITMAP
01C0
0380
0380
0380
0380
0700
0700
0700
0F00
0E00
0E00
0E00
1E00
1C00
1C00
1C00
3800
3800
3800
3800
7000
7000
7000
F000
E000
ENDCHAR
STARTCHAR 0030
ENCODING 48
SWIDTH 633 0
DWIDTH 22 0
BBX 17 25 2 0
BITMAP
03F000
0FFC00
1FFE00
3E1F00
780700
700780
700380
F00380
F00380
F00380
F00380
F00380
F00380
F00380
F00380
F00380
F00380
F00380
700380
700780
780700
3C1F00
1FFE00
0FFC00
03F000
ENDCHAR
STARTCHAR 0031
ENCODING 49
SWIDTH 403 0
DWIDTH 14 0
BBX 8 25 2 0
BITMAP
0F
3F
7F
FF
E7
87
07
07
07
07
07
07
07
07
07
07
07
07
07
07
07
07
07
07
07
ENDCHAR
STARTCHAR 0032
ENCODING 50
SWIDTH 576 0
DWIDTH 20 0
BBX 16 25 2 0
BITMAP
07E0
1FF8
3FFC
7C3E
700F
F007
E007
E007
0007
0007
0007
000F
001E
003C
0078
01F0
03E0
07C0
0F80
1E00
3C00
7800
FFFF
FFFF
FFFF
ENDCHAR
STARTCHAR 0033
ENCODING 51
SWIDTH 576 0
DWIDTH 20 0
BBX 16 25 1 0
BITMAP
7FFF
7FFF
7FFF
000F
001E
0078
00F0
01E0
03C0
07C0
0FF8
07FC
001E
000F
0007
0007
0007
0007
0007
F007
700F
7C1E
3FFC
1FF8
07E0
ENDCHAR
STARTCHAR 0034
ENCODING 52
SWIDTH 604 0
DWIDTH 21 0
BBX 17 25 2 0
BITMAP
00E000
01E000
01C000
03C000
038000
078000
070000
0F0000
0E0000
1E0000
1C1C00
3C1C00
381C00
781C00
701C00
701C00
F01C00
FFFF80
FFFF80
FFFF80
001C00
001C00
001C00
001C00
001C00
ENDCHAR
STARTCHAR 0035
ENCODING 53
SWIDTH 576 0
DWIDTH 20 0
BBX 16 25 2 0
BITMAP
7FFE
7FFE
7FFE
7000
7000
7000
7000
7000
7000
73E0
7FF8
7FFC
783E
300F
0007
0007
0007
0007
2007
E007
F00E
7C3E
3FFC
1FF8
07E0
ENDCHAR
STARTCHAR 0036
ENCODING 54
SWIDTH 633 0
DWIDTH 22 0
BBX 17 25 2 0
BITMAP
03F000
0FFC00
1FFE00
3E0F00
780600
700000
700000
F00000
F00000
F1F000
F7FC00
FFFE00
FC0F00
F80780
F00380
F00380
F00380
F00380
700380
700380
780780
3E1F00
1FFE00
0FFC00
03F000
ENDCHAR
STARTCHAR 0037
ENCODING 55
SWIDTH 518 0
DWIDTH 18 0
BBX 15 25 1 0
BITMAP
FFFE
FFFE
FFFE
000E
001C
001C
003C
0038
0078
0070
0070
00F0
00E0
01E0
01C0
01C0
03C0
0380
0780
0700
0700
0F00
0E00
1E00
1C00
ENDCHAR
STARTCHAR 0038
ENCODING 56
SWIDTH 604 0
DWIDTH 21 0
BBX 16 25 2 0
BITMAP
07E0
1FF8
3FFC
7C1E
780E
700F
700F
700F
780E
7C1E
3FFC
1FF8
3FFC
7C1E
700F
F007
E007
E007
E007
F007
700F
7C1E
3FFE
1FF8
07E0
ENDCHAR
STARTCHAR 0039
ENCODING 57
SWIDTH 633 0
DWIDTH 22 0
BBX 17 25 2 0
BITMAP
03F000
0FF800
3FFE00
3C1F00
780F00
700780
E00380
E00380
E00380
E00380
F00780
780780
7C1F80
3FFF80
1FFB80
07E380
000380
000380
000380
000780
100F00
3C1F00
3FFE00
1FFC00
07F000
ENDCHAR
STARTCHAR 003A
ENCODING 58
SWIDTH 316 0
DWIDTH 11 0
BBX 3 13 4 3
BITMAP
E0
E0
E0
00
00
00
00
00
00
00
E0
E0
E0
ENDCHAR
STARTCHAR 003B
ENCODING 59
SWIDTH 316 0
DWIDTH 11 0
BBX 3 23 4 -4
BITMAP
E0
E0
E0
00
00
00
00
00
00
00
00
00
00
00
00
E0
E0
E0
E0
20
60
E0
C0
ENDCHAR
STARTCHAR 003C
ENCODING 60
SWIDTH 633 0
DWIDTH 22 0
BBX 10 16 5 3
BITMAP
0080
01C0
0380
0700
0E00
1C00
3800
7000
F000
7800
3C00
1E00
0F00
0780
03C0
0180
ENDCHAR
STARTCHAR 003D
ENCODING 61
SWIDTH 748 0
DWIDTH 26 0
BBX 18 9 4 8
BITMAP
FFFFC0
FFFFC0
FFFFC0
000000
000000
000000
FFFFC0
FFFFC0
FFFFC0
ENDCHAR
STARTCHAR 003E
ENCODING 62
SWIDTH 633 0
DWIDTH 22 0
BBX 9 16 7 3
BITMAP
4000
E000
F000
7800
3C00
1E00
0F00
0780
0380
0700
0E00
1C00
3800
7000
E000
4000
ENDCHAR
STARTCHAR 003F
ENCODING 63
SWIDTH 547 0
DWIDTH 19 0
BBX 15 25 2 0
BITMAP
0FC0
3FF0
7FF8
783C
F01C
E01E
E01E
001E
001E
001C
003C
00F8
01F0
03E0
0380
0780
0780
0700
0000
0000
0000
0700
0700
0700
0700
ENDCHAR
STARTCHAR 0040
ENCODING 64
SWIDTH 892 0
DWIDTH 31 0
BBX 26 27 3 -4
BITMAP
00080000
01FFE000
07FFF000
0F80FC00
1E001E00
3C000F00
38000700
70000380
703EC380
E0FFC180
E0FFC1C0
E1C1C1C0
E1C1C1C0
C181C1C0
E181C1C0
E1C1C180
E1E3E380
E0FFFF80
707F7F00
70083E00
38000000
3C000000
1E000000
0F80C000
07FFE000
01FFC000
00080000
ENDCHAR
STARTCHAR 0041
ENCODING 65
SWIDTH 633 0
DWIDTH 22 0
BBX 21 25 1 0
BITMAP
00F800
00F800
01F800
01FC00
01DC00
039C00
039E00
038E00
070E00
070F00
070700
0E0700
0E0780
0E0380
1C0380
1C03C0
1FFFC0
3FFFC0
3FFFE0
3800E0
7000E0
7000F0
700070
E00070
E00078
ENDCHAR
STARTCHAR 0042
ENCODING 66
SWIDTH 604 0
DWIDTH 21 0
BBX 18 25 2 0
BITMAP
FFF800
FFFE00
FFFF00
F00F80
F00780
F00380
F00380
F00380
F00780
F00F00
FFFF00
FFFE00
FFFF00
F00780
F003C0
F001C0
F001C0
F001C0
F001C0
F001C0
F003C0
F007C0
FFFF80
FFFF00
FFFC00
ENDCHAR
STARTCHAR 0043
ENCODING 67
SWIDTH 720 0
DWIDTH 25 0
BBX 23 25 1 0
BITMAP
00FE00
07FFC0
0FFFE0
1F01F0
3E0078
3C003C
78001C
70001E
F00010
F00000
E00000
E00000
E00000
E00000
E00000
F00000
F00010
70001E
78001C
38003C
3E0078
1F01F0
0FFFE0
07FFC0
00FE00
ENDCHAR
STARTCHAR 0044
ENCODING 68
SWIDTH 691 0
DWIDTH 24 0
BBX 20 25 2 0
BITMAP
FFF800
FFFE00
FFFF00
F00F80
F003C0
F001E0
F000E0
F000E0
F000F0
F000F0
F00070
F00070
F00070
F00070
F00070
F00070
F000F0
F000E0
F000E0
F001E0
F003C0
F00F80
FFFF00
FFFE00
FFF800
ENDCHAR
STARTCHAR 0045
ENCODING 69
SWIDTH 576 0
DWIDTH 20 0
BBX 16 25 2 0
BITMAP
FFFF
FFFF
FFFF
F000
F000
F000
F000
F000
F000
F000
F000
FFFC
FFFC
FFFC
F000
F000
F000
F000
F000
F000
F000
F000
FFFF
FFFF
FFFF
ENDCHAR
STARTCHAR 0046
ENCODING 70
SWIDTH 518 0
DWIDTH 18 0
BBX 15 25 2 0
BITMAP
FFFE
FFFE
FFFE
F000
F000
F000
F000
F000
F000
F000
F000
FFF8
FFF8
FFF8
F000
F000
F000
F000
F000
F000
F000
F000
F000
F000
F000
ENDCHAR
STARTCHAR 0047
ENCODING 71
SWIDTH 720 0
DWIDTH 25 0
BBX 23 25 1 0
BITMAP
00FE00
07FFC0
0FFFE0
1F01F0
3E00F8
380078
78003C
700000
F00000
F00000
E00000
E00000
E003FE
E003FE
E003FE
F0001E
F0001C
70001C
78003C
3C0038
3E0078
1F01F0
0FFFE0
03FFC0
00FE00
ENDCHAR
STARTCHAR 0048
ENCODING 72
SWIDTH 691 0
DWIDTH 24 0
BBX 20 25 2 0
BITMAP
F00070
F00070
F00070
F00070
F00070
F00070
F00070
F00070
F00070
F00070
F00070
FFFFF0
FFFFF0
FFFFF0
F00070
F00070
F00070
F00070
F00070
F00070
F00070
F00070
F00070
F00070
F00070
ENDCHAR
STARTCHAR 0049
ENCODING 73
SWIDTH 259 0
DWIDTH 9 0
BBX 3 25 3 0
BITMAP
E0
E0
E0
E0
E0
E0
E0
E0
E0
E0
E0
E0
E0
E0
E0
E0
E0
E0
E0
E0
E0
E0
E0
E0
E0
ENDCHAR
STARTCHAR 004A
ENCODING 74
SWIDTH 489 0
DWIDTH 17 0
BBX 14 25 0 0
BITMAP
001C
001C
001C
001C
001C
001C
001C
001C
001C
001C
001C
001C
001C
001C
001C
001C
001C
001C
001C
603C
F038
7878
7FF0
3FE0
0FC0
ENDCHAR
STARTCHAR 004B
ENCODING 75
SWIDTH 604 0
DWIDTH 21 0
BBX 19 25 2 0
BITMAP
F003C0
F00780
F00F00
F01E00
F03C00
F07800
F0F000
F1E000
F1C000
F38000
F78000
FF0000
FE0000
FF0000
F78000
F3C000
F1E000
F0F000
F07800
F03C00
F01E00
F00F00
F00780
F003C0
F001E0
ENDCHAR
STARTCHAR 004C
ENCODING 76
SWIDTH 518 0
DWIDTH 18 0
BBX 14 25 3 0
BITMAP
E000
E000
E000
E000
E000
E000
E000
E000
E000
E000
E000
E000
E000
E000
E000
E000
E000
E000
E000
E000
E000
E000
FFFC
FFFC
FFFC
ENDCHAR
STARTCHAR 004D
ENCODING 77
SWIDTH 835 0
DWIDTH 29 0
BBX 25 25 2 0
BITMAP
E0000380
F0000780
F0000780
F8000F80
F8000F80
FC001F80
FC001F80
EE001F80
EE003B80
E7003B80
E7007380
E3807380
E380E380
E3C0E380
E1C1C380
E1E1C380
E0E38380
E0F38380
E0778380
E0770380
E03F0380
E03E0380
E01E0380
E01C0380
E00C0380
ENDCHAR
STARTCHAR 004E
ENCODING 78
SWIDTH 691 0
DWIDTH 24 0
BBX 20 25 2 0
BITMAP
F00070
F80070
F80070
FC0070
FE0070
FE0070
FF0070
F78070
F38070
F3C070
F1E070
F0E070
F0F070
F07870
F03870
F03C70
F01E70
F00E70
F00F70
F007F0
F003F0
F003F0
F001F0
F000F0
F000F0
ENDCHAR
STARTCHAR 004F
ENCODING 79
SWIDTH 720 0
DWIDTH 25 0
BBX 23 25 1 0
BITMAP
00FE00
07FFC0
0FFFE0
1F01F0
3E0078
3C003C
78001C
70001E
F0000E
F0000E
E0000E
E0000E
E0000E
E0000E
E0000E
F0000E
F0000E
70001E
78001C
38003C
3E0078
1F01F0
0FFFE0
07FFC0
00FF00
ENDCHAR
STARTCHAR 0050
ENCODING 80
SWIDTH 604 0
DWIDTH 21 0
BBX 18 25 2 0
BITMAP
FFFC00
FFFE00
FFFF80
F00780
F003C0
F001C0
F001C0
F001C0
F001C0
F001C0
F001C0
F003C0
F00780
FFFF00
FFFE00
FFF800
F00000
F00000
F00000
F00000
F00000
F00000
F00000
F00000
F00000
ENDCHAR
STARTCHAR 0051
ENCODING 81
SWIDTH 720 0
DWIDTH 25 0
BBX 23 25 1 0
BITMAP
00FE00
07FFC0
0FFFE0
1F01F0
3E0078
3C003C
78001C
70001E
F0000E
F0000E
E0000E
E0000E
E0000E
E0000E
E0000E
F0000E
F0000E
70019E
7803DC
3801FC
3E00F8
1F01FC
0FFFFE
07FFCE
00FE04
ENDCHAR
STARTCHAR 0052
ENCODING 82
SWIDTH 633 0
DWIDTH 22 0
BBX 19 25 2 0
BITMAP
FFFC00
FFFE00
FFFF80
F00780
F003C0
F001C0
F001C0
F001C0
F001C0
F001C0
F001C0
F003C0
F00780
FFFF00
FFFE00
FFFC00
F01E00
F00E00
F00F00
F00700
F00780
F00380
F003C0
F001C0
F001E0
ENDCHAR
STARTCHAR 0053
ENCODING 83
SWIDTH 633 0
DWIDTH 22 0
BBX 20 25 1 0
BITMAP
03F800
0FFF00
1FFF80
3E07C0
3803E0
7801E0
7000E0
780080
780000
3E0000
1FC000
0FFC00
03FF00
003FC0
0007E0
0001E0
0000F0
2000F0
F000F0
7800E0
7801E0
3E03E0
1FFFC0
0FFF00
01FC00
ENDCHAR
STARTCHAR 0054
ENCODING 84
SWIDTH 604 0
DWIDTH 21 0
BBX 20 25 0 0
BITMAP
FFFFF0
FFFFF0
FFFFF0
007000
007000
007000
007000
007000
007000
007000
007000
007000
007000
007000
007000
007000
007000
007000
007000
007000
007000
007000
007000
007000
007000
ENDCHAR
STARTCHAR 0055
ENCODING 85
SWIDTH 720 0
DWIDTH 25 0
BBX 20 25 2 0
BITMAP
F00070
F00070
F00070
F00070
F00070
F00070
F00070
F00070
F00070
F00070
F00070
F00070
F00070
F00070
F00070
F00070
F00070
700070
7000F0
7800E0
3C01E0
3E07C0
1FFF80
07FF00
01FC00
ENDCHAR
STARTCHAR 0056
ENCODING 86
SWIDTH 604 0
DWIDTH 21 0
BBX 21 25 0 0
BITMAP
F00038
700078
700070
780070
3800F0
3800E0
3C00E0
1C01E0
1C01C0
1E01C0
0E03C0
0E0380
0F0380
070780
070700
078700
038F00
038E00
03CE00
01DE00
01DC00
01FC00
00FC00
00F800
00F800
ENDCHAR
STARTCHAR 0057
ENCODING 87
SWIDTH 950 0
DWIDTH 33 0
BBX 31 25 1 0
BITMAP
E003800E
E007C00E
E007C01E
7007C01C
7007C01C
700FE01C
780EE03C
380EE038
381EE038
381C7038
1C1C7070
1C1C7070
1C387870
1E3838F0
0E3838E0
0E7838E0
0E701CE0
07701DC0
07701DC0
07E00FC0
07E00F80
03E00F80
03E00F80
03C00780
01C00700
ENDCHAR
STARTCHAR 0058
ENCODING 88
SWIDTH 633 0
DWIDTH 22 0
BBX 20 25 1 0
BITMAP
F000F0
7001E0
7801C0
3C03C0
1C0780
1E0700
0F0F00
071E00
079C00
03FC00
01F800
01F000
00F000
01F000
03F800
03BC00
079E00
0F1E00
0E0F00
1E0780
3C0780
3803C0
7801E0
F001E0
E000F0
ENDCHAR
STARTCHAR 0059
ENCODING 89
SWIDTH 576 0
DWIDTH 20 0
BBX 20 25 0 0
BITMAP
F000F0
7001E0
7801E0
3C03C0
1C0380
1E0780
0E0700
0F0F00
079E00
079C00
03FC00
01F800
01F800
00F000
00F000
00F000
00F000
00F000
00F000
00F000
00F000
00F000
00F000
00F000
00F000
ENDCHAR
STARTCHAR 005A
ENCODING 90
SWIDTH 633 0
DWIDTH 22 0
BBX 18 25 2 0
BITMAP
FFFFC0
FFFFC0
FFFF80
000700
000F00
001E00
001E00
003C00
003800
007800
00F000
00E000
01E000
03C000
03C000
078000
070000
0F0000
1E0000
1E0000
3C0000
380000
7FFFC0
FFFFC0
FFFFC0
ENDCHAR
STARTCHAR 005B
ENCODING 91
SWIDTH 403 0
DWIDTH 14 0
BBX 7 39 5 -8
BITMAP
FE
FE
FE
E0
E0
E0
E0
E0
E0
E0
E0
E0
E0
E0
E0
E0
E0
E0
E0
E0
E0
E0
E0
E0
E0
E0
E0
E0
E0
E0
E0
E0
E0
E0
E0
E0
FE
FE
FE
ENDCHAR
STARTCHAR 005C
ENCODING 92
SWIDTH 403 0
DWIDTH 14 0
BBX 10 25 2 0
BITMAP
E000
F000
7000
7000
7000
3800
3800
3800
3800
1C00
1C00
1C00
1E00
0E00
0E00
0E00
0F00
0700
0700
0700
0380
0380
0380
0380
01C0
ENDCHAR
STARTCHAR 005D
ENCODING 93
SWIDTH 403 0
DWIDTH 14 0
BBX 6 39 3 -8
BITMAP
FC
FC
FC
0C
0C
0C
0C
0C
0C
0C
0C
0C
0C
0C
0C
0C
0C
0C
0C
0C
0C
0C
0C
0C
0C
0C
0C
0C
0C
0C
0C
0C
0C
0C
0C
0C
FC
FC
FC
ENDCHAR
STARTCHAR 005E
ENCODING 94
SWIDTH 662 0
DWIDTH 23 0
BBX 16 10 4 15
BITMAP
0180
03C0
07E0
0FF0
1E78
3C3C
781E
F00F
E007
4002
ENDCHAR
STARTCHAR 005F
ENCODING 95
SWIDTH 662 0
DWIDTH 23 0
BBX 23 3 0 -4
BITMAP
FFFFFE
FFFFFE
FFFFFE
ENDCHAR
STARTCHAR 0060
ENCODING 96
SWIDTH 518 0
DWIDTH 18 0
BBX 4 6 6 28
BITMAP
C0
E0
60
70
30
30
ENDCHAR
STARTCHAR 0061
ENCODING 97
SWIDTH 576 0
DWIDTH 20 0
BBX 16 19 1 0
BITMAP
03F0
0FFC
3FFE
3C0F
7807
1007
0007
00FF
0FFF
3FFF
7E07
7007
F007
E007
F00F
701F
7FFB
3FF3
0FC0
ENDCHAR
STARTCHAR 0062
ENCODING 98
SWIDTH 604 0
DWIDTH 21 0
BBX 17 25 2 0
BITMAP
F00000
F00000
F00000
F00000
F00000
F00000
F3F000
FFFC00
FFFE00
FC1F00
F80700
F00780
F00380
E00380
E00380
E00380
E00380
E00380
F00380
F00780
F80700
FC1F00
FFFE00
EFFC00
E3F000
ENDCHAR
STARTCHAR 0063
ENCODING 99
SWIDTH 547 0
DWIDTH 19 0
BBX 17 19 1 0
BITMAP
03F000
0FFE00
1FFF00
3E0F00
780780
780380
700000
700000
F00000
F00000
F00000
700000
700000
780300
780780
3E0F00
1FFF00
0FFE00
03F000
ENDCHAR
STARTCHAR 0064
ENCODING 100
SWIDTH 604 0
DWIDTH 21 0
BBX 17 25 1 0
BITMAP
000380
000380
000380
000380
000380
000380
03F380
0FFB80
1FFF80
3C0F80
780780
780380
700380
700380
F00180
F00180
F00180
700380
700380
780380
780780
3C0F80
1FFF80
0FF980
03F180
ENDCHAR
STARTCHAR 0065
ENCODING 101
SWIDTH 604 0
DWIDTH 21 0
BBX 18 19 1 0
BITMAP
03F800
0FFE00
1FFF00
3C0F00
380380
780380
7001C0
7001C0
FFFFC0
FFFFC0
F00000
F00000
700000
700100
780380
3E0F80
1FFF00
0FFE00
03F800
ENDCHAR
STARTCHAR 0066
ENCODING 102
SWIDTH 374 0
DWIDTH 13 0
BBX 11 25 1 0
BITMAP
03E0
0FE0
0FE0
1E00
1C00
1C00
FFE0
FFE0
FFE0
1C00
1C00
1C00
1C00
1C00
1C00
1C00
1C00
1C00
1C00
1C00
1C00
1C00
1C00
1C00
1C00
ENDCHAR
STARTCHAR 0067
ENCODING 103
SWIDTH 604 0
DWIDTH 21 0
BBX 17 27 1 -8
BITMAP
03F180
0FFD80
1FFF80
3C0F80
780780
780380
700380
700380
F00180
F00180
F00180
700380
700380
780380
780780
3C0F80
1FFF80
0FFF80
03F380
000380
000380
000380
380780
3E0F00
1FFF00
0FFE00
03F800
ENDCHAR
STARTCHAR 0068
ENCODING 104
SWIDTH 604 0
DWIDTH 21 0
BBX 17 25 2 0
BITMAP
E00000
E00000
E00000
E00000
E00000
E00000
E3F000
E7FC00
FFFE00
FC1F00
F80F00
F00700
F00780
F00380
F00380
F00380
F00380
F00380
F00380
F00380
F00380
F00380
F00380
F00380
F00380
ENDCHAR
STARTCHAR 0069
ENCODING 105
SWIDTH 259 0
DWIDTH 9 0
BBX 3 25 3 0
BITMAP
E0
E0
E0
00
00
00
E0
E0
E0
E0
E0
E0
E0
E0
E0
E0
E0
E0
E0
E0
E0
E0
E0
E0
E0
ENDCHAR
STARTCHAR 006A
ENCODING 106
SWIDTH 259 0
DWIDTH 9 0
BBX 7 33 0 -8
BITMAP
1E
1E
1E
00
00
00
1E
1E
1E
1E
1E
1E
1E
1E
1E
1E
1E
1E
1E
1E
1E
1E
1E
1E
1E
1E
1E
1E
1E
1C
FC
FC
F0
ENDCHAR
STARTCHAR 006B
ENCODING 107
SWIDTH 518 0
DWIDTH 18 0
BBX 16 25 2 0
BITMAP
F000
F000
F000
F000
F000
F000
F01E
F03C
F078
F0F0
F0E0
F1E0
F3C0
F780
FF00
FE00
FF00
F780
F3C0
F1E0
F0F0
F078
F03C
F01E
F00F
ENDCHAR
STARTCHAR 006C
ENCODING 108
SWIDTH 259 0
DWIDTH 9 0
BBX 3 25 3 0
BITMAP
E0
E0
E0
E0
E0
E0
E0
E0
E0
E0
E0
E0
E0
E0
E0
E0
E0
E0
E0
E0
E0
E0
E0
E0
E0
ENDCHAR
STARTCHAR 006D
ENCODING 109
SWIDTH 864 0
DWIDTH 30 0
BBX 26 19 2 0
BITMAP
E3E07C00
EFF9FF00
FFFFFF80
F83F0780
F01E03C0
F01E01C0
F00E01C0
F00E01C0
F00E01C0
F00E01C0
F00E01C0
F00E01C0
F00E01C0
F00E01C0
F00E01C0
F00E01C0
F00E01C0
F00E01C0
F00E01C0
ENDCHAR
STARTCHAR 006E
ENCODING 110
SWIDTH 604 0
DWIDTH 21 0
BBX 17 19 2 0
BITMAP
E3F000
E7FC00
FFFE00
FC1F00
F80F00
F00700
F00780
F00380
F00380
F00380
F00380
F00380
F00380
F00380
F00380
F00380
F00380
F00380
F00380
ENDCHAR
STARTCHAR 006F
ENCODING 111
SWIDTH 604 0
DWIDTH 21 0
BBX 18 19 1 0
BITMAP
03F800
0FFE00
1FFF00
3E0F80
780380
7803C0
7001C0
7001C0
F001C0
F001C0
F001C0
7001C0
7001C0
7803C0
780780
3E0F80
1FFF00
0FFE00
03F800
ENDCHAR
STARTCHAR 0070
ENCODING 112
SWIDTH 604 0
DWIDTH 21 0
BBX 17 27 2 -8
BITMAP
E3F000
EFFC00
FFFE00
FC1F00
F80700
F00780
F00380
E00380
E00380
E00380
E00380
E00380
F00380
F00780
F80700
FC1F00
FFFE00
FFFC00
F3F000
F00000
F00000
F00000
F00000
F00000
F00000
F00000
F00000
ENDCHAR
STARTCHAR 0071
ENCODING 113
SWIDTH 604 0
DWIDTH 21 0
BBX 17 27 1 -8
BITMAP
03F180
0FFD80
1FFF80
3C0F80
780780
780380
700380
700380
F00180
F00180
F00180
700380
700380
780380
780780
3C0F80
1FFF80
0FFB80
03F380
000380
000380
000380
000380
000380
000380
000380
000380
ENDCHAR
STARTCHAR 0072
ENCODING 114
SWIDTH 374 0
DWIDTH 13 0
BBX 10 19 2 0
BITMAP
E3C0
E7C0
EFC0
FC00
F800
F000
F000
F000
F000
F000
F000
F000
F000
F000
F000
F000
F000
F000
F000
ENDCHAR
STARTCHAR 0073
ENCODING 115
SWIDTH 518 0
DWIDTH 18 0
BBX 15 19 2 0
BITMAP
0FC0
3FF8
7FFC
F03C
E01E
E00C
F000
7C00
3FC0
0FF8
01FC
003E
000E
E00E
E00E
F01E
7FFC
3FF8
0FE0
ENDCHAR
STARTCHAR 0074
ENCODING 116
SWIDTH 403 0
DWIDTH 14 0
BBX 13 24 0 0
BITMAP
0E00
0E00
0E00
0E00
0E00
FFF8
FFF8
FFF8
0E00
0E00
0E00
0E00
0E00
0E00
0E00
0E00
0E00
0E00
0E00
0E00
0F00
07F8
03F8
01F8
ENDCHAR
STARTCHAR 0075
ENCODING 117
SWIDTH 604 0
DWIDTH 21 0
BBX 17 19 2 0
BITMAP
E00780
E00780
E00780
E00780
E00780
E00780
E00780
E00780
E00780
E00780
E00780
E00780
F00780
F00780
780F80
7C1F80
3FFB80
1FF380
07E380
ENDCHAR
STARTCHAR 0076
ENCODING 118
SWIDTH 518 0
DWIDTH 18 0
BBX 16 19 1 0
BITMAP
E007
E007
700F
700E
700E
381C
381C
381C
1C38
1C38
1E38
0E70
0E70
0770
07E0
07E0
03E0
03C0
03C0
ENDCHAR
STARTCHAR 0077
ENCODING 119
SWIDTH 777 0
DWIDTH 27 0
BBX 25 19 1 0
BITMAP
E01C0380
E01C0380
F03E0380
703E0700
703E0700
70770700
38770E00
38770E00
38630E00
1CE39C00
1CE39C00
1CC19C00
1FC1DC00
0FC1F800
0F80F800
0F80F800
0780F000
07007000
07007000
ENDCHAR
STARTCHAR 0078
ENCODING 120
SWIDTH 547 0
DWIDTH 19 0
BBX 17 19 1 0
BITMAP
F00780
700F00
780E00
3C1C00
1E3C00
0E7800
0F7000
07E000
03E000
03C000
03E000
07F000
0F7000
1E3800
1C3C00
3C1E00
780E00
F00F00
E00780
ENDCHAR
STARTCHAR 0079
ENCODING 121
SWIDTH 547 0
DWIDTH 19 0
BBX 17 27 1 -8
BITMAP
E00380
E00380
700700
700700
780F00
380E00
380E00
1C1C00
1C1C00
1E1C00
0E3800
0E3800
077800
077000
07F000
03E000
03E000
01E000
01C000
01C000
03C000
038000
038000
070000
070000
070000
0E0000
ENDCHAR
STARTCHAR 007A
ENCODING 122
SWIDTH 518 0
DWIDTH 18 0
BBX 16 19 1 0
BITMAP
7FFF
7FFE
7FFE
001C
0038
0070
00F0
00E0
01C0
03C0
0780
0700
0E00
1E00
1C00
3800
7FFE
FFFE
FFFE
ENDCHAR
STARTCHAR 007B
ENCODING 123
SWIDTH 432 0
DWIDTH 15 0
BBX 8 39 5 -8
BITMAP
0F
1F
3F
38
38
38
38
38
38
38
38
38
38
38
38
38
38
70
F0
E0
F0
70
38
38
38
38
38
38
38
38
38
38
38
38
38
38
3F
1F
0F
ENDCHAR
STARTCHAR 007C
ENCODING 124
SWIDTH 259 0
DWIDTH 9 0
BBX 3 25 3 0
BITMAP
E0
E0
E0
E0
E0
E0
E0
E0
E0
E0
E0
E0
E0
E0
E0
E0
E0
E0
E0
E0
E0
E0
E0
E0
E0
ENDCHAR
STARTCHAR 007D
ENCODING 125
SWIDTH 432 0
DWIDTH 15 0
BBX 9 39 1 -8
BITMAP
F800
FC00
FE00
0E00
0E00
0E00
0E00
0E00
0E00
0E00
0E00
0E00
0E00
0E00
0E00
0E00
0E00
0F00
0780
0380
0780
0F00
0E00
0E00
0E00
0E00
0E00
0E00
0E00
0E00
0E00
0E00
0E00
0E00
0E00
0E00
FE00
FC00
F800
ENDCHAR
STARTCHAR 007E
ENCODING 126
SWIDTH 691 0
DWIDTH 24 0
BBX 16 6 4 8
BITMAP
3C0E
7F07
FFCF
F7FE
E1FE
E07C
ENDCHAR
STARTCHAR 00A0
ENCODING 160
SWIDTH 201 0
DWIDTH 7 0
BBX 0 0 0 0
BITMAP
ENDCHAR
STARTCHAR 00A1
ENCODING 161
SWIDTH 316 0
DWIDTH 11 0
BBX 3 25 4 -6
BITMAP
E0
E0
E0
00
00
00
E0
E0
E0
E0
E0
E0
E0
E0
E0
E0
E0
E0
E0
E0
E0
E0
E0
E0
E0
ENDCHAR
STARTCHAR 00A2
ENCODING 162
SWIDTH 547 0
DWIDTH 19 0
BBX 17 26 1 -1
BITMAP
00E000
00E000
00E000
01F000
0FFC00
1FFE00
3E1F00
3C0780
780380
700000
700000
F00000
F00000
F00000
F00000
700000
700000
780380
380780
3E0F00
1FFF00
0FFC00
03F000
00E000
00E000
00E000
ENDCHAR
STARTCHAR 00A3
ENCODING 163
SWIDTH 576 0
DWIDTH 20 0
BBX 17 25 1 0
BITMAP
00F800
03FE00
07FF00
078700
0F0380
0E0380
0E0100
0E0000
0E0000
0E0000
0E0000
FFF800
FFF800
FFF800
0E0000
0E0000
0E0000
0E0000
0E0000
0E0000
0E0000
1E0000
FFFF00
FFFF00
FFFF00
ENDCHAR
STARTCHAR 00A4
ENCODING 164
SWIDTH 662 0
DWIDTH 23 0
BBX 20 21 1 2
BITMAP
000020
607070
F3FEF0
7FFFE0
3F07C0
1C03C0
3801E0
3800E0
7000E0
700060
700060
700060
7000E0
3800E0
3801E0
1C03C0
3F07C0
7FFFE0
FBFEF0
707070
000020
ENDCHAR
STARTCHAR 00A5
ENCODING 165
SWIDTH 576 0
DWIDTH 20 0
BBX 20 25 0 0
BITMAP
F000F0
7001E0
7801E0
3C03C0
1C0380
1E0780
0E0700
0F0F00
079E00
079C00
03FC00
01F800
01F800
1FFF80
1FFF80
1FFF80
00F000
00F000
1FFF80
1FFF80
1FFF80
00F000
00F000
00F000
00F000
ENDCHAR
STARTCHAR 00A6
ENCODING 166
SWIDTH 259 0
DWIDTH 9 0
BBX 3 31 3 -6
BITMAP
E0
E0
E0
E0
E0
E0
E0
E0
E0
E0
E0
E0
E0
00
00
00
00
00
E0
E0
E0
E0
E0
E0
E0
E0
E0
E0
E0
E0
E0
ENDCHAR
STARTCHAR 00A7
ENCODING 167
SWIDTH 518 0
DWIDTH 18 0
BBX 15 28 2 -5
BITMAP
0FC0
3FF0
7FF8
F078
E03C
E01C
F000
7800
7F80
1FF0
7FFC
F07E
E01E
E00E
E00E
F00E
7E1C
3FFC
0FF8
00FC
003C
001E
E01E
F01E
783C
7FFC
3FF8
0FE0
ENDCHAR
STARTCHAR 00A8
ENCODING 168
SWIDTH 518 0
DWIDTH 18 0
BBX 10 3 4 28
BITMAP
E1C0
E1C0
E1C0
ENDCHAR
STARTCHAR 00A9
ENCODING 169
SWIDTH 835 0
DWIDTH 29 0
BBX 27 26 1 -1
BITMAP
003F8000
01FFF000
03FFF800
0FC07C00
1F001E00
1E000F00
3C1F0780
787FC380
70F9E1C0
70E0E1C0
E1C041E0
E1C000E0
E1C000E0
E1C000E0
E1C000E0
E1C000E0
F0E071C0
70F0E1C0
787FC3C0
383F8780
3C000F00
1F001F00
0FC07E00
07FFF800
01FFF000
003F8000
ENDCHAR
STARTCHAR 00AA
ENCODING 170
SWIDTH 316 0
DWIDTH 11 0
BBX 9 10 1 9
BITMAP
3F00
7F00
6380
0780
7F80
6180
C380
E780
7D80
1000
ENDCHAR
STARTCHAR 00AB
ENCODING 171
SWIDTH 547 0
DWIDTH 19 0
BBX 14 15 3 2
BITMAP
0408
071C
0E38
1C70
3860
70E0
71C0
E380
E1C0
70E0
38E0
1C70
0E38
0E1C
0608
ENDCHAR
STARTCHAR 00AC
ENCODING 172
SWIDTH 604 0
DWIDTH 21 0
BBX 17 7 2 7
BITMAP
FFFF80
FFFF80
FFFF80
000380
000380
000380
000380
ENDCHAR
STARTCHAR 00AD
ENCODING 173
SWIDTH 432 0
DWIDTH 15 0
BBX 11 3 2 9
BITMAP
FFE0
FFE0
FFE0
ENDCHAR
STARTCHAR 00AE
ENCODING 174
SWIDTH 633 0
DWIDTH 22 0
BBX 18 17 2 10
BITMAP
03F000
0FFC00
1E1E00
380700
700380
73F380
631180
E311C0
E331C0
E3E1C0
632180
633180
731380
380700
1C1E00
0FFC00
07F800
ENDCHAR
STARTCHAR 00AF
ENCODING 175
SWIDTH 489 0
DWIDTH 17 0
BBX 9 3 4 29
BITMAP
FF80
FF80
FF80
ENDCHAR
STARTCHAR 00B0
ENCODING 176
SWIDTH 460 0
DWIDTH 16 0
BBX 13 12 1 13
BITMAP
0F80
3FC0
7FE0
70F0
E070
E038
E030
E070
70F0
7FE0
3FC0
0F80
ENDCHAR
STARTCHAR 00B1
ENCODING 177
SWIDTH 604 0
DWIDTH 21 0
BBX 17 17 2 2
BITMAP
01C000
01C000
01C000
01C000
FFFF80
FFFF80
FFFF80
01C000
01C000
01C000
01C000
000000
000000
000000
FFFF80
FFFF80
FFFF80
ENDCHAR
STARTCHAR 00B2
ENCODING 178
SWIDTH 403 0
DWIDTH 14 0
BBX 10 16 2 9
BITMAP
1E00
7F80
F1C0
C0C0
C0C0
00C0
00C0
01C0
0380
0700
0E00
1C00
7800
F000
FFC0
FFC0
ENDCHAR
STARTCHAR 00B3
ENCODING 179
SWIDTH 403 0
DWIDTH 14 0
BBX 11 16 1 9
BITMAP
7FC0
7FC0
01C0
0380
0700
0E00
1F00
1F80
01C0
00C0
00E0
00E0
E0C0
71C0
3F80
1F00
ENDCHAR
STARTCHAR 00B4
ENCODING 180
SWIDTH 518 0
DWIDTH 18 0
BBX 5 6 7 28
BITMAP
38
30
70
60
E0
E0
ENDCHAR
STARTCHAR 00B5
ENCODING 181
SWIDTH 604 0
DWIDTH 21 0
BBX 17 27 2 -8
BITMAP
F00380
F00380
F00380
F00380
F00380
F00380
F00380
F00380
F00380
F00380
F00380
F00380
F00780
F00780
F80F80
FC1F80
FFFF80
EFFB80
E7E380
E00000
E00000
E00000
E00000
E00000
E00000
E00000
E00000
ENDCHAR
STARTCHAR 00B6
ENCODING 182
SWIDTH 662 0
DWIDTH 23 0
BBX 19 30 2 -5
BITMAP
07F8E0
1FF8E0
3FF8E0
7FF8E0
7FF8E0
7FF8E0
FFF8E0
FFF8E0
FFF8E0
FFF8E0
7FF8E0
7FF8E0
7FF8E0
3FF8E0
1FF8E0
03F8E0
0038E0
0038E0
0038E0
0038E0
0038E0
0038E0
0038E0
0038E0
0038E0
0038E0
0038E0
0038E0
0038E0
0038E0
ENDCHAR
STARTCHAR 00B7
ENCODING 183
SWIDTH 230 0
DWIDTH 8 0
BBX 4 4 2 9
BITMAP
70
F0
F0
70
ENDCHAR
STARTCHAR 00B8
ENCODING 184
SWIDTH 403 0
DWIDTH 14 0
BBX 6 8 4 -8
BITMAP
30
30
78
3C
1C
1C
78
F8
ENDCHAR
STARTCHAR 00B9
ENCODING 185
SWIDTH 316 0
DWIDTH 11 0
BBX 5 16 2 9
BITMAP
38
F8
F8
98
18
18
18
18
18
18
18
18
18
18
18
18
ENDCHAR
STARTCHAR 00BA
ENCODING 186
SWIDTH 345 0
DWIDTH 12 0
BBX 10 10 1 9
BITMAP
1E00
3F00
6180
6180
C0C0
E0C0
6180
6180
3F00
1E00
ENDCHAR
STARTCHAR 00BB
ENCODING 187
SWIDTH 547 0
DWIDTH 19 0
BBX 14 15 2 2
BITMAP
4080
E1C0
71C0
38E0
1C70
0C38
0E1C
071C
0E1C
0E38
1C70
38E0
70E0
61C0
6180
ENDCHAR
STARTCHAR 00BC
ENCODING 188
SWIDTH 1008 0
DWIDTH 35 0
BBX 28 25 2 0
BITMAP
38000400
F8000E00
F8001E00
98001C00
18003800
18007000
1800E000
1800E000
1801C000
18038180
18070380
18070300
180E0700
181C0600
18380E00
18380C00
00701C60
00E01860
01C03860
03C03060
03807FF0
07007FF0
0E000060
0E000060
04000060
ENDCHAR
STARTCHAR 00BD
ENCODING 189
SWIDTH 950 0
DWIDTH 33 0
BBX 30 25 2 0
BITMAP
38000400
F8000E00
F8001E00
98001C00
18003800
18007000
1800E000
1800E000
1801C000
180383E0
180707F0
18070E38
180E1C18
181C181C
1838001C
18380018
00700038
00E00070
01C000E0
03C001C0
03800380
07000700
0E000E00
1E001FFC
04001FFC
ENDCHAR
STARTCHAR 00BE
ENCODING 190
SWIDTH 1008 0
DWIDTH 35 0
BBX 31 25 1 0
BITMAP
7FC00080
7FC001E0
01C001C0
03800380
07000700
0E000F00
1F000E00
1F801C00
01C03800
00C07030
00E07070
00E0E060
E0C1C0E0
71C380C0
3F8381C0
1F070180
000E038C
001C030C
003C070C
0038060C
007007FE
00E007FE
01E0000C
01C0000C
0080000C
ENDCHAR
STARTCHAR 00BF
ENCODING 191
SWIDTH 547 0
DWIDTH 19 0
BBX 15 26 2 -7
BITMAP
0380
0380
0380
0380
0000
0000
0000
0380
0380
0380
0780
0F00
1F00
3E00
7800
7000
F000
E000
E000
E00E
E01E
F01C
783C
7FF8
3FF0
0FC0
ENDCHAR
STARTCHAR 00C0
ENCODING 192
SWIDTH 633 0
DWIDTH 22 0
BBX 21 34 1 0
BITMAP
038000
018000
01C000
00C000
00E000
00E000
000000
000000
000000
00F800
00F800
01F800
01FC00
01DC00
039C00
039E00
038E00
070E00
070F00
070700
0E0700
0E0780
0E0380
1C0380
1C03C0
1FFFC0
3FFFC0
3FFFE0
3800E0
7000E0
7000F0
700070
E00070
E00078
ENDCHAR
STARTCHAR 00C1
ENCODING 193
SWIDTH 633 0
DWIDTH 22 0
BBX 21 34 1 0
BITMAP
001C00
001C00
001800
003800
003000
007000
000000
000000
000000
00F800
00F800
01F800
01FC00
01DC00
039C00
039E00
038E00
070E00
070F00
070700
0E0700
0E0780
0E0380
1C0380
1C03C0
1FFFC0
3FFFC0
3FFFE0
3800E0
7000E0
7000F0
700070
E00070
E00078
ENDCHAR
STARTCHAR 00C2
ENCODING 194
SWIDTH 633 0
DWIDTH 22 0
BBX 21 33 1 0
BITMAP
00F000
00F800
01DC00
039E00
070E00
000000
000000
000000
00F800
00F800
01F800
01FC00
01DC00
039C00
039E00
038E00
070E00
070F00
070700
0E0700
0E0780
0E0380
1C0380
1C03C0
1FFFC0
3FFFC0
3FFFE0
3800E0
7000E0
7000F0
700070
E00070
E00078
ENDCHAR
STARTCHAR 00C3
ENCODING 195
SWIDTH 633 0
DWIDTH 22 0
BBX 21 33 1 0
BITMAP
07C300
07F300
067F00
063E00
000000
000000
000000
000000
00F800
00F800
01F800
01FC00
01DC00
039C00
039E00
038E00
070E00
070F00
070700
0E0700
0E0780
0E0380
1C0380
1C03C0
1FFFC0
3FFFC0
3FFFE0
3800E0
7000E0
7000F0
700070
E00070
E00078
ENDCHAR
STARTCHAR 00C4
ENCODING 196
SWIDTH 633 0
DWIDTH 22 0
BBX 21 31 1 0
BITMAP
070E00
070E00
070E00
000000
000000
000000
00F800
00F800
01F800
01FC00
01DC00
039C00
039E00
038E00
070E00
070F00
070700
0E0700
0E0780
0E0380
1C0380
1C03C0
1FFFC0
3FFFC0
3FFFE0
3800E0
7000E0
7000F0
700070
E00070
E00078
ENDCHAR
STARTCHAR 00C5
ENCODING 197
SWIDTH 633 0
DWIDTH 22 0
BBX 21 35 1 0
BITMAP
00F000
01F800
039C00
030C00
030C00
039C00
01F800
00F000
000000
000000
00F800
00F800
01F800
01FC00
01DC00
039C00
039E00
038E00
070E00
070F00
070700
0E0700
0E0780
0E0380
1C0380
1C03C0
1FFFC0
3FFFC0
3FFFE0
3800E0
7000E0
7000F0
700070
E00070
E00078
ENDCHAR
STARTCHAR 00C6
ENCODING 198
SWIDTH 921 0
DWIDTH 32 0
BBX 29 25 1 0
BITMAP
00FFFFF8
00FFFFF8
01FFFFF8
01C38000
01C38000
03838000
03838000
03838000
07038000
07038000
07038000
0E03FFE0
0E03FFE0
0E03FFE0
1C038000
1C038000
1FFF8000
3FFF8000
3FFF8000
38038000
70038000
70038000
7003FFF8
E003FFF8
E003FFF8
ENDCHAR
STARTCHAR 00C7
ENCODING 199
SWIDTH 720 0
DWIDTH 25 0
BBX 23 33 1 -8
BITMAP
00FE00
07FFC0
0FFFE0
1F01F0
3E0078
3C003C
78001C
70001E
F00010
F00000
E00000
E00000
E00000
E00000
E00000
F00000
F00000
70001E
78001C
38003C
3E0078
1F01F0
0FFFE0
03FFC0
00FF00
001800
001800
003C00
000E00
000E00
000E00
007C00
007800
ENDCHAR
STARTCHAR 00C8
ENCODING 200
SWIDTH 576 0
DWIDTH 20 0
BBX 16 34 2 0
BITMAP
0700
0300
0380
0380
0180
01C0
0000
0000
0000
FFFF
FFFF
FFFF
F000
F000
F000
F000
F000
F000
F000
F000
FFFC
FFFC
FFFC
F000
F000
F000
F000
F000
F000
F000
F000
FFFF
FFFF
FFFF
ENDCHAR
STARTCHAR 00C9
ENCODING 201
SWIDTH 576 0
DWIDTH 20 0
BBX 16 34 2 0
BITMAP
0030
0070
0060
0060
00E0
00C0
0000
0000
0000
FFFF
FFFF
FFFF
F000
F000
F000
F000
F000
F000
F000
F000
FFFC
FFFC
FFFC
F000
F000
F000
F000
F000
F000
F000
F000
FFFF
FFFF
FFFF
ENDCHAR
STARTCHAR 00CA
ENCODING 202
SWIDTH 576 0
DWIDTH 20 0
BBX 16 33 2 0
BITMAP
03C0
03E0
0770
0E70
1C38
0000
0000
0000
FFFF
FFFF
FFFF
F000
F000
F000
F000
F000
F000
F000
F000
FFFC
FFFC
FFFC
F000
F000
F000
F000
F000
F000
F000
F000
FFFF
FFFF
FFFF
ENDCHAR
STARTCHAR 00CB
ENCODING 203
SWIDTH 576 0
DWIDTH 20 0
BBX 16 31 2 0
BITMAP
1C38
1C38
1C38
0000
0000
0000
FFFF
FFFF
FFFF
F000
F000
F000
F000
F000
F000
F000
F000
FFFC
FFFC
FFFC
F000
F000
F000
F000
F000
F000
F000
F000
FFFF
FFFF
FFFF
ENDCHAR
STARTCHAR 00CC
ENCODING 204
SWIDTH 259 0
DWIDTH 9 0
BBX 5 34 1 0
BITMAP
C0
E0
60
70
70
30
00
00
00
38
38
38
38
38
38
38
38
38
38
38
38
38
38
38
38
38
38
38
38
38
38
38
38
38
ENDCHAR
STARTCHAR 00CD
ENCODING 205
SWIDTH 259 0
DWIDTH 9 0
BBX 5 34 3 0
BITMAP
38
30
70
70
60
E0
00
00
00
E0
E0
E0
E0
E0
E0
E0
E0
E0
E0
E0
E0
E0
E0
E0
E0
E0
E0
E0
E0
E0
E0
E0
E0
E0
ENDCHAR
STARTCHAR 00CE
ENCODING 206
SWIDTH 259 0
DWIDTH 9 0
BBX 10 33 -1 0
BITMAP
0E00
1F00
3B80
71C0
E1C0
0000
0000
0000
0E00
0E00
0E00
0E00
0E00
0E00
0E00
0E00
0E00
0E00
0E00
0E00
0E00
0E00
0E00
0E00
0E00
0E00
0E00
0E00
0E00
0E00
0E00
0E00
0E00
ENDCHAR
STARTCHAR 00CF
ENCODING 207
SWIDTH 259 0
DWIDTH 9 0
BBX 10 31 -1 0
BITMAP
E1C0
E1C0
E1C0
0000
0000
0000
0E00
0E00
0E00
0E00
0E00
0E00
0E00
0E00
0E00
0E00
0E00
0E00
0E00
0E00
0E00
0E00
0E00
0E00
0E00
0E00
0E00
0E00
0E00
0E00
0E00
ENDCHAR
STARTCHAR 00D0
ENCODING 208
SWIDTH 691 0
DWIDTH 24 0
BBX 22 25 0 0
BITMAP
3FFE00
3FFF80
3FFFC0
3803E0
3800F0
380078
380078
380038
38003C
38003C
38001C
FFF01C
FFF01C
FFF01C
38001C
38003C
380038
380038
380078
380070
3800F0
3803E0
3FFFC0
3FFF80
3FFE00
ENDCHAR
STARTCHAR 00D1
ENCODING 209
SWIDTH 691 0
DWIDTH 24 0
BBX 20 32 2 0
BITMAP
03C300
07F700
067F00
061E00
000000
000000
000000
F00070
F80070
F80070
FC0070
FE0070
FE0070
FF0070
F78070
F38070
F3C070
F1E070
F0E070
F0F070
F07870
F03870
F03C70
F01E70
F00E70
F00F70
F007F0
F003F0
F003F0
F001F0
F000F0
F000F0
ENDCHAR
STARTCHAR 00D2
ENCODING 210
SWIDTH 720 0
DWIDTH 25 0
BBX 23 33 1 0
BITMAP
00E000
006000
007000
007000
003000
003800
000000
000000
00FE00
07FFC0
0FFFE0
1F01F0
3E0078
3C003C
78001C
70001E
F0000E
F0000E
E0000E
E0000E
E0000E
E0000E
E0000E
F0000E
F0000E
70001E
78001C
38003C
3E0078
1F01F0
0FFFE0
07FFC0
00FF00
ENDCHAR
STARTCHAR 00D3
ENCODING 211
SWIDTH 720 0
DWIDTH 25 0
BBX 23 33 1 0
BITMAP
000600
000E00
000C00
000C00
001C00
001800
000000
000000
00FE00
07FFC0
0FFFE0
1F01F0
3E0078
3C003C
78001C
70001E
F0000E
F0000E
E0000E
E0000E
E0000E
E0000E
E0000E
F0000E
F0000E
70001E
78001C
38003C
3E0078
1F01F0
0FFFE0
07FFC0
00FF00
ENDCHAR
STARTCHAR 00D4
ENCODING 212
SWIDTH 720 0
DWIDTH 25 0
BBX 23 32 1 0
BITMAP
003800
007C00
00EE00
01C700
038380
000000
000000
00FE00
07FFC0
0FFFE0
1F01F0
3E0078
3C003C
78001C
70001E
F0000E
F0000E
E0000E
E0000E
E0000E
E0000E
E0000E
F0000E
F0000E
70001E
78001C
38003C
3E0078
1F01F0
0FFFE0
07FFC0
00FF00
ENDCHAR
STARTCHAR 00D5
ENCODING 213
SWIDTH 720 0
DWIDTH 25 0
BBX 23 32 1 0
BITMAP
01E180
01F9C0
03BF80
038F80
000000
000000
000000
00FE00
07FFC0
0FFFE0
1F01F0
3E0078
3C003C
78001C
70001E
F0000E
F0000E
E0000E
E0000E
E0000E
E0000E
E0000E
F0000E
F0000E
70001E
78001C
38003C
3E0078
1F01F0
0FFFE0
07FFC0
00FF00
ENDCHAR
STARTCHAR 00D6
ENCODING 214
SWIDTH 720 0
DWIDTH 25 0
BBX 23 31 1 0
BITMAP
01C380
01C380
01C380
000000
000000
000000
00FE00
07FFC0
0FFFE0
1F01F0
3E0078
3C003C
78001C
70001E
F0000E
F0000E
E0000E
E0000E
E0000E
E0000E
E0000E
F0000E
F0000E
70001E
78001C
38003C
3E0078
1F01F0
0FFFE0
07FFC0
00FF00
ENDCHAR
STARTCHAR 00D7
ENCODING 215
SWIDTH 489 0
DWIDTH 17 0
BBX 13 13 2 6
BITMAP
4010
E038
7070
38E0
1DC0
0F80
0700
0F80
1DC0
38E0
7070
E038
4010
ENDCHAR
STARTCHAR 00D8
ENCODING 216
SWIDTH 720 0
DWIDTH 25 0
BBX 23 25 1 0
BITMAP
00FE04
07FFCE
0FFFFE
1F01FC
3E0078
3C007C
7800FC
7001FE
F003DE
F0078E
E00F0E
E01E0E
E03C0E
E0780E
E0F00E
F1E00E
F3C00E
77801E
7F001C
3E003C
3E0078
7F01F0
FFFFE0
F7FFC0
20FF00
ENDCHAR
STARTCHAR 00D9
ENCODING 217
SWIDTH 720 0
DWIDTH 25 0
BBX 20 34 2 0
BITMAP
01C000
00C000
00C000
00E000
006000
007000
000000
000000
000000
F00070
F00070
F00070
F00070
F00070
F00070
F00070
F00070
F00070
F00070
F00070
F00070
F00070
F00070
F00070
F00070
F00070
700070
7000F0
7800E0
3C01E0
3E07C0
1FFF80
07FF00
01FC00
ENDCHAR
STARTCHAR 00DA
ENCODING 218
SWIDTH 720 0
DWIDTH 25 0
BBX 20 34 2 0
BITMAP
001C00
001800
003800
003000
007000
007000
000000
000000
000000
F00070
F00070
F00070
F00070
F00070
F00070
F00070
F00070
F00070
F00070
F00070
F00070
F00070
F00070
F00070
F00070
F00070
700070
7000F0
7800E0
3C01E0
3E07C0
1FFF80
07FF00
01FC00
ENDCHAR
STARTCHAR 00DB
ENCODING 219
SWIDTH 720 0
DWIDTH 25 0
BBX 20 33 2 0
BITMAP
00F000
00F800
01DC00
038E00
070E00
000000
000000
000000
F00070
F00070
F00070
F00070
F00070
F00070
F00070
F00070
F00070
F00070
F00070
F00070
F00070
F00070
F00070
F00070
F00070
700070
7000F0
7800E0
3C01E0
3E07C0
1FFF80
07FF00
01FC00
ENDCHAR
STARTCHAR 00DC
ENCODING 220
SWIDTH 720 0
DWIDTH 25 0
BBX 20 31 2 0
BITMAP
070E00
070E00
070E00
000000
000000
000000
F00070
F00070
F00070
F00070
F00070
F00070
F00070
F00070
F00070
F00070
F00070
F00070
F00070
F00070
F00070
F00070
F00070
700070
7000F0
7800E0
3C01E0
3E07C0
1FFF80
07FF00
01FC00
ENDCHAR
STARTCHAR 00DD
ENCODING 221
SWIDTH 576 0
DWIDTH 20 0
BBX 20 34 0 0
BITMAP
001800
003800
003000
003000
007000
006000
000000
000000
000000
F000F0
7001E0
7801E0
3C03C0
1C0380
1E0780
0E0700
0F0F00
079E00
079C00
03FC00
01F800
01F800
00F000
00F000
00F000
00F000
00F000
00F000
00F000
00F000
00F000
00F000
00F000
00F000
ENDCHAR
STARTCHAR 00DE
ENCODING 222
SWIDTH 604 0
DWIDTH 21 0
BBX 18 25 2 0
BITMAP
F00000
F00000
F00000
F00000
F00000
FFF800
FFFE00
FFFF00
F00F80
F00380
F003C0
F001C0
F001C0
F001C0
F003C0
F00380
F00F80
FFFF00
FFFE00
FFF800
F00000
F00000
F00000
F00000
F00000
ENDCHAR
STARTCHAR 00DF
ENCODING 223
SWIDTH 604 0
DWIDTH 21 0
BBX 17 25 2 0
BITMAP
07E000
1FF800
3FFC00
783C00
701E00
F00E00
F00E00
F00E00
F01E00
F03C00
F0F800
F0F800
F0FE00
F01F00
F00700
F00780
F00380
F00380
F00380
F00380
F00780
F01F00
F3FE00
F3FC00
F3F000
ENDCHAR
STARTCHAR 00E0
ENCODING 224
SWIDTH 576 0
DWIDTH 20 0
BBX 16 27 1 0
BITMAP
0300
0380
0380
0180
01C0
00C0
0000
0000
03F0
0FFC
3FFE
3C0F
7807
1007
0007
00FF
0FFF
3FFF
7E07
7007
F007
E007
F00F
701F
7FFB
3FF3
0FC0
ENDCHAR
STARTCHAR 00E1
ENCODING 225
SWIDTH 576 0
DWIDTH 20 0
BBX 16 27 1 0
BITMAP
0030
0070
0070
0060
00E0
00C0
0000
0000
03F0
0FFC
3FFE
3C0F
7807
1007
0007
00FF
0FFF
3FFF
7E07
7007
F007
E007
F00F
701F
7FFB
3FF3
0FC0
ENDCHAR
STARTCHAR 00E2
ENCODING 226
SWIDTH 576 0
DWIDTH 20 0
BBX 16 26 1 0
BITMAP
01E0
03F0
07F8
0738
0E1C
0000
0000
03F0
0FFC
3FFE
3C0F
7807
1007
0007
00FF
0FFF
3FFF
7E07
7007
F007
E007
F00F
701F
7FFB
3FF3
0FC0
ENDCHAR
STARTCHAR 00E3
ENCODING 227
SWIDTH 576 0
DWIDTH 20 0
BBX 16 26 1 0
BITMAP
0706
0FC6
0DFE
0C7C
0000
0000
0000
03F0
0FFC
3FFE
3C0F
7807
1007
0007
00FF
0FFF
3FFF
7E07
7007
F007
E007
F00F
701F
7FFB
3FF3
0FC0
ENDCHAR
STARTCHAR 00E4
ENCODING 228
SWIDTH 576 0
DWIDTH 20 0
BBX 16 25 1 0
BITMAP
0E1C
0E1C
0E1C
0000
0000
0000
03F0
0FFC
3FFE
3C0F
7807
1007
0007
00FF
0FFF
3FFF
7E07
7007
F007
E007
F00F
701F
7FFB
3FF3
0FC0
ENDCHAR
STARTCHAR 00E5
ENCODING 229
SWIDTH 576 0
DWIDTH 20 0
BBX 16 28 1 0
BITMAP
01E0
03F0
0738
0618
0738
03F0
01E0
0000
0000
03F0
0FFC
3FFE
3C0F
7807
1007
0007
00FF
0FFF
3FFF
7E07
7007
F007
E007
F00F
701F
7FFB
3FF3
0FC0
ENDCHAR
STARTCHAR 00E6
ENCODING 230
SWIDTH 950 0
DWIDTH 33 0
BBX 30 19 1 0
BITMAP
03F01F80
0FFC7FE0
1FFEFFF0
3C1FE078
7807C038
1007801C
0007801C
0007801C
03FFFFFC
1FFFFFFC
7F07FFFC
78078000
F0078000
E0078010
F00FC03C
701DE078
7FFCFFF0
3FF07FE0
0FC01F80
ENDCHAR
STARTCHAR 00E7
ENCODING 231
SWIDTH 547 0
DWIDTH 19 0
BBX 17 27 1 -8
BITMAP
03F000
0FFE00
1FFF00
3E0F80
780780
780380
700000
700000
F00000
F00000
F00000
700000
700000
780300
780780
3C0F80
1FFF00
0FFE00
03F800
00C000
00C000
01E000
007000
003000
007000
01E000
03C000
ENDCHAR
STARTCHAR 00E8
ENCODING 232
SWIDTH 604 0
DWIDTH 21 0
BBX 18 27 1 0
BITMAP
038000
018000
01C000
01C000
00C000
00E000
000000
000000
03F800
0FFE00
1FFF00
3C0F00
380380
780380
7001C0
7001C0
FFFFC0
FFFFC0
F00000
F00000
700000
700100
780380
3E0F80
1FFF00
0FFE00
03F800
ENDCHAR
STARTCHAR 00E9
ENCODING 233
SWIDTH 604 0
DWIDTH 21 0
BBX 18 27 1 0
BITMAP
001800
003800
003000
007000
007000
006000
000000
000000
03F800
0FFE00
1FFF00
3C0F00
380380
780380
7001C0
7001C0
FFFFC0
FFFFC0
F00000
F00000
700000
700100
780380
3E0F80
1FFF00
0FFE00
03F800
ENDCHAR
STARTCHAR 00EA
ENCODING 234
SWIDTH 604 0
DWIDTH 21 0
BBX 18 26 1 0
BITMAP
00E000
01F000
03B800
071C00
0E0E00
000000
000000
03F800
0FFE00
1FFF00
3C0F00
380380
780380
7001C0
7001C0
FFFFC0
FFFFC0
F00000
F00000
700000
700100
780380
3E0F80
1FFF00
0FFE00
03F800
ENDCHAR
STARTCHAR 00EB
ENCODING 235
SWIDTH 604 0
DWIDTH 21 0
BBX 18 25 1 0
BITMAP
0F1C00
0F1C00
0F1C00
000000
000000
000000
03F800
0FFE00
1FFF00
3C0F00
380380
780380
7001C0
7001C0
FFFFC0
FFFFC0
F00000
F00000
700000
700100
780380
3E0F80
1FFF00
0FFE00
03F800
ENDCHAR
STARTCHAR 00EC
ENCODING 236
SWIDTH 259 0
DWIDTH 9 0
BBX 5 28 1 0
BITMAP
C0
E0
60
70
70
30
00
00
00
38
38
38
38
38
38
38
38
38
38
38
38
38
38
38
38
38
38
38
ENDCHAR
STARTCHAR 00ED
ENCODING 237
SWIDTH 259 0
DWIDTH 9 0
BBX 5 28 3 0
BITMAP
38
30
30
70
60
E0
00
00
00
E0
E0
E0
E0
E0
E0
E0
E0
E0
E0
E0
E0
E0
E0
E0
E0
E0
E0
E0
ENDCHAR
STARTCHAR 00EE
ENCODING 238
SWIDTH 259 0
DWIDTH 9 0
BBX 11 27 -1 0
BITMAP
0E00
1F00
3B80
71C0
E0E0
0000
0000
0000
0E00
0E00
0E00
0E00
0E00
0E00
0E00
0E00
0E00
0E00
0E00
0E00
0E00
0E00
0E00
0E00
0E00
0E00
0E00
ENDCHAR
STARTCHAR 00EF
ENCODING 239
SWIDTH 259 0
DWIDTH 9 0
BBX 10 25 -1 0
BITMAP
E1C0
E1C0
E1C0
0000
0000
0000
0E00
0E00
0E00
0E00
0E00
0E00
0E00
0E00
0E00
0E00
0E00
0E00
0E00
0E00
0E00
0E00
0E00
0E00
0E00
ENDCHAR
STARTCHAR 00F0
ENCODING 240
SWIDTH 576 0
DWIDTH 20 0
BBX 18 28 1 0
BITMAP
000400
000E00
01FE00
01FC00
007C00
007E00
00EF00
004700
000380
01F380
0FFD80
1FFFC0
3E0FC0
3807C0
7003C0
7003C0
7001C0
F001C0
F001C0
F001C0
F001C0
7003C0
700380
780780
3C0F00
1FFF00
0FFC00
03F000
ENDCHAR
STARTCHAR 00F1
ENCODING 241
SWIDTH 604 0
DWIDTH 21 0
BBX 17 26 2 0
BITMAP
0F0C00
1F8C00
1DFC00
187800
000000
000000
000000
E3F000
E7FC00
FFFE00
FC1F00
F80F00
F00780
F00780
F00380
F00380
F00380
F00380
F00380
F00380
F00380
F00380
F00380
F00380
F00380
F00380
ENDCHAR
STARTCHAR 00F2
ENCODING 242
SWIDTH 604 0
DWIDTH 21 0
BBX 18 27 1 0
BITMAP
030000
038000
018000
01C000
00C000
00C000
000000
000000
03F800
0FFE00
1FFF00
3E0F80
780380
7803C0
7001C0
7001C0
F001C0
F001C0
F001C0
7001C0
7001C0
7803C0
780780
3E0F80
1FFF00
0FFE00
03F800
ENDCHAR
STARTCHAR 00F3
ENCODING 243
SWIDTH 604 0
DWIDTH 21 0
BBX 18 27 1 0
BITMAP
003800
003000
007000
007000
006000
00E000
000000
000000
03F800
0FFE00
1FFF00
3E0F80
780380
7803C0
7001C0
7001C0
F001C0
F001C0
F001C0
7001C0
7001C0
7803C0
780780
3E0F80
1FFF00
0FFE00
03F800
ENDCHAR
STARTCHAR 00F4
ENCODING 244
SWIDTH 604 0
DWIDTH 21 0
BBX 18 26 1 0
BITMAP
00E000
01F000
03B800
071C00
0E0E00
000000
000000
03F800
0FFE00
1FFF00
3E0F80
780380
7803C0
7001C0
7001C0
F001C0
F001C0
F001C0
7001C0
7001C0
7803C0
780780
3E0F80
1FFF00
0FFE00
03F800
ENDCHAR
STARTCHAR 00F5
ENCODING 245
SWIDTH 604 0
DWIDTH 21 0
BBX 18 26 1 0
BITMAP
078600
0FC600
0EFE00
0C3C00
000000
000000
000000
03F800
0FFE00
1FFF00
3E0F80
780380
7803C0
7001C0
7001C0
F001C0
F001C0
F001C0
7001C0
7001C0
7803C0
780780
3E0F80
1FFF00
0FFE00
03F800
ENDCHAR
STARTCHAR 00F6
ENCODING 246
SWIDTH 604 0
DWIDTH 21 0
BBX 18 25 1 0
BITMAP
0F1C00
0F1C00
0F1C00
000000
000000
000000
03F800
0FFE00
1FFF00
3E0F80
780380
7803C0
7001C0
7001C0
F001C0
F001C0
F001C0
7001C0
7001C0
7803C0
780780
3E0F80
1FFF00
0FFE00
03F800
ENDCHAR
STARTCHAR 00F7
ENCODING 247
SWIDTH 547 0
DWIDTH 19 0
BBX 15 13 2 6
BITMAP
0380
0380
0380
0000
0000
FFFE
FFFE
FFFE
0000
0000
0380
0380
0380
ENDCHAR
STARTCHAR 00F8
ENCODING 248
SWIDTH 604 0
DWIDTH 21 0
BBX 19 19 1 0
BITMAP
03F8C0
0FFFE0
1FFFE0
3E0FC0
780780
780FC0
701DC0
7039C0
F071C0
F0E1C0
F1C1C0
7381C0
7F01C0
7E03C0
3C0780
7E0F80
FFFF00
EFFE00
43F800
ENDCHAR
STARTCHAR 00F9
ENCODING 249
SWIDTH 604 0
DWIDTH 21 0
BBX 17 28 2 0
BITMAP
070000
070000
030000
038000
018000
01C000
000000
000000
000000
E00780
E00780
E00780
E00780
E00780
E00780
E00780
E00780
E00780
E00780
E00780
E00780
F00780
F00780
780F80
7C1F80
3FFB80
1FF380
07E380
ENDCHAR
STARTCHAR 00FA
ENCODING 250
SWIDTH 604 0
DWIDTH 21 0
BBX 17 28 2 0
BITMAP
007000
006000
00E000
00C000
00C000
01C000
000000
000000
000000
E00780
E00780
E00780
E00780
E00780
E00780
E00780
E00780
E00780
E00780
E00780
E00780
F00780
F00780
780F80
7C1F80
3FFB80
1FF380
07E380
ENDCHAR
STARTCHAR 00FB
ENCODING 251
SWIDTH 604 0
DWIDTH 21 0
BBX 17 27 2 0
BITMAP
01C000
03E000
077000
0E7800
1C3800
000000
000000
000000
E00780
E00780
E00780
E00780
E00780
E00780
E00780
E00780
E00780
E00780
E00780
E00780
F00780
F00780
780F80
7C1F80
3FFB80
1FF380
07E380
ENDCHAR
STARTCHAR 00FC
ENCODING 252
SWIDTH 604 0
DWIDTH 21 0
BBX 17 25 2 0
BITMAP
1C3800
1C3800
1C3800
000000
000000
000000
E00780
E00780
E00780
E00780
E00780
E00780
E00780
E00780
E00780
E00780
E00780
E00780
F00780
F00780
780F80
7C1F80
3FFB80
1FF380
07E380
ENDCHAR
STARTCHAR 00FD
ENCODING 253
SWIDTH 547 0
DWIDTH 19 0
BBX 17 36 1 -8
BITMAP
007000
006000
006000
00E000
00C000
01C000
000000
000000
000000
E00380
E00380
700700
700700
780F00
380E00
380E00
1C1C00
1C1C00
1E1C00
0E3800
0E3800
077800
077000
07F000
03E000
03E000
01E000
01C000
01C000
03C000
038000
038000
070000
070000
070000
0E0000
ENDCHAR
STARTCHAR 00FE
ENCODING 254
SWIDTH 604 0
DWIDTH 21 0
BBX 17 33 2 -8
BITMAP
F00000
F00000
F00000
F00000
F00000
F00000
F3F000
FFFC00
FFFE00
FC1F00
F80700
F00780
F00380
E00380
E00380
E00380
E00380
E00380
F00380
F00780
F80700
FC1F00
FFFE00
FFFC00
F3F000
F00000
F00000
F00000
F00000
F00000
F00000
F00000
F00000
ENDCHAR
STARTCHAR 00FF
ENCODING 255
SWIDTH 547 0
DWIDTH 19 0
BBX 17 33 1 -8
BITMAP
0E3800
0E3800
0E3800
000000
000000
000000
E00380
E00380
700700
700700
780F00
380E00
380E00
1C1C00
1C1C00
1E1C00
0E3800
0E3800
077800
077000
07F000
03E000
03E000
01E000
01C000
01C000
03C000
038000
038000
070000
070000
070000
0E0000
ENDCHAR
ENDFONT
