STARTFONT 2.1
COMMENT
COMMENT Converted from OpenType font "Manrope-ExtraLight.otf" by "otf2bdf 3.0".
COMMENT
FONT -FreeType-Manrope ExtraLight-Medium-R-Normal--40-290-100-100-P-173-ISO10646-1
SIZE 29 100 100
FONTBOUNDINGBOX 37 49 -1 -10
STARTPROPERTIES 19
FOUNDRY "FreeType"
FAMILY_NAME "Manrope ExtraLight"
WEIGHT_NAME "Medium"
SLANT "R"
SETWIDTH_NAME "Normal"
ADD_STYLE_NAME ""
PIXEL_SIZE 40
POINT_SIZE 290
RESOLUTION_X 100
RESOLUTION_Y 100
SPACING "P"
AVERAGE_WIDTH 173
CHARSET_REGISTRY "ISO10646"
CHARSET_ENCODING "1"
FONT_ASCENT 42
FONT_DESCENT 12
COPYRIGHT "Copyright 2019-2021 The Manrope Project Authors (https://github.com/sharanda/manrope)"
_OTF_FONTFILE "Manrope-ExtraLight.otf"
_OTF_PSNAME "Manrope-ExtraLight"
ENDPROPERTIES
CHARS 191
STARTCHAR 0020
ENCODING 32
SWIDTH 198 0
DWIDTH 8 0
BBX 0 0 0 0
BITMAP
ENDCHAR
STARTCHAR 0021
ENCODING 33
SWIDTH 273 0
DWIDTH 11 0
BBX 2 29 5 0
BITMAP
C0
C0
C0
C0
C0
C0
C0
C0
C0
C0
C0
C0
C0
C0
C0
C0
C0
C0
C0
C0
C0
C0
00
00
00
00
C0
C0
C0
ENDCHAR
STARTCHAR 0022
ENCODING 34
SWIDTH 347 0
DWIDTH 14 0
BBX 8 7 2 22
BITMAP
C3
C3
C3
C3
C3
C3
C3
ENDCHAR
STARTCHAR 0023
ENCODING 35
SWIDTH 918 0
DWIDTH 37 0
BBX 32 29 2 0
BITMAP
000300C0
000300C0
00030080
00020180
00060180
00060100
00060300
00040300
000C0300
1FFFFFFF
1FFFFFFF
00180600
00180600
00180400
00100C00
00300C00
00300C00
00301800
7FFFFFFC
FFFFFFF8
00601000
00403000
00C03000
00C03000
00C02000
00806000
01806000
01806000
01804000
ENDCHAR
STARTCHAR 0024
ENCODING 36
SWIDTH 571 0
DWIDTH 23 0
BBX 20 35 1 -3
BITMAP
006000
006000
006000
01FC00
07FF00
1C0380
3800C0
300060
600030
600030
600010
600000
300000
300000
1C0000
0F8000
03F000
003E00
000780
0000E0
000070
000030
000010
000010
C00010
C00010
600030
700030
380060
1E01C0
07FF80
01FE00
006000
006000
006000
ENDCHAR
STARTCHAR 0025
ENCODING 37
SWIDTH 893 0
DWIDTH 36 0
BBX 32 29 2 0
BITMAP
07C00004
1FF0000C
38380018
600C0030
600C0060
400600C0
C0060180
C0060300
40060600
60040C00
700C1800
38183000
1FF06000
07C0C000
00018000
000303E0
00060FF8
000C1C1C
00183806
00303006
00602003
00C06003
01806003
03002003
06003002
0C003806
18001C0C
30000FF8
200003E0
ENDCHAR
STARTCHAR 0026
ENCODING 38
SWIDTH 645 0
DWIDTH 26 0
BBX 23 29 2 0
BITMAP
01F800
07FE00
0C0300
180180
300080
300000
300000
300000
300000
300000
180000
180000
0C0000
070000
1F8000
38C000
706030
603030
C01830
C00C30
C00630
C00330
C000B0
C00070
600070
7000D8
3C03CC
0FFF06
03FC02
ENDCHAR
STARTCHAR 0027
ENCODING 39
SWIDTH 173 0
DWIDTH 7 0
BBX 2 7 2 22
BITMAP
C0
C0
C0
C0
C0
C0
C0
ENDCHAR
STARTCHAR 0028
ENCODING 40
SWIDTH 397 0
DWIDTH 16 0
BBX 8 40 6 -7
BITMAP
01
03
06
0C
0C
18
18
30
30
60
60
60
40
C0
C0
C0
80
80
80
80
80
80
80
C0
C0
C0
C0
40
60
60
20
30
30
18
18
0C
06
06
03
01
ENDCHAR
STARTCHAR 0029
ENCODING 41
SWIDTH 397 0
DWIDTH 16 0
BBX 9 40 2 -7
BITMAP
C000
6000
6000
3000
1800
1800
0C00
0C00
0600
0600
0200
0300
0300
0300
0100
0100
0180
0180
0180
0180
0180
0180
0180
0180
0100
0300
0300
0300
0200
0600
0600
0C00
0C00
0800
1800
3000
3000
6000
C000
8000
ENDCHAR
STARTCHAR 002A
ENCODING 42
SWIDTH 422 0
DWIDTH 17 0
BBX 13 12 1 17
BITMAP
0300
0300
0300
0300
E318
7FF8
0FC0
0780
0D80
0CC0
1860
3060
ENDCHAR
STARTCHAR 002B
ENCODING 43
SWIDTH 571 0
DWIDTH 23 0
BBX 19 18 2 6
BITMAP
006000
006000
006000
006000
006000
006000
006000
006000
FFFFE0
FFFFE0
006000
006000
006000
006000
006000
006000
006000
006000
ENDCHAR
STARTCHAR 002C
ENCODING 44
SWIDTH 248 0
DWIDTH 10 0
BBX 3 8 2 -4
BITMAP
E0
E0
E0
E0
20
20
60
C0
ENDCHAR
STARTCHAR 002D
ENCODING 45
SWIDTH 422 0
DWIDTH 17 0
BBX 13 2 2 12
BITMAP
FFF8
FFF8
ENDCHAR
STARTCHAR 002E
ENCODING 46
SWIDTH 223 0
DWIDTH 9 0
BBX 3 2 3 0
BITMAP
E0
E0
ENDCHAR
STARTCHAR 002F
ENCODING 47
SWIDTH 347 0
DWIDTH 14 0
BBX 9 29 3 0
BITMAP
0180
0180
0300
0300
0300
0200
0600
0600
0600
0400
0C00
0C00
0C00
0800
1800
1800
1800
3000
3000
3000
2000
6000
6000
6000
4000
C000
C000
C000
8000
ENDCHAR
STARTCHAR 0030
ENCODING 48
SWIDTH 571 0
DWIDTH 23 0
BBX 17 29 3 0
BITMAP
03F000
0FFC00
380E00
300700
600300
C00180
C00180
C00080
C00080
C00080
C00080
C00080
C00080
C00080
C00080
C00080
C00080
C00080
C00080
C00080
C00080
C00080
C00180
C00180
600300
300700
380E00
0FFC00
03F000
ENDCHAR
STARTCHAR 0031
ENCODING 49
SWIDTH 347 0
DWIDTH 14 0
BBX 8 29 2 0
BITMAP
07
1F
3B
E3
C3
03
03
03
03
03
03
03
03
03
03
03
03
03
03
03
03
03
03
03
03
03
03
03
03
ENDCHAR
STARTCHAR 0032
ENCODING 50
SWIDTH 546 0
DWIDTH 22 0
BBX 18 29 2 0
BITMAP
03F000
0FFC00
1C0600
300300
600180
6000C0
4000C0
C000C0
C00040
000040
0000C0
0000C0
0000C0
000180
000380
000700
000E00
001C00
003000
006000
00C000
018000
070000
0E0000
1C0000
380000
600000
FFFFC0
FFFFC0
ENDCHAR
STARTCHAR 0033
ENCODING 51
SWIDTH 546 0
DWIDTH 22 0
BBX 17 29 2 0
BITMAP
7FFF80
7FFF80
000300
000E00
001C00
003800
007000
00E000
01C000
038000
070000
0FE000
0FFC00
080E00
000700
000300
000180
000180
000180
000180
000180
000180
000180
C00180
C00300
600600
300E00
1FFC00
07F000
ENDCHAR
STARTCHAR 0034
ENCODING 52
SWIDTH 571 0
DWIDTH 23 0
BBX 19 29 2 0
BITMAP
003000
006000
006000
00C000
00C000
018000
018000
030000
030000
060000
060000
040000
0C0300
080300
180300
100300
300300
300300
600300
600300
C00300
FFFFE0
FFFFE0
000300
000300
000300
000300
000300
000300
ENDCHAR
STARTCHAR 0035
ENCODING 53
SWIDTH 571 0
DWIDTH 23 0
BBX 19 29 2 0
BITMAP
3FFF80
3FFF80
600000
600000
600000
600000
600000
600000
600000
600000
63F000
6FFE00
7C0700
700380
6001C0
2000C0
000060
000060
000060
000060
000060
400060
C00040
6000C0
6001C0
300380
1C0700
0FFE00
03F000
ENDCHAR
STARTCHAR 0036
ENCODING 54
SWIDTH 620 0
DWIDTH 25 0
BBX 19 29 3 0
BITMAP
03F800
0FFE00
1C0700
300180
6000C0
600000
C00000
C00000
C00000
C00000
C0E000
C7FC00
DE0F00
F80380
F00180
E000C0
C00060
C00060
C00060
C00060
C00060
C00060
C00060
6000C0
6000C0
300180
1C0700
0FFE00
03F800
ENDCHAR
STARTCHAR 0037
ENCODING 55
SWIDTH 471 0
DWIDTH 19 0
BBX 15 29 2 0
BITMAP
FFFE
FFFE
0006
0006
000C
000C
0008
0018
0018
0030
0030
0020
0060
0060
00C0
00C0
0080
0180
0180
0300
0300
0600
0600
0400
0C00
0C00
1800
1800
1000
ENDCHAR
STARTCHAR 0038
ENCODING 56
SWIDTH 571 0
DWIDTH 23 0
BBX 18 29 2 0
BITMAP
03F000
0FFC00
1C0700
300300
300180
600180
600080
600080
600180
600180
300180
380300
1C0E00
0FFC00
0FFE00
380700
300180
600180
6000C0
C000C0
C000C0
C000C0
4000C0
6000C0
600180
300380
380700
0FFE00
03F800
ENDCHAR
STARTCHAR 0039
ENCODING 57
SWIDTH 620 0
DWIDTH 25 0
BBX 19 29 3 0
BITMAP
03F800
0FFE00
1C0700
300180
6000C0
6000C0
C00060
C00060
C00060
C00060
C00060
C00060
C00060
6000E0
7001E0
3803E0
1E0F60
07FC60
01E060
000060
000060
000060
000060
0000C0
6000C0
300180
1C0700
0FFE00
03F800
ENDCHAR
STARTCHAR 003A
ENCODING 58
SWIDTH 273 0
DWIDTH 11 0
BBX 3 14 4 4
BITMAP
E0
E0
00
00
00
00
00
00
00
00
00
00
E0
E0
ENDCHAR
STARTCHAR 003B
ENCODING 59
SWIDTH 273 0
DWIDTH 11 0
BBX 3 26 4 -4
BITMAP
E0
E0
00
00
00
00
00
00
00
00
00
00
00
00
00
00
00
00
E0
E0
E0
E0
20
20
60
C0
ENDCHAR
STARTCHAR 003C
ENCODING 60
SWIDTH 595 0
DWIDTH 24 0
BBX 10 18 6 3
BITMAP
0080
01C0
0380
0700
0E00
1C00
3800
7000
E000
C000
6000
3000
1800
0C00
0600
0300
0180
00C0
ENDCHAR
STARTCHAR 003D
ENCODING 61
SWIDTH 744 0
DWIDTH 30 0
BBX 20 9 5 10
BITMAP
FFFFF0
FFFFF0
000000
000000
000000
000000
000000
FFFFF0
FFFFF0
ENDCHAR
STARTCHAR 003E
ENCODING 62
SWIDTH 595 0
DWIDTH 24 0
BBX 10 18 8 3
BITMAP
4000
E000
7000
3800
1C00
0E00
0700
0380
01C0
00C0
0180
0300
0600
0C00
1800
3000
6000
C000
ENDCHAR
STARTCHAR 003F
ENCODING 63
SWIDTH 496 0
DWIDTH 20 0
BBX 16 29 2 0
BITMAP
07E0
1FF8
300E
6006
C003
C003
C003
0003
0003
0003
0003
0006
001C
0038
0070
00C0
0180
0180
0180
0180
0180
0000
0000
0000
0000
0000
0180
0180
0180
ENDCHAR
STARTCHAR 0040
ENCODING 64
SWIDTH 893 0
DWIDTH 36 0
BBX 30 30 3 -4
BITMAP
001FF000
00FFFE00
01E00F00
07800180
0E0000E0
1C000060
18000030
30000038
30000018
60000018
6003000C
601FD00C
C038700C
C030300C
C060300C
C060300C
C060300C
C0603008
40303818
603DF830
600FCFF0
300007C0
30000000
18000000
1C000000
0E000000
07000200
01E00F00
00FFFC00
001FE000
ENDCHAR
STARTCHAR 0041
ENCODING 65
SWIDTH 620 0
DWIDTH 25 0
BBX 23 29 1 0
BITMAP
003000
003800
007800
006800
004C00
00CC00
00C600
008600
018600
018300
010300
030300
030180
060180
060080
0600C0
0C00C0
0C0060
080060
180060
1FFFF0
1FFFF0
300030
300018
600018
600008
60000C
C0000C
C00006
ENDCHAR
STARTCHAR 0042
ENCODING 66
SWIDTH 595 0
DWIDTH 24 0
BBX 20 29 3 0
BITMAP
FFFC00
FFFF00
C00380
C001C0
C000C0
C00040
C00060
C00060
C00040
C000C0
C000C0
C00180
C00700
FFFE00
FFFF00
C001C0
C000E0
C00060
C00030
C00030
C00030
C00030
C00030
C00030
C00060
C000E0
C001C0
FFFF80
FFFE00
ENDCHAR
STARTCHAR 0043
ENCODING 67
SWIDTH 695 0
DWIDTH 28 0
BBX 25 29 1 0
BITMAP
007F8000
01FFF000
07803800
0E000C00
1C000600
38000300
30000300
60000180
60000180
60000080
40000000
C0000000
C0000000
C0000000
C0000000
C0000000
C0000000
C0000000
40000000
60000080
60000180
60000180
30000380
38000300
1C000600
0E000C00
07803800
01FFF000
007F8000
ENDCHAR
STARTCHAR 0044
ENCODING 68
SWIDTH 645 0
DWIDTH 26 0
BBX 22 29 3 0
BITMAP
FFFC00
FFFF00
C00380
C000C0
C00060
C00030
C00030
C00018
C00018
C00018
C00018
C00008
C0000C
C0000C
C0000C
C0000C
C0000C
C00008
C00018
C00018
C00018
C00018
C00030
C00030
C00060
C000C0
C00380
FFFF00
FFFC00
ENDCHAR
STARTCHAR 0045
ENCODING 69
SWIDTH 571 0
DWIDTH 23 0
BBX 18 29 3 0
BITMAP
FFFFC0
FFFFC0
C00000
C00000
C00000
C00000
C00000
C00000
C00000
C00000
C00000
C00000
C00000
FFFE00
FFFE00
C00000
C00000
C00000
C00000
C00000
C00000
C00000
C00000
C00000
C00000
C00000
C00000
FFFFC0
FFFFC0
ENDCHAR
STARTCHAR 0046
ENCODING 70
SWIDTH 496 0
DWIDTH 20 0
BBX 16 29 3 0
BITMAP
FFFF
FFFF
C000
C000
C000
C000
C000
C000
C000
C000
C000
C000
C000
FFFC
FFFC
C000
C000
C000
C000
C000
C000
C000
C000
C000
C000
C000
C000
C000
C000
ENDCHAR
STARTCHAR 0047
ENCODING 71
SWIDTH 695 0
DWIDTH 28 0
BBX 25 29 1 0
BITMAP
007F8000
01FFE000
07807800
0E001C00
1C000E00
38000600
30000300
60000000
60000000
60000000
40000000
C0000000
C0000000
C0000000
C000FF80
C000FF80
C0000080
C0000080
40000180
60000180
60000180
60000180
30000300
38000300
1C000600
0E000C00
07803800
01FFF000
007F8000
ENDCHAR
STARTCHAR 0048
ENCODING 72
SWIDTH 670 0
DWIDTH 27 0
BBX 21 29 3 0
BITMAP
C00018
C00018
C00018
C00018
C00018
C00018
C00018
C00018
C00018
C00018
C00018
C00018
C00018
FFFFF8
FFFFF8
C00018
C00018
C00018
C00018
C00018
C00018
C00018
C00018
C00018
C00018
C00018
C00018
C00018
C00018
ENDCHAR
STARTCHAR 0049
ENCODING 73
SWIDTH 198 0
DWIDTH 8 0
BBX 2 29 3 0
BITMAP
C0
C0
C0
C0
C0
C0
C0
C0
C0
C0
C0
C0
C0
C0
C0
C0
C0
C0
C0
C0
C0
C0
C0
C0
C0
C0
C0
C0
C0
ENDCHAR
STARTCHAR 004A
ENCODING 74
SWIDTH 446 0
DWIDTH 18 0
BBX 14 29 0 0
BITMAP
0004
0004
0004
0004
0004
0004
0004
0004
0004
0004
0004
0004
0004
0004
0004
0004
0004
0004
0004
0004
0004
0004
0004
C00C
C00C
601C
3038
1FF0
0FC0
ENDCHAR
STARTCHAR 004B
ENCODING 75
SWIDTH 546 0
DWIDTH 22 0
BBX 19 29 3 0
BITMAP
C001C0
C00380
C00700
C00E00
C01C00
C03800
C07000
C0E000
C18000
C30000
C60000
CC0000
D80000
F00000
F80000
DC0000
CE0000
C70000
C38000
C1C000
C0E000
C07000
C03800
C01C00
C00E00
C00300
C00180
C000C0
C00060
ENDCHAR
STARTCHAR 004C
ENCODING 76
SWIDTH 496 0
DWIDTH 20 0
BBX 16 29 3 0
BITMAP
C000
C000
C000
C000
C000
C000
C000
C000
C000
C000
C000
C000
C000
C000
C000
C000
C000
C000
C000
C000
C000
C000
C000
C000
C000
C000
C000
FFFF
FFFF
ENDCHAR
STARTCHAR 004D
ENCODING 77
SWIDTH 819 0
DWIDTH 33 0
BBX 28 29 3 0
BITMAP
C0000030
C0000070
E0000070
E00000F0
E00000F0
F00001B0
D00001B0
D8000130
D8000330
CC000330
CC000630
C6000630
C6000C30
C3000C30
C3001830
C1801830
C1803030
C0803030
C0C02030
C0C06030
C0606030
C060C030
C030C030
C0318030
C0198030
C01B0030
C00F0030
C00E0030
C0060030
ENDCHAR
STARTCHAR 004E
ENCODING 78
SWIDTH 670 0
DWIDTH 27 0
BBX 21 29 3 0
BITMAP
C00018
E00018
E00018
F00018
D80018
D80018
CC0018
C60018
C60018
C30018
C18018
C18018
C0C018
C06018
C06018
C03018
C01818
C01818
C00C18
C00618
C00618
C00318
C00198
C00198
C000D8
C00078
C00078
C00038
C00018
ENDCHAR
STARTCHAR 004F
ENCODING 79
SWIDTH 695 0
DWIDTH 28 0
BBX 26 29 1 0
BITMAP
007F8000
01FFF000
07803800
0E000C00
1C000600
38000300
30000380
60000180
60000180
600000C0
400000C0
C00000C0
C00000C0
C00000C0
C00000C0
C00000C0
C00000C0
C00000C0
400000C0
600000C0
60000180
60000180
30000380
38000300
1C000600
0E000C00
07803800
01FFF000
007F8000
ENDCHAR
STARTCHAR 0050
ENCODING 80
SWIDTH 571 0
DWIDTH 23 0
BBX 19 29 3 0
BITMAP
FFFC00
FFFF00
C00380
C001C0
C000C0
C00060
C00060
C00060
C00060
C00060
C00060
C00060
C00060
C000C0
C00180
C00780
FFFE00
FFF000
C00000
C00000
C00000
C00000
C00000
C00000
C00000
C00000
C00000
C00000
C00000
ENDCHAR
STARTCHAR 0051
ENCODING 81
SWIDTH 695 0
DWIDTH 28 0
BBX 26 29 1 0
BITMAP
007F8000
01FFF000
07803800
0E000C00
1C000600
38000300
30000380
60000180
60000180
600000C0
400000C0
C00000C0
C00000C0
C00000C0
C00000C0
C00000C0
C00000C0
C00000C0
400000C0
600000C0
60000180
60003180
30003B80
38001F00
1C000E00
0E000F00
07803B80
01FFF1C0
007F8080
ENDCHAR
STARTCHAR 0052
ENCODING 82
SWIDTH 620 0
DWIDTH 25 0
BBX 20 29 3 0
BITMAP
FFFC00
FFFF00
C00380
C001C0
C000C0
C00060
C00060
C00060
C00060
C00060
C00060
C00060
C00060
C000C0
C00180
C00780
FFFE00
FFFC00
C00600
C00600
C00300
C00300
C00180
C00180
C000C0
C000C0
C00060
C00060
C00030
ENDCHAR
STARTCHAR 0053
ENCODING 83
SWIDTH 595 0
DWIDTH 24 0
BBX 22 29 1 0
BITMAP
01FC00
07FF80
1E01C0
180060
300030
300018
600018
600018
600000
300000
380000
1C0000
0F8000
01F800
003F00
0003C0
000070
000030
000018
000008
000008
C0000C
C00008
600018
700018
380030
1E00E0
07FFC0
00FE00
ENDCHAR
STARTCHAR 0054
ENCODING 84
SWIDTH 595 0
DWIDTH 24 0
BBX 23 29 0 0
BITMAP
FFFFFE
FFFFFE
001800
001800
001800
001800
001800
001800
001800
001800
001800
001800
001800
001800
001800
001800
001800
001800
001800
001800
001800
001800
001800
001800
001800
001800
001800
001800
001800
ENDCHAR
STARTCHAR 0055
ENCODING 85
SWIDTH 695 0
DWIDTH 28 0
BBX 22 29 3 0
BITMAP
C0000C
C0000C
C0000C
C0000C
C0000C
C0000C
C0000C
C0000C
C0000C
C0000C
C0000C
C0000C
C0000C
C0000C
C0000C
C0000C
C0000C
C0000C
C0000C
C0000C
C0000C
C0000C
600018
600018
300030
380060
1E01C0
07FF80
01FE00
ENDCHAR
STARTCHAR 0056
ENCODING 86
SWIDTH 571 0
DWIDTH 23 0
BBX 23 29 0 0
BITMAP
C00006
600006
60000C
60000C
300008
300018
100018
180010
180030
080030
0C0060
0C0060
060060
0600C0
0600C0
030080
030180
010180
018100
018300
008300
00C600
00C600
006600
006C00
006C00
003800
003800
001800
ENDCHAR
STARTCHAR 0057
ENCODING 87
SWIDTH 918 0
DWIDTH 37 0
BBX 35 29 1 0
BITMAP
C000C00060
C000E00040
C000E000C0
6001E000C0
6001A000C0
6001B00180
2001300180
3003100180
3003180100
3002180300
1806180300
1806080300
18060C0600
08040C0600
0C0C040600
0C0C060400
0C08060C00
0618060C00
0618030C00
0618031800
0210031800
0330011800
0330019000
012001B000
01E001B000
01E000E000
01E000E000
00C000E000
00C0006000
ENDCHAR
STARTCHAR 0058
ENCODING 88
SWIDTH 571 0
DWIDTH 23 0
BBX 21 29 1 0
BITMAP
C00018
600030
600030
300060
1800C0
1800C0
0C0180
060300
020300
030600
018C00
00D800
00D800
007000
007000
007000
00D800
018C00
018C00
030600
060300
060300
0C0180
1800C0
180060
300060
600030
C00018
C00018
ENDCHAR
STARTCHAR 0059
ENCODING 89
SWIDTH 521 0
DWIDTH 21 0
BBX 21 29 0 0
BITMAP
C00018
600030
600020
300060
1800C0
1800C0
0C0180
0C0180
060300
060200
030600
018C00
018C00
00D800
00D800
007000
006000
002000
002000
002000
002000
002000
002000
002000
002000
002000
002000
002000
002000
ENDCHAR
STARTCHAR 005A
ENCODING 90
SWIDTH 571 0
DWIDTH 23 0
BBX 19 29 2 0
BITMAP
FFFFE0
FFFFE0
0000C0
0000C0
000180
000300
000300
000600
000400
000C00
001800
001800
003000
006000
006000
00C000
008000
018000
030000
030000
060000
0C0000
0C0000
180000
300000
300000
600000
7FFFE0
FFFFE0
ENDCHAR
STARTCHAR 005B
ENCODING 91
SWIDTH 397 0
DWIDTH 16 0
BBX 6 45 6 -9
BITMAP
FC
FC
80
80
80
80
80
80
80
80
80
80
80
80
80
80
80
80
80
80
80
80
80
80
80
80
80
80
80
80
80
80
80
80
80
80
80
80
80
80
80
80
80
FC
FC
ENDCHAR
STARTCHAR 005C
ENCODING 92
SWIDTH 347 0
DWIDTH 14 0
BBX 9 29 3 0
BITMAP
8000
C000
C000
C000
4000
6000
6000
6000
2000
3000
3000
3000
1800
1800
1800
0800
0C00
0C00
0C00
0400
0600
0600
0600
0200
0300
0300
0300
0180
0180
ENDCHAR
STARTCHAR 005D
ENCODING 93
SWIDTH 397 0
DWIDTH 16 0
BBX 6 45 4 -9
BITMAP
FC
FC
04
04
04
04
04
04
04
04
04
04
04
04
04
04
04
04
04
04
04
04
04
04
04
04
04
04
04
04
04
04
04
04
04
04
04
04
04
04
04
04
04
FC
FC
ENDCHAR
STARTCHAR 005E
ENCODING 94
SWIDTH 670 0
DWIDTH 27 0
BBX 18 10 5 19
BITMAP
00C000
01E000
037000
063800
0C1C00
180E00
300700
600380
C001C0
800080
ENDCHAR
STARTCHAR 005F
ENCODING 95
SWIDTH 670 0
DWIDTH 27 0
BBX 27 2 0 -4
BITMAP
FFFFFFE0
FFFFFFE0
ENDCHAR
STARTCHAR 0060
ENCODING 96
SWIDTH 446 0
DWIDTH 18 0
BBX 4 5 7 33
BITMAP
C0
40
60
60
30
ENDCHAR
STARTCHAR 0061
ENCODING 97
SWIDTH 546 0
DWIDTH 22 0
BBX 17 22 2 0
BITMAP
03F000
1FFE00
380700
700300
600180
600180
000080
000080
000380
01FF80
1FE080
780080
600080
C00080
C00180
800180
800380
C00380
C00680
601C80
3FF880
0FE000
ENDCHAR
STARTCHAR 0062
ENCODING 98
SWIDTH 571 0
DWIDTH 23 0
BBX 19 29 3 0
BITMAP
C00000
C00000
C00000
C00000
C00000
C00000
C00000
C3F000
CFFC00
DC0700
F00300
E00180
E000C0
C000C0
C000C0
C00040
800060
800060
800060
C00040
C00040
C000C0
C000C0
E000C0
E00180
B00300
9C0700
8FFC00
83F000
ENDCHAR
STARTCHAR 0063
ENCODING 99
SWIDTH 546 0
DWIDTH 22 0
BBX 18 22 2 0
BITMAP
03F800
0FFE00
1C0700
300180
6000C0
6000C0
C00000
C00000
C00000
800000
800000
800000
800000
C00000
C00000
C00000
600080
6000C0
300180
1C0700
0FFE00
03F800
ENDCHAR
STARTCHAR 0064
ENCODING 100
SWIDTH 571 0
DWIDTH 23 0
BBX 18 29 2 0
BITMAP
000040
000040
000040
000040
000040
000040
000040
03F040
0FFC40
1C0640
300340
6001C0
6000C0
C000C0
C000C0
C00040
800040
800040
800040
800040
C00040
C000C0
C000C0
6000C0
6001C0
300340
1C0640
0FFC40
03F040
ENDCHAR
STARTCHAR 0065
ENCODING 101
SWIDTH 571 0
DWIDTH 23 0
BBX 19 22 2 0
BITMAP
03F800
0FFE00
1C0700
300180
6000C0
6000C0
C00060
C00060
C00060
800020
FFFFE0
FFFFE0
800000
C00000
C00000
C00000
600060
6000C0
3001C0
1C0380
0FFE00
03F800
ENDCHAR
STARTCHAR 0066
ENCODING 102
SWIDTH 347 0
DWIDTH 14 0
BBX 12 29 1 0
BITMAP
01F0
07F0
0600
0C00
0C00
0C00
0C00
FFF0
FFF0
0C00
0C00
0C00
0C00
0C00
0C00
0C00
0C00
0C00
0C00
0C00
0C00
0C00
0C00
0C00
0C00
0C00
0C00
0C00
0C00
ENDCHAR
STARTCHAR 0067
ENCODING 103
SWIDTH 571 0
DWIDTH 23 0
BBX 18 32 2 -10
BITMAP
03F040
0FFC40
1C0640
300340
6001C0
6000C0
C000C0
C000C0
C00040
800040
800040
800040
800040
C00040
C000C0
C000C0
6000C0
6001C0
300340
1C0640
0FFC40
03F040
000040
0000C0
0000C0
0000C0
4000C0
600180
300380
1C0F00
0FFE00
01E000
ENDCHAR
STARTCHAR 0068
ENCODING 104
SWIDTH 571 0
DWIDTH 23 0
BBX 18 29 3 0
BITMAP
800000
800000
800000
800000
800000
800000
800000
83F000
8FFC00
B80E00
B00300
E00100
C00180
C00180
C00080
C000C0
C000C0
C000C0
C000C0
C000C0
C000C0
C000C0
C000C0
C000C0
C000C0
C000C0
C000C0
C000C0
C000C0
ENDCHAR
STARTCHAR 0069
ENCODING 105
SWIDTH 198 0
DWIDTH 8 0
BBX 2 29 3 0
BITMAP
C0
C0
C0
00
00
00
00
C0
C0
C0
C0
C0
C0
C0
C0
C0
C0
C0
C0
C0
C0
C0
C0
C0
C0
C0
C0
C0
C0
ENDCHAR
STARTCHAR 006A
ENCODING 106
SWIDTH 223 0
DWIDTH 9 0
BBX 6 39 0 -10
BITMAP
0C
0C
0C
00
00
00
00
0C
0C
0C
0C
0C
0C
0C
0C
0C
0C
0C
0C
0C
0C
0C
0C
0C
0C
0C
0C
0C
0C
0C
0C
0C
0C
0C
0C
0C
18
F8
E0
ENDCHAR
STARTCHAR 006B
ENCODING 107
SWIDTH 471 0
DWIDTH 19 0
BBX 16 29 3 0
BITMAP
C000
C000
C000
C000
C000
C000
C000
C00C
C018
C030
C060
C0C0
C180
C300
C600
CC00
D800
F000
F000
D800
CE00
C700
C380
C1C0
C060
C038
C01C
C00E
C007
ENDCHAR
STARTCHAR 006C
ENCODING 108
SWIDTH 198 0
DWIDTH 8 0
BBX 2 29 3 0
BITMAP
C0
C0
C0
C0
C0
C0
C0
C0
C0
C0
C0
C0
C0
C0
C0
C0
C0
C0
C0
C0
C0
C0
C0
C0
C0
C0
C0
C0
C0
ENDCHAR
STARTCHAR 006D
ENCODING 109
SWIDTH 819 0
DWIDTH 33 0
BBX 27 22 3 0
BITMAP
87C07E00
9FF0FF80
B03981C0
E01F00E0
C00E0060
C00E0060
C0060020
C0040020
C0040020
C0040020
C0040020
C0040020
C0040020
C0040020
C0040020
C0040020
C0040020
C0040020
C0040020
C0040020
C0040020
C0040020
ENDCHAR
STARTCHAR 006E
ENCODING 110
SWIDTH 571 0
DWIDTH 23 0
BBX 18 22 3 0
BITMAP
83F000
8FFC00
B80E00
B00300
E00100
C00180
C00180
C00080
C000C0
C000C0
C000C0
C000C0
C000C0
C000C0
C000C0
C000C0
C000C0
C000C0
C000C0
C000C0
C000C0
C000C0
ENDCHAR
STARTCHAR 006F
ENCODING 111
SWIDTH 571 0
DWIDTH 23 0
BBX 19 22 2 0
BITMAP
03F800
0FFE00
1C0700
300180
6000C0
6000C0
C00060
C00060
C00060
800020
800020
800020
800020
C00060
C00060
C00060
6000C0
6000C0
300180
1C0700
0FFE00
03F800
ENDCHAR
STARTCHAR 0070
ENCODING 112
SWIDTH 571 0
DWIDTH 23 0
BBX 19 31 3 -9
BITMAP
83F000
8FFC00
9C0700
B00300
A00180
E000C0
C000C0
C000C0
C00040
800060
800060
800060
C00040
C00040
C000C0
C000C0
E000C0
E00180
F00300
DC0700
CFFC00
C3F000
C00000
C00000
C00000
C00000
C00000
C00000
C00000
C00000
C00000
ENDCHAR
STARTCHAR 0071
ENCODING 113
SWIDTH 571 0
DWIDTH 23 0
BBX 18 31 2 -9
BITMAP
03F040
0FFC40
1C0640
300340
6001C0
6000C0
C000C0
C000C0
C00040
800040
800040
800040
800040
C00040
C000C0
C000C0
6000C0
6001C0
300340
1C0640
0FFC40
03F040
000040
000040
000040
000040
000040
000040
000040
000040
000040
ENDCHAR
STARTCHAR 0072
ENCODING 114
SWIDTH 347 0
DWIDTH 14 0
BBX 9 22 3 0
BITMAP
8780
9F80
B800
E000
E000
C000
C000
C000
C000
C000
C000
C000
C000
C000
C000
C000
C000
C000
C000
C000
C000
C000
ENDCHAR
STARTCHAR 0073
ENCODING 115
SWIDTH 521 0
DWIDTH 21 0
BBX 17 22 2 0
BITMAP
07F000
1FFC00
700E00
600300
C00180
C00180
C00000
600000
700000
1F0000
07E000
007C00
000F00
000300
000180
000180
800180
C00180
E00300
780700
1FFE00
07F000
ENDCHAR
STARTCHAR 0074
ENCODING 116
SWIDTH 372 0
DWIDTH 15 0
BBX 14 28 0 0
BITMAP
0200
0200
0200
0200
0200
0200
FFFC
FFFC
0200
0200
0200
0200
0200
0200
0200
0200
0200
0200
0200
0200
0200
0600
0200
0200
0300
0380
01FC
00FC
ENDCHAR
STARTCHAR 0075
ENCODING 117
SWIDTH 571 0
DWIDTH 23 0
BBX 18 22 2 0
BITMAP
C00040
C00040
C00040
C00040
C00040
C00040
C00040
C00040
C00040
C00040
C00040
C00040
C00040
C000C0
4000C0
6000C0
6000C0
3001C0
300340
1C0740
0FFC40
03F840
ENDCHAR
STARTCHAR 0076
ENCODING 118
SWIDTH 471 0
DWIDTH 19 0
BBX 17 22 1 0
BITMAP
C00180
C00180
600180
600300
600300
300200
300600
300600
180400
180C00
080C00
0C0800
0C1800
041800
063000
063000
033000
036000
036000
01C000
01C000
01C000
ENDCHAR
STARTCHAR 0077
ENCODING 119
SWIDTH 744 0
DWIDTH 30 0
BBX 28 22 1 0
BITMAP
C0060030
C0060030
400F0020
600F0060
600F0060
60198060
301980C0
301980C0
301080C0
1030C080
1830C180
18204180
08606100
0C606300
0C406300
0CC03200
06C03600
06C03600
06801600
03801C00
03801C00
03000C00
ENDCHAR
STARTCHAR 0078
ENCODING 120
SWIDTH 521 0
DWIDTH 21 0
BBX 19 22 1 0
BITMAP
C000E0
6000C0
300180
300300
180600
0C0E00
060C00
031800
033000
01E000
00E000
00E000
01B000
033000
061800
060C00
0C0600
180700
300300
700180
6000C0
C00060
ENDCHAR
STARTCHAR 0079
ENCODING 121
SWIDTH 496 0
DWIDTH 20 0
BBX 18 31 1 -9
BITMAP
C000C0
C000C0
600080
600180
200180
300100
300300
180300
180600
0C0600
0C0600
0C0C00
060C00
060800
031800
031800
031000
01B000
01B000
00E000
00E000
006000
00C000
00C000
008000
018000
018000
010000
030000
030000
060000
ENDCHAR
STARTCHAR 007A
ENCODING 122
SWIDTH 521 0
DWIDTH 21 0
BBX 19 22 1 0
BITMAP
7FFFE0
7FFFC0
000180
000300
000700
000600
000C00
001800
003000
007000
006000
00C000
018000
030000
070000
060000
0C0000
180000
300000
700000
7FFFC0
FFFFC0
ENDCHAR
STARTCHAR 007B
ENCODING 123
SWIDTH 397 0
DWIDTH 16 0
BBX 8 45 6 -9
BITMAP
07
1F
38
30
30
30
30
30
30
30
30
30
30
30
30
30
30
30
30
20
60
C0
C0
C0
60
60
30
30
30
30
30
30
30
30
30
30
30
30
30
30
30
30
30
1F
0F
ENDCHAR
STARTCHAR 007C
ENCODING 124
SWIDTH 223 0
DWIDTH 9 0
BBX 1 29 4 0
BITMAP
80
80
80
80
80
80
80
80
80
80
80
80
80
80
80
80
80
80
80
80
80
80
80
80
80
80
80
80
80
ENDCHAR
STARTCHAR 007D
ENCODING 125
SWIDTH 397 0
DWIDTH 16 0
BBX 8 45 2 -9
BITMAP
E0
F8
1C
0C
0C
04
04
04
04
04
04
04
04
04
04
04
04
04
04
04
06
03
03
03
06
06
04
04
04
04
04
04
04
04
04
04
04
04
04
04
04
0C
0C
F8
F0
ENDCHAR
STARTCHAR 007E
ENCODING 126
SWIDTH 620 0
DWIDTH 25 0
BBX 15 5 5 10
BITMAP
7C06
FF06
C7E6
C1FE
C07C
ENDCHAR
STARTCHAR 00A0
ENCODING 160
SWIDTH 198 0
DWIDTH 8 0
BBX 0 0 0 0
BITMAP
ENDCHAR
STARTCHAR 00A1
ENCODING 161
SWIDTH 273 0
DWIDTH 11 0
BBX 2 29 5 -7
BITMAP
C0
C0
C0
00
00
00
00
C0
C0
C0
C0
C0
C0
C0
C0
C0
C0
C0
C0
C0
C0
C0
C0
C0
C0
C0
C0
C0
C0
ENDCHAR
STARTCHAR 00A2
ENCODING 162
SWIDTH 546 0
DWIDTH 22 0
BBX 18 30 2 -1
BITMAP
004000
004000
004000
00E000
07FC00
1E0F00
380380
7001C0
6000C0
C00000
C00000
C00000
C00000
800000
800000
800000
800000
C00000
C00000
C00000
400000
6000C0
7001C0
380380
1E0F00
07FC00
00E000
004000
004000
004000
ENDCHAR
STARTCHAR 00A3
ENCODING 163
SWIDTH 571 0
DWIDTH 23 0
BBX 21 29 1 0
BITMAP
003F00
007FC0
00C0E0
018060
030030
030030
030018
030000
030000
030000
030000
030000
030000
FFFF00
FFFF00
030000
030000
030000
030000
030000
030000
030000
030000
030000
030000
030000
070000
FFFFF0
FFFFF0
ENDCHAR
STARTCHAR 00A4
ENCODING 164
SWIDTH 620 0
DWIDTH 25 0
BBX 23 23 1 3
BITMAP
400004
E0FE0E
73FF9C
3F01F8
1C0070
180030
300018
300018
60000C
60000C
60000C
60000C
60000C
60000C
60000C
300018
300018
180030
1C0070
3F01F8
73FF9C
E0FE0E
400004
ENDCHAR
STARTCHAR 00A5
ENCODING 165
SWIDTH 521 0
DWIDTH 21 0
BBX 21 29 0 0
BITMAP
C00018
600030
600020
300060
1800C0
1800C0
0C0180
0C0180
060300
060200
030600
018C00
018C00
00D800
00D800
007000
006000
1FFFC0
1FFFC0
002000
002000
002000
1FFFC0
1FFFC0
002000
002000
002000
002000
002000
ENDCHAR
STARTCHAR 00A6
ENCODING 166
SWIDTH 223 0
DWIDTH 9 0
BBX 1 34 4 -5
BITMAP
80
80
80
80
80
80
80
80
80
80
80
80
80
80
00
00
00
00
00
00
80
80
80
80
80
80
80
80
80
80
80
80
80
80
ENDCHAR
STARTCHAR 00A7
ENCODING 167
SWIDTH 521 0
DWIDTH 21 0
BBX 17 34 2 -7
BITMAP
018000
0FF800
381C00
700E00
600700
400300
400300
600000
700000
380000
0F8000
1FF000
303E00
600700
C00180
C00180
C00080
C00080
E00180
700180
3E0300
07EF00
00FC00
001E00
000700
000300
000180
000180
600180
600300
300700
3C0E00
0FFC00
01C000
ENDCHAR
STARTCHAR 00A8
ENCODING 168
SWIDTH 471 0
DWIDTH 19 0
BBX 10 2 5 34
BITMAP
C1C0
C1C0
ENDCHAR
STARTCHAR 00A9
ENCODING 169
SWIDTH 744 0
DWIDTH 30 0
BBX 28 27 1 0
BITMAP
003FC000
00FFF000
03C03C00
07000E00
0C000300
181F8180
307FE0C0
30E070E0
60C03060
61801060
C1800030
C1800030
C1800030
C1800030
C1800030
C1800030
41800030
61C01860
60C03060
307060C0
303FC0C0
180E0180
0C000300
07000E00
03C03C00
00FFF000
003FC000
ENDCHAR
STARTCHAR 00AA
ENCODING 170
SWIDTH 322 0
DWIDTH 13 0
BBX 9 11 2 11
BITMAP
7F00
F300
C180
0180
3F80
F980
C180
8180
C380
FF80
7980
ENDCHAR
STARTCHAR 00AB
ENCODING 171
SWIDTH 496 0
DWIDTH 20 0
BBX 14 17 3 2
BITMAP
0304
030C
0618
0C30
1860
3860
30C0
6180
C300
6180
30C0
1860
0C30
0C30
0618
030C
0104
ENDCHAR
STARTCHAR 00AC
ENCODING 172
SWIDTH 595 0
DWIDTH 24 0
BBX 20 7 2 8
BITMAP
FFFFF0
FFFFF0
000030
000030
000030
000030
000030
ENDCHAR
STARTCHAR 00AD
ENCODING 173
SWIDTH 422 0
DWIDTH 17 0
BBX 13 2 2 12
BITMAP
FFF8
FFF8
ENDCHAR
STARTCHAR 00AE
ENCODING 174
SWIDTH 595 0
DWIDTH 24 0
BBX 19 19 3 12
BITMAP
01E000
07FC00
1E0E00
380300
700180
63F0C0
C238C0
C21840
C21840
C23860
C3F040
C23040
C210C0
4218C0
600180
300380
1C0700
0FFC00
03F000
ENDCHAR
STARTCHAR 00AF
ENCODING 175
SWIDTH 471 0
DWIDTH 19 0
BBX 10 2 5 34
BITMAP
FFC0
FFC0
ENDCHAR
STARTCHAR 00B0
ENCODING 176
SWIDTH 446 0
DWIDTH 18 0
BBX 15 14 1 15
BITMAP
07C0
1FF0
3838
600C
600C
C006
C006
C006
C006
600C
600C
3838
1FF0
07C0
ENDCHAR
STARTCHAR 00B1
ENCODING 177
SWIDTH 595 0
DWIDTH 24 0
BBX 20 19 2 3
BITMAP
006000
006000
006000
006000
006000
006000
FFFFF0
FFFFF0
006000
006000
006000
006000
006000
000000
000000
000000
000000
FFFFF0
FFFFF0
ENDCHAR
STARTCHAR 00B2
ENCODING 178
SWIDTH 397 0
DWIDTH 16 0
BBX 12 18 2 11
BITMAP
1F00
3FC0
6060
4060
C030
C030
0030
0020
0060
00C0
0180
0300
0600
1C00
3800
7000
FFF0
FFF0
ENDCHAR
STARTCHAR 00B3
ENCODING 179
SWIDTH 372 0
DWIDTH 15 0
BBX 11 19 2 10
BITMAP
FFE0
FFE0
00C0
0180
0700
0E00
1C00
3F00
1F80
00C0
0060
0060
0060
0060
8060
C0C0
61C0
3F80
0C00
ENDCHAR
STARTCHAR 00B4
ENCODING 180
SWIDTH 446 0
DWIDTH 18 0
BBX 3 5 8 33
BITMAP
60
60
40
C0
C0
ENDCHAR
STARTCHAR 00B5
ENCODING 181
SWIDTH 571 0
DWIDTH 23 0
BBX 18 31 3 -9
BITMAP
C000C0
C000C0
C000C0
C000C0
C000C0
C000C0
C000C0
C000C0
C000C0
C000C0
C000C0
C000C0
C000C0
C000C0
C000C0
C001C0
C001C0
E003C0
B003C0
B80EC0
8FFCC0
83F0C0
800000
800000
800000
800000
800000
800000
800000
800000
800000
ENDCHAR
STARTCHAR 00B6
ENCODING 182
SWIDTH 571 0
DWIDTH 23 0
BBX 16 35 4 -6
BITMAP
07F3
1FF3
3FF3
7FF3
7FF3
FFF3
FFF3
FFF3
FFF3
FFF3
FFF3
FFF3
FFF3
7FF3
3FF3
1FF3
0FF3
0033
0033
0033
0033
0033
0033
0033
0033
0033
0033
0033
0033
0033
0033
0033
0033
0033
0033
ENDCHAR
STARTCHAR 00B7
ENCODING 183
SWIDTH 198 0
DWIDTH 8 0
BBX 4 3 2 11
BITMAP
60
F0
60
ENDCHAR
STARTCHAR 00B8
ENCODING 184
SWIDTH 397 0
DWIDTH 16 0
BBX 6 10 5 -10
BITMAP
10
30
30
70
18
0C
0C
1C
F8
60
ENDCHAR
STARTCHAR 00B9
ENCODING 185
SWIDTH 297 0
DWIDTH 12 0
BBX 5 18 2 11
BITMAP
18
78
E8
88
08
08
08
08
08
08
08
08
08
08
08
08
08
08
ENDCHAR
STARTCHAR 00BA
ENCODING 186
SWIDTH 347 0
DWIDTH 14 0
BBX 10 11 2 11
BITMAP
3E00
7F80
E180
C0C0
C0C0
C0C0
C0C0
C0C0
E180
7F80
3E00
ENDCHAR
STARTCHAR 00BB
ENCODING 187
SWIDTH 496 0
DWIDTH 20 0
BBX 14 17 3 2
BITMAP
C300
E180
6180
30C0
1860
0C30
0C18
0618
030C
0618
0C30
1860
1860
30C0
6180
C300
8300
ENDCHAR
STARTCHAR 00BC
ENCODING 188
SWIDTH 943 0
DWIDTH 38 0
BBX 31 29 2 0
BITMAP
18000080
780001C0
E8000380
88000300
08000600
08000C00
08001C00
08003800
08003000
08006000
0800C000
0801C0C0
080380C0
08030180
08060180
080C0300
081C0300
08380200
00300600
00600418
00C00C18
01C00818
01801818
03001818
06003FFE
0E003FFE
1C000018
18000018
10000018
ENDCHAR
STARTCHAR 00BD
ENCODING 189
SWIDTH 868 0
DWIDTH 35 0
BBX 31 29 2 0
BITMAP
18000080
78000180
E8000380
88000300
08000600
08000C00
08001C00
08003800
08003000
08006000
0800C040
0801C3F8
0803870C
08030C06
08060C06
080C0C02
081C0002
08380002
00300006
0060000E
00C0001C
01C00038
03800070
030000E0
06000180
0E000300
1C000600
18000FFE
10000FFE
ENDCHAR
STARTCHAR 00BE
ENCODING 190
SWIDTH 943 0
DWIDTH 38 0
BBX 34 29 2 0
BITMAP
FFE0001000
FFE0003000
00C0007000
018000E000
070000C000
0E00018000
1C00038000
3F00070000
1F80060000
00C00C0000
0060180000
0060381800
0060701800
0060603000
8060C03000
C0C1806000
61C3806000
3F87004000
0C0600C300
000C008300
0018018300
0038018300
0070030300
0060030300
00C007FFC0
018007FFC0
0380000300
0300000300
0200000300
ENDCHAR
STARTCHAR 00BF
ENCODING 191
SWIDTH 496 0
DWIDTH 20 0
BBX 16 30 2 -8
BITMAP
00C0
00C0
00C0
0000
0000
0000
0000
0000
00C0
00C0
0080
0080
0180
0380
0700
0E00
1C00
3000
6000
C000
C000
C000
C001
C001
C003
6003
6006
380E
1FF8
07E0
ENDCHAR
STARTCHAR 00C0
ENCODING 192
SWIDTH 620 0
DWIDTH 25 0
BBX 23 38 1 0
BITMAP
00C000
006000
006000
002000
003000
000000
000000
000000
000000
003000
003800
007800
006800
006C00
00CC00
00C600
008600
018600
018300
010300
030100
030180
060180
060080
0600C0
0C00C0
0C0060
080060
180060
1FFFF0
1FFFF0
300030
300018
600018
600008
60000C
C0000C
C00006
ENDCHAR
STARTCHAR 00C1
ENCODING 193
SWIDTH 620 0
DWIDTH 25 0
BBX 23 38 1 0
BITMAP
000C00
000C00
000800
001800
001800
000000
000000
000000
000000
003000
003800
007800
006800
004C00
00CC00
00C600
008600
018600
018300
010300
030300
030180
060180
060080
0600C0
0C00C0
0C0060
080060
180060
1FFFF0
1FFFF0
300030
300018
600018
600008
60000C
C0000C
C00006
ENDCHAR
STARTCHAR 00C2
ENCODING 194
SWIDTH 620 0
DWIDTH 25 0
BBX 23 37 1 0
BITMAP
003800
006C00
00C600
018600
000100
000000
000000
000000
003000
003800
007800
006800
004C00
00CC00
00C600
008600
018600
018300
010300
030300
030180
060180
060080
0600C0
0C00C0
0C0060
080060
180060
1FFFF0
1FFFF0
300030
300018
600018
600008
60000C
C0000C
C00006
ENDCHAR
STARTCHAR 00C3
ENCODING 195
SWIDTH 620 0
DWIDTH 25 0
BBX 23 38 1 0
BITMAP
008000
03E180
023980
021F00
000200
000000
000000
000000
000000
003000
003800
007800
006800
004C00
00CC00
00C600
008600
018600
018300
010300
030300
030180
060180
060080
0600C0
0C00C0
0C0060
080060
180060
1FFFF0
1FFFF0
300030
300018
600018
600008
60000C
C0000C
C00006
ENDCHAR
STARTCHAR 00C4
ENCODING 196
SWIDTH 620 0
DWIDTH 25 0
BBX 23 36 1 0
BITMAP
038300
038300
000000
000000
000000
000000
000000
003000
003800
007800
006800
004C00
00CC00
00C600
008600
018600
018300
010300
030300
030180
060180
060080
0600C0
0C00C0
0C0060
080060
180060
1FFFF0
1FFFF0
300030
300018
600018
600008
60000C
C0000C
C00006
ENDCHAR
STARTCHAR 00C5
ENCODING 197
SWIDTH 620 0
DWIDTH 25 0
BBX 23 39 1 0
BITMAP
007800
00FC00
00C600
018600
018600
00C600
00FC00
003000
000000
000000
003000
003800
007800
006800
004C00
00CC00
00C600
008600
018600
018300
010300
030300
030180
060180
060080
0600C0
0C00C0
0C0060
080060
180060
1FFFF0
1FFFF0
300030
300018
600018
600008
60000C
C0000C
C00006
ENDCHAR
STARTCHAR 00C6
ENCODING 198
SWIDTH 893 0
DWIDTH 36 0
BBX 33 29 1 0
BITMAP
003FFFFF80
003FFFFF80
0060800000
0060800000
0060800000
00C0800000
00C0800000
0080800000
0180800000
0180800000
0100800000
0300800000
0300800000
0600FFFE00
0600FFFE00
0600800000
0C00800000
0C00800000
0800800000
1800800000
1FFF800000
1FFF800000
3000800000
3000800000
6000800000
6000800000
6000800000
C000FFFF80
C000FFFF80
ENDCHAR
STARTCHAR 00C7
ENCODING 199
SWIDTH 695 0
DWIDTH 28 0
BBX 25 38 1 -9
BITMAP
007F8000
01FFF000
07803800
0E000C00
1C000600
38000300
30000300
60000180
60000180
60000080
40000000
C0000000
C0000000
C0000000
C0000000
C0000000
C0000000
C0000000
40000000
60000080
60000180
60000180
30000380
38000300
1C000600
0E000C00
07803800
01FFF000
007F8000
00060000
00040000
000E0000
00070000
00030000
00018000
00030000
001F0000
001E0000
ENDCHAR
STARTCHAR 00C8
ENCODING 200
SWIDTH 571 0
DWIDTH 23 0
BBX 18 38 3 0
BITMAP
018000
018000
018000
00C000
00C000
000000
000000
000000
000000
FFFFC0
FFFFC0
C00000
C00000
C00000
C00000
C00000
C00000
C00000
C00000
C00000
C00000
C00000
FFFE00
FFFE00
C00000
C00000
C00000
C00000
C00000
C00000
C00000
C00000
C00000
C00000
C00000
C00000
FFFFC0
FFFFC0
ENDCHAR
STARTCHAR 00C9
ENCODING 201
SWIDTH 571 0
DWIDTH 23 0
BBX 18 38 3 0
BITMAP
003000
002000
006000
006000
004000
000000
000000
000000
000000
FFFFC0
FFFFC0
C00000
C00000
C00000
C00000
C00000
C00000
C00000
C00000
C00000
C00000
C00000
FFFE00
FFFE00
C00000
C00000
C00000
C00000
C00000
C00000
C00000
C00000
C00000
C00000
C00000
C00000
FFFFC0
FFFFC0
ENDCHAR
STARTCHAR 00CA
ENCODING 202
SWIDTH 571 0
DWIDTH 23 0
BBX 18 37 3 0
BITMAP
01C000
036000
063000
0C1800
000000
000000
000000
000000
FFFFC0
FFFFC0
C00000
C00000
C00000
C00000
C00000
C00000
C00000
C00000
C00000
C00000
C00000
FFFE00
FFFE00
C00000
C00000
C00000
C00000
C00000
C00000
C00000
C00000
C00000
C00000
C00000
C00000
FFFFC0
FFFFC0
ENDCHAR
STARTCHAR 00CB
ENCODING 203
SWIDTH 571 0
DWIDTH 23 0
BBX 18 36 3 0
BITMAP
1C3800
1C3800
000000
000000
000000
000000
000000
FFFFC0
FFFFC0
C00000
C00000
C00000
C00000
C00000
C00000
C00000
C00000
C00000
C00000
C00000
FFFE00
FFFE00
C00000
C00000
C00000
C00000
C00000
C00000
C00000
C00000
C00000
C00000
C00000
C00000
FFFFC0
FFFFC0
ENDCHAR
STARTCHAR 00CC
ENCODING 204
SWIDTH 198 0
DWIDTH 8 0
BBX 4 38 1 0
BITMAP
C0
60
60
60
30
00
00
00
00
30
30
30
30
30
30
30
30
30
30
30
30
30
30
30
30
30
30
30
30
30
30
30
30
30
30
30
30
30
ENDCHAR
STARTCHAR 00CD
ENCODING 205
SWIDTH 198 0
DWIDTH 8 0
BBX 4 38 3 0
BITMAP
30
20
60
60
40
00
00
00
00
C0
C0
C0
C0
C0
C0
C0
C0
C0
C0
C0
C0
C0
C0
C0
C0
C0
C0
C0
C0
C0
C0
C0
C0
C0
C0
C0
C0
C0
ENDCHAR
STARTCHAR 00CE
ENCODING 206
SWIDTH 198 0
DWIDTH 8 0
BBX 9 37 0 0
BITMAP
3C00
3E00
6600
C300
0080
0000
0000
0000
1800
1800
1800
1800
1800
1800
1800
1800
1800
1800
1800
1800
1800
1800
1800
1800
1800
1800
1800
1800
1800
1800
1800
1800
1800
1800
1800
1800
1800
ENDCHAR
STARTCHAR 00CF
ENCODING 207
SWIDTH 198 0
DWIDTH 8 0
BBX 10 36 -1 0
BITMAP
E1C0
E1C0
0000
0000
0000
0000
0000
0C00
0C00
0C00
0C00
0C00
0C00
0C00
0C00
0C00
0C00
0C00
0C00
0C00
0C00
0C00
0C00
0C00
0C00
0C00
0C00
0C00
0C00
0C00
0C00
0C00
0C00
0C00
0C00
0C00
ENDCHAR
STARTCHAR 00D0
ENCODING 208
SWIDTH 645 0
DWIDTH 26 0
BBX 24 29 0 0
BITMAP
3FFF00
3FFFC0
300070
300038
30001C
30000C
300006
300006
300002
300003
300003
300003
300003
FFF003
FFF003
300003
300003
300003
300003
300003
300006
300006
300006
30000C
30001C
300038
3000F0
3FFFC0
3FFF00
ENDCHAR
STARTCHAR 00D1
ENCODING 209
SWIDTH 670 0
DWIDTH 27 0
BBX 21 36 3 1
BITMAP
03E100
067100
061F00
000400
000000
000000
000000
C00018
E00018
E00018
F00018
D80018
D80018
CC0018
C60018
C60018
C30018
C18018
C18018
C0C018
C06018
C06018
C03018
C01818
C01818
C00C18
C00618
C00618
C00318
C00198
C00198
C000D8
C00078
C00078
C00038
C00018
ENDCHAR
STARTCHAR 00D2
ENCODING 210
SWIDTH 695 0
DWIDTH 28 0
BBX 26 37 1 0
BITMAP
00180000
00180000
00080000
000C0000
000C0000
00000000
00000000
00000000
007F8000
01FFF000
07803800
0E000C00
1C000600
38000300
30000380
60000180
60000180
600000C0
400000C0
C00000C0
C00000C0
C00000C0
C00000C0
C00000C0
C00000C0
C00000C0
400000C0
600000C0
60000180
60000180
30000380
38000300
1C000600
0E000C00
07803800
01FFF000
007F8000
ENDCHAR
STARTCHAR 00D3
ENCODING 211
SWIDTH 695 0
DWIDTH 28 0
BBX 26 37 1 0
BITMAP
00030000
00030000
00020000
00060000
00060000
00000000
00000000
00000000
007F8000
01FFF000
07803800
0E000C00
1C000600
38000300
30000380
60000180
60000180
600000C0
400000C0
C00000C0
C00000C0
C00000C0
C00000C0
C00000C0
C00000C0
C00000C0
400000C0
600000C0
60000180
60000180
30000380
38000300
1C000600
0E000C00
07803800
01FFF000
007F8000
ENDCHAR
STARTCHAR 00D4
ENCODING 212
SWIDTH 695 0
DWIDTH 28 0
BBX 26 37 1 0
BITMAP
000E0000
001E0000
00330000
00618000
0060C000
00000000
00000000
00000000
007F8000
01FFF000
07803800
0E000C00
1C000600
38000300
30000380
60000180
60000180
600000C0
400000C0
C00000C0
C00000C0
C00000C0
C00000C0
C00000C0
C00000C0
C00000C0
400000C0
600000C0
60000180
60000180
30000380
38000300
1C000600
0E000C00
07803800
01FFF000
007F8000
ENDCHAR
STARTCHAR 00D5
ENCODING 213
SWIDTH 695 0
DWIDTH 28 0
BBX 26 36 1 0
BITMAP
00200000
00FC2000
00CFE000
0083C000
00000000
00000000
00000000
007F8000
01FFF000
07803800
0E000C00
1C000600
38000300
30000380
60000180
60000180
600000C0
400000C0
C00000C0
C00000C0
C00000C0
C00000C0
C00000C0
C00000C0
C00000C0
400000C0
600000C0
60000180
60000180
30000380
38000300
1C000600
0E000C00
07803800
01FFF000
007F8000
ENDCHAR
STARTCHAR 00D6
ENCODING 214
SWIDTH 695 0
DWIDTH 28 0
BBX 26 35 1 0
BITMAP
00E0C000
00E0C000
00000000
00000000
00000000
00000000
007F8000
01FFF000
07803800
0E000C00
1C000600
38000300
30000380
60000180
60000180
600000C0
400000C0
C00000C0
C00000C0
C00000C0
C00000C0
C00000C0
C00000C0
C00000C0
400000C0
600000C0
60000180
60000180
30000380
38000300
1C000600
0E000C00
07803800
01FFF000
007F8000
ENDCHAR
STARTCHAR 00D7
ENCODING 215
SWIDTH 471 0
DWIDTH 19 0
BBX 13 14 3 7
BITMAP
8008
C018
6030
3060
18C0
0D80
0700
0700
0D80
18C0
3060
6030
C018
8008
ENDCHAR
STARTCHAR 00D8
ENCODING 216
SWIDTH 695 0
DWIDTH 28 0
BBX 27 29 1 0
BITMAP
007F8020
01FFF060
078038C0
0E000F80
1C000700
38000700
30000F80
60001980
60003180
600060C0
4000C0C0
C00180C0
C00300C0
C00700C0
C00E00C0
C01C00C0
C03800C0
C07000C0
40E000C0
61C000C0
63800180
67000180
3E000380
3C000300
38000600
7E000C00
67803800
C1FFF000
807F8000
ENDCHAR
STARTCHAR 00D9
ENCODING 217
SWIDTH 695 0
DWIDTH 28 0
BBX 22 38 3 0
BITMAP
006000
006000
006000
003000
003000
000000
000000
000000
000000
C0000C
C0000C
C0000C
C0000C
C0000C
C0000C
C0000C
C0000C
C0000C
C0000C
C0000C
C0000C
C0000C
C0000C
C0000C
C0000C
C0000C
C0000C
C0000C
C0000C
C0000C
C0000C
600018
600018
300030
380060
1E01C0
07FF80
01FE00
ENDCHAR
STARTCHAR 00DA
ENCODING 218
SWIDTH 695 0
DWIDTH 28 0
BBX 22 38 3 0
BITMAP
001800
001800
001000
003000
003000
000000
000000
000000
000000
C0000C
C0000C
C0000C
C0000C
C0000C
C0000C
C0000C
C0000C
C0000C
C0000C
C0000C
C0000C
C0000C
C0000C
C0000C
C0000C
C0000C
C0000C
C0000C
C0000C
C0000C
C0000C
600018
600018
300030
380060
1E01C0
07FF80
01FE00
ENDCHAR
STARTCHAR 00DB
ENCODING 219
SWIDTH 695 0
DWIDTH 28 0
BBX 22 37 3 0
BITMAP
007800
00D800
00CC00
018600
020000
000000
000000
000000
C0000C
C0000C
C0000C
C0000C
C0000C
C0000C
C0000C
C0000C
C0000C
C0000C
C0000C
C0000C
C0000C
C0000C
C0000C
C0000C
C0000C
C0000C
C0000C
C0000C
C0000C
C0000C
600018
600018
300030
380060
1E01C0
07FF80
01FE00
ENDCHAR
STARTCHAR 00DC
ENCODING 220
SWIDTH 695 0
DWIDTH 28 0
BBX 22 36 3 0
BITMAP
030700
030700
000000
000000
000000
000000
000000
C0000C
C0000C
C0000C
C0000C
C0000C
C0000C
C0000C
C0000C
C0000C
C0000C
C0000C
C0000C
C0000C
C0000C
C0000C
C0000C
C0000C
C0000C
C0000C
C0000C
C0000C
C0000C
600018
600018
300030
380060
1E01C0
07FF80
01FE00
ENDCHAR
STARTCHAR 00DD
ENCODING 221
SWIDTH 521 0
DWIDTH 21 0
BBX 21 38 0 0
BITMAP
001800
003000
003000
002000
006000
000000
000000
000000
000000
C00018
600030
600020
300060
1800C0
1800C0
0C0180
0C0180
060300
060200
030600
018C00
018C00
00D800
00D800
007000
006000
002000
002000
002000
002000
002000
002000
002000
002000
002000
002000
002000
002000
ENDCHAR
STARTCHAR 00DE
ENCODING 222
SWIDTH 571 0
DWIDTH 23 0
BBX 19 29 3 0
BITMAP
C00000
C00000
C00000
C00000
C00000
C00000
FFF800
FFFE00
C00700
C00180
C000C0
C000C0
C00060
C00060
C00060
C00060
C00060
C000C0
C000C0
C00180
C00700
FFFE00
FFF800
C00000
C00000
C00000
C00000
C00000
C00000
ENDCHAR
STARTCHAR 00DF
ENCODING 223
SWIDTH 571 0
DWIDTH 23 0
BBX 18 29 3 0
BITMAP
0FE000
3FF800
701C00
600C00
C00600
C00600
C00600
C00600
C00600
C00600
C00C00
C01C00
C1F000
C1F800
C03E00
C00700
C00380
C00180
C00180
C000C0
C000C0
C000C0
C000C0
C00180
C00180
C00300
C00F00
C7FC00
C7F000
ENDCHAR
STARTCHAR 00E0
ENCODING 224
SWIDTH 546 0
DWIDTH 22 0
BBX 17 30 2 0
BITMAP
018000
018000
018000
00C000
00C000
000000
000000
000000
03F000
1FFE00
380700
700300
600180
600180
000080
000080
000380
01FF80
1FE080
780080
600080
C00080
C00180
800180
800380
C00380
C00680
601C80
3FF880
0FE000
ENDCHAR
STARTCHAR 00E1
ENCODING 225
SWIDTH 546 0
DWIDTH 22 0
BBX 17 30 2 0
BITMAP
003000
006000
006000
004000
00C000
000000
000000
000000
03F000
1FFE00
380700
700300
600180
600180
000080
000080
000380
01FF80
1FE080
780080
600080
C00080
C00180
800180
800380
C00380
C00680
601C80
3FF880
0FE000
ENDCHAR
STARTCHAR 00E2
ENCODING 226
SWIDTH 546 0
DWIDTH 22 0
BBX 17 30 2 0
BITMAP
00C000
01E000
033000
031800
060C00
000000
000000
000000
03F000
1FFE00
380700
700300
600180
600180
000080
000080
000380
01FF80
1FE080
780080
600080
C00080
C00180
800180
800380
C00380
C00680
601C80
3FF880
0FE000
ENDCHAR
STARTCHAR 00E3
ENCODING 227
SWIDTH 546 0
DWIDTH 22 0
BBX 17 29 2 0
BITMAP
020000
0FC600
08FE00
083C00
000000
000000
000000
03F000
1FFE00
380700
700300
600180
600180
000080
000080
000380
01FF80
1FE080
780080
600080
C00080
C00180
800180
800380
C00380
C00680
601C80
3FF880
0FE000
ENDCHAR
STARTCHAR 00E4
ENCODING 228
SWIDTH 546 0
DWIDTH 22 0
BBX 17 29 2 0
BITMAP
060C00
060C00
000000
000000
000000
000000
000000
03F000
1FFE00
380700
700300
600180
600180
000080
000080
000380
01FF80
1FE080
780080
600080
C00080
C00180
800180
800380
C00380
C00680
601C80
3FF880
0FE000
ENDCHAR
STARTCHAR 00E5
ENCODING 229
SWIDTH 546 0
DWIDTH 22 0
BBX 17 32 2 0
BITMAP
00C000
03F000
031800
061800
061800
021800
03F000
01E000
000000
000000
03F000
1FFE00
380700
700300
600180
600180
000080
000080
000380
01FF80
1FE080
780080
600080
C00080
C00180
800180
800380
C00380
C00680
601C80
3FF880
0FE000
ENDCHAR
STARTCHAR 00E6
ENCODING 230
SWIDTH 943 0
DWIDTH 38 0
BBX 34 22 2 0
BITMAP
03F003F000
1FFC0FFC00
38061C0700
7003300300
6001E00180
C001E00080
0001C000C0
0000C000C0
0000C000C0
0000800040
0FFFFFFFC0
3FFFFFFFC0
6000800000
C000C00000
C001C00000
8001C00000
8001C000C0
C003600180
C006300380
601E180700
3FF80FFE00
0FE003F000
ENDCHAR
STARTCHAR 00E7
ENCODING 231
SWIDTH 546 0
DWIDTH 22 0
BBX 18 31 2 -9
BITMAP
03F800
0FFE00
1C0700
300180
6000C0
6000C0
C00000
C00000
C00000
800000
800000
800000
800000
C00000
C00000
C00000
600080
6000C0
300180
1C0700
0FFE00
03F800
00C000
00C000
00C000
00E000
003000
003000
003000
03E000
03C000
ENDCHAR
STARTCHAR 00E8
ENCODING 232
SWIDTH 571 0
DWIDTH 23 0
BBX 19 30 2 0
BITMAP
018000
00C000
00C000
004000
006000
000000
000000
000000
03F800
0FFE00
1C0700
300180
6000C0
6000C0
C00060
C00060
C00060
800020
FFFFE0
FFFFE0
800000
C00000
C00000
C00000
600060
6000C0
3001C0
1C0380
0FFE00
03F800
ENDCHAR
STARTCHAR 00E9
ENCODING 233
SWIDTH 571 0
DWIDTH 23 0
BBX 19 30 2 0
BITMAP
001000
003000
003000
002000
006000
000000
000000
000000
03F800
0FFE00
1C0700
300180
6000C0
6000C0
C00060
C00060
C00060
800020
FFFFE0
FFFFE0
800000
C00000
C00000
C00000
600060
6000C0
3001C0
1C0380
0FFE00
03F800
ENDCHAR
STARTCHAR 00EA
ENCODING 234
SWIDTH 571 0
DWIDTH 23 0
BBX 19 30 2 0
BITMAP
00E000
01B000
01B800
031800
060C00
000000
000000
000000
03F800
0FFE00
1C0700
300180
6000C0
6000C0
C00060
C00060
C00060
800020
FFFFE0
FFFFE0
800000
C00000
C00000
C00000
600060
6000C0
3001C0
1C0380
0FFE00
03F800
ENDCHAR
STARTCHAR 00EB
ENCODING 235
SWIDTH 571 0
DWIDTH 23 0
BBX 19 29 2 0
BITMAP
060C00
060C00
000000
000000
000000
000000
000000
03F800
0FFE00
1C0700
300180
6000C0
6000C0
C00060
C00060
C00060
800020
FFFFE0
FFFFE0
800000
C00000
C00000
C00000
600060
6000C0
3001C0
1C0380
0FFE00
03F800
ENDCHAR
STARTCHAR 00EC
ENCODING 236
SWIDTH 198 0
DWIDTH 8 0
BBX 4 31 1 0
BITMAP
C0
60
60
60
30
00
00
00
00
30
30
30
30
30
30
30
30
30
30
30
30
30
30
30
30
30
30
30
30
30
30
ENDCHAR
STARTCHAR 00ED
ENCODING 237
SWIDTH 198 0
DWIDTH 8 0
BBX 4 31 3 0
BITMAP
30
20
60
60
40
00
00
00
00
C0
C0
C0
C0
C0
C0
C0
C0
C0
C0
C0
C0
C0
C0
C0
C0
C0
C0
C0
C0
C0
C0
ENDCHAR
STARTCHAR 00EE
ENCODING 238
SWIDTH 198 0
DWIDTH 8 0
BBX 9 30 0 0
BITMAP
3C00
3E00
6600
C300
0080
0000
0000
0000
1800
1800
1800
1800
1800
1800
1800
1800
1800
1800
1800
1800
1800
1800
1800
1800
1800
1800
1800
1800
1800
1800
ENDCHAR
STARTCHAR 00EF
ENCODING 239
SWIDTH 198 0
DWIDTH 8 0
BBX 10 29 -1 0
BITMAP
E1C0
E1C0
0000
0000
0000
0000
0000
0C00
0C00
0C00
0C00
0C00
0C00
0C00
0C00
0C00
0C00
0C00
0C00
0C00
0C00
0C00
0C00
0C00
0C00
0C00
0C00
0C00
0C00
ENDCHAR
STARTCHAR 00F0
ENCODING 240
SWIDTH 571 0
DWIDTH 23 0
BBX 19 31 2 0
BITMAP
000200
000600
01CE00
01FC00
001E00
003700
006380
002180
0000C0
0000C0
01E060
0FFE60
1C0760
3001E0
6000E0
6000E0
C00060
C00060
C00060
C00020
800020
800020
C00020
C00060
C00060
400060
6000C0
300180
1C0780
0FFE00
03F800
ENDCHAR
STARTCHAR 00F1
ENCODING 241
SWIDTH 571 0
DWIDTH 23 0
BBX 18 29 3 0
BITMAP
0E0400
1F8C00
18FC00
183800
000000
000000
000000
83F000
8FFC00
B80E00
B00300
E00100
C00180
C00180
C00080
C000C0
C000C0
C000C0
C000C0
C000C0
C000C0
C000C0
C000C0
C000C0
C000C0
C000C0
C000C0
C000C0
C000C0
ENDCHAR
STARTCHAR 00F2
ENCODING 242
SWIDTH 571 0
DWIDTH 23 0
BBX 19 30 2 0
BITMAP
018000
018000
008000
00C000
00C000
000000
000000
000000
03F800
0FFE00
1C0700
300180
6000C0
6000C0
C00060
C00060
C00060
800020
800020
800020
800020
C00060
C00060
C00060
6000C0
6000C0
300180
1C0700
0FFE00
03F800
ENDCHAR
STARTCHAR 00F3
ENCODING 243
SWIDTH 571 0
DWIDTH 23 0
BBX 19 30 2 0
BITMAP
003000
003000
006000
006000
006000
000000
000000
000000
03F800
0FFE00
1C0700
300180
6000C0
6000C0
C00060
C00060
C00060
800020
800020
800020
800020
C00060
C00060
C00060
6000C0
6000C0
300180
1C0700
0FFE00
03F800
ENDCHAR
STARTCHAR 00F4
ENCODING 244
SWIDTH 571 0
DWIDTH 23 0
BBX 19 30 2 0
BITMAP
00E000
01B000
01B800
031800
060C00
000000
000000
000000
03F800
0FFE00
1C0700
300180
6000C0
6000C0
C00060
C00060
C00060
800020
800020
800020
800020
C00060
C00060
C00060
6000C0
6000C0
300180
1C0700
0FFE00
03F800
ENDCHAR
STARTCHAR 00F5
ENCODING 245
SWIDTH 571 0
DWIDTH 23 0
BBX 19 29 2 0
BITMAP
020000
0FC200
0CFE00
0C3C00
000000
000000
000000
03F800
0FFE00
1C0700
300180
6000C0
6000C0
C00060
C00060
C00060
800020
800020
800020
800020
C00060
C00060
C00060
6000C0
6000C0
300180
1C0700
0FFE00
03F800
ENDCHAR
STARTCHAR 00F6
ENCODING 246
SWIDTH 571 0
DWIDTH 23 0
BBX 19 29 2 0
BITMAP
060C00
060C00
000000
000000
000000
000000
000000
03F800
0FFE00
1C0700
300180
6000C0
6000C0
C00060
C00060
C00060
800020
800020
800020
800020
C00060
C00060
C00060
6000C0
6000C0
300180
1C0700
0FFE00
03F800
ENDCHAR
STARTCHAR 00F7
ENCODING 247
SWIDTH 546 0
DWIDTH 22 0
BBX 17 11 2 9
BITMAP
00C000
00C000
000000
000000
FFFF80
FFFF80
000000
000000
000000
00C000
00C000
ENDCHAR
STARTCHAR 00F8
ENCODING 248
SWIDTH 571 0
DWIDTH 23 0
BBX 21 22 1 0
BITMAP
01FC08
07FF18
0E03F0
1800E0
3000E0
3001F0
600330
600630
600C30
401810
403018
406010
40C010
618030
630030
660030
6C0060
380060
3800C0
7E0380
C7FF00
81FC00
ENDCHAR
STARTCHAR 00F9
ENCODING 249
SWIDTH 571 0
DWIDTH 23 0
BBX 18 31 2 0
BITMAP
018000
008000
00C000
00C000
004000
000000
000000
000000
000000
C00040
C00040
C00040
C00040
C00040
C00040
C00040
C00040
C00040
C00040
C00040
C00040
C00040
C000C0
4000C0
6000C0
6000C0
3001C0
300340
1C0740
0FFC40
03F840
ENDCHAR
STARTCHAR 00FA
ENCODING 250
SWIDTH 571 0
DWIDTH 23 0
BBX 18 31 2 0
BITMAP
003000
003000
006000
006000
004000
000000
000000
000000
000000
C00040
C00040
C00040
C00040
C00040
C00040
C00040
C00040
C00040
C00040
C00040
C00040
C00040
C000C0
4000C0
6000C0
6000C0
3001C0
300340
1C0740
0FFC40
03F840
ENDCHAR
STARTCHAR 00FB
ENCODING 251
SWIDTH 571 0
DWIDTH 23 0
BBX 18 30 2 0
BITMAP
00E000
01B000
031800
061C00
000000
000000
000000
000000
C00040
C00040
C00040
C00040
C00040
C00040
C00040
C00040
C00040
C00040
C00040
C00040
C00040
C000C0
4000C0
6000C0
6000C0
3001C0
300340
1C0740
0FFC40
03F840
ENDCHAR
STARTCHAR 00FC
ENCODING 252
SWIDTH 571 0
DWIDTH 23 0
BBX 18 29 2 0
BITMAP
0E0C00
0E0C00
000000
000000
000000
000000
000000
C00040
C00040
C00040
C00040
C00040
C00040
C00040
C00040
C00040
C00040
C00040
C00040
C00040
C000C0
4000C0
6000C0
6000C0
3001C0
300340
1C0740
0FFC40
03F840
ENDCHAR
STARTCHAR 00FD
ENCODING 253
SWIDTH 496 0
DWIDTH 20 0
BBX 18 40 1 -9
BITMAP
003000
006000
006000
006000
00C000
000000
000000
000000
000000
C000C0
C000C0
600080
600180
200180
300100
300300
180300
180600
0C0600
0C0600
0C0C00
060C00
060800
031800
031800
031000
01B000
01B000
00E000
00E000
006000
00C000
00C000
008000
018000
018000
010000
030000
030000
060000
ENDCHAR
STARTCHAR 00FE
ENCODING 254
SWIDTH 571 0
DWIDTH 23 0
BBX 19 38 3 -9
BITMAP
C00000
C00000
C00000
C00000
C00000
C00000
C00000
C3F000
CFFC00
DC0700
F00300
E00180
E000C0
C000C0
C000C0
C00040
800060
800060
800060
C00040
C00040
C000C0
C000C0
E000C0
E00180
F00300
DC0700
CFFC00
C3F000
C00000
C00000
C00000
C00000
C00000
C00000
C00000
C00000
C00000
ENDCHAR
STARTCHAR 00FF
ENCODING 255
SWIDTH 496 0
DWIDTH 20 0
BBX 18 38 1 -9
BITMAP
060C00
060C00
000000
000000
000000
000000
000000
C000C0
C000C0
600080
600180
200180
300100
300300
180300
180600
0C0600
0C0600
0C0C00
060C00
060800
031800
031800
031000
01B000
01B000
00E000
00E000
006000
00C000
00C000
008000
018000
018000
010000
030000
030000
060000
ENDCHAR
ENDFONT
