STARTFONT 2.1
COMMENT
COMMENT Converted from OpenType font "Manrope-ExtraLight.otf" by "otf2bdf 3.0".
COMMENT
FONT -FreeType-Manrope ExtraLight-Medium-R-Normal--32-230-100-100-P-138-ISO10646-1
SIZE 23 100 100
FONTBOUNDINGBOX 30 38 -1 -7
STARTPROPERTIES 19
FOUNDRY "FreeType"
FAMILY_NAME "Manrope ExtraLight"
WEIGHT_NAME "Medium"
SLANT "R"
SETWIDTH_NAME "Normal"
ADD_STYLE_NAME ""
PIXEL_SIZE 32
POINT_SIZE 230
RESOLUTION_X 100
RESOLUTION_Y 100
SPACING "P"
AVERAGE_WIDTH 138
CHARSET_REGISTRY "ISO10646"
CHARSET_ENCODING "1"
FONT_ASCENT 34
FONT_DESCENT 9
COPYRIGHT "Copyright 2019-2021 The Manrope Project Authors (https://github.com/sharanda/manrope)"
_OTF_FONTFILE "Manrope-ExtraLight.otf"
_OTF_PSNAME "Manrope-ExtraLight"
ENDPROPERTIES
CHARS 191
STARTCHAR 0020
ENCODING 32
SWIDTH 187 0
DWIDTH 6 0
BBX 0 0 0 0
BITMAP
ENDCHAR
STARTCHAR 0021
ENCODING 33
SWIDTH 281 0
DWIDTH 9 0
BBX 1 23 4 0
BITMAP
80
80
80
80
80
80
80
80
80
80
80
80
80
80
80
80
80
00
00
00
00
80
80
ENDCHAR
STARTCHAR 0022
ENCODING 34
SWIDTH 344 0
DWIDTH 11 0
BBX 6 6 2 17
BITMAP
8C
8C
8C
8C
8C
8C
ENDCHAR
STARTCHAR 0023
ENCODING 35
SWIDTH 907 0
DWIDTH 29 0
BBX 25 23 2 0
BITMAP
00101000
00103000
00302000
00302000
00202000
00206000
00604000
3FFFFF80
0040C000
0040C000
00C08000
00808000
00818000
01810000
FFFFFE00
01030000
01030000
03020000
02020000
02060000
02060000
06040000
04040000
ENDCHAR
STARTCHAR 0024
ENCODING 36
SWIDTH 563 0
DWIDTH 18 0
BBX 16 29 1 -3
BITMAP
0180
0180
0180
07E0
1E78
300C
6006
6002
4003
4001
6000
3000
1800
0F80
01F0
001C
0006
0003
0001
0001
8001
C003
6002
3006
1E3C
07F0
0180
0180
0180
ENDCHAR
STARTCHAR 0025
ENCODING 37
SWIDTH 907 0
DWIDTH 29 0
BBX 25 23 2 0
BITMAP
1F000300
3BC00600
60400C00
C0601800
80203000
80206000
8020C000
C0618000
60430000
3BC60000
1F0C0000
00180000
00307800
0061CE00
00C30300
01820100
03060180
06060080
0C060180
18020100
30030300
6001CE00
40007C00
ENDCHAR
STARTCHAR 0026
ENCODING 38
SWIDTH 626 0
DWIDTH 20 0
BBX 18 23 2 0
BITMAP
07C000
1C7000
301800
600800
600000
400000
400000
600000
200000
300000
180000
3C0000
630000
C18200
80C200
806200
803200
800A00
800600
C00600
600D00
3C3880
0FE040
ENDCHAR
STARTCHAR 0027
ENCODING 39
SWIDTH 187 0
DWIDTH 6 0
BBX 1 6 2 17
BITMAP
80
80
80
80
80
80
ENDCHAR
STARTCHAR 0028
ENCODING 40
SWIDTH 406 0
DWIDTH 13 0
BBX 7 32 4 -5
BITMAP
02
06
04
0C
18
10
30
20
20
60
60
40
40
40
40
C0
C0
C0
40
40
40
40
60
20
20
30
10
18
0C
04
06
02
ENDCHAR
STARTCHAR 0029
ENCODING 41
SWIDTH 406 0
DWIDTH 13 0
BBX 7 32 2 -5
BITMAP
80
C0
40
60
30
10
18
08
08
0C
04
04
04
04
04
06
06
04
04
04
04
04
0C
08
08
18
10
30
60
40
C0
80
ENDCHAR
STARTCHAR 002A
ENCODING 42
SWIDTH 406 0
DWIDTH 13 0
BBX 10 9 1 14
BITMAP
0400
0400
0400
E5C0
3F00
0E00
1A00
3300
2180
ENDCHAR
STARTCHAR 002B
ENCODING 43
SWIDTH 594 0
DWIDTH 19 0
BBX 15 15 2 4
BITMAP
0100
0100
0100
0100
0100
0100
0100
FFFE
0100
0100
0100
0100
0100
0100
0100
ENDCHAR
STARTCHAR 002C
ENCODING 44
SWIDTH 250 0
DWIDTH 8 0
BBX 2 6 2 -3
BITMAP
C0
C0
C0
40
40
80
ENDCHAR
STARTCHAR 002D
ENCODING 45
SWIDTH 406 0
DWIDTH 13 0
BBX 10 1 2 10
BITMAP
FFC0
ENDCHAR
STARTCHAR 002E
ENCODING 46
SWIDTH 219 0
DWIDTH 7 0
BBX 1 2 3 0
BITMAP
80
80
ENDCHAR
STARTCHAR 002F
ENCODING 47
SWIDTH 344 0
DWIDTH 11 0
BBX 7 23 2 0
BITMAP
02
02
06
06
04
04
0C
08
08
08
18
10
10
30
30
20
20
60
60
40
40
C0
80
ENDCHAR
STARTCHAR 0030
ENCODING 48
SWIDTH 563 0
DWIDTH 18 0
BBX 14 23 2 0
BITMAP
07C0
1CF0
3018
6008
400C
C004
C004
C004
C004
C004
C004
C004
C004
C004
C004
C004
C004
C004
400C
6008
3018
1CF0
07C0
ENDCHAR
STARTCHAR 0031
ENCODING 49
SWIDTH 344 0
DWIDTH 11 0
BBX 6 23 2 0
BITMAP
1C
3C
EC
8C
0C
0C
0C
0C
0C
0C
0C
0C
0C
0C
0C
0C
0C
0C
0C
0C
0C
0C
0C
ENDCHAR
STARTCHAR 0032
ENCODING 50
SWIDTH 563 0
DWIDTH 18 0
BBX 14 23 2 0
BITMAP
0FC0
3CE0
6030
4018
C00C
800C
8004
0004
0004
000C
0008
0018
0030
0060
00C0
0180
0600
0C00
1800
3000
6000
C000
FFFC
ENDCHAR
STARTCHAR 0033
ENCODING 51
SWIDTH 532 0
DWIDTH 17 0
BBX 14 23 1 0
BITMAP
7FFC
000C
0018
0030
0060
00C0
0180
0600
0C00
1FE0
0830
0018
0008
000C
0004
0004
0004
0004
C00C
4008
6018
38F0
0FC0
ENDCHAR
STARTCHAR 0034
ENCODING 52
SWIDTH 563 0
DWIDTH 18 0
BBX 15 23 2 0
BITMAP
0180
0100
0300
0200
0600
0400
0C00
0800
1800
1000
1010
3010
2010
6010
4010
C010
8010
FFFE
0010
0010
0010
0010
0010
ENDCHAR
STARTCHAR 0035
ENCODING 53
SWIDTH 563 0
DWIDTH 18 0
BBX 15 23 2 0
BITMAP
7FF8
4000
4000
4000
4000
4000
C000
C000
CFC0
FCF0
E018
C008
0004
0004
0006
0006
0006
8004
800C
4008
6018
3CF0
0FC0
ENDCHAR
STARTCHAR 0036
ENCODING 54
SWIDTH 626 0
DWIDTH 20 0
BBX 16 23 2 0
BITMAP
07E0
1E70
300C
6004
4000
C000
C000
C000
C7E0
DE70
F00C
E004
C006
C002
C002
C003
C002
C002
4006
6004
300C
1E70
07E0
ENDCHAR
STARTCHAR 0037
ENCODING 55
SWIDTH 469 0
DWIDTH 15 0
BBX 13 23 1 0
BITMAP
FFF8
0018
0010
0030
0020
0020
0060
0040
00C0
0080
0080
0180
0100
0300
0200
0200
0600
0400
0C00
0800
0800
1800
1000
ENDCHAR
STARTCHAR 0038
ENCODING 56
SWIDTH 563 0
DWIDTH 18 0
BBX 14 23 2 0
BITMAP
0FC0
3FF0
6030
4018
4008
C008
C008
4008
6018
3070
1FE0
3CF0
6018
4008
C00C
800C
800C
800C
C00C
4008
6018
3CF0
0FC0
ENDCHAR
STARTCHAR 0039
ENCODING 57
SWIDTH 626 0
DWIDTH 20 0
BBX 16 23 2 0
BITMAP
07E0
1E70
300C
6004
4006
C002
C002
C003
C003
C003
4007
6007
300F
1E73
07E3
0003
0003
0002
0002
6004
300C
1C78
07E0
ENDCHAR
STARTCHAR 003A
ENCODING 58
SWIDTH 281 0
DWIDTH 9 0
BBX 2 11 3 3
BITMAP
C0
C0
00
00
00
00
00
00
00
C0
C0
ENDCHAR
STARTCHAR 003B
ENCODING 59
SWIDTH 281 0
DWIDTH 9 0
BBX 2 21 3 -3
BITMAP
C0
C0
00
00
00
00
00
00
00
00
00
00
00
00
00
C0
C0
C0
40
40
40
ENDCHAR
STARTCHAR 003C
ENCODING 60
SWIDTH 594 0
DWIDTH 19 0
BBX 7 14 5 3
BITMAP
02
06
0C
18
30
60
C0
80
40
20
10
08
04
02
ENDCHAR
STARTCHAR 003D
ENCODING 61
SWIDTH 751 0
DWIDTH 24 0
BBX 16 7 4 8
BITMAP
FFFF
0000
0000
0000
0000
0000
FFFF
ENDCHAR
STARTCHAR 003E
ENCODING 62
SWIDTH 594 0
DWIDTH 19 0
BBX 8 15 7 3
BITMAP
80
C0
60
30
18
0C
06
03
06
0C
18
30
60
C0
80
ENDCHAR
STARTCHAR 003F
ENCODING 63
SWIDTH 500 0
DWIDTH 16 0
BBX 12 23 2 0
BITMAP
1F80
79E0
4030
8030
8010
8010
0010
0010
0030
0060
00C0
0180
0300
0600
0400
0400
0400
0000
0000
0000
0000
0400
0400
ENDCHAR
STARTCHAR 0040
ENCODING 64
SWIDTH 907 0
DWIDTH 29 0
BBX 23 23 3 -3
BITMAP
01FF00
0701C0
0C0070
180018
300008
60000C
400004
C00006
80FF06
818702
810302
810302
810302
810306
818704
C0FDDC
4000F0
600000
300000
380000
0C0040
0701C0
01FF00
ENDCHAR
STARTCHAR 0041
ENCODING 65
SWIDTH 594 0
DWIDTH 19 0
BBX 18 23 1 0
BITMAP
00C000
01C000
01C000
016000
032000
022000
023000
061000
041800
041800
0C0800
080C00
180400
180400
100600
300200
3FFE00
200300
600100
400180
400180
C00080
8000C0
ENDCHAR
STARTCHAR 0042
ENCODING 66
SWIDTH 594 0
DWIDTH 19 0
BBX 16 23 2 0
BITMAP
FFF0
C038
C00C
C006
C002
C002
C002
C006
C00C
C01C
FFF0
C03C
C006
C002
C003
C001
C001
C001
C003
C003
C006
C03C
FFF0
ENDCHAR
STARTCHAR 0043
ENCODING 67
SWIDTH 688 0
DWIDTH 22 0
BBX 20 23 1 0
BITMAP
01FC00
0F9F00
1C0180
3000C0
200060
600020
400030
C00010
C00000
C00000
800000
800000
800000
800000
C00000
C00010
400030
600020
200060
3000C0
1C0180
071F00
01FC00
ENDCHAR
STARTCHAR 0044
ENCODING 68
SWIDTH 657 0
DWIDTH 21 0
BBX 18 23 2 0
BITMAP
FFE000
C07800
C00E00
C00200
C00300
C00100
C00180
C00080
C00080
C00080
C000C0
C000C0
C000C0
C00080
C00080
C00080
C00180
C00180
C00300
C00200
C00E00
C07C00
FFE000
ENDCHAR
STARTCHAR 0045
ENCODING 69
SWIDTH 563 0
DWIDTH 18 0
BBX 14 23 2 0
BITMAP
FFFC
C000
C000
C000
C000
C000
C000
C000
C000
C000
C000
FFF0
C000
C000
C000
C000
C000
C000
C000
C000
C000
C000
FFFC
ENDCHAR
STARTCHAR 0046
ENCODING 70
SWIDTH 500 0
DWIDTH 16 0
BBX 13 23 2 0
BITMAP
FFF8
C000
C000
C000
C000
C000
C000
C000
C000
C000
C000
FFE0
C000
C000
C000
C000
C000
C000
C000
C000
C000
C000
C000
ENDCHAR
STARTCHAR 0047
ENCODING 71
SWIDTH 688 0
DWIDTH 22 0
BBX 20 23 1 0
BITMAP
01FC00
078F00
1C0180
3000C0
200040
600060
400000
C00000
C00000
C00000
800000
800000
800FF0
800010
C00030
C00030
400030
600020
200060
3000C0
180180
0F0F00
01FC00
ENDCHAR
STARTCHAR 0048
ENCODING 72
SWIDTH 657 0
DWIDTH 21 0
BBX 17 23 2 0
BITMAP
C00180
C00180
C00180
C00180
C00180
C00180
C00180
C00180
C00180
C00180
C00180
FFFF80
C00180
C00180
C00180
C00180
C00180
C00180
C00180
C00180
C00180
C00180
C00180
ENDCHAR
STARTCHAR 0049
ENCODING 73
SWIDTH 187 0
DWIDTH 6 0
BBX 1 23 3 0
BITMAP
80
80
80
80
80
80
80
80
80
80
80
80
80
80
80
80
80
80
80
80
80
80
80
ENDCHAR
STARTCHAR 004A
ENCODING 74
SWIDTH 438 0
DWIDTH 14 0
BBX 11 23 0 0
BITMAP
0020
0020
0020
0020
0020
0020
0020
0020
0020
0020
0020
0020
0020
0020
0020
0020
0020
0020
0020
C020
6060
39C0
1F00
ENDCHAR
STARTCHAR 004B
ENCODING 75
SWIDTH 563 0
DWIDTH 18 0
BBX 15 23 2 0
BITMAP
C00C
C018
C030
C060
C0C0
C180
C300
C600
CC00
D800
F000
F000
D800
CC00
C600
C300
C180
C0C0
C060
C030
C018
C00C
C006
ENDCHAR
STARTCHAR 004C
ENCODING 76
SWIDTH 500 0
DWIDTH 16 0
BBX 12 23 3 0
BITMAP
8000
8000
8000
8000
8000
8000
8000
8000
8000
8000
8000
8000
8000
8000
8000
8000
8000
8000
8000
8000
8000
8000
FFF0
ENDCHAR
STARTCHAR 004D
ENCODING 77
SWIDTH 845 0
DWIDTH 27 0
BBX 22 23 2 0
BITMAP
C00004
C0000C
E0000C
E0001C
F00014
D00034
D00024
D80024
C80064
CC0044
C400C4
C60084
C20184
C30104
C10304
C18204
C08604
C0C404
C0C404
C04C04
C06804
C03804
C03004
ENDCHAR
STARTCHAR 004E
ENCODING 78
SWIDTH 657 0
DWIDTH 21 0
BBX 17 23 2 0
BITMAP
C00080
E00080
E00080
F00080
D80080
C80080
CC0080
C60080
C20080
C30080
C18080
C08080
C0C080
C06080
C02080
C03080
C01880
C00880
C00C80
C00680
C00280
C00180
C00180
ENDCHAR
STARTCHAR 004F
ENCODING 79
SWIDTH 720 0
DWIDTH 23 0
BBX 21 23 1 0
BITMAP
01FC00
0F8F00
1C0180
3000C0
200060
600020
400030
C00010
C00010
C00010
800018
800018
800018
800010
C00010
C00010
400030
600020
200060
3000C0
1C0180
070F00
01FC00
ENDCHAR
STARTCHAR 0050
ENCODING 80
SWIDTH 594 0
DWIDTH 19 0
BBX 16 23 2 0
BITMAP
FFE0
C038
C00C
C006
C002
C002
C003
C003
C002
C002
C006
C00C
C038
FFF0
C000
C000
C000
C000
C000
C000
C000
C000
C000
ENDCHAR
STARTCHAR 0051
ENCODING 81
SWIDTH 720 0
DWIDTH 23 0
BBX 21 23 1 0
BITMAP
01FC00
0F8F00
1C0180
3000C0
200060
600020
400030
C00010
C00010
C00010
800018
800018
800018
800010
C00010
C00010
400230
600320
2001E0
3000C0
1C01E0
070F30
01FC10
ENDCHAR
STARTCHAR 0052
ENCODING 82
SWIDTH 626 0
DWIDTH 20 0
BBX 16 23 2 0
BITMAP
FFE0
C038
C00C
C006
C002
C002
C003
C003
C002
C002
C006
C00C
C038
FFF0
C030
C018
C018
C00C
C00C
C006
C006
C003
C003
ENDCHAR
STARTCHAR 0053
ENCODING 83
SWIDTH 594 0
DWIDTH 19 0
BBX 17 23 1 0
BITMAP
07F000
1E7C00
300600
600300
600100
400180
400180
600000
300000
1C0000
0F8000
00F800
001E00
000300
000100
000180
000080
C00180
C00180
600100
300700
1E3C00
07F000
ENDCHAR
STARTCHAR 0054
ENCODING 84
SWIDTH 594 0
DWIDTH 19 0
BBX 19 23 0 0
BITMAP
FFFFE0
004000
004000
004000
004000
004000
004000
004000
004000
004000
004000
004000
004000
004000
004000
004000
004000
004000
004000
004000
004000
004000
004000
ENDCHAR
STARTCHAR 0055
ENCODING 85
SWIDTH 688 0
DWIDTH 22 0
BBX 18 23 2 0
BITMAP
C000C0
C000C0
C000C0
C000C0
C000C0
C000C0
C000C0
C000C0
C000C0
C000C0
C000C0
C000C0
C000C0
C000C0
C000C0
C000C0
C000C0
400080
600180
300300
380600
0F3C00
03F000
ENDCHAR
STARTCHAR 0056
ENCODING 86
SWIDTH 563 0
DWIDTH 18 0
BBX 18 23 0 0
BITMAP
C00040
4000C0
600080
600080
200180
300100
100100
100300
180200
080600
080600
0C0400
040C00
040800
060800
021800
031000
011000
013000
01A000
00E000
00E000
00C000
ENDCHAR
STARTCHAR 0057
ENCODING 87
SWIDTH 907 0
DWIDTH 29 0
BBX 27 23 1 0
BITMAP
80040020
800E0020
C00A0060
400A0040
400B0040
601B00C0
601100C0
20110080
20318080
30208180
10208100
1020C100
1860C300
18404300
08404200
08C06200
0C802600
04802400
04803400
07803C00
07001C00
03001800
03001800
ENDCHAR
STARTCHAR 0058
ENCODING 88
SWIDTH 563 0
DWIDTH 18 0
BBX 17 23 1 0
BITMAP
800100
400300
600600
200400
100C00
181800
0C1000
043000
066000
034000
018000
018000
01C000
024000
062000
0C3000
081000
180800
300C00
200600
600200
C00300
800180
ENDCHAR
STARTCHAR 0059
ENCODING 89
SWIDTH 532 0
DWIDTH 17 0
BBX 16 23 0 0
BITMAP
C001
4003
6002
3006
100C
1808
0818
0C10
0430
0620
0360
01C0
0180
0080
0080
0080
0080
0080
0080
0080
0080
0080
0080
ENDCHAR
STARTCHAR 005A
ENCODING 90
SWIDTH 594 0
DWIDTH 19 0
BBX 15 23 2 0
BITMAP
FFFE
0004
000C
0008
0010
0030
0020
0060
00C0
0080
0180
0100
0200
0600
0400
0C00
1800
1000
3000
6000
4000
C000
FFFE
ENDCHAR
STARTCHAR 005B
ENCODING 91
SWIDTH 406 0
DWIDTH 13 0
BBX 6 35 4 -7
BITMAP
FC
C0
C0
C0
C0
C0
C0
C0
C0
C0
C0
C0
C0
C0
C0
C0
C0
C0
C0
C0
C0
C0
C0
C0
C0
C0
C0
C0
C0
C0
C0
C0
C0
C0
FC
ENDCHAR
STARTCHAR 005C
ENCODING 92
SWIDTH 344 0
DWIDTH 11 0
BBX 7 23 2 0
BITMAP
80
C0
40
40
60
60
20
20
30
30
10
10
18
08
08
08
0C
04
04
06
06
02
02
ENDCHAR
STARTCHAR 005D
ENCODING 93
SWIDTH 406 0
DWIDTH 13 0
BBX 5 35 3 -7
BITMAP
F8
08
08
08
08
08
08
08
08
08
08
08
08
08
08
08
08
08
08
08
08
08
08
08
08
08
08
08
08
08
08
08
08
08
F8
ENDCHAR
STARTCHAR 005E
ENCODING 94
SWIDTH 657 0
DWIDTH 21 0
BBX 14 8 4 15
BITMAP
0300
0780
0CC0
1860
3030
6018
C00C
8004
ENDCHAR
STARTCHAR 005F
ENCODING 95
SWIDTH 657 0
DWIDTH 21 0
BBX 21 1 0 -3
BITMAP
FFFFF8
ENDCHAR
STARTCHAR 0060
ENCODING 96
SWIDTH 469 0
DWIDTH 15 0
BBX 2 4 6 26
BITMAP
80
C0
40
40
ENDCHAR
STARTCHAR 0061
ENCODING 97
SWIDTH 532 0
DWIDTH 17 0
BBX 14 18 1 0
BITMAP
07E0
1E78
3008
600C
6004
0004
0004
007C
0FE4
3804
6004
C004
C004
C00C
C01C
6034
39E4
1F84
ENDCHAR
STARTCHAR 0062
ENCODING 98
SWIDTH 563 0
DWIDTH 18 0
BBX 15 23 2 0
BITMAP
C000
C000
C000
C000
C000
C7C0
DC70
F018
E00C
C004
C006
C006
C002
8002
8002
C006
C006
C006
C004
A00C
B018
9C70
87C0
ENDCHAR
STARTCHAR 0063
ENCODING 99
SWIDTH 532 0
DWIDTH 17 0
BBX 15 18 1 0
BITMAP
07E0
1E78
300C
2006
6002
4000
C000
C000
C000
C000
C000
C000
4000
6000
2006
300C
1E78
07E0
ENDCHAR
STARTCHAR 0064
ENCODING 100
SWIDTH 563 0
DWIDTH 18 0
BBX 15 23 1 0
BITMAP
0002
0002
0002
0002
0002
07C2
1C72
301A
200E
6006
4006
C002
C002
C002
C002
C002
C002
4006
6006
200E
301A
1C72
07C2
ENDCHAR
STARTCHAR 0065
ENCODING 101
SWIDTH 563 0
DWIDTH 18 0
BBX 16 18 1 0
BITMAP
07E0
1E78
300C
2006
6002
4003
C003
C003
FFFF
C000
C000
C000
4000
6003
2006
300C
1E78
07E0
ENDCHAR
STARTCHAR 0066
ENCODING 102
SWIDTH 344 0
DWIDTH 11 0
BBX 10 23 1 0
BITMAP
07C0
0C00
1800
1000
1000
FFC0
1000
1000
1000
1000
1000
1000
1000
1000
1000
1000
1000
1000
1000
1000
1000
1000
1000
ENDCHAR
STARTCHAR 0067
ENCODING 103
SWIDTH 563 0
DWIDTH 18 0
BBX 15 25 1 -7
BITMAP
07C2
1C72
301A
200E
6006
4006
C002
C002
C002
C002
C002
C002
4006
6006
200E
301A
1C72
07C2
0002
0002
0006
6006
200C
3818
0FF0
ENDCHAR
STARTCHAR 0068
ENCODING 104
SWIDTH 563 0
DWIDTH 18 0
BBX 14 23 2 0
BITMAP
8000
8000
8000
8000
8000
87C0
9CF0
B018
E008
C00C
C004
C004
C004
C004
C004
C004
C004
C004
C004
C004
C004
C004
C004
ENDCHAR
STARTCHAR 0069
ENCODING 105
SWIDTH 187 0
DWIDTH 6 0
BBX 1 23 3 0
BITMAP
80
80
00
00
00
80
80
80
80
80
80
80
80
80
80
80
80
80
80
80
80
80
80
ENDCHAR
STARTCHAR 006A
ENCODING 106
SWIDTH 219 0
DWIDTH 7 0
BBX 5 30 0 -7
BITMAP
18
18
00
00
00
18
18
18
18
18
18
18
18
18
18
18
18
18
18
18
18
18
18
18
18
18
18
18
30
F0
ENDCHAR
STARTCHAR 006B
ENCODING 107
SWIDTH 469 0
DWIDTH 15 0
BBX 13 23 2 0
BITMAP
C000
C000
C000
C000
C000
C030
C060
C0C0
C180
C300
C600
CC00
D800
F000
F000
D800
CC00
C600
C300
C1C0
C0E0
C030
C018
ENDCHAR
STARTCHAR 006C
ENCODING 108
SWIDTH 187 0
DWIDTH 6 0
BBX 1 23 3 0
BITMAP
80
80
80
80
80
80
80
80
80
80
80
80
80
80
80
80
80
80
80
80
80
80
80
ENDCHAR
STARTCHAR 006D
ENCODING 109
SWIDTH 813 0
DWIDTH 26 0
BBX 22 18 2 0
BITMAP
8F83E0
B8CE30
E06818
C0300C
C03004
C03004
C01004
C01004
C01004
C01004
C01004
C01004
C03004
C03004
C03004
C03004
C03004
C03004
ENDCHAR
STARTCHAR 006E
ENCODING 110
SWIDTH 563 0
DWIDTH 18 0
BBX 14 18 2 0
BITMAP
87C0
9CF0
B018
E008
C00C
C004
C004
C004
C004
C004
C004
C004
C004
C004
C004
C004
C004
C004
ENDCHAR
STARTCHAR 006F
ENCODING 111
SWIDTH 563 0
DWIDTH 18 0
BBX 16 18 1 0
BITMAP
07E0
1E38
300C
2006
6002
4003
C003
C001
C001
C001
C001
C003
4003
6002
2006
300C
1E38
07E0
ENDCHAR
STARTCHAR 0070
ENCODING 112
SWIDTH 563 0
DWIDTH 18 0
BBX 15 25 2 -7
BITMAP
87C0
9C70
B018
A00C
C004
C006
C006
C002
8002
8002
C006
C006
C006
C004
E00C
F018
DC70
C7C0
C000
C000
C000
C000
C000
C000
C000
ENDCHAR
STARTCHAR 0071
ENCODING 113
SWIDTH 563 0
DWIDTH 18 0
BBX 15 25 1 -7
BITMAP
07C2
1C72
301A
200E
6006
4006
C002
C002
C002
C002
C002
C002
4006
6006
200E
301A
1C72
07C2
0002
0002
0002
0002
0002
0002
0002
ENDCHAR
STARTCHAR 0072
ENCODING 114
SWIDTH 344 0
DWIDTH 11 0
BBX 8 18 2 0
BITMAP
8F
98
A0
E0
C0
C0
C0
C0
C0
C0
C0
C0
C0
C0
C0
C0
C0
C0
ENDCHAR
STARTCHAR 0073
ENCODING 115
SWIDTH 500 0
DWIDTH 16 0
BBX 14 18 1 0
BITMAP
0FC0
3CF0
6018
400C
4004
4000
6000
3C00
0780
00F0
0018
000C
0004
C004
400C
6018
3C78
0FE0
ENDCHAR
STARTCHAR 0074
ENCODING 116
SWIDTH 375 0
DWIDTH 12 0
BBX 11 23 0 0
BITMAP
0C00
0C00
0C00
0C00
0C00
FFE0
0C00
0C00
0C00
0C00
0C00
0C00
0C00
0C00
0C00
0C00
0C00
0C00
0C00
0C00
0400
0700
01E0
ENDCHAR
STARTCHAR 0075
ENCODING 117
SWIDTH 563 0
DWIDTH 18 0
BBX 14 18 2 0
BITMAP
8004
8004
8004
8004
8004
8004
8004
8004
8004
8004
8004
8004
C00C
C00C
401C
2014
3CE4
0FC4
ENDCHAR
STARTCHAR 0076
ENCODING 118
SWIDTH 469 0
DWIDTH 15 0
BBX 13 18 1 0
BITMAP
8008
C008
C018
4010
6010
2030
2020
3020
1060
1040
1840
08C0
0880
0D80
0580
0500
0700
0300
ENDCHAR
STARTCHAR 0077
ENCODING 119
SWIDTH 751 0
DWIDTH 24 0
BBX 22 18 1 0
BITMAP
803004
80300C
C07008
407808
405818
604818
20C810
208C10
308430
318420
110620
110260
190240
0B0340
0A0340
0E01C0
0E0180
040180
ENDCHAR
STARTCHAR 0078
ENCODING 120
SWIDTH 500 0
DWIDTH 16 0
BBX 15 18 1 0
BITMAP
C004
400C
6018
3030
1820
0860
0CC0
0780
0300
0300
0680
0CC0
0860
1020
3010
6018
C00C
8006
ENDCHAR
STARTCHAR 0079
ENCODING 121
SWIDTH 500 0
DWIDTH 16 0
BBX 14 25 1 -7
BITMAP
8004
C00C
4008
6008
6018
2010
3010
1030
1820
1860
0860
0C40
04C0
0680
0280
0380
0300
0100
0300
0200
0600
0600
0400
0C00
0800
ENDCHAR
STARTCHAR 007A
ENCODING 122
SWIDTH 532 0
DWIDTH 17 0
BBX 15 18 1 0
BITMAP
FFFE
000C
0018
0030
0020
0060
00C0
0180
0100
0300
0600
0C00
0800
1800
3000
6000
C000
FFFC
ENDCHAR
STARTCHAR 007B
ENCODING 123
SWIDTH 406 0
DWIDTH 13 0
BBX 7 35 4 -7
BITMAP
1E
10
30
30
30
30
30
30
30
30
30
30
30
30
30
20
60
C0
60
20
30
30
30
30
30
30
30
30
30
30
30
30
30
18
0E
ENDCHAR
STARTCHAR 007C
ENCODING 124
SWIDTH 219 0
DWIDTH 7 0
BBX 1 23 3 0
BITMAP
80
80
80
80
80
80
80
80
80
80
80
80
80
80
80
80
80
80
80
80
80
80
80
ENDCHAR
STARTCHAR 007D
ENCODING 125
SWIDTH 406 0
DWIDTH 13 0
BBX 7 35 1 -7
BITMAP
F0
18
08
0C
0C
0C
0C
0C
0C
0C
0C
0C
0C
0C
0C
04
06
02
06
0C
0C
0C
0C
0C
0C
0C
0C
0C
0C
0C
0C
0C
08
18
F0
ENDCHAR
STARTCHAR 007E
ENCODING 126
SWIDTH 626 0
DWIDTH 20 0
BBX 12 5 4 8
BITMAP
7030
FC10
CE30
83F0
C1E0
ENDCHAR
STARTCHAR 00A0
ENCODING 160
SWIDTH 187 0
DWIDTH 6 0
BBX 0 0 0 0
BITMAP
ENDCHAR
STARTCHAR 00A1
ENCODING 161
SWIDTH 281 0
DWIDTH 9 0
BBX 1 23 4 -5
BITMAP
80
80
00
00
00
00
80
80
80
80
80
80
80
80
80
80
80
80
80
80
80
80
80
ENDCHAR
STARTCHAR 00A2
ENCODING 162
SWIDTH 532 0
DWIDTH 17 0
BBX 15 24 1 -1
BITMAP
0080
0080
0080
07E0
1E38
300C
2006
6000
4000
C000
C000
C000
C000
C000
C000
4000
6000
2006
300C
1C38
07E0
0080
0080
0080
ENDCHAR
STARTCHAR 00A3
ENCODING 163
SWIDTH 563 0
DWIDTH 18 0
BBX 16 23 1 0
BITMAP
00F8
039C
0606
0402
0403
0401
0400
0400
0400
0400
0400
FFF0
0400
0400
0400
0400
0400
0400
0400
0400
0C00
1C00
FFFF
ENDCHAR
STARTCHAR 00A4
ENCODING 164
SWIDTH 626 0
DWIDTH 20 0
BBX 18 17 1 3
BITMAP
C3F0C0
6F3D80
380700
300300
200100
600180
400080
400080
400080
400080
400080
600180
200100
300300
380700
6E3D80
C3F0C0
ENDCHAR
STARTCHAR 00A5
ENCODING 165
SWIDTH 532 0
DWIDTH 17 0
BBX 16 23 0 0
BITMAP
C001
4003
6002
3006
100C
1808
0818
0C10
0430
0620
0360
0140
0180
0080
1FFC
0080
0080
0080
1FFC
0080
0080
0080
0080
ENDCHAR
STARTCHAR 00A6
ENCODING 166
SWIDTH 219 0
DWIDTH 7 0
BBX 1 27 3 -4
BITMAP
80
80
80
80
80
80
80
80
80
80
80
00
00
00
00
00
80
80
80
80
80
80
80
80
80
80
80
ENDCHAR
STARTCHAR 00A7
ENCODING 167
SWIDTH 500 0
DWIDTH 16 0
BBX 14 26 1 -5
BITMAP
0FC0
1CF0
3038
6018
6008
6000
2000
3C00
0F80
30F0
6018
400C
C004
4004
6004
380C
0F18
01E0
0038
0008
000C
000C
600C
3018
3838
0FE0
ENDCHAR
STARTCHAR 00A8
ENCODING 168
SWIDTH 469 0
DWIDTH 15 0
BBX 8 2 4 27
BITMAP
C3
C3
ENDCHAR
STARTCHAR 00A9
ENCODING 169
SWIDTH 751 0
DWIDTH 24 0
BBX 22 22 1 0
BITMAP
01FE00
070380
0C00C0
180060
30FC30
61CE18
430318
C20108
C6000C
86000C
86000C
86000C
C6000C
C2000C
430308
618618
20FC10
300030
180060
0E01C0
07CF00
00FC00
ENDCHAR
STARTCHAR 00AA
ENCODING 170
SWIDTH 313 0
DWIDTH 10 0
BBX 8 10 1 8
BITMAP
18
7E
43
03
3F
63
C3
C3
7F
30
ENDCHAR
STARTCHAR 00AB
ENCODING 171
SWIDTH 500 0
DWIDTH 16 0
BBX 10 13 3 3
BITMAP
0C40
18C0
3180
2300
4200
C400
8400
4600
6300
3180
1880
0840
0440
ENDCHAR
STARTCHAR 00AC
ENCODING 172
SWIDTH 594 0
DWIDTH 19 0
BBX 15 5 2 7
BITMAP
FFFE
0002
0002
0002
0002
ENDCHAR
STARTCHAR 00AD
ENCODING 173
SWIDTH 406 0
DWIDTH 13 0
BBX 10 1 2 10
BITMAP
FFC0
ENDCHAR
STARTCHAR 00AE
ENCODING 174
SWIDTH 594 0
DWIDTH 19 0
BBX 15 14 2 10
BITMAP
0FE0
1838
300C
67C4
4466
C422
C462
C7C2
C4C2
4446
6464
300C
1838
0FE0
ENDCHAR
STARTCHAR 00AF
ENCODING 175
SWIDTH 469 0
DWIDTH 15 0
BBX 8 1 4 27
BITMAP
FF
ENDCHAR
STARTCHAR 00B0
ENCODING 176
SWIDTH 438 0
DWIDTH 14 0
BBX 11 11 1 12
BITMAP
1F00
3BC0
6040
C060
8020
8020
8020
C020
4060
70C0
1F80
ENDCHAR
STARTCHAR 00B1
ENCODING 177
SWIDTH 594 0
DWIDTH 19 0
BBX 15 15 2 3
BITMAP
0100
0100
0100
0100
0100
FFFE
0100
0100
0100
0100
0100
0000
0000
0000
FFFE
ENDCHAR
STARTCHAR 00B2
ENCODING 178
SWIDTH 406 0
DWIDTH 13 0
BBX 9 14 2 9
BITMAP
3C00
6300
C100
8180
0080
0180
0100
0300
0600
0C00
1000
6000
C000
FF80
ENDCHAR
STARTCHAR 00B3
ENCODING 179
SWIDTH 375 0
DWIDTH 12 0
BBX 9 14 1 9
BITMAP
7F80
0180
0300
0400
0800
3E00
0300
0180
0080
0080
0080
C180
6300
3E00
ENDCHAR
STARTCHAR 00B4
ENCODING 180
SWIDTH 469 0
DWIDTH 15 0
BBX 3 4 6 26
BITMAP
60
40
40
C0
ENDCHAR
STARTCHAR 00B5
ENCODING 181
SWIDTH 594 0
DWIDTH 19 0
BBX 14 25 2 -7
BITMAP
C004
C004
C004
C004
C004
C004
C004
C004
C004
C004
C004
C004
C004
C00C
E00C
B01C
9C74
8FC4
8000
8000
8000
8000
8000
8000
8000
ENDCHAR
STARTCHAR 00B6
ENCODING 182
SWIDTH 594 0
DWIDTH 19 0
BBX 13 28 3 -5
BITMAP
0F98
3F98
7F98
7F98
FF98
FF98
FF98
FF98
FF98
FF98
7F98
7F98
3F98
0798
0098
0098
0098
0098
0098
0098
0098
0098
0098
0098
0098
0098
0098
0098
ENDCHAR
STARTCHAR 00B7
ENCODING 183
SWIDTH 187 0
DWIDTH 6 0
BBX 2 3 2 9
BITMAP
40
C0
C0
ENDCHAR
STARTCHAR 00B8
ENCODING 184
SWIDTH 375 0
DWIDTH 12 0
BBX 5 8 4 -7
BITMAP
30
20
60
70
10
18
10
F0
ENDCHAR
STARTCHAR 00B9
ENCODING 185
SWIDTH 313 0
DWIDTH 10 0
BBX 4 14 2 9
BITMAP
30
F0
90
10
10
10
10
10
10
10
10
10
10
10
ENDCHAR
STARTCHAR 00BA
ENCODING 186
SWIDTH 344 0
DWIDTH 11 0
BBX 9 9 1 9
BITMAP
3C00
7700
4100
C100
C180
C180
4100
6300
3E00
ENDCHAR
STARTCHAR 00BB
ENCODING 187
SWIDTH 500 0
DWIDTH 16 0
BBX 10 13 3 3
BITMAP
8C00
C600
6300
3100
1080
08C0
0840
1880
3180
6300
4600
8400
8800
ENDCHAR
STARTCHAR 00BC
ENCODING 188
SWIDTH 939 0
DWIDTH 30 0
BBX 24 23 2 0
BITMAP
300020
F00030
900060
1000C0
100180
100300
100300
100600
100C00
101810
101030
103020
106060
10C040
0180C0
018084
030184
060104
0C0304
1803FF
180004
300004
200004
ENDCHAR
STARTCHAR 00BD
ENCODING 189
SWIDTH 876 0
DWIDTH 28 0
BBX 25 23 2 0
BITMAP
30002000
F0003000
90006000
1000C000
10018000
10010000
10030000
10060000
100C3C00
1018E600
10108300
10318100
10618180
10C00100
01800100
01000300
03000600
06000C00
0C001800
18003000
18006000
30008000
2001FF80
ENDCHAR
STARTCHAR 00BE
ENCODING 190
SWIDTH 939 0
DWIDTH 30 0
BBX 27 23 1 0
BITMAP
7F800200
01800600
03000C00
04001800
08001800
3E003000
03006000
0180C000
00818300
00818200
00830600
C1860400
630C0C00
3E180C00
001808C0
003018C0
006010C0
00C030C0
008020C0
01803FE0
030000C0
060000C0
040000C0
ENDCHAR
STARTCHAR 00BF
ENCODING 191
SWIDTH 500 0
DWIDTH 16 0
BBX 12 24 2 -6
BITMAP
0200
0200
0000
0000
0000
0000
0200
0200
0200
0200
0600
0C00
1800
3000
6000
C000
8000
8000
8010
8010
8010
C030
7060
3FC0
ENDCHAR
STARTCHAR 00C0
ENCODING 192
SWIDTH 594 0
DWIDTH 19 0
BBX 18 30 1 0
BITMAP
010000
010000
018000
008000
000000
000000
000000
00C000
01C000
01C000
016000
032000
022000
023000
061000
041800
041800
0C0800
080C00
180400
180400
100600
300200
3FFE00
200300
600100
400180
400180
C00080
8000C0
ENDCHAR
STARTCHAR 00C1
ENCODING 193
SWIDTH 594 0
DWIDTH 19 0
BBX 18 30 1 0
BITMAP
006000
004000
004000
00C000
000000
000000
000000
00C000
01C000
01C000
016000
032000
022000
023000
061000
041800
041800
0C0800
080C00
180400
180400
100600
300200
3FFE00
200300
600100
400180
400180
C00080
8000C0
ENDCHAR
STARTCHAR 00C2
ENCODING 194
SWIDTH 594 0
DWIDTH 19 0
BBX 18 30 1 0
BITMAP
00C000
016000
032000
061000
000000
000000
000000
00C000
01C000
01C000
016000
032000
022000
023000
061000
041800
041800
0C0800
080C00
180400
180400
100600
300200
3FFE00
200300
600100
400180
400180
C00080
8000C0
ENDCHAR
STARTCHAR 00C3
ENCODING 195
SWIDTH 594 0
DWIDTH 19 0
BBX 18 29 1 0
BITMAP
078800
0CC800
0C7000
000000
000000
000000
00C000
01C000
01C000
016000
032000
022000
023000
061000
041800
041800
0C0800
080C00
180400
180400
100600
300200
3FFE00
200300
600100
400180
400180
C00080
8000C0
ENDCHAR
STARTCHAR 00C4
ENCODING 196
SWIDTH 594 0
DWIDTH 19 0
BBX 18 29 1 0
BITMAP
061800
061800
000000
000000
000000
000000
00C000
01C000
01C000
016000
032000
022000
023000
061000
041800
041800
0C0800
080C00
180400
180400
100600
300200
3FFE00
200300
600100
400180
400180
C00080
8000C0
ENDCHAR
STARTCHAR 00C5
ENCODING 197
SWIDTH 594 0
DWIDTH 19 0
BBX 18 31 1 0
BITMAP
01C000
036000
023000
023000
036000
01C000
000000
000000
00C000
01C000
01C000
016000
032000
022000
023000
061000
041800
041800
0C0800
080C00
180400
180400
100600
300200
3FFE00
200300
600100
400180
400180
C00080
8000C0
ENDCHAR
STARTCHAR 00C6
ENCODING 198
SWIDTH 907 0
DWIDTH 29 0
BBX 26 23 1 0
BITMAP
00FFFFC0
018C0000
010C0000
010C0000
030C0000
020C0000
020C0000
060C0000
040C0000
040C0000
0C0C0000
080FFF00
180C0000
180C0000
100C0000
300C0000
3FFC0000
200C0000
600C0000
400C0000
400C0000
C00C0000
800FFFC0
ENDCHAR
STARTCHAR 00C7
ENCODING 199
SWIDTH 688 0
DWIDTH 22 0
BBX 20 30 1 -7
BITMAP
01FC00
0F9F00
1C0180
3000C0
200060
600020
400030
C00010
C00000
C00000
800000
800000
800000
800000
C00000
C00010
400030
600020
200060
3000C0
1C0180
071F00
01FC00
002000
002000
007000
001800
001800
001800
00F000
ENDCHAR
STARTCHAR 00C8
ENCODING 200
SWIDTH 563 0
DWIDTH 18 0
BBX 14 30 2 0
BITMAP
0200
0300
0100
0100
0000
0000
0000
FFFC
C000
C000
C000
C000
C000
C000
C000
C000
C000
C000
FFF0
C000
C000
C000
C000
C000
C000
C000
C000
C000
C000
FFFC
ENDCHAR
STARTCHAR 00C9
ENCODING 201
SWIDTH 563 0
DWIDTH 18 0
BBX 14 30 2 0
BITMAP
00C0
0080
0180
0180
0000
0000
0000
FFFC
C000
C000
C000
C000
C000
C000
C000
C000
C000
C000
FFF0
C000
C000
C000
C000
C000
C000
C000
C000
C000
C000
FFFC
ENDCHAR
STARTCHAR 00CA
ENCODING 202
SWIDTH 563 0
DWIDTH 18 0
BBX 14 30 2 0
BITMAP
0300
0780
0CC0
0860
0000
0000
0000
FFFC
C000
C000
C000
C000
C000
C000
C000
C000
C000
C000
FFF0
C000
C000
C000
C000
C000
C000
C000
C000
C000
C000
FFFC
ENDCHAR
STARTCHAR 00CB
ENCODING 203
SWIDTH 563 0
DWIDTH 18 0
BBX 14 29 2 0
BITMAP
1860
1860
0000
0000
0000
0000
FFFC
C000
C000
C000
C000
C000
C000
C000
C000
C000
C000
FFF0
C000
C000
C000
C000
C000
C000
C000
C000
C000
C000
FFFC
ENDCHAR
STARTCHAR 00CC
ENCODING 204
SWIDTH 187 0
DWIDTH 6 0
BBX 3 30 1 0
BITMAP
C0
40
40
60
00
00
00
20
20
20
20
20
20
20
20
20
20
20
20
20
20
20
20
20
20
20
20
20
20
20
ENDCHAR
STARTCHAR 00CD
ENCODING 205
SWIDTH 187 0
DWIDTH 6 0
BBX 2 30 3 0
BITMAP
40
C0
C0
80
00
00
00
80
80
80
80
80
80
80
80
80
80
80
80
80
80
80
80
80
80
80
80
80
80
80
ENDCHAR
STARTCHAR 00CE
ENCODING 206
SWIDTH 187 0
DWIDTH 6 0
BBX 7 30 0 0
BITMAP
30
68
CC
86
00
00
00
10
10
10
10
10
10
10
10
10
10
10
10
10
10
10
10
10
10
10
10
10
10
10
ENDCHAR
STARTCHAR 00CF
ENCODING 207
SWIDTH 187 0
DWIDTH 6 0
BBX 8 29 -1 0
BITMAP
C3
C3
00
00
00
00
08
08
08
08
08
08
08
08
08
08
08
08
08
08
08
08
08
08
08
08
08
08
08
ENDCHAR
STARTCHAR 00D0
ENCODING 208
SWIDTH 626 0
DWIDTH 20 0
BBX 19 23 0 0
BITMAP
3FF800
201E00
200300
200180
2000C0
200040
200060
200060
200020
200020
200020
FFC020
200020
200020
200060
200060
200040
200040
2000C0
200180
200300
201E00
3FF800
ENDCHAR
STARTCHAR 00D1
ENCODING 209
SWIDTH 657 0
DWIDTH 21 0
BBX 17 29 2 0
BITMAP
070800
05C800
047800
000000
000000
000000
C00080
E00080
E00080
F00080
D80080
C80080
CC0080
C60080
C20080
C30080
C18080
C08080
C0C080
C06080
C02080
C03080
C01880
C00880
C00C80
C00680
C00280
C00180
C00180
ENDCHAR
STARTCHAR 00D2
ENCODING 210
SWIDTH 720 0
DWIDTH 23 0
BBX 21 30 1 0
BITMAP
00C000
004000
004000
006000
000000
000000
000000
01FC00
0F8F00
1C0180
3000C0
200060
600020
400030
C00010
C00010
C00010
800018
800018
800018
800010
C00010
C00010
400030
600020
200060
3000C0
1C0180
070F00
01FC00
ENDCHAR
STARTCHAR 00D3
ENCODING 211
SWIDTH 720 0
DWIDTH 23 0
BBX 21 30 1 0
BITMAP
001800
001000
001000
003000
002000
000000
000000
01FC00
0F8F00
1C0180
3000C0
200060
600020
400030
C00010
C00010
C00010
800018
800018
800018
800010
C00010
C00010
400030
600020
200060
3000C0
1C0180
070F00
01FC00
ENDCHAR
STARTCHAR 00D4
ENCODING 212
SWIDTH 720 0
DWIDTH 23 0
BBX 21 29 1 0
BITMAP
007000
00D000
018800
030C00
000000
000000
01FC00
0F8F00
1C0180
3000C0
200060
600020
400030
C00010
C00010
C00010
800018
800018
800018
800010
C00010
C00010
400030
600020
200060
3000C0
1C0180
070F00
01FC00
ENDCHAR
STARTCHAR 00D5
ENCODING 213
SWIDTH 720 0
DWIDTH 23 0
BBX 21 28 1 0
BITMAP
01C200
023600
021C00
000000
000000
01FC00
0F8F00
1C0180
3000C0
200060
600020
400030
C00010
C00010
C00010
800018
800018
800018
800010
C00010
C00010
400030
600020
200060
3000C0
1C0180
070F00
01FC00
ENDCHAR
STARTCHAR 00D6
ENCODING 214
SWIDTH 720 0
DWIDTH 23 0
BBX 21 28 1 0
BITMAP
030C00
030C00
000000
000000
000000
01FC00
0F8F00
1C0180
3000C0
200060
600020
400030
C00010
C00010
C00010
800018
800018
800018
800010
C00010
C00010
400030
600020
200060
3000C0
1C0180
070F00
01FC00
ENDCHAR
STARTCHAR 00D7
ENCODING 215
SWIDTH 469 0
DWIDTH 15 0
BBX 11 11 2 6
BITMAP
8020
C060
60C0
3180
1B00
0E00
0E00
1B00
3180
60C0
C060
ENDCHAR
STARTCHAR 00D8
ENCODING 216
SWIDTH 720 0
DWIDTH 23 0
BBX 21 23 1 0
BITMAP
01FC08
0F8F18
1C01B0
3000E0
2000E0
6001A0
400330
C00610
C00C10
C01810
803018
806018
804018
808010
C10010
C20010
440030
680020
300060
3000C0
7C0180
C70F00
81FC00
ENDCHAR
STARTCHAR 00D9
ENCODING 217
SWIDTH 688 0
DWIDTH 22 0
BBX 18 30 2 0
BITMAP
018000
008000
00C000
00C000
000000
000000
000000
C000C0
C000C0
C000C0
C000C0
C000C0
C000C0
C000C0
C000C0
C000C0
C000C0
C000C0
C000C0
C000C0
C000C0
C000C0
C000C0
C000C0
400080
600180
300300
380600
0F3C00
03F000
ENDCHAR
STARTCHAR 00DA
ENCODING 218
SWIDTH 688 0
DWIDTH 22 0
BBX 18 30 2 0
BITMAP
006000
004000
004000
00C000
000000
000000
000000
C000C0
C000C0
C000C0
C000C0
C000C0
C000C0
C000C0
C000C0
C000C0
C000C0
C000C0
C000C0
C000C0
C000C0
C000C0
C000C0
C000C0
400080
600180
300300
380600
0F3C00
03F000
ENDCHAR
STARTCHAR 00DB
ENCODING 219
SWIDTH 688 0
DWIDTH 22 0
BBX 18 30 2 0
BITMAP
00C000
01E000
033000
061800
000000
000000
000000
C000C0
C000C0
C000C0
C000C0
C000C0
C000C0
C000C0
C000C0
C000C0
C000C0
C000C0
C000C0
C000C0
C000C0
C000C0
C000C0
C000C0
400080
600180
300300
380600
0F3C00
03F000
ENDCHAR
STARTCHAR 00DC
ENCODING 220
SWIDTH 688 0
DWIDTH 22 0
BBX 18 29 2 0
BITMAP
061800
061800
000000
000000
000000
000000
C000C0
C000C0
C000C0
C000C0
C000C0
C000C0
C000C0
C000C0
C000C0
C000C0
C000C0
C000C0
C000C0
C000C0
C000C0
C000C0
C000C0
400080
600180
300300
380600
0F3C00
03F000
ENDCHAR
STARTCHAR 00DD
ENCODING 221
SWIDTH 532 0
DWIDTH 17 0
BBX 16 30 0 0
BITMAP
00C0
0080
0080
0180
0000
0000
0000
C001
4003
6002
3006
100C
1808
0818
0C10
0430
0620
0360
01C0
0180
0080
0080
0080
0080
0080
0080
0080
0080
0080
0080
ENDCHAR
STARTCHAR 00DE
ENCODING 222
SWIDTH 563 0
DWIDTH 18 0
BBX 15 23 2 0
BITMAP
C000
C000
C000
C000
C000
FFF0
C018
C00C
C006
C006
C002
C002
C002
C006
C006
C00C
C018
FFF0
C000
C000
C000
C000
C000
ENDCHAR
STARTCHAR 00DF
ENCODING 223
SWIDTH 563 0
DWIDTH 18 0
BBX 14 23 2 0
BITMAP
1F80
39E0
6030
4030
C010
C010
C010
C030
C060
C1C0
C3C0
C070
C018
C00C
C004
C004
C004
C004
C004
C00C
C018
CCF0
CFC0
ENDCHAR
STARTCHAR 00E0
ENCODING 224
SWIDTH 532 0
DWIDTH 17 0
BBX 14 25 1 0
BITMAP
0200
0300
0100
0100
0000
0000
0000
07E0
1E78
3008
600C
6004
0004
0004
007C
0FE4
3804
6004
C004
C004
C00C
C01C
6034
39E4
1F84
ENDCHAR
STARTCHAR 00E1
ENCODING 225
SWIDTH 532 0
DWIDTH 17 0
BBX 14 25 1 0
BITMAP
00C0
0080
0080
0180
0000
0000
0000
07E0
1E78
3008
600C
6004
0004
0004
007C
0FE4
3804
6004
C004
C004
C00C
C01C
6034
39E4
1F84
ENDCHAR
STARTCHAR 00E2
ENCODING 226
SWIDTH 532 0
DWIDTH 17 0
BBX 14 24 1 0
BITMAP
0180
03C0
0660
0C30
0000
0000
07E0
1E78
3008
600C
6004
0004
0004
007C
0FE4
3804
6004
C004
C004
C00C
C01C
6034
39E4
1F84
ENDCHAR
STARTCHAR 00E3
ENCODING 227
SWIDTH 532 0
DWIDTH 17 0
BBX 14 23 1 0
BITMAP
0F10
09D0
0870
0000
0000
07E0
1E78
3008
600C
6004
0004
0004
007C
0FE4
3804
6004
C004
C004
C00C
C01C
6034
39E4
1F84
ENDCHAR
STARTCHAR 00E4
ENCODING 228
SWIDTH 532 0
DWIDTH 17 0
BBX 14 23 1 0
BITMAP
0C30
0C30
0000
0000
0000
07E0
1E78
3008
600C
6004
0004
0004
007C
0FE4
3804
6004
C004
C004
C00C
C01C
6034
39E4
1F84
ENDCHAR
STARTCHAR 00E5
ENCODING 229
SWIDTH 532 0
DWIDTH 17 0
BBX 14 25 1 0
BITMAP
03C0
0660
0420
0660
03C0
0000
0000
07E0
1E78
3008
600C
6004
0004
0004
007C
0FE4
3804
6004
C004
C004
C00C
C01C
6034
39E4
1F84
ENDCHAR
STARTCHAR 00E6
ENCODING 230
SWIDTH 939 0
DWIDTH 30 0
BBX 28 18 1 0
BITMAP
07E03E00
1C70F780
301980C0
600F0060
40060020
00060020
00060030
00040030
0FFFFFF0
3C040000
60040000
C0060000
C0060000
C00E0030
C01B0060
603980C0
38E0E380
1FC03E00
ENDCHAR
STARTCHAR 00E7
ENCODING 231
SWIDTH 532 0
DWIDTH 17 0
BBX 15 25 1 -7
BITMAP
07E0
1E78
300C
2006
6002
4000
C000
C000
C000
C000
C000
C000
4000
6000
2006
300C
1C38
07E0
0180
0100
0180
00C0
0040
00C0
0780
ENDCHAR
STARTCHAR 00E8
ENCODING 232
SWIDTH 563 0
DWIDTH 18 0
BBX 16 25 1 0
BITMAP
0300
0100
0180
0180
0000
0000
0000
07E0
1E78
300C
2006
6002
4003
C003
C003
FFFF
C000
C000
C000
4000
6003
2006
300C
1E78
07E0
ENDCHAR
STARTCHAR 00E9
ENCODING 233
SWIDTH 563 0
DWIDTH 18 0
BBX 16 25 1 0
BITMAP
0060
0040
0040
00C0
0080
0000
0000
07E0
1E78
300C
2006
6002
4003
C003
C003
FFFF
C000
C000
C000
4000
6003
2006
300C
1E78
07E0
ENDCHAR
STARTCHAR 00EA
ENCODING 234
SWIDTH 563 0
DWIDTH 18 0
BBX 16 24 1 0
BITMAP
0180
0340
0660
0C30
0000
0000
07E0
1E78
300C
2006
6002
4003
C003
C003
FFFF
C000
C000
C000
4000
6003
2006
300C
1E78
07E0
ENDCHAR
STARTCHAR 00EB
ENCODING 235
SWIDTH 563 0
DWIDTH 18 0
BBX 16 23 1 0
BITMAP
0C30
0C30
0000
0000
0000
07E0
1E78
300C
2006
6002
4003
C003
C003
FFFF
C000
C000
C000
4000
6003
2006
300C
1E78
07E0
ENDCHAR
STARTCHAR 00EC
ENCODING 236
SWIDTH 187 0
DWIDTH 6 0
BBX 3 25 1 0
BITMAP
C0
40
40
60
00
00
00
20
20
20
20
20
20
20
20
20
20
20
20
20
20
20
20
20
20
ENDCHAR
STARTCHAR 00ED
ENCODING 237
SWIDTH 187 0
DWIDTH 6 0
BBX 2 25 3 0
BITMAP
40
C0
C0
80
00
00
00
80
80
80
80
80
80
80
80
80
80
80
80
80
80
80
80
80
80
ENDCHAR
STARTCHAR 00EE
ENCODING 238
SWIDTH 187 0
DWIDTH 6 0
BBX 7 25 0 0
BITMAP
30
68
CC
86
00
00
00
10
10
10
10
10
10
10
10
10
10
10
10
10
10
10
10
10
10
ENDCHAR
STARTCHAR 00EF
ENCODING 239
SWIDTH 187 0
DWIDTH 6 0
BBX 8 23 -1 0
BITMAP
C3
C3
00
00
00
08
08
08
08
08
08
08
08
08
08
08
08
08
08
08
08
08
08
ENDCHAR
STARTCHAR 00F0
ENCODING 240
SWIDTH 563 0
DWIDTH 18 0
BBX 16 24 1 1
BITMAP
0018
03B0
00E0
0078
00CC
0084
0006
0002
0FF3
181B
3007
6007
4003
4003
C003
C001
C001
C003
4003
4002
6006
300C
1E38
07E0
ENDCHAR
STARTCHAR 00F1
ENCODING 241
SWIDTH 563 0
DWIDTH 18 0
BBX 14 23 2 0
BITMAP
1E30
13A0
10E0
0000
0000
87C0
9CF0
B018
E008
C00C
C004
C004
C004
C004
C004
C004
C004
C004
C004
C004
C004
C004
C004
ENDCHAR
STARTCHAR 00F2
ENCODING 242
SWIDTH 563 0
DWIDTH 18 0
BBX 16 25 1 0
BITMAP
0200
0300
0100
0100
0000
0000
0000
07E0
1E38
300C
2006
6002
4003
C003
C001
C001
C001
C001
C003
4003
6002
2006
300C
1E38
07E0
ENDCHAR
STARTCHAR 00F3
ENCODING 243
SWIDTH 563 0
DWIDTH 18 0
BBX 16 25 1 0
BITMAP
0040
0040
00C0
0080
0180
0000
0000
07E0
1E38
300C
2006
6002
4003
C003
C001
C001
C001
C001
C003
4003
6002
2006
300C
1E38
07E0
ENDCHAR
STARTCHAR 00F4
ENCODING 244
SWIDTH 563 0
DWIDTH 18 0
BBX 16 24 1 0
BITMAP
0180
0340
0660
0C30
0000
0000
07E0
1E38
300C
2006
6002
4003
C003
C001
C001
C001
C001
C003
4003
6002
2006
300C
1E38
07E0
ENDCHAR
STARTCHAR 00F5
ENCODING 245
SWIDTH 563 0
DWIDTH 18 0
BBX 16 23 1 0
BITMAP
0F18
09D0
0870
0000
0000
07E0
1E38
300C
2006
6002
4003
C003
C001
C001
C001
C001
C003
4003
6002
2006
300C
1E38
07E0
ENDCHAR
STARTCHAR 00F6
ENCODING 246
SWIDTH 563 0
DWIDTH 18 0
BBX 16 23 1 0
BITMAP
0C30
0C30
0000
0000
0000
07E0
1E38
300C
2006
6002
4003
C003
C001
C001
C001
C001
C003
4003
6002
2006
300C
1E38
07E0
ENDCHAR
STARTCHAR 00F7
ENCODING 247
SWIDTH 532 0
DWIDTH 17 0
BBX 13 9 2 7
BITMAP
0300
0300
0000
0000
FFF8
0000
0000
0300
0300
ENDCHAR
STARTCHAR 00F8
ENCODING 248
SWIDTH 563 0
DWIDTH 18 0
BBX 16 18 1 0
BITMAP
07E1
1E3B
300E
2006
600E
401B
4033
C061
C0C1
C181
C301
C603
4C03
7802
7006
700C
DE38
87E0
ENDCHAR
STARTCHAR 00F9
ENCODING 249
SWIDTH 563 0
DWIDTH 18 0
BBX 14 25 2 0
BITMAP
0600
0200
0300
0100
0000
0000
0000
8004
8004
8004
8004
8004
8004
8004
8004
8004
8004
8004
8004
C00C
C00C
401C
2014
3CE4
0FC4
ENDCHAR
STARTCHAR 00FA
ENCODING 250
SWIDTH 563 0
DWIDTH 18 0
BBX 14 25 2 0
BITMAP
0080
0180
0100
0300
0000
0000
0000
8004
8004
8004
8004
8004
8004
8004
8004
8004
8004
8004
8004
C00C
C00C
401C
2014
3CE4
0FC4
ENDCHAR
STARTCHAR 00FB
ENCODING 251
SWIDTH 563 0
DWIDTH 18 0
BBX 14 25 2 0
BITMAP
0300
0780
0CC0
1860
0000
0000
0000
8004
8004
8004
8004
8004
8004
8004
8004
8004
8004
8004
8004
C00C
C00C
401C
2014
3CE4
0FC4
ENDCHAR
STARTCHAR 00FC
ENCODING 252
SWIDTH 563 0
DWIDTH 18 0
BBX 14 23 2 0
BITMAP
1860
1860
0000
0000
0000
8004
8004
8004
8004
8004
8004
8004
8004
8004
8004
8004
8004
C00C
C00C
401C
2014
3CE4
0FC4
ENDCHAR
STARTCHAR 00FD
ENCODING 253
SWIDTH 500 0
DWIDTH 16 0
BBX 14 32 1 -7
BITMAP
0080
0180
0100
0300
0000
0000
0000
8004
C00C
4008
6008
6018
2010
3010
1030
1820
1860
0860
0C40
04C0
0680
0280
0380
0300
0100
0300
0200
0600
0600
0400
0C00
0800
ENDCHAR
STARTCHAR 00FE
ENCODING 254
SWIDTH 563 0
DWIDTH 18 0
BBX 15 30 2 -7
BITMAP
C000
C000
C000
C000
C000
C7C0
DC70
F018
E00C
C004
C006
C006
C002
8002
8002
C006
C006
C006
C004
E00C
F018
DC70
C7C0
C000
C000
C000
C000
C000
C000
C000
ENDCHAR
STARTCHAR 00FF
ENCODING 255
SWIDTH 500 0
DWIDTH 16 0
BBX 14 30 1 -7
BITMAP
1860
1860
0000
0000
0000
8004
C00C
4008
6008
6018
2010
3010
1030
1820
1860
0860
0C40
04C0
0680
0280
0380
0300
0100
0300
0200
0600
0600
0400
0C00
0800
ENDCHAR
ENDFONT
