STARTFONT 2.1
COMMENT
COMMENT Converted from OpenType font "manrope-medium.otf" by "otf2bdf 3.0".
COMMENT
FONT -FreeType-Manrope Medium-Medium-R-Normal--19-140-100-100-P-91-ISO10646-1
SIZE 14 100 100
FONTBOUNDINGBOX 19 25 -1 -5
STARTPROPERTIES 19
FOUNDRY "FreeType"
FAMILY_NAME "Manrope Medium"
WEIGHT_NAME "Medium"
SLANT "R"
SETWIDTH_NAME "Normal"
ADD_STYLE_NAME ""
PIXEL_SIZE 19
POINT_SIZE 140
RESOLUTION_X 100
RESOLUTION_Y 100
SPACING "P"
AVERAGE_WIDTH 91
CHARSET_REGISTRY "ISO10646"
CHARSET_ENCODING "1"
FONT_ASCENT 20
FONT_DESCENT 5
COPYRIGHT "Copyright 2019-2021 The Manrope Project Authors (https://github.com/sharanda/manrope)"
_OTF_FONTFILE "manrope-medium.otf"
_OTF_PSNAME "Manrope-Medium"
ENDPROPERTIES
CHARS 191
STARTCHAR 0020
ENCODING 32
SWIDTH 205 0
DWIDTH 4 0
BBX 0 0 0 0
BITMAP
ENDCHAR
STARTCHAR 0021
ENCODING 33
SWIDTH 308 0
DWIDTH 6 0
BBX 2 14 2 0
BITMAP
C0
C0
C0
C0
C0
C0
C0
C0
C0
C0
C0
00
C0
C0
ENDCHAR
STARTCHAR 0022
ENCODING 34
SWIDTH 411 0
DWIDTH 8 0
BBX 5 4 1 10
BITMAP
D8
D8
D8
D8
ENDCHAR
STARTCHAR 0023
ENCODING 35
SWIDTH 925 0
DWIDTH 18 0
BBX 16 14 1 0
BITMAP
0318
0318
0310
0230
3FFF
7FFE
0620
0460
7FFE
FFFC
0CC0
08C0
18C0
1880
ENDCHAR
STARTCHAR 0024
ENCODING 36
SWIDTH 617 0
DWIDTH 12 0
BBX 10 18 1 -2
BITMAP
0C00
0C00
3E00
7F80
C180
C0C0
C000
7000
3E00
0F80
01C0
00C0
C0C0
C0C0
7180
3F00
0C00
0C00
ENDCHAR
STARTCHAR 0025
ENCODING 37
SWIDTH 925 0
DWIDTH 18 0
BBX 15 14 1 0
BITMAP
3804
7E0C
C618
C230
C660
7CC0
1180
0300
067C
0C46
18C2
30C2
607E
403C
ENDCHAR
STARTCHAR 0026
ENCODING 38
SWIDTH 668 0
DWIDTH 13 0
BBX 11 14 1 0
BITMAP
1E00
7F00
6180
4000
6000
6000
3000
7CC0
CEC0
C3C0
C1C0
C1C0
7FE0
3E20
ENDCHAR
STARTCHAR 0027
ENCODING 39
SWIDTH 205 0
DWIDTH 4 0
BBX 2 4 1 10
BITMAP
C0
C0
C0
C0
ENDCHAR
STARTCHAR 0028
ENCODING 40
SWIDTH 411 0
DWIDTH 8 0
BBX 4 20 3 -4
BITMAP
10
30
30
60
40
C0
C0
C0
80
80
80
80
C0
C0
C0
40
60
30
30
10
ENDCHAR
STARTCHAR 0029
ENCODING 41
SWIDTH 411 0
DWIDTH 8 0
BBX 5 19 1 -4
BITMAP
C0
C0
60
20
30
30
10
18
18
18
18
18
18
10
30
30
20
60
C0
ENDCHAR
STARTCHAR 002A
ENCODING 42
SWIDTH 462 0
DWIDTH 9 0
BBX 6 7 1 7
BITMAP
30
30
FC
78
78
4C
08
ENDCHAR
STARTCHAR 002B
ENCODING 43
SWIDTH 565 0
DWIDTH 11 0
BBX 9 9 1 3
BITMAP
0800
0800
0800
0800
FF80
0800
0800
0800
0800
ENDCHAR
STARTCHAR 002C
ENCODING 44
SWIDTH 257 0
DWIDTH 5 0
BBX 2 4 1 -2
BITMAP
C0
C0
40
C0
ENDCHAR
STARTCHAR 002D
ENCODING 45
SWIDTH 411 0
DWIDTH 8 0
BBX 6 1 1 6
BITMAP
FC
ENDCHAR
STARTCHAR 002E
ENCODING 46
SWIDTH 257 0
DWIDTH 5 0
BBX 2 2 2 0
BITMAP
C0
C0
ENDCHAR
STARTCHAR 002F
ENCODING 47
SWIDTH 411 0
DWIDTH 8 0
BBX 6 14 1 0
BITMAP
0C
18
18
18
10
30
30
30
20
60
60
60
40
C0
ENDCHAR
STARTCHAR 0030
ENCODING 48
SWIDTH 617 0
DWIDTH 12 0
BBX 10 14 1 0
BITMAP
1E00
3F80
6180
C0C0
C0C0
C0C0
C0C0
C0C0
C0C0
C0C0
C0C0
6180
3F80
1E00
ENDCHAR
STARTCHAR 0031
ENCODING 49
SWIDTH 411 0
DWIDTH 8 0
BBX 5 14 1 0
BITMAP
38
F8
D8
18
18
18
18
18
18
18
18
18
18
18
ENDCHAR
STARTCHAR 0032
ENCODING 50
SWIDTH 565 0
DWIDTH 11 0
BBX 9 14 1 0
BITMAP
3E00
7F00
E180
C180
0180
0180
0180
0300
0E00
1C00
3800
7000
FF80
FF80
ENDCHAR
STARTCHAR 0033
ENCODING 51
SWIDTH 565 0
DWIDTH 11 0
BBX 9 14 1 0
BITMAP
FF80
FF80
0700
0E00
1800
3E00
3F00
0300
0180
0180
0180
C300
7F00
3C00
ENDCHAR
STARTCHAR 0034
ENCODING 52
SWIDTH 617 0
DWIDTH 12 0
BBX 10 14 1 0
BITMAP
0C00
0C00
1800
1800
1000
3000
3300
6300
6300
C300
FFC0
FFC0
0300
0300
ENDCHAR
STARTCHAR 0035
ENCODING 53
SWIDTH 565 0
DWIDTH 11 0
BBX 9 14 1 0
BITMAP
7F00
7F00
4000
4000
4000
DE00
FF00
4180
0180
0080
C180
C180
7F00
3E00
ENDCHAR
STARTCHAR 0036
ENCODING 54
SWIDTH 617 0
DWIDTH 12 0
BBX 10 14 1 0
BITMAP
1E00
3F80
6100
4000
C000
DE00
FF80
E180
C0C0
C0C0
40C0
6180
3F80
1E00
ENDCHAR
STARTCHAR 0037
ENCODING 55
SWIDTH 514 0
DWIDTH 10 0
BBX 8 14 1 0
BITMAP
FF
FF
03
06
06
04
0C
0C
18
18
10
30
30
60
ENDCHAR
STARTCHAR 0038
ENCODING 56
SWIDTH 565 0
DWIDTH 11 0
BBX 9 14 1 0
BITMAP
3E00
7F00
6180
4180
4180
6380
3F00
7F00
E180
C180
C180
C180
7F00
3E00
ENDCHAR
STARTCHAR 0039
ENCODING 57
SWIDTH 617 0
DWIDTH 12 0
BBX 10 14 1 0
BITMAP
1E00
7F00
6180
C0C0
C0C0
C0C0
61C0
7FC0
1EC0
00C0
00C0
2180
7F00
1E00
ENDCHAR
STARTCHAR 003A
ENCODING 58
SWIDTH 308 0
DWIDTH 6 0
BBX 2 8 2 1
BITMAP
C0
C0
00
00
00
00
C0
C0
ENDCHAR
STARTCHAR 003B
ENCODING 59
SWIDTH 308 0
DWIDTH 6 0
BBX 2 13 2 -2
BITMAP
C0
C0
00
00
00
00
00
00
00
C0
C0
40
C0
ENDCHAR
STARTCHAR 003C
ENCODING 60
SWIDTH 617 0
DWIDTH 12 0
BBX 5 9 3 2
BITMAP
08
18
30
60
C0
60
30
18
08
ENDCHAR
STARTCHAR 003D
ENCODING 61
SWIDTH 771 0
DWIDTH 15 0
BBX 10 4 2 5
BITMAP
FFC0
0000
0000
FFC0
ENDCHAR
STARTCHAR 003E
ENCODING 62
SWIDTH 617 0
DWIDTH 12 0
BBX 5 9 4 2
BITMAP
80
C0
60
30
18
30
60
C0
80
ENDCHAR
STARTCHAR 003F
ENCODING 63
SWIDTH 514 0
DWIDTH 10 0
BBX 8 14 1 0
BITMAP
3C
7F
C3
C1
03
03
06
0C
18
18
00
00
18
18
ENDCHAR
STARTCHAR 0040
ENCODING 64
SWIDTH 925 0
DWIDTH 18 0
BBX 14 14 2 -2
BITMAP
1FE0
3030
6018
C00C
8FCC
88C4
98C4
88CC
8FFC
C778
4000
6000
3CC0
0FC0
ENDCHAR
STARTCHAR 0041
ENCODING 65
SWIDTH 668 0
DWIDTH 13 0
BBX 11 14 1 0
BITMAP
0E00
0E00
1E00
1B00
1300
3100
3180
2180
6080
7FC0
7FC0
C040
C060
8060
ENDCHAR
STARTCHAR 0042
ENCODING 66
SWIDTH 617 0
DWIDTH 12 0
BBX 10 14 1 0
BITMAP
FF00
FF80
C0C0
C0C0
C0C0
C180
FF80
FF80
C0C0
C040
C040
C0C0
FFC0
FF80
ENDCHAR
STARTCHAR 0043
ENCODING 67
SWIDTH 720 0
DWIDTH 14 0
BBX 12 14 1 0
BITMAP
1F80
3FC0
6060
C030
C030
C000
8000
8000
C000
C030
C030
6060
3FC0
1F80
ENDCHAR
STARTCHAR 0044
ENCODING 68
SWIDTH 668 0
DWIDTH 13 0
BBX 11 14 1 0
BITMAP
FF00
FF80
C0C0
C060
C060
C060
C020
C020
C060
C060
C060
C0C0
FF80
FF00
ENDCHAR
STARTCHAR 0045
ENCODING 69
SWIDTH 565 0
DWIDTH 11 0
BBX 9 14 1 0
BITMAP
FF80
FF80
C000
C000
C000
C000
FF00
FF00
C000
C000
C000
C000
FF80
FF80
ENDCHAR
STARTCHAR 0046
ENCODING 70
SWIDTH 514 0
DWIDTH 10 0
BBX 9 14 1 0
BITMAP
FF80
FF80
C000
C000
C000
C000
FE00
FE00
C000
C000
C000
C000
C000
C000
ENDCHAR
STARTCHAR 0047
ENCODING 71
SWIDTH 720 0
DWIDTH 14 0
BBX 12 14 1 0
BITMAP
1F80
3FC0
6060
C030
C000
C000
8000
81F0
C030
C030
C030
6060
3FC0
1F80
ENDCHAR
STARTCHAR 0048
ENCODING 72
SWIDTH 720 0
DWIDTH 14 0
BBX 11 14 1 0
BITMAP
C060
C060
C060
C060
C060
C060
FFE0
FFE0
C060
C060
C060
C060
C060
C060
ENDCHAR
STARTCHAR 0049
ENCODING 73
SWIDTH 257 0
DWIDTH 5 0
BBX 1 14 2 0
BITMAP
80
80
80
80
80
80
80
80
80
80
80
80
80
80
ENDCHAR
STARTCHAR 004A
ENCODING 74
SWIDTH 462 0
DWIDTH 9 0
BBX 8 14 0 0
BITMAP
03
03
03
03
03
03
03
03
03
03
03
C3
7E
3C
ENDCHAR
STARTCHAR 004B
ENCODING 75
SWIDTH 617 0
DWIDTH 12 0
BBX 10 14 1 0
BITMAP
C0C0
C180
C300
C600
CC00
D800
F000
F800
DC00
CE00
C700
C300
C180
C0C0
ENDCHAR
STARTCHAR 004C
ENCODING 76
SWIDTH 514 0
DWIDTH 10 0
BBX 8 14 2 0
BITMAP
80
80
80
80
80
80
80
80
80
80
80
80
FF
FF
ENDCHAR
STARTCHAR 004D
ENCODING 77
SWIDTH 822 0
DWIDTH 16 0
BBX 14 14 1 0
BITMAP
C00C
E00C
E01C
F01C
F03C
D83C
D86C
C86C
CCCC
C4CC
C68C
C38C
C30C
C10C
ENDCHAR
STARTCHAR 004E
ENCODING 78
SWIDTH 720 0
DWIDTH 14 0
BBX 11 14 1 0
BITMAP
C060
E060
F060
F060
D860
CC60
CC60
C660
C360
C360
C1E0
C0E0
C0E0
C060
ENDCHAR
STARTCHAR 004F
ENCODING 79
SWIDTH 720 0
DWIDTH 14 0
BBX 13 14 1 0
BITMAP
1F80
3FC0
6060
C030
C030
C018
8018
8018
C018
C030
C030
6060
3FC0
1F80
ENDCHAR
STARTCHAR 0050
ENCODING 80
SWIDTH 617 0
DWIDTH 12 0
BBX 10 14 1 0
BITMAP
FF00
FF80
C0C0
C0C0
C040
C0C0
C0C0
FF80
FF00
C000
C000
C000
C000
C000
ENDCHAR
STARTCHAR 0051
ENCODING 81
SWIDTH 720 0
DWIDTH 14 0
BBX 13 14 1 0
BITMAP
1F80
3FC0
6060
C030
C030
C018
8018
8018
C018
C0B0
C0F0
6060
3FF0
1F90
ENDCHAR
STARTCHAR 0052
ENCODING 82
SWIDTH 617 0
DWIDTH 12 0
BBX 10 14 1 0
BITMAP
FF00
FF80
C0C0
C0C0
C040
C0C0
C0C0
FF80
FF00
C300
C180
C180
C0C0
C0C0
ENDCHAR
STARTCHAR 0053
ENCODING 83
SWIDTH 617 0
DWIDTH 12 0
BBX 11 14 1 0
BITMAP
1F00
7F80
E0C0
C0C0
C000
7000
3E00
0780
00C0
0060
C060
E0C0
7FC0
1F00
ENDCHAR
STARTCHAR 0054
ENCODING 84
SWIDTH 617 0
DWIDTH 12 0
BBX 11 14 0 0
BITMAP
FFE0
FFE0
0600
0600
0600
0600
0600
0600
0600
0600
0600
0600
0600
0600
ENDCHAR
STARTCHAR 0055
ENCODING 85
SWIDTH 720 0
DWIDTH 14 0
BBX 11 14 1 0
BITMAP
C020
C020
C020
C020
C020
C020
C020
C020
C020
C020
6060
60E0
3FC0
1F00
ENDCHAR
STARTCHAR 0056
ENCODING 86
SWIDTH 617 0
DWIDTH 12 0
BBX 12 14 0 0
BITMAP
C030
4020
6060
6060
2040
30C0
30C0
1080
1980
1980
0900
0F00
0F00
0600
ENDCHAR
STARTCHAR 0057
ENCODING 87
SWIDTH 925 0
DWIDTH 18 0
BBX 18 14 0 0
BITMAP
C0C0C0
60E0C0
60E080
61E180
21A180
31B180
333100
333300
131B00
1A1A00
1E1E00
0E0E00
0C0E00
0C0C00
ENDCHAR
STARTCHAR 0058
ENCODING 88
SWIDTH 617 0
DWIDTH 12 0
BBX 11 14 1 0
BITMAP
C0C0
C0C0
6180
3300
3300
1E00
0C00
0C00
1E00
3300
3380
6180
C0C0
C0E0
ENDCHAR
STARTCHAR 0059
ENCODING 89
SWIDTH 565 0
DWIDTH 11 0
BBX 11 14 0 0
BITMAP
C060
60C0
60C0
3180
1980
1B00
0E00
0E00
0400
0400
0400
0400
0400
0400
ENDCHAR
STARTCHAR 005A
ENCODING 90
SWIDTH 617 0
DWIDTH 12 0
BBX 10 14 1 0
BITMAP
FFC0
FFC0
0180
0300
0300
0600
0E00
0C00
1800
1800
3000
6000
7FC0
FFC0
ENDCHAR
STARTCHAR 005B
ENCODING 91
SWIDTH 411 0
DWIDTH 8 0
BBX 4 22 3 -4
BITMAP
F0
F0
80
80
80
80
80
80
80
80
80
80
80
80
80
80
80
80
80
80
F0
F0
ENDCHAR
STARTCHAR 005C
ENCODING 92
SWIDTH 411 0
DWIDTH 8 0
BBX 6 14 1 0
BITMAP
C0
40
60
60
60
20
30
30
30
10
18
18
18
0C
ENDCHAR
STARTCHAR 005D
ENCODING 93
SWIDTH 411 0
DWIDTH 8 0
BBX 4 22 1 -4
BITMAP
F0
F0
10
10
10
10
10
10
10
10
10
10
10
10
10
10
10
10
10
10
F0
F0
ENDCHAR
STARTCHAR 005E
ENCODING 94
SWIDTH 668 0
DWIDTH 13 0
BBX 9 5 2 8
BITMAP
0800
1C00
3600
6300
C180
ENDCHAR
STARTCHAR 005F
ENCODING 95
SWIDTH 668 0
DWIDTH 13 0
BBX 13 1 0 -2
BITMAP
FFF8
ENDCHAR
STARTCHAR 0060
ENCODING 96
SWIDTH 514 0
DWIDTH 10 0
BBX 3 3 3 16
BITMAP
C0
40
60
ENDCHAR
STARTCHAR 0061
ENCODING 97
SWIDTH 565 0
DWIDTH 11 0
BBX 9 11 1 0
BITMAP
3E00
7F00
C180
0180
1F80
7D80
C180
C180
C380
EF80
7D80
ENDCHAR
STARTCHAR 0062
ENCODING 98
SWIDTH 617 0
DWIDTH 12 0
BBX 10 14 1 0
BITMAP
C000
C000
C000
DE00
FF80
E180
C0C0
C0C0
C0C0
C0C0
C0C0
E180
FF80
DE00
ENDCHAR
STARTCHAR 0063
ENCODING 99
SWIDTH 565 0
DWIDTH 11 0
BBX 9 11 1 0
BITMAP
3E00
7F00
E180
C000
C000
C000
C000
C000
E180
7F00
3E00
ENDCHAR
STARTCHAR 0064
ENCODING 100
SWIDTH 617 0
DWIDTH 12 0
BBX 9 14 1 0
BITMAP
0080
0080
0080
3E80
7F80
E180
C180
C080
C080
C080
C180
E180
7F80
3E80
ENDCHAR
STARTCHAR 0065
ENCODING 101
SWIDTH 565 0
DWIDTH 11 0
BBX 10 11 1 0
BITMAP
1E00
7F00
E180
C080
C0C0
FFC0
C000
C000
E180
7F80
1E00
ENDCHAR
STARTCHAR 0066
ENCODING 102
SWIDTH 360 0
DWIDTH 7 0
BBX 6 14 1 0
BITMAP
3C
30
60
FC
60
60
60
60
60
60
60
60
60
60
ENDCHAR
STARTCHAR 0067
ENCODING 103
SWIDTH 617 0
DWIDTH 12 0
BBX 9 16 1 -5
BITMAP
3E80
7F80
E180
C180
C080
C080
C080
C180
E180
7F80
3E80
0080
0180
6380
7F00
1C00
ENDCHAR
STARTCHAR 0068
ENCODING 104
SWIDTH 617 0
DWIDTH 12 0
BBX 10 14 1 0
BITMAP
C000
C000
C000
DE00
FF80
E180
C080
C0C0
C0C0
C0C0
C0C0
C0C0
C0C0
C0C0
ENDCHAR
STARTCHAR 0069
ENCODING 105
SWIDTH 257 0
DWIDTH 5 0
BBX 1 14 2 0
BITMAP
80
80
00
80
80
80
80
80
80
80
80
80
80
80
ENDCHAR
STARTCHAR 006A
ENCODING 106
SWIDTH 257 0
DWIDTH 5 0
BBX 4 19 0 -5
BITMAP
30
30
00
30
30
30
30
30
30
30
30
30
30
30
30
30
30
E0
C0
ENDCHAR
STARTCHAR 006B
ENCODING 107
SWIDTH 514 0
DWIDTH 10 0
BBX 9 14 1 0
BITMAP
C000
C000
C000
C300
C600
CE00
CC00
D800
F000
D800
CC00
C600
C300
C380
ENDCHAR
STARTCHAR 006C
ENCODING 108
SWIDTH 257 0
DWIDTH 5 0
BBX 1 14 2 0
BITMAP
80
80
80
80
80
80
80
80
80
80
80
80
80
80
ENDCHAR
STARTCHAR 006D
ENCODING 109
SWIDTH 874 0
DWIDTH 17 0
BBX 15 11 1 0
BITMAP
DE78
FFFC
E38C
C106
C106
C106
C106
C106
C106
C106
C106
ENDCHAR
STARTCHAR 006E
ENCODING 110
SWIDTH 617 0
DWIDTH 12 0
BBX 10 11 1 0
BITMAP
DE00
FF80
E180
C080
C0C0
C0C0
C0C0
C0C0
C0C0
C0C0
C0C0
ENDCHAR
STARTCHAR 006F
ENCODING 111
SWIDTH 617 0
DWIDTH 12 0
BBX 10 11 1 0
BITMAP
1E00
7F00
E180
C0C0
C0C0
C0C0
C0C0
C0C0
E180
7F80
1E00
ENDCHAR
STARTCHAR 0070
ENCODING 112
SWIDTH 617 0
DWIDTH 12 0
BBX 10 15 1 -4
BITMAP
DE00
FF80
E180
C0C0
C0C0
C0C0
C0C0
C0C0
E180
FF80
DE00
C000
C000
C000
C000
ENDCHAR
STARTCHAR 0071
ENCODING 113
SWIDTH 617 0
DWIDTH 12 0
BBX 9 15 1 -4
BITMAP
3E80
7F80
E180
C180
C080
C080
C080
C180
E180
7F80
3E80
0080
0080
0080
0080
ENDCHAR
STARTCHAR 0072
ENCODING 114
SWIDTH 360 0
DWIDTH 7 0
BBX 6 11 1 0
BITMAP
DC
FC
E0
C0
C0
C0
C0
C0
C0
C0
C0
ENDCHAR
STARTCHAR 0073
ENCODING 115
SWIDTH 514 0
DWIDTH 10 0
BBX 9 11 1 0
BITMAP
3E00
7F00
C300
C000
7000
3E00
0700
0180
C100
FF00
3E00
ENDCHAR
STARTCHAR 0074
ENCODING 116
SWIDTH 411 0
DWIDTH 8 0
BBX 7 14 0 0
BITMAP
30
30
30
FE
30
30
30
30
30
30
30
30
1E
0E
ENDCHAR
STARTCHAR 0075
ENCODING 117
SWIDTH 617 0
DWIDTH 12 0
BBX 9 11 1 0
BITMAP
C080
C080
C080
C080
C080
C080
C080
C180
6180
7F80
3E80
ENDCHAR
STARTCHAR 0076
ENCODING 118
SWIDTH 514 0
DWIDTH 10 0
BBX 9 11 1 0
BITMAP
8180
C100
C300
4300
6600
6600
2600
3C00
3C00
1800
1800
ENDCHAR
STARTCHAR 0077
ENCODING 119
SWIDTH 771 0
DWIDTH 15 0
BBX 14 11 1 0
BITMAP
820C
C708
C718
C518
4D90
6DB0
68B0
28F0
38E0
3060
3060
ENDCHAR
STARTCHAR 0078
ENCODING 120
SWIDTH 514 0
DWIDTH 10 0
BBX 9 11 1 0
BITMAP
C180
C300
6600
3600
1C00
1800
3C00
3600
6600
C300
C180
ENDCHAR
STARTCHAR 0079
ENCODING 121
SWIDTH 514 0
DWIDTH 10 0
BBX 10 15 0 -4
BITMAP
C0C0
60C0
6080
2180
3180
1300
1B00
1A00
0E00
0E00
0400
0C00
0C00
1800
1800
ENDCHAR
STARTCHAR 007A
ENCODING 122
SWIDTH 514 0
DWIDTH 10 0
BBX 8 11 1 0
BITMAP
FF
FF
06
0C
0C
18
30
30
60
FF
FF
ENDCHAR
STARTCHAR 007B
ENCODING 123
SWIDTH 411 0
DWIDTH 8 0
BBX 5 21 3 -4
BITMAP
38
78
60
60
60
60
60
60
40
C0
C0
C0
40
60
60
60
60
60
60
78
38
ENDCHAR
STARTCHAR 007C
ENCODING 124
SWIDTH 257 0
DWIDTH 5 0
BBX 1 14 2 0
BITMAP
80
80
80
80
80
80
80
80
80
80
80
80
80
80
ENDCHAR
STARTCHAR 007D
ENCODING 125
SWIDTH 411 0
DWIDTH 8 0
BBX 5 21 1 -4
BITMAP
E0
E0
20
20
20
20
20
20
20
30
18
30
20
20
20
20
20
20
20
E0
E0
ENDCHAR
STARTCHAR 007E
ENCODING 126
SWIDTH 668 0
DWIDTH 13 0
BBX 9 4 2 4
BITMAP
7000
FD80
CF80
0700
ENDCHAR
STARTCHAR 00A0
ENCODING 160
SWIDTH 205 0
DWIDTH 4 0
BBX 0 0 0 0
BITMAP
ENDCHAR
STARTCHAR 00A1
ENCODING 161
SWIDTH 308 0
DWIDTH 6 0
BBX 2 14 2 -3
BITMAP
C0
C0
00
C0
C0
C0
C0
C0
C0
C0
C0
C0
C0
C0
ENDCHAR
STARTCHAR 00A2
ENCODING 162
SWIDTH 565 0
DWIDTH 11 0
BBX 9 15 1 -1
BITMAP
0C00
0C00
3F00
7380
C180
C000
C000
C000
C000
C100
6180
7F00
1E00
0C00
0C00
ENDCHAR
STARTCHAR 00A3
ENCODING 163
SWIDTH 565 0
DWIDTH 11 0
BBX 9 14 1 0
BITMAP
0E00
1F00
3180
3080
3000
3000
FE00
FE00
3000
3000
3000
3000
FF80
FF80
ENDCHAR
STARTCHAR 00A4
ENCODING 164
SWIDTH 668 0
DWIDTH 13 0
BBX 11 10 1 2
BITMAP
DF60
7FC0
60C0
C040
C040
C040
C040
60C0
7FC0
DF60
ENDCHAR
STARTCHAR 00A5
ENCODING 165
SWIDTH 565 0
DWIDTH 11 0
BBX 11 14 0 0
BITMAP
C060
60C0
60C0
3180
1980
1B00
0E00
0E00
3F80
0400
0400
3F80
0400
0400
ENDCHAR
STARTCHAR 00A6
ENCODING 166
SWIDTH 257 0
DWIDTH 5 0
BBX 1 17 2 -3
BITMAP
80
80
80
80
80
80
80
00
00
00
80
80
80
80
80
80
80
ENDCHAR
STARTCHAR 00A7
ENCODING 167
SWIDTH 514 0
DWIDTH 10 0
BBX 9 16 1 -3
BITMAP
3C00
7E00
C300
C000
7000
3E00
C700
C180
C180
7300
3E00
0300
0100
C300
7F00
3E00
ENDCHAR
STARTCHAR 00A8
ENCODING 168
SWIDTH 514 0
DWIDTH 10 0
BBX 6 2 2 16
BITMAP
CC
CC
ENDCHAR
STARTCHAR 00A9
ENCODING 169
SWIDTH 822 0
DWIDTH 16 0
BBX 15 15 1 -1
BITMAP
0FC0
3FF0
7038
679C
CCCC
8844
9806
9806
8804
CC4C
C7CC
6018
3870
1FE0
0780
ENDCHAR
STARTCHAR 00AA
ENCODING 170
SWIDTH 308 0
DWIDTH 6 0
BBX 4 6 1 5
BITMAP
70
90
70
90
B0
50
ENDCHAR
STARTCHAR 00AB
ENCODING 171
SWIDTH 565 0
DWIDTH 11 0
BBX 7 8 2 2
BITMAP
32
64
4C
98
C8
6C
26
12
ENDCHAR
STARTCHAR 00AC
ENCODING 172
SWIDTH 617 0
DWIDTH 12 0
BBX 9 3 1 4
BITMAP
FF80
0080
0080
ENDCHAR
STARTCHAR 00AD
ENCODING 173
SWIDTH 411 0
DWIDTH 8 0
BBX 6 1 1 6
BITMAP
FC
ENDCHAR
STARTCHAR 00AE
ENCODING 174
SWIDTH 617 0
DWIDTH 12 0
BBX 10 9 1 6
BITMAP
1E00
3180
4CC0
D240
CE40
D240
4280
6180
1F00
ENDCHAR
STARTCHAR 00AF
ENCODING 175
SWIDTH 514 0
DWIDTH 10 0
BBX 5 1 2 17
BITMAP
F8
ENDCHAR
STARTCHAR 00B0
ENCODING 176
SWIDTH 462 0
DWIDTH 9 0
BBX 7 7 1 7
BITMAP
78
FC
84
86
84
FC
78
ENDCHAR
STARTCHAR 00B1
ENCODING 177
SWIDTH 617 0
DWIDTH 12 0
BBX 9 9 1 2
BITMAP
0C00
0C00
0C00
FF80
0C00
0C00
0C00
0000
FF80
ENDCHAR
STARTCHAR 00B2
ENCODING 178
SWIDTH 411 0
DWIDTH 8 0
BBX 6 9 1 5
BITMAP
78
CC
84
0C
08
10
20
C0
FC
ENDCHAR
STARTCHAR 00B3
ENCODING 179
SWIDTH 411 0
DWIDTH 8 0
BBX 5 9 1 5
BITMAP
F8
18
30
70
08
08
08
C8
70
ENDCHAR
STARTCHAR 00B4
ENCODING 180
SWIDTH 514 0
DWIDTH 10 0
BBX 2 3 4 16
BITMAP
40
40
C0
ENDCHAR
STARTCHAR 00B5
ENCODING 181
SWIDTH 617 0
DWIDTH 12 0
BBX 10 15 1 -4
BITMAP
C0C0
C0C0
C0C0
C0C0
C0C0
C0C0
C0C0
C0C0
E1C0
FFC0
DEC0
C000
C000
C000
C000
ENDCHAR
STARTCHAR 00B6
ENCODING 182
SWIDTH 668 0
DWIDTH 13 0
BBX 11 17 1 -3
BITMAP
3E60
7E60
7E60
FE60
FE60
FE60
7E60
7E60
1E60
0260
0260
0260
0260
0260
0260
0260
0260
ENDCHAR
STARTCHAR 00B7
ENCODING 183
SWIDTH 257 0
DWIDTH 5 0
BBX 2 2 1 5
BITMAP
C0
C0
ENDCHAR
STARTCHAR 00B8
ENCODING 184
SWIDTH 411 0
DWIDTH 8 0
BBX 3 5 2 -5
BITMAP
60
60
20
20
E0
ENDCHAR
STARTCHAR 00B9
ENCODING 185
SWIDTH 308 0
DWIDTH 6 0
BBX 3 9 1 5
BITMAP
60
E0
20
20
20
20
20
20
20
ENDCHAR
STARTCHAR 00BA
ENCODING 186
SWIDTH 360 0
DWIDTH 7 0
BBX 5 6 1 5
BITMAP
70
98
88
88
98
70
ENDCHAR
STARTCHAR 00BB
ENCODING 187
SWIDTH 565 0
DWIDTH 11 0
BBX 8 8 1 2
BITMAP
CC
64
32
13
33
26
4C
48
ENDCHAR
STARTCHAR 00BC
ENCODING 188
SWIDTH 977 0
DWIDTH 19 0
BBX 16 14 1 0
BITMAP
6008
A018
2030
2060
2040
20C4
2188
2308
2218
0612
0C32
183F
3002
1002
ENDCHAR
STARTCHAR 00BD
ENCODING 189
SWIDTH 977 0
DWIDTH 19 0
BBX 17 14 1 0
BITMAP
600800
E01800
203000
206000
204000
20CE00
219900
231180
220180
060100
0C0600
180C00
101800
301F80
ENDCHAR
STARTCHAR 00BE
ENCODING 190
SWIDTH 977 0
DWIDTH 19 0
BBX 17 14 1 0
BITMAP
F80400
180C00
301800
701000
083000
086200
08C600
C88400
718C00
030900
061900
0C1F80
0C0100
080100
ENDCHAR
STARTCHAR 00BF
ENCODING 191
SWIDTH 514 0
DWIDTH 10 0
BBX 8 15 1 -4
BITMAP
18
18
00
00
18
18
18
70
60
C0
C0
C3
E3
7E
18
ENDCHAR
STARTCHAR 00C0
ENCODING 192
SWIDTH 668 0
DWIDTH 13 0
BBX 11 19 1 0
BITMAP
1800
0800
0800
0000
0000
0E00
0E00
1A00
1B00
1300
3100
3180
2180
6080
7FC0
7FC0
C040
C060
8060
ENDCHAR
STARTCHAR 00C1
ENCODING 193
SWIDTH 668 0
DWIDTH 13 0
BBX 11 19 1 0
BITMAP
0200
0600
0600
0000
0000
0E00
0E00
1E00
1B00
1300
3100
3180
2180
6080
7FC0
7FC0
C040
C060
8060
ENDCHAR
STARTCHAR 00C2
ENCODING 194
SWIDTH 668 0
DWIDTH 13 0
BBX 11 18 1 0
BITMAP
0C00
1A00
3300
0000
0E00
0E00
1E00
1B00
1300
3100
3180
2180
6080
7FC0
7FC0
C040
C060
8060
ENDCHAR
STARTCHAR 00C3
ENCODING 195
SWIDTH 668 0
DWIDTH 13 0
BBX 11 18 1 0
BITMAP
3D00
2700
0000
0000
0E00
0E00
1E00
1B00
1300
3100
3180
2180
6080
7FC0
7FC0
C040
C060
8060
ENDCHAR
STARTCHAR 00C4
ENCODING 196
SWIDTH 668 0
DWIDTH 13 0
BBX 11 18 1 0
BITMAP
3300
3300
0000
0000
0E00
0E00
1E00
1B00
1300
3100
3180
2180
6080
7FC0
7FC0
C040
C060
8060
ENDCHAR
STARTCHAR 00C5
ENCODING 197
SWIDTH 668 0
DWIDTH 13 0
BBX 11 20 1 0
BITMAP
0E00
1A00
1300
1A00
0E00
0000
0E00
0E00
1E00
1B00
1300
3100
3180
2180
6080
7FC0
7FC0
C040
C060
8060
ENDCHAR
STARTCHAR 00C6
ENCODING 198
SWIDTH 925 0
DWIDTH 18 0
BBX 16 14 1 0
BITMAP
0FFF
0FFF
1980
1980
1180
3180
31FE
21FE
6180
7F80
7F80
C180
C1FF
81FF
ENDCHAR
STARTCHAR 00C7
ENCODING 199
SWIDTH 720 0
DWIDTH 14 0
BBX 12 18 1 -4
BITMAP
1F80
3FC0
6060
C030
C030
C000
8000
8000
C000
C030
C030
6060
3FC0
1F80
0200
0700
0100
0600
ENDCHAR
STARTCHAR 00C8
ENCODING 200
SWIDTH 565 0
DWIDTH 11 0
BBX 9 19 1 0
BITMAP
1800
0800
0800
0000
0000
FF80
FF80
C000
C000
C000
C000
FF00
FF00
C000
C000
C000
C000
FF80
FF80
ENDCHAR
STARTCHAR 00C9
ENCODING 201
SWIDTH 565 0
DWIDTH 11 0
BBX 9 19 1 0
BITMAP
0600
0400
0400
0000
0000
FF80
FF80
C000
C000
C000
C000
FF00
FF00
C000
C000
C000
C000
FF80
FF80
ENDCHAR
STARTCHAR 00CA
ENCODING 202
SWIDTH 565 0
DWIDTH 11 0
BBX 9 18 1 0
BITMAP
1C00
1600
2300
0000
FF80
FF80
C000
C000
C000
C000
FF00
FF00
C000
C000
C000
C000
FF80
FF80
ENDCHAR
STARTCHAR 00CB
ENCODING 203
SWIDTH 565 0
DWIDTH 11 0
BBX 9 18 1 0
BITMAP
3200
3200
0000
0000
FF80
FF80
C000
C000
C000
C000
FF00
FF00
C000
C000
C000
C000
FF80
FF80
ENDCHAR
STARTCHAR 00CC
ENCODING 204
SWIDTH 257 0
DWIDTH 5 0
BBX 2 19 1 0
BITMAP
80
80
C0
00
00
40
40
40
40
40
40
40
40
40
40
40
40
40
40
ENDCHAR
STARTCHAR 00CD
ENCODING 205
SWIDTH 257 0
DWIDTH 5 0
BBX 2 19 2 0
BITMAP
40
C0
80
00
00
80
80
80
80
80
80
80
80
80
80
80
80
80
80
ENDCHAR
STARTCHAR 00CE
ENCODING 206
SWIDTH 257 0
DWIDTH 5 0
BBX 6 18 -1 0
BITMAP
38
68
C4
00
10
10
10
10
10
10
10
10
10
10
10
10
10
10
ENDCHAR
STARTCHAR 00CF
ENCODING 207
SWIDTH 257 0
DWIDTH 5 0
BBX 5 18 0 0
BITMAP
98
98
00
00
20
20
20
20
20
20
20
20
20
20
20
20
20
20
ENDCHAR
STARTCHAR 00D0
ENCODING 208
SWIDTH 668 0
DWIDTH 13 0
BBX 12 14 0 0
BITMAP
7F80
7FC0
6060
6030
6030
6030
FC30
6030
6030
6030
6030
6060
7FC0
7F80
ENDCHAR
STARTCHAR 00D1
ENCODING 209
SWIDTH 720 0
DWIDTH 14 0
BBX 11 18 1 0
BITMAP
1C80
1780
0000
0000
C060
E060
F060
F060
D860
CC60
CC60
C660
C360
C360
C1E0
C0E0
C0E0
C060
ENDCHAR
STARTCHAR 00D2
ENCODING 210
SWIDTH 720 0
DWIDTH 14 0
BBX 13 19 1 0
BITMAP
0800
0C00
0400
0600
0000
1F80
3FC0
6060
C030
C030
C018
8018
8018
C018
C030
C030
6060
3FC0
1F80
ENDCHAR
STARTCHAR 00D3
ENCODING 211
SWIDTH 720 0
DWIDTH 14 0
BBX 13 19 1 0
BITMAP
0100
0300
0200
0200
0000
1F80
3FC0
6060
C030
C030
C018
8018
8018
C018
C030
C030
6060
3FC0
1F80
ENDCHAR
STARTCHAR 00D4
ENCODING 212
SWIDTH 720 0
DWIDTH 14 0
BBX 13 18 1 0
BITMAP
0600
0F00
1980
0000
1F80
3FC0
6060
C030
C030
C018
8018
8018
C018
C030
C030
6060
3FC0
1F80
ENDCHAR
STARTCHAR 00D5
ENCODING 213
SWIDTH 720 0
DWIDTH 14 0
BBX 13 18 1 0
BITMAP
0C80
1380
0000
0000
1F80
3FC0
6060
C030
C030
C018
8018
8018
C018
C030
C030
6060
3FC0
1F80
ENDCHAR
STARTCHAR 00D6
ENCODING 214
SWIDTH 720 0
DWIDTH 14 0
BBX 13 17 1 0
BITMAP
1980
1980
0000
1F80
3FC0
6060
C030
C030
C018
8018
8018
C018
C030
C030
6060
3FC0
1F80
ENDCHAR
STARTCHAR 00D7
ENCODING 215
SWIDTH 514 0
DWIDTH 10 0
BBX 7 7 1 4
BITMAP
42
66
3C
18
3C
66
C2
ENDCHAR
STARTCHAR 00D8
ENCODING 216
SWIDTH 720 0
DWIDTH 14 0
BBX 13 14 1 0
BITMAP
1F90
3FF0
6070
C070
C0F0
C198
8318
8618
CC18
D830
F030
6060
FFC0
9F80
ENDCHAR
STARTCHAR 00D9
ENCODING 217
SWIDTH 720 0
DWIDTH 14 0
BBX 11 19 1 0
BITMAP
0C00
0400
0400
0000
0000
C020
C020
C020
C020
C020
C020
C020
C020
C020
C020
6060
60E0
3FC0
1F00
ENDCHAR
STARTCHAR 00DA
ENCODING 218
SWIDTH 720 0
DWIDTH 14 0
BBX 11 19 1 0
BITMAP
0300
0200
0600
0000
0000
C020
C020
C020
C020
C020
C020
C020
C020
C020
C020
6060
60E0
3FC0
1F00
ENDCHAR
STARTCHAR 00DB
ENCODING 219
SWIDTH 720 0
DWIDTH 14 0
BBX 11 18 1 0
BITMAP
0600
0F00
1980
0000
C020
C020
C020
C020
C020
C020
C020
C020
C020
C020
6060
60E0
3FC0
1F00
ENDCHAR
STARTCHAR 00DC
ENCODING 220
SWIDTH 720 0
DWIDTH 14 0
BBX 11 18 1 0
BITMAP
1980
1980
0000
0000
C020
C020
C020
C020
C020
C020
C020
C020
C020
C020
6060
60E0
3FC0
1F00
ENDCHAR
STARTCHAR 00DD
ENCODING 221
SWIDTH 565 0
DWIDTH 11 0
BBX 11 19 0 0
BITMAP
0200
0600
0400
0000
0000
C060
60C0
60C0
3180
1980
1B00
0E00
0E00
0400
0400
0400
0400
0400
0400
ENDCHAR
STARTCHAR 00DE
ENCODING 222
SWIDTH 617 0
DWIDTH 12 0
BBX 10 14 1 0
BITMAP
C000
C000
FE00
FF80
C1C0
C0C0
C0C0
C0C0
C0C0
C1C0
FF80
FE00
C000
C000
ENDCHAR
STARTCHAR 00DF
ENCODING 223
SWIDTH 617 0
DWIDTH 12 0
BBX 10 14 1 0
BITMAP
3E00
7F00
6300
C100
C100
C300
CE00
CF80
C180
C0C0
C0C0
C180
DF80
DF00
ENDCHAR
STARTCHAR 00E0
ENCODING 224
SWIDTH 565 0
DWIDTH 11 0
BBX 9 15 1 0
BITMAP
1000
1800
0800
0000
3E00
7F00
C180
0180
1F80
7D80
C180
C180
C380
EF80
7D80
ENDCHAR
STARTCHAR 00E1
ENCODING 225
SWIDTH 565 0
DWIDTH 11 0
BBX 9 15 1 0
BITMAP
0400
0C00
0800
0000
3E00
7F00
C180
0180
1F80
7D80
C180
C180
C380
EF80
7D80
ENDCHAR
STARTCHAR 00E2
ENCODING 226
SWIDTH 565 0
DWIDTH 11 0
BBX 9 15 1 0
BITMAP
1C00
1600
2200
0000
3E00
7F00
C180
0180
1F80
7D80
C180
C180
C380
EF80
7D80
ENDCHAR
STARTCHAR 00E3
ENCODING 227
SWIDTH 565 0
DWIDTH 11 0
BBX 9 15 1 0
BITMAP
3900
2F00
0000
0000
3E00
7F00
C180
0180
1F80
7D80
C180
C180
C380
EF80
7D80
ENDCHAR
STARTCHAR 00E4
ENCODING 228
SWIDTH 565 0
DWIDTH 11 0
BBX 9 14 1 0
BITMAP
3200
3200
0000
3E00
7F00
C180
0180
1F80
7D80
C180
C180
C380
EF80
7D80
ENDCHAR
STARTCHAR 00E5
ENCODING 229
SWIDTH 565 0
DWIDTH 11 0
BBX 9 16 1 0
BITMAP
1C00
3200
3200
1C00
0000
3E00
7F00
C180
0180
1F80
7D80
C180
C180
C380
EF80
7D80
ENDCHAR
STARTCHAR 00E6
ENCODING 230
SWIDTH 925 0
DWIDTH 18 0
BBX 16 11 1 0
BITMAP
3E3C
7FFE
C1C3
0181
0181
7FFF
C180
C180
C3C3
EEFE
7C3C
ENDCHAR
STARTCHAR 00E7
ENCODING 231
SWIDTH 565 0
DWIDTH 11 0
BBX 9 15 1 -4
BITMAP
3E00
7F00
E180
C000
C000
C000
C000
C000
E180
7F00
3E00
0800
0C00
0400
1C00
ENDCHAR
STARTCHAR 00E8
ENCODING 232
SWIDTH 565 0
DWIDTH 11 0
BBX 10 16 1 0
BITMAP
1000
1800
0800
0C00
0000
1E00
7F00
E180
C080
C0C0
FFC0
C000
C000
E180
7F80
1E00
ENDCHAR
STARTCHAR 00E9
ENCODING 233
SWIDTH 565 0
DWIDTH 11 0
BBX 10 16 1 0
BITMAP
0200
0600
0400
0C00
0000
1E00
7F00
E180
C080
C0C0
FFC0
C000
C000
E180
7F80
1E00
ENDCHAR
STARTCHAR 00EA
ENCODING 234
SWIDTH 565 0
DWIDTH 11 0
BBX 10 15 1 0
BITMAP
0C00
1600
3300
0000
1E00
7F00
E180
C080
C0C0
FFC0
C000
C000
E180
7F80
1E00
ENDCHAR
STARTCHAR 00EB
ENCODING 235
SWIDTH 565 0
DWIDTH 11 0
BBX 10 14 1 0
BITMAP
3300
3300
0000
1E00
7F00
E180
C080
C0C0
FFC0
C000
C000
E180
7F80
1E00
ENDCHAR
STARTCHAR 00EC
ENCODING 236
SWIDTH 257 0
DWIDTH 5 0
BBX 2 16 1 0
BITMAP
80
80
C0
00
00
40
40
40
40
40
40
40
40
40
40
40
ENDCHAR
STARTCHAR 00ED
ENCODING 237
SWIDTH 257 0
DWIDTH 5 0
BBX 2 16 2 0
BITMAP
40
C0
C0
00
00
80
80
80
80
80
80
80
80
80
80
80
ENDCHAR
STARTCHAR 00EE
ENCODING 238
SWIDTH 257 0
DWIDTH 5 0
BBX 5 15 0 0
BITMAP
70
D8
88
00
20
20
20
20
20
20
20
20
20
20
20
ENDCHAR
STARTCHAR 00EF
ENCODING 239
SWIDTH 257 0
DWIDTH 5 0
BBX 5 14 0 0
BITMAP
98
98
00
20
20
20
20
20
20
20
20
20
20
20
ENDCHAR
STARTCHAR 00F0
ENCODING 240
SWIDTH 565 0
DWIDTH 11 0
BBX 10 15 1 1
BITMAP
1F00
0E00
0F00
0180
0C80
3F80
6180
C1C0
C0C0
C0C0
C0C0
C080
C180
7F00
3E00
ENDCHAR
STARTCHAR 00F1
ENCODING 241
SWIDTH 617 0
DWIDTH 12 0
BBX 10 15 1 0
BITMAP
3900
2F00
0000
0000
DE00
FF80
E180
C080
C0C0
C0C0
C0C0
C0C0
C0C0
C0C0
C0C0
ENDCHAR
STARTCHAR 00F2
ENCODING 242
SWIDTH 617 0
DWIDTH 12 0
BBX 10 16 1 0
BITMAP
1000
1800
0800
0800
0000
1E00
7F00
E180
C0C0
C0C0
C0C0
C0C0
C0C0
E180
7F80
1E00
ENDCHAR
STARTCHAR 00F3
ENCODING 243
SWIDTH 617 0
DWIDTH 12 0
BBX 10 16 1 0
BITMAP
0600
0400
0400
0C00
0000
1E00
7F00
E180
C0C0
C0C0
C0C0
C0C0
C0C0
E180
7F80
1E00
ENDCHAR
STARTCHAR 00F4
ENCODING 244
SWIDTH 617 0
DWIDTH 12 0
BBX 10 15 1 0
BITMAP
0C00
1600
3300
0000
1E00
7F00
E180
C0C0
C0C0
C0C0
C0C0
C0C0
E180
7F80
1E00
ENDCHAR
STARTCHAR 00F5
ENCODING 245
SWIDTH 617 0
DWIDTH 12 0
BBX 10 15 1 0
BITMAP
3900
2F00
0000
0000
1E00
7F00
E180
C0C0
C0C0
C0C0
C0C0
C0C0
E180
7F80
1E00
ENDCHAR
STARTCHAR 00F6
ENCODING 246
SWIDTH 617 0
DWIDTH 12 0
BBX 10 14 1 0
BITMAP
3300
3300
0000
1E00
7F00
E180
C0C0
C0C0
C0C0
C0C0
C0C0
E180
7F80
1E00
ENDCHAR
STARTCHAR 00F7
ENCODING 247
SWIDTH 565 0
DWIDTH 11 0
BBX 8 8 1 3
BITMAP
18
18
00
FF
00
00
18
18
ENDCHAR
STARTCHAR 00F8
ENCODING 248
SWIDTH 617 0
DWIDTH 12 0
BBX 10 11 1 0
BITMAP
1E40
7FC0
E180
C3C0
C6C0
CCC0
D8C0
F0C0
E180
FF00
BE00
ENDCHAR
STARTCHAR 00F9
ENCODING 249
SWIDTH 617 0
DWIDTH 12 0
BBX 9 16 1 0
BITMAP
1000
1800
0800
0000
0000
C080
C080
C080
C080
C080
C080
C080
C180
6180
7F80
3E80
ENDCHAR
STARTCHAR 00FA
ENCODING 250
SWIDTH 617 0
DWIDTH 12 0
BBX 9 16 1 0
BITMAP
0600
0400
0C00
0000
0000
C080
C080
C080
C080
C080
C080
C080
C180
6180
7F80
3E80
ENDCHAR
STARTCHAR 00FB
ENCODING 251
SWIDTH 617 0
DWIDTH 12 0
BBX 9 15 1 0
BITMAP
1C00
1600
2300
0000
C080
C080
C080
C080
C080
C080
C080
C180
6180
7F80
3E80
ENDCHAR
STARTCHAR 00FC
ENCODING 252
SWIDTH 617 0
DWIDTH 12 0
BBX 9 14 1 0
BITMAP
3300
3300
0000
C080
C080
C080
C080
C080
C080
C080
C180
6180
7F80
3E80
ENDCHAR
STARTCHAR 00FD
ENCODING 253
SWIDTH 514 0
DWIDTH 10 0
BBX 10 20 0 -4
BITMAP
0200
0600
0400
0000
0000
C0C0
60C0
6080
2180
3180
1300
1B00
1A00
0E00
0E00
0400
0C00
0C00
1800
1800
ENDCHAR
STARTCHAR 00FE
ENCODING 254
SWIDTH 617 0
DWIDTH 12 0
BBX 10 18 1 -4
BITMAP
C000
C000
C000
DE00
FF80
E180
C0C0
C0C0
C0C0
C0C0
C0C0
E180
FF80
DE00
C000
C000
C000
C000
ENDCHAR
STARTCHAR 00FF
ENCODING 255
SWIDTH 514 0
DWIDTH 10 0
BBX 10 18 0 -4
BITMAP
1300
1300
0000
C0C0
60C0
6080
2180
3180
1300
1B00
1A00
0E00
0E00
0400
0C00
0C00
1800
1800
ENDCHAR
ENDFONT
