STARTFONT 2.1
COMMENT
COMMENT Converted from OpenType font "manrope-regular.otf" by "otf2bdf 3.0".
COMMENT
FONT -FreeType-Manrope-Medium-R-Normal--21-150-100-100-P-95-ISO10646-1
SIZE 15 100 100
FONTBOUNDINGBOX 19 26 0 -5
STARTPROPERTIES 19
FOUNDRY "FreeType"
FAMILY_NAME "Manrope"
WEIGHT_NAME "Medium"
SLANT "R"
SETWIDTH_NAME "Normal"
ADD_STYLE_NAME ""
PIXEL_SIZE 21
POINT_SIZE 150
RESOLUTION_X 100
RESOLUTION_Y 100
SPACING "P"
AVERAGE_WIDTH 95
CHARSET_REGISTRY "ISO10646"
CHARSET_ENCODING "1"
FONT_ASCENT 22
FONT_DESCENT 6
COPYRIGHT "Copyright 2019-2021 The Manrope Project Authors (https://github.com/sharanda/manrope)"
_OTF_FONTFILE "manrope-regular.otf"
_OTF_PSNAME "Manrope-Regular"
ENDPROPERTIES
CHARS 191
STARTCHAR 0020
ENCODING 32
SWIDTH 192 0
DWIDTH 4 0
BBX 0 0 0 0
BITMAP
ENDCHAR
STARTCHAR 0021
ENCODING 33
SWIDTH 336 0
DWIDTH 7 0
BBX 2 15 2 0
BITMAP
C0
C0
C0
C0
C0
C0
C0
C0
C0
C0
C0
00
00
C0
C0
ENDCHAR
STARTCHAR 0022
ENCODING 34
SWIDTH 384 0
DWIDTH 8 0
BBX 5 4 1 11
BITMAP
C8
C8
C8
C8
ENDCHAR
STARTCHAR 0023
ENCODING 35
SWIDTH 912 0
DWIDTH 19 0
BBX 17 15 1 0
BITMAP
018C00
010800
010800
031800
3FFF80
021000
021000
063000
063000
FFFF00
0C6000
0C6000
084000
084000
18C000
ENDCHAR
STARTCHAR 0024
ENCODING 36
SWIDTH 576 0
DWIDTH 12 0
BBX 11 19 1 -2
BITMAP
0C00
0C00
1F00
7380
40C0
C040
C000
6000
7800
0F00
01C0
0040
0060
C060
C0C0
7BC0
1F00
0C00
0C00
ENDCHAR
STARTCHAR 0025
ENCODING 37
SWIDTH 912 0
DWIDTH 19 0
BBX 17 15 1 0
BITMAP
3C0200
660600
C30C00
C31800
C33000
666000
3CC000
018000
031E00
063300
0C6100
184180
306100
603300
401E00
ENDCHAR
STARTCHAR 0026
ENCODING 38
SWIDTH 672 0
DWIDTH 14 0
BBX 12 15 1 0
BITMAP
1F00
3B80
6080
4000
6000
6000
3000
7800
6C60
C660
C160
C0E0
C0E0
7BB0
1F10
ENDCHAR
STARTCHAR 0027
ENCODING 39
SWIDTH 192 0
DWIDTH 4 0
BBX 2 4 1 11
BITMAP
C0
C0
C0
C0
ENDCHAR
STARTCHAR 0028
ENCODING 40
SWIDTH 432 0
DWIDTH 9 0
BBX 5 21 3 -4
BITMAP
18
10
30
60
60
40
C0
C0
80
80
80
80
80
C0
C0
40
60
20
30
10
10
ENDCHAR
STARTCHAR 0029
ENCODING 41
SWIDTH 432 0
DWIDTH 9 0
BBX 5 21 1 -4
BITMAP
C0
40
60
20
30
10
10
18
18
08
08
18
18
18
10
10
30
20
60
C0
80
ENDCHAR
STARTCHAR 002A
ENCODING 42
SWIDTH 432 0
DWIDTH 9 0
BBX 7 7 1 8
BITMAP
10
10
DE
7C
38
68
48
ENDCHAR
STARTCHAR 002B
ENCODING 43
SWIDTH 576 0
DWIDTH 12 0
BBX 10 9 1 3
BITMAP
0C00
0C00
0C00
0C00
FFC0
0C00
0C00
0C00
0C00
ENDCHAR
STARTCHAR 002C
ENCODING 44
SWIDTH 288 0
DWIDTH 6 0
BBX 2 4 1 -2
BITMAP
C0
C0
40
C0
ENDCHAR
STARTCHAR 002D
ENCODING 45
SWIDTH 432 0
DWIDTH 9 0
BBX 7 1 1 6
BITMAP
FE
ENDCHAR
STARTCHAR 002E
ENCODING 46
SWIDTH 240 0
DWIDTH 5 0
BBX 2 2 2 0
BITMAP
C0
C0
ENDCHAR
STARTCHAR 002F
ENCODING 47
SWIDTH 384 0
DWIDTH 8 0
BBX 6 15 1 0
BITMAP
0C
08
08
18
18
10
10
30
30
20
60
60
40
40
C0
ENDCHAR
STARTCHAR 0030
ENCODING 48
SWIDTH 624 0
DWIDTH 13 0
BBX 10 15 1 0
BITMAP
1F00
3B80
60C0
40C0
C040
C040
C040
C040
C040
C040
C040
40C0
60C0
3B80
1F00
ENDCHAR
STARTCHAR 0031
ENCODING 49
SWIDTH 384 0
DWIDTH 8 0
BBX 5 15 1 0
BITMAP
38
78
D8
18
18
18
18
18
18
18
18
18
18
18
18
ENDCHAR
STARTCHAR 0032
ENCODING 50
SWIDTH 576 0
DWIDTH 12 0
BBX 10 15 1 0
BITMAP
1E00
7F80
6180
C0C0
C0C0
00C0
00C0
0180
0300
0600
0C00
3800
7000
C000
FFC0
ENDCHAR
STARTCHAR 0033
ENCODING 51
SWIDTH 576 0
DWIDTH 12 0
BBX 9 15 1 0
BITMAP
FF80
0180
0300
0600
0C00
1800
3E00
0300
0180
0080
0080
0180
C180
7700
3E00
ENDCHAR
STARTCHAR 0034
ENCODING 52
SWIDTH 576 0
DWIDTH 12 0
BBX 10 15 1 0
BITMAP
0600
0C00
0C00
1800
1800
3000
3180
6180
6180
4180
C180
FFC0
0180
0180
0180
ENDCHAR
STARTCHAR 0035
ENCODING 53
SWIDTH 576 0
DWIDTH 12 0
BBX 10 15 1 0
BITMAP
7F80
4000
4000
4000
4000
5E00
7780
4180
00C0
00C0
00C0
C0C0
4180
7F00
1E00
ENDCHAR
STARTCHAR 0036
ENCODING 54
SWIDTH 624 0
DWIDTH 13 0
BBX 11 15 1 0
BITMAP
1F00
3B80
6080
4000
C000
C000
DF80
F1C0
E040
C060
C060
4040
60C0
3B80
1F00
ENDCHAR
STARTCHAR 0037
ENCODING 55
SWIDTH 480 0
DWIDTH 10 0
BBX 8 15 1 0
BITMAP
FF
FF
03
03
02
06
04
0C
0C
08
18
10
30
30
60
ENDCHAR
STARTCHAR 0038
ENCODING 56
SWIDTH 576 0
DWIDTH 12 0
BBX 10 15 1 0
BITMAP
1E00
7F80
6180
4080
4080
6180
7B80
3F00
6180
C0C0
C0C0
C0C0
4080
7B80
1E00
ENDCHAR
STARTCHAR 0039
ENCODING 57
SWIDTH 624 0
DWIDTH 13 0
BBX 10 15 1 0
BITMAP
1F00
3F80
60C0
C040
C040
C040
40C0
61C0
3F40
0040
0040
0040
20C0
3B80
1F00
ENDCHAR
STARTCHAR 003A
ENCODING 58
SWIDTH 288 0
DWIDTH 6 0
BBX 2 8 2 2
BITMAP
C0
C0
00
00
00
00
C0
C0
ENDCHAR
STARTCHAR 003B
ENCODING 59
SWIDTH 288 0
DWIDTH 6 0
BBX 2 14 2 -2
BITMAP
C0
C0
00
00
00
00
00
00
00
00
C0
C0
40
C0
ENDCHAR
STARTCHAR 003C
ENCODING 60
SWIDTH 624 0
DWIDTH 13 0
BBX 5 9 3 2
BITMAP
08
18
30
60
C0
40
20
10
08
ENDCHAR
STARTCHAR 003D
ENCODING 61
SWIDTH 768 0
DWIDTH 16 0
BBX 11 5 2 5
BITMAP
FFE0
0000
0000
0000
FFE0
ENDCHAR
STARTCHAR 003E
ENCODING 62
SWIDTH 624 0
DWIDTH 13 0
BBX 5 9 4 2
BITMAP
80
40
20
10
08
18
30
60
C0
ENDCHAR
STARTCHAR 003F
ENCODING 63
SWIDTH 528 0
DWIDTH 11 0
BBX 9 15 1 0
BITMAP
3E00
7700
C180
C180
0180
0180
0300
0600
0C00
1800
1800
0000
0000
1800
1800
ENDCHAR
STARTCHAR 0040
ENCODING 64
SWIDTH 912 0
DWIDTH 19 0
BBX 15 15 2 -2
BITMAP
0FE0
3838
600C
4006
C7C6
8CC2
8C42
8842
8C46
87E6
C3BC
4000
6000
3820
0FE0
ENDCHAR
STARTCHAR 0041
ENCODING 65
SWIDTH 624 0
DWIDTH 13 0
BBX 12 15 1 0
BITMAP
0E00
0E00
0A00
1B00
1900
1180
3180
3080
20C0
60C0
7FC0
4060
C060
C020
8030
ENDCHAR
STARTCHAR 0042
ENCODING 66
SWIDTH 624 0
DWIDTH 13 0
BBX 11 15 1 0
BITMAP
FF00
C1C0
C0C0
C040
C040
C0C0
C1C0
FF80
C0C0
C060
C020
C060
C060
C1C0
FF80
ENDCHAR
STARTCHAR 0043
ENCODING 67
SWIDTH 720 0
DWIDTH 15 0
BBX 13 15 1 0
BITMAP
0F80
3DE0
6030
C018
C018
8000
8000
8000
8000
8000
C018
C018
6030
3DE0
0F80
ENDCHAR
STARTCHAR 0044
ENCODING 68
SWIDTH 672 0
DWIDTH 14 0
BBX 12 15 1 0
BITMAP
FF00
C3C0
C060
C020
C030
C030
C030
C030
C030
C030
C030
C020
C060
C3C0
FF00
ENDCHAR
STARTCHAR 0045
ENCODING 69
SWIDTH 576 0
DWIDTH 12 0
BBX 10 15 1 0
BITMAP
FFC0
C000
C000
C000
C000
C000
C000
FF80
C000
C000
C000
C000
C000
C000
FFC0
ENDCHAR
STARTCHAR 0046
ENCODING 70
SWIDTH 480 0
DWIDTH 10 0
BBX 9 15 1 0
BITMAP
FF80
FF80
C000
C000
C000
C000
FF00
FF00
C000
C000
C000
C000
C000
C000
C000
ENDCHAR
STARTCHAR 0047
ENCODING 71
SWIDTH 720 0
DWIDTH 15 0
BBX 13 15 1 0
BITMAP
0F80
3DE0
6030
C010
C000
8000
8000
80F8
8018
C018
C018
4010
6030
3DE0
0F80
ENDCHAR
STARTCHAR 0048
ENCODING 72
SWIDTH 672 0
DWIDTH 14 0
BBX 12 15 1 0
BITMAP
C030
C030
C030
C030
C030
C030
C030
FFF0
C030
C030
C030
C030
C030
C030
C030
ENDCHAR
STARTCHAR 0049
ENCODING 73
SWIDTH 240 0
DWIDTH 5 0
BBX 1 15 2 0
BITMAP
80
80
80
80
80
80
80
80
80
80
80
80
80
80
80
ENDCHAR
STARTCHAR 004A
ENCODING 74
SWIDTH 480 0
DWIDTH 10 0
BBX 8 15 0 0
BITMAP
03
03
03
03
03
03
03
03
03
03
03
03
C3
7E
3C
ENDCHAR
STARTCHAR 004B
ENCODING 75
SWIDTH 576 0
DWIDTH 12 0
BBX 11 15 1 0
BITMAP
C0C0
C180
C300
C600
CC00
C800
D800
F000
D800
CC00
C600
C300
C180
C0C0
C060
ENDCHAR
STARTCHAR 004C
ENCODING 76
SWIDTH 528 0
DWIDTH 11 0
BBX 8 15 2 0
BITMAP
80
80
80
80
80
80
80
80
80
80
80
80
80
80
FF
ENDCHAR
STARTCHAR 004D
ENCODING 77
SWIDTH 864 0
DWIDTH 18 0
BBX 15 15 1 0
BITMAP
C006
E006
E00E
E00E
F00A
D01A
D812
C832
CC22
C462
C642
C2C2
C382
C182
C102
ENDCHAR
STARTCHAR 004E
ENCODING 78
SWIDTH 672 0
DWIDTH 14 0
BBX 12 15 1 0
BITMAP
C030
E030
F030
D030
D830
CC30
C430
C630
C330
C130
C1B0
C0F0
C070
C070
C030
ENDCHAR
STARTCHAR 004F
ENCODING 79
SWIDTH 720 0
DWIDTH 15 0
BBX 13 15 1 0
BITMAP
0F80
3DE0
6030
C018
C018
8008
8008
8008
8008
8008
C018
C018
6030
3DE0
0F80
ENDCHAR
STARTCHAR 0050
ENCODING 80
SWIDTH 624 0
DWIDTH 13 0
BBX 11 15 1 0
BITMAP
FF80
C1C0
C060
C060
C060
C060
C060
C0C0
FF80
C000
C000
C000
C000
C000
C000
ENDCHAR
STARTCHAR 0051
ENCODING 81
SWIDTH 720 0
DWIDTH 15 0
BBX 13 15 1 0
BITMAP
0F80
3DE0
6030
C018
C018
8008
8008
8008
8008
8008
C058
C078
6030
3DF8
0F88
ENDCHAR
STARTCHAR 0052
ENCODING 82
SWIDTH 624 0
DWIDTH 13 0
BBX 11 15 1 0
BITMAP
FF80
C1C0
C060
C060
C060
C060
C060
C0C0
FF80
C180
C180
C0C0
C0C0
C060
C060
ENDCHAR
STARTCHAR 0053
ENCODING 83
SWIDTH 624 0
DWIDTH 13 0
BBX 11 15 1 0
BITMAP
1F00
7BC0
40C0
C060
C040
6000
3C00
0F80
01C0
0060
0020
C060
C060
7BC0
1F00
ENDCHAR
STARTCHAR 0054
ENCODING 84
SWIDTH 576 0
DWIDTH 12 0
BBX 12 15 0 0
BITMAP
FFF0
0600
0600
0600
0600
0600
0600
0600
0600
0600
0600
0600
0600
0600
0600
ENDCHAR
STARTCHAR 0055
ENCODING 85
SWIDTH 720 0
DWIDTH 15 0
BBX 12 15 1 0
BITMAP
C010
C010
C010
C010
C010
C010
C010
C010
C010
C010
4030
6030
6060
3DC0
0F80
ENDCHAR
STARTCHAR 0056
ENCODING 86
SWIDTH 624 0
DWIDTH 13 0
BBX 12 15 0 0
BITMAP
C010
4030
6030
6020
2060
3060
3040
10C0
18C0
1880
0980
0D80
0D00
0700
0600
ENDCHAR
STARTCHAR 0057
ENCODING 87
SWIDTH 912 0
DWIDTH 19 0
BBX 19 15 0 0
BITMAP
C06060
406060
60E040
60F040
20B0C0
2190C0
319080
111980
111980
1B0900
1B0D00
0A0F00
0E0700
0E0600
040600
ENDCHAR
STARTCHAR 0058
ENCODING 88
SWIDTH 624 0
DWIDTH 13 0
BBX 11 15 1 0
BITMAP
C060
C0C0
60C0
3180
3300
1B00
0E00
0C00
0E00
1B00
3100
2180
60C0
C040
8060
ENDCHAR
STARTCHAR 0059
ENCODING 89
SWIDTH 576 0
DWIDTH 12 0
BBX 11 15 0 0
BITMAP
C020
6060
60C0
30C0
1180
1900
0F00
0E00
0600
0600
0600
0600
0600
0600
0600
ENDCHAR
STARTCHAR 005A
ENCODING 90
SWIDTH 624 0
DWIDTH 13 0
BBX 11 15 1 0
BITMAP
FFE0
00C0
0080
0180
0300
0300
0600
0C00
0C00
1800
1000
3000
6000
6000
FFE0
ENDCHAR
STARTCHAR 005B
ENCODING 91
SWIDTH 384 0
DWIDTH 8 0
BBX 4 22 3 -4
BITMAP
F0
80
80
80
80
80
80
80
80
80
80
80
80
80
80
80
80
80
80
80
80
F0
ENDCHAR
STARTCHAR 005C
ENCODING 92
SWIDTH 384 0
DWIDTH 8 0
BBX 6 15 1 0
BITMAP
C0
40
40
60
60
20
30
30
10
10
18
18
08
08
0C
ENDCHAR
STARTCHAR 005D
ENCODING 93
SWIDTH 384 0
DWIDTH 8 0
BBX 4 22 2 -4
BITMAP
F0
30
30
30
30
30
30
30
30
30
30
30
30
30
30
30
30
30
30
30
30
F0
ENDCHAR
STARTCHAR 005E
ENCODING 94
SWIDTH 672 0
DWIDTH 14 0
BBX 9 6 3 9
BITMAP
0800
1C00
2600
4300
C180
8000
ENDCHAR
STARTCHAR 005F
ENCODING 95
SWIDTH 672 0
DWIDTH 14 0
BBX 14 1 0 -2
BITMAP
FFFC
ENDCHAR
STARTCHAR 0060
ENCODING 96
SWIDTH 480 0
DWIDTH 10 0
BBX 2 3 4 17
BITMAP
80
80
40
ENDCHAR
STARTCHAR 0061
ENCODING 97
SWIDTH 576 0
DWIDTH 12 0
BBX 9 12 1 0
BITMAP
3E00
7380
4180
4080
0080
1F80
7080
C080
8180
C180
E680
7C80
ENDCHAR
STARTCHAR 0062
ENCODING 98
SWIDTH 576 0
DWIDTH 12 0
BBX 10 15 1 0
BITMAP
C000
C000
C000
DF00
FB80
E0C0
C0C0
C040
C040
C040
C040
C0C0
E0C0
FB80
DF00
ENDCHAR
STARTCHAR 0063
ENCODING 99
SWIDTH 576 0
DWIDTH 12 0
BBX 10 12 1 0
BITMAP
1E00
7F80
60C0
C080
C000
8000
8000
C000
C000
60C0
7B80
1E00
ENDCHAR
STARTCHAR 0064
ENCODING 100
SWIDTH 576 0
DWIDTH 12 0
BBX 10 15 1 0
BITMAP
00C0
00C0
00C0
1EC0
73C0
61C0
C0C0
C0C0
80C0
80C0
C0C0
C0C0
61C0
73C0
1EC0
ENDCHAR
STARTCHAR 0065
ENCODING 101
SWIDTH 576 0
DWIDTH 12 0
BBX 10 12 1 0
BITMAP
1F00
7380
40C0
C0C0
C040
FFC0
8000
C000
C000
60C0
7B80
1F00
ENDCHAR
STARTCHAR 0066
ENCODING 102
SWIDTH 336 0
DWIDTH 7 0
BBX 6 15 1 0
BITMAP
1C
30
20
FC
20
20
20
20
20
20
20
20
20
20
20
ENDCHAR
STARTCHAR 0067
ENCODING 103
SWIDTH 576 0
DWIDTH 12 0
BBX 10 17 1 -5
BITMAP
1EC0
73C0
61C0
C0C0
C0C0
80C0
80C0
C0C0
C0C0
61C0
73C0
1EC0
00C0
00C0
4080
7F80
1F00
ENDCHAR
STARTCHAR 0068
ENCODING 104
SWIDTH 576 0
DWIDTH 12 0
BBX 10 15 1 0
BITMAP
C000
C000
C000
DF00
FB80
E0C0
C0C0
C0C0
C040
C040
C040
C040
C040
C040
C040
ENDCHAR
STARTCHAR 0069
ENCODING 105
SWIDTH 240 0
DWIDTH 5 0
BBX 1 15 2 0
BITMAP
80
80
00
80
80
80
80
80
80
80
80
80
80
80
80
ENDCHAR
STARTCHAR 006A
ENCODING 106
SWIDTH 240 0
DWIDTH 5 0
BBX 4 20 0 -5
BITMAP
30
30
00
30
30
30
30
30
30
30
30
30
30
30
30
30
30
30
60
E0
ENDCHAR
STARTCHAR 006B
ENCODING 107
SWIDTH 480 0
DWIDTH 10 0
BBX 9 15 1 0
BITMAP
C000
C000
C000
C180
C300
C600
CC00
D800
F000
F000
D800
CC00
C600
C300
C180
ENDCHAR
STARTCHAR 006C
ENCODING 108
SWIDTH 240 0
DWIDTH 5 0
BBX 1 15 2 0
BITMAP
80
80
80
80
80
80
80
80
80
80
80
80
80
80
80
ENDCHAR
STARTCHAR 006D
ENCODING 109
SWIDTH 864 0
DWIDTH 18 0
BBX 15 12 1 0
BITMAP
DE3C
F76E
C186
C182
C182
C182
C182
C182
C182
C182
C182
C182
ENDCHAR
STARTCHAR 006E
ENCODING 110
SWIDTH 576 0
DWIDTH 12 0
BBX 10 12 1 0
BITMAP
DF00
FB80
E0C0
C0C0
C0C0
C040
C040
C040
C040
C040
C040
C040
ENDCHAR
STARTCHAR 006F
ENCODING 111
SWIDTH 576 0
DWIDTH 12 0
BBX 10 12 1 0
BITMAP
1F00
7B80
60C0
C0C0
C040
8040
8040
C040
C0C0
60C0
7B80
1F00
ENDCHAR
STARTCHAR 0070
ENCODING 112
SWIDTH 576 0
DWIDTH 12 0
BBX 10 17 1 -5
BITMAP
DF00
FB80
E0C0
C0C0
C040
C040
C040
C040
C0C0
E0C0
FB80
DF00
C000
C000
C000
C000
C000
ENDCHAR
STARTCHAR 0071
ENCODING 113
SWIDTH 576 0
DWIDTH 12 0
BBX 10 17 1 -5
BITMAP
1EC0
73C0
61C0
C0C0
C0C0
80C0
80C0
C0C0
C0C0
61C0
73C0
1EC0
00C0
00C0
00C0
00C0
00C0
ENDCHAR
STARTCHAR 0072
ENCODING 114
SWIDTH 384 0
DWIDTH 8 0
BBX 6 12 1 0
BITMAP
DC
F8
E0
C0
C0
C0
C0
C0
C0
C0
C0
C0
ENDCHAR
STARTCHAR 0073
ENCODING 115
SWIDTH 528 0
DWIDTH 11 0
BBX 9 12 1 0
BITMAP
3E00
6700
C180
C100
E000
3C00
0F00
0180
0180
C180
7300
3E00
ENDCHAR
STARTCHAR 0074
ENCODING 116
SWIDTH 384 0
DWIDTH 8 0
BBX 8 15 0 0
BITMAP
10
10
10
FF
10
10
10
10
10
10
10
10
10
19
0F
ENDCHAR
STARTCHAR 0075
ENCODING 117
SWIDTH 576 0
DWIDTH 12 0
BBX 10 12 1 0
BITMAP
C0C0
C0C0
C0C0
C0C0
C0C0
C0C0
C0C0
C0C0
C0C0
61C0
7340
1E40
ENDCHAR
STARTCHAR 0076
ENCODING 118
SWIDTH 528 0
DWIDTH 11 0
BBX 9 12 1 0
BITMAP
8180
8180
C100
4300
4300
6200
2600
2600
3400
1C00
1C00
1800
ENDCHAR
STARTCHAR 0077
ENCODING 119
SWIDTH 768 0
DWIDTH 16 0
BBX 14 12 1 0
BITMAP
8304
8304
C30C
C78C
4488
6498
6CD8
2CD0
2850
3870
3870
1020
ENDCHAR
STARTCHAR 0078
ENCODING 120
SWIDTH 528 0
DWIDTH 11 0
BBX 9 12 1 0
BITMAP
8180
C180
6300
3600
1400
1C00
1C00
3400
3600
6300
C180
8080
ENDCHAR
STARTCHAR 0079
ENCODING 121
SWIDTH 528 0
DWIDTH 11 0
BBX 9 16 1 -4
BITMAP
8080
C080
C180
4100
6300
2300
3200
3600
1400
1C00
0C00
0800
1800
1800
1000
3000
ENDCHAR
STARTCHAR 007A
ENCODING 122
SWIDTH 528 0
DWIDTH 11 0
BBX 9 12 1 0
BITMAP
FF80
0100
0300
0600
0400
0C00
1800
3000
2000
6000
C000
FF80
ENDCHAR
STARTCHAR 007B
ENCODING 123
SWIDTH 432 0
DWIDTH 9 0
BBX 5 22 3 -4
BITMAP
38
60
60
60
60
60
60
60
60
40
C0
C0
40
60
60
60
60
60
60
60
60
38
ENDCHAR
STARTCHAR 007C
ENCODING 124
SWIDTH 240 0
DWIDTH 5 0
BBX 1 15 2 0
BITMAP
80
80
80
80
80
80
80
80
80
80
80
80
80
80
80
ENDCHAR
STARTCHAR 007D
ENCODING 125
SWIDTH 432 0
DWIDTH 9 0
BBX 5 22 1 -4
BITMAP
E0
30
30
30
30
30
30
30
30
30
18
18
30
30
30
30
30
30
30
30
30
E0
ENDCHAR
STARTCHAR 007E
ENCODING 126
SWIDTH 672 0
DWIDTH 14 0
BBX 9 3 2 5
BITMAP
7080
7F80
C780
ENDCHAR
STARTCHAR 00A0
ENCODING 160
SWIDTH 192 0
DWIDTH 4 0
BBX 0 0 0 0
BITMAP
ENDCHAR
STARTCHAR 00A1
ENCODING 161
SWIDTH 336 0
DWIDTH 7 0
BBX 2 15 2 -3
BITMAP
C0
C0
00
00
C0
C0
C0
C0
C0
C0
C0
C0
C0
C0
C0
ENDCHAR
STARTCHAR 00A2
ENCODING 162
SWIDTH 576 0
DWIDTH 12 0
BBX 10 15 1 0
BITMAP
0400
0400
1F00
7380
40C0
C000
C000
8000
C000
C000
C0C0
6180
3F00
0400
0400
ENDCHAR
STARTCHAR 00A3
ENCODING 163
SWIDTH 576 0
DWIDTH 12 0
BBX 10 15 1 0
BITMAP
0F00
1F80
30C0
3040
3000
3000
3000
FF00
3000
3000
3000
3000
3000
7000
FFC0
ENDCHAR
STARTCHAR 00A4
ENCODING 164
SWIDTH 624 0
DWIDTH 13 0
BBX 12 11 1 2
BITMAP
DF30
79E0
60C0
4060
C020
C020
C020
4060
60C0
79E0
DF30
ENDCHAR
STARTCHAR 00A5
ENCODING 165
SWIDTH 576 0
DWIDTH 12 0
BBX 11 15 0 0
BITMAP
C020
6060
60C0
3080
1180
1900
0F00
0E00
3FC0
0600
0600
3FC0
0600
0600
0600
ENDCHAR
STARTCHAR 00A6
ENCODING 166
SWIDTH 240 0
DWIDTH 5 0
BBX 1 18 2 -3
BITMAP
80
80
80
80
80
80
80
80
00
00
00
80
80
80
80
80
80
80
ENDCHAR
STARTCHAR 00A7
ENCODING 167
SWIDTH 528 0
DWIDTH 11 0
BBX 9 17 1 -3
BITMAP
3E00
6700
C100
C100
6000
3C00
6F00
C180
C080
C180
7980
1F00
0380
0180
C180
6300
3F00
ENDCHAR
STARTCHAR 00A8
ENCODING 168
SWIDTH 528 0
DWIDTH 11 0
BBX 6 2 2 17
BITMAP
CC
CC
ENDCHAR
STARTCHAR 00A9
ENCODING 169
SWIDTH 816 0
DWIDTH 17 0
BBX 15 15 1 -1
BITMAP
07C0
1FF0
3018
600C
C7C4
CC66
8806
8802
8802
8806
CC66
47CC
601C
3838
0FE0
ENDCHAR
STARTCHAR 00AA
ENCODING 170
SWIDTH 336 0
DWIDTH 7 0
BBX 5 6 1 5
BITMAP
78
08
78
88
98
60
ENDCHAR
STARTCHAR 00AB
ENCODING 171
SWIDTH 528 0
DWIDTH 11 0
BBX 8 9 2 1
BITMAP
13
32
64
CC
98
CC
64
32
12
ENDCHAR
STARTCHAR 00AC
ENCODING 172
SWIDTH 624 0
DWIDTH 13 0
BBX 10 4 1 4
BITMAP
FFC0
0040
0040
0040
ENDCHAR
STARTCHAR 00AD
ENCODING 173
SWIDTH 432 0
DWIDTH 9 0
BBX 7 1 1 6
BITMAP
FE
ENDCHAR
STARTCHAR 00AE
ENCODING 174
SWIDTH 624 0
DWIDTH 13 0
BBX 11 10 1 6
BITMAP
1F00
3180
4E40
4A40
CA60
CE60
4A40
60C0
3180
1F00
ENDCHAR
STARTCHAR 00AF
ENCODING 175
SWIDTH 480 0
DWIDTH 10 0
BBX 6 1 2 18
BITMAP
FC
ENDCHAR
STARTCHAR 00B0
ENCODING 176
SWIDTH 432 0
DWIDTH 9 0
BBX 7 7 1 8
BITMAP
38
EC
86
82
82
C6
7C
ENDCHAR
STARTCHAR 00B1
ENCODING 177
SWIDTH 624 0
DWIDTH 13 0
BBX 10 10 1 2
BITMAP
0400
0400
0400
FFC0
0400
0400
0400
0000
0000
FFC0
ENDCHAR
STARTCHAR 00B2
ENCODING 178
SWIDTH 384 0
DWIDTH 8 0
BBX 6 9 1 6
BITMAP
78
CC
84
04
0C
18
30
40
FC
ENDCHAR
STARTCHAR 00B3
ENCODING 179
SWIDTH 384 0
DWIDTH 8 0
BBX 6 9 1 6
BITMAP
FC
08
30
78
0C
04
04
8C
78
ENDCHAR
STARTCHAR 00B4
ENCODING 180
SWIDTH 480 0
DWIDTH 10 0
BBX 2 3 4 17
BITMAP
40
40
C0
ENDCHAR
STARTCHAR 00B5
ENCODING 181
SWIDTH 624 0
DWIDTH 13 0
BBX 10 17 1 -5
BITMAP
C040
C040
C040
C040
C040
C040
C040
C0C0
C0C0
E0C0
FB40
DE40
C000
C000
C000
C000
C000
ENDCHAR
STARTCHAR 00B6
ENCODING 182
SWIDTH 624 0
DWIDTH 13 0
BBX 10 18 2 -3
BITMAP
3EC0
7EC0
FEC0
FEC0
FEC0
FEC0
FEC0
FEC0
7EC0
06C0
06C0
06C0
06C0
06C0
06C0
06C0
06C0
06C0
ENDCHAR
STARTCHAR 00B7
ENCODING 183
SWIDTH 240 0
DWIDTH 5 0
BBX 2 2 1 6
BITMAP
C0
C0
ENDCHAR
STARTCHAR 00B8
ENCODING 184
SWIDTH 384 0
DWIDTH 8 0
BBX 3 5 3 -5
BITMAP
40
C0
60
60
C0
ENDCHAR
STARTCHAR 00B9
ENCODING 185
SWIDTH 336 0
DWIDTH 7 0
BBX 3 9 1 6
BITMAP
60
E0
20
20
20
20
20
20
20
ENDCHAR
STARTCHAR 00BA
ENCODING 186
SWIDTH 336 0
DWIDTH 7 0
BBX 5 6 1 6
BITMAP
70
88
88
88
88
70
ENDCHAR
STARTCHAR 00BB
ENCODING 187
SWIDTH 528 0
DWIDTH 11 0
BBX 7 9 2 1
BITMAP
90
C8
4C
26
32
26
4C
C8
90
ENDCHAR
STARTCHAR 00BC
ENCODING 188
SWIDTH 960 0
DWIDTH 20 0
BBX 17 15 1 0
BITMAP
600800
E00800
201800
203000
206000
204000
20C400
218400
230800
060900
041100
0C1100
183F80
300100
200100
ENDCHAR
STARTCHAR 00BD
ENCODING 189
SWIDTH 912 0
DWIDTH 19 0
BBX 17 15 1 0
BITMAP
600C00
A00800
201800
203000
206000
204700
208980
219080
230080
020080
040100
0C0200
180400
300800
201F80
ENDCHAR
STARTCHAR 00BE
ENCODING 190
SWIDTH 960 0
DWIDTH 20 0
BBX 18 15 1 0
BITMAP
FC0200
080600
300C00
780800
0C1000
043100
046200
8CC200
788600
018480
030C80
060880
040FC0
0C0080
080080
ENDCHAR
STARTCHAR 00BF
ENCODING 191
SWIDTH 528 0
DWIDTH 11 0
BBX 9 16 1 -4
BITMAP
0C00
0C00
0000
0000
0800
0800
0800
1800
7000
6000
C000
C000
C180
C180
7700
3E00
ENDCHAR
STARTCHAR 00C0
ENCODING 192
SWIDTH 624 0
DWIDTH 13 0
BBX 12 20 1 0
BITMAP
0800
0800
0400
0000
0000
0E00
0E00
0A00
1B00
1900
1180
3180
3080
20C0
60C0
7FC0
4060
C060
C020
8030
ENDCHAR
STARTCHAR 00C1
ENCODING 193
SWIDTH 624 0
DWIDTH 13 0
BBX 12 20 1 0
BITMAP
0200
0200
0600
0000
0000
0E00
0E00
0A00
1B00
1900
1180
3180
3080
20C0
60C0
7FC0
4060
C060
C020
8030
ENDCHAR
STARTCHAR 00C2
ENCODING 194
SWIDTH 624 0
DWIDTH 13 0
BBX 12 20 1 0
BITMAP
0600
0A00
1100
0000
0000
0E00
0E00
0A00
1B00
1900
1180
3180
3080
20C0
60C0
7FC0
4060
C060
C020
8030
ENDCHAR
STARTCHAR 00C3
ENCODING 195
SWIDTH 624 0
DWIDTH 13 0
BBX 12 20 1 0
BITMAP
1800
3E80
0300
0000
0000
0E00
0E00
0A00
1B00
1900
1180
3180
3080
20C0
60C0
7FC0
4060
C060
C020
8030
ENDCHAR
STARTCHAR 00C4
ENCODING 196
SWIDTH 624 0
DWIDTH 13 0
BBX 12 19 1 0
BITMAP
1100
1100
0000
0000
0E00
0E00
0A00
1B00
1900
1180
3180
3080
20C0
60C0
7FC0
4060
C060
C020
8030
ENDCHAR
STARTCHAR 00C5
ENCODING 197
SWIDTH 624 0
DWIDTH 13 0
BBX 12 21 1 0
BITMAP
0E00
0B00
1100
0B00
0E00
0000
0E00
0E00
0A00
1B00
1900
1180
3180
3080
20C0
60C0
7FC0
4060
C060
C020
8030
ENDCHAR
STARTCHAR 00C6
ENCODING 198
SWIDTH 912 0
DWIDTH 19 0
BBX 17 15 1 0
BITMAP
0FFF80
0C8000
088000
188000
188000
108000
308000
30FF00
208000
608000
7F8000
408000
C08000
C08000
80FF80
ENDCHAR
STARTCHAR 00C7
ENCODING 199
SWIDTH 720 0
DWIDTH 15 0
BBX 13 20 1 -5
BITMAP
0F80
3DE0
6030
C018
C018
8000
8000
8000
8000
8000
C018
C018
6030
3DE0
0F80
0200
0300
0100
0100
0700
ENDCHAR
STARTCHAR 00C8
ENCODING 200
SWIDTH 576 0
DWIDTH 12 0
BBX 10 20 1 0
BITMAP
0800
0800
0400
0000
0000
FFC0
C000
C000
C000
C000
C000
C000
FF80
C000
C000
C000
C000
C000
C000
FFC0
ENDCHAR
STARTCHAR 00C9
ENCODING 201
SWIDTH 576 0
DWIDTH 12 0
BBX 10 20 1 0
BITMAP
0200
0600
0400
0000
0000
FFC0
C000
C000
C000
C000
C000
C000
FF80
C000
C000
C000
C000
C000
C000
FFC0
ENDCHAR
STARTCHAR 00CA
ENCODING 202
SWIDTH 576 0
DWIDTH 12 0
BBX 10 20 1 0
BITMAP
0C00
1E00
3300
0000
0000
FFC0
C000
C000
C000
C000
C000
C000
FF80
C000
C000
C000
C000
C000
C000
FFC0
ENDCHAR
STARTCHAR 00CB
ENCODING 203
SWIDTH 576 0
DWIDTH 12 0
BBX 10 19 1 0
BITMAP
3300
3300
0000
0000
FFC0
C000
C000
C000
C000
C000
C000
FF80
C000
C000
C000
C000
C000
C000
FFC0
ENDCHAR
STARTCHAR 00CC
ENCODING 204
SWIDTH 240 0
DWIDTH 5 0
BBX 2 20 1 0
BITMAP
80
80
C0
00
00
40
40
40
40
40
40
40
40
40
40
40
40
40
40
40
ENDCHAR
STARTCHAR 00CD
ENCODING 205
SWIDTH 240 0
DWIDTH 5 0
BBX 2 20 2 0
BITMAP
40
C0
80
00
00
80
80
80
80
80
80
80
80
80
80
80
80
80
80
80
ENDCHAR
STARTCHAR 00CE
ENCODING 206
SWIDTH 240 0
DWIDTH 5 0
BBX 5 20 0 0
BITMAP
60
50
88
00
00
20
20
20
20
20
20
20
20
20
20
20
20
20
20
20
ENDCHAR
STARTCHAR 00CF
ENCODING 207
SWIDTH 240 0
DWIDTH 5 0
BBX 5 19 0 0
BITMAP
88
88
00
00
20
20
20
20
20
20
20
20
20
20
20
20
20
20
20
ENDCHAR
STARTCHAR 00D0
ENCODING 208
SWIDTH 672 0
DWIDTH 14 0
BBX 13 15 0 0
BITMAP
7F80
61E0
6030
6030
6018
6018
6018
FE18
6018
6018
6018
6030
6030
61E0
7F80
ENDCHAR
STARTCHAR 00D1
ENCODING 209
SWIDTH 672 0
DWIDTH 14 0
BBX 12 19 1 0
BITMAP
1EC0
1380
0000
0000
C030
E030
F030
D030
D830
CC30
C430
C630
C330
C130
C1B0
C0F0
C070
C070
C030
ENDCHAR
STARTCHAR 00D2
ENCODING 210
SWIDTH 720 0
DWIDTH 15 0
BBX 13 20 1 0
BITMAP
0400
0400
0200
0000
0000
0F80
3DE0
6030
C018
C018
8008
8008
8008
8008
8008
C018
C018
6030
3DE0
0F80
ENDCHAR
STARTCHAR 00D3
ENCODING 211
SWIDTH 720 0
DWIDTH 15 0
BBX 13 20 1 0
BITMAP
0180
0100
0300
0200
0000
0F80
3DE0
6030
C018
C018
8008
8008
8008
8008
8008
C018
C018
6030
3DE0
0F80
ENDCHAR
STARTCHAR 00D4
ENCODING 212
SWIDTH 720 0
DWIDTH 15 0
BBX 13 19 1 0
BITMAP
0700
0500
0880
0000
0F80
3DE0
6030
C018
C018
8008
8008
8008
8008
8008
C018
C018
6030
3DE0
0F80
ENDCHAR
STARTCHAR 00D5
ENCODING 213
SWIDTH 720 0
DWIDTH 15 0
BBX 13 19 1 0
BITMAP
0E40
0BC0
0000
0000
0F80
3DE0
6030
C018
C018
8008
8008
8008
8008
8008
C018
C018
6030
3DE0
0F80
ENDCHAR
STARTCHAR 00D6
ENCODING 214
SWIDTH 720 0
DWIDTH 15 0
BBX 13 19 1 0
BITMAP
0880
0880
0000
0000
0F80
3DE0
6030
C018
C018
8008
8008
8008
8008
8008
C018
C018
6030
3DE0
0F80
ENDCHAR
STARTCHAR 00D7
ENCODING 215
SWIDTH 480 0
DWIDTH 10 0
BBX 8 7 1 4
BITMAP
42
66
3C
18
3C
66
C3
ENDCHAR
STARTCHAR 00D8
ENCODING 216
SWIDTH 720 0
DWIDTH 15 0
BBX 13 15 1 0
BITMAP
0F88
3DF8
6030
C038
C078
80C8
8188
8308
8608
8C08
D818
F018
6030
FDE0
8F80
ENDCHAR
STARTCHAR 00D9
ENCODING 217
SWIDTH 720 0
DWIDTH 15 0
BBX 12 20 1 0
BITMAP
0400
0600
0200
0000
0000
C010
C010
C010
C010
C010
C010
C010
C010
C010
C010
4030
6030
6060
3DC0
0F80
ENDCHAR
STARTCHAR 00DA
ENCODING 218
SWIDTH 720 0
DWIDTH 15 0
BBX 12 20 1 0
BITMAP
0100
0200
0200
0000
0000
C010
C010
C010
C010
C010
C010
C010
C010
C010
C010
4030
6030
6060
3DC0
0F80
ENDCHAR
STARTCHAR 00DB
ENCODING 219
SWIDTH 720 0
DWIDTH 15 0
BBX 12 20 1 0
BITMAP
0600
0D00
0980
0000
0000
C010
C010
C010
C010
C010
C010
C010
C010
C010
C010
4030
6030
6060
3DC0
0F80
ENDCHAR
STARTCHAR 00DC
ENCODING 220
SWIDTH 720 0
DWIDTH 15 0
BBX 12 19 1 0
BITMAP
1980
1980
0000
0000
C010
C010
C010
C010
C010
C010
C010
C010
C010
C010
4030
6030
6060
3DC0
0F80
ENDCHAR
STARTCHAR 00DD
ENCODING 221
SWIDTH 576 0
DWIDTH 12 0
BBX 11 20 0 0
BITMAP
0200
0200
0600
0000
0000
C020
6060
60C0
30C0
1180
1900
0F00
0E00
0600
0600
0600
0600
0600
0600
0600
ENDCHAR
STARTCHAR 00DE
ENCODING 222
SWIDTH 576 0
DWIDTH 12 0
BBX 11 15 1 0
BITMAP
C000
C000
C000
FF00
C380
C0C0
C060
C060
C060
C0C0
C3C0
FF00
C000
C000
C000
ENDCHAR
STARTCHAR 00DF
ENCODING 223
SWIDTH 576 0
DWIDTH 12 0
BBX 10 15 1 0
BITMAP
3E00
7700
4180
C180
C180
C180
C700
C780
C0C0
C0C0
C040
C040
C0C0
CF80
CF00
ENDCHAR
STARTCHAR 00E0
ENCODING 224
SWIDTH 576 0
DWIDTH 12 0
BBX 9 17 1 0
BITMAP
1800
0800
0800
0000
0000
3E00
7380
4180
4080
0080
1F80
7080
C080
8180
C180
E680
7C80
ENDCHAR
STARTCHAR 00E1
ENCODING 225
SWIDTH 576 0
DWIDTH 12 0
BBX 9 17 1 0
BITMAP
0600
0400
0400
0000
0000
3E00
7380
4180
4080
0080
1F80
7080
C080
8180
C180
E680
7C80
ENDCHAR
STARTCHAR 00E2
ENCODING 226
SWIDTH 576 0
DWIDTH 12 0
BBX 9 16 1 0
BITMAP
0C00
1E00
3300
0000
3E00
7380
4180
4080
0080
1F80
7080
C080
8180
C180
E680
7C80
ENDCHAR
STARTCHAR 00E3
ENCODING 227
SWIDTH 576 0
DWIDTH 12 0
BBX 9 16 1 0
BITMAP
3900
2700
0000
0000
3E00
7380
4180
4080
0080
1F80
7080
C080
8180
C180
E680
7C80
ENDCHAR
STARTCHAR 00E4
ENCODING 228
SWIDTH 576 0
DWIDTH 12 0
BBX 9 15 1 0
BITMAP
3300
3300
0000
3E00
7380
4180
4080
0080
1F80
7080
C080
8180
C180
E680
7C80
ENDCHAR
STARTCHAR 00E5
ENCODING 229
SWIDTH 576 0
DWIDTH 12 0
BBX 9 17 1 0
BITMAP
1E00
1200
1200
1E00
0000
3E00
7380
4180
4080
0080
1F80
7080
C080
8180
C180
E680
7C80
ENDCHAR
STARTCHAR 00E6
ENCODING 230
SWIDTH 960 0
DWIDTH 20 0
BBX 18 12 1 0
BITMAP
3E1E00
777300
C1C180
00C080
0080C0
3FFFC0
608000
C0C000
81C080
C14180
E77780
7C1E00
ENDCHAR
STARTCHAR 00E7
ENCODING 231
SWIDTH 576 0
DWIDTH 12 0
BBX 10 17 1 -5
BITMAP
1E00
7F80
60C0
C080
C000
8000
8000
C000
C000
60C0
7380
1F00
0C00
0C00
0600
0600
1C00
ENDCHAR
STARTCHAR 00E8
ENCODING 232
SWIDTH 576 0
DWIDTH 12 0
BBX 10 17 1 0
BITMAP
0800
0800
0C00
0000
0000
1F00
7380
40C0
C0C0
C040
FFC0
8000
C000
C000
60C0
7B80
1F00
ENDCHAR
STARTCHAR 00E9
ENCODING 233
SWIDTH 576 0
DWIDTH 12 0
BBX 10 17 1 0
BITMAP
0200
0200
0400
0400
0000
1F00
7380
40C0
C0C0
C040
FFC0
8000
C000
C000
60C0
7B80
1F00
ENDCHAR
STARTCHAR 00EA
ENCODING 234
SWIDTH 576 0
DWIDTH 12 0
BBX 10 16 1 0
BITMAP
0C00
1A00
3300
0000
1F00
7380
40C0
C0C0
C040
FFC0
8000
C000
C000
60C0
7B80
1F00
ENDCHAR
STARTCHAR 00EB
ENCODING 235
SWIDTH 576 0
DWIDTH 12 0
BBX 10 15 1 0
BITMAP
3300
3300
0000
1F00
7380
40C0
C0C0
C040
FFC0
8000
C000
C000
60C0
7B80
1F00
ENDCHAR
STARTCHAR 00EC
ENCODING 236
SWIDTH 240 0
DWIDTH 5 0
BBX 2 17 1 0
BITMAP
80
80
C0
00
00
40
40
40
40
40
40
40
40
40
40
40
40
ENDCHAR
STARTCHAR 00ED
ENCODING 237
SWIDTH 240 0
DWIDTH 5 0
BBX 2 17 2 0
BITMAP
40
C0
80
00
00
80
80
80
80
80
80
80
80
80
80
80
80
ENDCHAR
STARTCHAR 00EE
ENCODING 238
SWIDTH 240 0
DWIDTH 5 0
BBX 5 17 0 0
BITMAP
20
50
88
00
00
20
20
20
20
20
20
20
20
20
20
20
20
ENDCHAR
STARTCHAR 00EF
ENCODING 239
SWIDTH 240 0
DWIDTH 5 0
BBX 5 15 0 0
BITMAP
88
88
00
20
20
20
20
20
20
20
20
20
20
20
20
ENDCHAR
STARTCHAR 00F0
ENCODING 240
SWIDTH 576 0
DWIDTH 12 0
BBX 10 17 1 0
BITMAP
0100
0F00
0700
0780
0480
00C0
1E40
73C0
40C0
C0C0
8040
8040
8040
C0C0
40C0
7380
1F00
ENDCHAR
STARTCHAR 00F1
ENCODING 241
SWIDTH 576 0
DWIDTH 12 0
BBX 10 16 1 0
BITMAP
3900
2700
0000
0000
DF00
FB80
E0C0
C0C0
C0C0
C040
C040
C040
C040
C040
C040
C040
ENDCHAR
STARTCHAR 00F2
ENCODING 242
SWIDTH 576 0
DWIDTH 12 0
BBX 10 17 1 0
BITMAP
1800
0800
0800
0000
0000
1F00
7B80
60C0
C0C0
C040
8040
8040
C040
C0C0
60C0
7B80
1F00
ENDCHAR
STARTCHAR 00F3
ENCODING 243
SWIDTH 576 0
DWIDTH 12 0
BBX 10 17 1 0
BITMAP
0200
0600
0400
0400
0000
1F00
7B80
60C0
C0C0
C040
8040
8040
C040
C0C0
60C0
7B80
1F00
ENDCHAR
STARTCHAR 00F4
ENCODING 244
SWIDTH 576 0
DWIDTH 12 0
BBX 10 16 1 0
BITMAP
0C00
1A00
3300
0000
1F00
7B80
60C0
C0C0
C040
8040
8040
C040
C0C0
60C0
7B80
1F00
ENDCHAR
STARTCHAR 00F5
ENCODING 245
SWIDTH 576 0
DWIDTH 12 0
BBX 10 16 1 0
BITMAP
3900
2700
0000
0000
1F00
7B80
60C0
C0C0
C040
8040
8040
C040
C0C0
60C0
7B80
1F00
ENDCHAR
STARTCHAR 00F6
ENCODING 246
SWIDTH 576 0
DWIDTH 12 0
BBX 10 15 1 0
BITMAP
3300
3300
0000
1F00
7B80
60C0
C0C0
C040
8040
8040
C040
C0C0
60C0
7B80
1F00
ENDCHAR
STARTCHAR 00F7
ENCODING 247
SWIDTH 528 0
DWIDTH 11 0
BBX 9 7 1 4
BITMAP
0C00
0C00
0000
FF80
0000
0C00
0C00
ENDCHAR
STARTCHAR 00F8
ENCODING 248
SWIDTH 576 0
DWIDTH 12 0
BBX 10 12 1 0
BITMAP
1F40
7BC0
60C0
C1C0
C340
8640
8C40
D840
F0C0
60C0
FB80
9F00
ENDCHAR
STARTCHAR 00F9
ENCODING 249
SWIDTH 576 0
DWIDTH 12 0
BBX 10 17 1 0
BITMAP
0800
0800
0C00
0000
0000
C0C0
C0C0
C0C0
C0C0
C0C0
C0C0
C0C0
C0C0
C0C0
61C0
7340
1E40
ENDCHAR
STARTCHAR 00FA
ENCODING 250
SWIDTH 576 0
DWIDTH 12 0
BBX 10 17 1 0
BITMAP
0600
0400
0400
0000
0000
C0C0
C0C0
C0C0
C0C0
C0C0
C0C0
C0C0
C0C0
C0C0
61C0
7340
1E40
ENDCHAR
STARTCHAR 00FB
ENCODING 251
SWIDTH 576 0
DWIDTH 12 0
BBX 10 17 1 0
BITMAP
0C00
1E00
1300
2000
0000
C0C0
C0C0
C0C0
C0C0
C0C0
C0C0
C0C0
C0C0
C0C0
61C0
7340
1E40
ENDCHAR
STARTCHAR 00FC
ENCODING 252
SWIDTH 576 0
DWIDTH 12 0
BBX 10 15 1 0
BITMAP
3300
3300
0000
C0C0
C0C0
C0C0
C0C0
C0C0
C0C0
C0C0
C0C0
C0C0
61C0
7340
1E40
ENDCHAR
STARTCHAR 00FD
ENCODING 253
SWIDTH 528 0
DWIDTH 11 0
BBX 9 21 1 -4
BITMAP
0400
0C00
0800
0000
0000
8080
C080
C180
4100
6300
2300
3200
3600
1400
1C00
0C00
0800
1800
1800
1000
3000
ENDCHAR
STARTCHAR 00FE
ENCODING 254
SWIDTH 576 0
DWIDTH 12 0
BBX 10 20 1 -5
BITMAP
C000
C000
C000
DF00
FB80
E0C0
C0C0
C040
C040
C040
C040
C0C0
E0C0
FB80
DF00
C000
C000
C000
C000
C000
ENDCHAR
STARTCHAR 00FF
ENCODING 255
SWIDTH 528 0
DWIDTH 11 0
BBX 9 19 1 -4
BITMAP
2200
2200
0000
8080
C080
C180
4100
6300
2300
3200
3600
1400
1C00
0C00
0800
1800
1800
1000
3000
ENDCHAR
ENDFONT
