STARTFONT 2.1
COMMENT
COMMENT Converted from OpenType font "manrope-regular.otf" by "otf2bdf 3.0".
COMMENT
FONT -FreeType-Manrope-Medium-R-Normal--36-260-100-100-P-164-ISO10646-1
SIZE 26 100 100
FONTBOUNDINGBOX 34 45 -1 -9
STARTPROPERTIES 19
FOUNDRY "FreeType"
FAMILY_NAME "Manrope"
WEIGHT_NAME "Medium"
SLANT "R"
SETWIDTH_NAME "Normal"
ADD_STYLE_NAME ""
PIXEL_SIZE 36
POINT_SIZE 260
RESOLUTION_X 100
RESOLUTION_Y 100
SPACING "P"
AVERAGE_WIDTH 164
CHARSET_REGISTRY "ISO10646"
CHARSET_ENCODING "1"
FONT_ASCENT 38
FONT_DESCENT 10
COPYRIGHT "Copyright 2019-2021 The Manrope Project Authors (https://github.com/sharanda/manrope)"
_OTF_FONTFILE "manrope-regular.otf"
_OTF_PSNAME "Manrope-Regular"
ENDPROPERTIES
CHARS 191
STARTCHAR 0020
ENCODING 32
SWIDTH 193 0
DWIDTH 7 0
BBX 0 0 0 0
BITMAP
ENDCHAR
STARTCHAR 0021
ENCODING 33
SWIDTH 304 0
DWIDTH 11 0
BBX 3 26 4 0
BITMAP
E0
E0
E0
E0
E0
E0
E0
E0
E0
E0
E0
E0
E0
E0
E0
E0
E0
E0
E0
E0
00
00
00
E0
E0
E0
ENDCHAR
STARTCHAR 0022
ENCODING 34
SWIDTH 387 0
DWIDTH 14 0
BBX 9 7 2 19
BITMAP
E380
E380
E380
E380
E380
E380
E380
ENDCHAR
STARTCHAR 0023
ENCODING 35
SWIDTH 913 0
DWIDTH 33 0
BBX 29 26 2 0
BITMAP
000E0700
000E0600
000C0E00
001C0E00
001C0C00
001C0C00
00181C00
1FFFFFF8
1FFFFFF8
1FFFFFF8
00303800
00703800
00703000
00607000
00E07000
7FFFFFE0
7FFFFFE0
FFFFFFC0
01C0E000
01C0C000
0180C000
0181C000
0381C000
03818000
03038000
03038000
ENDCHAR
STARTCHAR 0024
ENCODING 36
SWIDTH 581 0
DWIDTH 21 0
BBX 19 32 1 -3
BITMAP
00E000
00E000
00E000
03F800
0FFE00
1FFF00
3C0780
3801C0
7001C0
7000E0
7000C0
700000
380000
3E0000
0FE000
03FC00
007F00
000FC0
0001C0
0000E0
0000E0
2000E0
E000E0
7000E0
7801C0
3C03C0
1FFF80
0FFF00
03FC00
00E000
00E000
00E000
ENDCHAR
STARTCHAR 0025
ENCODING 37
SWIDTH 913 0
DWIDTH 33 0
BBX 28 26 2 0
BITMAP
0F800040
3FE000E0
7DF001E0
707003C0
E0380780
E0180F00
E0181E00
E0383C00
70387800
7870F000
3FE1E000
1FC3C000
00078000
000F0000
001E1F80
003C7FE0
0078F0E0
00F0E070
01E0C030
03C1C030
0781C030
0F00C070
1E00E070
3C007BE0
38003FC0
10001F00
ENDCHAR
STARTCHAR 0026
ENCODING 38
SWIDTH 664 0
DWIDTH 24 0
BBX 21 26 2 0
BITMAP
03F000
0FFC00
1FFE00
3C0F00
380700
700000
700000
700000
700000
380000
1C0000
1E0000
1F0000
3F8000
79C0C0
E0E0C0
E078C0
E03CC0
E01EC0
E007C0
E003C0
F003C0
7807E0
3FFF70
1FFE38
07F010
ENDCHAR
STARTCHAR 0027
ENCODING 39
SWIDTH 221 0
DWIDTH 8 0
BBX 3 7 2 19
BITMAP
E0
E0
E0
E0
E0
E0
E0
ENDCHAR
STARTCHAR 0028
ENCODING 40
SWIDTH 415 0
DWIDTH 15 0
BBX 9 36 5 -7
BITMAP
0300
0380
0700
0E00
0E00
1C00
1800
3800
3000
7000
7000
6000
6000
E000
E000
E000
E000
C000
C000
E000
E000
E000
E000
E000
6000
7000
7000
3000
3800
3800
1C00
1C00
0E00
0E00
0700
0300
ENDCHAR
STARTCHAR 0029
ENCODING 41
SWIDTH 415 0
DWIDTH 15 0
BBX 8 37 2 -7
BITMAP
40
E0
E0
70
38
38
1C
1C
0E
0E
06
06
07
07
03
03
03
03
03
03
03
03
07
07
07
06
0E
0E
0C
1C
1C
38
38
70
E0
E0
40
ENDCHAR
STARTCHAR 002A
ENCODING 42
SWIDTH 443 0
DWIDTH 16 0
BBX 12 12 1 14
BITMAP
0700
0700
0600
4610
FEF0
FFF0
1F80
0F80
1D80
39C0
38E0
1040
ENDCHAR
STARTCHAR 002B
ENCODING 43
SWIDTH 581 0
DWIDTH 21 0
BBX 17 16 2 5
BITMAP
01C000
01C000
01C000
01C000
01C000
01C000
01C000
FFFF80
FFFF80
01C000
01C000
01C000
01C000
01C000
01C000
01C000
ENDCHAR
STARTCHAR 002C
ENCODING 44
SWIDTH 276 0
DWIDTH 10 0
BBX 3 8 2 -4
BITMAP
E0
E0
E0
E0
20
20
60
C0
ENDCHAR
STARTCHAR 002D
ENCODING 45
SWIDTH 415 0
DWIDTH 15 0
BBX 11 2 2 10
BITMAP
FFE0
FFE0
ENDCHAR
STARTCHAR 002E
ENCODING 46
SWIDTH 249 0
DWIDTH 9 0
BBX 3 3 3 0
BITMAP
E0
E0
E0
ENDCHAR
STARTCHAR 002F
ENCODING 47
SWIDTH 387 0
DWIDTH 14 0
BBX 10 26 2 0
BITMAP
01C0
0180
0380
0380
0380
0300
0700
0700
0700
0600
0E00
0E00
0C00
1C00
1C00
1C00
1800
3800
3800
3800
3000
7000
7000
7000
6000
E000
ENDCHAR
STARTCHAR 0030
ENCODING 48
SWIDTH 609 0
DWIDTH 22 0
BBX 16 26 3 0
BITMAP
07E0
1FF8
3FFC
781E
F00F
E007
C003
C003
C003
C003
C003
C003
C003
C003
C003
C003
C003
C003
C003
C003
E007
F00F
781E
3FFC
1FF8
07E0
ENDCHAR
STARTCHAR 0031
ENCODING 49
SWIDTH 387 0
DWIDTH 14 0
BBX 8 26 2 0
BITMAP
0F
1F
7F
F7
E7
87
07
07
07
07
07
07
07
07
07
07
07
07
07
07
07
07
07
07
07
07
ENDCHAR
STARTCHAR 0032
ENCODING 50
SWIDTH 581 0
DWIDTH 21 0
BBX 17 26 2 0
BITMAP
07E000
1FF800
3FFC00
780E00
700700
E00700
E00380
E00380
000380
000380
000300
000700
000F00
001E00
003C00
007800
00F000
01E000
038000
0F0000
1E0000
3C0000
780000
FFFF80
FFFF80
FFFF80
ENDCHAR
STARTCHAR 0033
ENCODING 51
SWIDTH 553 0
DWIDTH 20 0
BBX 17 26 1 0
BITMAP
7FFF00
7FFF00
7FFF00
000F00
001C00
003800
007000
00E000
01C000
078000
0FF800
07FC00
041E00
000F00
000700
000380
000380
000380
000380
000380
E00700
700700
780E00
3FFE00
1FF800
07E000
ENDCHAR
STARTCHAR 0034
ENCODING 52
SWIDTH 581 0
DWIDTH 21 0
BBX 17 26 2 0
BITMAP
00E000
00E000
01C000
01C000
038000
038000
070000
070000
0E0000
0E0000
0E0000
1C0E00
1C0E00
380E00
380E00
700E00
700E00
E00E00
FFFF80
FFFF80
FFFF80
000E00
000E00
000E00
000E00
000E00
ENDCHAR
STARTCHAR 0035
ENCODING 53
SWIDTH 581 0
DWIDTH 21 0
BBX 17 26 2 0
BITMAP
7FFE00
7FFE00
7FFE00
700000
700000
700000
700000
600000
600000
63E000
6FF800
7FFE00
780E00
700700
000380
000380
000380
000380
000380
E00380
E00700
700700
781E00
3FFC00
1FF800
07E000
ENDCHAR
STARTCHAR 0036
ENCODING 54
SWIDTH 609 0
DWIDTH 22 0
BBX 17 26 3 0
BITMAP
07E000
1FFC00
3FFE00
780F00
700600
E00000
E00000
C00000
C00000
C00000
C7F800
DFFC00
FC1E00
F00F00
E00700
E00380
C00380
C00380
C00380
C00380
E00380
700700
780E00
3FFE00
1FF800
07E000
ENDCHAR
STARTCHAR 0037
ENCODING 55
SWIDTH 498 0
DWIDTH 18 0
BBX 15 26 1 0
BITMAP
FFFE
FFFE
FFFE
000E
000E
001C
001C
0038
0038
0038
0070
0070
00E0
00E0
00C0
01C0
01C0
0380
0380
0300
0700
0700
0E00
0E00
0C00
1C00
ENDCHAR
STARTCHAR 0038
ENCODING 56
SWIDTH 581 0
DWIDTH 21 0
BBX 17 26 2 0
BITMAP
07F000
1FFC00
3FFE00
380E00
700700
700700
700700
700700
700700
700F00
3C1E00
1FFC00
1FFC00
3FFE00
780F00
700700
E00380
E00380
E00380
E00380
E00380
700700
780F00
3FFE00
1FFC00
07F000
ENDCHAR
STARTCHAR 0039
ENCODING 57
SWIDTH 609 0
DWIDTH 22 0
BBX 18 26 2 0
BITMAP
03F000
0FFC00
1FFE00
3C0F00
780380
700380
E001C0
E001C0
E001C0
E001C0
6001C0
7003C0
7807C0
3E0FC0
1FFDC0
07F9C0
0001C0
0001C0
0001C0
0001C0
000380
100380
380F00
1FFE00
0FFC00
03F000
ENDCHAR
STARTCHAR 003A
ENCODING 58
SWIDTH 304 0
DWIDTH 11 0
BBX 3 14 4 3
BITMAP
E0
E0
E0
00
00
00
00
00
00
00
00
E0
E0
E0
ENDCHAR
STARTCHAR 003B
ENCODING 59
SWIDTH 304 0
DWIDTH 11 0
BBX 3 24 4 -4
BITMAP
E0
E0
E0
00
00
00
00
00
00
00
00
00
00
00
00
00
E0
E0
E0
E0
20
60
60
C0
ENDCHAR
STARTCHAR 003C
ENCODING 60
SWIDTH 609 0
DWIDTH 22 0
BBX 10 17 5 3
BITMAP
0080
01C0
0380
0700
0E00
1C00
3800
7000
E000
7000
3800
1C00
0E00
0700
0380
01C0
0080
ENDCHAR
STARTCHAR 003D
ENCODING 61
SWIDTH 747 0
DWIDTH 27 0
BBX 19 8 4 9
BITMAP
FFFFE0
FFFFE0
000000
000000
000000
000000
FFFFE0
FFFFE0
ENDCHAR
STARTCHAR 003E
ENCODING 62
SWIDTH 609 0
DWIDTH 22 0
BBX 10 17 7 3
BITMAP
4000
E000
7000
3800
1C00
0E00
0700
0380
01C0
0380
0700
0E00
1C00
3800
7000
E000
4000
ENDCHAR
STARTCHAR 003F
ENCODING 63
SWIDTH 526 0
DWIDTH 19 0
BBX 15 26 2 0
BITMAP
0FE0
3FF8
7FFC
701C
E00E
E00E
E00E
000E
000E
000E
001C
0038
00F0
01E0
03C0
0380
0380
0300
0300
0000
0000
0000
0300
0300
0300
0300
ENDCHAR
STARTCHAR 0040
ENCODING 64
SWIDTH 913 0
DWIDTH 33 0
BBX 27 27 3 -4
BITMAP
007FC000
03FFF800
07C07C00
0F001E00
1C000700
38000380
70000180
700001C0
601E00C0
E07FE0C0
E0F3E0E0
C0C0E0E0
C0C0E0E0
C1C0E0E0
C1C0E0E0
C0C0E0C0
E0E1E1C0
E07FFF80
603F3F80
70001C00
38000000
3C000000
1E000000
0F000000
07E1F000
01FFF000
007F8000
ENDCHAR
STARTCHAR 0041
ENCODING 65
SWIDTH 636 0
DWIDTH 23 0
BBX 21 26 1 0
BITMAP
00F000
00F800
00F800
01D800
01DC00
01DC00
038C00
038E00
030E00
070600
070700
060700
0E0380
0E0380
0C0380
1C01C0
1C01C0
1FFFC0
3FFFE0
3FFFE0
300060
700070
700070
600030
E00038
E00038
ENDCHAR
STARTCHAR 0042
ENCODING 66
SWIDTH 609 0
DWIDTH 22 0
BBX 18 26 3 0
BITMAP
FFF000
FFFC00
FFFE00
C00700
C00700
C00380
C00380
C00380
C00380
C00700
C00F00
FFFE00
FFFC00
FFFF00
C00780
C00380
C001C0
C001C0
C001C0
C001C0
C001C0
C003C0
C00780
FFFF00
FFFE00
FFFC00
ENDCHAR
STARTCHAR 0043
ENCODING 67
SWIDTH 720 0
DWIDTH 26 0
BBX 23 26 1 0
BITMAP
00FF00
03FFC0
0FFFF0
1F00F8
3C003C
38001C
70000E
70000E
700004
E00000
E00000
E00000
E00000
E00000
E00000
E00000
E00000
700004
70000E
70000E
38001C
3C003C
1F00F8
0FFFF0
03FFC0
00FF00
ENDCHAR
STARTCHAR 0044
ENCODING 68
SWIDTH 664 0
DWIDTH 24 0
BBX 20 26 3 0
BITMAP
FFF000
FFFE00
FFFF00
C00780
C00380
C001C0
C001E0
C000E0
C000E0
C000E0
C00070
C00070
C00070
C00070
C00070
C00070
C00060
C000E0
C000E0
C001E0
C001C0
C003C0
C00780
FFFF00
FFFE00
FFF000
ENDCHAR
STARTCHAR 0045
ENCODING 69
SWIDTH 581 0
DWIDTH 21 0
BBX 16 26 3 0
BITMAP
FFFF
FFFF
FFFF
C000
C000
C000
C000
C000
C000
C000
C000
FFFC
FFFC
FFFC
C000
C000
C000
C000
C000
C000
C000
C000
C000
FFFF
FFFF
FFFF
ENDCHAR
STARTCHAR 0046
ENCODING 70
SWIDTH 498 0
DWIDTH 18 0
BBX 14 26 3 0
BITMAP
FFFC
FFFC
FFFC
C000
C000
C000
C000
C000
C000
C000
C000
C000
FFF0
FFF0
FFF0
C000
C000
C000
C000
C000
C000
C000
C000
C000
C000
C000
ENDCHAR
STARTCHAR 0047
ENCODING 71
SWIDTH 692 0
DWIDTH 25 0
BBX 23 26 1 0
BITMAP
00FF00
03FFC0
0FFFE0
1F00F0
3C0038
38003C
70001C
700000
700000
E00000
E00000
E00000
E00000
E001FE
E001FE
E0000E
E0000E
70000E
70000E
70001C
38001C
3C0038
1F0078
0FFFF0
03FFC0
00FF00
ENDCHAR
STARTCHAR 0048
ENCODING 72
SWIDTH 692 0
DWIDTH 25 0
BBX 19 26 3 0
BITMAP
C00060
C00060
C00060
C00060
C00060
C00060
C00060
C00060
C00060
C00060
C00060
FFFFE0
FFFFE0
FFFFE0
C00060
C00060
C00060
C00060
C00060
C00060
C00060
C00060
C00060
C00060
C00060
C00060
ENDCHAR
STARTCHAR 0049
ENCODING 73
SWIDTH 221 0
DWIDTH 8 0
BBX 3 26 3 0
BITMAP
E0
E0
E0
E0
E0
E0
E0
E0
E0
E0
E0
E0
E0
E0
E0
E0
E0
E0
E0
E0
E0
E0
E0
E0
E0
E0
ENDCHAR
STARTCHAR 004A
ENCODING 74
SWIDTH 470 0
DWIDTH 17 0
BBX 14 26 0 0
BITMAP
001C
001C
001C
001C
001C
001C
001C
001C
001C
001C
001C
001C
001C
001C
001C
001C
001C
001C
001C
001C
601C
E01C
7038
7FF0
3FE0
0FC0
ENDCHAR
STARTCHAR 004B
ENCODING 75
SWIDTH 581 0
DWIDTH 21 0
BBX 18 26 3 0
BITMAP
C00380
C00700
C00E00
C01C00
C03800
C07000
C0E000
C1C000
C38000
C70000
CE0000
DC0000
F80000
DC0000
CE0000
C70000
C38000
C1C000
C0E000
C07000
C03800
C01C00
C01E00
C00F00
C00780
C003C0
ENDCHAR
STARTCHAR 004C
ENCODING 76
SWIDTH 498 0
DWIDTH 18 0
BBX 15 26 3 0
BITMAP
E000
E000
E000
E000
E000
E000
E000
E000
E000
E000
E000
E000
E000
E000
E000
E000
E000
E000
E000
E000
E000
E000
E000
FFFE
FFFE
FFFE
ENDCHAR
STARTCHAR 004D
ENCODING 77
SWIDTH 830 0
DWIDTH 30 0
BBX 25 26 3 0
BITMAP
C0000380
E0000380
E0000780
F0000780
F0000F80
F8000F80
F8001F80
D8001F80
DC003B80
CC003B80
CE007380
C6007380
C7006380
C300E380
C380C380
C381C380
C1C18380
C1C38380
C0E30380
C0E70380
C0770380
C07E0380
C03E0380
C03C0380
C01C0380
C0180380
ENDCHAR
STARTCHAR 004E
ENCODING 78
SWIDTH 692 0
DWIDTH 25 0
BBX 19 26 3 0
BITMAP
E000E0
E000E0
F000E0
F800E0
F800E0
DC00E0
DE00E0
CE00E0
C700E0
C780E0
C380E0
C1C0E0
C1E0E0
C0E0E0
C070E0
C078E0
C038E0
C01CE0
C01EE0
C00EE0
C007E0
C007E0
C003E0
C001E0
C001E0
C000E0
ENDCHAR
STARTCHAR 004F
ENCODING 79
SWIDTH 720 0
DWIDTH 26 0
BBX 24 26 1 0
BITMAP
00FF00
03FFC0
0FFFF0
1F00F8
3C003C
38001C
70000E
70000E
700006
E00007
E00007
E00007
E00007
E00007
E00007
E00007
E00007
700006
70000E
70000E
38001C
3C003C
1F00F8
0FFFF0
03FFC0
00FF00
ENDCHAR
STARTCHAR 0050
ENCODING 80
SWIDTH 609 0
DWIDTH 22 0
BBX 18 26 3 0
BITMAP
FFF800
FFFE00
FFFF00
C00780
C00380
C00380
C001C0
C001C0
C001C0
C001C0
C00380
C00380
C00780
FFFF00
FFFE00
FFF800
C00000
C00000
C00000
C00000
C00000
C00000
C00000
C00000
C00000
C00000
ENDCHAR
STARTCHAR 0051
ENCODING 81
SWIDTH 720 0
DWIDTH 26 0
BBX 24 26 1 0
BITMAP
00FF00
03FFC0
0FFFF0
1F00F8
3C003C
38001C
70000E
70000E
700006
E00007
E00007
E00007
E00007
E00007
E00007
E00007
E00007
700006
7000CE
7001EE
3800FC
3C007C
1F00FC
0FFFFE
03FFCE
00FF04
ENDCHAR
STARTCHAR 0052
ENCODING 82
SWIDTH 636 0
DWIDTH 23 0
BBX 18 26 3 0
BITMAP
FFF800
FFFE00
FFFF00
C00780
C00380
C00380
C001C0
C001C0
C001C0
C001C0
C00380
C00380
C00780
FFFF00
FFFE00
FFF800
C01C00
C01C00
C00E00
C00E00
C00700
C00700
C00380
C00380
C001C0
C001C0
ENDCHAR
STARTCHAR 0053
ENCODING 83
SWIDTH 609 0
DWIDTH 22 0
BBX 20 26 1 0
BITMAP
03FC00
0FFF00
1FFF80
3C03C0
3801E0
7000E0
700070
700060
780000
3C0000
1F0000
0FE000
03FE00
007F80
0007C0
0001E0
000070
000070
200070
E00070
700070
7800E0
3C01E0
1FFFC0
0FFF80
01FC00
ENDCHAR
STARTCHAR 0054
ENCODING 84
SWIDTH 609 0
DWIDTH 22 0
BBX 21 26 0 0
BITMAP
FFFFF8
FFFFF8
FFFFF8
007000
007000
007000
007000
007000
007000
007000
007000
007000
007000
007000
007000
007000
007000
007000
007000
007000
007000
007000
007000
007000
007000
007000
ENDCHAR
STARTCHAR 0055
ENCODING 85
SWIDTH 692 0
DWIDTH 25 0
BBX 20 26 3 0
BITMAP
C00070
C00070
C00070
C00070
C00070
C00070
C00070
C00070
C00070
C00070
C00070
C00070
C00070
C00070
C00070
C00070
C00070
C00070
E00070
E000E0
F000E0
7001C0
3C07C0
1FFF80
0FFE00
03F800
ENDCHAR
STARTCHAR 0056
ENCODING 86
SWIDTH 609 0
DWIDTH 22 0
BBX 21 26 0 0
BITMAP
E00018
600038
700038
700030
380070
380070
380060
1C00E0
1C00E0
1C00C0
0E01C0
0E01C0
0E0380
070380
070380
070700
038700
038700
018E00
01CE00
01CE00
00DC00
00FC00
00FC00
007800
007800
ENDCHAR
STARTCHAR 0057
ENCODING 87
SWIDTH 941 0
DWIDTH 34 0
BBX 32 26 1 0
BITMAP
C0038007
E003C007
E003C006
6003C00E
7007E00E
7007E00E
7006E00C
300E601C
380E701C
380C7018
180C3038
1C1C3838
1C1C3838
1C183830
0C381870
0E381C70
0E301C60
06300CE0
07700EE0
07700EE0
07600EC0
03E007C0
03E007C0
03C00780
01C00380
01C00380
ENDCHAR
STARTCHAR 0058
ENCODING 88
SWIDTH 609 0
DWIDTH 22 0
BBX 20 26 1 0
BITMAP
E00070
7000E0
7001E0
3801C0
1C0380
1E0780
0E0700
070E00
079C00
039C00
01F800
01F000
00F000
00F000
01F800
01F800
039C00
070E00
0F0E00
0E0700
1C0380
3C0380
3801C0
7000E0
F000F0
E00070
ENDCHAR
STARTCHAR 0059
ENCODING 89
SWIDTH 553 0
DWIDTH 20 0
BBX 20 26 0 0
BITMAP
E00070
7000E0
7800E0
3801C0
1C0380
1C0380
0E0700
0E0700
070E00
078E00
039C00
01F800
01F800
00F000
00F000
006000
006000
006000
006000
006000
006000
006000
006000
006000
006000
006000
ENDCHAR
STARTCHAR 005A
ENCODING 90
SWIDTH 609 0
DWIDTH 22 0
BBX 18 26 2 0
BITMAP
FFFFC0
FFFFC0
FFFF80
000780
000700
000E00
000E00
001C00
003800
003800
007000
00F000
00E000
01C000
01C000
038000
078000
070000
0E0000
1E0000
1C0000
380000
380000
7FFFC0
FFFFC0
FFFFC0
ENDCHAR
STARTCHAR 005B
ENCODING 91
SWIDTH 415 0
DWIDTH 15 0
BBX 7 40 5 -8
BITMAP
FE
FE
E0
E0
E0
E0
E0
E0
E0
E0
E0
E0
E0
E0
E0
E0
E0
E0
E0
E0
E0
E0
E0
E0
E0
E0
E0
E0
E0
E0
E0
E0
E0
E0
E0
E0
E0
E0
FE
FE
ENDCHAR
STARTCHAR 005C
ENCODING 92
SWIDTH 387 0
DWIDTH 14 0
BBX 10 26 2 0
BITMAP
E000
6000
7000
7000
7000
3000
3800
3800
3800
1800
1C00
1C00
1C00
0C00
0E00
0E00
0600
0700
0700
0700
0300
0380
0380
0380
0180
01C0
ENDCHAR
STARTCHAR 005D
ENCODING 93
SWIDTH 415 0
DWIDTH 15 0
BBX 7 40 3 -8
BITMAP
FE
FE
0E
0E
0E
0E
0E
0E
0E
0E
0E
0E
0E
0E
0E
0E
0E
0E
0E
0E
0E
0E
0E
0E
0E
0E
0E
0E
0E
0E
0E
0E
0E
0E
0E
0E
0E
0E
FE
FE
ENDCHAR
STARTCHAR 005E
ENCODING 94
SWIDTH 664 0
DWIDTH 24 0
BBX 17 10 4 16
BITMAP
008000
01C000
03E000
077000
0E3800
1C1C00
380E00
700700
E00380
400100
ENDCHAR
STARTCHAR 005F
ENCODING 95
SWIDTH 664 0
DWIDTH 24 0
BBX 24 2 0 -4
BITMAP
FFFFFF
FFFFFF
ENDCHAR
STARTCHAR 0060
ENCODING 96
SWIDTH 498 0
DWIDTH 18 0
BBX 4 6 6 29
BITMAP
E0
60
60
70
30
30
ENDCHAR
STARTCHAR 0061
ENCODING 97
SWIDTH 553 0
DWIDTH 20 0
BBX 17 20 1 0
BITMAP
03F000
0FFC00
1FFE00
3C0700
780380
700380
000380
000380
00FF80
0FFF80
3FC380
780380
700380
E00380
E00780
600780
700D80
7C7D80
3FF180
0FC000
ENDCHAR
STARTCHAR 0062
ENCODING 98
SWIDTH 581 0
DWIDTH 21 0
BBX 18 26 2 0
BITMAP
E00000
E00000
E00000
E00000
E00000
E00000
E3F000
E7FC00
FFFE00
FC0F00
F00780
F00380
E00180
E001C0
E001C0
E001C0
E001C0
E001C0
E001C0
E00180
F00380
F00780
F80F00
FFFE00
EFFC00
E3F000
ENDCHAR
STARTCHAR 0063
ENCODING 99
SWIDTH 553 0
DWIDTH 20 0
BBX 17 20 1 0
BITMAP
03F800
0FFE00
1FFF00
3C0780
380380
700180
700000
700000
E00000
E00000
E00000
E00000
700000
700000
700180
380380
3C0780
1FFF00
0FFE00
03F800
ENDCHAR
STARTCHAR 0064
ENCODING 100
SWIDTH 581 0
DWIDTH 21 0
BBX 18 26 1 0
BITMAP
0001C0
0001C0
0001C0
0001C0
0001C0
0001C0
03F1C0
0FFDC0
1FBFC0
3C07C0
3803C0
7001C0
7001C0
6001C0
E001C0
E001C0
E001C0
E001C0
7001C0
7001C0
7003C0
3803C0
3C07C0
1FBFC0
0FFDC0
03F1C0
ENDCHAR
STARTCHAR 0065
ENCODING 101
SWIDTH 581 0
DWIDTH 21 0
BBX 19 20 1 0
BITMAP
03F800
0FFE00
1FBF00
3C0780
380380
7001C0
7001C0
7000C0
6000E0
FFFFE0
FFFFE0
E00000
600000
700000
700180
3801C0
3C0780
1FFF00
0FFE00
01F800
ENDCHAR
STARTCHAR 0066
ENCODING 102
SWIDTH 360 0
DWIDTH 13 0
BBX 11 26 1 0
BITMAP
03E0
07E0
0F00
0C00
1C00
1C00
FFE0
FFE0
1C00
1C00
1C00
1C00
1C00
1C00
1C00
1C00
1C00
1C00
1C00
1C00
1C00
1C00
1C00
1C00
1C00
1C00
ENDCHAR
STARTCHAR 0067
ENCODING 103
SWIDTH 581 0
DWIDTH 21 0
BBX 18 29 1 -9
BITMAP
03F1C0
0FFDC0
1FBFC0
3C07C0
3803C0
7001C0
7001C0
6001C0
E001C0
E001C0
E001C0
E001C0
7001C0
7001C0
7003C0
3803C0
3C07C0
1FBFC0
0FFDC0
03F1C0
0001C0
0001C0
0001C0
100380
380380
3E0F00
1FFF00
07FC00
00C000
ENDCHAR
STARTCHAR 0068
ENCODING 104
SWIDTH 581 0
DWIDTH 21 0
BBX 17 26 2 0
BITMAP
E00000
E00000
E00000
E00000
E00000
E00000
E3F000
EFFC00
FFFE00
FC0F00
F80700
F00380
F00380
E00380
E00380
E00180
E00180
E00180
E00180
E00180
E00180
E00180
E00180
E00180
E00180
E00180
ENDCHAR
STARTCHAR 0069
ENCODING 105
SWIDTH 221 0
DWIDTH 8 0
BBX 3 26 3 0
BITMAP
E0
E0
E0
00
00
00
E0
E0
E0
E0
E0
E0
E0
E0
E0
E0
E0
E0
E0
E0
E0
E0
E0
E0
E0
E0
ENDCHAR
STARTCHAR 006A
ENCODING 106
SWIDTH 249 0
DWIDTH 9 0
BBX 6 35 0 -9
BITMAP
0C
0C
0C
00
00
00
0C
0C
0C
0C
0C
0C
0C
0C
0C
0C
0C
0C
0C
0C
0C
0C
0C
0C
0C
0C
0C
0C
0C
0C
1C
1C
FC
F8
C0
ENDCHAR
STARTCHAR 006B
ENCODING 107
SWIDTH 498 0
DWIDTH 18 0
BBX 15 26 3 0
BITMAP
C000
C000
C000
C000
C000
C000
C03C
C038
C070
C0E0
C1C0
C380
C780
CF00
DE00
FC00
FC00
DE00
CF00
C780
C3C0
C1E0
C0F0
C078
C03C
C01E
ENDCHAR
STARTCHAR 006C
ENCODING 108
SWIDTH 221 0
DWIDTH 8 0
BBX 3 26 3 0
BITMAP
E0
E0
E0
E0
E0
E0
E0
E0
E0
E0
E0
E0
E0
E0
E0
E0
E0
E0
E0
E0
E0
E0
E0
E0
E0
E0
ENDCHAR
STARTCHAR 006D
ENCODING 109
SWIDTH 858 0
DWIDTH 31 0
BBX 26 20 2 0
BITMAP
E3E07E00
EFF9FF00
FEFDEF80
F81F03C0
F01E01C0
E00E00C0
E00E00C0
E00E00C0
E00E00C0
E00E00C0
E00E00C0
E00E00C0
E00E00C0
E00E00C0
E00E00C0
E00E00C0
E00E00C0
E00E00C0
E00E00C0
E00E00C0
ENDCHAR
STARTCHAR 006E
ENCODING 110
SWIDTH 581 0
DWIDTH 21 0
BBX 17 20 2 0
BITMAP
E3F000
EFFC00
FFFE00
FC0F00
F80700
F00380
F00380
E00380
E00380
E00180
E00180
E00180
E00180
E00180
E00180
E00180
E00180
E00180
E00180
E00180
ENDCHAR
STARTCHAR 006F
ENCODING 111
SWIDTH 581 0
DWIDTH 21 0
BBX 19 20 1 0
BITMAP
03F800
0FFE00
1FFF00
3C0780
3803C0
7001C0
7000C0
6000E0
E000E0
E000E0
E000E0
E000E0
7000E0
7000C0
7001C0
3803C0
3C0780
1FFF00
0FFE00
03F800
ENDCHAR
STARTCHAR 0070
ENCODING 112
SWIDTH 581 0
DWIDTH 21 0
BBX 18 28 2 -8
BITMAP
E3F000
E7FC00
FFFE00
FC0F00
F00780
F00380
E00180
E001C0
E001C0
E001C0
E001C0
E001C0
E001C0
E00180
F00380
F00780
F80F00
FFFE00
E7FC00
E3F000
E00000
E00000
E00000
E00000
E00000
E00000
E00000
E00000
ENDCHAR
STARTCHAR 0071
ENCODING 113
SWIDTH 581 0
DWIDTH 21 0
BBX 18 28 1 -8
BITMAP
03F1C0
0FFDC0
1FBFC0
3C07C0
3803C0
7001C0
7001C0
6001C0
E001C0
E001C0
E001C0
E001C0
7001C0
7001C0
7003C0
3803C0
3C07C0
1FBFC0
0FFDC0
03F1C0
0001C0
0001C0
0001C0
0001C0
0001C0
0001C0
0001C0
0001C0
ENDCHAR
STARTCHAR 0072
ENCODING 114
SWIDTH 360 0
DWIDTH 13 0
BBX 9 20 3 0
BITMAP
C780
DF80
FF80
F800
F000
E000
E000
C000
C000
C000
C000
C000
C000
C000
C000
C000
C000
C000
C000
C000
ENDCHAR
STARTCHAR 0073
ENCODING 115
SWIDTH 526 0
DWIDTH 19 0
BBX 15 20 2 0
BITMAP
0FE0
3FF8
7EFC
F01E
E00E
E006
E000
7800
7F00
1FE0
03FC
003E
000E
0006
C006
E00E
F00E
7E7C
3FF8
0FE0
ENDCHAR
STARTCHAR 0074
ENCODING 116
SWIDTH 387 0
DWIDTH 14 0
BBX 13 25 0 0
BITMAP
0600
0600
0600
0600
0600
FFF8
FFF8
0600
0600
0600
0600
0600
0600
0600
0600
0600
0600
0600
0E00
0E00
0600
0700
07C8
03F8
01F8
ENDCHAR
STARTCHAR 0075
ENCODING 117
SWIDTH 581 0
DWIDTH 21 0
BBX 17 20 2 0
BITMAP
E00380
E00380
E00380
E00380
E00380
E00380
E00380
E00380
E00380
E00380
E00380
E00380
E00380
E00380
700780
700780
380F80
3FFD80
1FF980
07E180
ENDCHAR
STARTCHAR 0076
ENCODING 118
SWIDTH 498 0
DWIDTH 18 0
BBX 16 20 1 0
BITMAP
E003
E007
6007
7006
700E
300E
380C
381C
181C
1C18
1C38
0C38
0E30
0E70
0660
07E0
03E0
03C0
03C0
01C0
ENDCHAR
STARTCHAR 0077
ENCODING 119
SWIDTH 775 0
DWIDTH 28 0
BBX 26 20 1 0
BITMAP
E01C01C0
E01E01C0
E01E0180
601E0380
703E0380
70370300
30330700
38730700
38738600
18638E00
1CE18E00
1CE18E00
1CC1CC00
0CC0DC00
0FC0DC00
0F80F800
07807800
07807800
07007000
03003000
ENDCHAR
STARTCHAR 0078
ENCODING 120
SWIDTH 526 0
DWIDTH 19 0
BBX 17 20 1 0
BITMAP
E00380
700700
780F00
380E00
1C1C00
0E3800
0F7800
077000
03E000
01C000
01C000
03E000
077000
0E3800
1E3C00
1C1C00
380E00
700700
F00780
E00380
ENDCHAR
STARTCHAR 0079
ENCODING 121
SWIDTH 526 0
DWIDTH 19 0
BBX 17 28 1 -8
BITMAP
E00180
E00380
600300
700700
700700
380600
380E00
180E00
1C0C00
1C1C00
0E1C00
0E3800
063800
073000
077000
03F000
03E000
01E000
01E000
01C000
01C000
018000
038000
038000
030000
070000
070000
060000
ENDCHAR
STARTCHAR 007A
ENCODING 122
SWIDTH 526 0
DWIDTH 19 0
BBX 17 20 1 0
BITMAP
7FFF80
7FFF00
000E00
000E00
001C00
003800
007000
007000
00E000
01C000
038000
038000
070000
0E0000
1C0000
1C0000
380000
700000
FFFF00
FFFF00
ENDCHAR
STARTCHAR 007B
ENCODING 123
SWIDTH 415 0
DWIDTH 15 0
BBX 9 40 5 -8
BITMAP
0F80
1F80
3F80
3800
3800
3800
3800
3800
3800
3800
3800
3800
3800
3800
3800
3800
3800
3000
7000
E000
E000
7000
3000
3800
3800
3800
3800
3800
3800
3800
3800
3800
3800
3800
3800
3800
3800
3F80
1F80
0F80
ENDCHAR
STARTCHAR 007C
ENCODING 124
SWIDTH 249 0
DWIDTH 9 0
BBX 3 26 3 0
BITMAP
E0
E0
E0
E0
E0
E0
E0
E0
E0
E0
E0
E0
E0
E0
E0
E0
E0
E0
E0
E0
E0
E0
E0
E0
E0
E0
ENDCHAR
STARTCHAR 007D
ENCODING 125
SWIDTH 415 0
DWIDTH 15 0
BBX 8 40 2 -8
BITMAP
F0
F8
FC
1C
1C
1C
1C
1C
1C
1C
1C
1C
1C
1C
1C
1C
1C
0E
0E
07
07
0E
0E
1C
1C
1C
1C
1C
1C
1C
1C
1C
1C
1C
1C
1C
1C
FC
F8
F0
ENDCHAR
STARTCHAR 007E
ENCODING 126
SWIDTH 664 0
DWIDTH 24 0
BBX 16 6 4 8
BITMAP
3C07
7F07
FFC7
E3FE
E0FE
007C
ENDCHAR
STARTCHAR 00A0
ENCODING 160
SWIDTH 193 0
DWIDTH 7 0
BBX 0 0 0 0
BITMAP
ENDCHAR
STARTCHAR 00A1
ENCODING 161
SWIDTH 304 0
DWIDTH 11 0
BBX 3 26 4 -6
BITMAP
E0
E0
E0
00
00
00
E0
E0
E0
E0
E0
E0
E0
E0
E0
E0
E0
E0
E0
E0
E0
E0
E0
E0
E0
E0
ENDCHAR
STARTCHAR 00A2
ENCODING 162
SWIDTH 553 0
DWIDTH 20 0
BBX 18 27 1 -1
BITMAP
006000
006000
006000
01F000
07FC00
1FFF00
1E0F80
380380
7001C0
700000
700000
600000
E00000
E00000
E00000
600000
700000
700000
7001C0
380380
1C0780
1FFF00
07FC00
01F000
006000
006000
006000
ENDCHAR
STARTCHAR 00A3
ENCODING 163
SWIDTH 581 0
DWIDTH 21 0
BBX 18 26 1 0
BITMAP
007C00
01FE00
03FF00
078380
0701C0
0601C0
0600C0
060000
060000
060000
060000
060000
FFFC00
FFFC00
FFFC00
060000
060000
060000
060000
060000
060000
060000
0E0000
FFFF80
FFFF80
FFFF80
ENDCHAR
STARTCHAR 00A4
ENCODING 164
SWIDTH 636 0
DWIDTH 23 0
BBX 21 20 1 3
BITMAP
600030
F1FE78
7FFFF0
3F07E0
1C01C0
3800E0
300060
700070
700070
600030
700030
700070
700070
300060
3800E0
1C01C0
3F07E0
7FFFF0
F3FE78
600030
ENDCHAR
STARTCHAR 00A5
ENCODING 165
SWIDTH 553 0
DWIDTH 20 0
BBX 20 26 0 0
BITMAP
E00070
7000E0
7000E0
3801C0
1C03C0
1C0380
0E0700
0E0700
070E00
070E00
039C00
03DC00
01F800
00F000
00F000
1FFF80
1FFF80
006000
006000
006000
1FFF80
1FFF80
006000
006000
006000
006000
ENDCHAR
STARTCHAR 00A6
ENCODING 166
SWIDTH 249 0
DWIDTH 9 0
BBX 3 32 3 -6
BITMAP
E0
E0
E0
E0
E0
E0
E0
E0
E0
E0
E0
E0
E0
00
00
00
00
00
E0
E0
E0
E0
E0
E0
E0
E0
E0
E0
E0
E0
E0
E0
ENDCHAR
STARTCHAR 00A7
ENCODING 167
SWIDTH 526 0
DWIDTH 19 0
BBX 16 29 2 -5
BITMAP
0FC0
3FF0
7CF8
703C
E01C
E00E
E000
7000
7E00
1FE0
3FF8
707E
E01E
C007
C007
E007
F00E
7E0E
3FFC
07F8
00FC
001E
000E
000E
E00E
700E
783C
3FFC
0FF0
ENDCHAR
STARTCHAR 00A8
ENCODING 168
SWIDTH 498 0
DWIDTH 18 0
BBX 10 3 4 30
BITMAP
E1C0
E1C0
E1C0
ENDCHAR
STARTCHAR 00A9
ENCODING 169
SWIDTH 803 0
DWIDTH 29 0
BBX 27 27 1 -1
BITMAP
003F8000
01FFF000
03FFF800
0F803C00
1E000E00
1C000700
381F8380
707FC380
70F0E1C0
60C070C0
E1C040E0
E18000E0
E18000E0
E18000E0
E18000E0
E18000E0
E1C040E0
60C070C0
70F0E1C0
707FC3C0
381F8380
1C000700
1E000F00
0F803E00
03FFF800
01FFF000
003F8000
ENDCHAR
STARTCHAR 00AA
ENCODING 170
SWIDTH 304 0
DWIDTH 11 0
BBX 9 10 1 9
BITMAP
1E00
7F00
6180
0180
1F80
7D80
6180
C180
6380
7F80
ENDCHAR
STARTCHAR 00AB
ENCODING 171
SWIDTH 526 0
DWIDTH 19 0
BBX 14 16 3 2
BITMAP
0008
071C
0E18
0C30
1870
38E0
71C0
E180
E380
71C0
30E0
1860
1C30
0E38
071C
0208
ENDCHAR
STARTCHAR 00AC
ENCODING 172
SWIDTH 609 0
DWIDTH 22 0
BBX 17 7 2 7
BITMAP
FFFF80
FFFF80
000180
000180
000180
000180
000180
ENDCHAR
STARTCHAR 00AD
ENCODING 173
SWIDTH 415 0
DWIDTH 15 0
BBX 11 2 2 10
BITMAP
FFE0
FFE0
ENDCHAR
STARTCHAR 00AE
ENCODING 174
SWIDTH 636 0
DWIDTH 23 0
BBX 17 18 3 10
BITMAP
07E000
1FF800
3C1C00
700E00
600700
C7E300
C63380
C63180
C66180
C7E180
C66180
C66380
E63300
600700
700E00
3C1C00
1FF800
07E000
ENDCHAR
STARTCHAR 00AF
ENCODING 175
SWIDTH 498 0
DWIDTH 18 0
BBX 9 2 4 30
BITMAP
FF80
FF80
ENDCHAR
STARTCHAR 00B0
ENCODING 176
SWIDTH 443 0
DWIDTH 16 0
BBX 13 13 1 13
BITMAP
0F80
3FE0
7DF0
7070
E038
E018
C018
E018
E038
7070
7DF0
3FE0
0F80
ENDCHAR
STARTCHAR 00B1
ENCODING 177
SWIDTH 609 0
DWIDTH 22 0
BBX 17 17 2 3
BITMAP
00C000
00C000
00C000
00C000
00C000
FFFF80
FFFF80
00C000
00C000
00C000
00C000
00C000
000000
000000
000000
FFFF80
FFFF80
ENDCHAR
STARTCHAR 00B2
ENCODING 178
SWIDTH 387 0
DWIDTH 14 0
BBX 11 16 2 10
BITMAP
1F00
7F80
61C0
C0C0
C0E0
0060
00C0
00C0
0380
0700
0E00
1C00
3800
7000
FFE0
FFE0
ENDCHAR
STARTCHAR 00B3
ENCODING 179
SWIDTH 387 0
DWIDTH 14 0
BBX 10 17 2 9
BITMAP
FFC0
FFC0
0380
0700
0E00
1C00
3E00
3F80
0180
01C0
00C0
00C0
00C0
C1C0
E380
7F00
3E00
ENDCHAR
STARTCHAR 00B4
ENCODING 180
SWIDTH 498 0
DWIDTH 18 0
BBX 4 6 7 29
BITMAP
30
30
70
60
60
E0
ENDCHAR
STARTCHAR 00B5
ENCODING 181
SWIDTH 609 0
DWIDTH 22 0
BBX 17 28 2 -8
BITMAP
E00180
E00180
E00180
E00180
E00180
E00180
E00180
E00180
E00180
E00180
E00180
E00180
E00380
F00380
F00380
F80780
FC0F80
FFFD80
EFF980
E3E180
E00000
E00000
E00000
E00000
E00000
E00000
E00000
E00000
ENDCHAR
STARTCHAR 00B6
ENCODING 182
SWIDTH 636 0
DWIDTH 23 0
BBX 17 31 3 -5
BITMAP
07F180
1FF180
3FF180
7FF180
FFF180
FFF180
FFF180
FFF180
FFF180
FFF180
FFF180
FFF180
7FF180
7FF180
3FF180
0FF180
007180
007180
007180
007180
007180
007180
007180
007180
007180
007180
007180
007180
007180
007180
007180
ENDCHAR
STARTCHAR 00B7
ENCODING 183
SWIDTH 221 0
DWIDTH 8 0
BBX 4 4 2 9
BITMAP
60
F0
F0
60
ENDCHAR
STARTCHAR 00B8
ENCODING 184
SWIDTH 387 0
DWIDTH 14 0
BBX 6 9 4 -9
BITMAP
18
30
30
38
1C
0C
1C
78
F0
ENDCHAR
STARTCHAR 00B9
ENCODING 185
SWIDTH 332 0
DWIDTH 12 0
BBX 5 16 2 10
BITMAP
38
78
F8
98
18
18
18
18
18
18
18
18
18
18
18
18
ENDCHAR
STARTCHAR 00BA
ENCODING 186
SWIDTH 332 0
DWIDTH 12 0
BBX 10 10 1 10
BITMAP
1E00
3F80
6180
60C0
C0C0
C0C0
60C0
6180
3F80
1F00
ENDCHAR
STARTCHAR 00BB
ENCODING 187
SWIDTH 526 0
DWIDTH 19 0
BBX 14 15 2 3
BITMAP
E180
71C0
38E0
1870
0C30
0E18
071C
070C
0618
0C38
1C70
38E0
70C0
6180
4080
ENDCHAR
STARTCHAR 00BC
ENCODING 188
SWIDTH 969 0
DWIDTH 35 0
BBX 29 26 2 0
BITMAP
38000200
78000700
F8000E00
98001C00
18001800
18003800
18007000
1800E000
1801C000
1801C000
18038180
18070300
180E0300
180E0700
181C0600
18380E00
00700C00
00601C60
00E01860
01C03860
03803060
07003FF8
07003FF8
0E000060
1C000060
08000060
ENDCHAR
STARTCHAR 00BD
ENCODING 189
SWIDTH 941 0
DWIDTH 34 0
BBX 30 26 2 0
BITMAP
38000200
78000700
F8000E00
98001C00
18001800
18003800
18007000
1800E000
1801C000
1801C3E0
180387F0
18070E38
180E1C1C
180C180C
181C000C
1838000C
0070001C
00600038
00E00070
01C000E0
038001C0
07000380
07000700
0E000E00
1C001FFC
08001FFC
ENDCHAR
STARTCHAR 00BE
ENCODING 190
SWIDTH 969 0
DWIDTH 35 0
BBX 31 26 2 0
BITMAP
FFC00080
FFC001C0
03800180
07000380
0E000700
1C000E00
3E001C00
3F801C00
01803800
01C07000
00C0E060
00C0C060
00C1C0C0
C1C380C0
E3870180
7F060180
3E0E0300
001C031C
0038071C
0070061C
00700E1C
00E00FFE
01C00FFE
0380001C
0380001C
0100001C
ENDCHAR
STARTCHAR 00BF
ENCODING 191
SWIDTH 526 0
DWIDTH 19 0
BBX 15 27 2 -7
BITMAP
0380
0380
0380
0380
0000
0000
0000
0380
0380
0380
0380
0780
0F00
1E00
3C00
7800
7000
E000
E000
E000
E00E
E00E
E00E
701C
7FF8
3FF0
0FE0
ENDCHAR
STARTCHAR 00C0
ENCODING 192
SWIDTH 636 0
DWIDTH 23 0
BBX 21 35 1 0
BITMAP
018000
01C000
00C000
00C000
00E000
006000
000000
000000
000000
00F000
00F800
00F800
01D800
01DC00
01DC00
038C00
038E00
038E00
070600
070700
060700
0E0380
0E0380
0C0380
1C01C0
1C01C0
1FFFC0
3FFFE0
3FFFE0
300060
700070
700070
600030
E00038
E00038
ENDCHAR
STARTCHAR 00C1
ENCODING 193
SWIDTH 636 0
DWIDTH 23 0
BBX 21 35 1 0
BITMAP
000C00
001C00
001800
003800
003000
003000
000000
000000
000000
00F000
00F800
00F800
01D800
01DC00
01DC00
038C00
038E00
030E00
070600
070700
060700
0E0380
0E0380
0C0380
1C01C0
1C01C0
1FFFC0
3FFFE0
3FFFE0
300060
700070
700070
600030
E00038
E00038
ENDCHAR
STARTCHAR 00C2
ENCODING 194
SWIDTH 636 0
DWIDTH 23 0
BBX 21 34 1 0
BITMAP
007000
00F800
01DC00
038E00
070600
000000
000000
000000
00F000
00F800
00F800
01D800
01DC00
01DC00
038C00
038E00
030E00
070600
070700
060700
0E0380
0E0380
0C0380
1C01C0
1C01C0
1FFFC0
3FFFE0
3FFFE0
300060
700070
700070
600030
E00038
E00038
ENDCHAR
STARTCHAR 00C3
ENCODING 195
SWIDTH 636 0
DWIDTH 23 0
BBX 21 34 1 0
BITMAP
03C300
07F300
067F00
061E00
000000
000000
000000
000000
00F000
00F800
00F800
01D800
01DC00
01DC00
038C00
038E00
030E00
070600
070700
060700
0E0380
0E0380
0C0380
1C01C0
1C01C0
1FFFC0
3FFFE0
3FFFE0
300060
700070
700070
600030
E00038
E00038
ENDCHAR
STARTCHAR 00C4
ENCODING 196
SWIDTH 636 0
DWIDTH 23 0
BBX 21 33 1 0
BITMAP
030E00
030E00
030E00
000000
000000
000000
000000
00F000
00F800
00F800
01D800
01DC00
01DC00
038C00
038E00
030E00
070600
070700
060700
0E0380
0E0380
0C0380
1C01C0
1C01C0
1FFFC0
3FFFE0
3FFFE0
300060
700070
700070
600030
E00038
E00038
ENDCHAR
STARTCHAR 00C5
ENCODING 197
SWIDTH 636 0
DWIDTH 23 0
BBX 21 36 1 0
BITMAP
007000
01FC00
018C00
018C00
018C00
018C00
01FC00
007000
000000
000000
00F000
00F800
00F800
01D800
01DC00
01DC00
038C00
038E00
030E00
070600
070700
060700
0E0380
0E0380
0C0380
1C01C0
1C01C0
1FFFC0
3FFFE0
3FFFE0
300060
700070
700070
600030
E00038
E00038
ENDCHAR
STARTCHAR 00C6
ENCODING 198
SWIDTH 913 0
DWIDTH 33 0
BBX 30 26 1 0
BITMAP
00FFFFFC
00FFFFFC
00FFFFFC
01C38000
01C38000
01C38000
03838000
03838000
03038000
07038000
07038000
0603FFF0
0E03FFF0
0E03FFF0
0C038000
1C038000
1C038000
1FFF8000
3FFF8000
3FFF8000
30038000
70038000
70038000
6003FFFC
E003FFFC
E003FFFC
ENDCHAR
STARTCHAR 00C7
ENCODING 199
SWIDTH 720 0
DWIDTH 26 0
BBX 23 34 1 -8
BITMAP
00FF00
03FFC0
0FFFF0
1F00F8
3C003C
38001C
70000E
70000E
700004
E00000
E00000
E00000
E00000
E00000
E00000
E00000
E00000
700004
70000E
70000E
38001C
3C003C
1F00F8
0FFFF0
03FFC0
00FF00
001800
001800
001C00
000E00
000600
000600
003E00
003C00
ENDCHAR
STARTCHAR 00C8
ENCODING 200
SWIDTH 581 0
DWIDTH 21 0
BBX 16 35 3 0
BITMAP
0600
0700
0300
0300
0380
0180
0000
0000
0000
FFFF
FFFF
FFFF
C000
C000
C000
C000
C000
C000
C000
C000
FFFC
FFFC
FFFC
C000
C000
C000
C000
C000
C000
C000
C000
C000
FFFF
FFFF
FFFF
ENDCHAR
STARTCHAR 00C9
ENCODING 201
SWIDTH 581 0
DWIDTH 21 0
BBX 16 35 3 0
BITMAP
0060
0060
00E0
00C0
01C0
0180
0000
0000
0000
FFFF
FFFF
FFFF
C000
C000
C000
C000
C000
C000
C000
C000
FFFC
FFFC
FFFC
C000
C000
C000
C000
C000
C000
C000
C000
C000
FFFF
FFFF
FFFF
ENDCHAR
STARTCHAR 00CA
ENCODING 202
SWIDTH 581 0
DWIDTH 21 0
BBX 16 34 3 0
BITMAP
0380
07C0
0EE0
1C70
3838
0000
0000
0000
FFFF
FFFF
FFFF
C000
C000
C000
C000
C000
C000
C000
C000
FFFC
FFFC
FFFC
C000
C000
C000
C000
C000
C000
C000
C000
C000
FFFF
FFFF
FFFF
ENDCHAR
STARTCHAR 00CB
ENCODING 203
SWIDTH 581 0
DWIDTH 21 0
BBX 16 33 3 0
BITMAP
3870
3870
3870
0000
0000
0000
0000
FFFF
FFFF
FFFF
C000
C000
C000
C000
C000
C000
C000
C000
FFFC
FFFC
FFFC
C000
C000
C000
C000
C000
C000
C000
C000
C000
FFFF
FFFF
FFFF
ENDCHAR
STARTCHAR 00CC
ENCODING 204
SWIDTH 221 0
DWIDTH 8 0
BBX 5 35 1 0
BITMAP
C0
E0
60
60
70
30
00
00
00
38
38
38
38
38
38
38
38
38
38
38
38
38
38
38
38
38
38
38
38
38
38
38
38
38
38
ENDCHAR
STARTCHAR 00CD
ENCODING 205
SWIDTH 221 0
DWIDTH 8 0
BBX 5 35 3 0
BITMAP
38
30
70
60
60
E0
00
00
00
E0
E0
E0
E0
E0
E0
E0
E0
E0
E0
E0
E0
E0
E0
E0
E0
E0
E0
E0
E0
E0
E0
E0
E0
E0
E0
ENDCHAR
STARTCHAR 00CE
ENCODING 206
SWIDTH 221 0
DWIDTH 8 0
BBX 10 34 -1 0
BITMAP
0E00
1F00
3B80
7180
E1C0
0000
0000
0000
0E00
0E00
0E00
0E00
0E00
0E00
0E00
0E00
0E00
0E00
0E00
0E00
0E00
0E00
0E00
0E00
0E00
0E00
0E00
0E00
0E00
0E00
0E00
0E00
0E00
0E00
ENDCHAR
STARTCHAR 00CF
ENCODING 207
SWIDTH 221 0
DWIDTH 8 0
BBX 10 33 -1 0
BITMAP
E1C0
E1C0
E1C0
0000
0000
0000
0000
0E00
0E00
0E00
0E00
0E00
0E00
0E00
0E00
0E00
0E00
0E00
0E00
0E00
0E00
0E00
0E00
0E00
0E00
0E00
0E00
0E00
0E00
0E00
0E00
0E00
0E00
ENDCHAR
STARTCHAR 00D0
ENCODING 208
SWIDTH 664 0
DWIDTH 24 0
BBX 22 26 0 0
BITMAP
3FFE00
3FFF80
3FFFE0
3801E0
380070
380038
380038
38001C
38001C
38001C
38001C
38000C
FFF00C
FFF00C
38000C
38001C
38001C
38001C
38001C
380038
380038
380070
3801F0
3FFFE0
3FFF80
3FFE00
ENDCHAR
STARTCHAR 00D1
ENCODING 209
SWIDTH 692 0
DWIDTH 25 0
BBX 19 33 3 0
BITMAP
078600
0FE600
0C7E00
0C1C00
000000
000000
000000
E000E0
E000E0
F000E0
F800E0
F800E0
DC00E0
DE00E0
CE00E0
C700E0
C780E0
C380E0
C1C0E0
C1E0E0
C0E0E0
C070E0
C078E0
C038E0
C01CE0
C01EE0
C00EE0
C007E0
C007E0
C003E0
C001E0
C001E0
C000E0
ENDCHAR
STARTCHAR 00D2
ENCODING 210
SWIDTH 720 0
DWIDTH 26 0
BBX 24 34 1 0
BITMAP
006000
007000
003000
003000
003800
001800
000000
000000
00FF00
03FFC0
0FFFF0
1F00F8
3C003C
38001C
70000E
70000E
700006
E00007
E00007
E00007
E00007
E00007
E00007
E00007
E00007
700006
70000E
70000E
38001C
3C003C
1F00F8
0FFFF0
03FFC0
00FF00
ENDCHAR
STARTCHAR 00D3
ENCODING 211
SWIDTH 720 0
DWIDTH 26 0
BBX 24 34 1 0
BITMAP
000600
000600
000E00
000C00
000C00
000000
000000
000000
00FF00
03FFC0
0FFFF0
1F00F8
3C003C
38001C
70000E
70000E
700006
E00007
E00007
E00007
E00007
E00007
E00007
E00007
E00007
700006
70000E
70000E
38001C
3C003C
1F00F8
0FFFF0
03FFC0
00FF00
ENDCHAR
STARTCHAR 00D4
ENCODING 212
SWIDTH 720 0
DWIDTH 26 0
BBX 24 33 1 0
BITMAP
003C00
003E00
006600
00E700
01C380
000000
000000
00FF00
03FFC0
0FFFF0
1F00F8
3C003C
38001C
70000E
70000E
700006
E00007
E00007
E00007
E00007
E00007
E00007
E00007
E00007
700006
70000E
70000E
38001C
3C003C
1F00F8
0FFFF0
03FFC0
00FF00
ENDCHAR
STARTCHAR 00D5
ENCODING 213
SWIDTH 720 0
DWIDTH 26 0
BBX 24 33 1 0
BITMAP
00E0C0
01F8C0
019FC0
018780
000000
000000
000000
00FF00
03FFC0
0FFFF0
1F00F8
3C003C
38001C
70000E
70000E
700006
E00007
E00007
E00007
E00007
E00007
E00007
E00007
E00007
700006
70000E
70000E
38001C
3C003C
1F00F8
0FFFF0
03FFC0
00FF00
ENDCHAR
STARTCHAR 00D6
ENCODING 214
SWIDTH 720 0
DWIDTH 26 0
BBX 24 32 1 0
BITMAP
01C380
01C380
01C380
000000
000000
000000
00FF00
03FFC0
0FFFF0
1F00F8
3C003C
38001C
70000E
70000E
700006
E00007
E00007
E00007
E00007
E00007
E00007
E00007
E00007
700006
70000E
70000E
38001C
3C003C
1F00F8
0FFFF0
03FFC0
00FF00
ENDCHAR
STARTCHAR 00D7
ENCODING 215
SWIDTH 498 0
DWIDTH 18 0
BBX 13 13 2 7
BITMAP
4010
E038
7078
38F0
1DE0
0FC0
0780
0F80
1FC0
3CE0
7870
F038
6018
ENDCHAR
STARTCHAR 00D8
ENCODING 216
SWIDTH 720 0
DWIDTH 26 0
BBX 25 26 1 0
BITMAP
00FF0200
03FFC780
0FFFFF00
1F00FE00
3C003C00
38003C00
70007E00
7000EE00
7001C700
E0038700
E0070700
E00E0700
E01C0700
E0380700
E0700700
E0E00700
E1E00700
63C00600
77800E00
7F000E00
3E001C00
3C003C00
7F00F800
FFFFF000
E3FFC000
40FF0000
ENDCHAR
STARTCHAR 00D9
ENCODING 217
SWIDTH 692 0
DWIDTH 25 0
BBX 20 35 3 0
BITMAP
018000
018000
00C000
00C000
00E000
006000
000000
000000
000000
C00070
C00070
C00070
C00070
C00070
C00070
C00070
C00070
C00070
C00070
C00070
C00070
C00070
C00070
C00070
C00070
C00070
C00070
E00070
E000E0
F000E0
7001C0
3C07C0
1FFF80
0FFE00
03F800
ENDCHAR
STARTCHAR 00DA
ENCODING 218
SWIDTH 692 0
DWIDTH 25 0
BBX 20 35 3 0
BITMAP
003800
003000
003000
006000
006000
00E000
000000
000000
000000
C00070
C00070
C00070
C00070
C00070
C00070
C00070
C00070
C00070
C00070
C00070
C00070
C00070
C00070
C00070
C00070
C00070
C00070
E00070
E000E0
F000E0
7001C0
3C07C0
1FFF80
0FFE00
03F800
ENDCHAR
STARTCHAR 00DB
ENCODING 219
SWIDTH 692 0
DWIDTH 25 0
BBX 20 34 3 0
BITMAP
00E000
01F000
03B800
071C00
060E00
000000
000000
000000
C00070
C00070
C00070
C00070
C00070
C00070
C00070
C00070
C00070
C00070
C00070
C00070
C00070
C00070
C00070
C00070
C00070
C00070
E00070
E000E0
F000E0
7001C0
3C07C0
1FFF80
0FFE00
03F800
ENDCHAR
STARTCHAR 00DC
ENCODING 220
SWIDTH 692 0
DWIDTH 25 0
BBX 20 33 3 0
BITMAP
070E00
070E00
070E00
000000
000000
000000
000000
C00070
C00070
C00070
C00070
C00070
C00070
C00070
C00070
C00070
C00070
C00070
C00070
C00070
C00070
C00070
C00070
C00070
C00070
E00070
E000E0
F000E0
7001C0
3C07C0
1FFF80
0FFE00
03F800
ENDCHAR
STARTCHAR 00DD
ENCODING 221
SWIDTH 553 0
DWIDTH 20 0
BBX 20 35 0 0
BITMAP
001800
003800
003000
007000
006000
006000
000000
000000
000000
E00070
7000E0
7800E0
3801C0
1C0380
1C0380
0E0700
0E0700
070E00
078E00
039C00
01F800
01F800
00F000
00F000
006000
006000
006000
006000
006000
006000
006000
006000
006000
006000
006000
ENDCHAR
STARTCHAR 00DE
ENCODING 222
SWIDTH 581 0
DWIDTH 21 0
BBX 17 26 3 0
BITMAP
C00000
C00000
C00000
C00000
C00000
FFF000
FFFC00
FFFE00
C00F00
C00700
C00380
C00380
C00180
C00180
C00380
C00380
C00780
C00F00
FFFE00
FFFC00
FFF000
C00000
C00000
C00000
C00000
C00000
ENDCHAR
STARTCHAR 00DF
ENCODING 223
SWIDTH 609 0
DWIDTH 22 0
BBX 17 26 2 0
BITMAP
07E000
1FF800
3FFC00
781C00
700E00
700E00
600E00
E00E00
E00E00
E00E00
E03C00
E0F800
E0FC00
E0FE00
E00F00
E00380
E00380
E00180
E00180
E00180
E00380
E00380
E00F00
E3FF00
E3FE00
E3F800
ENDCHAR
STARTCHAR 00E0
ENCODING 224
SWIDTH 553 0
DWIDTH 20 0
BBX 17 28 1 0
BITMAP
030000
018000
018000
01C000
00C000
00C000
000000
000000
03F000
0FFC00
1FFE00
3C0700
780380
700380
000380
000380
00FF80
0FFF80
3FC380
780380
700380
E00380
E00780
600780
700D80
7C7D80
3FF180
0FC000
ENDCHAR
STARTCHAR 00E1
ENCODING 225
SWIDTH 553 0
DWIDTH 20 0
BBX 17 28 1 0
BITMAP
003000
003000
007000
006000
006000
00C000
000000
000000
03F000
0FFC00
1FFE00
3C0700
780380
700380
000380
000380
00FF80
0FFF80
3FC380
780380
700380
E00380
E00780
600780
700D80
7C7D80
3FF180
0FC000
ENDCHAR
STARTCHAR 00E2
ENCODING 226
SWIDTH 553 0
DWIDTH 20 0
BBX 17 27 1 0
BITMAP
00E000
01F000
03B800
071C00
0E0C00
000000
000000
03F000
0FFC00
1FFE00
3C0700
780380
700380
000380
000380
00FF80
0FFF80
3FC380
780380
700380
E00380
E00780
600780
700D80
7C7D80
3FF180
0FC000
ENDCHAR
STARTCHAR 00E3
ENCODING 227
SWIDTH 553 0
DWIDTH 20 0
BBX 17 27 1 0
BITMAP
078600
0FE600
0CFE00
0C3C00
000000
000000
000000
03F000
0FFC00
1FFE00
3C0700
780380
700380
000380
000380
00FF80
0FFF80
3FC380
780380
700380
E00380
E00780
600780
700D80
7C7D80
3FF180
0FC000
ENDCHAR
STARTCHAR 00E4
ENCODING 228
SWIDTH 553 0
DWIDTH 20 0
BBX 17 26 1 0
BITMAP
061C00
061C00
061C00
000000
000000
000000
03F000
0FFC00
1FFE00
3C0700
780380
700380
000380
000380
00FF80
0FFF80
3FC380
780380
700380
600380
E00780
E00780
700D80
7C7D80
3FF180
0FC180
ENDCHAR
STARTCHAR 00E5
ENCODING 229
SWIDTH 553 0
DWIDTH 20 0
BBX 17 29 1 0
BITMAP
01E000
03F000
071800
061800
071800
03F000
01E000
000000
000000
03F000
0FFC00
1FFE00
3C0700
780380
700380
000380
000380
00FF80
0FFF80
3FC380
780380
700380
E00380
E00780
600780
700D80
7C7D80
3FF180
0FC000
ENDCHAR
STARTCHAR 00E6
ENCODING 230
SWIDTH 941 0
DWIDTH 34 0
BBX 32 20 1 0
BITMAP
03F00FC0
0FFC3FF0
1FFE7FF8
3C0FF01C
7007E00C
3003C00E
0003C00E
00038006
00038006
07FFFFFE
1FFFFFFF
7C038000
70038000
60038000
E003C004
E007E00E
700EF01C
7C7C7FF8
3FF83FF0
0FE00FC0
ENDCHAR
STARTCHAR 00E7
ENCODING 231
SWIDTH 553 0
DWIDTH 20 0
BBX 17 28 1 -8
BITMAP
03F800
0FFE00
1FFF00
3C0780
380380
700180
700000
700000
E00000
E00000
E00000
E00000
700000
700000
700100
380380
3C0780
1FFF00
0FFE00
03F800
00C000
00C000
00E000
007000
003000
003000
01F000
03E000
ENDCHAR
STARTCHAR 00E8
ENCODING 232
SWIDTH 581 0
DWIDTH 21 0
BBX 19 28 1 0
BITMAP
018000
018000
00C000
00C000
00E000
006000
000000
000000
03F800
0FFE00
1FBF00
3C0780
380380
7001C0
7001C0
7000C0
6000E0
FFFFE0
FFFFE0
E00000
600000
700000
700180
3801C0
3C0780
1FFF00
0FFE00
01F800
ENDCHAR
STARTCHAR 00E9
ENCODING 233
SWIDTH 581 0
DWIDTH 21 0
BBX 19 28 1 0
BITMAP
001800
003800
003000
003000
007000
000000
000000
000000
03F800
0FFE00
1FBF00
3C0780
380380
7001C0
7001C0
7000C0
6000E0
FFFFE0
FFFFE0
E00000
600000
700000
700180
3801C0
3C0780
1FFF00
0FFE00
01F800
ENDCHAR
STARTCHAR 00EA
ENCODING 234
SWIDTH 581 0
DWIDTH 21 0
BBX 19 27 1 0
BITMAP
00E000
01F000
03B800
071C00
060E00
000000
000000
03F800
0FFE00
1FBF00
3C0780
380380
7001C0
7001C0
7000C0
6000E0
FFFFE0
FFFFE0
E00000
600000
700000
700180
3801C0
3C0780
1FFF00
0FFE00
01F800
ENDCHAR
STARTCHAR 00EB
ENCODING 235
SWIDTH 581 0
DWIDTH 21 0
BBX 19 26 1 0
BITMAP
070E00
070E00
070E00
000000
000000
000000
03F800
0FFE00
1FBF00
3C0780
380380
7001C0
7001C0
7000C0
6000E0
FFFFE0
FFFFE0
E00000
600000
700000
700180
3801C0
3C0780
1FFF00
0FFE00
01F800
ENDCHAR
STARTCHAR 00EC
ENCODING 236
SWIDTH 221 0
DWIDTH 8 0
BBX 5 29 1 0
BITMAP
C0
E0
60
60
70
30
00
00
00
38
38
38
38
38
38
38
38
38
38
38
38
38
38
38
38
38
38
38
38
ENDCHAR
STARTCHAR 00ED
ENCODING 237
SWIDTH 221 0
DWIDTH 8 0
BBX 5 29 3 0
BITMAP
38
30
70
60
60
E0
00
00
00
E0
E0
E0
E0
E0
E0
E0
E0
E0
E0
E0
E0
E0
E0
E0
E0
E0
E0
E0
E0
ENDCHAR
STARTCHAR 00EE
ENCODING 238
SWIDTH 221 0
DWIDTH 8 0
BBX 10 28 -1 0
BITMAP
0E00
1F00
3B80
71C0
E0C0
0000
0000
0000
0E00
0E00
0E00
0E00
0E00
0E00
0E00
0E00
0E00
0E00
0E00
0E00
0E00
0E00
0E00
0E00
0E00
0E00
0E00
0E00
ENDCHAR
STARTCHAR 00EF
ENCODING 239
SWIDTH 221 0
DWIDTH 8 0
BBX 10 26 -1 0
BITMAP
E1C0
E1C0
E1C0
0000
0000
0000
0E00
0E00
0E00
0E00
0E00
0E00
0E00
0E00
0E00
0E00
0E00
0E00
0E00
0E00
0E00
0E00
0E00
0E00
0E00
0E00
ENDCHAR
STARTCHAR 00F0
ENCODING 240
SWIDTH 581 0
DWIDTH 21 0
BBX 19 28 1 1
BITMAP
000600
01EE00
01FC00
003C00
007E00
006700
006380
000180
0001C0
07FCC0
0FFEC0
1E0FC0
3803C0
7001C0
7001C0
6001E0
6000E0
E000E0
E000E0
E000E0
6000C0
7001C0
7001C0
380380
3C0780
1FBF00
0FFE00
03F800
ENDCHAR
STARTCHAR 00F1
ENCODING 241
SWIDTH 581 0
DWIDTH 21 0
BBX 17 27 2 0
BITMAP
0F0C00
1FCC00
19FC00
187800
000000
000000
000000
E3F000
EFFC00
FFFE00
FC0F00
F80700
F00380
F00380
E00380
E00380
E00180
E00180
E00180
E00180
E00180
E00180
E00180
E00180
E00180
E00180
E00180
ENDCHAR
STARTCHAR 00F2
ENCODING 242
SWIDTH 581 0
DWIDTH 21 0
BBX 19 28 1 0
BITMAP
038000
018000
018000
00C000
00C000
00E000
000000
000000
03F800
0FFE00
1FFF00
3C0780
3803C0
7001C0
7000C0
6000E0
E000E0
E000E0
E000E0
E000E0
7000E0
7000C0
7001C0
3803C0
3C0780
1FFF00
0FFE00
03F800
ENDCHAR
STARTCHAR 00F3
ENCODING 243
SWIDTH 581 0
DWIDTH 21 0
BBX 19 28 1 0
BITMAP
003800
003000
003000
007000
006000
000000
000000
000000
03F800
0FFE00
1FFF00
3C0780
3803C0
7001C0
7000C0
6000E0
E000E0
E000E0
E000E0
E000E0
7000E0
7000C0
7001C0
3803C0
3C0780
1FFF00
0FFE00
03F800
ENDCHAR
STARTCHAR 00F4
ENCODING 244
SWIDTH 581 0
DWIDTH 21 0
BBX 19 27 1 0
BITMAP
00E000
01F000
03B800
071C00
060E00
000000
000000
03F800
0FFE00
1FFF00
3C0780
3803C0
7001C0
7000C0
6000E0
E000E0
E000E0
E000E0
E000E0
7000E0
7000C0
7001C0
3803C0
3C0780
1FFF00
0FFE00
03F800
ENDCHAR
STARTCHAR 00F5
ENCODING 245
SWIDTH 581 0
DWIDTH 21 0
BBX 19 27 1 0
BITMAP
078600
0FE600
0CFE00
0C3C00
000000
000000
000000
03F800
0FFE00
1FFF00
3C0780
3803C0
7001C0
7000C0
6000E0
E000E0
E000E0
E000E0
E000E0
7000E0
7000C0
7001C0
3803C0
3C0780
1FFF00
0FFE00
03F800
ENDCHAR
STARTCHAR 00F6
ENCODING 246
SWIDTH 581 0
DWIDTH 21 0
BBX 19 26 1 0
BITMAP
070E00
070E00
070E00
000000
000000
000000
03F800
0FFE00
1FFF00
3C0780
3803C0
7001C0
7000C0
6000E0
E000E0
E000E0
E000E0
E000E0
7000E0
7000C0
7001C0
3803C0
3C0780
1FFF00
0FFE00
03F800
ENDCHAR
STARTCHAR 00F7
ENCODING 247
SWIDTH 553 0
DWIDTH 20 0
BBX 15 12 2 7
BITMAP
0380
0380
0380
0000
0000
FFFE
FFFE
0000
0000
0380
0380
0380
ENDCHAR
STARTCHAR 00F8
ENCODING 248
SWIDTH 581 0
DWIDTH 21 0
BBX 19 20 1 0
BITMAP
03F840
0FFEE0
1FFFE0
3C07C0
3803C0
7007C0
700EE0
701CE0
6038E0
E070E0
E0E0E0
E1C0E0
6380E0
7700C0
7E01C0
3C03C0
7C0780
FFFF00
EFFE00
43F800
ENDCHAR
STARTCHAR 00F9
ENCODING 249
SWIDTH 581 0
DWIDTH 21 0
BBX 17 29 2 0
BITMAP
030000
030000
038000
018000
018000
00C000
000000
000000
000000
E00380
E00380
E00380
E00380
E00380
E00380
E00380
E00380
E00380
E00380
E00380
E00380
E00380
E00380
700780
700780
380F80
3FFD80
1FF980
07E180
ENDCHAR
STARTCHAR 00FA
ENCODING 250
SWIDTH 581 0
DWIDTH 21 0
BBX 17 29 2 0
BITMAP
007000
006000
006000
00E000
00C000
01C000
000000
000000
000000
E00380
E00380
E00380
E00380
E00380
E00380
E00380
E00380
E00380
E00380
E00380
E00380
E00380
E00380
700780
700780
380F80
3FFD80
1FF980
07E180
ENDCHAR
STARTCHAR 00FB
ENCODING 251
SWIDTH 581 0
DWIDTH 21 0
BBX 17 28 2 0
BITMAP
01C000
03E000
077000
0E3800
1C1C00
000000
000000
000000
E00380
E00380
E00380
E00380
E00380
E00380
E00380
E00380
E00380
E00380
E00380
E00380
E00380
E00380
700780
700780
380F80
3FFD80
1FF980
07E180
ENDCHAR
STARTCHAR 00FC
ENCODING 252
SWIDTH 581 0
DWIDTH 21 0
BBX 17 26 2 0
BITMAP
0E1800
0E1800
0E1800
000000
000000
000000
E00380
E00380
E00380
E00380
E00380
E00380
E00380
E00380
E00380
E00380
E00380
E00380
E00380
E00380
700780
700780
380F80
3FFD80
1FF980
07E180
ENDCHAR
STARTCHAR 00FD
ENCODING 253
SWIDTH 526 0
DWIDTH 19 0
BBX 17 37 1 -8
BITMAP
007000
006000
006000
00E000
00C000
00C000
000000
000000
000000
E00180
E00380
600300
700700
700700
380600
380E00
180E00
1C0C00
1C1C00
0E1C00
0E3800
063800
073000
077000
03F000
03E000
01E000
01E000
01C000
01C000
018000
038000
038000
030000
070000
070000
060000
ENDCHAR
STARTCHAR 00FE
ENCODING 254
SWIDTH 581 0
DWIDTH 21 0
BBX 18 34 2 -8
BITMAP
600000
600000
600000
600000
600000
600000
63F000
E7FC00
FFFE00
FC0F00
F00780
F00380
E00180
E001C0
E001C0
E001C0
E001C0
E001C0
E001C0
E00180
F00380
F00780
F80F00
FFFE00
E7FC00
E3F000
E00000
E00000
E00000
E00000
E00000
E00000
E00000
E00000
ENDCHAR
STARTCHAR 00FF
ENCODING 255
SWIDTH 526 0
DWIDTH 19 0
BBX 17 34 1 -8
BITMAP
0E1C00
0E1C00
0E1C00
000000
000000
000000
E00180
E00380
600300
700700
700700
380600
380E00
180E00
1C0C00
1C1C00
0E1C00
0E3800
063800
073000
077000
03F000
03E000
01E000
01E000
01C000
01C000
018000
038000
038000
030000
070000
070000
060000
ENDCHAR
ENDFONT
