STARTFONT 2.1
COMMENT
COMMENT Converted from OpenType font "manrope-regular.otf" by "otf2bdf 3.0".
COMMENT
FONT -FreeType-Manrope-Medium-R-Normal--22-160-100-100-P-100-ISO10646-1
SIZE 16 100 100
FONTBOUNDINGBOX 20 28 0 -6
STARTPROPERTIES 19
FOUNDRY "FreeType"
FAMILY_NAME "Manrope"
WEIGHT_NAME "Medium"
SLANT "R"
SETWIDTH_NAME "Normal"
ADD_STYLE_NAME ""
PIXEL_SIZE 22
POINT_SIZE 160
RESOLUTION_X 100
RESOLUTION_Y 100
SPACING "P"
AVERAGE_WIDTH 100
CHARSET_REGISTRY "ISO10646"
CHARSET_ENCODING "1"
FONT_ASCENT 23
FONT_DESCENT 6
COPYRIGHT "Copyright 2019-2021 The Manrope Project Authors (https://github.com/sharanda/manrope)"
_OTF_FONTFILE "manrope-regular.otf"
_OTF_PSNAME "Manrope-Regular"
ENDPROPERTIES
CHARS 191
STARTCHAR 0020
ENCODING 32
SWIDTH 180 0
DWIDTH 4 0
BBX 0 0 0 0
BITMAP
ENDCHAR
STARTCHAR 0021
ENCODING 33
SWIDTH 315 0
DWIDTH 7 0
BBX 1 16 3 0
BITMAP
80
80
80
80
80
80
80
80
80
80
80
80
00
00
80
80
ENDCHAR
STARTCHAR 0022
ENCODING 34
SWIDTH 405 0
DWIDTH 9 0
BBX 5 4 1 12
BITMAP
C8
C8
C8
C8
ENDCHAR
STARTCHAR 0023
ENCODING 35
SWIDTH 900 0
DWIDTH 20 0
BBX 18 16 1 0
BITMAP
008600
018400
018400
018C00
3FFFC0
3FFFC0
031800
021800
021000
7FFF80
FFFF00
043000
0C2000
0C2000
0C6000
086000
ENDCHAR
STARTCHAR 0024
ENCODING 36
SWIDTH 585 0
DWIDTH 13 0
BBX 11 20 1 -2
BITMAP
0400
0400
1F00
7FC0
60E0
C060
C020
4000
7000
1F00
03C0
0060
0020
8020
C020
E060
7FC0
1F80
0400
0400
ENDCHAR
STARTCHAR 0025
ENCODING 37
SWIDTH 900 0
DWIDTH 20 0
BBX 18 16 1 0
BITMAP
3C0100
7F0380
430700
C10E00
C11C00
633800
3E7000
00E000
01C000
039F00
073180
0E20C0
1C20C0
383080
701B80
200F00
ENDCHAR
STARTCHAR 0026
ENCODING 38
SWIDTH 630 0
DWIDTH 14 0
BBX 13 16 1 0
BITMAP
1F00
3F80
60C0
6000
6000
6000
3000
1800
7C20
C620
C320
C1A0
C060
6070
7FD8
1F08
ENDCHAR
STARTCHAR 0027
ENCODING 39
SWIDTH 225 0
DWIDTH 5 0
BBX 2 4 1 12
BITMAP
C0
C0
C0
C0
ENDCHAR
STARTCHAR 0028
ENCODING 40
SWIDTH 405 0
DWIDTH 9 0
BBX 5 22 3 -3
BITMAP
18
18
30
20
60
40
40
C0
C0
C0
C0
C0
C0
C0
40
40
60
20
30
10
18
08
ENDCHAR
STARTCHAR 0029
ENCODING 41
SWIDTH 405 0
DWIDTH 9 0
BBX 5 22 1 -3
BITMAP
C0
60
20
30
10
18
18
08
08
08
08
08
08
08
18
18
10
30
20
60
C0
40
ENDCHAR
STARTCHAR 002A
ENCODING 42
SWIDTH 450 0
DWIDTH 10 0
BBX 7 7 1 9
BITMAP
10
10
D6
FE
38
6C
44
ENDCHAR
STARTCHAR 002B
ENCODING 43
SWIDTH 585 0
DWIDTH 13 0
BBX 10 10 1 3
BITMAP
0400
0400
0400
0400
0400
FFC0
0400
0400
0400
0400
ENDCHAR
STARTCHAR 002C
ENCODING 44
SWIDTH 270 0
DWIDTH 6 0
BBX 2 4 1 -2
BITMAP
C0
C0
40
C0
ENDCHAR
STARTCHAR 002D
ENCODING 45
SWIDTH 405 0
DWIDTH 9 0
BBX 7 1 1 6
BITMAP
FE
ENDCHAR
STARTCHAR 002E
ENCODING 46
SWIDTH 270 0
DWIDTH 6 0
BBX 2 2 2 0
BITMAP
C0
C0
ENDCHAR
STARTCHAR 002F
ENCODING 47
SWIDTH 405 0
DWIDTH 9 0
BBX 6 16 1 0
BITMAP
0C
0C
0C
08
18
18
18
10
30
30
20
20
60
60
40
C0
ENDCHAR
STARTCHAR 0030
ENCODING 48
SWIDTH 630 0
DWIDTH 14 0
BBX 10 16 2 0
BITMAP
3E00
7F80
C180
C0C0
80C0
80C0
80C0
80C0
80C0
80C0
80C0
80C0
C0C0
C180
7F80
3E00
ENDCHAR
STARTCHAR 0031
ENCODING 49
SWIDTH 405 0
DWIDTH 9 0
BBX 5 16 1 0
BITMAP
18
78
D8
98
18
18
18
18
18
18
18
18
18
18
18
18
ENDCHAR
STARTCHAR 0032
ENCODING 50
SWIDTH 585 0
DWIDTH 13 0
BBX 11 16 1 0
BITMAP
1F00
3F80
60C0
C040
C060
0060
0040
00C0
0180
0300
0600
0C00
3800
7000
FFE0
FFE0
ENDCHAR
STARTCHAR 0033
ENCODING 51
SWIDTH 540 0
DWIDTH 12 0
BBX 10 16 1 0
BITMAP
7FC0
7FC0
0180
0300
0E00
1C00
3E00
1380
0180
00C0
00C0
00C0
C0C0
C180
7F80
3E00
ENDCHAR
STARTCHAR 0034
ENCODING 52
SWIDTH 585 0
DWIDTH 13 0
BBX 11 16 1 0
BITMAP
0600
0600
0C00
0C00
1800
1800
3000
3080
6080
6080
4080
FFE0
FFE0
0080
0080
0080
ENDCHAR
STARTCHAR 0035
ENCODING 53
SWIDTH 585 0
DWIDTH 13 0
BBX 11 16 1 0
BITMAP
7FC0
7FC0
4000
4000
4000
4400
7F80
61C0
00C0
0060
0060
0060
C040
60C0
3F80
1F00
ENDCHAR
STARTCHAR 0036
ENCODING 54
SWIDTH 630 0
DWIDTH 14 0
BBX 10 16 2 0
BITMAP
1E00
7F80
E080
C000
8000
8000
9E00
BF80
C0C0
C0C0
8040
8040
C0C0
C0C0
7F80
1E00
ENDCHAR
STARTCHAR 0037
ENCODING 55
SWIDTH 495 0
DWIDTH 11 0
BBX 9 16 1 0
BITMAP
FF80
FF80
0180
0100
0300
0200
0600
0600
0C00
0C00
0800
1800
1800
3000
3000
2000
ENDCHAR
STARTCHAR 0038
ENCODING 56
SWIDTH 585 0
DWIDTH 13 0
BBX 11 16 1 0
BITMAP
1F00
3F80
60C0
40C0
40C0
60C0
3F80
3F80
61C0
40C0
C060
C060
C040
60C0
3F80
1F00
ENDCHAR
STARTCHAR 0039
ENCODING 57
SWIDTH 630 0
DWIDTH 14 0
BBX 11 16 1 0
BITMAP
1F00
3FC0
60C0
4060
C020
C020
4060
60E0
3FA0
1F20
0020
0060
0060
20C0
3FC0
1F00
ENDCHAR
STARTCHAR 003A
ENCODING 58
SWIDTH 315 0
DWIDTH 7 0
BBX 2 8 2 2
BITMAP
C0
C0
00
00
00
00
C0
C0
ENDCHAR
STARTCHAR 003B
ENCODING 59
SWIDTH 315 0
DWIDTH 7 0
BBX 2 14 2 -2
BITMAP
C0
C0
00
00
00
00
00
00
00
00
C0
C0
40
C0
ENDCHAR
STARTCHAR 003C
ENCODING 60
SWIDTH 630 0
DWIDTH 14 0
BBX 6 10 3 2
BITMAP
04
0C
18
30
60
C0
60
30
18
0C
ENDCHAR
STARTCHAR 003D
ENCODING 61
SWIDTH 765 0
DWIDTH 17 0
BBX 11 4 3 6
BITMAP
FFE0
0000
0000
FFE0
ENDCHAR
STARTCHAR 003E
ENCODING 62
SWIDTH 630 0
DWIDTH 14 0
BBX 6 10 4 2
BITMAP
40
60
30
18
0C
0C
18
30
60
C0
ENDCHAR
STARTCHAR 003F
ENCODING 63
SWIDTH 540 0
DWIDTH 12 0
BBX 10 16 1 0
BITMAP
3E00
7F80
C180
C080
00C0
0080
0180
0300
0E00
0C00
0800
0800
0000
0000
0800
0800
ENDCHAR
STARTCHAR 0040
ENCODING 64
SWIDTH 900 0
DWIDTH 20 0
BBX 16 16 2 -2
BITMAP
0FF0
181C
3006
6002
C003
C7E1
8461
8C21
8C21
8423
C7F7
C39E
6000
3000
1810
0FF0
ENDCHAR
STARTCHAR 0041
ENCODING 65
SWIDTH 630 0
DWIDTH 14 0
BBX 12 16 1 0
BITMAP
0600
0F00
0F00
0900
1980
1980
1080
30C0
30C0
2040
7FE0
7FE0
4020
C030
C030
8010
ENDCHAR
STARTCHAR 0042
ENCODING 66
SWIDTH 630 0
DWIDTH 14 0
BBX 11 16 2 0
BITMAP
FF00
FF80
80C0
80C0
80C0
80C0
81C0
FF80
FFC0
80C0
8060
8060
8060
80E0
FFC0
FF80
ENDCHAR
STARTCHAR 0043
ENCODING 67
SWIDTH 720 0
DWIDTH 16 0
BBX 14 16 1 0
BITMAP
0FC0
3FF0
7038
6018
C00C
C000
8000
8000
8000
8000
C000
C00C
6018
7038
3FF0
0FC0
ENDCHAR
STARTCHAR 0044
ENCODING 68
SWIDTH 675 0
DWIDTH 15 0
BBX 12 16 2 0
BITMAP
FF00
FFC0
80C0
8060
8020
8030
8030
8030
8030
8030
8030
8020
8060
80C0
FFC0
FF00
ENDCHAR
STARTCHAR 0045
ENCODING 69
SWIDTH 585 0
DWIDTH 13 0
BBX 10 16 2 0
BITMAP
FFC0
FFC0
8000
8000
8000
8000
8000
FF00
FF00
8000
8000
8000
8000
8000
FFC0
FFC0
ENDCHAR
STARTCHAR 0046
ENCODING 70
SWIDTH 495 0
DWIDTH 11 0
BBX 9 16 2 0
BITMAP
FF80
FF80
8000
8000
8000
8000
8000
FE00
FE00
8000
8000
8000
8000
8000
8000
8000
ENDCHAR
STARTCHAR 0047
ENCODING 71
SWIDTH 720 0
DWIDTH 16 0
BBX 14 16 1 0
BITMAP
0FC0
3FF0
7030
6018
C008
C000
C000
8000
807C
800C
C00C
C00C
6018
7038
3FF0
0FC0
ENDCHAR
STARTCHAR 0048
ENCODING 72
SWIDTH 675 0
DWIDTH 15 0
BBX 12 16 2 0
BITMAP
8030
8030
8030
8030
8030
8030
8030
FFF0
FFF0
8030
8030
8030
8030
8030
8030
8030
ENDCHAR
STARTCHAR 0049
ENCODING 73
SWIDTH 225 0
DWIDTH 5 0
BBX 1 16 2 0
BITMAP
80
80
80
80
80
80
80
80
80
80
80
80
80
80
80
80
ENDCHAR
STARTCHAR 004A
ENCODING 74
SWIDTH 450 0
DWIDTH 10 0
BBX 9 16 0 0
BITMAP
0180
0180
0180
0180
0180
0180
0180
0180
0180
0180
0180
0180
4100
C300
7F00
3C00
ENDCHAR
STARTCHAR 004B
ENCODING 75
SWIDTH 585 0
DWIDTH 13 0
BBX 11 16 2 0
BITMAP
80C0
8180
8300
8600
8C00
9800
B000
E000
B000
9800
8C00
8600
8300
8180
80C0
8060
ENDCHAR
STARTCHAR 004C
ENCODING 76
SWIDTH 495 0
DWIDTH 11 0
BBX 9 16 2 0
BITMAP
8000
8000
8000
8000
8000
8000
8000
8000
8000
8000
8000
8000
8000
8000
FF80
FF80
ENDCHAR
STARTCHAR 004D
ENCODING 77
SWIDTH 855 0
DWIDTH 19 0
BBX 15 16 2 0
BITMAP
8006
C006
C00E
E00E
E00A
B01A
B012
9832
9822
8862
8C42
84C2
8682
8382
8382
8102
ENDCHAR
STARTCHAR 004E
ENCODING 78
SWIDTH 675 0
DWIDTH 15 0
BBX 12 16 2 0
BITMAP
C030
C030
E030
B030
B030
9830
8C30
8C30
8630
8330
8330
81B0
80F0
80F0
8070
8030
ENDCHAR
STARTCHAR 004F
ENCODING 79
SWIDTH 720 0
DWIDTH 16 0
BBX 14 16 1 0
BITMAP
0FC0
3FF0
7038
6018
C00C
C00C
C004
8004
8004
8004
C00C
C00C
6018
7038
3FF0
0FC0
ENDCHAR
STARTCHAR 0050
ENCODING 80
SWIDTH 585 0
DWIDTH 13 0
BBX 11 16 2 0
BITMAP
FF00
FFC0
80C0
8060
8060
8060
8060
80C0
FFC0
FF00
8000
8000
8000
8000
8000
8000
ENDCHAR
STARTCHAR 0051
ENCODING 81
SWIDTH 720 0
DWIDTH 16 0
BBX 14 16 1 0
BITMAP
0FC0
3FF0
7038
6018
C00C
C00C
C004
8004
8004
8004
C00C
C06C
6078
7038
3FFC
0FC4
ENDCHAR
STARTCHAR 0052
ENCODING 82
SWIDTH 630 0
DWIDTH 14 0
BBX 11 16 2 0
BITMAP
FF00
FFC0
80C0
8060
8060
8060
8060
80C0
FFC0
FF00
8100
8180
8080
80C0
80C0
8060
ENDCHAR
STARTCHAR 0053
ENCODING 83
SWIDTH 630 0
DWIDTH 14 0
BBX 12 16 1 0
BITMAP
1F80
3FC0
6060
C030
C030
6000
7800
1F00
03C0
0060
0030
8030
C030
6060
7FE0
1F80
ENDCHAR
STARTCHAR 0054
ENCODING 84
SWIDTH 585 0
DWIDTH 13 0
BBX 13 16 0 0
BITMAP
FFF8
FFF8
0200
0200
0200
0200
0200
0200
0200
0200
0200
0200
0200
0200
0200
0200
ENDCHAR
STARTCHAR 0055
ENCODING 85
SWIDTH 720 0
DWIDTH 16 0
BBX 12 16 2 0
BITMAP
8030
8030
8030
8030
8030
8030
8030
8030
8030
8030
8030
8030
C030
6060
7FC0
1F00
ENDCHAR
STARTCHAR 0056
ENCODING 86
SWIDTH 585 0
DWIDTH 13 0
BBX 13 16 0 0
BITMAP
C018
4018
6010
6030
2030
3020
3060
1060
1840
18C0
08C0
0C80
0D80
0580
0700
0700
ENDCHAR
STARTCHAR 0057
ENCODING 87
SWIDTH 945 0
DWIDTH 21 0
BBX 19 16 1 0
BITMAP
80C020
80E060
C0E060
C0A040
41B0C0
61B0C0
6130C0
231080
231980
321980
320900
160B00
1E0F00
1C0F00
0C0600
0C0600
ENDCHAR
STARTCHAR 0058
ENCODING 88
SWIDTH 585 0
DWIDTH 13 0
BBX 12 16 1 0
BITMAP
C030
C060
60C0
30C0
3180
1B00
0F00
0E00
0E00
0F00
1900
3180
30C0
6060
C060
C030
ENDCHAR
STARTCHAR 0059
ENCODING 89
SWIDTH 540 0
DWIDTH 12 0
BBX 12 16 0 0
BITMAP
C030
6020
6060
30C0
10C0
1980
0D80
0F00
0600
0600
0600
0600
0600
0600
0600
0600
ENDCHAR
STARTCHAR 005A
ENCODING 90
SWIDTH 630 0
DWIDTH 14 0
BBX 11 16 1 0
BITMAP
FFE0
FFE0
00C0
00C0
0180
0300
0300
0600
0600
0C00
1800
1800
3000
6000
7FE0
FFE0
ENDCHAR
STARTCHAR 005B
ENCODING 91
SWIDTH 405 0
DWIDTH 9 0
BBX 4 25 3 -5
BITMAP
F0
F0
C0
C0
C0
C0
C0
C0
C0
C0
C0
C0
C0
C0
C0
C0
C0
C0
C0
C0
C0
C0
C0
F0
F0
ENDCHAR
STARTCHAR 005C
ENCODING 92
SWIDTH 405 0
DWIDTH 9 0
BBX 6 16 1 0
BITMAP
C0
40
60
60
20
20
30
30
10
18
18
18
08
0C
0C
0C
ENDCHAR
STARTCHAR 005D
ENCODING 93
SWIDTH 405 0
DWIDTH 9 0
BBX 4 25 2 -5
BITMAP
F0
F0
30
30
30
30
30
30
30
30
30
30
30
30
30
30
30
30
30
30
30
30
30
F0
F0
ENDCHAR
STARTCHAR 005E
ENCODING 94
SWIDTH 675 0
DWIDTH 15 0
BBX 9 6 3 10
BITMAP
0800
1C00
3600
6300
C180
8080
ENDCHAR
STARTCHAR 005F
ENCODING 95
SWIDTH 675 0
DWIDTH 15 0
BBX 15 1 0 -2
BITMAP
FFFE
ENDCHAR
STARTCHAR 0060
ENCODING 96
SWIDTH 495 0
DWIDTH 11 0
BBX 2 3 4 18
BITMAP
C0
40
40
ENDCHAR
STARTCHAR 0061
ENCODING 97
SWIDTH 540 0
DWIDTH 12 0
BBX 10 12 1 0
BITMAP
1F00
7F80
60C0
40C0
00C0
1FC0
70C0
C0C0
C0C0
C1C0
E740
3E40
ENDCHAR
STARTCHAR 0062
ENCODING 98
SWIDTH 585 0
DWIDTH 13 0
BBX 10 16 2 0
BITMAP
8000
8000
8000
8000
9E00
FF80
C180
80C0
80C0
80C0
80C0
80C0
80C0
C180
FF80
9E00
ENDCHAR
STARTCHAR 0063
ENCODING 99
SWIDTH 540 0
DWIDTH 12 0
BBX 10 12 1 0
BITMAP
1F00
3F80
60C0
C040
C000
C000
C000
C000
C000
60C0
3F80
1F00
ENDCHAR
STARTCHAR 0064
ENCODING 100
SWIDTH 585 0
DWIDTH 13 0
BBX 11 16 1 0
BITMAP
0060
0060
0060
0060
1E60
7FE0
60E0
C060
C060
C060
C060
C060
C060
60E0
3FE0
1E60
ENDCHAR
STARTCHAR 0065
ENCODING 101
SWIDTH 585 0
DWIDTH 13 0
BBX 11 12 1 0
BITMAP
1F00
3F80
60C0
C060
C060
FFE0
C000
C000
C040
60C0
3FC0
1F00
ENDCHAR
STARTCHAR 0066
ENCODING 102
SWIDTH 360 0
DWIDTH 8 0
BBX 7 16 1 0
BITMAP
1E
30
20
20
FE
20
20
20
20
20
20
20
20
20
20
20
ENDCHAR
STARTCHAR 0067
ENCODING 103
SWIDTH 585 0
DWIDTH 13 0
BBX 11 18 1 -6
BITMAP
1F60
7FE0
60E0
C060
C060
C060
C060
C060
C060
60E0
3FE0
1E60
0060
0040
40C0
61C0
3F80
0E00
ENDCHAR
STARTCHAR 0068
ENCODING 104
SWIDTH 585 0
DWIDTH 13 0
BBX 10 16 2 0
BITMAP
8000
8000
8000
8000
9E00
FF80
C180
C0C0
80C0
80C0
80C0
80C0
80C0
80C0
80C0
80C0
ENDCHAR
STARTCHAR 0069
ENCODING 105
SWIDTH 225 0
DWIDTH 5 0
BBX 1 16 2 0
BITMAP
80
80
00
00
80
80
80
80
80
80
80
80
80
80
80
80
ENDCHAR
STARTCHAR 006A
ENCODING 106
SWIDTH 270 0
DWIDTH 6 0
BBX 4 22 0 -6
BITMAP
30
30
00
00
30
30
30
30
30
30
30
30
30
30
30
30
30
30
30
30
E0
C0
ENDCHAR
STARTCHAR 006B
ENCODING 107
SWIDTH 495 0
DWIDTH 11 0
BBX 9 16 2 0
BITMAP
8000
8000
8000
8000
8300
8600
8C00
9800
B800
F000
F000
B800
8C00
8600
8300
8180
ENDCHAR
STARTCHAR 006C
ENCODING 108
SWIDTH 225 0
DWIDTH 5 0
BBX 1 16 2 0
BITMAP
80
80
80
80
80
80
80
80
80
80
80
80
80
80
80
80
ENDCHAR
STARTCHAR 006D
ENCODING 109
SWIDTH 855 0
DWIDTH 19 0
BBX 15 12 2 0
BITMAP
BC7C
FFFE
C386
8102
8102
8102
8102
8102
8102
8102
8102
8102
ENDCHAR
STARTCHAR 006E
ENCODING 110
SWIDTH 585 0
DWIDTH 13 0
BBX 10 12 2 0
BITMAP
9E00
FF80
C180
C0C0
80C0
80C0
80C0
80C0
80C0
80C0
80C0
80C0
ENDCHAR
STARTCHAR 006F
ENCODING 111
SWIDTH 585 0
DWIDTH 13 0
BBX 11 12 1 0
BITMAP
1F00
3FC0
60C0
C060
C060
C060
C060
C060
C060
60C0
3FC0
1F00
ENDCHAR
STARTCHAR 0070
ENCODING 112
SWIDTH 585 0
DWIDTH 13 0
BBX 10 17 2 -5
BITMAP
9E00
FF80
C180
80C0
80C0
80C0
80C0
80C0
80C0
C180
FF80
9E00
8000
8000
8000
8000
8000
ENDCHAR
STARTCHAR 0071
ENCODING 113
SWIDTH 585 0
DWIDTH 13 0
BBX 11 17 1 -5
BITMAP
1F60
7FE0
60E0
C060
C060
C060
C060
C060
C060
60E0
3FE0
1E60
0060
0060
0060
0060
0060
ENDCHAR
STARTCHAR 0072
ENCODING 114
SWIDTH 360 0
DWIDTH 8 0
BBX 5 12 2 0
BITMAP
98
F8
C0
C0
80
80
80
80
80
80
80
80
ENDCHAR
STARTCHAR 0073
ENCODING 115
SWIDTH 540 0
DWIDTH 12 0
BBX 10 12 1 0
BITMAP
3E00
7F80
C180
C080
6000
3E00
0780
00C0
40C0
C0C0
7F80
3F00
ENDCHAR
STARTCHAR 0074
ENCODING 116
SWIDTH 405 0
DWIDTH 9 0
BBX 8 15 0 0
BITMAP
10
10
10
FF
10
10
10
10
10
10
10
10
18
1D
0F
ENDCHAR
STARTCHAR 0075
ENCODING 117
SWIDTH 585 0
DWIDTH 13 0
BBX 11 12 1 0
BITMAP
C060
C060
C060
C060
C060
C060
C060
C060
4060
60E0
3FE0
1E60
ENDCHAR
STARTCHAR 0076
ENCODING 118
SWIDTH 495 0
DWIDTH 11 0
BBX 10 12 1 0
BITMAP
80C0
C080
C180
4180
6100
6300
2200
3600
1600
1C00
1C00
0C00
ENDCHAR
STARTCHAR 0077
ENCODING 119
SWIDTH 765 0
DWIDTH 17 0
BBX 15 12 1 0
BITMAP
8102
C382
C386
4286
46C4
66CC
644C
2C68
3C78
3838
1830
1830
ENDCHAR
STARTCHAR 0078
ENCODING 120
SWIDTH 540 0
DWIDTH 12 0
BBX 10 12 1 0
BITMAP
C0C0
C180
6100
3300
1E00
0C00
1C00
1E00
3300
6180
C180
C0C0
ENDCHAR
STARTCHAR 0079
ENCODING 121
SWIDTH 540 0
DWIDTH 12 0
BBX 10 17 1 -5
BITMAP
80C0
C0C0
C080
4180
6180
2100
3300
3300
1200
1E00
0C00
0C00
0C00
0800
1800
1800
1000
ENDCHAR
STARTCHAR 007A
ENCODING 122
SWIDTH 540 0
DWIDTH 12 0
BBX 10 12 1 0
BITMAP
FFC0
FF80
0300
0200
0600
0C00
1800
1000
3000
6000
FF80
FF80
ENDCHAR
STARTCHAR 007B
ENCODING 123
SWIDTH 405 0
DWIDTH 9 0
BBX 5 25 3 -5
BITMAP
18
38
60
60
60
60
60
60
60
60
60
60
C0
C0
60
60
60
60
60
60
60
60
60
38
38
ENDCHAR
STARTCHAR 007C
ENCODING 124
SWIDTH 270 0
DWIDTH 6 0
BBX 2 16 2 0
BITMAP
C0
C0
C0
C0
C0
C0
C0
C0
C0
C0
C0
C0
C0
C0
C0
C0
ENDCHAR
STARTCHAR 007D
ENCODING 125
SWIDTH 405 0
DWIDTH 9 0
BBX 5 25 1 -5
BITMAP
C0
E0
30
30
30
30
30
30
30
30
30
18
18
18
30
30
30
30
30
30
30
30
30
F0
E0
ENDCHAR
STARTCHAR 007E
ENCODING 126
SWIDTH 675 0
DWIDTH 15 0
BBX 9 4 3 5
BITMAP
6180
F980
9F80
8700
ENDCHAR
STARTCHAR 00A0
ENCODING 160
SWIDTH 180 0
DWIDTH 4 0
BBX 0 0 0 0
BITMAP
ENDCHAR
STARTCHAR 00A1
ENCODING 161
SWIDTH 315 0
DWIDTH 7 0
BBX 1 16 3 -4
BITMAP
80
80
00
00
80
80
80
80
80
80
80
80
80
80
80
80
ENDCHAR
STARTCHAR 00A2
ENCODING 162
SWIDTH 540 0
DWIDTH 12 0
BBX 10 17 1 -1
BITMAP
0400
0400
1F00
3F80
60C0
C040
C000
C000
C000
C000
C000
4040
70C0
3F80
0400
0400
0400
ENDCHAR
STARTCHAR 00A3
ENCODING 163
SWIDTH 585 0
DWIDTH 13 0
BBX 11 16 1 0
BITMAP
0780
1FC0
18C0
1060
3000
3000
3000
FF00
FF00
3000
3000
3000
3000
3000
FFC0
FFC0
ENDCHAR
STARTCHAR 00A4
ENCODING 164
SWIDTH 630 0
DWIDTH 14 0
BBX 13 14 1 1
BITMAP
0010
CF38
7FF0
6060
4020
C030
C030
C030
C030
4020
6060
79F0
CF38
0010
ENDCHAR
STARTCHAR 00A5
ENCODING 165
SWIDTH 540 0
DWIDTH 12 0
BBX 12 16 0 0
BITMAP
C030
6020
6060
30C0
10C0
1980
0D80
0F00
0700
3FC0
0600
0600
3FC0
0600
0600
0600
ENDCHAR
STARTCHAR 00A6
ENCODING 166
SWIDTH 270 0
DWIDTH 6 0
BBX 2 19 2 -3
BITMAP
C0
C0
C0
C0
C0
C0
C0
C0
00
00
00
C0
C0
C0
C0
C0
C0
C0
C0
ENDCHAR
STARTCHAR 00A7
ENCODING 167
SWIDTH 540 0
DWIDTH 12 0
BBX 10 17 1 -4
BITMAP
3F00
6380
C180
C000
7000
3E00
6380
C0C0
C0C0
E0C0
7D80
0F00
0180
00C0
C080
6180
3F00
ENDCHAR
STARTCHAR 00A8
ENCODING 168
SWIDTH 495 0
DWIDTH 11 0
BBX 6 2 3 18
BITMAP
8C
8C
ENDCHAR
STARTCHAR 00A9
ENCODING 169
SWIDTH 810 0
DWIDTH 18 0
BBX 16 17 1 -1
BITMAP
07E0
1FF8
381C
6006
47E6
C423
8C23
8801
8801
8803
CC33
C663
63C6
700C
3838
0FF0
0180
ENDCHAR
STARTCHAR 00AA
ENCODING 170
SWIDTH 315 0
DWIDTH 7 0
BBX 5 6 1 6
BITMAP
70
88
38
C8
88
F8
ENDCHAR
STARTCHAR 00AB
ENCODING 171
SWIDTH 540 0
DWIDTH 12 0
BBX 8 10 2 1
BITMAP
11
33
26
44
C8
CC
66
22
11
11
ENDCHAR
STARTCHAR 00AC
ENCODING 172
SWIDTH 585 0
DWIDTH 13 0
BBX 11 4 1 4
BITMAP
FFE0
0020
0020
0020
ENDCHAR
STARTCHAR 00AD
ENCODING 173
SWIDTH 405 0
DWIDTH 9 0
BBX 7 1 1 6
BITMAP
FE
ENDCHAR
STARTCHAR 00AE
ENCODING 174
SWIDTH 630 0
DWIDTH 14 0
BBX 10 10 2 7
BITMAP
3F00
6180
C0C0
9E40
9240
9E40
9240
D2C0
6180
3F00
ENDCHAR
STARTCHAR 00AF
ENCODING 175
SWIDTH 495 0
DWIDTH 11 0
BBX 5 1 3 19
BITMAP
F8
ENDCHAR
STARTCHAR 00B0
ENCODING 176
SWIDTH 450 0
DWIDTH 10 0
BBX 8 8 1 8
BITMAP
3C
7E
C2
83
83
C2
6E
3C
ENDCHAR
STARTCHAR 00B1
ENCODING 177
SWIDTH 585 0
DWIDTH 13 0
BBX 11 10 1 2
BITMAP
0400
0400
0400
FFE0
0400
0400
0400
0000
0000
FFE0
ENDCHAR
STARTCHAR 00B2
ENCODING 178
SWIDTH 405 0
DWIDTH 9 0
BBX 7 10 1 6
BITMAP
38
44
C6
06
06
0C
18
30
60
FE
ENDCHAR
STARTCHAR 00B3
ENCODING 179
SWIDTH 405 0
DWIDTH 9 0
BBX 6 10 1 6
BITMAP
FC
0C
18
30
78
0C
04
04
CC
78
ENDCHAR
STARTCHAR 00B4
ENCODING 180
SWIDTH 495 0
DWIDTH 11 0
BBX 2 3 5 18
BITMAP
C0
80
80
ENDCHAR
STARTCHAR 00B5
ENCODING 181
SWIDTH 585 0
DWIDTH 13 0
BBX 10 17 2 -5
BITMAP
80C0
80C0
80C0
80C0
80C0
80C0
80C0
80C0
C0C0
C1C0
FFC0
BEC0
8000
8000
8000
8000
8000
ENDCHAR
STARTCHAR 00B6
ENCODING 182
SWIDTH 630 0
DWIDTH 14 0
BBX 10 19 2 -3
BITMAP
3E40
7E40
FE40
FE40
FE40
FE40
FE40
FE40
7E40
3E40
0240
0240
0240
0240
0240
0240
0240
0240
0240
ENDCHAR
STARTCHAR 00B7
ENCODING 183
SWIDTH 225 0
DWIDTH 5 0
BBX 3 2 1 6
BITMAP
40
E0
ENDCHAR
STARTCHAR 00B8
ENCODING 184
SWIDTH 405 0
DWIDTH 9 0
BBX 3 5 3 -5
BITMAP
40
40
20
20
E0
ENDCHAR
STARTCHAR 00B9
ENCODING 185
SWIDTH 315 0
DWIDTH 7 0
BBX 3 10 1 6
BITMAP
60
E0
20
20
20
20
20
20
20
20
ENDCHAR
STARTCHAR 00BA
ENCODING 186
SWIDTH 360 0
DWIDTH 8 0
BBX 6 6 1 6
BITMAP
78
C8
8C
8C
C8
78
ENDCHAR
STARTCHAR 00BB
ENCODING 187
SWIDTH 540 0
DWIDTH 12 0
BBX 8 10 2 1
BITMAP
88
C8
44
26
33
33
66
4C
88
80
ENDCHAR
STARTCHAR 00BC
ENCODING 188
SWIDTH 990 0
DWIDTH 22 0
BBX 18 16 1 0
BITMAP
600400
E00400
200C00
201800
203000
202000
206300
20C200
218600
230400
020C80
060880
0C1880
181FC0
100080
100080
ENDCHAR
STARTCHAR 00BD
ENCODING 189
SWIDTH 945 0
DWIDTH 21 0
BBX 19 16 1 0
BITMAP
600400
E00400
200C00
201800
203000
202000
206780
20CC40
218860
230060
020040
0600C0
0C0100
180200
100C00
100FE0
ENDCHAR
STARTCHAR 00BE
ENCODING 190
SWIDTH 990 0
DWIDTH 22 0
BBX 19 16 1 0
BITMAP
FC0100
0C0300
180600
300400
780C00
0C1800
043080
042180
CC6100
78C300
018240
030640
020440
0607E0
0C0040
080040
ENDCHAR
STARTCHAR 00BF
ENCODING 191
SWIDTH 540 0
DWIDTH 12 0
BBX 9 17 1 -5
BITMAP
0C00
0C00
0000
0000
0C00
0C00
0C00
1800
3000
6000
C000
C000
C080
C080
6180
7F00
0C00
ENDCHAR
STARTCHAR 00C0
ENCODING 192
SWIDTH 630 0
DWIDTH 14 0
BBX 12 21 1 0
BITMAP
0C00
0400
0400
0000
0000
0600
0F00
0F00
0900
1980
1980
1080
30C0
30C0
2040
7FE0
7FE0
4020
C030
C030
8010
ENDCHAR
STARTCHAR 00C1
ENCODING 193
SWIDTH 630 0
DWIDTH 14 0
BBX 12 21 1 0
BITMAP
0300
0300
0200
0000
0000
0600
0F00
0F00
0900
1980
1980
1080
30C0
30C0
2040
7FE0
7FE0
4020
C030
C030
8010
ENDCHAR
STARTCHAR 00C2
ENCODING 194
SWIDTH 630 0
DWIDTH 14 0
BBX 12 21 1 0
BITMAP
0600
0F00
1980
0000
0000
0600
0F00
0F00
0900
1980
1980
1080
30C0
30C0
2040
7FE0
7FE0
4020
C030
C030
8010
ENDCHAR
STARTCHAR 00C3
ENCODING 195
SWIDTH 630 0
DWIDTH 14 0
BBX 12 21 1 0
BITMAP
1C80
1780
0000
0000
0000
0600
0F00
0F00
0900
1980
1980
1080
30C0
30C0
2040
7FE0
7FE0
4020
C030
C030
8010
ENDCHAR
STARTCHAR 00C4
ENCODING 196
SWIDTH 630 0
DWIDTH 14 0
BBX 12 20 1 0
BITMAP
1980
1980
0000
0000
0600
0F00
0F00
0900
1980
1980
1080
30C0
30C0
2040
7FE0
7FE0
4020
C030
C030
8010
ENDCHAR
STARTCHAR 00C5
ENCODING 197
SWIDTH 630 0
DWIDTH 14 0
BBX 12 22 1 0
BITMAP
0F00
0900
0900
0900
0700
0000
0600
0F00
0F00
0900
1980
1980
1080
30C0
30C0
2040
7FE0
7FE0
4020
C030
C030
8010
ENDCHAR
STARTCHAR 00C6
ENCODING 198
SWIDTH 900 0
DWIDTH 20 0
BBX 18 16 1 0
BITMAP
07FFC0
0FFFC0
0CC000
08C000
18C000
18C000
10C000
30FF80
30FF80
20C000
7FC000
7FC000
40C000
C0C000
C0FFC0
80FFC0
ENDCHAR
STARTCHAR 00C7
ENCODING 199
SWIDTH 720 0
DWIDTH 16 0
BBX 14 21 1 -5
BITMAP
0FC0
3FF0
7038
6018
C00C
C000
8000
8000
8000
8000
C000
C00C
6018
7038
3FF0
0FC0
0100
0300
0080
0180
0300
ENDCHAR
STARTCHAR 00C8
ENCODING 200
SWIDTH 585 0
DWIDTH 13 0
BBX 10 21 2 0
BITMAP
1800
0800
0800
0000
0000
FFC0
FFC0
8000
8000
8000
8000
8000
FF00
FF00
8000
8000
8000
8000
8000
FFC0
FFC0
ENDCHAR
STARTCHAR 00C9
ENCODING 201
SWIDTH 585 0
DWIDTH 13 0
BBX 10 21 2 0
BITMAP
0600
0400
0C00
0000
0000
FFC0
FFC0
8000
8000
8000
8000
8000
FF00
FF00
8000
8000
8000
8000
8000
FFC0
FFC0
ENDCHAR
STARTCHAR 00CA
ENCODING 202
SWIDTH 585 0
DWIDTH 13 0
BBX 10 21 2 0
BITMAP
1C00
3400
2200
0000
0000
FFC0
FFC0
8000
8000
8000
8000
8000
FF00
FF00
8000
8000
8000
8000
8000
FFC0
FFC0
ENDCHAR
STARTCHAR 00CB
ENCODING 203
SWIDTH 585 0
DWIDTH 13 0
BBX 10 20 2 0
BITMAP
6200
6200
0000
0000
FFC0
FFC0
8000
8000
8000
8000
8000
FF00
FF00
8000
8000
8000
8000
8000
FFC0
FFC0
ENDCHAR
STARTCHAR 00CC
ENCODING 204
SWIDTH 225 0
DWIDTH 5 0
BBX 2 21 1 0
BITMAP
80
C0
40
00
00
40
40
40
40
40
40
40
40
40
40
40
40
40
40
40
40
ENDCHAR
STARTCHAR 00CD
ENCODING 205
SWIDTH 225 0
DWIDTH 5 0
BBX 2 21 2 0
BITMAP
40
C0
C0
00
00
80
80
80
80
80
80
80
80
80
80
80
80
80
80
80
80
ENDCHAR
STARTCHAR 00CE
ENCODING 206
SWIDTH 225 0
DWIDTH 5 0
BBX 5 21 0 0
BITMAP
70
58
88
00
00
20
20
20
20
20
20
20
20
20
20
20
20
20
20
20
20
ENDCHAR
STARTCHAR 00CF
ENCODING 207
SWIDTH 225 0
DWIDTH 5 0
BBX 6 20 0 0
BITMAP
8C
8C
00
00
20
20
20
20
20
20
20
20
20
20
20
20
20
20
20
20
ENDCHAR
STARTCHAR 00D0
ENCODING 208
SWIDTH 675 0
DWIDTH 15 0
BBX 14 16 0 0
BITMAP
7FC0
7FE0
6030
6018
6018
600C
600C
600C
FE0C
600C
600C
6008
6018
6030
7FE0
7FC0
ENDCHAR
STARTCHAR 00D1
ENCODING 209
SWIDTH 675 0
DWIDTH 15 0
BBX 12 20 2 0
BITMAP
1C80
1380
0000
0000
C030
C030
E030
B030
B030
9830
8C30
8C30
8630
8330
8330
81B0
80F0
80F0
8070
8030
ENDCHAR
STARTCHAR 00D2
ENCODING 210
SWIDTH 720 0
DWIDTH 16 0
BBX 14 21 1 0
BITMAP
0600
0200
0200
0000
0000
0FC0
3FF0
7038
6018
C00C
C00C
C004
8004
8004
8004
C00C
C00C
6018
7038
3FF0
0FC0
ENDCHAR
STARTCHAR 00D3
ENCODING 211
SWIDTH 720 0
DWIDTH 16 0
BBX 14 21 1 0
BITMAP
0080
0180
0100
0000
0000
0FC0
3FF0
7038
6018
C00C
C00C
C004
8004
8004
8004
C00C
C00C
6018
7038
3FF0
0FC0
ENDCHAR
STARTCHAR 00D4
ENCODING 212
SWIDTH 720 0
DWIDTH 16 0
BBX 14 21 1 0
BITMAP
0300
0780
0CC0
0000
0000
0FC0
3FF0
7038
6018
C00C
C00C
C004
8004
8004
8004
C00C
C00C
6018
7038
3FF0
0FC0
ENDCHAR
STARTCHAR 00D5
ENCODING 213
SWIDTH 720 0
DWIDTH 16 0
BBX 14 20 1 0
BITMAP
0E60
09C0
0000
0000
0FC0
3FF0
7038
6018
C00C
C00C
C004
8004
8004
8004
C00C
C00C
6018
7038
3FF0
0FC0
ENDCHAR
STARTCHAR 00D6
ENCODING 214
SWIDTH 720 0
DWIDTH 16 0
BBX 14 20 1 0
BITMAP
0CC0
0CC0
0000
0000
0FC0
3FF0
7038
6018
C00C
C00C
C004
8004
8004
8004
C00C
C00C
6018
7038
3FF0
0FC0
ENDCHAR
STARTCHAR 00D7
ENCODING 215
SWIDTH 495 0
DWIDTH 11 0
BBX 7 8 2 4
BITMAP
82
C6
6C
38
38
6C
C6
82
ENDCHAR
STARTCHAR 00D8
ENCODING 216
SWIDTH 720 0
DWIDTH 16 0
BBX 14 16 1 0
BITMAP
0FC4
3FFC
7038
6038
C03C
C06C
C0C4
8184
8304
8604
CC0C
D80C
7018
7038
FFF0
8FC0
ENDCHAR
STARTCHAR 00D9
ENCODING 217
SWIDTH 720 0
DWIDTH 16 0
BBX 12 21 2 0
BITMAP
0C00
0400
0600
0000
0000
8030
8030
8030
8030
8030
8030
8030
8030
8030
8030
8030
8030
C030
6060
7FC0
1F00
ENDCHAR
STARTCHAR 00DA
ENCODING 218
SWIDTH 720 0
DWIDTH 16 0
BBX 12 21 2 0
BITMAP
0200
0200
0600
0000
0000
8030
8030
8030
8030
8030
8030
8030
8030
8030
8030
8030
8030
C030
6060
7FC0
1F00
ENDCHAR
STARTCHAR 00DB
ENCODING 219
SWIDTH 720 0
DWIDTH 16 0
BBX 12 21 2 0
BITMAP
0600
0B00
1980
0000
0000
8030
8030
8030
8030
8030
8030
8030
8030
8030
8030
8030
8030
C030
6060
7FC0
1F00
ENDCHAR
STARTCHAR 00DC
ENCODING 220
SWIDTH 720 0
DWIDTH 16 0
BBX 12 20 2 0
BITMAP
1980
1980
0000
0000
8030
8030
8030
8030
8030
8030
8030
8030
8030
8030
8030
8030
C030
6060
7FC0
1F00
ENDCHAR
STARTCHAR 00DD
ENCODING 221
SWIDTH 540 0
DWIDTH 12 0
BBX 12 21 0 0
BITMAP
0300
0200
0600
0000
0000
C030
6020
6060
30C0
10C0
1980
0D80
0F00
0600
0600
0600
0600
0600
0600
0600
0600
ENDCHAR
STARTCHAR 00DE
ENCODING 222
SWIDTH 585 0
DWIDTH 13 0
BBX 11 16 2 0
BITMAP
8000
8000
8000
FF00
FF80
80C0
80C0
8060
8060
8040
80C0
FF80
FF00
8000
8000
8000
ENDCHAR
STARTCHAR 00DF
ENCODING 223
SWIDTH 585 0
DWIDTH 13 0
BBX 10 16 2 0
BITMAP
3C00
FF00
C300
8180
8180
8100
8300
8E00
8380
80C0
80C0
80C0
80C0
81C0
9F80
9E00
ENDCHAR
STARTCHAR 00E0
ENCODING 224
SWIDTH 540 0
DWIDTH 12 0
BBX 10 17 1 0
BITMAP
0800
0800
0C00
0000
0000
1F00
7F80
60C0
40C0
00C0
1FC0
70C0
C0C0
C0C0
C1C0
E740
3E40
ENDCHAR
STARTCHAR 00E1
ENCODING 225
SWIDTH 540 0
DWIDTH 12 0
BBX 10 17 1 0
BITMAP
0200
0600
0400
0000
0000
1F00
7F80
60C0
40C0
00C0
1FC0
70C0
C0C0
C0C0
C1C0
E740
3E40
ENDCHAR
STARTCHAR 00E2
ENCODING 226
SWIDTH 540 0
DWIDTH 12 0
BBX 10 17 1 0
BITMAP
0E00
1A00
3100
0000
0000
1F00
7F80
60C0
40C0
00C0
1FC0
70C0
C0C0
C0C0
C1C0
E740
3E40
ENDCHAR
STARTCHAR 00E3
ENCODING 227
SWIDTH 540 0
DWIDTH 12 0
BBX 10 16 1 0
BITMAP
3880
2780
0000
0000
1F00
7F80
60C0
40C0
00C0
1FC0
70C0
C0C0
C0C0
C1C0
E740
3E40
ENDCHAR
STARTCHAR 00E4
ENCODING 228
SWIDTH 540 0
DWIDTH 12 0
BBX 10 16 1 0
BITMAP
3100
3100
0000
0000
1F00
7F80
60C0
40C0
00C0
1FC0
70C0
C0C0
C0C0
C1C0
E740
3E40
ENDCHAR
STARTCHAR 00E5
ENCODING 229
SWIDTH 540 0
DWIDTH 12 0
BBX 10 18 1 0
BITMAP
0E00
1B00
1100
1B00
0E00
0000
1F00
7F80
60C0
40C0
00C0
1FC0
70C0
C0C0
C0C0
C1C0
E740
3E40
ENDCHAR
STARTCHAR 00E6
ENCODING 230
SWIDTH 945 0
DWIDTH 21 0
BBX 19 12 1 0
BITMAP
1F1F00
7FBFC0
40E0C0
00E060
00C060
3FFFE0
70C000
C0C000
C0E040
C1E0C0
E73FC0
3E1F00
ENDCHAR
STARTCHAR 00E7
ENCODING 231
SWIDTH 540 0
DWIDTH 12 0
BBX 10 17 1 -5
BITMAP
1F00
3F80
60C0
C040
C000
C000
C000
C000
C000
60C0
3FC0
1F00
0400
0C00
0200
0600
0C00
ENDCHAR
STARTCHAR 00E8
ENCODING 232
SWIDTH 585 0
DWIDTH 13 0
BBX 11 17 1 0
BITMAP
0800
0C00
0400
0000
0000
1F00
3F80
60C0
C060
C060
FFE0
C000
C000
C040
60C0
3FC0
1F00
ENDCHAR
STARTCHAR 00E9
ENCODING 233
SWIDTH 585 0
DWIDTH 13 0
BBX 11 17 1 0
BITMAP
0300
0200
0600
0000
0000
1F00
3F80
60C0
C060
C060
FFE0
C000
C000
C040
60C0
3FC0
1F00
ENDCHAR
STARTCHAR 00EA
ENCODING 234
SWIDTH 585 0
DWIDTH 13 0
BBX 11 17 1 0
BITMAP
0E00
0B00
1100
0000
0000
1F00
3F80
60C0
C060
C060
FFE0
C000
C000
C040
60C0
3FC0
1F00
ENDCHAR
STARTCHAR 00EB
ENCODING 235
SWIDTH 585 0
DWIDTH 13 0
BBX 11 16 1 0
BITMAP
1180
1180
0000
0000
1F00
3F80
60C0
C060
C060
FFE0
C000
C000
C040
60C0
3FC0
1F00
ENDCHAR
STARTCHAR 00EC
ENCODING 236
SWIDTH 225 0
DWIDTH 5 0
BBX 2 17 1 0
BITMAP
80
C0
40
00
00
40
40
40
40
40
40
40
40
40
40
40
40
ENDCHAR
STARTCHAR 00ED
ENCODING 237
SWIDTH 225 0
DWIDTH 5 0
BBX 2 17 2 0
BITMAP
40
40
C0
00
00
80
80
80
80
80
80
80
80
80
80
80
80
ENDCHAR
STARTCHAR 00EE
ENCODING 238
SWIDTH 225 0
DWIDTH 5 0
BBX 6 17 0 0
BITMAP
70
58
8C
00
00
20
20
20
20
20
20
20
20
20
20
20
20
ENDCHAR
STARTCHAR 00EF
ENCODING 239
SWIDTH 225 0
DWIDTH 5 0
BBX 6 16 0 0
BITMAP
8C
8C
00
00
20
20
20
20
20
20
20
20
20
20
20
20
ENDCHAR
STARTCHAR 00F0
ENCODING 240
SWIDTH 585 0
DWIDTH 13 0
BBX 11 18 1 0
BITMAP
0080
0F80
0700
0780
04C0
0040
1F60
3FE0
60E0
C060
C060
C060
C060
C060
C060
60C0
3F80
1F00
ENDCHAR
STARTCHAR 00F1
ENCODING 241
SWIDTH 585 0
DWIDTH 13 0
BBX 10 16 2 0
BITMAP
7900
4F00
0000
0000
9E00
FF80
C180
C0C0
80C0
80C0
80C0
80C0
80C0
80C0
80C0
80C0
ENDCHAR
STARTCHAR 00F2
ENCODING 242
SWIDTH 585 0
DWIDTH 13 0
BBX 11 17 1 0
BITMAP
0800
0800
0C00
0000
0000
1F00
3FC0
60C0
C060
C060
C060
C060
C060
C060
60C0
3FC0
1F00
ENDCHAR
STARTCHAR 00F3
ENCODING 243
SWIDTH 585 0
DWIDTH 13 0
BBX 11 17 1 0
BITMAP
0200
0200
0600
0000
0000
1F00
3FC0
60C0
C060
C060
C060
C060
C060
C060
60C0
3FC0
1F00
ENDCHAR
STARTCHAR 00F4
ENCODING 244
SWIDTH 585 0
DWIDTH 13 0
BBX 11 17 1 0
BITMAP
0E00
0B00
1100
0000
0000
1F00
3FC0
60C0
C060
C060
C060
C060
C060
C060
60C0
3FC0
1F00
ENDCHAR
STARTCHAR 00F5
ENCODING 245
SWIDTH 585 0
DWIDTH 13 0
BBX 11 16 1 0
BITMAP
1880
3780
0000
0000
1F00
3FC0
60C0
C060
C060
C060
C060
C060
C060
60C0
3FC0
1F00
ENDCHAR
STARTCHAR 00F6
ENCODING 246
SWIDTH 585 0
DWIDTH 13 0
BBX 11 16 1 0
BITMAP
1180
1180
0000
0000
1F00
3FC0
60C0
C060
C060
C060
C060
C060
C060
60C0
3FC0
1F00
ENDCHAR
STARTCHAR 00F7
ENCODING 247
SWIDTH 540 0
DWIDTH 12 0
BBX 10 8 1 4
BITMAP
0C00
0C00
0000
0000
FFC0
0000
0C00
0C00
ENDCHAR
STARTCHAR 00F8
ENCODING 248
SWIDTH 585 0
DWIDTH 13 0
BBX 11 12 1 0
BITMAP
1F20
3FE0
60C0
C1E0
C360
C620
CC60
D860
F060
60C0
FFC0
9F00
ENDCHAR
STARTCHAR 00F9
ENCODING 249
SWIDTH 585 0
DWIDTH 13 0
BBX 11 17 1 0
BITMAP
0800
0C00
0400
0000
0000
C060
C060
C060
C060
C060
C060
C060
C060
4060
60E0
3FE0
1E60
ENDCHAR
STARTCHAR 00FA
ENCODING 250
SWIDTH 585 0
DWIDTH 13 0
BBX 11 17 1 0
BITMAP
0200
0600
0400
0000
0000
C060
C060
C060
C060
C060
C060
C060
C060
4060
60E0
3FE0
1E60
ENDCHAR
STARTCHAR 00FB
ENCODING 251
SWIDTH 585 0
DWIDTH 13 0
BBX 11 17 1 0
BITMAP
0E00
1A00
1100
0000
0000
C060
C060
C060
C060
C060
C060
C060
C060
4060
60E0
3FE0
1E60
ENDCHAR
STARTCHAR 00FC
ENCODING 252
SWIDTH 585 0
DWIDTH 13 0
BBX 11 16 1 0
BITMAP
3100
3100
0000
0000
C060
C060
C060
C060
C060
C060
C060
C060
4060
60E0
3FE0
1E60
ENDCHAR
STARTCHAR 00FD
ENCODING 253
SWIDTH 540 0
DWIDTH 12 0
BBX 10 22 1 -5
BITMAP
0600
0400
0C00
0000
0000
80C0
C0C0
C080
4180
6180
2100
3300
3300
1200
1E00
0C00
0C00
0C00
0800
1800
1800
1000
ENDCHAR
STARTCHAR 00FE
ENCODING 254
SWIDTH 585 0
DWIDTH 13 0
BBX 10 21 2 -5
BITMAP
8000
8000
8000
8000
9E00
FF80
C180
80C0
80C0
80C0
80C0
80C0
80C0
C180
FF80
9E00
8000
8000
8000
8000
8000
ENDCHAR
STARTCHAR 00FF
ENCODING 255
SWIDTH 540 0
DWIDTH 12 0
BBX 10 21 1 -5
BITMAP
3300
3300
0000
0000
80C0
C0C0
C080
4180
6180
2100
3300
3300
1200
1E00
0C00
0C00
0C00
0800
1800
1800
1000
ENDCHAR
ENDFONT
