STARTFONT 2.1
COMMENT
COMMENT Converted from OpenType font "manrope-extrabold.otf" by "otf2bdf 3.0".
COMMENT
FONT -FreeType-Manrope ExtraBold-Medium-R-Normal--15-110-100-100-P-77-ISO10646-1
SIZE 11 100 100
FONTBOUNDINGBOX 15 20 0 -4
STARTPROPERTIES 19
FOUNDRY "FreeType"
FAMILY_NAME "Manrope ExtraBold"
WEIGHT_NAME "Medium"
SLANT "R"
SETWIDTH_NAME "Normal"
ADD_STYLE_NAME ""
PIXEL_SIZE 15
POINT_SIZE 110
RESOLUTION_X 100
RESOLUTION_Y 100
SPACING "P"
AVERAGE_WIDTH 77
CHARSET_REGISTRY "ISO10646"
CHARSET_ENCODING "1"
FONT_ASCENT 15
FONT_DESCENT 4
COPYRIGHT "Copyright 2019-2021 The Manrope Project Authors (https://github.com/sharanda/manrope)"
_OTF_FONTFILE "manrope-extrabold.otf"
_OTF_PSNAME "Manrope-ExtraBold"
ENDPROPERTIES
CHARS 191
STARTCHAR 0020
ENCODING 32
SWIDTH 196 0
DWIDTH 3 0
BBX 0 0 0 0
BITMAP
ENDCHAR
STARTCHAR 0021
ENCODING 33
SWIDTH 392 0
DWIDTH 6 0
BBX 2 11 2 0
BITMAP
C0
C0
C0
C0
C0
C0
C0
C0
00
C0
C0
ENDCHAR
STARTCHAR 0022
ENCODING 34
SWIDTH 523 0
DWIDTH 8 0
BBX 5 3 1 8
BITMAP
D8
D8
D8
ENDCHAR
STARTCHAR 0023
ENCODING 35
SWIDTH 916 0
DWIDTH 14 0
BBX 12 11 1 0
BITMAP
06C0
0CC0
7FF0
7FF0
1980
1980
FFE0
FFE0
3300
3300
3300
ENDCHAR
STARTCHAR 0024
ENCODING 36
SWIDTH 654 0
DWIDTH 10 0
BBX 8 13 1 -1
BITMAP
18
7C
FE
C7
C0
F8
7E
0F
C3
C3
FF
3C
18
ENDCHAR
STARTCHAR 0025
ENCODING 37
SWIDTH 916 0
DWIDTH 14 0
BBX 12 11 1 0
BITMAP
7060
F8E0
C9C0
FB80
7700
0E00
1CE0
39F0
7330
E1F0
41E0
ENDCHAR
STARTCHAR 0026
ENCODING 38
SWIDTH 654 0
DWIDTH 10 0
BBX 9 11 1 0
BITMAP
3C00
7E00
E600
C000
6000
7300
DF00
CF00
C700
FF80
7D00
ENDCHAR
STARTCHAR 0027
ENCODING 39
SWIDTH 261 0
DWIDTH 4 0
BBX 2 3 1 8
BITMAP
C0
C0
C0
ENDCHAR
STARTCHAR 0028
ENCODING 40
SWIDTH 458 0
DWIDTH 7 0
BBX 4 16 2 -3
BITMAP
30
30
60
60
60
C0
C0
C0
C0
C0
C0
60
60
60
30
10
ENDCHAR
STARTCHAR 0029
ENCODING 41
SWIDTH 458 0
DWIDTH 7 0
BBX 4 16 1 -3
BITMAP
C0
C0
60
60
20
30
30
30
30
30
30
20
60
60
C0
C0
ENDCHAR
STARTCHAR 002A
ENCODING 42
SWIDTH 458 0
DWIDTH 7 0
BBX 5 6 1 5
BITMAP
20
A8
F8
70
D8
40
ENDCHAR
STARTCHAR 002B
ENCODING 43
SWIDTH 589 0
DWIDTH 9 0
BBX 7 7 1 2
BITMAP
10
10
FE
FE
10
10
10
ENDCHAR
STARTCHAR 002C
ENCODING 44
SWIDTH 327 0
DWIDTH 5 0
BBX 2 4 1 -2
BITMAP
C0
C0
40
C0
ENDCHAR
STARTCHAR 002D
ENCODING 45
SWIDTH 392 0
DWIDTH 6 0
BBX 5 2 1 4
BITMAP
F8
F8
ENDCHAR
STARTCHAR 002E
ENCODING 46
SWIDTH 327 0
DWIDTH 5 0
BBX 2 2 1 0
BITMAP
C0
C0
ENDCHAR
STARTCHAR 002F
ENCODING 47
SWIDTH 458 0
DWIDTH 7 0
BBX 5 11 1 0
BITMAP
18
38
30
30
30
60
60
60
60
C0
C0
ENDCHAR
STARTCHAR 0030
ENCODING 48
SWIDTH 654 0
DWIDTH 10 0
BBX 8 11 1 0
BITMAP
3C
7E
E3
C3
C3
C3
C3
C3
E3
7E
3C
ENDCHAR
STARTCHAR 0031
ENCODING 49
SWIDTH 458 0
DWIDTH 7 0
BBX 4 11 1 0
BITMAP
70
F0
F0
30
30
30
30
30
30
30
30
ENDCHAR
STARTCHAR 0032
ENCODING 50
SWIDTH 589 0
DWIDTH 9 0
BBX 7 11 1 0
BITMAP
3C
FE
C6
C6
06
0E
1C
38
70
FE
FE
ENDCHAR
STARTCHAR 0033
ENCODING 51
SWIDTH 589 0
DWIDTH 9 0
BBX 7 11 1 0
BITMAP
FE
FE
0C
18
3C
3E
06
06
C6
FC
78
ENDCHAR
STARTCHAR 0034
ENCODING 52
SWIDTH 589 0
DWIDTH 9 0
BBX 8 11 1 0
BITMAP
18
38
30
30
66
66
C6
FF
FF
06
06
ENDCHAR
STARTCHAR 0035
ENCODING 53
SWIDTH 589 0
DWIDTH 9 0
BBX 7 11 1 0
BITMAP
FE
FE
C0
C0
FC
FE
06
06
C6
FC
78
ENDCHAR
STARTCHAR 0036
ENCODING 54
SWIDTH 654 0
DWIDTH 10 0
BBX 8 11 1 0
BITMAP
3C
7E
E0
C0
FC
FE
E7
C3
E7
7E
3C
ENDCHAR
STARTCHAR 0037
ENCODING 55
SWIDTH 523 0
DWIDTH 8 0
BBX 7 11 1 0
BITMAP
FE
FE
0C
0C
1C
18
38
30
30
60
60
ENDCHAR
STARTCHAR 0038
ENCODING 56
SWIDTH 654 0
DWIDTH 10 0
BBX 8 11 1 0
BITMAP
3C
7E
E6
C6
7E
7E
E6
C7
C6
7E
3C
ENDCHAR
STARTCHAR 0039
ENCODING 57
SWIDTH 654 0
DWIDTH 10 0
BBX 7 11 1 0
BITMAP
3C
FE
C6
C6
C6
FE
7E
06
06
7E
7C
ENDCHAR
STARTCHAR 003A
ENCODING 58
SWIDTH 327 0
DWIDTH 5 0
BBX 2 6 2 1
BITMAP
C0
C0
00
00
C0
C0
ENDCHAR
STARTCHAR 003B
ENCODING 59
SWIDTH 327 0
DWIDTH 5 0
BBX 2 11 2 -2
BITMAP
C0
C0
00
00
00
00
00
C0
C0
40
80
ENDCHAR
STARTCHAR 003C
ENCODING 60
SWIDTH 654 0
DWIDTH 10 0
BBX 5 7 2 1
BITMAP
18
30
60
E0
70
38
10
ENDCHAR
STARTCHAR 003D
ENCODING 61
SWIDTH 720 0
DWIDTH 11 0
BBX 8 5 2 3
BITMAP
FF
FF
00
FF
FF
ENDCHAR
STARTCHAR 003E
ENCODING 62
SWIDTH 654 0
DWIDTH 10 0
BBX 5 7 3 1
BITMAP
C0
E0
70
38
70
E0
40
ENDCHAR
STARTCHAR 003F
ENCODING 63
SWIDTH 589 0
DWIDTH 9 0
BBX 7 11 1 0
BITMAP
78
FC
C6
06
0C
1C
38
30
00
30
30
ENDCHAR
STARTCHAR 0040
ENCODING 64
SWIDTH 916 0
DWIDTH 14 0
BBX 12 12 1 -2
BITMAP
1F80
3FC0
6060
6FA0
DFB0
D9B0
D9B0
DFF0
6EE0
7000
3F00
0600
ENDCHAR
STARTCHAR 0041
ENCODING 65
SWIDTH 654 0
DWIDTH 10 0
BBX 10 11 0 0
BITMAP
0E00
1E00
1F00
1B00
3300
3300
3180
7F80
7F80
61C0
E0C0
ENDCHAR
STARTCHAR 0042
ENCODING 66
SWIDTH 654 0
DWIDTH 10 0
BBX 8 11 1 0
BITMAP
FC
FE
C3
C3
FE
FF
C3
C3
C3
FF
FE
ENDCHAR
STARTCHAR 0043
ENCODING 67
SWIDTH 720 0
DWIDTH 11 0
BBX 10 11 0 0
BITMAP
1F00
3FC0
70C0
6040
6000
E000
6000
6040
70C0
3FC0
1F00
ENDCHAR
STARTCHAR 0044
ENCODING 68
SWIDTH 720 0
DWIDTH 11 0
BBX 9 11 1 0
BITMAP
FC00
FF00
C300
C380
C180
C180
C180
C380
C300
FF00
FC00
ENDCHAR
STARTCHAR 0045
ENCODING 69
SWIDTH 589 0
DWIDTH 9 0
BBX 7 11 1 0
BITMAP
FE
FE
C0
C0
FC
FC
C0
C0
C0
FE
FE
ENDCHAR
STARTCHAR 0046
ENCODING 70
SWIDTH 523 0
DWIDTH 8 0
BBX 7 11 1 0
BITMAP
FE
FE
C0
C0
FC
FC
C0
C0
C0
C0
C0
ENDCHAR
STARTCHAR 0047
ENCODING 71
SWIDTH 720 0
DWIDTH 11 0
BBX 11 11 0 0
BITMAP
1F00
3FC0
70C0
60E0
6000
E1E0
61E0
60E0
70C0
3F80
1F00
ENDCHAR
STARTCHAR 0048
ENCODING 72
SWIDTH 720 0
DWIDTH 11 0
BBX 9 11 1 0
BITMAP
C180
C180
C180
C180
FF80
FF80
C180
C180
C180
C180
C180
ENDCHAR
STARTCHAR 0049
ENCODING 73
SWIDTH 327 0
DWIDTH 5 0
BBX 2 11 1 0
BITMAP
C0
C0
C0
C0
C0
C0
C0
C0
C0
C0
C0
ENDCHAR
STARTCHAR 004A
ENCODING 74
SWIDTH 523 0
DWIDTH 8 0
BBX 7 11 0 0
BITMAP
0E
0E
0E
0E
0E
0E
0E
0E
CE
FC
78
ENDCHAR
STARTCHAR 004B
ENCODING 75
SWIDTH 654 0
DWIDTH 10 0
BBX 9 11 1 0
BITMAP
C300
C700
CE00
DC00
D800
F000
D800
DC00
CE00
C700
C380
ENDCHAR
STARTCHAR 004C
ENCODING 76
SWIDTH 523 0
DWIDTH 8 0
BBX 7 11 1 0
BITMAP
C0
C0
C0
C0
C0
C0
C0
C0
C0
FE
FE
ENDCHAR
STARTCHAR 004D
ENCODING 77
SWIDTH 850 0
DWIDTH 13 0
BBX 11 11 1 0
BITMAP
C060
E0E0
E0E0
F1E0
F1E0
DBE0
DB60
DF60
CE60
CE60
C460
ENDCHAR
STARTCHAR 004E
ENCODING 78
SWIDTH 720 0
DWIDTH 11 0
BBX 9 11 1 0
BITMAP
C180
E180
F180
F180
D980
DD80
CD80
C780
C780
C380
C180
ENDCHAR
STARTCHAR 004F
ENCODING 79
SWIDTH 785 0
DWIDTH 12 0
BBX 11 11 0 0
BITMAP
1F00
3FC0
70C0
6060
6060
E060
6060
6060
70C0
3FC0
1F00
ENDCHAR
STARTCHAR 0050
ENCODING 80
SWIDTH 654 0
DWIDTH 10 0
BBX 8 11 1 0
BITMAP
FE
FF
C3
C3
C3
FF
FE
C0
C0
C0
C0
ENDCHAR
STARTCHAR 0051
ENCODING 81
SWIDTH 785 0
DWIDTH 12 0
BBX 11 11 0 0
BITMAP
1F00
3FC0
70C0
6060
6060
E060
6060
61E0
71C0
3FE0
1F40
ENDCHAR
STARTCHAR 0052
ENCODING 82
SWIDTH 654 0
DWIDTH 10 0
BBX 8 11 1 0
BITMAP
FE
FF
C3
C3
C3
FF
FE
C6
C6
C3
C3
ENDCHAR
STARTCHAR 0053
ENCODING 83
SWIDTH 654 0
DWIDTH 10 0
BBX 9 11 1 0
BITMAP
3C00
7F00
C300
C000
F800
7F00
0700
C380
E380
7F00
3E00
ENDCHAR
STARTCHAR 0054
ENCODING 84
SWIDTH 589 0
DWIDTH 9 0
BBX 9 11 0 0
BITMAP
FF80
FF80
0C00
0C00
0C00
0C00
0C00
0C00
0C00
0C00
0C00
ENDCHAR
STARTCHAR 0055
ENCODING 85
SWIDTH 720 0
DWIDTH 11 0
BBX 9 11 1 0
BITMAP
C180
C180
C180
C180
C180
C180
C180
C180
E380
7F00
3E00
ENDCHAR
STARTCHAR 0056
ENCODING 86
SWIDTH 654 0
DWIDTH 10 0
BBX 10 11 0 0
BITMAP
C0C0
6180
6180
6180
7380
3300
3300
3700
1E00
1E00
1E00
ENDCHAR
STARTCHAR 0057
ENCODING 87
SWIDTH 981 0
DWIDTH 15 0
BBX 15 11 0 0
BITMAP
C386
638E
638C
63CC
76CC
36D8
36D8
3C78
1C70
1C70
1C30
ENDCHAR
STARTCHAR 0058
ENCODING 88
SWIDTH 654 0
DWIDTH 10 0
BBX 10 11 0 0
BITMAP
61C0
7180
3300
1F00
1E00
0C00
1E00
3F00
3300
7180
E1C0
ENDCHAR
STARTCHAR 0059
ENCODING 89
SWIDTH 654 0
DWIDTH 10 0
BBX 9 11 0 0
BITMAP
E180
6380
7300
3700
1E00
1C00
0C00
0C00
0C00
0C00
0C00
ENDCHAR
STARTCHAR 005A
ENCODING 90
SWIDTH 654 0
DWIDTH 10 0
BBX 8 11 1 0
BITMAP
FF
FF
06
0E
1C
1C
38
30
70
FF
FF
ENDCHAR
STARTCHAR 005B
ENCODING 91
SWIDTH 458 0
DWIDTH 7 0
BBX 4 17 2 -3
BITMAP
F0
F0
C0
C0
C0
C0
C0
C0
C0
C0
C0
C0
C0
C0
C0
F0
F0
ENDCHAR
STARTCHAR 005C
ENCODING 92
SWIDTH 458 0
DWIDTH 7 0
BBX 5 11 1 0
BITMAP
C0
C0
60
60
60
60
30
30
30
38
18
ENDCHAR
STARTCHAR 005D
ENCODING 93
SWIDTH 458 0
DWIDTH 7 0
BBX 3 17 1 -3
BITMAP
E0
E0
20
20
20
20
20
20
20
20
20
20
20
20
20
E0
E0
ENDCHAR
STARTCHAR 005E
ENCODING 94
SWIDTH 654 0
DWIDTH 10 0
BBX 7 5 2 6
BITMAP
10
38
7C
CE
84
ENDCHAR
STARTCHAR 005F
ENCODING 95
SWIDTH 654 0
DWIDTH 10 0
BBX 10 2 0 -2
BITMAP
FFC0
FFC0
ENDCHAR
STARTCHAR 0060
ENCODING 96
SWIDTH 523 0
DWIDTH 8 0
BBX 2 3 3 12
BITMAP
80
C0
C0
ENDCHAR
STARTCHAR 0061
ENCODING 97
SWIDTH 589 0
DWIDTH 9 0
BBX 7 9 1 0
BITMAP
7C
FE
C6
0E
FE
E6
C6
FE
76
ENDCHAR
STARTCHAR 0062
ENCODING 98
SWIDTH 654 0
DWIDTH 10 0
BBX 8 11 1 0
BITMAP
C0
C0
FC
FE
C7
C3
C3
C3
C7
FE
FC
ENDCHAR
STARTCHAR 0063
ENCODING 99
SWIDTH 589 0
DWIDTH 9 0
BBX 7 9 1 0
BITMAP
3C
7E
C6
C0
C0
C0
C6
FE
3C
ENDCHAR
STARTCHAR 0064
ENCODING 100
SWIDTH 654 0
DWIDTH 10 0
BBX 7 11 1 0
BITMAP
06
06
3E
FE
C6
C2
C2
C2
C6
FE
3A
ENDCHAR
STARTCHAR 0065
ENCODING 101
SWIDTH 589 0
DWIDTH 9 0
BBX 8 9 1 0
BITMAP
3C
7E
C6
FF
FF
C0
C6
7E
3C
ENDCHAR
STARTCHAR 0066
ENCODING 102
SWIDTH 392 0
DWIDTH 6 0
BBX 6 11 0 0
BITMAP
1C
3C
FC
FC
30
30
30
30
30
30
30
ENDCHAR
STARTCHAR 0067
ENCODING 103
SWIDTH 654 0
DWIDTH 10 0
BBX 7 13 1 -4
BITMAP
3A
FE
C6
C2
C2
C2
C6
FE
3E
06
06
7E
3C
ENDCHAR
STARTCHAR 0068
ENCODING 104
SWIDTH 654 0
DWIDTH 10 0
BBX 8 11 1 0
BITMAP
C0
C0
DC
FE
E7
C3
C3
C3
C3
C3
C3
ENDCHAR
STARTCHAR 0069
ENCODING 105
SWIDTH 327 0
DWIDTH 5 0
BBX 2 11 1 0
BITMAP
C0
C0
C0
C0
C0
C0
C0
C0
C0
C0
C0
ENDCHAR
STARTCHAR 006A
ENCODING 106
SWIDTH 327 0
DWIDTH 5 0
BBX 4 15 0 -4
BITMAP
70
70
70
70
70
70
70
70
70
70
70
70
70
E0
E0
ENDCHAR
STARTCHAR 006B
ENCODING 107
SWIDTH 523 0
DWIDTH 8 0
BBX 7 11 1 0
BITMAP
C0
C0
C6
CE
DC
D8
F8
D8
DC
CE
C6
ENDCHAR
STARTCHAR 006C
ENCODING 108
SWIDTH 327 0
DWIDTH 5 0
BBX 2 11 1 0
BITMAP
C0
C0
C0
C0
C0
C0
C0
C0
C0
C0
C0
ENDCHAR
STARTCHAR 006D
ENCODING 109
SWIDTH 916 0
DWIDTH 14 0
BBX 12 9 1 0
BITMAP
DCE0
FFF0
C630
C630
C630
C630
C630
C630
C630
ENDCHAR
STARTCHAR 006E
ENCODING 110
SWIDTH 654 0
DWIDTH 10 0
BBX 8 9 1 0
BITMAP
DC
FE
E7
C3
C3
C3
C3
C3
C3
ENDCHAR
STARTCHAR 006F
ENCODING 111
SWIDTH 654 0
DWIDTH 10 0
BBX 8 9 1 0
BITMAP
3C
7E
C7
C3
C3
C3
C7
7E
3C
ENDCHAR
STARTCHAR 0070
ENCODING 112
SWIDTH 654 0
DWIDTH 10 0
BBX 8 12 1 -3
BITMAP
FC
FE
C7
C3
C3
C3
C7
FE
FC
C0
C0
C0
ENDCHAR
STARTCHAR 0071
ENCODING 113
SWIDTH 654 0
DWIDTH 10 0
BBX 7 12 1 -3
BITMAP
3A
FE
C6
C2
C2
C2
C6
FE
3E
06
06
06
ENDCHAR
STARTCHAR 0072
ENCODING 114
SWIDTH 392 0
DWIDTH 6 0
BBX 5 9 1 0
BITMAP
D8
F8
E0
C0
C0
C0
C0
C0
C0
ENDCHAR
STARTCHAR 0073
ENCODING 115
SWIDTH 523 0
DWIDTH 8 0
BBX 7 9 1 0
BITMAP
78
FC
CE
F0
7C
0E
C6
FC
78
ENDCHAR
STARTCHAR 0074
ENCODING 116
SWIDTH 458 0
DWIDTH 7 0
BBX 6 11 0 0
BITMAP
30
30
FC
FC
30
30
30
30
30
3C
3C
ENDCHAR
STARTCHAR 0075
ENCODING 117
SWIDTH 654 0
DWIDTH 10 0
BBX 8 9 1 0
BITMAP
C3
C3
C3
C3
C3
C7
E7
FF
7B
ENDCHAR
STARTCHAR 0076
ENCODING 118
SWIDTH 589 0
DWIDTH 9 0
BBX 8 9 0 0
BITMAP
E3
63
63
66
36
36
3C
1C
1C
ENDCHAR
STARTCHAR 0077
ENCODING 119
SWIDTH 785 0
DWIDTH 12 0
BBX 12 9 0 0
BITMAP
C630
6730
6760
6F60
3D60
39E0
39C0
38C0
18C0
ENDCHAR
STARTCHAR 0078
ENCODING 120
SWIDTH 589 0
DWIDTH 9 0
BBX 8 9 0 0
BITMAP
63
76
3E
3C
1C
3C
3E
76
E3
ENDCHAR
STARTCHAR 0079
ENCODING 121
SWIDTH 589 0
DWIDTH 9 0
BBX 9 12 0 -3
BITMAP
C380
6300
6300
3600
3600
3600
1C00
1C00
1800
1800
1800
3000
ENDCHAR
STARTCHAR 007A
ENCODING 122
SWIDTH 523 0
DWIDTH 8 0
BBX 7 9 0 0
BITMAP
7E
7E
0C
1C
18
38
30
7E
FE
ENDCHAR
STARTCHAR 007B
ENCODING 123
SWIDTH 458 0
DWIDTH 7 0
BBX 4 17 2 -3
BITMAP
30
70
60
60
60
60
60
60
C0
60
60
60
60
60
60
70
30
ENDCHAR
STARTCHAR 007C
ENCODING 124
SWIDTH 327 0
DWIDTH 5 0
BBX 2 11 1 0
BITMAP
C0
C0
C0
C0
C0
C0
C0
C0
C0
C0
C0
ENDCHAR
STARTCHAR 007D
ENCODING 125
SWIDTH 458 0
DWIDTH 7 0
BBX 4 17 1 -3
BITMAP
C0
E0
60
60
60
60
60
60
30
60
60
60
60
60
60
E0
C0
ENDCHAR
STARTCHAR 007E
ENCODING 126
SWIDTH 720 0
DWIDTH 11 0
BBX 8 4 2 3
BITMAP
E0
F3
DE
0E
ENDCHAR
STARTCHAR 00A0
ENCODING 160
SWIDTH 196 0
DWIDTH 3 0
BBX 0 0 0 0
BITMAP
ENDCHAR
STARTCHAR 00A1
ENCODING 161
SWIDTH 392 0
DWIDTH 6 0
BBX 2 11 2 -2
BITMAP
C0
C0
00
C0
C0
C0
C0
C0
C0
C0
C0
ENDCHAR
STARTCHAR 00A2
ENCODING 162
SWIDTH 589 0
DWIDTH 9 0
BBX 7 11 1 0
BITMAP
18
18
7E
EE
C4
C0
C0
C6
FE
7C
18
ENDCHAR
STARTCHAR 00A3
ENCODING 163
SWIDTH 589 0
DWIDTH 9 0
BBX 7 11 1 0
BITMAP
3C
7C
66
60
60
F8
F8
60
60
FC
FC
ENDCHAR
STARTCHAR 00A4
ENCODING 164
SWIDTH 654 0
DWIDTH 10 0
BBX 9 9 1 1
BITMAP
DD80
FF00
6300
C300
C300
C300
6300
FF00
DD80
ENDCHAR
STARTCHAR 00A5
ENCODING 165
SWIDTH 654 0
DWIDTH 10 0
BBX 9 11 0 0
BITMAP
E180
6380
7300
3700
1E00
3F00
3F00
0C00
3F00
3F00
0C00
ENDCHAR
STARTCHAR 00A6
ENCODING 166
SWIDTH 327 0
DWIDTH 5 0
BBX 2 14 1 -3
BITMAP
C0
C0
C0
C0
C0
C0
00
00
C0
C0
C0
C0
C0
C0
ENDCHAR
STARTCHAR 00A7
ENCODING 167
SWIDTH 523 0
DWIDTH 8 0
BBX 7 12 1 -2
BITMAP
78
FC
CC
F0
7C
CE
CE
FC
1C
CE
FC
78
ENDCHAR
STARTCHAR 00A8
ENCODING 168
SWIDTH 589 0
DWIDTH 9 0
BBX 5 2 2 12
BITMAP
D8
D8
ENDCHAR
STARTCHAR 00A9
ENCODING 169
SWIDTH 916 0
DWIDTH 14 0
BBX 14 13 0 -1
BITMAP
0FC0
1FE0
3870
6798
6FD8
4C98
CC0C
4C18
6FD8
6798
3870
1FE0
0FC0
ENDCHAR
STARTCHAR 00AA
ENCODING 170
SWIDTH 327 0
DWIDTH 5 0
BBX 3 4 1 5
BITMAP
E0
20
E0
E0
ENDCHAR
STARTCHAR 00AB
ENCODING 171
SWIDTH 589 0
DWIDTH 9 0
BBX 7 7 1 1
BITMAP
02
36
6C
C8
6C
26
12
ENDCHAR
STARTCHAR 00AC
ENCODING 172
SWIDTH 589 0
DWIDTH 9 0
BBX 7 3 1 3
BITMAP
FE
FE
02
ENDCHAR
STARTCHAR 00AD
ENCODING 173
SWIDTH 392 0
DWIDTH 6 0
BBX 5 2 1 4
BITMAP
F8
F8
ENDCHAR
STARTCHAR 00AE
ENCODING 174
SWIDTH 654 0
DWIDTH 10 0
BBX 8 8 1 4
BITMAP
3C
66
DB
A5
99
C3
66
3C
ENDCHAR
STARTCHAR 00AF
ENCODING 175
SWIDTH 523 0
DWIDTH 8 0
BBX 4 2 2 13
BITMAP
F0
F0
ENDCHAR
STARTCHAR 00B0
ENCODING 176
SWIDTH 458 0
DWIDTH 7 0
BBX 6 6 0 5
BITMAP
38
7C
CC
4C
7C
30
ENDCHAR
STARTCHAR 00B1
ENCODING 177
SWIDTH 589 0
DWIDTH 9 0
BBX 7 8 1 1
BITMAP
10
10
FE
FE
10
00
FE
FE
ENDCHAR
STARTCHAR 00B2
ENCODING 178
SWIDTH 392 0
DWIDTH 6 0
BBX 5 7 1 4
BITMAP
70
90
18
30
60
C0
F8
ENDCHAR
STARTCHAR 00B3
ENCODING 179
SWIDTH 392 0
DWIDTH 6 0
BBX 4 7 1 4
BITMAP
F0
30
70
10
10
90
E0
ENDCHAR
STARTCHAR 00B4
ENCODING 180
SWIDTH 523 0
DWIDTH 8 0
BBX 3 3 3 12
BITMAP
60
40
C0
ENDCHAR
STARTCHAR 00B5
ENCODING 181
SWIDTH 654 0
DWIDTH 10 0
BBX 8 13 1 -4
BITMAP
C3
C3
C3
C3
C3
C3
E7
FF
FB
C0
C0
C0
C0
ENDCHAR
STARTCHAR 00B6
ENCODING 182
SWIDTH 720 0
DWIDTH 11 0
BBX 10 13 1 -2
BITMAP
7CC0
FCC0
FCC0
FCC0
FCC0
FCC0
7CC0
0CC0
0CC0
0CC0
0CC0
0CC0
0CC0
ENDCHAR
STARTCHAR 00B7
ENCODING 183
SWIDTH 261 0
DWIDTH 4 0
BBX 2 2 1 4
BITMAP
C0
C0
ENDCHAR
STARTCHAR 00B8
ENCODING 184
SWIDTH 392 0
DWIDTH 6 0
BBX 3 4 2 -4
BITMAP
40
C0
60
C0
ENDCHAR
STARTCHAR 00B9
ENCODING 185
SWIDTH 327 0
DWIDTH 5 0
BBX 3 7 1 4
BITMAP
E0
E0
60
60
60
60
60
ENDCHAR
STARTCHAR 00BA
ENCODING 186
SWIDTH 327 0
DWIDTH 5 0
BBX 4 5 1 4
BITMAP
E0
B0
90
B0
E0
ENDCHAR
STARTCHAR 00BB
ENCODING 187
SWIDTH 589 0
DWIDTH 9 0
BBX 7 7 1 1
BITMAP
08
C8
6C
36
64
C8
88
ENDCHAR
STARTCHAR 00BC
ENCODING 188
SWIDTH 1047 0
DWIDTH 16 0
BBX 13 11 1 0
BITMAP
E040
E0C0
6080
6180
6330
6220
6660
0C58
1858
10F8
1018
ENDCHAR
STARTCHAR 00BD
ENCODING 189
SWIDTH 1047 0
DWIDTH 16 0
BBX 14 11 1 0
BITMAP
E040
E0C0
60C0
6180
6338
626C
6604
0C0C
1818
1030
107C
ENDCHAR
STARTCHAR 00BE
ENCODING 190
SWIDTH 1047 0
DWIDTH 16 0
BBX 14 11 1 0
BITMAP
F020
3060
7040
10C0
1190
9310
E230
0628
0C68
087C
0808
ENDCHAR
STARTCHAR 00BF
ENCODING 191
SWIDTH 589 0
DWIDTH 9 0
BBX 7 12 1 -3
BITMAP
38
38
00
38
30
70
E0
C0
C0
CE
FC
78
ENDCHAR
STARTCHAR 00C0
ENCODING 192
SWIDTH 654 0
DWIDTH 10 0
BBX 10 15 0 0
BITMAP
1800
0800
0C00
0000
0E00
1E00
1F00
1B00
3300
3300
3180
7F80
7F80
61C0
E0C0
ENDCHAR
STARTCHAR 00C1
ENCODING 193
SWIDTH 654 0
DWIDTH 10 0
BBX 10 15 0 0
BITMAP
0200
0600
0400
0000
0E00
1E00
1F00
1B00
3300
3300
3180
7F80
7F80
61C0
E0C0
ENDCHAR
STARTCHAR 00C2
ENCODING 194
SWIDTH 654 0
DWIDTH 10 0
BBX 10 15 0 0
BITMAP
0C00
1E00
1300
0000
0E00
1E00
1F00
1B00
3300
3300
3180
7F80
7F80
61C0
E0C0
ENDCHAR
STARTCHAR 00C3
ENCODING 195
SWIDTH 654 0
DWIDTH 10 0
BBX 10 15 0 0
BITMAP
1900
3F00
0000
0000
0E00
1E00
1F00
1B00
3300
3300
3180
7F80
7F80
61C0
E0C0
ENDCHAR
STARTCHAR 00C4
ENCODING 196
SWIDTH 654 0
DWIDTH 10 0
BBX 10 14 0 0
BITMAP
1B00
1B00
0000
0E00
1E00
1F00
1B00
3300
3300
3180
7F80
7F80
61C0
E0C0
ENDCHAR
STARTCHAR 00C5
ENCODING 197
SWIDTH 654 0
DWIDTH 10 0
BBX 10 16 0 0
BITMAP
0E00
1A00
1200
0E00
0000
0E00
1E00
1F00
1B00
3300
3300
3180
7F80
7F80
61C0
E0C0
ENDCHAR
STARTCHAR 00C6
ENCODING 198
SWIDTH 916 0
DWIDTH 14 0
BBX 14 11 0 0
BITMAP
0FFC
1FFC
1B80
1B80
33F8
33F8
3380
7F80
7F80
63FC
E3FC
ENDCHAR
STARTCHAR 00C7
ENCODING 199
SWIDTH 720 0
DWIDTH 11 0
BBX 10 14 0 -3
BITMAP
1F00
3FC0
70C0
60C0
6000
E000
6000
6040
70C0
3FC0
1F00
0600
0200
0600
ENDCHAR
STARTCHAR 00C8
ENCODING 200
SWIDTH 589 0
DWIDTH 9 0
BBX 7 15 1 0
BITMAP
30
30
10
00
FE
FE
C0
C0
FC
FC
C0
C0
C0
FE
FE
ENDCHAR
STARTCHAR 00C9
ENCODING 201
SWIDTH 589 0
DWIDTH 9 0
BBX 7 15 1 0
BITMAP
0C
08
18
00
FE
FE
C0
C0
FC
FC
C0
C0
C0
FE
FE
ENDCHAR
STARTCHAR 00CA
ENCODING 202
SWIDTH 589 0
DWIDTH 9 0
BBX 7 15 1 0
BITMAP
10
38
6C
00
FE
FE
C0
C0
FC
FC
C0
C0
C0
FE
FE
ENDCHAR
STARTCHAR 00CB
ENCODING 203
SWIDTH 589 0
DWIDTH 9 0
BBX 7 14 1 0
BITMAP
6C
6C
00
FE
FE
C0
C0
FC
FC
C0
C0
C0
FE
FE
ENDCHAR
STARTCHAR 00CC
ENCODING 204
SWIDTH 327 0
DWIDTH 5 0
BBX 3 15 0 0
BITMAP
C0
40
60
00
60
60
60
60
60
60
60
60
60
60
60
ENDCHAR
STARTCHAR 00CD
ENCODING 205
SWIDTH 327 0
DWIDTH 5 0
BBX 3 15 1 0
BITMAP
20
60
40
00
C0
C0
C0
C0
C0
C0
C0
C0
C0
C0
C0
ENDCHAR
STARTCHAR 00CE
ENCODING 206
SWIDTH 327 0
DWIDTH 5 0
BBX 5 15 0 0
BITMAP
60
F0
98
00
60
60
60
60
60
60
60
60
60
60
60
ENDCHAR
STARTCHAR 00CF
ENCODING 207
SWIDTH 327 0
DWIDTH 5 0
BBX 5 14 0 0
BITMAP
D8
D8
00
60
60
60
60
60
60
60
60
60
60
60
ENDCHAR
STARTCHAR 00D0
ENCODING 208
SWIDTH 720 0
DWIDTH 11 0
BBX 10 11 0 0
BITMAP
7E00
7F80
61C0
60C0
F8C0
F8C0
60C0
61C0
6180
7F80
7E00
ENDCHAR
STARTCHAR 00D1
ENCODING 209
SWIDTH 720 0
DWIDTH 11 0
BBX 9 15 1 0
BITMAP
3800
3F00
0600
0000
C180
E180
F180
F180
D980
DD80
CD80
C780
C780
C380
C180
ENDCHAR
STARTCHAR 00D2
ENCODING 210
SWIDTH 785 0
DWIDTH 12 0
BBX 11 15 0 0
BITMAP
0800
0C00
0400
0000
1F00
3FC0
70C0
6060
6060
E060
6060
6060
70C0
3FC0
1F00
ENDCHAR
STARTCHAR 00D3
ENCODING 211
SWIDTH 785 0
DWIDTH 12 0
BBX 11 15 0 0
BITMAP
0300
0200
0600
0000
1F00
3FC0
70C0
6060
6060
E060
6060
6060
70C0
3FC0
1F00
ENDCHAR
STARTCHAR 00D4
ENCODING 212
SWIDTH 785 0
DWIDTH 12 0
BBX 11 15 0 0
BITMAP
0600
0E00
1B00
0000
1F00
3FC0
70C0
6060
6060
E060
6060
6060
70C0
3FC0
1F00
ENDCHAR
STARTCHAR 00D5
ENCODING 213
SWIDTH 785 0
DWIDTH 12 0
BBX 11 14 0 0
BITMAP
1F80
1300
0000
1F00
3FC0
70C0
6060
6060
E060
6060
6060
70C0
3FC0
1F00
ENDCHAR
STARTCHAR 00D6
ENCODING 214
SWIDTH 785 0
DWIDTH 12 0
BBX 11 14 0 0
BITMAP
1B00
1B00
0000
1F00
3FC0
70C0
6060
6060
E060
6060
6060
70C0
3FC0
1F00
ENDCHAR
STARTCHAR 00D7
ENCODING 215
SWIDTH 523 0
DWIDTH 8 0
BBX 6 6 1 3
BITMAP
48
FC
78
78
FC
48
ENDCHAR
STARTCHAR 00D8
ENCODING 216
SWIDTH 785 0
DWIDTH 12 0
BBX 11 11 0 0
BITMAP
1F40
3FE0
70C0
61E0
6360
E660
6C60
7860
70C0
7FC0
3F00
ENDCHAR
STARTCHAR 00D9
ENCODING 217
SWIDTH 720 0
DWIDTH 11 0
BBX 9 15 1 0
BITMAP
1000
1800
0800
0000
C180
C180
C180
C180
C180
C180
C180
C180
E380
7F00
3E00
ENDCHAR
STARTCHAR 00DA
ENCODING 218
SWIDTH 720 0
DWIDTH 11 0
BBX 9 15 1 0
BITMAP
0400
0C00
0800
0000
C180
C180
C180
C180
C180
C180
C180
C180
E380
7F00
3E00
ENDCHAR
STARTCHAR 00DB
ENCODING 219
SWIDTH 720 0
DWIDTH 11 0
BBX 9 15 1 0
BITMAP
0800
1C00
3600
0000
C180
C180
C180
C180
C180
C180
C180
C180
E380
7F00
3E00
ENDCHAR
STARTCHAR 00DC
ENCODING 220
SWIDTH 720 0
DWIDTH 11 0
BBX 9 14 1 0
BITMAP
3600
3600
0000
C180
C180
C180
C180
C180
C180
C180
C180
E380
7F00
3E00
ENDCHAR
STARTCHAR 00DD
ENCODING 221
SWIDTH 654 0
DWIDTH 10 0
BBX 9 15 0 0
BITMAP
0600
0400
0C00
0000
E180
6380
7300
3700
1E00
1C00
0C00
0C00
0C00
0C00
0C00
ENDCHAR
STARTCHAR 00DE
ENCODING 222
SWIDTH 654 0
DWIDTH 10 0
BBX 8 11 1 0
BITMAP
C0
C0
FE
FF
C3
C3
C3
FF
FE
C0
C0
ENDCHAR
STARTCHAR 00DF
ENCODING 223
SWIDTH 654 0
DWIDTH 10 0
BBX 8 11 1 0
BITMAP
78
FE
C6
C6
CE
CE
C7
C3
C3
DF
DE
ENDCHAR
STARTCHAR 00E0
ENCODING 224
SWIDTH 589 0
DWIDTH 9 0
BBX 7 13 1 0
BITMAP
20
30
10
00
7C
FE
C6
0E
FE
E6
C6
FE
76
ENDCHAR
STARTCHAR 00E1
ENCODING 225
SWIDTH 589 0
DWIDTH 9 0
BBX 7 13 1 0
BITMAP
08
18
18
00
7C
FE
C6
0E
FE
E6
C6
FE
76
ENDCHAR
STARTCHAR 00E2
ENCODING 226
SWIDTH 589 0
DWIDTH 9 0
BBX 7 13 1 0
BITMAP
10
38
6C
00
7C
FE
C6
0E
FE
E6
C6
FE
76
ENDCHAR
STARTCHAR 00E3
ENCODING 227
SWIDTH 589 0
DWIDTH 9 0
BBX 7 12 1 0
BITMAP
7E
4C
00
7C
FE
C6
0E
FE
E6
C6
FE
76
ENDCHAR
STARTCHAR 00E4
ENCODING 228
SWIDTH 589 0
DWIDTH 9 0
BBX 7 12 1 0
BITMAP
6C
6C
00
7C
FE
C6
0E
FE
E6
C6
FE
76
ENDCHAR
STARTCHAR 00E5
ENCODING 229
SWIDTH 589 0
DWIDTH 9 0
BBX 7 14 1 0
BITMAP
38
2C
2C
38
00
7C
FE
C6
0E
7E
E6
C6
FE
76
ENDCHAR
STARTCHAR 00E6
ENCODING 230
SWIDTH 916 0
DWIDTH 14 0
BBX 13 9 1 0
BITMAP
3DE0
FFF0
C730
0FF8
7FF8
C600
C730
FFF0
79E0
ENDCHAR
STARTCHAR 00E7
ENCODING 231
SWIDTH 589 0
DWIDTH 9 0
BBX 7 12 1 -3
BITMAP
3C
7E
C6
C0
C0
C0
C6
FE
3C
10
08
18
ENDCHAR
STARTCHAR 00E8
ENCODING 232
SWIDTH 589 0
DWIDTH 9 0
BBX 8 13 1 0
BITMAP
20
30
10
00
3C
7E
C6
FF
FF
C0
C6
7E
3C
ENDCHAR
STARTCHAR 00E9
ENCODING 233
SWIDTH 589 0
DWIDTH 9 0
BBX 8 13 1 0
BITMAP
0C
08
18
00
3C
7E
C6
FF
FF
C0
C6
7E
3C
ENDCHAR
STARTCHAR 00EA
ENCODING 234
SWIDTH 589 0
DWIDTH 9 0
BBX 8 13 1 0
BITMAP
18
38
6C
00
3C
7E
C6
FF
FF
C0
C6
7E
3C
ENDCHAR
STARTCHAR 00EB
ENCODING 235
SWIDTH 589 0
DWIDTH 9 0
BBX 8 12 1 0
BITMAP
6C
6C
00
3C
7E
C6
FF
FF
C0
C6
7E
3C
ENDCHAR
STARTCHAR 00EC
ENCODING 236
SWIDTH 327 0
DWIDTH 5 0
BBX 3 13 0 0
BITMAP
C0
40
60
00
60
60
60
60
60
60
60
60
60
ENDCHAR
STARTCHAR 00ED
ENCODING 237
SWIDTH 327 0
DWIDTH 5 0
BBX 3 13 1 0
BITMAP
20
60
40
00
C0
C0
C0
C0
C0
C0
C0
C0
C0
ENDCHAR
STARTCHAR 00EE
ENCODING 238
SWIDTH 327 0
DWIDTH 5 0
BBX 5 13 0 0
BITMAP
20
70
D8
00
60
60
60
60
60
60
60
60
60
ENDCHAR
STARTCHAR 00EF
ENCODING 239
SWIDTH 327 0
DWIDTH 5 0
BBX 5 12 0 0
BITMAP
D8
D8
00
60
60
60
60
60
60
60
60
60
ENDCHAR
STARTCHAR 00F0
ENCODING 240
SWIDTH 589 0
DWIDTH 9 0
BBX 8 12 1 0
BITMAP
04
3C
1C
16
3E
FE
C7
C7
C7
C6
FE
3C
ENDCHAR
STARTCHAR 00F1
ENCODING 241
SWIDTH 654 0
DWIDTH 10 0
BBX 8 13 1 0
BITMAP
70
7E
4C
00
DC
FE
E7
C3
C3
C3
C3
C3
C3
ENDCHAR
STARTCHAR 00F2
ENCODING 242
SWIDTH 654 0
DWIDTH 10 0
BBX 8 13 1 0
BITMAP
20
30
10
00
3C
7E
C7
C3
C3
C3
C7
7E
3C
ENDCHAR
STARTCHAR 00F3
ENCODING 243
SWIDTH 654 0
DWIDTH 10 0
BBX 8 13 1 0
BITMAP
0C
08
18
00
3C
7E
C7
C3
C3
C3
C7
7E
3C
ENDCHAR
STARTCHAR 00F4
ENCODING 244
SWIDTH 654 0
DWIDTH 10 0
BBX 8 13 1 0
BITMAP
18
3C
6C
00
3C
7E
C7
C3
C3
C3
C7
7E
3C
ENDCHAR
STARTCHAR 00F5
ENCODING 245
SWIDTH 654 0
DWIDTH 10 0
BBX 8 12 1 0
BITMAP
7E
4C
00
3C
7E
C7
C3
C3
C3
C7
7E
3C
ENDCHAR
STARTCHAR 00F6
ENCODING 246
SWIDTH 654 0
DWIDTH 10 0
BBX 8 12 1 0
BITMAP
6C
6C
00
3C
7E
C7
C3
C3
C3
C7
7E
3C
ENDCHAR
STARTCHAR 00F7
ENCODING 247
SWIDTH 523 0
DWIDTH 8 0
BBX 6 7 1 2
BITMAP
30
30
FC
FC
00
30
30
ENDCHAR
STARTCHAR 00F8
ENCODING 248
SWIDTH 654 0
DWIDTH 10 0
BBX 8 9 1 0
BITMAP
3E
7F
C7
CF
DB
F3
E7
FE
BC
ENDCHAR
STARTCHAR 00F9
ENCODING 249
SWIDTH 654 0
DWIDTH 10 0
BBX 8 13 1 0
BITMAP
30
30
10
00
C3
C3
C3
C3
C3
C7
E7
FF
7B
ENDCHAR
STARTCHAR 00FA
ENCODING 250
SWIDTH 654 0
DWIDTH 10 0
BBX 8 13 1 0
BITMAP
08
18
18
00
C3
C3
C3
C3
C3
C7
E7
FF
7B
ENDCHAR
STARTCHAR 00FB
ENCODING 251
SWIDTH 654 0
DWIDTH 10 0
BBX 8 13 1 0
BITMAP
18
38
6C
00
C3
C3
C3
C3
C3
C7
E7
FF
7B
ENDCHAR
STARTCHAR 00FC
ENCODING 252
SWIDTH 654 0
DWIDTH 10 0
BBX 8 12 1 0
BITMAP
6C
6C
00
C3
C3
C3
C3
C3
C7
E7
FF
7B
ENDCHAR
STARTCHAR 00FD
ENCODING 253
SWIDTH 589 0
DWIDTH 9 0
BBX 9 16 0 -3
BITMAP
0400
0C00
0800
0000
C380
6300
6300
3600
3600
3600
1C00
1C00
1800
1800
1800
3000
ENDCHAR
STARTCHAR 00FE
ENCODING 254
SWIDTH 654 0
DWIDTH 10 0
BBX 8 14 1 -3
BITMAP
C0
C0
FC
FE
C7
C3
C3
C3
C7
FE
FC
C0
C0
C0
ENDCHAR
STARTCHAR 00FF
ENCODING 255
SWIDTH 589 0
DWIDTH 9 0
BBX 9 15 0 -3
BITMAP
3600
3600
0000
C380
6300
6300
3600
3600
3600
1C00
1C00
1800
1800
1800
3000
ENDCHAR
ENDFONT
