STARTFONT 2.1
COMMENT
COMMENT Converted from OpenType font "Manrope-ExtraLight.otf" by "otf2bdf 3.0".
COMMENT
FONT -FreeType-Manrope ExtraLight-Medium-R-Normal--12-90-100-100-P-57-ISO10646-1
SIZE 9 100 100
FONTBOUNDINGBOX 11 15 0 -3
STARTPROPERTIES 19
FOUNDRY "FreeType"
FAMILY_NAME "Manrope ExtraLight"
WEIGHT_NAME "Medium"
SLANT "R"
SETWIDTH_NAME "Normal"
ADD_STYLE_NAME ""
PIXEL_SIZE 12
POINT_SIZE 90
RESOLUTION_X 100
RESOLUTION_Y 100
SPACING "P"
AVERAGE_WIDTH 57
CHARSET_REGISTRY "ISO10646"
CHARSET_ENCODING "1"
FONT_ASCENT 13
FONT_DESCENT 3
COPYRIGHT "Copyright 2019-2021 The Manrope Project Authors (https://github.com/sharanda/manrope)"
_OTF_FONTFILE "Manrope-ExtraLight.otf"
_OTF_PSNAME "Manrope-ExtraLight"
ENDPROPERTIES
CHARS 191
STARTCHAR 0020
ENCODING 32
SWIDTH 240 0
DWIDTH 3 0
BBX 0 0 0 0
BITMAP
ENDCHAR
STARTCHAR 0021
ENCODING 33
SWIDTH 320 0
DWIDTH 4 0
BBX 1 9 1 0
BITMAP
80
80
80
80
80
80
80
00
80
ENDCHAR
STARTCHAR 0022
ENCODING 34
SWIDTH 320 0
DWIDTH 4 0
BBX 2 2 1 7
BITMAP
C0
C0
ENDCHAR
STARTCHAR 0023
ENCODING 35
SWIDTH 880 0
DWIDTH 11 0
BBX 10 9 1 0
BITMAP
0900
1200
7FC0
1200
2400
FF80
2400
2400
4800
ENDCHAR
STARTCHAR 0024
ENCODING 36
SWIDTH 560 0
DWIDTH 7 0
BBX 7 11 0 -1
BITMAP
10
38
C4
82
40
38
04
02
84
7C
10
ENDCHAR
STARTCHAR 0025
ENCODING 37
SWIDTH 880 0
DWIDTH 11 0
BBX 9 9 1 0
BITMAP
6080
9100
9200
6400
0800
1380
2480
4480
8380
ENDCHAR
STARTCHAR 0026
ENCODING 38
SWIDTH 640 0
DWIDTH 8 0
BBX 7 9 1 0
BITMAP
70
88
80
80
40
A4
94
8C
7A
ENDCHAR
STARTCHAR 0027
ENCODING 39
SWIDTH 160 0
DWIDTH 2 0
BBX 1 2 1 7
BITMAP
80
80
ENDCHAR
STARTCHAR 0028
ENCODING 40
SWIDTH 400 0
DWIDTH 5 0
BBX 2 12 2 -1
BITMAP
40
80
80
80
80
80
80
80
80
80
40
40
ENDCHAR
STARTCHAR 0029
ENCODING 41
SWIDTH 400 0
DWIDTH 5 0
BBX 2 12 1 -1
BITMAP
80
80
40
40
40
40
40
40
40
40
80
80
ENDCHAR
STARTCHAR 002A
ENCODING 42
SWIDTH 400 0
DWIDTH 5 0
BBX 4 4 0 5
BITMAP
20
F0
60
50
ENDCHAR
STARTCHAR 002B
ENCODING 43
SWIDTH 560 0
DWIDTH 7 0
BBX 6 6 1 2
BITMAP
20
20
20
FC
20
20
ENDCHAR
STARTCHAR 002C
ENCODING 44
SWIDTH 240 0
DWIDTH 3 0
BBX 1 2 1 -1
BITMAP
80
80
ENDCHAR
STARTCHAR 002D
ENCODING 45
SWIDTH 400 0
DWIDTH 5 0
BBX 4 1 1 3
BITMAP
F0
ENDCHAR
STARTCHAR 002E
ENCODING 46
SWIDTH 240 0
DWIDTH 3 0
BBX 1 1 1 0
BITMAP
80
ENDCHAR
STARTCHAR 002F
ENCODING 47
SWIDTH 320 0
DWIDTH 4 0
BBX 3 9 1 0
BITMAP
20
40
40
40
40
80
80
80
80
ENDCHAR
STARTCHAR 0030
ENCODING 48
SWIDTH 560 0
DWIDTH 7 0
BBX 5 9 1 0
BITMAP
70
88
88
88
88
88
88
88
70
ENDCHAR
STARTCHAR 0031
ENCODING 49
SWIDTH 320 0
DWIDTH 4 0
BBX 2 9 1 0
BITMAP
40
C0
40
40
40
40
40
40
40
ENDCHAR
STARTCHAR 0032
ENCODING 50
SWIDTH 560 0
DWIDTH 7 0
BBX 5 9 1 0
BITMAP
70
88
08
08
08
10
20
40
F8
ENDCHAR
STARTCHAR 0033
ENCODING 51
SWIDTH 560 0
DWIDTH 7 0
BBX 5 9 1 0
BITMAP
F8
10
20
60
10
08
08
08
F0
ENDCHAR
STARTCHAR 0034
ENCODING 52
SWIDTH 560 0
DWIDTH 7 0
BBX 6 9 1 0
BITMAP
20
20
40
40
88
88
FC
08
08
ENDCHAR
STARTCHAR 0035
ENCODING 53
SWIDTH 560 0
DWIDTH 7 0
BBX 5 9 1 0
BITMAP
F8
80
80
F0
88
08
08
88
70
ENDCHAR
STARTCHAR 0036
ENCODING 54
SWIDTH 640 0
DWIDTH 8 0
BBX 6 9 1 0
BITMAP
78
80
80
F8
88
84
84
88
78
ENDCHAR
STARTCHAR 0037
ENCODING 55
SWIDTH 480 0
DWIDTH 6 0
BBX 5 9 0 0
BITMAP
F8
08
08
10
10
20
20
20
40
ENDCHAR
STARTCHAR 0038
ENCODING 56
SWIDTH 560 0
DWIDTH 7 0
BBX 5 9 1 0
BITMAP
70
88
88
88
70
88
88
88
70
ENDCHAR
STARTCHAR 0039
ENCODING 57
SWIDTH 640 0
DWIDTH 8 0
BBX 6 9 1 0
BITMAP
78
88
84
84
84
7C
04
04
78
ENDCHAR
STARTCHAR 003A
ENCODING 58
SWIDTH 240 0
DWIDTH 3 0
BBX 1 5 1 1
BITMAP
80
00
00
00
80
ENDCHAR
STARTCHAR 003B
ENCODING 59
SWIDTH 320 0
DWIDTH 4 0
BBX 1 8 1 -1
BITMAP
80
00
00
00
00
00
80
80
ENDCHAR
STARTCHAR 003C
ENCODING 60
SWIDTH 560 0
DWIDTH 7 0
BBX 3 6 2 1
BITMAP
20
40
80
80
40
20
ENDCHAR
STARTCHAR 003D
ENCODING 61
SWIDTH 720 0
DWIDTH 9 0
BBX 7 3 1 3
BITMAP
FE
00
FE
ENDCHAR
STARTCHAR 003E
ENCODING 62
SWIDTH 560 0
DWIDTH 7 0
BBX 3 5 2 1
BITMAP
80
40
20
20
40
ENDCHAR
STARTCHAR 003F
ENCODING 63
SWIDTH 480 0
DWIDTH 6 0
BBX 5 6 1 0
BITMAP
F0
88
08
10
20
40
ENDCHAR
STARTCHAR 0040
ENCODING 64
SWIDTH 880 0
DWIDTH 11 0
BBX 9 10 1 -2
BITMAP
3E00
4100
8080
9C80
A480
9480
8B00
4000
2000
1E00
ENDCHAR
STARTCHAR 0041
ENCODING 65
SWIDTH 640 0
DWIDTH 8 0
BBX 7 9 0 0
BITMAP
10
18
28
28
44
44
7C
82
82
ENDCHAR
STARTCHAR 0042
ENCODING 66
SWIDTH 640 0
DWIDTH 8 0
BBX 6 9 1 0
BITMAP
F8
84
84
88
F8
84
84
84
F8
ENDCHAR
STARTCHAR 0043
ENCODING 67
SWIDTH 720 0
DWIDTH 9 0
BBX 8 9 0 0
BITMAP
3C
43
81
80
80
80
81
41
3E
ENDCHAR
STARTCHAR 0044
ENCODING 68
SWIDTH 640 0
DWIDTH 8 0
BBX 7 9 1 0
BITMAP
F8
84
84
82
82
82
84
84
F8
ENDCHAR
STARTCHAR 0045
ENCODING 69
SWIDTH 560 0
DWIDTH 7 0
BBX 5 9 1 0
BITMAP
F8
80
80
80
F8
80
80
80
F8
ENDCHAR
STARTCHAR 0046
ENCODING 70
SWIDTH 480 0
DWIDTH 6 0
BBX 5 9 1 0
BITMAP
F8
80
80
80
F0
80
80
80
80
ENDCHAR
STARTCHAR 0047
ENCODING 71
SWIDTH 720 0
DWIDTH 9 0
BBX 8 9 0 0
BITMAP
3C
42
80
80
87
81
81
41
3E
ENDCHAR
STARTCHAR 0048
ENCODING 72
SWIDTH 640 0
DWIDTH 8 0
BBX 6 9 1 0
BITMAP
84
84
84
84
FC
84
84
84
84
ENDCHAR
STARTCHAR 0049
ENCODING 73
SWIDTH 240 0
DWIDTH 3 0
BBX 1 9 1 0
BITMAP
80
80
80
80
80
80
80
80
80
ENDCHAR
STARTCHAR 004A
ENCODING 74
SWIDTH 400 0
DWIDTH 5 0
BBX 4 9 0 0
BITMAP
10
10
10
10
10
10
10
90
70
ENDCHAR
STARTCHAR 004B
ENCODING 75
SWIDTH 560 0
DWIDTH 7 0
BBX 5 9 1 0
BITMAP
88
90
A0
C0
80
C0
A0
90
88
ENDCHAR
STARTCHAR 004C
ENCODING 76
SWIDTH 480 0
DWIDTH 6 0
BBX 5 9 1 0
BITMAP
80
80
80
80
80
80
80
80
F8
ENDCHAR
STARTCHAR 004D
ENCODING 77
SWIDTH 800 0
DWIDTH 10 0
BBX 9 9 1 0
BITMAP
8080
8180
C280
C280
C280
A480
A480
9880
8880
ENDCHAR
STARTCHAR 004E
ENCODING 78
SWIDTH 640 0
DWIDTH 8 0
BBX 6 9 1 0
BITMAP
84
84
C4
A4
A4
94
8C
8C
84
ENDCHAR
STARTCHAR 004F
ENCODING 79
SWIDTH 720 0
DWIDTH 9 0
BBX 8 9 0 0
BITMAP
3E
41
81
81
81
81
81
41
3E
ENDCHAR
STARTCHAR 0050
ENCODING 80
SWIDTH 560 0
DWIDTH 7 0
BBX 6 9 1 0
BITMAP
F8
84
84
84
88
F0
80
80
80
ENDCHAR
STARTCHAR 0051
ENCODING 81
SWIDTH 720 0
DWIDTH 9 0
BBX 8 9 0 0
BITMAP
3E
41
81
81
81
81
81
43
3F
ENDCHAR
STARTCHAR 0052
ENCODING 82
SWIDTH 640 0
DWIDTH 8 0
BBX 6 9 1 0
BITMAP
F8
84
84
84
88
F0
88
88
84
ENDCHAR
STARTCHAR 0053
ENCODING 83
SWIDTH 560 0
DWIDTH 7 0
BBX 7 9 0 0
BITMAP
3C
42
82
40
38
06
02
82
7C
ENDCHAR
STARTCHAR 0054
ENCODING 84
SWIDTH 560 0
DWIDTH 7 0
BBX 7 9 0 0
BITMAP
FE
10
10
10
10
10
10
10
10
ENDCHAR
STARTCHAR 0055
ENCODING 85
SWIDTH 720 0
DWIDTH 9 0
BBX 7 9 1 0
BITMAP
82
82
82
82
82
82
82
84
78
ENDCHAR
STARTCHAR 0056
ENCODING 86
SWIDTH 560 0
DWIDTH 7 0
BBX 7 9 0 0
BITMAP
82
82
44
44
44
28
28
30
10
ENDCHAR
STARTCHAR 0057
ENCODING 87
SWIDTH 880 0
DWIDTH 11 0
BBX 11 9 0 0
BITMAP
8420
8420
8A40
4A40
4A40
5140
3180
3080
1080
ENDCHAR
STARTCHAR 0058
ENCODING 88
SWIDTH 560 0
DWIDTH 7 0
BBX 7 9 0 0
BITMAP
82
44
28
28
10
28
48
44
82
ENDCHAR
STARTCHAR 0059
ENCODING 89
SWIDTH 480 0
DWIDTH 6 0
BBX 6 9 0 0
BITMAP
84
84
48
30
10
10
10
10
10
ENDCHAR
STARTCHAR 005A
ENCODING 90
SWIDTH 560 0
DWIDTH 7 0
BBX 6 9 1 0
BITMAP
F8
08
10
10
20
40
40
80
FC
ENDCHAR
STARTCHAR 005B
ENCODING 91
SWIDTH 400 0
DWIDTH 5 0
BBX 2 14 2 -3
BITMAP
C0
80
80
80
80
80
80
80
80
80
80
80
80
C0
ENDCHAR
STARTCHAR 005C
ENCODING 92
SWIDTH 320 0
DWIDTH 4 0
BBX 3 9 1 0
BITMAP
80
80
80
80
40
40
40
40
20
ENDCHAR
STARTCHAR 005D
ENCODING 93
SWIDTH 400 0
DWIDTH 5 0
BBX 2 14 1 -3
BITMAP
C0
40
40
40
40
40
40
40
40
40
40
40
40
C0
ENDCHAR
STARTCHAR 005E
ENCODING 94
SWIDTH 640 0
DWIDTH 8 0
BBX 6 3 1 6
BITMAP
30
48
84
ENDCHAR
STARTCHAR 005F
ENCODING 95
SWIDTH 640 0
DWIDTH 8 0
BBX 8 1 0 -1
BITMAP
FF
ENDCHAR
STARTCHAR 0060
ENCODING 96
SWIDTH 480 0
DWIDTH 6 0
BBX 1 2 2 10
BITMAP
80
80
ENDCHAR
STARTCHAR 0061
ENCODING 97
SWIDTH 560 0
DWIDTH 7 0
BBX 6 7 0 0
BITMAP
38
44
04
7C
84
84
78
ENDCHAR
STARTCHAR 0062
ENCODING 98
SWIDTH 560 0
DWIDTH 7 0
BBX 6 9 1 0
BITMAP
80
80
F0
88
84
84
84
88
70
ENDCHAR
STARTCHAR 0063
ENCODING 99
SWIDTH 560 0
DWIDTH 7 0
BBX 6 7 0 0
BITMAP
38
44
80
80
80
40
3C
ENDCHAR
STARTCHAR 0064
ENCODING 100
SWIDTH 560 0
DWIDTH 7 0
BBX 6 9 0 0
BITMAP
04
04
3C
44
84
84
84
44
3C
ENDCHAR
STARTCHAR 0065
ENCODING 101
SWIDTH 560 0
DWIDTH 7 0
BBX 7 7 0 0
BITMAP
38
44
82
7E
80
44
38
ENDCHAR
STARTCHAR 0066
ENCODING 102
SWIDTH 320 0
DWIDTH 4 0
BBX 4 9 0 0
BITMAP
20
40
F0
40
40
40
40
40
40
ENDCHAR
STARTCHAR 0067
ENCODING 103
SWIDTH 560 0
DWIDTH 7 0
BBX 6 10 0 -3
BITMAP
3C
44
84
84
84
44
3C
04
04
78
ENDCHAR
STARTCHAR 0068
ENCODING 104
SWIDTH 560 0
DWIDTH 7 0
BBX 5 8 1 1
BITMAP
80
F0
88
88
88
88
88
88
ENDCHAR
STARTCHAR 0069
ENCODING 105
SWIDTH 240 0
DWIDTH 3 0
BBX 1 9 1 0
BITMAP
80
00
80
80
80
80
80
80
80
ENDCHAR
STARTCHAR 006A
ENCODING 106
SWIDTH 240 0
DWIDTH 3 0
BBX 2 12 0 -3
BITMAP
40
00
40
40
40
40
40
40
40
40
40
C0
ENDCHAR
STARTCHAR 006B
ENCODING 107
SWIDTH 480 0
DWIDTH 6 0
BBX 5 9 1 0
BITMAP
80
80
90
A0
C0
80
C0
A0
98
ENDCHAR
STARTCHAR 006C
ENCODING 108
SWIDTH 240 0
DWIDTH 3 0
BBX 1 9 1 0
BITMAP
80
80
80
80
80
80
80
80
80
ENDCHAR
STARTCHAR 006D
ENCODING 109
SWIDTH 800 0
DWIDTH 10 0
BBX 8 7 1 0
BITMAP
77
89
91
91
91
91
91
ENDCHAR
STARTCHAR 006E
ENCODING 110
SWIDTH 560 0
DWIDTH 7 0
BBX 5 7 1 0
BITMAP
70
88
88
88
88
88
88
ENDCHAR
STARTCHAR 006F
ENCODING 111
SWIDTH 560 0
DWIDTH 7 0
BBX 7 7 0 0
BITMAP
38
44
82
82
82
44
38
ENDCHAR
STARTCHAR 0070
ENCODING 112
SWIDTH 560 0
DWIDTH 7 0
BBX 6 9 1 -3
BITMAP
70
88
84
84
84
88
F0
80
80
ENDCHAR
STARTCHAR 0071
ENCODING 113
SWIDTH 560 0
DWIDTH 7 0
BBX 6 9 0 -3
BITMAP
3C
44
84
84
84
44
3C
04
04
ENDCHAR
STARTCHAR 0072
ENCODING 114
SWIDTH 320 0
DWIDTH 4 0
BBX 3 7 1 0
BITMAP
60
80
80
80
80
80
80
ENDCHAR
STARTCHAR 0073
ENCODING 115
SWIDTH 480 0
DWIDTH 6 0
BBX 6 7 0 0
BITMAP
78
84
40
38
04
04
78
ENDCHAR
STARTCHAR 0074
ENCODING 116
SWIDTH 400 0
DWIDTH 5 0
BBX 4 8 0 1
BITMAP
40
F0
40
40
40
40
40
30
ENDCHAR
STARTCHAR 0075
ENCODING 117
SWIDTH 560 0
DWIDTH 7 0
BBX 5 7 1 0
BITMAP
88
88
88
88
88
88
70
ENDCHAR
STARTCHAR 0076
ENCODING 118
SWIDTH 480 0
DWIDTH 6 0
BBX 6 7 0 0
BITMAP
84
88
48
50
50
30
20
ENDCHAR
STARTCHAR 0077
ENCODING 119
SWIDTH 720 0
DWIDTH 9 0
BBX 9 7 0 0
BITMAP
8880
9880
5500
5500
5500
6200
2200
ENDCHAR
STARTCHAR 0078
ENCODING 120
SWIDTH 480 0
DWIDTH 6 0
BBX 6 7 0 0
BITMAP
84
48
30
10
30
48
84
ENDCHAR
STARTCHAR 0079
ENCODING 121
SWIDTH 480 0
DWIDTH 6 0
BBX 6 10 0 -3
BITMAP
84
88
48
48
30
30
10
20
20
20
ENDCHAR
STARTCHAR 007A
ENCODING 122
SWIDTH 560 0
DWIDTH 7 0
BBX 6 7 0 0
BITMAP
7C
08
10
10
20
40
FC
ENDCHAR
STARTCHAR 007B
ENCODING 123
SWIDTH 400 0
DWIDTH 5 0
BBX 2 14 2 -3
BITMAP
40
80
80
80
80
80
80
80
80
80
80
80
80
40
ENDCHAR
STARTCHAR 007C
ENCODING 124
SWIDTH 240 0
DWIDTH 3 0
BBX 1 9 1 0
BITMAP
80
80
80
80
80
80
80
80
80
ENDCHAR
STARTCHAR 007D
ENCODING 125
SWIDTH 400 0
DWIDTH 5 0
BBX 2 14 1 -3
BITMAP
80
40
40
40
40
40
40
40
40
40
40
40
40
80
ENDCHAR
STARTCHAR 007E
ENCODING 126
SWIDTH 640 0
DWIDTH 8 0
BBX 5 2 1 3
BITMAP
40
B8
ENDCHAR
STARTCHAR 00A0
ENCODING 160
SWIDTH 240 0
DWIDTH 3 0
BBX 0 0 0 0
BITMAP
ENDCHAR
STARTCHAR 00A1
ENCODING 161
SWIDTH 320 0
DWIDTH 4 0
BBX 1 9 1 -2
BITMAP
80
00
80
80
80
80
80
80
80
ENDCHAR
STARTCHAR 00A2
ENCODING 162
SWIDTH 560 0
DWIDTH 7 0
BBX 6 9 0 0
BITMAP
10
38
44
80
80
80
40
3C
10
ENDCHAR
STARTCHAR 00A3
ENCODING 163
SWIDTH 560 0
DWIDTH 7 0
BBX 7 9 0 0
BITMAP
1C
22
20
20
F8
20
20
20
FE
ENDCHAR
STARTCHAR 00A4
ENCODING 164
SWIDTH 640 0
DWIDTH 8 0
BBX 7 7 0 1
BITMAP
BE
42
82
82
82
42
BE
ENDCHAR
STARTCHAR 00A5
ENCODING 165
SWIDTH 480 0
DWIDTH 6 0
BBX 6 9 0 0
BITMAP
84
84
48
28
30
7C
10
7C
10
ENDCHAR
STARTCHAR 00A6
ENCODING 166
SWIDTH 240 0
DWIDTH 3 0
BBX 1 11 1 -2
BITMAP
80
80
80
80
00
00
80
80
80
80
80
ENDCHAR
STARTCHAR 00A7
ENCODING 167
SWIDTH 480 0
DWIDTH 6 0
BBX 5 10 1 -2
BITMAP
70
88
80
F0
88
88
70
08
08
F0
ENDCHAR
STARTCHAR 00A8
ENCODING 168
SWIDTH 480 0
DWIDTH 6 0
BBX 4 1 1 10
BITMAP
90
ENDCHAR
STARTCHAR 00A9
ENCODING 169
SWIDTH 720 0
DWIDTH 9 0
BBX 9 9 0 0
BITMAP
0800
3700
5D00
A080
A080
A080
9280
4500
3E00
ENDCHAR
STARTCHAR 00AA
ENCODING 170
SWIDTH 320 0
DWIDTH 4 0
BBX 3 4 0 3
BITMAP
60
20
E0
60
ENDCHAR
STARTCHAR 00AB
ENCODING 171
SWIDTH 480 0
DWIDTH 6 0
BBX 4 5 1 1
BITMAP
50
60
A0
A0
50
ENDCHAR
STARTCHAR 00AC
ENCODING 172
SWIDTH 640 0
DWIDTH 8 0
BBX 6 3 1 2
BITMAP
FC
04
04
ENDCHAR
STARTCHAR 00AD
ENCODING 173
SWIDTH 400 0
DWIDTH 5 0
BBX 4 1 1 3
BITMAP
F0
ENDCHAR
STARTCHAR 00AE
ENCODING 174
SWIDTH 640 0
DWIDTH 8 0
BBX 6 7 1 3
BITMAP
20
D8
F4
D4
B4
88
70
ENDCHAR
STARTCHAR 00AF
ENCODING 175
SWIDTH 480 0
DWIDTH 6 0
BBX 4 1 1 10
BITMAP
F0
ENDCHAR
STARTCHAR 00B0
ENCODING 176
SWIDTH 480 0
DWIDTH 6 0
BBX 5 5 0 4
BITMAP
70
88
88
88
70
ENDCHAR
STARTCHAR 00B1
ENCODING 177
SWIDTH 640 0
DWIDTH 8 0
BBX 6 6 1 1
BITMAP
20
20
FC
20
00
FC
ENDCHAR
STARTCHAR 00B2
ENCODING 178
SWIDTH 400 0
DWIDTH 5 0
BBX 3 6 1 3
BITMAP
E0
20
20
40
80
E0
ENDCHAR
STARTCHAR 00B3
ENCODING 179
SWIDTH 400 0
DWIDTH 5 0
BBX 3 6 1 3
BITMAP
E0
40
E0
20
20
C0
ENDCHAR
STARTCHAR 00B4
ENCODING 180
SWIDTH 480 0
DWIDTH 6 0
BBX 1 1 2 11
BITMAP
80
ENDCHAR
STARTCHAR 00B5
ENCODING 181
SWIDTH 560 0
DWIDTH 7 0
BBX 5 9 1 -3
BITMAP
88
88
88
88
88
88
F0
80
80
ENDCHAR
STARTCHAR 00B6
ENCODING 182
SWIDTH 560 0
DWIDTH 7 0
BBX 5 11 1 -2
BITMAP
78
F8
F8
F8
78
18
18
18
18
18
10
ENDCHAR
STARTCHAR 00B7
ENCODING 183
SWIDTH 240 0
DWIDTH 3 0
BBX 1 1 1 3
BITMAP
80
ENDCHAR
STARTCHAR 00B8
ENCODING 184
SWIDTH 400 0
DWIDTH 5 0
BBX 1 3 2 -3
BITMAP
80
80
80
ENDCHAR
STARTCHAR 00B9
ENCODING 185
SWIDTH 320 0
DWIDTH 4 0
BBX 1 5 1 3
BITMAP
80
80
80
80
80
ENDCHAR
STARTCHAR 00BA
ENCODING 186
SWIDTH 320 0
DWIDTH 4 0
BBX 4 4 0 3
BITMAP
60
90
90
60
ENDCHAR
STARTCHAR 00BB
ENCODING 187
SWIDTH 480 0
DWIDTH 6 0
BBX 4 5 1 1
BITMAP
A0
A0
50
50
A0
ENDCHAR
STARTCHAR 00BC
ENCODING 188
SWIDTH 960 0
DWIDTH 12 0
BBX 9 9 1 0
BITMAP
8100
8200
8400
8900
9200
1200
2480
4780
8080
ENDCHAR
STARTCHAR 00BD
ENCODING 189
SWIDTH 880 0
DWIDTH 11 0
BBX 9 9 1 0
BITMAP
8200
8200
8400
8B80
9080
1080
2080
4100
8380
ENDCHAR
STARTCHAR 00BE
ENCODING 190
SWIDTH 960 0
DWIDTH 12 0
BBX 10 9 1 0
BITMAP
E100
4100
E200
2480
2900
D100
1280
23C0
4080
ENDCHAR
STARTCHAR 00BF
ENCODING 191
SWIDTH 480 0
DWIDTH 6 0
BBX 5 10 1 -3
BITMAP
20
00
00
20
40
80
80
88
90
60
ENDCHAR
STARTCHAR 00C0
ENCODING 192
SWIDTH 640 0
DWIDTH 8 0
BBX 7 12 0 0
BITMAP
10
10
00
10
18
28
28
44
44
7C
82
82
ENDCHAR
STARTCHAR 00C1
ENCODING 193
SWIDTH 640 0
DWIDTH 8 0
BBX 7 12 0 0
BITMAP
08
00
00
10
18
28
28
44
44
7C
82
82
ENDCHAR
STARTCHAR 00C2
ENCODING 194
SWIDTH 640 0
DWIDTH 8 0
BBX 7 11 0 0
BITMAP
18
00
10
18
28
28
44
44
7C
82
82
ENDCHAR
STARTCHAR 00C3
ENCODING 195
SWIDTH 640 0
DWIDTH 8 0
BBX 7 12 0 0
BITMAP
34
28
00
10
18
28
28
44
44
7C
82
82
ENDCHAR
STARTCHAR 00C4
ENCODING 196
SWIDTH 640 0
DWIDTH 8 0
BBX 7 11 0 0
BITMAP
20
00
10
18
28
28
44
44
7C
82
82
ENDCHAR
STARTCHAR 00C5
ENCODING 197
SWIDTH 640 0
DWIDTH 8 0
BBX 7 12 0 0
BITMAP
18
18
00
10
18
28
28
44
44
7C
82
82
ENDCHAR
STARTCHAR 00C6
ENCODING 198
SWIDTH 880 0
DWIDTH 11 0
BBX 11 9 0 0
BITMAP
1FE0
1400
2400
2400
47C0
4400
7C00
8400
87E0
ENDCHAR
STARTCHAR 00C7
ENCODING 199
SWIDTH 720 0
DWIDTH 9 0
BBX 8 12 0 -3
BITMAP
3C
43
81
80
80
80
81
41
3E
08
08
08
ENDCHAR
STARTCHAR 00C8
ENCODING 200
SWIDTH 560 0
DWIDTH 7 0
BBX 5 12 1 0
BITMAP
20
20
00
F8
80
80
80
F8
80
80
80
F8
ENDCHAR
STARTCHAR 00C9
ENCODING 201
SWIDTH 560 0
DWIDTH 7 0
BBX 5 12 1 0
BITMAP
10
00
00
F8
80
80
80
F8
80
80
80
F8
ENDCHAR
STARTCHAR 00CA
ENCODING 202
SWIDTH 560 0
DWIDTH 7 0
BBX 5 11 1 0
BITMAP
70
00
F8
80
80
80
F8
80
80
80
F8
ENDCHAR
STARTCHAR 00CB
ENCODING 203
SWIDTH 560 0
DWIDTH 7 0
BBX 5 11 1 0
BITMAP
50
00
F8
80
80
80
F8
80
80
80
F8
ENDCHAR
STARTCHAR 00CC
ENCODING 204
SWIDTH 240 0
DWIDTH 3 0
BBX 2 12 0 0
BITMAP
80
80
00
40
40
40
40
40
40
40
40
40
ENDCHAR
STARTCHAR 00CD
ENCODING 205
SWIDTH 240 0
DWIDTH 3 0
BBX 1 12 1 0
BITMAP
80
80
00
80
80
80
80
80
80
80
80
80
ENDCHAR
STARTCHAR 00CE
ENCODING 206
SWIDTH 240 0
DWIDTH 3 0
BBX 2 11 0 0
BITMAP
C0
00
40
40
40
40
40
40
40
40
40
ENDCHAR
STARTCHAR 00CF
ENCODING 207
SWIDTH 240 0
DWIDTH 3 0
BBX 3 11 0 0
BITMAP
A0
00
40
40
40
40
40
40
40
40
40
ENDCHAR
STARTCHAR 00D0
ENCODING 208
SWIDTH 640 0
DWIDTH 8 0
BBX 8 9 0 0
BITMAP
7C
82
82
82
F1
82
82
82
7C
ENDCHAR
STARTCHAR 00D1
ENCODING 209
SWIDTH 640 0
DWIDTH 8 0
BBX 6 11 1 1
BITMAP
38
00
84
84
C4
A4
A4
94
8C
8C
84
ENDCHAR
STARTCHAR 00D2
ENCODING 210
SWIDTH 720 0
DWIDTH 9 0
BBX 8 11 0 1
BITMAP
08
00
3E
41
81
81
81
81
81
41
3E
ENDCHAR
STARTCHAR 00D3
ENCODING 211
SWIDTH 720 0
DWIDTH 9 0
BBX 8 11 0 1
BITMAP
08
00
3E
41
81
81
81
81
81
41
3E
ENDCHAR
STARTCHAR 00D4
ENCODING 212
SWIDTH 720 0
DWIDTH 9 0
BBX 8 11 0 0
BITMAP
18
00
3E
41
81
81
81
81
81
41
3E
ENDCHAR
STARTCHAR 00D5
ENCODING 213
SWIDTH 720 0
DWIDTH 9 0
BBX 8 11 0 1
BITMAP
1C
00
3E
41
81
81
81
81
81
41
3E
ENDCHAR
STARTCHAR 00D6
ENCODING 214
SWIDTH 720 0
DWIDTH 9 0
BBX 8 11 0 0
BITMAP
14
00
3E
41
81
81
81
81
81
41
3E
ENDCHAR
STARTCHAR 00D7
ENCODING 215
SWIDTH 480 0
DWIDTH 6 0
BBX 4 4 1 2
BITMAP
90
60
60
90
ENDCHAR
STARTCHAR 00D8
ENCODING 216
SWIDTH 720 0
DWIDTH 9 0
BBX 9 9 0 0
BITMAP
3E80
4100
8300
8500
8900
9100
A100
4100
BE00
ENDCHAR
STARTCHAR 00D9
ENCODING 217
SWIDTH 720 0
DWIDTH 9 0
BBX 7 11 1 1
BITMAP
10
00
82
82
82
82
82
82
82
84
78
ENDCHAR
STARTCHAR 00DA
ENCODING 218
SWIDTH 720 0
DWIDTH 9 0
BBX 7 12 1 0
BITMAP
10
10
00
82
82
82
82
82
82
82
84
78
ENDCHAR
STARTCHAR 00DB
ENCODING 219
SWIDTH 720 0
DWIDTH 9 0
BBX 7 11 1 0
BITMAP
30
00
82
82
82
82
82
82
82
84
78
ENDCHAR
STARTCHAR 00DC
ENCODING 220
SWIDTH 720 0
DWIDTH 9 0
BBX 7 11 1 0
BITMAP
28
00
82
82
82
82
82
82
82
84
78
ENDCHAR
STARTCHAR 00DD
ENCODING 221
SWIDTH 480 0
DWIDTH 6 0
BBX 6 12 0 0
BITMAP
10
00
00
84
84
48
30
10
10
10
10
10
ENDCHAR
STARTCHAR 00DE
ENCODING 222
SWIDTH 560 0
DWIDTH 7 0
BBX 6 9 1 0
BITMAP
80
80
F8
84
84
84
F8
80
80
ENDCHAR
STARTCHAR 00DF
ENCODING 223
SWIDTH 560 0
DWIDTH 7 0
BBX 5 9 1 0
BITMAP
70
88
88
90
98
88
88
88
F0
ENDCHAR
STARTCHAR 00E0
ENCODING 224
SWIDTH 560 0
DWIDTH 7 0
BBX 6 9 0 1
BITMAP
10
00
38
44
04
7C
84
84
78
ENDCHAR
STARTCHAR 00E1
ENCODING 225
SWIDTH 560 0
DWIDTH 7 0
BBX 6 9 0 1
BITMAP
10
00
38
44
04
7C
84
84
78
ENDCHAR
STARTCHAR 00E2
ENCODING 226
SWIDTH 560 0
DWIDTH 7 0
BBX 6 10 0 0
BITMAP
10
28
00
38
44
04
7C
84
84
78
ENDCHAR
STARTCHAR 00E3
ENCODING 227
SWIDTH 560 0
DWIDTH 7 0
BBX 6 9 0 1
BITMAP
38
00
38
44
04
7C
84
84
78
ENDCHAR
STARTCHAR 00E4
ENCODING 228
SWIDTH 560 0
DWIDTH 7 0
BBX 6 9 0 0
BITMAP
28
00
38
44
04
7C
84
84
78
ENDCHAR
STARTCHAR 00E5
ENCODING 229
SWIDTH 560 0
DWIDTH 7 0
BBX 6 10 0 0
BITMAP
30
38
00
38
44
04
7C
84
84
78
ENDCHAR
STARTCHAR 00E6
ENCODING 230
SWIDTH 960 0
DWIDTH 12 0
BBX 11 7 0 0
BITMAP
39C0
4620
0420
7FE0
8400
8620
79C0
ENDCHAR
STARTCHAR 00E7
ENCODING 231
SWIDTH 560 0
DWIDTH 7 0
BBX 6 10 0 -3
BITMAP
38
44
80
80
80
40
3C
10
10
10
ENDCHAR
STARTCHAR 00E8
ENCODING 232
SWIDTH 560 0
DWIDTH 7 0
BBX 7 9 0 1
BITMAP
10
00
38
44
82
7E
80
44
38
ENDCHAR
STARTCHAR 00E9
ENCODING 233
SWIDTH 560 0
DWIDTH 7 0
BBX 7 10 0 0
BITMAP
08
10
00
38
44
82
7E
80
44
38
ENDCHAR
STARTCHAR 00EA
ENCODING 234
SWIDTH 560 0
DWIDTH 7 0
BBX 7 9 0 0
BITMAP
38
00
38
44
82
7E
80
44
38
ENDCHAR
STARTCHAR 00EB
ENCODING 235
SWIDTH 560 0
DWIDTH 7 0
BBX 7 9 0 0
BITMAP
28
00
38
44
82
7E
80
44
38
ENDCHAR
STARTCHAR 00EC
ENCODING 236
SWIDTH 240 0
DWIDTH 3 0
BBX 2 10 0 0
BITMAP
80
80
00
40
40
40
40
40
40
40
ENDCHAR
STARTCHAR 00ED
ENCODING 237
SWIDTH 240 0
DWIDTH 3 0
BBX 1 10 1 0
BITMAP
80
80
00
80
80
80
80
80
80
80
ENDCHAR
STARTCHAR 00EE
ENCODING 238
SWIDTH 240 0
DWIDTH 3 0
BBX 2 9 0 0
BITMAP
C0
00
40
40
40
40
40
40
40
ENDCHAR
STARTCHAR 00EF
ENCODING 239
SWIDTH 240 0
DWIDTH 3 0
BBX 3 9 0 0
BITMAP
A0
00
40
40
40
40
40
40
40
ENDCHAR
STARTCHAR 00F0
ENCODING 240
SWIDTH 560 0
DWIDTH 7 0
BBX 7 9 0 1
BITMAP
18
14
14
6E
82
02
82
44
38
ENDCHAR
STARTCHAR 00F1
ENCODING 241
SWIDTH 560 0
DWIDTH 7 0
BBX 5 9 1 1
BITMAP
70
00
70
88
88
88
88
88
88
ENDCHAR
STARTCHAR 00F2
ENCODING 242
SWIDTH 560 0
DWIDTH 7 0
BBX 7 9 0 1
BITMAP
10
00
38
44
82
82
82
44
38
ENDCHAR
STARTCHAR 00F3
ENCODING 243
SWIDTH 560 0
DWIDTH 7 0
BBX 7 9 0 1
BITMAP
10
00
38
44
82
82
82
44
38
ENDCHAR
STARTCHAR 00F4
ENCODING 244
SWIDTH 560 0
DWIDTH 7 0
BBX 7 9 0 0
BITMAP
38
00
38
44
82
82
82
44
38
ENDCHAR
STARTCHAR 00F5
ENCODING 245
SWIDTH 560 0
DWIDTH 7 0
BBX 7 9 0 1
BITMAP
38
00
38
44
82
82
82
44
38
ENDCHAR
STARTCHAR 00F6
ENCODING 246
SWIDTH 560 0
DWIDTH 7 0
BBX 7 9 0 0
BITMAP
28
00
38
44
82
82
82
44
38
ENDCHAR
STARTCHAR 00F7
ENCODING 247
SWIDTH 560 0
DWIDTH 7 0
BBX 5 5 1 2
BITMAP
20
00
F8
00
20
ENDCHAR
STARTCHAR 00F8
ENCODING 248
SWIDTH 560 0
DWIDTH 7 0
BBX 7 7 0 0
BITMAP
3A
44
8A
92
A2
44
B8
ENDCHAR
STARTCHAR 00F9
ENCODING 249
SWIDTH 560 0
DWIDTH 7 0
BBX 5 9 1 1
BITMAP
20
00
88
88
88
88
88
88
70
ENDCHAR
STARTCHAR 00FA
ENCODING 250
SWIDTH 560 0
DWIDTH 7 0
BBX 5 9 1 1
BITMAP
20
00
88
88
88
88
88
88
70
ENDCHAR
STARTCHAR 00FB
ENCODING 251
SWIDTH 560 0
DWIDTH 7 0
BBX 5 9 1 0
BITMAP
70
00
88
88
88
88
88
88
70
ENDCHAR
STARTCHAR 00FC
ENCODING 252
SWIDTH 560 0
DWIDTH 7 0
BBX 5 9 1 0
BITMAP
50
00
88
88
88
88
88
88
70
ENDCHAR
STARTCHAR 00FD
ENCODING 253
SWIDTH 480 0
DWIDTH 6 0
BBX 6 13 0 -3
BITMAP
10
10
00
84
88
48
48
30
30
10
20
20
20
ENDCHAR
STARTCHAR 00FE
ENCODING 254
SWIDTH 560 0
DWIDTH 7 0
BBX 6 11 1 -3
BITMAP
80
80
F0
88
84
84
84
88
F0
80
80
ENDCHAR
STARTCHAR 00FF
ENCODING 255
SWIDTH 480 0
DWIDTH 6 0
BBX 6 12 0 -3
BITMAP
08
00
84
88
48
48
30
30
10
20
20
20
ENDCHAR
ENDFONT
