STARTFONT 2.1
COMMENT
COMMENT Converted from OpenType font "Manrope-ExtraLight.otf" by "otf2bdf 3.0".
COMMENT
FONT -FreeType-Manrope ExtraLight-Medium-R-Normal--33-240-100-100-P-145-ISO10646-1
SIZE 24 100 100
FONTBOUNDINGBOX 31 40 -1 -8
STARTPROPERTIES 19
FOUNDRY "FreeType"
FAMILY_NAME "Manrope ExtraLight"
WEIGHT_NAME "Medium"
SLANT "R"
SETWIDTH_NAME "Normal"
ADD_STYLE_NAME ""
PIXEL_SIZE 33
POINT_SIZE 240
RESOLUTION_X 100
RESOLUTION_Y 100
SPACING "P"
AVERAGE_WIDTH 145
CHARSET_REGISTRY "ISO10646"
CHARSET_ENCODING "1"
FONT_ASCENT 35
FONT_DESCENT 9
COPYRIGHT "Copyright 2019-2021 The Manrope Project Authors (https://github.com/sharanda/manrope)"
_OTF_FONTFILE "Manrope-ExtraLight.otf"
_OTF_PSNAME "Manrope-ExtraLight"
ENDPROPERTIES
CHARS 191
STARTCHAR 0020
ENCODING 32
SWIDTH 210 0
DWIDTH 7 0
BBX 0 0 0 0
BITMAP
ENDCHAR
STARTCHAR 0021
ENCODING 33
SWIDTH 270 0
DWIDTH 9 0
BBX 1 24 4 0
BITMAP
80
80
80
80
80
80
80
80
80
80
80
80
80
80
80
80
80
80
00
00
00
00
80
80
ENDCHAR
STARTCHAR 0022
ENCODING 34
SWIDTH 330 0
DWIDTH 11 0
BBX 6 6 2 18
BITMAP
84
84
84
84
84
84
ENDCHAR
STARTCHAR 0023
ENCODING 35
SWIDTH 900 0
DWIDTH 30 0
BBX 26 24 2 0
BITMAP
00181800
00181800
00101000
00101000
00303000
00303000
00202000
3FFFFFC0
00606000
00606000
00404000
00404000
00C0C000
00808000
00808000
FFFFFF00
01818000
01010000
01010000
03030000
03030000
02020000
02020000
06060000
ENDCHAR
STARTCHAR 0024
ENCODING 36
SWIDTH 570 0
DWIDTH 19 0
BBX 17 30 1 -3
BITMAP
008000
008000
008000
07F000
1F7800
300E00
600200
600300
400100
400180
600000
600000
380000
0E0000
03E000
003C00
000E00
000300
000100
000180
000180
C00180
400100
600300
300600
1F3C00
07F000
008000
008000
008000
ENDCHAR
STARTCHAR 0025
ENCODING 37
SWIDTH 900 0
DWIDTH 30 0
BBX 26 24 2 0
BITMAP
0F000080
3BC00180
60600300
C0300600
C0300C00
80101800
C0303000
C0306000
6060C000
70C18000
1F830000
00060000
000C0000
00187E00
0030C300
00618180
01C300C0
03830040
07020040
0E0300C0
1C0100C0
38018180
7000E700
40003E00
ENDCHAR
STARTCHAR 0026
ENCODING 38
SWIDTH 630 0
DWIDTH 21 0
BBX 18 24 2 0
BITMAP
07E000
1E7800
300C00
200400
600000
600000
600000
600000
200000
300000
180000
0C0000
3A0000
610100
C0C100
806100
803100
801900
800D00
C00300
C00300
600E80
3E7C40
0FF040
ENDCHAR
STARTCHAR 0027
ENCODING 39
SWIDTH 180 0
DWIDTH 6 0
BBX 1 6 2 18
BITMAP
80
80
80
80
80
80
ENDCHAR
STARTCHAR 0028
ENCODING 40
SWIDTH 420 0
DWIDTH 14 0
BBX 7 33 5 -6
BITMAP
06
0C
08
18
10
30
20
60
40
40
C0
80
80
80
80
80
80
80
80
80
80
C0
C0
40
60
60
20
30
10
18
0C
06
02
ENDCHAR
STARTCHAR 0029
ENCODING 41
SWIDTH 420 0
DWIDTH 14 0
BBX 7 33 2 -6
BITMAP
80
C0
60
20
30
10
18
08
0C
04
04
04
06
06
06
02
02
02
06
06
06
04
04
0C
08
08
18
10
30
60
40
C0
80
ENDCHAR
STARTCHAR 002A
ENCODING 42
SWIDTH 420 0
DWIDTH 14 0
BBX 11 10 1 13
BITMAP
0400
0400
0400
8420
F5E0
1F00
0E00
1B00
3100
3180
ENDCHAR
STARTCHAR 002B
ENCODING 43
SWIDTH 570 0
DWIDTH 19 0
BBX 15 15 2 4
BITMAP
0100
0100
0100
0100
0100
0100
0100
FFFE
0100
0100
0100
0100
0100
0100
0100
ENDCHAR
STARTCHAR 002C
ENCODING 44
SWIDTH 240 0
DWIDTH 8 0
BBX 2 6 2 -3
BITMAP
C0
C0
C0
40
40
80
ENDCHAR
STARTCHAR 002D
ENCODING 45
SWIDTH 420 0
DWIDTH 14 0
BBX 10 1 2 10
BITMAP
FFC0
ENDCHAR
STARTCHAR 002E
ENCODING 46
SWIDTH 210 0
DWIDTH 7 0
BBX 2 2 3 0
BITMAP
C0
C0
ENDCHAR
STARTCHAR 002F
ENCODING 47
SWIDTH 360 0
DWIDTH 12 0
BBX 8 24 2 0
BITMAP
03
02
02
06
06
04
04
0C
0C
08
08
18
18
10
10
30
20
20
60
60
40
40
C0
C0
ENDCHAR
STARTCHAR 0030
ENCODING 48
SWIDTH 570 0
DWIDTH 19 0
BBX 15 24 2 0
BITMAP
07C0
1EF0
3018
600C
4004
C006
C006
C002
C002
C002
C002
C002
C002
C002
C002
C002
C002
C006
C006
4004
600C
3018
1EF0
07C0
ENDCHAR
STARTCHAR 0031
ENCODING 49
SWIDTH 360 0
DWIDTH 12 0
BBX 6 24 2 0
BITMAP
0C
3C
E4
84
04
04
04
04
04
04
04
04
04
04
04
04
04
04
04
04
04
04
04
04
ENDCHAR
STARTCHAR 0032
ENCODING 50
SWIDTH 540 0
DWIDTH 18 0
BBX 15 24 2 0
BITMAP
07C0
1EF0
3018
600C
C004
C006
8006
0006
0006
0004
0004
000C
0018
0030
0060
00C0
0180
0700
0C00
1800
3000
6000
C000
FFFE
ENDCHAR
STARTCHAR 0033
ENCODING 51
SWIDTH 540 0
DWIDTH 18 0
BBX 15 24 1 0
BITMAP
7FFE
000E
0018
0030
0060
00C0
0180
0300
0600
0FC0
0EF0
0018
000C
0004
0006
0006
0006
0006
0006
C004
600C
3018
1CF0
07C0
ENDCHAR
STARTCHAR 0034
ENCODING 52
SWIDTH 570 0
DWIDTH 19 0
BBX 16 24 2 0
BITMAP
0080
0180
0100
0300
0200
0600
0400
0C00
0800
1800
1818
1018
3018
2018
6018
4018
C018
8018
FFFF
0018
0018
0018
0018
0018
ENDCHAR
STARTCHAR 0035
ENCODING 53
SWIDTH 570 0
DWIDTH 19 0
BBX 15 24 2 0
BITMAP
7FFC
4000
4000
4000
4000
4000
4000
4000
C7C0
DEF0
F018
E00C
4006
0006
0002
0002
0002
0002
8006
C006
600C
3018
1EF0
0FC0
ENDCHAR
STARTCHAR 0036
ENCODING 54
SWIDTH 630 0
DWIDTH 21 0
BBX 16 24 2 0
BITMAP
03E0
0E78
380C
2006
6000
4000
C000
C000
C000
C7F0
DC1C
F006
E002
C003
C001
C001
C001
C001
4003
6003
2006
380C
0F78
03E0
ENDCHAR
STARTCHAR 0037
ENCODING 55
SWIDTH 480 0
DWIDTH 16 0
BBX 13 24 1 0
BITMAP
FFF8
0008
0018
0018
0010
0030
0020
0060
0040
0040
00C0
0080
0180
0100
0100
0300
0200
0600
0400
0C00
0C00
0800
1800
1000
ENDCHAR
STARTCHAR 0038
ENCODING 56
SWIDTH 570 0
DWIDTH 19 0
BBX 15 24 2 0
BITMAP
0FC0
1FF0
3018
600C
400C
4004
4004
400C
600C
3018
1CF0
1FE0
3838
600C
C00C
C004
8006
8006
C006
C004
400C
6018
3EF0
0FC0
ENDCHAR
STARTCHAR 0039
ENCODING 57
SWIDTH 630 0
DWIDTH 21 0
BBX 16 24 2 0
BITMAP
03E0
0E78
380C
2006
6003
4003
C001
C001
C001
4001
4003
6003
3005
1C19
07F1
0001
0001
0001
0003
0003
2006
380C
0E78
03E0
ENDCHAR
STARTCHAR 003A
ENCODING 58
SWIDTH 270 0
DWIDTH 9 0
BBX 2 12 4 3
BITMAP
C0
C0
00
00
00
00
00
00
00
00
C0
C0
ENDCHAR
STARTCHAR 003B
ENCODING 59
SWIDTH 270 0
DWIDTH 9 0
BBX 2 21 4 -3
BITMAP
C0
C0
00
00
00
00
00
00
00
00
00
00
00
00
00
C0
C0
C0
40
40
80
ENDCHAR
STARTCHAR 003C
ENCODING 60
SWIDTH 600 0
DWIDTH 20 0
BBX 8 15 5 3
BITMAP
01
03
06
0C
18
30
60
C0
C0
60
30
18
0C
06
03
ENDCHAR
STARTCHAR 003D
ENCODING 61
SWIDTH 750 0
DWIDTH 25 0
BBX 17 6 4 9
BITMAP
FFFF80
000000
000000
000000
000000
FFFF80
ENDCHAR
STARTCHAR 003E
ENCODING 62
SWIDTH 600 0
DWIDTH 20 0
BBX 8 15 7 3
BITMAP
80
C0
60
30
18
0C
06
03
03
06
0C
18
30
60
C0
ENDCHAR
STARTCHAR 003F
ENCODING 63
SWIDTH 510 0
DWIDTH 17 0
BBX 13 24 2 0
BITMAP
1F80
3DE0
6030
C018
8018
8008
0008
0018
0018
0030
0060
01C0
0380
0300
0600
0600
0600
0600
0000
0000
0000
0000
0600
0600
ENDCHAR
STARTCHAR 0040
ENCODING 64
SWIDTH 900 0
DWIDTH 30 0
BBX 24 24 3 -3
BITMAP
01FF80
0780E0
0E0038
18000C
300004
600006
600002
C00003
C07D03
80EF01
808301
818101
818101
818103
818303
C0C782
C07EEE
400078
600000
300000
180000
0C0020
0780E0
01FF80
ENDCHAR
STARTCHAR 0041
ENCODING 65
SWIDTH 600 0
DWIDTH 20 0
BBX 18 24 1 0
BITMAP
00C000
00C000
01E000
01A000
013000
033000
031000
021800
061800
040800
040C00
0C0C00
080400
180600
180200
100300
300300
3FFF00
200180
600180
400080
4000C0
C00040
800040
ENDCHAR
STARTCHAR 0042
ENCODING 66
SWIDTH 600 0
DWIDTH 20 0
BBX 17 24 2 0
BITMAP
FFF000
C03C00
C00600
C00200
C00300
C00300
C00300
C00300
C00600
C00600
C03C00
FFF800
C00E00
C00300
C00100
C00180
C00180
C00180
C00180
C00180
C00100
C00700
C03E00
FFF800
ENDCHAR
STARTCHAR 0043
ENCODING 67
SWIDTH 690 0
DWIDTH 23 0
BBX 21 24 1 0
BITMAP
01FC00
07DF80
1C01C0
180060
300030
600030
600018
400018
C00000
C00000
C00000
800000
800000
C00000
C00000
C00000
400018
400018
600030
300030
180060
0C01C0
079F80
01FC00
ENDCHAR
STARTCHAR 0044
ENCODING 68
SWIDTH 660 0
DWIDTH 22 0
BBX 18 24 2 0
BITMAP
FFF000
C07C00
C00600
C00300
C00180
C00080
C000C0
C000C0
C00040
C00040
C00040
C00040
C00040
C00040
C00040
C00040
C000C0
C000C0
C00080
C00180
C00300
C00600
C07C00
FFF000
ENDCHAR
STARTCHAR 0045
ENCODING 69
SWIDTH 570 0
DWIDTH 19 0
BBX 15 24 2 0
BITMAP
FFFE
C000
C000
C000
C000
C000
C000
C000
C000
C000
C000
C000
FFF8
C000
C000
C000
C000
C000
C000
C000
C000
C000
C000
FFFE
ENDCHAR
STARTCHAR 0046
ENCODING 70
SWIDTH 480 0
DWIDTH 16 0
BBX 14 24 2 0
BITMAP
FFFC
C000
C000
C000
C000
C000
C000
C000
C000
C000
C000
C000
FFF0
C000
C000
C000
C000
C000
C000
C000
C000
C000
C000
C000
ENDCHAR
STARTCHAR 0047
ENCODING 71
SWIDTH 690 0
DWIDTH 23 0
BBX 21 24 1 0
BITMAP
01FC00
07DF00
1C01C0
180060
300060
600030
600000
400000
C00000
C00000
C00000
800000
8007F8
C00018
C00018
C00018
400018
400010
600030
300030
180060
0C00C0
078F80
01FE00
ENDCHAR
STARTCHAR 0048
ENCODING 72
SWIDTH 660 0
DWIDTH 22 0
BBX 18 24 2 0
BITMAP
C000C0
C000C0
C000C0
C000C0
C000C0
C000C0
C000C0
C000C0
C000C0
C000C0
C000C0
C000C0
FFFFC0
C000C0
C000C0
C000C0
C000C0
C000C0
C000C0
C000C0
C000C0
C000C0
C000C0
C000C0
ENDCHAR
STARTCHAR 0049
ENCODING 73
SWIDTH 210 0
DWIDTH 7 0
BBX 1 24 3 0
BITMAP
80
80
80
80
80
80
80
80
80
80
80
80
80
80
80
80
80
80
80
80
80
80
80
80
ENDCHAR
STARTCHAR 004A
ENCODING 74
SWIDTH 450 0
DWIDTH 15 0
BBX 12 24 0 0
BITMAP
0010
0010
0010
0010
0010
0010
0010
0010
0010
0010
0010
0010
0010
0010
0010
0010
0010
0030
0030
C030
C020
6060
39C0
1F80
ENDCHAR
STARTCHAR 004B
ENCODING 75
SWIDTH 570 0
DWIDTH 19 0
BBX 16 24 2 0
BITMAP
C006
C00C
C018
C030
C060
C0C0
C180
C300
C600
CC00
D800
F000
D800
CC00
C600
C300
C180
C0C0
C060
C030
C018
C00C
C006
C003
ENDCHAR
STARTCHAR 004C
ENCODING 76
SWIDTH 510 0
DWIDTH 17 0
BBX 13 24 3 0
BITMAP
8000
8000
8000
8000
8000
8000
8000
8000
8000
8000
8000
8000
8000
8000
8000
8000
8000
8000
8000
8000
8000
8000
8000
FFF8
ENDCHAR
STARTCHAR 004D
ENCODING 77
SWIDTH 840 0
DWIDTH 28 0
BBX 23 24 2 0
BITMAP
C00002
C00006
E00006
E0000E
F0000A
D0001A
D8001A
C80012
CC0032
CC0022
C40062
C60042
C200C2
C30082
C10182
C18102
C08302
C0C302
C04202
C06602
C06402
C02C02
C03802
C01802
ENDCHAR
STARTCHAR 004E
ENCODING 78
SWIDTH 660 0
DWIDTH 22 0
BBX 18 24 2 0
BITMAP
C000C0
E000C0
E000C0
F000C0
D800C0
C800C0
CC00C0
C600C0
C300C0
C300C0
C180C0
C0C0C0
C040C0
C060C0
C030C0
C010C0
C018C0
C00CC0
C004C0
C006C0
C003C0
C001C0
C001C0
C000C0
ENDCHAR
STARTCHAR 004F
ENCODING 79
SWIDTH 720 0
DWIDTH 24 0
BBX 22 24 1 0
BITMAP
01FC00
07CF80
1C01C0
180060
300030
600030
600018
400018
C00008
C00008
C00008
80000C
80000C
C00008
C00008
C00008
400018
400018
600030
300030
180060
0C01C0
078F80
01FC00
ENDCHAR
STARTCHAR 0050
ENCODING 80
SWIDTH 570 0
DWIDTH 19 0
BBX 16 24 2 0
BITMAP
FFF0
C03C
C006
C002
C003
C001
C001
C001
C001
C003
C003
C006
C00C
FFF8
C000
C000
C000
C000
C000
C000
C000
C000
C000
C000
ENDCHAR
STARTCHAR 0051
ENCODING 81
SWIDTH 720 0
DWIDTH 24 0
BBX 22 24 1 0
BITMAP
01FC00
07CF80
1C01C0
180060
300030
600030
600018
400018
C00008
C00008
C00008
80000C
80000C
C00008
C00008
C00008
400018
400118
6001B0
3000F0
180060
0C01F0
078F98
01FC08
ENDCHAR
STARTCHAR 0052
ENCODING 82
SWIDTH 600 0
DWIDTH 20 0
BBX 17 24 2 0
BITMAP
FFF000
C03C00
C00600
C00200
C00300
C00100
C00100
C00100
C00100
C00300
C00300
C00600
C00C00
FFF800
C01000
C01800
C00800
C00C00
C00400
C00600
C00200
C00300
C00100
C00180
ENDCHAR
STARTCHAR 0053
ENCODING 83
SWIDTH 600 0
DWIDTH 20 0
BBX 18 24 1 0
BITMAP
07F000
1F7C00
380600
200300
600180
400080
400080
600000
200000
380000
0F0000
03F000
003C00
000700
000180
000080
0000C0
0000C0
C000C0
400080
600180
380300
1F3E00
03F800
ENDCHAR
STARTCHAR 0054
ENCODING 84
SWIDTH 600 0
DWIDTH 20 0
BBX 19 24 0 0
BITMAP
FFFFE0
006000
006000
006000
006000
006000
006000
006000
006000
006000
006000
006000
006000
006000
006000
006000
006000
006000
006000
006000
006000
006000
006000
006000
ENDCHAR
STARTCHAR 0055
ENCODING 85
SWIDTH 690 0
DWIDTH 23 0
BBX 19 24 2 0
BITMAP
C00060
C00060
C00060
C00060
C00060
C00060
C00060
C00060
C00060
C00060
C00060
C00060
C00060
C00060
C00060
C00060
C00060
400040
6000C0
6000C0
300180
180300
0F3E00
03F800
ENDCHAR
STARTCHAR 0056
ENCODING 86
SWIDTH 570 0
DWIDTH 19 0
BBX 19 24 0 0
BITMAP
C00060
400060
600040
6000C0
200080
300080
100180
100100
180100
080300
080200
0C0600
040600
060400
060C00
020800
030800
011800
011000
019000
00B000
00A000
00E000
006000
ENDCHAR
STARTCHAR 0057
ENCODING 87
SWIDTH 900 0
DWIDTH 30 0
BBX 28 24 1 0
BITMAP
80060010
C0060010
C0070030
400F0030
400D0020
60090020
20098060
20188040
30108040
3010C0C0
1030C0C0
10304080
18204080
08206180
08602100
0C402100
0C403300
04C03300
04C01200
06801200
02801E00
03800C00
03000C00
03000C00
ENDCHAR
STARTCHAR 0058
ENCODING 88
SWIDTH 570 0
DWIDTH 19 0
BBX 17 24 1 0
BITMAP
C00080
400180
600300
300600
100400
180C00
0C1800
041000
063000
036000
014000
01C000
01C000
014000
032000
063000
041800
080800
180C00
300600
200200
600300
C00180
800080
ENDCHAR
STARTCHAR 0059
ENCODING 89
SWIDTH 510 0
DWIDTH 17 0
BBX 17 24 0 0
BITMAP
C00180
400100
600300
300200
100600
180400
080C00
0C1800
061000
063000
032000
016000
01C000
00C000
008000
008000
008000
008000
008000
008000
008000
008000
008000
008000
ENDCHAR
STARTCHAR 005A
ENCODING 90
SWIDTH 570 0
DWIDTH 19 0
BBX 16 24 2 0
BITMAP
FFFF
0002
0004
000C
0008
0018
0030
0020
0060
0040
0080
0180
0100
0300
0600
0400
0C00
1800
1000
3000
2000
6000
C000
FFFF
ENDCHAR
STARTCHAR 005B
ENCODING 91
SWIDTH 390 0
DWIDTH 13 0
BBX 5 36 5 -7
BITMAP
F8
80
80
80
80
80
80
80
80
80
80
80
80
80
80
80
80
80
80
80
80
80
80
80
80
80
80
80
80
80
80
80
80
80
80
F8
ENDCHAR
STARTCHAR 005C
ENCODING 92
SWIDTH 360 0
DWIDTH 12 0
BBX 8 24 2 0
BITMAP
C0
C0
40
40
60
60
20
20
30
10
10
18
18
08
08
0C
0C
04
04
06
06
02
02
03
ENDCHAR
STARTCHAR 005D
ENCODING 93
SWIDTH 390 0
DWIDTH 13 0
BBX 6 36 3 -7
BITMAP
FC
0C
0C
0C
0C
0C
0C
0C
0C
0C
0C
0C
0C
0C
0C
0C
0C
0C
0C
0C
0C
0C
0C
0C
0C
0C
0C
0C
0C
0C
0C
0C
0C
0C
0C
FC
ENDCHAR
STARTCHAR 005E
ENCODING 94
SWIDTH 660 0
DWIDTH 22 0
BBX 14 8 4 17
BITMAP
0300
0780
0CC0
1860
3030
6018
C00C
8004
ENDCHAR
STARTCHAR 005F
ENCODING 95
SWIDTH 660 0
DWIDTH 22 0
BBX 22 1 0 -3
BITMAP
FFFFFC
ENDCHAR
STARTCHAR 0060
ENCODING 96
SWIDTH 450 0
DWIDTH 15 0
BBX 3 4 6 27
BITMAP
C0
40
40
60
ENDCHAR
STARTCHAR 0061
ENCODING 97
SWIDTH 540 0
DWIDTH 18 0
BBX 15 18 1 0
BITMAP
07E0
1E78
300C
6006
6006
0002
0002
007E
0FFA
3802
6002
4006
C006
C006
400E
601A
3DF2
1FC2
ENDCHAR
STARTCHAR 0062
ENCODING 98
SWIDTH 570 0
DWIDTH 19 0
BBX 16 24 2 0
BITMAP
C000
C000
C000
C000
C000
C000
C7E0
CE78
D00C
E004
E006
C002
C003
C003
C003
C003
C003
C003
C002
E006
E004
F00C
DE78
C7E0
ENDCHAR
STARTCHAR 0063
ENCODING 99
SWIDTH 540 0
DWIDTH 18 0
BBX 15 18 1 0
BITMAP
07F0
1F7C
380E
3002
6002
4000
4000
C000
C000
C000
C000
4000
4000
6002
3002
380E
1E78
07F0
ENDCHAR
STARTCHAR 0064
ENCODING 100
SWIDTH 570 0
DWIDTH 19 0
BBX 16 24 1 0
BITMAP
0003
0003
0003
0003
0003
0003
07E3
1E73
380F
2007
6003
4003
4003
C003
C001
C001
C003
4003
4003
6003
2005
380D
1E79
07E1
ENDCHAR
STARTCHAR 0065
ENCODING 101
SWIDTH 570 0
DWIDTH 19 0
BBX 17 18 1 0
BITMAP
07F000
0F7C00
380E00
300200
600300
400100
400100
C00180
FFFF80
C00000
C00000
400000
400000
600100
300300
380600
1F7C00
03F000
ENDCHAR
STARTCHAR 0066
ENCODING 102
SWIDTH 330 0
DWIDTH 11 0
BBX 10 24 1 0
BITMAP
07C0
0C00
1800
1800
1800
1800
FFC0
1800
1800
1800
1800
1800
1800
1800
1800
1800
1800
1800
1800
1800
1800
1800
1800
1800
ENDCHAR
STARTCHAR 0067
ENCODING 103
SWIDTH 570 0
DWIDTH 19 0
BBX 16 26 1 -8
BITMAP
07E1
1E79
380D
2007
6003
4003
4003
C003
C001
C001
C003
4003
4003
6003
2007
380F
1E7B
07E3
0003
0003
0003
2002
6006
300C
1E78
07F0
ENDCHAR
STARTCHAR 0068
ENCODING 104
SWIDTH 570 0
DWIDTH 19 0
BBX 15 24 2 0
BITMAP
C000
C000
C000
C000
C000
C000
C7E0
DEF0
F018
E00C
C004
C006
C002
C002
C002
C002
C002
C002
C002
C002
C002
C002
C002
C002
ENDCHAR
STARTCHAR 0069
ENCODING 105
SWIDTH 210 0
DWIDTH 7 0
BBX 1 24 3 0
BITMAP
80
80
00
00
00
00
80
80
80
80
80
80
80
80
80
80
80
80
80
80
80
80
80
80
ENDCHAR
STARTCHAR 006A
ENCODING 106
SWIDTH 240 0
DWIDTH 8 0
BBX 5 32 0 -8
BITMAP
18
18
00
00
00
00
18
18
18
18
18
18
18
18
18
18
18
18
18
18
18
18
18
18
18
18
18
18
18
18
70
E0
ENDCHAR
STARTCHAR 006B
ENCODING 107
SWIDTH 480 0
DWIDTH 16 0
BBX 14 24 2 0
BITMAP
C000
C000
C000
C000
C000
C000
C030
C060
C0C0
C180
C300
C600
CC00
D800
F000
F000
D800
CC00
C700
C180
C0C0
C060
C030
C01C
ENDCHAR
STARTCHAR 006C
ENCODING 108
SWIDTH 210 0
DWIDTH 7 0
BBX 1 24 3 0
BITMAP
80
80
80
80
80
80
80
80
80
80
80
80
80
80
80
80
80
80
80
80
80
80
80
80
ENDCHAR
STARTCHAR 006D
ENCODING 109
SWIDTH 810 0
DWIDTH 27 0
BBX 23 18 2 0
BITMAP
CF81F0
F8E738
E03C0C
C03806
C01802
C01002
C01002
C01002
C01002
C01002
C01002
C01002
C01002
C01002
C01002
C01002
C01002
C01002
ENDCHAR
STARTCHAR 006E
ENCODING 110
SWIDTH 570 0
DWIDTH 19 0
BBX 15 18 2 0
BITMAP
C7E0
DEF0
F018
E00C
C004
C006
C002
C002
C002
C002
C002
C002
C002
C002
C002
C002
C002
C002
ENDCHAR
STARTCHAR 006F
ENCODING 111
SWIDTH 570 0
DWIDTH 19 0
BBX 17 18 1 0
BITMAP
03F000
0F3C00
380600
300200
600300
400100
400180
C00180
C00180
C00180
C00180
400180
400100
600300
300200
380E00
0E3C00
03F000
ENDCHAR
STARTCHAR 0070
ENCODING 112
SWIDTH 570 0
DWIDTH 19 0
BBX 16 26 2 -8
BITMAP
C7E0
CE78
D00C
E004
E006
C002
C003
C003
C003
C003
C003
C003
C002
E006
E004
D00C
CE78
C7E0
C000
C000
C000
C000
C000
C000
C000
C000
ENDCHAR
STARTCHAR 0071
ENCODING 113
SWIDTH 570 0
DWIDTH 19 0
BBX 16 26 1 -8
BITMAP
07E1
1E79
380D
2007
6003
4003
4003
C003
C001
C001
C003
4003
4003
6003
2007
380F
1E7B
07E3
0003
0003
0003
0003
0003
0003
0003
0003
ENDCHAR
STARTCHAR 0072
ENCODING 114
SWIDTH 330 0
DWIDTH 11 0
BBX 8 18 2 0
BITMAP
CF
DC
F0
E0
C0
C0
C0
C0
C0
C0
C0
C0
C0
C0
C0
C0
C0
C0
ENDCHAR
STARTCHAR 0073
ENCODING 115
SWIDTH 510 0
DWIDTH 17 0
BBX 15 18 1 0
BITMAP
0FE0
3EF8
200C
6004
4006
6000
6000
3C00
07C0
00F0
001C
0006
0006
C006
4006
700C
3E78
07E0
ENDCHAR
STARTCHAR 0074
ENCODING 116
SWIDTH 390 0
DWIDTH 13 0
BBX 12 23 0 0
BITMAP
0400
0400
0400
0400
0400
FFF0
0400
0400
0400
0400
0400
0400
0400
0400
0400
0400
0400
0400
0400
0400
0600
0310
01F0
ENDCHAR
STARTCHAR 0075
ENCODING 117
SWIDTH 570 0
DWIDTH 19 0
BBX 15 18 2 0
BITMAP
8006
8006
8006
8006
8006
8006
8006
8006
8006
8006
8006
C006
C006
4006
600E
301E
1E76
0FC6
ENDCHAR
STARTCHAR 0076
ENCODING 118
SWIDTH 480 0
DWIDTH 16 0
BBX 14 18 1 0
BITMAP
8004
C00C
4008
4018
6018
2010
3030
3030
1020
1860
1840
0840
0CC0
0480
0580
0780
0300
0300
ENDCHAR
STARTCHAR 0077
ENCODING 119
SWIDTH 750 0
DWIDTH 25 0
BBX 23 18 1 0
BITMAP
803002
C03806
C03804
402804
606C0C
604C08
204408
20C418
30C618
108210
118230
198330
190320
090120
0F01E0
0E01C0
0600C0
0600C0
ENDCHAR
STARTCHAR 0078
ENCODING 120
SWIDTH 510 0
DWIDTH 17 0
BBX 15 18 1 0
BITMAP
C006
4004
6008
3018
1830
0C60
0440
0280
0380
0380
06C0
0440
0860
1830
3018
600C
4004
8006
ENDCHAR
STARTCHAR 0079
ENCODING 121
SWIDTH 510 0
DWIDTH 17 0
BBX 15 26 1 -8
BITMAP
8006
C004
4004
600C
6008
2008
3018
1010
1830
0830
0820
0C60
0440
0640
02C0
0280
0380
0180
0100
0300
0300
0200
0600
0600
0400
0C00
ENDCHAR
STARTCHAR 007A
ENCODING 122
SWIDTH 540 0
DWIDTH 18 0
BBX 15 18 1 0
BITMAP
FFFE
0004
000C
0018
0030
0060
0040
00C0
0180
0300
0600
0400
0C00
1800
3000
6000
C000
FFFC
ENDCHAR
STARTCHAR 007B
ENCODING 123
SWIDTH 390 0
DWIDTH 13 0
BBX 7 36 5 -7
BITMAP
1E
30
20
60
60
60
60
60
60
60
60
60
60
60
60
60
40
C0
C0
40
60
60
60
60
60
60
60
60
60
60
60
60
60
20
30
1E
ENDCHAR
STARTCHAR 007C
ENCODING 124
SWIDTH 210 0
DWIDTH 7 0
BBX 1 24 3 0
BITMAP
80
80
80
80
80
80
80
80
80
80
80
80
80
80
80
80
80
80
80
80
80
80
80
80
ENDCHAR
STARTCHAR 007D
ENCODING 125
SWIDTH 390 0
DWIDTH 13 0
BBX 7 36 1 -7
BITMAP
F8
08
0C
0C
0C
0C
0C
0C
0C
0C
0C
0C
0C
0C
0C
04
06
02
02
06
04
0C
0C
0C
0C
0C
0C
0C
0C
0C
0C
0C
0C
0C
08
F8
ENDCHAR
STARTCHAR 007E
ENCODING 126
SWIDTH 630 0
DWIDTH 21 0
BBX 13 5 4 8
BITMAP
3818
FE18
C718
C3F0
C0E0
ENDCHAR
STARTCHAR 00A0
ENCODING 160
SWIDTH 210 0
DWIDTH 7 0
BBX 0 0 0 0
BITMAP
ENDCHAR
STARTCHAR 00A1
ENCODING 161
SWIDTH 270 0
DWIDTH 9 0
BBX 1 24 4 -6
BITMAP
80
80
00
00
00
00
80
80
80
80
80
80
80
80
80
80
80
80
80
80
80
80
80
80
ENDCHAR
STARTCHAR 00A2
ENCODING 162
SWIDTH 540 0
DWIDTH 18 0
BBX 16 25 1 -1
BITMAP
0080
0080
0080
07F0
0E38
380E
3006
6003
6000
4000
C000
C000
C000
C000
C000
4000
4000
6003
3006
180E
0E38
07F0
0080
0080
0080
ENDCHAR
STARTCHAR 00A3
ENCODING 163
SWIDTH 570 0
DWIDTH 19 0
BBX 17 24 1 0
BITMAP
00F800
01DE00
030200
060300
040180
040180
040000
040000
040000
040000
040000
FFF800
040000
040000
040000
040000
040000
040000
040000
040000
040000
0C0000
1C0000
FFFF80
ENDCHAR
STARTCHAR 00A4
ENCODING 164
SWIDTH 630 0
DWIDTH 21 0
BBX 19 18 1 3
BITMAP
C3F060
67BCC0
3C0780
300300
200180
600080
4000C0
400040
400040
400040
400040
4000C0
600080
200180
300300
3C0780
6F3CC0
C3F060
ENDCHAR
STARTCHAR 00A5
ENCODING 165
SWIDTH 510 0
DWIDTH 17 0
BBX 17 24 0 0
BITMAP
C00180
400100
600300
300200
100600
180C00
080C00
0C1800
061000
063000
032000
016000
01C000
00C000
1FFE00
008000
008000
008000
008000
1FFE00
008000
008000
008000
008000
ENDCHAR
STARTCHAR 00A6
ENCODING 166
SWIDTH 210 0
DWIDTH 7 0
BBX 1 28 3 -4
BITMAP
80
80
80
80
80
80
80
80
80
80
80
00
00
00
00
00
00
80
80
80
80
80
80
80
80
80
80
80
ENDCHAR
STARTCHAR 00A7
ENCODING 167
SWIDTH 510 0
DWIDTH 17 0
BBX 14 27 2 -5
BITMAP
0F80
3DE0
6030
C018
C018
C000
C000
7000
1E00
33E0
E078
C01C
800C
8004
8004
E00C
7818
0FF0
01E0
0038
0018
0008
8008
C008
6018
3030
1FE0
ENDCHAR
STARTCHAR 00A8
ENCODING 168
SWIDTH 480 0
DWIDTH 16 0
BBX 8 2 4 28
BITMAP
C3
C3
ENDCHAR
STARTCHAR 00A9
ENCODING 169
SWIDTH 750 0
DWIDTH 25 0
BBX 23 22 1 0
BITMAP
01FF00
0703C0
0C0060
180030
307C18
61E70C
43018C
C30184
C20006
860006
860006
860006
C20006
C20006
430184
61830C
20FE18
300018
180070
0E00E0
03EF80
00FE00
ENDCHAR
STARTCHAR 00AA
ENCODING 170
SWIDTH 300 0
DWIDTH 10 0
BBX 8 10 1 9
BITMAP
08
7E
63
03
1F
79
C3
C3
67
7D
ENDCHAR
STARTCHAR 00AB
ENCODING 171
SWIDTH 510 0
DWIDTH 17 0
BBX 11 14 3 2
BITMAP
0420
0C60
18C0
3180
2100
4200
C600
C600
6300
2100
1080
18C0
0C60
0420
ENDCHAR
STARTCHAR 00AC
ENCODING 172
SWIDTH 600 0
DWIDTH 20 0
BBX 16 5 2 7
BITMAP
FFFF
0001
0001
0001
0001
ENDCHAR
STARTCHAR 00AD
ENCODING 173
SWIDTH 420 0
DWIDTH 14 0
BBX 10 1 2 10
BITMAP
FFC0
ENDCHAR
STARTCHAR 00AE
ENCODING 174
SWIDTH 600 0
DWIDTH 20 0
BBX 16 15 2 10
BITMAP
07F0
1C38
300C
6006
47C2
4623
C623
C7C3
C643
4662
6626
2006
380C
0E78
07E0
ENDCHAR
STARTCHAR 00AF
ENCODING 175
SWIDTH 480 0
DWIDTH 16 0
BBX 8 1 4 28
BITMAP
FF
ENDCHAR
STARTCHAR 00B0
ENCODING 176
SWIDTH 450 0
DWIDTH 15 0
BBX 12 12 1 12
BITMAP
0F00
3FC0
6060
4020
C030
8010
8010
C030
C020
6060
3BC0
1F00
ENDCHAR
STARTCHAR 00B1
ENCODING 177
SWIDTH 600 0
DWIDTH 20 0
BBX 16 15 2 3
BITMAP
0180
0180
0180
0180
0180
FFFF
0180
0180
0180
0180
0180
0000
0000
0000
FFFF
ENDCHAR
STARTCHAR 00B2
ENCODING 178
SWIDTH 390 0
DWIDTH 13 0
BBX 9 15 2 9
BITMAP
3E00
7300
C180
8080
8080
0080
0080
0180
0300
0C00
1800
3000
6000
C000
FF80
ENDCHAR
STARTCHAR 00B3
ENCODING 179
SWIDTH 390 0
DWIDTH 13 0
BBX 10 15 1 9
BITMAP
7FC0
0080
0100
0200
0400
0800
1E00
1380
0080
00C0
00C0
00C0
C080
6180
3F00
ENDCHAR
STARTCHAR 00B4
ENCODING 180
SWIDTH 450 0
DWIDTH 15 0
BBX 3 4 6 27
BITMAP
60
60
40
C0
ENDCHAR
STARTCHAR 00B5
ENCODING 181
SWIDTH 570 0
DWIDTH 19 0
BBX 15 26 2 -8
BITMAP
C002
C002
C002
C002
C002
C002
C002
C002
C002
C002
C002
C002
C006
C006
E00E
F01A
DE72
C7E2
C000
C000
C000
C000
C000
C000
C000
C000
ENDCHAR
STARTCHAR 00B6
ENCODING 182
SWIDTH 570 0
DWIDTH 19 0
BBX 13 29 3 -5
BITMAP
0FC8
1FC8
3FC8
7FC8
FFC8
FFC8
FFC8
FFC8
FFC8
FFC8
7FC8
7FC8
3FC8
1FC8
0048
0048
0048
0048
0048
0048
0048
0048
0048
0048
0048
0048
0048
0048
0048
ENDCHAR
STARTCHAR 00B7
ENCODING 183
SWIDTH 210 0
DWIDTH 7 0
BBX 3 3 2 9
BITMAP
40
E0
C0
ENDCHAR
STARTCHAR 00B8
ENCODING 184
SWIDTH 390 0
DWIDTH 13 0
BBX 5 8 4 -8
BITMAP
30
20
60
30
18
18
B8
F0
ENDCHAR
STARTCHAR 00B9
ENCODING 185
SWIDTH 300 0
DWIDTH 10 0
BBX 4 15 2 9
BITMAP
30
F0
90
10
10
10
10
10
10
10
10
10
10
10
10
ENDCHAR
STARTCHAR 00BA
ENCODING 186
SWIDTH 330 0
DWIDTH 11 0
BBX 9 9 1 9
BITMAP
1E00
7700
4180
C180
C180
C180
4180
6300
3E00
ENDCHAR
STARTCHAR 00BB
ENCODING 187
SWIDTH 510 0
DWIDTH 17 0
BBX 12 14 2 2
BITMAP
C600
6300
3180
1080
18C0
0C60
0630
0630
0C60
18C0
3180
2100
6300
4200
ENDCHAR
STARTCHAR 00BC
ENCODING 188
SWIDTH 930 0
DWIDTH 31 0
BBX 25 24 2 0
BITMAP
30001000
F0001800
90003000
10006000
1000C000
10018000
10018000
10030000
10060000
100C0800
10181800
10181000
10303000
10602000
10C06000
01804200
0180C200
03008200
06018200
0C018200
1C01FF80
18000200
30000200
20000200
ENDCHAR
STARTCHAR 00BD
ENCODING 189
SWIDTH 870 0
DWIDTH 29 0
BBX 26 24 2 0
BITMAP
30001000
F0001800
90003000
10006000
1000C000
10018000
10018000
10030000
10060000
100C3F00
10186180
1018C080
1030C0C0
106000C0
10C000C0
01800080
01800180
03000300
06000600
0C000C00
0C003000
18006000
3000C000
2000FFC0
ENDCHAR
STARTCHAR 00BE
ENCODING 190
SWIDTH 960 0
DWIDTH 32 0
BBX 29 24 1 0
BITMAP
7FC00100
00800300
01000600
02000C00
04000C00
08001800
1E003000
13806000
0080C000
00C0C180
00C18100
00C30300
C0860200
61860600
3F0C0400
00180C20
00300C20
00601820
00601820
00C03020
01803FF8
03000020
06000020
02000020
ENDCHAR
STARTCHAR 00BF
ENCODING 191
SWIDTH 510 0
DWIDTH 17 0
BBX 13 24 2 -6
BITMAP
0300
0300
0300
0000
0000
0000
0000
0300
0200
0200
0600
0C00
1C00
3000
6000
C000
8000
8000
8008
8008
C018
C010
7070
1FC0
ENDCHAR
STARTCHAR 00C0
ENCODING 192
SWIDTH 600 0
DWIDTH 20 0
BBX 18 31 1 0
BITMAP
018000
018000
008000
00C000
000000
000000
000000
00C000
00C000
01E000
01A000
013000
033000
031000
021800
061800
040800
040C00
0C0400
080400
180600
180200
100300
300300
3FFF00
200180
600180
400080
4000C0
C00040
800040
ENDCHAR
STARTCHAR 00C1
ENCODING 193
SWIDTH 600 0
DWIDTH 20 0
BBX 18 31 1 0
BITMAP
002000
006000
006000
004000
000000
000000
000000
00C000
00C000
01E000
01A000
013000
033000
031000
021800
061800
040800
040C00
0C0C00
080400
180600
180200
100300
300300
3FFF00
200180
600180
400080
4000C0
C00040
800040
ENDCHAR
STARTCHAR 00C2
ENCODING 194
SWIDTH 600 0
DWIDTH 20 0
BBX 18 31 1 0
BITMAP
00C000
01E000
033000
061800
000000
000000
000000
00C000
00C000
01E000
01A000
013000
033000
031000
021800
061800
040800
040C00
0C0C00
080400
180600
180200
100300
300300
3FFF00
200180
600180
400080
4000C0
C00040
800040
ENDCHAR
STARTCHAR 00C3
ENCODING 195
SWIDTH 600 0
DWIDTH 20 0
BBX 18 31 1 0
BITMAP
070C00
05CC00
047800
000000
000000
000000
000000
00C000
00C000
01E000
01A000
013000
033000
031000
021800
061800
040800
040C00
0C0C00
080400
180600
180200
100300
300300
3FFF00
200180
600180
400080
4000C0
C00040
800040
ENDCHAR
STARTCHAR 00C4
ENCODING 196
SWIDTH 600 0
DWIDTH 20 0
BBX 18 30 1 0
BITMAP
061800
061800
000000
000000
000000
000000
00C000
00C000
01E000
01A000
013000
033000
031000
021800
061800
040800
040C00
0C0C00
080400
180600
180200
100300
300300
3FFF00
200180
600180
400080
4000C0
C00040
800040
ENDCHAR
STARTCHAR 00C5
ENCODING 197
SWIDTH 600 0
DWIDTH 20 0
BBX 18 32 1 0
BITMAP
01E000
033000
021000
021000
03B000
01E000
000000
000000
00C000
00C000
01E000
01A000
013000
033000
031000
021800
061800
040800
040C00
0C0C00
080400
180600
180200
100300
300300
3FFF00
200180
600180
400080
4000C0
C00040
800040
ENDCHAR
STARTCHAR 00C6
ENCODING 198
SWIDTH 900 0
DWIDTH 30 0
BBX 27 24 1 0
BITMAP
00FFFFE0
00840000
01840000
01840000
01040000
03040000
03040000
02040000
06040000
04040000
04040000
0C040000
0807FF80
18040000
18040000
10040000
30040000
3FFC0000
20040000
60040000
40040000
40040000
C0040000
8007FFE0
ENDCHAR
STARTCHAR 00C7
ENCODING 199
SWIDTH 690 0
DWIDTH 23 0
BBX 21 31 1 -7
BITMAP
01FC00
07DF80
1C01C0
180060
300030
600030
600018
400018
C00000
C00000
C00000
800000
800000
C00000
C00000
C00000
400018
400018
600030
300030
180060
0C01C0
079F80
01FC00
001000
003000
003800
000800
000C00
000800
007800
ENDCHAR
STARTCHAR 00C8
ENCODING 200
SWIDTH 570 0
DWIDTH 19 0
BBX 15 31 2 0
BITMAP
0300
0100
0180
0180
0000
0000
0000
FFFE
C000
C000
C000
C000
C000
C000
C000
C000
C000
C000
C000
FFF8
C000
C000
C000
C000
C000
C000
C000
C000
C000
C000
FFFE
ENDCHAR
STARTCHAR 00C9
ENCODING 201
SWIDTH 570 0
DWIDTH 19 0
BBX 15 31 2 0
BITMAP
0040
00C0
0080
0180
0000
0000
0000
FFFE
C000
C000
C000
C000
C000
C000
C000
C000
C000
C000
C000
FFF8
C000
C000
C000
C000
C000
C000
C000
C000
C000
C000
FFFE
ENDCHAR
STARTCHAR 00CA
ENCODING 202
SWIDTH 570 0
DWIDTH 19 0
BBX 15 31 2 0
BITMAP
0380
06C0
0440
0C60
0000
0000
0000
FFFE
C000
C000
C000
C000
C000
C000
C000
C000
C000
C000
C000
FFF8
C000
C000
C000
C000
C000
C000
C000
C000
C000
C000
FFFE
ENDCHAR
STARTCHAR 00CB
ENCODING 203
SWIDTH 570 0
DWIDTH 19 0
BBX 15 30 2 0
BITMAP
1860
1860
0000
0000
0000
0000
FFFE
C000
C000
C000
C000
C000
C000
C000
C000
C000
C000
C000
FFF8
C000
C000
C000
C000
C000
C000
C000
C000
C000
C000
FFFE
ENDCHAR
STARTCHAR 00CC
ENCODING 204
SWIDTH 210 0
DWIDTH 7 0
BBX 3 31 1 0
BITMAP
C0
40
60
60
00
00
00
20
20
20
20
20
20
20
20
20
20
20
20
20
20
20
20
20
20
20
20
20
20
20
20
ENDCHAR
STARTCHAR 00CD
ENCODING 205
SWIDTH 210 0
DWIDTH 7 0
BBX 2 31 3 0
BITMAP
40
40
C0
80
00
00
00
80
80
80
80
80
80
80
80
80
80
80
80
80
80
80
80
80
80
80
80
80
80
80
80
ENDCHAR
STARTCHAR 00CE
ENCODING 206
SWIDTH 210 0
DWIDTH 7 0
BBX 7 31 0 0
BITMAP
38
68
4C
86
00
00
00
10
10
10
10
10
10
10
10
10
10
10
10
10
10
10
10
10
10
10
10
10
10
10
10
ENDCHAR
STARTCHAR 00CF
ENCODING 207
SWIDTH 210 0
DWIDTH 7 0
BBX 8 30 -1 0
BITMAP
C3
C3
00
00
00
00
08
08
08
08
08
08
08
08
08
08
08
08
08
08
08
08
08
08
08
08
08
08
08
08
ENDCHAR
STARTCHAR 00D0
ENCODING 208
SWIDTH 630 0
DWIDTH 21 0
BBX 20 24 0 0
BITMAP
3FFC00
203F00
200380
2000C0
200040
200060
200020
200020
200030
200030
200030
200030
FFC010
200030
200030
200030
200030
200020
200060
200040
2000C0
200180
201F00
3FFC00
ENDCHAR
STARTCHAR 00D1
ENCODING 209
SWIDTH 660 0
DWIDTH 22 0
BBX 18 30 2 0
BITMAP
038400
06E400
043C00
000000
000000
000000
C000C0
E000C0
E000C0
F000C0
D800C0
C800C0
CC00C0
C600C0
C300C0
C300C0
C180C0
C0C0C0
C040C0
C060C0
C030C0
C010C0
C018C0
C00CC0
C004C0
C006C0
C003C0
C001C0
C001C0
C000C0
ENDCHAR
STARTCHAR 00D2
ENCODING 210
SWIDTH 720 0
DWIDTH 24 0
BBX 22 31 1 0
BITMAP
004000
006000
006000
002000
003000
000000
000000
01FC00
07CF80
1C01C0
180060
300030
600030
600018
400018
C00008
C00008
C00008
80000C
80000C
C00008
C00008
C00008
400018
400018
600030
300030
180060
0C01C0
078F80
01FC00
ENDCHAR
STARTCHAR 00D3
ENCODING 211
SWIDTH 720 0
DWIDTH 24 0
BBX 22 31 1 0
BITMAP
000800
001800
001800
001000
003000
000000
000000
01FC00
07CF80
1C01C0
180060
300030
600030
600018
400018
C00008
C00008
C00008
80000C
80000C
C00008
C00008
C00008
400018
400018
600030
300030
180060
0C01C0
078F80
01FC00
ENDCHAR
STARTCHAR 00D4
ENCODING 212
SWIDTH 720 0
DWIDTH 24 0
BBX 22 30 1 0
BITMAP
007000
005800
008C00
010600
000000
000000
01FC00
07CF80
1C01C0
180060
300030
600030
600018
400018
C00008
C00008
C00008
80000C
80000C
C00008
C00008
C00008
400018
400018
600030
300030
180060
0C01C0
078F80
01FC00
ENDCHAR
STARTCHAR 00D5
ENCODING 213
SWIDTH 720 0
DWIDTH 24 0
BBX 22 29 1 0
BITMAP
01E300
033A00
030E00
000000
000000
01FC00
07CF80
1C01C0
180060
300030
600030
600018
400018
C00008
C00008
C00008
80000C
80000C
C00008
C00008
C00008
400018
400018
600030
300030
180060
0C01C0
078F80
01FC00
ENDCHAR
STARTCHAR 00D6
ENCODING 214
SWIDTH 720 0
DWIDTH 24 0
BBX 22 29 1 0
BITMAP
018600
018600
000000
000000
000000
01FC00
07CF80
1C01C0
180060
300030
600030
600018
400018
C00008
C00008
C00008
80000C
80000C
C00008
C00008
C00008
400018
400018
600030
300030
180060
0C01C0
078F80
01FC00
ENDCHAR
STARTCHAR 00D7
ENCODING 215
SWIDTH 480 0
DWIDTH 16 0
BBX 11 11 2 7
BITMAP
C060
60C0
3180
1B00
0E00
0600
1B00
3180
60C0
C060
8020
ENDCHAR
STARTCHAR 00D8
ENCODING 216
SWIDTH 720 0
DWIDTH 24 0
BBX 22 24 1 0
BITMAP
01FC04
07CF8C
1C01D8
180070
300070
6000F0
600198
400318
C00608
C00C08
C01808
80300C
80600C
C0C008
C18008
C10008
420018
440018
680030
380030
380060
7C01C0
C78F80
81FC00
ENDCHAR
STARTCHAR 00D9
ENCODING 217
SWIDTH 690 0
DWIDTH 23 0
BBX 19 31 2 0
BITMAP
008000
00C000
004000
004000
000000
000000
000000
C00060
C00060
C00060
C00060
C00060
C00060
C00060
C00060
C00060
C00060
C00060
C00060
C00060
C00060
C00060
C00060
C00060
400040
6000C0
6000C0
300180
180300
0F3E00
03F800
ENDCHAR
STARTCHAR 00DA
ENCODING 218
SWIDTH 690 0
DWIDTH 23 0
BBX 19 31 2 0
BITMAP
002000
006000
004000
004000
000000
000000
000000
C00060
C00060
C00060
C00060
C00060
C00060
C00060
C00060
C00060
C00060
C00060
C00060
C00060
C00060
C00060
C00060
C00060
400040
6000C0
6000C0
300180
180300
0F3E00
03F800
ENDCHAR
STARTCHAR 00DB
ENCODING 219
SWIDTH 690 0
DWIDTH 23 0
BBX 19 31 2 0
BITMAP
00E000
01B000
011000
031800
000000
000000
000000
C00060
C00060
C00060
C00060
C00060
C00060
C00060
C00060
C00060
C00060
C00060
C00060
C00060
C00060
C00060
C00060
C00060
400040
6000C0
6000C0
300180
180300
0F3E00
03F800
ENDCHAR
STARTCHAR 00DC
ENCODING 220
SWIDTH 690 0
DWIDTH 23 0
BBX 19 30 2 0
BITMAP
061800
061800
000000
000000
000000
000000
C00060
C00060
C00060
C00060
C00060
C00060
C00060
C00060
C00060
C00060
C00060
C00060
C00060
C00060
C00060
C00060
C00060
400040
6000C0
6000C0
300180
180300
0F3E00
03F800
ENDCHAR
STARTCHAR 00DD
ENCODING 221
SWIDTH 510 0
DWIDTH 17 0
BBX 17 31 0 0
BITMAP
004000
00C000
008000
008000
000000
000000
000000
C00180
400100
600300
300200
100600
180400
080C00
0C1800
061000
063000
032000
016000
01C000
00C000
008000
008000
008000
008000
008000
008000
008000
008000
008000
008000
ENDCHAR
STARTCHAR 00DE
ENCODING 222
SWIDTH 570 0
DWIDTH 19 0
BBX 16 24 2 0
BITMAP
C000
C000
C000
C000
C000
FFE0
C078
C00C
C006
C002
C003
C003
C003
C003
C003
C006
C006
C01C
FFF0
C000
C000
C000
C000
C000
ENDCHAR
STARTCHAR 00DF
ENCODING 223
SWIDTH 570 0
DWIDTH 19 0
BBX 15 24 2 0
BITMAP
0FC0
3DE0
6030
4018
C018
C018
C018
C018
C010
C030
C1E0
C1E0
C038
C00C
C006
C006
C002
C002
C002
C006
C004
C00C
C6F8
C7E0
ENDCHAR
STARTCHAR 00E0
ENCODING 224
SWIDTH 540 0
DWIDTH 18 0
BBX 15 25 1 0
BITMAP
0300
0300
0100
0180
0080
0000
0000
07E0
1E78
300C
6006
6006
0002
0002
007E
0FFA
3802
6002
4006
C006
C006
400E
601A
3DF2
1FC2
ENDCHAR
STARTCHAR 00E1
ENCODING 225
SWIDTH 540 0
DWIDTH 18 0
BBX 15 25 1 0
BITMAP
0040
00C0
00C0
0080
0180
0000
0000
07E0
1E78
300C
6006
6006
0002
0002
007E
0FFA
3802
6002
4006
C006
C006
400E
601A
3DF2
1FC2
ENDCHAR
STARTCHAR 00E2
ENCODING 226
SWIDTH 540 0
DWIDTH 18 0
BBX 15 24 1 0
BITMAP
0180
0340
0660
0430
0000
0000
07E0
1E78
300C
6006
6006
0002
0002
007E
0FFA
3802
6002
4006
C006
C006
400E
601A
3DF2
1FC2
ENDCHAR
STARTCHAR 00E3
ENCODING 227
SWIDTH 540 0
DWIDTH 18 0
BBX 15 23 1 0
BITMAP
0F08
09D8
0870
0000
0000
07E0
1E78
300C
6006
6006
0002
0002
007E
0FFA
3802
6002
4006
C006
C006
400E
601A
3DF2
1FC2
ENDCHAR
STARTCHAR 00E4
ENCODING 228
SWIDTH 540 0
DWIDTH 18 0
BBX 15 24 1 0
BITMAP
0C30
0C30
0000
0000
0000
0000
07E0
1E78
300C
6006
6006
0002
0002
007E
0FFA
3802
6002
4006
C006
C006
400E
601A
3DF2
1FC2
ENDCHAR
STARTCHAR 00E5
ENCODING 229
SWIDTH 540 0
DWIDTH 18 0
BBX 15 26 1 0
BITMAP
01C0
0360
0620
0620
0620
03E0
0000
0000
07E0
1E78
300C
6006
6006
0002
0002
007E
0FFA
3802
6002
4006
C006
C006
400E
601A
3DF2
1FC2
ENDCHAR
STARTCHAR 00E6
ENCODING 230
SWIDTH 960 0
DWIDTH 32 0
BBX 29 18 1 0
BITMAP
07E01F00
1E787BC0
300CC060
60058030
60070010
00070018
00020018
00020008
0FFFFFF8
3E020000
60020000
C0060000
C0070000
C0070018
400D8030
6018C060
3DF073C0
0FC03F80
ENDCHAR
STARTCHAR 00E7
ENCODING 231
SWIDTH 540 0
DWIDTH 18 0
BBX 15 25 1 -7
BITMAP
07F0
1F7C
380E
3002
6002
4000
4000
C000
C000
C000
C000
4000
4000
6002
3002
380E
1E3C
07F0
0080
0180
01C0
0040
0060
0040
03C0
ENDCHAR
STARTCHAR 00E8
ENCODING 232
SWIDTH 570 0
DWIDTH 19 0
BBX 17 25 1 0
BITMAP
010000
018000
018000
008000
00C000
000000
000000
07F000
0F7C00
380E00
300200
600300
400100
400100
C00180
FFFF80
C00000
C00000
400000
400000
600100
300300
380600
1F7C00
03F000
ENDCHAR
STARTCHAR 00E9
ENCODING 233
SWIDTH 570 0
DWIDTH 19 0
BBX 17 25 1 0
BITMAP
002000
006000
004000
004000
00C000
000000
000000
07F000
0F7C00
380E00
300200
600300
400100
400100
C00180
FFFF80
C00000
C00000
400000
400000
600100
300300
380600
1F7C00
03F000
ENDCHAR
STARTCHAR 00EA
ENCODING 234
SWIDTH 570 0
DWIDTH 19 0
BBX 17 24 1 0
BITMAP
01C000
036000
063000
041800
000000
000000
07F000
0F7C00
380E00
300200
600300
400100
400100
C00180
FFFF80
C00000
C00000
400000
400000
600100
300300
380600
1F7C00
03F000
ENDCHAR
STARTCHAR 00EB
ENCODING 235
SWIDTH 570 0
DWIDTH 19 0
BBX 17 24 1 0
BITMAP
061800
061800
000000
000000
000000
000000
07F000
0F7C00
380E00
300200
600300
400100
400100
C00180
FFFF80
C00000
C00000
400000
400000
600100
300300
380600
1F7C00
03F000
ENDCHAR
STARTCHAR 00EC
ENCODING 236
SWIDTH 210 0
DWIDTH 7 0
BBX 3 25 1 0
BITMAP
C0
40
60
60
00
00
00
20
20
20
20
20
20
20
20
20
20
20
20
20
20
20
20
20
20
ENDCHAR
STARTCHAR 00ED
ENCODING 237
SWIDTH 210 0
DWIDTH 7 0
BBX 2 25 3 0
BITMAP
40
40
C0
80
00
00
00
80
80
80
80
80
80
80
80
80
80
80
80
80
80
80
80
80
80
ENDCHAR
STARTCHAR 00EE
ENCODING 238
SWIDTH 210 0
DWIDTH 7 0
BBX 7 25 0 0
BITMAP
38
68
4C
86
00
00
00
10
10
10
10
10
10
10
10
10
10
10
10
10
10
10
10
10
10
ENDCHAR
STARTCHAR 00EF
ENCODING 239
SWIDTH 210 0
DWIDTH 7 0
BBX 8 24 -1 0
BITMAP
C3
C3
00
00
00
00
08
08
08
08
08
08
08
08
08
08
08
08
08
08
08
08
08
08
ENDCHAR
STARTCHAR 00F0
ENCODING 240
SWIDTH 570 0
DWIDTH 19 0
BBX 17 25 1 1
BITMAP
000C00
01D800
00F000
007800
004C00
00C600
000200
000300
07F100
1E3D00
380780
200380
600380
400180
C00180
C00180
C00180
C00180
C00180
400100
600300
200200
300600
1F3C00
07F000
ENDCHAR
STARTCHAR 00F1
ENCODING 241
SWIDTH 570 0
DWIDTH 19 0
BBX 15 23 2 0
BITMAP
1E10
11B0
10E0
0000
0000
C7E0
DEF0
F018
E00C
C004
C006
C002
C002
C002
C002
C002
C002
C002
C002
C002
C002
C002
C002
ENDCHAR
STARTCHAR 00F2
ENCODING 242
SWIDTH 570 0
DWIDTH 19 0
BBX 17 25 1 0
BITMAP
030000
010000
010000
018000
008000
000000
000000
03F000
0F3C00
380600
300200
600300
400100
400180
C00180
C00180
C00180
C00180
400180
400100
600300
300200
380E00
0E3C00
03F000
ENDCHAR
STARTCHAR 00F3
ENCODING 243
SWIDTH 570 0
DWIDTH 19 0
BBX 17 25 1 0
BITMAP
006000
004000
00C000
00C000
008000
000000
000000
03F000
0F3C00
380600
300200
600300
400100
400180
C00180
C00180
C00180
C00180
400180
400100
600300
300200
380E00
0E3C00
03F000
ENDCHAR
STARTCHAR 00F4
ENCODING 244
SWIDTH 570 0
DWIDTH 19 0
BBX 17 24 1 0
BITMAP
01C000
036000
063000
041800
000000
000000
03F000
0F3C00
380600
300200
600300
400100
400180
C00180
C00180
C00180
C00180
400180
400100
600300
300200
380E00
0E3C00
03F000
ENDCHAR
STARTCHAR 00F5
ENCODING 245
SWIDTH 570 0
DWIDTH 19 0
BBX 17 23 1 0
BITMAP
0F0800
08D800
087000
000000
000000
03F000
0F3C00
380600
300200
600300
400100
400180
C00180
C00180
C00180
C00180
400180
400100
600300
300200
380E00
0E3C00
03F000
ENDCHAR
STARTCHAR 00F6
ENCODING 246
SWIDTH 570 0
DWIDTH 19 0
BBX 17 24 1 0
BITMAP
061800
061800
000000
000000
000000
000000
03F000
0F3C00
380600
300200
600300
400100
400180
C00180
C00180
C00180
C00180
400180
400100
600300
300200
380E00
0E3C00
03F000
ENDCHAR
STARTCHAR 00F7
ENCODING 247
SWIDTH 540 0
DWIDTH 18 0
BBX 14 10 2 7
BITMAP
0300
0300
0000
0000
0000
FFFC
0000
0000
0300
0300
ENDCHAR
STARTCHAR 00F8
ENCODING 248
SWIDTH 570 0
DWIDTH 19 0
BBX 17 18 1 0
BITMAP
07F080
0F3D80
180F00
300700
600F00
401900
403180
C06180
C0C180
C18180
C30180
C60100
4C0100
780300
700200
780E00
DE3C00
87F000
ENDCHAR
STARTCHAR 00F9
ENCODING 249
SWIDTH 570 0
DWIDTH 19 0
BBX 15 25 2 0
BITMAP
0200
0300
0100
0100
0000
0000
0000
8006
8006
8006
8006
8006
8006
8006
8006
8006
8006
8006
C006
C006
4006
600E
301E
1E76
0FC6
ENDCHAR
STARTCHAR 00FA
ENCODING 250
SWIDTH 570 0
DWIDTH 19 0
BBX 15 25 2 0
BITMAP
0080
0180
0180
0100
0000
0000
0000
8006
8006
8006
8006
8006
8006
8006
8006
8006
8006
8006
C006
C006
4006
600E
301E
1E76
0FC6
ENDCHAR
STARTCHAR 00FB
ENCODING 251
SWIDTH 570 0
DWIDTH 19 0
BBX 15 25 2 0
BITMAP
0380
0680
0CC0
0860
0000
0000
0000
8006
8006
8006
8006
8006
8006
8006
8006
8006
8006
8006
C006
C006
4006
600E
301E
1E76
0FC6
ENDCHAR
STARTCHAR 00FC
ENCODING 252
SWIDTH 570 0
DWIDTH 19 0
BBX 15 24 2 0
BITMAP
1860
1860
0000
0000
0000
0000
8006
8006
8006
8006
8006
8006
8006
8006
8006
8006
8006
C006
C006
4006
600E
301E
1E76
0FC6
ENDCHAR
STARTCHAR 00FD
ENCODING 253
SWIDTH 510 0
DWIDTH 17 0
BBX 15 33 1 -8
BITMAP
0080
0180
0180
0100
0000
0000
0000
8006
C004
4004
600C
6008
2008
3018
1010
1830
0830
0820
0C60
0440
0640
02C0
0280
0380
0180
0100
0300
0300
0200
0600
0600
0400
0C00
ENDCHAR
STARTCHAR 00FE
ENCODING 254
SWIDTH 570 0
DWIDTH 19 0
BBX 16 32 2 -8
BITMAP
C000
C000
C000
C000
C000
C000
C7E0
CE78
D00C
E004
E006
C002
C003
C003
C003
C003
C003
C003
C002
E006
E004
D00C
CE78
C7E0
C000
C000
C000
C000
C000
C000
C000
C000
ENDCHAR
STARTCHAR 00FF
ENCODING 255
SWIDTH 510 0
DWIDTH 17 0
BBX 15 32 1 -8
BITMAP
0C30
0C30
0000
0000
0000
0000
8006
C004
4004
600C
6008
2008
3018
1010
1830
0830
0820
0C60
0440
0640
02C0
0280
0380
0180
0100
0300
0300
0200
0600
0600
0400
0C00
ENDCHAR
ENDFONT
