STARTFONT 2.1
COMMENT
COMMENT Converted from OpenType font "manrope-extrabold.otf" by "otf2bdf 3.0".
COMMENT
FONT -FreeType-Manrope ExtraBold-Medium-R-Normal--30-220-100-100-P-151-ISO10646-1
SIZE 22 100 100
FONTBOUNDINGBOX 31 40 -1 -8
STARTPROPERTIES 19
FOUNDRY "FreeType"
FAMILY_NAME "Manrope ExtraBold"
WEIGHT_NAME "Medium"
SLANT "R"
SETWIDTH_NAME "Normal"
ADD_STYLE_NAME ""
PIXEL_SIZE 30
POINT_SIZE 220
RESOLUTION_X 100
RESOLUTION_Y 100
SPACING "P"
AVERAGE_WIDTH 151
CHARSET_REGISTRY "ISO10646"
CHARSET_ENCODING "1"
FONT_ASCENT 33
FONT_DESCENT 9
COPYRIGHT "Copyright 2019-2021 The Manrope Project Authors (https://github.com/sharanda/manrope)"
_OTF_FONTFILE "manrope-extrabold.otf"
_OTF_PSNAME "Manrope-ExtraBold"
ENDPROPERTIES
CHARS 191
STARTCHAR 0020
ENCODING 32
SWIDTH 196 0
DWIDTH 6 0
BBX 0 0 0 0
BITMAP
ENDCHAR
STARTCHAR 0021
ENCODING 33
SWIDTH 360 0
DWIDTH 11 0
BBX 4 22 4 0
BITMAP
F0
F0
F0
F0
F0
F0
F0
F0
F0
F0
F0
F0
F0
F0
F0
F0
F0
00
F0
F0
F0
F0
ENDCHAR
STARTCHAR 0022
ENCODING 34
SWIDTH 490 0
DWIDTH 15 0
BBX 10 6 2 16
BITMAP
F3C0
F3C0
F3C0
F3C0
F3C0
F3C0
ENDCHAR
STARTCHAR 0023
ENCODING 35
SWIDTH 949 0
DWIDTH 29 0
BBX 25 22 2 0
BITMAP
00787800
0078F000
0078F000
00F8F000
00F0F000
1FFFFF80
3FFFFF00
3FFFFF00
3FFFFF00
01E3C000
01E3C000
03C3C000
7FFFFE00
FFFFFC00
FFFFFC00
FFFFFC00
078F0000
078F0000
0F0F0000
0F1F0000
0F1E0000
0F1E0000
ENDCHAR
STARTCHAR 0024
ENCODING 36
SWIDTH 654 0
DWIDTH 20 0
BBX 17 28 1 -3
BITMAP
01E000
01E000
01E000
07F800
1FFC00
3FFE00
3FFF00
7C1F80
780F80
780600
7C0000
7F8000
3FF000
1FFE00
07FF00
00FF80
001F80
000780
F80780
F80780
7C0F80
7FFF80
3FFF00
1FFE00
07F800
01E000
01E000
01E000
ENDCHAR
STARTCHAR 0025
ENCODING 37
SWIDTH 916 0
DWIDTH 28 0
BBX 24 22 2 0
BITMAP
1F0010
3F8038
7FC07C
FFC0FC
F1E1F8
E1E3F0
F1E7E0
FFCFC0
7FDF80
3FBF00
007E00
00FC00
01F9F8
03F3FC
07E7FE
0FC79E
1F870F
3F070F
7E07FE
7C07FE
3803FC
1000F0
ENDCHAR
STARTCHAR 0026
ENCODING 38
SWIDTH 687 0
DWIDTH 21 0
BBX 18 22 2 0
BITMAP
07E000
1FF000
3FF800
7FFC00
7C3C00
782000
780000
780000
7C0000
3E0000
3F0F00
7FCF00
FFEF00
F3FF00
F1FF00
F07F00
F03F00
F83F00
FFFF80
7FFFC0
3FFB80
0FE100
ENDCHAR
STARTCHAR 0027
ENCODING 39
SWIDTH 261 0
DWIDTH 8 0
BBX 4 6 2 16
BITMAP
F0
F0
F0
F0
F0
F0
ENDCHAR
STARTCHAR 0028
ENCODING 40
SWIDTH 458 0
DWIDTH 14 0
BBX 9 32 4 -6
BITMAP
0400
0700
0F80
1F00
1E00
3E00
3C00
3C00
7800
7800
7800
7000
F000
F000
F000
F000
F000
F000
F000
F000
7000
7800
7800
7800
3C00
3C00
3E00
1E00
1F00
0F80
0700
0400
ENDCHAR
STARTCHAR 0029
ENCODING 41
SWIDTH 458 0
DWIDTH 14 0
BBX 9 32 1 -6
BITMAP
1000
7000
F800
7C00
3C00
3E00
1E00
1E00
0F00
0F00
0F00
0700
0780
0780
0780
0780
0780
0780
0780
0780
0700
0F00
0F00
0F00
1E00
1E00
3E00
3C00
7C00
F800
7000
1000
ENDCHAR
STARTCHAR 002A
ENCODING 42
SWIDTH 458 0
DWIDTH 14 0
BBX 12 11 1 11
BITMAP
0F00
0E00
4E20
7FE0
FFE0
FFF0
1F00
3F80
7FC0
39C0
1100
ENDCHAR
STARTCHAR 002B
ENCODING 43
SWIDTH 556 0
DWIDTH 17 0
BBX 14 14 2 4
BITMAP
0700
0700
0700
0700
0700
FFFC
FFFC
FFFC
0700
0700
0700
0700
0700
0700
ENDCHAR
STARTCHAR 002C
ENCODING 44
SWIDTH 327 0
DWIDTH 10 0
BBX 4 8 2 -5
BITMAP
F0
F0
F0
F0
30
30
F0
E0
ENDCHAR
STARTCHAR 002D
ENCODING 45
SWIDTH 425 0
DWIDTH 13 0
BBX 9 3 2 8
BITMAP
FF80
FF80
FF80
ENDCHAR
STARTCHAR 002E
ENCODING 46
SWIDTH 327 0
DWIDTH 10 0
BBX 4 4 3 0
BITMAP
F0
F0
F0
F0
ENDCHAR
STARTCHAR 002F
ENCODING 47
SWIDTH 458 0
DWIDTH 14 0
BBX 10 22 2 0
BITMAP
03C0
0780
0780
0780
0F80
0F00
0F00
0F00
1F00
1E00
1E00
1E00
3E00
3C00
3C00
3C00
7800
7800
7800
F800
F000
F000
ENDCHAR
STARTCHAR 0030
ENCODING 48
SWIDTH 687 0
DWIDTH 21 0
BBX 16 22 2 0
BITMAP
07E0
1FF8
3FFC
7FFE
7C3F
F81F
F80F
F00F
F00F
F00F
F00F
F00F
F00F
F00F
F00F
F80F
F81F
7C3F
7FFE
3FFC
1FF8
07E0
ENDCHAR
STARTCHAR 0031
ENCODING 49
SWIDTH 458 0
DWIDTH 14 0
BBX 8 22 2 0
BITMAP
1F
7F
FF
FF
FF
CF
8F
0F
0F
0F
0F
0F
0F
0F
0F
0F
0F
0F
0F
0F
0F
0F
ENDCHAR
STARTCHAR 0032
ENCODING 50
SWIDTH 589 0
DWIDTH 18 0
BBX 15 22 2 0
BITMAP
0FC0
3FF0
7FF8
FFFC
F87C
F03E
F01E
001E
003E
003E
007C
00FC
03F8
07E0
0FC0
1F80
3F00
7E00
FFFE
FFFE
FFFE
FFFE
ENDCHAR
STARTCHAR 0033
ENCODING 51
SWIDTH 589 0
DWIDTH 18 0
BBX 15 22 1 0
BITMAP
7FFE
7FFE
7FFE
7FFE
007C
00F8
01F0
07E0
0FE0
0FF8
07FC
02FC
003E
001E
001E
001E
783E
FC7E
7FFC
3FF8
1FF0
07C0
ENDCHAR
STARTCHAR 0034
ENCODING 52
SWIDTH 621 0
DWIDTH 19 0
BBX 15 22 2 0
BITMAP
03E0
03E0
07C0
07C0
0F80
0F80
1F00
1F00
1E00
3E78
3C78
7C78
7878
F878
F878
FFFE
FFFE
FFFE
FFFE
0078
0078
0078
ENDCHAR
STARTCHAR 0035
ENCODING 53
SWIDTH 589 0
DWIDTH 18 0
BBX 14 22 2 0
BITMAP
7FF8
7FF8
7FF8
7FF8
7800
7800
7800
7000
F7C0
FFF0
FFF8
FFFC
107C
003C
003C
003C
F03C
F87C
FFF8
7FF8
3FE0
0F80
ENDCHAR
STARTCHAR 0036
ENCODING 54
SWIDTH 621 0
DWIDTH 19 0
BBX 15 22 2 0
BITMAP
07E0
1FF8
3FFC
7FF8
7C30
F800
F800
F000
F3E0
FFF8
FFFC
FFFE
FC3E
F81E
F01E
F01E
F81E
7C3E
7FFC
3FFC
1FF0
07E0
ENDCHAR
STARTCHAR 0037
ENCODING 55
SWIDTH 556 0
DWIDTH 17 0
BBX 14 22 1 0
BITMAP
FFFC
FFFC
FFFC
FFFC
007C
0078
0078
00F8
00F0
01F0
01E0
01E0
03E0
03C0
07C0
0780
0F80
0F80
0F00
1F00
1E00
3E00
ENDCHAR
STARTCHAR 0038
ENCODING 56
SWIDTH 621 0
DWIDTH 19 0
BBX 15 22 2 0
BITMAP
0FC0
1FF0
3FF8
7FFC
7C7C
F83E
F83E
783C
7FFC
7FFC
3FF8
7FFC
FC7E
F83E
F01E
F01E
F83E
F83E
7FFC
7FFC
3FF0
07E0
ENDCHAR
STARTCHAR 0039
ENCODING 57
SWIDTH 621 0
DWIDTH 19 0
BBX 15 22 2 0
BITMAP
0FC0
1FF0
7FF8
7FFC
F87C
F03E
F01E
F01E
F03E
F87E
FFFE
7FFE
3FFE
0F9E
001E
003E
003E
107C
3FFC
7FF8
3FF0
0FC0
ENDCHAR
STARTCHAR 003A
ENCODING 58
SWIDTH 360 0
DWIDTH 11 0
BBX 5 13 3 2
BITMAP
F8
F8
F8
F8
00
00
00
00
00
F8
F8
F8
F8
ENDCHAR
STARTCHAR 003B
ENCODING 59
SWIDTH 360 0
DWIDTH 11 0
BBX 5 21 3 -5
BITMAP
F8
F8
F8
F8
00
00
00
00
00
00
00
00
00
F8
F8
F8
F8
30
30
70
E0
ENDCHAR
STARTCHAR 003C
ENCODING 60
SWIDTH 654 0
DWIDTH 20 0
BBX 10 15 4 2
BITMAP
0100
0380
07C0
0F80
1F00
3E00
7C00
F800
7C00
3E00
1F00
0F80
07C0
0380
0100
ENDCHAR
STARTCHAR 003D
ENCODING 61
SWIDTH 752 0
DWIDTH 23 0
BBX 15 8 4 7
BITMAP
FFFE
FFFE
FFFE
0000
0000
FFFE
FFFE
FFFE
ENDCHAR
STARTCHAR 003E
ENCODING 62
SWIDTH 654 0
DWIDTH 20 0
BBX 9 14 6 2
BITMAP
2000
7000
F800
FC00
7E00
3F00
0F80
0F80
1F00
3E00
7C00
F800
F000
6000
ENDCHAR
STARTCHAR 003F
ENCODING 63
SWIDTH 556 0
DWIDTH 17 0
BBX 14 22 2 0
BITMAP
0FC0
3FE0
7FF0
FFF8
F878
F07C
007C
0078
0078
00F8
03F0
07E0
07C0
0F80
0F80
0F00
0000
0000
0F00
0F00
0F00
0F00
ENDCHAR
STARTCHAR 0040
ENCODING 64
SWIDTH 916 0
DWIDTH 28 0
BBX 24 23 2 -3
BITMAP
00FF00
03FFC0
0FFFF0
1FC3F8
1E0078
3C003C
787F9E
79FF9E
71FF8E
73C78E
73C38F
F3838F
F3838F
F3C38E
73E7DE
71FFFE
78FFFC
3C7CF8
3E0000
1F8000
0FFF00
07FF00
01FF00
ENDCHAR
STARTCHAR 0041
ENCODING 65
SWIDTH 687 0
DWIDTH 21 0
BBX 19 22 1 0
BITMAP
03F800
03F800
03F800
07FC00
07BC00
07BC00
0FBE00
0F1E00
0F1E00
1F1E00
1E0F00
1E0F00
1E0F00
3FFF80
3FFF80
3FFF80
7FFFC0
7803C0
7803C0
F803C0
F001E0
F001E0
ENDCHAR
STARTCHAR 0042
ENCODING 66
SWIDTH 621 0
DWIDTH 19 0
BBX 17 22 2 0
BITMAP
FFF000
FFF800
FFFC00
FFFE00
F01E00
F01E00
F01F00
F01E00
F03E00
FFFE00
FFFC00
FFFE00
FFFF00
F01F00
F00F00
F00F80
F00F00
F01F00
FFFF00
FFFE00
FFFE00
FFF800
ENDCHAR
STARTCHAR 0043
ENCODING 67
SWIDTH 752 0
DWIDTH 23 0
BBX 20 22 1 0
BITMAP
01FC00
07FF00
1FFFC0
3FFFE0
3F03E0
7C01F0
7800F0
F800C0
F80000
F00000
F00000
F00000
F00000
F80000
F800C0
7800F0
7C01F0
3F07E0
3FFFE0
1FFFC0
07FF00
01FC00
ENDCHAR
STARTCHAR 0044
ENCODING 68
SWIDTH 720 0
DWIDTH 22 0
BBX 18 22 2 0
BITMAP
FFF000
FFFC00
FFFE00
FFFF00
F01F80
F00F80
F00780
F007C0
F007C0
F003C0
F003C0
F003C0
F003C0
F007C0
F007C0
F00780
F00F80
F01F80
FFFF00
FFFE00
FFFC00
FFF000
ENDCHAR
STARTCHAR 0045
ENCODING 69
SWIDTH 589 0
DWIDTH 18 0
BBX 14 22 2 0
BITMAP
FFFC
FFFC
FFFC
FFFC
F000
F000
F000
F000
F000
FFF8
FFF8
FFF8
FFF8
F000
F000
F000
F000
F000
FFFC
FFFC
FFFC
FFFC
ENDCHAR
STARTCHAR 0046
ENCODING 70
SWIDTH 523 0
DWIDTH 16 0
BBX 14 22 2 0
BITMAP
FFFC
FFFC
FFFC
FFFC
F000
F000
F000
F000
F000
FFF0
FFF0
FFF0
FFF0
F000
F000
F000
F000
F000
F000
F000
F000
F000
ENDCHAR
STARTCHAR 0047
ENCODING 71
SWIDTH 752 0
DWIDTH 23 0
BBX 21 22 1 0
BITMAP
01FC00
07FF00
1FFFC0
3FFFE0
3F07E0
7C01F0
7801F0
F80080
F80000
F00000
F007F8
F007F8
F007F8
F800F8
F800F0
7801F0
7C01F0
3F07E0
3FFFC0
1FFF80
07FF00
01FC00
ENDCHAR
STARTCHAR 0048
ENCODING 72
SWIDTH 720 0
DWIDTH 22 0
BBX 18 22 2 0
BITMAP
F003C0
F003C0
F003C0
F003C0
F003C0
F003C0
F003C0
F003C0
F003C0
FFFFC0
FFFFC0
FFFFC0
FFFFC0
F003C0
F003C0
F003C0
F003C0
F003C0
F003C0
F003C0
F003C0
F003C0
ENDCHAR
STARTCHAR 0049
ENCODING 73
SWIDTH 294 0
DWIDTH 9 0
BBX 5 22 2 0
BITMAP
F8
F8
F8
F8
F8
F8
F8
F8
F8
F8
F8
F8
F8
F8
F8
F8
F8
F8
F8
F8
F8
F8
ENDCHAR
STARTCHAR 004A
ENCODING 74
SWIDTH 523 0
DWIDTH 16 0
BBX 13 22 0 0
BITMAP
0078
0078
0078
0078
0078
0078
0078
0078
0078
0078
0078
0078
0078
0078
0078
0078
3078
F8F8
7FF8
7FF0
3FE0
0FC0
ENDCHAR
STARTCHAR 004B
ENCODING 75
SWIDTH 654 0
DWIDTH 20 0
BBX 18 22 2 0
BITMAP
F00F80
F01F00
F01F00
F03E00
F07C00
F0F800
F1F000
F3E000
F3E000
F7C000
FF8000
FF8000
F7C000
F3E000
F3F000
F1F800
F0FC00
F07C00
F03E00
F01F00
F00F80
F007C0
ENDCHAR
STARTCHAR 004C
ENCODING 76
SWIDTH 556 0
DWIDTH 17 0
BBX 14 22 2 0
BITMAP
F800
F800
F800
F800
F800
F800
F800
F800
F800
F800
F800
F800
F800
F800
F800
F800
F800
F800
FFFC
FFFC
FFFC
FFFC
ENDCHAR
STARTCHAR 004D
ENCODING 77
SWIDTH 850 0
DWIDTH 26 0
BBX 22 22 2 0
BITMAP
F0003C
F8003C
F8007C
FC007C
FC00FC
FE00FC
FE01FC
FF01FC
FF03FC
FF83FC
F787BC
F7C7BC
F3CF3C
F3EF3C
F1FF3C
F1FE3C
F0FE3C
F0FC3C
F07C3C
F0783C
F0383C
F0303C
ENDCHAR
STARTCHAR 004E
ENCODING 78
SWIDTH 720 0
DWIDTH 22 0
BBX 18 22 2 0
BITMAP
F803C0
F803C0
FC03C0
FE03C0
FE03C0
FF03C0
FF83C0
FF83C0
F7C3C0
F3E3C0
F3E3C0
F1F3C0
F0FBC0
F0FBC0
F07FC0
F03FC0
F03FC0
F01FC0
F00FC0
F00FC0
F007C0
F003C0
ENDCHAR
STARTCHAR 004F
ENCODING 79
SWIDTH 752 0
DWIDTH 23 0
BBX 21 22 1 0
BITMAP
01FC00
07FF00
1FFFC0
3FFFE0
3F07E0
7C01F0
7800F0
F800F8
F80078
F00078
F00078
F00078
F00078
F80078
F800F8
7800F0
7C01F0
3F03E0
3FFFE0
1FFFC0
07FF00
01FC00
ENDCHAR
STARTCHAR 0050
ENCODING 80
SWIDTH 654 0
DWIDTH 20 0
BBX 17 22 2 0
BITMAP
FFF800
FFFE00
FFFF00
FFFF00
F00F80
F00F80
F00780
F00780
F00780
F00F80
F01F00
FFFF00
FFFE00
FFFC00
FFF800
F00000
F00000
F00000
F00000
F00000
F00000
F00000
ENDCHAR
STARTCHAR 0051
ENCODING 81
SWIDTH 752 0
DWIDTH 23 0
BBX 21 22 1 0
BITMAP
01FC00
07FF00
1FFFC0
3FFFE0
3F07E0
7C01F0
7800F0
F800F8
F80078
F00078
F00078
F00078
F00078
F80278
F807F8
780FF0
7C07F0
3F03E0
3FFFF0
1FFFF8
07FF70
01FC20
ENDCHAR
STARTCHAR 0052
ENCODING 82
SWIDTH 654 0
DWIDTH 20 0
BBX 17 22 2 0
BITMAP
FFF800
FFFE00
FFFF00
FFFF00
F00F80
F00F80
F00780
F00780
F00780
F00F80
F01F00
FFFF00
FFFE00
FFFC00
FFF800
F07C00
F03C00
F03E00
F01E00
F01F00
F00F00
F00F80
ENDCHAR
STARTCHAR 0053
ENCODING 83
SWIDTH 687 0
DWIDTH 21 0
BBX 18 22 1 0
BITMAP
03F800
0FFE00
3FFF00
3FFF80
7E0F80
7C07C0
780780
7C0000
7F8000
3FF800
1FFE00
07FF80
00FFC0
000FC0
0803C0
F803C0
7C03C0
7E0FC0
3FFF80
1FFF80
0FFE00
03F800
ENDCHAR
STARTCHAR 0054
ENCODING 84
SWIDTH 621 0
DWIDTH 19 0
BBX 18 22 0 0
BITMAP
FFFFC0
FFFFC0
FFFFC0
FFFFC0
01E000
01E000
01E000
01E000
01E000
01E000
01E000
01E000
01E000
01E000
01E000
01E000
01E000
01E000
01E000
01E000
01E000
01E000
ENDCHAR
STARTCHAR 0055
ENCODING 85
SWIDTH 720 0
DWIDTH 22 0
BBX 18 22 2 0
BITMAP
F003C0
F003C0
F003C0
F003C0
F003C0
F003C0
F003C0
F003C0
F003C0
F003C0
F003C0
F003C0
F003C0
F003C0
F003C0
F807C0
7807C0
7E1F80
3FFF80
3FFF00
0FFE00
03F000
ENDCHAR
STARTCHAR 0056
ENCODING 86
SWIDTH 654 0
DWIDTH 20 0
BBX 20 22 0 0
BITMAP
F801F0
7801E0
7801E0
7803E0
3C03C0
3C03C0
3C03C0
3E0780
1E0780
1E0780
1F0F80
0F0F00
0F0F00
0F9F00
079E00
079E00
07BE00
07FC00
03FC00
03FC00
03FC00
01F800
ENDCHAR
STARTCHAR 0057
ENCODING 87
SWIDTH 981 0
DWIDTH 30 0
BBX 30 22 0 0
BITMAP
F807807C
7807C078
780FC078
7C0FC078
3C0FE0F8
3C1FE0F0
3C1FE0F0
3E1FE1F0
1E1FF1E0
1E3CF1E0
1F3CF1E0
0F3CF3E0
0F3C7BC0
0F787BC0
07F87BC0
07F87F80
07F03F80
07F03F80
03F03F00
03F01F00
03E01F00
01E01F00
ENDCHAR
STARTCHAR 0058
ENCODING 88
SWIDTH 687 0
DWIDTH 21 0
BBX 19 22 1 0
BITMAP
F803E0
FC07C0
7C0F80
3E0F80
3E1F00
1F3E00
0FBE00
0FFC00
07F800
03F800
03F000
03F000
03F800
07FC00
0FFC00
0FBE00
1F1F00
3E1F00
3E0F80
7C07C0
F807C0
F803E0
ENDCHAR
STARTCHAR 0059
ENCODING 89
SWIDTH 621 0
DWIDTH 19 0
BBX 19 22 0 0
BITMAP
F803E0
7C03C0
7C07C0
3E0F80
1E0F80
1F1F00
0F9F00
0FBE00
07FC00
07FC00
03F800
01F800
01F000
01F000
01F000
01F000
01F000
01F000
01F000
01F000
01F000
01F000
ENDCHAR
STARTCHAR 005A
ENCODING 90
SWIDTH 687 0
DWIDTH 21 0
BBX 17 22 2 0
BITMAP
FFFF80
FFFF80
FFFF00
FFFE00
003E00
007C00
00FC00
00F800
01F800
01F000
03E000
07E000
07C000
0FC000
0F8000
1F0000
3F0000
3E0000
7FFF80
7FFF80
FFFF80
FFFF80
ENDCHAR
STARTCHAR 005B
ENCODING 91
SWIDTH 425 0
DWIDTH 13 0
BBX 7 35 4 -7
BITMAP
FE
FE
FE
FE
F0
F0
F0
F0
F0
F0
F0
F0
F0
F0
F0
F0
F0
F0
F0
F0
F0
F0
F0
F0
F0
F0
F0
F0
F0
F0
F0
FE
FE
FE
FE
ENDCHAR
STARTCHAR 005C
ENCODING 92
SWIDTH 458 0
DWIDTH 14 0
BBX 10 22 2 0
BITMAP
F000
F000
F800
7800
7800
7800
3C00
3C00
3C00
3E00
1E00
1E00
1E00
1F00
0F00
0F00
0F00
0F80
0780
0780
0780
03C0
ENDCHAR
STARTCHAR 005D
ENCODING 93
SWIDTH 425 0
DWIDTH 13 0
BBX 7 35 2 -7
BITMAP
FE
FE
FE
FE
1E
1E
1E
1E
1E
1E
1E
1E
1E
1E
1E
1E
1E
1E
1E
1E
1E
1E
1E
1E
1E
1E
1E
1E
1E
1E
1E
FE
FE
FE
FE
ENDCHAR
STARTCHAR 005E
ENCODING 94
SWIDTH 687 0
DWIDTH 21 0
BBX 15 10 3 12
BITMAP
0100
0380
07C0
0FE0
1FF0
3EF8
7C7C
F83E
701C
2008
ENDCHAR
STARTCHAR 005F
ENCODING 95
SWIDTH 654 0
DWIDTH 20 0
BBX 20 3 0 -4
BITMAP
FFFFF0
FFFFF0
FFFFF0
ENDCHAR
STARTCHAR 0060
ENCODING 96
SWIDTH 556 0
DWIDTH 17 0
BBX 5 6 5 24
BITMAP
E0
70
70
70
38
38
ENDCHAR
STARTCHAR 0061
ENCODING 97
SWIDTH 589 0
DWIDTH 18 0
BBX 15 17 1 0
BITMAP
07E0
1FF8
3FFC
7FFE
783E
001E
03FE
1FFE
7FFE
7F1E
F81E
F03E
F03E
FCFE
7FFE
3FDE
1F9E
ENDCHAR
STARTCHAR 0062
ENCODING 98
SWIDTH 621 0
DWIDTH 19 0
BBX 16 22 2 0
BITMAP
F000
F000
F000
F000
F000
F7E0
FFF8
FFFC
FFFC
F83E
F01E
F01F
F01F
F01F
F01F
F01F
F01E
F83E
FFFC
FFFC
FFF8
F7E0
ENDCHAR
STARTCHAR 0063
ENCODING 99
SWIDTH 589 0
DWIDTH 18 0
BBX 16 17 1 0
BITMAP
03E0
0FF8
3FFC
3FFE
7C3F
781F
F800
F800
F800
F800
F800
781E
7C1F
3FFE
3FFC
1FF8
07E0
ENDCHAR
STARTCHAR 0064
ENCODING 100
SWIDTH 621 0
DWIDTH 19 0
BBX 16 22 1 0
BITMAP
000F
000F
000F
000F
000F
07EF
1FFF
3FFF
3FFF
7C1F
780F
F80F
F80F
F80F
F80F
F80F
780F
7C1F
3FFF
3FFF
1FFF
07EF
ENDCHAR
STARTCHAR 0065
ENCODING 101
SWIDTH 621 0
DWIDTH 19 0
BBX 16 17 1 0
BITMAP
03E0
0FF8
3FFC
3FFE
7C1F
780F
F80F
FFFF
FFFF
FFFF
F800
7808
7C1F
3FFF
3FFE
0FFC
03F0
ENDCHAR
STARTCHAR 0066
ENCODING 102
SWIDTH 392 0
DWIDTH 12 0
BBX 10 22 1 0
BITMAP
07C0
0FC0
1FC0
1F00
3E00
FFC0
FFC0
FFC0
3E00
3E00
3E00
3E00
3E00
3E00
3E00
3E00
3E00
3E00
3E00
3E00
3E00
3E00
ENDCHAR
STARTCHAR 0067
ENCODING 103
SWIDTH 621 0
DWIDTH 19 0
BBX 16 24 1 -7
BITMAP
07EF
1FFF
3FFF
3FFF
7C1F
780F
F80F
F80F
F80F
F80F
F80F
780F
7C1F
3FFF
3FFF
1FFF
07EF
000F
000F
0C1F
3FFE
3FFE
0FFC
07F0
ENDCHAR
STARTCHAR 0068
ENCODING 104
SWIDTH 621 0
DWIDTH 19 0
BBX 16 22 2 0
BITMAP
F000
F000
F000
F000
F000
F3F0
F7F8
FFFC
FFFE
FC3E
F81E
F81F
F01F
F01F
F01F
F01F
F01F
F01F
F01F
F01F
F01F
F01F
ENDCHAR
STARTCHAR 0069
ENCODING 105
SWIDTH 294 0
DWIDTH 9 0
BBX 5 22 2 0
BITMAP
F8
F8
F8
F8
00
F8
F8
F8
F8
F8
F8
F8
F8
F8
F8
F8
F8
F8
F8
F8
F8
F8
ENDCHAR
STARTCHAR 006A
ENCODING 106
SWIDTH 294 0
DWIDTH 9 0
BBX 7 29 0 -7
BITMAP
1E
1E
1E
1E
00
1E
1E
1E
1E
1E
1E
1E
1E
1E
1E
1E
1E
1E
1E
1E
1E
1E
1E
1E
3E
FE
FE
FC
F8
ENDCHAR
STARTCHAR 006B
ENCODING 107
SWIDTH 556 0
DWIDTH 17 0
BBX 15 22 2 0
BITMAP
F000
F000
F000
F000
F000
F03E
F07C
F0F8
F0F8
F1F0
F3E0
F7E0
F7C0
FF80
F7C0
F3E0
F3E0
F1F0
F0F8
F0FC
F07C
F03E
ENDCHAR
STARTCHAR 006C
ENCODING 108
SWIDTH 294 0
DWIDTH 9 0
BBX 5 22 2 0
BITMAP
F8
F8
F8
F8
F8
F8
F8
F8
F8
F8
F8
F8
F8
F8
F8
F8
F8
F8
F8
F8
F8
F8
ENDCHAR
STARTCHAR 006D
ENCODING 109
SWIDTH 916 0
DWIDTH 28 0
BBX 24 17 2 0
BITMAP
F3E0F8
FFFBFE
FFFFFE
FFFFFF
F87E1F
F83C0F
F03C0F
F03C0F
F03C0F
F03C0F
F03C0F
F03C0F
F03C0F
F03C0F
F03C0F
F03C0F
F03C0F
ENDCHAR
STARTCHAR 006E
ENCODING 110
SWIDTH 621 0
DWIDTH 19 0
BBX 16 17 2 0
BITMAP
F3F0
F7F8
FFFC
FFFE
FC3E
F81E
F81F
F01F
F01F
F01F
F01F
F01F
F01F
F01F
F01F
F01F
F01F
ENDCHAR
STARTCHAR 006F
ENCODING 111
SWIDTH 621 0
DWIDTH 19 0
BBX 17 17 1 0
BITMAP
03F000
0FFC00
3FFE00
3FFE00
7C1F00
780F00
F80F80
F80F80
F80780
F80F80
F80F80
780F00
7C1F00
3FFE00
3FFE00
0FFC00
03F000
ENDCHAR
STARTCHAR 0070
ENCODING 112
SWIDTH 621 0
DWIDTH 19 0
BBX 16 24 2 -7
BITMAP
F7E0
FFF8
FFFC
FFFC
F83E
F01E
F01F
F01F
F01F
F01F
F01F
F01E
F83E
FFFC
FFFC
FFF8
F7E0
F000
F000
F000
F000
F000
F000
F000
ENDCHAR
STARTCHAR 0071
ENCODING 113
SWIDTH 621 0
DWIDTH 19 0
BBX 16 24 1 -7
BITMAP
07EF
1FFF
3FFF
3FFF
7C1F
780F
F80F
F80F
F80F
F80F
F80F
780F
7C1F
3FFF
3FFF
1FFF
07EF
000F
000F
000F
000F
000F
000F
000F
ENDCHAR
STARTCHAR 0072
ENCODING 114
SWIDTH 425 0
DWIDTH 13 0
BBX 10 17 2 0
BITMAP
F3C0
F7C0
FFC0
FFC0
FC00
F800
F800
F000
F000
F000
F000
F000
F000
F000
F000
F000
F000
ENDCHAR
STARTCHAR 0073
ENCODING 115
SWIDTH 556 0
DWIDTH 17 0
BBX 14 17 1 0
BITMAP
0FC0
3FF0
3FF8
7FFC
783C
7820
7E00
7FE0
1FF8
07FC
007C
783C
F83C
7FFC
7FFC
3FF8
0FE0
ENDCHAR
STARTCHAR 0074
ENCODING 116
SWIDTH 458 0
DWIDTH 14 0
BBX 12 22 0 0
BITMAP
1E00
1E00
1E00
1E00
1E00
FFF0
FFF0
FFF0
1E00
1E00
1E00
1E00
1E00
1E00
1E00
1E00
1E00
1F00
1FF0
0FF0
0FF0
03F0
ENDCHAR
STARTCHAR 0075
ENCODING 117
SWIDTH 621 0
DWIDTH 19 0
BBX 15 17 2 0
BITMAP
F01E
F01E
F01E
F01E
F01E
F01E
F01E
F01E
F01E
F01E
F01E
F83E
FC3E
7FFE
7FFE
3FEE
0F8E
ENDCHAR
STARTCHAR 0076
ENCODING 118
SWIDTH 556 0
DWIDTH 17 0
BBX 16 17 1 0
BITMAP
F01F
F01E
F81E
783C
783C
3C3C
3C78
3C78
1E78
1EF0
1EF0
0FF0
0FE0
0FE0
07E0
07C0
07C0
ENDCHAR
STARTCHAR 0077
ENCODING 119
SWIDTH 818 0
DWIDTH 25 0
BBX 23 17 1 0
BITMAP
F0381E
F07C1E
F07C3E
787C3C
78FE3C
78FE3C
3CEE78
3DEE78
3DEF78
3DC7F0
1FC7F0
1FC7F0
1F83F0
0F83E0
0F83E0
0F01E0
0F01C0
ENDCHAR
STARTCHAR 0078
ENCODING 120
SWIDTH 556 0
DWIDTH 17 0
BBX 16 17 1 0
BITMAP
F81E
F83E
7C7C
3E78
3EF8
1FF0
0FE0
07E0
07C0
0FE0
0FE0
1FF0
3EF8
3C78
7C7C
F83E
F81F
ENDCHAR
STARTCHAR 0079
ENCODING 121
SWIDTH 556 0
DWIDTH 17 0
BBX 17 24 0 -7
BITMAP
F80780
780780
7C0F00
3C0F00
3C0F00
1E1E00
1E1E00
1F3C00
0F3C00
0F3C00
07F800
07F800
07F800
03F000
03F000
01E000
01E000
01E000
03C000
03C000
078000
078000
078000
0F0000
ENDCHAR
STARTCHAR 007A
ENCODING 122
SWIDTH 523 0
DWIDTH 16 0
BBX 14 17 1 0
BITMAP
7FFC
7FF8
7FF8
7FF0
01F0
01E0
03C0
07C0
0780
0F80
1F00
1E00
3E00
7FFC
7FFC
FFFC
FFFC
ENDCHAR
STARTCHAR 007B
ENCODING 123
SWIDTH 458 0
DWIDTH 14 0
BBX 9 34 4 -6
BITMAP
0780
1F80
3F80
3F80
3C00
3C00
3C00
3C00
3C00
3C00
3C00
3C00
3C00
3C00
3C00
7C00
F800
F800
7C00
3C00
3C00
3C00
3C00
3C00
3C00
3C00
3C00
3C00
3C00
3C00
3F80
3F80
1F80
0F80
ENDCHAR
STARTCHAR 007C
ENCODING 124
SWIDTH 327 0
DWIDTH 10 0
BBX 4 22 3 0
BITMAP
F0
F0
F0
F0
F0
F0
F0
F0
F0
F0
F0
F0
F0
F0
F0
F0
F0
F0
F0
F0
F0
F0
ENDCHAR
STARTCHAR 007D
ENCODING 125
SWIDTH 458 0
DWIDTH 14 0
BBX 9 34 1 -6
BITMAP
F000
FC00
FC00
FE00
1E00
1E00
1E00
1E00
1E00
1E00
1E00
1E00
1E00
1E00
1E00
1F00
0F80
0F80
1F00
1E00
1E00
1E00
1E00
1E00
1E00
1E00
1E00
1E00
1E00
1E00
FE00
FE00
FC00
F800
ENDCHAR
STARTCHAR 007E
ENCODING 126
SWIDTH 720 0
DWIDTH 22 0
BBX 16 7 3 6
BITMAP
3E0F
7F0F
FFCF
FFFF
F1FF
F0FE
703C
ENDCHAR
STARTCHAR 00A0
ENCODING 160
SWIDTH 196 0
DWIDTH 6 0
BBX 0 0 0 0
BITMAP
ENDCHAR
STARTCHAR 00A1
ENCODING 161
SWIDTH 360 0
DWIDTH 11 0
BBX 4 22 4 -5
BITMAP
F0
F0
F0
F0
00
F0
F0
F0
F0
F0
F0
F0
F0
F0
F0
F0
F0
F0
F0
F0
F0
F0
ENDCHAR
STARTCHAR 00A2
ENCODING 162
SWIDTH 589 0
DWIDTH 18 0
BBX 16 23 1 -1
BITMAP
01C0
01C0
01C0
07F0
1FFC
3FFE
7FFE
7C1F
781E
F800
F800
F800
F800
F800
781E
7C1F
7FFE
3FFE
1FFC
07F0
01C0
01C0
01C0
ENDCHAR
STARTCHAR 00A3
ENCODING 163
SWIDTH 556 0
DWIDTH 17 0
BBX 15 22 1 0
BITMAP
03E0
07F8
0FFC
1FFC
1E3E
1E1E
1E10
1E00
1E00
FFE0
FFE0
FFE0
FFE0
1E00
1E00
1E00
3E00
3E00
FFFC
FFFC
FFFC
FFFC
ENDCHAR
STARTCHAR 00A4
ENCODING 164
SWIDTH 687 0
DWIDTH 21 0
BBX 19 18 1 2
BITMAP
300180
79F3C0
FFFFE0
7FFFC0
3FFF80
3E0F80
3C0780
780380
780380
780380
780380
3C0780
3E0F80
3FBF80
7FFFC0
FFFFE0
79F3C0
300180
ENDCHAR
STARTCHAR 00A5
ENCODING 165
SWIDTH 621 0
DWIDTH 19 0
BBX 19 22 0 0
BITMAP
F803E0
7C03C0
7C07C0
3E0F80
1E0F80
1F1F00
0F9F00
0FBE00
07FC00
07FC00
03F800
1FFF00
1FFF00
1FFF00
01F000
01F000
1FFF00
1FFF00
1FFF00
01F000
01F000
01F000
ENDCHAR
STARTCHAR 00A6
ENCODING 166
SWIDTH 327 0
DWIDTH 10 0
BBX 4 29 3 -7
BITMAP
F0
F0
F0
F0
F0
F0
F0
F0
F0
F0
F0
F0
F0
00
00
00
F0
F0
F0
F0
F0
F0
F0
F0
F0
F0
F0
F0
F0
ENDCHAR
STARTCHAR 00A7
ENCODING 167
SWIDTH 556 0
DWIDTH 17 0
BBX 14 25 1 -4
BITMAP
0100
1FE0
3FF0
7FF8
78F8
7878
7C00
7F80
3FF0
1FF8
7FFC
787C
F83C
F83C
7F7C
7FF8
1FF8
03FC
007C
783C
7C3C
7FFC
3FF8
1FF0
07E0
ENDCHAR
STARTCHAR 00A8
ENCODING 168
SWIDTH 556 0
DWIDTH 17 0
BBX 10 4 4 24
BITMAP
E3C0
E3C0
E3C0
E3C0
ENDCHAR
STARTCHAR 00A9
ENCODING 169
SWIDTH 916 0
DWIDTH 28 0
BBX 26 26 1 -2
BITMAP
007F0000
01FFE000
07FFF000
0FFFFC00
1FC0FE00
3F003E00
3E001F00
7C1F0F80
787F8780
F8FFC780
F0F1E3C0
F1E083C0
F1C003C0
F1C003C0
F1C003C0
F1E083C0
F0F1E3C0
78FFC780
787F8F80
7C1F0F00
3E003F00
1F80FE00
0FFFFC00
07FFF800
01FFE000
007F8000
ENDCHAR
STARTCHAR 00AA
ENCODING 170
SWIDTH 327 0
DWIDTH 10 0
BBX 8 8 1 8
BITMAP
3C
7E
67
3F
7F
C7
C7
7F
ENDCHAR
STARTCHAR 00AB
ENCODING 171
SWIDTH 589 0
DWIDTH 18 0
BBX 13 14 3 1
BITMAP
0810
0E38
1C78
3C70
78E0
F1E0
E3C0
F1C0
71E0
38F0
3C70
1E38
0C38
0010
ENDCHAR
STARTCHAR 00AC
ENCODING 172
SWIDTH 589 0
DWIDTH 18 0
BBX 14 7 2 5
BITMAP
FFFC
FFFC
FFFC
001C
001C
001C
001C
ENDCHAR
STARTCHAR 00AD
ENCODING 173
SWIDTH 425 0
DWIDTH 13 0
BBX 9 3 2 8
BITMAP
FF80
FF80
FF80
ENDCHAR
STARTCHAR 00AE
ENCODING 174
SWIDTH 654 0
DWIDTH 20 0
BBX 16 16 2 8
BITMAP
07E0
1FF8
3FFC
781E
73CE
E267
E227
E267
E3C7
E247
7267
700E
3C3E
1FFC
0FF0
03C0
ENDCHAR
STARTCHAR 00AF
ENCODING 175
SWIDTH 523 0
DWIDTH 16 0
BBX 8 3 4 26
BITMAP
FF
FF
FF
ENDCHAR
STARTCHAR 00B0
ENCODING 176
SWIDTH 458 0
DWIDTH 14 0
BBX 11 11 1 11
BITMAP
1F00
3F80
7FC0
FFE0
F1E0
E1E0
F1E0
FFE0
7FC0
3F80
1F00
ENDCHAR
STARTCHAR 00B1
ENCODING 177
SWIDTH 589 0
DWIDTH 18 0
BBX 14 15 2 2
BITMAP
0380
0380
0380
0380
FFFC
FFFC
FFFC
0380
0380
0380
0000
0000
FFFC
FFFC
FFFC
ENDCHAR
STARTCHAR 00B2
ENCODING 178
SWIDTH 425 0
DWIDTH 13 0
BBX 9 14 2 8
BITMAP
3E00
7F00
F780
C380
C380
0380
0780
0F00
1E00
3C00
7800
F000
FF80
FF80
ENDCHAR
STARTCHAR 00B3
ENCODING 179
SWIDTH 425 0
DWIDTH 13 0
BBX 9 14 2 8
BITMAP
FF00
FF00
0700
0E00
1C00
3E00
3F00
0700
0380
0380
C380
FF00
FE00
3C00
ENDCHAR
STARTCHAR 00B4
ENCODING 180
SWIDTH 556 0
DWIDTH 17 0
BBX 5 6 7 24
BITMAP
38
70
70
F0
E0
E0
ENDCHAR
STARTCHAR 00B5
ENCODING 181
SWIDTH 654 0
DWIDTH 20 0
BBX 16 24 2 -7
BITMAP
F01F
F01F
F01F
F01F
F01F
F01F
F01F
F01F
F01F
F01F
F81F
F81F
FC3F
FFFF
FFFF
FFEF
FF8F
F000
F000
F000
F000
F000
F000
F000
ENDCHAR
STARTCHAR 00B6
ENCODING 182
SWIDTH 752 0
DWIDTH 23 0
BBX 20 26 1 -4
BITMAP
0FF8F0
1FF8F0
3FF8F0
7FF8F0
7FF8F0
FFF8F0
FFF8F0
FFF8F0
FFF8F0
FFF8F0
7FF8F0
7FF8F0
3FF8F0
1FF8F0
01F8F0
0078F0
0078F0
0078F0
0078F0
0078F0
0078F0
0078F0
0078F0
0078F0
0078F0
0078F0
ENDCHAR
STARTCHAR 00B7
ENCODING 183
SWIDTH 294 0
DWIDTH 9 0
BBX 5 5 2 7
BITMAP
70
F8
F8
F0
70
ENDCHAR
STARTCHAR 00B8
ENCODING 184
SWIDTH 425 0
DWIDTH 13 0
BBX 5 8 4 -8
BITMAP
70
60
F0
38
38
F8
F0
E0
ENDCHAR
STARTCHAR 00B9
ENCODING 185
SWIDTH 360 0
DWIDTH 11 0
BBX 5 14 2 8
BITMAP
38
F8
F8
B8
38
38
38
38
38
38
38
38
38
38
ENDCHAR
STARTCHAR 00BA
ENCODING 186
SWIDTH 360 0
DWIDTH 11 0
BBX 9 9 1 8
BITMAP
3C00
7F00
6300
E300
C380
E300
6300
7F00
3C00
ENDCHAR
STARTCHAR 00BB
ENCODING 187
SWIDTH 589 0
DWIDTH 18 0
BBX 14 14 2 1
BITMAP
4080
E1C0
F1E0
78E0
3C70
1C78
0E3C
1E38
1C78
38F0
70E0
F1C0
6180
0080
ENDCHAR
STARTCHAR 00BC
ENCODING 188
SWIDTH 1047 0
DWIDTH 32 0
BBX 27 22 2 0
BITMAP
38001000
F8003800
F8007800
B8007000
3800E000
3801E000
3803C000
38038000
38070700
380F0700
381E0E00
381C0E00
383C1C00
38781C00
00703980
00E03980
01E07180
03C07180
03807FE0
07807FE0
07000180
02000180
ENDCHAR
STARTCHAR 00BD
ENCODING 189
SWIDTH 1047 0
DWIDTH 32 0
BBX 28 22 2 0
BITMAP
38001000
F8003800
F8007800
B8007000
3800E000
3801E000
3803C000
38038000
380707C0
380F0FE0
381E1EF0
381C1C70
383C1830
38780070
00700070
00E001E0
01E003C0
03C00780
03800F00
07801E00
07001FF0
02001FF0
ENDCHAR
STARTCHAR 00BE
ENCODING 190
SWIDTH 1047 0
DWIDTH 32 0
BBX 28 22 2 0
BITMAP
FF000C00
FF000E00
07001E00
0E003C00
1C003800
3E007000
3F00F000
0701E000
0381C380
03838380
C3878700
FF070700
FE0E0700
3C1E0E00
003C0EE0
00381CE0
00701CE0
00F038E0
01E03FF0
01C03FF0
03C000E0
008000E0
ENDCHAR
STARTCHAR 00BF
ENCODING 191
SWIDTH 556 0
DWIDTH 17 0
BBX 13 23 2 -6
BITMAP
0780
0780
0780
0780
0000
0000
0780
0780
0F80
1F00
3F00
3E00
7C00
F800
F000
F000
F000
F078
F8F8
FFF8
7FF0
3FE0
0F80
ENDCHAR
STARTCHAR 00C0
ENCODING 192
SWIDTH 687 0
DWIDTH 21 0
BBX 19 30 1 0
BITMAP
070000
038000
038000
03C000
01C000
01C000
000000
000000
03F800
03F800
03F800
07FC00
07BC00
07BC00
0FBE00
0F1E00
0F1E00
1F1E00
1E0F00
1E0F00
1E0F00
3FFF80
3FFF80
3FFF80
7FFFC0
7803C0
7803C0
F803C0
F001E0
F001E0
ENDCHAR
STARTCHAR 00C1
ENCODING 193
SWIDTH 687 0
DWIDTH 21 0
BBX 19 30 1 0
BITMAP
001C00
003800
003800
007000
007000
00E000
000000
000000
03F800
03F800
03F800
07FC00
07BC00
07BC00
0FBE00
0F1E00
0F1E00
1F1E00
1E0F00
1E0F00
1E0F00
3FFF80
3FFF80
3FFF80
7FFFC0
7803C0
7803C0
F803C0
F001E0
F001E0
ENDCHAR
STARTCHAR 00C2
ENCODING 194
SWIDTH 687 0
DWIDTH 21 0
BBX 19 29 1 0
BITMAP
01F000
03F000
07B800
073C00
0F1E00
000000
000000
03F800
03F800
03F800
07FC00
07BC00
07BC00
0FBE00
0F1E00
0F1E00
1F1E00
1E0F00
1E0F00
1E0F00
3FFF80
3FFF80
3FFF80
7FFFC0
7803C0
7803C0
F803C0
F001E0
F001E0
ENDCHAR
STARTCHAR 00C3
ENCODING 195
SWIDTH 687 0
DWIDTH 21 0
BBX 19 30 1 0
BITMAP
078E00
0FCE00
0FFE00
0E7E00
0E3C00
000000
000000
000000
03F800
03F800
03F800
07FC00
07BC00
07BC00
0FBE00
0F1E00
0F1E00
1F1E00
1E0F00
1E0F00
1E0F00
3FFF80
3FFF80
3FFF80
7FFFC0
7803C0
7803C0
F803C0
F001E0
F001E0
ENDCHAR
STARTCHAR 00C4
ENCODING 196
SWIDTH 687 0
DWIDTH 21 0
BBX 19 28 1 0
BITMAP
0F1E00
0F1E00
0F1E00
0F1E00
000000
000000
03F800
03F800
03F800
07FC00
07BC00
07BC00
0FBE00
0F1E00
0F1E00
1F1E00
1E0F00
1E0F00
1E0F00
3FFF80
3FFF80
3FFF80
7FFFC0
7803C0
7803C0
F803C0
F001E0
F001E0
ENDCHAR
STARTCHAR 00C5
ENCODING 197
SWIDTH 687 0
DWIDTH 21 0
BBX 19 32 1 0
BITMAP
01E000
03F800
03B800
071C00
071C00
071800
03F800
01F000
000000
000000
03F800
03F800
03F800
07FC00
07BC00
07BC00
0FBE00
0F1E00
0F1E00
1F1E00
1E0F00
1E0F00
1E0F00
3FFF80
3FFF80
3FFF80
7FFFC0
7803C0
7803C0
F803C0
F001E0
F001E0
ENDCHAR
STARTCHAR 00C6
ENCODING 198
SWIDTH 949 0
DWIDTH 29 0
BBX 26 22 1 0
BITMAP
03FFFFC0
03FFFFC0
03FFFFC0
07FFFFC0
078F0000
078F0000
0F8F0000
0F0F0000
0F0FFF80
1F0FFF80
1E0FFF80
1E0FFF80
1E0F0000
3FFF0000
3FFF0000
3FFF0000
7FFF0000
780F0000
780FFFC0
F80FFFC0
F00FFFC0
F00FFFC0
ENDCHAR
STARTCHAR 00C7
ENCODING 199
SWIDTH 752 0
DWIDTH 23 0
BBX 21 29 1 -7
BITMAP
01FC00
07FF00
1FFFC0
3FFFE0
3F03E0
7C01F0
7800F0
F800C0
F80000
F00000
F00000
F00000
F00000
F80000
F80080
7800F8
7C01F0
3E03F0
3FFFE0
1FFFC0
07FF80
01FC00
007000
007800
003800
001C00
007800
00F800
00F000
ENDCHAR
STARTCHAR 00C8
ENCODING 200
SWIDTH 589 0
DWIDTH 18 0
BBX 14 30 2 0
BITMAP
0E00
0E00
0700
0700
0780
0380
0000
0000
FFFC
FFFC
FFFC
FFFC
F000
F000
F000
F000
F000
FFF8
FFF8
FFF8
FFF8
F000
F000
F000
F000
F000
FFFC
FFFC
FFFC
FFFC
ENDCHAR
STARTCHAR 00C9
ENCODING 201
SWIDTH 589 0
DWIDTH 18 0
BBX 14 30 2 0
BITMAP
00F0
00E0
00E0
01C0
01C0
0380
0000
0000
FFFC
FFFC
FFFC
FFFC
F000
F000
F000
F000
F000
FFF8
FFF8
FFF8
FFF8
F000
F000
F000
F000
F000
FFFC
FFFC
FFFC
FFFC
ENDCHAR
STARTCHAR 00CA
ENCODING 202
SWIDTH 589 0
DWIDTH 18 0
BBX 14 29 2 0
BITMAP
0780
0FC0
1FE0
3CF0
7878
0000
0000
FFFC
FFFC
FFFC
FFFC
F000
F000
F000
F000
F000
FFF8
FFF8
FFF8
FFF8
F000
F000
F000
F000
F000
FFFC
FFFC
FFFC
FFFC
ENDCHAR
STARTCHAR 00CB
ENCODING 203
SWIDTH 589 0
DWIDTH 18 0
BBX 14 28 2 0
BITMAP
3C70
3C70
3C70
3C70
0000
0000
FFFC
FFFC
FFFC
FFFC
F000
F000
F000
F000
F000
FFF8
FFF8
FFF8
FFF8
F000
F000
F000
F000
F000
FFFC
FFFC
FFFC
FFFC
ENDCHAR
STARTCHAR 00CC
ENCODING 204
SWIDTH 294 0
DWIDTH 9 0
BBX 6 30 1 0
BITMAP
E0
E0
F0
70
70
38
00
00
7C
7C
7C
7C
7C
7C
7C
7C
7C
7C
7C
7C
7C
7C
7C
7C
7C
7C
7C
7C
7C
7C
ENDCHAR
STARTCHAR 00CD
ENCODING 205
SWIDTH 294 0
DWIDTH 9 0
BBX 6 30 2 0
BITMAP
1C
1C
3C
38
38
70
00
00
F8
F8
F8
F8
F8
F8
F8
F8
F8
F8
F8
F8
F8
F8
F8
F8
F8
F8
F8
F8
F8
F8
ENDCHAR
STARTCHAR 00CE
ENCODING 206
SWIDTH 294 0
DWIDTH 9 0
BBX 11 29 -1 0
BITMAP
1F00
3F80
3B80
73C0
F1E0
0000
0000
1F00
1F00
1F00
1F00
1F00
1F00
1F00
1F00
1F00
1F00
1F00
1F00
1F00
1F00
1F00
1F00
1F00
1F00
1F00
1F00
1F00
1F00
ENDCHAR
STARTCHAR 00CF
ENCODING 207
SWIDTH 294 0
DWIDTH 9 0
BBX 11 28 -1 0
BITMAP
F1E0
F1E0
F1E0
F1E0
0000
0000
1F00
1F00
1F00
1F00
1F00
1F00
1F00
1F00
1F00
1F00
1F00
1F00
1F00
1F00
1F00
1F00
1F00
1F00
1F00
1F00
1F00
1F00
ENDCHAR
STARTCHAR 00D0
ENCODING 208
SWIDTH 720 0
DWIDTH 22 0
BBX 20 22 0 0
BITMAP
3FFC00
3FFF00
3FFF80
3FFFC0
3C07E0
3C03E0
3C01F0
3C01F0
3C00F0
FFE0F0
FFE0F0
FFE0F0
3C00F0
3C00F0
3C01F0
3C01E0
3C03E0
3C07E0
3FFFC0
3FFF80
3FFF00
3FFC00
ENDCHAR
STARTCHAR 00D1
ENCODING 209
SWIDTH 720 0
DWIDTH 22 0
BBX 18 30 2 0
BITMAP
070000
0FCE00
0FEE00
0EFE00
0E7E00
003C00
000000
000000
F803C0
F803C0
FC03C0
FE03C0
FE03C0
FF03C0
FF83C0
FF83C0
F7C3C0
F3E3C0
F3E3C0
F1F3C0
F0FBC0
F0FBC0
F07FC0
F03FC0
F03FC0
F01FC0
F00FC0
F00FC0
F007C0
F003C0
ENDCHAR
STARTCHAR 00D2
ENCODING 210
SWIDTH 752 0
DWIDTH 23 0
BBX 21 30 1 0
BITMAP
038000
01C000
01C000
01E000
00E000
00E000
000000
000000
01FC00
07FF00
1FFFC0
3FFFE0
3F07E0
7C01F0
7800F0
F800F8
F80078
F00078
F00078
F00078
F00078
F80078
F800F8
7800F0
7C01F0
3F03E0
3FFFE0
1FFFC0
07FF00
01FC00
ENDCHAR
STARTCHAR 00D3
ENCODING 211
SWIDTH 752 0
DWIDTH 23 0
BBX 21 30 1 0
BITMAP
000E00
001C00
001C00
003800
003800
007800
000000
000000
01FC00
07FF00
1FFFC0
3FFFE0
3F07E0
7C01F0
7800F0
F800F8
F80078
F00078
F00078
F00078
F00078
F80078
F800F8
7800F0
7C01F0
3F03E0
3FFFE0
1FFFC0
07FF00
01FC00
ENDCHAR
STARTCHAR 00D4
ENCODING 212
SWIDTH 752 0
DWIDTH 23 0
BBX 21 29 1 0
BITMAP
00F800
01FC00
01DC00
03CE00
078F00
000000
000000
01FC00
07FF00
1FFFC0
3FFFE0
3F07E0
7C01F0
7800F0
F800F8
F80078
F00078
F00078
F00078
F00078
F80078
F800F8
7800F0
7C01F0
3F03E0
3FFFE0
1FFFC0
07FF00
01FC00
ENDCHAR
STARTCHAR 00D5
ENCODING 213
SWIDTH 752 0
DWIDTH 23 0
BBX 21 29 1 0
BITMAP
03C300
07E300
07FF00
073F00
070E00
000000
000000
01FC00
07FF00
1FFFC0
3FFFE0
3F07E0
7C01F0
7800F0
F800F8
F80078
F00078
F00078
F00078
F00078
F80078
F800F8
7800F0
7C01F0
3F03E0
3FFFE0
1FFFC0
07FF00
01FC00
ENDCHAR
STARTCHAR 00D6
ENCODING 214
SWIDTH 752 0
DWIDTH 23 0
BBX 21 28 1 0
BITMAP
078F00
078F00
078F00
078F00
000000
000000
01FC00
07FF00
1FFFC0
3FFFE0
3F07E0
7C01F0
7800F0
F800F8
F80078
F00078
F00078
F00078
F00078
F80078
F800F8
7800F0
7C01F0
3F03E0
3FFFE0
1FFFC0
07FF00
01FC00
ENDCHAR
STARTCHAR 00D7
ENCODING 215
SWIDTH 523 0
DWIDTH 16 0
BBX 12 12 2 5
BITMAP
2040
70E0
F9F0
7FE0
3FC0
1F80
1F80
3FC0
7FE0
F9F0
70E0
2040
ENDCHAR
STARTCHAR 00D8
ENCODING 216
SWIDTH 752 0
DWIDTH 23 0
BBX 21 22 1 0
BITMAP
01FC20
07FFF0
1FFFF8
3FFFF0
3F07F0
7C07F0
7807F8
F80FF8
F81F78
F03E78
F07C78
F0F878
F1F078
FBE078
FFC0F8
7F80F0
7F01F0
3F03E0
7FFFE0
7FFFC0
3FFF00
11FC00
ENDCHAR
STARTCHAR 00D9
ENCODING 217
SWIDTH 720 0
DWIDTH 22 0
BBX 18 30 2 0
BITMAP
038000
038000
03C000
01C000
01C000
00E000
000000
000000
F003C0
F003C0
F003C0
F003C0
F003C0
F003C0
F003C0
F003C0
F003C0
F003C0
F003C0
F003C0
F003C0
F003C0
F003C0
F807C0
7807C0
7E1F80
3FFF80
3FFF00
0FFE00
03F000
ENDCHAR
STARTCHAR 00DA
ENCODING 218
SWIDTH 720 0
DWIDTH 22 0
BBX 18 30 2 0
BITMAP
003800
007000
007000
00F000
00E000
00E000
000000
000000
F003C0
F003C0
F003C0
F003C0
F003C0
F003C0
F003C0
F003C0
F003C0
F003C0
F003C0
F003C0
F003C0
F003C0
F003C0
F807C0
7807C0
7E1F80
3FFF80
3FFF00
0FFE00
03F000
ENDCHAR
STARTCHAR 00DB
ENCODING 219
SWIDTH 720 0
DWIDTH 22 0
BBX 18 29 2 0
BITMAP
01E000
03F000
07F800
0F3C00
1E1E00
000000
000000
F003C0
F003C0
F003C0
F003C0
F003C0
F003C0
F003C0
F003C0
F003C0
F003C0
F003C0
F003C0
F003C0
F003C0
F003C0
F807C0
7807C0
7E1F80
3FFF80
3FFF00
0FFE00
03F000
ENDCHAR
STARTCHAR 00DC
ENCODING 220
SWIDTH 720 0
DWIDTH 22 0
BBX 18 28 2 0
BITMAP
0F3C00
0F3C00
0F3C00
0F3C00
000000
000000
F003C0
F003C0
F003C0
F003C0
F003C0
F003C0
F003C0
F003C0
F003C0
F003C0
F003C0
F003C0
F003C0
F003C0
F003C0
F807C0
7807C0
7E1F80
3FFF80
3FFF00
0FFE00
03F000
ENDCHAR
STARTCHAR 00DD
ENCODING 221
SWIDTH 621 0
DWIDTH 19 0
BBX 19 30 0 0
BITMAP
003800
003800
007800
007000
007000
00E000
000000
000000
F803E0
7C03C0
7C07C0
3E0F80
1E0F80
1F1F00
0F9F00
0FBE00
07FC00
07FC00
03F800
01F800
01F000
01F000
01F000
01F000
01F000
01F000
01F000
01F000
01F000
01F000
ENDCHAR
STARTCHAR 00DE
ENCODING 222
SWIDTH 654 0
DWIDTH 20 0
BBX 17 22 2 0
BITMAP
F00000
F00000
F00000
F00000
FFF000
FFFC00
FFFE00
FFFF00
F01F00
F00F00
F00F80
F00F80
F00F80
F01F00
FFFF00
FFFE00
FFFC00
FFF000
F00000
F00000
F00000
F00000
ENDCHAR
STARTCHAR 00DF
ENCODING 223
SWIDTH 654 0
DWIDTH 20 0
BBX 16 22 2 0
BITMAP
0FC0
3FF0
7FF8
7FF8
F87C
F83C
F03C
F03C
F07C
F1F8
F1F8
F1FE
F07E
F01F
F00F
F00F
F01F
F03F
F3FE
F3FE
F3FC
F3F0
ENDCHAR
STARTCHAR 00E0
ENCODING 224
SWIDTH 589 0
DWIDTH 18 0
BBX 15 25 1 0
BITMAP
0E00
0700
0700
0780
0380
0380
0000
0000
07E0
1FF8
3FFC
7FFE
783E
001E
03FE
1FFE
7FFE
7F1E
F81E
F03E
F03E
FCFE
7FFE
3FDE
1F9E
ENDCHAR
STARTCHAR 00E1
ENCODING 225
SWIDTH 589 0
DWIDTH 18 0
BBX 15 25 1 0
BITMAP
0070
0070
00E0
00E0
01C0
01C0
0000
0000
07E0
1FF8
3FFC
7FFE
783E
001E
03FE
1FFE
7FFE
7F1E
F81E
F03E
F03E
FCFE
7FFE
3FDE
1F9E
ENDCHAR
STARTCHAR 00E2
ENCODING 226
SWIDTH 589 0
DWIDTH 18 0
BBX 15 24 1 0
BITMAP
03C0
07E0
0FF0
1E78
3C3C
0000
0000
07E0
1FF8
3FFC
7FFE
783E
001E
03FE
1FFE
7FFE
7F1E
F81E
F03E
F03E
FCFE
7FFE
3FDE
1F9E
ENDCHAR
STARTCHAR 00E3
ENCODING 227
SWIDTH 589 0
DWIDTH 18 0
BBX 15 24 1 0
BITMAP
0F1C
1F9C
1FFC
1CFC
1C78
0000
0000
07E0
1FF8
3FFC
7FFE
783E
001E
03FE
1FFE
7FFE
7F1E
F81E
F83E
F03E
F87E
7FFE
3FDE
1F9E
ENDCHAR
STARTCHAR 00E4
ENCODING 228
SWIDTH 589 0
DWIDTH 18 0
BBX 15 23 1 0
BITMAP
1E38
1E38
1E38
1E38
0000
0000
07E0
1FF8
3FFC
7FFE
783E
001E
03FE
1FFE
7FFE
7F1E
F81E
F03E
F03E
FCFE
7FFE
3FDE
1F9E
ENDCHAR
STARTCHAR 00E5
ENCODING 229
SWIDTH 589 0
DWIDTH 18 0
BBX 15 26 1 0
BITMAP
07E0
07F0
0E70
0C30
0E30
0FF0
07E0
03C0
0000
07E0
1FF8
3FFC
7FFE
783E
001E
03FE
1FFE
7FFE
7F1E
F81E
F03E
F03E
FCFE
7FFE
3FDE
1F9E
ENDCHAR
STARTCHAR 00E6
ENCODING 230
SWIDTH 949 0
DWIDTH 29 0
BBX 26 17 1 0
BITMAP
07E0FC00
1FFBFE00
3FFFFF00
7FFFFF80
7C3F87C0
181F03C0
001E03C0
03FFFFC0
1FFFFFC0
7FFFFFC0
7C1E0000
F81F0200
F03F87C0
FCFFFFC0
7FF7FF80
3FE3FF00
1F80FC00
ENDCHAR
STARTCHAR 00E7
ENCODING 231
SWIDTH 589 0
DWIDTH 18 0
BBX 16 24 1 -7
BITMAP
03E0
0FF8
3FFC
3FFE
7C3F
781F
F800
F800
F800
F800
F800
781E
7C1F
7FFE
3FFE
1FFC
07F0
0180
01C0
01E0
00E0
03E0
03E0
03C0
ENDCHAR
STARTCHAR 00E8
ENCODING 232
SWIDTH 621 0
DWIDTH 19 0
BBX 16 25 1 0
BITMAP
0700
0700
0780
0380
0380
01C0
0000
0000
03E0
0FF8
3FFC
3FFE
7C1F
780F
F80F
FFFF
FFFF
FFFF
F800
7808
7C1F
3FFF
3FFE
0FFC
03F0
ENDCHAR
STARTCHAR 00E9
ENCODING 233
SWIDTH 621 0
DWIDTH 19 0
BBX 16 25 1 0
BITMAP
0038
0070
0070
00F0
00E0
00E0
0000
0000
03E0
0FF8
3FFC
3FFE
7C1F
780F
F80F
FFFF
FFFF
FFFF
F800
7808
7C1F
3FFF
3FFE
0FFC
03F0
ENDCHAR
STARTCHAR 00EA
ENCODING 234
SWIDTH 621 0
DWIDTH 19 0
BBX 16 24 1 0
BITMAP
03E0
07F0
0770
0F78
1E3C
0000
0000
03E0
0FF8
3FFC
3FFE
7C1F
780F
F80F
FFFF
FFFF
FFFF
F800
7808
7C1F
3FFF
3FFE
0FFC
03F0
ENDCHAR
STARTCHAR 00EB
ENCODING 235
SWIDTH 621 0
DWIDTH 19 0
BBX 16 23 1 0
BITMAP
1E3C
1E3C
1E3C
1E3C
0000
0000
03E0
0FF8
3FFC
3FFE
7C1F
780F
F80F
FFFF
FFFF
FFFF
F800
7808
7C1F
3FFF
3FFE
0FFC
03F0
ENDCHAR
STARTCHAR 00EC
ENCODING 236
SWIDTH 294 0
DWIDTH 9 0
BBX 6 25 1 0
BITMAP
E0
E0
70
70
70
38
00
00
7C
7C
7C
7C
7C
7C
7C
7C
7C
7C
7C
7C
7C
7C
7C
7C
7C
ENDCHAR
STARTCHAR 00ED
ENCODING 237
SWIDTH 294 0
DWIDTH 9 0
BBX 6 25 2 0
BITMAP
1C
1C
38
38
38
70
00
00
F8
F8
F8
F8
F8
F8
F8
F8
F8
F8
F8
F8
F8
F8
F8
F8
F8
ENDCHAR
STARTCHAR 00EE
ENCODING 238
SWIDTH 294 0
DWIDTH 9 0
BBX 11 24 -1 0
BITMAP
0F00
1F80
3FC0
79E0
F0E0
0000
0000
1F00
1F00
1F00
1F00
1F00
1F00
1F00
1F00
1F00
1F00
1F00
1F00
1F00
1F00
1F00
1F00
1F00
ENDCHAR
STARTCHAR 00EF
ENCODING 239
SWIDTH 294 0
DWIDTH 9 0
BBX 11 23 -1 0
BITMAP
F1E0
F1E0
F1E0
F1E0
0000
0000
1F00
1F00
1F00
1F00
1F00
1F00
1F00
1F00
1F00
1F00
1F00
1F00
1F00
1F00
1F00
1F00
1F00
ENDCHAR
STARTCHAR 00F0
ENCODING 240
SWIDTH 589 0
DWIDTH 18 0
BBX 16 24 1 0
BITMAP
0010
0398
07FC
07F8
01F8
01FC
01DE
000E
07EE
1FFF
3FFF
7FFF
7C1F
781F
F80F
F00F
F00F
F80F
781F
7C1E
7FFE
3FFC
1FF8
07E0
ENDCHAR
STARTCHAR 00F1
ENCODING 241
SWIDTH 621 0
DWIDTH 19 0
BBX 16 25 2 0
BITMAP
1E00
3F18
3F98
3BF8
39F8
0070
0000
0000
F3F0
F7F8
FFFC
FFFE
FC3E
F81E
F81F
F01F
F01F
F01F
F01F
F01F
F01F
F01F
F01F
F01F
F01F
ENDCHAR
STARTCHAR 00F2
ENCODING 242
SWIDTH 621 0
DWIDTH 19 0
BBX 17 25 1 0
BITMAP
0F0000
070000
070000
038000
038000
01C000
000000
000000
03F000
0FFC00
3FFE00
3FFE00
7C1F00
780F00
F80F80
F80F80
F80780
F80F80
F80F80
780F00
7C1F00
3FFE00
3FFE00
0FFC00
03F000
ENDCHAR
STARTCHAR 00F3
ENCODING 243
SWIDTH 621 0
DWIDTH 19 0
BBX 17 25 1 0
BITMAP
007800
007000
007000
00E000
00E000
01C000
000000
000000
03F000
0FFC00
3FFE00
3FFE00
7C1F00
780F00
F80F80
F80F80
F80780
F80F80
F80F80
780F00
7C1F00
3FFE00
3FFE00
0FFC00
03F000
ENDCHAR
STARTCHAR 00F4
ENCODING 244
SWIDTH 621 0
DWIDTH 19 0
BBX 17 24 1 0
BITMAP
03E000
07F000
077000
0F3800
1E3C00
000000
000000
03F000
0FFC00
3FFE00
3FFE00
7C1F00
780F00
F80F80
F80F80
F80780
F80F80
F80F80
780F00
7C1F00
3FFE00
3FFE00
0FFC00
03F000
ENDCHAR
STARTCHAR 00F5
ENCODING 245
SWIDTH 621 0
DWIDTH 19 0
BBX 17 24 1 0
BITMAP
0F1C00
1F9C00
1FFC00
1CFC00
1C7800
000000
000000
03F000
0FFC00
3FFE00
3FFE00
7C1F00
780F00
F80F80
F80F80
F80780
F80F80
F80F80
780F00
7C1F00
3FFE00
3FFE00
0FFC00
03F000
ENDCHAR
STARTCHAR 00F6
ENCODING 246
SWIDTH 621 0
DWIDTH 19 0
BBX 17 23 1 0
BITMAP
0E3C00
0E3C00
0E3C00
0E3C00
000000
000000
03F000
0FFC00
3FFE00
3FFE00
7C1F00
780F00
F80F80
F80F80
F80780
F80F80
F80F80
780F00
7C1F00
3FFE00
3FFE00
0FFC00
03F000
ENDCHAR
STARTCHAR 00F7
ENCODING 247
SWIDTH 556 0
DWIDTH 17 0
BBX 13 14 2 4
BITMAP
0F00
0F00
0F00
0F00
0000
FFF8
FFF8
FFF8
0000
0000
0F00
0F00
0F00
0F00
ENDCHAR
STARTCHAR 00F8
ENCODING 248
SWIDTH 621 0
DWIDTH 19 0
BBX 17 17 1 0
BITMAP
03F200
0FFF00
3FFF80
3FFF80
7C1F00
783F00
F87F80
F9FF80
FBE780
FFCF80
FF8F80
7F0F00
7E1F00
7FFE00
FFFE00
7FFC00
23F000
ENDCHAR
STARTCHAR 00F9
ENCODING 249
SWIDTH 621 0
DWIDTH 19 0
BBX 15 25 2 0
BITMAP
0E00
0E00
0700
0700
0780
0380
0000
0000
F01E
F01E
F01E
F01E
F01E
F01E
F01E
F01E
F01E
F01E
F01E
F83E
FC3E
7FFE
7FFE
3FEE
0F8E
ENDCHAR
STARTCHAR 00FA
ENCODING 250
SWIDTH 621 0
DWIDTH 19 0
BBX 15 25 2 0
BITMAP
00E0
00E0
01C0
01C0
0380
0380
0000
0000
F01E
F01E
F01E
F01E
F01E
F01E
F01E
F01E
F01E
F01E
F01E
F83E
FC3E
7FFE
7FFE
3FEE
0F8E
ENDCHAR
STARTCHAR 00FB
ENCODING 251
SWIDTH 621 0
DWIDTH 19 0
BBX 15 24 2 0
BITMAP
07C0
0FE0
0EE0
1C70
3C78
0000
0000
F01E
F01E
F01E
F01E
F01E
F01E
F01E
F01E
F01E
F01E
F01E
F83E
FC3E
7FFE
7FFE
3FEE
0F8E
ENDCHAR
STARTCHAR 00FC
ENCODING 252
SWIDTH 621 0
DWIDTH 19 0
BBX 15 23 2 0
BITMAP
3C78
3C78
3C78
3C78
0000
0000
F01E
F01E
F01E
F01E
F01E
F01E
F01E
F01E
F01E
F01E
F01E
F83E
FC3E
7FFE
7FFE
3FEE
0F8E
ENDCHAR
STARTCHAR 00FD
ENCODING 253
SWIDTH 556 0
DWIDTH 17 0
BBX 17 32 0 -7
BITMAP
003800
007000
007000
00E000
00E000
00E000
000000
000000
F80780
780780
7C0F00
3C0F00
3C0F00
1E1E00
1E1E00
1F3C00
0F3C00
0F3C00
07F800
07F800
07F800
03F000
03F000
01E000
01E000
01E000
03C000
03C000
078000
078000
078000
0F0000
ENDCHAR
STARTCHAR 00FE
ENCODING 254
SWIDTH 621 0
DWIDTH 19 0
BBX 16 29 2 -7
BITMAP
F000
F000
F000
F000
F000
F7E0
FFF8
FFFC
FFFC
F83E
F01E
F01F
F01F
F01F
F01F
F01F
F01E
F83E
FFFC
FFFC
FFF8
F7E0
F000
F000
F000
F000
F000
F000
F000
ENDCHAR
STARTCHAR 00FF
ENCODING 255
SWIDTH 556 0
DWIDTH 17 0
BBX 17 30 0 -7
BITMAP
0F3C00
0F3C00
0F3C00
0F3C00
000000
000000
F80780
780780
7C0F00
3C0F00
3C0F00
1E1E00
1E1E00
1F3C00
0F3C00
0F3C00
07F800
07F800
07F800
03F000
03F000
01E000
01E000
01E000
03C000
03C000
078000
078000
078000
0F0000
ENDCHAR
ENDFONT
