STARTFONT 2.1
COMMENT
COMMENT Converted from OpenType font "manrope-regular.otf" by "otf2bdf 3.0".
COMMENT
FONT -FreeType-Manrope-Medium-R-Normal--37-270-100-100-P-170-ISO10646-1
SIZE 27 100 100
FONTBOUNDINGBOX 35 46 -1 -9
STARTPROPERTIES 19
FOUNDRY "FreeType"
FAMILY_NAME "Manrope"
WEIGHT_NAME "Medium"
SLANT "R"
SETWIDTH_NAME "Normal"
ADD_STYLE_NAME ""
PIXEL_SIZE 37
POINT_SIZE 270
RESOLUTION_X 100
RESOLUTION_Y 100
SPACING "P"
AVERAGE_WIDTH 170
CHARSET_REGISTRY "ISO10646"
CHARSET_ENCODING "1"
FONT_ASCENT 40
FONT_DESCENT 11
COPYRIGHT "Copyright 2019-2021 The Manrope Project Authors (https://github.com/sharanda/manrope)"
_OTF_FONTFILE "manrope-regular.otf"
_OTF_PSNAME "Manrope-Regular"
ENDPROPERTIES
CHARS 191
STARTCHAR 0020
ENCODING 32
SWIDTH 213 0
DWIDTH 8 0
BBX 0 0 0 0
BITMAP
ENDCHAR
STARTCHAR 0021
ENCODING 33
SWIDTH 320 0
DWIDTH 12 0
BBX 3 27 4 0
BITMAP
E0
E0
E0
E0
E0
E0
E0
E0
E0
E0
E0
E0
E0
E0
E0
E0
E0
E0
E0
E0
00
00
00
00
E0
E0
E0
ENDCHAR
STARTCHAR 0022
ENCODING 34
SWIDTH 400 0
DWIDTH 15 0
BBX 9 7 2 20
BITMAP
E380
E380
E380
E380
E380
E380
E380
ENDCHAR
STARTCHAR 0023
ENCODING 35
SWIDTH 933 0
DWIDTH 35 0
BBX 30 27 2 0
BITMAP
00070380
00060300
000E0700
000E0700
000C0600
001C0E00
001C0E00
1FFFFFFC
1FFFFFFC
1FFFFFFC
00381C00
00381C00
00301800
00703800
00703800
00703800
7FFFFFF0
7FFFFFF0
FFFFFFE0
00C06000
01C0E000
01C0E000
01C0E000
0180C000
0381C000
0381C000
0381C000
ENDCHAR
STARTCHAR 0024
ENCODING 36
SWIDTH 586 0
DWIDTH 22 0
BBX 20 33 1 -3
BITMAP
007000
007000
007000
03FC00
0FFF00
1FFF80
3C03C0
3801E0
7000E0
7000E0
700070
700000
380000
3E0000
1FC000
07F800
01FF00
001FC0
0003E0
0000E0
000070
000070
E00070
E00070
700070
7800E0
3C01E0
1FFFC0
0FFF00
03FC00
007000
007000
007000
ENDCHAR
STARTCHAR 0025
ENCODING 37
SWIDTH 906 0
DWIDTH 34 0
BBX 30 27 2 0
BITMAP
0FC00020
1FE00070
3FF000F0
703801E0
601803C0
E01C0780
E01C0F00
E01C1E00
60183C00
70387800
3FF0F000
1FE1E000
0FC3C000
00078000
000F0F80
001E1FE0
003C3FF0
00787038
00F0E038
01E0E018
03C0E01C
0780E018
0F00E038
1E007038
3C007FF0
38001FE0
10000F80
ENDCHAR
STARTCHAR 0026
ENCODING 38
SWIDTH 640 0
DWIDTH 24 0
BBX 22 27 2 0
BITMAP
03F800
0FFC00
1FFF00
3C0700
380380
300000
700000
700000
300000
380000
3C0000
1E0000
0F0000
3F8000
7DC0E0
70E0E0
E070E0
E03CE0
E01EE0
E00FE0
E007E0
E001E0
7001E0
7807F0
3FFFB8
1FFE1C
07F808
ENDCHAR
STARTCHAR 0027
ENCODING 39
SWIDTH 213 0
DWIDTH 8 0
BBX 3 7 2 20
BITMAP
E0
E0
E0
E0
E0
E0
E0
ENDCHAR
STARTCHAR 0028
ENCODING 40
SWIDTH 426 0
DWIDTH 16 0
BBX 9 38 5 -7
BITMAP
0100
0380
0700
0700
0E00
1C00
1C00
1800
3800
3800
7000
7000
7000
6000
6000
E000
E000
E000
E000
E000
E000
E000
E000
6000
6000
7000
7000
3000
3800
3800
1800
1C00
0E00
0E00
0700
0780
0380
0100
ENDCHAR
STARTCHAR 0029
ENCODING 41
SWIDTH 426 0
DWIDTH 16 0
BBX 9 38 2 -7
BITMAP
4000
E000
7000
7000
3800
1800
1C00
0C00
0E00
0E00
0600
0700
0700
0300
0300
0380
0380
0380
0380
0380
0380
0380
0300
0300
0300
0700
0700
0600
0E00
0E00
1C00
1C00
3800
3800
7000
F000
E000
4000
ENDCHAR
STARTCHAR 002A
ENCODING 42
SWIDTH 426 0
DWIDTH 16 0
BBX 13 12 1 15
BITMAP
0700
0700
0700
4700
7778
FFF8
1FC0
0F80
0FC0
1DC0
38E0
1060
ENDCHAR
STARTCHAR 002B
ENCODING 43
SWIDTH 586 0
DWIDTH 22 0
BBX 17 17 2 5
BITMAP
00C000
00C000
00C000
00C000
00C000
00C000
00C000
FFFF80
FFFF80
00C000
00C000
00C000
00C000
00C000
00C000
00C000
00C000
ENDCHAR
STARTCHAR 002C
ENCODING 44
SWIDTH 266 0
DWIDTH 10 0
BBX 3 8 2 -4
BITMAP
E0
E0
E0
E0
20
20
60
C0
ENDCHAR
STARTCHAR 002D
ENCODING 45
SWIDTH 426 0
DWIDTH 16 0
BBX 12 2 2 11
BITMAP
FFF0
FFF0
ENDCHAR
STARTCHAR 002E
ENCODING 46
SWIDTH 266 0
DWIDTH 10 0
BBX 3 3 3 0
BITMAP
E0
E0
E0
ENDCHAR
STARTCHAR 002F
ENCODING 47
SWIDTH 400 0
DWIDTH 15 0
BBX 10 27 2 0
BITMAP
01C0
01C0
01C0
0380
0380
0380
0380
0700
0700
0700
0600
0E00
0E00
0E00
0C00
1C00
1C00
1C00
1800
3800
3800
3800
7000
7000
7000
6000
E000
ENDCHAR
STARTCHAR 0030
ENCODING 48
SWIDTH 613 0
DWIDTH 23 0
BBX 17 27 3 0
BITMAP
07E000
1FF800
3FFE00
780F00
700700
E00380
E00380
C00380
C00380
C00380
C00380
C00380
C00380
C00380
C00380
C00380
C00380
C00380
C00380
C00380
E00380
E00380
700700
780F00
3FFE00
1FFC00
07F000
ENDCHAR
STARTCHAR 0031
ENCODING 49
SWIDTH 400 0
DWIDTH 15 0
BBX 8 27 2 0
BITMAP
0F
1F
7F
FF
E7
87
07
07
07
07
07
07
07
07
07
07
07
07
07
07
07
07
07
07
07
07
07
ENDCHAR
STARTCHAR 0032
ENCODING 50
SWIDTH 560 0
DWIDTH 21 0
BBX 18 27 2 0
BITMAP
03F000
0FFC00
3FFE00
3C0F00
700700
700380
E00380
E00180
000180
000180
000380
000380
000780
000F00
001E00
003C00
007800
00F000
01E000
03C000
0F0000
1E0000
3C0000
780000
FFFFC0
FFFFC0
FFFFC0
ENDCHAR
STARTCHAR 0033
ENCODING 51
SWIDTH 560 0
DWIDTH 21 0
BBX 16 27 2 0
BITMAP
7FFF
7FFF
7FFF
000E
001C
0078
00F0
01E0
03C0
0780
0FE0
0FF8
0EFC
001E
000F
0007
0007
0003
0003
0003
0007
E007
E00F
781E
7FFC
1FF8
07E0
ENDCHAR
STARTCHAR 0034
ENCODING 52
SWIDTH 586 0
DWIDTH 22 0
BBX 18 27 2 0
BITMAP
007000
00E000
00E000
01C000
01C000
038000
038000
070000
070000
0E0000
0E0000
1E0E00
1C0E00
3C0E00
380E00
380E00
700E00
700E00
E00E00
FFFFC0
FFFFC0
FFFFC0
000E00
000E00
000E00
000E00
000E00
ENDCHAR
STARTCHAR 0035
ENCODING 53
SWIDTH 586 0
DWIDTH 22 0
BBX 18 27 2 0
BITMAP
7FFF00
7FFF00
7FFF00
700000
700000
700000
700000
700000
700000
70C000
77F800
7FFE00
7C1F00
700700
200380
000380
0001C0
0001C0
0001C0
0001C0
E00180
E00380
700780
780F00
3FFE00
0FFC00
03F000
ENDCHAR
STARTCHAR 0036
ENCODING 54
SWIDTH 613 0
DWIDTH 23 0
BBX 18 27 3 0
BITMAP
03F000
0FFC00
3FFE00
3C0F00
700700
E00000
E00000
E00000
C00000
C00000
C3F000
CFFC00
DFFE00
F80F00
F00780
E00380
E001C0
C001C0
C001C0
E001C0
E001C0
E00380
700780
780F00
3FFE00
0FFC00
03F000
ENDCHAR
STARTCHAR 0037
ENCODING 55
SWIDTH 506 0
DWIDTH 19 0
BBX 16 27 1 0
BITMAP
FFFF
FFFF
FFFF
0007
000E
000E
001C
001C
001C
0038
0038
0070
0070
0070
00E0
00E0
01C0
01C0
0180
0380
0380
0700
0700
0E00
0E00
0E00
1C00
ENDCHAR
STARTCHAR 0038
ENCODING 56
SWIDTH 586 0
DWIDTH 22 0
BBX 18 27 2 0
BITMAP
03F000
0FFC00
3FFE00
3C0F00
780700
700380
700380
700380
700380
700700
3C0F00
1FFE00
0FFC00
1FFE00
3C0F00
780780
700380
E00380
E00180
E001C0
E00380
700380
700780
780F00
3FFE00
0FFC00
03F000
ENDCHAR
STARTCHAR 0039
ENCODING 57
SWIDTH 613 0
DWIDTH 23 0
BBX 19 27 2 0
BITMAP
03F800
0FFE00
1FFF00
3C0780
780380
7001C0
7001C0
E000E0
E000E0
E000E0
6001E0
7001E0
7803E0
3C07E0
1FFEE0
0FFCE0
03F0E0
0000E0
0000E0
0000C0
0001C0
0001C0
180380
3C0780
1FFF00
0FFE00
03F000
ENDCHAR
STARTCHAR 003A
ENCODING 58
SWIDTH 293 0
DWIDTH 11 0
BBX 3 14 4 3
BITMAP
E0
E0
E0
00
00
00
00
00
00
00
00
E0
E0
E0
ENDCHAR
STARTCHAR 003B
ENCODING 59
SWIDTH 293 0
DWIDTH 11 0
BBX 3 25 4 -4
BITMAP
E0
E0
E0
00
00
00
00
00
00
00
00
00
00
00
00
00
00
E0
E0
E0
E0
20
20
60
C0
ENDCHAR
STARTCHAR 003C
ENCODING 60
SWIDTH 613 0
DWIDTH 23 0
BBX 10 17 6 3
BITMAP
0080
01C0
0380
0700
0E00
1C00
3800
7000
E000
E000
7000
3800
1C00
0E00
0700
0380
0180
ENDCHAR
STARTCHAR 003D
ENCODING 61
SWIDTH 746 0
DWIDTH 28 0
BBX 20 9 4 9
BITMAP
FFFFF0
FFFFF0
000000
000000
000000
000000
000000
FFFFF0
FFFFF0
ENDCHAR
STARTCHAR 003E
ENCODING 62
SWIDTH 613 0
DWIDTH 23 0
BBX 10 17 7 3
BITMAP
6000
F000
7800
3C00
1E00
0F00
0780
03C0
01C0
01C0
0380
0700
0E00
1C00
3800
7000
6000
ENDCHAR
STARTCHAR 003F
ENCODING 63
SWIDTH 533 0
DWIDTH 20 0
BBX 16 27 2 0
BITMAP
07E0
1FF8
3FFC
781E
E00E
E007
E007
0007
0007
000E
000E
001C
0078
00F0
01E0
01C0
0380
0380
0380
0380
0000
0000
0000
0380
0380
0380
0380
ENDCHAR
STARTCHAR 0040
ENCODING 64
SWIDTH 906 0
DWIDTH 34 0
BBX 28 28 3 -4
BITMAP
007FE000
01FFFC00
07E03E00
0F000F00
1E000380
3C0001C0
380001C0
700000E0
700000E0
603FE060
E07FE070
E070E070
E0E06070
E0C06070
E0C06070
E0C06070
E0E06060
E0F0F0E0
607FFFE0
703FBFC0
70000F00
38000000
1C000000
1E000000
0F801000
03F1F800
01FFF800
003FC000
ENDCHAR
STARTCHAR 0041
ENCODING 65
SWIDTH 640 0
DWIDTH 24 0
BBX 22 27 1 0
BITMAP
007800
007800
00FC00
00FC00
01DC00
01CE00
01CE00
038E00
038700
038700
070700
070380
070380
0E0380
0E01C0
0E01C0
1C01C0
1C00E0
1FFFE0
3FFFE0
3FFFF0
380070
700030
700038
600038
E00018
E0001C
ENDCHAR
STARTCHAR 0042
ENCODING 66
SWIDTH 613 0
DWIDTH 23 0
BBX 19 27 3 0
BITMAP
FFF800
FFFE00
FFFF00
C00780
C00380
C00380
C001C0
C001C0
C00380
C00380
C00780
FFFF00
FFFE00
FFFF00
C00780
C003C0
C001C0
C000E0
C000E0
C000E0
C000E0
C000E0
C001C0
C003C0
FFFF80
FFFF00
FFFC00
ENDCHAR
STARTCHAR 0043
ENCODING 67
SWIDTH 720 0
DWIDTH 27 0
BBX 24 27 1 0
BITMAP
007F00
03FFE0
07FFF0
0F007C
1E003C
3C001E
38000F
700007
700007
700000
E00000
E00000
E00000
E00000
E00000
E00000
E00000
600000
700007
700007
38000F
3C000E
1E003C
0F007C
07FFF0
03FFE0
007F80
ENDCHAR
STARTCHAR 0044
ENCODING 68
SWIDTH 666 0
DWIDTH 25 0
BBX 21 27 3 0
BITMAP
FFF800
FFFE00
FFFF00
C00780
C003C0
C001E0
C000E0
C00070
C00070
C00070
C00070
C00030
C00038
C00038
C00038
C00030
C00070
C00070
C00070
C00070
C000E0
C001E0
C003C0
C00780
FFFF00
FFFE00
FFF800
ENDCHAR
STARTCHAR 0045
ENCODING 69
SWIDTH 560 0
DWIDTH 21 0
BBX 17 27 3 0
BITMAP
FFFF80
FFFF80
FFFF80
C00000
C00000
C00000
C00000
C00000
C00000
C00000
C00000
C00000
FFFC00
FFFC00
FFFC00
C00000
C00000
C00000
C00000
C00000
C00000
C00000
C00000
C00000
FFFF80
FFFF80
FFFF80
ENDCHAR
STARTCHAR 0046
ENCODING 70
SWIDTH 506 0
DWIDTH 19 0
BBX 15 27 3 0
BITMAP
FFFE
FFFE
FFFE
C000
C000
C000
C000
C000
C000
C000
C000
C000
FFF8
FFF8
FFF8
C000
C000
C000
C000
C000
C000
C000
C000
C000
C000
C000
C000
ENDCHAR
STARTCHAR 0047
ENCODING 71
SWIDTH 693 0
DWIDTH 26 0
BBX 24 27 1 0
BITMAP
007F00
03FFE0
07FFF0
0F00F8
1E003C
3C001E
78000E
700008
700000
E00000
E00000
E00000
E00000
E001FF
E001FF
E00007
E00007
700007
700007
70000F
38000E
3C001E
1E003C
0F0078
07FFF0
03FFE0
007F00
ENDCHAR
STARTCHAR 0048
ENCODING 72
SWIDTH 693 0
DWIDTH 26 0
BBX 20 27 3 0
BITMAP
C00070
C00070
C00070
C00070
C00070
C00070
C00070
C00070
C00070
C00070
C00070
C00070
FFFFF0
FFFFF0
FFFFF0
C00070
C00070
C00070
C00070
C00070
C00070
C00070
C00070
C00070
C00070
C00070
C00070
ENDCHAR
STARTCHAR 0049
ENCODING 73
SWIDTH 240 0
DWIDTH 9 0
BBX 3 27 3 0
BITMAP
E0
E0
E0
E0
E0
E0
E0
E0
E0
E0
E0
E0
E0
E0
E0
E0
E0
E0
E0
E0
E0
E0
E0
E0
E0
E0
E0
ENDCHAR
STARTCHAR 004A
ENCODING 74
SWIDTH 453 0
DWIDTH 17 0
BBX 14 27 0 0
BITMAP
000C
000C
000C
000C
000C
000C
000C
000C
000C
000C
000C
000C
000C
000C
000C
000C
000C
000C
000C
000C
000C
E01C
F01C
783C
7FF8
1FF0
0FC0
ENDCHAR
STARTCHAR 004B
ENCODING 75
SWIDTH 586 0
DWIDTH 22 0
BBX 19 27 3 0
BITMAP
C003C0
C00780
C00F00
C01E00
C03C00
C07800
C0F000
C1E000
C3C000
C78000
C70000
CE0000
DC0000
FC0000
DE0000
CF0000
C78000
C3C000
C1E000
C0F000
C07800
C03C00
C01E00
C00F00
C00780
C003C0
C001E0
ENDCHAR
STARTCHAR 004C
ENCODING 76
SWIDTH 506 0
DWIDTH 19 0
BBX 16 27 3 0
BITMAP
E000
E000
E000
E000
E000
E000
E000
E000
E000
E000
E000
E000
E000
E000
E000
E000
E000
E000
E000
E000
E000
E000
E000
E000
FFFF
FFFF
FFFF
ENDCHAR
STARTCHAR 004D
ENCODING 77
SWIDTH 853 0
DWIDTH 32 0
BBX 26 27 3 0
BITMAP
C00001C0
E00001C0
E00003C0
F00003C0
F00007C0
F80007C0
F8000FC0
DC000FC0
DC001DC0
CE001DC0
CE0039C0
C70039C0
C70031C0
C30071C0
C38061C0
C180E1C0
C1C0C1C0
C1C1C1C0
C0E1C1C0
C0E381C0
C07381C0
C07701C0
C03F01C0
C03E01C0
C01E01C0
C01C01C0
C00C01C0
ENDCHAR
STARTCHAR 004E
ENCODING 78
SWIDTH 693 0
DWIDTH 26 0
BBX 20 27 3 0
BITMAP
E00070
E00070
F00070
F80070
F80070
DC0070
DE0070
CE0070
C70070
C78070
C38070
C1C070
C0E070
C0E070
C07070
C03870
C03870
C01C70
C00E70
C00F70
C00770
C003F0
C003F0
C001F0
C000F0
C000F0
C00070
ENDCHAR
STARTCHAR 004F
ENCODING 79
SWIDTH 720 0
DWIDTH 27 0
BBX 25 27 1 0
BITMAP
007F0000
03FFE000
07FFF000
0F007C00
1E003C00
3C000E00
38000F00
70000700
70000700
70000380
E0000380
E0000380
E0000380
E0000380
E0000380
E0000380
E0000380
60000380
70000700
70000700
38000F00
3C000E00
1E003C00
0F007C00
07FFF000
03FFE000
007F0000
ENDCHAR
STARTCHAR 0050
ENCODING 80
SWIDTH 613 0
DWIDTH 23 0
BBX 19 27 3 0
BITMAP
FFF800
FFFE00
FFFF00
C00780
C003C0
C001C0
C001C0
C000C0
C000E0
C000C0
C001C0
C001C0
C003C0
C00780
FFFF00
FFFE00
FFF000
C00000
C00000
C00000
C00000
C00000
C00000
C00000
C00000
C00000
C00000
ENDCHAR
STARTCHAR 0051
ENCODING 81
SWIDTH 720 0
DWIDTH 27 0
BBX 25 27 1 0
BITMAP
007F0000
03FFE000
07FFF000
0F007C00
1E003C00
3C000E00
38000F00
70000700
70000700
70000380
E0000380
E0000380
E0000380
E0000380
E0000380
E0000380
E0000380
60000380
70004700
7000E700
3800FF00
3C007E00
1E003C00
0F007E00
07FFFF00
03FFE700
007F0200
ENDCHAR
STARTCHAR 0052
ENCODING 82
SWIDTH 640 0
DWIDTH 24 0
BBX 19 27 3 0
BITMAP
FFF800
FFFE00
FFFF00
C00780
C003C0
C001C0
C001C0
C000C0
C000E0
C000C0
C001C0
C001C0
C003C0
C00780
FFFF00
FFFE00
FFFC00
C01E00
C00E00
C00F00
C00700
C00780
C00380
C00380
C001C0
C001C0
C000E0
ENDCHAR
STARTCHAR 0053
ENCODING 83
SWIDTH 613 0
DWIDTH 23 0
BBX 21 27 1 0
BITMAP
01FC00
07FF00
1FFFC0
3E03E0
3800E0
780070
700070
700038
780000
380000
3E0000
1FC000
07FC00
00FF80
001FE0
0001F0
000070
000078
000038
E00038
F00038
700078
780070
3E01E0
1FFFE0
07FF80
01FE00
ENDCHAR
STARTCHAR 0054
ENCODING 84
SWIDTH 586 0
DWIDTH 22 0
BBX 22 27 0 0
BITMAP
FFFFFC
FFFFFC
FFFFFC
003800
003800
003800
003800
003800
003800
003800
003800
003800
003800
003800
003800
003800
003800
003800
003800
003800
003800
003800
003800
003800
003800
003800
003800
ENDCHAR
STARTCHAR 0055
ENCODING 85
SWIDTH 693 0
DWIDTH 26 0
BBX 21 27 3 0
BITMAP
C00038
C00038
C00038
C00038
C00038
C00038
C00038
C00038
C00038
C00038
C00038
C00038
C00038
C00038
C00038
C00038
C00038
C00038
E00038
E00070
E00070
7000F0
7801E0
3C03C0
1FFF80
0FFF00
03FC00
ENDCHAR
STARTCHAR 0056
ENCODING 86
SWIDTH 613 0
DWIDTH 23 0
BBX 22 27 0 0
BITMAP
E0001C
70001C
70001C
700038
380038
380038
380070
1C0070
1C0070
1C00E0
0E00E0
0E00C0
0E01C0
0701C0
070180
030380
038380
038700
018700
01C700
01CE00
00CE00
00EE00
00FC00
007C00
007C00
007800
ENDCHAR
STARTCHAR 0057
ENCODING 87
SWIDTH 933 0
DWIDTH 35 0
BBX 33 27 1 0
BITMAP
E001C00380
E001C00380
E003E00380
6003E00300
7003E00700
7003700700
7007700700
3807700E00
3806300E00
380E380E00
180E380C00
1C0E381C00
1C0C1C1C00
1C1C1C1C00
0E1C1C3800
0E180C3800
0E380E3800
06380E3000
07380E7000
0730077000
0370077000
03F0076000
03E003E000
03E003E000
01E003C000
01E003C000
01C001C000
ENDCHAR
STARTCHAR 0058
ENCODING 88
SWIDTH 613 0
DWIDTH 23 0
BBX 21 27 1 0
BITMAP
E00078
700070
7800E0
3801E0
1C01C0
1E0380
0E0780
070700
078E00
039E00
01DC00
01F800
00F800
007000
00F800
01F800
01DC00
038E00
070F00
0F0700
0E0380
1C03C0
3C01C0
3800E0
7000F0
F00070
E00038
ENDCHAR
STARTCHAR 0059
ENCODING 89
SWIDTH 560 0
DWIDTH 21 0
BBX 21 27 0 0
BITMAP
E00078
700070
7800E0
3800E0
1C01C0
1C03C0
0E0380
0F0780
070700
078E00
038E00
01DC00
01FC00
00F800
00F800
007000
007000
007000
007000
007000
007000
007000
007000
007000
007000
007000
007000
ENDCHAR
STARTCHAR 005A
ENCODING 90
SWIDTH 613 0
DWIDTH 23 0
BBX 19 27 2 0
BITMAP
FFFFE0
FFFFE0
FFFFC0
000380
000780
000700
000F00
000E00
001C00
003C00
003800
007000
007000
00E000
01E000
01C000
038000
078000
070000
0E0000
0E0000
1C0000
3C0000
380000
7FFFE0
FFFFE0
FFFFE0
ENDCHAR
STARTCHAR 005B
ENCODING 91
SWIDTH 400 0
DWIDTH 15 0
BBX 7 42 5 -8
BITMAP
FE
FE
FE
E0
E0
E0
E0
E0
E0
E0
E0
E0
E0
E0
E0
E0
E0
E0
E0
E0
E0
E0
E0
E0
E0
E0
E0
E0
E0
E0
E0
E0
E0
E0
E0
E0
E0
E0
E0
FE
FE
FE
ENDCHAR
STARTCHAR 005C
ENCODING 92
SWIDTH 400 0
DWIDTH 15 0
BBX 10 27 2 0
BITMAP
E000
6000
7000
7000
7000
3800
3800
3800
1800
1C00
1C00
1C00
0C00
0E00
0E00
0E00
0600
0700
0700
0700
0380
0380
0380
0380
01C0
01C0
01C0
ENDCHAR
STARTCHAR 005D
ENCODING 93
SWIDTH 400 0
DWIDTH 15 0
BBX 7 42 3 -8
BITMAP
FE
FE
FE
0E
0E
0E
0E
0E
0E
0E
0E
0E
0E
0E
0E
0E
0E
0E
0E
0E
0E
0E
0E
0E
0E
0E
0E
0E
0E
0E
0E
0E
0E
0E
0E
0E
0E
0E
0E
FE
FE
FE
ENDCHAR
STARTCHAR 005E
ENCODING 94
SWIDTH 666 0
DWIDTH 25 0
BBX 17 10 4 18
BITMAP
00C000
01E000
03F000
077800
0E3C00
1C1E00
380F00
700780
E00380
400100
ENDCHAR
STARTCHAR 005F
ENCODING 95
SWIDTH 666 0
DWIDTH 25 0
BBX 25 2 0 -4
BITMAP
FFFFFF80
FFFFFF80
ENDCHAR
STARTCHAR 0060
ENCODING 96
SWIDTH 480 0
DWIDTH 18 0
BBX 4 6 7 30
BITMAP
C0
C0
E0
60
70
30
ENDCHAR
STARTCHAR 0061
ENCODING 97
SWIDTH 560 0
DWIDTH 21 0
BBX 18 21 1 0
BITMAP
03F800
0FFE00
1FFF00
3C0780
380380
700180
0001C0
0001C0
003FC0
07FFC0
1FF9C0
3E01C0
7801C0
7001C0
6003C0
E003C0
7007C0
700FC0
3E7DC0
1FF9C0
0FE000
ENDCHAR
STARTCHAR 0062
ENCODING 98
SWIDTH 586 0
DWIDTH 22 0
BBX 18 27 3 0
BITMAP
C00000
C00000
C00000
C00000
C00000
C00000
C3F000
CFFC00
DFFE00
F80F00
F00700
E00380
E00380
C00380
C001C0
C001C0
C001C0
C001C0
C001C0
C00380
E00380
E00380
F00700
F80F00
FFFE00
CFFC00
C3F000
ENDCHAR
STARTCHAR 0063
ENCODING 99
SWIDTH 560 0
DWIDTH 21 0
BBX 19 21 1 0
BITMAP
01F800
07FE00
1FFF80
1E0780
3801C0
7801E0
700000
700000
700000
600000
E00000
600000
700000
700000
700000
7801C0
3801C0
1E0780
1FFF80
07FE00
01F800
ENDCHAR
STARTCHAR 0064
ENCODING 100
SWIDTH 586 0
DWIDTH 22 0
BBX 19 27 1 0
BITMAP
0000E0
0000E0
0000E0
0000E0
0000E0
0000E0
03F0E0
0FFCE0
1FFEE0
3C07E0
3803E0
7801E0
7001E0
7000E0
7000E0
6000E0
E000E0
6000E0
7000E0
7000E0
7001E0
7801E0
3803E0
3C07E0
1FFEE0
0FFCE0
03F8E0
ENDCHAR
STARTCHAR 0065
ENCODING 101
SWIDTH 586 0
DWIDTH 22 0
BBX 19 21 1 0
BITMAP
01F800
07FE00
1FFF80
1C0380
3801C0
7801E0
7000E0
7000E0
7000E0
7FFFE0
FFFFE0
E00000
700000
700000
700000
7800E0
3801C0
1E03C0
1FFF80
07FF00
01FC00
ENDCHAR
STARTCHAR 0066
ENCODING 102
SWIDTH 346 0
DWIDTH 13 0
BBX 12 27 1 0
BITMAP
03F0
07F0
0F00
0E00
0C00
0C00
FFF0
FFF0
0C00
0C00
0C00
0C00
0C00
0C00
0C00
0C00
0C00
0C00
0C00
0C00
0C00
0C00
0C00
0C00
0C00
0C00
0C00
ENDCHAR
STARTCHAR 0067
ENCODING 103
SWIDTH 586 0
DWIDTH 22 0
BBX 19 30 1 -9
BITMAP
03F0E0
0FFEE0
1FFFE0
3C07E0
3803E0
7801E0
7001E0
7000E0
7000E0
6000E0
E000E0
6000E0
7000E0
7000E0
7001E0
7801E0
3803E0
3C07E0
1FFEE0
0FFCE0
03F0E0
0000E0
0000C0
0001C0
0001C0
3803C0
3C0780
1FFF80
0FFE00
01F800
ENDCHAR
STARTCHAR 0068
ENCODING 104
SWIDTH 586 0
DWIDTH 22 0
BBX 17 27 3 0
BITMAP
C00000
C00000
C00000
C00000
C00000
C00000
C3F000
CFFC00
DFFE00
F81E00
F00700
E00700
E00380
E00380
C00380
C00380
C00380
C00380
C00380
C00380
C00380
C00380
C00380
C00380
C00380
C00380
C00380
ENDCHAR
STARTCHAR 0069
ENCODING 105
SWIDTH 240 0
DWIDTH 9 0
BBX 3 27 3 0
BITMAP
E0
E0
E0
00
00
00
E0
E0
E0
E0
E0
E0
E0
E0
E0
E0
E0
E0
E0
E0
E0
E0
E0
E0
E0
E0
E0
ENDCHAR
STARTCHAR 006A
ENCODING 106
SWIDTH 240 0
DWIDTH 9 0
BBX 7 36 0 -9
BITMAP
0E
0E
0E
00
00
00
0E
0E
0E
0E
0E
0E
0E
0E
0E
0E
0E
0E
0E
0E
0E
0E
0E
0E
0E
0E
0E
0E
0E
0E
0E
0C
1C
FC
FC
F0
ENDCHAR
STARTCHAR 006B
ENCODING 107
SWIDTH 506 0
DWIDTH 19 0
BBX 16 27 3 0
BITMAP
C000
C000
C000
C000
C000
C000
C01E
C03C
C078
C0F0
C1E0
C1C0
C380
C700
CE00
DE00
FC00
DE00
CF00
C780
C3C0
C1E0
C0F0
C078
C03C
C01E
C00F
ENDCHAR
STARTCHAR 006C
ENCODING 108
SWIDTH 240 0
DWIDTH 9 0
BBX 3 27 3 0
BITMAP
E0
E0
E0
E0
E0
E0
E0
E0
E0
E0
E0
E0
E0
E0
E0
E0
E0
E0
E0
E0
E0
E0
E0
E0
E0
E0
E0
ENDCHAR
STARTCHAR 006D
ENCODING 109
SWIDTH 853 0
DWIDTH 32 0
BBX 27 21 3 0
BITMAP
C7E07E00
DFF1FF00
FFFBFF80
F03F03C0
E01E01C0
E01E01C0
C00E00E0
C00C00E0
C00C00E0
C00C00E0
C00C00E0
C00C00E0
C00C00E0
C00C00E0
C00C00E0
C00C00E0
C00C00E0
C00C00E0
C00C00E0
C00C00E0
C00C00E0
ENDCHAR
STARTCHAR 006E
ENCODING 110
SWIDTH 586 0
DWIDTH 22 0
BBX 17 21 3 0
BITMAP
C3F000
CFFC00
DFFE00
F81E00
F00700
E00700
E00380
E00380
C00380
C00380
C00380
C00380
C00380
C00380
C00380
C00380
C00380
C00380
C00380
C00380
C00380
ENDCHAR
STARTCHAR 006F
ENCODING 111
SWIDTH 586 0
DWIDTH 22 0
BBX 20 21 1 0
BITMAP
01F800
07FE00
1FFF80
1E07C0
3801C0
7800E0
7000E0
7000E0
700070
600070
E00070
600070
700070
7000E0
7000E0
7800E0
3801C0
1E03C0
1FFF80
07FF00
01F800
ENDCHAR
STARTCHAR 0070
ENCODING 112
SWIDTH 586 0
DWIDTH 22 0
BBX 18 29 3 -8
BITMAP
C3F000
CFFC00
DFFE00
F80F00
F00700
E00380
E00380
C00380
C001C0
C001C0
C001C0
C001C0
C001C0
C00380
E00380
E00380
F00700
F80F00
DFFE00
CFFC00
C3F000
C00000
C00000
C00000
C00000
C00000
C00000
C00000
C00000
ENDCHAR
STARTCHAR 0071
ENCODING 113
SWIDTH 586 0
DWIDTH 22 0
BBX 19 29 1 -8
BITMAP
03F0E0
0FFEE0
1FFFE0
3C07E0
3803E0
7801E0
7001E0
7000E0
7000E0
6000E0
E000E0
6000E0
7000E0
7000E0
7001E0
7801E0
3803E0
3C07E0
1FFEE0
0FFCE0
03F0E0
0000E0
0000E0
0000E0
0000E0
0000E0
0000E0
0000E0
0000E0
ENDCHAR
STARTCHAR 0072
ENCODING 114
SWIDTH 373 0
DWIDTH 14 0
BBX 10 21 3 0
BITMAP
C7C0
CFC0
DFC0
F800
F000
E000
E000
E000
C000
C000
C000
C000
C000
C000
C000
C000
C000
C000
C000
C000
C000
ENDCHAR
STARTCHAR 0073
ENCODING 115
SWIDTH 533 0
DWIDTH 20 0
BBX 16 21 2 0
BITMAP
0FE0
3FF8
7FFE
701E
E00F
E007
E000
F000
7E00
3FC0
07F8
00FE
001F
0007
0007
E007
E007
F00F
7FFE
3FFC
07F0
ENDCHAR
STARTCHAR 0074
ENCODING 116
SWIDTH 400 0
DWIDTH 15 0
BBX 14 27 0 0
BITMAP
0600
0600
0600
0600
0600
0600
FFFC
FFFC
0600
0600
0600
0600
0600
0600
0600
0600
0600
0600
0600
0600
0600
0700
0700
0700
07EC
03FC
00FC
ENDCHAR
STARTCHAR 0075
ENCODING 117
SWIDTH 586 0
DWIDTH 22 0
BBX 18 21 2 0
BITMAP
E001C0
E001C0
E001C0
E001C0
E001C0
E001C0
E001C0
E001C0
E001C0
E001C0
E001C0
E001C0
E001C0
E001C0
7003C0
7003C0
7807C0
3C0FC0
3FFFC0
0FF9C0
07F1C0
ENDCHAR
STARTCHAR 0076
ENCODING 118
SWIDTH 506 0
DWIDTH 19 0
BBX 17 21 1 0
BITMAP
E00380
E00380
600300
700700
700700
300600
380E00
380E00
180C00
1C1C00
1C1C00
0E1800
0E3800
0E3800
077000
077000
037000
03E000
03E000
01C000
01C000
ENDCHAR
STARTCHAR 0077
ENCODING 119
SWIDTH 773 0
DWIDTH 29 0
BBX 27 21 1 0
BITMAP
E00E00E0
E00E00E0
E01E00C0
701F01C0
701F01C0
701B0180
303B8380
38338380
38318380
18718700
1C71C700
1C60C700
1CE0C600
0CE0EE00
0EC0EE00
0EC06C00
07C07C00
07807C00
07803C00
07803800
03003800
ENDCHAR
STARTCHAR 0078
ENCODING 120
SWIDTH 533 0
DWIDTH 20 0
BBX 18 21 1 0
BITMAP
E001C0
700380
780700
380F00
1C0E00
0E1C00
0F3800
077800
03F000
01E000
01E000
03E000
03F000
073800
0F3C00
1E1C00
1C0E00
380F00
780780
F00380
E001C0
ENDCHAR
STARTCHAR 0079
ENCODING 121
SWIDTH 533 0
DWIDTH 20 0
BBX 18 29 1 -8
BITMAP
E001C0
E001C0
700380
700380
700300
380700
380700
1C0600
1C0E00
1C0E00
0E1C00
0E1C00
071C00
073800
033800
03B000
03F000
01F000
01E000
00E000
00E000
01C000
01C000
018000
038000
038000
030000
070000
070000
ENDCHAR
STARTCHAR 007A
ENCODING 122
SWIDTH 533 0
DWIDTH 20 0
BBX 17 21 1 0
BITMAP
7FFF80
7FFF80
7FFF00
000E00
001E00
001C00
003800
007000
00F000
00E000
01C000
038000
038000
070000
0E0000
1C0000
1C0000
380000
7FFF80
FFFF80
FFFF80
ENDCHAR
STARTCHAR 007B
ENCODING 123
SWIDTH 426 0
DWIDTH 16 0
BBX 9 41 5 -8
BITMAP
0780
1F80
1F80
3800
3800
3800
3800
3800
3800
3800
3800
3800
3800
3800
3800
3800
3800
3800
7800
7000
E000
7000
7800
3800
3800
3800
3800
3800
3800
3800
3800
3800
3800
3800
3800
3800
3800
3800
1F80
1F80
0780
ENDCHAR
STARTCHAR 007C
ENCODING 124
SWIDTH 266 0
DWIDTH 10 0
BBX 3 27 3 0
BITMAP
E0
E0
E0
E0
E0
E0
E0
E0
E0
E0
E0
E0
E0
E0
E0
E0
E0
E0
E0
E0
E0
E0
E0
E0
E0
E0
E0
ENDCHAR
STARTCHAR 007D
ENCODING 125
SWIDTH 426 0
DWIDTH 16 0
BBX 8 41 2 -8
BITMAP
F0
F8
FC
1C
0C
0C
0C
0C
0C
0C
0C
0C
0C
0C
0C
0C
0C
0E
0E
07
03
07
0E
0E
0C
0C
0C
0C
0C
0C
0C
0C
0C
0C
0C
0C
0C
1C
FC
F8
F0
ENDCHAR
STARTCHAR 007E
ENCODING 126
SWIDTH 666 0
DWIDTH 25 0
BBX 16 6 4 9
BITMAP
3E03
7F83
7FC7
F3FF
E0FF
E03E
ENDCHAR
STARTCHAR 00A0
ENCODING 160
SWIDTH 213 0
DWIDTH 8 0
BBX 0 0 0 0
BITMAP
ENDCHAR
STARTCHAR 00A1
ENCODING 161
SWIDTH 320 0
DWIDTH 12 0
BBX 3 27 4 -6
BITMAP
E0
E0
E0
00
00
00
00
E0
E0
E0
E0
E0
E0
E0
E0
E0
E0
E0
E0
E0
E0
E0
E0
E0
E0
E0
E0
ENDCHAR
STARTCHAR 00A2
ENCODING 162
SWIDTH 560 0
DWIDTH 21 0
BBX 18 28 1 -1
BITMAP
006000
006000
006000
00E000
07FE00
0FFF00
1E0780
3C03C0
3801C0
700080
700000
700000
600000
E00000
E00000
700000
700000
700000
700000
3801C0
3C03C0
1E0780
0FFF00
07FE00
00F000
006000
006000
006000
ENDCHAR
STARTCHAR 00A3
ENCODING 163
SWIDTH 560 0
DWIDTH 21 0
BBX 19 27 1 0
BITMAP
007C00
01FF00
03FF80
0383C0
0701C0
0700E0
0700E0
070000
070000
070000
070000
070000
FFFC00
FFFC00
FFFC00
070000
070000
070000
070000
070000
070000
070000
070000
0F0000
FFFFC0
FFFFC0
FFFFC0
ENDCHAR
STARTCHAR 00A4
ENCODING 164
SWIDTH 640 0
DWIDTH 24 0
BBX 22 21 1 3
BITMAP
600018
F1FE3C
7FFFF8
3F03F0
1E01E0
3C00F0
380070
300030
700038
700038
700038
700038
700038
300030
380070
3C00F0
1E01E0
3F03F0
7FFFF8
F1FE3C
600018
ENDCHAR
STARTCHAR 00A5
ENCODING 165
SWIDTH 560 0
DWIDTH 21 0
BBX 21 27 0 0
BITMAP
E00078
700070
7800E0
3800E0
1C01C0
1C01C0
0E0380
0F0780
070700
078E00
038E00
01DC00
01FC00
00F800
00F800
1FFFC0
1FFFC0
007000
007000
007000
007000
1FFFC0
1FFFC0
007000
007000
007000
007000
ENDCHAR
STARTCHAR 00A6
ENCODING 166
SWIDTH 266 0
DWIDTH 10 0
BBX 3 33 3 -6
BITMAP
E0
E0
E0
E0
E0
E0
E0
E0
E0
E0
E0
E0
E0
E0
00
00
00
00
00
E0
E0
E0
E0
E0
E0
E0
E0
E0
E0
E0
E0
E0
E0
ENDCHAR
STARTCHAR 00A7
ENCODING 167
SWIDTH 533 0
DWIDTH 20 0
BBX 16 31 2 -6
BITMAP
0100
1FF0
3FF8
783C
701E
E00E
E00E
F000
7800
3F00
1FF0
3FFC
703E
E00F
E007
E003
E007
F007
7F0F
1FFE
03F8
007E
000E
0007
0007
E007
700F
780E
3FFE
1FFC
07E0
ENDCHAR
STARTCHAR 00A8
ENCODING 168
SWIDTH 506 0
DWIDTH 19 0
BBX 11 3 4 31
BITMAP
F0E0
F0E0
F0E0
ENDCHAR
STARTCHAR 00A9
ENCODING 169
SWIDTH 800 0
DWIDTH 30 0
BBX 28 28 1 -1
BITMAP
003FC000
00FFF000
03FFFC00
07C03E00
0F000F00
1E000780
3C1F83C0
383FE1C0
7078F0E0
70E070E0
60C03070
E1C00070
E1C00070
E1C00070
E1C00070
E1C00070
E1C00070
60C03070
70E070E0
7078F0E0
383FE1C0
3C1F83C0
1E000780
0F000F00
07C03E00
03FFFC00
00FFF000
003FC000
ENDCHAR
STARTCHAR 00AA
ENCODING 170
SWIDTH 320 0
DWIDTH 12 0
BBX 8 11 2 10
BITMAP
3C
7F
C3
03
1F
7F
E3
83
C7
FD
79
ENDCHAR
STARTCHAR 00AB
ENCODING 171
SWIDTH 533 0
DWIDTH 20 0
BBX 14 16 3 2
BITMAP
030C
071C
0E18
1C38
1870
38E0
71C0
E180
61C0
70C0
3860
1C70
0C38
0E1C
070C
020C
ENDCHAR
STARTCHAR 00AC
ENCODING 172
SWIDTH 613 0
DWIDTH 23 0
BBX 18 7 2 7
BITMAP
FFFFC0
FFFFC0
0000C0
0000C0
0000C0
0000C0
0000C0
ENDCHAR
STARTCHAR 00AD
ENCODING 173
SWIDTH 426 0
DWIDTH 16 0
BBX 12 2 2 11
BITMAP
FFF0
FFF0
ENDCHAR
STARTCHAR 00AE
ENCODING 174
SWIDTH 613 0
DWIDTH 23 0
BBX 18 18 3 11
BITMAP
03F000
0FFC00
3E1E00
780700
700380
E3F180
C23180
C211C0
C230C0
C3F0C0
C260C0
C22180
E23180
600380
700700
3C1E00
1FFC00
07F000
ENDCHAR
STARTCHAR 00AF
ENCODING 175
SWIDTH 480 0
DWIDTH 18 0
BBX 10 2 4 32
BITMAP
FFC0
FFC0
ENDCHAR
STARTCHAR 00B0
ENCODING 176
SWIDTH 453 0
DWIDTH 17 0
BBX 14 13 1 13
BITMAP
0F80
1FE0
3FF0
7038
E038
E018
E01C
E01C
E018
7038
7870
3FF0
1FC0
ENDCHAR
STARTCHAR 00B1
ENCODING 177
SWIDTH 613 0
DWIDTH 23 0
BBX 18 18 2 3
BITMAP
00C000
00C000
00C000
00C000
00C000
FFFFC0
FFFFC0
00C000
00C000
00C000
00C000
00C000
00C000
000000
000000
000000
FFFFC0
FFFFC0
ENDCHAR
STARTCHAR 00B2
ENCODING 178
SWIDTH 400 0
DWIDTH 15 0
BBX 11 17 2 10
BITMAP
1F00
3F80
71C0
E0E0
C060
0060
0060
00E0
01C0
0380
0700
0E00
1C00
3800
7000
FFE0
FFE0
ENDCHAR
STARTCHAR 00B3
ENCODING 179
SWIDTH 400 0
DWIDTH 15 0
BBX 10 17 2 10
BITMAP
FFC0
FFC0
01C0
0300
0600
1C00
3F00
1F80
01C0
00C0
00C0
00C0
00C0
C0C0
E1C0
7F80
3E00
ENDCHAR
STARTCHAR 00B4
ENCODING 180
SWIDTH 480 0
DWIDTH 18 0
BBX 5 6 7 30
BITMAP
38
30
30
70
60
E0
ENDCHAR
STARTCHAR 00B5
ENCODING 181
SWIDTH 613 0
DWIDTH 23 0
BBX 17 30 3 -9
BITMAP
C00380
C00380
C00380
C00380
C00380
C00380
C00380
C00380
C00380
C00380
C00380
C00380
C00380
E00380
E00380
E00780
F00780
F81F80
FFFD80
DFF980
C7E180
C00000
C00000
C00000
C00000
C00000
C00000
C00000
C00000
C00000
ENDCHAR
STARTCHAR 00B6
ENCODING 182
SWIDTH 640 0
DWIDTH 24 0
BBX 18 32 3 -5
BITMAP
07F9C0
1FF9C0
3FF9C0
7FF9C0
FFF9C0
FFF9C0
FFF9C0
FFF9C0
FFF9C0
FFF9C0
FFF9C0
FFF9C0
7FF9C0
7FF9C0
3FF9C0
1FF9C0
03F9C0
0039C0
0039C0
0039C0
0039C0
0039C0
0039C0
0039C0
0039C0
0039C0
0039C0
0039C0
0039C0
0039C0
0039C0
0039C0
ENDCHAR
STARTCHAR 00B7
ENCODING 183
SWIDTH 240 0
DWIDTH 9 0
BBX 4 4 2 10
BITMAP
70
F0
F0
70
ENDCHAR
STARTCHAR 00B8
ENCODING 184
SWIDTH 400 0
DWIDTH 15 0
BBX 5 9 5 -9
BITMAP
30
60
70
78
18
18
18
F8
F0
ENDCHAR
STARTCHAR 00B9
ENCODING 185
SWIDTH 320 0
DWIDTH 12 0
BBX 6 17 2 10
BITMAP
1C
7C
FC
DC
1C
1C
1C
1C
1C
1C
1C
1C
1C
1C
1C
1C
1C
ENDCHAR
STARTCHAR 00BA
ENCODING 186
SWIDTH 346 0
DWIDTH 13 0
BBX 10 11 1 10
BITMAP
1F00
3F80
71C0
60C0
60C0
E0C0
60C0
60C0
71C0
3F80
0E00
ENDCHAR
STARTCHAR 00BB
ENCODING 187
SWIDTH 533 0
DWIDTH 20 0
BBX 14 16 3 2
BITMAP
C100
E380
61C0
70E0
3860
1C30
0E38
061C
0E1C
0C38
1C70
38E0
70C0
E1C0
C380
C100
ENDCHAR
STARTCHAR 00BC
ENCODING 188
SWIDTH 986 0
DWIDTH 37 0
BBX 30 27 2 0
BITMAP
1C000100
7C000380
FC000700
DC000E00
1C001C00
1C001C00
1C003800
1C007000
1C00E000
1C00E000
1C01C0C0
1C0381C0
1C070180
1C070380
1C0E0300
1C1C0700
1C380600
00700E30
00700C30
00E00C30
01C01830
03801830
03803FFC
07003FFC
0E000030
1C000030
0C000030
ENDCHAR
STARTCHAR 00BD
ENCODING 189
SWIDTH 933 0
DWIDTH 35 0
BBX 31 27 2 0
BITMAP
1C000100
7C000380
FC000700
DC000E00
1C001E00
1C001C00
1C003800
1C007000
1C00E000
1C00E000
1C01C1F0
1C0383F8
1C07071C
1C070E0E
1C0E0C06
1C1C0006
1C380006
0070000E
0070001C
00E00038
01C00070
038000E0
038001C0
07000380
0E000700
1C000FFE
0C000FFE
ENDCHAR
STARTCHAR 00BE
ENCODING 190
SWIDTH 986 0
DWIDTH 37 0
BBX 32 27 2 0
BITMAP
FFC00040
FFC000E0
01C000E0
030001C0
06000380
1C000700
3F000E00
1F800E00
01C01C00
00C03800
00C07030
00C07030
00C0E070
C0C1C060
E1C380E0
7F8380C0
3E0701C0
000E0186
001C0386
00380306
00380306
00700606
00E007FF
01C007FF
01C00006
03800006
01000006
ENDCHAR
STARTCHAR 00BF
ENCODING 191
SWIDTH 533 0
DWIDTH 20 0
BBX 16 28 2 -7
BITMAP
01C0
01C0
01C0
01C0
0000
0000
0000
01C0
01C0
01C0
0180
0380
0780
0F00
1E00
3C00
7800
7000
E000
E000
E000
E007
E006
F00E
781E
7FFC
1FF8
07E0
ENDCHAR
STARTCHAR 00C0
ENCODING 192
SWIDTH 640 0
DWIDTH 24 0
BBX 22 36 1 0
BITMAP
01C000
00C000
00E000
006000
006000
007000
000000
000000
000000
007800
007800
00FC00
00FC00
01DC00
01CE00
01CE00
038E00
038700
038700
070700
070380
070380
0E0380
0E01C0
0E01C0
1C01C0
1C00E0
1FFFE0
3FFFE0
3FFFF0
380070
700030
700038
600038
E00018
E0001C
ENDCHAR
STARTCHAR 00C1
ENCODING 193
SWIDTH 640 0
DWIDTH 24 0
BBX 22 36 1 0
BITMAP
000C00
000C00
001C00
001800
003800
003000
000000
000000
000000
007800
007800
00FC00
00FC00
01DC00
01CE00
01CE00
038E00
038700
038700
070700
070380
070380
0E0380
0E01C0
0E01C0
1C01C0
1C00E0
1FFFE0
3FFFE0
3FFFF0
380070
700030
700038
600038
E00018
E0001C
ENDCHAR
STARTCHAR 00C2
ENCODING 194
SWIDTH 640 0
DWIDTH 24 0
BBX 22 35 1 0
BITMAP
007800
00FC00
01DC00
018E00
038700
000000
000000
000000
007800
007800
00FC00
00FC00
01DC00
01CE00
01CE00
038E00
038700
038700
070700
070380
070380
0E0380
0E01C0
0E01C0
1C01C0
1C00E0
1FFFE0
3FFFE0
3FFFF0
380070
700030
700038
600038
E00018
E0001C
ENDCHAR
STARTCHAR 00C3
ENCODING 195
SWIDTH 640 0
DWIDTH 24 0
BBX 22 35 1 0
BITMAP
03C180
07F380
063F00
060E00
000000
000000
000000
000000
007800
007800
00FC00
00FC00
01DC00
01CE00
01CE00
038E00
038700
038700
070700
070380
070380
0E0380
0E01C0
0E01C0
1C01C0
1C00E0
1FFFE0
3FFFE0
3FFFF0
380070
700030
700038
600038
E00018
E0001C
ENDCHAR
STARTCHAR 00C4
ENCODING 196
SWIDTH 640 0
DWIDTH 24 0
BBX 22 34 1 0
BITMAP
038700
038700
038700
000000
000000
000000
000000
007800
007800
00FC00
00FC00
01DC00
01CE00
01CE00
038E00
038700
038700
070700
070380
070380
0E0380
0E01C0
0E01C0
1C01C0
1C00E0
1FFFE0
3FFFE0
3FFFF0
380070
700030
700038
600038
E00018
E0001C
ENDCHAR
STARTCHAR 00C5
ENCODING 197
SWIDTH 640 0
DWIDTH 24 0
BBX 22 37 1 0
BITMAP
007800
00FC00
01CE00
018600
018600
01CE00
00FC00
007800
000000
000000
007800
007800
00FC00
00FC00
01DC00
01CE00
01CE00
038E00
038700
038700
070700
070380
070380
0E0380
0E01C0
0E01C0
1C01C0
1C00E0
1FFFE0
3FFFE0
3FFFF0
380070
700030
700038
600038
E00018
E0001C
ENDCHAR
STARTCHAR 00C6
ENCODING 198
SWIDTH 906 0
DWIDTH 34 0
BBX 32 27 1 0
BITMAP
007FFFFF
007FFFFF
00FFFFFF
00E18000
01C18000
01C18000
01C18000
03818000
03818000
03818000
07018000
07018000
0701FFF8
0E01FFF8
0E01FFF8
0E018000
1C018000
1C018000
1FFF8000
3FFF8000
3FFF8000
38018000
70018000
70018000
6001FFFF
E001FFFF
E001FFFF
ENDCHAR
STARTCHAR 00C7
ENCODING 199
SWIDTH 720 0
DWIDTH 27 0
BBX 24 35 1 -8
BITMAP
007F00
03FFE0
07FFF0
0F007C
1E003C
3C001E
38000F
700007
700007
700000
E00000
E00000
E00000
E00000
E00000
E00000
E00000
600000
700007
700007
38000F
3C000E
1E003C
0F007C
07FFF0
03FFE0
007F00
000C00
000C00
001E00
000700
000300
000700
003E00
003C00
ENDCHAR
STARTCHAR 00C8
ENCODING 200
SWIDTH 560 0
DWIDTH 21 0
BBX 17 36 3 0
BITMAP
070000
030000
038000
018000
018000
01C000
000000
000000
000000
FFFF80
FFFF80
FFFF80
C00000
C00000
C00000
C00000
C00000
C00000
C00000
C00000
C00000
FFFC00
FFFC00
FFFC00
C00000
C00000
C00000
C00000
C00000
C00000
C00000
C00000
C00000
FFFF80
FFFF80
FFFF80
ENDCHAR
STARTCHAR 00C9
ENCODING 201
SWIDTH 560 0
DWIDTH 21 0
BBX 17 36 3 0
BITMAP
007000
006000
006000
00E000
00C000
01C000
000000
000000
000000
FFFF80
FFFF80
FFFF80
C00000
C00000
C00000
C00000
C00000
C00000
C00000
C00000
C00000
FFFC00
FFFC00
FFFC00
C00000
C00000
C00000
C00000
C00000
C00000
C00000
C00000
C00000
FFFF80
FFFF80
FFFF80
ENDCHAR
STARTCHAR 00CA
ENCODING 202
SWIDTH 560 0
DWIDTH 21 0
BBX 17 35 3 0
BITMAP
03C000
07C000
0EE000
0C7000
1C3800
000000
000000
000000
FFFF80
FFFF80
FFFF80
C00000
C00000
C00000
C00000
C00000
C00000
C00000
C00000
C00000
FFFC00
FFFC00
FFFC00
C00000
C00000
C00000
C00000
C00000
C00000
C00000
C00000
C00000
FFFF80
FFFF80
FFFF80
ENDCHAR
STARTCHAR 00CB
ENCODING 203
SWIDTH 560 0
DWIDTH 21 0
BBX 17 34 3 0
BITMAP
1C3800
1C3800
1C3800
000000
000000
000000
000000
FFFF80
FFFF80
FFFF80
C00000
C00000
C00000
C00000
C00000
C00000
C00000
C00000
C00000
FFFC00
FFFC00
FFFC00
C00000
C00000
C00000
C00000
C00000
C00000
C00000
C00000
C00000
FFFF80
FFFF80
FFFF80
ENDCHAR
STARTCHAR 00CC
ENCODING 204
SWIDTH 240 0
DWIDTH 9 0
BBX 5 36 1 0
BITMAP
C0
E0
60
70
30
30
00
00
00
38
38
38
38
38
38
38
38
38
38
38
38
38
38
38
38
38
38
38
38
38
38
38
38
38
38
38
ENDCHAR
STARTCHAR 00CD
ENCODING 205
SWIDTH 240 0
DWIDTH 9 0
BBX 5 36 3 0
BITMAP
38
30
30
60
60
E0
00
00
00
E0
E0
E0
E0
E0
E0
E0
E0
E0
E0
E0
E0
E0
E0
E0
E0
E0
E0
E0
E0
E0
E0
E0
E0
E0
E0
E0
ENDCHAR
STARTCHAR 00CE
ENCODING 206
SWIDTH 240 0
DWIDTH 9 0
BBX 10 35 -1 0
BITMAP
0E00
1F00
3B80
71C0
E0C0
0000
0000
0000
0E00
0E00
0E00
0E00
0E00
0E00
0E00
0E00
0E00
0E00
0E00
0E00
0E00
0E00
0E00
0E00
0E00
0E00
0E00
0E00
0E00
0E00
0E00
0E00
0E00
0E00
0E00
ENDCHAR
STARTCHAR 00CF
ENCODING 207
SWIDTH 240 0
DWIDTH 9 0
BBX 10 34 -1 0
BITMAP
E1C0
E1C0
E1C0
0000
0000
0000
0000
0E00
0E00
0E00
0E00
0E00
0E00
0E00
0E00
0E00
0E00
0E00
0E00
0E00
0E00
0E00
0E00
0E00
0E00
0E00
0E00
0E00
0E00
0E00
0E00
0E00
0E00
0E00
ENDCHAR
STARTCHAR 00D0
ENCODING 208
SWIDTH 666 0
DWIDTH 25 0
BBX 23 27 0 0
BITMAP
3FFF00
3FFFC0
3FFFE0
3800F0
380078
38003C
38001C
38001C
38000E
38000E
38000E
38000E
FFF00E
FFF00E
38000E
38000E
38000E
38000E
38000E
38001C
38001C
380038
380078
3800F0
3FFFE0
3FFFC0
3FFF00
ENDCHAR
STARTCHAR 00D1
ENCODING 209
SWIDTH 693 0
DWIDTH 26 0
BBX 20 34 3 0
BITMAP
07C300
07F300
067F00
061E00
000000
000000
000000
E00070
E00070
F00070
F80070
F80070
DC0070
DE0070
CE0070
C70070
C78070
C38070
C1C070
C0E070
C0E070
C07070
C03870
C03870
C01C70
C00E70
C00F70
C00770
C003F0
C003F0
C001F0
C000F0
C000F0
C00070
ENDCHAR
STARTCHAR 00D2
ENCODING 210
SWIDTH 720 0
DWIDTH 27 0
BBX 25 36 1 0
BITMAP
00700000
00300000
00300000
00380000
00180000
00180000
00000000
00000000
00000000
007F0000
03FFE000
07FFF000
0F007C00
1E003C00
3C000E00
38000F00
70000700
70000700
70000380
E0000380
E0000380
E0000380
E0000380
E0000380
E0000380
E0000380
60000380
70000700
70000700
38000F00
3C000E00
1E003C00
0F007C00
07FFF000
03FFE000
007F0000
ENDCHAR
STARTCHAR 00D3
ENCODING 211
SWIDTH 720 0
DWIDTH 27 0
BBX 25 35 1 0
BITMAP
00030000
00070000
00060000
000E0000
000C0000
00000000
00000000
00000000
007F0000
03FFE000
07FFF000
0F007C00
1E003C00
3C000E00
38000F00
70000700
70000700
70000380
E0000380
E0000380
E0000380
E0000380
E0000380
E0000380
E0000380
60000380
70000700
70000700
38000F00
3C000E00
1E003C00
0F007C00
07FFF000
03FFE000
007F0000
ENDCHAR
STARTCHAR 00D4
ENCODING 212
SWIDTH 720 0
DWIDTH 27 0
BBX 25 35 1 0
BITMAP
001C0000
003E0000
00770000
00E38000
01C1C000
00000000
00000000
00000000
007F0000
03FFE000
07FFF000
0F007C00
1E003C00
3C000E00
38000F00
70000700
70000700
70000380
E0000380
E0000380
E0000380
E0000380
E0000380
E0000380
E0000380
60000380
70000700
70000700
38000F00
3C000E00
1E003C00
0F007C00
07FFF000
03FFE000
007F0000
ENDCHAR
STARTCHAR 00D5
ENCODING 213
SWIDTH 720 0
DWIDTH 27 0
BBX 25 34 1 0
BITMAP
00F04000
01FCE000
019FC000
0187C000
00000000
00000000
00000000
007F0000
03FFE000
07FFF000
0F007C00
1E003C00
3C000E00
38000F00
70000700
70000700
70000380
E0000380
E0000380
E0000380
E0000380
E0000380
E0000380
E0000380
60000380
70000700
70000700
38000F00
3C000E00
1E003C00
0F007C00
07FFF000
03FFE000
007F0000
ENDCHAR
STARTCHAR 00D6
ENCODING 214
SWIDTH 720 0
DWIDTH 27 0
BBX 25 33 1 0
BITMAP
01C1C000
01C1C000
01C1C000
00000000
00000000
00000000
007F0000
03FFE000
07FFF000
0F007C00
1E003C00
3C000E00
38000F00
70000700
70000700
70000380
E0000380
E0000380
E0000380
E0000380
E0000380
E0000380
E0000380
60000380
70000700
70000700
38000F00
3C000E00
1E003C00
0F007C00
07FFF000
03FFE000
007F0000
ENDCHAR
STARTCHAR 00D7
ENCODING 215
SWIDTH 480 0
DWIDTH 18 0
BBX 14 14 2 7
BITMAP
4008
E01C
7038
3870
1CE0
0FC0
0780
0780
0FC0
1CE0
3870
7038
601C
0008
ENDCHAR
STARTCHAR 00D8
ENCODING 216
SWIDTH 720 0
DWIDTH 27 0
BBX 25 27 1 0
BITMAP
007F0100
03FFE380
07FFFF80
0F007F00
1E003E00
3C001E00
38003F00
70007700
7000E700
7001C380
E0038380
E0070380
E00E0380
E01E0380
E03C0380
E0780380
E0F00380
E1E00380
73C00700
77800700
7F000F00
3E000E00
3E003C00
7F007C00
F7FFF000
E3FFE000
407F8000
ENDCHAR
STARTCHAR 00D9
ENCODING 217
SWIDTH 693 0
DWIDTH 26 0
BBX 21 36 3 0
BITMAP
01C000
00C000
00C000
00E000
006000
007000
000000
000000
000000
C00038
C00038
C00038
C00038
C00038
C00038
C00038
C00038
C00038
C00038
C00038
C00038
C00038
C00038
C00038
C00038
C00038
C00038
E00038
E00070
E00070
7000F0
7801E0
3C03C0
1FFF80
0FFF00
03FC00
ENDCHAR
STARTCHAR 00DA
ENCODING 218
SWIDTH 693 0
DWIDTH 26 0
BBX 21 36 3 0
BITMAP
001800
003800
003000
003000
007000
006000
000000
000000
000000
C00038
C00038
C00038
C00038
C00038
C00038
C00038
C00038
C00038
C00038
C00038
C00038
C00038
C00038
C00038
C00038
C00038
C00038
E00038
E00070
E00070
7000F0
7801E0
3C03C0
1FFF80
0FFF00
03FC00
ENDCHAR
STARTCHAR 00DB
ENCODING 219
SWIDTH 693 0
DWIDTH 26 0
BBX 21 35 3 0
BITMAP
00F000
00F800
01DC00
038C00
070E00
000000
000000
000000
C00038
C00038
C00038
C00038
C00038
C00038
C00038
C00038
C00038
C00038
C00038
C00038
C00038
C00038
C00038
C00038
C00038
C00038
E00038
E00070
E00070
7000F0
7801E0
3C03C0
1FFF80
0FFF00
03FC00
ENDCHAR
STARTCHAR 00DC
ENCODING 220
SWIDTH 693 0
DWIDTH 26 0
BBX 21 34 3 0
BITMAP
070E00
070E00
070E00
000000
000000
000000
000000
C00038
C00038
C00038
C00038
C00038
C00038
C00038
C00038
C00038
C00038
C00038
C00038
C00038
C00038
C00038
C00038
C00038
C00038
E00038
E00070
E00070
7000F0
7801E0
3C03C0
1FFF80
0FFF00
03FC00
ENDCHAR
STARTCHAR 00DD
ENCODING 221
SWIDTH 560 0
DWIDTH 21 0
BBX 21 36 0 0
BITMAP
001800
001800
003800
003000
007000
006000
000000
000000
000000
E00078
700070
7800E0
3800E0
1C01C0
1C03C0
0E0380
0F0780
070700
078E00
038E00
01DC00
01FC00
00F800
00F800
007000
007000
007000
007000
007000
007000
007000
007000
007000
007000
007000
007000
ENDCHAR
STARTCHAR 00DE
ENCODING 222
SWIDTH 586 0
DWIDTH 22 0
BBX 18 27 3 0
BITMAP
C00000
C00000
C00000
C00000
C00000
FFF000
FFFE00
FFFF00
C00F00
C00380
C003C0
C001C0
C001C0
C001C0
C001C0
C001C0
C003C0
C00380
C00780
FFFF00
FFFE00
FFF800
C00000
C00000
C00000
C00000
C00000
ENDCHAR
STARTCHAR 00DF
ENCODING 223
SWIDTH 586 0
DWIDTH 22 0
BBX 17 27 3 0
BITMAP
0FC000
3FF000
7FF800
F03C00
E01C00
E00E00
E00E00
C00E00
C00E00
C01C00
C03C00
C0F800
C1F000
C1FC00
C03E00
C00700
C00380
C00380
C00380
C00380
C00380
C00380
C00780
C00F00
C7FE00
C7FC00
C7F000
ENDCHAR
STARTCHAR 00E0
ENCODING 224
SWIDTH 560 0
DWIDTH 21 0
BBX 18 30 1 0
BITMAP
038000
018000
01C000
00C000
00C000
00E000
000000
000000
000000
03F800
0FFE00
1FFF00
3C0780
380380
700180
0001C0
0001C0
003FC0
07FFC0
1FF9C0
3E01C0
7801C0
7001C0
6003C0
E003C0
7007C0
700FC0
3E7DC0
1FF9C0
0FE000
ENDCHAR
STARTCHAR 00E1
ENCODING 225
SWIDTH 560 0
DWIDTH 21 0
BBX 18 30 1 0
BITMAP
001800
003800
003000
007000
006000
006000
000000
000000
000000
03F800
0FFE00
1FFF00
3C0780
380380
700180
0001C0
0001C0
003FC0
07FFC0
1FF9C0
3E01C0
7801C0
7001C0
6003C0
E003C0
7007C0
700FC0
3E7DC0
1FF9C0
0FE000
ENDCHAR
STARTCHAR 00E2
ENCODING 226
SWIDTH 560 0
DWIDTH 21 0
BBX 18 29 1 0
BITMAP
00E000
01F000
03B800
071C00
060E00
000000
000000
000000
03F800
0FFE00
1FFF00
3C0780
380380
700180
0001C0
0001C0
003FC0
07FFC0
1FF9C0
3E01C0
7801C0
7001C0
6003C0
E003C0
7007C0
700FC0
3E7DC0
1FF9C0
0FE000
ENDCHAR
STARTCHAR 00E3
ENCODING 227
SWIDTH 560 0
DWIDTH 21 0
BBX 18 28 1 0
BITMAP
078300
0FE700
0EFE00
0C3E00
000000
000000
000000
03F800
0FFE00
1FFF00
3C0780
380380
700180
0001C0
0001C0
003FC0
07FFC0
1FF9C0
3E01C0
7801C0
7001C0
6003C0
E003C0
7007C0
700FC0
3E7DC0
1FF9C0
0FE000
ENDCHAR
STARTCHAR 00E4
ENCODING 228
SWIDTH 560 0
DWIDTH 21 0
BBX 18 27 1 0
BITMAP
070E00
070E00
070E00
000000
000000
000000
03F800
0FFE00
1FFF00
3C0780
380380
700180
0001C0
0001C0
003FC0
07FFC0
1FF9C0
3E01C0
7801C0
7001C0
6003C0
E003C0
7007C0
700FC0
3E7DC0
3FF9C0
0FE1C0
ENDCHAR
STARTCHAR 00E5
ENCODING 229
SWIDTH 560 0
DWIDTH 21 0
BBX 18 31 1 0
BITMAP
00F000
03F800
031800
030C00
030C00
031800
03F800
00F000
000000
000000
03F800
0FFE00
1FFF00
3C0780
380380
700180
0001C0
0001C0
003FC0
07FFC0
1FF9C0
3E01C0
7801C0
7001C0
6003C0
E003C0
7007C0
700FC0
3E7DC0
1FF9C0
0FE000
ENDCHAR
STARTCHAR 00E6
ENCODING 230
SWIDTH 933 0
DWIDTH 35 0
BBX 33 21 1 0
BITMAP
03F807E000
0FFE1FF800
1FFF3FFC00
3C07F81E00
3803E00E00
7003E00700
0001C00300
0001C00300
0001C00380
03FFFFFF80
1FFFFFFF80
3E01C00000
7001C00000
7001C00000
6003C00000
E003E00700
7007E00700
700E781E00
3E7C3FFC00
3FF81FF800
0FE007E000
ENDCHAR
STARTCHAR 00E7
ENCODING 231
SWIDTH 560 0
DWIDTH 21 0
BBX 19 29 1 -8
BITMAP
01F800
07FE00
1FFF80
1E0780
3801C0
7801E0
700000
700000
700000
600000
E00000
600000
700000
700000
700000
7801C0
3801C0
3E0780
1FFF80
07FE00
03F800
006000
00C000
00F000
003000
003800
003800
01F000
01E000
ENDCHAR
STARTCHAR 00E8
ENCODING 232
SWIDTH 586 0
DWIDTH 22 0
BBX 19 30 1 0
BITMAP
018000
01C000
00C000
00E000
006000
006000
000000
000000
000000
01F800
07FE00
1FFF80
1C0380
3801C0
7801E0
7000E0
7000E0
7000E0
7FFFE0
FFFFE0
E00000
700000
700000
700000
7800E0
3801C0
1E03C0
1FFF80
07FF00
01FC00
ENDCHAR
STARTCHAR 00E9
ENCODING 233
SWIDTH 586 0
DWIDTH 22 0
BBX 19 29 1 0
BITMAP
001C00
001800
003800
003000
003000
000000
000000
000000
01F800
07FE00
1FFF80
1C0380
3801C0
7801E0
7000E0
7000E0
7000E0
7FFFE0
FFFFE0
E00000
700000
700000
700000
7800E0
3801C0
1E03C0
1FFF80
07FF00
01FC00
ENDCHAR
STARTCHAR 00EA
ENCODING 234
SWIDTH 586 0
DWIDTH 22 0
BBX 19 29 1 0
BITMAP
00F000
01F800
01D800
039C00
070E00
000000
000000
000000
01F800
07FE00
1FFF80
1C0380
3801C0
7801E0
7000E0
7000E0
7000E0
7FFFE0
FFFFE0
E00000
700000
700000
700000
7800E0
3801C0
1E03C0
1FFF80
07FF00
01FC00
ENDCHAR
STARTCHAR 00EB
ENCODING 235
SWIDTH 586 0
DWIDTH 22 0
BBX 19 27 1 0
BITMAP
070E00
070E00
070E00
000000
000000
000000
01F800
07FE00
1FFF80
1C0380
3801C0
7801E0
7000E0
7000E0
7000E0
7FFFE0
FFFFE0
E00000
700000
700000
700000
7800E0
3801C0
1E03C0
1FFF80
07FF00
01FC00
ENDCHAR
STARTCHAR 00EC
ENCODING 236
SWIDTH 240 0
DWIDTH 9 0
BBX 5 30 1 0
BITMAP
C0
E0
60
70
30
30
00
00
00
38
38
38
38
38
38
38
38
38
38
38
38
38
38
38
38
38
38
38
38
38
ENDCHAR
STARTCHAR 00ED
ENCODING 237
SWIDTH 240 0
DWIDTH 9 0
BBX 5 30 3 0
BITMAP
38
30
30
60
60
E0
00
00
00
E0
E0
E0
E0
E0
E0
E0
E0
E0
E0
E0
E0
E0
E0
E0
E0
E0
E0
E0
E0
E0
ENDCHAR
STARTCHAR 00EE
ENCODING 238
SWIDTH 240 0
DWIDTH 9 0
BBX 11 29 -1 0
BITMAP
0E00
1F00
3B80
71C0
E0E0
0000
0000
0000
0E00
0E00
0E00
0E00
0E00
0E00
0E00
0E00
0E00
0E00
0E00
0E00
0E00
0E00
0E00
0E00
0E00
0E00
0E00
0E00
0E00
ENDCHAR
STARTCHAR 00EF
ENCODING 239
SWIDTH 240 0
DWIDTH 9 0
BBX 10 27 -1 0
BITMAP
E1C0
E1C0
E1C0
0000
0000
0000
0E00
0E00
0E00
0E00
0E00
0E00
0E00
0E00
0E00
0E00
0E00
0E00
0E00
0E00
0E00
0E00
0E00
0E00
0E00
0E00
0E00
ENDCHAR
STARTCHAR 00F0
ENCODING 240
SWIDTH 586 0
DWIDTH 22 0
BBX 19 30 1 0
BITMAP
000200
000700
00FE00
01FE00
003E00
003F00
007780
006380
0001C0
0000C0
01F8C0
0FFEE0
1FFFE0
3C03E0
3801E0
7001E0
7000E0
7000E0
6000E0
E000E0
E000E0
6000E0
7000E0
7000E0
7001E0
3801C0
3C0380
1FFF80
0FFE00
01F800
ENDCHAR
STARTCHAR 00F1
ENCODING 241
SWIDTH 586 0
DWIDTH 22 0
BBX 17 28 3 0
BITMAP
0E0C00
1F8C00
39FC00
307800
000000
000000
000000
C3F000
CFFC00
DFFE00
F81E00
F00700
E00700
E00380
E00380
C00380
C00380
C00380
C00380
C00380
C00380
C00380
C00380
C00380
C00380
C00380
C00380
C00380
ENDCHAR
STARTCHAR 00F2
ENCODING 242
SWIDTH 586 0
DWIDTH 22 0
BBX 20 30 1 0
BITMAP
018000
018000
01C000
00C000
00E000
006000
000000
000000
000000
01F800
07FE00
1FFF80
1E07C0
3801C0
7800E0
7000E0
7000E0
700070
600070
E00070
600070
700070
7000E0
7000E0
7800E0
3801C0
1E03C0
1FFF80
07FF00
01F800
ENDCHAR
STARTCHAR 00F3
ENCODING 243
SWIDTH 586 0
DWIDTH 22 0
BBX 20 29 1 0
BITMAP
001800
003800
003000
003000
007000
000000
000000
000000
01F800
07FE00
1FFF80
1E07C0
3801C0
7800E0
7000E0
7000E0
700070
600070
E00070
600070
700070
7000E0
7000E0
7800E0
3801C0
1E03C0
1FFF80
07FF00
01F800
ENDCHAR
STARTCHAR 00F4
ENCODING 244
SWIDTH 586 0
DWIDTH 22 0
BBX 20 29 1 0
BITMAP
00F000
00F800
01D800
039C00
070E00
000000
000000
000000
01F800
07FE00
1FFF80
1E07C0
3801C0
7800E0
7000E0
7000E0
700070
600070
E00070
600070
700070
7000E0
7000E0
7800E0
3801C0
1E03C0
1FFF80
07FF00
01F800
ENDCHAR
STARTCHAR 00F5
ENCODING 245
SWIDTH 586 0
DWIDTH 22 0
BBX 20 28 1 0
BITMAP
038300
07E300
0E7F00
0C3E00
000000
000000
000000
01F800
07FE00
1FFF80
1E07C0
3801C0
7800E0
7000E0
7000E0
700070
600070
E00070
600070
700070
7000E0
7000E0
7800E0
3801C0
1E03C0
1FFF80
07FF00
01F800
ENDCHAR
STARTCHAR 00F6
ENCODING 246
SWIDTH 586 0
DWIDTH 22 0
BBX 20 27 1 0
BITMAP
070E00
070E00
070E00
000000
000000
000000
01F800
07FE00
1FFF80
1E07C0
3801C0
7800E0
7000E0
7000E0
700070
600070
E00070
600070
700070
7000E0
7000E0
7800E0
3801C0
1E03C0
1FFF80
07FF00
01F800
ENDCHAR
STARTCHAR 00F7
ENCODING 247
SWIDTH 533 0
DWIDTH 20 0
BBX 16 13 2 7
BITMAP
01C0
01C0
01C0
0000
0000
FFFF
FFFF
0000
0000
0000
01C0
01C0
01C0
ENDCHAR
STARTCHAR 00F8
ENCODING 248
SWIDTH 586 0
DWIDTH 22 0
BBX 20 21 1 0
BITMAP
01F820
07FF70
1FFFF0
1E03E0
3801C0
7803E0
7007E0
700EE0
701C70
603870
E07070
E0E070
71C070
7380E0
7700E0
7E00E0
3C01C0
7E03C0
FFFF80
EFFE00
41F800
ENDCHAR
STARTCHAR 00F9
ENCODING 249
SWIDTH 586 0
DWIDTH 22 0
BBX 18 30 2 0
BITMAP
030000
038000
018000
01C000
00C000
00C000
000000
000000
000000
E001C0
E001C0
E001C0
E001C0
E001C0
E001C0
E001C0
E001C0
E001C0
E001C0
E001C0
E001C0
E001C0
E001C0
7003C0
7003C0
7807C0
3C0FC0
3FFFC0
0FF9C0
07F1C0
ENDCHAR
STARTCHAR 00FA
ENCODING 250
SWIDTH 586 0
DWIDTH 22 0
BBX 18 30 2 0
BITMAP
003000
007000
006000
006000
00E000
00C000
000000
000000
000000
E001C0
E001C0
E001C0
E001C0
E001C0
E001C0
E001C0
E001C0
E001C0
E001C0
E001C0
E001C0
E001C0
E001C0
7003C0
7003C0
7807C0
3C0FC0
3FFFC0
0FF9C0
07F1C0
ENDCHAR
STARTCHAR 00FB
ENCODING 251
SWIDTH 586 0
DWIDTH 22 0
BBX 18 29 2 0
BITMAP
01E000
03F000
073000
0E3800
0C1C00
000000
000000
000000
E001C0
E001C0
E001C0
E001C0
E001C0
E001C0
E001C0
E001C0
E001C0
E001C0
E001C0
E001C0
E001C0
E001C0
7003C0
7003C0
7807C0
3C0FC0
3FFFC0
0FF9C0
07F1C0
ENDCHAR
STARTCHAR 00FC
ENCODING 252
SWIDTH 586 0
DWIDTH 22 0
BBX 18 27 2 0
BITMAP
0E1C00
0E1C00
0E1C00
000000
000000
000000
E001C0
E001C0
E001C0
E001C0
E001C0
E001C0
E001C0
E001C0
E001C0
E001C0
E001C0
E001C0
E001C0
E001C0
7003C0
7003C0
7807C0
3C0FC0
3FFFC0
0FF9C0
07F1C0
ENDCHAR
STARTCHAR 00FD
ENCODING 253
SWIDTH 533 0
DWIDTH 20 0
BBX 18 38 1 -8
BITMAP
003000
007000
006000
006000
00E000
00C000
000000
000000
000000
E001C0
E001C0
700380
700380
700300
380700
380700
1C0600
1C0E00
1C0E00
0E1C00
0E1C00
071C00
073800
033800
03B000
03F000
01F000
01E000
00E000
00E000
01C000
01C000
018000
038000
038000
030000
070000
070000
ENDCHAR
STARTCHAR 00FE
ENCODING 254
SWIDTH 586 0
DWIDTH 22 0
BBX 18 35 3 -8
BITMAP
C00000
C00000
C00000
C00000
C00000
C00000
C3F000
CFFC00
DFFE00
F80F00
F00700
E00380
E00380
C00380
C001C0
C001C0
C001C0
C001C0
C001C0
C00380
E00380
E00380
F00700
F80F00
DFFE00
CFFC00
C3F000
C00000
C00000
C00000
C00000
C00000
C00000
C00000
C00000
ENDCHAR
STARTCHAR 00FF
ENCODING 255
SWIDTH 533 0
DWIDTH 20 0
BBX 18 35 1 -8
BITMAP
0E1C00
0E1C00
0E1C00
000000
000000
000000
E001C0
E001C0
700380
700380
700300
380700
380700
1C0600
1C0E00
1C0E00
0E1C00
0E1C00
071C00
073800
033800
03B000
03F000
01F000
01E000
00E000
00E000
01C000
01C000
018000
038000
038000
030000
070000
070000
ENDCHAR
ENDFONT
