STARTFONT 2.1
COMMENT
COMMENT Converted from OpenType font "manrope-medium.otf" by "otf2bdf 3.0".
COMMENT
FONT -FreeType-Manrope Medium-Medium-R-Normal--15-110-100-100-P-72-ISO10646-1
SIZE 11 100 100
FONTBOUNDINGBOX 14 19 0 -4
STARTPROPERTIES 19
FOUNDRY "FreeType"
FAMILY_NAME "Manrope Medium"
WEIGHT_NAME "Medium"
SLANT "R"
SETWIDTH_NAME "Normal"
ADD_STYLE_NAME ""
PIXEL_SIZE 15
POINT_SIZE 110
RESOLUTION_X 100
RESOLUTION_Y 100
SPACING "P"
AVERAGE_WIDTH 72
CHARSET_REGISTRY "ISO10646"
CHARSET_ENCODING "1"
FONT_ASCENT 15
FONT_DESCENT 4
COPYRIGHT "Copyright 2019-2021 The Manrope Project Authors (https://github.com/sharanda/manrope)"
_OTF_FONTFILE "manrope-medium.otf"
_OTF_PSNAME "Manrope-Medium"
ENDPROPERTIES
CHARS 191
STARTCHAR 0020
ENCODING 32
SWIDTH 196 0
DWIDTH 3 0
BBX 0 0 0 0
BITMAP
ENDCHAR
STARTCHAR 0021
ENCODING 33
SWIDTH 327 0
DWIDTH 5 0
BBX 1 11 2 0
BITMAP
80
80
80
80
80
80
80
80
00
00
80
ENDCHAR
STARTCHAR 0022
ENCODING 34
SWIDTH 392 0
DWIDTH 6 0
BBX 4 3 1 8
BITMAP
B0
B0
B0
ENDCHAR
STARTCHAR 0023
ENCODING 35
SWIDTH 916 0
DWIDTH 14 0
BBX 12 11 1 0
BITMAP
0440
04C0
0C80
7FF0
0980
0980
1900
FFE0
1300
3200
3200
ENDCHAR
STARTCHAR 0024
ENCODING 36
SWIDTH 589 0
DWIDTH 9 0
BBX 8 14 1 -2
BITMAP
10
7C
C6
82
80
E0
3C
06
03
83
C2
7C
10
10
ENDCHAR
STARTCHAR 0025
ENCODING 37
SWIDTH 916 0
DWIDTH 14 0
BBX 12 11 1 0
BITMAP
7020
C860
88C0
C980
7B00
0600
0DE0
1930
3310
6130
41E0
ENDCHAR
STARTCHAR 0026
ENCODING 38
SWIDTH 654 0
DWIDTH 10 0
BBX 8 11 1 0
BITMAP
3C
66
C0
C0
60
70
DB
8F
87
C7
7D
ENDCHAR
STARTCHAR 0027
ENCODING 39
SWIDTH 261 0
DWIDTH 4 0
BBX 1 3 1 8
BITMAP
80
80
80
ENDCHAR
STARTCHAR 0028
ENCODING 40
SWIDTH 458 0
DWIDTH 7 0
BBX 4 15 2 -3
BITMAP
10
20
60
40
40
C0
80
80
80
C0
C0
40
40
20
30
ENDCHAR
STARTCHAR 0029
ENCODING 41
SWIDTH 458 0
DWIDTH 7 0
BBX 3 16 1 -3
BITMAP
80
C0
40
60
20
20
20
20
20
20
20
20
60
40
C0
80
ENDCHAR
STARTCHAR 002A
ENCODING 42
SWIDTH 458 0
DWIDTH 7 0
BBX 5 5 1 6
BITMAP
20
28
F8
60
D0
ENDCHAR
STARTCHAR 002B
ENCODING 43
SWIDTH 589 0
DWIDTH 9 0
BBX 7 7 1 2
BITMAP
10
10
10
FE
10
10
10
ENDCHAR
STARTCHAR 002C
ENCODING 44
SWIDTH 261 0
DWIDTH 4 0
BBX 1 4 1 -2
BITMAP
80
80
80
80
ENDCHAR
STARTCHAR 002D
ENCODING 45
SWIDTH 392 0
DWIDTH 6 0
BBX 5 1 1 4
BITMAP
F8
ENDCHAR
STARTCHAR 002E
ENCODING 46
SWIDTH 261 0
DWIDTH 4 0
BBX 2 1 1 0
BITMAP
C0
ENDCHAR
STARTCHAR 002F
ENCODING 47
SWIDTH 392 0
DWIDTH 6 0
BBX 4 11 1 0
BITMAP
10
30
30
20
20
60
40
40
40
C0
80
ENDCHAR
STARTCHAR 0030
ENCODING 48
SWIDTH 654 0
DWIDTH 10 0
BBX 8 11 1 0
BITMAP
3C
66
C2
82
83
83
83
82
C2
66
3C
ENDCHAR
STARTCHAR 0031
ENCODING 49
SWIDTH 392 0
DWIDTH 6 0
BBX 3 11 1 0
BITMAP
60
E0
20
20
20
20
20
20
20
20
20
ENDCHAR
STARTCHAR 0032
ENCODING 50
SWIDTH 589 0
DWIDTH 9 0
BBX 7 11 1 0
BITMAP
38
EC
86
02
06
04
0C
30
60
C0
FE
ENDCHAR
STARTCHAR 0033
ENCODING 51
SWIDTH 589 0
DWIDTH 9 0
BBX 7 11 1 0
BITMAP
FE
04
18
30
78
0C
06
06
86
CC
78
ENDCHAR
STARTCHAR 0034
ENCODING 52
SWIDTH 589 0
DWIDTH 9 0
BBX 7 11 1 0
BITMAP
18
10
30
20
60
44
C4
84
FE
04
04
ENDCHAR
STARTCHAR 0035
ENCODING 53
SWIDTH 589 0
DWIDTH 9 0
BBX 7 11 1 0
BITMAP
FC
C0
C0
C0
FC
C6
02
02
86
CC
78
ENDCHAR
STARTCHAR 0036
ENCODING 54
SWIDTH 589 0
DWIDTH 9 0
BBX 8 11 1 0
BITMAP
3C
66
C0
80
BC
E6
C2
83
C2
66
3C
ENDCHAR
STARTCHAR 0037
ENCODING 55
SWIDTH 523 0
DWIDTH 8 0
BBX 6 11 1 0
BITMAP
FC
04
0C
08
18
10
30
30
20
60
40
ENDCHAR
STARTCHAR 0038
ENCODING 56
SWIDTH 589 0
DWIDTH 9 0
BBX 7 11 1 0
BITMAP
38
6C
C6
C6
44
7C
C6
82
82
C6
7C
ENDCHAR
STARTCHAR 0039
ENCODING 57
SWIDTH 589 0
DWIDTH 9 0
BBX 7 11 1 0
BITMAP
3C
66
C2
82
C2
66
3A
02
02
66
3C
ENDCHAR
STARTCHAR 003A
ENCODING 58
SWIDTH 327 0
DWIDTH 5 0
BBX 1 6 2 1
BITMAP
80
80
00
00
00
80
ENDCHAR
STARTCHAR 003B
ENCODING 59
SWIDTH 327 0
DWIDTH 5 0
BBX 1 11 2 -2
BITMAP
80
80
00
00
00
00
00
80
80
80
80
ENDCHAR
STARTCHAR 003C
ENCODING 60
SWIDTH 654 0
DWIDTH 10 0
BBX 4 7 2 2
BITMAP
10
30
60
C0
60
30
10
ENDCHAR
STARTCHAR 003D
ENCODING 61
SWIDTH 720 0
DWIDTH 11 0
BBX 8 3 2 4
BITMAP
FF
00
FF
ENDCHAR
STARTCHAR 003E
ENCODING 62
SWIDTH 654 0
DWIDTH 10 0
BBX 4 7 3 2
BITMAP
80
40
20
10
20
40
80
ENDCHAR
STARTCHAR 003F
ENCODING 63
SWIDTH 523 0
DWIDTH 8 0
BBX 6 11 1 0
BITMAP
78
CC
84
04
0C
18
30
30
00
30
30
ENDCHAR
STARTCHAR 0040
ENCODING 64
SWIDTH 916 0
DWIDTH 14 0
BBX 12 12 1 -2
BITMAP
0F00
30C0
6060
4020
CF30
9930
9130
C920
4EE0
6000
3000
1F00
ENDCHAR
STARTCHAR 0041
ENCODING 65
SWIDTH 654 0
DWIDTH 10 0
BBX 9 11 0 0
BITMAP
0C00
1C00
1E00
1200
3200
3300
2100
7F00
6180
4080
C080
ENDCHAR
STARTCHAR 0042
ENCODING 66
SWIDTH 589 0
DWIDTH 9 0
BBX 8 11 1 0
BITMAP
FC
86
82
82
86
FE
83
81
81
83
FE
ENDCHAR
STARTCHAR 0043
ENCODING 67
SWIDTH 720 0
DWIDTH 11 0
BBX 10 11 0 0
BITMAP
1F00
3180
60C0
4040
4000
C000
4000
4040
60C0
3180
1F00
ENDCHAR
STARTCHAR 0044
ENCODING 68
SWIDTH 654 0
DWIDTH 10 0
BBX 9 11 1 0
BITMAP
FC00
8600
8300
8100
8180
8180
8180
8100
8300
8600
FC00
ENDCHAR
STARTCHAR 0045
ENCODING 69
SWIDTH 589 0
DWIDTH 9 0
BBX 7 11 1 0
BITMAP
FE
80
80
80
80
FC
80
80
80
80
FE
ENDCHAR
STARTCHAR 0046
ENCODING 70
SWIDTH 523 0
DWIDTH 8 0
BBX 6 11 1 0
BITMAP
FC
80
80
80
80
FC
80
80
80
80
80
ENDCHAR
STARTCHAR 0047
ENCODING 71
SWIDTH 720 0
DWIDTH 11 0
BBX 10 11 0 0
BITMAP
1F00
3180
60C0
4000
C000
C1C0
4040
4040
60C0
3180
1F00
ENDCHAR
STARTCHAR 0048
ENCODING 72
SWIDTH 720 0
DWIDTH 11 0
BBX 9 11 1 0
BITMAP
8180
8180
8180
8180
8180
FF80
8180
8180
8180
8180
8180
ENDCHAR
STARTCHAR 0049
ENCODING 73
SWIDTH 261 0
DWIDTH 4 0
BBX 2 11 1 0
BITMAP
C0
C0
C0
C0
C0
C0
C0
C0
C0
C0
C0
ENDCHAR
STARTCHAR 004A
ENCODING 74
SWIDTH 458 0
DWIDTH 7 0
BBX 6 11 0 0
BITMAP
04
04
04
04
04
04
04
04
04
CC
78
ENDCHAR
STARTCHAR 004B
ENCODING 75
SWIDTH 589 0
DWIDTH 9 0
BBX 8 11 1 0
BITMAP
82
86
8C
98
B0
E0
B0
98
8C
86
83
ENDCHAR
STARTCHAR 004C
ENCODING 76
SWIDTH 523 0
DWIDTH 8 0
BBX 7 11 1 0
BITMAP
C0
C0
C0
C0
C0
C0
C0
C0
C0
C0
FE
ENDCHAR
STARTCHAR 004D
ENCODING 77
SWIDTH 850 0
DWIDTH 13 0
BBX 11 11 1 0
BITMAP
C060
C060
C0E0
A0A0
A1A0
9120
9120
9A20
8A20
8E20
8420
ENDCHAR
STARTCHAR 004E
ENCODING 78
SWIDTH 720 0
DWIDTH 11 0
BBX 9 11 1 0
BITMAP
C180
C180
E180
B180
9180
8980
8D80
8580
8380
8380
8180
ENDCHAR
STARTCHAR 004F
ENCODING 79
SWIDTH 720 0
DWIDTH 11 0
BBX 11 11 0 0
BITMAP
1F00
3180
60C0
4040
4060
C060
4060
4040
60C0
3180
1F00
ENDCHAR
STARTCHAR 0050
ENCODING 80
SWIDTH 589 0
DWIDTH 9 0
BBX 8 11 1 0
BITMAP
FC
86
83
81
83
86
FC
80
80
80
80
ENDCHAR
STARTCHAR 0051
ENCODING 81
SWIDTH 720 0
DWIDTH 11 0
BBX 11 11 0 0
BITMAP
1F00
3180
60C0
4040
4060
C060
4060
4140
61C0
31C0
1F40
ENDCHAR
STARTCHAR 0052
ENCODING 82
SWIDTH 654 0
DWIDTH 10 0
BBX 8 11 1 0
BITMAP
FC
86
83
81
83
86
FC
84
86
82
83
ENDCHAR
STARTCHAR 0053
ENCODING 83
SWIDTH 654 0
DWIDTH 10 0
BBX 8 11 1 0
BITMAP
3C
E6
83
C0
E0
3E
03
01
81
E7
3C
ENDCHAR
STARTCHAR 0054
ENCODING 84
SWIDTH 589 0
DWIDTH 9 0
BBX 9 11 0 0
BITMAP
FF80
0800
0800
0800
0800
0800
0800
0800
0800
0800
0800
ENDCHAR
STARTCHAR 0055
ENCODING 85
SWIDTH 720 0
DWIDTH 11 0
BBX 9 11 1 0
BITMAP
8180
8180
8180
8180
8180
8180
8180
C180
C100
6300
3E00
ENDCHAR
STARTCHAR 0056
ENCODING 86
SWIDTH 589 0
DWIDTH 9 0
BBX 9 11 0 0
BITMAP
C080
4180
4100
6100
2300
2200
3200
1600
1400
1C00
0C00
ENDCHAR
STARTCHAR 0057
ENCODING 87
SWIDTH 981 0
DWIDTH 15 0
BBX 14 11 0 0
BITMAP
C304
430C
438C
6288
2688
24D8
24D0
3C50
1870
1870
1820
ENDCHAR
STARTCHAR 0058
ENCODING 88
SWIDTH 654 0
DWIDTH 10 0
BBX 9 11 0 0
BITMAP
4180
6100
3300
1600
1C00
0C00
1C00
1600
2300
6100
C180
ENDCHAR
STARTCHAR 0059
ENCODING 89
SWIDTH 589 0
DWIDTH 9 0
BBX 8 11 0 0
BITMAP
C1
43
62
36
14
1C
08
08
08
08
08
ENDCHAR
STARTCHAR 005A
ENCODING 90
SWIDTH 654 0
DWIDTH 10 0
BBX 8 11 1 0
BITMAP
FF
06
06
0C
08
18
30
20
60
40
FF
ENDCHAR
STARTCHAR 005B
ENCODING 91
SWIDTH 392 0
DWIDTH 6 0
BBX 3 17 2 -3
BITMAP
E0
80
80
80
80
80
80
80
80
80
80
80
80
80
80
80
E0
ENDCHAR
STARTCHAR 005C
ENCODING 92
SWIDTH 392 0
DWIDTH 6 0
BBX 4 11 1 0
BITMAP
80
C0
40
40
40
60
20
20
30
30
10
ENDCHAR
STARTCHAR 005D
ENCODING 93
SWIDTH 392 0
DWIDTH 6 0
BBX 3 17 1 -3
BITMAP
E0
20
20
20
20
20
20
20
20
20
20
20
20
20
20
20
E0
ENDCHAR
STARTCHAR 005E
ENCODING 94
SWIDTH 654 0
DWIDTH 10 0
BBX 6 4 2 7
BITMAP
30
68
C4
84
ENDCHAR
STARTCHAR 005F
ENCODING 95
SWIDTH 654 0
DWIDTH 10 0
BBX 10 1 0 -2
BITMAP
FFC0
ENDCHAR
STARTCHAR 0060
ENCODING 96
SWIDTH 523 0
DWIDTH 8 0
BBX 2 3 3 12
BITMAP
80
80
40
ENDCHAR
STARTCHAR 0061
ENCODING 97
SWIDTH 589 0
DWIDTH 9 0
BBX 7 9 1 0
BITMAP
78
C4
06
3E
E6
86
86
8E
76
ENDCHAR
STARTCHAR 0062
ENCODING 98
SWIDTH 589 0
DWIDTH 9 0
BBX 8 11 1 0
BITMAP
80
80
BC
E6
C2
82
83
82
C2
E6
BC
ENDCHAR
STARTCHAR 0063
ENCODING 99
SWIDTH 589 0
DWIDTH 9 0
BBX 7 9 1 0
BITMAP
3C
E6
82
80
80
80
82
C6
3C
ENDCHAR
STARTCHAR 0064
ENCODING 100
SWIDTH 589 0
DWIDTH 9 0
BBX 7 11 1 0
BITMAP
02
02
7A
C6
82
82
82
82
82
C6
7A
ENDCHAR
STARTCHAR 0065
ENCODING 101
SWIDTH 589 0
DWIDTH 9 0
BBX 7 9 1 0
BITMAP
3C
C6
82
82
FE
80
82
C6
3C
ENDCHAR
STARTCHAR 0066
ENCODING 102
SWIDTH 392 0
DWIDTH 6 0
BBX 5 11 0 0
BITMAP
18
20
F8
20
20
20
20
20
20
20
20
ENDCHAR
STARTCHAR 0067
ENCODING 103
SWIDTH 589 0
DWIDTH 9 0
BBX 7 13 1 -4
BITMAP
7A
C6
82
82
82
82
82
C6
7A
02
06
CE
7C
ENDCHAR
STARTCHAR 0068
ENCODING 104
SWIDTH 589 0
DWIDTH 9 0
BBX 7 11 1 0
BITMAP
80
80
BC
E6
C2
82
82
82
82
82
82
ENDCHAR
STARTCHAR 0069
ENCODING 105
SWIDTH 261 0
DWIDTH 4 0
BBX 2 11 1 0
BITMAP
C0
00
C0
C0
C0
C0
C0
C0
C0
C0
C0
ENDCHAR
STARTCHAR 006A
ENCODING 106
SWIDTH 261 0
DWIDTH 4 0
BBX 3 15 0 -4
BITMAP
60
00
60
60
60
60
60
60
60
60
60
60
60
60
C0
ENDCHAR
STARTCHAR 006B
ENCODING 107
SWIDTH 523 0
DWIDTH 8 0
BBX 7 11 1 0
BITMAP
80
80
84
88
98
B0
E0
B0
98
8C
86
ENDCHAR
STARTCHAR 006C
ENCODING 108
SWIDTH 261 0
DWIDTH 4 0
BBX 2 11 1 0
BITMAP
C0
C0
C0
C0
C0
C0
C0
C0
C0
C0
C0
ENDCHAR
STARTCHAR 006D
ENCODING 109
SWIDTH 850 0
DWIDTH 13 0
BBX 11 9 1 0
BITMAP
B9C0
CE60
C420
8420
8420
8420
8420
8420
8420
ENDCHAR
STARTCHAR 006E
ENCODING 110
SWIDTH 589 0
DWIDTH 9 0
BBX 7 9 1 0
BITMAP
BC
E6
C2
82
82
82
82
82
82
ENDCHAR
STARTCHAR 006F
ENCODING 111
SWIDTH 589 0
DWIDTH 9 0
BBX 8 9 1 0
BITMAP
3C
E6
82
82
83
82
82
C6
3C
ENDCHAR
STARTCHAR 0070
ENCODING 112
SWIDTH 589 0
DWIDTH 9 0
BBX 8 12 1 -3
BITMAP
BC
E6
C2
82
83
82
C2
E6
BC
80
80
80
ENDCHAR
STARTCHAR 0071
ENCODING 113
SWIDTH 589 0
DWIDTH 9 0
BBX 7 12 1 -3
BITMAP
7A
C6
82
82
82
82
82
C6
7A
02
02
02
ENDCHAR
STARTCHAR 0072
ENCODING 114
SWIDTH 392 0
DWIDTH 6 0
BBX 4 9 1 0
BITMAP
B0
E0
C0
C0
80
80
80
80
80
ENDCHAR
STARTCHAR 0073
ENCODING 115
SWIDTH 523 0
DWIDTH 8 0
BBX 6 9 1 0
BITMAP
78
CC
84
C0
78
0C
84
CC
78
ENDCHAR
STARTCHAR 0074
ENCODING 116
SWIDTH 392 0
DWIDTH 6 0
BBX 6 11 0 0
BITMAP
20
20
FC
20
20
20
20
20
20
30
1C
ENDCHAR
STARTCHAR 0075
ENCODING 117
SWIDTH 589 0
DWIDTH 9 0
BBX 7 9 1 0
BITMAP
82
82
82
82
82
82
C6
66
7A
ENDCHAR
STARTCHAR 0076
ENCODING 118
SWIDTH 523 0
DWIDTH 8 0
BBX 8 9 0 0
BITMAP
C3
42
46
66
24
24
3C
18
18
ENDCHAR
STARTCHAR 0077
ENCODING 119
SWIDTH 785 0
DWIDTH 12 0
BBX 11 9 0 0
BITMAP
C620
4620
4620
6F60
2940
2940
29C0
3080
1080
ENDCHAR
STARTCHAR 0078
ENCODING 120
SWIDTH 523 0
DWIDTH 8 0
BBX 8 9 0 0
BITMAP
43
66
34
1C
18
1C
24
66
C3
ENDCHAR
STARTCHAR 0079
ENCODING 121
SWIDTH 523 0
DWIDTH 8 0
BBX 8 12 0 -3
BITMAP
C3
42
62
26
24
34
1C
18
18
10
10
30
ENDCHAR
STARTCHAR 007A
ENCODING 122
SWIDTH 523 0
DWIDTH 8 0
BBX 7 9 0 0
BITMAP
7E
06
0C
08
18
30
20
60
FE
ENDCHAR
STARTCHAR 007B
ENCODING 123
SWIDTH 458 0
DWIDTH 7 0
BBX 4 16 2 -3
BITMAP
70
40
40
40
40
40
40
C0
C0
40
40
40
40
40
40
70
ENDCHAR
STARTCHAR 007C
ENCODING 124
SWIDTH 261 0
DWIDTH 4 0
BBX 2 11 1 0
BITMAP
C0
C0
C0
C0
C0
C0
C0
C0
C0
C0
C0
ENDCHAR
STARTCHAR 007D
ENCODING 125
SWIDTH 458 0
DWIDTH 7 0
BBX 3 16 1 -3
BITMAP
C0
60
60
60
60
60
60
20
20
60
60
60
60
60
60
C0
ENDCHAR
STARTCHAR 007E
ENCODING 126
SWIDTH 654 0
DWIDTH 10 0
BBX 7 3 2 3
BITMAP
E6
FC
80
ENDCHAR
STARTCHAR 00A0
ENCODING 160
SWIDTH 196 0
DWIDTH 3 0
BBX 0 0 0 0
BITMAP
ENDCHAR
STARTCHAR 00A1
ENCODING 161
SWIDTH 327 0
DWIDTH 5 0
BBX 1 11 2 -2
BITMAP
80
00
00
80
80
80
80
80
80
80
80
ENDCHAR
STARTCHAR 00A2
ENCODING 162
SWIDTH 589 0
DWIDTH 9 0
BBX 7 11 1 0
BITMAP
10
18
7C
C6
80
80
80
80
C6
7C
10
ENDCHAR
STARTCHAR 00A3
ENCODING 163
SWIDTH 589 0
DWIDTH 9 0
BBX 7 11 1 0
BITMAP
3C
26
62
60
60
F8
60
60
60
60
FE
ENDCHAR
STARTCHAR 00A4
ENCODING 164
SWIDTH 654 0
DWIDTH 10 0
BBX 8 9 1 1
BITMAP
81
FF
42
81
81
81
42
FF
81
ENDCHAR
STARTCHAR 00A5
ENCODING 165
SWIDTH 589 0
DWIDTH 9 0
BBX 8 11 0 0
BITMAP
C1
43
62
36
14
1C
7E
08
7E
08
08
ENDCHAR
STARTCHAR 00A6
ENCODING 166
SWIDTH 261 0
DWIDTH 4 0
BBX 2 14 1 -3
BITMAP
C0
C0
C0
C0
C0
C0
00
00
C0
C0
C0
C0
C0
C0
ENDCHAR
STARTCHAR 00A7
ENCODING 167
SWIDTH 523 0
DWIDTH 8 0
BBX 7 12 1 -2
BITMAP
78
CC
84
E0
7C
86
86
FC
1C
04
C4
7C
ENDCHAR
STARTCHAR 00A8
ENCODING 168
SWIDTH 523 0
DWIDTH 8 0
BBX 4 1 2 13
BITMAP
90
ENDCHAR
STARTCHAR 00A9
ENCODING 169
SWIDTH 850 0
DWIDTH 13 0
BBX 12 11 0 0
BITMAP
0F80
18C0
2060
6730
4890
C810
C810
4890
6730
3060
1FC0
ENDCHAR
STARTCHAR 00AA
ENCODING 170
SWIDTH 327 0
DWIDTH 5 0
BBX 3 5 1 4
BITMAP
40
A0
E0
A0
E0
ENDCHAR
STARTCHAR 00AB
ENCODING 171
SWIDTH 523 0
DWIDTH 8 0
BBX 6 6 1 2
BITMAP
24
48
D0
48
2C
34
ENDCHAR
STARTCHAR 00AC
ENCODING 172
SWIDTH 589 0
DWIDTH 9 0
BBX 7 3 1 3
BITMAP
FE
02
02
ENDCHAR
STARTCHAR 00AD
ENCODING 173
SWIDTH 392 0
DWIDTH 6 0
BBX 5 1 1 4
BITMAP
F8
ENDCHAR
STARTCHAR 00AE
ENCODING 174
SWIDTH 654 0
DWIDTH 10 0
BBX 8 8 1 4
BITMAP
3C
46
9A
A9
99
8A
46
3C
ENDCHAR
STARTCHAR 00AF
ENCODING 175
SWIDTH 523 0
DWIDTH 8 0
BBX 4 1 2 13
BITMAP
F0
ENDCHAR
STARTCHAR 00B0
ENCODING 176
SWIDTH 458 0
DWIDTH 7 0
BBX 6 5 0 6
BITMAP
38
4C
C4
4C
78
ENDCHAR
STARTCHAR 00B1
ENCODING 177
SWIDTH 589 0
DWIDTH 9 0
BBX 7 8 1 1
BITMAP
10
10
FE
10
10
10
00
FE
ENDCHAR
STARTCHAR 00B2
ENCODING 178
SWIDTH 392 0
DWIDTH 6 0
BBX 4 7 1 4
BITMAP
70
90
10
10
20
C0
F0
ENDCHAR
STARTCHAR 00B3
ENCODING 179
SWIDTH 392 0
DWIDTH 6 0
BBX 4 7 1 4
BITMAP
F0
20
60
10
10
90
E0
ENDCHAR
STARTCHAR 00B4
ENCODING 180
SWIDTH 523 0
DWIDTH 8 0
BBX 2 3 3 12
BITMAP
40
C0
80
ENDCHAR
STARTCHAR 00B5
ENCODING 181
SWIDTH 589 0
DWIDTH 9 0
BBX 7 12 1 -3
BITMAP
82
82
82
82
82
C2
C2
E6
BA
80
80
80
ENDCHAR
STARTCHAR 00B6
ENCODING 182
SWIDTH 654 0
DWIDTH 10 0
BBX 8 13 1 -2
BITMAP
7D
FD
FD
FD
FD
7D
3D
0D
0D
0D
0D
0D
0D
ENDCHAR
STARTCHAR 00B7
ENCODING 183
SWIDTH 261 0
DWIDTH 4 0
BBX 2 2 1 4
BITMAP
C0
C0
ENDCHAR
STARTCHAR 00B8
ENCODING 184
SWIDTH 392 0
DWIDTH 6 0
BBX 2 4 2 -4
BITMAP
40
C0
40
C0
ENDCHAR
STARTCHAR 00B9
ENCODING 185
SWIDTH 327 0
DWIDTH 5 0
BBX 2 7 1 4
BITMAP
C0
40
40
40
40
40
40
ENDCHAR
STARTCHAR 00BA
ENCODING 186
SWIDTH 327 0
DWIDTH 5 0
BBX 4 5 1 4
BITMAP
E0
90
90
90
60
ENDCHAR
STARTCHAR 00BB
ENCODING 187
SWIDTH 523 0
DWIDTH 8 0
BBX 6 7 1 1
BITMAP
10
D8
68
24
6C
58
90
ENDCHAR
STARTCHAR 00BC
ENCODING 188
SWIDTH 981 0
DWIDTH 15 0
BBX 12 11 1 0
BITMAP
C040
C080
4180
4100
4220
4440
4C40
0890
1090
20F0
2010
ENDCHAR
STARTCHAR 00BD
ENCODING 189
SWIDTH 981 0
DWIDTH 15 0
BBX 13 11 1 0
BITMAP
C040
4080
4180
4100
4270
44C8
4C08
0818
1030
2040
20F8
ENDCHAR
STARTCHAR 00BE
ENCODING 190
SWIDTH 981 0
DWIDTH 15 0
BBX 13 11 1 0
BITMAP
F020
2040
60C0
1080
1130
9220
E620
0448
0848
1078
1008
ENDCHAR
STARTCHAR 00BF
ENCODING 191
SWIDTH 523 0
DWIDTH 8 0
BBX 6 12 1 -3
BITMAP
10
10
00
10
30
20
60
C0
80
84
CC
78
ENDCHAR
STARTCHAR 00C0
ENCODING 192
SWIDTH 654 0
DWIDTH 10 0
BBX 9 15 0 0
BITMAP
1000
0800
0800
0000
0C00
1C00
1E00
1200
3200
3300
2100
7F00
6180
4080
C080
ENDCHAR
STARTCHAR 00C1
ENCODING 193
SWIDTH 654 0
DWIDTH 10 0
BBX 9 15 0 0
BITMAP
0600
0400
0400
0000
0C00
1C00
1E00
1200
3200
3300
2100
7F00
6180
4080
C080
ENDCHAR
STARTCHAR 00C2
ENCODING 194
SWIDTH 654 0
DWIDTH 10 0
BBX 9 14 0 0
BITMAP
0C00
1200
0000
0C00
1C00
1E00
1200
3200
3300
2100
7F00
6180
4080
C080
ENDCHAR
STARTCHAR 00C3
ENCODING 195
SWIDTH 654 0
DWIDTH 10 0
BBX 9 15 0 0
BITMAP
1A00
2600
0000
0000
0C00
1C00
1E00
1200
3200
3300
2100
7F00
6180
4080
C080
ENDCHAR
STARTCHAR 00C4
ENCODING 196
SWIDTH 654 0
DWIDTH 10 0
BBX 9 14 0 0
BITMAP
1200
0000
0000
0C00
1C00
1E00
1200
3200
3300
2100
7F00
6180
4080
C080
ENDCHAR
STARTCHAR 00C5
ENCODING 197
SWIDTH 654 0
DWIDTH 10 0
BBX 9 15 0 0
BITMAP
0C00
1200
0C00
0000
0C00
1C00
1E00
1200
3200
3300
2100
7F00
6180
4080
C080
ENDCHAR
STARTCHAR 00C6
ENCODING 198
SWIDTH 916 0
DWIDTH 14 0
BBX 13 11 0 0
BITMAP
0FF8
1B00
1B00
1300
3300
33F0
2300
7F00
6300
4300
C3F8
ENDCHAR
STARTCHAR 00C7
ENCODING 199
SWIDTH 720 0
DWIDTH 11 0
BBX 10 14 0 -3
BITMAP
1F00
3180
60C0
4040
4000
C000
4000
4040
60C0
3180
1F00
0400
0200
0600
ENDCHAR
STARTCHAR 00C8
ENCODING 200
SWIDTH 589 0
DWIDTH 9 0
BBX 7 15 1 0
BITMAP
20
10
10
00
FE
80
80
80
80
FC
80
80
80
80
FE
ENDCHAR
STARTCHAR 00C9
ENCODING 201
SWIDTH 589 0
DWIDTH 9 0
BBX 7 15 1 0
BITMAP
08
08
10
00
FE
80
80
80
80
FC
80
80
80
80
FE
ENDCHAR
STARTCHAR 00CA
ENCODING 202
SWIDTH 589 0
DWIDTH 9 0
BBX 7 14 1 0
BITMAP
38
68
00
FE
80
80
80
80
FC
80
80
80
80
FE
ENDCHAR
STARTCHAR 00CB
ENCODING 203
SWIDTH 589 0
DWIDTH 9 0
BBX 7 14 1 0
BITMAP
6C
00
00
FE
80
80
80
80
FC
80
80
80
80
FE
ENDCHAR
STARTCHAR 00CC
ENCODING 204
SWIDTH 261 0
DWIDTH 4 0
BBX 2 15 1 0
BITMAP
80
80
80
00
C0
C0
C0
C0
C0
C0
C0
C0
C0
C0
C0
ENDCHAR
STARTCHAR 00CD
ENCODING 205
SWIDTH 261 0
DWIDTH 4 0
BBX 2 15 1 0
BITMAP
40
40
80
00
C0
C0
C0
C0
C0
C0
C0
C0
C0
C0
C0
ENDCHAR
STARTCHAR 00CE
ENCODING 206
SWIDTH 261 0
DWIDTH 4 0
BBX 4 14 0 0
BITMAP
60
90
00
60
60
60
60
60
60
60
60
60
60
60
ENDCHAR
STARTCHAR 00CF
ENCODING 207
SWIDTH 261 0
DWIDTH 4 0
BBX 4 14 0 0
BITMAP
90
00
00
60
60
60
60
60
60
60
60
60
60
60
ENDCHAR
STARTCHAR 00D0
ENCODING 208
SWIDTH 654 0
DWIDTH 10 0
BBX 10 11 0 0
BITMAP
7E00
4300
4180
4080
40C0
F8C0
40C0
4080
4180
4300
7E00
ENDCHAR
STARTCHAR 00D1
ENCODING 209
SWIDTH 720 0
DWIDTH 11 0
BBX 9 14 1 0
BITMAP
3A00
2E00
0000
C180
C180
E180
B180
9180
8980
8D80
8580
8380
8380
8180
ENDCHAR
STARTCHAR 00D2
ENCODING 210
SWIDTH 720 0
DWIDTH 11 0
BBX 11 15 0 0
BITMAP
0800
0800
0400
0000
1F00
3180
60C0
4040
4060
C060
4060
4040
60C0
3180
1F00
ENDCHAR
STARTCHAR 00D3
ENCODING 211
SWIDTH 720 0
DWIDTH 11 0
BBX 11 15 0 0
BITMAP
0200
0200
0400
0000
1F00
3180
60C0
4040
4060
C060
4060
4040
60C0
3180
1F00
ENDCHAR
STARTCHAR 00D4
ENCODING 212
SWIDTH 720 0
DWIDTH 11 0
BBX 11 14 0 0
BITMAP
0E00
0B00
0000
1F00
3180
60C0
4040
4060
C060
4060
4040
60C0
3180
1F00
ENDCHAR
STARTCHAR 00D5
ENCODING 213
SWIDTH 720 0
DWIDTH 11 0
BBX 11 14 0 0
BITMAP
1D00
1300
0000
1F00
3180
60C0
4040
4060
C060
4060
4040
60C0
3180
1F00
ENDCHAR
STARTCHAR 00D6
ENCODING 214
SWIDTH 720 0
DWIDTH 11 0
BBX 11 13 0 0
BITMAP
1B00
0000
1F00
3180
60C0
4040
4060
C060
4060
4040
60C0
3180
1F00
ENDCHAR
STARTCHAR 00D7
ENCODING 215
SWIDTH 523 0
DWIDTH 8 0
BBX 5 6 1 3
BITMAP
88
58
30
70
C8
80
ENDCHAR
STARTCHAR 00D8
ENCODING 216
SWIDTH 720 0
DWIDTH 11 0
BBX 11 11 0 0
BITMAP
1F60
31C0
60C0
4140
4260
C660
4C60
5840
70C0
7180
5F00
ENDCHAR
STARTCHAR 00D9
ENCODING 217
SWIDTH 720 0
DWIDTH 11 0
BBX 9 15 1 0
BITMAP
1000
0800
0800
0000
8180
8180
8180
8180
8180
8180
8180
C180
C100
6300
3E00
ENDCHAR
STARTCHAR 00DA
ENCODING 218
SWIDTH 720 0
DWIDTH 11 0
BBX 9 15 1 0
BITMAP
0400
0800
0800
0000
8180
8180
8180
8180
8180
8180
8180
C180
C100
6300
3E00
ENDCHAR
STARTCHAR 00DB
ENCODING 219
SWIDTH 720 0
DWIDTH 11 0
BBX 9 14 1 0
BITMAP
1C00
3400
0000
8180
8180
8180
8180
8180
8180
8180
C180
C100
6300
3E00
ENDCHAR
STARTCHAR 00DC
ENCODING 220
SWIDTH 720 0
DWIDTH 11 0
BBX 9 14 1 0
BITMAP
3600
0000
0000
8180
8180
8180
8180
8180
8180
8180
C180
C100
6300
3E00
ENDCHAR
STARTCHAR 00DD
ENCODING 221
SWIDTH 589 0
DWIDTH 9 0
BBX 8 15 0 0
BITMAP
04
08
08
00
C1
43
62
36
14
1C
08
08
08
08
08
ENDCHAR
STARTCHAR 00DE
ENCODING 222
SWIDTH 589 0
DWIDTH 9 0
BBX 8 11 1 0
BITMAP
80
80
FC
86
83
83
83
86
FC
80
80
ENDCHAR
STARTCHAR 00DF
ENCODING 223
SWIDTH 589 0
DWIDTH 9 0
BBX 7 11 1 0
BITMAP
78
CC
C4
84
8C
9C
86
82
82
86
9C
ENDCHAR
STARTCHAR 00E0
ENCODING 224
SWIDTH 589 0
DWIDTH 9 0
BBX 7 13 1 0
BITMAP
20
20
10
00
78
C4
06
3E
E6
86
86
8E
76
ENDCHAR
STARTCHAR 00E1
ENCODING 225
SWIDTH 589 0
DWIDTH 9 0
BBX 7 13 1 0
BITMAP
08
18
10
00
78
C4
06
3E
E6
86
86
8E
76
ENDCHAR
STARTCHAR 00E2
ENCODING 226
SWIDTH 589 0
DWIDTH 9 0
BBX 7 12 1 0
BITMAP
38
68
00
78
C4
06
3E
E6
86
86
8E
76
ENDCHAR
STARTCHAR 00E3
ENCODING 227
SWIDTH 589 0
DWIDTH 9 0
BBX 7 12 1 0
BITMAP
74
5C
00
78
C4
06
3E
E6
86
86
8E
76
ENDCHAR
STARTCHAR 00E4
ENCODING 228
SWIDTH 589 0
DWIDTH 9 0
BBX 7 11 1 0
BITMAP
6C
00
78
C4
06
3E
E6
86
86
8E
76
ENDCHAR
STARTCHAR 00E5
ENCODING 229
SWIDTH 589 0
DWIDTH 9 0
BBX 7 13 1 0
BITMAP
38
28
38
00
78
C4
06
3E
E6
86
86
8E
76
ENDCHAR
STARTCHAR 00E6
ENCODING 230
SWIDTH 916 0
DWIDTH 14 0
BBX 13 9 1 0
BITMAP
79E0
CF30
8610
0618
7FF8
C600
8610
8F30
79E0
ENDCHAR
STARTCHAR 00E7
ENCODING 231
SWIDTH 589 0
DWIDTH 9 0
BBX 7 12 1 -3
BITMAP
3C
E6
82
80
80
80
82
E6
3C
10
08
30
ENDCHAR
STARTCHAR 00E8
ENCODING 232
SWIDTH 589 0
DWIDTH 9 0
BBX 7 13 1 0
BITMAP
20
10
10
00
3C
C6
82
82
FE
80
82
C6
3C
ENDCHAR
STARTCHAR 00E9
ENCODING 233
SWIDTH 589 0
DWIDTH 9 0
BBX 7 13 1 0
BITMAP
08
08
10
00
3C
C6
82
82
FE
80
82
C6
3C
ENDCHAR
STARTCHAR 00EA
ENCODING 234
SWIDTH 589 0
DWIDTH 9 0
BBX 7 12 1 0
BITMAP
38
2C
00
3C
C6
82
82
FE
80
82
C6
3C
ENDCHAR
STARTCHAR 00EB
ENCODING 235
SWIDTH 589 0
DWIDTH 9 0
BBX 7 11 1 0
BITMAP
6C
00
3C
C6
82
82
FE
80
82
C6
3C
ENDCHAR
STARTCHAR 00EC
ENCODING 236
SWIDTH 261 0
DWIDTH 4 0
BBX 3 13 0 0
BITMAP
C0
40
40
00
60
60
60
60
60
60
60
60
60
ENDCHAR
STARTCHAR 00ED
ENCODING 237
SWIDTH 261 0
DWIDTH 4 0
BBX 2 13 1 0
BITMAP
40
40
C0
00
C0
C0
C0
C0
C0
C0
C0
C0
C0
ENDCHAR
STARTCHAR 00EE
ENCODING 238
SWIDTH 261 0
DWIDTH 4 0
BBX 4 12 0 0
BITMAP
60
90
00
60
60
60
60
60
60
60
60
60
ENDCHAR
STARTCHAR 00EF
ENCODING 239
SWIDTH 261 0
DWIDTH 4 0
BBX 4 11 0 0
BITMAP
90
00
60
60
60
60
60
60
60
60
60
ENDCHAR
STARTCHAR 00F0
ENCODING 240
SWIDTH 589 0
DWIDTH 9 0
BBX 7 12 1 1
BITMAP
3C
0C
14
02
7E
C6
82
82
82
82
C6
7C
ENDCHAR
STARTCHAR 00F1
ENCODING 241
SWIDTH 589 0
DWIDTH 9 0
BBX 7 12 1 0
BITMAP
74
4C
00
BC
E6
C2
82
82
82
82
82
82
ENDCHAR
STARTCHAR 00F2
ENCODING 242
SWIDTH 589 0
DWIDTH 9 0
BBX 8 13 1 0
BITMAP
20
20
10
00
3C
E6
82
82
83
82
82
C6
3C
ENDCHAR
STARTCHAR 00F3
ENCODING 243
SWIDTH 589 0
DWIDTH 9 0
BBX 8 13 1 0
BITMAP
08
08
10
00
3C
E6
82
82
83
82
82
C6
3C
ENDCHAR
STARTCHAR 00F4
ENCODING 244
SWIDTH 589 0
DWIDTH 9 0
BBX 8 12 1 0
BITMAP
38
2C
00
3C
E6
82
82
83
82
82
C6
3C
ENDCHAR
STARTCHAR 00F5
ENCODING 245
SWIDTH 589 0
DWIDTH 9 0
BBX 8 12 1 0
BITMAP
74
5C
00
3C
E6
82
82
83
82
82
C6
3C
ENDCHAR
STARTCHAR 00F6
ENCODING 246
SWIDTH 589 0
DWIDTH 9 0
BBX 8 11 1 0
BITMAP
6C
00
3C
E6
82
82
83
82
82
C6
3C
ENDCHAR
STARTCHAR 00F7
ENCODING 247
SWIDTH 523 0
DWIDTH 8 0
BBX 6 6 1 3
BITMAP
30
00
00
FC
00
30
ENDCHAR
STARTCHAR 00F8
ENCODING 248
SWIDTH 589 0
DWIDTH 9 0
BBX 8 9 1 0
BITMAP
3E
E6
86
8A
93
A2
C2
E6
FC
ENDCHAR
STARTCHAR 00F9
ENCODING 249
SWIDTH 589 0
DWIDTH 9 0
BBX 7 13 1 0
BITMAP
20
10
10
00
82
82
82
82
82
82
C6
66
7A
ENDCHAR
STARTCHAR 00FA
ENCODING 250
SWIDTH 589 0
DWIDTH 9 0
BBX 7 13 1 0
BITMAP
08
18
10
00
82
82
82
82
82
82
C6
66
7A
ENDCHAR
STARTCHAR 00FB
ENCODING 251
SWIDTH 589 0
DWIDTH 9 0
BBX 7 12 1 0
BITMAP
38
6C
00
82
82
82
82
82
82
C6
66
7A
ENDCHAR
STARTCHAR 00FC
ENCODING 252
SWIDTH 589 0
DWIDTH 9 0
BBX 7 11 1 0
BITMAP
6C
00
82
82
82
82
82
82
C6
66
7A
ENDCHAR
STARTCHAR 00FD
ENCODING 253
SWIDTH 523 0
DWIDTH 8 0
BBX 8 16 0 -3
BITMAP
0C
08
08
00
C3
42
62
26
24
34
1C
18
18
10
10
30
ENDCHAR
STARTCHAR 00FE
ENCODING 254
SWIDTH 589 0
DWIDTH 9 0
BBX 8 14 1 -3
BITMAP
80
80
BC
E6
C2
82
83
82
C2
E6
BC
80
80
80
ENDCHAR
STARTCHAR 00FF
ENCODING 255
SWIDTH 523 0
DWIDTH 8 0
BBX 8 14 0 -3
BITMAP
24
00
C3
42
62
26
24
34
1C
18
18
10
10
30
ENDCHAR
ENDFONT
