STARTFONT 2.1
COMMENT
COMMENT Converted from OpenType font "manrope-medium.otf" by "otf2bdf 3.0".
COMMENT
FONT -FreeType-Manrope Medium-Medium-R-Normal--12-90-100-100-P-60-ISO10646-1
SIZE 9 100 100
FONTBOUNDINGBOX 12 16 0 -3
STARTPROPERTIES 19
FOUNDRY "FreeType"
FAMILY_NAME "Manrope Medium"
WEIGHT_NAME "Medium"
SLANT "R"
SETWIDTH_NAME "Normal"
ADD_STYLE_NAME ""
PIXEL_SIZE 12
POINT_SIZE 90
RESOLUTION_X 100
RESOLUTION_Y 100
SPACING "P"
AVERAGE_WIDTH 60
CHARSET_REGISTRY "ISO10646"
CHARSET_ENCODING "1"
FONT_ASCENT 13
FONT_DESCENT 3
COPYRIGHT "Copyright 2019-2021 The Manrope Project Authors (https://github.com/sharanda/manrope)"
_OTF_FONTFILE "manrope-medium.otf"
_OTF_PSNAME "Manrope-Medium"
ENDPROPERTIES
CHARS 191
STARTCHAR 0020
ENCODING 32
SWIDTH 240 0
DWIDTH 3 0
BBX 0 0 0 0
BITMAP
ENDCHAR
STARTCHAR 0021
ENCODING 33
SWIDTH 320 0
DWIDTH 4 0
BBX 2 9 1 0
BITMAP
C0
C0
C0
C0
C0
C0
C0
00
C0
ENDCHAR
STARTCHAR 0022
ENCODING 34
SWIDTH 400 0
DWIDTH 5 0
BBX 3 2 1 7
BITMAP
A0
A0
ENDCHAR
STARTCHAR 0023
ENCODING 35
SWIDTH 960 0
DWIDTH 12 0
BBX 10 9 1 0
BITMAP
0900
1B00
7FC0
1200
1200
FF80
2400
2400
2400
ENDCHAR
STARTCHAR 0024
ENCODING 36
SWIDTH 640 0
DWIDTH 8 0
BBX 7 11 0 -1
BITMAP
10
3C
46
42
60
3C
06
C2
42
3C
10
ENDCHAR
STARTCHAR 0025
ENCODING 37
SWIDTH 880 0
DWIDTH 11 0
BBX 9 9 1 0
BITMAP
6080
9100
9200
6400
0800
1380
2480
4480
8380
ENDCHAR
STARTCHAR 0026
ENCODING 38
SWIDTH 640 0
DWIDTH 8 0
BBX 7 9 1 0
BITMAP
78
C8
80
C0
E0
94
8C
8C
7A
ENDCHAR
STARTCHAR 0027
ENCODING 39
SWIDTH 240 0
DWIDTH 3 0
BBX 1 2 1 7
BITMAP
80
80
ENDCHAR
STARTCHAR 0028
ENCODING 40
SWIDTH 400 0
DWIDTH 5 0
BBX 3 13 2 -2
BITMAP
20
40
40
80
80
80
80
80
80
80
40
40
20
ENDCHAR
STARTCHAR 0029
ENCODING 41
SWIDTH 400 0
DWIDTH 5 0
BBX 3 13 1 -2
BITMAP
80
80
40
40
40
20
20
20
60
40
40
80
80
ENDCHAR
STARTCHAR 002A
ENCODING 42
SWIDTH 480 0
DWIDTH 6 0
BBX 4 4 1 5
BITMAP
40
F0
40
A0
ENDCHAR
STARTCHAR 002B
ENCODING 43
SWIDTH 560 0
DWIDTH 7 0
BBX 5 5 1 2
BITMAP
20
20
F8
20
20
ENDCHAR
STARTCHAR 002C
ENCODING 44
SWIDTH 240 0
DWIDTH 3 0
BBX 1 2 1 -2
BITMAP
80
80
ENDCHAR
STARTCHAR 002D
ENCODING 45
SWIDTH 400 0
DWIDTH 5 0
BBX 4 1 1 3
BITMAP
F0
ENDCHAR
STARTCHAR 002E
ENCODING 46
SWIDTH 240 0
DWIDTH 3 0
BBX 1 1 1 0
BITMAP
80
ENDCHAR
STARTCHAR 002F
ENCODING 47
SWIDTH 400 0
DWIDTH 5 0
BBX 3 9 1 0
BITMAP
20
20
60
40
40
40
C0
80
80
ENDCHAR
STARTCHAR 0030
ENCODING 48
SWIDTH 640 0
DWIDTH 8 0
BBX 6 9 1 0
BITMAP
78
CC
84
84
84
84
84
CC
78
ENDCHAR
STARTCHAR 0031
ENCODING 49
SWIDTH 400 0
DWIDTH 5 0
BBX 3 9 1 0
BITMAP
60
E0
60
60
60
60
60
60
60
ENDCHAR
STARTCHAR 0032
ENCODING 50
SWIDTH 560 0
DWIDTH 7 0
BBX 6 9 1 0
BITMAP
70
88
8C
0C
08
30
60
C0
FC
ENDCHAR
STARTCHAR 0033
ENCODING 51
SWIDTH 560 0
DWIDTH 7 0
BBX 5 9 1 0
BITMAP
F8
18
20
70
08
08
08
88
70
ENDCHAR
STARTCHAR 0034
ENCODING 52
SWIDTH 560 0
DWIDTH 7 0
BBX 6 9 1 0
BITMAP
30
20
60
40
C8
88
FC
08
08
ENDCHAR
STARTCHAR 0035
ENCODING 53
SWIDTH 560 0
DWIDTH 7 0
BBX 6 9 1 0
BITMAP
F8
80
80
F0
88
0C
0C
88
70
ENDCHAR
STARTCHAR 0036
ENCODING 54
SWIDTH 640 0
DWIDTH 8 0
BBX 6 9 1 0
BITMAP
78
C8
80
F8
CC
84
84
CC
78
ENDCHAR
STARTCHAR 0037
ENCODING 55
SWIDTH 480 0
DWIDTH 6 0
BBX 6 9 0 0
BITMAP
FC
0C
08
08
10
10
30
20
20
ENDCHAR
STARTCHAR 0038
ENCODING 56
SWIDTH 560 0
DWIDTH 7 0
BBX 6 9 1 0
BITMAP
70
C8
88
88
78
88
8C
88
78
ENDCHAR
STARTCHAR 0039
ENCODING 57
SWIDTH 640 0
DWIDTH 8 0
BBX 6 9 1 0
BITMAP
78
C8
84
84
CC
74
04
0C
78
ENDCHAR
STARTCHAR 003A
ENCODING 58
SWIDTH 320 0
DWIDTH 4 0
BBX 2 5 1 1
BITMAP
C0
00
00
00
C0
ENDCHAR
STARTCHAR 003B
ENCODING 59
SWIDTH 320 0
DWIDTH 4 0
BBX 2 9 1 -2
BITMAP
C0
00
00
00
00
00
C0
40
80
ENDCHAR
STARTCHAR 003C
ENCODING 60
SWIDTH 640 0
DWIDTH 8 0
BBX 3 6 2 1
BITMAP
20
60
C0
C0
60
20
ENDCHAR
STARTCHAR 003D
ENCODING 61
SWIDTH 720 0
DWIDTH 9 0
BBX 7 3 1 3
BITMAP
FE
00
FE
ENDCHAR
STARTCHAR 003E
ENCODING 62
SWIDTH 640 0
DWIDTH 8 0
BBX 3 5 3 1
BITMAP
80
C0
60
40
80
ENDCHAR
STARTCHAR 003F
ENCODING 63
SWIDTH 560 0
DWIDTH 7 0
BBX 5 9 1 0
BITMAP
70
88
08
08
30
20
20
00
20
ENDCHAR
STARTCHAR 0040
ENCODING 64
SWIDTH 880 0
DWIDTH 11 0
BBX 9 9 1 -1
BITMAP
1E00
6100
4080
9E80
9280
9280
9F80
4000
3E00
ENDCHAR
STARTCHAR 0041
ENCODING 65
SWIDTH 640 0
DWIDTH 8 0
BBX 8 9 0 0
BITMAP
18
18
3C
24
24
66
7E
42
C3
ENDCHAR
STARTCHAR 0042
ENCODING 66
SWIDTH 640 0
DWIDTH 8 0
BBX 6 9 1 0
BITMAP
F8
8C
84
8C
F8
84
84
84
F8
ENDCHAR
STARTCHAR 0043
ENCODING 67
SWIDTH 720 0
DWIDTH 9 0
BBX 8 9 0 0
BITMAP
3E
63
41
C0
C0
C0
41
63
3E
ENDCHAR
STARTCHAR 0044
ENCODING 68
SWIDTH 720 0
DWIDTH 9 0
BBX 7 9 1 0
BITMAP
F8
84
86
82
82
82
86
84
F8
ENDCHAR
STARTCHAR 0045
ENCODING 69
SWIDTH 560 0
DWIDTH 7 0
BBX 6 9 1 0
BITMAP
FC
80
80
80
F8
80
80
80
FC
ENDCHAR
STARTCHAR 0046
ENCODING 70
SWIDTH 480 0
DWIDTH 6 0
BBX 5 9 1 0
BITMAP
F8
80
80
80
F0
80
80
80
80
ENDCHAR
STARTCHAR 0047
ENCODING 71
SWIDTH 720 0
DWIDTH 9 0
BBX 9 9 0 0
BITMAP
3E00
6300
4100
C000
C780
C100
4100
6300
3E00
ENDCHAR
STARTCHAR 0048
ENCODING 72
SWIDTH 720 0
DWIDTH 9 0
BBX 7 9 1 0
BITMAP
82
82
82
82
FE
82
82
82
82
ENDCHAR
STARTCHAR 0049
ENCODING 73
SWIDTH 240 0
DWIDTH 3 0
BBX 1 9 1 0
BITMAP
80
80
80
80
80
80
80
80
80
ENDCHAR
STARTCHAR 004A
ENCODING 74
SWIDTH 480 0
DWIDTH 6 0
BBX 5 9 0 0
BITMAP
08
08
08
08
08
08
08
88
70
ENDCHAR
STARTCHAR 004B
ENCODING 75
SWIDTH 640 0
DWIDTH 8 0
BBX 6 9 1 0
BITMAP
8C
88
90
A0
C0
A0
90
88
84
ENDCHAR
STARTCHAR 004C
ENCODING 76
SWIDTH 480 0
DWIDTH 6 0
BBX 5 9 1 0
BITMAP
80
80
80
80
80
80
80
80
F8
ENDCHAR
STARTCHAR 004D
ENCODING 77
SWIDTH 880 0
DWIDTH 11 0
BBX 9 9 1 0
BITMAP
8180
C180
C380
E280
A280
A480
9480
9880
8880
ENDCHAR
STARTCHAR 004E
ENCODING 78
SWIDTH 720 0
DWIDTH 9 0
BBX 7 9 1 0
BITMAP
82
C2
E2
A2
92
9A
8A
86
86
ENDCHAR
STARTCHAR 004F
ENCODING 79
SWIDTH 720 0
DWIDTH 9 0
BBX 9 9 0 0
BITMAP
3E00
6300
4100
C080
C080
C080
4100
6300
3E00
ENDCHAR
STARTCHAR 0050
ENCODING 80
SWIDTH 640 0
DWIDTH 8 0
BBX 6 9 1 0
BITMAP
F8
84
84
84
84
F8
80
80
80
ENDCHAR
STARTCHAR 0051
ENCODING 81
SWIDTH 720 0
DWIDTH 9 0
BBX 9 9 0 0
BITMAP
3E00
6300
4100
C080
C080
C080
4300
6300
3F00
ENDCHAR
STARTCHAR 0052
ENCODING 82
SWIDTH 640 0
DWIDTH 8 0
BBX 6 9 1 0
BITMAP
F8
84
84
84
84
F8
88
8C
84
ENDCHAR
STARTCHAR 0053
ENCODING 83
SWIDTH 640 0
DWIDTH 8 0
BBX 7 9 0 0
BITMAP
3C
46
42
60
1C
02
C2
42
3C
ENDCHAR
STARTCHAR 0054
ENCODING 84
SWIDTH 640 0
DWIDTH 8 0
BBX 7 9 0 0
BITMAP
FE
10
10
10
10
10
10
10
10
ENDCHAR
STARTCHAR 0055
ENCODING 85
SWIDTH 720 0
DWIDTH 9 0
BBX 7 9 1 0
BITMAP
82
82
82
82
82
82
82
C4
78
ENDCHAR
STARTCHAR 0056
ENCODING 86
SWIDTH 640 0
DWIDTH 8 0
BBX 7 9 0 0
BITMAP
82
42
42
44
24
24
28
18
18
ENDCHAR
STARTCHAR 0057
ENCODING 87
SWIDTH 960 0
DWIDTH 12 0
BBX 12 9 0 0
BITMAP
8630
4620
4620
4A20
6940
2940
2940
3080
1080
ENDCHAR
STARTCHAR 0058
ENCODING 88
SWIDTH 640 0
DWIDTH 8 0
BBX 7 9 0 0
BITMAP
42
66
24
18
18
18
24
46
C2
ENDCHAR
STARTCHAR 0059
ENCODING 89
SWIDTH 560 0
DWIDTH 7 0
BBX 7 9 0 0
BITMAP
C2
44
6C
28
18
10
10
10
10
ENDCHAR
STARTCHAR 005A
ENCODING 90
SWIDTH 640 0
DWIDTH 8 0
BBX 6 9 1 0
BITMAP
FC
08
18
10
30
20
40
C0
FC
ENDCHAR
STARTCHAR 005B
ENCODING 91
SWIDTH 400 0
DWIDTH 5 0
BBX 2 14 2 -3
BITMAP
C0
80
80
80
80
80
80
80
80
80
80
80
80
C0
ENDCHAR
STARTCHAR 005C
ENCODING 92
SWIDTH 400 0
DWIDTH 5 0
BBX 3 9 1 0
BITMAP
80
80
C0
40
40
40
60
20
20
ENDCHAR
STARTCHAR 005D
ENCODING 93
SWIDTH 400 0
DWIDTH 5 0
BBX 2 14 1 -3
BITMAP
C0
40
40
40
40
40
40
40
40
40
40
40
40
C0
ENDCHAR
STARTCHAR 005E
ENCODING 94
SWIDTH 640 0
DWIDTH 8 0
BBX 5 4 2 5
BITMAP
20
70
98
08
ENDCHAR
STARTCHAR 005F
ENCODING 95
SWIDTH 640 0
DWIDTH 8 0
BBX 8 1 0 -1
BITMAP
FF
ENDCHAR
STARTCHAR 0060
ENCODING 96
SWIDTH 480 0
DWIDTH 6 0
BBX 2 2 2 10
BITMAP
80
40
ENDCHAR
STARTCHAR 0061
ENCODING 97
SWIDTH 560 0
DWIDTH 7 0
BBX 5 7 1 0
BITMAP
70
88
08
78
88
88
F8
ENDCHAR
STARTCHAR 0062
ENCODING 98
SWIDTH 640 0
DWIDTH 8 0
BBX 6 9 1 0
BITMAP
80
80
F8
CC
84
84
84
CC
F8
ENDCHAR
STARTCHAR 0063
ENCODING 99
SWIDTH 560 0
DWIDTH 7 0
BBX 5 7 1 0
BITMAP
78
88
80
80
80
88
78
ENDCHAR
STARTCHAR 0064
ENCODING 100
SWIDTH 640 0
DWIDTH 8 0
BBX 7 9 0 0
BITMAP
02
02
3A
46
42
C2
42
46
3A
ENDCHAR
STARTCHAR 0065
ENCODING 101
SWIDTH 560 0
DWIDTH 7 0
BBX 6 7 1 0
BITMAP
78
88
84
FC
80
8C
78
ENDCHAR
STARTCHAR 0066
ENCODING 102
SWIDTH 400 0
DWIDTH 5 0
BBX 4 9 0 0
BITMAP
30
20
F0
20
20
20
20
20
20
ENDCHAR
STARTCHAR 0067
ENCODING 103
SWIDTH 640 0
DWIDTH 8 0
BBX 7 10 0 -3
BITMAP
3A
46
42
C2
42
46
3E
06
44
3C
ENDCHAR
STARTCHAR 0068
ENCODING 104
SWIDTH 640 0
DWIDTH 8 0
BBX 6 9 1 0
BITMAP
80
80
F8
C8
84
84
84
84
84
ENDCHAR
STARTCHAR 0069
ENCODING 105
SWIDTH 240 0
DWIDTH 3 0
BBX 1 9 1 0
BITMAP
80
00
80
80
80
80
80
80
80
ENDCHAR
STARTCHAR 006A
ENCODING 106
SWIDTH 240 0
DWIDTH 3 0
BBX 2 12 0 -3
BITMAP
40
00
40
40
40
40
40
40
40
40
40
C0
ENDCHAR
STARTCHAR 006B
ENCODING 107
SWIDTH 480 0
DWIDTH 6 0
BBX 5 9 1 0
BITMAP
80
80
98
90
A0
C0
A0
90
88
ENDCHAR
STARTCHAR 006C
ENCODING 108
SWIDTH 240 0
DWIDTH 3 0
BBX 1 9 1 0
BITMAP
80
80
80
80
80
80
80
80
80
ENDCHAR
STARTCHAR 006D
ENCODING 109
SWIDTH 880 0
DWIDTH 11 0
BBX 9 7 1 0
BITMAP
F700
8880
8880
8880
8880
8880
8880
ENDCHAR
STARTCHAR 006E
ENCODING 110
SWIDTH 640 0
DWIDTH 8 0
BBX 6 7 1 0
BITMAP
F8
C8
84
84
84
84
84
ENDCHAR
STARTCHAR 006F
ENCODING 111
SWIDTH 640 0
DWIDTH 8 0
BBX 7 7 0 0
BITMAP
3C
46
42
C2
42
46
3C
ENDCHAR
STARTCHAR 0070
ENCODING 112
SWIDTH 640 0
DWIDTH 8 0
BBX 6 10 1 -3
BITMAP
F8
CC
84
84
84
CC
F8
80
80
80
ENDCHAR
STARTCHAR 0071
ENCODING 113
SWIDTH 640 0
DWIDTH 8 0
BBX 7 10 0 -3
BITMAP
3A
46
42
C2
42
46
3A
02
02
02
ENDCHAR
STARTCHAR 0072
ENCODING 114
SWIDTH 400 0
DWIDTH 5 0
BBX 3 7 1 0
BITMAP
E0
C0
80
80
80
80
80
ENDCHAR
STARTCHAR 0073
ENCODING 115
SWIDTH 560 0
DWIDTH 7 0
BBX 5 7 1 0
BITMAP
F0
88
80
70
08
88
F0
ENDCHAR
STARTCHAR 0074
ENCODING 116
SWIDTH 400 0
DWIDTH 5 0
BBX 5 9 0 0
BITMAP
60
60
F8
60
60
60
60
20
38
ENDCHAR
STARTCHAR 0075
ENCODING 117
SWIDTH 640 0
DWIDTH 8 0
BBX 6 7 1 0
BITMAP
84
84
84
84
8C
CC
74
ENDCHAR
STARTCHAR 0076
ENCODING 118
SWIDTH 560 0
DWIDTH 7 0
BBX 6 7 0 0
BITMAP
C4
44
48
68
28
30
10
ENDCHAR
STARTCHAR 0077
ENCODING 119
SWIDTH 800 0
DWIDTH 10 0
BBX 9 7 0 0
BITMAP
8C80
4C80
4C80
5500
3300
3300
2300
ENDCHAR
STARTCHAR 0078
ENCODING 120
SWIDTH 560 0
DWIDTH 7 0
BBX 6 7 0 0
BITMAP
44
68
38
10
38
68
C4
ENDCHAR
STARTCHAR 0079
ENCODING 121
SWIDTH 560 0
DWIDTH 7 0
BBX 6 10 0 -3
BITMAP
C4
44
44
28
28
30
10
10
20
20
ENDCHAR
STARTCHAR 007A
ENCODING 122
SWIDTH 560 0
DWIDTH 7 0
BBX 6 7 0 0
BITMAP
7C
08
18
10
20
40
FC
ENDCHAR
STARTCHAR 007B
ENCODING 123
SWIDTH 400 0
DWIDTH 5 0
BBX 3 14 2 -3
BITMAP
60
C0
C0
C0
C0
C0
80
80
C0
C0
C0
C0
C0
60
ENDCHAR
STARTCHAR 007C
ENCODING 124
SWIDTH 240 0
DWIDTH 3 0
BBX 1 9 1 0
BITMAP
80
80
80
80
80
80
80
80
80
ENDCHAR
STARTCHAR 007D
ENCODING 125
SWIDTH 400 0
DWIDTH 5 0
BBX 2 14 1 -3
BITMAP
C0
40
40
40
40
40
40
40
40
40
40
40
40
C0
ENDCHAR
STARTCHAR 007E
ENCODING 126
SWIDTH 720 0
DWIDTH 9 0
BBX 6 2 1 3
BITMAP
64
DC
ENDCHAR
STARTCHAR 00A0
ENCODING 160
SWIDTH 240 0
DWIDTH 3 0
BBX 0 0 0 0
BITMAP
ENDCHAR
STARTCHAR 00A1
ENCODING 161
SWIDTH 320 0
DWIDTH 4 0
BBX 2 9 1 -2
BITMAP
C0
00
C0
C0
C0
C0
C0
C0
C0
ENDCHAR
STARTCHAR 00A2
ENCODING 162
SWIDTH 560 0
DWIDTH 7 0
BBX 6 9 1 0
BITMAP
20
70
C8
80
80
80
8C
78
20
ENDCHAR
STARTCHAR 00A3
ENCODING 163
SWIDTH 560 0
DWIDTH 7 0
BBX 6 9 0 0
BITMAP
1C
24
20
20
F8
20
20
20
FC
ENDCHAR
STARTCHAR 00A4
ENCODING 164
SWIDTH 640 0
DWIDTH 8 0
BBX 8 7 0 1
BITMAP
FF
66
42
42
42
66
7F
ENDCHAR
STARTCHAR 00A5
ENCODING 165
SWIDTH 560 0
DWIDTH 7 0
BBX 7 9 0 0
BITMAP
C2
44
6C
28
18
7C
10
7C
10
ENDCHAR
STARTCHAR 00A6
ENCODING 166
SWIDTH 240 0
DWIDTH 3 0
BBX 1 11 1 -2
BITMAP
80
80
80
80
80
00
80
80
80
80
80
ENDCHAR
STARTCHAR 00A7
ENCODING 167
SWIDTH 560 0
DWIDTH 7 0
BBX 5 10 1 -2
BITMAP
70
98
80
70
88
88
70
08
88
70
ENDCHAR
STARTCHAR 00A8
ENCODING 168
SWIDTH 560 0
DWIDTH 7 0
BBX 4 1 1 10
BITMAP
D0
ENDCHAR
STARTCHAR 00A9
ENCODING 169
SWIDTH 800 0
DWIDTH 10 0
BBX 10 9 0 0
BITMAP
1E00
2180
4E80
5240
9040
D240
4EC0
2180
1F00
ENDCHAR
STARTCHAR 00AA
ENCODING 170
SWIDTH 320 0
DWIDTH 4 0
BBX 3 4 0 3
BITMAP
60
60
A0
40
ENDCHAR
STARTCHAR 00AB
ENCODING 171
SWIDTH 560 0
DWIDTH 7 0
BBX 5 5 1 1
BITMAP
28
50
B0
50
48
ENDCHAR
STARTCHAR 00AC
ENCODING 172
SWIDTH 640 0
DWIDTH 8 0
BBX 6 3 1 2
BITMAP
FC
04
04
ENDCHAR
STARTCHAR 00AD
ENCODING 173
SWIDTH 400 0
DWIDTH 5 0
BBX 4 1 1 3
BITMAP
F0
ENDCHAR
STARTCHAR 00AE
ENCODING 174
SWIDTH 640 0
DWIDTH 8 0
BBX 6 7 1 3
BITMAP
30
48
F4
D4
F4
C8
30
ENDCHAR
STARTCHAR 00AF
ENCODING 175
SWIDTH 480 0
DWIDTH 6 0
BBX 4 1 1 10
BITMAP
F0
ENDCHAR
STARTCHAR 00B0
ENCODING 176
SWIDTH 480 0
DWIDTH 6 0
BBX 5 4 0 5
BITMAP
70
C8
C8
70
ENDCHAR
STARTCHAR 00B1
ENCODING 177
SWIDTH 640 0
DWIDTH 8 0
BBX 6 6 1 1
BITMAP
20
20
FC
20
00
FC
ENDCHAR
STARTCHAR 00B2
ENCODING 178
SWIDTH 400 0
DWIDTH 5 0
BBX 3 6 1 3
BITMAP
E0
A0
20
60
80
E0
ENDCHAR
STARTCHAR 00B3
ENCODING 179
SWIDTH 400 0
DWIDTH 5 0
BBX 3 6 1 3
BITMAP
E0
40
60
20
20
C0
ENDCHAR
STARTCHAR 00B4
ENCODING 180
SWIDTH 480 0
DWIDTH 6 0
BBX 1 2 3 10
BITMAP
80
80
ENDCHAR
STARTCHAR 00B5
ENCODING 181
SWIDTH 640 0
DWIDTH 8 0
BBX 6 10 1 -3
BITMAP
84
84
84
84
84
CC
F4
80
80
80
ENDCHAR
STARTCHAR 00B6
ENCODING 182
SWIDTH 640 0
DWIDTH 8 0
BBX 6 11 1 -2
BITMAP
74
F4
F4
F4
F4
74
14
14
14
14
14
ENDCHAR
STARTCHAR 00B7
ENCODING 183
SWIDTH 240 0
DWIDTH 3 0
BBX 1 1 1 4
BITMAP
80
ENDCHAR
STARTCHAR 00B8
ENCODING 184
SWIDTH 400 0
DWIDTH 5 0
BBX 2 3 2 -3
BITMAP
80
40
80
ENDCHAR
STARTCHAR 00B9
ENCODING 185
SWIDTH 320 0
DWIDTH 4 0
BBX 2 6 1 3
BITMAP
C0
40
40
40
40
40
ENDCHAR
STARTCHAR 00BA
ENCODING 186
SWIDTH 320 0
DWIDTH 4 0
BBX 4 4 0 3
BITMAP
60
90
90
60
ENDCHAR
STARTCHAR 00BB
ENCODING 187
SWIDTH 560 0
DWIDTH 7 0
BBX 5 5 1 1
BITMAP
A0
50
48
50
B0
ENDCHAR
STARTCHAR 00BC
ENCODING 188
SWIDTH 960 0
DWIDTH 12 0
BBX 10 9 1 0
BITMAP
C100
4200
4200
4480
4900
5100
3280
23C0
4080
ENDCHAR
STARTCHAR 00BD
ENCODING 189
SWIDTH 960 0
DWIDTH 12 0
BBX 10 9 1 0
BITMAP
C100
4200
4200
4480
4940
5040
3040
2180
41C0
ENDCHAR
STARTCHAR 00BE
ENCODING 190
SWIDTH 960 0
DWIDTH 12 0
BBX 11 9 1 0
BITMAP
E080
4100
6200
2200
2480
C980
1140
11E0
2040
ENDCHAR
STARTCHAR 00BF
ENCODING 191
SWIDTH 560 0
DWIDTH 7 0
BBX 5 9 1 -2
BITMAP
20
00
20
20
40
80
80
88
F0
ENDCHAR
STARTCHAR 00C0
ENCODING 192
SWIDTH 640 0
DWIDTH 8 0
BBX 8 12 0 0
BITMAP
10
10
00
18
18
3C
24
24
66
7E
42
C3
ENDCHAR
STARTCHAR 00C1
ENCODING 193
SWIDTH 640 0
DWIDTH 8 0
BBX 8 12 0 0
BITMAP
08
08
00
18
18
3C
24
24
66
7E
42
C3
ENDCHAR
STARTCHAR 00C2
ENCODING 194
SWIDTH 640 0
DWIDTH 8 0
BBX 8 12 0 0
BITMAP
18
34
00
18
18
3C
24
24
66
7E
42
C3
ENDCHAR
STARTCHAR 00C3
ENCODING 195
SWIDTH 640 0
DWIDTH 8 0
BBX 8 12 0 0
BITMAP
34
2C
00
18
18
3C
24
24
66
7E
42
C3
ENDCHAR
STARTCHAR 00C4
ENCODING 196
SWIDTH 640 0
DWIDTH 8 0
BBX 8 11 0 0
BITMAP
24
00
18
18
3C
24
24
66
7E
42
C3
ENDCHAR
STARTCHAR 00C5
ENCODING 197
SWIDTH 640 0
DWIDTH 8 0
BBX 8 13 0 0
BITMAP
18
28
18
00
18
18
3C
24
24
66
7E
42
C3
ENDCHAR
STARTCHAR 00C6
ENCODING 198
SWIDTH 960 0
DWIDTH 12 0
BBX 11 9 0 0
BITMAP
1FE0
1400
3400
2400
27C0
6400
7C00
4400
C7E0
ENDCHAR
STARTCHAR 00C7
ENCODING 199
SWIDTH 720 0
DWIDTH 9 0
BBX 8 12 0 -3
BITMAP
3E
63
41
C0
C0
C0
41
63
3E
08
04
08
ENDCHAR
STARTCHAR 00C8
ENCODING 200
SWIDTH 560 0
DWIDTH 7 0
BBX 6 12 1 0
BITMAP
20
20
00
FC
80
80
80
F8
80
80
80
FC
ENDCHAR
STARTCHAR 00C9
ENCODING 201
SWIDTH 560 0
DWIDTH 7 0
BBX 6 12 1 0
BITMAP
10
10
00
FC
80
80
80
F8
80
80
80
FC
ENDCHAR
STARTCHAR 00CA
ENCODING 202
SWIDTH 560 0
DWIDTH 7 0
BBX 6 12 1 0
BITMAP
20
50
00
FC
80
80
80
F8
80
80
80
FC
ENDCHAR
STARTCHAR 00CB
ENCODING 203
SWIDTH 560 0
DWIDTH 7 0
BBX 6 11 1 0
BITMAP
50
00
FC
80
80
80
F8
80
80
80
FC
ENDCHAR
STARTCHAR 00CC
ENCODING 204
SWIDTH 240 0
DWIDTH 3 0
BBX 2 12 0 0
BITMAP
80
40
00
40
40
40
40
40
40
40
40
40
ENDCHAR
STARTCHAR 00CD
ENCODING 205
SWIDTH 240 0
DWIDTH 3 0
BBX 2 12 1 0
BITMAP
40
80
00
80
80
80
80
80
80
80
80
80
ENDCHAR
STARTCHAR 00CE
ENCODING 206
SWIDTH 240 0
DWIDTH 3 0
BBX 3 12 0 0
BITMAP
40
A0
00
40
40
40
40
40
40
40
40
40
ENDCHAR
STARTCHAR 00CF
ENCODING 207
SWIDTH 240 0
DWIDTH 3 0
BBX 3 11 0 0
BITMAP
A0
00
40
40
40
40
40
40
40
40
40
ENDCHAR
STARTCHAR 00D0
ENCODING 208
SWIDTH 640 0
DWIDTH 8 0
BBX 8 9 0 0
BITMAP
7C
42
43
41
F1
41
43
42
7C
ENDCHAR
STARTCHAR 00D1
ENCODING 209
SWIDTH 720 0
DWIDTH 9 0
BBX 7 12 1 0
BITMAP
20
18
00
82
C2
E2
A2
92
9A
8A
86
86
ENDCHAR
STARTCHAR 00D2
ENCODING 210
SWIDTH 720 0
DWIDTH 9 0
BBX 9 12 0 0
BITMAP
1000
0800
0000
3E00
6300
4100
C080
C080
C080
4100
6300
3E00
ENDCHAR
STARTCHAR 00D3
ENCODING 211
SWIDTH 720 0
DWIDTH 9 0
BBX 9 12 0 0
BITMAP
0400
0800
0000
3E00
6300
4100
C080
C080
C080
4100
6300
3E00
ENDCHAR
STARTCHAR 00D4
ENCODING 212
SWIDTH 720 0
DWIDTH 9 0
BBX 9 12 0 0
BITMAP
0800
1400
0000
3E00
6300
4100
C080
C080
C080
4100
6300
3E00
ENDCHAR
STARTCHAR 00D5
ENCODING 213
SWIDTH 720 0
DWIDTH 9 0
BBX 9 12 0 0
BITMAP
1A00
0E00
0000
3E00
6300
4100
C080
C080
C080
4100
6300
3E00
ENDCHAR
STARTCHAR 00D6
ENCODING 214
SWIDTH 720 0
DWIDTH 9 0
BBX 9 11 0 0
BITMAP
1400
0000
3E00
6300
4100
C080
C080
C080
4100
6300
3E00
ENDCHAR
STARTCHAR 00D7
ENCODING 215
SWIDTH 480 0
DWIDTH 6 0
BBX 4 5 1 2
BITMAP
90
70
60
D0
80
ENDCHAR
STARTCHAR 00D8
ENCODING 216
SWIDTH 720 0
DWIDTH 9 0
BBX 9 9 0 0
BITMAP
3E80
6300
4300
C480
C880
D080
6100
6300
7E00
ENDCHAR
STARTCHAR 00D9
ENCODING 217
SWIDTH 720 0
DWIDTH 9 0
BBX 7 12 1 0
BITMAP
20
10
00
82
82
82
82
82
82
82
C4
78
ENDCHAR
STARTCHAR 00DA
ENCODING 218
SWIDTH 720 0
DWIDTH 9 0
BBX 7 12 1 0
BITMAP
10
10
00
82
82
82
82
82
82
82
C4
78
ENDCHAR
STARTCHAR 00DB
ENCODING 219
SWIDTH 720 0
DWIDTH 9 0
BBX 7 12 1 0
BITMAP
10
28
00
82
82
82
82
82
82
82
C4
78
ENDCHAR
STARTCHAR 00DC
ENCODING 220
SWIDTH 720 0
DWIDTH 9 0
BBX 7 11 1 0
BITMAP
28
00
82
82
82
82
82
82
82
C4
78
ENDCHAR
STARTCHAR 00DD
ENCODING 221
SWIDTH 560 0
DWIDTH 7 0
BBX 7 12 0 0
BITMAP
08
10
00
C2
44
6C
28
18
10
10
10
10
ENDCHAR
STARTCHAR 00DE
ENCODING 222
SWIDTH 640 0
DWIDTH 8 0
BBX 6 9 1 0
BITMAP
80
80
F8
84
84
84
F8
80
80
ENDCHAR
STARTCHAR 00DF
ENCODING 223
SWIDTH 640 0
DWIDTH 8 0
BBX 6 9 1 0
BITMAP
70
88
88
88
B8
8C
84
8C
B8
ENDCHAR
STARTCHAR 00E0
ENCODING 224
SWIDTH 560 0
DWIDTH 7 0
BBX 5 10 1 0
BITMAP
40
20
00
70
88
08
78
88
88
F8
ENDCHAR
STARTCHAR 00E1
ENCODING 225
SWIDTH 560 0
DWIDTH 7 0
BBX 5 10 1 0
BITMAP
10
20
00
70
88
08
78
88
88
F8
ENDCHAR
STARTCHAR 00E2
ENCODING 226
SWIDTH 560 0
DWIDTH 7 0
BBX 5 10 1 0
BITMAP
20
50
00
70
88
08
78
88
88
F8
ENDCHAR
STARTCHAR 00E3
ENCODING 227
SWIDTH 560 0
DWIDTH 7 0
BBX 5 10 1 0
BITMAP
68
38
00
70
88
08
78
88
88
F8
ENDCHAR
STARTCHAR 00E4
ENCODING 228
SWIDTH 560 0
DWIDTH 7 0
BBX 5 9 1 0
BITMAP
50
00
70
88
08
78
88
88
F8
ENDCHAR
STARTCHAR 00E5
ENCODING 229
SWIDTH 560 0
DWIDTH 7 0
BBX 5 11 1 0
BITMAP
20
50
70
00
70
88
08
78
88
88
F8
ENDCHAR
STARTCHAR 00E6
ENCODING 230
SWIDTH 960 0
DWIDTH 12 0
BBX 10 7 1 0
BITMAP
7380
8C40
0840
FFC0
8800
8C40
F380
ENDCHAR
STARTCHAR 00E7
ENCODING 231
SWIDTH 560 0
DWIDTH 7 0
BBX 5 10 1 -3
BITMAP
78
88
80
80
80
88
78
20
10
20
ENDCHAR
STARTCHAR 00E8
ENCODING 232
SWIDTH 560 0
DWIDTH 7 0
BBX 6 10 1 0
BITMAP
20
20
00
78
88
84
FC
80
8C
78
ENDCHAR
STARTCHAR 00E9
ENCODING 233
SWIDTH 560 0
DWIDTH 7 0
BBX 6 10 1 0
BITMAP
10
10
00
78
88
84
FC
80
8C
78
ENDCHAR
STARTCHAR 00EA
ENCODING 234
SWIDTH 560 0
DWIDTH 7 0
BBX 6 10 1 0
BITMAP
20
50
00
78
88
84
FC
80
8C
78
ENDCHAR
STARTCHAR 00EB
ENCODING 235
SWIDTH 560 0
DWIDTH 7 0
BBX 6 9 1 0
BITMAP
58
00
78
88
84
FC
80
8C
78
ENDCHAR
STARTCHAR 00EC
ENCODING 236
SWIDTH 240 0
DWIDTH 3 0
BBX 2 10 0 0
BITMAP
80
40
00
40
40
40
40
40
40
40
ENDCHAR
STARTCHAR 00ED
ENCODING 237
SWIDTH 240 0
DWIDTH 3 0
BBX 2 10 1 0
BITMAP
40
80
00
80
80
80
80
80
80
80
ENDCHAR
STARTCHAR 00EE
ENCODING 238
SWIDTH 240 0
DWIDTH 3 0
BBX 3 10 0 0
BITMAP
40
A0
00
40
40
40
40
40
40
40
ENDCHAR
STARTCHAR 00EF
ENCODING 239
SWIDTH 240 0
DWIDTH 3 0
BBX 3 9 0 0
BITMAP
A0
00
40
40
40
40
40
40
40
ENDCHAR
STARTCHAR 00F0
ENCODING 240
SWIDTH 560 0
DWIDTH 7 0
BBX 7 10 0 0
BITMAP
1C
0C
04
3A
46
42
C2
42
44
38
ENDCHAR
STARTCHAR 00F1
ENCODING 241
SWIDTH 640 0
DWIDTH 8 0
BBX 6 10 1 0
BITMAP
68
58
00
F8
C8
84
84
84
84
84
ENDCHAR
STARTCHAR 00F2
ENCODING 242
SWIDTH 640 0
DWIDTH 8 0
BBX 7 9 0 1
BITMAP
10
00
3C
46
42
C2
42
46
3C
ENDCHAR
STARTCHAR 00F3
ENCODING 243
SWIDTH 640 0
DWIDTH 8 0
BBX 7 10 0 0
BITMAP
08
10
00
3C
46
42
C2
42
46
3C
ENDCHAR
STARTCHAR 00F4
ENCODING 244
SWIDTH 640 0
DWIDTH 8 0
BBX 7 10 0 0
BITMAP
10
28
00
3C
46
42
C2
42
46
3C
ENDCHAR
STARTCHAR 00F5
ENCODING 245
SWIDTH 640 0
DWIDTH 8 0
BBX 7 10 0 0
BITMAP
34
2C
00
3C
46
42
C2
42
46
3C
ENDCHAR
STARTCHAR 00F6
ENCODING 246
SWIDTH 640 0
DWIDTH 8 0
BBX 7 9 0 0
BITMAP
2C
00
3C
46
42
C2
42
46
3C
ENDCHAR
STARTCHAR 00F7
ENCODING 247
SWIDTH 560 0
DWIDTH 7 0
BBX 5 5 1 2
BITMAP
20
00
F8
00
20
ENDCHAR
STARTCHAR 00F8
ENCODING 248
SWIDTH 640 0
DWIDTH 8 0
BBX 7 7 0 0
BITMAP
3E
46
4A
D2
62
46
7C
ENDCHAR
STARTCHAR 00F9
ENCODING 249
SWIDTH 640 0
DWIDTH 8 0
BBX 6 10 1 0
BITMAP
20
20
00
84
84
84
84
8C
CC
74
ENDCHAR
STARTCHAR 00FA
ENCODING 250
SWIDTH 640 0
DWIDTH 8 0
BBX 6 10 1 0
BITMAP
10
20
00
84
84
84
84
8C
CC
74
ENDCHAR
STARTCHAR 00FB
ENCODING 251
SWIDTH 640 0
DWIDTH 8 0
BBX 6 10 1 0
BITMAP
20
50
00
84
84
84
84
8C
CC
74
ENDCHAR
STARTCHAR 00FC
ENCODING 252
SWIDTH 640 0
DWIDTH 8 0
BBX 6 9 1 0
BITMAP
58
00
84
84
84
84
8C
CC
74
ENDCHAR
STARTCHAR 00FD
ENCODING 253
SWIDTH 560 0
DWIDTH 7 0
BBX 6 13 0 -3
BITMAP
10
10
00
C4
44
44
28
28
30
10
10
20
20
ENDCHAR
STARTCHAR 00FE
ENCODING 254
SWIDTH 640 0
DWIDTH 8 0
BBX 6 12 1 -3
BITMAP
80
80
F8
CC
84
84
84
CC
F8
80
80
80
ENDCHAR
STARTCHAR 00FF
ENCODING 255
SWIDTH 560 0
DWIDTH 7 0
BBX 6 12 0 -3
BITMAP
28
00
C4
44
44
28
28
30
10
10
20
20
ENDCHAR
ENDFONT
