STARTFONT 2.1
COMMENT
COMMENT Converted from OpenType font "manrope-regular.otf" by "otf2bdf 3.0".
COMMENT
FONT -FreeType-Manrope-Medium-R-Normal--14-100-100-100-P-65-ISO10646-1
SIZE 10 100 100
FONTBOUNDINGBOX 13 17 0 -3
STARTPROPERTIES 19
FOUNDRY "FreeType"
FAMILY_NAME "Manrope"
WEIGHT_NAME "Medium"
SLANT "R"
SETWIDTH_NAME "Normal"
ADD_STYLE_NAME ""
PIXEL_SIZE 14
POINT_SIZE 100
RESOLUTION_X 100
RESOLUTION_Y 100
SPACING "P"
AVERAGE_WIDTH 65
CHARSET_REGISTRY "ISO10646"
CHARSET_ENCODING "1"
FONT_ASCENT 14
FONT_DESCENT 4
COPYRIGHT "Copyright 2019-2021 The Manrope Project Authors (https://github.com/sharanda/manrope)"
_OTF_FONTFILE "manrope-regular.otf"
_OTF_PSNAME "Manrope-Regular"
ENDPROPERTIES
CHARS 191
STARTCHAR 0020
ENCODING 32
SWIDTH 216 0
DWIDTH 3 0
BBX 0 0 0 0
BITMAP
ENDCHAR
STARTCHAR 0021
ENCODING 33
SWIDTH 288 0
DWIDTH 4 0
BBX 1 10 2 0
BITMAP
80
80
80
80
80
80
80
80
00
80
ENDCHAR
STARTCHAR 0022
ENCODING 34
SWIDTH 360 0
DWIDTH 5 0
BBX 3 3 1 7
BITMAP
A0
A0
A0
ENDCHAR
STARTCHAR 0023
ENCODING 35
SWIDTH 936 0
DWIDTH 13 0
BBX 11 10 1 0
BITMAP
0880
0900
0900
7FE0
1100
1200
FFC0
1200
2200
2400
ENDCHAR
STARTCHAR 0024
ENCODING 36
SWIDTH 576 0
DWIDTH 8 0
BBX 7 12 1 -1
BITMAP
10
78
84
82
80
70
0C
02
82
84
78
10
ENDCHAR
STARTCHAR 0025
ENCODING 37
SWIDTH 936 0
DWIDTH 13 0
BBX 11 10 1 0
BITMAP
7040
8880
8900
9A00
7400
0800
11C0
2220
4220
81C0
ENDCHAR
STARTCHAR 0026
ENCODING 38
SWIDTH 648 0
DWIDTH 9 0
BBX 8 10 1 0
BITMAP
78
C4
80
C0
60
F2
9A
86
86
79
ENDCHAR
STARTCHAR 0027
ENCODING 39
SWIDTH 216 0
DWIDTH 3 0
BBX 1 3 1 7
BITMAP
80
80
80
ENDCHAR
STARTCHAR 0028
ENCODING 40
SWIDTH 432 0
DWIDTH 6 0
BBX 3 14 2 -2
BITMAP
20
60
40
40
80
80
80
80
80
80
80
40
60
20
ENDCHAR
STARTCHAR 0029
ENCODING 41
SWIDTH 432 0
DWIDTH 6 0
BBX 3 14 1 -2
BITMAP
80
80
40
40
20
20
20
20
20
20
40
40
C0
80
ENDCHAR
STARTCHAR 002A
ENCODING 42
SWIDTH 432 0
DWIDTH 6 0
BBX 4 4 1 5
BITMAP
40
D0
60
E0
ENDCHAR
STARTCHAR 002B
ENCODING 43
SWIDTH 576 0
DWIDTH 8 0
BBX 6 5 1 2
BITMAP
20
20
FC
20
20
ENDCHAR
STARTCHAR 002C
ENCODING 44
SWIDTH 288 0
DWIDTH 4 0
BBX 1 2 1 -2
BITMAP
80
80
ENDCHAR
STARTCHAR 002D
ENCODING 45
SWIDTH 432 0
DWIDTH 6 0
BBX 4 1 1 4
BITMAP
F0
ENDCHAR
STARTCHAR 002E
ENCODING 46
SWIDTH 288 0
DWIDTH 4 0
BBX 1 1 1 0
BITMAP
80
ENDCHAR
STARTCHAR 002F
ENCODING 47
SWIDTH 360 0
DWIDTH 5 0
BBX 3 10 1 0
BITMAP
20
20
20
20
40
40
40
C0
80
80
ENDCHAR
STARTCHAR 0030
ENCODING 48
SWIDTH 576 0
DWIDTH 8 0
BBX 6 10 1 0
BITMAP
78
C4
84
84
84
84
84
84
C4
78
ENDCHAR
STARTCHAR 0031
ENCODING 49
SWIDTH 360 0
DWIDTH 5 0
BBX 3 10 1 0
BITMAP
60
A0
20
20
20
20
20
20
20
20
ENDCHAR
STARTCHAR 0032
ENCODING 50
SWIDTH 576 0
DWIDTH 8 0
BBX 6 10 1 0
BITMAP
78
CC
84
04
04
08
10
60
C0
FC
ENDCHAR
STARTCHAR 0033
ENCODING 51
SWIDTH 576 0
DWIDTH 8 0
BBX 6 10 1 0
BITMAP
FC
08
10
20
78
08
04
04
88
70
ENDCHAR
STARTCHAR 0034
ENCODING 52
SWIDTH 576 0
DWIDTH 8 0
BBX 6 10 1 0
BITMAP
10
20
20
60
48
C8
88
FC
08
08
ENDCHAR
STARTCHAR 0035
ENCODING 53
SWIDTH 576 0
DWIDTH 8 0
BBX 6 10 1 0
BITMAP
FC
80
80
F8
8C
04
04
84
CC
78
ENDCHAR
STARTCHAR 0036
ENCODING 54
SWIDTH 648 0
DWIDTH 9 0
BBX 7 10 1 0
BITMAP
38
44
80
80
B8
C4
82
82
C4
38
ENDCHAR
STARTCHAR 0037
ENCODING 55
SWIDTH 504 0
DWIDTH 7 0
BBX 5 10 1 0
BITMAP
F8
08
08
10
10
20
20
20
40
40
ENDCHAR
STARTCHAR 0038
ENCODING 56
SWIDTH 576 0
DWIDTH 8 0
BBX 6 10 1 0
BITMAP
78
CC
84
C4
78
84
84
84
84
78
ENDCHAR
STARTCHAR 0039
ENCODING 57
SWIDTH 648 0
DWIDTH 9 0
BBX 7 10 1 0
BITMAP
78
C4
82
82
C6
7A
02
04
C4
78
ENDCHAR
STARTCHAR 003A
ENCODING 58
SWIDTH 288 0
DWIDTH 4 0
BBX 1 5 2 1
BITMAP
80
00
00
00
80
ENDCHAR
STARTCHAR 003B
ENCODING 59
SWIDTH 288 0
DWIDTH 4 0
BBX 1 9 2 -2
BITMAP
80
00
00
00
00
00
00
80
80
ENDCHAR
STARTCHAR 003C
ENCODING 60
SWIDTH 648 0
DWIDTH 9 0
BBX 4 6 2 1
BITMAP
10
20
40
80
40
20
ENDCHAR
STARTCHAR 003D
ENCODING 61
SWIDTH 720 0
DWIDTH 10 0
BBX 7 4 2 3
BITMAP
FE
00
00
FE
ENDCHAR
STARTCHAR 003E
ENCODING 62
SWIDTH 648 0
DWIDTH 9 0
BBX 3 6 3 1
BITMAP
80
40
20
20
40
80
ENDCHAR
STARTCHAR 003F
ENCODING 63
SWIDTH 504 0
DWIDTH 7 0
BBX 6 10 1 0
BITMAP
70
88
8C
08
18
30
20
00
00
20
ENDCHAR
STARTCHAR 0040
ENCODING 64
SWIDTH 936 0
DWIDTH 13 0
BBX 10 11 1 -2
BITMAP
1F00
2080
4040
8C40
9240
9240
9240
8DC0
4000
2100
1E00
ENDCHAR
STARTCHAR 0041
ENCODING 65
SWIDTH 648 0
DWIDTH 9 0
BBX 8 10 0 0
BITMAP
08
1C
14
14
26
22
62
7F
41
C1
ENDCHAR
STARTCHAR 0042
ENCODING 66
SWIDTH 648 0
DWIDTH 9 0
BBX 7 10 1 0
BITMAP
FC
84
82
84
FC
86
82
82
86
FC
ENDCHAR
STARTCHAR 0043
ENCODING 67
SWIDTH 720 0
DWIDTH 10 0
BBX 9 10 0 0
BITMAP
1E00
2180
4080
4000
C000
8000
4000
4080
2180
1E00
ENDCHAR
STARTCHAR 0044
ENCODING 68
SWIDTH 648 0
DWIDTH 9 0
BBX 8 10 1 0
BITMAP
FC
86
82
83
81
81
83
82
86
FC
ENDCHAR
STARTCHAR 0045
ENCODING 69
SWIDTH 576 0
DWIDTH 8 0
BBX 6 10 1 0
BITMAP
FC
80
80
80
F8
80
80
80
80
FC
ENDCHAR
STARTCHAR 0046
ENCODING 70
SWIDTH 504 0
DWIDTH 7 0
BBX 6 10 1 0
BITMAP
FC
80
80
80
80
F8
80
80
80
80
ENDCHAR
STARTCHAR 0047
ENCODING 71
SWIDTH 720 0
DWIDTH 10 0
BBX 9 10 0 0
BITMAP
1E00
2100
4080
4000
C000
8380
4080
4080
6100
1E00
ENDCHAR
STARTCHAR 0048
ENCODING 72
SWIDTH 720 0
DWIDTH 10 0
BBX 8 10 1 0
BITMAP
81
81
81
81
FF
81
81
81
81
81
ENDCHAR
STARTCHAR 0049
ENCODING 73
SWIDTH 216 0
DWIDTH 3 0
BBX 1 10 1 0
BITMAP
80
80
80
80
80
80
80
80
80
80
ENDCHAR
STARTCHAR 004A
ENCODING 74
SWIDTH 432 0
DWIDTH 6 0
BBX 5 10 0 0
BITMAP
08
08
08
08
08
08
08
08
88
70
ENDCHAR
STARTCHAR 004B
ENCODING 75
SWIDTH 576 0
DWIDTH 8 0
BBX 7 10 1 0
BITMAP
84
88
90
A0
E0
E0
B0
98
8C
86
ENDCHAR
STARTCHAR 004C
ENCODING 76
SWIDTH 504 0
DWIDTH 7 0
BBX 6 10 1 0
BITMAP
80
80
80
80
80
80
80
80
80
FC
ENDCHAR
STARTCHAR 004D
ENCODING 77
SWIDTH 864 0
DWIDTH 12 0
BBX 10 10 1 0
BITMAP
8040
C0C0
C0C0
E140
A140
A240
9240
9440
8C40
8840
ENDCHAR
STARTCHAR 004E
ENCODING 78
SWIDTH 720 0
DWIDTH 10 0
BBX 8 10 1 0
BITMAP
83
C3
E3
A3
93
9B
8B
87
87
83
ENDCHAR
STARTCHAR 004F
ENCODING 79
SWIDTH 720 0
DWIDTH 10 0
BBX 10 10 0 0
BITMAP
1E00
2180
4080
4080
C040
8040
4080
4080
2180
1E00
ENDCHAR
STARTCHAR 0050
ENCODING 80
SWIDTH 576 0
DWIDTH 8 0
BBX 7 10 1 0
BITMAP
FC
86
82
82
86
FC
80
80
80
80
ENDCHAR
STARTCHAR 0051
ENCODING 81
SWIDTH 720 0
DWIDTH 10 0
BBX 10 10 0 0
BITMAP
1E00
2180
4080
4080
C040
8040
4080
4380
2180
1E80
ENDCHAR
STARTCHAR 0052
ENCODING 82
SWIDTH 648 0
DWIDTH 9 0
BBX 7 10 1 0
BITMAP
FC
86
82
82
86
FC
8C
84
84
82
ENDCHAR
STARTCHAR 0053
ENCODING 83
SWIDTH 648 0
DWIDTH 9 0
BBX 7 10 1 0
BITMAP
78
C4
82
80
70
0C
02
82
C6
7C
ENDCHAR
STARTCHAR 0054
ENCODING 84
SWIDTH 576 0
DWIDTH 8 0
BBX 8 10 0 0
BITMAP
FF
08
08
08
08
08
08
08
08
08
ENDCHAR
STARTCHAR 0055
ENCODING 85
SWIDTH 720 0
DWIDTH 10 0
BBX 8 10 1 0
BITMAP
81
81
81
81
81
81
81
83
42
3C
ENDCHAR
STARTCHAR 0056
ENCODING 86
SWIDTH 576 0
DWIDTH 8 0
BBX 8 10 0 0
BITMAP
81
41
42
42
22
24
24
14
18
18
ENDCHAR
STARTCHAR 0057
ENCODING 87
SWIDTH 936 0
DWIDTH 13 0
BBX 13 10 0 0
BITMAP
8208
4210
4510
4510
2520
28A0
28A0
28A0
18C0
1040
ENDCHAR
STARTCHAR 0058
ENCODING 88
SWIDTH 576 0
DWIDTH 8 0
BBX 8 10 0 0
BITMAP
41
42
24
14
18
18
14
26
42
C1
ENDCHAR
STARTCHAR 0059
ENCODING 89
SWIDTH 576 0
DWIDTH 8 0
BBX 7 10 0 0
BITMAP
82
42
64
24
18
18
10
10
10
10
ENDCHAR
STARTCHAR 005A
ENCODING 90
SWIDTH 648 0
DWIDTH 9 0
BBX 7 10 1 0
BITMAP
FE
04
08
08
10
30
20
40
C0
FE
ENDCHAR
STARTCHAR 005B
ENCODING 91
SWIDTH 432 0
DWIDTH 6 0
BBX 3 15 2 -3
BITMAP
E0
80
80
80
80
80
80
80
80
80
80
80
80
80
E0
ENDCHAR
STARTCHAR 005C
ENCODING 92
SWIDTH 360 0
DWIDTH 5 0
BBX 3 10 1 0
BITMAP
80
80
C0
40
40
40
20
20
20
20
ENDCHAR
STARTCHAR 005D
ENCODING 93
SWIDTH 432 0
DWIDTH 6 0
BBX 3 15 1 -3
BITMAP
E0
20
20
20
20
20
20
20
20
20
20
20
20
20
E0
ENDCHAR
STARTCHAR 005E
ENCODING 94
SWIDTH 648 0
DWIDTH 9 0
BBX 6 4 2 6
BITMAP
20
50
88
84
ENDCHAR
STARTCHAR 005F
ENCODING 95
SWIDTH 648 0
DWIDTH 9 0
BBX 9 1 0 -2
BITMAP
FF80
ENDCHAR
STARTCHAR 0060
ENCODING 96
SWIDTH 504 0
DWIDTH 7 0
BBX 2 2 2 11
BITMAP
80
40
ENDCHAR
STARTCHAR 0061
ENCODING 97
SWIDTH 576 0
DWIDTH 8 0
BBX 6 8 1 0
BITMAP
78
8C
04
7C
84
84
8C
F4
ENDCHAR
STARTCHAR 0062
ENCODING 98
SWIDTH 576 0
DWIDTH 8 0
BBX 7 10 1 0
BITMAP
80
80
B8
C4
84
82
82
84
C4
B8
ENDCHAR
STARTCHAR 0063
ENCODING 99
SWIDTH 576 0
DWIDTH 8 0
BBX 6 8 1 0
BITMAP
78
C4
80
80
80
80
C4
78
ENDCHAR
STARTCHAR 0064
ENCODING 100
SWIDTH 576 0
DWIDTH 8 0
BBX 6 10 1 0
BITMAP
04
04
7C
CC
84
84
84
84
8C
7C
ENDCHAR
STARTCHAR 0065
ENCODING 101
SWIDTH 576 0
DWIDTH 8 0
BBX 7 8 1 0
BITMAP
78
84
84
FE
80
84
C4
78
ENDCHAR
STARTCHAR 0066
ENCODING 102
SWIDTH 360 0
DWIDTH 5 0
BBX 5 10 0 0
BITMAP
38
20
F8
20
20
20
20
20
20
20
ENDCHAR
STARTCHAR 0067
ENCODING 103
SWIDTH 576 0
DWIDTH 8 0
BBX 6 11 1 -3
BITMAP
7C
CC
84
84
84
84
8C
7C
04
84
78
ENDCHAR
STARTCHAR 0068
ENCODING 104
SWIDTH 576 0
DWIDTH 8 0
BBX 6 10 1 0
BITMAP
80
80
B8
C4
84
84
84
84
84
84
ENDCHAR
STARTCHAR 0069
ENCODING 105
SWIDTH 216 0
DWIDTH 3 0
BBX 1 10 1 0
BITMAP
80
00
80
80
80
80
80
80
80
80
ENDCHAR
STARTCHAR 006A
ENCODING 106
SWIDTH 216 0
DWIDTH 3 0
BBX 2 13 0 -3
BITMAP
40
00
40
40
40
40
40
40
40
40
40
40
C0
ENDCHAR
STARTCHAR 006B
ENCODING 107
SWIDTH 504 0
DWIDTH 7 0
BBX 6 10 1 0
BITMAP
80
80
88
90
B0
E0
E0
B0
98
8C
ENDCHAR
STARTCHAR 006C
ENCODING 108
SWIDTH 216 0
DWIDTH 3 0
BBX 1 10 1 0
BITMAP
80
80
80
80
80
80
80
80
80
80
ENDCHAR
STARTCHAR 006D
ENCODING 109
SWIDTH 864 0
DWIDTH 12 0
BBX 10 8 1 0
BITMAP
FB80
8CC0
8840
8840
8840
8840
8840
8840
ENDCHAR
STARTCHAR 006E
ENCODING 110
SWIDTH 576 0
DWIDTH 8 0
BBX 6 8 1 0
BITMAP
B8
C4
84
84
84
84
84
84
ENDCHAR
STARTCHAR 006F
ENCODING 111
SWIDTH 576 0
DWIDTH 8 0
BBX 7 8 1 0
BITMAP
78
C4
84
82
82
84
C4
78
ENDCHAR
STARTCHAR 0070
ENCODING 112
SWIDTH 576 0
DWIDTH 8 0
BBX 7 11 1 -3
BITMAP
B8
C4
84
82
82
84
C4
B8
80
80
80
ENDCHAR
STARTCHAR 0071
ENCODING 113
SWIDTH 576 0
DWIDTH 8 0
BBX 6 11 1 -3
BITMAP
7C
CC
84
84
84
84
8C
7C
04
04
04
ENDCHAR
STARTCHAR 0072
ENCODING 114
SWIDTH 360 0
DWIDTH 5 0
BBX 4 8 1 0
BITMAP
B0
C0
80
80
80
80
80
80
ENDCHAR
STARTCHAR 0073
ENCODING 115
SWIDTH 504 0
DWIDTH 7 0
BBX 6 8 1 0
BITMAP
78
88
80
E0
18
04
8C
78
ENDCHAR
STARTCHAR 0074
ENCODING 116
SWIDTH 432 0
DWIDTH 6 0
BBX 5 10 0 0
BITMAP
20
20
F8
20
20
20
20
20
20
38
ENDCHAR
STARTCHAR 0075
ENCODING 117
SWIDTH 576 0
DWIDTH 8 0
BBX 6 8 1 0
BITMAP
84
84
84
84
84
84
CC
7C
ENDCHAR
STARTCHAR 0076
ENCODING 118
SWIDTH 504 0
DWIDTH 7 0
BBX 7 8 0 0
BITMAP
82
44
44
44
28
28
28
10
ENDCHAR
STARTCHAR 0077
ENCODING 119
SWIDTH 792 0
DWIDTH 11 0
BBX 10 8 0 0
BITMAP
8440
4C40
4C40
4A80
3280
3280
3180
3100
ENDCHAR
STARTCHAR 0078
ENCODING 120
SWIDTH 504 0
DWIDTH 7 0
BBX 7 8 0 0
BITMAP
42
44
28
18
18
28
44
C2
ENDCHAR
STARTCHAR 0079
ENCODING 121
SWIDTH 504 0
DWIDTH 7 0
BBX 7 11 0 -3
BITMAP
82
46
44
24
28
28
18
10
10
10
20
ENDCHAR
STARTCHAR 007A
ENCODING 122
SWIDTH 504 0
DWIDTH 7 0
BBX 7 8 0 0
BITMAP
7E
04
08
10
10
20
40
FE
ENDCHAR
STARTCHAR 007B
ENCODING 123
SWIDTH 432 0
DWIDTH 6 0
BBX 3 15 2 -3
BITMAP
60
40
40
40
40
40
40
80
40
40
40
40
40
40
60
ENDCHAR
STARTCHAR 007C
ENCODING 124
SWIDTH 288 0
DWIDTH 4 0
BBX 1 10 1 0
BITMAP
80
80
80
80
80
80
80
80
80
80
ENDCHAR
STARTCHAR 007D
ENCODING 125
SWIDTH 432 0
DWIDTH 6 0
BBX 3 15 1 -3
BITMAP
C0
40
40
40
40
40
40
20
40
40
40
40
40
40
C0
ENDCHAR
STARTCHAR 007E
ENCODING 126
SWIDTH 648 0
DWIDTH 9 0
BBX 6 2 2 3
BITMAP
EC
98
ENDCHAR
STARTCHAR 00A0
ENCODING 160
SWIDTH 216 0
DWIDTH 3 0
BBX 0 0 0 0
BITMAP
ENDCHAR
STARTCHAR 00A1
ENCODING 161
SWIDTH 288 0
DWIDTH 4 0
BBX 1 10 2 -2
BITMAP
80
00
80
80
80
80
80
80
80
80
ENDCHAR
STARTCHAR 00A2
ENCODING 162
SWIDTH 576 0
DWIDTH 8 0
BBX 6 10 1 0
BITMAP
10
30
CC
84
80
80
80
C4
78
10
ENDCHAR
STARTCHAR 00A3
ENCODING 163
SWIDTH 576 0
DWIDTH 8 0
BBX 7 10 0 0
BITMAP
1C
32
22
20
20
FC
20
20
20
FE
ENDCHAR
STARTCHAR 00A4
ENCODING 164
SWIDTH 648 0
DWIDTH 9 0
BBX 7 8 1 1
BITMAP
BA
C4
82
82
82
82
C4
BA
ENDCHAR
STARTCHAR 00A5
ENCODING 165
SWIDTH 576 0
DWIDTH 8 0
BBX 7 10 0 0
BITMAP
82
42
24
2C
18
7E
10
10
7E
10
ENDCHAR
STARTCHAR 00A6
ENCODING 166
SWIDTH 288 0
DWIDTH 4 0
BBX 1 12 1 -2
BITMAP
80
80
80
80
80
00
00
80
80
80
80
80
ENDCHAR
STARTCHAR 00A7
ENCODING 167
SWIDTH 504 0
DWIDTH 7 0
BBX 6 11 1 -2
BITMAP
70
88
80
70
88
84
CC
38
0C
88
78
ENDCHAR
STARTCHAR 00A8
ENCODING 168
SWIDTH 504 0
DWIDTH 7 0
BBX 3 1 2 12
BITMAP
A0
ENDCHAR
STARTCHAR 00A9
ENCODING 169
SWIDTH 792 0
DWIDTH 11 0
BBX 11 10 0 0
BITMAP
1F00
3080
4E40
5140
9020
9020
5160
4E40
2080
1F00
ENDCHAR
STARTCHAR 00AA
ENCODING 170
SWIDTH 288 0
DWIDTH 4 0
BBX 3 4 1 4
BITMAP
C0
20
E0
E0
ENDCHAR
STARTCHAR 00AB
ENCODING 171
SWIDTH 504 0
DWIDTH 7 0
BBX 5 6 1 1
BITMAP
28
48
50
90
48
28
ENDCHAR
STARTCHAR 00AC
ENCODING 172
SWIDTH 576 0
DWIDTH 8 0
BBX 6 2 1 2
BITMAP
FC
04
ENDCHAR
STARTCHAR 00AD
ENCODING 173
SWIDTH 432 0
DWIDTH 6 0
BBX 4 1 1 4
BITMAP
F0
ENDCHAR
STARTCHAR 00AE
ENCODING 174
SWIDTH 648 0
DWIDTH 9 0
BBX 7 7 1 4
BITMAP
38
44
BA
BA
B2
44
38
ENDCHAR
STARTCHAR 00AF
ENCODING 175
SWIDTH 504 0
DWIDTH 7 0
BBX 3 1 2 12
BITMAP
E0
ENDCHAR
STARTCHAR 00B0
ENCODING 176
SWIDTH 432 0
DWIDTH 6 0
BBX 5 5 0 5
BITMAP
70
48
88
48
70
ENDCHAR
STARTCHAR 00B1
ENCODING 177
SWIDTH 576 0
DWIDTH 8 0
BBX 6 7 1 1
BITMAP
10
10
FC
10
10
00
FC
ENDCHAR
STARTCHAR 00B2
ENCODING 178
SWIDTH 432 0
DWIDTH 6 0
BBX 4 6 1 4
BITMAP
E0
90
10
20
40
F0
ENDCHAR
STARTCHAR 00B3
ENCODING 179
SWIDTH 360 0
DWIDTH 5 0
BBX 4 6 1 4
BITMAP
F0
40
60
10
20
E0
ENDCHAR
STARTCHAR 00B4
ENCODING 180
SWIDTH 504 0
DWIDTH 7 0
BBX 1 2 3 11
BITMAP
80
80
ENDCHAR
STARTCHAR 00B5
ENCODING 181
SWIDTH 576 0
DWIDTH 8 0
BBX 6 11 1 -3
BITMAP
84
84
84
84
84
84
C4
FC
80
80
80
ENDCHAR
STARTCHAR 00B6
ENCODING 182
SWIDTH 648 0
DWIDTH 9 0
BBX 7 12 1 -2
BITMAP
7A
FA
FA
FA
FA
7A
0A
0A
0A
0A
0A
0A
ENDCHAR
STARTCHAR 00B7
ENCODING 183
SWIDTH 216 0
DWIDTH 3 0
BBX 1 1 1 3
BITMAP
80
ENDCHAR
STARTCHAR 00B8
ENCODING 184
SWIDTH 432 0
DWIDTH 6 0
BBX 2 3 2 -3
BITMAP
80
40
C0
ENDCHAR
STARTCHAR 00B9
ENCODING 185
SWIDTH 288 0
DWIDTH 4 0
BBX 2 6 1 4
BITMAP
C0
40
40
40
40
40
ENDCHAR
STARTCHAR 00BA
ENCODING 186
SWIDTH 360 0
DWIDTH 5 0
BBX 3 4 1 4
BITMAP
E0
A0
A0
E0
ENDCHAR
STARTCHAR 00BB
ENCODING 187
SWIDTH 504 0
DWIDTH 7 0
BBX 5 6 1 1
BITMAP
A0
50
28
28
50
A0
ENDCHAR
STARTCHAR 00BC
ENCODING 188
SWIDTH 1008 0
DWIDTH 14 0
BBX 11 10 1 0
BITMAP
C080
4100
4200
4200
4480
4880
1140
3140
21E0
4040
ENDCHAR
STARTCHAR 00BD
ENCODING 189
SWIDTH 936 0
DWIDTH 13 0
BBX 11 10 1 0
BITMAP
C080
4100
4200
42C0
4520
4820
1020
3040
2080
41E0
ENDCHAR
STARTCHAR 00BE
ENCODING 190
SWIDTH 1008 0
DWIDTH 14 0
BBX 12 10 1 0
BITMAP
F040
4080
6100
1340
2240
E480
08A0
18A0
11F0
2020
ENDCHAR
STARTCHAR 00BF
ENCODING 191
SWIDTH 504 0
DWIDTH 7 0
BBX 6 11 1 -3
BITMAP
20
00
00
20
20
60
80
80
8C
88
70
ENDCHAR
STARTCHAR 00C0
ENCODING 192
SWIDTH 648 0
DWIDTH 9 0
BBX 8 13 0 0
BITMAP
10
08
00
08
1C
14
14
26
22
62
7F
41
C1
ENDCHAR
STARTCHAR 00C1
ENCODING 193
SWIDTH 648 0
DWIDTH 9 0
BBX 8 13 0 0
BITMAP
08
08
00
08
1C
14
14
26
22
62
7F
41
C1
ENDCHAR
STARTCHAR 00C2
ENCODING 194
SWIDTH 648 0
DWIDTH 9 0
BBX 8 13 0 0
BITMAP
18
14
00
08
1C
14
14
26
22
62
7F
41
C1
ENDCHAR
STARTCHAR 00C3
ENCODING 195
SWIDTH 648 0
DWIDTH 9 0
BBX 8 13 0 0
BITMAP
38
0C
00
08
1C
14
14
26
22
62
7F
41
C1
ENDCHAR
STARTCHAR 00C4
ENCODING 196
SWIDTH 648 0
DWIDTH 9 0
BBX 8 13 0 0
BITMAP
14
00
00
08
1C
14
14
26
22
62
7F
41
C1
ENDCHAR
STARTCHAR 00C5
ENCODING 197
SWIDTH 648 0
DWIDTH 9 0
BBX 8 14 0 0
BITMAP
08
14
1C
00
08
1C
14
14
26
22
62
7F
41
C1
ENDCHAR
STARTCHAR 00C6
ENCODING 198
SWIDTH 936 0
DWIDTH 13 0
BBX 12 10 0 0
BITMAP
0FF0
1200
1200
1200
23E0
2200
6200
7E00
4200
C3F0
ENDCHAR
STARTCHAR 00C7
ENCODING 199
SWIDTH 720 0
DWIDTH 10 0
BBX 9 13 0 -3
BITMAP
1E00
2180
4080
4000
C000
8000
4000
4080
2180
1E00
0800
0400
0C00
ENDCHAR
STARTCHAR 00C8
ENCODING 200
SWIDTH 576 0
DWIDTH 8 0
BBX 6 13 1 0
BITMAP
20
10
00
FC
80
80
80
F8
80
80
80
80
FC
ENDCHAR
STARTCHAR 00C9
ENCODING 201
SWIDTH 576 0
DWIDTH 8 0
BBX 6 13 1 0
BITMAP
10
10
00
FC
80
80
80
F8
80
80
80
80
FC
ENDCHAR
STARTCHAR 00CA
ENCODING 202
SWIDTH 576 0
DWIDTH 8 0
BBX 6 13 1 0
BITMAP
30
48
00
FC
80
80
80
F8
80
80
80
80
FC
ENDCHAR
STARTCHAR 00CB
ENCODING 203
SWIDTH 576 0
DWIDTH 8 0
BBX 6 13 1 0
BITMAP
48
00
00
FC
80
80
80
F8
80
80
80
80
FC
ENDCHAR
STARTCHAR 00CC
ENCODING 204
SWIDTH 216 0
DWIDTH 3 0
BBX 2 13 0 0
BITMAP
80
40
00
40
40
40
40
40
40
40
40
40
40
ENDCHAR
STARTCHAR 00CD
ENCODING 205
SWIDTH 216 0
DWIDTH 3 0
BBX 2 13 1 0
BITMAP
40
80
00
80
80
80
80
80
80
80
80
80
80
ENDCHAR
STARTCHAR 00CE
ENCODING 206
SWIDTH 216 0
DWIDTH 3 0
BBX 3 13 0 0
BITMAP
60
A0
00
40
40
40
40
40
40
40
40
40
40
ENDCHAR
STARTCHAR 00CF
ENCODING 207
SWIDTH 216 0
DWIDTH 3 0
BBX 3 13 0 0
BITMAP
A0
00
00
40
40
40
40
40
40
40
40
40
40
ENDCHAR
STARTCHAR 00D0
ENCODING 208
SWIDTH 648 0
DWIDTH 9 0
BBX 9 10 0 0
BITMAP
7C00
4300
4100
4100
4180
F880
4180
4100
4300
7E00
ENDCHAR
STARTCHAR 00D1
ENCODING 209
SWIDTH 720 0
DWIDTH 10 0
BBX 8 13 1 0
BITMAP
34
2C
00
83
C3
E3
A3
93
9B
8B
87
87
83
ENDCHAR
STARTCHAR 00D2
ENCODING 210
SWIDTH 720 0
DWIDTH 10 0
BBX 10 13 0 0
BITMAP
0800
0800
0000
1E00
2180
4080
4080
C040
8040
4080
4080
2180
1E00
ENDCHAR
STARTCHAR 00D3
ENCODING 211
SWIDTH 720 0
DWIDTH 10 0
BBX 10 13 0 0
BITMAP
0400
0400
0000
1E00
2180
4080
4080
C040
8040
4080
4080
2180
1E00
ENDCHAR
STARTCHAR 00D4
ENCODING 212
SWIDTH 720 0
DWIDTH 10 0
BBX 10 13 0 0
BITMAP
0C00
1200
0000
1E00
2180
4080
4080
C040
8040
4080
4080
2180
1E00
ENDCHAR
STARTCHAR 00D5
ENCODING 213
SWIDTH 720 0
DWIDTH 10 0
BBX 10 13 0 0
BITMAP
1A00
1600
0000
1E00
2180
4080
4080
C040
8040
4080
4080
2180
1E00
ENDCHAR
STARTCHAR 00D6
ENCODING 214
SWIDTH 720 0
DWIDTH 10 0
BBX 10 12 0 0
BITMAP
1200
0000
1E00
2180
4080
4080
C040
8040
4080
4080
2180
1E00
ENDCHAR
STARTCHAR 00D7
ENCODING 215
SWIDTH 504 0
DWIDTH 7 0
BBX 5 5 1 3
BITMAP
88
50
20
50
88
ENDCHAR
STARTCHAR 00D8
ENCODING 216
SWIDTH 720 0
DWIDTH 10 0
BBX 10 10 0 0
BITMAP
1E40
2180
4180
4280
C440
8840
5080
6080
6180
9E00
ENDCHAR
STARTCHAR 00D9
ENCODING 217
SWIDTH 720 0
DWIDTH 10 0
BBX 8 13 1 0
BITMAP
10
10
00
81
81
81
81
81
81
81
83
42
3C
ENDCHAR
STARTCHAR 00DA
ENCODING 218
SWIDTH 720 0
DWIDTH 10 0
BBX 8 13 1 0
BITMAP
08
10
00
81
81
81
81
81
81
81
83
42
3C
ENDCHAR
STARTCHAR 00DB
ENCODING 219
SWIDTH 720 0
DWIDTH 10 0
BBX 8 13 1 0
BITMAP
18
24
00
81
81
81
81
81
81
81
83
42
3C
ENDCHAR
STARTCHAR 00DC
ENCODING 220
SWIDTH 720 0
DWIDTH 10 0
BBX 8 13 1 0
BITMAP
24
00
00
81
81
81
81
81
81
81
83
42
3C
ENDCHAR
STARTCHAR 00DD
ENCODING 221
SWIDTH 576 0
DWIDTH 8 0
BBX 7 13 0 0
BITMAP
08
10
00
82
42
64
24
18
18
10
10
10
10
ENDCHAR
STARTCHAR 00DE
ENCODING 222
SWIDTH 576 0
DWIDTH 8 0
BBX 7 10 1 0
BITMAP
80
80
F8
84
82
82
84
F8
80
80
ENDCHAR
STARTCHAR 00DF
ENCODING 223
SWIDTH 576 0
DWIDTH 8 0
BBX 6 10 1 0
BITMAP
78
88
84
88
98
8C
84
84
84
B8
ENDCHAR
STARTCHAR 00E0
ENCODING 224
SWIDTH 576 0
DWIDTH 8 0
BBX 6 11 1 0
BITMAP
20
20
00
78
8C
04
7C
84
84
8C
F4
ENDCHAR
STARTCHAR 00E1
ENCODING 225
SWIDTH 576 0
DWIDTH 8 0
BBX 6 11 1 0
BITMAP
10
10
00
78
8C
04
7C
84
84
8C
F4
ENDCHAR
STARTCHAR 00E2
ENCODING 226
SWIDTH 576 0
DWIDTH 8 0
BBX 6 11 1 0
BITMAP
30
48
00
78
8C
04
7C
84
84
8C
F4
ENDCHAR
STARTCHAR 00E3
ENCODING 227
SWIDTH 576 0
DWIDTH 8 0
BBX 6 11 1 0
BITMAP
68
58
00
78
8C
04
7C
84
84
8C
F4
ENDCHAR
STARTCHAR 00E4
ENCODING 228
SWIDTH 576 0
DWIDTH 8 0
BBX 6 10 1 0
BITMAP
48
00
78
8C
04
7C
84
84
8C
F4
ENDCHAR
STARTCHAR 00E5
ENCODING 229
SWIDTH 576 0
DWIDTH 8 0
BBX 6 12 1 0
BITMAP
30
50
30
00
78
8C
04
7C
84
84
8C
F4
ENDCHAR
STARTCHAR 00E6
ENCODING 230
SWIDTH 936 0
DWIDTH 13 0
BBX 12 8 1 0
BITMAP
7BC0
8E20
0420
7FF0
8400
8420
8A20
F3C0
ENDCHAR
STARTCHAR 00E7
ENCODING 231
SWIDTH 576 0
DWIDTH 8 0
BBX 6 11 1 -3
BITMAP
78
C4
80
80
80
80
C4
78
20
10
30
ENDCHAR
STARTCHAR 00E8
ENCODING 232
SWIDTH 576 0
DWIDTH 8 0
BBX 7 11 1 0
BITMAP
20
20
00
78
84
84
FE
80
84
C4
78
ENDCHAR
STARTCHAR 00E9
ENCODING 233
SWIDTH 576 0
DWIDTH 8 0
BBX 7 11 1 0
BITMAP
10
10
00
78
84
84
FE
80
84
C4
78
ENDCHAR
STARTCHAR 00EA
ENCODING 234
SWIDTH 576 0
DWIDTH 8 0
BBX 7 11 1 0
BITMAP
30
48
00
78
84
84
FE
80
84
C4
78
ENDCHAR
STARTCHAR 00EB
ENCODING 235
SWIDTH 576 0
DWIDTH 8 0
BBX 7 10 1 0
BITMAP
48
00
78
84
84
FE
80
84
C4
78
ENDCHAR
STARTCHAR 00EC
ENCODING 236
SWIDTH 216 0
DWIDTH 3 0
BBX 2 11 0 0
BITMAP
80
40
00
40
40
40
40
40
40
40
40
ENDCHAR
STARTCHAR 00ED
ENCODING 237
SWIDTH 216 0
DWIDTH 3 0
BBX 2 11 1 0
BITMAP
40
80
00
80
80
80
80
80
80
80
80
ENDCHAR
STARTCHAR 00EE
ENCODING 238
SWIDTH 216 0
DWIDTH 3 0
BBX 3 11 0 0
BITMAP
60
A0
00
40
40
40
40
40
40
40
40
ENDCHAR
STARTCHAR 00EF
ENCODING 239
SWIDTH 216 0
DWIDTH 3 0
BBX 3 10 0 0
BITMAP
A0
00
40
40
40
40
40
40
40
40
ENDCHAR
STARTCHAR 00F0
ENCODING 240
SWIDTH 576 0
DWIDTH 8 0
BBX 7 11 1 0
BITMAP
38
18
14
04
7C
84
86
86
84
84
78
ENDCHAR
STARTCHAR 00F1
ENCODING 241
SWIDTH 576 0
DWIDTH 8 0
BBX 6 11 1 0
BITMAP
68
58
00
B8
C4
84
84
84
84
84
84
ENDCHAR
STARTCHAR 00F2
ENCODING 242
SWIDTH 576 0
DWIDTH 8 0
BBX 7 11 1 0
BITMAP
20
20
00
78
C4
84
82
82
84
C4
78
ENDCHAR
STARTCHAR 00F3
ENCODING 243
SWIDTH 576 0
DWIDTH 8 0
BBX 7 11 1 0
BITMAP
10
10
00
78
C4
84
82
82
84
C4
78
ENDCHAR
STARTCHAR 00F4
ENCODING 244
SWIDTH 576 0
DWIDTH 8 0
BBX 7 11 1 0
BITMAP
30
48
00
78
C4
84
82
82
84
C4
78
ENDCHAR
STARTCHAR 00F5
ENCODING 245
SWIDTH 576 0
DWIDTH 8 0
BBX 7 11 1 0
BITMAP
68
58
00
78
C4
84
82
82
84
C4
78
ENDCHAR
STARTCHAR 00F6
ENCODING 246
SWIDTH 576 0
DWIDTH 8 0
BBX 7 10 1 0
BITMAP
48
00
78
C4
84
82
82
84
C4
78
ENDCHAR
STARTCHAR 00F7
ENCODING 247
SWIDTH 576 0
DWIDTH 8 0
BBX 5 4 1 3
BITMAP
20
00
F8
20
ENDCHAR
STARTCHAR 00F8
ENCODING 248
SWIDTH 576 0
DWIDTH 8 0
BBX 8 8 0 0
BITMAP
3D
62
46
49
51
62
62
BC
ENDCHAR
STARTCHAR 00F9
ENCODING 249
SWIDTH 576 0
DWIDTH 8 0
BBX 6 11 1 0
BITMAP
20
20
00
84
84
84
84
84
84
CC
7C
ENDCHAR
STARTCHAR 00FA
ENCODING 250
SWIDTH 576 0
DWIDTH 8 0
BBX 6 11 1 0
BITMAP
10
10
00
84
84
84
84
84
84
CC
7C
ENDCHAR
STARTCHAR 00FB
ENCODING 251
SWIDTH 576 0
DWIDTH 8 0
BBX 6 11 1 0
BITMAP
30
48
00
84
84
84
84
84
84
CC
7C
ENDCHAR
STARTCHAR 00FC
ENCODING 252
SWIDTH 576 0
DWIDTH 8 0
BBX 6 10 1 0
BITMAP
48
00
84
84
84
84
84
84
CC
7C
ENDCHAR
STARTCHAR 00FD
ENCODING 253
SWIDTH 504 0
DWIDTH 7 0
BBX 7 14 0 -3
BITMAP
08
10
00
82
46
44
24
28
28
18
10
10
10
20
ENDCHAR
STARTCHAR 00FE
ENCODING 254
SWIDTH 576 0
DWIDTH 8 0
BBX 7 13 1 -3
BITMAP
80
80
B8
C4
84
82
82
84
C4
B8
80
80
80
ENDCHAR
STARTCHAR 00FF
ENCODING 255
SWIDTH 504 0
DWIDTH 7 0
BBX 7 13 0 -3
BITMAP
2C
00
82
46
44
24
28
28
18
10
10
10
20
ENDCHAR
ENDFONT
