STARTFONT 2.1
COMMENT
COMMENT Converted from OpenType font "manrope-extrabold.otf" by "otf2bdf 3.0".
COMMENT
FONT -FreeType-Manrope ExtraBold-Medium-R-Normal--22-160-100-100-P-110-ISO10646-1
SIZE 16 100 100
FONTBOUNDINGBOX 23 28 -1 -5
STARTPROPERTIES 19
FOUNDRY "FreeType"
FAMILY_NAME "Manrope ExtraBold"
WEIGHT_NAME "Medium"
SLANT "R"
SETWIDTH_NAME "Normal"
ADD_STYLE_NAME ""
PIXEL_SIZE 22
POINT_SIZE 160
RESOLUTION_X 100
RESOLUTION_Y 100
SPACING "P"
AVERAGE_WIDTH 110
CHARSET_REGISTRY "ISO10646"
CHARSET_ENCODING "1"
FONT_ASCENT 23
FONT_DESCENT 6
COPYRIGHT "Copyright 2019-2021 The Manrope Project Authors (https://github.com/sharanda/manrope)"
_OTF_FONTFILE "manrope-extrabold.otf"
_OTF_PSNAME "Manrope-ExtraBold"
ENDPROPERTIES
CHARS 191
STARTCHAR 0020
ENCODING 32
SWIDTH 180 0
DWIDTH 4 0
BBX 0 0 0 0
BITMAP
ENDCHAR
STARTCHAR 0021
ENCODING 33
SWIDTH 360 0
DWIDTH 8 0
BBX 3 16 3 0
BITMAP
E0
E0
E0
E0
E0
E0
E0
E0
E0
E0
E0
E0
00
E0
E0
E0
ENDCHAR
STARTCHAR 0022
ENCODING 34
SWIDTH 495 0
DWIDTH 11 0
BBX 8 4 1 12
BITMAP
E7
E7
E7
E7
ENDCHAR
STARTCHAR 0023
ENCODING 35
SWIDTH 945 0
DWIDTH 21 0
BBX 18 16 1 0
BITMAP
01C600
01CE00
01CE00
038E00
3FFFC0
3FFFC0
3FFFC0
071C00
073800
7FFF80
7FFF80
FFFF00
0E7000
0E7000
1C7000
1C6000
ENDCHAR
STARTCHAR 0024
ENCODING 36
SWIDTH 630 0
DWIDTH 14 0
BBX 12 20 1 -2
BITMAP
0700
0700
1F80
3FE0
7FE0
70F0
E070
7000
7E00
3FC0
1FE0
01F0
0070
E070
F070
7FF0
3FE0
1F80
0700
0700
ENDCHAR
STARTCHAR 0025
ENCODING 37
SWIDTH 900 0
DWIDTH 20 0
BBX 18 16 1 0
BITMAP
3C0200
7E0700
7F0F00
E31E00
E73C00
7F7800
3EF000
09E000
03C400
079F00
0F3F80
1E39C0
3C31C0
783F80
303F80
200F00
ENDCHAR
STARTCHAR 0026
ENCODING 38
SWIDTH 675 0
DWIDTH 15 0
BBX 13 16 1 0
BITMAP
1F80
3FC0
7FE0
70E0
7000
7000
7800
3C70
7F70
F7F0
E3F0
E1F0
F0F0
7FF8
7FF8
1F90
ENDCHAR
STARTCHAR 0027
ENCODING 39
SWIDTH 270 0
DWIDTH 6 0
BBX 3 4 1 12
BITMAP
E0
E0
E0
E0
ENDCHAR
STARTCHAR 0028
ENCODING 40
SWIDTH 450 0
DWIDTH 10 0
BBX 6 23 3 -4
BITMAP
08
1C
3C
38
70
70
70
60
E0
E0
E0
E0
E0
E0
E0
E0
70
70
70
38
3C
1C
18
ENDCHAR
STARTCHAR 0029
ENCODING 41
SWIDTH 450 0
DWIDTH 10 0
BBX 6 23 1 -4
BITMAP
60
E0
70
70
38
38
18
1C
1C
1C
1C
1C
1C
1C
1C
1C
1C
38
38
70
70
E0
60
ENDCHAR
STARTCHAR 002A
ENCODING 42
SWIDTH 495 0
DWIDTH 11 0
BBX 8 8 1 8
BITMAP
18
18
FF
FF
7E
7C
7E
24
ENDCHAR
STARTCHAR 002B
ENCODING 43
SWIDTH 585 0
DWIDTH 13 0
BBX 10 10 1 3
BITMAP
0E00
0E00
0E00
0E00
FFC0
FFC0
0E00
0E00
0E00
0E00
ENDCHAR
STARTCHAR 002C
ENCODING 44
SWIDTH 315 0
DWIDTH 7 0
BBX 3 6 1 -3
BITMAP
E0
E0
E0
20
60
E0
ENDCHAR
STARTCHAR 002D
ENCODING 45
SWIDTH 405 0
DWIDTH 9 0
BBX 7 2 1 6
BITMAP
FE
FE
ENDCHAR
STARTCHAR 002E
ENCODING 46
SWIDTH 315 0
DWIDTH 7 0
BBX 3 3 2 0
BITMAP
E0
E0
E0
ENDCHAR
STARTCHAR 002F
ENCODING 47
SWIDTH 450 0
DWIDTH 10 0
BBX 7 16 1 0
BITMAP
0E
0E
0E
0E
1C
1C
1C
1C
38
38
38
38
70
70
70
E0
ENDCHAR
STARTCHAR 0030
ENCODING 48
SWIDTH 675 0
DWIDTH 15 0
BBX 11 16 2 0
BITMAP
1F00
7FC0
FFC0
F1E0
E0E0
E0E0
E0E0
E0E0
E0E0
E0E0
E0E0
E0E0
F1E0
FFE0
7FC0
1F00
ENDCHAR
STARTCHAR 0031
ENCODING 49
SWIDTH 450 0
DWIDTH 10 0
BBX 6 16 1 0
BITMAP
1C
7C
FC
FC
9C
1C
1C
1C
1C
1C
1C
1C
1C
1C
1C
1C
ENDCHAR
STARTCHAR 0032
ENCODING 50
SWIDTH 585 0
DWIDTH 13 0
BBX 11 16 1 0
BITMAP
1F00
3FC0
7FE0
F1E0
E0E0
00E0
00E0
01E0
03C0
0780
1F00
3E00
7C00
FFE0
FFE0
FFE0
ENDCHAR
STARTCHAR 0033
ENCODING 51
SWIDTH 585 0
DWIDTH 13 0
BBX 11 16 1 0
BITMAP
FFE0
FFE0
FFE0
03C0
0780
0F00
1F80
1FC0
03C0
01E0
00E0
20E0
E1C0
7FC0
7F80
1F00
ENDCHAR
STARTCHAR 0034
ENCODING 52
SWIDTH 630 0
DWIDTH 14 0
BBX 12 16 1 0
BITMAP
0700
0F00
0E00
0E00
1E00
1C00
3C00
39C0
79C0
71C0
F1C0
FFF0
FFF0
FFF0
01C0
01C0
ENDCHAR
STARTCHAR 0035
ENCODING 53
SWIDTH 585 0
DWIDTH 13 0
BBX 11 16 1 0
BITMAP
7FC0
7FC0
7FC0
7000
7000
7E00
7F80
7FC0
31E0
00E0
00E0
20E0
F1E0
7FC0
3F80
1F00
ENDCHAR
STARTCHAR 0036
ENCODING 54
SWIDTH 630 0
DWIDTH 14 0
BBX 11 16 2 0
BITMAP
1F00
7FC0
FF80
F100
E000
E000
FF00
FF80
FFC0
E1E0
E0E0
E0E0
E1C0
FFC0
7F80
1E00
ENDCHAR
STARTCHAR 0037
ENCODING 55
SWIDTH 540 0
DWIDTH 12 0
BBX 10 16 1 0
BITMAP
FFC0
FFC0
FFC0
03C0
0380
0380
0700
0700
0F00
0E00
0E00
1C00
1C00
3C00
3800
3800
ENDCHAR
STARTCHAR 0038
ENCODING 56
SWIDTH 630 0
DWIDTH 14 0
BBX 11 16 1 0
BITMAP
1F00
3FC0
7FE0
70E0
70E0
70E0
7FE0
3FC0
7FE0
70E0
F0E0
F0E0
70E0
7FE0
3FC0
1F00
ENDCHAR
STARTCHAR 0039
ENCODING 57
SWIDTH 630 0
DWIDTH 14 0
BBX 11 16 1 0
BITMAP
1F00
3FC0
7FC0
F1E0
E0E0
E0E0
F0E0
7FE0
7FE0
1EE0
00E0
00E0
01E0
3FC0
7FC0
1F00
ENDCHAR
STARTCHAR 003A
ENCODING 58
SWIDTH 360 0
DWIDTH 8 0
BBX 3 10 2 1
BITMAP
E0
E0
E0
00
00
00
00
E0
E0
E0
ENDCHAR
STARTCHAR 003B
ENCODING 59
SWIDTH 360 0
DWIDTH 8 0
BBX 3 15 2 -3
BITMAP
E0
E0
E0
00
00
00
00
00
00
E0
E0
E0
20
20
60
ENDCHAR
STARTCHAR 003C
ENCODING 60
SWIDTH 630 0
DWIDTH 14 0
BBX 7 11 3 1
BITMAP
04
0E
1E
3C
78
F0
78
3C
1E
0E
04
ENDCHAR
STARTCHAR 003D
ENCODING 61
SWIDTH 765 0
DWIDTH 17 0
BBX 11 6 3 5
BITMAP
FFE0
FFE0
0000
0000
FFE0
FFE0
ENDCHAR
STARTCHAR 003E
ENCODING 62
SWIDTH 630 0
DWIDTH 14 0
BBX 7 10 4 1
BITMAP
40
E0
70
38
1C
1E
3C
78
F0
60
ENDCHAR
STARTCHAR 003F
ENCODING 63
SWIDTH 585 0
DWIDTH 13 0
BBX 10 16 1 0
BITMAP
1F00
7F80
7FC0
F1C0
E1C0
01C0
03C0
0780
0F00
0E00
1E00
1E00
0000
1E00
1E00
1E00
ENDCHAR
STARTCHAR 0040
ENCODING 64
SWIDTH 900 0
DWIDTH 20 0
BBX 17 16 2 -2
BITMAP
0FF000
1FFC00
381E00
700700
E7F700
EFF300
CE7380
CC3380
CC3380
CE7300
EFFF00
E7DE00
700000
380000
1FE000
0FE000
ENDCHAR
STARTCHAR 0041
ENCODING 65
SWIDTH 675 0
DWIDTH 15 0
BBX 14 16 1 0
BITMAP
0F80
0F80
0FC0
1DC0
1DC0
1DE0
38E0
38E0
38E0
7870
7FF0
7FF0
7FF8
E038
E038
E03C
ENDCHAR
STARTCHAR 0042
ENCODING 66
SWIDTH 630 0
DWIDTH 14 0
BBX 11 16 2 0
BITMAP
FF00
FFC0
FFC0
E1E0
E0E0
E1E0
FFC0
FF80
FFE0
E0E0
E0E0
E0E0
E0E0
FFE0
FFC0
FF80
ENDCHAR
STARTCHAR 0043
ENCODING 67
SWIDTH 765 0
DWIDTH 17 0
BBX 15 16 1 0
BITMAP
0FC0
1FF0
3FF8
783C
F01E
E008
E000
E000
E000
E000
E000
F01E
783C
7FF8
1FF0
0FC0
ENDCHAR
STARTCHAR 0044
ENCODING 68
SWIDTH 720 0
DWIDTH 16 0
BBX 13 16 2 0
BITMAP
FF00
FFC0
FFE0
E0F0
E070
E070
E078
E078
E078
E078
E070
E070
E0F0
FFE0
FFC0
FF00
ENDCHAR
STARTCHAR 0045
ENCODING 69
SWIDTH 585 0
DWIDTH 13 0
BBX 10 16 2 0
BITMAP
FFC0
FFC0
FFC0
E000
E000
E000
FF80
FF80
FF80
E000
E000
E000
E000
FFC0
FFC0
FFC0
ENDCHAR
STARTCHAR 0046
ENCODING 70
SWIDTH 540 0
DWIDTH 12 0
BBX 9 16 2 0
BITMAP
FF80
FF80
FF80
E000
E000
E000
E000
FF00
FF00
FF00
E000
E000
E000
E000
E000
E000
ENDCHAR
STARTCHAR 0047
ENCODING 71
SWIDTH 720 0
DWIDTH 16 0
BBX 15 16 1 0
BITMAP
0FC0
1FF0
3FF8
783C
F01C
E01C
E000
E000
E07E
E07E
E01E
F01C
783C
3FF8
1FF0
0FC0
ENDCHAR
STARTCHAR 0048
ENCODING 72
SWIDTH 720 0
DWIDTH 16 0
BBX 13 16 2 0
BITMAP
E038
E038
E038
E038
E038
E038
FFF8
FFF8
FFF8
E038
E038
E038
E038
E038
E038
E038
ENDCHAR
STARTCHAR 0049
ENCODING 73
SWIDTH 315 0
DWIDTH 7 0
BBX 3 16 2 0
BITMAP
E0
E0
E0
E0
E0
E0
E0
E0
E0
E0
E0
E0
E0
E0
E0
E0
ENDCHAR
STARTCHAR 004A
ENCODING 74
SWIDTH 495 0
DWIDTH 11 0
BBX 10 16 0 0
BITMAP
01C0
01C0
01C0
01C0
01C0
01C0
01C0
01C0
01C0
01C0
01C0
01C0
E3C0
FF80
7F80
1E00
ENDCHAR
STARTCHAR 004B
ENCODING 75
SWIDTH 675 0
DWIDTH 15 0
BBX 12 16 2 0
BITMAP
E0F0
E1E0
E1C0
E380
E780
EF00
FE00
FC00
FC00
FE00
EF00
E780
E3C0
E1E0
E0E0
E0F0
ENDCHAR
STARTCHAR 004C
ENCODING 76
SWIDTH 540 0
DWIDTH 12 0
BBX 10 16 2 0
BITMAP
E000
E000
E000
E000
E000
E000
E000
E000
E000
E000
E000
E000
E000
FFC0
FFC0
FFC0
ENDCHAR
STARTCHAR 004D
ENCODING 77
SWIDTH 855 0
DWIDTH 19 0
BBX 16 16 2 0
BITMAP
E007
E00F
F00F
F01F
F81F
F83F
F83F
DC77
DC77
CEE7
CEE7
C7C7
C7C7
C387
C387
C107
ENDCHAR
STARTCHAR 004E
ENCODING 78
SWIDTH 720 0
DWIDTH 16 0
BBX 13 16 2 0
BITMAP
E038
F038
F038
F838
FC38
FC38
FE38
EE38
E738
E7B8
E3B8
E1F8
E1F8
E0F8
E078
E078
ENDCHAR
STARTCHAR 004F
ENCODING 79
SWIDTH 765 0
DWIDTH 17 0
BBX 15 16 1 0
BITMAP
0FC0
1FF0
3FF8
783C
F01E
E00E
E00E
E00E
E00E
E00E
E00E
F01E
783C
7FF8
1FF0
0FC0
ENDCHAR
STARTCHAR 0050
ENCODING 80
SWIDTH 630 0
DWIDTH 14 0
BBX 12 16 2 0
BITMAP
FF80
FFC0
FFE0
E0F0
E070
E070
E070
E0E0
FFE0
FFC0
FF80
E000
E000
E000
E000
E000
ENDCHAR
STARTCHAR 0051
ENCODING 81
SWIDTH 765 0
DWIDTH 17 0
BBX 15 16 1 0
BITMAP
0FC0
1FF0
3FF8
783C
F01E
E00E
E00E
E00E
E00E
E00E
E06E
F0FE
787C
7FFC
1FFE
0FC4
ENDCHAR
STARTCHAR 0052
ENCODING 82
SWIDTH 675 0
DWIDTH 15 0
BBX 12 16 2 0
BITMAP
FF80
FFC0
FFE0
E0F0
E070
E070
E070
E0E0
FFE0
FFC0
FF80
E3C0
E1C0
E1E0
E0E0
E0F0
ENDCHAR
STARTCHAR 0053
ENCODING 83
SWIDTH 675 0
DWIDTH 15 0
BBX 13 16 1 0
BITMAP
0F80
3FE0
7FF0
7070
7078
7000
7E00
3FE0
0FF0
01F8
0038
E038
F078
7FF0
3FE0
0FC0
ENDCHAR
STARTCHAR 0054
ENCODING 84
SWIDTH 630 0
DWIDTH 14 0
BBX 13 16 0 0
BITMAP
FFF8
FFF8
FFF8
0700
0700
0700
0700
0700
0700
0700
0700
0700
0700
0700
0700
0700
ENDCHAR
STARTCHAR 0055
ENCODING 85
SWIDTH 720 0
DWIDTH 16 0
BBX 13 16 2 0
BITMAP
E078
E078
E078
E078
E078
E078
E078
E078
E078
E078
E078
E070
F0F0
7FE0
3FE0
1F80
ENDCHAR
STARTCHAR 0056
ENCODING 86
SWIDTH 675 0
DWIDTH 15 0
BBX 14 16 0 0
BITMAP
E01C
701C
701C
7038
7838
3838
3870
3870
1C70
1CE0
1CE0
0EE0
0FE0
0FC0
07C0
07C0
ENDCHAR
STARTCHAR 0057
ENCODING 87
SWIDTH 990 0
DWIDTH 22 0
BBX 22 16 0 0
BITMAP
F0783C
707838
707838
70FC38
38FC70
38FC70
38FC70
39CE70
1DCEE0
1DCEE0
1D86E0
0F87C0
0F87C0
0F87C0
0F03C0
070380
ENDCHAR
STARTCHAR 0058
ENCODING 88
SWIDTH 675 0
DWIDTH 15 0
BBX 13 16 1 0
BITMAP
E038
F078
78F0
38E0
3DE0
1FC0
0F80
0F80
0F80
0F80
1FC0
3DE0
38E0
78F0
F078
E038
ENDCHAR
STARTCHAR 0059
ENCODING 89
SWIDTH 630 0
DWIDTH 14 0
BBX 14 16 0 0
BITMAP
F03C
7038
7878
3CF0
1CE0
1FE0
0FC0
0FC0
0780
0780
0780
0780
0780
0780
0780
0780
ENDCHAR
STARTCHAR 005A
ENCODING 90
SWIDTH 675 0
DWIDTH 15 0
BBX 13 16 1 0
BITMAP
7FF8
7FF0
7FF0
01E0
01E0
03C0
0380
0780
0F00
0F00
1E00
1C00
3C00
7FF8
7FF8
FFF8
ENDCHAR
STARTCHAR 005B
ENCODING 91
SWIDTH 450 0
DWIDTH 10 0
BBX 5 25 3 -5
BITMAP
F8
F8
F8
E0
E0
E0
E0
E0
E0
E0
E0
E0
E0
E0
E0
E0
E0
E0
E0
E0
E0
E0
F8
F8
F8
ENDCHAR
STARTCHAR 005C
ENCODING 92
SWIDTH 450 0
DWIDTH 10 0
BBX 7 16 1 0
BITMAP
E0
70
70
70
38
38
38
38
1C
1C
1C
1C
0E
0E
0E
0E
ENDCHAR
STARTCHAR 005D
ENCODING 93
SWIDTH 450 0
DWIDTH 10 0
BBX 5 25 1 -5
BITMAP
F8
F8
F8
18
18
18
18
18
18
18
18
18
18
18
18
18
18
18
18
18
18
18
F8
F8
F8
ENDCHAR
STARTCHAR 005E
ENCODING 94
SWIDTH 675 0
DWIDTH 15 0
BBX 11 7 2 9
BITMAP
0400
0E00
1F00
3F80
79C0
F0E0
60C0
ENDCHAR
STARTCHAR 005F
ENCODING 95
SWIDTH 675 0
DWIDTH 15 0
BBX 15 2 0 -3
BITMAP
FFFE
FFFE
ENDCHAR
STARTCHAR 0060
ENCODING 96
SWIDTH 540 0
DWIDTH 12 0
BBX 3 4 4 18
BITMAP
C0
C0
60
60
ENDCHAR
STARTCHAR 0061
ENCODING 97
SWIDTH 585 0
DWIDTH 13 0
BBX 11 12 1 0
BITMAP
1F00
7FC0
7FC0
20E0
1FE0
7FE0
FCE0
E1E0
E1E0
F7E0
7FE0
3CE0
ENDCHAR
STARTCHAR 0062
ENCODING 98
SWIDTH 630 0
DWIDTH 14 0
BBX 11 16 2 0
BITMAP
E000
E000
E000
E000
FF00
FF80
FFC0
E1E0
C0E0
C0E0
C0E0
C0E0
E1E0
FFC0
FF80
DF00
ENDCHAR
STARTCHAR 0063
ENCODING 99
SWIDTH 585 0
DWIDTH 13 0
BBX 11 12 1 0
BITMAP
1F00
3FC0
7FE0
F0E0
E080
E000
E000
E000
F0E0
7FE0
3FC0
1F00
ENDCHAR
STARTCHAR 0064
ENCODING 100
SWIDTH 630 0
DWIDTH 14 0
BBX 11 16 1 0
BITMAP
00E0
00E0
00E0
00E0
1FE0
3FE0
7FE0
F0E0
E0E0
E060
E060
E0E0
F0E0
7FE0
3FE0
1F60
ENDCHAR
STARTCHAR 0065
ENCODING 101
SWIDTH 630 0
DWIDTH 14 0
BBX 12 12 1 0
BITMAP
1F00
3FC0
7FE0
F0E0
E0E0
FFF0
FFF0
E000
F0E0
7FE0
3FC0
1F80
ENDCHAR
STARTCHAR 0066
ENCODING 102
SWIDTH 405 0
DWIDTH 9 0
BBX 7 16 1 0
BITMAP
1E
3E
3C
38
FE
FE
38
38
38
38
38
38
38
38
38
38
ENDCHAR
STARTCHAR 0067
ENCODING 103
SWIDTH 630 0
DWIDTH 14 0
BBX 11 17 1 -5
BITMAP
1F60
3FE0
7FE0
F0E0
E0E0
E060
E060
E0E0
F0E0
7FE0
3FE0
1FE0
00E0
10E0
7FE0
3FC0
1F80
ENDCHAR
STARTCHAR 0068
ENCODING 104
SWIDTH 630 0
DWIDTH 14 0
BBX 11 16 2 0
BITMAP
C000
C000
C000
C000
CF00
FFC0
FFC0
E1E0
E1E0
E0E0
E0E0
E0E0
E0E0
E0E0
E0E0
E0E0
ENDCHAR
STARTCHAR 0069
ENCODING 105
SWIDTH 315 0
DWIDTH 7 0
BBX 3 16 2 0
BITMAP
E0
E0
E0
00
E0
E0
E0
E0
E0
E0
E0
E0
E0
E0
E0
E0
ENDCHAR
STARTCHAR 006A
ENCODING 106
SWIDTH 315 0
DWIDTH 7 0
BBX 5 21 0 -5
BITMAP
38
38
38
00
38
38
38
38
38
38
38
38
38
38
38
38
38
38
F8
F8
F0
ENDCHAR
STARTCHAR 006B
ENCODING 107
SWIDTH 540 0
DWIDTH 12 0
BBX 10 16 2 0
BITMAP
E000
E000
E000
E000
E3C0
E380
E780
EF00
EE00
FC00
FC00
EE00
EF00
E780
E3C0
E3C0
ENDCHAR
STARTCHAR 006C
ENCODING 108
SWIDTH 315 0
DWIDTH 7 0
BBX 3 16 2 0
BITMAP
E0
E0
E0
E0
E0
E0
E0
E0
E0
E0
E0
E0
E0
E0
E0
E0
ENDCHAR
STARTCHAR 006D
ENCODING 109
SWIDTH 900 0
DWIDTH 20 0
BBX 17 12 2 0
BITMAP
CF1E00
FFFF00
FFFF80
E3C380
E1C380
E1C380
E1C380
E1C380
E1C380
E1C380
E1C380
E1C380
ENDCHAR
STARTCHAR 006E
ENCODING 110
SWIDTH 630 0
DWIDTH 14 0
BBX 11 12 2 0
BITMAP
CF00
FFC0
FFC0
E1E0
E1E0
E0E0
E0E0
E0E0
E0E0
E0E0
E0E0
E0E0
ENDCHAR
STARTCHAR 006F
ENCODING 111
SWIDTH 630 0
DWIDTH 14 0
BBX 12 12 1 0
BITMAP
1F80
3FC0
7FE0
F0F0
E070
E070
E070
E070
F0F0
7FE0
3FC0
1F80
ENDCHAR
STARTCHAR 0070
ENCODING 112
SWIDTH 630 0
DWIDTH 14 0
BBX 11 17 2 -5
BITMAP
DF00
FF80
FFC0
E1E0
C0E0
C0E0
C0E0
C0E0
E1C0
FFC0
FF80
FF00
E000
E000
E000
E000
E000
ENDCHAR
STARTCHAR 0071
ENCODING 113
SWIDTH 630 0
DWIDTH 14 0
BBX 11 17 1 -5
BITMAP
1F60
3FE0
7FE0
F0E0
E0E0
E060
E060
E0E0
F0E0
7FE0
3FE0
1FE0
00E0
00E0
00E0
00E0
00E0
ENDCHAR
STARTCHAR 0072
ENCODING 114
SWIDTH 405 0
DWIDTH 9 0
BBX 7 12 2 0
BITMAP
CE
DE
FE
F0
E0
E0
E0
E0
E0
E0
E0
E0
ENDCHAR
STARTCHAR 0073
ENCODING 115
SWIDTH 540 0
DWIDTH 12 0
BBX 10 12 1 0
BITMAP
3F00
7F80
FFC0
E1C0
F800
7F00
1FC0
03C0
E1C0
FFC0
7F80
3F00
ENDCHAR
STARTCHAR 0074
ENCODING 116
SWIDTH 450 0
DWIDTH 10 0
BBX 9 15 0 0
BITMAP
3800
3800
3800
FF80
FF80
3800
3800
3800
3800
3800
3800
3800
3F80
1F80
0F80
ENDCHAR
STARTCHAR 0075
ENCODING 117
SWIDTH 630 0
DWIDTH 14 0
BBX 12 12 1 0
BITMAP
E070
E070
E070
E070
E070
E070
E070
F0F0
70F0
7FF0
7FF0
1E70
ENDCHAR
STARTCHAR 0076
ENCODING 118
SWIDTH 585 0
DWIDTH 13 0
BBX 11 12 1 0
BITMAP
E0E0
E0E0
E1C0
71C0
71C0
7380
3B80
3B00
1F00
1F00
1E00
0E00
ENDCHAR
STARTCHAR 0077
ENCODING 119
SWIDTH 810 0
DWIDTH 18 0
BBX 16 12 1 0
BITMAP
E183
E3C7
E3C7
63C7
77EE
77EE
766E
3E7C
3E7C
3C3C
1C38
1C38
ENDCHAR
STARTCHAR 0078
ENCODING 120
SWIDTH 585 0
DWIDTH 13 0
BBX 11 12 1 0
BITMAP
E1E0
F1C0
7B80
3F80
3F00
1E00
1E00
3F00
3F80
73C0
F1C0
E1E0
ENDCHAR
STARTCHAR 0079
ENCODING 121
SWIDTH 585 0
DWIDTH 13 0
BBX 12 17 0 -5
BITMAP
F070
7070
7070
38E0
38E0
38E0
1DC0
1DC0
0F80
0F80
0F80
0700
0700
0E00
0E00
0E00
1C00
ENDCHAR
STARTCHAR 007A
ENCODING 122
SWIDTH 540 0
DWIDTH 12 0
BBX 10 12 1 0
BITMAP
FFC0
FF80
FF80
0700
0E00
1E00
1C00
3800
7800
7FC0
FFC0
FFC0
ENDCHAR
STARTCHAR 007B
ENCODING 123
SWIDTH 450 0
DWIDTH 10 0
BBX 6 25 3 -5
BITMAP
1C
3C
3C
70
70
70
70
70
70
70
70
F0
E0
70
70
70
70
70
70
70
70
70
3C
3C
1C
ENDCHAR
STARTCHAR 007C
ENCODING 124
SWIDTH 315 0
DWIDTH 7 0
BBX 3 16 2 0
BITMAP
E0
E0
E0
E0
E0
E0
E0
E0
E0
E0
E0
E0
E0
E0
E0
E0
ENDCHAR
STARTCHAR 007D
ENCODING 125
SWIDTH 450 0
DWIDTH 10 0
BBX 6 25 1 -5
BITMAP
E0
F0
F8
38
38
38
38
38
38
38
38
3C
1C
3C
38
38
38
38
38
38
38
38
F8
F0
E0
ENDCHAR
STARTCHAR 007E
ENCODING 126
SWIDTH 720 0
DWIDTH 16 0
BBX 12 6 2 4
BITMAP
3800
7E70
FF70
E7F0
63F0
01E0
ENDCHAR
STARTCHAR 00A0
ENCODING 160
SWIDTH 180 0
DWIDTH 4 0
BBX 0 0 0 0
BITMAP
ENDCHAR
STARTCHAR 00A1
ENCODING 161
SWIDTH 360 0
DWIDTH 8 0
BBX 3 16 3 -4
BITMAP
E0
E0
E0
00
E0
E0
E0
E0
E0
E0
E0
E0
E0
E0
E0
E0
ENDCHAR
STARTCHAR 00A2
ENCODING 162
SWIDTH 585 0
DWIDTH 13 0
BBX 11 17 1 -1
BITMAP
0600
0600
1F00
3FC0
7FE0
F1E0
E080
E000
E000
E000
F0C0
71E0
7FC0
3FC0
0E00
0600
0600
ENDCHAR
STARTCHAR 00A3
ENCODING 163
SWIDTH 585 0
DWIDTH 13 0
BBX 11 16 1 0
BITMAP
0F00
1F80
3FC0
39E0
38C0
3800
3800
FF00
FF00
FF00
3800
3800
7800
FFC0
FFC0
FFC0
ENDCHAR
STARTCHAR 00A4
ENCODING 164
SWIDTH 675 0
DWIDTH 15 0
BBX 13 14 1 1
BITMAP
4010
EFB8
FFF8
7FF0
7070
7070
6030
6030
7030
7070
7FF0
FFF8
EFB8
4010
ENDCHAR
STARTCHAR 00A5
ENCODING 165
SWIDTH 630 0
DWIDTH 14 0
BBX 14 16 0 0
BITMAP
F03C
7038
7878
3CF0
1CE0
1FE0
0FC0
0FC0
3FF0
3FF0
0780
0780
3FF0
3FF0
0780
0780
ENDCHAR
STARTCHAR 00A6
ENCODING 166
SWIDTH 315 0
DWIDTH 7 0
BBX 3 21 2 -5
BITMAP
E0
E0
E0
E0
E0
E0
E0
E0
E0
00
00
00
E0
E0
E0
E0
E0
E0
E0
E0
E0
ENDCHAR
STARTCHAR 00A7
ENCODING 167
SWIDTH 540 0
DWIDTH 12 0
BBX 10 18 1 -3
BITMAP
0C00
7F00
7F80
E380
E000
7C00
7F80
7FC0
E1C0
E1C0
FFC0
7F80
1FC0
01C0
F1C0
7FC0
7F80
1F00
ENDCHAR
STARTCHAR 00A8
ENCODING 168
SWIDTH 585 0
DWIDTH 13 0
BBX 7 3 3 18
BITMAP
CE
CE
CE
ENDCHAR
STARTCHAR 00A9
ENCODING 169
SWIDTH 900 0
DWIDTH 20 0
BBX 19 20 1 -2
BITMAP
01F000
0FFC00
1FFE00
3E0F00
780780
71F3C0
E3F9C0
E739C0
E610E0
E600E0
C600E0
E600E0
E739C0
E3F9C0
71F3C0
780780
3E0F00
1FFE00
0FFC00
01F000
ENDCHAR
STARTCHAR 00AA
ENCODING 170
SWIDTH 315 0
DWIDTH 7 0
BBX 5 6 1 6
BITMAP
78
D8
78
C8
98
F8
ENDCHAR
STARTCHAR 00AB
ENCODING 171
SWIDTH 585 0
DWIDTH 13 0
BBX 10 10 2 1
BITMAP
1080
19C0
3180
7300
E700
E600
6300
3380
19C0
1080
ENDCHAR
STARTCHAR 00AC
ENCODING 172
SWIDTH 585 0
DWIDTH 13 0
BBX 11 5 1 4
BITMAP
FFE0
FFE0
0060
0060
0060
ENDCHAR
STARTCHAR 00AD
ENCODING 173
SWIDTH 405 0
DWIDTH 9 0
BBX 7 2 1 6
BITMAP
FE
FE
ENDCHAR
STARTCHAR 00AE
ENCODING 174
SWIDTH 675 0
DWIDTH 15 0
BBX 11 12 2 6
BITMAP
1E00
3F80
71C0
E0E0
CE60
C960
CE60
CA60
CAE0
61C0
7F80
1F00
ENDCHAR
STARTCHAR 00AF
ENCODING 175
SWIDTH 495 0
DWIDTH 11 0
BBX 6 2 3 19
BITMAP
FC
FC
ENDCHAR
STARTCHAR 00B0
ENCODING 176
SWIDTH 450 0
DWIDTH 10 0
BBX 8 8 1 8
BITMAP
3C
7E
FE
C7
C7
FE
7E
3C
ENDCHAR
STARTCHAR 00B1
ENCODING 177
SWIDTH 585 0
DWIDTH 13 0
BBX 11 11 1 1
BITMAP
0E00
0E00
0E00
FFE0
FFE0
0E00
0E00
0000
0000
FFE0
FFE0
ENDCHAR
STARTCHAR 00B2
ENCODING 178
SWIDTH 405 0
DWIDTH 9 0
BBX 7 10 1 6
BITMAP
3C
7E
C6
06
06
1C
38
70
FE
FE
ENDCHAR
STARTCHAR 00B3
ENCODING 179
SWIDTH 405 0
DWIDTH 9 0
BBX 7 10 1 6
BITMAP
FE
FE
0C
38
3C
2C
06
C6
FC
78
ENDCHAR
STARTCHAR 00B4
ENCODING 180
SWIDTH 540 0
DWIDTH 12 0
BBX 4 4 5 18
BITMAP
70
60
E0
C0
ENDCHAR
STARTCHAR 00B5
ENCODING 181
SWIDTH 630 0
DWIDTH 14 0
BBX 11 17 2 -5
BITMAP
E0E0
E0E0
E0E0
E0E0
E0E0
E0E0
E0E0
E0E0
E1E0
FFE0
FFE0
FEE0
C000
C000
C000
C000
C000
ENDCHAR
STARTCHAR 00B6
ENCODING 182
SWIDTH 720 0
DWIDTH 16 0
BBX 15 19 1 -3
BITMAP
1F8E
7F8E
FF8E
FF8E
FF8E
FF8E
FF8E
FF8E
7F8E
3F8E
0F8E
038E
038E
038E
038E
038E
038E
038E
038E
ENDCHAR
STARTCHAR 00B7
ENCODING 183
SWIDTH 270 0
DWIDTH 6 0
BBX 4 4 1 5
BITMAP
20
F0
F0
60
ENDCHAR
STARTCHAR 00B8
ENCODING 184
SWIDTH 405 0
DWIDTH 9 0
BBX 4 6 3 -5
BITMAP
60
40
E0
30
E0
E0
ENDCHAR
STARTCHAR 00B9
ENCODING 185
SWIDTH 360 0
DWIDTH 8 0
BBX 4 10 1 6
BITMAP
70
F0
B0
30
30
30
30
30
30
30
ENDCHAR
STARTCHAR 00BA
ENCODING 186
SWIDTH 360 0
DWIDTH 8 0
BBX 6 6 1 6
BITMAP
78
DC
CC
CC
DC
78
ENDCHAR
STARTCHAR 00BB
ENCODING 187
SWIDTH 585 0
DWIDTH 13 0
BBX 10 10 1 1
BITMAP
4200
E700
7380
3980
18C0
18C0
3980
7380
6700
4200
ENDCHAR
STARTCHAR 00BC
ENCODING 188
SWIDTH 1035 0
DWIDTH 23 0
BBX 20 16 1 0
BITMAP
700200
F00700
F00600
300C00
301C00
303800
3030C0
306180
30E180
30C300
018360
038760
070660
0607F0
0C07F0
0C0060
ENDCHAR
STARTCHAR 00BD
ENCODING 189
SWIDTH 1035 0
DWIDTH 23 0
BBX 21 16 1 0
BITMAP
700200
F00700
F00600
300C00
301C00
303800
3030E0
3063F0
30E318
31C018
018038
038070
0700E0
0601C0
0C03F8
0403F8
ENDCHAR
STARTCHAR 00BE
ENCODING 190
SWIDTH 1035 0
DWIDTH 23 0
BBX 21 16 1 0
BITMAP
FE0100
FE0180
0C0300
380700
3C0E00
2C0C00
061860
C638C0
FC30C0
786180
00E1B0
01C3B0
018330
0303F8
0703F8
020030
ENDCHAR
STARTCHAR 00BF
ENCODING 191
SWIDTH 585 0
DWIDTH 13 0
BBX 10 16 1 -4
BITMAP
0E00
0E00
0E00
0000
0E00
0E00
1E00
3C00
7800
7000
E000
E1C0
F1C0
7FC0
7F80
1F00
ENDCHAR
STARTCHAR 00C0
ENCODING 192
SWIDTH 675 0
DWIDTH 15 0
BBX 14 22 1 0
BITMAP
0C00
0C00
0E00
0600
0000
0000
0F80
0F80
0FC0
1DC0
1DC0
1DE0
3CE0
38E0
38E0
7870
7FF0
7FF0
7FF8
E038
E038
E03C
ENDCHAR
STARTCHAR 00C1
ENCODING 193
SWIDTH 675 0
DWIDTH 15 0
BBX 14 22 1 0
BITMAP
01C0
0180
0180
0300
0000
0000
0F80
0F80
0FC0
1DC0
1DC0
1DE0
38E0
38E0
38E0
7870
7FF0
7FF0
7FF8
E038
E038
E03C
ENDCHAR
STARTCHAR 00C2
ENCODING 194
SWIDTH 675 0
DWIDTH 15 0
BBX 14 21 1 0
BITMAP
0700
0F80
1DC0
38E0
0000
0F80
0F80
0FC0
1DC0
1DC0
1DE0
38E0
38E0
38E0
7870
7FF0
7FF0
7FF8
E038
E038
E03C
ENDCHAR
STARTCHAR 00C3
ENCODING 195
SWIDTH 675 0
DWIDTH 15 0
BBX 14 22 1 0
BITMAP
1C00
1F60
13E0
01C0
0000
0000
0F80
0F80
0FC0
1DC0
1DC0
1DE0
38E0
38E0
38E0
7870
7FF0
7FF0
7FF8
E038
E038
E03C
ENDCHAR
STARTCHAR 00C4
ENCODING 196
SWIDTH 675 0
DWIDTH 15 0
BBX 14 21 1 0
BITMAP
1CC0
1CC0
1CC0
0000
0000
0F80
0F80
0FC0
1DC0
1DC0
1DE0
38E0
38E0
38E0
7870
7FF0
7FF0
7FF8
E038
E038
E03C
ENDCHAR
STARTCHAR 00C5
ENCODING 197
SWIDTH 675 0
DWIDTH 15 0
BBX 14 23 1 0
BITMAP
0700
0F80
08C0
0CC0
0F80
0700
0000
0F80
0F80
0FC0
1DC0
1DC0
1DE0
38E0
38E0
38E0
7870
7FF0
7FF0
7FF8
E038
E038
E03C
ENDCHAR
STARTCHAR 00C6
ENCODING 198
SWIDTH 945 0
DWIDTH 21 0
BBX 19 16 1 0
BITMAP
0FFFE0
0FFFE0
0FFFE0
1CE000
1CE000
1CE000
38FFC0
38FFC0
38FFC0
78E000
7FE000
7FE000
7FE000
E0FFE0
E0FFE0
E0FFE0
ENDCHAR
STARTCHAR 00C7
ENCODING 199
SWIDTH 765 0
DWIDTH 17 0
BBX 15 21 1 -5
BITMAP
0FC0
1FF0
3FF8
783C
F01C
E008
E000
E000
E000
E000
E000
F01E
783C
7FF8
3FF0
0FE0
0300
0380
01C0
0380
0380
ENDCHAR
STARTCHAR 00C8
ENCODING 200
SWIDTH 585 0
DWIDTH 13 0
BBX 10 22 2 0
BITMAP
3000
1800
1800
1C00
0000
0000
FFC0
FFC0
FFC0
E000
E000
E000
FF80
FF80
FF80
E000
E000
E000
E000
FFC0
FFC0
FFC0
ENDCHAR
STARTCHAR 00C9
ENCODING 201
SWIDTH 585 0
DWIDTH 13 0
BBX 10 22 2 0
BITMAP
0300
0600
0600
0E00
0000
0000
FFC0
FFC0
FFC0
E000
E000
E000
FF80
FF80
FF80
E000
E000
E000
E000
FFC0
FFC0
FFC0
ENDCHAR
STARTCHAR 00CA
ENCODING 202
SWIDTH 585 0
DWIDTH 13 0
BBX 10 21 2 0
BITMAP
1C00
3E00
7700
E380
0000
FFC0
FFC0
FFC0
E000
E000
E000
FF80
FF80
FF80
E000
E000
E000
E000
FFC0
FFC0
FFC0
ENDCHAR
STARTCHAR 00CB
ENCODING 203
SWIDTH 585 0
DWIDTH 13 0
BBX 10 21 2 0
BITMAP
7300
7300
7300
0000
0000
FFC0
FFC0
FFC0
E000
E000
E000
FF80
FF80
FF80
E000
E000
E000
E000
FFC0
FFC0
FFC0
ENDCHAR
STARTCHAR 00CC
ENCODING 204
SWIDTH 315 0
DWIDTH 7 0
BBX 5 22 0 0
BITMAP
E0
60
70
30
00
00
38
38
38
38
38
38
38
38
38
38
38
38
38
38
38
38
ENDCHAR
STARTCHAR 00CD
ENCODING 205
SWIDTH 315 0
DWIDTH 7 0
BBX 4 22 2 0
BITMAP
30
70
60
60
00
00
E0
E0
E0
E0
E0
E0
E0
E0
E0
E0
E0
E0
E0
E0
E0
E0
ENDCHAR
STARTCHAR 00CE
ENCODING 206
SWIDTH 315 0
DWIDTH 7 0
BBX 9 21 -1 0
BITMAP
1C00
3E00
7700
E380
0000
1C00
1C00
1C00
1C00
1C00
1C00
1C00
1C00
1C00
1C00
1C00
1C00
1C00
1C00
1C00
1C00
ENDCHAR
STARTCHAR 00CF
ENCODING 207
SWIDTH 315 0
DWIDTH 7 0
BBX 7 21 0 0
BITMAP
CE
CE
CE
00
00
38
38
38
38
38
38
38
38
38
38
38
38
38
38
38
38
ENDCHAR
STARTCHAR 00D0
ENCODING 208
SWIDTH 720 0
DWIDTH 16 0
BBX 15 16 0 0
BITMAP
3FC0
3FF0
3FF8
383C
381C
381C
381E
FF0E
FF0E
381E
381C
381C
383C
3FF8
3FF0
3FC0
ENDCHAR
STARTCHAR 00D1
ENCODING 209
SWIDTH 720 0
DWIDTH 16 0
BBX 13 21 2 0
BITMAP
1CC0
3FC0
33C0
0000
0000
E038
F038
F038
F838
FC38
FC38
FE38
EE38
E738
E7B8
E3B8
E1F8
E1F8
E0F8
E078
E078
ENDCHAR
STARTCHAR 00D2
ENCODING 210
SWIDTH 765 0
DWIDTH 17 0
BBX 15 22 1 0
BITMAP
0C00
0600
0600
0700
0300
0000
0FC0
1FF0
3FF8
783C
F01E
E00E
E00E
E00E
E00E
E00E
E00E
F01E
783C
7FF8
1FF0
0FC0
ENDCHAR
STARTCHAR 00D3
ENCODING 211
SWIDTH 765 0
DWIDTH 17 0
BBX 15 22 1 0
BITMAP
00C0
00C0
01C0
0180
0380
0000
0FC0
1FF0
3FF8
783C
F01E
E00E
E00E
E00E
E00E
E00E
E00E
F01E
783C
7FF8
1FF0
0FC0
ENDCHAR
STARTCHAR 00D4
ENCODING 212
SWIDTH 765 0
DWIDTH 17 0
BBX 15 21 1 0
BITMAP
0380
07C0
0EE0
1C70
0000
0FC0
1FF0
3FF8
783C
F01E
E00E
E00E
E00E
E00E
E00E
E00E
F01E
783C
7FF8
1FF0
0FC0
ENDCHAR
STARTCHAR 00D5
ENCODING 213
SWIDTH 765 0
DWIDTH 17 0
BBX 15 21 1 0
BITMAP
0E00
0FB0
19F0
00E0
0000
0FC0
1FF0
3FF8
783C
F01E
E00E
E00E
E00E
E00E
E00E
E00E
F01E
783C
7FF8
1FF0
0FC0
ENDCHAR
STARTCHAR 00D6
ENCODING 214
SWIDTH 765 0
DWIDTH 17 0
BBX 15 20 1 0
BITMAP
0CE0
0CE0
0CE0
0000
0FC0
1FF0
3FF8
783C
F01E
E00E
E00E
E00E
E00E
E00E
E00E
F01E
783C
7FF8
1FF0
0FC0
ENDCHAR
STARTCHAR 00D7
ENCODING 215
SWIDTH 495 0
DWIDTH 11 0
BBX 9 9 1 4
BITMAP
0100
6380
7700
3E00
1C00
3E00
7700
E380
4100
ENDCHAR
STARTCHAR 00D8
ENCODING 216
SWIDTH 765 0
DWIDTH 17 0
BBX 15 16 1 0
BITMAP
0FC4
1FFE
3FFE
783C
F07E
E0FE
E1EE
E3CE
E78E
EF0E
FE0E
FC1E
783C
7FF8
7FF0
2FC0
ENDCHAR
STARTCHAR 00D9
ENCODING 217
SWIDTH 720 0
DWIDTH 16 0
BBX 13 22 2 0
BITMAP
1C00
0C00
0E00
0600
0000
0000
E078
E078
E078
E078
E078
E078
E078
E078
E078
E078
E078
E070
F0F0
7FE0
3FE0
1F80
ENDCHAR
STARTCHAR 00DA
ENCODING 218
SWIDTH 720 0
DWIDTH 16 0
BBX 13 22 2 0
BITMAP
0180
0300
0300
0700
0000
0000
E078
E078
E078
E078
E078
E078
E078
E078
E078
E078
E078
E070
F0F0
7FE0
3FE0
1F80
ENDCHAR
STARTCHAR 00DB
ENCODING 219
SWIDTH 720 0
DWIDTH 16 0
BBX 13 21 2 0
BITMAP
0F00
1F80
1980
30C0
0000
E078
E078
E078
E078
E078
E078
E078
E078
E078
E078
E078
E070
F0F0
7FE0
3FE0
1F80
ENDCHAR
STARTCHAR 00DC
ENCODING 220
SWIDTH 720 0
DWIDTH 16 0
BBX 13 21 2 0
BITMAP
39C0
39C0
39C0
0000
0000
E078
E078
E078
E078
E078
E078
E078
E078
E078
E078
E078
E070
F0F0
7FE0
3FE0
1F80
ENDCHAR
STARTCHAR 00DD
ENCODING 221
SWIDTH 630 0
DWIDTH 14 0
BBX 14 22 0 0
BITMAP
01C0
0180
0180
0300
0000
0000
F03C
7038
7878
3CF0
1CE0
1FE0
0FC0
0FC0
0780
0780
0780
0780
0780
0780
0780
0780
ENDCHAR
STARTCHAR 00DE
ENCODING 222
SWIDTH 630 0
DWIDTH 14 0
BBX 12 16 2 0
BITMAP
E000
E000
E000
FF80
FFC0
FFE0
E0E0
E0F0
E0F0
E0E0
FFE0
FFC0
FF80
E000
E000
E000
ENDCHAR
STARTCHAR 00DF
ENCODING 223
SWIDTH 630 0
DWIDTH 14 0
BBX 11 16 2 0
BITMAP
3E00
7F00
FF80
E3C0
E1C0
E1C0
E780
E780
E7C0
E1E0
E0E0
E0E0
E1E0
EFE0
EFC0
EF80
ENDCHAR
STARTCHAR 00E0
ENCODING 224
SWIDTH 585 0
DWIDTH 13 0
BBX 11 17 1 0
BITMAP
1800
1C00
0C00
0E00
0000
1F00
7FC0
7FC0
20E0
1FE0
7FE0
FCE0
E1E0
E1E0
F7E0
7FE0
3CE0
ENDCHAR
STARTCHAR 00E1
ENCODING 225
SWIDTH 585 0
DWIDTH 13 0
BBX 11 17 1 0
BITMAP
0300
0300
0600
0600
0000
1F00
7FC0
7FC0
20E0
1FE0
7FE0
FCE0
E1E0
E1E0
F7E0
7FE0
3CE0
ENDCHAR
STARTCHAR 00E2
ENCODING 226
SWIDTH 585 0
DWIDTH 13 0
BBX 11 17 1 0
BITMAP
0E00
1F00
3B80
71C0
0000
1F00
7FC0
7FC0
20E0
1FE0
7FE0
FCE0
E1E0
E1E0
F7E0
7FE0
3CE0
ENDCHAR
STARTCHAR 00E3
ENCODING 227
SWIDTH 585 0
DWIDTH 13 0
BBX 11 17 1 0
BITMAP
3C00
3EC0
37C0
0380
0000
1F00
7FC0
7FC0
20E0
1FE0
7FE0
FCE0
E1E0
E1E0
E3E0
7FE0
3CE0
ENDCHAR
STARTCHAR 00E4
ENCODING 228
SWIDTH 585 0
DWIDTH 13 0
BBX 11 16 1 0
BITMAP
3980
3980
3980
0000
1F00
7FC0
7FC0
20E0
1FE0
7FE0
FCE0
E1E0
E1E0
F7E0
7FE0
3CE0
ENDCHAR
STARTCHAR 00E5
ENCODING 229
SWIDTH 585 0
DWIDTH 13 0
BBX 11 19 1 0
BITMAP
0E00
1F00
1980
1180
1F00
0E00
0000
1F00
7FC0
7FC0
20E0
1FE0
7FE0
FCE0
E1E0
E1E0
F7E0
7FE0
3CE0
ENDCHAR
STARTCHAR 00E6
ENCODING 230
SWIDTH 945 0
DWIDTH 21 0
BBX 19 12 1 0
BITMAP
1F1F00
3FFF80
7FFFC0
61E0C0
00E0E0
1FFFE0
7FFFE0
F0E000
E1F1C0
F3FFC0
FF3F80
3E1F00
ENDCHAR
STARTCHAR 00E7
ENCODING 231
SWIDTH 585 0
DWIDTH 13 0
BBX 11 17 1 -5
BITMAP
1F00
3FC0
7FE0
F0E0
E080
E000
E000
E000
F0E0
7FE0
3FC0
1F80
0600
0F00
0300
0F00
0E00
ENDCHAR
STARTCHAR 00E8
ENCODING 232
SWIDTH 630 0
DWIDTH 14 0
BBX 12 18 1 0
BITMAP
1800
1C00
0C00
0E00
0600
0000
1F00
3FC0
7FE0
F0E0
E0E0
FFF0
FFF0
E000
F0E0
7FE0
3FC0
1F80
ENDCHAR
STARTCHAR 00E9
ENCODING 233
SWIDTH 630 0
DWIDTH 14 0
BBX 12 18 1 0
BITMAP
0180
0380
0300
0300
0600
0000
1F00
3FC0
7FE0
F0E0
E0E0
FFF0
FFF0
E000
F0E0
7FE0
3FC0
1F80
ENDCHAR
STARTCHAR 00EA
ENCODING 234
SWIDTH 630 0
DWIDTH 14 0
BBX 12 17 1 0
BITMAP
0F00
1F00
3980
31C0
0000
1F00
3FC0
7FE0
F0E0
E0E0
FFF0
FFF0
E000
F0E0
7FE0
3FC0
1F80
ENDCHAR
STARTCHAR 00EB
ENCODING 235
SWIDTH 630 0
DWIDTH 14 0
BBX 12 16 1 0
BITMAP
39C0
39C0
39C0
0000
1F00
3FC0
7FE0
F0E0
E0E0
FFF0
FFF0
E000
F0E0
7FE0
3FC0
1F80
ENDCHAR
STARTCHAR 00EC
ENCODING 236
SWIDTH 315 0
DWIDTH 7 0
BBX 5 18 0 0
BITMAP
E0
60
70
30
00
00
38
38
38
38
38
38
38
38
38
38
38
38
ENDCHAR
STARTCHAR 00ED
ENCODING 237
SWIDTH 315 0
DWIDTH 7 0
BBX 4 18 2 0
BITMAP
30
70
60
60
00
00
E0
E0
E0
E0
E0
E0
E0
E0
E0
E0
E0
E0
ENDCHAR
STARTCHAR 00EE
ENCODING 238
SWIDTH 315 0
DWIDTH 7 0
BBX 9 17 -1 0
BITMAP
1C00
3E00
7700
E380
0000
1C00
1C00
1C00
1C00
1C00
1C00
1C00
1C00
1C00
1C00
1C00
1C00
ENDCHAR
STARTCHAR 00EF
ENCODING 239
SWIDTH 315 0
DWIDTH 7 0
BBX 7 17 0 0
BITMAP
CE
CE
CE
00
00
38
38
38
38
38
38
38
38
38
38
38
38
ENDCHAR
STARTCHAR 00F0
ENCODING 240
SWIDTH 585 0
DWIDTH 13 0
BBX 11 17 1 0
BITMAP
0C80
0FC0
0F80
07C0
06C0
0EE0
3FE0
7FE0
F1E0
E0E0
E0E0
E0E0
E0E0
F0E0
7FE0
3FC0
1F00
ENDCHAR
STARTCHAR 00F1
ENCODING 241
SWIDTH 630 0
DWIDTH 14 0
BBX 11 17 2 0
BITMAP
3980
7F80
6780
0000
0000
CF00
FFC0
FFC0
E1E0
E1E0
E0E0
E0E0
E0E0
E0E0
E0E0
E0E0
E0E0
ENDCHAR
STARTCHAR 00F2
ENCODING 242
SWIDTH 630 0
DWIDTH 14 0
BBX 12 18 1 0
BITMAP
1800
1C00
0C00
0C00
0600
0000
1F80
3FC0
7FE0
F0F0
E070
E070
E070
E070
F0F0
7FE0
3FC0
1F80
ENDCHAR
STARTCHAR 00F3
ENCODING 243
SWIDTH 630 0
DWIDTH 14 0
BBX 12 18 1 0
BITMAP
0180
0300
0300
0700
0600
0000
1F80
3FC0
7FE0
F0F0
E070
E070
E070
E070
F0F0
7FE0
3FC0
1F80
ENDCHAR
STARTCHAR 00F4
ENCODING 244
SWIDTH 630 0
DWIDTH 14 0
BBX 12 17 1 0
BITMAP
0F00
1F00
1980
31C0
0000
1F80
3FC0
7FE0
F0F0
E070
E070
E070
E070
F0F0
7FE0
3FC0
1F80
ENDCHAR
STARTCHAR 00F5
ENCODING 245
SWIDTH 630 0
DWIDTH 14 0
BBX 12 17 1 0
BITMAP
3C00
3EC0
37C0
0380
0000
1F80
3FC0
7FE0
F0F0
E070
E070
E070
E070
F0F0
7FE0
3FC0
1F80
ENDCHAR
STARTCHAR 00F6
ENCODING 246
SWIDTH 630 0
DWIDTH 14 0
BBX 12 16 1 0
BITMAP
39C0
39C0
39C0
0000
1F80
3FC0
7FE0
F0F0
E070
E070
E070
E070
F0F0
7FE0
3FC0
1F80
ENDCHAR
STARTCHAR 00F7
ENCODING 247
SWIDTH 540 0
DWIDTH 12 0
BBX 10 10 1 3
BITMAP
0C00
0C00
0C00
0000
FFC0
FFC0
0000
0C00
0C00
0C00
ENDCHAR
STARTCHAR 00F8
ENCODING 248
SWIDTH 630 0
DWIDTH 14 0
BBX 12 12 1 0
BITMAP
1F20
3FF0
7FF0
F1F0
E3F0
E770
EE70
FC70
F8F0
FFE0
FFC0
5F80
ENDCHAR
STARTCHAR 00F9
ENCODING 249
SWIDTH 630 0
DWIDTH 14 0
BBX 12 18 1 0
BITMAP
1800
0C00
0C00
0E00
0000
0000
E070
E070
E070
E070
E070
E070
E070
F0F0
70F0
7FF0
7FF0
1E70
ENDCHAR
STARTCHAR 00FA
ENCODING 250
SWIDTH 630 0
DWIDTH 14 0
BBX 12 18 1 0
BITMAP
0380
0300
0700
0600
0000
0000
E070
E070
E070
E070
E070
E070
E070
F0F0
70F0
7FF0
7FF0
1E70
ENDCHAR
STARTCHAR 00FB
ENCODING 251
SWIDTH 630 0
DWIDTH 14 0
BBX 12 17 1 0
BITMAP
0F00
1F00
3980
31C0
0000
E070
E070
E070
E070
E070
E070
E070
F0F0
70F0
7FF0
7FF0
1E70
ENDCHAR
STARTCHAR 00FC
ENCODING 252
SWIDTH 630 0
DWIDTH 14 0
BBX 12 17 1 0
BITMAP
39C0
39C0
39C0
0000
0000
E070
E070
E070
E070
E070
E070
E070
F0F0
70F0
7FF0
7FF0
1E70
ENDCHAR
STARTCHAR 00FD
ENCODING 253
SWIDTH 585 0
DWIDTH 13 0
BBX 12 23 0 -5
BITMAP
0180
0180
0300
0300
0000
0000
F070
7070
7070
38E0
38E0
38E0
1DC0
1DC0
0F80
0F80
0F80
0700
0700
0E00
0E00
0E00
1C00
ENDCHAR
STARTCHAR 00FE
ENCODING 254
SWIDTH 630 0
DWIDTH 14 0
BBX 11 21 2 -5
BITMAP
E000
E000
E000
E000
FF00
FF80
FFC0
E1E0
C0E0
C0E0
C0E0
C0E0
E1C0
FFC0
FF80
FF00
E000
E000
E000
E000
E000
ENDCHAR
STARTCHAR 00FF
ENCODING 255
SWIDTH 585 0
DWIDTH 13 0
BBX 12 22 0 -5
BITMAP
19C0
19C0
19C0
0000
0000
F070
7070
7070
38E0
38E0
38E0
1DC0
1DC0
0F80
0F80
0F80
0700
0700
0E00
0E00
0E00
1C00
ENDCHAR
ENDFONT
