STARTFONT 2.1
COMMENT
COMMENT Converted from OpenType font "manrope-extrabold.otf" by "otf2bdf 3.0".
COMMENT
FONT -FreeType-Manrope ExtraBold-Medium-R-Normal--14-100-100-100-P-69-ISO10646-1
SIZE 10 100 100
FONTBOUNDINGBOX 14 17 0 -3
STARTPROPERTIES 19
FOUNDRY "FreeType"
FAMILY_NAME "Manrope ExtraBold"
WEIGHT_NAME "Medium"
SLANT "R"
SETWIDTH_NAME "Normal"
ADD_STYLE_NAME ""
PIXEL_SIZE 14
POINT_SIZE 100
RESOLUTION_X 100
RESOLUTION_Y 100
SPACING "P"
AVERAGE_WIDTH 69
CHARSET_REGISTRY "ISO10646"
CHARSET_ENCODING "1"
FONT_ASCENT 14
FONT_DESCENT 4
COPYRIGHT "Copyright 2019-2021 The Manrope Project Authors (https://github.com/sharanda/manrope)"
_OTF_FONTFILE "manrope-extrabold.otf"
_OTF_PSNAME "Manrope-ExtraBold"
ENDPROPERTIES
CHARS 191
STARTCHAR 0020
ENCODING 32
SWIDTH 216 0
DWIDTH 3 0
BBX 0 0 0 0
BITMAP
ENDCHAR
STARTCHAR 0021
ENCODING 33
SWIDTH 360 0
DWIDTH 5 0
BBX 2 10 2 0
BITMAP
C0
C0
C0
C0
C0
C0
C0
C0
C0
C0
ENDCHAR
STARTCHAR 0022
ENCODING 34
SWIDTH 504 0
DWIDTH 7 0
BBX 4 3 1 7
BITMAP
D0
D0
D0
ENDCHAR
STARTCHAR 0023
ENCODING 35
SWIDTH 936 0
DWIDTH 13 0
BBX 11 10 1 0
BITMAP
0D80
0D80
7FE0
7FE0
1B00
FFC0
FFC0
3600
3600
2600
ENDCHAR
STARTCHAR 0024
ENCODING 36
SWIDTH 648 0
DWIDTH 9 0
BBX 7 12 1 -1
BITMAP
10
7C
FE
C6
C0
7C
3E
06
C6
FE
7C
10
ENDCHAR
STARTCHAR 0025
ENCODING 37
SWIDTH 936 0
DWIDTH 13 0
BBX 11 10 1 0
BITMAP
70C0
F9C0
DB80
F700
2E00
1C80
3BC0
7260
E3C0
41C0
ENDCHAR
STARTCHAR 0026
ENCODING 38
SWIDTH 648 0
DWIDTH 9 0
BBX 8 10 1 0
BITMAP
78
FC
C0
C0
60
FE
DE
CE
FF
7E
ENDCHAR
STARTCHAR 0027
ENCODING 39
SWIDTH 288 0
DWIDTH 4 0
BBX 2 3 1 7
BITMAP
C0
C0
C0
ENDCHAR
STARTCHAR 0028
ENCODING 40
SWIDTH 432 0
DWIDTH 6 0
BBX 4 15 2 -3
BITMAP
20
60
60
40
C0
C0
C0
C0
C0
C0
C0
60
60
30
20
ENDCHAR
STARTCHAR 0029
ENCODING 41
SWIDTH 432 0
DWIDTH 6 0
BBX 3 14 1 -3
BITMAP
80
C0
40
60
60
20
20
20
20
20
60
60
C0
C0
ENDCHAR
STARTCHAR 002A
ENCODING 42
SWIDTH 504 0
DWIDTH 7 0
BBX 6 5 0 5
BITMAP
30
78
FC
78
68
ENDCHAR
STARTCHAR 002B
ENCODING 43
SWIDTH 576 0
DWIDTH 8 0
BBX 6 6 1 2
BITMAP
30
30
FC
30
30
30
ENDCHAR
STARTCHAR 002C
ENCODING 44
SWIDTH 288 0
DWIDTH 4 0
BBX 2 4 1 -2
BITMAP
C0
C0
40
80
ENDCHAR
STARTCHAR 002D
ENCODING 45
SWIDTH 432 0
DWIDTH 6 0
BBX 4 1 1 4
BITMAP
F0
ENDCHAR
STARTCHAR 002E
ENCODING 46
SWIDTH 288 0
DWIDTH 4 0
BBX 2 2 1 0
BITMAP
C0
C0
ENDCHAR
STARTCHAR 002F
ENCODING 47
SWIDTH 432 0
DWIDTH 6 0
BBX 4 10 1 0
BITMAP
30
30
30
20
60
60
60
C0
C0
C0
ENDCHAR
STARTCHAR 0030
ENCODING 48
SWIDTH 648 0
DWIDTH 9 0
BBX 7 10 1 0
BITMAP
3C
7E
C6
C6
C6
C6
C6
C6
7E
3C
ENDCHAR
STARTCHAR 0031
ENCODING 49
SWIDTH 432 0
DWIDTH 6 0
BBX 4 10 1 0
BITMAP
70
F0
B0
30
30
30
30
30
30
30
ENDCHAR
STARTCHAR 0032
ENCODING 50
SWIDTH 576 0
DWIDTH 8 0
BBX 7 10 1 0
BITMAP
78
FC
C6
06
0C
1C
38
60
FE
FE
ENDCHAR
STARTCHAR 0033
ENCODING 51
SWIDTH 576 0
DWIDTH 8 0
BBX 6 10 1 0
BITMAP
FC
FC
18
30
3C
0C
0C
CC
FC
78
ENDCHAR
STARTCHAR 0034
ENCODING 52
SWIDTH 648 0
DWIDTH 9 0
BBX 7 10 1 0
BITMAP
18
30
30
60
6C
EC
CC
FE
FE
0C
ENDCHAR
STARTCHAR 0035
ENCODING 53
SWIDTH 576 0
DWIDTH 8 0
BBX 6 10 1 0
BITMAP
FC
FC
C0
F0
FC
0C
04
CC
FC
78
ENDCHAR
STARTCHAR 0036
ENCODING 54
SWIDTH 648 0
DWIDTH 9 0
BBX 7 10 1 0
BITMAP
3C
7C
C0
D8
FC
C6
C6
C6
7C
38
ENDCHAR
STARTCHAR 0037
ENCODING 55
SWIDTH 576 0
DWIDTH 8 0
BBX 6 10 1 0
BITMAP
FC
FC
0C
18
18
30
30
70
60
60
ENDCHAR
STARTCHAR 0038
ENCODING 56
SWIDTH 648 0
DWIDTH 9 0
BBX 7 10 1 0
BITMAP
78
FC
CE
CC
7C
FC
C6
C6
FC
78
ENDCHAR
STARTCHAR 0039
ENCODING 57
SWIDTH 648 0
DWIDTH 9 0
BBX 7 10 1 0
BITMAP
78
FC
CC
C6
CE
FE
36
06
7C
78
ENDCHAR
STARTCHAR 003A
ENCODING 58
SWIDTH 360 0
DWIDTH 5 0
BBX 1 6 2 1
BITMAP
80
80
00
00
80
80
ENDCHAR
STARTCHAR 003B
ENCODING 59
SWIDTH 360 0
DWIDTH 5 0
BBX 1 10 2 -2
BITMAP
80
80
00
00
00
00
80
80
80
80
ENDCHAR
STARTCHAR 003C
ENCODING 60
SWIDTH 648 0
DWIDTH 9 0
BBX 4 7 2 1
BITMAP
10
30
60
C0
60
30
10
ENDCHAR
STARTCHAR 003D
ENCODING 61
SWIDTH 720 0
DWIDTH 10 0
BBX 7 4 2 3
BITMAP
FE
00
00
FE
ENDCHAR
STARTCHAR 003E
ENCODING 62
SWIDTH 648 0
DWIDTH 9 0
BBX 4 7 3 1
BITMAP
80
C0
60
30
60
C0
80
ENDCHAR
STARTCHAR 003F
ENCODING 63
SWIDTH 576 0
DWIDTH 8 0
BBX 6 10 1 0
BITMAP
78
FC
CC
0C
1C
38
30
00
30
30
ENDCHAR
STARTCHAR 0040
ENCODING 64
SWIDTH 936 0
DWIDTH 13 0
BBX 11 10 1 -1
BITMAP
1F00
7B80
60C0
DF40
D360
D360
DB40
CFC0
6000
3E00
ENDCHAR
STARTCHAR 0041
ENCODING 65
SWIDTH 648 0
DWIDTH 9 0
BBX 9 10 0 0
BITMAP
1C00
1E00
1E00
3600
3300
3300
7F00
7F00
6180
C180
ENDCHAR
STARTCHAR 0042
ENCODING 66
SWIDTH 648 0
DWIDTH 9 0
BBX 7 10 1 0
BITMAP
FC
FE
C6
C6
FC
FE
C6
C6
FE
FC
ENDCHAR
STARTCHAR 0043
ENCODING 67
SWIDTH 720 0
DWIDTH 10 0
BBX 10 10 0 0
BITMAP
1F00
3F80
61C0
6000
C000
C000
6000
61C0
3F80
1F00
ENDCHAR
STARTCHAR 0044
ENCODING 68
SWIDTH 720 0
DWIDTH 10 0
BBX 8 10 1 0
BITMAP
FC
FE
C7
C3
C3
C3
C3
C7
FE
FC
ENDCHAR
STARTCHAR 0045
ENCODING 69
SWIDTH 576 0
DWIDTH 8 0
BBX 6 10 1 0
BITMAP
FC
FC
C0
C0
FC
FC
C0
C0
FC
FC
ENDCHAR
STARTCHAR 0046
ENCODING 70
SWIDTH 504 0
DWIDTH 7 0
BBX 6 10 1 0
BITMAP
FC
FC
C0
C0
F8
F8
C0
C0
C0
C0
ENDCHAR
STARTCHAR 0047
ENCODING 71
SWIDTH 720 0
DWIDTH 10 0
BBX 10 10 0 0
BITMAP
1F00
3F80
6180
6000
C000
C3C0
60C0
6180
3F80
1E00
ENDCHAR
STARTCHAR 0048
ENCODING 72
SWIDTH 720 0
DWIDTH 10 0
BBX 8 10 1 0
BITMAP
C3
C3
C3
C3
FF
FF
C3
C3
C3
C3
ENDCHAR
STARTCHAR 0049
ENCODING 73
SWIDTH 288 0
DWIDTH 4 0
BBX 2 10 1 0
BITMAP
C0
C0
C0
C0
C0
C0
C0
C0
C0
C0
ENDCHAR
STARTCHAR 004A
ENCODING 74
SWIDTH 504 0
DWIDTH 7 0
BBX 6 10 0 0
BITMAP
0C
0C
0C
0C
0C
0C
0C
4C
FC
78
ENDCHAR
STARTCHAR 004B
ENCODING 75
SWIDTH 648 0
DWIDTH 9 0
BBX 8 10 1 0
BITMAP
C7
CE
CC
D8
F0
F0
D8
CC
C6
C7
ENDCHAR
STARTCHAR 004C
ENCODING 76
SWIDTH 576 0
DWIDTH 8 0
BBX 6 10 1 0
BITMAP
C0
C0
C0
C0
C0
C0
C0
C0
FC
FC
ENDCHAR
STARTCHAR 004D
ENCODING 77
SWIDTH 864 0
DWIDTH 12 0
BBX 10 10 1 0
BITMAP
C0C0
C0C0
E1C0
E1C0
F3C0
F2C0
DEC0
DEC0
CCC0
CCC0
ENDCHAR
STARTCHAR 004E
ENCODING 78
SWIDTH 720 0
DWIDTH 10 0
BBX 8 10 1 0
BITMAP
C3
E3
F3
F3
DB
DB
CF
C7
C7
C3
ENDCHAR
STARTCHAR 004F
ENCODING 79
SWIDTH 792 0
DWIDTH 11 0
BBX 10 10 0 0
BITMAP
1F00
3F80
61C0
60C0
C0C0
C0C0
60C0
61C0
3F80
1F00
ENDCHAR
STARTCHAR 0050
ENCODING 80
SWIDTH 648 0
DWIDTH 9 0
BBX 8 10 1 0
BITMAP
FC
FE
C3
C3
C6
FE
FC
C0
C0
C0
ENDCHAR
STARTCHAR 0051
ENCODING 81
SWIDTH 792 0
DWIDTH 11 0
BBX 10 10 0 0
BITMAP
1F00
3F80
61C0
60C0
C0C0
C0C0
60C0
63C0
3FC0
1F80
ENDCHAR
STARTCHAR 0052
ENCODING 82
SWIDTH 648 0
DWIDTH 9 0
BBX 8 10 1 0
BITMAP
FC
FE
C3
C3
C6
FE
FC
CC
C6
C6
ENDCHAR
STARTCHAR 0053
ENCODING 83
SWIDTH 648 0
DWIDTH 9 0
BBX 8 10 1 0
BITMAP
7C
FE
C7
C0
7C
1E
03
C3
FE
3C
ENDCHAR
STARTCHAR 0054
ENCODING 84
SWIDTH 576 0
DWIDTH 8 0
BBX 8 10 0 0
BITMAP
FF
FF
18
18
18
18
18
18
18
18
ENDCHAR
STARTCHAR 0055
ENCODING 85
SWIDTH 720 0
DWIDTH 10 0
BBX 8 10 1 0
BITMAP
C3
C3
C3
C3
C3
C3
C3
C3
7E
3C
ENDCHAR
STARTCHAR 0056
ENCODING 86
SWIDTH 648 0
DWIDTH 9 0
BBX 9 10 0 0
BITMAP
C180
4180
6300
6300
6300
3600
3600
3600
1C00
1C00
ENDCHAR
STARTCHAR 0057
ENCODING 87
SWIDTH 1008 0
DWIDTH 14 0
BBX 13 10 0 0
BITMAP
C318
6718
6798
6798
67B0
3CB0
3CF0
3CE0
18E0
1860
ENDCHAR
STARTCHAR 0058
ENCODING 88
SWIDTH 648 0
DWIDTH 9 0
BBX 9 10 0 0
BITMAP
6380
7300
3600
1E00
1C00
1C00
3E00
3700
6300
E180
ENDCHAR
STARTCHAR 0059
ENCODING 89
SWIDTH 648 0
DWIDTH 9 0
BBX 8 10 0 0
BITMAP
C3
63
76
36
1C
1C
18
18
18
18
ENDCHAR
STARTCHAR 005A
ENCODING 90
SWIDTH 648 0
DWIDTH 9 0
BBX 8 10 1 0
BITMAP
FF
FE
0C
1C
18
38
30
60
FF
FF
ENDCHAR
STARTCHAR 005B
ENCODING 91
SWIDTH 432 0
DWIDTH 6 0
BBX 3 16 2 -3
BITMAP
E0
E0
C0
C0
C0
C0
C0
C0
C0
C0
C0
C0
C0
C0
E0
E0
ENDCHAR
STARTCHAR 005C
ENCODING 92
SWIDTH 432 0
DWIDTH 6 0
BBX 4 10 1 0
BITMAP
C0
C0
C0
60
60
60
20
30
30
30
ENDCHAR
STARTCHAR 005D
ENCODING 93
SWIDTH 432 0
DWIDTH 6 0
BBX 3 16 1 -3
BITMAP
E0
E0
60
60
60
60
60
60
60
60
60
60
60
60
E0
E0
ENDCHAR
STARTCHAR 005E
ENCODING 94
SWIDTH 720 0
DWIDTH 10 0
BBX 6 4 2 5
BITMAP
20
70
F8
CC
ENDCHAR
STARTCHAR 005F
ENCODING 95
SWIDTH 648 0
DWIDTH 9 0
BBX 9 1 0 -2
BITMAP
FF80
ENDCHAR
STARTCHAR 0060
ENCODING 96
SWIDTH 576 0
DWIDTH 8 0
BBX 3 3 2 11
BITMAP
C0
40
60
ENDCHAR
STARTCHAR 0061
ENCODING 97
SWIDTH 576 0
DWIDTH 8 0
BBX 6 8 1 0
BITMAP
78
FC
4C
7C
FC
8C
DC
F4
ENDCHAR
STARTCHAR 0062
ENCODING 98
SWIDTH 648 0
DWIDTH 9 0
BBX 7 10 1 0
BITMAP
C0
C0
F8
FC
C6
C6
C6
C6
FC
F8
ENDCHAR
STARTCHAR 0063
ENCODING 99
SWIDTH 576 0
DWIDTH 8 0
BBX 7 8 1 0
BITMAP
78
FC
C6
C0
C0
C6
FC
78
ENDCHAR
STARTCHAR 0064
ENCODING 100
SWIDTH 648 0
DWIDTH 9 0
BBX 7 10 1 0
BITMAP
06
06
7E
FE
C6
C6
C6
C6
FE
7E
ENDCHAR
STARTCHAR 0065
ENCODING 101
SWIDTH 576 0
DWIDTH 8 0
BBX 7 8 1 0
BITMAP
78
FC
C6
FE
C0
C4
FC
78
ENDCHAR
STARTCHAR 0066
ENCODING 102
SWIDTH 360 0
DWIDTH 5 0
BBX 5 10 0 0
BITMAP
38
38
F8
20
20
20
20
20
20
20
ENDCHAR
STARTCHAR 0067
ENCODING 103
SWIDTH 648 0
DWIDTH 9 0
BBX 7 11 1 -3
BITMAP
7E
FE
C6
C6
C6
C6
FE
7E
06
FC
78
ENDCHAR
STARTCHAR 0068
ENCODING 104
SWIDTH 648 0
DWIDTH 9 0
BBX 7 10 1 0
BITMAP
C0
C0
D8
FC
C6
C6
C6
C6
C6
C6
ENDCHAR
STARTCHAR 0069
ENCODING 105
SWIDTH 288 0
DWIDTH 4 0
BBX 2 10 1 0
BITMAP
C0
C0
C0
C0
C0
C0
C0
C0
C0
C0
ENDCHAR
STARTCHAR 006A
ENCODING 106
SWIDTH 288 0
DWIDTH 4 0
BBX 3 13 0 -3
BITMAP
60
60
60
60
60
60
60
60
60
60
60
E0
E0
ENDCHAR
STARTCHAR 006B
ENCODING 107
SWIDTH 576 0
DWIDTH 8 0
BBX 7 10 1 0
BITMAP
C0
C0
CC
DC
D8
F0
F0
D8
DC
CE
ENDCHAR
STARTCHAR 006C
ENCODING 108
SWIDTH 288 0
DWIDTH 4 0
BBX 2 10 1 0
BITMAP
C0
C0
C0
C0
C0
C0
C0
C0
C0
C0
ENDCHAR
STARTCHAR 006D
ENCODING 109
SWIDTH 936 0
DWIDTH 13 0
BBX 11 8 1 0
BITMAP
F9C0
FFE0
CC60
CC60
CC60
CC60
CC60
CC60
ENDCHAR
STARTCHAR 006E
ENCODING 110
SWIDTH 648 0
DWIDTH 9 0
BBX 7 8 1 0
BITMAP
FC
FE
C6
C6
C6
C6
C6
C6
ENDCHAR
STARTCHAR 006F
ENCODING 111
SWIDTH 648 0
DWIDTH 9 0
BBX 7 8 1 0
BITMAP
78
FC
C6
C6
C6
C6
FC
78
ENDCHAR
STARTCHAR 0070
ENCODING 112
SWIDTH 648 0
DWIDTH 9 0
BBX 7 11 1 -3
BITMAP
F8
FC
C6
C6
C6
C6
FC
F8
C0
C0
C0
ENDCHAR
STARTCHAR 0071
ENCODING 113
SWIDTH 648 0
DWIDTH 9 0
BBX 7 11 1 -3
BITMAP
7E
FE
C6
C6
C6
C6
FE
7E
06
06
06
ENDCHAR
STARTCHAR 0072
ENCODING 114
SWIDTH 432 0
DWIDTH 6 0
BBX 4 8 1 0
BITMAP
F0
F0
C0
C0
C0
C0
C0
C0
ENDCHAR
STARTCHAR 0073
ENCODING 115
SWIDTH 576 0
DWIDTH 8 0
BBX 6 8 1 0
BITMAP
78
FC
C8
F0
3C
CC
FC
78
ENDCHAR
STARTCHAR 0074
ENCODING 116
SWIDTH 432 0
DWIDTH 6 0
BBX 5 10 0 0
BITMAP
60
60
F8
60
60
60
60
60
38
38
ENDCHAR
STARTCHAR 0075
ENCODING 117
SWIDTH 648 0
DWIDTH 9 0
BBX 7 8 1 0
BITMAP
C6
C6
C6
C6
C6
C6
FE
7E
ENDCHAR
STARTCHAR 0076
ENCODING 118
SWIDTH 576 0
DWIDTH 8 0
BBX 7 8 0 0
BITMAP
C2
66
66
64
3C
3C
38
18
ENDCHAR
STARTCHAR 0077
ENCODING 119
SWIDTH 792 0
DWIDTH 11 0
BBX 11 8 0 0
BITMAP
C660
6E60
6EC0
6AC0
2BC0
3B80
3180
3180
ENDCHAR
STARTCHAR 0078
ENCODING 120
SWIDTH 576 0
DWIDTH 8 0
BBX 7 8 0 0
BITMAP
66
6E
3C
18
38
3C
66
E6
ENDCHAR
STARTCHAR 0079
ENCODING 121
SWIDTH 576 0
DWIDTH 8 0
BBX 8 11 0 -3
BITMAP
C3
66
66
26
3C
3C
18
18
18
30
30
ENDCHAR
STARTCHAR 007A
ENCODING 122
SWIDTH 504 0
DWIDTH 7 0
BBX 7 8 0 0
BITMAP
7E
7C
1C
18
30
30
7E
FE
ENDCHAR
STARTCHAR 007B
ENCODING 123
SWIDTH 432 0
DWIDTH 6 0
BBX 4 16 2 -3
BITMAP
30
70
60
60
60
60
60
C0
C0
60
60
60
60
60
70
70
ENDCHAR
STARTCHAR 007C
ENCODING 124
SWIDTH 288 0
DWIDTH 4 0
BBX 2 10 1 0
BITMAP
C0
C0
C0
C0
C0
C0
C0
C0
C0
C0
ENDCHAR
STARTCHAR 007D
ENCODING 125
SWIDTH 432 0
DWIDTH 6 0
BBX 3 16 1 -3
BITMAP
C0
C0
60
60
60
60
60
60
60
60
60
60
60
60
E0
C0
ENDCHAR
STARTCHAR 007E
ENCODING 126
SWIDTH 720 0
DWIDTH 10 0
BBX 7 3 2 3
BITMAP
E6
FE
9C
ENDCHAR
STARTCHAR 00A0
ENCODING 160
SWIDTH 216 0
DWIDTH 3 0
BBX 0 0 0 0
BITMAP
ENDCHAR
STARTCHAR 00A1
ENCODING 161
SWIDTH 360 0
DWIDTH 5 0
BBX 2 10 2 -2
BITMAP
C0
C0
C0
C0
C0
C0
C0
C0
C0
C0
ENDCHAR
STARTCHAR 00A2
ENCODING 162
SWIDTH 576 0
DWIDTH 8 0
BBX 7 10 1 0
BITMAP
10
38
FC
CE
C0
C0
C4
FC
7C
10
ENDCHAR
STARTCHAR 00A3
ENCODING 163
SWIDTH 576 0
DWIDTH 8 0
BBX 6 10 1 0
BITMAP
38
7C
6C
60
F0
F0
60
60
FC
FC
ENDCHAR
STARTCHAR 00A4
ENCODING 164
SWIDTH 648 0
DWIDTH 9 0
BBX 8 8 1 1
BITMAP
9B
FF
C6
C2
C2
C6
FF
9B
ENDCHAR
STARTCHAR 00A5
ENCODING 165
SWIDTH 648 0
DWIDTH 9 0
BBX 8 10 0 0
BITMAP
C3
63
76
36
1C
7E
18
7E
18
18
ENDCHAR
STARTCHAR 00A6
ENCODING 166
SWIDTH 288 0
DWIDTH 4 0
BBX 2 13 1 -3
BITMAP
C0
C0
C0
C0
C0
C0
00
C0
C0
C0
C0
C0
C0
ENDCHAR
STARTCHAR 00A7
ENCODING 167
SWIDTH 576 0
DWIDTH 8 0
BBX 6 11 1 -2
BITMAP
70
F8
C0
F8
FC
CC
FC
3C
CC
FC
78
ENDCHAR
STARTCHAR 00A8
ENCODING 168
SWIDTH 576 0
DWIDTH 8 0
BBX 4 2 2 11
BITMAP
90
90
ENDCHAR
STARTCHAR 00A9
ENCODING 169
SWIDTH 936 0
DWIDTH 13 0
BBX 12 12 0 -1
BITMAP
0F80
3FC0
3060
6730
4DB0
C830
C830
4DB0
6730
3060
3FC0
0F80
ENDCHAR
STARTCHAR 00AA
ENCODING 170
SWIDTH 288 0
DWIDTH 4 0
BBX 3 4 1 4
BITMAP
E0
60
A0
E0
ENDCHAR
STARTCHAR 00AB
ENCODING 171
SWIDTH 576 0
DWIDTH 8 0
BBX 6 6 1 1
BITMAP
24
6C
48
D8
6C
24
ENDCHAR
STARTCHAR 00AC
ENCODING 172
SWIDTH 576 0
DWIDTH 8 0
BBX 6 3 1 2
BITMAP
FC
04
04
ENDCHAR
STARTCHAR 00AD
ENCODING 173
SWIDTH 432 0
DWIDTH 6 0
BBX 4 1 1 4
BITMAP
F0
ENDCHAR
STARTCHAR 00AE
ENCODING 174
SWIDTH 648 0
DWIDTH 9 0
BBX 7 7 1 4
BITMAP
38
46
BA
BA
AA
46
7C
ENDCHAR
STARTCHAR 00AF
ENCODING 175
SWIDTH 504 0
DWIDTH 7 0
BBX 3 1 2 12
BITMAP
E0
ENDCHAR
STARTCHAR 00B0
ENCODING 176
SWIDTH 432 0
DWIDTH 6 0
BBX 5 5 0 5
BITMAP
70
78
C8
78
70
ENDCHAR
STARTCHAR 00B1
ENCODING 177
SWIDTH 576 0
DWIDTH 8 0
BBX 6 7 1 1
BITMAP
30
30
FC
30
30
00
FC
ENDCHAR
STARTCHAR 00B2
ENCODING 178
SWIDTH 432 0
DWIDTH 6 0
BBX 4 6 1 4
BITMAP
E0
90
10
20
C0
F0
ENDCHAR
STARTCHAR 00B3
ENCODING 179
SWIDTH 432 0
DWIDTH 6 0
BBX 4 6 1 4
BITMAP
F0
20
60
30
B0
E0
ENDCHAR
STARTCHAR 00B4
ENCODING 180
SWIDTH 576 0
DWIDTH 8 0
BBX 2 3 3 11
BITMAP
40
40
C0
ENDCHAR
STARTCHAR 00B5
ENCODING 181
SWIDTH 648 0
DWIDTH 9 0
BBX 7 11 1 -3
BITMAP
C6
C6
C6
C6
C6
C6
FE
FE
C0
C0
C0
ENDCHAR
STARTCHAR 00B6
ENCODING 182
SWIDTH 720 0
DWIDTH 10 0
BBX 9 12 1 -2
BITMAP
7D80
FD80
FD80
FD80
FD80
FD80
3D80
0D80
0D80
0D80
0D80
0D80
ENDCHAR
STARTCHAR 00B7
ENCODING 183
SWIDTH 288 0
DWIDTH 4 0
BBX 2 2 1 3
BITMAP
C0
C0
ENDCHAR
STARTCHAR 00B8
ENCODING 184
SWIDTH 432 0
DWIDTH 6 0
BBX 2 3 2 -3
BITMAP
80
40
C0
ENDCHAR
STARTCHAR 00B9
ENCODING 185
SWIDTH 360 0
DWIDTH 5 0
BBX 2 6 1 4
BITMAP
C0
C0
40
40
40
40
ENDCHAR
STARTCHAR 00BA
ENCODING 186
SWIDTH 360 0
DWIDTH 5 0
BBX 3 4 1 4
BITMAP
E0
A0
A0
E0
ENDCHAR
STARTCHAR 00BB
ENCODING 187
SWIDTH 576 0
DWIDTH 8 0
BBX 6 6 1 1
BITMAP
90
D8
6C
6C
48
90
ENDCHAR
STARTCHAR 00BC
ENCODING 188
SWIDTH 1080 0
DWIDTH 15 0
BBX 12 10 1 0
BITMAP
C080
C180
4100
4300
4660
4440
08E0
18A0
30F0
2020
ENDCHAR
STARTCHAR 00BD
ENCODING 189
SWIDTH 1008 0
DWIDTH 14 0
BBX 13 10 1 0
BITMAP
C080
C180
4100
4300
4670
44D8
0818
1830
3060
20F8
ENDCHAR
STARTCHAR 00BE
ENCODING 190
SWIDTH 1080 0
DWIDTH 15 0
BBX 13 10 1 0
BITMAP
F040
20C0
6080
3120
B320
E660
0450
0CD0
18F8
1010
ENDCHAR
STARTCHAR 00BF
ENCODING 191
SWIDTH 576 0
DWIDTH 8 0
BBX 6 11 1 -3
BITMAP
30
30
00
30
70
60
C0
C0
CC
FC
70
ENDCHAR
STARTCHAR 00C0
ENCODING 192
SWIDTH 648 0
DWIDTH 9 0
BBX 9 14 0 0
BITMAP
1000
1800
0800
0000
1C00
1E00
1E00
3600
3300
3300
7F00
7F00
6180
C180
ENDCHAR
STARTCHAR 00C1
ENCODING 193
SWIDTH 648 0
DWIDTH 9 0
BBX 9 14 0 0
BITMAP
0600
0400
0C00
0000
1C00
1E00
1E00
3600
3300
3300
7F00
7F00
6180
C180
ENDCHAR
STARTCHAR 00C2
ENCODING 194
SWIDTH 648 0
DWIDTH 9 0
BBX 9 13 0 0
BITMAP
1C00
3600
0000
1C00
1E00
1E00
3600
3300
3300
7F00
7F00
6180
C180
ENDCHAR
STARTCHAR 00C3
ENCODING 195
SWIDTH 648 0
DWIDTH 9 0
BBX 9 14 0 0
BITMAP
3A00
2E00
0000
0000
1C00
1E00
1E00
3600
3300
3300
7F00
7F00
6180
C180
ENDCHAR
STARTCHAR 00C4
ENCODING 196
SWIDTH 648 0
DWIDTH 9 0
BBX 9 13 0 0
BITMAP
3600
3600
0000
1C00
1E00
1E00
3600
3300
3300
7F00
7F00
6180
C180
ENDCHAR
STARTCHAR 00C5
ENCODING 197
SWIDTH 648 0
DWIDTH 9 0
BBX 9 14 0 0
BITMAP
1C00
1600
1C00
0000
1C00
1E00
1E00
3600
3300
3300
7F00
7F00
6180
C180
ENDCHAR
STARTCHAR 00C6
ENCODING 198
SWIDTH 936 0
DWIDTH 13 0
BBX 12 10 0 0
BITMAP
1FF0
1FF0
1300
33F0
33F0
3300
7F00
7F00
63F0
C3F0
ENDCHAR
STARTCHAR 00C7
ENCODING 199
SWIDTH 720 0
DWIDTH 10 0
BBX 10 13 0 -3
BITMAP
1F00
3F80
61C0
6000
C000
C000
6000
61C0
3F80
1F00
0400
0600
0C00
ENDCHAR
STARTCHAR 00C8
ENCODING 200
SWIDTH 576 0
DWIDTH 8 0
BBX 6 14 1 0
BITMAP
20
20
30
00
FC
FC
C0
C0
FC
FC
C0
C0
FC
FC
ENDCHAR
STARTCHAR 00C9
ENCODING 201
SWIDTH 576 0
DWIDTH 8 0
BBX 6 14 1 0
BITMAP
08
18
10
00
FC
FC
C0
C0
FC
FC
C0
C0
FC
FC
ENDCHAR
STARTCHAR 00CA
ENCODING 202
SWIDTH 576 0
DWIDTH 8 0
BBX 6 13 1 0
BITMAP
38
68
00
FC
FC
C0
C0
FC
FC
C0
C0
FC
FC
ENDCHAR
STARTCHAR 00CB
ENCODING 203
SWIDTH 576 0
DWIDTH 8 0
BBX 6 13 1 0
BITMAP
6C
6C
00
FC
FC
C0
C0
FC
FC
C0
C0
FC
FC
ENDCHAR
STARTCHAR 00CC
ENCODING 204
SWIDTH 288 0
DWIDTH 4 0
BBX 3 14 0 0
BITMAP
C0
40
60
00
60
60
60
60
60
60
60
60
60
60
ENDCHAR
STARTCHAR 00CD
ENCODING 205
SWIDTH 288 0
DWIDTH 4 0
BBX 3 14 1 0
BITMAP
60
40
40
00
C0
C0
C0
C0
C0
C0
C0
C0
C0
C0
ENDCHAR
STARTCHAR 00CE
ENCODING 206
SWIDTH 288 0
DWIDTH 4 0
BBX 4 13 0 0
BITMAP
60
90
00
60
60
60
60
60
60
60
60
60
60
ENDCHAR
STARTCHAR 00CF
ENCODING 207
SWIDTH 288 0
DWIDTH 4 0
BBX 4 13 0 0
BITMAP
90
90
00
60
60
60
60
60
60
60
60
60
60
ENDCHAR
STARTCHAR 00D0
ENCODING 208
SWIDTH 720 0
DWIDTH 10 0
BBX 9 10 0 0
BITMAP
7E00
7F00
6180
6180
F980
6180
6180
6380
7F00
7E00
ENDCHAR
STARTCHAR 00D1
ENCODING 209
SWIDTH 720 0
DWIDTH 10 0
BBX 8 13 1 0
BITMAP
3E
2C
00
C3
E3
F3
F3
DB
DB
CF
C7
C7
C3
ENDCHAR
STARTCHAR 00D2
ENCODING 210
SWIDTH 792 0
DWIDTH 11 0
BBX 10 14 0 0
BITMAP
1800
0800
0800
0000
1F00
3F80
61C0
60C0
C0C0
C0C0
60C0
61C0
3F80
1F00
ENDCHAR
STARTCHAR 00D3
ENCODING 211
SWIDTH 792 0
DWIDTH 11 0
BBX 10 14 0 0
BITMAP
0200
0600
0400
0000
1F00
3F80
61C0
60C0
C0C0
C0C0
60C0
61C0
3F80
1F00
ENDCHAR
STARTCHAR 00D4
ENCODING 212
SWIDTH 792 0
DWIDTH 11 0
BBX 10 13 0 0
BITMAP
0C00
1A00
0100
1F00
3F80
61C0
60C0
C0C0
C0C0
60C0
61C0
3F80
1F00
ENDCHAR
STARTCHAR 00D5
ENCODING 213
SWIDTH 792 0
DWIDTH 11 0
BBX 10 13 0 0
BITMAP
1D00
1700
0000
1F00
3F80
61C0
60C0
C0C0
C0C0
60C0
61C0
3F80
1F00
ENDCHAR
STARTCHAR 00D6
ENCODING 214
SWIDTH 792 0
DWIDTH 11 0
BBX 10 13 0 0
BITMAP
1B00
1B00
0000
1F00
3F80
61C0
60C0
C0C0
C0C0
60C0
61C0
3F80
1F00
ENDCHAR
STARTCHAR 00D7
ENCODING 215
SWIDTH 504 0
DWIDTH 7 0
BBX 5 5 1 3
BITMAP
88
D8
70
70
D8
ENDCHAR
STARTCHAR 00D8
ENCODING 216
SWIDTH 792 0
DWIDTH 11 0
BBX 10 10 0 0
BITMAP
1F80
3FC0
61C0
63C0
C6C0
CCC0
78C0
71C0
7F80
5F00
ENDCHAR
STARTCHAR 00D9
ENCODING 217
SWIDTH 720 0
DWIDTH 10 0
BBX 8 14 1 0
BITMAP
30
10
18
00
C3
C3
C3
C3
C3
C3
C3
C3
7E
3C
ENDCHAR
STARTCHAR 00DA
ENCODING 218
SWIDTH 720 0
DWIDTH 10 0
BBX 8 14 1 0
BITMAP
0C
08
08
00
C3
C3
C3
C3
C3
C3
C3
C3
7E
3C
ENDCHAR
STARTCHAR 00DB
ENCODING 219
SWIDTH 720 0
DWIDTH 10 0
BBX 8 13 1 0
BITMAP
18
24
00
C3
C3
C3
C3
C3
C3
C3
C3
7E
3C
ENDCHAR
STARTCHAR 00DC
ENCODING 220
SWIDTH 720 0
DWIDTH 10 0
BBX 8 13 1 0
BITMAP
24
24
00
C3
C3
C3
C3
C3
C3
C3
C3
7E
3C
ENDCHAR
STARTCHAR 00DD
ENCODING 221
SWIDTH 648 0
DWIDTH 9 0
BBX 8 14 0 0
BITMAP
04
0C
08
00
C3
63
76
36
1C
1C
18
18
18
18
ENDCHAR
STARTCHAR 00DE
ENCODING 222
SWIDTH 648 0
DWIDTH 9 0
BBX 7 10 1 0
BITMAP
C0
C0
FC
FE
C6
C6
FE
FC
C0
C0
ENDCHAR
STARTCHAR 00DF
ENCODING 223
SWIDTH 648 0
DWIDTH 9 0
BBX 7 10 1 0
BITMAP
78
FC
CC
CC
DC
DE
C6
C6
DE
DC
ENDCHAR
STARTCHAR 00E0
ENCODING 224
SWIDTH 576 0
DWIDTH 8 0
BBX 6 12 1 0
BITMAP
60
20
30
00
78
FC
4C
7C
FC
8C
DC
F4
ENDCHAR
STARTCHAR 00E1
ENCODING 225
SWIDTH 576 0
DWIDTH 8 0
BBX 6 12 1 0
BITMAP
08
18
10
00
78
FC
4C
7C
FC
8C
DC
F4
ENDCHAR
STARTCHAR 00E2
ENCODING 226
SWIDTH 576 0
DWIDTH 8 0
BBX 6 11 1 0
BITMAP
30
68
00
78
FC
4C
7C
FC
8C
DC
F4
ENDCHAR
STARTCHAR 00E3
ENCODING 227
SWIDTH 576 0
DWIDTH 8 0
BBX 6 11 1 0
BITMAP
74
5C
00
78
FC
4C
7C
FC
8C
DC
F4
ENDCHAR
STARTCHAR 00E4
ENCODING 228
SWIDTH 576 0
DWIDTH 8 0
BBX 6 11 1 0
BITMAP
68
68
00
78
FC
4C
7C
FC
8C
DC
F4
ENDCHAR
STARTCHAR 00E5
ENCODING 229
SWIDTH 576 0
DWIDTH 8 0
BBX 6 12 1 0
BITMAP
38
48
38
00
78
FC
4C
7C
FC
8C
DC
F4
ENDCHAR
STARTCHAR 00E6
ENCODING 230
SWIDTH 936 0
DWIDTH 13 0
BBX 11 8 1 0
BITMAP
7BC0
FFE0
4E60
7FE0
EC00
8E40
DFE0
F3C0
ENDCHAR
STARTCHAR 00E7
ENCODING 231
SWIDTH 576 0
DWIDTH 8 0
BBX 7 11 1 -3
BITMAP
78
FC
C6
C0
C0
C6
FC
78
10
18
30
ENDCHAR
STARTCHAR 00E8
ENCODING 232
SWIDTH 576 0
DWIDTH 8 0
BBX 7 12 1 0
BITMAP
60
20
30
00
78
FC
C6
FE
C0
C4
FC
78
ENDCHAR
STARTCHAR 00E9
ENCODING 233
SWIDTH 576 0
DWIDTH 8 0
BBX 7 12 1 0
BITMAP
08
08
10
00
78
FC
C6
FE
C0
C4
FC
78
ENDCHAR
STARTCHAR 00EA
ENCODING 234
SWIDTH 576 0
DWIDTH 8 0
BBX 7 11 1 0
BITMAP
38
68
04
78
FC
C6
FE
C0
C4
FC
78
ENDCHAR
STARTCHAR 00EB
ENCODING 235
SWIDTH 576 0
DWIDTH 8 0
BBX 7 11 1 0
BITMAP
6C
6C
00
78
FC
C6
FE
C0
C4
FC
78
ENDCHAR
STARTCHAR 00EC
ENCODING 236
SWIDTH 288 0
DWIDTH 4 0
BBX 3 12 0 0
BITMAP
C0
40
60
00
60
60
60
60
60
60
60
60
ENDCHAR
STARTCHAR 00ED
ENCODING 237
SWIDTH 288 0
DWIDTH 4 0
BBX 3 12 1 0
BITMAP
60
40
40
00
C0
C0
C0
C0
C0
C0
C0
C0
ENDCHAR
STARTCHAR 00EE
ENCODING 238
SWIDTH 288 0
DWIDTH 4 0
BBX 4 11 0 0
BITMAP
70
D0
00
60
60
60
60
60
60
60
60
ENDCHAR
STARTCHAR 00EF
ENCODING 239
SWIDTH 288 0
DWIDTH 4 0
BBX 4 11 0 0
BITMAP
90
90
00
60
60
60
60
60
60
60
60
ENDCHAR
STARTCHAR 00F0
ENCODING 240
SWIDTH 576 0
DWIDTH 8 0
BBX 7 11 1 0
BITMAP
08
38
1C
14
7C
FE
C6
86
C6
FC
78
ENDCHAR
STARTCHAR 00F1
ENCODING 241
SWIDTH 648 0
DWIDTH 9 0
BBX 7 11 1 0
BITMAP
74
5C
00
FC
FE
C6
C6
C6
C6
C6
C6
ENDCHAR
STARTCHAR 00F2
ENCODING 242
SWIDTH 648 0
DWIDTH 9 0
BBX 7 12 1 0
BITMAP
60
20
30
00
78
FC
C6
C6
C6
C6
FC
78
ENDCHAR
STARTCHAR 00F3
ENCODING 243
SWIDTH 648 0
DWIDTH 9 0
BBX 7 12 1 0
BITMAP
08
18
10
00
78
FC
C6
C6
C6
C6
FC
78
ENDCHAR
STARTCHAR 00F4
ENCODING 244
SWIDTH 648 0
DWIDTH 9 0
BBX 7 11 1 0
BITMAP
38
68
04
78
FC
C6
C6
C6
C6
FC
78
ENDCHAR
STARTCHAR 00F5
ENCODING 245
SWIDTH 648 0
DWIDTH 9 0
BBX 7 11 1 0
BITMAP
74
5C
00
78
FC
C6
C6
C6
C6
FC
78
ENDCHAR
STARTCHAR 00F6
ENCODING 246
SWIDTH 648 0
DWIDTH 9 0
BBX 7 11 1 0
BITMAP
6C
6C
00
78
FC
C6
C6
C6
C6
FC
78
ENDCHAR
STARTCHAR 00F7
ENCODING 247
SWIDTH 576 0
DWIDTH 8 0
BBX 6 6 1 2
BITMAP
30
30
FC
FC
30
30
ENDCHAR
STARTCHAR 00F8
ENCODING 248
SWIDTH 648 0
DWIDTH 9 0
BBX 7 8 1 0
BITMAP
7A
FE
CE
DE
F6
E6
FC
F8
ENDCHAR
STARTCHAR 00F9
ENCODING 249
SWIDTH 648 0
DWIDTH 9 0
BBX 7 12 1 0
BITMAP
20
20
30
00
C6
C6
C6
C6
C6
C6
FE
7E
ENDCHAR
STARTCHAR 00FA
ENCODING 250
SWIDTH 648 0
DWIDTH 9 0
BBX 7 12 1 0
BITMAP
08
18
10
00
C6
C6
C6
C6
C6
C6
FE
7E
ENDCHAR
STARTCHAR 00FB
ENCODING 251
SWIDTH 648 0
DWIDTH 9 0
BBX 7 11 1 0
BITMAP
38
6C
00
C6
C6
C6
C6
C6
C6
FE
7E
ENDCHAR
STARTCHAR 00FC
ENCODING 252
SWIDTH 648 0
DWIDTH 9 0
BBX 7 11 1 0
BITMAP
6C
6C
00
C6
C6
C6
C6
C6
C6
FE
7E
ENDCHAR
STARTCHAR 00FD
ENCODING 253
SWIDTH 576 0
DWIDTH 8 0
BBX 8 15 0 -3
BITMAP
0C
08
08
00
C3
66
66
26
3C
3C
18
18
18
30
30
ENDCHAR
STARTCHAR 00FE
ENCODING 254
SWIDTH 648 0
DWIDTH 9 0
BBX 7 13 1 -3
BITMAP
C0
C0
F8
FC
C6
C6
C6
C6
FC
F8
C0
C0
C0
ENDCHAR
STARTCHAR 00FF
ENCODING 255
SWIDTH 576 0
DWIDTH 8 0
BBX 8 14 0 -3
BITMAP
24
24
00
C3
66
66
26
3C
3C
18
18
18
30
30
ENDCHAR
ENDFONT
