STARTFONT 2.1
COMMENT
COMMENT Converted from OpenType font "manrope-bold.otf" by "otf2bdf 3.0".
COMMENT
FONT -FreeType-Manrope-Bold-R-Normal--8-60-100-100-P-43-ISO10646-1
SIZE 6 100 100
FONTBOUNDINGBOX 8 11 0 -2
STARTPROPERTIES 19
FOUNDRY "FreeType"
FAMILY_NAME "Manrope"
WEIGHT_NAME "Bold"
SLANT "R"
SETWIDTH_NAME "Normal"
ADD_STYLE_NAME ""
PIXEL_SIZE 8
POINT_SIZE 60
RESOLUTION_X 100
RESOLUTION_Y 100
SPACING "P"
AVERAGE_WIDTH 43
CHARSET_REGISTRY "ISO10646"
CHARSET_ENCODING "1"
FONT_ASCENT 8
FONT_DESCENT 2
COPYRIGHT "Copyright 2019-2021 The Manrope Project Authors (https://github.com/sharanda/manrope)"
_OTF_FONTFILE "manrope-bold.otf"
_OTF_PSNAME "Manrope-Bold"
ENDPROPERTIES
CHARS 191
STARTCHAR 0020
ENCODING 32
SWIDTH 240 0
DWIDTH 2 0
BBX 0 0 0 0
BITMAP
ENDCHAR
STARTCHAR 0021
ENCODING 33
SWIDTH 360 0
DWIDTH 3 0
BBX 1 6 1 0
BITMAP
80
80
80
80
80
80
ENDCHAR
STARTCHAR 0022
ENCODING 34
SWIDTH 480 0
DWIDTH 4 0
BBX 3 2 0 4
BITMAP
E0
E0
ENDCHAR
STARTCHAR 0023
ENCODING 35
SWIDTH 960 0
DWIDTH 8 0
BBX 6 6 1 0
BITMAP
28
FC
50
FC
50
50
ENDCHAR
STARTCHAR 0024
ENCODING 36
SWIDTH 600 0
DWIDTH 5 0
BBX 5 8 0 -1
BITMAP
20
70
48
60
18
88
70
20
ENDCHAR
STARTCHAR 0025
ENCODING 37
SWIDTH 960 0
DWIDTH 8 0
BBX 7 6 0 0
BITMAP
62
A4
68
34
6A
4E
ENDCHAR
STARTCHAR 0026
ENCODING 38
SWIDTH 720 0
DWIDTH 6 0
BBX 5 6 0 0
BITMAP
70
40
40
68
98
78
ENDCHAR
STARTCHAR 0027
ENCODING 39
SWIDTH 240 0
DWIDTH 2 0
BBX 2 2 0 4
BITMAP
C0
C0
ENDCHAR
STARTCHAR 0028
ENCODING 40
SWIDTH 480 0
DWIDTH 4 0
BBX 2 8 1 -2
BITMAP
40
40
80
80
80
80
80
40
ENDCHAR
STARTCHAR 0029
ENCODING 41
SWIDTH 480 0
DWIDTH 4 0
BBX 3 8 0 -2
BITMAP
80
40
40
20
20
20
40
40
ENDCHAR
STARTCHAR 002A
ENCODING 42
SWIDTH 480 0
DWIDTH 4 0
BBX 3 2 0 3
BITMAP
C0
60
ENDCHAR
STARTCHAR 002B
ENCODING 43
SWIDTH 600 0
DWIDTH 5 0
BBX 4 4 0 1
BITMAP
20
F0
20
20
ENDCHAR
STARTCHAR 002C
ENCODING 44
SWIDTH 360 0
DWIDTH 3 0
BBX 2 2 0 -1
BITMAP
C0
80
ENDCHAR
STARTCHAR 002D
ENCODING 45
SWIDTH 480 0
DWIDTH 4 0
BBX 3 1 0 2
BITMAP
E0
ENDCHAR
STARTCHAR 002E
ENCODING 46
SWIDTH 360 0
DWIDTH 3 0
BBX 1 1 1 0
BITMAP
80
ENDCHAR
STARTCHAR 002F
ENCODING 47
SWIDTH 480 0
DWIDTH 4 0
BBX 2 6 1 0
BITMAP
40
40
80
80
80
80
ENDCHAR
STARTCHAR 0030
ENCODING 48
SWIDTH 600 0
DWIDTH 5 0
BBX 4 6 1 0
BITMAP
E0
90
90
90
90
E0
ENDCHAR
STARTCHAR 0031
ENCODING 49
SWIDTH 480 0
DWIDTH 4 0
BBX 3 6 0 0
BITMAP
60
A0
20
20
20
20
ENDCHAR
STARTCHAR 0032
ENCODING 50
SWIDTH 600 0
DWIDTH 5 0
BBX 5 6 0 0
BITMAP
70
D0
10
30
60
F8
ENDCHAR
STARTCHAR 0033
ENCODING 51
SWIDTH 600 0
DWIDTH 5 0
BBX 3 6 1 0
BITMAP
E0
60
E0
20
20
E0
ENDCHAR
STARTCHAR 0034
ENCODING 52
SWIDTH 600 0
DWIDTH 5 0
BBX 5 6 0 0
BITMAP
20
20
40
50
F8
10
ENDCHAR
STARTCHAR 0035
ENCODING 53
SWIDTH 600 0
DWIDTH 5 0
BBX 3 6 1 0
BITMAP
E0
80
E0
20
20
E0
ENDCHAR
STARTCHAR 0036
ENCODING 54
SWIDTH 600 0
DWIDTH 5 0
BBX 4 6 1 0
BITMAP
E0
80
E0
90
90
E0
ENDCHAR
STARTCHAR 0037
ENCODING 55
SWIDTH 480 0
DWIDTH 4 0
BBX 4 6 0 0
BITMAP
F0
10
20
20
60
40
ENDCHAR
STARTCHAR 0038
ENCODING 56
SWIDTH 600 0
DWIDTH 5 0
BBX 4 6 1 0
BITMAP
E0
A0
E0
B0
B0
E0
ENDCHAR
STARTCHAR 0039
ENCODING 57
SWIDTH 600 0
DWIDTH 5 0
BBX 5 6 0 0
BITMAP
70
58
D8
78
18
70
ENDCHAR
STARTCHAR 003A
ENCODING 58
SWIDTH 360 0
DWIDTH 3 0
BBX 1 3 1 1
BITMAP
80
00
80
ENDCHAR
STARTCHAR 003B
ENCODING 59
SWIDTH 360 0
DWIDTH 3 0
BBX 1 6 1 -1
BITMAP
80
00
00
00
80
80
ENDCHAR
STARTCHAR 003C
ENCODING 60
SWIDTH 600 0
DWIDTH 5 0
BBX 2 4 2 1
BITMAP
40
80
80
40
ENDCHAR
STARTCHAR 003D
ENCODING 61
SWIDTH 720 0
DWIDTH 6 0
BBX 4 3 1 2
BITMAP
F0
00
F0
ENDCHAR
STARTCHAR 003E
ENCODING 62
SWIDTH 600 0
DWIDTH 5 0
BBX 2 4 2 1
BITMAP
80
C0
C0
80
ENDCHAR
STARTCHAR 003F
ENCODING 63
SWIDTH 600 0
DWIDTH 5 0
BBX 4 6 0 0
BITMAP
70
90
10
20
00
20
ENDCHAR
STARTCHAR 0040
ENCODING 64
SWIDTH 960 0
DWIDTH 8 0
BBX 6 7 1 -1
BITMAP
70
88
B4
D4
BC
80
70
ENDCHAR
STARTCHAR 0041
ENCODING 65
SWIDTH 720 0
DWIDTH 6 0
BBX 5 6 0 0
BITMAP
30
30
50
48
78
88
ENDCHAR
STARTCHAR 0042
ENCODING 66
SWIDTH 600 0
DWIDTH 5 0
BBX 4 6 1 0
BITMAP
E0
90
E0
90
90
F0
ENDCHAR
STARTCHAR 0043
ENCODING 67
SWIDTH 720 0
DWIDTH 6 0
BBX 6 6 0 0
BITMAP
78
4C
80
80
4C
78
ENDCHAR
STARTCHAR 0044
ENCODING 68
SWIDTH 720 0
DWIDTH 6 0
BBX 4 6 1 0
BITMAP
E0
90
90
90
90
E0
ENDCHAR
STARTCHAR 0045
ENCODING 69
SWIDTH 600 0
DWIDTH 5 0
BBX 3 6 1 0
BITMAP
E0
80
E0
80
80
E0
ENDCHAR
STARTCHAR 0046
ENCODING 70
SWIDTH 480 0
DWIDTH 4 0
BBX 3 6 1 0
BITMAP
E0
80
80
E0
80
80
ENDCHAR
STARTCHAR 0047
ENCODING 71
SWIDTH 720 0
DWIDTH 6 0
BBX 6 6 0 0
BITMAP
78
4C
80
8C
4C
78
ENDCHAR
STARTCHAR 0048
ENCODING 72
SWIDTH 720 0
DWIDTH 6 0
BBX 4 6 1 0
BITMAP
90
90
F0
90
90
90
ENDCHAR
STARTCHAR 0049
ENCODING 73
SWIDTH 240 0
DWIDTH 2 0
BBX 1 6 1 0
BITMAP
80
80
80
80
80
80
ENDCHAR
STARTCHAR 004A
ENCODING 74
SWIDTH 480 0
DWIDTH 4 0
BBX 4 6 0 0
BITMAP
30
30
30
30
20
E0
ENDCHAR
STARTCHAR 004B
ENCODING 75
SWIDTH 600 0
DWIDTH 5 0
BBX 4 6 1 0
BITMAP
90
A0
C0
C0
A0
90
ENDCHAR
STARTCHAR 004C
ENCODING 76
SWIDTH 480 0
DWIDTH 4 0
BBX 3 6 1 0
BITMAP
80
80
80
80
80
E0
ENDCHAR
STARTCHAR 004D
ENCODING 77
SWIDTH 840 0
DWIDTH 7 0
BBX 6 6 1 0
BITMAP
8C
8C
D4
D4
A4
A4
ENDCHAR
STARTCHAR 004E
ENCODING 78
SWIDTH 720 0
DWIDTH 6 0
BBX 4 6 1 0
BITMAP
90
D0
D0
B0
B0
90
ENDCHAR
STARTCHAR 004F
ENCODING 79
SWIDTH 720 0
DWIDTH 6 0
BBX 6 6 0 0
BITMAP
78
4C
84
84
4C
78
ENDCHAR
STARTCHAR 0050
ENCODING 80
SWIDTH 600 0
DWIDTH 5 0
BBX 4 6 1 0
BITMAP
F0
90
90
E0
80
80
ENDCHAR
STARTCHAR 0051
ENCODING 81
SWIDTH 720 0
DWIDTH 6 0
BBX 6 6 0 0
BITMAP
78
4C
84
84
4C
7C
ENDCHAR
STARTCHAR 0052
ENCODING 82
SWIDTH 720 0
DWIDTH 6 0
BBX 4 6 1 0
BITMAP
F0
90
90
E0
A0
90
ENDCHAR
STARTCHAR 0053
ENCODING 83
SWIDTH 600 0
DWIDTH 5 0
BBX 5 6 0 0
BITMAP
70
48
60
18
C8
78
ENDCHAR
STARTCHAR 0054
ENCODING 84
SWIDTH 600 0
DWIDTH 5 0
BBX 5 6 0 0
BITMAP
F8
20
20
20
20
20
ENDCHAR
STARTCHAR 0055
ENCODING 85
SWIDTH 720 0
DWIDTH 6 0
BBX 4 6 1 0
BITMAP
90
90
90
90
90
F0
ENDCHAR
STARTCHAR 0056
ENCODING 86
SWIDTH 600 0
DWIDTH 5 0
BBX 5 6 0 0
BITMAP
88
48
50
50
50
30
ENDCHAR
STARTCHAR 0057
ENCODING 87
SWIDTH 960 0
DWIDTH 8 0
BBX 8 6 0 0
BITMAP
99
59
5A
56
66
24
ENDCHAR
STARTCHAR 0058
ENCODING 88
SWIDTH 600 0
DWIDTH 5 0
BBX 5 6 0 0
BITMAP
C8
50
30
30
50
C8
ENDCHAR
STARTCHAR 0059
ENCODING 89
SWIDTH 600 0
DWIDTH 5 0
BBX 5 6 0 0
BITMAP
88
50
70
20
20
20
ENDCHAR
STARTCHAR 005A
ENCODING 90
SWIDTH 720 0
DWIDTH 6 0
BBX 4 6 1 0
BITMAP
F0
20
60
40
80
F0
ENDCHAR
STARTCHAR 005B
ENCODING 91
SWIDTH 480 0
DWIDTH 4 0
BBX 2 10 1 -2
BITMAP
C0
80
80
80
80
80
80
80
80
C0
ENDCHAR
STARTCHAR 005C
ENCODING 92
SWIDTH 480 0
DWIDTH 4 0
BBX 2 6 1 0
BITMAP
80
80
80
80
40
40
ENDCHAR
STARTCHAR 005D
ENCODING 93
SWIDTH 480 0
DWIDTH 4 0
BBX 1 10 1 -2
BITMAP
80
80
80
80
80
80
80
80
80
80
ENDCHAR
STARTCHAR 005E
ENCODING 94
SWIDTH 720 0
DWIDTH 6 0
BBX 3 3 1 3
BITMAP
40
E0
80
ENDCHAR
STARTCHAR 005F
ENCODING 95
SWIDTH 720 0
DWIDTH 6 0
BBX 5 1 0 -1
BITMAP
F8
ENDCHAR
STARTCHAR 0060
ENCODING 96
SWIDTH 480 0
DWIDTH 4 0
BBX 2 2 1 6
BITMAP
80
40
ENDCHAR
STARTCHAR 0061
ENCODING 97
SWIDTH 600 0
DWIDTH 5 0
BBX 4 5 0 0
BITMAP
70
10
70
90
70
ENDCHAR
STARTCHAR 0062
ENCODING 98
SWIDTH 600 0
DWIDTH 5 0
BBX 4 6 1 0
BITMAP
80
E0
90
10
90
E0
ENDCHAR
STARTCHAR 0063
ENCODING 99
SWIDTH 600 0
DWIDTH 5 0
BBX 4 5 0 0
BITMAP
70
D0
80
D0
70
ENDCHAR
STARTCHAR 0064
ENCODING 100
SWIDTH 600 0
DWIDTH 5 0
BBX 5 6 0 0
BITMAP
08
78
D8
88
D8
78
ENDCHAR
STARTCHAR 0065
ENCODING 101
SWIDTH 600 0
DWIDTH 5 0
BBX 5 5 0 0
BITMAP
70
C8
F8
C0
70
ENDCHAR
STARTCHAR 0066
ENCODING 102
SWIDTH 360 0
DWIDTH 3 0
BBX 3 6 0 0
BITMAP
60
E0
40
40
40
40
ENDCHAR
STARTCHAR 0067
ENCODING 103
SWIDTH 600 0
DWIDTH 5 0
BBX 5 7 0 -2
BITMAP
78
D8
88
D8
78
18
70
ENDCHAR
STARTCHAR 0068
ENCODING 104
SWIDTH 600 0
DWIDTH 5 0
BBX 4 6 1 0
BITMAP
80
E0
B0
90
90
90
ENDCHAR
STARTCHAR 0069
ENCODING 105
SWIDTH 240 0
DWIDTH 2 0
BBX 1 6 1 0
BITMAP
80
80
80
80
80
80
ENDCHAR
STARTCHAR 006A
ENCODING 106
SWIDTH 240 0
DWIDTH 2 0
BBX 2 8 0 -2
BITMAP
40
40
40
40
40
40
40
C0
ENDCHAR
STARTCHAR 006B
ENCODING 107
SWIDTH 480 0
DWIDTH 4 0
BBX 3 6 1 0
BITMAP
80
A0
C0
C0
C0
A0
ENDCHAR
STARTCHAR 006C
ENCODING 108
SWIDTH 240 0
DWIDTH 2 0
BBX 1 6 1 0
BITMAP
80
80
80
80
80
80
ENDCHAR
STARTCHAR 006D
ENCODING 109
SWIDTH 840 0
DWIDTH 7 0
BBX 6 5 1 0
BITMAP
FC
A4
A4
A4
A4
ENDCHAR
STARTCHAR 006E
ENCODING 110
SWIDTH 600 0
DWIDTH 5 0
BBX 4 5 1 0
BITMAP
E0
B0
90
90
90
ENDCHAR
STARTCHAR 006F
ENCODING 111
SWIDTH 600 0
DWIDTH 5 0
BBX 5 5 0 0
BITMAP
70
C8
88
C8
70
ENDCHAR
STARTCHAR 0070
ENCODING 112
SWIDTH 600 0
DWIDTH 5 0
BBX 4 7 1 -2
BITMAP
E0
90
90
90
E0
80
80
ENDCHAR
STARTCHAR 0071
ENCODING 113
SWIDTH 600 0
DWIDTH 5 0
BBX 5 7 0 -2
BITMAP
78
D8
88
D8
78
08
08
ENDCHAR
STARTCHAR 0072
ENCODING 114
SWIDTH 360 0
DWIDTH 3 0
BBX 2 5 1 0
BITMAP
C0
80
80
80
80
ENDCHAR
STARTCHAR 0073
ENCODING 115
SWIDTH 600 0
DWIDTH 5 0
BBX 4 5 0 0
BITMAP
70
90
70
10
70
ENDCHAR
STARTCHAR 0074
ENCODING 116
SWIDTH 480 0
DWIDTH 4 0
BBX 3 6 0 0
BITMAP
40
E0
40
40
40
60
ENDCHAR
STARTCHAR 0075
ENCODING 117
SWIDTH 600 0
DWIDTH 5 0
BBX 5 5 0 0
BITMAP
C8
C8
C8
58
78
ENDCHAR
STARTCHAR 0076
ENCODING 118
SWIDTH 600 0
DWIDTH 5 0
BBX 4 5 0 0
BITMAP
90
50
50
60
20
ENDCHAR
STARTCHAR 0077
ENCODING 119
SWIDTH 840 0
DWIDTH 7 0
BBX 6 5 0 0
BITMAP
94
74
74
6C
48
ENDCHAR
STARTCHAR 0078
ENCODING 120
SWIDTH 600 0
DWIDTH 5 0
BBX 4 5 0 0
BITMAP
D0
70
20
70
D0
ENDCHAR
STARTCHAR 0079
ENCODING 121
SWIDTH 600 0
DWIDTH 5 0
BBX 4 7 0 -2
BITMAP
90
50
50
20
20
40
40
ENDCHAR
STARTCHAR 007A
ENCODING 122
SWIDTH 480 0
DWIDTH 4 0
BBX 4 5 0 0
BITMAP
F0
20
20
40
F0
ENDCHAR
STARTCHAR 007B
ENCODING 123
SWIDTH 480 0
DWIDTH 4 0
BBX 2 10 1 -2
BITMAP
40
40
40
40
C0
C0
40
40
40
40
ENDCHAR
STARTCHAR 007C
ENCODING 124
SWIDTH 360 0
DWIDTH 3 0
BBX 1 6 1 0
BITMAP
80
80
80
80
80
80
ENDCHAR
STARTCHAR 007D
ENCODING 125
SWIDTH 480 0
DWIDTH 4 0
BBX 2 10 0 -2
BITMAP
C0
40
40
40
40
40
40
40
40
C0
ENDCHAR
STARTCHAR 007E
ENCODING 126
SWIDTH 720 0
DWIDTH 6 0
BBX 4 2 1 2
BITMAP
D0
B0
ENDCHAR
STARTCHAR 00A0
ENCODING 160
SWIDTH 240 0
DWIDTH 2 0
BBX 0 0 0 0
BITMAP
ENDCHAR
STARTCHAR 00A1
ENCODING 161
SWIDTH 360 0
DWIDTH 3 0
BBX 1 6 1 -1
BITMAP
80
80
80
80
80
80
ENDCHAR
STARTCHAR 00A2
ENCODING 162
SWIDTH 600 0
DWIDTH 5 0
BBX 4 6 0 0
BITMAP
20
70
80
80
50
20
ENDCHAR
STARTCHAR 00A3
ENCODING 163
SWIDTH 600 0
DWIDTH 5 0
BBX 4 6 0 0
BITMAP
30
50
40
E0
40
F0
ENDCHAR
STARTCHAR 00A4
ENCODING 164
SWIDTH 720 0
DWIDTH 6 0
BBX 5 4 0 1
BITMAP
F8
48
48
F8
ENDCHAR
STARTCHAR 00A5
ENCODING 165
SWIDTH 600 0
DWIDTH 5 0
BBX 5 6 0 0
BITMAP
88
50
70
70
70
20
ENDCHAR
STARTCHAR 00A6
ENCODING 166
SWIDTH 360 0
DWIDTH 3 0
BBX 1 8 1 -2
BITMAP
80
80
80
00
80
80
80
80
ENDCHAR
STARTCHAR 00A7
ENCODING 167
SWIDTH 600 0
DWIDTH 5 0
BBX 4 7 0 -1
BITMAP
60
90
70
90
70
10
70
ENDCHAR
STARTCHAR 00A8
ENCODING 168
SWIDTH 600 0
DWIDTH 5 0
BBX 3 1 1 7
BITMAP
A0
ENDCHAR
STARTCHAR 00A9
ENCODING 169
SWIDTH 840 0
DWIDTH 7 0
BBX 7 8 0 -1
BITMAP
38
44
5A
AA
A2
5A
44
38
ENDCHAR
STARTCHAR 00AA
ENCODING 170
SWIDTH 360 0
DWIDTH 3 0
BBX 2 3 0 1
BITMAP
40
40
C0
ENDCHAR
STARTCHAR 00AB
ENCODING 171
SWIDTH 600 0
DWIDTH 5 0
BBX 3 3 1 0
BITMAP
60
A0
A0
ENDCHAR
STARTCHAR 00AC
ENCODING 172
SWIDTH 600 0
DWIDTH 5 0
BBX 4 1 0 1
BITMAP
F0
ENDCHAR
STARTCHAR 00AD
ENCODING 173
SWIDTH 480 0
DWIDTH 4 0
BBX 3 1 0 2
BITMAP
E0
ENDCHAR
STARTCHAR 00AE
ENCODING 174
SWIDTH 600 0
DWIDTH 5 0
BBX 4 5 1 2
BITMAP
40
B0
F0
F0
60
ENDCHAR
STARTCHAR 00AF
ENCODING 175
SWIDTH 480 0
DWIDTH 4 0
BBX 2 1 1 7
BITMAP
C0
ENDCHAR
STARTCHAR 00B0
ENCODING 176
SWIDTH 480 0
DWIDTH 4 0
BBX 3 3 0 3
BITMAP
60
A0
60
ENDCHAR
STARTCHAR 00B1
ENCODING 177
SWIDTH 600 0
DWIDTH 5 0
BBX 4 4 0 1
BITMAP
20
F0
20
F0
ENDCHAR
STARTCHAR 00B2
ENCODING 178
SWIDTH 360 0
DWIDTH 3 0
BBX 3 4 0 2
BITMAP
60
20
40
E0
ENDCHAR
STARTCHAR 00B3
ENCODING 179
SWIDTH 360 0
DWIDTH 3 0
BBX 3 4 0 2
BITMAP
E0
60
20
40
ENDCHAR
STARTCHAR 00B4
ENCODING 180
SWIDTH 480 0
DWIDTH 4 0
BBX 1 2 2 6
BITMAP
80
80
ENDCHAR
STARTCHAR 00B5
ENCODING 181
SWIDTH 600 0
DWIDTH 5 0
BBX 4 7 1 -2
BITMAP
90
90
90
90
F0
80
80
ENDCHAR
STARTCHAR 00B6
ENCODING 182
SWIDTH 720 0
DWIDTH 6 0
BBX 6 7 0 -1
BITMAP
74
F4
F4
74
14
14
14
ENDCHAR
STARTCHAR 00B7
ENCODING 183
SWIDTH 240 0
DWIDTH 2 0
BBX 2 1 0 2
BITMAP
C0
ENDCHAR
STARTCHAR 00B8
ENCODING 184
SWIDTH 360 0
DWIDTH 3 0
BBX 1 2 1 -2
BITMAP
80
80
ENDCHAR
STARTCHAR 00B9
ENCODING 185
SWIDTH 360 0
DWIDTH 3 0
BBX 2 4 0 2
BITMAP
C0
40
40
40
ENDCHAR
STARTCHAR 00BA
ENCODING 186
SWIDTH 360 0
DWIDTH 3 0
BBX 3 3 0 2
BITMAP
40
A0
40
ENDCHAR
STARTCHAR 00BB
ENCODING 187
SWIDTH 600 0
DWIDTH 5 0
BBX 4 4 0 0
BITMAP
A0
50
50
20
ENDCHAR
STARTCHAR 00BC
ENCODING 188
SWIDTH 1080 0
DWIDTH 9 0
BBX 8 6 0 0
BITMAP
C4
48
4A
14
27
22
ENDCHAR
STARTCHAR 00BD
ENCODING 189
SWIDTH 960 0
DWIDTH 8 0
BBX 8 6 0 0
BITMAP
C4
48
4B
51
22
27
ENDCHAR
STARTCHAR 00BE
ENCODING 190
SWIDTH 1080 0
DWIDTH 9 0
BBX 8 6 0 0
BITMAP
E2
64
2A
5A
17
21
ENDCHAR
STARTCHAR 00BF
ENCODING 191
SWIDTH 600 0
DWIDTH 5 0
BBX 4 7 0 -2
BITMAP
20
00
20
40
C0
D0
70
ENDCHAR
STARTCHAR 00C0
ENCODING 192
SWIDTH 720 0
DWIDTH 6 0
BBX 5 8 0 0
BITMAP
20
00
30
30
50
48
78
88
ENDCHAR
STARTCHAR 00C1
ENCODING 193
SWIDTH 720 0
DWIDTH 6 0
BBX 5 8 0 0
BITMAP
10
00
30
30
50
48
78
88
ENDCHAR
STARTCHAR 00C2
ENCODING 194
SWIDTH 720 0
DWIDTH 6 0
BBX 5 8 0 0
BITMAP
30
00
30
30
50
48
78
88
ENDCHAR
STARTCHAR 00C3
ENCODING 195
SWIDTH 720 0
DWIDTH 6 0
BBX 5 8 0 0
BITMAP
70
00
30
30
50
48
78
88
ENDCHAR
STARTCHAR 00C4
ENCODING 196
SWIDTH 720 0
DWIDTH 6 0
BBX 5 8 0 0
BITMAP
50
00
30
30
50
48
78
88
ENDCHAR
STARTCHAR 00C5
ENCODING 197
SWIDTH 720 0
DWIDTH 6 0
BBX 5 9 0 0
BITMAP
20
50
20
30
30
50
48
78
88
ENDCHAR
STARTCHAR 00C6
ENCODING 198
SWIDTH 960 0
DWIDTH 8 0
BBX 7 6 0 0
BITMAP
3E
28
4E
48
78
8E
ENDCHAR
STARTCHAR 00C7
ENCODING 199
SWIDTH 720 0
DWIDTH 6 0
BBX 6 8 0 -2
BITMAP
78
4C
80
80
44
78
10
10
ENDCHAR
STARTCHAR 00C8
ENCODING 200
SWIDTH 600 0
DWIDTH 5 0
BBX 3 8 1 0
BITMAP
40
00
E0
80
E0
80
80
E0
ENDCHAR
STARTCHAR 00C9
ENCODING 201
SWIDTH 600 0
DWIDTH 5 0
BBX 3 8 1 0
BITMAP
40
00
E0
80
E0
80
80
E0
ENDCHAR
STARTCHAR 00CA
ENCODING 202
SWIDTH 600 0
DWIDTH 5 0
BBX 3 8 1 0
BITMAP
40
A0
E0
80
E0
80
80
E0
ENDCHAR
STARTCHAR 00CB
ENCODING 203
SWIDTH 600 0
DWIDTH 5 0
BBX 3 8 1 0
BITMAP
A0
00
E0
80
E0
80
80
E0
ENDCHAR
STARTCHAR 00CC
ENCODING 204
SWIDTH 240 0
DWIDTH 2 0
BBX 2 9 0 0
BITMAP
80
80
00
40
40
40
40
40
40
ENDCHAR
STARTCHAR 00CD
ENCODING 205
SWIDTH 240 0
DWIDTH 2 0
BBX 1 9 1 0
BITMAP
80
80
00
80
80
80
80
80
80
ENDCHAR
STARTCHAR 00CE
ENCODING 206
SWIDTH 240 0
DWIDTH 2 0
BBX 2 8 0 0
BITMAP
C0
00
40
40
40
40
40
40
ENDCHAR
STARTCHAR 00CF
ENCODING 207
SWIDTH 240 0
DWIDTH 2 0
BBX 2 8 0 0
BITMAP
80
00
40
40
40
40
40
40
ENDCHAR
STARTCHAR 00D0
ENCODING 208
SWIDTH 720 0
DWIDTH 6 0
BBX 5 6 0 0
BITMAP
70
48
E8
48
48
70
ENDCHAR
STARTCHAR 00D1
ENCODING 209
SWIDTH 720 0
DWIDTH 6 0
BBX 4 8 1 0
BITMAP
60
00
90
D0
D0
B0
B0
90
ENDCHAR
STARTCHAR 00D2
ENCODING 210
SWIDTH 720 0
DWIDTH 6 0
BBX 6 8 0 0
BITMAP
20
00
78
4C
84
84
4C
78
ENDCHAR
STARTCHAR 00D3
ENCODING 211
SWIDTH 720 0
DWIDTH 6 0
BBX 6 8 0 0
BITMAP
10
00
78
4C
84
84
4C
78
ENDCHAR
STARTCHAR 00D4
ENCODING 212
SWIDTH 720 0
DWIDTH 6 0
BBX 6 8 0 0
BITMAP
30
00
78
4C
84
84
4C
78
ENDCHAR
STARTCHAR 00D5
ENCODING 213
SWIDTH 720 0
DWIDTH 6 0
BBX 6 8 0 0
BITMAP
28
10
78
4C
84
84
4C
78
ENDCHAR
STARTCHAR 00D6
ENCODING 214
SWIDTH 720 0
DWIDTH 6 0
BBX 6 8 0 0
BITMAP
20
00
78
4C
84
84
4C
78
ENDCHAR
STARTCHAR 00D7
ENCODING 215
SWIDTH 480 0
DWIDTH 4 0
BBX 3 3 1 2
BITMAP
A0
C0
E0
ENDCHAR
STARTCHAR 00D8
ENCODING 216
SWIDTH 720 0
DWIDTH 6 0
BBX 6 6 0 0
BITMAP
7C
4C
94
A4
4C
F8
ENDCHAR
STARTCHAR 00D9
ENCODING 217
SWIDTH 720 0
DWIDTH 6 0
BBX 4 8 1 0
BITMAP
40
00
90
90
90
90
90
F0
ENDCHAR
STARTCHAR 00DA
ENCODING 218
SWIDTH 720 0
DWIDTH 6 0
BBX 4 8 1 0
BITMAP
20
00
90
90
90
90
90
F0
ENDCHAR
STARTCHAR 00DB
ENCODING 219
SWIDTH 720 0
DWIDTH 6 0
BBX 4 8 1 0
BITMAP
60
00
90
90
90
90
90
F0
ENDCHAR
STARTCHAR 00DC
ENCODING 220
SWIDTH 720 0
DWIDTH 6 0
BBX 4 8 1 0
BITMAP
60
00
90
90
90
90
90
F0
ENDCHAR
STARTCHAR 00DD
ENCODING 221
SWIDTH 600 0
DWIDTH 5 0
BBX 5 8 0 0
BITMAP
20
00
88
50
70
20
20
20
ENDCHAR
STARTCHAR 00DE
ENCODING 222
SWIDTH 600 0
DWIDTH 5 0
BBX 4 6 1 0
BITMAP
80
E0
90
90
E0
80
ENDCHAR
STARTCHAR 00DF
ENCODING 223
SWIDTH 600 0
DWIDTH 5 0
BBX 4 6 1 0
BITMAP
E0
A0
E0
90
90
E0
ENDCHAR
STARTCHAR 00E0
ENCODING 224
SWIDTH 600 0
DWIDTH 5 0
BBX 4 8 0 0
BITMAP
40
20
00
70
10
70
90
70
ENDCHAR
STARTCHAR 00E1
ENCODING 225
SWIDTH 600 0
DWIDTH 5 0
BBX 4 7 0 1
BITMAP
20
00
70
10
70
90
70
ENDCHAR
STARTCHAR 00E2
ENCODING 226
SWIDTH 600 0
DWIDTH 5 0
BBX 4 7 0 0
BITMAP
20
50
70
10
70
90
70
ENDCHAR
STARTCHAR 00E3
ENCODING 227
SWIDTH 600 0
DWIDTH 5 0
BBX 4 7 0 0
BITMAP
70
00
70
10
70
90
70
ENDCHAR
STARTCHAR 00E4
ENCODING 228
SWIDTH 600 0
DWIDTH 5 0
BBX 4 6 0 0
BITMAP
50
70
10
70
90
70
ENDCHAR
STARTCHAR 00E5
ENCODING 229
SWIDTH 600 0
DWIDTH 5 0
BBX 4 8 0 0
BITMAP
20
50
20
70
10
70
90
70
ENDCHAR
STARTCHAR 00E6
ENCODING 230
SWIDTH 960 0
DWIDTH 8 0
BBX 7 5 0 0
BITMAP
7E
1A
7E
9A
6E
ENDCHAR
STARTCHAR 00E7
ENCODING 231
SWIDTH 600 0
DWIDTH 5 0
BBX 5 7 0 -2
BITMAP
70
D0
80
D8
70
20
20
ENDCHAR
STARTCHAR 00E8
ENCODING 232
SWIDTH 600 0
DWIDTH 5 0
BBX 5 7 0 0
BITMAP
20
00
70
C8
F8
C0
70
ENDCHAR
STARTCHAR 00E9
ENCODING 233
SWIDTH 600 0
DWIDTH 5 0
BBX 5 7 0 0
BITMAP
20
00
70
C8
F8
C0
70
ENDCHAR
STARTCHAR 00EA
ENCODING 234
SWIDTH 600 0
DWIDTH 5 0
BBX 5 7 0 0
BITMAP
20
50
70
C8
F8
C0
70
ENDCHAR
STARTCHAR 00EB
ENCODING 235
SWIDTH 600 0
DWIDTH 5 0
BBX 5 6 0 0
BITMAP
50
70
C8
F8
C0
70
ENDCHAR
STARTCHAR 00EC
ENCODING 236
SWIDTH 240 0
DWIDTH 2 0
BBX 2 7 0 0
BITMAP
80
00
40
40
40
40
40
ENDCHAR
STARTCHAR 00ED
ENCODING 237
SWIDTH 240 0
DWIDTH 2 0
BBX 1 7 1 0
BITMAP
80
00
80
80
80
80
80
ENDCHAR
STARTCHAR 00EE
ENCODING 238
SWIDTH 240 0
DWIDTH 2 0
BBX 2 7 0 0
BITMAP
C0
00
40
40
40
40
40
ENDCHAR
STARTCHAR 00EF
ENCODING 239
SWIDTH 240 0
DWIDTH 2 0
BBX 2 6 0 0
BITMAP
80
40
40
40
40
40
ENDCHAR
STARTCHAR 00F0
ENCODING 240
SWIDTH 600 0
DWIDTH 5 0
BBX 5 6 0 0
BITMAP
30
30
78
88
88
70
ENDCHAR
STARTCHAR 00F1
ENCODING 241
SWIDTH 600 0
DWIDTH 5 0
BBX 4 7 1 0
BITMAP
C0
A0
00
60
90
90
90
ENDCHAR
STARTCHAR 00F2
ENCODING 242
SWIDTH 600 0
DWIDTH 5 0
BBX 5 7 0 0
BITMAP
40
00
70
C8
88
C8
70
ENDCHAR
STARTCHAR 00F3
ENCODING 243
SWIDTH 600 0
DWIDTH 5 0
BBX 5 7 0 0
BITMAP
20
00
70
C8
88
C8
70
ENDCHAR
STARTCHAR 00F4
ENCODING 244
SWIDTH 600 0
DWIDTH 5 0
BBX 5 7 0 0
BITMAP
20
50
70
C8
88
C8
70
ENDCHAR
STARTCHAR 00F5
ENCODING 245
SWIDTH 600 0
DWIDTH 5 0
BBX 5 7 0 0
BITMAP
70
00
70
C8
88
C8
70
ENDCHAR
STARTCHAR 00F6
ENCODING 246
SWIDTH 600 0
DWIDTH 5 0
BBX 5 6 0 0
BITMAP
50
70
C8
88
C8
70
ENDCHAR
STARTCHAR 00F7
ENCODING 247
SWIDTH 600 0
DWIDTH 5 0
BBX 2 4 1 1
BITMAP
40
00
C0
40
ENDCHAR
STARTCHAR 00F8
ENCODING 248
SWIDTH 600 0
DWIDTH 5 0
BBX 5 5 0 0
BITMAP
78
D8
A8
C8
F0
ENDCHAR
STARTCHAR 00F9
ENCODING 249
SWIDTH 600 0
DWIDTH 5 0
BBX 5 7 0 0
BITMAP
20
00
C8
C8
C8
58
78
ENDCHAR
STARTCHAR 00FA
ENCODING 250
SWIDTH 600 0
DWIDTH 5 0
BBX 5 7 0 0
BITMAP
20
00
C8
C8
C8
58
78
ENDCHAR
STARTCHAR 00FB
ENCODING 251
SWIDTH 600 0
DWIDTH 5 0
BBX 5 7 0 0
BITMAP
20
50
C8
C8
C8
58
78
ENDCHAR
STARTCHAR 00FC
ENCODING 252
SWIDTH 600 0
DWIDTH 5 0
BBX 5 6 0 0
BITMAP
50
C8
C8
C8
58
78
ENDCHAR
STARTCHAR 00FD
ENCODING 253
SWIDTH 600 0
DWIDTH 5 0
BBX 4 9 0 -2
BITMAP
20
00
90
50
50
20
20
40
40
ENDCHAR
STARTCHAR 00FE
ENCODING 254
SWIDTH 600 0
DWIDTH 5 0
BBX 4 8 1 -2
BITMAP
80
E0
90
90
90
E0
80
80
ENDCHAR
STARTCHAR 00FF
ENCODING 255
SWIDTH 600 0
DWIDTH 5 0
BBX 4 8 0 -2
BITMAP
50
90
50
50
20
20
40
40
ENDCHAR
ENDFONT
