STARTFONT 2.1
COMMENT
COMMENT Converted from OpenType font "manrope-extrabold.otf" by "otf2bdf 3.0".
COMMENT
FONT -FreeType-Manrope ExtraBold-Medium-R-Normal--37-270-100-100-P-185-ISO10646-1
SIZE 27 100 100
FONTBOUNDINGBOX 39 48 -2 -9
STARTPROPERTIES 19
FOUNDRY "FreeType"
FAMILY_NAME "Manrope ExtraBold"
WEIGHT_NAME "Medium"
SLANT "R"
SETWIDTH_NAME "Normal"
ADD_STYLE_NAME ""
PIXEL_SIZE 37
POINT_SIZE 270
RESOLUTION_X 100
RESOLUTION_Y 100
SPACING "P"
AVERAGE_WIDTH 185
CHARSET_REGISTRY "ISO10646"
CHARSET_ENCODING "1"
FONT_ASCENT 40
FONT_DESCENT 11
COPYRIGHT "Copyright 2019-2021 The Manrope Project Authors (https://github.com/sharanda/manrope)"
_OTF_FONTFILE "manrope-extrabold.otf"
_OTF_PSNAME "Manrope-ExtraBold"
ENDPROPERTIES
CHARS 191
STARTCHAR 0020
ENCODING 32
SWIDTH 213 0
DWIDTH 8 0
BBX 0 0 0 0
BITMAP
ENDCHAR
STARTCHAR 0021
ENCODING 33
SWIDTH 373 0
DWIDTH 14 0
BBX 6 27 4 0
BITMAP
FC
FC
FC
FC
FC
FC
FC
FC
FC
FC
FC
FC
FC
FC
FC
FC
FC
FC
FC
FC
00
00
FC
FC
FC
FC
FC
ENDCHAR
STARTCHAR 0022
ENCODING 34
SWIDTH 480 0
DWIDTH 18 0
BBX 13 7 2 20
BITMAP
F8F8
F8F8
F8F8
F8F8
F8F8
F8F8
F8F8
ENDCHAR
STARTCHAR 0023
ENCODING 35
SWIDTH 933 0
DWIDTH 35 0
BBX 31 27 2 0
BITMAP
000F87C0
000F87C0
001F0F80
001F0F80
001F0F80
003E1F00
0FFFFFFE
1FFFFFFC
1FFFFFFC
1FFFFFFC
1FFFFFFC
007C3E00
007C3E00
00F87C00
00F87C00
7FFFFFF0
7FFFFFF0
7FFFFFF0
7FFFFFF0
FFFFFFE0
01F0F800
03E1F000
03E1F000
03E1F000
07C3E000
07C3E000
07C3E000
ENDCHAR
STARTCHAR 0024
ENCODING 36
SWIDTH 640 0
DWIDTH 24 0
BBX 21 33 2 -3
BITMAP
00F800
00F800
00F800
03FC00
0FFF00
3FFFC0
3FFFC0
7F9FE0
7C07F0
7C03F0
FC01F0
7C0000
7E0000
7FC000
3FFC00
3FFF00
0FFFC0
03FFE0
007FF0
0007F0
0001F0
F801F8
F801F0
FC01F0
FE03F0
7FDFF0
3FFFE0
3FFFC0
0FFF80
03FE00
00F800
00F800
00F800
ENDCHAR
STARTCHAR 0025
ENCODING 37
SWIDTH 906 0
DWIDTH 34 0
BBX 30 27 2 0
BITMAP
07C000C0
1FE001C0
3FF003E0
7FF807F0
7CF80FE0
F87C1FC0
F87C3F80
F87C7F00
7CF8FE00
7FF9FC00
3FF3F800
1FE7F000
0FCFE000
001FC000
003F8F80
007F1FE0
00FE7FF0
01FC7FF8
03F8FCF8
07F0F878
0FE0F07C
1FC0F878
3F80FCF8
3F007FF8
1E007FF0
1C003FE0
08000F80
ENDCHAR
STARTCHAR 0026
ENCODING 38
SWIDTH 666 0
DWIDTH 25 0
BBX 23 27 2 0
BITMAP
03F800
0FFE00
1FFF00
3FFF80
3FFFC0
7E0FC0
7C0600
7C0000
7E0000
7E0000
3F0000
3F8000
1FC000
3FE1F0
7FF9F0
FFFDF0
FCFFF0
F87FF0
F83FF0
F81FF0
FC07F0
FE07F0
7FFFFC
7FFFFE
3FFFFC
1FFF38
03FC10
ENDCHAR
STARTCHAR 0027
ENCODING 39
SWIDTH 266 0
DWIDTH 10 0
BBX 5 7 2 20
BITMAP
F8
F8
F8
F8
F8
F8
F8
ENDCHAR
STARTCHAR 0028
ENCODING 40
SWIDTH 453 0
DWIDTH 17 0
BBX 11 39 5 -7
BITMAP
0100
0380
07C0
0FC0
0F80
1F80
1F00
1F00
3E00
3E00
7C00
7C00
7C00
7800
7800
F800
F800
F800
F800
F800
F800
F800
F800
F800
7800
7800
7C00
7C00
7C00
3E00
3E00
3E00
1F00
1F80
0F80
0FC0
07E0
03C0
0300
ENDCHAR
STARTCHAR 0029
ENCODING 41
SWIDTH 453 0
DWIDTH 17 0
BBX 10 39 2 -7
BITMAP
1000
7000
F800
FC00
7C00
7E00
3E00
1F00
1F00
0F00
0F80
0F80
0780
07C0
07C0
07C0
07C0
07C0
07C0
07C0
07C0
07C0
07C0
07C0
07C0
07C0
0780
0F80
0F80
0F80
1F00
1F00
3E00
3E00
7E00
FC00
F800
7800
3000
ENDCHAR
STARTCHAR 002A
ENCODING 42
SWIDTH 480 0
DWIDTH 18 0
BBX 14 14 1 13
BITMAP
07C0
0780
0780
7798
7FFC
7FFC
FFFC
1FF0
0FE0
1FF0
3EF8
3CF8
1C60
0040
ENDCHAR
STARTCHAR 002B
ENCODING 43
SWIDTH 560 0
DWIDTH 21 0
BBX 17 17 2 5
BITMAP
01E000
01E000
01E000
01E000
01E000
01E000
FFFF80
FFFF80
FFFF80
FFFF80
01E000
01E000
01E000
01E000
01E000
01E000
01E000
ENDCHAR
STARTCHAR 002C
ENCODING 44
SWIDTH 320 0
DWIDTH 12 0
BBX 5 10 2 -6
BITMAP
F8
F8
F8
F8
F8
18
18
38
F8
F0
ENDCHAR
STARTCHAR 002D
ENCODING 45
SWIDTH 426 0
DWIDTH 16 0
BBX 12 4 2 10
BITMAP
FFF0
FFF0
FFF0
FFF0
ENDCHAR
STARTCHAR 002E
ENCODING 46
SWIDTH 320 0
DWIDTH 12 0
BBX 6 5 3 0
BITMAP
FC
FC
FC
FC
FC
ENDCHAR
STARTCHAR 002F
ENCODING 47
SWIDTH 453 0
DWIDTH 17 0
BBX 12 27 2 0
BITMAP
01F0
01F0
01F0
03F0
03E0
03E0
03E0
07E0
07C0
07C0
07C0
0F80
0F80
0F80
0F80
1F00
1F00
1F00
1F00
3E00
3E00
3E00
7E00
7C00
7C00
7C00
F800
ENDCHAR
STARTCHAR 0030
ENCODING 48
SWIDTH 666 0
DWIDTH 25 0
BBX 20 27 3 0
BITMAP
03F800
0FFE00
1FFF80
3FFFC0
7FFFC0
FE0FE0
FC07E0
F803E0
F803F0
F803F0
F803F0
F803F0
F803F0
F803F0
F803F0
F803F0
F803F0
F803F0
F803F0
F803E0
FC07E0
FE0FE0
7FFFC0
3FFFC0
1FFF80
0FFE00
03F800
ENDCHAR
STARTCHAR 0031
ENCODING 49
SWIDTH 453 0
DWIDTH 17 0
BBX 11 27 2 0
BITMAP
0FE0
1FE0
7FE0
FFE0
FFE0
FFE0
F7E0
C7E0
87E0
07E0
07E0
07E0
07E0
07E0
07E0
07E0
07E0
07E0
07E0
07E0
07E0
07E0
07E0
07E0
07E0
07E0
07E0
ENDCHAR
STARTCHAR 0032
ENCODING 50
SWIDTH 613 0
DWIDTH 23 0
BBX 19 27 2 0
BITMAP
03F800
0FFE00
3FFF00
3FFF80
7FFFC0
FE0FC0
FC07C0
F807E0
F807E0
0007E0
0007E0
000FC0
000FC0
003FC0
007F80
00FF00
01FE00
03F800
07F000
1FE000
3FC000
7F8000
FFFFE0
FFFFE0
FFFFE0
FFFFE0
FFFFE0
ENDCHAR
STARTCHAR 0033
ENCODING 51
SWIDTH 586 0
DWIDTH 22 0
BBX 19 27 1 0
BITMAP
3FFFC0
3FFFC0
3FFFC0
3FFFC0
3FFFC0
000FC0
003F80
007F00
00FE00
01F800
07FC00
03FF00
03FF80
01FFC0
010FC0
0007E0
0007E0
0003E0
0003E0
0C07E0
FC07E0
7E0FC0
7FFFC0
3FFF80
1FFF00
0FFE00
03F800
ENDCHAR
STARTCHAR 0034
ENCODING 52
SWIDTH 613 0
DWIDTH 23 0
BBX 19 27 2 0
BITMAP
00FC00
00FC00
01F800
01F800
03F000
03F000
07E000
07E000
0FC000
0FC000
1F8000
1F8F80
3F0F80
3F0F80
3E0F80
7E0F80
7C0F80
FC0F80
FFFFE0
FFFFE0
FFFFE0
FFFFE0
FFFFE0
000F80
000F80
000F80
000F80
ENDCHAR
STARTCHAR 0035
ENCODING 53
SWIDTH 586 0
DWIDTH 22 0
BBX 18 27 2 0
BITMAP
3FFF00
3FFF00
3FFF00
7FFF00
7FFF00
7C0000
7C0000
7C0000
7C0000
7C4000
7FFC00
7FFE00
7FFF00
7FFF80
3C1FC0
000FC0
0007C0
0007C0
0007C0
1807C0
F80FC0
FE1F80
7FFF80
7FFF00
3FFE00
0FFC00
03F000
ENDCHAR
STARTCHAR 0036
ENCODING 54
SWIDTH 613 0
DWIDTH 23 0
BBX 18 27 3 0
BITMAP
03F800
0FFE00
1FFF80
3FFF00
7FFE00
FE0C00
FC0000
F80000
F80000
F80000
F9F800
FFFE00
FFFF00
FFFF80
FFFFC0
FC0FC0
F807C0
F807C0
F807C0
F807C0
FC0FC0
FE1FC0
7FFF80
3FFF80
3FFF00
0FFC00
03F000
ENDCHAR
STARTCHAR 0037
ENCODING 55
SWIDTH 533 0
DWIDTH 20 0
BBX 18 27 1 0
BITMAP
FFFFC0
FFFFC0
FFFFC0
FFFFC0
FFFFC0
000F80
001F80
001F00
001F00
003F00
003E00
007E00
007C00
00FC00
00FC00
00F800
01F800
01F000
03F000
03F000
03E000
07E000
07C000
0FC000
0FC000
0F8000
1F8000
ENDCHAR
STARTCHAR 0038
ENCODING 56
SWIDTH 613 0
DWIDTH 23 0
BBX 19 27 2 0
BITMAP
03F800
0FFE00
1FFF00
3FFF80
3FFFC0
7E0FC0
7E07C0
7C07C0
7C07C0
7E0FC0
3FFFC0
3FFF80
1FFF00
3FFF80
7FFFC0
7E0FC0
FC07E0
FC03E0
FC03E0
FC03E0
FC07E0
7E0FE0
7FFFC0
3FFF80
1FFF80
0FFE00
03F800
ENDCHAR
STARTCHAR 0039
ENCODING 57
SWIDTH 613 0
DWIDTH 23 0
BBX 19 27 2 0
BITMAP
03F000
0FFE00
1FFF00
3FFF80
7FFF80
7E1FC0
FC07C0
F807E0
F807E0
F807E0
FC07E0
FE0FE0
7FFFE0
7FFFE0
3FFFE0
1FFFE0
03E7E0
0007E0
0007E0
0007C0
000FC0
041FC0
0FFF80
1FFF80
3FFF00
1FFC00
07F000
ENDCHAR
STARTCHAR 003A
ENCODING 58
SWIDTH 346 0
DWIDTH 13 0
BBX 5 16 4 2
BITMAP
F8
F8
F8
F8
F8
00
00
00
00
00
00
F8
F8
F8
F8
F8
ENDCHAR
STARTCHAR 003B
ENCODING 59
SWIDTH 346 0
DWIDTH 13 0
BBX 5 26 4 -6
BITMAP
F8
F8
F8
F8
F8
00
00
00
00
00
00
00
00
00
00
00
F8
F8
F8
F8
F8
18
18
38
F0
F0
ENDCHAR
STARTCHAR 003C
ENCODING 60
SWIDTH 640 0
DWIDTH 24 0
BBX 11 18 6 3
BITMAP
0080
01C0
03E0
07E0
0FC0
1F80
3F00
7E00
FC00
FC00
7E00
3F00
1F80
0FC0
07E0
03E0
01C0
0080
ENDCHAR
STARTCHAR 003D
ENCODING 61
SWIDTH 746 0
DWIDTH 28 0
BBX 20 11 4 8
BITMAP
FFFFF0
FFFFF0
FFFFF0
FFFFF0
000000
000000
000000
FFFFF0
FFFFF0
FFFFF0
FFFFF0
ENDCHAR
STARTCHAR 003E
ENCODING 62
SWIDTH 640 0
DWIDTH 24 0
BBX 12 18 7 3
BITMAP
2000
7000
F800
FC00
7E00
3F00
1F80
0FC0
07E0
07F0
0FE0
1FC0
3F80
7F00
FE00
FC00
7800
3000
ENDCHAR
STARTCHAR 003F
ENCODING 63
SWIDTH 560 0
DWIDTH 21 0
BBX 17 27 2 0
BITMAP
07F000
1FFC00
3FFE00
7FFF00
7FFF80
FC1F80
F80F80
F80F80
000F80
001F80
001F80
003F00
007E00
00FE00
01FC00
03F800
03F000
03E000
07E000
07E000
000000
000000
07E000
07E000
07E000
07E000
07E000
ENDCHAR
STARTCHAR 0040
ENCODING 64
SWIDTH 906 0
DWIDTH 34 0
BBX 28 28 3 -4
BITMAP
003FC000
01FFF800
07FFFE00
0FFFFF00
1FE03F80
3F000FC0
3E0007E0
7C1F03E0
787FF9F0
78FFF9F0
F9FFF8F0
F1F0F8F0
F1E078F0
F1E078F0
F1E078F0
F1E078F0
F1F0F8F0
F9FFFFF0
78FFFFE0
787FFFE0
7C1F0F80
3E000000
3F000000
1FE00000
0FFFE000
03FFE000
01FFE000
003FC000
ENDCHAR
STARTCHAR 0041
ENCODING 65
SWIDTH 693 0
DWIDTH 26 0
BBX 24 27 1 0
BITMAP
00FF00
00FF00
01FF00
01FF80
01FF80
03EF80
03EFC0
03E7C0
07E7C0
07C7E0
07C3E0
0FC3E0
0F83E0
0F81F0
0F81F0
1F01F0
1FFFF8
1FFFF8
3FFFF8
3FFFFC
3FFFFC
7E007C
7C007C
7C003E
7C003E
F8003E
F8003F
ENDCHAR
STARTCHAR 0042
ENCODING 66
SWIDTH 640 0
DWIDTH 24 0
BBX 20 27 3 0
BITMAP
FFFC00
FFFF00
FFFF80
FFFF80
FFFFC0
F80FC0
F807C0
F807E0
F807C0
F807C0
FFFFC0
FFFF80
FFFF00
FFFFC0
FFFFE0
F807E0
F803E0
F803F0
F801F0
F803F0
F803F0
F807E0
FFFFE0
FFFFE0
FFFFC0
FFFF80
FFFE00
ENDCHAR
STARTCHAR 0043
ENCODING 67
SWIDTH 746 0
DWIDTH 28 0
BBX 25 27 1 0
BITMAP
007F8000
01FFF000
07FFF800
0FFFFC00
1FFFFE00
3FC07F00
3F003F80
7E001F80
7E000F80
7C000800
FC000000
FC000000
FC000000
F8000000
FC000000
FC000000
FC000000
7C000800
7E000F80
7E001F80
3F003F80
3FC07F00
1FFFFE00
0FFFFC00
07FFF800
01FFF000
007F8000
ENDCHAR
STARTCHAR 0044
ENCODING 68
SWIDTH 720 0
DWIDTH 27 0
BBX 22 27 3 0
BITMAP
FFF800
FFFF00
FFFF80
FFFFC0
FFFFE0
F807F0
F803F0
F801F8
F801F8
F800F8
F800F8
F800FC
F800FC
F800FC
F800FC
F800FC
F800F8
F800F8
F801F8
F801F8
F803F0
F807F0
FFFFE0
FFFFC0
FFFF80
FFFF00
FFF800
ENDCHAR
STARTCHAR 0045
ENCODING 69
SWIDTH 586 0
DWIDTH 22 0
BBX 17 27 3 0
BITMAP
FFFF80
FFFF80
FFFF80
FFFF80
FFFF80
F80000
F80000
F80000
F80000
F80000
FFFE00
FFFE00
FFFE00
FFFE00
FFFE00
F80000
F80000
F80000
F80000
F80000
F80000
F80000
FFFF80
FFFF80
FFFF80
FFFF80
FFFF80
ENDCHAR
STARTCHAR 0046
ENCODING 70
SWIDTH 533 0
DWIDTH 20 0
BBX 16 27 3 0
BITMAP
FFFF
FFFF
FFFF
FFFF
FFFF
F800
F800
F800
F800
F800
F800
FFFC
FFFC
FFFC
FFFC
FFFC
F800
F800
F800
F800
F800
F800
F800
F800
F800
F800
F800
ENDCHAR
STARTCHAR 0047
ENCODING 71
SWIDTH 746 0
DWIDTH 28 0
BBX 26 27 1 0
BITMAP
007F8000
01FFF000
07FFF800
0FFFFC00
1FFFFE00
3FC0FF00
3F003F00
7E001F80
7E001F80
7C000C00
FC000000
FC000000
FC000000
FC00FFC0
FC00FFC0
FC00FFC0
FC00FFC0
7C000F80
7C000F80
7E001F80
3F003F00
3FC07F00
1FFFFE00
0FFFFC00
07FFF800
01FFE000
007F8000
ENDCHAR
STARTCHAR 0048
ENCODING 72
SWIDTH 746 0
DWIDTH 28 0
BBX 22 27 3 0
BITMAP
F8007C
F8007C
F8007C
F8007C
F8007C
F8007C
F8007C
F8007C
F8007C
F8007C
F8007C
FFFFFC
FFFFFC
FFFFFC
FFFFFC
FFFFFC
F8007C
F8007C
F8007C
F8007C
F8007C
F8007C
F8007C
F8007C
F8007C
F8007C
F8007C
ENDCHAR
STARTCHAR 0049
ENCODING 73
SWIDTH 293 0
DWIDTH 11 0
BBX 5 27 3 0
BITMAP
F8
F8
F8
F8
F8
F8
F8
F8
F8
F8
F8
F8
F8
F8
F8
F8
F8
F8
F8
F8
F8
F8
F8
F8
F8
F8
F8
ENDCHAR
STARTCHAR 004A
ENCODING 74
SWIDTH 506 0
DWIDTH 19 0
BBX 16 27 0 0
BITMAP
001F
001F
001F
001F
001F
001F
001F
001F
001F
001F
001F
001F
001F
001F
001F
001F
001F
001F
001F
001F
381F
FC3F
7FFF
7FFE
3FFC
1FF8
07F0
ENDCHAR
STARTCHAR 004B
ENCODING 75
SWIDTH 666 0
DWIDTH 25 0
BBX 22 27 3 0
BITMAP
F801F8
F803F0
F807E0
F80FC0
F81F80
F83F80
F83F00
F87E00
F8FC00
F9F800
FBF000
FFE000
FFE000
FFC000
FFE000
FFF000
FBF800
F9FC00
F8FE00
F87E00
F83F00
F81F80
F80FC0
F80FE0
F807F0
F803F8
F801FC
ENDCHAR
STARTCHAR 004C
ENCODING 76
SWIDTH 533 0
DWIDTH 20 0
BBX 17 27 3 0
BITMAP
F80000
F80000
F80000
F80000
F80000
F80000
F80000
F80000
F80000
F80000
F80000
F80000
F80000
F80000
F80000
F80000
F80000
F80000
F80000
F80000
F80000
F80000
FFFF80
FFFF80
FFFF80
FFFF80
FFFF80
ENDCHAR
STARTCHAR 004D
ENCODING 77
SWIDTH 853 0
DWIDTH 32 0
BBX 27 27 3 0
BITMAP
F00003E0
F80007E0
F80007E0
FC000FE0
FC000FE0
FE001FE0
FE001FE0
FF003FE0
FF003FE0
FF807FE0
FF807FE0
F7C0FFE0
F7C0FBE0
F3E1FBE0
F3E1F3E0
F1F3F3E0
F1F3E3E0
F0FFE3E0
F0FFC3E0
F07FC3E0
F07F83E0
F03F83E0
F03F03E0
F03F03E0
F01E03E0
F01E03E0
F00C03E0
ENDCHAR
STARTCHAR 004E
ENCODING 78
SWIDTH 720 0
DWIDTH 27 0
BBX 22 27 3 0
BITMAP
F8007C
FC007C
FC007C
FE007C
FF007C
FF007C
FF807C
FFC07C
FFC07C
FFE07C
FBF07C
FBF07C
F9F87C
F8FC7C
F8FC7C
F87E7C
F83F7C
F83F7C
F81FFC
F80FFC
F80FFC
F807FC
F803FC
F803FC
F801FC
F800FC
F800FC
ENDCHAR
STARTCHAR 004F
ENCODING 79
SWIDTH 746 0
DWIDTH 28 0
BBX 26 27 1 0
BITMAP
007F8000
01FFF000
07FFF800
0FFFFC00
1FFFFE00
3FC07F00
3F003F80
7E001F80
7E000FC0
7C000FC0
FC0007C0
FC0007C0
FC0007C0
FC0007C0
FC0007C0
FC0007C0
FC0007C0
7C000FC0
7E000FC0
7E001F80
3F003F80
3FC07F00
1FFFFE00
0FFFFE00
07FFF800
01FFF000
007F8000
ENDCHAR
STARTCHAR 0050
ENCODING 80
SWIDTH 640 0
DWIDTH 24 0
BBX 20 27 3 0
BITMAP
FFFE00
FFFF80
FFFFC0
FFFFE0
FFFFE0
F803F0
F801F0
F801F0
F801F0
F801F0
F801F0
F803F0
F807F0
FFFFE0
FFFFE0
FFFFC0
FFFF80
FFFC00
F80000
F80000
F80000
F80000
F80000
F80000
F80000
F80000
F80000
ENDCHAR
STARTCHAR 0051
ENCODING 81
SWIDTH 746 0
DWIDTH 28 0
BBX 26 27 1 0
BITMAP
007F8000
01FFF000
07FFF800
0FFFFC00
1FFFFE00
3FC07F00
3F003F80
7E001F80
7E000FC0
7C000FC0
FC0007C0
FC0007C0
FC0007C0
FC0007C0
FC0007C0
FC0007C0
FC0007C0
7C006FC0
7E00FFC0
7E01FF80
3F00FF80
3FC07F00
1FFFFF00
0FFFFF80
07FFFF80
01FFF700
007F8200
ENDCHAR
STARTCHAR 0052
ENCODING 82
SWIDTH 666 0
DWIDTH 25 0
BBX 20 27 3 0
BITMAP
FFFE00
FFFF80
FFFFC0
FFFFE0
FFFFE0
F803F0
F801F0
F801F0
F801F0
F801F0
F801F0
F803F0
F807F0
FFFFE0
FFFFE0
FFFFC0
FFFF80
FFFF00
F81F80
F81F80
F80FC0
F80FC0
F807C0
F807E0
F803E0
F803F0
F801F0
ENDCHAR
STARTCHAR 0053
ENCODING 83
SWIDTH 666 0
DWIDTH 25 0
BBX 23 27 1 0
BITMAP
00FE00
07FFC0
0FFFE0
1FFFF0
3FFFF8
3F03FC
3E00FC
3E00FC
3E0040
3F0000
3FE000
1FFE00
1FFFC0
07FFF0
00FFF8
001FFC
0001FC
00007E
FC007E
7E007E
7E007C
7F81FC
3FFFFC
1FFFF8
0FFFF0
03FFC0
00FF00
ENDCHAR
STARTCHAR 0054
ENCODING 84
SWIDTH 613 0
DWIDTH 23 0
BBX 23 27 0 0
BITMAP
FFFFFE
FFFFFE
FFFFFE
FFFFFE
FFFFFE
007C00
007C00
007C00
007C00
007C00
007C00
007C00
007C00
007C00
007C00
007C00
007C00
007C00
007C00
007C00
007C00
007C00
007C00
007C00
007C00
007C00
007C00
ENDCHAR
STARTCHAR 0055
ENCODING 85
SWIDTH 720 0
DWIDTH 27 0
BBX 22 27 3 0
BITMAP
F800FC
F800FC
F800FC
F800FC
F800FC
F800FC
F800FC
F800FC
F800FC
F800FC
F800FC
F800FC
F800FC
F800FC
F800FC
F800FC
F800FC
F800FC
F800F8
FC00F8
FC01F8
7F07F0
7FFFF0
3FFFE0
1FFFC0
07FF80
01FC00
ENDCHAR
STARTCHAR 0056
ENCODING 86
SWIDTH 640 0
DWIDTH 24 0
BBX 24 27 0 0
BITMAP
FC001F
7C001F
7C003F
7E003E
3E003E
3E007E
3E007C
3F007C
1F00FC
1F00F8
1F80F8
0F81F8
0F81F0
0FC1F0
07C1F0
07C3F0
07C3E0
03E3E0
03E7E0
03E7C0
03F7C0
01FFC0
01FF80
01FF80
00FF80
00FF80
00FF00
ENDCHAR
STARTCHAR 0057
ENCODING 87
SWIDTH 986 0
DWIDTH 37 0
BBX 36 27 1 0
BITMAP
F801F003F0
F803F803E0
F803F803E0
FC03F807E0
7C03F807C0
7C07FC07C0
7E07FC07C0
3E07FC0FC0
3E07FE0F80
3E0FBE0F80
3F0FBE1F80
1F0FBE1F00
1F1F1F1F00
1F1F1F1F00
0F9F1F3E00
0F9F1F3E00
0FBE0FBE00
0FFE0FBE00
07FE0FFC00
07FC07FC00
07FC07FC00
03FC07F800
03FC07F800
03F803F800
01F803F800
01F803F000
01F001F000
ENDCHAR
STARTCHAR 0058
ENCODING 88
SWIDTH 666 0
DWIDTH 25 0
BBX 24 27 1 0
BITMAP
FC007E
7E00FE
7F00FC
3F01F8
1F83F8
1F83F0
0FC7E0
07E7E0
07EFC0
03FF80
01FF80
01FF00
00FE00
00FE00
00FF00
01FF00
03FF80
03FFC0
07EFC0
0FC7E0
0FC7F0
1F83F0
3F81F8
3F01FC
7E00FC
FE007E
FC007F
ENDCHAR
STARTCHAR 0059
ENCODING 89
SWIDTH 640 0
DWIDTH 24 0
BBX 23 27 0 0
BITMAP
FC007E
7E007E
7E00FC
3F00FC
1F81F8
1F81F0
0FC3F0
0FC7E0
07E7E0
07EFC0
03FFC0
01FF80
01FF00
00FF00
00FE00
007E00
007C00
007C00
007C00
007C00
007C00
007C00
007C00
007C00
007C00
007C00
007C00
ENDCHAR
STARTCHAR 005A
ENCODING 90
SWIDTH 693 0
DWIDTH 26 0
BBX 22 27 2 0
BITMAP
7FFFFC
7FFFF8
7FFFF8
7FFFF0
7FFFE0
000FE0
000FC0
001FC0
003F80
003F00
007F00
007E00
00FE00
01FC00
01F800
03F800
03F000
07F000
07E000
0FC000
1FC000
1F8000
3FFFF8
3FFFF8
7FFFF8
FFFFF8
FFFFF8
ENDCHAR
STARTCHAR 005B
ENCODING 91
SWIDTH 426 0
DWIDTH 16 0
BBX 9 42 5 -8
BITMAP
FF80
FF80
FF80
FF80
FF80
F800
F800
F800
F800
F800
F800
F800
F800
F800
F800
F800
F800
F800
F800
F800
F800
F800
F800
F800
F800
F800
F800
F800
F800
F800
F800
F800
F800
F800
F800
F800
F800
FF80
FF80
FF80
FF80
FF80
ENDCHAR
STARTCHAR 005C
ENCODING 92
SWIDTH 453 0
DWIDTH 17 0
BBX 12 27 2 0
BITMAP
F800
7C00
7C00
7C00
7E00
3E00
3E00
3E00
1F00
1F00
1F00
1F00
0F80
0F80
0F80
0F80
07C0
07C0
07C0
07E0
03E0
03E0
03E0
03F0
01F0
01F0
01F0
ENDCHAR
STARTCHAR 005D
ENCODING 93
SWIDTH 426 0
DWIDTH 16 0
BBX 9 42 2 -8
BITMAP
FF80
FF80
FF80
FF80
FF80
0F80
0F80
0F80
0F80
0F80
0F80
0F80
0F80
0F80
0F80
0F80
0F80
0F80
0F80
0F80
0F80
0F80
0F80
0F80
0F80
0F80
0F80
0F80
0F80
0F80
0F80
0F80
0F80
0F80
0F80
0F80
0F80
FF80
FF80
FF80
FF80
FF80
ENDCHAR
STARTCHAR 005E
ENCODING 94
SWIDTH 693 0
DWIDTH 26 0
BBX 18 12 4 16
BITMAP
00C000
01E000
03F000
03F800
07FC00
0FFE00
1FFF00
3F3F80
7E1FC0
FC0FC0
780780
300300
ENDCHAR
STARTCHAR 005F
ENCODING 95
SWIDTH 666 0
DWIDTH 25 0
BBX 25 4 0 -5
BITMAP
FFFFFF80
FFFFFF80
FFFFFF80
FFFFFF80
ENDCHAR
STARTCHAR 0060
ENCODING 96
SWIDTH 560 0
DWIDTH 21 0
BBX 7 7 6 30
BITMAP
F0
70
78
78
3C
3C
1E
ENDCHAR
STARTCHAR 0061
ENCODING 97
SWIDTH 586 0
DWIDTH 22 0
BBX 19 21 1 0
BITMAP
03FC00
0FFF00
1FFF80
3FFFC0
3FFFC0
7E07C0
0C07E0
0007E0
00FFE0
0FFFE0
3FFFE0
3FFFE0
7F87E0
7C07E0
F807E0
7C0FE0
7C1FE0
7FFFE0
3FFFE0
1FFBE0
0FE000
ENDCHAR
STARTCHAR 0062
ENCODING 98
SWIDTH 613 0
DWIDTH 23 0
BBX 19 27 3 0
BITMAP
F80000
F80000
F80000
F80000
F80000
F80000
FBF000
FFFC00
FFFF00
FFFF80
FFFF80
FC1FC0
F80FC0
F007E0
F007E0
F007E0
F007E0
F007E0
F007E0
F807E0
F80FC0
FC0FC0
FFFF80
FFFF80
FFFF00
FFFE00
F3F800
ENDCHAR
STARTCHAR 0063
ENCODING 99
SWIDTH 586 0
DWIDTH 22 0
BBX 20 21 1 0
BITMAP
01FC00
07FF00
0FFF80
1FFFC0
3FFFE0
3F07E0
7E03F0
7C0380
7C0000
7C0000
FC0000
7C0000
7C0000
7C0300
7E03F0
3F07E0
3FFFE0
1FFFC0
0FFF80
07FF00
01FC00
ENDCHAR
STARTCHAR 0064
ENCODING 100
SWIDTH 613 0
DWIDTH 23 0
BBX 20 27 1 0
BITMAP
0001F0
0001F0
0001F0
0001F0
0001F0
0001F0
01F9F0
07FFF0
0FFFF0
1FFFF0
3FFFF0
3F03F0
7E03F0
7C01F0
7C01F0
7C01F0
FC01F0
FC01F0
7C01F0
7C01F0
7E03F0
7F03F0
3FFFF0
1FFFF0
0FFFF0
07FFF0
01F9F0
ENDCHAR
STARTCHAR 0065
ENCODING 101
SWIDTH 613 0
DWIDTH 23 0
BBX 20 21 1 0
BITMAP
01FC00
07FF00
0FFF80
1FFFC0
3FDFE0
3F03E0
7E01F0
7C01F0
7FFFF0
7FFFF0
FFFFF0
FFFFF0
7C0000
7C0000
7E0180
3F07F0
3FFFE0
1FFFE0
0FFFC0
07FF00
00FC00
ENDCHAR
STARTCHAR 0066
ENCODING 102
SWIDTH 373 0
DWIDTH 14 0
BBX 13 27 1 0
BITMAP
01F8
07F8
0FF8
0FF8
1F80
1F00
FFF8
FFF8
FFF8
FFF8
1F00
1F00
1F00
1F00
1F00
1F00
1F00
1F00
1F00
1F00
1F00
1F00
1F00
1F00
1F00
1F00
1F00
ENDCHAR
STARTCHAR 0067
ENCODING 103
SWIDTH 613 0
DWIDTH 23 0
BBX 20 30 1 -9
BITMAP
01F9F0
07FFF0
0FFFF0
1FFFF0
3FFFF0
7F03F0
7E03F0
7C01F0
7C01F0
7C01F0
FC01F0
7C01F0
7C01F0
7C01F0
7E03F0
3F03F0
3FFFF0
1FFFF0
0FFFF0
07FFF0
01F9F0
0001F0
0001F0
0003F0
0707E0
3FFFE0
1FFFE0
0FFFC0
07FF00
01FC00
ENDCHAR
STARTCHAR 0068
ENCODING 104
SWIDTH 640 0
DWIDTH 24 0
BBX 19 27 3 0
BITMAP
F00000
F00000
F00000
F00000
F00000
F00000
F0F800
F3FE00
FFFF00
FFFF80
FFFFC0
FE1FC0
FC0FC0
F807C0
F807E0
F807E0
F807E0
F807E0
F807E0
F807E0
F807E0
F807E0
F807E0
F807E0
F807E0
F807E0
F807E0
ENDCHAR
STARTCHAR 0069
ENCODING 105
SWIDTH 293 0
DWIDTH 11 0
BBX 5 27 3 0
BITMAP
F8
F8
F8
F8
F8
00
F8
F8
F8
F8
F8
F8
F8
F8
F8
F8
F8
F8
F8
F8
F8
F8
F8
F8
F8
F8
F8
ENDCHAR
STARTCHAR 006A
ENCODING 106
SWIDTH 293 0
DWIDTH 11 0
BBX 9 36 0 -9
BITMAP
0F80
0F80
0F80
0F80
0F80
0000
0F80
0F80
0F80
0F80
0F80
0F80
0F80
0F80
0F80
0F80
0F80
0F80
0F80
0F80
0F80
0F80
0F80
0F80
0F80
0F80
0F80
0F80
0F80
1F80
1F80
FF80
FF00
FF00
FE00
FC00
ENDCHAR
STARTCHAR 006B
ENCODING 107
SWIDTH 560 0
DWIDTH 21 0
BBX 18 27 3 0
BITMAP
F80000
F80000
F80000
F80000
F80000
F80000
F81FC0
F81F80
F83F00
F87F00
F87E00
F8FC00
F9F800
F9F800
FBF000
FFE000
FFE000
FFE000
FBF000
F9F800
F9FC00
F8FC00
F87E00
F87F00
F83F80
F81F80
F81FC0
ENDCHAR
STARTCHAR 006C
ENCODING 108
SWIDTH 293 0
DWIDTH 11 0
BBX 5 27 3 0
BITMAP
F8
F8
F8
F8
F8
F8
F8
F8
F8
F8
F8
F8
F8
F8
F8
F8
F8
F8
F8
F8
F8
F8
F8
F8
F8
F8
F8
ENDCHAR
STARTCHAR 006D
ENCODING 109
SWIDTH 906 0
DWIDTH 34 0
BBX 29 21 3 0
BITMAP
F1F81F80
F7FE7FE0
FFFEFFF0
FFFFFFF0
FFFFFFF8
FC1FC1F8
F81F80F8
F80F80F8
F80F80F8
F80F80F8
F80F80F8
F80F80F8
F80F80F8
F80F80F8
F80F80F8
F80F80F8
F80F80F8
F80F80F8
F80F80F8
F80F80F8
F80F80F8
ENDCHAR
STARTCHAR 006E
ENCODING 110
SWIDTH 640 0
DWIDTH 24 0
BBX 19 22 3 0
BITMAP
00F800
F3FE00
FFFF00
FFFF80
FFFFC0
FE1FC0
FC0FC0
F807C0
F807E0
F807E0
F807E0
F807E0
F807E0
F807E0
F807E0
F807E0
F807E0
F807E0
F807E0
F807E0
F807E0
F807E0
ENDCHAR
STARTCHAR 006F
ENCODING 111
SWIDTH 640 0
DWIDTH 24 0
BBX 21 21 1 0
BITMAP
01FC00
07FF00
0FFFC0
1FFFE0
3FFFE0
3F07F0
7E03F0
7C01F8
7C01F8
7C00F8
FC00F8
7C00F8
7C01F8
7C01F8
7E03F0
3F07F0
3FFFE0
1FFFE0
0FFFC0
07FF00
01FC00
ENDCHAR
STARTCHAR 0070
ENCODING 112
SWIDTH 613 0
DWIDTH 23 0
BBX 19 29 3 -8
BITMAP
F3F000
FFFC00
FFFF00
FFFF80
FFFF80
FC1FC0
F80FC0
F007E0
F007E0
F007E0
F007E0
F007E0
F007E0
F807C0
F80FC0
FC0FC0
FFFF80
FFFF80
FFFF00
FFFE00
FBF800
F80000
F80000
F80000
F80000
F80000
F80000
F80000
F80000
ENDCHAR
STARTCHAR 0071
ENCODING 113
SWIDTH 613 0
DWIDTH 23 0
BBX 20 29 1 -8
BITMAP
01F9F0
07FFF0
0FFFF0
1FFFF0
3FFFF0
7F03F0
7E03F0
7C01F0
7C01F0
7C01F0
FC01F0
7C01F0
7C01F0
7C01F0
7E03F0
3F03F0
3FFFF0
1FFFF0
0FFFF0
07FFF0
01F9F0
0001F0
0001F0
0001F0
0001F0
0001F0
0001F0
0001F0
0001F0
ENDCHAR
STARTCHAR 0072
ENCODING 114
SWIDTH 400 0
DWIDTH 15 0
BBX 12 21 3 0
BITMAP
F1F0
F3F0
F7F0
FFF0
FFF0
FE00
FC00
F800
F800
F800
F800
F800
F800
F800
F800
F800
F800
F800
F800
F800
F800
ENDCHAR
STARTCHAR 0073
ENCODING 115
SWIDTH 560 0
DWIDTH 21 0
BBX 18 21 1 0
BITMAP
03F800
0FFE00
1FFF00
3FFF80
7F3F80
7C0FC0
7C0600
7F0000
3FE000
3FFC00
0FFF00
03FF80
007FC0
000FC0
FC07C0
7E07C0
7F9FC0
3FFF80
3FFF80
0FFE00
03F800
ENDCHAR
STARTCHAR 0074
ENCODING 116
SWIDTH 453 0
DWIDTH 17 0
BBX 15 27 0 0
BITMAP
0F80
0F80
0F80
0F80
0F80
0F80
FFFE
FFFE
FFFE
FFFE
0F80
0F80
0F80
0F80
0F80
0F80
0F80
0F80
0F80
0F80
0F80
0F80
0FE2
0FFE
07FE
03FE
00FE
ENDCHAR
STARTCHAR 0075
ENCODING 117
SWIDTH 640 0
DWIDTH 24 0
BBX 19 22 2 -1
BITMAP
F803E0
F803E0
F803E0
F803E0
F803E0
F803E0
F803E0
F803E0
F803E0
F803E0
F803E0
F803E0
FC03E0
FC03E0
FC07E0
7E07E0
7F0FE0
7FFFE0
3FFFE0
3FFDE0
0FF9E0
03E000
ENDCHAR
STARTCHAR 0076
ENCODING 118
SWIDTH 560 0
DWIDTH 21 0
BBX 19 21 1 0
BITMAP
F803E0
F803E0
7C03E0
7C07C0
7C07C0
3E07C0
3E0F80
3E0F80
1F0F80
1F1F00
1F1F00
0F9F00
0FBE00
0FBE00
07FC00
07FC00
03FC00
03F800
03F800
01F800
01F000
ENDCHAR
STARTCHAR 0077
ENCODING 119
SWIDTH 826 0
DWIDTH 31 0
BBX 29 21 1 0
BITMAP
F80F80F8
F80F81F0
F81F81F0
7C1F81F0
7C1FC3E0
7C3FC3E0
3E3FC3E0
3E3FE3E0
3E3DE7C0
1F7DE7C0
1F79F7C0
1F78FF80
1FF8FF80
0FF0FF80
0FF07F00
0FF07F00
07E07F00
07E03F00
07E03E00
07C03E00
03C01E00
ENDCHAR
STARTCHAR 0078
ENCODING 120
SWIDTH 560 0
DWIDTH 21 0
BBX 19 21 1 0
BITMAP
FC07E0
7C07E0
7E0FC0
3F1F80
1F1F00
1FBF00
0FFE00
07FC00
07FC00
03F800
01F800
03F800
07FC00
0FFE00
0FFE00
1FBF00
3F1F80
3F1F80
7E0FC0
FC07E0
FC07E0
ENDCHAR
STARTCHAR 0079
ENCODING 121
SWIDTH 560 0
DWIDTH 21 0
BBX 20 29 1 -8
BITMAP
F801F0
F801F0
FC03E0
7C03E0
7C03E0
3E07C0
3E07C0
3F0F80
1F0F80
1F0F80
0F9F00
0F9F00
0FFE00
07FE00
07FE00
03FC00
03FC00
03FC00
01F800
01F800
01F000
01F000
01F000
03E000
03E000
03C000
07C000
07C000
0F8000
ENDCHAR
STARTCHAR 007A
ENCODING 122
SWIDTH 533 0
DWIDTH 20 0
BBX 18 21 1 0
BITMAP
7FFFC0
7FFF80
7FFF00
7FFF00
003E00
007E00
00FC00
00F800
01F800
01F000
03E000
07E000
07C000
0FC000
1F8000
1F0000
3F0000
3FFF80
7FFF80
FFFF80
FFFF80
ENDCHAR
STARTCHAR 007B
ENCODING 123
SWIDTH 453 0
DWIDTH 17 0
BBX 11 42 5 -8
BITMAP
03E0
0FE0
1FE0
1FE0
1FE0
1F00
1E00
1E00
1E00
1E00
1E00
1E00
1E00
1E00
1E00
1E00
1E00
3E00
7E00
7E00
FC00
FC00
7E00
7E00
3E00
1E00
1E00
1E00
1E00
1E00
1E00
1E00
1E00
1E00
1E00
1E00
1F00
1FE0
1FE0
1FE0
0FE0
03E0
ENDCHAR
STARTCHAR 007C
ENCODING 124
SWIDTH 320 0
DWIDTH 12 0
BBX 5 27 3 0
BITMAP
F8
F8
F8
F8
F8
F8
F8
F8
F8
F8
F8
F8
F8
F8
F8
F8
F8
F8
F8
F8
F8
F8
F8
F8
F8
F8
F8
ENDCHAR
STARTCHAR 007D
ENCODING 125
SWIDTH 453 0
DWIDTH 17 0
BBX 11 42 1 -8
BITMAP
F800
FE00
FF00
FF00
FF80
0F80
0F80
0F80
0F80
0F80
0F80
0F80
0F80
0F80
0F80
0F80
0F80
0F80
0FC0
07C0
07E0
07E0
07C0
0FC0
0F80
0F80
0F80
0F80
0F80
0F80
0F80
0F80
0F80
0F80
0F80
0F80
0F80
FF80
FF00
FF00
FE00
F800
ENDCHAR
STARTCHAR 007E
ENCODING 126
SWIDTH 746 0
DWIDTH 28 0
BBX 19 9 4 7
BITMAP
3F0000
7F81E0
7FE1E0
FFF3E0
FFFFE0
F9FFE0
F87FE0
F83FC0
000F80
ENDCHAR
STARTCHAR 00A0
ENCODING 160
SWIDTH 213 0
DWIDTH 8 0
BBX 0 0 0 0
BITMAP
ENDCHAR
STARTCHAR 00A1
ENCODING 161
SWIDTH 373 0
DWIDTH 14 0
BBX 6 27 4 -6
BITMAP
FC
FC
FC
FC
FC
00
00
FC
FC
FC
FC
FC
FC
FC
FC
FC
FC
FC
FC
FC
FC
FC
FC
FC
FC
FC
FC
ENDCHAR
STARTCHAR 00A2
ENCODING 162
SWIDTH 586 0
DWIDTH 22 0
BBX 20 28 1 -1
BITMAP
007800
007800
007800
007800
03FE00
0FFF80
1FFFC0
3FFFE0
3F8FE0
7E03F0
7E03C0
7C0000
7C0000
FC0000
FC0000
7C0000
7C0000
7E0380
7E03F0
3F07E0
3FFFE0
1FFFC0
0FFF80
07FF00
00F800
007800
007800
007800
ENDCHAR
STARTCHAR 00A3
ENCODING 163
SWIDTH 560 0
DWIDTH 21 0
BBX 19 27 1 0
BITMAP
00FC00
03FE00
07FF80
0FFF80
0FFFC0
0F87C0
1F83E0
1F8380
1F8000
1F8000
1F8000
FFFC00
FFFC00
FFFC00
FFFC00
FFFC00
1F8000
1F8000
1F8000
1F8000
1F8000
3F8000
FFFF80
FFFF80
FFFF80
FFFF80
FFFF80
ENDCHAR
STARTCHAR 00A4
ENCODING 164
SWIDTH 693 0
DWIDTH 26 0
BBX 23 23 1 2
BITMAP
100018
38003C
7CFF7E
FFFFFE
7FFFFC
3FFFF8
1F83F0
1F01F8
3E00F8
3E0078
3C007C
3C007C
3C007C
3E0078
3E00F8
1F01F8
1F83F0
3FFFF8
7FFFFC
FFFFFE
7CFF7E
38003C
100018
ENDCHAR
STARTCHAR 00A5
ENCODING 165
SWIDTH 640 0
DWIDTH 24 0
BBX 23 27 0 0
BITMAP
FC007E
7E007E
7E00FC
3F00FC
1F81F8
1F83F0
0FC3F0
0FC7E0
07E7E0
03EFC0
03FFC0
01FF80
01FF00
0FFFF0
0FFFF0
0FFFF0
0FFFF0
007C00
007C00
007C00
0FFFF0
0FFFF0
0FFFF0
0FFFF0
007C00
007C00
007C00
ENDCHAR
STARTCHAR 00A6
ENCODING 166
SWIDTH 320 0
DWIDTH 12 0
BBX 5 35 3 -8
BITMAP
F8
F8
F8
F8
F8
F8
F8
F8
F8
F8
F8
F8
F8
F8
F8
F8
00
00
00
00
F8
F8
F8
F8
F8
F8
F8
F8
F8
F8
F8
F8
F8
F8
F8
ENDCHAR
STARTCHAR 00A7
ENCODING 167
SWIDTH 560 0
DWIDTH 21 0
BBX 17 30 2 -5
BITMAP
07E000
1FF800
7FFC00
7FFE00
FE7E00
F83F00
F83800
FC0000
7FC000
7FF800
3FFE00
3FFF00
7FFF80
F81F80
F80F80
F80F80
FE1F80
FFFF00
7FFE00
1FFE00
07FF00
007F00
001F80
F81F80
FC1F80
FF7F00
7FFF00
3FFE00
1FFC00
07F000
ENDCHAR
STARTCHAR 00A8
ENCODING 168
SWIDTH 560 0
DWIDTH 21 0
BBX 13 5 4 30
BITMAP
F8F8
F8F8
F8F8
F8F8
F8F8
ENDCHAR
STARTCHAR 00A9
ENCODING 169
SWIDTH 906 0
DWIDTH 34 0
BBX 32 33 1 -3
BITMAP
0003C000
003FFC00
00FFFF00
03FFFFC0
07FFFFE0
0FF81FF0
1FE003F8
1F8001F8
3F01C0FC
3E0FF87E
7E1FFC3E
7C3FFC3E
7C3E3E1F
F87C1E1F
F878101F
F878001F
F878001F
F878001F
F878001F
F87C1E1F
7C3E3E1F
7C3FFC3E
7E1FFC3E
3E0FF87E
3F0180FC
1F8001F8
1FE003F8
0FF81FF0
07FFFFE0
01FFFFC0
00FFFF00
003FFC00
0003E000
ENDCHAR
STARTCHAR 00AA
ENCODING 170
SWIDTH 320 0
DWIDTH 12 0
BBX 9 11 2 10
BITMAP
3E00
7F00
F700
0380
3F80
FF80
F380
C380
C780
FF80
7B80
ENDCHAR
STARTCHAR 00AB
ENCODING 171
SWIDTH 613 0
DWIDTH 23 0
BBX 17 17 3 2
BITMAP
020000
030300
078780
0F0F00
1F1F00
3E1E00
3C3C00
787800
F0F000
787800
7C3C00
3E3E00
1E1E00
0F0F00
078780
078780
020200
ENDCHAR
STARTCHAR 00AC
ENCODING 172
SWIDTH 613 0
DWIDTH 23 0
BBX 18 8 2 7
BITMAP
FFFFC0
FFFFC0
FFFFC0
FFFFC0
0003C0
0003C0
0003C0
0003C0
ENDCHAR
STARTCHAR 00AD
ENCODING 173
SWIDTH 426 0
DWIDTH 16 0
BBX 12 4 2 10
BITMAP
FFF0
FFF0
FFF0
FFF0
ENDCHAR
STARTCHAR 00AE
ENCODING 174
SWIDTH 666 0
DWIDTH 25 0
BBX 19 20 3 10
BITMAP
03F000
0FFE00
1FFF00
3F1F80
7C07C0
7BE3C0
F3F9E0
E318E0
E318E0
E318E0
E3F8E0
E3F0E0
E330E0
F319E0
7B1BC0
7C07C0
3F1F80
1FFF00
0FFE00
03F800
ENDCHAR
STARTCHAR 00AF
ENCODING 175
SWIDTH 506 0
DWIDTH 19 0
BBX 11 4 4 31
BITMAP
FFE0
FFE0
FFE0
FFE0
ENDCHAR
STARTCHAR 00B0
ENCODING 176
SWIDTH 453 0
DWIDTH 17 0
BBX 14 13 1 14
BITMAP
0F80
1FE0
3FF0
7FF8
FCF8
F87C
F07C
F87C
F8F8
7FF8
7FF0
3FF0
0FC0
ENDCHAR
STARTCHAR 00B1
ENCODING 177
SWIDTH 613 0
DWIDTH 23 0
BBX 18 19 2 2
BITMAP
01E000
01E000
01E000
01E000
FFFFC0
FFFFC0
FFFFC0
FFFFC0
01E000
01E000
01E000
01E000
01E000
000000
000000
FFFFC0
FFFFC0
FFFFC0
FFFFC0
ENDCHAR
STARTCHAR 00B2
ENCODING 178
SWIDTH 426 0
DWIDTH 16 0
BBX 12 17 2 10
BITMAP
1F00
3FC0
7FE0
F1E0
E0F0
E0F0
00F0
00E0
03E0
07C0
0F80
1F00
3E00
7800
FFF0
FFF0
FFF0
ENDCHAR
STARTCHAR 00B3
ENCODING 179
SWIDTH 400 0
DWIDTH 15 0
BBX 11 17 2 10
BITMAP
FFE0
FFE0
FFE0
03C0
0780
0F00
3F00
1FC0
0FC0
01E0
00E0
00E0
60E0
F1E0
FFC0
7F80
1F00
ENDCHAR
STARTCHAR 00B4
ENCODING 180
SWIDTH 560 0
DWIDTH 21 0
BBX 7 7 8 30
BITMAP
1E
3C
3C
38
78
70
F0
ENDCHAR
STARTCHAR 00B5
ENCODING 181
SWIDTH 640 0
DWIDTH 24 0
BBX 19 30 3 -9
BITMAP
F807E0
F807E0
F807E0
F807E0
F807E0
F807E0
F807E0
F807E0
F807E0
F807E0
F807E0
F807E0
F807E0
F807E0
F807E0
FC0FE0
FE1FE0
FFFFE0
FFFFE0
FFFFE0
FFF3E0
F7C000
F00000
F00000
F00000
F00000
F00000
F00000
F00000
F00000
ENDCHAR
STARTCHAR 00B6
ENCODING 182
SWIDTH 746 0
DWIDTH 28 0
BBX 25 32 1 -5
BITMAP
03FF8F80
0FFF8F80
1FFF8F80
3FFF8F80
7FFF8F80
7FFF8F80
7FFF8F80
7FFF8F80
7FFF8F80
FFFF8F80
7FFF8F80
7FFF8F80
7FFF8F80
7FFF8F80
3FFF8F80
1FFF8F80
0FFF8F80
01FF8F80
000F8F80
000F8F80
000F8F80
000F8F80
000F8F80
000F8F80
000F8F80
000F8F80
000F8F80
000F8F80
000F8F80
000F8F80
000F8F80
000F8F80
ENDCHAR
STARTCHAR 00B7
ENCODING 183
SWIDTH 293 0
DWIDTH 11 0
BBX 6 6 2 9
BITMAP
38
7C
FC
FC
7C
38
ENDCHAR
STARTCHAR 00B8
ENCODING 184
SWIDTH 426 0
DWIDTH 16 0
BBX 6 10 5 -9
BITMAP
38
70
70
78
7C
1C
3C
FC
F8
F0
ENDCHAR
STARTCHAR 00B9
ENCODING 185
SWIDTH 346 0
DWIDTH 13 0
BBX 7 17 2 10
BITMAP
1E
7E
FE
FE
DE
1E
1E
1E
1E
1E
1E
1E
1E
1E
1E
1E
1E
ENDCHAR
STARTCHAR 00BA
ENCODING 186
SWIDTH 346 0
DWIDTH 13 0
BBX 11 11 1 10
BITMAP
1F00
3F80
7BC0
70C0
60E0
E0E0
60E0
70C0
7BC0
3F80
1F00
ENDCHAR
STARTCHAR 00BB
ENCODING 187
SWIDTH 613 0
DWIDTH 23 0
BBX 18 16 2 3
BITMAP
707000
F8F800
787C00
3C3C00
1E1E00
0F0F00
0F8F80
0787C0
078780
0F0F00
1E1E00
3C3E00
7C7C00
787800
707000
202000
ENDCHAR
STARTCHAR 00BC
ENCODING 188
SWIDTH 1066 0
DWIDTH 40 0
BBX 33 27 2 0
BITMAP
1E00008000
7E0001C000
FE0003C000
FE0007C000
DE00078000
1E000F0000
1E001E0000
1E003E0000
1E003C0000
1E00780000
1E00F83C00
1E01F03800
1E01E07800
1E03C07000
1E07C0F000
1E0F80E000
1E0F01E000
001F01CF00
003E03CF00
003C038F00
0078078F00
00F807FF80
01F007FF80
01E007FF80
03E0000F00
01C0000F00
0080000F00
ENDCHAR
STARTCHAR 00BD
ENCODING 189
SWIDTH 1040 0
DWIDTH 39 0
BBX 35 27 2 0
BITMAP
1E00008000
7E0001C000
FE0003C000
FE0007C000
DE00078000
1E000F0000
1E001F0000
1E003E0000
1E003C0000
1E00780000
1E00F81F00
1E00F07F80
1E01E0FFC0
1E03C0F1E0
1E07C1E0E0
1E0781E0E0
1E0F0000E0
001F0001E0
003E0003C0
003C000780
0078000F00
00F8003E00
00F0007C00
01E000F800
03E001FFE0
01C001FFE0
008001FFE0
ENDCHAR
STARTCHAR 00BE
ENCODING 190
SWIDTH 1040 0
DWIDTH 39 0
BBX 35 27 2 0
BITMAP
FFE0002000
FFE0007000
FFE000F800
03C001F000
078001E000
0F0003C000
3F0007C000
1FC0078000
0FC00F0000
01E01E0000
00E03E0F00
00E03C1E00
60E0781E00
F1E0F83C00
FFC1F03C00
7F81E07800
1F03C07800
0007C0F380
000F80F380
000F00E380
001F01E380
003E01FFE0
007C01FFE0
007801FFE0
00F8000380
0070000380
0020000380
ENDCHAR
STARTCHAR 00BF
ENCODING 191
SWIDTH 560 0
DWIDTH 21 0
BBX 17 28 2 -7
BITMAP
03F000
03F000
03F000
03F000
03F000
000000
000000
03F000
03F000
03F000
03E000
07E000
0FC000
1FC000
3F8000
7F0000
7E0000
FC0000
F80000
F80000
F80F80
F80F80
FC1F80
7FFF00
7FFF00
3FFE00
1FFC00
07F000
ENDCHAR
STARTCHAR 00C0
ENCODING 192
SWIDTH 693 0
DWIDTH 26 0
BBX 24 37 1 0
BITMAP
01C000
01E000
01E000
00F000
00F000
007000
007800
000000
000000
000000
00FF00
00FF00
01FF00
01FF80
01FF80
03FF80
03EFC0
03E7C0
07E7C0
07C7E0
07C3E0
0FC3E0
0F83E0
0F81F0
0F81F0
1F01F0
1FFFF8
1FFFF8
3FFFF8
3FFFFC
3FFFFC
7E007C
7C007C
7C003E
7C003E
F8003E
F8003F
ENDCHAR
STARTCHAR 00C1
ENCODING 193
SWIDTH 693 0
DWIDTH 26 0
BBX 24 37 1 0
BITMAP
000780
000780
000F00
000F00
000E00
001E00
001E00
000000
000000
000000
00FF00
00FF00
01FF00
01FF80
01FF80
03EF80
03EFC0
03E7C0
07E7C0
07C7E0
07C3E0
0FC3E0
0F83E0
0F81F0
0F81F0
1F01F0
1FFFF8
1FFFF8
3FFFF8
3FFFFC
3FFFFC
7E007C
7C007C
7C003E
7C003E
F8003E
F8003F
ENDCHAR
STARTCHAR 00C2
ENCODING 194
SWIDTH 693 0
DWIDTH 26 0
BBX 24 36 1 0
BITMAP
007C00
00FE00
01FF00
01EF80
03C7C0
07C3E0
000000
000000
000000
00FF00
00FF00
01FF00
01FF80
01FF80
03EF80
03EFC0
03E7C0
07E7C0
07C7E0
07C3E0
0FC3E0
0F83E0
0F81F0
0F81F0
1F01F0
1FFFF8
1FFFF8
3FFFF8
3FFFFC
3FFFFC
7E007C
7C007C
7C003E
7C003E
F8003E
F8003F
ENDCHAR
STARTCHAR 00C3
ENCODING 195
SWIDTH 693 0
DWIDTH 26 0
BBX 24 37 1 0
BITMAP
01C1E0
03F1E0
07FFE0
07FFE0
071FC0
070780
000000
000000
000000
000000
00FF00
00FF00
01FF00
01FF80
01FF80
03EF80
03EFC0
03E7C0
07E7C0
07C7E0
07C3E0
0FC3E0
0F83E0
0F81F0
0F81F0
1F01F0
1FFFF8
1FFFF8
3FFFF8
3FFFFC
3FFFFC
7E007C
7C007C
7C003E
7C003E
F8003E
F8003F
ENDCHAR
STARTCHAR 00C4
ENCODING 196
SWIDTH 693 0
DWIDTH 26 0
BBX 24 35 1 0
BITMAP
03C3C0
03C3C0
03C3C0
03C3C0
03C3C0
000000
000000
000000
00FF00
00FF00
01FF00
01FF80
01FF80
03EF80
03EFC0
03E7C0
07E7C0
07C7E0
07C3E0
0FC3E0
0F83E0
0F81F0
0F81F0
1F01F0
1FFFF8
1FFFF8
3FFFF8
3FFFFC
3FFFFC
7E007C
7C007C
7C003E
7C003E
F8003E
F8003F
ENDCHAR
STARTCHAR 00C5
ENCODING 197
SWIDTH 693 0
DWIDTH 26 0
BBX 24 39 1 0
BITMAP
003C00
00FE00
01FF00
01E780
01C380
01C380
01C780
01FF00
00FE00
003C00
000000
000000
00FF00
00FF00
01FF00
01FF80
01FF80
03EF80
03EFC0
03E7C0
07E7C0
07C7E0
07C3E0
0FC3E0
0F83E0
0F81F0
0F81F0
1F01F0
1FFFF8
1FFFF8
3FFFF8
3FFFFC
3FFFFC
7E007C
7C007C
7C003E
7C003E
F8003E
F8003F
ENDCHAR
STARTCHAR 00C6
ENCODING 198
SWIDTH 933 0
DWIDTH 35 0
BBX 33 27 1 0
BITMAP
00FFFFFF80
00FFFFFF80
01FFFFFF80
01FFFFFF80
01FFFFFF80
03F1F00000
03E1F00000
03E1F00000
07E1F00000
07C1F00000
07C1FFFC00
0FC1FFFC00
0F81FFFC00
0F81FFFC00
0F81FFFC00
1F01F00000
1FFFF00000
1FFFF00000
3FFFF00000
3FFFF00000
3FFFF00000
7E01F00000
7C01FFFF80
7C01FFFF80
7C01FFFF80
F801FFFF80
F801FFFF80
ENDCHAR
STARTCHAR 00C7
ENCODING 199
SWIDTH 746 0
DWIDTH 28 0
BBX 25 35 1 -8
BITMAP
007F8000
01FFF000
07FFF800
0FFFFC00
1FFFFE00
3FC07F00
3F003F80
7E001F80
7E000F80
7C000800
FC000000
FC000000
FC000000
F8000000
FC000000
FC000000
FC000000
7C000000
7C000F00
7E001F80
3F001F80
3F807F00
1FFFFF00
0FFFFE00
07FFFC00
03FFF000
007FC000
000E0000
001F0000
001F0000
00078000
00078000
001F8000
001F0000
003E0000
ENDCHAR
STARTCHAR 00C8
ENCODING 200
SWIDTH 586 0
DWIDTH 22 0
BBX 17 37 3 0
BITMAP
0F0000
0F0000
078000
078000
03C000
03C000
01C000
000000
000000
000000
FFFF80
FFFF80
FFFF80
FFFF80
FFFF80
F80000
F80000
F80000
F80000
F80000
FFFE00
FFFE00
FFFE00
FFFE00
FFFE00
F80000
F80000
F80000
F80000
F80000
F80000
F80000
FFFF80
FFFF80
FFFF80
FFFF80
FFFF80
ENDCHAR
STARTCHAR 00C9
ENCODING 201
SWIDTH 586 0
DWIDTH 22 0
BBX 17 37 3 0
BITMAP
003C00
007800
007800
007000
00F000
00F000
01E000
000000
000000
000000
FFFF80
FFFF80
FFFF80
FFFF80
FFFF80
F80000
F80000
F80000
F80000
F80000
FFFE00
FFFE00
FFFE00
FFFE00
FFFE00
F80000
F80000
F80000
F80000
F80000
F80000
F80000
FFFF80
FFFF80
FFFF80
FFFF80
FFFF80
ENDCHAR
STARTCHAR 00CA
ENCODING 202
SWIDTH 586 0
DWIDTH 22 0
BBX 17 36 3 0
BITMAP
03E000
07F000
0FF000
1F7800
3E3C00
7C3E00
000000
000000
000000
FFFF80
FFFF80
FFFF80
FFFF80
FFFF80
F80000
F80000
F80000
F80000
F80000
FFFE00
FFFE00
FFFE00
FFFE00
FFFE00
F80000
F80000
F80000
F80000
F80000
F80000
F80000
FFFF80
FFFF80
FFFF80
FFFF80
FFFF80
ENDCHAR
STARTCHAR 00CB
ENCODING 203
SWIDTH 586 0
DWIDTH 22 0
BBX 17 35 3 0
BITMAP
3E3E00
3E3E00
3E3E00
3E3E00
3E3E00
000000
000000
000000
FFFF80
FFFF80
FFFF80
FFFF80
FFFF80
F80000
F80000
F80000
F80000
F80000
FFFE00
FFFE00
FFFE00
FFFE00
FFFE00
F80000
F80000
F80000
F80000
F80000
F80000
F80000
FFFF80
FFFF80
FFFF80
FFFF80
FFFF80
ENDCHAR
STARTCHAR 00CC
ENCODING 204
SWIDTH 293 0
DWIDTH 11 0
BBX 7 37 1 0
BITMAP
E0
F0
70
78
78
3C
3C
00
00
00
3E
3E
3E
3E
3E
3E
3E
3E
3E
3E
3E
3E
3E
3E
3E
3E
3E
3E
3E
3E
3E
3E
3E
3E
3E
3E
3E
ENDCHAR
STARTCHAR 00CD
ENCODING 205
SWIDTH 293 0
DWIDTH 11 0
BBX 7 37 3 0
BITMAP
0E
1E
1E
3C
3C
78
78
00
00
00
F8
F8
F8
F8
F8
F8
F8
F8
F8
F8
F8
F8
F8
F8
F8
F8
F8
F8
F8
F8
F8
F8
F8
F8
F8
F8
F8
ENDCHAR
STARTCHAR 00CE
ENCODING 206
SWIDTH 293 0
DWIDTH 11 0
BBX 14 36 -2 0
BITMAP
07C0
0FE0
1FF0
3EF8
7C7C
783C
8000
0000
0000
07C0
07C0
07C0
07C0
07C0
07C0
07C0
07C0
07C0
07C0
07C0
07C0
07C0
07C0
07C0
07C0
07C0
07C0
07C0
07C0
07C0
07C0
07C0
07C0
07C0
07C0
07C0
ENDCHAR
STARTCHAR 00CF
ENCODING 207
SWIDTH 293 0
DWIDTH 11 0
BBX 13 35 -1 0
BITMAP
F8F8
F8F8
F8F8
F8F8
F8F8
0000
0000
0000
0F80
0F80
0F80
0F80
0F80
0F80
0F80
0F80
0F80
0F80
0F80
0F80
0F80
0F80
0F80
0F80
0F80
0F80
0F80
0F80
0F80
0F80
0F80
0F80
0F80
0F80
0F80
ENDCHAR
STARTCHAR 00D0
ENCODING 208
SWIDTH 720 0
DWIDTH 27 0
BBX 25 27 0 0
BITMAP
1FFF0000
1FFFE000
1FFFF000
1FFFF800
1FFFFC00
1F00FE00
1F007E00
1F003F00
1F001F00
1F001F80
1F001F80
FFF81F80
FFF81F80
FFF81F80
FFF81F80
1F001F80
1F001F80
1F001F00
1F003F00
1F003F00
1F007E00
1F00FE00
1FFFFC00
1FFFF800
1FFFF000
1FFFE000
1FFF0000
ENDCHAR
STARTCHAR 00D1
ENCODING 209
SWIDTH 720 0
DWIDTH 27 0
BBX 22 37 3 0
BITMAP
010000
07E1C0
0FF1C0
0FFFC0
0F7FC0
0E1F80
000F00
000000
000000
000000
F8007C
FC007C
FC007C
FE007C
FF007C
FF007C
FF807C
FFC07C
FFC07C
FFE07C
FBF07C
FBF07C
F9F87C
F8FC7C
F8FC7C
F87E7C
F83F7C
F83F7C
F81FFC
F80FFC
F80FFC
F807FC
F803FC
F803FC
F801FC
F800FC
F800FC
ENDCHAR
STARTCHAR 00D2
ENCODING 210
SWIDTH 746 0
DWIDTH 28 0
BBX 26 37 1 0
BITMAP
00F00000
00F00000
00700000
00780000
00780000
003C0000
003C0000
001C0000
00000000
00000000
007F8000
01FFF000
07FFF800
0FFFFC00
1FFFFE00
3FC07F00
3F003F80
7E001F80
7E000FC0
7C000FC0
FC0007C0
FC0007C0
FC0007C0
FC0007C0
FC0007C0
FC0007C0
FC0007C0
7C000FC0
7E000FC0
7E001F80
3F003F80
3FC07F00
1FFFFE00
0FFFFE00
07FFF800
01FFF000
007F8000
ENDCHAR
STARTCHAR 00D3
ENCODING 211
SWIDTH 746 0
DWIDTH 28 0
BBX 26 37 1 0
BITMAP
0001C000
0003C000
00038000
00078000
00078000
000F0000
000F0000
000E0000
00000000
00000000
007F8000
01FFF000
07FFF800
0FFFFC00
1FFFFE00
3FC07F00
3F003F80
7E001F80
7E000FC0
7C000FC0
FC0007C0
FC0007C0
FC0007C0
FC0007C0
FC0007C0
FC0007C0
FC0007C0
7C000FC0
7E000FC0
7E001F80
3F003F80
3FC07F00
1FFFFE00
0FFFFE00
07FFF800
01FFF000
007F8000
ENDCHAR
STARTCHAR 00D4
ENCODING 212
SWIDTH 746 0
DWIDTH 28 0
BBX 26 35 1 0
BITMAP
003F0000
003F8000
007FC000
00F3C000
01F1E000
03E0F000
00000000
00000000
007F8000
01FFF000
07FFF800
0FFFFC00
1FFFFE00
3FC07F00
3F003F80
7E001F80
7E000FC0
7C000FC0
FC0007C0
FC0007C0
FC0007C0
FC0007C0
FC0007C0
FC0007C0
FC0007C0
7C000FC0
7E000FC0
7E001F80
3F003F80
3FC07F00
1FFFFE00
0FFFFE00
07FFF800
01FFF000
007F8000
ENDCHAR
STARTCHAR 00D5
ENCODING 213
SWIDTH 746 0
DWIDTH 28 0
BBX 26 36 1 0
BITMAP
00200000
01F87000
01FE7000
01FFF000
01CFF000
01C3E000
00008000
00000000
00000000
007F8000
01FFF000
07FFF800
0FFFFC00
1FFFFE00
3FC07F00
3F003F80
7E001F80
7E000FC0
7C000FC0
FC0007C0
FC0007C0
FC0007C0
FC0007C0
FC0007C0
FC0007C0
FC0007C0
7C000FC0
7E000FC0
7E001F80
3F003F80
3FC07F00
1FFFFE00
0FFFFE00
07FFF800
01FFF000
007F8000
ENDCHAR
STARTCHAR 00D6
ENCODING 214
SWIDTH 746 0
DWIDTH 28 0
BBX 26 34 1 0
BITMAP
01E1E000
01E1E000
01E1E000
01E1E000
01E1E000
00000000
00000000
007F8000
01FFF000
07FFF800
0FFFFC00
1FFFFE00
3FC07F00
3F003F80
7E001F80
7E000FC0
7C000FC0
FC0007C0
FC0007C0
FC0007C0
FC0007C0
FC0007C0
FC0007C0
FC0007C0
7C000FC0
7E000FC0
7E001F80
3F003F80
3FC07F00
1FFFFE00
0FFFFE00
07FFF800
01FFF000
007F8000
ENDCHAR
STARTCHAR 00D7
ENCODING 215
SWIDTH 506 0
DWIDTH 19 0
BBX 14 14 3 6
BITMAP
2010
7038
F87C
FCF8
7FF0
3FE0
1FC0
0FC0
1FE0
3FF0
7DF8
F8FC
F078
6030
ENDCHAR
STARTCHAR 00D8
ENCODING 216
SWIDTH 746 0
DWIDTH 28 0
BBX 26 27 1 0
BITMAP
007F8200
01FFF700
07FFFFC0
0FFFFFC0
1FFFFF80
3FC07F00
3F007F80
7E00FF80
7E01FFC0
7C03FFC0
FC07E7C0
FC0FC7C0
FC1FC7C0
FC3F87C0
FC3F07C0
FC7E07C0
FCFC07C0
7DF80FC0
7FF00FC0
7FE01F80
3FC03F80
3FC07F00
3FFFFE00
7FFFFC00
3FFFF800
1FFFF000
087F8000
ENDCHAR
STARTCHAR 00D9
ENCODING 217
SWIDTH 720 0
DWIDTH 27 0
BBX 22 37 3 0
BITMAP
03C000
01C000
01E000
01E000
00F000
00F000
007800
000000
000000
000000
F800FC
F800FC
F800FC
F800FC
F800FC
F800FC
F800FC
F800FC
F800FC
F800FC
F800FC
F800FC
F800FC
F800FC
F800FC
F800FC
F800FC
F800FC
F800F8
FC00F8
FC01F8
7F07F0
7FFFF0
3FFFE0
1FFFC0
07FF80
01FC00
ENDCHAR
STARTCHAR 00DA
ENCODING 218
SWIDTH 720 0
DWIDTH 27 0
BBX 22 37 3 0
BITMAP
000E00
001E00
001C00
003C00
003C00
007800
007800
000000
000000
000000
F800FC
F800FC
F800FC
F800FC
F800FC
F800FC
F800FC
F800FC
F800FC
F800FC
F800FC
F800FC
F800FC
F800FC
F800FC
F800FC
F800FC
F800FC
F800F8
FC00F8
FC01F8
7F07F0
7FFFF0
3FFFE0
1FFFC0
07FF80
01FC00
ENDCHAR
STARTCHAR 00DB
ENCODING 219
SWIDTH 720 0
DWIDTH 27 0
BBX 22 36 3 0
BITMAP
00F800
01FC00
03FE00
07DF00
078F80
0F0780
000040
000000
000000
F800FC
F800FC
F800FC
F800FC
F800FC
F800FC
F800FC
F800FC
F800FC
F800FC
F800FC
F800FC
F800FC
F800FC
F800FC
F800FC
F800FC
F800FC
F800F8
FC00F8
FC01F8
7F07F0
7FFFF0
3FFFE0
1FFFC0
07FF80
01FC00
ENDCHAR
STARTCHAR 00DC
ENCODING 220
SWIDTH 720 0
DWIDTH 27 0
BBX 22 35 3 0
BITMAP
0F8F80
0F8F80
0F8F80
0F8F80
0F8F80
000000
000000
000000
F800FC
F800FC
F800FC
F800FC
F800FC
F800FC
F800FC
F800FC
F800FC
F800FC
F800FC
F800FC
F800FC
F800FC
F800FC
F800FC
F800FC
F800FC
F800F8
FC00F8
FC01F8
7F07F0
7FFFF0
3FFFE0
1FFFC0
07FF80
01FC00
ENDCHAR
STARTCHAR 00DD
ENCODING 221
SWIDTH 640 0
DWIDTH 24 0
BBX 23 37 0 0
BITMAP
000780
000F00
000F00
001E00
001E00
001C00
003C00
000000
000000
000000
FC007E
7E007E
7E00FC
3F00FC
1F81F8
1F81F0
0FC3F0
0FC7E0
07E7E0
07EFC0
03FFC0
01FF80
01FF00
00FF00
00FE00
007E00
007C00
007C00
007C00
007C00
007C00
007C00
007C00
007C00
007C00
007C00
007C00
ENDCHAR
STARTCHAR 00DE
ENCODING 222
SWIDTH 640 0
DWIDTH 24 0
BBX 20 27 3 0
BITMAP
F80000
F80000
F80000
F80000
FFF800
FFFF00
FFFF80
FFFFC0
FFFFE0
F807E0
F803E0
F803F0
F801F0
F801F0
F801F0
F803F0
F803E0
F807E0
FFFFE0
FFFFC0
FFFF80
FFFF00
FFF800
F80000
F80000
F80000
F80000
ENDCHAR
STARTCHAR 00DF
ENCODING 223
SWIDTH 640 0
DWIDTH 24 0
BBX 19 27 3 0
BITMAP
07E000
1FF800
7FFE00
7FFF00
FFFF00
FC3F00
F81F80
F80F80
F80F80
F81F80
F83F00
F8FF00
F8FE00
F8FF80
F8FFC0
F80FC0
F807E0
F803E0
F803E0
F803E0
F807E0
F80FE0
F9FFC0
F9FFC0
F9FF80
F9FF00
F9FC00
ENDCHAR
STARTCHAR 00E0
ENCODING 224
SWIDTH 586 0
DWIDTH 22 0
BBX 19 30 1 0
BITMAP
078000
03C000
03C000
01E000
01E000
00E000
00F000
000000
000000
03FC00
0FFF00
1FFF80
3FFFC0
3FFFC0
7E07C0
0C07E0
0007E0
00FFE0
0FFFE0
3FFFE0
3FFFE0
7F87E0
7C07E0
F807E0
7C0FE0
7C1FE0
7FFFE0
3FFFE0
1FFBE0
0FE000
ENDCHAR
STARTCHAR 00E1
ENCODING 225
SWIDTH 586 0
DWIDTH 22 0
BBX 19 30 1 0
BITMAP
001E00
001E00
003C00
003C00
007800
007800
007000
000000
000000
03FC00
0FFF00
1FFF80
3FFFC0
3FFFC0
7E07C0
0C07E0
0007E0
00FFE0
0FFFE0
3FFFE0
3FFFE0
7F87E0
7C07E0
F807E0
7C0FE0
7C1FE0
7FFFE0
3FFFE0
1FFBE0
0FE1E0
ENDCHAR
STARTCHAR 00E2
ENCODING 226
SWIDTH 586 0
DWIDTH 22 0
BBX 19 29 1 0
BITMAP
01F800
01FC00
03FE00
079F00
0F8F00
1F0780
000000
000000
03FC00
0FFF00
1FFF80
3FFFC0
3FFFC0
7E07C0
0C07E0
0007E0
00FFE0
0FFFE0
3FFFE0
3FFFE0
7F87E0
7C07E0
F807E0
7C0FE0
7C1FE0
7FFFE0
3FFFE0
1FFBE0
0FE000
ENDCHAR
STARTCHAR 00E3
ENCODING 227
SWIDTH 586 0
DWIDTH 22 0
BBX 19 30 1 0
BITMAP
010000
07C380
0FF380
0FFF80
0E7F80
0E1F80
000400
000000
000000
03FC00
0FFF00
1FFF80
3FFFC0
3FFFC0
7E07C0
0C07E0
0007E0
00FFE0
0FFFE0
3FFFE0
3FFFE0
7F83E0
7E07E0
FC07E0
7807E0
7C0FE0
7FFFE0
3FFFE0
1FFBE0
0FE000
ENDCHAR
STARTCHAR 00E4
ENCODING 228
SWIDTH 586 0
DWIDTH 22 0
BBX 19 28 1 0
BITMAP
0F8F00
0F8F00
0F8F00
0F8F00
0F8F00
000000
000000
03FC00
0FFF00
1FFF80
3FFFC0
3FFFC0
7E07C0
0C07E0
0007E0
00FFE0
0FFFE0
3FFFE0
3FFFE0
7F87E0
7C07E0
F807E0
7C0FE0
7C1FE0
7FFFE0
3FFFE0
1FFBE0
0FE000
ENDCHAR
STARTCHAR 00E5
ENCODING 229
SWIDTH 586 0
DWIDTH 22 0
BBX 19 33 1 0
BITMAP
00F000
01FC00
03FE00
079E00
070E00
070E00
079E00
03FE00
01FC00
00F000
000000
000000
03FC00
0FFF00
1FFF80
3FFFC0
3FFFC0
7E07C0
0C07E0
0007E0
00FFE0
0FFFE0
1FFFE0
3FFFE0
7F87E0
7C07E0
7807E0
FC0FE0
7C1FE0
7FFFE0
3FFFE0
3FFBE0
0FE1E0
ENDCHAR
STARTCHAR 00E6
ENCODING 230
SWIDTH 933 0
DWIDTH 35 0
BBX 33 21 1 0
BITMAP
01F80FE000
07FF3FF800
1FFFFFFC00
1FFFFFFE00
3FFFFEFE00
7E07F01F00
0C07F01F00
0003E01F00
003FFFFF00
07FFFFFF00
1FFFFFFF80
3FFFFFFF00
7F03E00000
7C07E00000
7C07F01C00
FC0FF83F00
7C1FFFFF00
7FFEFFFE00
3FFC7FFC00
1FF83FF800
0FE00FE000
ENDCHAR
STARTCHAR 00E7
ENCODING 231
SWIDTH 586 0
DWIDTH 22 0
BBX 20 29 1 -8
BITMAP
01FC00
07FF00
0FFF80
1FFFC0
3FFFE0
3F07E0
7E03F0
7C0380
7C0000
7C0000
FC0000
7C0000
7C0000
7C0200
7E03F0
7F07E0
3FFFE0
1FFFC0
0FFFC0
07FF00
01FC00
007000
007800
00FC00
003C00
003C00
00FC00
00F800
01F800
ENDCHAR
STARTCHAR 00E8
ENCODING 232
SWIDTH 613 0
DWIDTH 23 0
BBX 20 31 1 0
BITMAP
03C000
03C000
01C000
01E000
01E000
00F000
00F000
007000
000000
000000
01FC00
07FF00
0FFF80
1FFFC0
3FDFE0
3F03E0
7E01F0
7C01F0
7FFFF0
7FFFF0
FFFFF0
FFFFF0
7C0000
7C0000
7E0180
3F07F0
3FFFE0
1FFFE0
0FFFC0
07FF00
00FC00
ENDCHAR
STARTCHAR 00E9
ENCODING 233
SWIDTH 613 0
DWIDTH 23 0
BBX 20 31 1 0
BITMAP
000F00
000F00
001E00
001E00
001C00
003C00
003C00
007800
000000
000000
01FC00
07FF00
0FFF80
1FFFC0
3FDFE0
3F03E0
7E01F0
7C01F0
7FFFF0
7FFFF0
FFFFF0
FFFFF0
7C0000
7C0000
7E0180
3F07F0
3FFFE0
1FFFE0
0FFFC0
07FF00
00FC00
ENDCHAR
STARTCHAR 00EA
ENCODING 234
SWIDTH 613 0
DWIDTH 23 0
BBX 20 29 1 0
BITMAP
00F800
01FC00
03FE00
07DF00
0F8F80
0F07C0
000000
000000
01FC00
07FF00
0FFF80
1FFFC0
3FDFE0
3F03E0
7E01F0
7C01F0
7FFFF0
7FFFF0
FFFFF0
FFFFF0
7C0000
7C0000
7E0180
3F07F0
3FFFE0
1FFFE0
0FFFC0
07FF00
00FC00
ENDCHAR
STARTCHAR 00EB
ENCODING 235
SWIDTH 613 0
DWIDTH 23 0
BBX 20 28 1 0
BITMAP
0F8F80
0F8F80
0F8F80
0F8F80
0F8F80
000000
000000
01FC00
07FF00
0FFF80
1FFFC0
3FDFE0
3F03E0
7E01F0
7C01F0
7FFFF0
7FFFF0
FFFFF0
FFFFF0
7C0000
7C0000
7E0180
3F07F0
3FFFE0
1FFFE0
0FFFC0
07FF00
00FC00
ENDCHAR
STARTCHAR 00EC
ENCODING 236
SWIDTH 293 0
DWIDTH 11 0
BBX 7 31 1 0
BITMAP
F0
F0
70
78
78
3C
3C
00
00
00
3E
3E
3E
3E
3E
3E
3E
3E
3E
3E
3E
3E
3E
3E
3E
3E
3E
3E
3E
3E
3E
ENDCHAR
STARTCHAR 00ED
ENCODING 237
SWIDTH 293 0
DWIDTH 11 0
BBX 7 31 3 0
BITMAP
0E
1E
1E
3C
3C
78
78
00
00
00
F8
F8
F8
F8
F8
F8
F8
F8
F8
F8
F8
F8
F8
F8
F8
F8
F8
F8
F8
F8
F8
ENDCHAR
STARTCHAR 00EE
ENCODING 238
SWIDTH 293 0
DWIDTH 11 0
BBX 14 30 -1 0
BITMAP
0F80
1FC0
1FE0
3DF0
78F8
F87C
0000
0000
0000
0F80
0F80
0F80
0F80
0F80
0F80
0F80
0F80
0F80
0F80
0F80
0F80
0F80
0F80
0F80
0F80
0F80
0F80
0F80
0F80
0F80
ENDCHAR
STARTCHAR 00EF
ENCODING 239
SWIDTH 293 0
DWIDTH 11 0
BBX 13 29 -1 0
BITMAP
F8F8
F8F8
F8F8
F8F8
F8F8
0000
0000
0000
0F80
0F80
0F80
0F80
0F80
0F80
0F80
0F80
0F80
0F80
0F80
0F80
0F80
0F80
0F80
0F80
0F80
0F80
0F80
0F80
0F80
ENDCHAR
STARTCHAR 00F0
ENCODING 240
SWIDTH 613 0
DWIDTH 23 0
BBX 20 29 1 0
BITMAP
000200
01E700
01FF80
01FF00
01FF00
007F80
00FF80
0077C0
0033C0
0001E0
03FFE0
0FFFE0
1FFFF0
3FFFF0
3F07F0
7E03F0
7C03F0
7C01F0
7C01F0
FC01F0
7C01F0
7C01F0
7C03F0
7E07E0
3FFFE0
1FFFC0
1FFF80
07FF00
01FC00
ENDCHAR
STARTCHAR 00F1
ENCODING 241
SWIDTH 640 0
DWIDTH 24 0
BBX 19 31 3 0
BITMAP
060000
1F8F00
3FC700
3FFF00
3DFF00
387E00
003C00
000000
000000
00F800
F3FE00
FFFF00
FFFF80
FFFFC0
FE1FC0
FC0FC0
F807C0
F807E0
F807E0
F807E0
F807E0
F807E0
F807E0
F807E0
F807E0
F807E0
F807E0
F807E0
F807E0
F807E0
F807E0
ENDCHAR
STARTCHAR 00F2
ENCODING 242
SWIDTH 640 0
DWIDTH 24 0
BBX 21 31 1 0
BITMAP
038000
03C000
03C000
01E000
01E000
00E000
00F000
00F000
000000
000000
01FC00
07FF00
0FFFC0
1FFFE0
3FFFE0
3F07F0
7E03F0
7C01F8
7C01F8
7C00F8
FC00F8
7C00F8
7C01F8
7C01F8
7E03F0
3F07F0
3FFFE0
1FFFE0
0FFFC0
07FF00
01FC00
ENDCHAR
STARTCHAR 00F3
ENCODING 243
SWIDTH 640 0
DWIDTH 24 0
BBX 21 31 1 0
BITMAP
000F00
000E00
001E00
001E00
003C00
003C00
007800
007800
000000
000000
01FC00
07FF00
0FFFC0
1FFFE0
3FFFE0
3F07F0
7E03F0
7C01F8
7C01F8
7C00F8
FC00F8
7C00F8
7C01F8
7C01F8
7E03F0
3F07F0
3FFFE0
1FFFE0
0FFFC0
07FF00
01FC00
ENDCHAR
STARTCHAR 00F4
ENCODING 244
SWIDTH 640 0
DWIDTH 24 0
BBX 21 29 1 0
BITMAP
00F800
01FC00
03FE00
07DF00
078F80
0F07C0
000000
000000
01FC00
07FF00
0FFFC0
1FFFE0
3FFFE0
3F07F0
7E03F0
7C01F8
7C01F8
7C00F8
FC00F8
7C00F8
7C01F8
7C01F8
7E03F0
3F07F0
3FFFE0
1FFFE0
0FFFC0
07FF00
01FC00
ENDCHAR
STARTCHAR 00F5
ENCODING 245
SWIDTH 640 0
DWIDTH 24 0
BBX 21 30 1 0
BITMAP
010000
07E3C0
0FF3C0
0FFFC0
0E7F80
0E1F80
000600
000000
000000
01FC00
07FF00
0FFFC0
1FFFE0
3FFFE0
3F07F0
7E03F0
7C01F8
7C01F8
7C00F8
FC00F8
7C00F8
7C01F8
7C01F8
7E03F0
3F07F0
3FFFE0
1FFFE0
0FFFC0
07FF00
01FC00
ENDCHAR
STARTCHAR 00F6
ENCODING 246
SWIDTH 640 0
DWIDTH 24 0
BBX 21 28 1 0
BITMAP
078F80
078F80
078F80
078F80
078F80
000000
000000
01FC00
07FF00
0FFFC0
1FFFE0
3FFFE0
3F07F0
7E03F0
7C01F8
7C01F8
7C00F8
FC00F8
7C00F8
7C01F8
7C01F8
7E03F0
3F07F0
3FFFE0
1FFFE0
0FFFC0
07FF00
01FC00
ENDCHAR
STARTCHAR 00F7
ENCODING 247
SWIDTH 533 0
DWIDTH 20 0
BBX 16 17 2 5
BITMAP
03C0
03C0
03C0
03C0
03C0
0000
FFFF
FFFF
FFFF
FFFF
0000
0000
03C0
03C0
03C0
03C0
03C0
ENDCHAR
STARTCHAR 00F8
ENCODING 248
SWIDTH 640 0
DWIDTH 24 0
BBX 21 21 1 0
BITMAP
01FC20
07FF70
0FFFF8
1FFFF8
3FFFF0
3F07F0
7E0FF0
7C1FF8
7C3FF8
7C7CF8
FCF8F8
7DF0F8
7FE1F8
7FC1F8
7F83F0
3F07F0
7FFFE0
FFFFE0
7FFFC0
3FFF00
11FC00
ENDCHAR
STARTCHAR 00F9
ENCODING 249
SWIDTH 640 0
DWIDTH 24 0
BBX 19 32 2 -1
BITMAP
078000
078000
03C000
03C000
01C000
01E000
01E000
000000
000000
000000
F803E0
F803E0
F803E0
F803E0
F803E0
F803E0
F803E0
F803E0
F803E0
F803E0
F803E0
F803E0
FC03E0
FC03E0
FC07E0
7E07E0
7F0FE0
7FFFE0
3FFFE0
3FFDE0
0FF9E0
03E000
ENDCHAR
STARTCHAR 00FA
ENCODING 250
SWIDTH 640 0
DWIDTH 24 0
BBX 19 32 2 -1
BITMAP
003C00
003C00
003800
007800
007800
00F000
00F000
000000
000000
000000
F803E0
F803E0
F803E0
F803E0
F803E0
F803E0
F803E0
F803E0
F803E0
F803E0
F803E0
F803E0
FC03E0
FC03E0
FC07E0
7E07E0
7F0FE0
7FFFE0
3FFFE0
3FFDE0
0FF9E0
03E000
ENDCHAR
STARTCHAR 00FB
ENCODING 251
SWIDTH 640 0
DWIDTH 24 0
BBX 19 31 2 -1
BITMAP
01F000
03F800
07FC00
07BE00
0F1F00
1E0F80
000000
000000
000000
F803E0
F803E0
F803E0
F803E0
F803E0
F803E0
F803E0
F803E0
F803E0
F803E0
F803E0
F803E0
FC03E0
FC03E0
FC07E0
7E07E0
7F0FE0
7FFFE0
3FFFE0
3FFDE0
0FF9E0
03E000
ENDCHAR
STARTCHAR 00FC
ENCODING 252
SWIDTH 640 0
DWIDTH 24 0
BBX 19 30 2 -1
BITMAP
1F1F00
1F1F00
1F1F00
1F1F00
1F1F00
000000
000000
000000
F803E0
F803E0
F803E0
F803E0
F803E0
F803E0
F803E0
F803E0
F803E0
F803E0
F803E0
F803E0
FC03E0
FC03E0
FC07E0
7E07E0
7F0FE0
7FFFE0
3FFFE0
3FFDE0
0FF9E0
03E000
ENDCHAR
STARTCHAR 00FD
ENCODING 253
SWIDTH 560 0
DWIDTH 21 0
BBX 20 39 1 -8
BITMAP
001E00
001C00
003C00
003800
007800
007800
00F000
000000
000000
000000
F801F0
F801F0
FC03E0
7C03E0
7C03E0
3E07C0
3E07C0
3F0F80
1F0F80
1F0F80
0F9F00
0F9F00
0FFE00
07FE00
07FE00
03FC00
03FC00
03FC00
01F800
01F800
01F000
01F000
01F000
03E000
03E000
03C000
07C000
07C000
0F8000
ENDCHAR
STARTCHAR 00FE
ENCODING 254
SWIDTH 613 0
DWIDTH 23 0
BBX 19 35 3 -8
BITMAP
F80000
F80000
F80000
F80000
F80000
F80000
FBF000
FFFC00
FFFF00
FFFF80
FFFF80
FC1FC0
F80FC0
F007E0
F007E0
F007E0
F007E0
F007E0
F007E0
F807C0
F80FC0
FC0FC0
FFFF80
FFFF80
FFFF00
FFFE00
FBF800
F80000
F80000
F80000
F80000
F80000
F80000
F80000
F80000
ENDCHAR
STARTCHAR 00FF
ENCODING 255
SWIDTH 560 0
DWIDTH 21 0
BBX 20 37 1 -8
BITMAP
0F0F00
0F0F00
0F0F00
0F0F00
0F0F00
000000
000000
000000
F801F0
F801F0
FC03E0
7C03E0
7C03E0
3E07C0
3E07C0
3F0F80
1F0F80
1F0F80
0F9F00
0F9F00
0FFE00
07FE00
07FE00
03FC00
03FC00
03FC00
01F800
01F800
01F000
01F000
01F000
03E000
03E000
03C000
07C000
07C000
0F8000
ENDCHAR
ENDFONT
