STARTFONT 2.1
COMMENT
COMMENT Converted from OpenType font "Manrope-ExtraLight.otf" by "otf2bdf 3.0".
COMMENT
FONT -FreeType-Manrope ExtraLight-Medium-R-Normal--39-280-100-100-P-168-ISO10646-1
SIZE 28 100 100
FONTBOUNDINGBOX 36 47 -1 -9
STARTPROPERTIES 19
FOUNDRY "FreeType"
FAMILY_NAME "Manrope ExtraLight"
WEIGHT_NAME "Medium"
SLANT "R"
SETWIDTH_NAME "Normal"
ADD_STYLE_NAME ""
PIXEL_SIZE 39
POINT_SIZE 280
RESOLUTION_X 100
RESOLUTION_Y 100
SPACING "P"
AVERAGE_WIDTH 168
CHARSET_REGISTRY "ISO10646"
CHARSET_ENCODING "1"
FONT_ASCENT 41
FONT_DESCENT 11
COPYRIGHT "Copyright 2019-2021 The Manrope Project Authors (https://github.com/sharanda/manrope)"
_OTF_FONTFILE "Manrope-ExtraLight.otf"
_OTF_PSNAME "Manrope-ExtraLight"
ENDPROPERTIES
CHARS 191
STARTCHAR 0020
ENCODING 32
SWIDTH 205 0
DWIDTH 8 0
BBX 0 0 0 0
BITMAP
ENDCHAR
STARTCHAR 0021
ENCODING 33
SWIDTH 282 0
DWIDTH 11 0
BBX 1 28 5 0
BITMAP
80
80
80
80
80
80
80
80
80
80
80
80
80
80
80
80
80
80
80
80
80
00
00
00
00
00
80
80
ENDCHAR
STARTCHAR 0022
ENCODING 34
SWIDTH 334 0
DWIDTH 13 0
BBX 7 7 2 21
BITMAP
C2
C2
C2
C2
C2
C2
C2
ENDCHAR
STARTCHAR 0023
ENCODING 35
SWIDTH 925 0
DWIDTH 36 0
BBX 31 28 2 0
BITMAP
00020180
00020180
00060100
00060300
00040300
000C0200
000C0200
000C0600
1FFFFFFE
1FFFFFFE
00180C00
00180C00
00100C00
00300800
00301800
00201800
00201800
7FFFFFF8
FFFFFFF0
00403000
00C02000
00C06000
00C06000
00806000
01804000
0180C000
0180C000
0100C000
ENDCHAR
STARTCHAR 0024
ENCODING 36
SWIDTH 565 0
DWIDTH 22 0
BBX 20 34 1 -3
BITMAP
006000
006000
006000
03F800
0FFF00
1C0380
3001C0
3000C0
600060
600020
600030
600000
300000
380000
1E0000
07C000
00F800
001F00
0003C0
0000E0
000060
000020
000030
400030
C00030
600020
600060
3000E0
1C01C0
0FFF00
03FC00
006000
006000
006000
ENDCHAR
STARTCHAR 0025
ENCODING 37
SWIDTH 900 0
DWIDTH 35 0
BBX 31 28 2 0
BITMAP
07C00008
1FF00018
30380030
60180060
400C00C0
C00C0180
C0040300
C0040600
400C0C00
600C1800
70183000
38306000
1FE0C000
03818000
00030380
00060FF0
000C1C38
0018301C
0030600C
00606006
00C04006
01804006
03006006
0600600C
0C00300C
18003818
30001FF0
200007C0
ENDCHAR
STARTCHAR 0026
ENCODING 38
SWIDTH 642 0
DWIDTH 25 0
BBX 22 28 2 0
BITMAP
03F800
0FFE00
1C0700
180180
300100
300000
200000
200000
300000
300000
180000
1C0000
0E0000
0F0000
3D8000
70C060
606060
C03060
C01860
C00C60
C00260
C001E0
C000E0
6000E0
7000F0
380398
1FFF0C
03FC04
ENDCHAR
STARTCHAR 0027
ENCODING 39
SWIDTH 180 0
DWIDTH 7 0
BBX 2 7 2 21
BITMAP
C0
C0
C0
C0
C0
C0
C0
ENDCHAR
STARTCHAR 0028
ENCODING 40
SWIDTH 411 0
DWIDTH 16 0
BBX 9 39 5 -7
BITMAP
0180
0180
0300
0600
0600
0C00
0800
1800
1000
3000
3000
2000
6000
6000
4000
4000
4000
C000
C000
C000
C000
C000
4000
4000
4000
6000
6000
2000
3000
3000
1000
1800
0800
0C00
0600
0600
0300
0180
0100
ENDCHAR
STARTCHAR 0029
ENCODING 41
SWIDTH 411 0
DWIDTH 16 0
BBX 8 39 2 -7
BITMAP
80
C0
60
30
30
18
18
0C
0C
06
06
02
02
03
03
03
01
01
01
01
01
01
01
03
03
03
02
02
06
06
0C
0C
18
18
30
30
60
C0
80
ENDCHAR
STARTCHAR 002A
ENCODING 42
SWIDTH 411 0
DWIDTH 16 0
BBX 13 12 1 16
BITMAP
0200
0200
0200
0200
E238
7FF0
0F80
0700
0D80
18C0
18C0
3060
ENDCHAR
STARTCHAR 002B
ENCODING 43
SWIDTH 591 0
DWIDTH 23 0
BBX 18 18 2 5
BITMAP
00C000
00C000
00C000
00C000
00C000
00C000
00C000
00C000
FFFFC0
FFFFC0
00C000
00C000
00C000
00C000
00C000
00C000
00C000
00C000
ENDCHAR
STARTCHAR 002C
ENCODING 44
SWIDTH 231 0
DWIDTH 9 0
BBX 3 6 2 -3
BITMAP
E0
E0
E0
20
60
C0
ENDCHAR
STARTCHAR 002D
ENCODING 45
SWIDTH 411 0
DWIDTH 16 0
BBX 12 2 2 11
BITMAP
FFF0
FFF0
ENDCHAR
STARTCHAR 002E
ENCODING 46
SWIDTH 231 0
DWIDTH 9 0
BBX 2 2 3 0
BITMAP
C0
C0
ENDCHAR
STARTCHAR 002F
ENCODING 47
SWIDTH 360 0
DWIDTH 14 0
BBX 9 28 2 0
BITMAP
0080
0180
0180
0180
0100
0300
0300
0300
0200
0600
0600
0400
0C00
0C00
0C00
0800
1800
1800
1800
1000
3000
3000
3000
2000
6000
6000
4000
C000
ENDCHAR
STARTCHAR 0030
ENCODING 48
SWIDTH 565 0
DWIDTH 22 0
BBX 17 28 3 0
BITMAP
07E000
1FF800
380C00
600600
600300
C00300
C00180
800180
800180
800180
800180
800180
800180
800180
800180
800180
800180
800180
800180
800180
800180
C00180
C00300
600300
600600
380C00
1FF800
07E000
ENDCHAR
STARTCHAR 0031
ENCODING 49
SWIDTH 360 0
DWIDTH 14 0
BBX 7 28 2 0
BITMAP
06
1E
7A
E2
82
02
02
02
02
02
02
02
02
02
02
02
02
02
02
02
02
02
02
02
02
02
02
02
ENDCHAR
STARTCHAR 0032
ENCODING 50
SWIDTH 565 0
DWIDTH 22 0
BBX 18 28 2 0
BITMAP
03F000
0FFC00
1C0E00
300300
600100
600180
C00080
C00080
C000C0
000080
000080
000180
000180
000300
000700
000E00
001C00
003000
006000
00C000
018000
070000
0E0000
1C0000
300000
600000
FFFFC0
FFFFC0
ENDCHAR
STARTCHAR 0033
ENCODING 51
SWIDTH 540 0
DWIDTH 21 0
BBX 16 28 2 0
BITMAP
7FFF
7FFF
0006
000C
0018
0030
0060
00C0
0380
0700
0F80
1FF0
081C
000E
0006
0003
0003
0003
0001
0001
0001
0003
8003
C003
6006
701C
1FF8
07E0
ENDCHAR
STARTCHAR 0034
ENCODING 52
SWIDTH 565 0
DWIDTH 22 0
BBX 18 28 2 0
BITMAP
006000
006000
00C000
00C000
018000
018000
030000
030000
020000
060000
040000
0C0000
080600
180600
180600
300600
300600
600600
600600
C00600
FFFFC0
FFFFC0
000600
000600
000600
000600
000600
000600
ENDCHAR
STARTCHAR 0035
ENCODING 53
SWIDTH 565 0
DWIDTH 22 0
BBX 18 28 2 0
BITMAP
7FFF00
7FFF00
600000
600000
600000
600000
600000
600000
600000
61C000
4FF800
5C0E00
700700
600180
200180
0000C0
0000C0
000040
000040
000040
0000C0
C000C0
C00080
600180
300300
180E00
0FFC00
03F000
ENDCHAR
STARTCHAR 0036
ENCODING 54
SWIDTH 617 0
DWIDTH 24 0
BBX 18 28 3 0
BITMAP
03F000
0FFC00
180600
300300
600180
C00000
C00000
800000
800000
800000
83F000
8FFC00
980600
B00300
E00180
C000C0
C000C0
800040
800040
800040
800040
C000C0
C000C0
600180
300300
180600
0FFC00
03F000
ENDCHAR
STARTCHAR 0037
ENCODING 55
SWIDTH 488 0
DWIDTH 19 0
BBX 15 28 2 0
BITMAP
FFFE
FFFE
0004
000C
000C
0018
0018
0010
0030
0030
0060
0060
0040
00C0
00C0
0180
0180
0100
0300
0200
0600
0600
0C00
0C00
0800
1800
1800
3000
ENDCHAR
STARTCHAR 0038
ENCODING 56
SWIDTH 565 0
DWIDTH 22 0
BBX 17 28 2 0
BITMAP
03F000
0FFC00
180E00
300300
600300
600180
600180
600180
600180
600300
300300
180600
0FFC00
0FFC00
1C0E00
300300
600180
600180
C00180
C00080
C00080
C00080
400180
600180
700300
380600
1FFC00
03F000
ENDCHAR
STARTCHAR 0039
ENCODING 57
SWIDTH 617 0
DWIDTH 24 0
BBX 18 28 3 0
BITMAP
03F000
0FFC00
180600
300300
600180
C000C0
C000C0
800040
800040
800040
800040
C000C0
C000C0
6001C0
300340
180640
0FFC40
03F040
000040
000040
000040
0000C0
0000C0
600180
300300
180700
0FFC00
03F000
ENDCHAR
STARTCHAR 003A
ENCODING 58
SWIDTH 282 0
DWIDTH 11 0
BBX 3 13 4 4
BITMAP
E0
E0
00
00
00
00
00
00
00
00
00
E0
E0
ENDCHAR
STARTCHAR 003B
ENCODING 59
SWIDTH 282 0
DWIDTH 11 0
BBX 3 24 4 -3
BITMAP
E0
E0
00
00
00
00
00
00
00
00
00
00
00
00
00
00
00
00
E0
E0
E0
20
60
C0
ENDCHAR
STARTCHAR 003C
ENCODING 60
SWIDTH 591 0
DWIDTH 23 0
BBX 9 18 6 3
BITMAP
0080
0180
0300
0600
0C00
1800
3000
6000
C000
C000
6000
3000
1800
0C00
0600
0300
0180
0080
ENDCHAR
STARTCHAR 003D
ENCODING 61
SWIDTH 745 0
DWIDTH 29 0
BBX 19 8 5 10
BITMAP
FFFFE0
FFFFE0
000000
000000
000000
000000
FFFFE0
FFFFE0
ENDCHAR
STARTCHAR 003E
ENCODING 62
SWIDTH 591 0
DWIDTH 23 0
BBX 9 18 8 3
BITMAP
8000
C000
6000
3000
1800
0C00
0600
0300
0180
0180
0300
0600
0C00
1800
3000
6000
C000
8000
ENDCHAR
STARTCHAR 003F
ENCODING 63
SWIDTH 514 0
DWIDTH 20 0
BBX 16 28 2 0
BITMAP
07E0
1FF8
701C
6006
C006
C002
C003
0003
0003
0006
0006
000C
0038
0070
00C0
0180
0180
0100
0300
0300
0000
0000
0000
0000
0000
0300
0300
0300
ENDCHAR
STARTCHAR 0040
ENCODING 64
SWIDTH 900 0
DWIDTH 35 0
BBX 29 29 3 -4
BITMAP
001FE000
00FFFC00
03C00E00
07000380
0E0001C0
180000C0
38000060
30000030
60000030
60000030
600F8018
C03FF018
C0607018
C0607018
C0603018
C0403018
C0603010
C0607030
4039F060
601F9FE0
60000F80
30000000
38000000
1C000000
0E000000
07000000
03C00E00
00FFF800
001FC000
ENDCHAR
STARTCHAR 0041
ENCODING 65
SWIDTH 617 0
DWIDTH 24 0
BBX 22 28 1 0
BITMAP
003000
007000
007800
005800
00C800
00CC00
008C00
018400
018600
030600
030300
020300
060100
060180
040180
0C0080
0C00C0
0800C0
180040
1FFFE0
3FFFE0
300030
200030
600010
600018
400018
C00008
C0000C
ENDCHAR
STARTCHAR 0042
ENCODING 66
SWIDTH 591 0
DWIDTH 23 0
BBX 19 28 3 0
BITMAP
FFF800
FFFE00
800300
800180
800080
8000C0
8000C0
8000C0
8000C0
800180
800180
800700
FFFE00
FFFE00
800780
8001C0
8000C0
800060
800060
800060
800060
800060
800060
800060
8000C0
800380
FFFF00
FFFC00
ENDCHAR
STARTCHAR 0043
ENCODING 67
SWIDTH 694 0
DWIDTH 27 0
BBX 25 28 1 0
BITMAP
007F8000
03FFE000
07007800
0C001C00
18000E00
30000600
30000300
60000300
60000180
40000000
C0000000
C0000000
C0000000
C0000000
C0000000
C0000000
C0000000
C0000000
40000000
60000180
60000300
30000300
30000600
18000E00
0C001C00
07007800
03FFE000
007F8000
ENDCHAR
STARTCHAR 0044
ENCODING 68
SWIDTH 642 0
DWIDTH 25 0
BBX 21 28 3 0
BITMAP
FFF800
FFFE00
800780
8001C0
8000C0
800060
800020
800030
800030
800010
800018
800018
800018
800018
800018
800018
800018
800018
800010
800030
800030
800020
800060
8000C0
8001C0
800780
FFFE00
FFF800
ENDCHAR
STARTCHAR 0045
ENCODING 69
SWIDTH 565 0
DWIDTH 22 0
BBX 17 28 3 0
BITMAP
FFFF80
FFFF80
800000
800000
800000
800000
800000
800000
800000
800000
800000
800000
800000
FFFC00
FFFC00
800000
800000
800000
800000
800000
800000
800000
800000
800000
800000
800000
FFFF80
FFFF80
ENDCHAR
STARTCHAR 0046
ENCODING 70
SWIDTH 488 0
DWIDTH 19 0
BBX 15 28 3 0
BITMAP
FFFE
FFFE
8000
8000
8000
8000
8000
8000
8000
8000
8000
8000
8000
FFF8
FFF8
8000
8000
8000
8000
8000
8000
8000
8000
8000
8000
8000
8000
8000
ENDCHAR
STARTCHAR 0047
ENCODING 71
SWIDTH 694 0
DWIDTH 27 0
BBX 25 28 1 0
BITMAP
007F0000
03FFE000
07007000
0C001800
18000C00
30000600
30000600
60000000
60000000
40000000
C0000000
C0000000
C0000000
C0000000
C001FF00
C001FF80
C0000180
C0000100
40000100
60000300
60000300
30000200
30000600
18000C00
0C001C00
07007800
03FFE000
007F8000
ENDCHAR
STARTCHAR 0048
ENCODING 72
SWIDTH 668 0
DWIDTH 26 0
BBX 20 28 3 0
BITMAP
800030
800030
800030
800030
800030
800030
800030
800030
800030
800030
800030
800030
800030
FFFFF0
FFFFF0
800030
800030
800030
800030
800030
800030
800030
800030
800030
800030
800030
800030
800030
ENDCHAR
STARTCHAR 0049
ENCODING 73
SWIDTH 205 0
DWIDTH 8 0
BBX 2 28 3 0
BITMAP
C0
C0
C0
C0
C0
C0
C0
C0
C0
C0
C0
C0
C0
C0
C0
C0
C0
C0
C0
C0
C0
C0
C0
C0
C0
C0
C0
C0
ENDCHAR
STARTCHAR 004A
ENCODING 74
SWIDTH 437 0
DWIDTH 17 0
BBX 14 28 0 0
BITMAP
000C
000C
000C
000C
000C
000C
000C
000C
000C
000C
000C
000C
000C
000C
000C
000C
000C
000C
000C
000C
000C
000C
400C
C00C
6018
7038
3FF0
0FC0
ENDCHAR
STARTCHAR 004B
ENCODING 75
SWIDTH 565 0
DWIDTH 22 0
BBX 18 28 3 0
BITMAP
800180
800300
800600
800C00
801800
807000
80E000
81C000
838000
870000
8E0000
9C0000
B80000
F00000
B80000
8C0000
860000
830000
818000
80C000
806000
803000
801800
800C00
800600
800300
800180
8000C0
ENDCHAR
STARTCHAR 004C
ENCODING 76
SWIDTH 488 0
DWIDTH 19 0
BBX 16 28 3 0
BITMAP
C000
C000
C000
C000
C000
C000
C000
C000
C000
C000
C000
C000
C000
C000
C000
C000
C000
C000
C000
C000
C000
C000
C000
C000
C000
C000
FFFF
FFFF
ENDCHAR
STARTCHAR 004D
ENCODING 77
SWIDTH 822 0
DWIDTH 32 0
BBX 27 28 3 0
BITMAP
C0000060
C00000E0
C00000E0
E00001E0
A00001E0
B0000360
B0000360
98000260
98000660
8C000460
8C000C60
86000C60
86001860
82001860
83003060
81003060
81806060
81806060
80C04060
80C0C060
80608060
80618060
80318060
80330060
80130060
801E0060
800E0060
800C0060
ENDCHAR
STARTCHAR 004E
ENCODING 78
SWIDTH 668 0
DWIDTH 26 0
BBX 20 28 3 0
BITMAP
C00030
C00030
E00030
B00030
B00030
980030
8C0030
8C0030
860030
830030
830030
818030
80C030
806030
806030
803030
801830
801830
800C30
800630
800630
800330
8001B0
8001B0
8000F0
800070
800070
800030
ENDCHAR
STARTCHAR 004F
ENCODING 79
SWIDTH 694 0
DWIDTH 27 0
BBX 25 28 1 0
BITMAP
007F8000
03FFE000
07007800
0C001C00
18000E00
30000600
30000300
60000300
60000180
40000180
C0000180
C0000180
C0000180
C0000080
C0000080
C0000180
C0000180
C0000180
40000180
60000180
60000300
30000300
30000600
18000E00
0C001C00
07007800
03FFE000
007F8000
ENDCHAR
STARTCHAR 0050
ENCODING 80
SWIDTH 591 0
DWIDTH 23 0
BBX 18 28 3 0
BITMAP
FFF800
FFFE00
800300
800180
8000C0
8000C0
8000C0
800040
800040
800040
8000C0
8000C0
800180
800380
800700
FFFE00
FFF000
800000
800000
800000
800000
800000
800000
800000
800000
800000
800000
800000
ENDCHAR
STARTCHAR 0051
ENCODING 81
SWIDTH 694 0
DWIDTH 27 0
BBX 25 28 1 0
BITMAP
007F8000
03FFE000
07007800
0C001C00
18000E00
30000600
30000300
60000300
60000180
40000180
C0000180
C0000180
C0000180
C0000080
C0000080
C0000180
C0000180
C0000180
40000180
60000180
60006300
30007300
30003E00
18001E00
0C001E00
07007F00
03FFE380
007F8100
ENDCHAR
STARTCHAR 0052
ENCODING 82
SWIDTH 617 0
DWIDTH 24 0
BBX 19 28 3 0
BITMAP
FFF800
FFFE00
800300
800180
8000C0
8000C0
8000C0
800040
800040
800040
8000C0
8000C0
800180
800380
800700
FFFE00
FFFC00
800C00
800600
800600
800300
800300
800180
800180
8000C0
8000C0
800040
800060
ENDCHAR
STARTCHAR 0053
ENCODING 83
SWIDTH 591 0
DWIDTH 23 0
BBX 21 28 1 0
BITMAP
01FC00
0FFF00
1C01C0
3800E0
300060
600030
600010
600018
600000
300000
380000
1E0000
07C000
00FC00
001F80
0001C0
000060
000030
000010
000018
400018
C00018
600010
600030
380060
1C00E0
07FF80
01FE00
ENDCHAR
STARTCHAR 0054
ENCODING 84
SWIDTH 591 0
DWIDTH 23 0
BBX 23 28 0 0
BITMAP
FFFFFE
FFFFFE
001000
001000
001000
001000
001000
001000
001000
001000
001000
001000
001000
001000
001000
001000
001000
001000
001000
001000
001000
001000
001000
001000
001000
001000
001000
001000
ENDCHAR
STARTCHAR 0055
ENCODING 85
SWIDTH 694 0
DWIDTH 27 0
BBX 21 28 3 0
BITMAP
800018
800018
800018
800018
800018
800018
800018
800018
800018
800018
800018
800018
800018
800018
800018
800018
800018
800018
800018
C00018
C00018
C00010
600030
700060
3800E0
1C03C0
07FF00
01FC00
ENDCHAR
STARTCHAR 0056
ENCODING 86
SWIDTH 591 0
DWIDTH 23 0
BBX 22 28 0 0
BITMAP
C0000C
60000C
600008
600018
300018
300010
100030
180030
180060
080060
0C0040
0C00C0
0400C0
060080
060180
030180
030100
010300
018300
018600
008600
00C400
00CC00
004C00
006800
007800
003800
003000
ENDCHAR
STARTCHAR 0057
ENCODING 87
SWIDTH 900 0
DWIDTH 35 0
BBX 33 28 1 0
BITMAP
C000C00080
C001C00180
C001C00180
4001600180
6001600100
6003600300
2003200300
3002300200
3006300600
3006300600
1006180600
180C180400
180C180C00
080C080C00
0C080C0800
0C180C1800
0C18041800
0410061800
0610061000
0630063000
0230023000
0320032000
0360036000
0360016000
014001E000
01C001C000
01C001C000
00C000C000
ENDCHAR
STARTCHAR 0058
ENCODING 88
SWIDTH 565 0
DWIDTH 22 0
BBX 21 28 1 0
BITMAP
C00030
600030
600060
3000C0
1800C0
180180
0C0300
060200
020600
030C00
019800
009800
00F000
006000
007000
00F000
019800
018C00
030C00
060600
040300
0C0300
180180
3000C0
300040
600060
C00030
C00018
ENDCHAR
STARTCHAR 0059
ENCODING 89
SWIDTH 514 0
DWIDTH 20 0
BBX 20 28 0 0
BITMAP
C00030
600060
600060
3000C0
1000C0
180180
0C0100
0C0300
060600
060600
030C00
018C00
019800
00D000
00F000
006000
006000
006000
006000
006000
006000
006000
006000
006000
006000
006000
006000
006000
ENDCHAR
STARTCHAR 005A
ENCODING 90
SWIDTH 591 0
DWIDTH 23 0
BBX 19 28 2 0
BITMAP
FFFFE0
FFFFC0
000080
000180
000300
000300
000600
000400
000C00
001800
001000
003000
006000
006000
00C000
018000
018000
030000
020000
060000
0C0000
0C0000
180000
300000
300000
600000
7FFFE0
FFFFE0
ENDCHAR
STARTCHAR 005B
ENCODING 91
SWIDTH 385 0
DWIDTH 15 0
BBX 7 43 5 -9
BITMAP
FE
FE
C0
C0
C0
C0
C0
C0
C0
C0
C0
C0
C0
C0
C0
C0
C0
C0
C0
C0
C0
C0
C0
C0
C0
C0
C0
C0
C0
C0
C0
C0
C0
C0
C0
C0
C0
C0
C0
C0
C0
FE
FE
ENDCHAR
STARTCHAR 005C
ENCODING 92
SWIDTH 360 0
DWIDTH 14 0
BBX 9 28 2 0
BITMAP
C000
4000
6000
6000
2000
3000
3000
3000
1000
1800
1800
1800
0800
0C00
0C00
0C00
0400
0600
0600
0200
0300
0300
0300
0100
0180
0180
0180
0080
ENDCHAR
STARTCHAR 005D
ENCODING 93
SWIDTH 385 0
DWIDTH 15 0
BBX 7 43 3 -9
BITMAP
FE
FE
06
06
06
06
06
06
06
06
06
06
06
06
06
06
06
06
06
06
06
06
06
06
06
06
06
06
06
06
06
06
06
06
06
06
06
06
06
06
06
FE
FE
ENDCHAR
STARTCHAR 005E
ENCODING 94
SWIDTH 668 0
DWIDTH 26 0
BBX 17 10 5 19
BITMAP
008000
01C000
03E000
067000
0C3800
181C00
300E00
600700
C00380
800180
ENDCHAR
STARTCHAR 005F
ENCODING 95
SWIDTH 668 0
DWIDTH 26 0
BBX 26 2 0 -4
BITMAP
FFFFFFC0
FFFFFFC0
ENDCHAR
STARTCHAR 0060
ENCODING 96
SWIDTH 462 0
DWIDTH 18 0
BBX 3 5 7 32
BITMAP
C0
C0
60
60
60
ENDCHAR
STARTCHAR 0061
ENCODING 97
SWIDTH 540 0
DWIDTH 21 0
BBX 17 21 2 0
BITMAP
07F000
1FFC00
380600
700300
600300
C00180
000180
000180
000380
01FF80
1FC180
700180
E00180
C00180
800180
800380
800780
C00780
601D80
3FF980
0FC000
ENDCHAR
STARTCHAR 0062
ENCODING 98
SWIDTH 565 0
DWIDTH 22 0
BBX 18 28 3 0
BITMAP
800000
800000
800000
800000
800000
800000
800000
83F000
8FFC00
980E00
B00300
E00300
C00180
C00180
C000C0
8000C0
8000C0
8000C0
8000C0
8000C0
C000C0
C00180
C00180
E00300
B00300
980E00
8FFC00
83F000
ENDCHAR
STARTCHAR 0063
ENCODING 99
SWIDTH 540 0
DWIDTH 21 0
BBX 17 21 2 0
BITMAP
03F000
0FFE00
380700
300380
600180
C00000
C00000
C00000
800000
800000
800000
800000
800000
C00000
C00000
C00000
600180
300380
380700
0FFE00
03F000
ENDCHAR
STARTCHAR 0064
ENCODING 100
SWIDTH 565 0
DWIDTH 22 0
BBX 18 28 2 0
BITMAP
0000C0
0000C0
0000C0
0000C0
0000C0
0000C0
0000C0
07E0C0
1FF8C0
380EC0
3002C0
6003C0
C001C0
C000C0
C000C0
8000C0
8000C0
8000C0
8000C0
8000C0
C000C0
C001C0
C001C0
6003C0
7002C0
380EC0
0FF8C0
03F0C0
ENDCHAR
STARTCHAR 0065
ENCODING 101
SWIDTH 565 0
DWIDTH 22 0
BBX 19 21 2 0
BITMAP
03F000
0FFE00
380700
300380
600180
C000C0
C000C0
C00040
800060
FFFFE0
FFFFE0
800000
800000
C00000
C00000
C000C0
6000C0
300180
380700
0FFE00
03F800
ENDCHAR
STARTCHAR 0066
ENCODING 102
SWIDTH 334 0
DWIDTH 13 0
BBX 12 28 1 0
BITMAP
03F0
0780
0C00
0C00
0C00
0C00
0C00
FFF0
FFF0
0C00
0C00
0C00
0C00
0C00
0C00
0C00
0C00
0C00
0C00
0C00
0C00
0C00
0C00
0C00
0C00
0C00
0C00
0C00
ENDCHAR
STARTCHAR 0067
ENCODING 103
SWIDTH 565 0
DWIDTH 22 0
BBX 18 30 2 -9
BITMAP
07E0C0
1FFCC0
380EC0
7003C0
6003C0
C001C0
C000C0
C000C0
8000C0
8000C0
8000C0
8000C0
8000C0
C000C0
C001C0
C001C0
6003C0
3002C0
380EC0
1FF8C0
07F0C0
0000C0
0000C0
000080
000180
C00180
600300
380700
1FFE00
07F000
ENDCHAR
STARTCHAR 0068
ENCODING 104
SWIDTH 565 0
DWIDTH 22 0
BBX 17 28 3 0
BITMAP
800000
800000
800000
800000
800000
800000
800000
87E000
9FF800
B80E00
E00600
E00300
C00100
C00180
C00180
800180
800180
800180
800180
800180
800180
800180
800180
800180
800180
800180
800180
800180
ENDCHAR
STARTCHAR 0069
ENCODING 105
SWIDTH 205 0
DWIDTH 8 0
BBX 2 28 3 0
BITMAP
C0
C0
C0
00
00
00
00
C0
C0
C0
C0
C0
C0
C0
C0
C0
C0
C0
C0
C0
C0
C0
C0
C0
C0
C0
C0
C0
ENDCHAR
STARTCHAR 006A
ENCODING 106
SWIDTH 231 0
DWIDTH 9 0
BBX 6 37 0 -9
BITMAP
0C
0C
0C
00
00
00
00
0C
0C
0C
0C
0C
0C
0C
0C
0C
0C
0C
0C
0C
0C
0C
0C
0C
0C
0C
0C
0C
0C
0C
0C
0C
0C
0C
18
F8
F0
ENDCHAR
STARTCHAR 006B
ENCODING 107
SWIDTH 462 0
DWIDTH 18 0
BBX 15 28 3 0
BITMAP
8000
8000
8000
8000
8000
8000
8000
801C
8038
8070
80E0
81C0
8380
8700
8C00
9800
B000
E000
B800
9C00
8E00
8300
8180
80E0
8070
8038
801C
8006
ENDCHAR
STARTCHAR 006C
ENCODING 108
SWIDTH 205 0
DWIDTH 8 0
BBX 2 28 3 0
BITMAP
C0
C0
C0
C0
C0
C0
C0
C0
C0
C0
C0
C0
C0
C0
C0
C0
C0
C0
C0
C0
C0
C0
C0
C0
C0
C0
C0
C0
ENDCHAR
STARTCHAR 006D
ENCODING 109
SWIDTH 822 0
DWIDTH 32 0
BBX 26 21 3 0
BITMAP
8FC07C00
BFF1FF00
F0330180
C01E00C0
C00C00C0
C00C00C0
800C0040
800C0040
800C0040
800C0040
800C0040
800C0040
800C0040
800C0040
800C0040
800C0040
800C0040
800C0040
800C0040
800C0040
800C0040
ENDCHAR
STARTCHAR 006E
ENCODING 110
SWIDTH 565 0
DWIDTH 22 0
BBX 17 21 3 0
BITMAP
87E000
9FF800
B80E00
E00600
E00300
C00100
C00180
800180
800180
800180
800180
800180
800180
800180
800180
800180
800180
800180
800180
800180
800180
ENDCHAR
STARTCHAR 006F
ENCODING 111
SWIDTH 565 0
DWIDTH 22 0
BBX 19 21 2 0
BITMAP
03F800
0FFE00
380700
300380
600180
C000C0
C000C0
C00040
800060
800060
800060
800060
800060
C00040
C000C0
C000C0
600180
300380
380700
0FFE00
03F800
ENDCHAR
STARTCHAR 0070
ENCODING 112
SWIDTH 565 0
DWIDTH 22 0
BBX 18 30 3 -9
BITMAP
83F000
8FFC00
980E00
B00300
E00300
C00180
C00180
C000C0
8000C0
8000C0
8000C0
8000C0
8000C0
C000C0
C00180
C00180
E00300
B00300
980E00
8FFC00
83F000
800000
800000
800000
800000
800000
800000
800000
800000
800000
ENDCHAR
STARTCHAR 0071
ENCODING 113
SWIDTH 565 0
DWIDTH 22 0
BBX 18 30 2 -9
BITMAP
07E0C0
1FFCC0
380EC0
7003C0
6003C0
C001C0
C000C0
C000C0
8000C0
8000C0
8000C0
8000C0
8000C0
C000C0
C001C0
C001C0
6003C0
3002C0
380EC0
1FFCC0
07F0C0
0000C0
0000C0
0000C0
0000C0
0000C0
0000C0
0000C0
0000C0
0000C0
ENDCHAR
STARTCHAR 0072
ENCODING 114
SWIDTH 334 0
DWIDTH 13 0
BBX 9 21 3 0
BITMAP
8780
9F80
B000
E000
C000
C000
C000
8000
8000
8000
8000
8000
8000
8000
8000
8000
8000
8000
8000
8000
8000
ENDCHAR
STARTCHAR 0073
ENCODING 115
SWIDTH 514 0
DWIDTH 20 0
BBX 16 21 2 0
BITMAP
0FE0
3FFC
700E
6007
C003
C001
C000
6000
3800
0F80
01F0
003C
0007
0003
0001
8001
C003
E003
700E
3FFC
07F0
ENDCHAR
STARTCHAR 0074
ENCODING 116
SWIDTH 385 0
DWIDTH 15 0
BBX 14 27 0 0
BITMAP
0600
0600
0600
0600
0600
0600
FFFC
FFFC
0600
0600
0600
0600
0600
0600
0600
0600
0600
0600
0600
0600
0600
0600
0600
0200
0300
01FC
00FC
ENDCHAR
STARTCHAR 0075
ENCODING 117
SWIDTH 565 0
DWIDTH 22 0
BBX 18 21 2 0
BITMAP
C000C0
C000C0
C000C0
C000C0
C000C0
C000C0
C000C0
C000C0
C000C0
C000C0
C000C0
C000C0
C000C0
C000C0
4000C0
6001C0
6001C0
3003C0
1806C0
0FFCC0
03F0C0
ENDCHAR
STARTCHAR 0076
ENCODING 118
SWIDTH 488 0
DWIDTH 19 0
BBX 17 21 1 0
BITMAP
C00180
C00300
400300
600300
600600
300600
300400
300C00
180C00
180800
081800
0C1800
0C1000
043000
063000
066000
036000
034000
03C000
01C000
018000
ENDCHAR
STARTCHAR 0077
ENCODING 119
SWIDTH 745 0
DWIDTH 29 0
BBX 27 21 1 0
BITMAP
C00C0060
C00E0060
400E0040
600A00C0
601B00C0
601B0080
20110180
30318180
30318180
10218100
1860C300
1860C300
0840C200
0CC04600
0CC06600
0CC06400
06802C00
07803C00
07803800
03001800
03001800
ENDCHAR
STARTCHAR 0078
ENCODING 120
SWIDTH 514 0
DWIDTH 20 0
BBX 18 21 1 0
BITMAP
C000C0
600180
300300
300600
180600
0C0C00
061800
033000
036000
01E000
00C000
01E000
033000
063000
061800
0C0C00
180600
300300
600300
600180
C000C0
ENDCHAR
STARTCHAR 0079
ENCODING 121
SWIDTH 514 0
DWIDTH 20 0
BBX 18 30 1 -9
BITMAP
C000C0
C00180
600180
600100
200300
300300
300200
180600
180600
080C00
0C0C00
0C0C00
061800
061800
021000
033000
033000
01A000
01E000
00E000
00C000
00C000
00C000
018000
018000
010000
030000
030000
020000
060000
ENDCHAR
STARTCHAR 007A
ENCODING 122
SWIDTH 540 0
DWIDTH 21 0
BBX 18 21 1 0
BITMAP
7FFFC0
7FFF80
000300
000700
000600
000C00
001800
003000
007000
006000
00C000
018000
030000
060000
060000
0C0000
180000
300000
600000
7FFF80
FFFF80
ENDCHAR
STARTCHAR 007B
ENCODING 123
SWIDTH 411 0
DWIDTH 16 0
BBX 9 43 5 -9
BITMAP
0780
1F80
1800
1000
1000
1000
1000
1000
1000
1000
1000
1000
1000
1000
1000
1000
1000
1000
3000
3000
6000
C000
6000
3000
3000
1000
1000
1000
1000
1000
1000
1000
1000
1000
1000
1000
1000
1000
1000
1000
1800
0F80
0380
ENDCHAR
STARTCHAR 007C
ENCODING 124
SWIDTH 231 0
DWIDTH 9 0
BBX 2 28 3 0
BITMAP
C0
C0
C0
C0
C0
C0
C0
C0
C0
C0
C0
C0
C0
C0
C0
C0
C0
C0
C0
C0
C0
C0
C0
C0
C0
C0
C0
C0
ENDCHAR
STARTCHAR 007D
ENCODING 125
SWIDTH 411 0
DWIDTH 16 0
BBX 8 43 2 -9
BITMAP
F0
F8
0C
0C
0C
0C
0C
0C
0C
0C
0C
0C
0C
0C
0C
0C
0C
0C
0C
06
03
03
06
06
0C
0C
0C
0C
0C
0C
0C
0C
0C
0C
0C
0C
0C
0C
0C
0C
18
F8
E0
ENDCHAR
STARTCHAR 007E
ENCODING 126
SWIDTH 617 0
DWIDTH 24 0
BBX 15 5 5 10
BITMAP
7C06
FE06
CF8E
C3FC
C0F8
ENDCHAR
STARTCHAR 00A0
ENCODING 160
SWIDTH 205 0
DWIDTH 8 0
BBX 0 0 0 0
BITMAP
ENDCHAR
STARTCHAR 00A1
ENCODING 161
SWIDTH 282 0
DWIDTH 11 0
BBX 1 28 5 -7
BITMAP
80
80
80
00
00
00
00
80
80
80
80
80
80
80
80
80
80
80
80
80
80
80
80
80
80
80
80
80
ENDCHAR
STARTCHAR 00A2
ENCODING 162
SWIDTH 540 0
DWIDTH 21 0
BBX 18 29 2 -1
BITMAP
00C000
00C000
00C000
01E000
0FFC00
1C0E00
300300
600180
6000C0
C00000
C00000
C00000
800000
800000
800000
800000
800000
C00000
C00000
C00000
6000C0
600180
300300
1C0E00
0FFC00
00E000
00C000
00C000
00C000
ENDCHAR
STARTCHAR 00A3
ENCODING 163
SWIDTH 565 0
DWIDTH 22 0
BBX 20 28 1 0
BITMAP
003E00
00FF80
01C0C0
018060
030060
030030
020030
020000
020000
020000
020000
020000
020000
FFFE00
FFFE00
020000
020000
020000
020000
020000
020000
020000
020000
020000
020000
060000
FFFFF0
FFFFF0
ENDCHAR
STARTCHAR 00A4
ENCODING 164
SWIDTH 617 0
DWIDTH 24 0
BBX 22 21 1 4
BITMAP
C0FC0C
63FF18
3E01F0
1C00E0
180070
300030
200018
600018
600008
600008
600008
600008
600018
200018
300030
180070
1C00E0
3E01F0
73FF18
E0FC0C
400000
ENDCHAR
STARTCHAR 00A5
ENCODING 165
SWIDTH 514 0
DWIDTH 20 0
BBX 20 28 0 0
BITMAP
C00030
600060
600060
3000C0
1000C0
180180
0C0100
0C0300
060600
060600
030C00
018C00
019800
00D000
00F000
006000
1FFF80
1FFF80
006000
006000
006000
1FFF80
1FFF80
006000
006000
006000
006000
006000
ENDCHAR
STARTCHAR 00A6
ENCODING 166
SWIDTH 231 0
DWIDTH 9 0
BBX 2 33 3 -5
BITMAP
C0
C0
C0
C0
C0
C0
C0
C0
C0
C0
C0
C0
C0
00
00
00
00
00
00
C0
C0
C0
C0
C0
C0
C0
C0
C0
C0
C0
C0
C0
C0
ENDCHAR
STARTCHAR 00A7
ENCODING 167
SWIDTH 514 0
DWIDTH 20 0
BBX 17 33 2 -7
BITMAP
018000
1FF000
383C00
600C00
600600
400200
400300
600000
700000
3C0000
0F8000
1DF800
703E00
C00700
C00300
C00180
C00180
C00180
600100
380300
0F8600
03FC00
003C00
000600
000300
000300
000300
C00300
600300
700600
3C1C00
0FF800
01C000
ENDCHAR
STARTCHAR 00A8
ENCODING 168
SWIDTH 488 0
DWIDTH 19 0
BBX 9 2 5 33
BITMAP
C180
C180
ENDCHAR
STARTCHAR 00A9
ENCODING 169
SWIDTH 745 0
DWIDTH 29 0
BBX 27 26 1 0
BITMAP
003F8000
01FFF000
03803800
0E000E00
1C000700
181F0300
307FC180
60E060C0
61C030C0
41802040
C1800060
C1000060
C3000060
C3000060
C1000060
C1800060
41800040
61C030C0
60E060C0
307FC180
181F0380
1C000700
0E000E00
03803800
01FFF000
003F8000
ENDCHAR
STARTCHAR 00AA
ENCODING 170
SWIDTH 308 0
DWIDTH 12 0
BBX 9 10 2 11
BITMAP
7E00
E300
C100
0180
3F80
F180
C180
8380
C780
FD80
ENDCHAR
STARTCHAR 00AB
ENCODING 171
SWIDTH 514 0
DWIDTH 20 0
BBX 14 17 3 2
BITMAP
0208
0218
0618
0C30
1860
30C0
3180
6180
C300
6180
30C0
18C0
1860
0C30
0618
030C
0008
ENDCHAR
STARTCHAR 00AC
ENCODING 172
SWIDTH 591 0
DWIDTH 23 0
BBX 19 7 2 8
BITMAP
FFFFE0
FFFFE0
000060
000060
000060
000060
000060
ENDCHAR
STARTCHAR 00AD
ENCODING 173
SWIDTH 411 0
DWIDTH 16 0
BBX 12 2 2 11
BITMAP
FFF0
FFF0
ENDCHAR
STARTCHAR 00AE
ENCODING 174
SWIDTH 617 0
DWIDTH 24 0
BBX 18 19 3 11
BITMAP
01C000
0FF800
1C1E00
300700
600300
43E180
C23080
C210C0
8210C0
83F0C0
8260C0
C22080
C23180
621180
600300
300600
1C1E00
0FF800
01C000
ENDCHAR
STARTCHAR 00AF
ENCODING 175
SWIDTH 488 0
DWIDTH 19 0
BBX 9 2 5 32
BITMAP
FF80
FF80
ENDCHAR
STARTCHAR 00B0
ENCODING 176
SWIDTH 462 0
DWIDTH 18 0
BBX 14 14 1 14
BITMAP
07C0
1FF0
3038
6018
400C
C00C
C00C
C00C
C00C
600C
6018
3870
1FE0
0380
ENDCHAR
STARTCHAR 00B1
ENCODING 177
SWIDTH 591 0
DWIDTH 23 0
BBX 19 18 2 3
BITMAP
004000
004000
004000
004000
004000
FFFFE0
FFFFE0
004000
004000
004000
004000
004000
000000
000000
000000
000000
FFFFE0
FFFFE0
ENDCHAR
STARTCHAR 00B2
ENCODING 178
SWIDTH 385 0
DWIDTH 15 0
BBX 11 18 2 10
BITMAP
1F00
3FC0
60C0
C060
C020
0020
0020
0060
00C0
01C0
0380
0600
0C00
1800
3000
6000
FFE0
FFE0
ENDCHAR
STARTCHAR 00B3
ENCODING 179
SWIDTH 385 0
DWIDTH 15 0
BBX 10 18 2 10
BITMAP
FFC0
FFC0
0180
0300
0600
0C00
1800
3E00
1F80
00C0
00C0
0040
0040
0040
80C0
C0C0
7F80
3E00
ENDCHAR
STARTCHAR 00B4
ENCODING 180
SWIDTH 462 0
DWIDTH 18 0
BBX 3 5 8 32
BITMAP
60
40
C0
C0
80
ENDCHAR
STARTCHAR 00B5
ENCODING 181
SWIDTH 591 0
DWIDTH 23 0
BBX 17 30 3 -9
BITMAP
800180
800180
800180
800180
800180
800180
800180
800180
800180
800180
800180
800180
800180
C00180
C00180
C00180
E00380
E00780
B80D80
9FF980
87E180
800000
800000
800000
800000
800000
800000
800000
800000
800000
ENDCHAR
STARTCHAR 00B6
ENCODING 182
SWIDTH 591 0
DWIDTH 23 0
BBX 16 33 3 -5
BITMAP
03F3
0FF3
1FF3
3FF3
7FF3
7FF3
7FF3
7FF3
FFF3
7FF3
7FF3
7FF3
7FF3
3FF3
1FF3
0FF3
01F3
0013
0013
0013
0013
0013
0013
0013
0013
0013
0013
0013
0013
0013
0013
0013
0013
ENDCHAR
STARTCHAR 00B7
ENCODING 183
SWIDTH 205 0
DWIDTH 8 0
BBX 3 3 2 11
BITMAP
60
E0
60
ENDCHAR
STARTCHAR 00B8
ENCODING 184
SWIDTH 385 0
DWIDTH 15 0
BBX 5 10 5 -9
BITMAP
10
30
20
60
78
18
08
18
F8
F0
ENDCHAR
STARTCHAR 00B9
ENCODING 185
SWIDTH 308 0
DWIDTH 12 0
BBX 5 18 2 10
BITMAP
18
78
C8
88
08
08
08
08
08
08
08
08
08
08
08
08
08
08
ENDCHAR
STARTCHAR 00BA
ENCODING 186
SWIDTH 334 0
DWIDTH 13 0
BBX 10 11 2 10
BITMAP
3E00
7F00
C180
C180
80C0
80C0
80C0
C180
C180
7F00
3E00
ENDCHAR
STARTCHAR 00BB
ENCODING 187
SWIDTH 514 0
DWIDTH 20 0
BBX 13 17 3 2
BITMAP
8200
C300
6180
30C0
18C0
1860
0C30
0618
0618
0610
0C30
1860
30C0
6180
6180
C300
0200
ENDCHAR
STARTCHAR 00BC
ENCODING 188
SWIDTH 925 0
DWIDTH 36 0
BBX 30 28 2 0
BITMAP
18000100
78000380
C8000700
88000600
08000C00
08001800
08003800
08007000
08006000
0800C000
08018000
08038180
08070180
08060300
080C0300
08180600
08380600
08300C00
00600C30
00C01830
01801830
03803030
03003030
06003FFC
0C003FFC
1C000030
38000030
10000030
ENDCHAR
STARTCHAR 00BD
ENCODING 189
SWIDTH 874 0
DWIDTH 34 0
BBX 30 28 2 0
BITMAP
18000100
78000300
C8000700
88000600
08000C00
08001800
08003800
08007000
08006000
0800C000
080183E0
080387F8
08070C18
0806180C
080C1804
08181804
08380004
0030000C
0060000C
00C00018
01800030
038000E0
030001C0
06000380
0C000700
1C000C00
38001FFC
10001FFC
ENDCHAR
STARTCHAR 00BE
ENCODING 190
SWIDTH 951 0
DWIDTH 37 0
BBX 32 28 2 0
BITMAP
FFC00020
FFC00060
018000E0
030001C0
06000180
0C000300
18000600
3E000E00
1F800C00
00C01800
00C03000
00406030
0040E030
0040C060
80C18060
C0C300C0
7F8700C0
3E0E0180
000C0186
00180306
00300306
00700606
00E00606
00C007FF
018007FF
03000006
07000006
02000006
ENDCHAR
STARTCHAR 00BF
ENCODING 191
SWIDTH 514 0
DWIDTH 20 0
BBX 16 29 2 -8
BITMAP
0180
0180
0180
0000
0000
0000
0000
0000
0180
0180
0180
0180
0300
0300
0E00
1C00
3000
6000
C000
C000
C000
C003
C003
C002
C006
600E
381C
1FF0
03C0
ENDCHAR
STARTCHAR 00C0
ENCODING 192
SWIDTH 617 0
DWIDTH 24 0
BBX 22 37 1 0
BITMAP
00C000
00C000
006000
006000
002000
000000
000000
000000
000000
003000
007000
007800
005800
00C800
00CC00
008C00
018400
018600
030600
030300
020300
060100
060180
040180
0C0080
0C00C0
0800C0
180040
1FFFE0
3FFFE0
300030
200030
600010
600018
400018
C00008
C0000C
ENDCHAR
STARTCHAR 00C1
ENCODING 193
SWIDTH 617 0
DWIDTH 24 0
BBX 22 37 1 0
BITMAP
000C00
000800
001800
001800
003000
003000
000000
000000
000000
003000
007000
007800
005800
00C800
00CC00
008C00
018400
018600
030600
030300
020300
060100
060180
040180
0C0080
0C00C0
0800C0
180040
1FFFE0
3FFFE0
300030
200030
600010
600018
400018
C00008
C0000C
ENDCHAR
STARTCHAR 00C2
ENCODING 194
SWIDTH 617 0
DWIDTH 24 0
BBX 22 36 1 0
BITMAP
003000
007800
00CC00
018600
030300
000000
000000
000000
003000
007000
007800
005800
00C800
00CC00
008C00
018400
018600
030600
030300
020300
060100
060180
040180
0C0080
0C00C0
0800C0
180040
1FFFE0
3FFFE0
300030
200030
600010
600018
400018
C00008
C0000C
ENDCHAR
STARTCHAR 00C3
ENCODING 195
SWIDTH 617 0
DWIDTH 24 0
BBX 22 36 1 0
BITMAP
03C100
03F100
063F00
000400
000000
000000
000000
000000
003000
007000
007800
005800
00C800
00CC00
008C00
018400
018600
030600
030300
020300
060100
060180
040180
0C0080
0C00C0
0800C0
180040
1FFFE0
3FFFE0
300030
200030
600010
600018
400018
C00008
C0000C
ENDCHAR
STARTCHAR 00C4
ENCODING 196
SWIDTH 617 0
DWIDTH 24 0
BBX 22 35 1 0
BITMAP
038700
038700
000000
000000
000000
000000
000000
003000
007000
007800
005800
00C800
00CC00
008C00
018400
018600
030600
030300
020300
060100
060180
040180
0C0080
0C00C0
0800C0
180040
1FFFE0
3FFFE0
300030
200030
600010
600018
400018
C00008
C0000C
ENDCHAR
STARTCHAR 00C5
ENCODING 197
SWIDTH 617 0
DWIDTH 24 0
BBX 22 38 1 0
BITMAP
007800
00FC00
018400
018600
018600
01CC00
00FC00
003000
000000
000000
003000
007000
007800
005800
00C800
00CC00
008C00
018400
018600
030600
030300
020300
060100
060180
040180
0C0080
0C00C0
0800C0
180040
1FFFE0
3FFFE0
300030
200030
600010
600018
400018
C00008
C0000C
ENDCHAR
STARTCHAR 00C6
ENCODING 198
SWIDTH 900 0
DWIDTH 35 0
BBX 32 28 1 0
BITMAP
003FFFFF
007FFFFF
00618000
00418000
00C18000
00C18000
00818000
01818000
01818000
03018000
03018000
02018000
06018000
0601FFFC
0401FFFC
0C018000
0C018000
08018000
18018000
1FFF8000
3FFF8000
30018000
20018000
60018000
60018000
40018000
C001FFFF
C001FFFF
ENDCHAR
STARTCHAR 00C7
ENCODING 199
SWIDTH 694 0
DWIDTH 27 0
BBX 25 37 1 -9
BITMAP
007F8000
03FFE000
07007800
0C001C00
18000E00
30000600
30000300
60000300
60000180
40000000
C0000000
C0000000
C0000000
C0000000
C0000000
C0000000
C0000000
C0000000
40000000
60000180
60000300
30000300
30000600
18000E00
0C001C00
07007800
03FFE000
007F8000
00040000
000C0000
000C0000
00060000
00030000
00030000
00030000
003E0000
00180000
ENDCHAR
STARTCHAR 00C8
ENCODING 200
SWIDTH 565 0
DWIDTH 22 0
BBX 17 37 3 0
BITMAP
030000
018000
018000
008000
00C000
000000
000000
000000
000000
FFFF80
FFFF80
800000
800000
800000
800000
800000
800000
800000
800000
800000
800000
800000
FFFC00
FFFC00
800000
800000
800000
800000
800000
800000
800000
800000
800000
800000
800000
FFFF80
FFFF80
ENDCHAR
STARTCHAR 00C9
ENCODING 201
SWIDTH 565 0
DWIDTH 22 0
BBX 17 37 3 0
BITMAP
002000
006000
006000
004000
00C000
00C000
000000
000000
000000
FFFF80
FFFF80
800000
800000
800000
800000
800000
800000
800000
800000
800000
800000
800000
FFFC00
FFFC00
800000
800000
800000
800000
800000
800000
800000
800000
800000
800000
800000
FFFF80
FFFF80
ENDCHAR
STARTCHAR 00CA
ENCODING 202
SWIDTH 565 0
DWIDTH 22 0
BBX 17 36 3 0
BITMAP
018000
03C000
066000
0C3000
181800
000000
000000
000000
FFFF80
FFFF80
800000
800000
800000
800000
800000
800000
800000
800000
800000
800000
800000
FFFC00
FFFC00
800000
800000
800000
800000
800000
800000
800000
800000
800000
800000
800000
FFFF80
FFFF80
ENDCHAR
STARTCHAR 00CB
ENCODING 203
SWIDTH 565 0
DWIDTH 22 0
BBX 17 35 3 0
BITMAP
183000
183000
000000
000000
000000
000000
000000
FFFF80
FFFF80
800000
800000
800000
800000
800000
800000
800000
800000
800000
800000
800000
FFFC00
FFFC00
800000
800000
800000
800000
800000
800000
800000
800000
800000
800000
800000
FFFF80
FFFF80
ENDCHAR
STARTCHAR 00CC
ENCODING 204
SWIDTH 205 0
DWIDTH 8 0
BBX 4 37 1 0
BITMAP
C0
40
60
60
20
00
00
00
00
30
30
30
30
30
30
30
30
30
30
30
30
30
30
30
30
30
30
30
30
30
30
30
30
30
30
30
30
ENDCHAR
STARTCHAR 00CD
ENCODING 205
SWIDTH 205 0
DWIDTH 8 0
BBX 4 37 3 0
BITMAP
30
20
60
60
C0
C0
00
00
00
C0
C0
C0
C0
C0
C0
C0
C0
C0
C0
C0
C0
C0
C0
C0
C0
C0
C0
C0
C0
C0
C0
C0
C0
C0
C0
C0
C0
ENDCHAR
STARTCHAR 00CE
ENCODING 206
SWIDTH 205 0
DWIDTH 8 0
BBX 10 36 -1 0
BITMAP
0C00
1E00
3300
6180
C0C0
0000
0000
0000
0C00
0C00
0C00
0C00
0C00
0C00
0C00
0C00
0C00
0C00
0C00
0C00
0C00
0C00
0C00
0C00
0C00
0C00
0C00
0C00
0C00
0C00
0C00
0C00
0C00
0C00
0C00
0C00
ENDCHAR
STARTCHAR 00CF
ENCODING 207
SWIDTH 205 0
DWIDTH 8 0
BBX 10 35 -1 0
BITMAP
E1C0
E1C0
0000
0000
0000
0000
0000
0C00
0C00
0C00
0C00
0C00
0C00
0C00
0C00
0C00
0C00
0C00
0C00
0C00
0C00
0C00
0C00
0C00
0C00
0C00
0C00
0C00
0C00
0C00
0C00
0C00
0C00
0C00
0C00
ENDCHAR
STARTCHAR 00D0
ENCODING 208
SWIDTH 642 0
DWIDTH 25 0
BBX 23 28 0 0
BITMAP
3FFF00
3FFFC0
3000E0
300030
300018
300008
30000C
300004
300006
300006
300006
300006
300002
FFF002
FFF002
300002
300006
300006
300006
300006
300004
30000C
30000C
300018
300030
3000E0
3FFFC0
3FFF00
ENDCHAR
STARTCHAR 00D1
ENCODING 209
SWIDTH 668 0
DWIDTH 26 0
BBX 20 35 3 0
BITMAP
03C300
07F300
063E00
000800
000000
000000
000000
C00030
C00030
E00030
B00030
B00030
980030
8C0030
8C0030
860030
830030
830030
818030
80C030
806030
806030
803030
801830
801830
800C30
800630
800630
800330
8001B0
8001B0
8000F0
800070
800070
800030
ENDCHAR
STARTCHAR 00D2
ENCODING 210
SWIDTH 694 0
DWIDTH 27 0
BBX 25 36 1 0
BITMAP
00300000
00180000
00180000
00180000
000C0000
00000000
00000000
00000000
007F8000
03FFE000
07007800
0C001C00
18000E00
30000600
30000300
60000300
60000180
40000180
C0000180
C0000180
C0000180
C0000080
C0000080
C0000180
C0000180
C0000180
40000180
60000180
60000300
30000300
30000600
18000E00
0C001C00
07007800
03FFE000
007F8000
ENDCHAR
STARTCHAR 00D3
ENCODING 211
SWIDTH 694 0
DWIDTH 27 0
BBX 25 36 1 0
BITMAP
00030000
00020000
00060000
00060000
000C0000
00000000
00000000
00000000
007F8000
03FFE000
07007800
0C001C00
18000E00
30000600
30000300
60000300
60000180
40000180
C0000180
C0000180
C0000180
C0000080
C0000080
C0000180
C0000180
C0000180
40000180
60000180
60000300
30000300
30000600
18000E00
0C001C00
07007800
03FFE000
007F8000
ENDCHAR
STARTCHAR 00D4
ENCODING 212
SWIDTH 694 0
DWIDTH 27 0
BBX 25 35 1 0
BITMAP
001C0000
00360000
00630000
00418000
00800000
00000000
00000000
007F8000
03FFE000
07007800
0C001C00
18000E00
30000600
30000300
60000300
60000180
40000180
C0000180
C0000180
C0000180
C0000080
C0000080
C0000180
C0000180
C0000180
40000180
60000180
60000300
30000300
30000600
18000E00
0C001C00
07007800
03FFE000
007F8000
ENDCHAR
STARTCHAR 00D5
ENCODING 213
SWIDTH 694 0
DWIDTH 27 0
BBX 25 34 1 1
BITMAP
00F84000
008C4000
0087C000
00010000
00000000
00000000
007F8000
03FFE000
07007800
0C001C00
18000E00
30000600
30000300
60000300
60000180
40000180
C0000180
C0000180
C0000180
C0000080
C0000080
C0000180
C0000180
C0000180
40000180
60000180
60000300
30000300
30000600
18000E00
0C001C00
07007800
03FFE000
007F8000
ENDCHAR
STARTCHAR 00D6
ENCODING 214
SWIDTH 694 0
DWIDTH 27 0
BBX 25 34 1 0
BITMAP
00C18000
00C18000
00000000
00000000
00000000
00000000
007F8000
03FFE000
07007800
0C001C00
18000E00
30000600
30000300
60000300
60000180
40000180
C0000180
C0000180
C0000180
C0000080
C0000080
C0000180
C0000180
C0000180
40000180
60000180
60000300
30000300
30000600
18000E00
0C001C00
07007800
03FFE000
007F8000
ENDCHAR
STARTCHAR 00D7
ENCODING 215
SWIDTH 462 0
DWIDTH 18 0
BBX 14 14 2 7
BITMAP
4000
E00C
7018
3830
1C60
0EC0
0780
0380
07C0
0CE0
1870
3038
601C
4008
ENDCHAR
STARTCHAR 00D8
ENCODING 216
SWIDTH 694 0
DWIDTH 27 0
BBX 26 28 1 0
BITMAP
007F8040
03FFE0C0
07007980
0C001F00
18000E00
30000E00
30001B00
60003300
60006180
6000C180
C0018180
C0030180
C0060180
C00C0080
C0180080
C0380180
C0700180
C0E00180
41C00180
63800180
67000300
3E000300
3C000600
18000E00
3C001C00
67007800
C3FFE000
807F8000
ENDCHAR
STARTCHAR 00D9
ENCODING 217
SWIDTH 694 0
DWIDTH 27 0
BBX 21 37 3 0
BITMAP
00C000
004000
006000
006000
002000
000000
000000
000000
000000
800018
800018
800018
800018
800018
800018
800018
800018
800018
800018
800018
800018
800018
800018
800018
800018
800018
800018
800018
C00018
C00018
C00010
600030
700060
3800E0
1C03C0
07FF00
01FC00
ENDCHAR
STARTCHAR 00DA
ENCODING 218
SWIDTH 694 0
DWIDTH 27 0
BBX 21 37 3 0
BITMAP
001800
001000
003000
003000
006000
006000
000000
000000
000000
800018
800018
800018
800018
800018
800018
800018
800018
800018
800018
800018
800018
800018
800018
800018
800018
800018
800018
800018
C00018
C00018
C00010
600030
700060
3800E0
1C03C0
07FF00
01FC00
ENDCHAR
STARTCHAR 00DB
ENCODING 219
SWIDTH 694 0
DWIDTH 27 0
BBX 21 36 3 0
BITMAP
007000
00D800
019800
018C00
030600
000000
000000
000000
800018
800018
800018
800018
800018
800018
800018
800018
800018
800018
800018
800018
800018
800018
800018
800018
800018
800018
800018
C00018
C00018
C00010
600030
700060
3800E0
1C03C0
07FF00
01FC00
ENDCHAR
STARTCHAR 00DC
ENCODING 220
SWIDTH 694 0
DWIDTH 27 0
BBX 21 35 3 0
BITMAP
030600
030600
000000
000000
000000
000000
000000
800018
800018
800018
800018
800018
800018
800018
800018
800018
800018
800018
800018
800018
800018
800018
800018
800018
800018
800018
C00018
C00018
C00010
600030
700060
3800E0
1C03C0
07FF00
01FC00
ENDCHAR
STARTCHAR 00DD
ENCODING 221
SWIDTH 514 0
DWIDTH 20 0
BBX 20 37 0 0
BITMAP
003000
003000
002000
006000
006000
004000
000000
000000
000000
C00030
600060
600060
3000C0
1000C0
180180
0C0100
0C0300
060600
060600
030C00
018C00
019800
00D000
00F000
006000
006000
006000
006000
006000
006000
006000
006000
006000
006000
006000
006000
006000
ENDCHAR
STARTCHAR 00DE
ENCODING 222
SWIDTH 565 0
DWIDTH 22 0
BBX 18 28 3 0
BITMAP
800000
800000
800000
800000
800000
FFE000
FFFC00
800E00
800300
800180
800180
8000C0
8000C0
8000C0
8000C0
8000C0
8000C0
800180
800180
800300
800E00
FFFC00
FFE000
800000
800000
800000
800000
800000
ENDCHAR
STARTCHAR 00DF
ENCODING 223
SWIDTH 565 0
DWIDTH 22 0
BBX 17 28 3 0
BITMAP
0FC000
3FF000
703800
600C00
C00C00
C00400
C00400
C00400
C00C00
C00C00
C01C00
C03800
C1F000
C1F800
C03C00
C00600
C00300
C00180
C00180
C00180
C00180
C00180
C00180
C00300
C00300
C00E00
C7FC00
C7F000
ENDCHAR
STARTCHAR 00E0
ENCODING 224
SWIDTH 540 0
DWIDTH 21 0
BBX 17 29 2 0
BITMAP
030000
018000
018000
018000
00C000
000000
000000
000000
07F000
1FFC00
380600
700300
600300
C00180
000180
000180
000380
01FF80
1FC180
700180
E00180
C00180
800180
800380
800780
C00780
601D80
3FF980
0FC000
ENDCHAR
STARTCHAR 00E1
ENCODING 225
SWIDTH 540 0
DWIDTH 21 0
BBX 17 29 2 0
BITMAP
006000
006000
004000
00C000
00C000
000000
000000
000000
07F000
1FFC00
380600
700300
600300
C00180
000180
000180
000380
01FF80
1FC180
700180
E00180
C00180
800180
800380
800780
C00780
601D80
3FF980
0FC000
ENDCHAR
STARTCHAR 00E2
ENCODING 226
SWIDTH 540 0
DWIDTH 21 0
BBX 17 29 2 0
BITMAP
00C000
01E000
037000
063000
0C1800
000000
000000
000000
07F000
1FFC00
380600
700300
600300
C00180
000180
000180
000380
01FF80
1FC180
700180
E00180
C00180
800180
800380
800780
C00780
601D80
3FF980
0FC000
ENDCHAR
STARTCHAR 00E3
ENCODING 227
SWIDTH 540 0
DWIDTH 21 0
BBX 17 28 2 0
BITMAP
020000
0F8400
08C400
087C00
001000
000000
000000
07F000
1FFC00
380600
700300
600300
C00180
000180
000180
000380
01FF80
1FC180
700180
E00180
C00180
800180
800380
800780
C00780
601D80
3FF980
0FC000
ENDCHAR
STARTCHAR 00E4
ENCODING 228
SWIDTH 540 0
DWIDTH 21 0
BBX 17 28 2 0
BITMAP
0E1C00
0E1C00
000000
000000
000000
000000
000000
07F000
1FFC00
380600
700300
600300
C00180
000180
000180
000380
01FF80
1FC180
700180
E00180
C00180
800180
800380
800780
C00780
601D80
3FF980
0FC000
ENDCHAR
STARTCHAR 00E5
ENCODING 229
SWIDTH 540 0
DWIDTH 21 0
BBX 17 30 2 0
BITMAP
01E000
03F000
061000
061800
061000
03F000
01E000
000000
000000
07F000
1FFC00
380600
700300
600300
C00180
000180
000180
000380
01FF80
1FC180
700180
E00180
C00180
800180
800380
800780
C00780
601D80
3FF980
0FC000
ENDCHAR
STARTCHAR 00E6
ENCODING 230
SWIDTH 951 0
DWIDTH 37 0
BBX 33 21 2 0
BITMAP
07F007E000
1FFC1FF800
380E380E00
6003600600
6003C00300
4001C00100
0001800180
0001800180
0001800180
03FFFFFF80
3FFFFFFF80
7001800000
C001800000
C001800000
8001800000
8003C00100
8003C00300
C006600700
601C300E00
3FF81FFC00
1FE007E000
ENDCHAR
STARTCHAR 00E7
ENCODING 231
SWIDTH 540 0
DWIDTH 21 0
BBX 17 30 2 -9
BITMAP
03F000
0FFE00
380700
300380
600180
C00000
C00000
C00000
800000
800000
800000
800000
800000
C00000
C00000
C00000
600180
300380
380700
0FFE00
03F000
00C000
008000
01C000
00E000
002000
002000
006000
03E000
018000
ENDCHAR
STARTCHAR 00E8
ENCODING 232
SWIDTH 565 0
DWIDTH 22 0
BBX 19 29 2 0
BITMAP
018000
018000
00C000
00C000
004000
000000
000000
000000
03F000
0FFE00
380700
300380
600180
C000C0
C000C0
C00040
800060
FFFFE0
FFFFE0
800000
800000
C00000
C00000
C000C0
6000C0
300180
380700
0FFE00
03F800
ENDCHAR
STARTCHAR 00E9
ENCODING 233
SWIDTH 565 0
DWIDTH 22 0
BBX 19 29 2 0
BITMAP
003000
003000
002000
006000
006000
000000
000000
000000
03F000
0FFE00
380700
300380
600180
C000C0
C000C0
C00040
800060
FFFFE0
FFFFE0
800000
800000
C00000
C00000
C000C0
6000C0
300180
380700
0FFE00
03F800
ENDCHAR
STARTCHAR 00EA
ENCODING 234
SWIDTH 565 0
DWIDTH 22 0
BBX 19 28 2 0
BITMAP
00E000
01B000
033800
061800
000000
000000
000000
03F000
0FFE00
380700
300380
600180
C000C0
C000C0
C00040
800060
FFFFE0
FFFFE0
800000
800000
C00000
C00000
C000C0
6000C0
300180
380700
0FFE00
03F800
ENDCHAR
STARTCHAR 00EB
ENCODING 235
SWIDTH 565 0
DWIDTH 22 0
BBX 19 28 2 0
BITMAP
0E1C00
0E1C00
000000
000000
000000
000000
000000
03F000
0FFE00
380700
300380
600180
C000C0
C000C0
C00040
800060
FFFFE0
FFFFE0
800000
800000
C00000
C00000
C000C0
6000C0
300180
380700
0FFE00
03F800
ENDCHAR
STARTCHAR 00EC
ENCODING 236
SWIDTH 205 0
DWIDTH 8 0
BBX 4 30 1 0
BITMAP
C0
40
60
60
20
00
00
00
00
30
30
30
30
30
30
30
30
30
30
30
30
30
30
30
30
30
30
30
30
30
ENDCHAR
STARTCHAR 00ED
ENCODING 237
SWIDTH 205 0
DWIDTH 8 0
BBX 4 30 3 0
BITMAP
30
20
60
60
C0
C0
00
00
00
C0
C0
C0
C0
C0
C0
C0
C0
C0
C0
C0
C0
C0
C0
C0
C0
C0
C0
C0
C0
C0
ENDCHAR
STARTCHAR 00EE
ENCODING 238
SWIDTH 205 0
DWIDTH 8 0
BBX 10 29 -1 0
BITMAP
0C00
1E00
3300
6180
C0C0
0000
0000
0000
0C00
0C00
0C00
0C00
0C00
0C00
0C00
0C00
0C00
0C00
0C00
0C00
0C00
0C00
0C00
0C00
0C00
0C00
0C00
0C00
0C00
ENDCHAR
STARTCHAR 00EF
ENCODING 239
SWIDTH 205 0
DWIDTH 8 0
BBX 10 28 -1 0
BITMAP
E1C0
E1C0
0000
0000
0000
0000
0000
0C00
0C00
0C00
0C00
0C00
0C00
0C00
0C00
0C00
0C00
0C00
0C00
0C00
0C00
0C00
0C00
0C00
0C00
0C00
0C00
0C00
ENDCHAR
STARTCHAR 00F0
ENCODING 240
SWIDTH 565 0
DWIDTH 22 0
BBX 19 29 2 1
BITMAP
000600
01CC00
01F800
003C00
003600
006300
004180
000180
0000C0
03F0C0
0FFEC0
380740
7001E0
6001E0
C000E0
C000E0
C00060
800060
800060
800060
800060
C00040
C000C0
C000C0
600180
700180
380700
1FFE00
07F800
ENDCHAR
STARTCHAR 00F1
ENCODING 241
SWIDTH 565 0
DWIDTH 22 0
BBX 17 28 3 0
BITMAP
040000
1F0800
11F800
107000
000000
000000
000000
87E000
9FF800
B80E00
E00600
E00300
C00100
C00180
800180
800180
800180
800180
800180
800180
800180
800180
800180
800180
800180
800180
800180
800180
ENDCHAR
STARTCHAR 00F2
ENCODING 242
SWIDTH 565 0
DWIDTH 22 0
BBX 19 29 2 0
BITMAP
010000
018000
018000
008000
00C000
000000
000000
000000
03F800
0FFE00
380700
300380
600180
C000C0
C000C0
C00040
800060
800060
800060
800060
800060
C00040
C000C0
C000C0
600180
300380
380700
0FFE00
03F800
ENDCHAR
STARTCHAR 00F3
ENCODING 243
SWIDTH 565 0
DWIDTH 22 0
BBX 19 29 2 0
BITMAP
003000
002000
006000
006000
00C000
000000
000000
000000
03F800
0FFE00
380700
300380
600180
C000C0
C000C0
C00040
800060
800060
800060
800060
800060
C00040
C000C0
C000C0
600180
300380
380700
0FFE00
03F800
ENDCHAR
STARTCHAR 00F4
ENCODING 244
SWIDTH 565 0
DWIDTH 22 0
BBX 19 28 2 0
BITMAP
00E000
01B000
033800
061800
000000
000000
000000
03F800
0FFE00
380700
300380
600180
C000C0
C000C0
C00040
800060
800060
800060
800060
800060
C00040
C000C0
C000C0
600180
300380
380700
0FFE00
03F800
ENDCHAR
STARTCHAR 00F5
ENCODING 245
SWIDTH 565 0
DWIDTH 22 0
BBX 19 28 2 0
BITMAP
020000
0F8400
0CE400
087C00
000000
000000
000000
03F800
0FFE00
380700
300380
600180
C000C0
C000C0
C00040
800060
800060
800060
800060
800060
C00040
C000C0
C000C0
600180
300380
380700
0FFE00
03F800
ENDCHAR
STARTCHAR 00F6
ENCODING 246
SWIDTH 565 0
DWIDTH 22 0
BBX 19 28 2 0
BITMAP
0E1C00
0E1C00
000000
000000
000000
000000
000000
03F800
0FFE00
380700
300380
600180
C000C0
C000C0
C00040
800060
800060
800060
800060
800060
C00040
C000C0
C000C0
600180
300380
380700
0FFE00
03F800
ENDCHAR
STARTCHAR 00F7
ENCODING 247
SWIDTH 540 0
DWIDTH 21 0
BBX 17 12 2 8
BITMAP
01C000
01C000
000000
000000
000000
FFFF80
FFFF80
000000
000000
000000
01C000
01C000
ENDCHAR
STARTCHAR 00F8
ENCODING 248
SWIDTH 565 0
DWIDTH 22 0
BBX 20 21 1 0
BITMAP
01FC10
07FF30
1C03E0
1801C0
3001E0
6003E0
600760
600E30
401830
403030
406030
40C030
418030
630020
660060
6C0060
3800C0
3801C0
7C0380
CFFF00
81F800
ENDCHAR
STARTCHAR 00F9
ENCODING 249
SWIDTH 565 0
DWIDTH 22 0
BBX 18 30 2 0
BITMAP
018000
018000
008000
00C000
00C000
000000
000000
000000
000000
C000C0
C000C0
C000C0
C000C0
C000C0
C000C0
C000C0
C000C0
C000C0
C000C0
C000C0
C000C0
C000C0
C000C0
4000C0
6001C0
6001C0
3003C0
1806C0
0FFCC0
03F0C0
ENDCHAR
STARTCHAR 00FA
ENCODING 250
SWIDTH 565 0
DWIDTH 22 0
BBX 18 30 2 0
BITMAP
003000
006000
006000
004000
00C000
00C000
000000
000000
000000
C000C0
C000C0
C000C0
C000C0
C000C0
C000C0
C000C0
C000C0
C000C0
C000C0
C000C0
C000C0
C000C0
C000C0
4000C0
6001C0
6001C0
3003C0
1806C0
0FFCC0
03F0C0
ENDCHAR
STARTCHAR 00FB
ENCODING 251
SWIDTH 565 0
DWIDTH 22 0
BBX 18 29 2 0
BITMAP
00C000
01E000
033000
061800
0C0C00
000000
000000
000000
C000C0
C000C0
C000C0
C000C0
C000C0
C000C0
C000C0
C000C0
C000C0
C000C0
C000C0
C000C0
C000C0
C000C0
4000C0
6001C0
6001C0
3003C0
1806C0
0FFCC0
03F0C0
ENDCHAR
STARTCHAR 00FC
ENCODING 252
SWIDTH 565 0
DWIDTH 22 0
BBX 18 28 2 0
BITMAP
0E1C00
0E1C00
000000
000000
000000
000000
000000
C000C0
C000C0
C000C0
C000C0
C000C0
C000C0
C000C0
C000C0
C000C0
C000C0
C000C0
C000C0
C000C0
C000C0
4000C0
6001C0
6001C0
3003C0
1806C0
0FFCC0
03F0C0
ENDCHAR
STARTCHAR 00FD
ENCODING 253
SWIDTH 514 0
DWIDTH 20 0
BBX 18 39 1 -9
BITMAP
002000
006000
006000
004000
00C000
00C000
000000
000000
000000
C000C0
C00180
600180
600100
200300
300300
300200
180600
180600
080C00
0C0C00
0C0C00
061800
061800
021000
033000
033000
01A000
01E000
00E000
00C000
00C000
00C000
018000
018000
010000
030000
030000
020000
060000
ENDCHAR
STARTCHAR 00FE
ENCODING 254
SWIDTH 565 0
DWIDTH 22 0
BBX 18 37 3 -9
BITMAP
800000
800000
800000
800000
800000
800000
800000
83F000
8FFC00
980E00
B00300
E00300
C00180
C00180
C000C0
8000C0
8000C0
8000C0
8000C0
8000C0
C000C0
C00180
C00180
E00300
B00300
980E00
8FFC00
83F000
800000
800000
800000
800000
800000
800000
800000
800000
800000
ENDCHAR
STARTCHAR 00FF
ENCODING 255
SWIDTH 514 0
DWIDTH 20 0
BBX 18 37 1 -9
BITMAP
0E1C00
0E1C00
000000
000000
000000
000000
000000
C000C0
C00180
600180
600100
200300
300300
300200
180600
180600
080C00
0C0C00
0C0C00
061800
061800
021000
033000
033000
01A000
01E000
00E000
00C000
00C000
00C000
018000
018000
010000
030000
030000
020000
060000
ENDCHAR
ENDFONT
