STARTFONT 2.1
COMMENT
COMMENT Converted from OpenType font "Manrope-ExtraLight.otf" by "otf2bdf 3.0".
COMMENT
FONT -FreeType-Manrope ExtraLight-Medium-R-Normal--18-130-100-100-P-80-ISO10646-1
SIZE 13 100 100
FONTBOUNDINGBOX 16 22 0 -4
STARTPROPERTIES 19
FOUNDRY "FreeType"
FAMILY_NAME "Manrope ExtraLight"
WEIGHT_NAME "Medium"
SLANT "R"
SETWIDTH_NAME "Normal"
ADD_STYLE_NAME ""
PIXEL_SIZE 18
POINT_SIZE 130
RESOLUTION_X 100
RESOLUTION_Y 100
SPACING "P"
AVERAGE_WIDTH 80
CHARSET_REGISTRY "ISO10646"
CHARSET_ENCODING "1"
FONT_ASCENT 19
FONT_DESCENT 5
COPYRIGHT "Copyright 2019-2021 The Manrope Project Authors (https://github.com/sharanda/manrope)"
_OTF_FONTFILE "Manrope-ExtraLight.otf"
_OTF_PSNAME "Manrope-ExtraLight"
ENDPROPERTIES
CHARS 191
STARTCHAR 0020
ENCODING 32
SWIDTH 221 0
DWIDTH 4 0
BBX 0 0 0 0
BITMAP
ENDCHAR
STARTCHAR 0021
ENCODING 33
SWIDTH 276 0
DWIDTH 5 0
BBX 1 13 2 0
BITMAP
80
80
80
80
80
80
80
80
80
80
00
00
80
ENDCHAR
STARTCHAR 0022
ENCODING 34
SWIDTH 332 0
DWIDTH 6 0
BBX 3 3 1 10
BITMAP
A0
A0
A0
ENDCHAR
STARTCHAR 0023
ENCODING 35
SWIDTH 886 0
DWIDTH 16 0
BBX 14 13 1 0
BITMAP
0220
0220
0220
0420
7FFC
0440
0840
0880
FFF8
0880
1080
1100
1100
ENDCHAR
STARTCHAR 0024
ENCODING 36
SWIDTH 553 0
DWIDTH 10 0
BBX 9 15 1 -1
BITMAP
1000
3C00
4300
8100
8080
8000
6000
1C00
0300
0100
0080
8100
C100
3E00
1000
ENDCHAR
STARTCHAR 0025
ENCODING 37
SWIDTH 886 0
DWIDTH 16 0
BBX 14 13 1 0
BITMAP
3804
C408
8210
8220
4440
3880
0100
0278
0484
0884
1084
2084
4078
ENDCHAR
STARTCHAR 0026
ENCODING 38
SWIDTH 664 0
DWIDTH 12 0
BBX 10 13 1 0
BITMAP
3C00
4300
4000
4000
4000
2000
7000
8880
8480
8280
8180
4180
3E40
ENDCHAR
STARTCHAR 0027
ENCODING 39
SWIDTH 166 0
DWIDTH 3 0
BBX 1 3 1 10
BITMAP
80
80
80
ENDCHAR
STARTCHAR 0028
ENCODING 40
SWIDTH 387 0
DWIDTH 7 0
BBX 4 18 3 -3
BITMAP
10
20
40
40
80
80
80
80
80
80
80
80
80
80
40
40
20
20
ENDCHAR
STARTCHAR 0029
ENCODING 41
SWIDTH 387 0
DWIDTH 7 0
BBX 4 18 1 -3
BITMAP
80
40
40
20
20
20
10
10
10
10
10
10
20
20
20
40
40
80
ENDCHAR
STARTCHAR 002A
ENCODING 42
SWIDTH 443 0
DWIDTH 8 0
BBX 5 5 1 8
BITMAP
20
20
F8
60
50
ENDCHAR
STARTCHAR 002B
ENCODING 43
SWIDTH 553 0
DWIDTH 10 0
BBX 8 9 1 2
BITMAP
08
08
08
08
FF
08
08
08
08
ENDCHAR
STARTCHAR 002C
ENCODING 44
SWIDTH 221 0
DWIDTH 4 0
BBX 1 3 1 -2
BITMAP
80
80
80
ENDCHAR
STARTCHAR 002D
ENCODING 45
SWIDTH 443 0
DWIDTH 8 0
BBX 6 1 1 5
BITMAP
FC
ENDCHAR
STARTCHAR 002E
ENCODING 46
SWIDTH 221 0
DWIDTH 4 0
BBX 2 1 1 0
BITMAP
C0
ENDCHAR
STARTCHAR 002F
ENCODING 47
SWIDTH 332 0
DWIDTH 6 0
BBX 4 13 1 0
BITMAP
10
10
10
20
20
20
20
40
40
40
40
80
80
ENDCHAR
STARTCHAR 0030
ENCODING 48
SWIDTH 553 0
DWIDTH 10 0
BBX 8 13 1 0
BITMAP
3C
42
81
81
81
81
81
81
81
81
81
42
3C
ENDCHAR
STARTCHAR 0031
ENCODING 49
SWIDTH 332 0
DWIDTH 6 0
BBX 3 13 1 0
BITMAP
20
E0
20
20
20
20
20
20
20
20
20
20
20
ENDCHAR
STARTCHAR 0032
ENCODING 50
SWIDTH 553 0
DWIDTH 10 0
BBX 8 13 1 0
BITMAP
3C
42
81
81
01
01
02
04
08
10
20
40
FF
ENDCHAR
STARTCHAR 0033
ENCODING 51
SWIDTH 553 0
DWIDTH 10 0
BBX 8 13 1 0
BITMAP
FE
02
04
08
30
7C
02
02
01
01
82
82
7C
ENDCHAR
STARTCHAR 0034
ENCODING 52
SWIDTH 553 0
DWIDTH 10 0
BBX 9 13 1 0
BITMAP
0800
1000
1000
1000
2000
2200
4200
4200
8200
FF80
0200
0200
0200
ENDCHAR
STARTCHAR 0035
ENCODING 53
SWIDTH 553 0
DWIDTH 10 0
BBX 8 13 1 0
BITMAP
7E
80
80
80
9C
E2
81
01
01
01
81
42
3C
ENDCHAR
STARTCHAR 0036
ENCODING 54
SWIDTH 609 0
DWIDTH 11 0
BBX 9 13 1 0
BITMAP
1E00
6100
4000
8000
8000
9E00
E100
8080
8080
8080
8080
4100
3E00
ENDCHAR
STARTCHAR 0037
ENCODING 55
SWIDTH 498 0
DWIDTH 9 0
BBX 7 13 1 0
BITMAP
FE
04
04
04
08
08
10
10
10
20
20
40
40
ENDCHAR
STARTCHAR 0038
ENCODING 56
SWIDTH 553 0
DWIDTH 10 0
BBX 8 13 1 0
BITMAP
3C
42
81
81
81
42
3C
42
81
81
81
42
3C
ENDCHAR
STARTCHAR 0039
ENCODING 57
SWIDTH 609 0
DWIDTH 11 0
BBX 9 13 1 0
BITMAP
1E00
6100
8080
8080
8080
8080
4180
3E80
0080
0080
4100
4100
3E00
ENDCHAR
STARTCHAR 003A
ENCODING 58
SWIDTH 276 0
DWIDTH 5 0
BBX 1 6 2 2
BITMAP
80
00
00
00
00
80
ENDCHAR
STARTCHAR 003B
ENCODING 59
SWIDTH 276 0
DWIDTH 5 0
BBX 1 11 2 -2
BITMAP
80
00
00
00
00
00
00
00
80
80
80
ENDCHAR
STARTCHAR 003C
ENCODING 60
SWIDTH 609 0
DWIDTH 11 0
BBX 4 8 3 2
BITMAP
10
20
40
80
80
40
20
10
ENDCHAR
STARTCHAR 003D
ENCODING 61
SWIDTH 775 0
DWIDTH 14 0
BBX 9 3 2 5
BITMAP
FF80
0000
FF80
ENDCHAR
STARTCHAR 003E
ENCODING 62
SWIDTH 609 0
DWIDTH 11 0
BBX 4 8 4 2
BITMAP
80
40
20
10
10
20
40
80
ENDCHAR
STARTCHAR 003F
ENCODING 63
SWIDTH 498 0
DWIDTH 9 0
BBX 7 13 1 0
BITMAP
7C
82
82
02
02
04
08
10
10
10
00
00
10
ENDCHAR
STARTCHAR 0040
ENCODING 64
SWIDTH 886 0
DWIDTH 16 0
BBX 14 14 1 -2
BITMAP
0780
1860
2010
4008
4008
8784
8884
8884
84C8
4378
4000
2000
1020
0FC0
ENDCHAR
STARTCHAR 0041
ENCODING 65
SWIDTH 609 0
DWIDTH 11 0
BBX 10 13 0 0
BITMAP
0400
0C00
0A00
0A00
1100
1100
1100
2080
2080
3F80
4040
4040
8040
ENDCHAR
STARTCHAR 0042
ENCODING 66
SWIDTH 609 0
DWIDTH 11 0
BBX 9 13 1 0
BITMAP
FE00
8100
8080
8080
8100
8100
FE00
8180
8080
8080
8080
8080
FF00
ENDCHAR
STARTCHAR 0043
ENCODING 67
SWIDTH 720 0
DWIDTH 13 0
BBX 11 13 1 0
BITMAP
1F00
6080
4040
8020
8000
8000
8000
8000
8000
8020
8040
6080
1F00
ENDCHAR
STARTCHAR 0044
ENCODING 68
SWIDTH 664 0
DWIDTH 12 0
BBX 10 13 1 0
BITMAP
FE00
8100
8080
8040
8040
8040
8040
8040
8040
8040
8080
8100
FE00
ENDCHAR
STARTCHAR 0045
ENCODING 69
SWIDTH 553 0
DWIDTH 10 0
BBX 8 13 1 0
BITMAP
FF
80
80
80
80
80
FE
80
80
80
80
80
FF
ENDCHAR
STARTCHAR 0046
ENCODING 70
SWIDTH 498 0
DWIDTH 9 0
BBX 7 13 1 0
BITMAP
FE
80
80
80
80
80
FC
80
80
80
80
80
80
ENDCHAR
STARTCHAR 0047
ENCODING 71
SWIDTH 664 0
DWIDTH 12 0
BBX 11 13 1 0
BITMAP
1F00
6080
8040
8000
8000
8000
81E0
8020
8020
8020
4040
6080
1F00
ENDCHAR
STARTCHAR 0048
ENCODING 72
SWIDTH 664 0
DWIDTH 12 0
BBX 10 13 1 0
BITMAP
8040
8040
8040
8040
8040
8040
FFC0
8040
8040
8040
8040
8040
8040
ENDCHAR
STARTCHAR 0049
ENCODING 73
SWIDTH 221 0
DWIDTH 4 0
BBX 1 13 1 0
BITMAP
80
80
80
80
80
80
80
80
80
80
80
80
80
ENDCHAR
STARTCHAR 004A
ENCODING 74
SWIDTH 443 0
DWIDTH 8 0
BBX 6 13 0 0
BITMAP
04
04
04
04
04
04
04
04
04
04
84
84
78
ENDCHAR
STARTCHAR 004B
ENCODING 75
SWIDTH 553 0
DWIDTH 10 0
BBX 9 13 1 0
BITMAP
8100
8200
8400
8800
9000
A000
C000
A000
9000
8800
8600
8300
8080
ENDCHAR
STARTCHAR 004C
ENCODING 76
SWIDTH 498 0
DWIDTH 9 0
BBX 8 13 1 0
BITMAP
80
80
80
80
80
80
80
80
80
80
80
80
FF
ENDCHAR
STARTCHAR 004D
ENCODING 77
SWIDTH 830 0
DWIDTH 15 0
BBX 13 13 1 0
BITMAP
8008
C018
C018
A028
A028
9048
9048
9088
8888
8888
8508
8508
8208
ENDCHAR
STARTCHAR 004E
ENCODING 78
SWIDTH 664 0
DWIDTH 12 0
BBX 10 13 1 0
BITMAP
8040
C040
A040
A040
9040
8840
8840
8440
8240
8240
8140
80C0
8040
ENDCHAR
STARTCHAR 004F
ENCODING 79
SWIDTH 720 0
DWIDTH 13 0
BBX 11 13 1 0
BITMAP
1F00
6080
4040
8020
8020
8020
8020
8020
8020
8020
8040
6080
1F00
ENDCHAR
STARTCHAR 0050
ENCODING 80
SWIDTH 609 0
DWIDTH 11 0
BBX 9 13 1 0
BITMAP
FE00
8100
8080
8080
8080
8080
8100
FE00
8000
8000
8000
8000
8000
ENDCHAR
STARTCHAR 0051
ENCODING 81
SWIDTH 720 0
DWIDTH 13 0
BBX 11 13 1 0
BITMAP
1F00
6080
4040
8020
8020
8020
8020
8020
8020
8020
80C0
60C0
1F20
ENDCHAR
STARTCHAR 0052
ENCODING 82
SWIDTH 609 0
DWIDTH 11 0
BBX 9 13 1 0
BITMAP
FE00
8100
8080
8080
8080
8080
8100
FE00
8200
8100
8100
8080
8080
ENDCHAR
STARTCHAR 0053
ENCODING 83
SWIDTH 609 0
DWIDTH 11 0
BBX 9 13 1 0
BITMAP
3E00
4100
8080
8080
8000
6000
1E00
0100
0080
0080
8080
4100
3E00
ENDCHAR
STARTCHAR 0054
ENCODING 84
SWIDTH 609 0
DWIDTH 11 0
BBX 10 13 0 0
BITMAP
FFC0
0400
0400
0400
0400
0400
0400
0400
0400
0400
0400
0400
0400
ENDCHAR
STARTCHAR 0055
ENCODING 85
SWIDTH 664 0
DWIDTH 12 0
BBX 10 13 1 0
BITMAP
8040
8040
8040
8040
8040
8040
8040
8040
8040
8040
4040
6080
1F00
ENDCHAR
STARTCHAR 0056
ENCODING 86
SWIDTH 553 0
DWIDTH 10 0
BBX 10 13 0 0
BITMAP
8040
8040
4080
4080
2080
2100
2100
1100
1200
1200
0A00
0C00
0400
ENDCHAR
STARTCHAR 0057
ENCODING 87
SWIDTH 886 0
DWIDTH 16 0
BBX 16 13 0 0
BITMAP
8081
4181
4182
4142
4242
2244
2244
2424
1424
1428
1418
1818
0810
ENDCHAR
STARTCHAR 0058
ENCODING 88
SWIDTH 553 0
DWIDTH 10 0
BBX 10 13 0 0
BITMAP
4040
4080
2100
1100
1200
0C00
0400
0C00
1200
2100
2100
4080
8040
ENDCHAR
STARTCHAR 0059
ENCODING 89
SWIDTH 498 0
DWIDTH 9 0
BBX 9 13 0 0
BITMAP
8080
4080
4100
2200
2200
1400
0C00
0800
0800
0800
0800
0800
0800
ENDCHAR
STARTCHAR 005A
ENCODING 90
SWIDTH 609 0
DWIDTH 11 0
BBX 9 13 1 0
BITMAP
FF00
0100
0200
0200
0400
0800
0800
1000
2000
2000
4000
4000
FF80
ENDCHAR
STARTCHAR 005B
ENCODING 91
SWIDTH 387 0
DWIDTH 7 0
BBX 3 20 3 -4
BITMAP
E0
80
80
80
80
80
80
80
80
80
80
80
80
80
80
80
80
80
80
E0
ENDCHAR
STARTCHAR 005C
ENCODING 92
SWIDTH 332 0
DWIDTH 6 0
BBX 4 13 1 0
BITMAP
80
80
40
40
40
40
20
20
20
20
10
10
10
ENDCHAR
STARTCHAR 005D
ENCODING 93
SWIDTH 387 0
DWIDTH 7 0
BBX 3 20 2 -4
BITMAP
E0
20
20
20
20
20
20
20
20
20
20
20
20
20
20
20
20
20
20
E0
ENDCHAR
STARTCHAR 005E
ENCODING 94
SWIDTH 664 0
DWIDTH 12 0
BBX 8 5 2 8
BITMAP
08
14
22
41
80
ENDCHAR
STARTCHAR 005F
ENCODING 95
SWIDTH 664 0
DWIDTH 12 0
BBX 12 1 0 -2
BITMAP
FFF0
ENDCHAR
STARTCHAR 0060
ENCODING 96
SWIDTH 443 0
DWIDTH 8 0
BBX 2 2 3 15
BITMAP
80
40
ENDCHAR
STARTCHAR 0061
ENCODING 97
SWIDTH 553 0
DWIDTH 10 0
BBX 8 10 1 0
BITMAP
3C
42
81
01
1F
E1
81
83
83
7D
ENDCHAR
STARTCHAR 0062
ENCODING 98
SWIDTH 553 0
DWIDTH 10 0
BBX 9 13 1 0
BITMAP
8000
8000
8000
9E00
E100
C100
8080
8080
8080
8080
C100
C100
BE00
ENDCHAR
STARTCHAR 0063
ENCODING 99
SWIDTH 553 0
DWIDTH 10 0
BBX 8 10 1 0
BITMAP
3C
43
81
80
80
80
80
81
43
3C
ENDCHAR
STARTCHAR 0064
ENCODING 100
SWIDTH 553 0
DWIDTH 10 0
BBX 8 13 1 0
BITMAP
01
01
01
3D
43
81
81
81
81
81
81
43
3D
ENDCHAR
STARTCHAR 0065
ENCODING 101
SWIDTH 553 0
DWIDTH 10 0
BBX 9 10 1 0
BITMAP
3C00
4300
8100
8100
FF80
8000
8000
8100
4100
3E00
ENDCHAR
STARTCHAR 0066
ENCODING 102
SWIDTH 332 0
DWIDTH 6 0
BBX 5 13 1 0
BITMAP
38
40
40
F8
40
40
40
40
40
40
40
40
40
ENDCHAR
STARTCHAR 0067
ENCODING 103
SWIDTH 553 0
DWIDTH 10 0
BBX 8 14 1 -4
BITMAP
3D
43
81
81
81
81
81
81
43
3D
01
01
42
3C
ENDCHAR
STARTCHAR 0068
ENCODING 104
SWIDTH 553 0
DWIDTH 10 0
BBX 8 13 1 0
BITMAP
80
80
80
BC
C2
81
81
81
81
81
81
81
81
ENDCHAR
STARTCHAR 0069
ENCODING 105
SWIDTH 221 0
DWIDTH 4 0
BBX 1 13 1 0
BITMAP
80
00
00
80
80
80
80
80
80
80
80
80
80
ENDCHAR
STARTCHAR 006A
ENCODING 106
SWIDTH 221 0
DWIDTH 4 0
BBX 3 17 0 -4
BITMAP
20
00
00
20
20
20
20
20
20
20
20
20
20
20
20
20
C0
ENDCHAR
STARTCHAR 006B
ENCODING 107
SWIDTH 443 0
DWIDTH 8 0
BBX 7 13 1 0
BITMAP
80
80
80
86
8C
90
A0
C0
E0
90
88
84
82
ENDCHAR
STARTCHAR 006C
ENCODING 108
SWIDTH 221 0
DWIDTH 4 0
BBX 1 13 1 0
BITMAP
80
80
80
80
80
80
80
80
80
80
80
80
80
ENDCHAR
STARTCHAR 006D
ENCODING 109
SWIDTH 830 0
DWIDTH 15 0
BBX 13 10 1 0
BITMAP
B8E0
C710
8208
8208
8208
8208
8208
8208
8208
8208
ENDCHAR
STARTCHAR 006E
ENCODING 110
SWIDTH 553 0
DWIDTH 10 0
BBX 8 10 1 0
BITMAP
BC
C2
81
81
81
81
81
81
81
81
ENDCHAR
STARTCHAR 006F
ENCODING 111
SWIDTH 553 0
DWIDTH 10 0
BBX 9 10 1 0
BITMAP
3C00
4300
8100
8100
8080
8080
8100
8100
4300
3C00
ENDCHAR
STARTCHAR 0070
ENCODING 112
SWIDTH 553 0
DWIDTH 10 0
BBX 9 14 1 -4
BITMAP
9E00
E100
C100
8080
8080
8080
8080
C100
C100
BE00
8000
8000
8000
8000
ENDCHAR
STARTCHAR 0071
ENCODING 113
SWIDTH 553 0
DWIDTH 10 0
BBX 8 14 1 -4
BITMAP
3D
43
81
81
81
81
81
81
43
3D
01
01
01
01
ENDCHAR
STARTCHAR 0072
ENCODING 114
SWIDTH 332 0
DWIDTH 6 0
BBX 5 10 1 0
BITMAP
B8
C0
80
80
80
80
80
80
80
80
ENDCHAR
STARTCHAR 0073
ENCODING 115
SWIDTH 498 0
DWIDTH 9 0
BBX 8 10 1 0
BITMAP
7C
82
81
80
70
0E
02
81
82
7C
ENDCHAR
STARTCHAR 0074
ENCODING 116
SWIDTH 387 0
DWIDTH 7 0
BBX 6 13 0 0
BITMAP
20
20
20
FC
20
20
20
20
20
20
20
20
1C
ENDCHAR
STARTCHAR 0075
ENCODING 117
SWIDTH 553 0
DWIDTH 10 0
BBX 8 10 1 0
BITMAP
81
81
81
81
81
81
81
81
43
3D
ENDCHAR
STARTCHAR 0076
ENCODING 118
SWIDTH 498 0
DWIDTH 9 0
BBX 8 10 0 0
BITMAP
81
41
42
42
22
24
24
14
18
08
ENDCHAR
STARTCHAR 0077
ENCODING 119
SWIDTH 720 0
DWIDTH 13 0
BBX 13 10 0 0
BITMAP
8208
4308
4510
4510
4510
28A0
28A0
28A0
1860
1040
ENDCHAR
STARTCHAR 0078
ENCODING 120
SWIDTH 498 0
DWIDTH 9 0
BBX 8 10 1 0
BITMAP
81
82
44
28
10
10
28
44
82
81
ENDCHAR
STARTCHAR 0079
ENCODING 121
SWIDTH 498 0
DWIDTH 9 0
BBX 9 14 0 -4
BITMAP
8080
4100
4100
2200
2200
2200
1400
1400
0C00
0800
0800
0800
1000
1000
ENDCHAR
STARTCHAR 007A
ENCODING 122
SWIDTH 553 0
DWIDTH 10 0
BBX 8 10 1 0
BITMAP
FF
02
04
08
10
10
20
40
80
FE
ENDCHAR
STARTCHAR 007B
ENCODING 123
SWIDTH 387 0
DWIDTH 7 0
BBX 3 20 3 -4
BITMAP
60
80
80
80
80
80
80
80
80
80
80
80
80
80
80
80
80
80
80
60
ENDCHAR
STARTCHAR 007C
ENCODING 124
SWIDTH 221 0
DWIDTH 4 0
BBX 1 13 2 0
BITMAP
80
80
80
80
80
80
80
80
80
80
80
80
80
ENDCHAR
STARTCHAR 007D
ENCODING 125
SWIDTH 387 0
DWIDTH 7 0
BBX 3 20 1 -4
BITMAP
C0
20
20
20
20
20
20
20
20
20
20
20
20
20
20
20
20
20
20
C0
ENDCHAR
STARTCHAR 007E
ENCODING 126
SWIDTH 609 0
DWIDTH 11 0
BBX 7 3 2 4
BITMAP
62
92
8E
ENDCHAR
STARTCHAR 00A0
ENCODING 160
SWIDTH 221 0
DWIDTH 4 0
BBX 0 0 0 0
BITMAP
ENDCHAR
STARTCHAR 00A1
ENCODING 161
SWIDTH 276 0
DWIDTH 5 0
BBX 1 13 2 -3
BITMAP
80
00
00
80
80
80
80
80
80
80
80
80
80
ENDCHAR
STARTCHAR 00A2
ENCODING 162
SWIDTH 553 0
DWIDTH 10 0
BBX 8 14 1 -1
BITMAP
08
08
3C
43
81
80
80
80
80
81
43
3C
08
08
ENDCHAR
STARTCHAR 00A3
ENCODING 163
SWIDTH 553 0
DWIDTH 10 0
BBX 9 13 1 0
BITMAP
0E00
1100
2080
2000
2000
2000
FE00
2000
2000
2000
2000
2000
FF80
ENDCHAR
STARTCHAR 00A4
ENCODING 164
SWIDTH 609 0
DWIDTH 11 0
BBX 9 9 1 2
BITMAP
BE80
4100
8080
8080
8080
8080
8080
4100
BE80
ENDCHAR
STARTCHAR 00A5
ENCODING 165
SWIDTH 498 0
DWIDTH 9 0
BBX 9 13 0 0
BITMAP
8080
4100
4100
2200
1200
1400
0800
7F00
0800
0800
7F00
0800
0800
ENDCHAR
STARTCHAR 00A6
ENCODING 166
SWIDTH 221 0
DWIDTH 4 0
BBX 1 15 2 -2
BITMAP
80
80
80
80
80
80
00
00
00
00
80
80
80
80
80
ENDCHAR
STARTCHAR 00A7
ENCODING 167
SWIDTH 498 0
DWIDTH 9 0
BBX 8 15 1 -3
BITMAP
38
46
82
80
60
5C
82
81
81
72
0E
02
82
42
3C
ENDCHAR
STARTCHAR 00A8
ENCODING 168
SWIDTH 498 0
DWIDTH 9 0
BBX 5 1 2 15
BITMAP
98
ENDCHAR
STARTCHAR 00A9
ENCODING 169
SWIDTH 775 0
DWIDTH 14 0
BBX 12 13 1 0
BITMAP
0E00
3180
4040
8F20
9090
A010
A010
A010
9010
9120
4E20
2040
1F80
ENDCHAR
STARTCHAR 00AA
ENCODING 170
SWIDTH 332 0
DWIDTH 6 0
BBX 4 5 1 5
BITMAP
E0
90
F0
90
F0
ENDCHAR
STARTCHAR 00AB
ENCODING 171
SWIDTH 498 0
DWIDTH 9 0
BBX 6 8 2 1
BITMAP
24
48
50
90
A0
90
48
24
ENDCHAR
STARTCHAR 00AC
ENCODING 172
SWIDTH 609 0
DWIDTH 11 0
BBX 9 3 1 4
BITMAP
FF80
0080
0080
ENDCHAR
STARTCHAR 00AD
ENCODING 173
SWIDTH 443 0
DWIDTH 8 0
BBX 6 1 1 5
BITMAP
FC
ENDCHAR
STARTCHAR 00AE
ENCODING 174
SWIDTH 609 0
DWIDTH 11 0
BBX 9 9 1 5
BITMAP
1C00
6200
5900
9480
9C80
9480
5500
6200
1C00
ENDCHAR
STARTCHAR 00AF
ENCODING 175
SWIDTH 498 0
DWIDTH 9 0
BBX 5 1 2 15
BITMAP
F8
ENDCHAR
STARTCHAR 00B0
ENCODING 176
SWIDTH 443 0
DWIDTH 8 0
BBX 6 7 1 6
BITMAP
70
88
84
84
84
88
70
ENDCHAR
STARTCHAR 00B1
ENCODING 177
SWIDTH 609 0
DWIDTH 11 0
BBX 9 8 1 2
BITMAP
0800
0800
FF80
0800
0800
0800
0000
FF80
ENDCHAR
STARTCHAR 00B2
ENCODING 178
SWIDTH 387 0
DWIDTH 7 0
BBX 5 8 1 5
BITMAP
70
88
08
08
10
20
40
F8
ENDCHAR
STARTCHAR 00B3
ENCODING 179
SWIDTH 387 0
DWIDTH 7 0
BBX 5 8 1 5
BITMAP
F8
10
20
70
08
08
88
70
ENDCHAR
STARTCHAR 00B4
ENCODING 180
SWIDTH 443 0
DWIDTH 8 0
BBX 1 2 4 15
BITMAP
80
80
ENDCHAR
STARTCHAR 00B5
ENCODING 181
SWIDTH 609 0
DWIDTH 11 0
BBX 8 14 1 -4
BITMAP
81
81
81
81
81
81
81
81
C3
BD
80
80
80
80
ENDCHAR
STARTCHAR 00B6
ENCODING 182
SWIDTH 609 0
DWIDTH 11 0
BBX 7 16 2 -3
BITMAP
7A
FA
FA
FA
FA
FA
FA
3A
0A
0A
0A
0A
0A
0A
0A
0A
ENDCHAR
STARTCHAR 00B7
ENCODING 183
SWIDTH 221 0
DWIDTH 4 0
BBX 1 1 1 5
BITMAP
80
ENDCHAR
STARTCHAR 00B8
ENCODING 184
SWIDTH 387 0
DWIDTH 7 0
BBX 3 4 2 -4
BITMAP
40
60
20
C0
ENDCHAR
STARTCHAR 00B9
ENCODING 185
SWIDTH 332 0
DWIDTH 6 0
BBX 2 8 1 5
BITMAP
40
C0
40
40
40
40
40
40
ENDCHAR
STARTCHAR 00BA
ENCODING 186
SWIDTH 332 0
DWIDTH 6 0
BBX 4 5 1 5
BITMAP
70
90
90
90
70
ENDCHAR
STARTCHAR 00BB
ENCODING 187
SWIDTH 498 0
DWIDTH 9 0
BBX 6 8 1 1
BITMAP
90
48
28
24
14
24
48
90
ENDCHAR
STARTCHAR 00BC
ENCODING 188
SWIDTH 941 0
DWIDTH 17 0
BBX 14 13 1 0
BITMAP
4020
C020
4040
4080
4100
4310
4220
4420
0840
1048
1088
20FC
4008
ENDCHAR
STARTCHAR 00BD
ENCODING 189
SWIDTH 886 0
DWIDTH 16 0
BBX 14 13 1 0
BITMAP
4020
C020
4040
4080
4100
4338
4244
4404
0804
1008
3010
2020
407C
ENDCHAR
STARTCHAR 00BE
ENCODING 190
SWIDTH 941 0
DWIDTH 17 0
BBX 15 13 1 0
BITMAP
F808
1010
2020
7040
0840
0888
8910
7210
0424
0424
0824
103E
2004
ENDCHAR
STARTCHAR 00BF
ENCODING 191
SWIDTH 498 0
DWIDTH 9 0
BBX 7 14 1 -4
BITMAP
10
00
00
00
10
10
30
60
80
80
82
82
46
38
ENDCHAR
STARTCHAR 00C0
ENCODING 192
SWIDTH 609 0
DWIDTH 11 0
BBX 10 17 0 0
BITMAP
0800
0800
0000
0000
0400
0C00
0A00
0A00
1100
1100
1100
2080
2080
3F80
4040
4040
8040
ENDCHAR
STARTCHAR 00C1
ENCODING 193
SWIDTH 609 0
DWIDTH 11 0
BBX 10 17 0 0
BITMAP
0200
0400
0000
0000
0400
0C00
0A00
0A00
1100
1100
1100
2080
2080
3F80
4040
4040
8040
ENDCHAR
STARTCHAR 00C2
ENCODING 194
SWIDTH 609 0
DWIDTH 11 0
BBX 10 17 0 0
BITMAP
0400
0A00
0000
0000
0400
0C00
0A00
0A00
1100
1100
1100
2080
2080
3F80
4040
4040
8040
ENDCHAR
STARTCHAR 00C3
ENCODING 195
SWIDTH 609 0
DWIDTH 11 0
BBX 10 17 0 0
BITMAP
1900
1700
0000
0000
0400
0C00
0A00
0A00
1100
1100
1100
2080
2080
3F80
4040
4040
8040
ENDCHAR
STARTCHAR 00C4
ENCODING 196
SWIDTH 609 0
DWIDTH 11 0
BBX 10 16 0 0
BITMAP
1100
0000
0000
0400
0C00
0A00
0A00
1100
1100
1100
2080
2080
3F80
4040
4040
8040
ENDCHAR
STARTCHAR 00C5
ENCODING 197
SWIDTH 609 0
DWIDTH 11 0
BBX 10 18 0 0
BITMAP
0400
0A00
0A00
0E00
0000
0400
0C00
0A00
0A00
1100
1100
1100
2080
2080
3F80
4040
4040
8040
ENDCHAR
STARTCHAR 00C6
ENCODING 198
SWIDTH 886 0
DWIDTH 16 0
BBX 15 13 0 0
BITMAP
07FE
0900
0900
0900
1100
1100
11FC
2100
2100
3F00
4100
4100
81FE
ENDCHAR
STARTCHAR 00C7
ENCODING 199
SWIDTH 720 0
DWIDTH 13 0
BBX 11 17 1 -4
BITMAP
1F00
6080
4040
8020
8000
8000
8000
8000
8000
8020
8040
6080
1F00
0400
0600
0200
0C00
ENDCHAR
STARTCHAR 00C8
ENCODING 200
SWIDTH 553 0
DWIDTH 10 0
BBX 8 17 1 0
BITMAP
10
08
00
00
FF
80
80
80
80
80
FE
80
80
80
80
80
FF
ENDCHAR
STARTCHAR 00C9
ENCODING 201
SWIDTH 553 0
DWIDTH 10 0
BBX 8 17 1 0
BITMAP
08
08
00
00
FF
80
80
80
80
80
FE
80
80
80
80
80
FF
ENDCHAR
STARTCHAR 00CA
ENCODING 202
SWIDTH 553 0
DWIDTH 10 0
BBX 8 17 1 0
BITMAP
08
14
20
00
FF
80
80
80
80
80
FE
80
80
80
80
80
FF
ENDCHAR
STARTCHAR 00CB
ENCODING 203
SWIDTH 553 0
DWIDTH 10 0
BBX 8 16 1 0
BITMAP
24
00
00
FF
80
80
80
80
80
FE
80
80
80
80
80
FF
ENDCHAR
STARTCHAR 00CC
ENCODING 204
SWIDTH 221 0
DWIDTH 4 0
BBX 1 17 1 0
BITMAP
80
80
00
00
80
80
80
80
80
80
80
80
80
80
80
80
80
ENDCHAR
STARTCHAR 00CD
ENCODING 205
SWIDTH 221 0
DWIDTH 4 0
BBX 2 17 1 0
BITMAP
40
40
00
00
80
80
80
80
80
80
80
80
80
80
80
80
80
ENDCHAR
STARTCHAR 00CE
ENCODING 206
SWIDTH 221 0
DWIDTH 4 0
BBX 4 17 0 0
BITMAP
40
A0
10
00
40
40
40
40
40
40
40
40
40
40
40
40
40
ENDCHAR
STARTCHAR 00CF
ENCODING 207
SWIDTH 221 0
DWIDTH 4 0
BBX 4 16 0 0
BITMAP
90
00
00
40
40
40
40
40
40
40
40
40
40
40
40
40
ENDCHAR
STARTCHAR 00D0
ENCODING 208
SWIDTH 664 0
DWIDTH 12 0
BBX 11 13 0 0
BITMAP
7F00
4080
4040
4040
4020
4020
FC20
4020
4020
4040
4040
4080
7F00
ENDCHAR
STARTCHAR 00D1
ENCODING 209
SWIDTH 664 0
DWIDTH 12 0
BBX 10 17 1 0
BITMAP
1900
1500
0200
0000
8040
C040
A040
A040
9040
8840
8840
8440
8240
8240
8140
80C0
8040
ENDCHAR
STARTCHAR 00D2
ENCODING 210
SWIDTH 720 0
DWIDTH 13 0
BBX 11 17 1 0
BITMAP
0800
0400
0000
0000
1F00
6080
4040
8020
8020
8020
8020
8020
8020
8020
8040
6080
1F00
ENDCHAR
STARTCHAR 00D3
ENCODING 211
SWIDTH 720 0
DWIDTH 13 0
BBX 11 17 1 0
BITMAP
0200
0400
0400
0000
1F00
6080
4040
8020
8020
8020
8020
8020
8020
8020
8040
6080
1F00
ENDCHAR
STARTCHAR 00D4
ENCODING 212
SWIDTH 720 0
DWIDTH 13 0
BBX 11 17 1 0
BITMAP
0400
0A00
1100
0000
1F00
6080
4040
8020
8020
8020
8020
8020
8020
8020
8040
6080
1F00
ENDCHAR
STARTCHAR 00D5
ENCODING 213
SWIDTH 720 0
DWIDTH 13 0
BBX 11 16 1 0
BITMAP
1D00
1300
0000
1F00
6080
4040
8020
8020
8020
8020
8020
8020
8020
8040
6080
1F00
ENDCHAR
STARTCHAR 00D6
ENCODING 214
SWIDTH 720 0
DWIDTH 13 0
BBX 11 16 1 0
BITMAP
1300
0000
0000
1F00
6080
4040
8020
8020
8020
8020
8020
8020
8020
8040
6080
1F00
ENDCHAR
STARTCHAR 00D7
ENCODING 215
SWIDTH 498 0
DWIDTH 9 0
BBX 6 6 1 3
BITMAP
C4
68
30
38
4C
84
ENDCHAR
STARTCHAR 00D8
ENCODING 216
SWIDTH 720 0
DWIDTH 13 0
BBX 13 13 0 0
BITMAP
0F88
3070
2020
4050
4090
8110
8210
8410
4810
5010
6020
7040
8F80
ENDCHAR
STARTCHAR 00D9
ENCODING 217
SWIDTH 664 0
DWIDTH 12 0
BBX 10 17 1 0
BITMAP
0800
0800
0000
0000
8040
8040
8040
8040
8040
8040
8040
8040
8040
8040
4040
6080
1F00
ENDCHAR
STARTCHAR 00DA
ENCODING 218
SWIDTH 664 0
DWIDTH 12 0
BBX 10 17 1 0
BITMAP
0400
0400
0000
0000
8040
8040
8040
8040
8040
8040
8040
8040
8040
8040
4040
6080
1F00
ENDCHAR
STARTCHAR 00DB
ENCODING 219
SWIDTH 664 0
DWIDTH 12 0
BBX 10 17 1 0
BITMAP
0400
0A00
1000
0000
8040
8040
8040
8040
8040
8040
8040
8040
8040
8040
4040
6080
1F00
ENDCHAR
STARTCHAR 00DC
ENCODING 220
SWIDTH 664 0
DWIDTH 12 0
BBX 10 16 1 0
BITMAP
1200
0000
0000
8040
8040
8040
8040
8040
8040
8040
8040
8040
8040
4040
6080
1F00
ENDCHAR
STARTCHAR 00DD
ENCODING 221
SWIDTH 498 0
DWIDTH 9 0
BBX 9 17 0 0
BITMAP
0800
0800
0000
0000
8080
4080
4100
2200
2200
1400
0C00
0800
0800
0800
0800
0800
0800
ENDCHAR
STARTCHAR 00DE
ENCODING 222
SWIDTH 553 0
DWIDTH 10 0
BBX 9 13 1 0
BITMAP
8000
8000
FC00
8300
8100
8080
8080
8080
8100
8300
FC00
8000
8000
ENDCHAR
STARTCHAR 00DF
ENCODING 223
SWIDTH 553 0
DWIDTH 10 0
BBX 8 13 1 0
BITMAP
3C
42
82
82
82
84
8E
81
81
81
81
81
9E
ENDCHAR
STARTCHAR 00E0
ENCODING 224
SWIDTH 553 0
DWIDTH 10 0
BBX 8 14 1 0
BITMAP
10
10
00
00
3C
42
81
01
1F
E1
81
83
83
7D
ENDCHAR
STARTCHAR 00E1
ENCODING 225
SWIDTH 553 0
DWIDTH 10 0
BBX 8 14 1 0
BITMAP
08
08
00
00
3C
42
81
01
1F
E1
81
83
83
7D
ENDCHAR
STARTCHAR 00E2
ENCODING 226
SWIDTH 553 0
DWIDTH 10 0
BBX 8 13 1 0
BITMAP
18
24
00
3C
42
81
01
1F
E1
81
83
83
7D
ENDCHAR
STARTCHAR 00E3
ENCODING 227
SWIDTH 553 0
DWIDTH 10 0
BBX 8 13 1 0
BITMAP
32
0C
00
3C
42
81
01
1F
E1
81
83
83
7D
ENDCHAR
STARTCHAR 00E4
ENCODING 228
SWIDTH 553 0
DWIDTH 10 0
BBX 8 13 1 0
BITMAP
24
00
00
3C
42
81
01
1F
E1
81
83
83
7D
ENDCHAR
STARTCHAR 00E5
ENCODING 229
SWIDTH 553 0
DWIDTH 10 0
BBX 8 14 1 0
BITMAP
18
24
18
00
3C
42
81
01
1F
E1
81
83
83
7D
ENDCHAR
STARTCHAR 00E6
ENCODING 230
SWIDTH 941 0
DWIDTH 17 0
BBX 15 10 1 0
BITMAP
3C78
4284
8102
0102
3FFE
C100
8100
8302
8284
7C78
ENDCHAR
STARTCHAR 00E7
ENCODING 231
SWIDTH 553 0
DWIDTH 10 0
BBX 8 14 1 -4
BITMAP
3C
43
81
80
80
80
80
81
43
3C
10
18
08
18
ENDCHAR
STARTCHAR 00E8
ENCODING 232
SWIDTH 553 0
DWIDTH 10 0
BBX 9 14 1 0
BITMAP
1000
1000
0000
0000
3C00
4300
8100
8100
FF80
8000
8000
8100
4100
3E00
ENDCHAR
STARTCHAR 00E9
ENCODING 233
SWIDTH 553 0
DWIDTH 10 0
BBX 9 14 1 0
BITMAP
0400
0800
0800
0000
3C00
4300
8100
8100
FF80
8000
8000
8100
4100
3E00
ENDCHAR
STARTCHAR 00EA
ENCODING 234
SWIDTH 553 0
DWIDTH 10 0
BBX 9 14 1 0
BITMAP
0800
1400
2400
0000
3C00
4300
8100
8100
FF80
8000
8000
8100
4100
3E00
ENDCHAR
STARTCHAR 00EB
ENCODING 235
SWIDTH 553 0
DWIDTH 10 0
BBX 9 13 1 0
BITMAP
2400
0000
0000
3C00
4300
8100
8100
FF80
8000
8000
8100
4100
3E00
ENDCHAR
STARTCHAR 00EC
ENCODING 236
SWIDTH 221 0
DWIDTH 4 0
BBX 1 14 1 0
BITMAP
80
80
00
00
80
80
80
80
80
80
80
80
80
80
ENDCHAR
STARTCHAR 00ED
ENCODING 237
SWIDTH 221 0
DWIDTH 4 0
BBX 2 14 1 0
BITMAP
40
40
00
00
80
80
80
80
80
80
80
80
80
80
ENDCHAR
STARTCHAR 00EE
ENCODING 238
SWIDTH 221 0
DWIDTH 4 0
BBX 4 14 0 0
BITMAP
40
A0
10
00
40
40
40
40
40
40
40
40
40
40
ENDCHAR
STARTCHAR 00EF
ENCODING 239
SWIDTH 221 0
DWIDTH 4 0
BBX 4 13 0 0
BITMAP
90
00
00
40
40
40
40
40
40
40
40
40
40
ENDCHAR
STARTCHAR 00F0
ENCODING 240
SWIDTH 553 0
DWIDTH 10 0
BBX 9 14 1 0
BITMAP
0200
1C00
0600
0900
0100
3D00
4380
8180
8080
8080
8080
8100
4100
3E00
ENDCHAR
STARTCHAR 00F1
ENCODING 241
SWIDTH 553 0
DWIDTH 10 0
BBX 8 13 1 0
BITMAP
32
0C
00
BC
C2
81
81
81
81
81
81
81
81
ENDCHAR
STARTCHAR 00F2
ENCODING 242
SWIDTH 553 0
DWIDTH 10 0
BBX 9 14 1 0
BITMAP
1000
1000
0000
0000
3C00
4300
8100
8100
8080
8080
8100
8100
4300
3C00
ENDCHAR
STARTCHAR 00F3
ENCODING 243
SWIDTH 553 0
DWIDTH 10 0
BBX 9 13 1 1
BITMAP
0800
0800
0000
3C00
4300
8100
8100
8080
8080
8100
8100
4300
3C00
ENDCHAR
STARTCHAR 00F4
ENCODING 244
SWIDTH 553 0
DWIDTH 10 0
BBX 9 14 1 0
BITMAP
0800
1400
2400
0000
3C00
4300
8100
8100
8080
8080
8100
8100
4300
3C00
ENDCHAR
STARTCHAR 00F5
ENCODING 245
SWIDTH 553 0
DWIDTH 10 0
BBX 9 13 1 0
BITMAP
3200
0C00
0000
3C00
4300
8100
8100
8080
8080
8100
8100
4300
3C00
ENDCHAR
STARTCHAR 00F6
ENCODING 246
SWIDTH 553 0
DWIDTH 10 0
BBX 9 13 1 0
BITMAP
2400
0000
0000
3C00
4300
8100
8100
8080
8080
8100
8100
4300
3C00
ENDCHAR
STARTCHAR 00F7
ENCODING 247
SWIDTH 553 0
DWIDTH 10 0
BBX 8 5 1 4
BITMAP
10
00
FF
00
10
ENDCHAR
STARTCHAR 00F8
ENCODING 248
SWIDTH 553 0
DWIDTH 10 0
BBX 10 10 0 0
BITMAP
1E40
2180
4180
4240
4440
4840
5080
6080
6180
9E00
ENDCHAR
STARTCHAR 00F9
ENCODING 249
SWIDTH 553 0
DWIDTH 10 0
BBX 8 14 1 0
BITMAP
10
10
00
00
81
81
81
81
81
81
81
81
43
3D
ENDCHAR
STARTCHAR 00FA
ENCODING 250
SWIDTH 553 0
DWIDTH 10 0
BBX 8 14 1 0
BITMAP
08
08
00
00
81
81
81
81
81
81
81
81
43
3D
ENDCHAR
STARTCHAR 00FB
ENCODING 251
SWIDTH 553 0
DWIDTH 10 0
BBX 8 14 1 0
BITMAP
08
18
24
00
81
81
81
81
81
81
81
81
43
3D
ENDCHAR
STARTCHAR 00FC
ENCODING 252
SWIDTH 553 0
DWIDTH 10 0
BBX 8 13 1 0
BITMAP
24
00
00
81
81
81
81
81
81
81
81
43
3D
ENDCHAR
STARTCHAR 00FD
ENCODING 253
SWIDTH 498 0
DWIDTH 9 0
BBX 9 18 0 -4
BITMAP
0400
0800
0000
0000
8080
4100
4100
2200
2200
2200
1400
1400
0C00
0800
0800
0800
1000
1000
ENDCHAR
STARTCHAR 00FE
ENCODING 254
SWIDTH 553 0
DWIDTH 10 0
BBX 9 17 1 -4
BITMAP
8000
8000
8000
9E00
E100
C100
8080
8080
8080
8080
C100
C100
BE00
8000
8000
8000
8000
ENDCHAR
STARTCHAR 00FF
ENCODING 255
SWIDTH 498 0
DWIDTH 9 0
BBX 9 17 0 -4
BITMAP
3200
0000
0000
8080
4100
4100
2200
2200
2200
1400
1400
0C00
0800
0800
0800
1000
1000
ENDCHAR
ENDFONT
