STARTFONT 2.1
COMMENT
COMMENT Converted from OpenType font "manrope-extrabold.otf" by "otf2bdf 3.0".
COMMENT
FONT -FreeType-Manrope ExtraBold-Medium-R-Normal--12-90-100-100-P-64-ISO10646-1
SIZE 9 100 100
FONTBOUNDINGBOX 12 16 0 -3
STARTPROPERTIES 19
FOUNDRY "FreeType"
FAMILY_NAME "Manrope ExtraBold"
WEIGHT_NAME "Medium"
SLANT "R"
SETWIDTH_NAME "Normal"
ADD_STYLE_NAME ""
PIXEL_SIZE 12
POINT_SIZE 90
RESOLUTION_X 100
RESOLUTION_Y 100
SPACING "P"
AVERAGE_WIDTH 64
CHARSET_REGISTRY "ISO10646"
CHARSET_ENCODING "1"
FONT_ASCENT 13
FONT_DESCENT 3
COPYRIGHT "Copyright 2019-2021 The Manrope Project Authors (https://github.com/sharanda/manrope)"
_OTF_FONTFILE "manrope-extrabold.otf"
_OTF_PSNAME "Manrope-ExtraBold"
ENDPROPERTIES
CHARS 191
STARTCHAR 0020
ENCODING 32
SWIDTH 240 0
DWIDTH 3 0
BBX 0 0 0 0
BITMAP
ENDCHAR
STARTCHAR 0021
ENCODING 33
SWIDTH 400 0
DWIDTH 5 0
BBX 2 9 1 0
BITMAP
C0
C0
C0
C0
C0
C0
C0
C0
C0
ENDCHAR
STARTCHAR 0022
ENCODING 34
SWIDTH 480 0
DWIDTH 6 0
BBX 4 2 1 7
BITMAP
B0
B0
ENDCHAR
STARTCHAR 0023
ENCODING 35
SWIDTH 960 0
DWIDTH 12 0
BBX 10 9 1 0
BITMAP
0900
1B00
7FC0
7FC0
3600
FF80
FF80
2400
6C00
ENDCHAR
STARTCHAR 0024
ENCODING 36
SWIDTH 640 0
DWIDTH 8 0
BBX 7 11 1 -1
BITMAP
30
78
FC
C4
E0
7C
0C
86
EC
78
30
ENDCHAR
STARTCHAR 0025
ENCODING 37
SWIDTH 880 0
DWIDTH 11 0
BBX 9 9 1 0
BITMAP
6100
F380
9700
FE00
1C00
3B80
7680
E680
4380
ENDCHAR
STARTCHAR 0026
ENCODING 38
SWIDTH 640 0
DWIDTH 8 0
BBX 7 9 1 0
BITMAP
78
FC
C0
C0
E4
FC
9C
FE
7A
ENDCHAR
STARTCHAR 0027
ENCODING 39
SWIDTH 240 0
DWIDTH 3 0
BBX 1 2 1 7
BITMAP
80
80
ENDCHAR
STARTCHAR 0028
ENCODING 40
SWIDTH 480 0
DWIDTH 6 0
BBX 3 13 2 -2
BITMAP
20
60
40
C0
80
80
80
80
80
C0
C0
60
20
ENDCHAR
STARTCHAR 0029
ENCODING 41
SWIDTH 480 0
DWIDTH 6 0
BBX 3 13 1 -2
BITMAP
80
C0
40
60
60
60
60
60
60
60
40
C0
80
ENDCHAR
STARTCHAR 002A
ENCODING 42
SWIDTH 480 0
DWIDTH 6 0
BBX 4 5 1 4
BITMAP
40
F0
E0
F0
20
ENDCHAR
STARTCHAR 002B
ENCODING 43
SWIDTH 560 0
DWIDTH 7 0
BBX 5 5 1 2
BITMAP
20
20
F8
20
20
ENDCHAR
STARTCHAR 002C
ENCODING 44
SWIDTH 320 0
DWIDTH 4 0
BBX 1 4 1 -2
BITMAP
80
80
80
80
ENDCHAR
STARTCHAR 002D
ENCODING 45
SWIDTH 400 0
DWIDTH 5 0
BBX 4 1 1 3
BITMAP
F0
ENDCHAR
STARTCHAR 002E
ENCODING 46
SWIDTH 320 0
DWIDTH 4 0
BBX 2 2 1 0
BITMAP
C0
C0
ENDCHAR
STARTCHAR 002F
ENCODING 47
SWIDTH 480 0
DWIDTH 6 0
BBX 4 9 1 0
BITMAP
30
20
60
60
60
40
C0
C0
C0
ENDCHAR
STARTCHAR 0030
ENCODING 48
SWIDTH 640 0
DWIDTH 8 0
BBX 7 9 1 0
BITMAP
78
FC
C4
C6
C6
C6
C4
FC
78
ENDCHAR
STARTCHAR 0031
ENCODING 49
SWIDTH 480 0
DWIDTH 6 0
BBX 3 9 1 0
BITMAP
60
E0
60
60
60
60
60
60
60
ENDCHAR
STARTCHAR 0032
ENCODING 50
SWIDTH 640 0
DWIDTH 8 0
BBX 6 9 1 0
BITMAP
78
FC
8C
0C
1C
38
60
FC
FC
ENDCHAR
STARTCHAR 0033
ENCODING 51
SWIDTH 560 0
DWIDTH 7 0
BBX 6 9 1 0
BITMAP
F8
F8
38
70
38
0C
0C
F8
70
ENDCHAR
STARTCHAR 0034
ENCODING 52
SWIDTH 640 0
DWIDTH 8 0
BBX 6 9 1 0
BITMAP
30
30
60
60
C8
C8
FC
FC
08
ENDCHAR
STARTCHAR 0035
ENCODING 53
SWIDTH 560 0
DWIDTH 7 0
BBX 6 9 1 0
BITMAP
F8
F8
C0
F8
F8
0C
0C
F8
70
ENDCHAR
STARTCHAR 0036
ENCODING 54
SWIDTH 640 0
DWIDTH 8 0
BBX 6 9 1 0
BITMAP
78
F8
C0
C0
FC
CC
CC
FC
78
ENDCHAR
STARTCHAR 0037
ENCODING 55
SWIDTH 560 0
DWIDTH 7 0
BBX 6 9 0 0
BITMAP
FC
FC
0C
08
18
18
30
30
20
ENDCHAR
STARTCHAR 0038
ENCODING 56
SWIDTH 640 0
DWIDTH 8 0
BBX 6 9 1 0
BITMAP
78
FC
CC
FC
F8
CC
CC
FC
78
ENDCHAR
STARTCHAR 0039
ENCODING 57
SWIDTH 640 0
DWIDTH 8 0
BBX 6 9 1 0
BITMAP
78
F8
8C
CC
FC
2C
0C
78
70
ENDCHAR
STARTCHAR 003A
ENCODING 58
SWIDTH 320 0
DWIDTH 4 0
BBX 2 5 1 1
BITMAP
C0
C0
00
C0
C0
ENDCHAR
STARTCHAR 003B
ENCODING 59
SWIDTH 320 0
DWIDTH 4 0
BBX 2 9 1 -2
BITMAP
C0
C0
00
00
00
C0
C0
40
C0
ENDCHAR
STARTCHAR 003C
ENCODING 60
SWIDTH 640 0
DWIDTH 8 0
BBX 3 6 2 1
BITMAP
20
60
C0
C0
60
20
ENDCHAR
STARTCHAR 003D
ENCODING 61
SWIDTH 720 0
DWIDTH 9 0
BBX 7 3 1 3
BITMAP
FE
00
FE
ENDCHAR
STARTCHAR 003E
ENCODING 62
SWIDTH 640 0
DWIDTH 8 0
BBX 3 6 3 1
BITMAP
80
C0
60
60
C0
80
ENDCHAR
STARTCHAR 003F
ENCODING 63
SWIDTH 560 0
DWIDTH 7 0
BBX 5 9 1 0
BITMAP
70
F8
88
18
38
30
60
60
60
ENDCHAR
STARTCHAR 0040
ENCODING 64
SWIDTH 880 0
DWIDTH 11 0
BBX 9 9 1 -1
BITMAP
3E00
6300
DE80
B680
B280
B680
DF80
6000
3C00
ENDCHAR
STARTCHAR 0041
ENCODING 65
SWIDTH 720 0
DWIDTH 9 0
BBX 8 9 0 0
BITMAP
1C
1C
34
36
26
7E
7F
43
C3
ENDCHAR
STARTCHAR 0042
ENCODING 66
SWIDTH 640 0
DWIDTH 8 0
BBX 7 9 1 0
BITMAP
F8
FC
CC
FC
FC
C4
C6
FC
FC
ENDCHAR
STARTCHAR 0043
ENCODING 67
SWIDTH 720 0
DWIDTH 9 0
BBX 9 9 0 0
BITMAP
1E00
7F00
6180
C000
C000
C000
6180
7F00
1E00
ENDCHAR
STARTCHAR 0044
ENCODING 68
SWIDTH 720 0
DWIDTH 9 0
BBX 7 9 1 0
BITMAP
F8
FC
C6
C6
C6
C6
C6
FC
F8
ENDCHAR
STARTCHAR 0045
ENCODING 69
SWIDTH 560 0
DWIDTH 7 0
BBX 6 9 1 0
BITMAP
FC
FC
C0
F8
F8
C0
C0
FC
FC
ENDCHAR
STARTCHAR 0046
ENCODING 70
SWIDTH 560 0
DWIDTH 7 0
BBX 5 9 1 0
BITMAP
F8
F8
C0
F8
F8
C0
C0
C0
C0
ENDCHAR
STARTCHAR 0047
ENCODING 71
SWIDTH 720 0
DWIDTH 9 0
BBX 9 9 0 0
BITMAP
1E00
7F00
6180
C000
C380
C180
6180
7F00
1E00
ENDCHAR
STARTCHAR 0048
ENCODING 72
SWIDTH 720 0
DWIDTH 9 0
BBX 7 9 1 0
BITMAP
C2
C2
C2
FE
FE
C2
C2
C2
C2
ENDCHAR
STARTCHAR 0049
ENCODING 73
SWIDTH 320 0
DWIDTH 4 0
BBX 2 9 1 0
BITMAP
C0
C0
C0
C0
C0
C0
C0
C0
C0
ENDCHAR
STARTCHAR 004A
ENCODING 74
SWIDTH 480 0
DWIDTH 6 0
BBX 5 9 0 0
BITMAP
08
08
08
08
08
08
08
F8
70
ENDCHAR
STARTCHAR 004B
ENCODING 75
SWIDTH 640 0
DWIDTH 8 0
BBX 7 9 1 0
BITMAP
C6
CC
D8
F0
E0
F0
D8
CC
C6
ENDCHAR
STARTCHAR 004C
ENCODING 76
SWIDTH 560 0
DWIDTH 7 0
BBX 6 9 1 0
BITMAP
C0
C0
C0
C0
C0
C0
C0
FC
FC
ENDCHAR
STARTCHAR 004D
ENCODING 77
SWIDTH 880 0
DWIDTH 11 0
BBX 9 9 1 0
BITMAP
C180
C180
E380
E380
B780
B580
9D80
9980
8980
ENDCHAR
STARTCHAR 004E
ENCODING 78
SWIDTH 720 0
DWIDTH 9 0
BBX 7 9 1 0
BITMAP
C2
E2
E2
F2
DA
DA
CE
C6
C6
ENDCHAR
STARTCHAR 004F
ENCODING 79
SWIDTH 720 0
DWIDTH 9 0
BBX 9 9 0 0
BITMAP
1E00
7F00
6180
C180
C180
C180
6180
7F00
1E00
ENDCHAR
STARTCHAR 0050
ENCODING 80
SWIDTH 640 0
DWIDTH 8 0
BBX 7 9 1 0
BITMAP
FC
FC
C6
C6
FC
FC
C0
C0
C0
ENDCHAR
STARTCHAR 0051
ENCODING 81
SWIDTH 720 0
DWIDTH 9 0
BBX 9 9 0 0
BITMAP
1E00
7F00
6180
C180
C180
C180
6780
7F80
1F00
ENDCHAR
STARTCHAR 0052
ENCODING 82
SWIDTH 640 0
DWIDTH 8 0
BBX 7 9 1 0
BITMAP
FC
FC
C6
C6
FC
FC
CC
CC
C6
ENDCHAR
STARTCHAR 0053
ENCODING 83
SWIDTH 640 0
DWIDTH 8 0
BBX 7 9 1 0
BITMAP
78
FC
C6
E0
7C
0E
C6
FE
78
ENDCHAR
STARTCHAR 0054
ENCODING 84
SWIDTH 640 0
DWIDTH 8 0
BBX 8 9 0 0
BITMAP
FF
FF
18
18
18
18
18
18
18
ENDCHAR
STARTCHAR 0055
ENCODING 85
SWIDTH 720 0
DWIDTH 9 0
BBX 7 9 1 0
BITMAP
C6
C6
C6
C6
C6
C6
C6
FE
3C
ENDCHAR
STARTCHAR 0056
ENCODING 86
SWIDTH 640 0
DWIDTH 8 0
BBX 8 9 0 0
BITMAP
C3
43
62
66
66
24
3C
3C
18
ENDCHAR
STARTCHAR 0057
ENCODING 87
SWIDTH 960 0
DWIDTH 12 0
BBX 12 9 0 0
BITMAP
C630
4630
6730
6F60
6D60
29E0
39C0
39C0
18C0
ENDCHAR
STARTCHAR 0058
ENCODING 88
SWIDTH 640 0
DWIDTH 8 0
BBX 8 9 0 0
BITMAP
63
66
36
1C
18
3C
36
66
E3
ENDCHAR
STARTCHAR 0059
ENCODING 89
SWIDTH 640 0
DWIDTH 8 0
BBX 8 9 0 0
BITMAP
C3
66
6C
3C
18
18
18
18
18
ENDCHAR
STARTCHAR 005A
ENCODING 90
SWIDTH 720 0
DWIDTH 9 0
BBX 7 9 1 0
BITMAP
FE
FC
1C
18
30
30
60
FE
FE
ENDCHAR
STARTCHAR 005B
ENCODING 91
SWIDTH 400 0
DWIDTH 5 0
BBX 3 15 2 -3
BITMAP
E0
E0
80
80
80
80
80
80
80
80
80
80
80
E0
E0
ENDCHAR
STARTCHAR 005C
ENCODING 92
SWIDTH 480 0
DWIDTH 6 0
BBX 4 9 1 0
BITMAP
C0
C0
C0
40
60
60
60
20
30
ENDCHAR
STARTCHAR 005D
ENCODING 93
SWIDTH 400 0
DWIDTH 5 0
BBX 3 15 1 -3
BITMAP
E0
E0
60
60
60
60
60
60
60
60
60
60
60
E0
E0
ENDCHAR
STARTCHAR 005E
ENCODING 94
SWIDTH 720 0
DWIDTH 9 0
BBX 5 4 2 5
BITMAP
20
70
D8
88
ENDCHAR
STARTCHAR 005F
ENCODING 95
SWIDTH 640 0
DWIDTH 8 0
BBX 8 1 0 -1
BITMAP
FF
ENDCHAR
STARTCHAR 0060
ENCODING 96
SWIDTH 560 0
DWIDTH 7 0
BBX 2 2 2 10
BITMAP
C0
40
ENDCHAR
STARTCHAR 0061
ENCODING 97
SWIDTH 560 0
DWIDTH 7 0
BBX 6 7 1 0
BITMAP
78
F8
0C
FC
8C
9C
FC
ENDCHAR
STARTCHAR 0062
ENCODING 98
SWIDTH 640 0
DWIDTH 8 0
BBX 6 9 1 0
BITMAP
C0
C0
F8
FC
8C
8C
8C
FC
F8
ENDCHAR
STARTCHAR 0063
ENCODING 99
SWIDTH 560 0
DWIDTH 7 0
BBX 7 7 0 0
BITMAP
3C
7E
44
C0
40
7E
3C
ENDCHAR
STARTCHAR 0064
ENCODING 100
SWIDTH 640 0
DWIDTH 8 0
BBX 6 9 1 0
BITMAP
0C
0C
7C
FC
8C
8C
8C
FC
7C
ENDCHAR
STARTCHAR 0065
ENCODING 101
SWIDTH 640 0
DWIDTH 8 0
BBX 6 7 1 0
BITMAP
78
FC
8C
FC
80
FC
78
ENDCHAR
STARTCHAR 0066
ENCODING 102
SWIDTH 400 0
DWIDTH 5 0
BBX 5 9 0 0
BITMAP
38
60
F8
60
60
60
60
60
60
ENDCHAR
STARTCHAR 0067
ENCODING 103
SWIDTH 640 0
DWIDTH 8 0
BBX 7 10 0 -3
BITMAP
3E
7E
46
C6
46
7E
3E
06
7E
3C
ENDCHAR
STARTCHAR 0068
ENCODING 104
SWIDTH 640 0
DWIDTH 8 0
BBX 6 9 1 0
BITMAP
80
80
B8
FC
CC
CC
CC
CC
CC
ENDCHAR
STARTCHAR 0069
ENCODING 105
SWIDTH 320 0
DWIDTH 4 0
BBX 2 9 1 0
BITMAP
C0
C0
C0
C0
C0
C0
C0
C0
C0
ENDCHAR
STARTCHAR 006A
ENCODING 106
SWIDTH 320 0
DWIDTH 4 0
BBX 3 12 0 -3
BITMAP
60
60
60
60
60
60
60
60
60
60
E0
C0
ENDCHAR
STARTCHAR 006B
ENCODING 107
SWIDTH 560 0
DWIDTH 7 0
BBX 6 9 1 0
BITMAP
C0
C0
CC
D8
F0
F0
F0
D8
CC
ENDCHAR
STARTCHAR 006C
ENCODING 108
SWIDTH 320 0
DWIDTH 4 0
BBX 2 9 1 0
BITMAP
C0
C0
C0
C0
C0
C0
C0
C0
C0
ENDCHAR
STARTCHAR 006D
ENCODING 109
SWIDTH 880 0
DWIDTH 11 0
BBX 10 7 1 0
BITMAP
BB80
FFC0
CCC0
CCC0
CCC0
CCC0
CCC0
ENDCHAR
STARTCHAR 006E
ENCODING 110
SWIDTH 640 0
DWIDTH 8 0
BBX 6 7 1 0
BITMAP
B8
FC
CC
CC
CC
CC
CC
ENDCHAR
STARTCHAR 006F
ENCODING 111
SWIDTH 640 0
DWIDTH 8 0
BBX 7 7 0 0
BITMAP
3C
7E
46
C2
46
7E
3C
ENDCHAR
STARTCHAR 0070
ENCODING 112
SWIDTH 640 0
DWIDTH 8 0
BBX 6 10 1 -3
BITMAP
F8
FC
8C
8C
8C
FC
F8
C0
C0
C0
ENDCHAR
STARTCHAR 0071
ENCODING 113
SWIDTH 640 0
DWIDTH 8 0
BBX 7 10 0 -3
BITMAP
3E
7E
46
C6
46
7E
3E
06
06
06
ENDCHAR
STARTCHAR 0072
ENCODING 114
SWIDTH 400 0
DWIDTH 5 0
BBX 4 7 1 0
BITMAP
B0
F0
C0
C0
C0
C0
C0
ENDCHAR
STARTCHAR 0073
ENCODING 115
SWIDTH 560 0
DWIDTH 7 0
BBX 5 7 1 0
BITMAP
70
D8
C0
78
18
D8
70
ENDCHAR
STARTCHAR 0074
ENCODING 116
SWIDTH 480 0
DWIDTH 6 0
BBX 5 9 0 0
BITMAP
60
60
F8
60
60
60
60
70
38
ENDCHAR
STARTCHAR 0075
ENCODING 117
SWIDTH 640 0
DWIDTH 8 0
BBX 6 7 1 0
BITMAP
8C
8C
8C
8C
CC
FC
74
ENDCHAR
STARTCHAR 0076
ENCODING 118
SWIDTH 560 0
DWIDTH 7 0
BBX 7 7 0 0
BITMAP
C6
44
6C
6C
28
38
18
ENDCHAR
STARTCHAR 0077
ENCODING 119
SWIDTH 800 0
DWIDTH 10 0
BBX 10 7 0 0
BITMAP
CCC0
4C80
6E80
7F80
3380
3300
3300
ENDCHAR
STARTCHAR 0078
ENCODING 120
SWIDTH 560 0
DWIDTH 7 0
BBX 7 7 0 0
BITMAP
46
6C
38
18
38
6C
C6
ENDCHAR
STARTCHAR 0079
ENCODING 121
SWIDTH 560 0
DWIDTH 7 0
BBX 7 10 0 -3
BITMAP
C6
46
6C
2C
38
38
18
10
30
20
ENDCHAR
STARTCHAR 007A
ENCODING 122
SWIDTH 560 0
DWIDTH 7 0
BBX 6 7 0 0
BITMAP
7C
08
18
30
30
60
FC
ENDCHAR
STARTCHAR 007B
ENCODING 123
SWIDTH 480 0
DWIDTH 6 0
BBX 3 14 2 -3
BITMAP
60
60
C0
C0
C0
C0
C0
C0
C0
C0
C0
C0
60
20
ENDCHAR
STARTCHAR 007C
ENCODING 124
SWIDTH 320 0
DWIDTH 4 0
BBX 2 9 1 0
BITMAP
C0
C0
C0
C0
C0
C0
C0
C0
C0
ENDCHAR
STARTCHAR 007D
ENCODING 125
SWIDTH 480 0
DWIDTH 6 0
BBX 4 14 0 -3
BITMAP
E0
E0
20
20
20
20
30
30
20
20
20
20
E0
C0
ENDCHAR
STARTCHAR 007E
ENCODING 126
SWIDTH 720 0
DWIDTH 9 0
BBX 7 4 1 2
BITMAP
60
F6
DE
0C
ENDCHAR
STARTCHAR 00A0
ENCODING 160
SWIDTH 240 0
DWIDTH 3 0
BBX 0 0 0 0
BITMAP
ENDCHAR
STARTCHAR 00A1
ENCODING 161
SWIDTH 400 0
DWIDTH 5 0
BBX 2 9 1 -2
BITMAP
C0
C0
C0
C0
C0
C0
C0
C0
C0
ENDCHAR
STARTCHAR 00A2
ENCODING 162
SWIDTH 560 0
DWIDTH 7 0
BBX 6 9 1 0
BITMAP
30
70
FC
C8
80
80
CC
78
30
ENDCHAR
STARTCHAR 00A3
ENCODING 163
SWIDTH 560 0
DWIDTH 7 0
BBX 6 9 0 0
BITMAP
38
3C
64
60
F8
F8
60
FC
FC
ENDCHAR
STARTCHAR 00A4
ENCODING 164
SWIDTH 720 0
DWIDTH 9 0
BBX 8 9 0 0
BITMAP
40
FF
76
62
43
62
76
FF
40
ENDCHAR
STARTCHAR 00A5
ENCODING 165
SWIDTH 640 0
DWIDTH 8 0
BBX 8 9 0 0
BITMAP
C3
66
66
3C
38
7E
18
7E
18
ENDCHAR
STARTCHAR 00A6
ENCODING 166
SWIDTH 320 0
DWIDTH 4 0
BBX 2 12 1 -3
BITMAP
C0
C0
C0
C0
C0
00
00
C0
C0
C0
C0
C0
ENDCHAR
STARTCHAR 00A7
ENCODING 167
SWIDTH 560 0
DWIDTH 7 0
BBX 5 9 1 -1
BITMAP
F0
98
E0
F8
88
F8
38
D8
F8
ENDCHAR
STARTCHAR 00A8
ENCODING 168
SWIDTH 560 0
DWIDTH 7 0
BBX 5 2 1 10
BITMAP
D8
D8
ENDCHAR
STARTCHAR 00A9
ENCODING 169
SWIDTH 880 0
DWIDTH 11 0
BBX 11 11 0 -1
BITMAP
1F00
3F80
60C0
6F60
D960
D860
D960
4F60
60C0
3F80
1F00
ENDCHAR
STARTCHAR 00AA
ENCODING 170
SWIDTH 320 0
DWIDTH 4 0
BBX 3 4 1 3
BITMAP
C0
60
A0
E0
ENDCHAR
STARTCHAR 00AB
ENCODING 171
SWIDTH 640 0
DWIDTH 8 0
BBX 6 5 1 0
BITMAP
2C
48
D0
58
68
ENDCHAR
STARTCHAR 00AC
ENCODING 172
SWIDTH 640 0
DWIDTH 8 0
BBX 6 3 1 2
BITMAP
FC
0C
0C
ENDCHAR
STARTCHAR 00AD
ENCODING 173
SWIDTH 400 0
DWIDTH 5 0
BBX 4 1 1 3
BITMAP
F0
ENDCHAR
STARTCHAR 00AE
ENCODING 174
SWIDTH 640 0
DWIDTH 8 0
BBX 6 7 1 3
BITMAP
78
CC
B4
B4
B4
CC
78
ENDCHAR
STARTCHAR 00AF
ENCODING 175
SWIDTH 480 0
DWIDTH 6 0
BBX 4 1 1 11
BITMAP
F0
ENDCHAR
STARTCHAR 00B0
ENCODING 176
SWIDTH 480 0
DWIDTH 6 0
BBX 5 4 0 5
BITMAP
70
58
D8
70
ENDCHAR
STARTCHAR 00B1
ENCODING 177
SWIDTH 640 0
DWIDTH 8 0
BBX 6 6 1 1
BITMAP
20
20
FC
20
00
FC
ENDCHAR
STARTCHAR 00B2
ENCODING 178
SWIDTH 400 0
DWIDTH 5 0
BBX 4 6 1 3
BITMAP
E0
B0
30
60
C0
F0
ENDCHAR
STARTCHAR 00B3
ENCODING 179
SWIDTH 400 0
DWIDTH 5 0
BBX 3 6 1 3
BITMAP
E0
60
60
20
A0
E0
ENDCHAR
STARTCHAR 00B4
ENCODING 180
SWIDTH 560 0
DWIDTH 7 0
BBX 2 2 3 10
BITMAP
C0
80
ENDCHAR
STARTCHAR 00B5
ENCODING 181
SWIDTH 640 0
DWIDTH 8 0
BBX 6 10 1 -3
BITMAP
CC
CC
CC
CC
CC
FC
F4
80
80
80
ENDCHAR
STARTCHAR 00B6
ENCODING 182
SWIDTH 720 0
DWIDTH 9 0
BBX 8 11 1 -2
BITMAP
7B
FB
FB
FB
FB
7B
1B
1B
1B
1B
1B
ENDCHAR
STARTCHAR 00B7
ENCODING 183
SWIDTH 320 0
DWIDTH 4 0
BBX 2 2 1 3
BITMAP
C0
C0
ENDCHAR
STARTCHAR 00B8
ENCODING 184
SWIDTH 400 0
DWIDTH 5 0
BBX 2 3 2 -3
BITMAP
80
40
80
ENDCHAR
STARTCHAR 00B9
ENCODING 185
SWIDTH 320 0
DWIDTH 4 0
BBX 2 6 1 3
BITMAP
C0
40
40
40
40
40
ENDCHAR
STARTCHAR 00BA
ENCODING 186
SWIDTH 320 0
DWIDTH 4 0
BBX 4 4 0 3
BITMAP
60
90
90
60
ENDCHAR
STARTCHAR 00BB
ENCODING 187
SWIDTH 640 0
DWIDTH 8 0
BBX 5 5 1 0
BITMAP
90
D8
68
48
90
ENDCHAR
STARTCHAR 00BC
ENCODING 188
SWIDTH 1040 0
DWIDTH 13 0
BBX 11 9 1 0
BITMAP
C100
4100
4200
46C0
4C80
4980
1140
31E0
2040
ENDCHAR
STARTCHAR 00BD
ENCODING 189
SWIDTH 1040 0
DWIDTH 13 0
BBX 11 9 1 0
BITMAP
C100
4100
4200
46E0
4DA0
0820
1060
30C0
21E0
ENDCHAR
STARTCHAR 00BE
ENCODING 190
SWIDTH 1040 0
DWIDTH 13 0
BBX 11 9 1 0
BITMAP
E080
6180
6100
2240
A640
EC80
08A0
11E0
1020
ENDCHAR
STARTCHAR 00BF
ENCODING 191
SWIDTH 560 0
DWIDTH 7 0
BBX 5 10 1 -3
BITMAP
30
30
30
20
60
C0
80
C8
F8
20
ENDCHAR
STARTCHAR 00C0
ENCODING 192
SWIDTH 720 0
DWIDTH 9 0
BBX 8 12 0 0
BITMAP
10
10
00
1C
1C
34
36
26
7E
7F
43
C3
ENDCHAR
STARTCHAR 00C1
ENCODING 193
SWIDTH 720 0
DWIDTH 9 0
BBX 8 12 0 0
BITMAP
0C
08
00
1C
1C
34
36
26
7E
7F
43
C3
ENDCHAR
STARTCHAR 00C2
ENCODING 194
SWIDTH 720 0
DWIDTH 9 0
BBX 8 12 0 0
BITMAP
18
34
00
1C
1C
34
36
26
7E
7F
43
C3
ENDCHAR
STARTCHAR 00C3
ENCODING 195
SWIDTH 720 0
DWIDTH 9 0
BBX 8 12 0 0
BITMAP
3E
2C
00
1C
1C
34
36
26
7E
7F
43
C3
ENDCHAR
STARTCHAR 00C4
ENCODING 196
SWIDTH 720 0
DWIDTH 9 0
BBX 8 12 0 0
BITMAP
34
34
00
1C
1C
34
36
26
7E
7F
43
C3
ENDCHAR
STARTCHAR 00C5
ENCODING 197
SWIDTH 720 0
DWIDTH 9 0
BBX 8 13 0 0
BITMAP
18
14
1C
00
1C
1C
34
36
26
7E
7F
43
C3
ENDCHAR
STARTCHAR 00C6
ENCODING 198
SWIDTH 960 0
DWIDTH 12 0
BBX 11 9 0 0
BITMAP
1FE0
1FE0
3600
37C0
27C0
6600
7E00
47E0
C7E0
ENDCHAR
STARTCHAR 00C7
ENCODING 199
SWIDTH 720 0
DWIDTH 9 0
BBX 9 12 0 -3
BITMAP
1E00
7F00
6180
C000
C000
C000
6180
7F00
3E00
0800
0400
0C00
ENDCHAR
STARTCHAR 00C8
ENCODING 200
SWIDTH 560 0
DWIDTH 7 0
BBX 6 12 1 0
BITMAP
20
20
00
FC
FC
C0
F8
F8
C0
C0
FC
FC
ENDCHAR
STARTCHAR 00C9
ENCODING 201
SWIDTH 560 0
DWIDTH 7 0
BBX 6 12 1 0
BITMAP
10
10
00
FC
FC
C0
F8
F8
C0
C0
FC
FC
ENDCHAR
STARTCHAR 00CA
ENCODING 202
SWIDTH 560 0
DWIDTH 7 0
BBX 6 12 1 0
BITMAP
30
58
00
FC
FC
C0
F8
F8
C0
C0
FC
FC
ENDCHAR
STARTCHAR 00CB
ENCODING 203
SWIDTH 560 0
DWIDTH 7 0
BBX 6 12 1 0
BITMAP
58
58
00
FC
FC
C0
F8
F8
C0
C0
FC
FC
ENDCHAR
STARTCHAR 00CC
ENCODING 204
SWIDTH 320 0
DWIDTH 4 0
BBX 2 12 1 0
BITMAP
80
80
00
C0
C0
C0
C0
C0
C0
C0
C0
C0
ENDCHAR
STARTCHAR 00CD
ENCODING 205
SWIDTH 320 0
DWIDTH 4 0
BBX 2 12 1 0
BITMAP
40
C0
00
C0
C0
C0
C0
C0
C0
C0
C0
C0
ENDCHAR
STARTCHAR 00CE
ENCODING 206
SWIDTH 320 0
DWIDTH 4 0
BBX 4 12 0 0
BITMAP
60
B0
00
60
60
60
60
60
60
60
60
60
ENDCHAR
STARTCHAR 00CF
ENCODING 207
SWIDTH 320 0
DWIDTH 4 0
BBX 4 12 0 0
BITMAP
B0
B0
00
60
60
60
60
60
60
60
60
60
ENDCHAR
STARTCHAR 00D0
ENCODING 208
SWIDTH 720 0
DWIDTH 9 0
BBX 8 9 0 0
BITMAP
7C
7E
63
63
F3
63
63
7E
7C
ENDCHAR
STARTCHAR 00D1
ENCODING 209
SWIDTH 720 0
DWIDTH 9 0
BBX 7 12 1 0
BITMAP
74
4C
00
C2
E2
E2
F2
DA
DA
CE
C6
C6
ENDCHAR
STARTCHAR 00D2
ENCODING 210
SWIDTH 720 0
DWIDTH 9 0
BBX 9 12 0 0
BITMAP
1000
0800
0000
1E00
7F00
6180
C180
C180
C180
6180
7F00
1E00
ENDCHAR
STARTCHAR 00D3
ENCODING 211
SWIDTH 720 0
DWIDTH 9 0
BBX 9 12 0 0
BITMAP
0400
0C00
0000
1E00
7F00
6180
C180
C180
C180
6180
7F00
1E00
ENDCHAR
STARTCHAR 00D4
ENCODING 212
SWIDTH 720 0
DWIDTH 9 0
BBX 9 12 0 0
BITMAP
0C00
1600
0000
1E00
7F00
6180
C180
C180
C180
6180
7F00
1E00
ENDCHAR
STARTCHAR 00D5
ENCODING 213
SWIDTH 720 0
DWIDTH 9 0
BBX 9 12 0 0
BITMAP
1A00
1E00
0000
1E00
7F00
6180
C180
C180
C180
6180
7F00
1E00
ENDCHAR
STARTCHAR 00D6
ENCODING 214
SWIDTH 720 0
DWIDTH 9 0
BBX 9 12 0 0
BITMAP
1600
1600
0000
1E00
7F00
6180
C180
C180
C180
6180
7F00
1E00
ENDCHAR
STARTCHAR 00D7
ENCODING 215
SWIDTH 480 0
DWIDTH 6 0
BBX 4 5 1 2
BITMAP
90
F0
60
F0
90
ENDCHAR
STARTCHAR 00D8
ENCODING 216
SWIDTH 720 0
DWIDTH 9 0
BBX 9 9 0 0
BITMAP
1F00
7F80
6380
C780
CD80
D980
7180
7F00
5E00
ENDCHAR
STARTCHAR 00D9
ENCODING 217
SWIDTH 720 0
DWIDTH 9 0
BBX 7 12 1 0
BITMAP
30
10
00
C6
C6
C6
C6
C6
C6
C6
FE
3C
ENDCHAR
STARTCHAR 00DA
ENCODING 218
SWIDTH 720 0
DWIDTH 9 0
BBX 7 12 1 0
BITMAP
08
10
00
C6
C6
C6
C6
C6
C6
C6
FE
3C
ENDCHAR
STARTCHAR 00DB
ENCODING 219
SWIDTH 720 0
DWIDTH 9 0
BBX 7 12 1 0
BITMAP
38
2C
40
C6
C6
C6
C6
C6
C6
C6
FE
3C
ENDCHAR
STARTCHAR 00DC
ENCODING 220
SWIDTH 720 0
DWIDTH 9 0
BBX 7 12 1 0
BITMAP
6C
6C
00
C6
C6
C6
C6
C6
C6
C6
FE
3C
ENDCHAR
STARTCHAR 00DD
ENCODING 221
SWIDTH 640 0
DWIDTH 8 0
BBX 8 12 0 0
BITMAP
08
08
00
C3
66
6C
3C
18
18
18
18
18
ENDCHAR
STARTCHAR 00DE
ENCODING 222
SWIDTH 640 0
DWIDTH 8 0
BBX 7 9 1 0
BITMAP
C0
F0
FC
C4
C6
C4
FC
F0
C0
ENDCHAR
STARTCHAR 00DF
ENCODING 223
SWIDTH 640 0
DWIDTH 8 0
BBX 6 9 1 0
BITMAP
70
F8
CC
D8
DC
CC
C4
FC
F8
ENDCHAR
STARTCHAR 00E0
ENCODING 224
SWIDTH 560 0
DWIDTH 7 0
BBX 6 10 1 0
BITMAP
60
20
00
78
F8
0C
FC
8C
9C
FC
ENDCHAR
STARTCHAR 00E1
ENCODING 225
SWIDTH 560 0
DWIDTH 7 0
BBX 6 10 1 0
BITMAP
10
10
00
78
F8
0C
FC
8C
9C
FC
ENDCHAR
STARTCHAR 00E2
ENCODING 226
SWIDTH 560 0
DWIDTH 7 0
BBX 6 10 1 0
BITMAP
30
58
00
78
F8
0C
FC
8C
9C
FC
ENDCHAR
STARTCHAR 00E3
ENCODING 227
SWIDTH 560 0
DWIDTH 7 0
BBX 6 10 1 0
BITMAP
68
78
00
78
F8
0C
FC
CC
9C
FC
ENDCHAR
STARTCHAR 00E4
ENCODING 228
SWIDTH 560 0
DWIDTH 7 0
BBX 6 10 1 0
BITMAP
58
58
00
78
F8
0C
FC
8C
9C
FC
ENDCHAR
STARTCHAR 00E5
ENCODING 229
SWIDTH 560 0
DWIDTH 7 0
BBX 6 11 1 0
BITMAP
30
50
70
00
78
F8
0C
FC
8C
9C
FC
ENDCHAR
STARTCHAR 00E6
ENCODING 230
SWIDTH 960 0
DWIDTH 12 0
BBX 10 7 1 0
BITMAP
7F80
FFC0
0CC0
FFC0
8C00
9FC0
F780
ENDCHAR
STARTCHAR 00E7
ENCODING 231
SWIDTH 560 0
DWIDTH 7 0
BBX 7 10 0 -3
BITMAP
3C
7E
44
C0
40
7E
3C
18
08
18
ENDCHAR
STARTCHAR 00E8
ENCODING 232
SWIDTH 640 0
DWIDTH 8 0
BBX 6 10 1 0
BITMAP
20
20
00
78
FC
8C
FC
80
FC
78
ENDCHAR
STARTCHAR 00E9
ENCODING 233
SWIDTH 640 0
DWIDTH 8 0
BBX 6 10 1 0
BITMAP
10
10
00
78
FC
8C
FC
80
FC
78
ENDCHAR
STARTCHAR 00EA
ENCODING 234
SWIDTH 640 0
DWIDTH 8 0
BBX 6 10 1 0
BITMAP
30
58
00
78
FC
8C
FC
80
FC
78
ENDCHAR
STARTCHAR 00EB
ENCODING 235
SWIDTH 640 0
DWIDTH 8 0
BBX 6 10 1 0
BITMAP
58
58
00
78
FC
8C
FC
80
FC
78
ENDCHAR
STARTCHAR 00EC
ENCODING 236
SWIDTH 320 0
DWIDTH 4 0
BBX 2 10 1 0
BITMAP
80
80
00
C0
C0
C0
C0
C0
C0
C0
ENDCHAR
STARTCHAR 00ED
ENCODING 237
SWIDTH 320 0
DWIDTH 4 0
BBX 2 10 1 0
BITMAP
40
C0
00
C0
C0
C0
C0
C0
C0
C0
ENDCHAR
STARTCHAR 00EE
ENCODING 238
SWIDTH 320 0
DWIDTH 4 0
BBX 4 10 0 0
BITMAP
60
B0
00
60
60
60
60
60
60
60
ENDCHAR
STARTCHAR 00EF
ENCODING 239
SWIDTH 320 0
DWIDTH 4 0
BBX 4 10 0 0
BITMAP
B0
B0
00
60
60
60
60
60
60
60
ENDCHAR
STARTCHAR 00F0
ENCODING 240
SWIDTH 640 0
DWIDTH 8 0
BBX 6 9 1 1
BITMAP
38
38
0C
FC
CC
8C
8C
FC
78
ENDCHAR
STARTCHAR 00F1
ENCODING 241
SWIDTH 640 0
DWIDTH 8 0
BBX 6 10 1 0
BITMAP
68
58
00
B8
FC
CC
CC
CC
CC
CC
ENDCHAR
STARTCHAR 00F2
ENCODING 242
SWIDTH 640 0
DWIDTH 8 0
BBX 7 10 0 0
BITMAP
30
10
00
3C
7E
46
C2
46
7E
3C
ENDCHAR
STARTCHAR 00F3
ENCODING 243
SWIDTH 640 0
DWIDTH 8 0
BBX 7 10 0 0
BITMAP
08
08
00
3C
7E
46
C2
46
7E
3C
ENDCHAR
STARTCHAR 00F4
ENCODING 244
SWIDTH 640 0
DWIDTH 8 0
BBX 7 10 0 0
BITMAP
18
2C
00
3C
7E
46
C2
46
7E
3C
ENDCHAR
STARTCHAR 00F5
ENCODING 245
SWIDTH 640 0
DWIDTH 8 0
BBX 7 10 0 0
BITMAP
34
2C
00
3C
7E
46
C2
46
7E
3C
ENDCHAR
STARTCHAR 00F6
ENCODING 246
SWIDTH 640 0
DWIDTH 8 0
BBX 7 10 0 0
BITMAP
2C
2C
00
3C
7E
46
C2
46
7E
3C
ENDCHAR
STARTCHAR 00F7
ENCODING 247
SWIDTH 560 0
DWIDTH 7 0
BBX 5 7 1 1
BITMAP
20
20
00
F8
00
20
20
ENDCHAR
STARTCHAR 00F8
ENCODING 248
SWIDTH 640 0
DWIDTH 8 0
BBX 7 7 0 0
BITMAP
3E
7E
4E
DA
76
7E
7C
ENDCHAR
STARTCHAR 00F9
ENCODING 249
SWIDTH 640 0
DWIDTH 8 0
BBX 6 10 1 0
BITMAP
20
20
00
8C
8C
8C
8C
CC
FC
74
ENDCHAR
STARTCHAR 00FA
ENCODING 250
SWIDTH 640 0
DWIDTH 8 0
BBX 6 10 1 0
BITMAP
10
30
00
8C
8C
8C
8C
CC
FC
74
ENDCHAR
STARTCHAR 00FB
ENCODING 251
SWIDTH 640 0
DWIDTH 8 0
BBX 6 10 1 0
BITMAP
30
58
00
8C
8C
8C
8C
CC
FC
74
ENDCHAR
STARTCHAR 00FC
ENCODING 252
SWIDTH 640 0
DWIDTH 8 0
BBX 6 10 1 0
BITMAP
58
58
00
8C
8C
8C
8C
CC
FC
74
ENDCHAR
STARTCHAR 00FD
ENCODING 253
SWIDTH 560 0
DWIDTH 7 0
BBX 7 13 0 -3
BITMAP
08
18
00
C6
46
6C
2C
38
38
18
10
30
20
ENDCHAR
STARTCHAR 00FE
ENCODING 254
SWIDTH 640 0
DWIDTH 8 0
BBX 6 12 1 -3
BITMAP
C0
C0
F8
FC
8C
8C
8C
FC
F8
C0
C0
C0
ENDCHAR
STARTCHAR 00FF
ENCODING 255
SWIDTH 560 0
DWIDTH 7 0
BBX 7 13 0 -3
BITMAP
2C
2C
00
C6
46
6C
2C
38
38
18
10
30
20
ENDCHAR
ENDFONT
