STARTFONT 2.1
COMMENT
COMMENT Converted from OpenType font "manrope-extrabold.otf" by "otf2bdf 3.0".
COMMENT
FONT -FreeType-Manrope ExtraBold-Medium-R-Normal--24-170-100-100-P-117-ISO10646-1
SIZE 17 100 100
FONTBOUNDINGBOX 24 31 -1 -6
STARTPROPERTIES 19
FOUNDRY "FreeType"
FAMILY_NAME "Manrope ExtraBold"
WEIGHT_NAME "Medium"
SLANT "R"
SETWIDTH_NAME "Normal"
ADD_STYLE_NAME ""
PIXEL_SIZE 24
POINT_SIZE 170
RESOLUTION_X 100
RESOLUTION_Y 100
SPACING "P"
AVERAGE_WIDTH 117
CHARSET_REGISTRY "ISO10646"
CHARSET_ENCODING "1"
FONT_ASCENT 25
FONT_DESCENT 7
COPYRIGHT "Copyright 2019-2021 The Manrope Project Authors (https://github.com/sharanda/manrope)"
_OTF_FONTFILE "manrope-extrabold.otf"
_OTF_PSNAME "Manrope-ExtraBold"
ENDPROPERTIES
CHARS 191
STARTCHAR 0020
ENCODING 32
SWIDTH 211 0
DWIDTH 5 0
BBX 0 0 0 0
BITMAP
ENDCHAR
STARTCHAR 0021
ENCODING 33
SWIDTH 381 0
DWIDTH 9 0
BBX 3 17 3 0
BITMAP
E0
E0
E0
E0
E0
E0
E0
E0
E0
E0
E0
E0
E0
00
E0
E0
E0
ENDCHAR
STARTCHAR 0022
ENCODING 34
SWIDTH 508 0
DWIDTH 12 0
BBX 8 4 1 13
BITMAP
F7
F7
F7
F7
ENDCHAR
STARTCHAR 0023
ENCODING 35
SWIDTH 931 0
DWIDTH 22 0
BBX 19 16 2 1
BITMAP
01CF00
03CE00
038E00
038E00
3FFFE0
7FFFC0
7FFFC0
073C00
0F3800
FFFF80
FFFF80
FFFF80
1C7000
1C7000
1C7000
1CE000
ENDCHAR
STARTCHAR 0024
ENCODING 36
SWIDTH 635 0
DWIDTH 15 0
BBX 13 21 1 -2
BITMAP
0700
0700
1FC0
3FE0
7FF0
7078
7078
7000
7C00
7FC0
1FF0
07F8
0078
6038
F038
F878
7FF0
3FF0
0FC0
0700
0700
ENDCHAR
STARTCHAR 0025
ENCODING 37
SWIDTH 889 0
DWIDTH 21 0
BBX 19 17 1 0
BITMAP
1E0180
7F03C0
7F87C0
E38F80
E39F00
7FBE00
7F7C00
1EF800
01F000
03E780
07DFC0
0F9FE0
1F38E0
3E38E0
7C1FE0
381FC0
100780
ENDCHAR
STARTCHAR 0026
ENCODING 38
SWIDTH 677 0
DWIDTH 16 0
BBX 14 17 1 0
BITMAP
0F80
3FE0
3FE0
78F0
7000
7000
7800
3C00
7E38
7FB8
F7F8
E1F8
F0F8
F078
7FFC
3FFC
1F88
ENDCHAR
STARTCHAR 0027
ENCODING 39
SWIDTH 296 0
DWIDTH 7 0
BBX 4 4 1 13
BITMAP
F0
F0
F0
F0
ENDCHAR
STARTCHAR 0028
ENCODING 40
SWIDTH 465 0
DWIDTH 11 0
BBX 7 25 3 -5
BITMAP
08
1E
1C
3C
38
78
70
70
70
E0
E0
E0
E0
E0
E0
E0
70
70
70
38
38
3C
1E
0C
08
ENDCHAR
STARTCHAR 0029
ENCODING 41
SWIDTH 465 0
DWIDTH 11 0
BBX 7 25 1 -5
BITMAP
20
E0
70
78
38
38
1C
1C
1C
1C
0E
0E
0E
0E
0C
1C
1C
1C
1C
38
38
70
F0
60
20
ENDCHAR
STARTCHAR 002A
ENCODING 42
SWIDTH 465 0
DWIDTH 11 0
BBX 9 8 1 8
BITMAP
1C00
1C00
FB00
FF80
FF00
3E00
7F00
7600
ENDCHAR
STARTCHAR 002B
ENCODING 43
SWIDTH 550 0
DWIDTH 13 0
BBX 11 11 1 3
BITMAP
0E00
0E00
0E00
0E00
FFE0
FFE0
0E00
0E00
0E00
0E00
0E00
ENDCHAR
STARTCHAR 002C
ENCODING 44
SWIDTH 296 0
DWIDTH 7 0
BBX 4 6 1 -4
BITMAP
F0
F0
F0
30
20
E0
ENDCHAR
STARTCHAR 002D
ENCODING 45
SWIDTH 423 0
DWIDTH 10 0
BBX 8 2 1 6
BITMAP
FF
FF
ENDCHAR
STARTCHAR 002E
ENCODING 46
SWIDTH 338 0
DWIDTH 8 0
BBX 3 3 2 0
BITMAP
E0
E0
E0
ENDCHAR
STARTCHAR 002F
ENCODING 47
SWIDTH 465 0
DWIDTH 11 0
BBX 7 17 2 0
BITMAP
0E
0E
1C
1C
1C
3C
38
38
38
78
70
70
70
F0
E0
E0
E0
ENDCHAR
STARTCHAR 0030
ENCODING 48
SWIDTH 677 0
DWIDTH 16 0
BBX 12 17 2 0
BITMAP
1F80
3FC0
7FE0
F0F0
E070
E070
E070
E070
E070
E070
E070
E070
E070
F0F0
7FE0
3FC0
1F80
ENDCHAR
STARTCHAR 0031
ENCODING 49
SWIDTH 465 0
DWIDTH 11 0
BBX 7 17 1 0
BITMAP
1E
7E
FE
FE
CE
0E
0E
0E
0E
0E
0E
0E
0E
0E
0E
0E
0E
ENDCHAR
STARTCHAR 0032
ENCODING 50
SWIDTH 592 0
DWIDTH 14 0
BBX 12 17 1 0
BITMAP
0F80
3FC0
7FE0
F8F0
F070
E070
0070
00F0
01E0
03C0
0780
1F00
3E00
7C00
FFF0
FFF0
FFF0
ENDCHAR
STARTCHAR 0033
ENCODING 51
SWIDTH 592 0
DWIDTH 14 0
BBX 12 17 1 0
BITMAP
7FE0
7FE0
7FE0
01E0
03C0
0F80
1F00
1FC0
0FE0
01E0
00E0
00F0
60E0
F1E0
7FE0
3FC0
1F00
ENDCHAR
STARTCHAR 0034
ENCODING 52
SWIDTH 635 0
DWIDTH 15 0
BBX 12 17 1 0
BITMAP
0780
0700
0F00
0F00
1E00
1E00
3C00
3CE0
78E0
78E0
F0E0
FFF0
FFF0
FFF0
00E0
00E0
00E0
ENDCHAR
STARTCHAR 0035
ENCODING 53
SWIDTH 592 0
DWIDTH 14 0
BBX 12 17 1 0
BITMAP
7FE0
7FE0
7FE0
7000
7000
7000
7F80
7FC0
7FE0
10E0
00F0
00F0
20F0
F1E0
7FE0
3FC0
1F00
ENDCHAR
STARTCHAR 0036
ENCODING 54
SWIDTH 635 0
DWIDTH 15 0
BBX 11 17 2 0
BITMAP
1F80
3FC0
7F80
F000
E000
E000
EF00
FFC0
FFE0
F1E0
E0E0
E0E0
E0E0
F1E0
7FE0
3FC0
1F00
ENDCHAR
STARTCHAR 0037
ENCODING 55
SWIDTH 550 0
DWIDTH 13 0
BBX 11 17 1 0
BITMAP
FFE0
FFE0
FFE0
01C0
01C0
03C0
0380
0780
0700
0700
0F00
0E00
1E00
1C00
1C00
3C00
3800
ENDCHAR
STARTCHAR 0038
ENCODING 56
SWIDTH 635 0
DWIDTH 15 0
BBX 12 17 1 0
BITMAP
0F80
3FC0
7FE0
78F0
70F0
70F0
7FE0
3FE0
3FE0
7DF0
7070
F070
F070
78F0
7FE0
3FE0
0F80
ENDCHAR
STARTCHAR 0039
ENCODING 57
SWIDTH 635 0
DWIDTH 15 0
BBX 12 17 1 0
BITMAP
0F80
3FC0
7FE0
78F0
F0F0
E070
F070
F0F0
7FF0
3FF0
0F70
0070
00F0
11F0
3FE0
7FC0
1F80
ENDCHAR
STARTCHAR 003A
ENCODING 58
SWIDTH 338 0
DWIDTH 8 0
BBX 3 9 3 2
BITMAP
E0
E0
E0
00
00
00
E0
E0
E0
ENDCHAR
STARTCHAR 003B
ENCODING 59
SWIDTH 338 0
DWIDTH 8 0
BBX 3 16 3 -4
BITMAP
E0
E0
E0
00
00
00
00
00
00
00
E0
E0
E0
60
60
C0
ENDCHAR
STARTCHAR 003C
ENCODING 60
SWIDTH 635 0
DWIDTH 15 0
BBX 7 11 4 2
BITMAP
04
0E
1C
38
70
E0
F0
78
3C
1E
0C
ENDCHAR
STARTCHAR 003D
ENCODING 61
SWIDTH 762 0
DWIDTH 18 0
BBX 12 7 3 5
BITMAP
FFF0
FFF0
0000
0000
0000
FFF0
FFF0
ENDCHAR
STARTCHAR 003E
ENCODING 62
SWIDTH 635 0
DWIDTH 15 0
BBX 8 11 4 2
BITMAP
20
70
78
3C
1E
0F
1E
3C
78
F0
60
ENDCHAR
STARTCHAR 003F
ENCODING 63
SWIDTH 550 0
DWIDTH 13 0
BBX 11 17 1 0
BITMAP
1F00
3FC0
7FE0
F1E0
F0E0
00E0
01E0
03C0
0780
0F80
0F00
0E00
0000
0000
0E00
0E00
0E00
ENDCHAR
STARTCHAR 0040
ENCODING 64
SWIDTH 931 0
DWIDTH 22 0
BBX 18 17 2 -2
BITMAP
07F000
1FFC00
3FFF00
780700
73FB80
E7F980
EFF9C0
EE39C0
EE19C0
EE39C0
EFFF80
E7FF80
73EF00
700000
3C0000
1FF000
0FF000
ENDCHAR
STARTCHAR 0041
ENCODING 65
SWIDTH 677 0
DWIDTH 16 0
BBX 15 17 1 0
BITMAP
0FC0
0FC0
0FC0
0FE0
1CE0
1CE0
1CE0
3C70
3870
3870
7FF8
7FF8
7FF8
703C
E01C
E01C
E01E
ENDCHAR
STARTCHAR 0042
ENCODING 66
SWIDTH 635 0
DWIDTH 15 0
BBX 12 17 2 0
BITMAP
FF80
FFC0
FFE0
E0E0
E0F0
E0F0
E0E0
FFE0
FFC0
FFE0
E0F0
E070
E070
E0F0
FFF0
FFE0
FFC0
ENDCHAR
STARTCHAR 0043
ENCODING 67
SWIDTH 762 0
DWIDTH 18 0
BBX 15 17 1 0
BITMAP
07E0
1FF8
3FFC
7C3E
F00E
F00E
E000
E000
E000
E000
E000
F00E
F00E
7C3E
3FFC
1FF8
07E0
ENDCHAR
STARTCHAR 0044
ENCODING 68
SWIDTH 720 0
DWIDTH 17 0
BBX 14 17 2 0
BITMAP
FF80
FFE0
FFF0
E0F0
E078
E038
E038
E03C
E03C
E03C
E038
E038
E078
E0F0
FFF0
FFE0
FF80
ENDCHAR
STARTCHAR 0045
ENCODING 69
SWIDTH 592 0
DWIDTH 14 0
BBX 11 17 2 0
BITMAP
FFE0
FFE0
FFE0
E000
E000
E000
E000
FF80
FF80
FF80
E000
E000
E000
E000
FFE0
FFE0
FFE0
ENDCHAR
STARTCHAR 0046
ENCODING 70
SWIDTH 550 0
DWIDTH 13 0
BBX 10 17 2 0
BITMAP
FFC0
FFC0
FFC0
E000
E000
E000
E000
FF80
FF80
FF80
E000
E000
E000
E000
E000
E000
E000
ENDCHAR
STARTCHAR 0047
ENCODING 71
SWIDTH 762 0
DWIDTH 18 0
BBX 16 17 1 0
BITMAP
07E0
1FF8
3FFC
7C3E
F01E
F00E
E000
E000
E03F
E03F
E00F
F00E
F01E
7C3E
3FFC
1FF8
07E0
ENDCHAR
STARTCHAR 0048
ENCODING 72
SWIDTH 720 0
DWIDTH 17 0
BBX 14 17 2 0
BITMAP
E03C
E03C
E03C
E03C
E03C
E03C
E03C
FFFC
FFFC
FFFC
E03C
E03C
E03C
E03C
E03C
E03C
E03C
ENDCHAR
STARTCHAR 0049
ENCODING 73
SWIDTH 296 0
DWIDTH 7 0
BBX 3 17 2 0
BITMAP
E0
E0
E0
E0
E0
E0
E0
E0
E0
E0
E0
E0
E0
E0
E0
E0
E0
ENDCHAR
STARTCHAR 004A
ENCODING 74
SWIDTH 508 0
DWIDTH 12 0
BBX 10 17 0 0
BITMAP
01C0
01C0
01C0
01C0
01C0
01C0
01C0
01C0
01C0
01C0
01C0
01C0
01C0
F3C0
7FC0
7F80
1F00
ENDCHAR
STARTCHAR 004B
ENCODING 75
SWIDTH 677 0
DWIDTH 16 0
BBX 13 17 2 0
BITMAP
E078
E0F0
E1E0
E3C0
E380
E780
EF00
FE00
FC00
FE00
EF00
E780
E3C0
E1E0
E1F0
E0F0
E078
ENDCHAR
STARTCHAR 004C
ENCODING 76
SWIDTH 550 0
DWIDTH 13 0
BBX 10 17 2 0
BITMAP
E000
E000
E000
E000
E000
E000
E000
E000
E000
E000
E000
E000
E000
E000
FFC0
FFC0
FFC0
ENDCHAR
STARTCHAR 004D
ENCODING 77
SWIDTH 847 0
DWIDTH 20 0
BBX 17 17 2 0
BITMAP
E00380
E00780
F00780
F00F80
F80F80
F81F80
FC1F80
FC3B80
FE3B80
EE7380
EF7380
E7E380
E7E380
E3C380
E3C380
E18380
E18380
ENDCHAR
STARTCHAR 004E
ENCODING 78
SWIDTH 720 0
DWIDTH 17 0
BBX 14 17 2 0
BITMAP
E03C
F03C
F83C
F83C
FC3C
FE3C
FE3C
EF3C
E73C
E7BC
E3FC
E1FC
E1FC
E0FC
E07C
E07C
E03C
ENDCHAR
STARTCHAR 004F
ENCODING 79
SWIDTH 762 0
DWIDTH 18 0
BBX 16 17 1 0
BITMAP
07E0
1FF8
3FFC
7C3E
F00E
F00F
E007
E007
E007
E007
E007
F00F
F00E
7C3E
3FFC
1FF8
07E0
ENDCHAR
STARTCHAR 0050
ENCODING 80
SWIDTH 635 0
DWIDTH 15 0
BBX 13 17 2 0
BITMAP
FFC0
FFE0
FFF0
E0F0
E078
E078
E078
E070
FFF0
FFE0
FFC0
E000
E000
E000
E000
E000
E000
ENDCHAR
STARTCHAR 0051
ENCODING 81
SWIDTH 762 0
DWIDTH 18 0
BBX 16 17 1 0
BITMAP
07E0
1FF8
3FFC
7C3E
F00E
F00F
E007
E007
E007
E007
E007
F03F
F07E
7C3E
3FFE
1FFE
07E4
ENDCHAR
STARTCHAR 0052
ENCODING 82
SWIDTH 677 0
DWIDTH 16 0
BBX 13 17 2 0
BITMAP
FFC0
FFE0
FFF0
E0F0
E078
E078
E078
E070
FFF0
FFE0
FFC0
E1C0
E1E0
E0E0
E0F0
E070
E078
ENDCHAR
STARTCHAR 0053
ENCODING 83
SWIDTH 677 0
DWIDTH 16 0
BBX 14 17 1 0
BITMAP
0FC0
3FF0
7FF8
7878
703C
7000
7C00
7FC0
1FF0
03F8
007C
603C
F03C
787C
7FF8
3FF0
0FC0
ENDCHAR
STARTCHAR 0054
ENCODING 84
SWIDTH 592 0
DWIDTH 14 0
BBX 14 17 0 0
BITMAP
FFFC
FFFC
FFFC
0380
0380
0380
0380
0380
0380
0380
0380
0380
0380
0380
0380
0380
0380
ENDCHAR
STARTCHAR 0055
ENCODING 85
SWIDTH 720 0
DWIDTH 17 0
BBX 13 17 2 0
BITMAP
E038
E038
E038
E038
E038
E038
E038
E038
E038
E038
E038
E038
F038
F8F8
7FF0
3FE0
0F80
ENDCHAR
STARTCHAR 0056
ENCODING 86
SWIDTH 635 0
DWIDTH 15 0
BBX 15 17 0 0
BITMAP
F00E
700E
701E
781C
781C
383C
3838
3C38
1C78
1C70
1E70
0EF0
0EE0
0FE0
07E0
07E0
07C0
ENDCHAR
STARTCHAR 0057
ENCODING 87
SWIDTH 974 0
DWIDTH 23 0
BBX 23 17 0 0
BITMAP
F03C0E
703C1E
707C1C
787C1C
387E1C
38FE38
38EE38
3CEE38
1CE778
1DE770
1DC770
0FC7F0
0FC3E0
0F83E0
0F83E0
0781E0
0781C0
ENDCHAR
STARTCHAR 0058
ENCODING 88
SWIDTH 677 0
DWIDTH 16 0
BBX 14 17 1 0
BITMAP
F03C
F03C
7878
3CF0
3CF0
1FE0
0FC0
0FC0
0780
0FC0
0FC0
1FE0
3CF0
38F0
7878
F03C
F03C
ENDCHAR
STARTCHAR 0059
ENCODING 89
SWIDTH 635 0
DWIDTH 15 0
BBX 15 17 0 0
BITMAP
F01E
783C
7838
3C78
1C70
1EF0
0FE0
0FE0
07C0
0780
0380
0380
0380
0380
0380
0380
0380
ENDCHAR
STARTCHAR 005A
ENCODING 90
SWIDTH 677 0
DWIDTH 16 0
BBX 14 17 1 0
BITMAP
7FFC
7FF8
7FF8
00F0
01E0
01E0
03C0
03C0
0780
0F80
0F00
1E00
1E00
3C00
7FFC
7FFC
FFFC
ENDCHAR
STARTCHAR 005B
ENCODING 91
SWIDTH 423 0
DWIDTH 10 0
BBX 6 26 3 -5
BITMAP
FC
FC
FC
E0
E0
E0
E0
E0
E0
E0
E0
E0
E0
E0
E0
E0
E0
E0
E0
E0
E0
E0
E0
FC
FC
FC
ENDCHAR
STARTCHAR 005C
ENCODING 92
SWIDTH 465 0
DWIDTH 11 0
BBX 7 17 2 0
BITMAP
E0
E0
E0
F0
70
70
70
78
38
38
38
3C
1C
1C
1C
0E
0E
ENDCHAR
STARTCHAR 005D
ENCODING 93
SWIDTH 423 0
DWIDTH 10 0
BBX 6 26 1 -5
BITMAP
FC
FC
FC
1C
1C
1C
1C
1C
1C
1C
1C
1C
1C
1C
1C
1C
1C
1C
1C
1C
1C
1C
1C
FC
FC
FC
ENDCHAR
STARTCHAR 005E
ENCODING 94
SWIDTH 677 0
DWIDTH 16 0
BBX 11 8 3 9
BITMAP
0400
0E00
1F00
3F80
7BC0
F1E0
E0C0
4000
ENDCHAR
STARTCHAR 005F
ENCODING 95
SWIDTH 677 0
DWIDTH 16 0
BBX 16 2 0 -3
BITMAP
FFFF
FFFF
ENDCHAR
STARTCHAR 0060
ENCODING 96
SWIDTH 550 0
DWIDTH 13 0
BBX 4 5 4 19
BITMAP
C0
E0
60
60
30
ENDCHAR
STARTCHAR 0061
ENCODING 97
SWIDTH 592 0
DWIDTH 14 0
BBX 11 13 1 0
BITMAP
1F80
3FC0
7FE0
F0E0
00E0
1FE0
7FE0
F8E0
E0E0
E1E0
FFE0
7F60
3E60
ENDCHAR
STARTCHAR 0062
ENCODING 98
SWIDTH 635 0
DWIDTH 15 0
BBX 12 17 2 0
BITMAP
E000
E000
E000
E000
FF00
FFC0
FFE0
E1E0
E0F0
E0F0
C0F0
E0F0
E0F0
E1E0
FFE0
FFC0
DF00
ENDCHAR
STARTCHAR 0063
ENCODING 99
SWIDTH 592 0
DWIDTH 14 0
BBX 12 13 1 0
BITMAP
0F80
3FE0
7FE0
78F0
F060
E000
E000
E000
F040
78F0
7FE0
3FE0
0F80
ENDCHAR
STARTCHAR 0064
ENCODING 100
SWIDTH 635 0
DWIDTH 15 0
BBX 12 17 1 0
BITMAP
0070
0070
0070
0070
1F70
3FF0
7FF0
78F0
F070
E070
E070
E070
F070
F0F0
7FF0
3FF0
1F70
ENDCHAR
STARTCHAR 0065
ENCODING 101
SWIDTH 592 0
DWIDTH 14 0
BBX 12 13 1 0
BITMAP
0F80
3FE0
7FE0
70F0
F070
FFF0
FFF0
E000
F000
78F0
7FF0
3FE0
0F80
ENDCHAR
STARTCHAR 0066
ENCODING 102
SWIDTH 381 0
DWIDTH 9 0
BBX 8 17 1 0
BITMAP
1F
3F
3F
38
FF
FF
38
38
38
38
38
38
38
38
38
38
38
ENDCHAR
STARTCHAR 0067
ENCODING 103
SWIDTH 635 0
DWIDTH 15 0
BBX 12 19 1 -6
BITMAP
1F70
3FF0
7FF0
78F0
F070
E070
E070
E070
F070
70F0
7FF0
3FF0
1F70
0070
0070
38F0
7FF0
3FE0
0F80
ENDCHAR
STARTCHAR 0068
ENCODING 104
SWIDTH 635 0
DWIDTH 15 0
BBX 12 17 2 0
BITMAP
C000
C000
C000
C000
CF80
DFC0
FFE0
F1E0
E0F0
E0F0
E0F0
E0F0
E0F0
E0F0
E0F0
E0F0
E0F0
ENDCHAR
STARTCHAR 0069
ENCODING 105
SWIDTH 296 0
DWIDTH 7 0
BBX 3 17 2 0
BITMAP
E0
E0
E0
00
E0
E0
E0
E0
E0
E0
E0
E0
E0
E0
E0
E0
E0
ENDCHAR
STARTCHAR 006A
ENCODING 106
SWIDTH 296 0
DWIDTH 7 0
BBX 5 23 0 -6
BITMAP
38
38
38
00
38
38
38
38
38
38
38
38
38
38
38
38
38
38
38
38
F8
F8
F0
ENDCHAR
STARTCHAR 006B
ENCODING 107
SWIDTH 550 0
DWIDTH 13 0
BBX 11 17 2 0
BITMAP
E000
E000
E000
E000
E1E0
E3C0
E780
E780
EF00
FE00
FE00
FE00
EF00
E780
E3C0
E3C0
E1E0
ENDCHAR
STARTCHAR 006C
ENCODING 108
SWIDTH 296 0
DWIDTH 7 0
BBX 3 17 2 0
BITMAP
E0
E0
E0
E0
E0
E0
E0
E0
E0
E0
E0
E0
E0
E0
E0
E0
E0
ENDCHAR
STARTCHAR 006D
ENCODING 109
SWIDTH 931 0
DWIDTH 22 0
BBX 18 13 2 0
BITMAP
CF0F00
DFFF80
FFFFC0
F1E3C0
E1E1C0
E1E1C0
E1E1C0
E1E1C0
E1E1C0
E1E1C0
E1E1C0
E1E1C0
E1E1C0
ENDCHAR
STARTCHAR 006E
ENCODING 110
SWIDTH 635 0
DWIDTH 15 0
BBX 12 13 2 0
BITMAP
CF80
DFC0
FFE0
F1E0
E0F0
E0F0
E0F0
E0F0
E0F0
E0F0
E0F0
E0F0
E0F0
ENDCHAR
STARTCHAR 006F
ENCODING 111
SWIDTH 635 0
DWIDTH 15 0
BBX 13 13 1 0
BITMAP
0F80
3FE0
7FF0
78F0
F078
E078
E078
E078
F078
78F0
7FF0
3FE0
0F80
ENDCHAR
STARTCHAR 0070
ENCODING 112
SWIDTH 635 0
DWIDTH 15 0
BBX 12 18 2 -5
BITMAP
DF00
FFC0
FFE0
E1E0
E0F0
E0F0
C0F0
E0F0
E0E0
E1E0
FFE0
FFC0
FF00
E000
E000
E000
E000
E000
ENDCHAR
STARTCHAR 0071
ENCODING 113
SWIDTH 635 0
DWIDTH 15 0
BBX 12 18 1 -5
BITMAP
1F70
3FF0
7FF0
78F0
F070
E070
E070
E070
F070
70F0
7FF0
3FF0
1F70
0070
0070
0070
0070
0070
ENDCHAR
STARTCHAR 0072
ENCODING 114
SWIDTH 423 0
DWIDTH 10 0
BBX 7 13 2 0
BITMAP
CE
DE
FE
F0
E0
E0
E0
E0
E0
E0
E0
E0
E0
ENDCHAR
STARTCHAR 0073
ENCODING 115
SWIDTH 550 0
DWIDTH 13 0
BBX 11 13 1 0
BITMAP
1F00
7FC0
7FC0
F1E0
F000
7F00
3FC0
07E0
01E0
F0E0
FFE0
7FC0
1F00
ENDCHAR
STARTCHAR 0074
ENCODING 116
SWIDTH 423 0
DWIDTH 10 0
BBX 9 17 0 0
BITMAP
3C00
3C00
3C00
3C00
FF80
FF80
3C00
3C00
3C00
3C00
3C00
3C00
3C00
3C00
1F80
1F80
0F80
ENDCHAR
STARTCHAR 0075
ENCODING 117
SWIDTH 635 0
DWIDTH 15 0
BBX 12 13 1 0
BITMAP
F070
F070
F070
F070
F070
F070
F070
F070
F070
78F0
7FF0
3FB0
1F30
ENDCHAR
STARTCHAR 0076
ENCODING 118
SWIDTH 550 0
DWIDTH 13 0
BBX 12 13 1 0
BITMAP
E070
E0E0
F0E0
70E0
71C0
79C0
39C0
3B80
3F80
1F80
1F00
0F00
0E00
ENDCHAR
STARTCHAR 0077
ENCODING 119
SWIDTH 804 0
DWIDTH 19 0
BBX 18 13 1 0
BITMAP
E1C3C0
E1C380
E1E380
73E380
73E700
737700
7F7700
3F3F00
3E3E00
3E3E00
1E1E00
1C1C00
1C1C00
ENDCHAR
STARTCHAR 0078
ENCODING 120
SWIDTH 550 0
DWIDTH 13 0
BBX 12 13 1 0
BITMAP
E0F0
F1E0
79C0
3BC0
3F80
1F00
0F00
1F00
3F80
3BC0
79C0
F1E0
E0F0
ENDCHAR
STARTCHAR 0079
ENCODING 121
SWIDTH 550 0
DWIDTH 13 0
BBX 13 18 0 -5
BITMAP
F038
7038
7870
3870
3870
3CE0
1CE0
1DE0
0FC0
0FC0
0F80
0780
0780
0700
0700
0E00
0E00
0E00
ENDCHAR
STARTCHAR 007A
ENCODING 122
SWIDTH 550 0
DWIDTH 13 0
BBX 11 13 1 0
BITMAP
FFE0
FFC0
FF80
0780
0700
0E00
1E00
1C00
3C00
7800
7FC0
FFC0
FFC0
ENDCHAR
STARTCHAR 007B
ENCODING 123
SWIDTH 465 0
DWIDTH 11 0
BBX 7 26 3 -5
BITMAP
1E
3E
3E
38
38
38
38
38
38
38
38
78
F0
F0
78
38
38
38
38
38
38
38
38
3E
3E
1E
ENDCHAR
STARTCHAR 007C
ENCODING 124
SWIDTH 296 0
DWIDTH 7 0
BBX 3 17 2 0
BITMAP
E0
E0
E0
E0
E0
E0
E0
E0
E0
E0
E0
E0
E0
E0
E0
E0
E0
ENDCHAR
STARTCHAR 007D
ENCODING 125
SWIDTH 465 0
DWIDTH 11 0
BBX 6 26 1 -5
BITMAP
F0
F8
F8
38
38
38
38
38
38
38
38
3C
1C
1C
3C
38
38
38
38
38
38
38
38
F8
F8
F0
ENDCHAR
STARTCHAR 007E
ENCODING 126
SWIDTH 720 0
DWIDTH 17 0
BBX 12 5 3 5
BITMAP
7870
FE70
FFF0
E7E0
C3E0
ENDCHAR
STARTCHAR 00A0
ENCODING 160
SWIDTH 211 0
DWIDTH 5 0
BBX 0 0 0 0
BITMAP
ENDCHAR
STARTCHAR 00A1
ENCODING 161
SWIDTH 381 0
DWIDTH 9 0
BBX 3 17 3 -4
BITMAP
E0
E0
E0
00
E0
E0
E0
E0
E0
E0
E0
E0
E0
E0
E0
E0
E0
ENDCHAR
STARTCHAR 00A2
ENCODING 162
SWIDTH 592 0
DWIDTH 14 0
BBX 12 18 1 -1
BITMAP
0700
0700
0F80
3FC0
7FE0
78F0
F070
E000
E000
E000
F000
F0F0
7DF0
7FE0
1FC0
0700
0700
0700
ENDCHAR
STARTCHAR 00A3
ENCODING 163
SWIDTH 550 0
DWIDTH 13 0
BBX 11 17 1 0
BITMAP
0F80
1FC0
3FE0
38E0
38E0
3800
3800
FF00
FF00
FF00
3800
3800
3800
7800
FFC0
FFC0
FFC0
ENDCHAR
STARTCHAR 00A4
ENCODING 164
SWIDTH 677 0
DWIDTH 16 0
BBX 14 15 1 1
BITMAP
0008
671C
FFFC
7FF8
3870
7038
7038
7018
7038
7038
3870
7FF8
FFFC
E39C
4008
ENDCHAR
STARTCHAR 00A5
ENCODING 165
SWIDTH 635 0
DWIDTH 15 0
BBX 15 17 0 0
BITMAP
F01E
783C
7838
3C78
1C70
1EF0
0FE0
0FE0
07C0
3FF0
3FF0
0380
0380
3FF0
3FF0
0380
0380
ENDCHAR
STARTCHAR 00A6
ENCODING 166
SWIDTH 296 0
DWIDTH 7 0
BBX 3 22 2 -5
BITMAP
E0
E0
E0
E0
E0
E0
E0
E0
E0
E0
00
00
E0
E0
E0
E0
E0
E0
E0
E0
E0
E0
ENDCHAR
STARTCHAR 00A7
ENCODING 167
SWIDTH 550 0
DWIDTH 13 0
BBX 11 19 1 -3
BITMAP
1E00
7F80
7FC0
F3C0
F100
7C00
7F80
7FC0
F3E0
E0E0
F9E0
7FC0
3FC0
07E0
31E0
F1E0
7FC0
7FC0
1F00
ENDCHAR
STARTCHAR 00A8
ENCODING 168
SWIDTH 592 0
DWIDTH 14 0
BBX 8 3 3 19
BITMAP
E7
E7
E7
ENDCHAR
STARTCHAR 00A9
ENCODING 169
SWIDTH 931 0
DWIDTH 22 0
BBX 20 21 1 -2
BITMAP
01F800
07FE00
1FFF00
3E0F80
3C03C0
7801E0
71F8E0
E3FCE0
E39C70
E70070
E70070
E70070
E39C70
E3FCE0
F1F8E0
7801E0
3C03C0
3E0F80
1FFF00
07FE00
01F800
ENDCHAR
STARTCHAR 00AA
ENCODING 170
SWIDTH 338 0
DWIDTH 8 0
BBX 6 7 1 6
BITMAP
78
FC
1C
FC
CC
DC
7C
ENDCHAR
STARTCHAR 00AB
ENCODING 171
SWIDTH 592 0
DWIDTH 14 0
BBX 11 10 2 2
BITMAP
18C0
38C0
3180
7380
E700
E300
7380
39C0
1CE0
0840
ENDCHAR
STARTCHAR 00AC
ENCODING 172
SWIDTH 592 0
DWIDTH 14 0
BBX 12 5 1 4
BITMAP
FFF0
FFF0
0070
0070
0070
ENDCHAR
STARTCHAR 00AD
ENCODING 173
SWIDTH 423 0
DWIDTH 10 0
BBX 8 2 1 6
BITMAP
FF
FF
ENDCHAR
STARTCHAR 00AE
ENCODING 174
SWIDTH 677 0
DWIDTH 16 0
BBX 12 13 2 6
BITMAP
0F00
3FC0
71E0
E060
CF70
C930
CF30
CB30
C970
E060
71E0
3FC0
1F00
ENDCHAR
STARTCHAR 00AF
ENCODING 175
SWIDTH 508 0
DWIDTH 12 0
BBX 6 2 3 20
BITMAP
FC
FC
ENDCHAR
STARTCHAR 00B0
ENCODING 176
SWIDTH 465 0
DWIDTH 11 0
BBX 8 9 1 8
BITMAP
3C
7E
FF
E7
C7
E7
FF
7E
18
ENDCHAR
STARTCHAR 00B1
ENCODING 177
SWIDTH 592 0
DWIDTH 14 0
BBX 12 11 1 2
BITMAP
0600
0600
0600
FFF0
FFF0
0600
0600
0600
0000
FFF0
FFF0
ENDCHAR
STARTCHAR 00B2
ENCODING 178
SWIDTH 423 0
DWIDTH 10 0
BBX 8 11 1 6
BITMAP
3C
7E
E6
C3
07
0E
1C
38
70
FF
FF
ENDCHAR
STARTCHAR 00B3
ENCODING 179
SWIDTH 423 0
DWIDTH 10 0
BBX 7 11 1 6
BITMAP
FE
FE
0C
18
3C
3E
06
06
C6
7C
38
ENDCHAR
STARTCHAR 00B4
ENCODING 180
SWIDTH 550 0
DWIDTH 13 0
BBX 4 5 5 19
BITMAP
30
70
60
60
E0
ENDCHAR
STARTCHAR 00B5
ENCODING 181
SWIDTH 635 0
DWIDTH 15 0
BBX 12 19 2 -6
BITMAP
E0F0
E0F0
E0F0
E0F0
E0F0
E0F0
E0F0
E0F0
E0F0
F1F0
FFF0
FFF0
FE70
C000
C000
C000
C000
C000
C000
ENDCHAR
STARTCHAR 00B6
ENCODING 182
SWIDTH 762 0
DWIDTH 18 0
BBX 16 20 1 -3
BITMAP
1FCF
7FCF
7FCF
FFCF
FFCF
FFCF
FFCF
FFCF
7FCF
7FCF
3FCF
01CF
01CF
01CF
01CF
01CF
01CF
01CF
01CF
01CF
ENDCHAR
STARTCHAR 00B7
ENCODING 183
SWIDTH 296 0
DWIDTH 7 0
BBX 4 4 1 5
BITMAP
70
F0
F0
60
ENDCHAR
STARTCHAR 00B8
ENCODING 184
SWIDTH 423 0
DWIDTH 10 0
BBX 4 6 3 -6
BITMAP
60
60
70
30
F0
E0
ENDCHAR
STARTCHAR 00B9
ENCODING 185
SWIDTH 338 0
DWIDTH 8 0
BBX 4 11 1 6
BITMAP
30
F0
F0
30
30
30
30
30
30
30
30
ENDCHAR
STARTCHAR 00BA
ENCODING 186
SWIDTH 338 0
DWIDTH 8 0
BBX 6 7 1 6
BITMAP
78
FC
C4
C4
CC
7C
10
ENDCHAR
STARTCHAR 00BB
ENCODING 187
SWIDTH 592 0
DWIDTH 14 0
BBX 10 10 2 2
BITMAP
C600
E700
7380
3180
39C0
39C0
7380
E700
C600
8200
ENDCHAR
STARTCHAR 00BC
ENCODING 188
SWIDTH 1058 0
DWIDTH 25 0
BBX 21 17 1 0
BITMAP
300100
F00380
F00700
300600
300E00
301C00
303860
3038E0
3070C0
30E1C0
00C180
01C3B0
038330
0707F8
0707F8
0E0030
040030
ENDCHAR
STARTCHAR 00BD
ENCODING 189
SWIDTH 1058 0
DWIDTH 25 0
BBX 22 17 1 0
BITMAP
300100
F00380
F00700
300600
300E00
301C00
301870
3038FC
30718C
30E18C
30C00C
01C01C
038038
070070
0700E0
0E01FC
0401FC
ENDCHAR
STARTCHAR 00BE
ENCODING 190
SWIDTH 1058 0
DWIDTH 25 0
BBX 22 17 1 0
BITMAP
FE0080
FE00C0
0C01C0
180380
3C0700
3E0600
060E30
061C70
C63860
7C38E0
3870C0
00E1D8
01C198
01C1FC
0381FC
070018
020018
ENDCHAR
STARTCHAR 00BF
ENCODING 191
SWIDTH 550 0
DWIDTH 13 0
BBX 11 18 1 -5
BITMAP
0F00
0F00
0F00
0000
0000
0F00
0E00
1E00
3E00
7C00
7800
F000
F000
F0E0
F1E0
7FC0
3FC0
1F00
ENDCHAR
STARTCHAR 00C0
ENCODING 192
SWIDTH 677 0
DWIDTH 16 0
BBX 15 23 1 0
BITMAP
0C00
0E00
0600
0700
0000
0000
0FC0
0FC0
0FC0
0FE0
1EE0
1CE0
1CE0
3C70
3870
3870
7FF8
7FF8
7FF8
703C
E01C
E01C
E01E
ENDCHAR
STARTCHAR 00C1
ENCODING 193
SWIDTH 677 0
DWIDTH 16 0
BBX 15 23 1 0
BITMAP
00C0
01C0
0180
0180
0000
0000
0FC0
0FC0
0FC0
0FE0
1CE0
1CE0
1CE0
3C70
3870
3870
7FF8
7FF8
7FF8
703C
E01C
E01C
E01E
ENDCHAR
STARTCHAR 00C2
ENCODING 194
SWIDTH 677 0
DWIDTH 16 0
BBX 15 23 1 0
BITMAP
0780
0FC0
0EC0
1CE0
0000
0000
0FC0
0FC0
0FC0
0FE0
1CE0
1CE0
1CE0
3C70
3870
3870
7FF8
7FF8
7FF8
703C
E01C
E01C
E01E
ENDCHAR
STARTCHAR 00C3
ENCODING 195
SWIDTH 677 0
DWIDTH 16 0
BBX 15 23 1 0
BITMAP
1E60
1FE0
19E0
0000
0000
0000
0FC0
0FC0
0FC0
0FE0
1CE0
1CE0
1CE0
3C70
3870
3870
7FF8
7FF8
7FF8
703C
E01C
E01C
E01E
ENDCHAR
STARTCHAR 00C4
ENCODING 196
SWIDTH 677 0
DWIDTH 16 0
BBX 15 22 1 0
BITMAP
1CE0
1CE0
1CE0
0000
0000
0FC0
0FC0
0FC0
0FE0
1CE0
1CE0
1CE0
3C70
3870
3870
7FF8
7FF8
7FF8
703C
E01C
E01C
E01E
ENDCHAR
STARTCHAR 00C5
ENCODING 197
SWIDTH 677 0
DWIDTH 16 0
BBX 15 25 1 0
BITMAP
0380
0FC0
0CC0
0CC0
0CC0
0FC0
0380
0000
0FC0
0FC0
0FC0
0FE0
1CE0
1CE0
1CE0
3C70
3870
3870
7FF8
7FF8
7FF8
703C
E01C
E01C
E01E
ENDCHAR
STARTCHAR 00C6
ENCODING 198
SWIDTH 931 0
DWIDTH 22 0
BBX 20 17 1 0
BITMAP
0FFFF0
0FFFF0
0FFFF0
0E7000
1E7000
1C7000
1C7FE0
3C7FE0
387FE0
387000
7FF000
7FF000
7FF000
707000
E07FF0
E07FF0
E07FF0
ENDCHAR
STARTCHAR 00C7
ENCODING 199
SWIDTH 762 0
DWIDTH 18 0
BBX 15 22 1 -5
BITMAP
07E0
1FF8
3FFC
7C3E
F01E
F00E
E000
E000
E000
E000
E000
F00C
F00E
781E
3FFC
1FF8
07E0
0180
01C0
00C0
03C0
0380
ENDCHAR
STARTCHAR 00C8
ENCODING 200
SWIDTH 592 0
DWIDTH 14 0
BBX 11 23 2 0
BITMAP
1800
1800
1C00
0C00
0000
0000
FFE0
FFE0
FFE0
E000
E000
E000
E000
FF80
FF80
FF80
E000
E000
E000
E000
FFE0
FFE0
FFE0
ENDCHAR
STARTCHAR 00C9
ENCODING 201
SWIDTH 592 0
DWIDTH 14 0
BBX 11 23 2 0
BITMAP
0300
0700
0600
0600
0000
0000
FFE0
FFE0
FFE0
E000
E000
E000
E000
FF80
FF80
FF80
E000
E000
E000
E000
FFE0
FFE0
FFE0
ENDCHAR
STARTCHAR 00CA
ENCODING 202
SWIDTH 592 0
DWIDTH 14 0
BBX 11 23 2 0
BITMAP
1E00
3F00
3B00
7380
0000
0000
FFE0
FFE0
FFE0
E000
E000
E000
E000
FF80
FF80
FF80
E000
E000
E000
E000
FFE0
FFE0
FFE0
ENDCHAR
STARTCHAR 00CB
ENCODING 203
SWIDTH 592 0
DWIDTH 14 0
BBX 11 22 2 0
BITMAP
7380
7380
7380
0000
0000
FFE0
FFE0
FFE0
E000
E000
E000
E000
FF80
FF80
FF80
E000
E000
E000
E000
FFE0
FFE0
FFE0
ENDCHAR
STARTCHAR 00CC
ENCODING 204
SWIDTH 296 0
DWIDTH 7 0
BBX 5 24 0 0
BITMAP
E0
60
70
30
30
00
00
38
38
38
38
38
38
38
38
38
38
38
38
38
38
38
38
38
ENDCHAR
STARTCHAR 00CD
ENCODING 205
SWIDTH 296 0
DWIDTH 7 0
BBX 5 24 2 0
BITMAP
38
30
70
60
60
00
00
E0
E0
E0
E0
E0
E0
E0
E0
E0
E0
E0
E0
E0
E0
E0
E0
E0
ENDCHAR
STARTCHAR 00CE
ENCODING 206
SWIDTH 296 0
DWIDTH 7 0
BBX 9 23 -1 0
BITMAP
1C00
3E00
7700
E380
0000
0000
1C00
1C00
1C00
1C00
1C00
1C00
1C00
1C00
1C00
1C00
1C00
1C00
1C00
1C00
1C00
1C00
1C00
ENDCHAR
STARTCHAR 00CF
ENCODING 207
SWIDTH 296 0
DWIDTH 7 0
BBX 7 22 0 0
BITMAP
C6
C6
C6
00
00
38
38
38
38
38
38
38
38
38
38
38
38
38
38
38
38
38
ENDCHAR
STARTCHAR 00D0
ENCODING 208
SWIDTH 720 0
DWIDTH 17 0
BBX 16 17 0 0
BITMAP
3FE0
3FF8
3FFC
383C
381E
380E
380F
FF0F
FF0F
380F
380E
380E
381E
383C
3FFC
3FF8
3FE0
ENDCHAR
STARTCHAR 00D1
ENCODING 209
SWIDTH 720 0
DWIDTH 17 0
BBX 14 23 2 0
BITMAP
1C00
1F60
3FE0
19E0
0000
0000
E03C
F03C
F83C
F83C
FC3C
FE3C
FE3C
EF3C
E73C
E7BC
E3FC
E1FC
E1FC
E0FC
E07C
E07C
E03C
ENDCHAR
STARTCHAR 00D2
ENCODING 210
SWIDTH 762 0
DWIDTH 18 0
BBX 16 23 1 0
BITMAP
0600
0600
0300
0300
0380
0000
07E0
1FF8
3FFC
7C3E
F00E
F00F
E007
E007
E007
E007
E007
F00F
F00E
7C3E
3FFC
1FF8
07E0
ENDCHAR
STARTCHAR 00D3
ENCODING 211
SWIDTH 762 0
DWIDTH 18 0
BBX 16 23 1 0
BITMAP
0060
00E0
00C0
01C0
0180
0000
07E0
1FF8
3FFC
7C3E
F00E
F00F
E007
E007
E007
E007
E007
F00F
F00E
7C3E
3FFC
1FF8
07E0
ENDCHAR
STARTCHAR 00D4
ENCODING 212
SWIDTH 762 0
DWIDTH 18 0
BBX 16 22 1 0
BITMAP
03C0
07E0
0EE0
0C70
0000
07E0
1FF8
3FFC
7C3E
F00E
F00F
E007
E007
E007
E007
E007
F00F
F00E
7C3E
3FFC
1FF8
07E0
ENDCHAR
STARTCHAR 00D5
ENCODING 213
SWIDTH 762 0
DWIDTH 18 0
BBX 16 22 1 0
BITMAP
0F30
0FF0
0CF0
0000
0000
07E0
1FF8
3FFC
7C3E
F00E
F00F
E007
E007
E007
E007
E007
F00F
F00E
7C3E
3FFC
1FF8
07E0
ENDCHAR
STARTCHAR 00D6
ENCODING 214
SWIDTH 762 0
DWIDTH 18 0
BBX 16 21 1 0
BITMAP
0E70
0E70
0E70
0000
07E0
1FF8
3FFC
7C3E
F00E
F00F
E007
E007
E007
E007
E007
F00F
F00E
7C3E
3FFC
1FF8
07E0
ENDCHAR
STARTCHAR 00D7
ENCODING 215
SWIDTH 508 0
DWIDTH 12 0
BBX 10 9 1 4
BITMAP
6180
F3C0
7F80
3F00
1E00
3F00
7F80
7380
2100
ENDCHAR
STARTCHAR 00D8
ENCODING 216
SWIDTH 762 0
DWIDTH 18 0
BBX 16 17 1 0
BITMAP
07E6
1FFF
3FFF
7C3E
F03E
F07F
E0F7
E1E7
E3C7
E787
EF07
FE0F
FC0E
7C3E
7FFC
7FF8
27E0
ENDCHAR
STARTCHAR 00D9
ENCODING 217
SWIDTH 720 0
DWIDTH 17 0
BBX 13 23 2 0
BITMAP
0C00
0E00
0600
0700
0000
0000
E038
E038
E038
E038
E038
E038
E038
E038
E038
E038
E038
E038
F038
F8F8
7FF0
3FE0
0F80
ENDCHAR
STARTCHAR 00DA
ENCODING 218
SWIDTH 720 0
DWIDTH 17 0
BBX 13 23 2 0
BITMAP
0180
0180
0300
0300
0000
0000
E038
E038
E038
E038
E038
E038
E038
E038
E038
E038
E038
E038
F038
F8F8
7FF0
3FE0
0F80
ENDCHAR
STARTCHAR 00DB
ENCODING 219
SWIDTH 720 0
DWIDTH 17 0
BBX 13 23 2 0
BITMAP
0700
0F80
1DC0
38E0
0000
0000
E038
E038
E038
E038
E038
E038
E038
E038
E038
E038
E038
E038
F038
F8F8
7FF0
3FE0
0F80
ENDCHAR
STARTCHAR 00DC
ENCODING 220
SWIDTH 720 0
DWIDTH 17 0
BBX 13 22 2 0
BITMAP
18C0
18C0
18C0
0000
0000
E038
E038
E038
E038
E038
E038
E038
E038
E038
E038
E038
E038
F038
F8F8
7FF0
3FE0
0F80
ENDCHAR
STARTCHAR 00DD
ENCODING 221
SWIDTH 635 0
DWIDTH 15 0
BBX 15 23 0 0
BITMAP
00C0
01C0
0180
0180
0000
0000
F01E
783C
7838
3C78
1C70
1EF0
0FE0
0FE0
07C0
0780
0380
0380
0380
0380
0380
0380
0380
ENDCHAR
STARTCHAR 00DE
ENCODING 222
SWIDTH 635 0
DWIDTH 15 0
BBX 12 17 2 0
BITMAP
E000
E000
E000
FF80
FFE0
FFE0
E0F0
E070
E070
E070
E0F0
FFE0
FFE0
FF80
E000
E000
E000
ENDCHAR
STARTCHAR 00DF
ENCODING 223
SWIDTH 635 0
DWIDTH 15 0
BBX 12 17 2 0
BITMAP
3E00
7F80
FFC0
F1C0
E1C0
E1C0
E3C0
E7C0
E7C0
E7E0
E0F0
E070
E0F0
E1F0
EFE0
EFE0
EF80
ENDCHAR
STARTCHAR 00E0
ENCODING 224
SWIDTH 592 0
DWIDTH 14 0
BBX 11 19 1 0
BITMAP
1800
1C00
0C00
0E00
0600
0000
1F80
3FC0
7FE0
F0E0
00E0
1FE0
7FE0
F8E0
E0E0
E1E0
FFE0
7F60
3E60
ENDCHAR
STARTCHAR 00E1
ENCODING 225
SWIDTH 592 0
DWIDTH 14 0
BBX 11 19 1 0
BITMAP
0180
0380
0300
0700
0600
0000
1F80
3FC0
7FE0
F0E0
00E0
1FE0
7FE0
F8E0
E0E0
E1E0
FFE0
7F60
3E60
ENDCHAR
STARTCHAR 00E2
ENCODING 226
SWIDTH 592 0
DWIDTH 14 0
BBX 11 18 1 0
BITMAP
0F00
1F80
19C0
39C0
0000
1F80
3FC0
7FE0
F0E0
00E0
1FE0
7FE0
F8E0
E0E0
E1E0
FFE0
7F60
3E60
ENDCHAR
STARTCHAR 00E3
ENCODING 227
SWIDTH 592 0
DWIDTH 14 0
BBX 11 18 1 0
BITMAP
3C60
3FE0
33C0
0000
0000
1F80
3FC0
7FE0
F0E0
00E0
1FE0
7FE0
FCE0
E0E0
E1E0
F3E0
7F60
3E60
ENDCHAR
STARTCHAR 00E4
ENCODING 228
SWIDTH 592 0
DWIDTH 14 0
BBX 11 17 1 0
BITMAP
39C0
39C0
39C0
0000
1F80
3FC0
7FE0
F0E0
00E0
1FE0
7FE0
F8E0
E0E0
E1E0
FFE0
7F60
3E60
ENDCHAR
STARTCHAR 00E5
ENCODING 229
SWIDTH 592 0
DWIDTH 14 0
BBX 11 20 1 0
BITMAP
0F00
1F80
1980
1980
1F80
0F00
0000
1F80
3FC0
7FE0
F0E0
00E0
1FE0
7FE0
F8E0
E0E0
E1E0
FFE0
7F60
3E60
ENDCHAR
STARTCHAR 00E6
ENCODING 230
SWIDTH 931 0
DWIDTH 22 0
BBX 20 13 1 0
BITMAP
1F8F80
3FFFC0
7FFFE0
F0F0F0
00F070
07FFF0
3FFFF0
FCF000
E0F000
E1F8F0
FFFFE0
7FBFE0
3E0F80
ENDCHAR
STARTCHAR 00E7
ENCODING 231
SWIDTH 592 0
DWIDTH 14 0
BBX 12 18 1 -5
BITMAP
0F80
3FE0
7FE0
78F0
F060
E000
E000
E000
F040
F0F0
7FE0
3FE0
0F80
0600
0700
0300
0700
0F00
ENDCHAR
STARTCHAR 00E8
ENCODING 232
SWIDTH 592 0
DWIDTH 14 0
BBX 12 19 1 0
BITMAP
1C00
0C00
0E00
0600
0700
0000
0F80
3FE0
7FE0
70F0
F070
FFF0
FFF0
E000
F000
78F0
7FF0
3FE0
0F80
ENDCHAR
STARTCHAR 00E9
ENCODING 233
SWIDTH 592 0
DWIDTH 14 0
BBX 12 19 1 0
BITMAP
01C0
0180
0380
0300
0700
0000
0F80
3FE0
7FE0
70F0
F070
FFF0
FFF0
E000
F000
78F0
7FF0
3FE0
0F80
ENDCHAR
STARTCHAR 00EA
ENCODING 234
SWIDTH 592 0
DWIDTH 14 0
BBX 12 18 1 0
BITMAP
0700
0F80
1DC0
38E0
0000
0F80
3FE0
7FE0
70F0
F070
FFF0
FFF0
E000
F000
78F0
7FF0
3FE0
0F80
ENDCHAR
STARTCHAR 00EB
ENCODING 235
SWIDTH 592 0
DWIDTH 14 0
BBX 12 17 1 0
BITMAP
39C0
39C0
39C0
0000
0F80
3FE0
7FE0
70F0
F070
FFF0
FFF0
E000
F000
78F0
7FF0
3FE0
0F80
ENDCHAR
STARTCHAR 00EC
ENCODING 236
SWIDTH 296 0
DWIDTH 7 0
BBX 4 19 1 0
BITMAP
C0
C0
E0
60
00
00
70
70
70
70
70
70
70
70
70
70
70
70
70
ENDCHAR
STARTCHAR 00ED
ENCODING 237
SWIDTH 296 0
DWIDTH 7 0
BBX 4 19 2 0
BITMAP
30
70
60
60
00
00
E0
E0
E0
E0
E0
E0
E0
E0
E0
E0
E0
E0
E0
ENDCHAR
STARTCHAR 00EE
ENCODING 238
SWIDTH 296 0
DWIDTH 7 0
BBX 9 19 -1 0
BITMAP
1C00
3E00
7700
E380
0000
0000
1C00
1C00
1C00
1C00
1C00
1C00
1C00
1C00
1C00
1C00
1C00
1C00
1C00
ENDCHAR
STARTCHAR 00EF
ENCODING 239
SWIDTH 296 0
DWIDTH 7 0
BBX 7 18 0 0
BITMAP
C6
C6
C6
00
00
38
38
38
38
38
38
38
38
38
38
38
38
38
ENDCHAR
STARTCHAR 00F0
ENCODING 240
SWIDTH 592 0
DWIDTH 14 0
BBX 12 18 1 0
BITMAP
0CC0
0FC0
0FC0
07C0
07E0
0260
1F70
3FF0
7FF0
F0F0
E070
E070
E070
E070
F0F0
7FE0
3FC0
0F80
ENDCHAR
STARTCHAR 00F1
ENCODING 241
SWIDTH 635 0
DWIDTH 15 0
BBX 12 19 2 0
BITMAP
3800
7CC0
7FC0
6380
0000
0000
CF80
DFC0
FFE0
F1E0
E0F0
E0F0
E0F0
E0F0
E0F0
E0F0
E0F0
E0F0
E0F0
ENDCHAR
STARTCHAR 00F2
ENCODING 242
SWIDTH 635 0
DWIDTH 15 0
BBX 13 19 1 0
BITMAP
1C00
0C00
0E00
0600
0600
0000
0F80
3FE0
7FF0
78F0
F078
E078
E078
E078
F078
78F0
7FF0
3FE0
0F80
ENDCHAR
STARTCHAR 00F3
ENCODING 243
SWIDTH 635 0
DWIDTH 15 0
BBX 13 19 1 0
BITMAP
0180
0180
0380
0300
0700
0000
0F80
3FE0
7FF0
78F0
F078
E078
E078
E078
F078
78F0
7FF0
3FE0
0F80
ENDCHAR
STARTCHAR 00F4
ENCODING 244
SWIDTH 635 0
DWIDTH 15 0
BBX 13 18 1 0
BITMAP
0700
0F80
1DC0
38E0
0000
0F80
3FE0
7FF0
78F0
F078
E078
E078
E078
F078
78F0
7FF0
3FE0
0F80
ENDCHAR
STARTCHAR 00F5
ENCODING 245
SWIDTH 635 0
DWIDTH 15 0
BBX 13 18 1 0
BITMAP
1C60
3FE0
33C0
0000
0000
0F80
3FE0
7FF0
78F0
F078
E078
E078
E078
F078
78F0
7FF0
3FE0
0F80
ENDCHAR
STARTCHAR 00F6
ENCODING 246
SWIDTH 635 0
DWIDTH 15 0
BBX 13 17 1 0
BITMAP
39C0
39C0
39C0
0000
0F80
3FE0
7FF0
78F0
F078
E078
E078
E078
F078
78F0
7FF0
3FE0
0F80
ENDCHAR
STARTCHAR 00F7
ENCODING 247
SWIDTH 550 0
DWIDTH 13 0
BBX 10 11 1 3
BITMAP
0E00
0E00
0E00
0000
FFC0
FFC0
0000
0000
0E00
0E00
0E00
ENDCHAR
STARTCHAR 00F8
ENCODING 248
SWIDTH 635 0
DWIDTH 15 0
BBX 13 13 1 0
BITMAP
0F90
3FF8
7FF8
78F0
F1F8
E3F8
E778
EE78
FC78
78F0
FFF0
FFE0
4F80
ENDCHAR
STARTCHAR 00F9
ENCODING 249
SWIDTH 635 0
DWIDTH 15 0
BBX 12 19 1 0
BITMAP
0C00
0C00
0E00
0600
0000
0000
F070
F070
F070
F070
F070
F070
F070
F070
F070
78F0
7FF0
3FB0
1F30
ENDCHAR
STARTCHAR 00FA
ENCODING 250
SWIDTH 635 0
DWIDTH 15 0
BBX 12 19 1 0
BITMAP
0180
0380
0300
0700
0000
0000
F070
F070
F070
F070
F070
F070
F070
F070
F070
78F0
7FF0
3FB0
1F30
ENDCHAR
STARTCHAR 00FB
ENCODING 251
SWIDTH 635 0
DWIDTH 15 0
BBX 12 19 1 0
BITMAP
0700
0F80
1DC0
38E0
0000
0000
F070
F070
F070
F070
F070
F070
F070
F070
F070
78F0
7FF0
3FB0
1F30
ENDCHAR
STARTCHAR 00FC
ENCODING 252
SWIDTH 635 0
DWIDTH 15 0
BBX 12 18 1 0
BITMAP
39C0
39C0
39C0
0000
0000
F070
F070
F070
F070
F070
F070
F070
F070
F070
78F0
7FF0
3FB0
1F30
ENDCHAR
STARTCHAR 00FD
ENCODING 253
SWIDTH 550 0
DWIDTH 13 0
BBX 13 24 0 -5
BITMAP
01C0
0180
0380
0300
0000
0000
F038
7038
7870
3870
3870
3CE0
1CE0
1DE0
0FC0
0FC0
0F80
0780
0780
0700
0700
0E00
0E00
0E00
ENDCHAR
STARTCHAR 00FE
ENCODING 254
SWIDTH 635 0
DWIDTH 15 0
BBX 12 22 2 -5
BITMAP
E000
E000
E000
E000
FF00
FFC0
FFE0
E1E0
E0F0
E0F0
C0F0
E0F0
E0E0
E1E0
FFE0
FFC0
FF00
E000
E000
E000
E000
E000
ENDCHAR
STARTCHAR 00FF
ENCODING 255
SWIDTH 550 0
DWIDTH 13 0
BBX 13 23 0 -5
BITMAP
1CE0
1CE0
1CE0
0000
0000
F038
7038
7870
3870
3870
3CE0
1CE0
1DE0
0FC0
0FC0
0F80
0780
0780
0700
0700
0E00
0E00
0E00
ENDCHAR
ENDFONT
