STARTFONT 2.1
COMMENT
COMMENT Converted from OpenType font "manrope-semibold.otf" by "otf2bdf 3.0".
COMMENT
FONT -FreeType-Manrope SemiBold-Medium-R-Normal--39-280-100-100-P-183-ISO10646-1
SIZE 28 100 100
FONTBOUNDINGBOX 38 49 -1 -9
STARTPROPERTIES 19
FOUNDRY "FreeType"
FAMILY_NAME "Manrope SemiBold"
WEIGHT_NAME "Medium"
SLANT "R"
SETWIDTH_NAME "Normal"
ADD_STYLE_NAME ""
PIXEL_SIZE 39
POINT_SIZE 280
RESOLUTION_X 100
RESOLUTION_Y 100
SPACING "P"
AVERAGE_WIDTH 183
CHARSET_REGISTRY "ISO10646"
CHARSET_ENCODING "1"
FONT_ASCENT 41
FONT_DESCENT 11
COPYRIGHT "Copyright 2019-2021 The Manrope Project Authors (https://github.com/sharanda/manrope)"
_OTF_FONTFILE "manrope-semibold.otf"
_OTF_PSNAME "Manrope-SemiBold"
ENDPROPERTIES
CHARS 191
STARTCHAR 0020
ENCODING 32
SWIDTH 205 0
DWIDTH 8 0
BBX 0 0 0 0
BITMAP
ENDCHAR
STARTCHAR 0021
ENCODING 33
SWIDTH 334 0
DWIDTH 13 0
BBX 4 28 5 0
BITMAP
F0
F0
F0
F0
F0
F0
F0
F0
F0
F0
F0
F0
F0
F0
F0
F0
F0
F0
F0
F0
F0
00
00
00
F0
F0
F0
F0
ENDCHAR
STARTCHAR 0022
ENCODING 34
SWIDTH 437 0
DWIDTH 17 0
BBX 11 7 2 21
BITMAP
F1E0
F1E0
F1E0
F1E0
F1E0
F1E0
F1E0
ENDCHAR
STARTCHAR 0023
ENCODING 35
SWIDTH 925 0
DWIDTH 36 0
BBX 32 28 2 0
BITMAP
000783C0
000783C0
000F03C0
000F0780
000F0780
000F0780
001E0780
0FFFFFFF
1FFFFFFE
1FFFFFFE
1FFFFFFE
003C1E00
003C1E00
00781E00
00783C00
00783C00
7FFFFFF8
7FFFFFF8
7FFFFFF8
FFFFFFF0
00E07800
01E07800
01E0F000
01E0F000
03C0F000
03C0E000
03C1E000
03C1E000
ENDCHAR
STARTCHAR 0024
ENCODING 36
SWIDTH 617 0
DWIDTH 24 0
BBX 20 34 2 -3
BITMAP
00F000
00F000
00F000
03FC00
0FFF00
3FFF80
3FFFC0
7C07E0
7801F0
7801F0
F800F0
F80000
780000
7E0000
3FC000
3FFC00
0FFF00
03FFC0
003FE0
0007F0
0001F0
0000F0
7000F0
F000F0
F000F0
F800F0
7E03F0
7FFFE0
3FFFC0
0FFF80
03FE00
00F000
00F000
00F000
ENDCHAR
STARTCHAR 0025
ENCODING 37
SWIDTH 900 0
DWIDTH 35 0
BBX 31 28 2 0
BITMAP
07C00020
1FF00070
3FF800F8
7FF801F8
783C03F0
F03C07E0
F01C0FC0
F01C1F80
783C3F00
7C7C7E00
7FF8FC00
3FF1F800
0FE3F000
0107E000
000FC100
001F8FE0
003F1FF8
007E3FF8
00FC7C7C
01F8781C
03F0701E
07E0701E
0FC0701E
1F80783C
3F003FFC
3E003FF8
1C001FF0
080007C0
ENDCHAR
STARTCHAR 0026
ENCODING 38
SWIDTH 668 0
DWIDTH 26 0
BBX 23 28 2 0
BITMAP
01F800
0FFE00
1FFF80
1FFF80
3E07C0
3C03C0
7C0000
7C0000
7C0000
3C0000
3E0000
1F0000
0F8000
1FC000
3FE0F0
7FF0F0
F8FCF0
F87E70
F03FF0
F00FF0
F007F0
F803F0
F801F0
7E07F8
3FFFFC
3FFFBE
0FFF1C
03FC08
ENDCHAR
STARTCHAR 0027
ENCODING 39
SWIDTH 257 0
DWIDTH 10 0
BBX 4 7 2 21
BITMAP
F0
F0
F0
F0
F0
F0
F0
ENDCHAR
STARTCHAR 0028
ENCODING 40
SWIDTH 437 0
DWIDTH 17 0
BBX 10 40 5 -7
BITMAP
0100
03C0
03C0
07C0
0F80
0F00
1F00
1E00
1E00
3C00
3C00
3800
7800
7800
7800
7000
7000
7000
F000
F000
F000
F000
F000
7000
7000
7800
7800
7800
3800
3C00
3C00
3E00
1E00
1F00
0F00
0F80
0780
03C0
03C0
0180
ENDCHAR
STARTCHAR 0029
ENCODING 41
SWIDTH 437 0
DWIDTH 17 0
BBX 10 40 2 -7
BITMAP
2000
7000
F800
7800
7C00
3C00
1E00
1E00
0F00
0F00
0F00
0780
0780
0780
0380
0380
03C0
03C0
03C0
03C0
03C0
03C0
03C0
03C0
03C0
0380
0780
0780
0780
0700
0F00
0F00
1E00
1E00
3C00
7C00
7800
F800
F000
2000
ENDCHAR
STARTCHAR 002A
ENCODING 42
SWIDTH 462 0
DWIDTH 18 0
BBX 14 14 1 14
BITMAP
0780
0780
0380
4380
73BC
7FFC
FFFC
3FF8
0FC0
0FE0
1FF0
3CF0
1C70
0860
ENDCHAR
STARTCHAR 002B
ENCODING 43
SWIDTH 565 0
DWIDTH 22 0
BBX 18 17 2 6
BITMAP
00E000
00E000
00E000
00E000
00E000
00E000
00E000
FFFFC0
FFFFC0
FFFFC0
00E000
00E000
00E000
00E000
00E000
00E000
00E000
ENDCHAR
STARTCHAR 002C
ENCODING 44
SWIDTH 282 0
DWIDTH 11 0
BBX 5 10 2 -5
BITMAP
F8
F8
F8
F8
F8
18
38
30
F0
E0
ENDCHAR
STARTCHAR 002D
ENCODING 45
SWIDTH 411 0
DWIDTH 16 0
BBX 12 3 2 11
BITMAP
FFF0
FFF0
FFF0
ENDCHAR
STARTCHAR 002E
ENCODING 46
SWIDTH 282 0
DWIDTH 11 0
BBX 5 4 3 0
BITMAP
F8
F8
F8
F8
ENDCHAR
STARTCHAR 002F
ENCODING 47
SWIDTH 411 0
DWIDTH 16 0
BBX 12 28 2 0
BITMAP
00F0
01E0
01E0
01E0
01E0
03C0
03C0
03C0
03C0
0780
0780
0780
0F80
0F00
0F00
0F00
1E00
1E00
1E00
1E00
3C00
3C00
3C00
3C00
7800
7800
7800
F800
ENDCHAR
STARTCHAR 0030
ENCODING 48
SWIDTH 642 0
DWIDTH 25 0
BBX 19 28 3 0
BITMAP
03F800
0FFE00
1FFF00
3FFF80
7E0FC0
7803C0
F803E0
F001E0
F001E0
F001E0
F001E0
F001E0
F001E0
F001E0
F001E0
F001E0
F001E0
F001E0
F001E0
F001E0
F001E0
F803E0
7803C0
7E0FC0
3FFF80
1FFF00
0FFE00
03F800
ENDCHAR
STARTCHAR 0031
ENCODING 49
SWIDTH 411 0
DWIDTH 16 0
BBX 10 28 2 0
BITMAP
07C0
1FC0
7FC0
FFC0
FFC0
F3C0
C3C0
83C0
03C0
03C0
03C0
03C0
03C0
03C0
03C0
03C0
03C0
03C0
03C0
03C0
03C0
03C0
03C0
03C0
03C0
03C0
03C0
03C0
ENDCHAR
STARTCHAR 0032
ENCODING 50
SWIDTH 591 0
DWIDTH 23 0
BBX 19 28 2 0
BITMAP
03F800
0FFE00
1FFF00
3FFF80
7E0FC0
7C07C0
F803E0
F003E0
F001E0
0001E0
0003E0
0003E0
0007C0
000FC0
001F80
003F00
007E00
00FC00
01F800
03F000
0FC000
1F8000
3F0000
7E0000
FFFFE0
FFFFE0
FFFFE0
FFFFE0
ENDCHAR
STARTCHAR 0033
ENCODING 51
SWIDTH 565 0
DWIDTH 22 0
BBX 18 28 2 0
BITMAP
7FFF80
7FFF80
7FFF80
7FFF80
000F80
001F00
007E00
00FC00
01F800
03E000
07E000
0FFC00
07FE00
07FF00
001F80
000780
0007C0
0003C0
0003C0
0003C0
0007C0
F007C0
F80F80
FC1F80
7FFF00
3FFE00
1FFC00
07F000
ENDCHAR
STARTCHAR 0034
ENCODING 52
SWIDTH 591 0
DWIDTH 23 0
BBX 19 28 2 0
BITMAP
007800
00F800
00F800
01F000
01F000
03E000
03E000
07C000
07C000
078000
0F8000
0F0000
1F0780
1E0780
3E0780
3C0780
7C0780
780780
F80780
FFFFE0
FFFFE0
FFFFE0
FFFFE0
000780
000780
000780
000780
000780
ENDCHAR
STARTCHAR 0035
ENCODING 53
SWIDTH 591 0
DWIDTH 23 0
BBX 19 28 2 0
BITMAP
3FFF80
3FFF80
3FFF80
7FFF80
780000
780000
780000
780000
780000
780000
79F800
7FFE00
7FFF00
7FFF80
7C0FC0
1807C0
0003C0
0003E0
0001E0
0003E0
1003E0
F003C0
F807C0
7E0F80
3FFF80
1FFF00
0FFC00
03F000
ENDCHAR
STARTCHAR 0036
ENCODING 54
SWIDTH 617 0
DWIDTH 24 0
BBX 19 28 3 0
BITMAP
03F800
0FFE00
1FFF00
3FFF80
7E0F00
7C0200
F80000
F00000
F00000
F00000
F1F800
F7FE00
FFFF00
FFFF80
FE0FC0
F807C0
F003E0
F001E0
F001E0
F001E0
F001E0
F803E0
7807C0
7E0FC0
3FFF80
1FFF00
0FFE00
03F800
ENDCHAR
STARTCHAR 0037
ENCODING 55
SWIDTH 514 0
DWIDTH 20 0
BBX 16 28 2 0
BITMAP
FFFF
FFFF
FFFF
FFFF
000F
001F
001E
001E
003C
003C
007C
0078
0078
00F0
00F0
01F0
01E0
03E0
03C0
03C0
07C0
0780
0F80
0F00
0F00
1F00
1E00
3E00
ENDCHAR
STARTCHAR 0038
ENCODING 56
SWIDTH 591 0
DWIDTH 23 0
BBX 19 28 2 0
BITMAP
03F800
0FFE00
1FFF00
3FFF80
3E0FC0
7C07C0
7803C0
7803C0
7803C0
7C07C0
3E0FC0
3FFF80
1FFF00
1FFF00
3FFF80
7E0FC0
7C03C0
7803E0
F801E0
F801E0
F801E0
7803E0
7C03E0
7E07C0
3FFF80
1FFF80
0FFE00
03F800
ENDCHAR
STARTCHAR 0039
ENCODING 57
SWIDTH 617 0
DWIDTH 24 0
BBX 19 28 2 0
BITMAP
01F800
07FE00
1FFF00
3FFF80
3E0FC0
7C03E0
7801E0
F801E0
F001E0
F001E0
F801E0
F801E0
7C03E0
7E07E0
3FFFE0
1FFFE0
0FFDE0
03F1E0
0001E0
0001E0
0001E0
0003E0
0803E0
1E0FC0
3FFF80
1FFF00
0FFE00
03F800
ENDCHAR
STARTCHAR 003A
ENCODING 58
SWIDTH 334 0
DWIDTH 13 0
BBX 5 15 4 3
BITMAP
F8
F8
F8
F8
00
00
00
00
00
00
00
F8
F8
F8
F8
ENDCHAR
STARTCHAR 003B
ENCODING 59
SWIDTH 334 0
DWIDTH 13 0
BBX 5 26 4 -5
BITMAP
F8
F8
F8
F8
00
00
00
00
00
00
00
00
00
00
00
00
F8
F8
F8
F8
F8
18
30
30
F0
C0
ENDCHAR
STARTCHAR 003C
ENCODING 60
SWIDTH 617 0
DWIDTH 24 0
BBX 11 18 6 2
BITMAP
0080
01C0
03E0
07C0
0F80
1F00
3E00
7C00
F800
F800
7C00
3E00
1F00
0F80
07C0
03E0
01E0
00C0
ENDCHAR
STARTCHAR 003D
ENCODING 61
SWIDTH 745 0
DWIDTH 29 0
BBX 19 10 5 9
BITMAP
FFFFE0
FFFFE0
FFFFE0
000000
000000
000000
000000
FFFFE0
FFFFE0
FFFFE0
ENDCHAR
STARTCHAR 003E
ENCODING 62
SWIDTH 617 0
DWIDTH 24 0
BBX 12 18 7 2
BITMAP
2000
7000
F800
7C00
3E00
1F00
0F80
07C0
03E0
01F0
03E0
07C0
0F80
1F00
3E00
7C00
7800
3000
ENDCHAR
STARTCHAR 003F
ENCODING 63
SWIDTH 540 0
DWIDTH 21 0
BBX 17 28 2 0
BITMAP
07F000
1FFC00
3FFE00
7FFF00
7C1F80
F80F80
F00780
F00780
000780
000780
000F80
001F00
003E00
007E00
00FC00
01F000
01E000
03E000
03C000
03C000
000000
000000
000000
03C000
03C000
03C000
03C000
03C000
ENDCHAR
STARTCHAR 0040
ENCODING 64
SWIDTH 900 0
DWIDTH 35 0
BBX 29 29 3 -4
BITMAP
003FE000
00FFFC00
03FFFF00
07F07F80
0F800FC0
1F0003E0
3E0001E0
3C0000F0
780F8070
783FF878
707FF878
F0F8F838
F0F07838
F0E03838
F0E03838
F0E03838
F0F07878
F0F0F878
707FFFF0
783FFFF0
781F8FE0
3C000100
3E000000
1F000000
0F800000
07F07000
03FFF800
00FFF800
003FE000
ENDCHAR
STARTCHAR 0041
ENCODING 65
SWIDTH 668 0
DWIDTH 26 0
BBX 24 28 1 0
BITMAP
007E00
00FE00
00FF00
00FF00
01FF00
01EF80
01E780
03E780
03C7C0
03C7C0
07C3C0
0783C0
0783E0
0F81E0
0F01E0
0F01F0
0F00F0
1E00F0
1FFFF8
1FFFF8
3FFFF8
3FFFFC
3C003C
78003C
78003E
78001E
F0001E
F0001F
ENDCHAR
STARTCHAR 0042
ENCODING 66
SWIDTH 617 0
DWIDTH 24 0
BBX 20 28 3 0
BITMAP
FFFC00
FFFF00
FFFF80
FFFFC0
F007C0
F003E0
F001E0
F001E0
F001E0
F003E0
F007C0
FFFFC0
FFFF80
FFFF80
FFFFC0
F003E0
F001E0
F001F0
F000F0
F000F0
F000F0
F000F0
F001F0
F003E0
FFFFE0
FFFFC0
FFFF80
FFFE00
ENDCHAR
STARTCHAR 0043
ENCODING 67
SWIDTH 720 0
DWIDTH 28 0
BBX 26 28 1 0
BITMAP
007F8000
01FFF000
07FFFC00
0FFFFE00
1FC07F00
3F001F00
3E000F80
7C000780
7C0007C0
78000200
F8000000
F8000000
F8000000
F0000000
F0000000
F0000000
F8000000
F8000000
78000200
780007C0
7C000780
3E000F80
3F001F00
1FC07F00
0FFFFE00
07FFFC00
01FFF000
007F8000
ENDCHAR
STARTCHAR 0044
ENCODING 68
SWIDTH 694 0
DWIDTH 27 0
BBX 22 28 3 0
BITMAP
FFF800
FFFF00
FFFF80
FFFFC0
F007E0
F001F0
F000F0
F000F8
F00078
F0007C
F0007C
F0003C
F0003C
F0003C
F0003C
F0003C
F0003C
F0007C
F0007C
F00078
F000F8
F000F0
F001F0
F007E0
FFFFE0
FFFF80
FFFF00
FFFC00
ENDCHAR
STARTCHAR 0045
ENCODING 69
SWIDTH 591 0
DWIDTH 23 0
BBX 18 28 3 0
BITMAP
FFFFC0
FFFFC0
FFFFC0
FFFFC0
F00000
F00000
F00000
F00000
F00000
F00000
F00000
F00000
FFFE00
FFFE00
FFFE00
FFFE00
F00000
F00000
F00000
F00000
F00000
F00000
F00000
F00000
FFFFC0
FFFFC0
FFFFC0
FFFFC0
ENDCHAR
STARTCHAR 0046
ENCODING 70
SWIDTH 514 0
DWIDTH 20 0
BBX 16 28 3 0
BITMAP
FFFF
FFFF
FFFF
FFFF
F000
F000
F000
F000
F000
F000
F000
F000
FFFC
FFFC
FFFC
FFFC
F000
F000
F000
F000
F000
F000
F000
F000
F000
F000
F000
F000
ENDCHAR
STARTCHAR 0047
ENCODING 71
SWIDTH 720 0
DWIDTH 28 0
BBX 26 28 1 0
BITMAP
007F8000
01FFF000
07FFF800
0FFFFC00
1FC07E00
3F003F00
3E001F00
7C000F80
7C000780
78000000
F8000000
F8000000
F8000000
F0000000
F000FFC0
F000FFC0
F800FFC0
F80007C0
780007C0
78000780
7C000F80
3E000F80
3F001F00
1FC07E00
0FFFFC00
07FFF800
01FFF000
007F8000
ENDCHAR
STARTCHAR 0048
ENCODING 72
SWIDTH 720 0
DWIDTH 28 0
BBX 22 28 3 0
BITMAP
F0003C
F0003C
F0003C
F0003C
F0003C
F0003C
F0003C
F0003C
F0003C
F0003C
F0003C
F0003C
FFFFFC
FFFFFC
FFFFFC
FFFFFC
F0003C
F0003C
F0003C
F0003C
F0003C
F0003C
F0003C
F0003C
F0003C
F0003C
F0003C
F0003C
ENDCHAR
STARTCHAR 0049
ENCODING 73
SWIDTH 257 0
DWIDTH 10 0
BBX 4 28 3 0
BITMAP
F0
F0
F0
F0
F0
F0
F0
F0
F0
F0
F0
F0
F0
F0
F0
F0
F0
F0
F0
F0
F0
F0
F0
F0
F0
F0
F0
F0
ENDCHAR
STARTCHAR 004A
ENCODING 74
SWIDTH 488 0
DWIDTH 19 0
BBX 16 28 0 0
BITMAP
000F
000F
000F
000F
000F
000F
000F
000F
000F
000F
000F
000F
000F
000F
000F
000F
000F
000F
000F
000F
000F
300F
F81F
7C3E
7FFE
3FFC
1FF8
07E0
ENDCHAR
STARTCHAR 004B
ENCODING 75
SWIDTH 617 0
DWIDTH 24 0
BBX 21 28 3 0
BITMAP
F001F0
F003E0
F007C0
F00F80
F01F00
F01F00
F03E00
F07C00
F0F800
F1F000
F3E000
F7C000
FF8000
FF0000
FF8000
F7C000
F7E000
F3F000
F1F800
F0FC00
F07E00
F03E00
F01F00
F00F80
F007C0
F003E0
F001F0
F000F8
ENDCHAR
STARTCHAR 004C
ENCODING 76
SWIDTH 514 0
DWIDTH 20 0
BBX 17 28 3 0
BITMAP
F00000
F00000
F00000
F00000
F00000
F00000
F00000
F00000
F00000
F00000
F00000
F00000
F00000
F00000
F00000
F00000
F00000
F00000
F00000
F00000
F00000
F00000
F00000
F00000
FFFF80
FFFF80
FFFF80
FFFF80
ENDCHAR
STARTCHAR 004D
ENCODING 77
SWIDTH 848 0
DWIDTH 33 0
BBX 27 28 3 0
BITMAP
F00001E0
F00001E0
F80003E0
F80003E0
FC0007E0
FC0007E0
FE0007E0
FE000FE0
FE000FE0
FF001FE0
FF001FE0
F7803DE0
F7803DE0
F3C079E0
F3C079E0
F1E0F1E0
F1E0F1E0
F0F1E1E0
F0F1E1E0
F07BC1E0
F07BC1E0
F03FC1E0
F03F81E0
F03F81E0
F01F01E0
F01F01E0
F00E01E0
F00E01E0
ENDCHAR
STARTCHAR 004E
ENCODING 78
SWIDTH 694 0
DWIDTH 27 0
BBX 22 28 3 0
BITMAP
F0003C
F8003C
FC003C
FC003C
FE003C
FE003C
FF003C
FF803C
F7803C
F7C03C
F3E03C
F1E03C
F1F03C
F0F83C
F0783C
F07C3C
F03E3C
F01E3C
F01F3C
F00FBC
F007BC
F007FC
F003FC
F001FC
F001FC
F000FC
F0007C
F0007C
ENDCHAR
STARTCHAR 004F
ENCODING 79
SWIDTH 745 0
DWIDTH 29 0
BBX 27 28 1 0
BITMAP
007F8000
01FFF000
07FFFC00
0FFFFE00
1FC07F00
3F001F00
3E000F80
7C000780
7C0007C0
780003C0
F80003C0
F80003C0
F80003E0
F00003E0
F00003E0
F80003E0
F80003C0
F80003C0
780003C0
780007C0
7C000780
3E000F80
3F001F00
1FC07F00
0FFFFE00
07FFFC00
01FFF000
007F8000
ENDCHAR
STARTCHAR 0050
ENCODING 80
SWIDTH 617 0
DWIDTH 24 0
BBX 20 28 3 0
BITMAP
FFFE00
FFFF80
FFFFC0
FFFFE0
F003E0
F001F0
F000F0
F000F0
F000F0
F000F0
F000F0
F000F0
F001F0
F003E0
FFFFE0
FFFFC0
FFFF80
FFFE00
F00000
F00000
F00000
F00000
F00000
F00000
F00000
F00000
F00000
F00000
ENDCHAR
STARTCHAR 0051
ENCODING 81
SWIDTH 745 0
DWIDTH 29 0
BBX 27 28 1 0
BITMAP
007F8000
01FFF000
07FFFC00
0FFFFE00
1FC07F00
3F001F00
3E000F80
7C000780
7C0007C0
780003C0
F80003C0
F80003C0
F80003E0
F00003E0
F00003E0
F80003E0
F80003C0
F80003C0
780023C0
780077C0
7C00FF80
3E007F80
3F003F00
1FC07F00
0FFFFF80
07FFFFC0
01FFF380
007FC100
ENDCHAR
STARTCHAR 0052
ENCODING 82
SWIDTH 642 0
DWIDTH 25 0
BBX 20 28 3 0
BITMAP
FFFE00
FFFF80
FFFFC0
FFFFE0
F003E0
F001F0
F000F0
F000F0
F000F0
F000F0
F000F0
F000F0
F001F0
F003E0
FFFFE0
FFFFC0
FFFF80
FFFF00
F01F00
F00F80
F00F80
F007C0
F007C0
F003E0
F003E0
F001F0
F001F0
F000F0
ENDCHAR
STARTCHAR 0053
ENCODING 83
SWIDTH 642 0
DWIDTH 25 0
BBX 22 28 2 0
BITMAP
01FC00
0FFF80
1FFFC0
3FFFE0
7E07F0
7C01F8
7800F8
F80078
780040
7C0000
7E0000
3FC000
1FFC00
0FFF80
01FFE0
003FF0
0003F8
0000F8
000078
F0007C
F0007C
F80078
FC00F8
7F01F8
3FFFF0
1FFFE0
0FFF80
01FE00
ENDCHAR
STARTCHAR 0054
ENCODING 84
SWIDTH 591 0
DWIDTH 23 0
BBX 23 28 0 0
BITMAP
FFFFFE
FFFFFE
FFFFFE
FFFFFE
003C00
003C00
003C00
003C00
003C00
003C00
003C00
003C00
003C00
003C00
003C00
003C00
003C00
003C00
003C00
003C00
003C00
003C00
003C00
003C00
003C00
003C00
003C00
003C00
ENDCHAR
STARTCHAR 0055
ENCODING 85
SWIDTH 720 0
DWIDTH 28 0
BBX 22 28 3 0
BITMAP
F0003C
F0003C
F0003C
F0003C
F0003C
F0003C
F0003C
F0003C
F0003C
F0003C
F0003C
F0003C
F0003C
F0003C
F0003C
F0003C
F0003C
F0003C
F0003C
F0003C
F8007C
F800F8
7C00F8
7F03F0
3FFFE0
1FFFC0
07FF80
01FE00
ENDCHAR
STARTCHAR 0056
ENCODING 86
SWIDTH 617 0
DWIDTH 24 0
BBX 24 28 0 0
BITMAP
F8000F
78000F
78001E
7C001E
3C001E
3C003C
3E003C
1E003C
1E0078
1F0078
0F0078
0F00F8
0F00F0
0780F0
0781F0
0781E0
03C1E0
03C3E0
03C3C0
03E3C0
01E7C0
01E780
01F780
00FF80
00FF00
00FF00
007F00
007E00
ENDCHAR
STARTCHAR 0057
ENCODING 87
SWIDTH 951 0
DWIDTH 37 0
BBX 36 28 1 0
BITMAP
F001F001F0
F001F001E0
F001F801E0
7801F801E0
7803F803E0
7803F803C0
7C03FC03C0
3C07FC03C0
3C07BC0780
3C07BC0780
1E079E0780
1E0F1E0F80
1E0F1E0F00
1F0F0F0F00
0F0F0F0F00
0F1E0F1E00
0F1E0F1E00
079E079E00
07BC07BE00
07BC07BC00
07BC03FC00
03FC03FC00
03F803F800
03F803F800
01F801F800
01F001F000
01F001F000
01F000F000
ENDCHAR
STARTCHAR 0058
ENCODING 88
SWIDTH 642 0
DWIDTH 25 0
BBX 23 28 1 0
BITMAP
F8003E
7C007C
7C007C
3E00F8
1F01F0
1F01F0
0F83E0
07C7C0
07C7C0
03EF80
01FF00
01FF00
00FE00
007C00
00FC00
00FE00
01FF00
03EF00
03EF80
07C7C0
0F83C0
0F83E0
1F01F0
3E00F0
3E00F8
7C007C
F8007C
F8003E
ENDCHAR
STARTCHAR 0059
ENCODING 89
SWIDTH 591 0
DWIDTH 23 0
BBX 23 28 0 0
BITMAP
F8003E
7C007C
7C007C
3E00F8
1E00F0
1F01F0
0F01E0
0F83E0
07C7C0
07C7C0
03EF80
01EF00
01FF00
00FE00
00FE00
007C00
007C00
007C00
007C00
007C00
007C00
007C00
007C00
007C00
007C00
007C00
007C00
007C00
ENDCHAR
STARTCHAR 005A
ENCODING 90
SWIDTH 642 0
DWIDTH 25 0
BBX 21 28 2 0
BITMAP
7FFFF8
7FFFF8
7FFFF0
7FFFF0
0003E0
0007C0
0007C0
000F80
001F00
001F00
003E00
003E00
007C00
00F800
00F800
01F000
01F000
03E000
07C000
07C000
0F8000
1F8000
1F0000
3E0000
3FFFF8
7FFFF8
FFFFF8
FFFFF8
ENDCHAR
STARTCHAR 005B
ENCODING 91
SWIDTH 411 0
DWIDTH 16 0
BBX 9 43 5 -8
BITMAP
FF80
FF80
FF80
FF80
F000
F000
F000
F000
F000
F000
F000
F000
F000
F000
F000
F000
F000
F000
F000
F000
F000
F000
F000
F000
F000
F000
F000
F000
F000
F000
F000
F000
F000
F000
F000
F000
F000
F000
F000
FF80
FF80
FF80
FF80
ENDCHAR
STARTCHAR 005C
ENCODING 92
SWIDTH 411 0
DWIDTH 16 0
BBX 12 28 2 0
BITMAP
F800
7800
7800
7800
3C00
3C00
3C00
3C00
1E00
1E00
1E00
1E00
0F00
0F00
0F00
0F80
0780
0780
0780
03C0
03C0
03C0
03C0
01E0
01E0
01E0
01E0
00F0
ENDCHAR
STARTCHAR 005D
ENCODING 93
SWIDTH 411 0
DWIDTH 16 0
BBX 8 43 3 -8
BITMAP
FF
FF
FF
FF
0F
0F
0F
0F
0F
0F
0F
0F
0F
0F
0F
0F
0F
0F
0F
0F
0F
0F
0F
0F
0F
0F
0F
0F
0F
0F
0F
0F
0F
0F
0F
0F
0F
0F
0F
FF
FF
FF
FF
ENDCHAR
STARTCHAR 005E
ENCODING 94
SWIDTH 668 0
DWIDTH 26 0
BBX 18 12 4 17
BITMAP
004000
00E000
01F000
03F800
07FC00
0FBE00
1F1F00
3E0F80
7C07C0
F803C0
700180
200000
ENDCHAR
STARTCHAR 005F
ENCODING 95
SWIDTH 668 0
DWIDTH 26 0
BBX 26 3 0 -4
BITMAP
FFFFFFC0
FFFFFFC0
FFFFFFC0
ENDCHAR
STARTCHAR 0060
ENCODING 96
SWIDTH 514 0
DWIDTH 20 0
BBX 5 7 7 31
BITMAP
E0
E0
F0
70
70
38
38
ENDCHAR
STARTCHAR 0061
ENCODING 97
SWIDTH 565 0
DWIDTH 22 0
BBX 18 21 2 0
BITMAP
03F800
1FFE00
3FFF00
7FFF80
7C0F80
F807C0
1003C0
0003C0
00FFC0
0FFFC0
3FFFC0
7FC3C0
FC03C0
F007C0
F007C0
F007C0
F01FC0
FC7FC0
7FFBC0
3FF3C0
0FC000
ENDCHAR
STARTCHAR 0062
ENCODING 98
SWIDTH 617 0
DWIDTH 24 0
BBX 19 28 3 0
BITMAP
F00000
F00000
F00000
F00000
F00000
F00000
F00000
F3F800
FFFE00
FFFF00
FFFF80
FC0FC0
F807C0
F003C0
F003E0
E001E0
E001E0
E001E0
E001E0
E001E0
F003E0
F003C0
F807C0
FC0FC0
FFFF80
FFFF00
EFFE00
E3F800
ENDCHAR
STARTCHAR 0063
ENCODING 99
SWIDTH 565 0
DWIDTH 22 0
BBX 19 21 2 0
BITMAP
03F800
0FFE00
1FFF80
3FFF80
7E0FC0
7C03E0
F803C0
F00000
F00000
F00000
F00000
F00000
F00000
F00000
F80380
7803E0
7E07C0
3FFF80
1FFF80
0FFE00
03F800
ENDCHAR
STARTCHAR 0064
ENCODING 100
SWIDTH 617 0
DWIDTH 24 0
BBX 19 28 2 0
BITMAP
0001E0
0001E0
0001E0
0001E0
0001E0
0001E0
0001E0
03F1E0
0FFDE0
1FFFE0
3FFFE0
7E07E0
7803E0
F803E0
F001E0
F001E0
F001E0
F001E0
F001E0
F001E0
F001E0
F803E0
7803E0
7E07E0
3FFFE0
1FFFE0
0FFDE0
03F1E0
ENDCHAR
STARTCHAR 0065
ENCODING 101
SWIDTH 591 0
DWIDTH 23 0
BBX 20 21 2 0
BITMAP
03F800
0FFE00
1FFF80
3FFF80
7E07C0
7803E0
F801E0
F001E0
F001E0
FFFFF0
FFFFF0
FFFFF0
F00000
F00000
F80100
7803E0
7E07E0
3FFFC0
1FFF80
0FFF00
01F800
ENDCHAR
STARTCHAR 0066
ENCODING 102
SWIDTH 360 0
DWIDTH 14 0
BBX 13 28 1 0
BITMAP
01F8
07F8
0FF8
0F80
0F00
0F00
0F00
FFF8
FFF8
FFF8
0F00
0F00
0F00
0F00
0F00
0F00
0F00
0F00
0F00
0F00
0F00
0F00
0F00
0F00
0F00
0F00
0F00
0F00
ENDCHAR
STARTCHAR 0067
ENCODING 103
SWIDTH 617 0
DWIDTH 24 0
BBX 19 30 2 -9
BITMAP
03F1E0
0FFFE0
1FFFE0
3FFFE0
7E07E0
7803E0
F803E0
F001E0
F001E0
F001E0
F001E0
F001E0
F001E0
F001E0
F803E0
7803E0
7E07E0
3FFFE0
1FFFE0
0FFDE0
03F1E0
0001E0
0001E0
0003E0
1803C0
7E0FC0
3FFFC0
1FFF80
0FFF00
03F800
ENDCHAR
STARTCHAR 0068
ENCODING 104
SWIDTH 617 0
DWIDTH 24 0
BBX 19 28 3 0
BITMAP
E00000
E00000
E00000
E00000
E00000
E00000
E00000
E1F800
E7FE00
EFFF00
FFFF80
FE0FC0
F807C0
F803C0
F003C0
F003E0
F003E0
F003E0
F003E0
F003E0
F003E0
F003E0
F003E0
F003E0
F003E0
F003E0
F003E0
F003E0
ENDCHAR
STARTCHAR 0069
ENCODING 105
SWIDTH 257 0
DWIDTH 10 0
BBX 4 28 3 0
BITMAP
F0
F0
F0
F0
00
00
00
F0
F0
F0
F0
F0
F0
F0
F0
F0
F0
F0
F0
F0
F0
F0
F0
F0
F0
F0
F0
F0
ENDCHAR
STARTCHAR 006A
ENCODING 106
SWIDTH 282 0
DWIDTH 11 0
BBX 8 37 0 -9
BITMAP
0F
0F
0F
0F
00
00
00
0F
0F
0F
0F
0F
0F
0F
0F
0F
0F
0F
0F
0F
0F
0F
0F
0F
0F
0F
0F
0F
0F
0F
0F
0F
1F
FF
FE
FE
F8
ENDCHAR
STARTCHAR 006B
ENCODING 107
SWIDTH 514 0
DWIDTH 20 0
BBX 18 28 3 0
BITMAP
F00000
F00000
F00000
F00000
F00000
F00000
F00000
F00F80
F01F00
F03E00
F07C00
F0FC00
F0F800
F1F000
F3E000
F7C000
FF8000
FF8000
FF8000
F7C000
F3E000
F1F000
F0F800
F07C00
F03E00
F03F00
F01F80
F00FC0
ENDCHAR
STARTCHAR 006C
ENCODING 108
SWIDTH 257 0
DWIDTH 10 0
BBX 4 28 3 0
BITMAP
F0
F0
F0
F0
F0
F0
F0
F0
F0
F0
F0
F0
F0
F0
F0
F0
F0
F0
F0
F0
F0
F0
F0
F0
F0
F0
F0
F0
ENDCHAR
STARTCHAR 006D
ENCODING 109
SWIDTH 874 0
DWIDTH 34 0
BBX 29 21 3 0
BITMAP
E3F01F80
E7FC7FC0
EFFEFFE0
FFFFFFF0
F81FC1F8
F00F80F8
F00F8078
F00F8078
F00F0078
F00F0078
F00F0078
F00F0078
F00F0078
F00F0078
F00F0078
F00F0078
F00F0078
F00F0078
F00F0078
F00F0078
F00F0078
ENDCHAR
STARTCHAR 006E
ENCODING 110
SWIDTH 617 0
DWIDTH 24 0
BBX 19 21 3 0
BITMAP
E1F800
E7FE00
EFFF00
FFFF80
FC0FC0
F807C0
F803C0
F003C0
F003E0
F003E0
F003E0
F003E0
F003E0
F003E0
F003E0
F003E0
F003E0
F003E0
F003E0
F003E0
F003E0
ENDCHAR
STARTCHAR 006F
ENCODING 111
SWIDTH 617 0
DWIDTH 24 0
BBX 20 21 2 0
BITMAP
03F800
0FFE00
1FFF80
3FFFC0
7E07C0
7C03E0
F801E0
F001F0
F000F0
F000F0
F000F0
F000F0
F000F0
F001F0
F801E0
7C03E0
7E07E0
3FFFC0
1FFF80
0FFF00
03F800
ENDCHAR
STARTCHAR 0070
ENCODING 112
SWIDTH 617 0
DWIDTH 24 0
BBX 19 30 3 -9
BITMAP
E3F800
EFFE00
FFFF00
FFFF80
FC0FC0
F807C0
F003C0
F003E0
E001E0
E001E0
E001E0
E001E0
E001E0
F003E0
F003C0
F807C0
FC0FC0
FFFF80
FFFF00
FFFE00
F3F800
F00000
F00000
F00000
F00000
F00000
F00000
F00000
F00000
F00000
ENDCHAR
STARTCHAR 0071
ENCODING 113
SWIDTH 617 0
DWIDTH 24 0
BBX 19 30 2 -9
BITMAP
03F1E0
0FFFE0
1FFFE0
3FFFE0
7E07E0
7803E0
F803E0
F001E0
F001E0
F001E0
F001E0
F001E0
F001E0
F001E0
F803E0
7803E0
7E07E0
3FFFE0
1FFFE0
0FFDE0
03F1E0
0001E0
0001E0
0001E0
0001E0
0001E0
0001E0
0001E0
0001E0
0001E0
ENDCHAR
STARTCHAR 0072
ENCODING 114
SWIDTH 385 0
DWIDTH 15 0
BBX 11 21 3 0
BITMAP
E1E0
E7E0
EFE0
FFE0
FE00
F800
F800
F000
F000
F000
F000
F000
F000
F000
F000
F000
F000
F000
F000
F000
F000
ENDCHAR
STARTCHAR 0073
ENCODING 115
SWIDTH 540 0
DWIDTH 21 0
BBX 17 21 2 0
BITMAP
07F000
1FFC00
3FFE00
7FFF00
F80F80
F00780
F00400
FC0000
7F8000
3FF000
0FFE00
01FF00
001F80
000780
700780
F00780
F80F80
7FFF80
7FFF00
1FFE00
07F000
ENDCHAR
STARTCHAR 0074
ENCODING 116
SWIDTH 411 0
DWIDTH 16 0
BBX 15 27 0 0
BITMAP
0F00
0F00
0F00
0F00
0F00
0F00
FFFE
FFFE
FFFE
0F00
0F00
0F00
0F00
0F00
0F00
0F00
0F00
0F00
0F00
0F00
0F80
0F80
0780
07FE
07FE
03FE
00FE
ENDCHAR
STARTCHAR 0075
ENCODING 117
SWIDTH 617 0
DWIDTH 24 0
BBX 19 21 2 0
BITMAP
F001E0
F001E0
F001E0
F001E0
F001E0
F001E0
F001E0
F001E0
F001E0
F001E0
F001E0
F801E0
F801E0
F801E0
7803E0
7C03E0
7E0FE0
3FFFE0
1FFEE0
0FFCE0
03F0E0
ENDCHAR
STARTCHAR 0076
ENCODING 118
SWIDTH 540 0
DWIDTH 21 0
BBX 19 21 1 0
BITMAP
F001E0
F001E0
7803C0
7803C0
7807C0
3C0780
3C0780
3E0F00
1E0F00
1E0F00
0F1E00
0F1E00
0F1E00
07BC00
07BC00
07BC00
03F800
03F800
03F000
01F000
01F000
ENDCHAR
STARTCHAR 0077
ENCODING 119
SWIDTH 797 0
DWIDTH 31 0
BBX 29 21 1 0
BITMAP
F00F0078
F00F80F0
780F80F0
780F80F0
781FC0F0
781FC1E0
3C1DC1E0
3C3DC1E0
3C39E3C0
1E38E3C0
1E78E3C0
1E78F780
0F707780
0FF07780
0FF07F80
0FE07F00
07E03F00
07E03F00
07C03E00
03C01E00
03C01E00
ENDCHAR
STARTCHAR 0078
ENCODING 120
SWIDTH 540 0
DWIDTH 21 0
BBX 19 21 1 0
BITMAP
F803E0
7803C0
7C07C0
3E0F80
1F0F00
0F1F00
0FBE00
07FC00
03F800
01F800
01F000
03F800
03F800
07FC00
0FBE00
1F1F00
1E0F00
3E0F80
7C07C0
F803E0
F801E0
ENDCHAR
STARTCHAR 0079
ENCODING 121
SWIDTH 540 0
DWIDTH 21 0
BBX 20 30 1 -9
BITMAP
F000F0
F001E0
7801E0
7801E0
7C03C0
3C03C0
3C07C0
1E0780
1E0780
1F0F00
0F0F00
0F0F00
079E00
079E00
07BC00
03FC00
03FC00
01F800
01F800
01F800
00F000
00F000
01E000
01E000
01E000
03C000
03C000
038000
078000
078000
ENDCHAR
STARTCHAR 007A
ENCODING 122
SWIDTH 540 0
DWIDTH 21 0
BBX 18 21 1 0
BITMAP
7FFFC0
7FFFC0
7FFF80
7FFF00
001E00
003E00
003C00
007800
00F800
00F000
01E000
03C000
07C000
078000
0F0000
1F0000
1E0000
3FFFC0
7FFFC0
FFFFC0
FFFFC0
ENDCHAR
STARTCHAR 007B
ENCODING 123
SWIDTH 437 0
DWIDTH 17 0
BBX 10 43 5 -8
BITMAP
03C0
0FC0
1FC0
1FC0
1E00
1E00
1E00
1E00
1E00
1E00
1E00
1E00
1E00
1E00
1E00
1E00
1E00
1E00
3C00
7C00
7800
F800
7800
7C00
3C00
1E00
1E00
1E00
1E00
1E00
1E00
1E00
1E00
1E00
1E00
1E00
1E00
1E00
1E00
1FC0
1FC0
0FC0
03C0
ENDCHAR
STARTCHAR 007C
ENCODING 124
SWIDTH 282 0
DWIDTH 11 0
BBX 5 28 3 0
BITMAP
F8
F8
F8
F8
F8
F8
F8
F8
F8
F8
F8
F8
F8
F8
F8
F8
F8
F8
F8
F8
F8
F8
F8
F8
F8
F8
F8
F8
ENDCHAR
STARTCHAR 007D
ENCODING 125
SWIDTH 437 0
DWIDTH 17 0
BBX 10 43 2 -8
BITMAP
F000
FC00
FE00
FE00
1E00
1E00
1E00
1E00
1E00
1E00
1E00
1E00
1E00
1E00
1E00
1E00
1E00
1E00
0F00
0F80
0780
07C0
0780
0F80
0F00
1E00
1E00
1E00
1E00
1E00
1E00
1E00
1E00
1E00
1E00
1E00
1E00
1E00
1E00
FE00
FE00
FC00
F800
ENDCHAR
STARTCHAR 007E
ENCODING 126
SWIDTH 694 0
DWIDTH 27 0
BBX 19 8 4 8
BITMAP
3F0000
7FC1E0
7FE1E0
FFFBE0
F9FFE0
F0FFC0
F03FC0
000F00
ENDCHAR
STARTCHAR 00A0
ENCODING 160
SWIDTH 205 0
DWIDTH 8 0
BBX 0 0 0 0
BITMAP
ENDCHAR
STARTCHAR 00A1
ENCODING 161
SWIDTH 334 0
DWIDTH 13 0
BBX 4 28 5 -7
BITMAP
F0
F0
F0
F0
00
00
00
F0
F0
F0
F0
F0
F0
F0
F0
F0
F0
F0
F0
F0
F0
F0
F0
F0
F0
F0
F0
F0
ENDCHAR
STARTCHAR 00A2
ENCODING 162
SWIDTH 565 0
DWIDTH 22 0
BBX 19 29 2 -1
BITMAP
00F000
00F000
00F000
00F000
07FC00
1FFF00
3FFF80
3F1FC0
7C07C0
F803E0
F80180
F00000
F00000
F00000
F00000
F00000
F00000
F00000
F80000
F803E0
7C07C0
7F0FC0
3FFF80
1FFF00
07FE00
00F000
00F000
00F000
00F000
ENDCHAR
STARTCHAR 00A3
ENCODING 163
SWIDTH 565 0
DWIDTH 22 0
BBX 20 28 1 0
BITMAP
007E00
01FF00
03FF80
07FFC0
07C3E0
0F81E0
0F81F0
0F00C0
0F0000
0F0000
0F0000
0F0000
FFFE00
FFFE00
FFFE00
FFFE00
0F0000
0F0000
0F0000
0F0000
0F0000
0F0000
0F0000
1F0000
FFFFC0
FFFFC0
FFFFC0
FFFFC0
ENDCHAR
STARTCHAR 00A4
ENCODING 164
SWIDTH 668 0
DWIDTH 26 0
BBX 23 22 1 3
BITMAP
30000C
787E1E
FDFFBE
7FFFFC
3FFFF8
1F01F0
1E0078
3C0078
3C003C
38003C
38003C
38001C
38003C
3C003C
3C0078
1E0078
1F01F0
3FFFF8
7FFFFC
FDFFBE
787E1E
30000C
ENDCHAR
STARTCHAR 00A5
ENCODING 165
SWIDTH 591 0
DWIDTH 23 0
BBX 23 28 0 0
BITMAP
F8003E
7C007C
7C007C
3E00F8
1E00F0
1F01F0
0F01E0
0F83E0
07C7C0
07C7C0
03EF80
01EF00
01FF00
00FE00
00FE00
0FFFE0
0FFFE0
0FFFE0
007C00
007C00
007C00
0FFFE0
0FFFE0
0FFFE0
007C00
007C00
007C00
007C00
ENDCHAR
STARTCHAR 00A6
ENCODING 166
SWIDTH 282 0
DWIDTH 11 0
BBX 5 35 3 -7
BITMAP
F8
F8
F8
F8
F8
F8
F8
F8
F8
F8
F8
F8
F8
F8
F8
00
00
00
00
00
F8
F8
F8
F8
F8
F8
F8
F8
F8
F8
F8
F8
F8
F8
F8
ENDCHAR
STARTCHAR 00A7
ENCODING 167
SWIDTH 540 0
DWIDTH 21 0
BBX 17 32 2 -6
BITMAP
008000
0FF000
3FFC00
7FFE00
7C3E00
F81F00
F00F00
F80000
7C0000
7FC000
3FF800
1FFE00
7FFF00
783F80
F00780
F00780
F00780
F80780
7F8F80
7FFF00
1FFC00
03FF00
003F00
000F80
000780
F80780
F80F80
7E1F00
7FFF00
3FFE00
0FFC00
008000
ENDCHAR
STARTCHAR 00A8
ENCODING 168
SWIDTH 540 0
DWIDTH 21 0
BBX 11 4 5 31
BITMAP
F1E0
F1E0
F1E0
F1E0
ENDCHAR
STARTCHAR 00A9
ENCODING 169
SWIDTH 848 0
DWIDTH 33 0
BBX 31 31 1 -2
BITMAP
000FF000
007FFC00
01FFFF00
03FFFFC0
07F00FE0
0FC003F0
1F0001F0
3E07E0F8
3C1FF87C
7C3FFC3C
783C3C3C
78781E1E
F070181E
F0F0001E
F0F0001E
F0F0001E
F0F0001E
F0F0001E
F070101E
78781E1E
783C3C3C
7C3FFC3C
3C1FF87C
3E07E0F8
1F0001F0
0FC003F0
07F01FE0
03FFFFC0
01FFFF00
007FFC00
000FE000
ENDCHAR
STARTCHAR 00AA
ENCODING 170
SWIDTH 308 0
DWIDTH 12 0
BBX 9 12 2 10
BITMAP
3E00
7F00
E780
4380
0F80
7F80
FB80
C380
C380
E780
FD80
2000
ENDCHAR
STARTCHAR 00AB
ENCODING 171
SWIDTH 565 0
DWIDTH 22 0
BBX 16 17 3 2
BITMAP
0302
0387
070F
0F0E
1E1C
3C3C
3878
70F0
F0E0
78F0
3878
1C3C
1E1C
0F0E
078F
0387
0302
ENDCHAR
STARTCHAR 00AC
ENCODING 172
SWIDTH 591 0
DWIDTH 23 0
BBX 19 8 2 7
BITMAP
FFFFE0
FFFFE0
FFFFE0
0000E0
0000E0
0000E0
0000E0
0000E0
ENDCHAR
STARTCHAR 00AD
ENCODING 173
SWIDTH 411 0
DWIDTH 16 0
BBX 12 3 2 11
BITMAP
FFF0
FFF0
FFF0
ENDCHAR
STARTCHAR 00AE
ENCODING 174
SWIDTH 642 0
DWIDTH 25 0
BBX 19 20 3 11
BITMAP
01F000
07FC00
1FFF00
3E0F80
380380
7001C0
F3F1E0
E3F8E0
E308E0
E318E0
E3F860
E3F0E0
E330E0
E318E0
7319C0
7803C0
3E0F80
1FFF00
0FFE00
03F800
ENDCHAR
STARTCHAR 00AF
ENCODING 175
SWIDTH 514 0
DWIDTH 20 0
BBX 10 3 5 33
BITMAP
FFC0
FFC0
FFC0
ENDCHAR
STARTCHAR 00B0
ENCODING 176
SWIDTH 462 0
DWIDTH 18 0
BBX 14 14 1 14
BITMAP
07C0
1FE0
3FF0
7FF8
783C
F03C
F01C
F01C
F03C
783C
7FF8
3FF8
1FF0
07C0
ENDCHAR
STARTCHAR 00B1
ENCODING 177
SWIDTH 591 0
DWIDTH 23 0
BBX 19 18 2 3
BITMAP
00E000
00E000
00E000
00E000
00E000
FFFFE0
FFFFE0
FFFFE0
00E000
00E000
00E000
00E000
000000
000000
000000
FFFFE0
FFFFE0
FFFFE0
ENDCHAR
STARTCHAR 00B2
ENCODING 178
SWIDTH 411 0
DWIDTH 16 0
BBX 12 18 2 10
BITMAP
1F80
3FC0
7FE0
F0E0
E070
E070
0070
00F0
00E0
03C0
0780
0F00
1E00
3C00
7800
FFF0
FFF0
FFF0
ENDCHAR
STARTCHAR 00B3
ENCODING 179
SWIDTH 411 0
DWIDTH 16 0
BBX 11 18 2 10
BITMAP
FFE0
FFE0
FFE0
01C0
0380
0F00
1E00
3F00
1FC0
01C0
00E0
00E0
00E0
40E0
E0E0
FFC0
7F80
1F00
ENDCHAR
STARTCHAR 00B4
ENCODING 180
SWIDTH 514 0
DWIDTH 20 0
BBX 6 7 8 31
BITMAP
3C
38
38
70
70
F0
E0
ENDCHAR
STARTCHAR 00B5
ENCODING 181
SWIDTH 617 0
DWIDTH 24 0
BBX 19 30 3 -9
BITMAP
F003E0
F003E0
F003E0
F003E0
F003E0
F003E0
F003E0
F003E0
F003E0
F003E0
F003E0
F003E0
F003E0
F003E0
F803E0
F807E0
FC0FE0
FFFFE0
FFFDE0
FFF9E0
E7E1E0
E00000
E00000
E00000
E00000
E00000
E00000
E00000
E00000
E00000
ENDCHAR
STARTCHAR 00B6
ENCODING 182
SWIDTH 694 0
DWIDTH 27 0
BBX 23 33 2 -5
BITMAP
03FE3E
0FFE3E
3FFE3E
3FFE3E
7FFE3E
7FFE3E
FFFE3E
FFFE3E
FFFE3E
FFFE3E
FFFE3E
FFFE3E
7FFE3E
7FFE3E
3FFE3E
1FFE3E
0FFE3E
03FE3E
001E3E
001E3E
001E3E
001E3E
001E3E
001E3E
001E3E
001E3E
001E3E
001E3E
001E3E
001E3E
001E3E
001E3E
001E3E
ENDCHAR
STARTCHAR 00B7
ENCODING 183
SWIDTH 257 0
DWIDTH 10 0
BBX 6 5 2 10
BITMAP
70
78
FC
F8
78
ENDCHAR
STARTCHAR 00B8
ENCODING 184
SWIDTH 411 0
DWIDTH 16 0
BBX 6 10 5 -9
BITMAP
38
30
70
78
3C
1C
1C
FC
F8
F0
ENDCHAR
STARTCHAR 00B9
ENCODING 185
SWIDTH 334 0
DWIDTH 13 0
BBX 6 18 2 10
BITMAP
1C
7C
FC
EC
8C
0C
0C
0C
0C
0C
0C
0C
0C
0C
0C
0C
0C
0C
ENDCHAR
STARTCHAR 00BA
ENCODING 186
SWIDTH 360 0
DWIDTH 14 0
BBX 10 11 2 10
BITMAP
3E00
7F80
E380
C1C0
C1C0
C0C0
C1C0
C1C0
E380
7F80
3E00
ENDCHAR
STARTCHAR 00BB
ENCODING 187
SWIDTH 565 0
DWIDTH 22 0
BBX 16 17 3 2
BITMAP
40C0
E1E0
F0E0
78F0
3878
1C3C
1E1E
0F0E
070F
0F0E
1E1C
3C3C
3878
70F0
F0E0
E1C0
4040
ENDCHAR
STARTCHAR 00BC
ENCODING 188
SWIDTH 1002 0
DWIDTH 39 0
BBX 33 28 2 0
BITMAP
1C00008000
7C0001C000
FC0003C000
EC0003C000
8C00078000
0C000F0000
0C001E0000
0C001E0000
0C003C0000
0C00780000
0C00F00000
0C00F03800
0C01E07000
0C03C07000
0C0780E000
0C0780E000
0C0F01C000
0C1E01C000
003C038E00
003C038E00
0078078E00
00F0070E00
01E00FFF80
01E00FFF80
03C00FFF80
0780000E00
0700000E00
0100000E00
ENDCHAR
STARTCHAR 00BD
ENCODING 189
SWIDTH 977 0
DWIDTH 38 0
BBX 34 28 2 0
BITMAP
1C00008000
7C0001C000
FC0003C000
EC0003C000
8C00078000
0C000F0000
0C001E0000
0C001E0000
0C003C0000
0C00780000
0C00F03E00
0C00F0FF80
0C01E1FF80
0C03C1C1C0
0C0781C1C0
0C078380C0
0C0F0000C0
001E0001C0
001C0003C0
003C000780
0078000F00
00F0001E00
01E0003C00
01E0007800
03C000F000
078001FFC0
070003FFC0
010003FFC0
ENDCHAR
STARTCHAR 00BE
ENCODING 190
SWIDTH 1002 0
DWIDTH 39 0
BBX 35 28 2 0
BITMAP
FFE0002000
FFE0003800
FFE0007800
01C000F000
038001E000
0F0001E000
1E0003C000
3F00078000
1FC00F0000
01C00F0000
00E01E0000
00E03C0E00
00E0780E00
40E0781C00
E0E0F01C00
FFC1E03800
7F83C03800
1F03C07000
0007807180
000F00E180
001E00E180
001E01C180
003C01FFE0
007801FFE0
00F001FFE0
00F0000180
00E0000180
0040000180
ENDCHAR
STARTCHAR 00BF
ENCODING 191
SWIDTH 540 0
DWIDTH 21 0
BBX 17 29 2 -8
BITMAP
01E000
01E000
01E000
01E000
01E000
000000
000000
000000
01E000
01E000
01E000
03E000
07C000
0FC000
1F8000
3F0000
7C0000
780000
F80000
F00000
F00000
F00780
F00780
F80F80
7C1F00
7FFF00
3FFE00
1FFC00
03E000
ENDCHAR
STARTCHAR 00C0
ENCODING 192
SWIDTH 668 0
DWIDTH 26 0
BBX 24 38 1 0
BITMAP
01C000
00E000
00E000
00F000
007000
007000
003800
000000
000000
000000
007E00
00FE00
00FF00
00FF00
01FF00
01EF80
01E780
03E780
03C7C0
03C3C0
07C3C0
0783C0
0781E0
0F81E0
0F01E0
0F01F0
0F00F0
1E00F0
1FFFF8
1FFFF8
3FFFF8
3FFFFC
3C003C
7C003C
78003E
78001E
F0001E
F0001F
ENDCHAR
STARTCHAR 00C1
ENCODING 193
SWIDTH 668 0
DWIDTH 26 0
BBX 24 38 1 0
BITMAP
000700
000700
000F00
000E00
000E00
001C00
001C00
000000
000000
000000
007E00
00FE00
00FF00
00FF00
01FF00
01EF80
01E780
03E780
03C7C0
03C7C0
07C3C0
0783C0
0783E0
0F81E0
0F01E0
0F01F0
0F00F0
1E00F0
1FFFF8
1FFFF8
3FFFF8
3FFFFC
3C003C
78003C
78003E
78001E
F0001E
F0001F
ENDCHAR
STARTCHAR 00C2
ENCODING 194
SWIDTH 668 0
DWIDTH 26 0
BBX 24 37 1 0
BITMAP
003C00
007E00
00FF00
01E780
03C780
0783C0
000000
000000
000000
007E00
00FE00
00FF00
00FF00
01FF00
01EF80
01E780
03E780
03C7C0
03C7C0
07C3C0
0783C0
0783E0
0F81E0
0F01E0
0F01F0
0F00F0
1E00F0
1FFFF8
1FFFF8
3FFFF8
3FFFFC
3C003C
78003C
78003E
78001E
F0001E
F0001F
ENDCHAR
STARTCHAR 00C3
ENCODING 195
SWIDTH 668 0
DWIDTH 26 0
BBX 24 38 1 0
BITMAP
01E000
03F0C0
07FDC0
073FC0
071FC0
000780
000000
000000
000000
000000
007E00
00FE00
00FF00
00FF00
01FF00
01EF80
01E780
03E780
03C7C0
03C7C0
07C3C0
0783C0
0783E0
0F81E0
0F01E0
0F01F0
0F00F0
1E00F0
1FFFF8
1FFFF8
3FFFF8
3FFFFC
3C003C
78003C
78003E
78001E
F0001E
F0001F
ENDCHAR
STARTCHAR 00C4
ENCODING 196
SWIDTH 668 0
DWIDTH 26 0
BBX 24 35 1 0
BITMAP
03C3C0
03C3C0
03C3C0
03C3C0
000000
000000
000000
007E00
00FE00
00FF00
00FF00
01FF00
01EF80
01E780
03E780
03C7C0
03C7C0
07C3C0
0783C0
0783E0
0F81E0
0F01E0
0F01F0
0F00F0
1E00F0
1FFFF8
1FFFF8
3FFFF8
3FFFFC
3C003C
78003C
78003E
78001E
F0001E
F0001F
ENDCHAR
STARTCHAR 00C5
ENCODING 197
SWIDTH 668 0
DWIDTH 26 0
BBX 24 40 1 0
BITMAP
001000
007E00
00FF00
01C700
01C380
01C380
01C700
00FF00
007E00
001000
000000
000000
007E00
00FE00
00FF00
00FF00
01FF00
01EF80
01E780
03E780
03C7C0
03C7C0
07C3C0
0783C0
0783E0
0F81E0
0F01E0
0F01F0
0F00F0
1E00F0
1FFFF8
1FFFF8
3FFFF8
3FFFFC
3C003C
78003C
78003E
78001E
F0001E
F0001F
ENDCHAR
STARTCHAR 00C6
ENCODING 198
SWIDTH 925 0
DWIDTH 36 0
BBX 33 28 1 0
BITMAP
007FFFFF80
00FFFFFF80
00FFFFFF80
00FFFFFF80
01F1E00000
01E1E00000
01E1E00000
03E1E00000
03C1E00000
03C1E00000
07C1E00000
0781E00000
0781FFFE00
0F81FFFE00
0F01FFFE00
0F01FFFE00
0F01E00000
1E01E00000
1FFFE00000
1FFFE00000
3FFFE00000
3FFFE00000
3C01E00000
7801E00000
7801FFFF80
7801FFFF80
F001FFFF80
F001FFFF80
ENDCHAR
STARTCHAR 00C7
ENCODING 199
SWIDTH 720 0
DWIDTH 28 0
BBX 26 37 1 -9
BITMAP
007F8000
01FFF000
07FFFC00
0FFFFE00
1FC07F00
3F001F00
3E000F80
7C000780
7C0007C0
78000200
F8000000
F8000000
F8000000
F0000000
F0000000
F0000000
F8000000
F8000000
78000200
780007C0
7C000780
3E000F80
3F001F00
1FC07F00
0FFFFE00
07FFFC00
01FFF000
007FC000
000E0000
000E0000
000F0000
00078000
00038000
00038000
001F8000
001F0000
001E0000
ENDCHAR
STARTCHAR 00C8
ENCODING 200
SWIDTH 591 0
DWIDTH 23 0
BBX 18 38 3 0
BITMAP
070000
078000
038000
038000
01C000
01C000
01E000
000000
000000
000000
FFFFC0
FFFFC0
FFFFC0
FFFFC0
F00000
F00000
F00000
F00000
F00000
F00000
F00000
F00000
FFFE00
FFFE00
FFFE00
FFFE00
F00000
F00000
F00000
F00000
F00000
F00000
F00000
F00000
FFFFC0
FFFFC0
FFFFC0
FFFFC0
ENDCHAR
STARTCHAR 00C9
ENCODING 201
SWIDTH 591 0
DWIDTH 23 0
BBX 18 38 3 0
BITMAP
003800
003800
007800
007000
007000
00E000
00E000
000000
000000
000000
FFFFC0
FFFFC0
FFFFC0
FFFFC0
F00000
F00000
F00000
F00000
F00000
F00000
F00000
F00000
FFFE00
FFFE00
FFFE00
FFFE00
F00000
F00000
F00000
F00000
F00000
F00000
F00000
F00000
FFFFC0
FFFFC0
FFFFC0
FFFFC0
ENDCHAR
STARTCHAR 00CA
ENCODING 202
SWIDTH 591 0
DWIDTH 23 0
BBX 18 37 3 0
BITMAP
03E000
07E000
07F000
0F7800
1E3C00
3C1E00
000000
000000
000000
FFFFC0
FFFFC0
FFFFC0
FFFFC0
F00000
F00000
F00000
F00000
F00000
F00000
F00000
F00000
FFFE00
FFFE00
FFFE00
FFFE00
F00000
F00000
F00000
F00000
F00000
F00000
F00000
F00000
FFFFC0
FFFFC0
FFFFC0
FFFFC0
ENDCHAR
STARTCHAR 00CB
ENCODING 203
SWIDTH 591 0
DWIDTH 23 0
BBX 18 35 3 0
BITMAP
1C3C00
1C3C00
1C3C00
1C3C00
000000
000000
000000
FFFFC0
FFFFC0
FFFFC0
FFFFC0
F00000
F00000
F00000
F00000
F00000
F00000
F00000
F00000
FFFE00
FFFE00
FFFE00
FFFE00
F00000
F00000
F00000
F00000
F00000
F00000
F00000
F00000
FFFFC0
FFFFC0
FFFFC0
FFFFC0
ENDCHAR
STARTCHAR 00CC
ENCODING 204
SWIDTH 257 0
DWIDTH 10 0
BBX 6 38 1 0
BITMAP
E0
F0
70
70
38
38
3C
00
00
00
3C
3C
3C
3C
3C
3C
3C
3C
3C
3C
3C
3C
3C
3C
3C
3C
3C
3C
3C
3C
3C
3C
3C
3C
3C
3C
3C
3C
ENDCHAR
STARTCHAR 00CD
ENCODING 205
SWIDTH 257 0
DWIDTH 10 0
BBX 6 38 3 0
BITMAP
1C
1C
3C
38
38
70
70
00
00
00
F0
F0
F0
F0
F0
F0
F0
F0
F0
F0
F0
F0
F0
F0
F0
F0
F0
F0
F0
F0
F0
F0
F0
F0
F0
F0
F0
F0
ENDCHAR
STARTCHAR 00CE
ENCODING 206
SWIDTH 257 0
DWIDTH 10 0
BBX 13 37 -1 0
BITMAP
0F00
1F80
3FC0
79E0
F0F0
E078
0000
0000
0000
0F00
0F00
0F00
0F00
0F00
0F00
0F00
0F00
0F00
0F00
0F00
0F00
0F00
0F00
0F00
0F00
0F00
0F00
0F00
0F00
0F00
0F00
0F00
0F00
0F00
0F00
0F00
0F00
ENDCHAR
STARTCHAR 00CF
ENCODING 207
SWIDTH 257 0
DWIDTH 10 0
BBX 12 35 -1 0
BITMAP
F0F0
F0F0
F0F0
F0F0
0000
0000
0000
0F00
0F00
0F00
0F00
0F00
0F00
0F00
0F00
0F00
0F00
0F00
0F00
0F00
0F00
0F00
0F00
0F00
0F00
0F00
0F00
0F00
0F00
0F00
0F00
0F00
0F00
0F00
0F00
ENDCHAR
STARTCHAR 00D0
ENCODING 208
SWIDTH 694 0
DWIDTH 27 0
BBX 25 28 0 0
BITMAP
1FFF0000
1FFFE000
1FFFF000
1FFFF800
1E00FC00
1E003E00
1E001F00
1E001F00
1E000F00
1E000F80
1E000F80
1E000780
FFF80780
FFF80780
FFF80780
1E000780
1E000F80
1E000F80
1E000F00
1E000F00
1E001F00
1E003E00
1E003E00
1E00FC00
1FFFF800
1FFFF000
1FFFE000
1FFF8000
ENDCHAR
STARTCHAR 00D1
ENCODING 209
SWIDTH 694 0
DWIDTH 27 0
BBX 22 37 3 0
BITMAP
03C000
07F1C0
07F9C0
077FC0
061F80
000F00
000000
000000
000000
F0003C
F8003C
FC003C
FC003C
FE003C
FE003C
FF003C
FF803C
F7803C
F7C03C
F3E03C
F1E03C
F1F03C
F0F83C
F0783C
F07C3C
F03E3C
F01E3C
F01F3C
F00FBC
F007BC
F007FC
F003FC
F001FC
F001FC
F000FC
F0007C
F0007C
ENDCHAR
STARTCHAR 00D2
ENCODING 210
SWIDTH 745 0
DWIDTH 29 0
BBX 27 37 1 0
BITMAP
00700000
00780000
00380000
00380000
001C0000
001C0000
00000000
00000000
00000000
007F8000
01FFF000
07FFFC00
0FFFFE00
1FC07F00
3F001F00
3E000F80
7C000780
7C0007C0
780003C0
F80003C0
F80003C0
F80003E0
F00003E0
F00003E0
F80003E0
F80003C0
F80003C0
780003C0
780007C0
7C000780
3E000F80
3F001F00
1FC07F00
0FFFFE00
07FFFC00
01FFF000
007F8000
ENDCHAR
STARTCHAR 00D3
ENCODING 211
SWIDTH 745 0
DWIDTH 29 0
BBX 27 37 1 0
BITMAP
0003C000
00038000
00038000
00070000
00070000
000F0000
00000000
00000000
00000000
007F8000
01FFF000
07FFFC00
0FFFFE00
1FC07F00
3F001F00
3E000F80
7C000780
7C0007C0
780003C0
F80003C0
F80003C0
F80003E0
F00003E0
F00003E0
F80003E0
F80003C0
F80003C0
780003C0
780007C0
7C000780
3E000F80
3F001F00
1FC07F00
0FFFFE00
07FFFC00
01FFF000
007F8000
ENDCHAR
STARTCHAR 00D4
ENCODING 212
SWIDTH 745 0
DWIDTH 29 0
BBX 27 36 1 0
BITMAP
001F0000
003F0000
007F8000
0073C000
00F1E000
01E0F000
00000000
00000000
007F8000
01FFF000
07FFFC00
0FFFFE00
1FC07F00
3F001F00
3E000F80
7C000780
7C0007C0
780003C0
F80003C0
F80003C0
F80003E0
F00003E0
F00003E0
F80003E0
F80003C0
F80003C0
780003C0
780007C0
7C000780
3E000F80
3F001F00
1FC07F00
0FFFFE00
07FFFC00
01FFF000
007F8000
ENDCHAR
STARTCHAR 00D5
ENCODING 213
SWIDTH 745 0
DWIDTH 29 0
BBX 27 36 1 0
BITMAP
00787000
00FC7000
01FFF000
01C7F000
01C1E000
00000000
00000000
00000000
007F8000
01FFF000
07FFFC00
0FFFFE00
1FC07F00
3F001F00
3E000F80
7C000780
7C0007C0
780003C0
F80003C0
F80003C0
F80003E0
F00003E0
F00003E0
F80003E0
F80003C0
F80003C0
780003C0
780007C0
7C000780
3E000F80
3F001F00
1FC07F00
0FFFFE00
07FFFC00
01FFF000
007F8000
ENDCHAR
STARTCHAR 00D6
ENCODING 214
SWIDTH 745 0
DWIDTH 29 0
BBX 27 35 1 0
BITMAP
00E1E000
00E1E000
00E1E000
00E1E000
00000000
00000000
00000000
007F8000
01FFF000
07FFFC00
0FFFFE00
1FC07F00
3F001F00
3E000F80
7C000780
7C0007C0
780003C0
F80003C0
F80003C0
F80003E0
F00003E0
F00003E0
F80003E0
F80003C0
F80003C0
780003C0
780007C0
7C000780
3E000F80
3F001F00
1FC07F00
0FFFFE00
07FFFC00
01FFF000
007F8000
ENDCHAR
STARTCHAR 00D7
ENCODING 215
SWIDTH 488 0
DWIDTH 19 0
BBX 15 15 2 6
BITMAP
2008
701C
783E
3C7C
1EF8
0FF0
07E0
07C0
0FE0
1FF0
3E78
7C3C
F81E
700C
2000
ENDCHAR
STARTCHAR 00D8
ENCODING 216
SWIDTH 745 0
DWIDTH 29 0
BBX 27 28 1 0
BITMAP
007F8080
01FFF1C0
07FFFFE0
0FFFFFC0
1FC07F80
3F001F00
3E003F80
7C007F80
7C00FFC0
7801F3C0
F803F3C0
F803E3C0
F807C3E0
F00F83E0
F01F03E0
F83E03E0
F87C03C0
F8F803C0
79F003C0
7FE007C0
7FC00780
3F800F80
3F001F00
3FC07F00
7FFFFE00
FFFFFC00
39FFF000
107F8000
ENDCHAR
STARTCHAR 00D9
ENCODING 217
SWIDTH 720 0
DWIDTH 28 0
BBX 22 38 3 0
BITMAP
01C000
01E000
00E000
00E000
007000
007000
007800
000000
000000
000000
F0003C
F0003C
F0003C
F0003C
F0003C
F0003C
F0003C
F0003C
F0003C
F0003C
F0003C
F0003C
F0003C
F0003C
F0003C
F0003C
F0003C
F0003C
F0003C
F0003C
F8007C
F800F8
7C00F8
7F03F0
3FFFE0
1FFFC0
07FF80
01FE00
ENDCHAR
STARTCHAR 00DA
ENCODING 218
SWIDTH 720 0
DWIDTH 28 0
BBX 22 38 3 0
BITMAP
000E00
001C00
001C00
003C00
003800
003800
007000
000000
000000
000000
F0003C
F0003C
F0003C
F0003C
F0003C
F0003C
F0003C
F0003C
F0003C
F0003C
F0003C
F0003C
F0003C
F0003C
F0003C
F0003C
F0003C
F0003C
F0003C
F0003C
F8007C
F800F8
7C00F8
7F03F0
3FFFE0
1FFFC0
07FF80
01FE00
ENDCHAR
STARTCHAR 00DB
ENCODING 219
SWIDTH 720 0
DWIDTH 28 0
BBX 22 37 3 0
BITMAP
007800
00FC00
01FE00
03CF00
078700
0F0780
000000
000000
000000
F0003C
F0003C
F0003C
F0003C
F0003C
F0003C
F0003C
F0003C
F0003C
F0003C
F0003C
F0003C
F0003C
F0003C
F0003C
F0003C
F0003C
F0003C
F0003C
F0003C
F8007C
F800F8
7C00F8
7F03F0
3FFFE0
1FFFC0
07FF80
01FE00
ENDCHAR
STARTCHAR 00DC
ENCODING 220
SWIDTH 720 0
DWIDTH 28 0
BBX 22 35 3 0
BITMAP
078780
078780
078780
078780
000000
000000
000000
F0003C
F0003C
F0003C
F0003C
F0003C
F0003C
F0003C
F0003C
F0003C
F0003C
F0003C
F0003C
F0003C
F0003C
F0003C
F0003C
F0003C
F0003C
F0003C
F0003C
F8007C
F800F8
7C00F8
7F03F0
3FFFE0
1FFFC0
07FF80
01FE00
ENDCHAR
STARTCHAR 00DD
ENCODING 221
SWIDTH 591 0
DWIDTH 23 0
BBX 23 38 0 0
BITMAP
000F00
000E00
000E00
001C00
001C00
003800
003800
000000
000000
000000
F8003E
7C007C
7C007C
3E00F8
1E00F0
1F01F0
0F01E0
0F83E0
07C7C0
07C7C0
03EF80
01EF00
01FF00
00FE00
00FE00
007C00
007C00
007C00
007C00
007C00
007C00
007C00
007C00
007C00
007C00
007C00
007C00
007C00
ENDCHAR
STARTCHAR 00DE
ENCODING 222
SWIDTH 617 0
DWIDTH 24 0
BBX 20 28 3 0
BITMAP
F00000
F00000
F00000
F00000
F00000
FFFC00
FFFF00
FFFF80
FFFFC0
F007E0
F003E0
F001E0
F001F0
F000F0
F000F0
F001F0
F001E0
F003E0
F007E0
FFFFC0
FFFF80
FFFF00
FFFC00
F00000
F00000
F00000
F00000
F00000
ENDCHAR
STARTCHAR 00DF
ENCODING 223
SWIDTH 617 0
DWIDTH 24 0
BBX 19 28 3 0
BITMAP
07E000
1FF800
7FFC00
7FFE00
FC1F00
F80F00
F00F00
F00F80
F00F00
F00F00
F01F00
F0FE00
F0FC00
F0FF00
F0FF80
F01FC0
F007C0
F003E0
F001E0
F001E0
F001E0
F003E0
F003C0
F00FC0
F3FFC0
F3FF80
F3FF00
F3F800
ENDCHAR
STARTCHAR 00E0
ENCODING 224
SWIDTH 565 0
DWIDTH 22 0
BBX 18 30 2 0
BITMAP
070000
038000
038000
03C000
01C000
01C000
00E000
000000
000000
03F800
1FFE00
3FFF00
7FFF80
7C0F80
F807C0
1003C0
0003C0
00FFC0
0FFFC0
3FFFC0
7FC3C0
FC03C0
F007C0
F007C0
F007C0
F01FC0
FC7FC0
7FFBC0
3FF3C0
0FC000
ENDCHAR
STARTCHAR 00E1
ENCODING 225
SWIDTH 565 0
DWIDTH 22 0
BBX 18 30 2 0
BITMAP
003C00
003800
003800
007000
007000
00F000
00E000
000000
000000
03F800
1FFE00
3FFF00
7FFF80
7C0F80
F807C0
1003C0
0003C0
00FFC0
0FFFC0
3FFFC0
7FC3C0
FC03C0
F007C0
F007C0
F007C0
F01FC0
FC7FC0
7FFBC0
3FF3C0
0FC000
ENDCHAR
STARTCHAR 00E2
ENCODING 226
SWIDTH 565 0
DWIDTH 22 0
BBX 18 29 2 0
BITMAP
01F000
03F000
07F800
073C00
0F1E00
1E0F00
000000
000000
03F800
1FFE00
3FFF00
7FFF80
7C0F80
F807C0
1003C0
0003C0
00FFC0
0FFFC0
3FFFC0
7FC3C0
FC03C0
F007C0
F007C0
F007C0
F01FC0
FC7FC0
7FFBC0
3FF3C0
0FC000
ENDCHAR
STARTCHAR 00E3
ENCODING 227
SWIDTH 565 0
DWIDTH 22 0
BBX 18 29 2 0
BITMAP
078700
0FC700
1FFF00
1C7F00
1C1E00
000000
000000
000000
03F800
1FFE00
3FFF00
7FFF80
7C0F80
F807C0
1003C0
0003C0
00FFC0
0FFFC0
3FFFC0
7FC3C0
FC03C0
F003C0
F007C0
F007C0
F00FC0
FC7FC0
7FFBC0
3FF3C0
0FC000
ENDCHAR
STARTCHAR 00E4
ENCODING 228
SWIDTH 565 0
DWIDTH 22 0
BBX 18 28 2 0
BITMAP
0E1E00
0E1E00
0E1E00
0E1E00
000000
000000
000000
03F800
1FFE00
3FFF00
7FFF80
7C0F80
F807C0
1003C0
0003C0
00FFC0
0FFFC0
3FFFC0
7FC3C0
FC03C0
F007C0
F007C0
F007C0
F01FC0
FC7FC0
7FFBC0
3FF3C0
0FC000
ENDCHAR
STARTCHAR 00E5
ENCODING 229
SWIDTH 565 0
DWIDTH 22 0
BBX 18 32 2 0
BITMAP
01E000
03F800
07F800
071C00
061C00
061C00
071C00
07F800
03F000
006000
000000
03F800
1FFE00
3FFF00
7FFF80
7C0F80
F807C0
1003C0
0003C0
00FFC0
0FFFC0
3FFFC0
7FC3C0
FC03C0
F007C0
F007C0
F007C0
F01FC0
FC7FC0
7FFBC0
3FF3C0
0FC000
ENDCHAR
STARTCHAR 00E6
ENCODING 230
SWIDTH 925 0
DWIDTH 36 0
BBX 33 21 2 0
BITMAP
03F80FE000
0FFE3FF800
3FFF7FFC00
3FFFFFFE00
7C0FF01E00
F807E00F00
1007E00F00
0003C00780
0003C00780
03FFFFFF80
1FFFFFFF80
7FFFFFFF80
FC03C00000
F003C00000
F007E00000
F007E00F80
F00FF81F00
FC7EFFFE00
7FFC7FFC00
3FF83FF800
0FE007E000
ENDCHAR
STARTCHAR 00E7
ENCODING 231
SWIDTH 565 0
DWIDTH 22 0
BBX 19 30 2 -9
BITMAP
03F800
0FFE00
1FFF80
3FFF80
7E0FC0
7C03E0
F803C0
F00000
F00000
F00000
F00000
F00000
F00000
F00000
F80100
F803E0
7C07C0
3FFFC0
1FFF80
0FFF00
03F800
00E000
00E000
00F000
007800
003800
003800
01F800
01F000
01E000
ENDCHAR
STARTCHAR 00E8
ENCODING 232
SWIDTH 591 0
DWIDTH 23 0
BBX 20 30 2 0
BITMAP
038000
03C000
01C000
01C000
00E000
00E000
000000
000000
000000
03F800
0FFE00
1FFF80
3FFF80
7E07C0
7803E0
F801E0
F001E0
F001E0
FFFFF0
FFFFF0
FFFFF0
F00000
F00000
F80100
7803E0
7E07E0
3FFFC0
1FFF80
0FFF00
01F800
ENDCHAR
STARTCHAR 00E9
ENCODING 233
SWIDTH 591 0
DWIDTH 23 0
BBX 20 30 2 0
BITMAP
001C00
001C00
003800
003800
007800
007000
000000
000000
000000
03F800
0FFE00
1FFF80
3FFF80
7E07C0
7803E0
F801E0
F001E0
F001E0
FFFFF0
FFFFF0
FFFFF0
F00000
F00000
F80100
7803E0
7E07E0
3FFFC0
1FFF80
0FFF00
01F800
ENDCHAR
STARTCHAR 00EA
ENCODING 234
SWIDTH 591 0
DWIDTH 23 0
BBX 20 29 2 0
BITMAP
00F000
01F800
03FC00
079E00
0F0E00
1E0F00
000000
000000
03F800
0FFE00
1FFF80
3FFF80
7E07C0
7803E0
F801E0
F001E0
F001E0
FFFFF0
FFFFF0
FFFFF0
F00000
F00000
F80100
7803E0
7E07E0
3FFFC0
1FFF80
0FFF00
01F800
ENDCHAR
STARTCHAR 00EB
ENCODING 235
SWIDTH 591 0
DWIDTH 23 0
BBX 20 28 2 0
BITMAP
0F0F00
0F0F00
0F0F00
0F0F00
000000
000000
000000
03F800
0FFE00
1FFF80
3FFF80
7E07C0
7803E0
F801E0
F001E0
F001E0
FFFFF0
FFFFF0
FFFFF0
F00000
F00000
F80100
7803E0
7E07E0
3FFFC0
1FFF80
0FFF00
01F800
ENDCHAR
STARTCHAR 00EC
ENCODING 236
SWIDTH 257 0
DWIDTH 10 0
BBX 6 31 1 0
BITMAP
E0
E0
70
70
78
38
3C
00
00
00
3C
3C
3C
3C
3C
3C
3C
3C
3C
3C
3C
3C
3C
3C
3C
3C
3C
3C
3C
3C
3C
ENDCHAR
STARTCHAR 00ED
ENCODING 237
SWIDTH 257 0
DWIDTH 10 0
BBX 6 31 3 0
BITMAP
1C
1C
3C
38
38
70
70
00
00
00
F0
F0
F0
F0
F0
F0
F0
F0
F0
F0
F0
F0
F0
F0
F0
F0
F0
F0
F0
F0
F0
ENDCHAR
STARTCHAR 00EE
ENCODING 238
SWIDTH 257 0
DWIDTH 10 0
BBX 13 30 -1 0
BITMAP
0F80
1F80
3FC0
39E0
78F0
F078
0000
0000
0000
0F00
0F00
0F00
0F00
0F00
0F00
0F00
0F00
0F00
0F00
0F00
0F00
0F00
0F00
0F00
0F00
0F00
0F00
0F00
0F00
0F00
ENDCHAR
STARTCHAR 00EF
ENCODING 239
SWIDTH 257 0
DWIDTH 10 0
BBX 12 28 -1 0
BITMAP
F0F0
F0F0
F0F0
F0F0
0000
0000
0000
0F00
0F00
0F00
0F00
0F00
0F00
0F00
0F00
0F00
0F00
0F00
0F00
0F00
0F00
0F00
0F00
0F00
0F00
0F00
0F00
0F00
ENDCHAR
STARTCHAR 00F0
ENCODING 240
SWIDTH 591 0
DWIDTH 23 0
BBX 19 30 2 0
BITMAP
000600
01EF00
03FF00
03FE00
007E00
007F00
00F780
006380
0003C0
00E1C0
07FDE0
1FFFE0
3FFFE0
7E0FE0
7803E0
F803E0
F001E0
F001E0
F001E0
F001E0
F001E0
F001E0
F001E0
F003E0
F803C0
7C07C0
3FFF80
1FFF00
0FFE00
03F800
ENDCHAR
STARTCHAR 00F1
ENCODING 241
SWIDTH 617 0
DWIDTH 24 0
BBX 19 29 3 0
BITMAP
0F0600
1FC600
1FFE00
38FE00
383C00
000000
000000
000000
01F800
E7FE00
EFFF00
FFFF80
FE0FC0
F807C0
F803C0
F003C0
F003E0
F003E0
F003E0
F003E0
F003E0
F003E0
F003E0
F003E0
F003E0
F003E0
F003E0
F003E0
F003E0
ENDCHAR
STARTCHAR 00F2
ENCODING 242
SWIDTH 617 0
DWIDTH 24 0
BBX 20 30 2 0
BITMAP
038000
038000
03C000
01C000
01C000
00E000
000000
000000
000000
03F800
0FFE00
1FFF80
3FFFC0
7E07C0
7C03E0
F801E0
F001F0
F000F0
F000F0
F000F0
F000F0
F000F0
F001F0
F801E0
7C03E0
7E07E0
3FFFC0
1FFF80
0FFF00
03F800
ENDCHAR
STARTCHAR 00F3
ENCODING 243
SWIDTH 617 0
DWIDTH 24 0
BBX 20 30 2 0
BITMAP
001C00
003800
003800
007800
007000
007000
000000
000000
000000
03F800
0FFE00
1FFF80
3FFFC0
7E07C0
7C03E0
F801E0
F001F0
F000F0
F000F0
F000F0
F000F0
F000F0
F001F0
F801E0
7C03E0
7E07E0
3FFFC0
1FFF80
0FFF00
03F800
ENDCHAR
STARTCHAR 00F4
ENCODING 244
SWIDTH 617 0
DWIDTH 24 0
BBX 20 29 2 0
BITMAP
00F000
01F800
03FC00
079E00
0F0E00
1E0F00
000000
000000
03F800
0FFE00
1FFF80
3FFFC0
7E07C0
7C03E0
F801E0
F001F0
F000F0
F000F0
F000F0
F000F0
F000F0
F001F0
F801E0
7C03E0
7E07E0
3FFFC0
1FFF80
0FFF00
03F800
ENDCHAR
STARTCHAR 00F5
ENCODING 245
SWIDTH 617 0
DWIDTH 24 0
BBX 20 29 2 0
BITMAP
078300
0FE700
1FFF00
1C7F00
1C1E00
000000
000000
000000
03F800
0FFE00
1FFF80
3FFFC0
7E07C0
7C03E0
F801E0
F001F0
F000F0
F000F0
F000F0
F000F0
F000F0
F001F0
F801E0
7C03E0
7E07E0
3FFFC0
1FFF80
0FFF00
03F800
ENDCHAR
STARTCHAR 00F6
ENCODING 246
SWIDTH 617 0
DWIDTH 24 0
BBX 20 28 2 0
BITMAP
0F0F00
0F0F00
0F0F00
0F0F00
000000
000000
000000
03F800
0FFE00
1FFF80
3FFFC0
7E07C0
7C03E0
F801E0
F001F0
F000F0
F000F0
F000F0
F000F0
F000F0
F001F0
F801E0
7C03E0
7E07E0
3FFFC0
1FFF80
0FFF00
03F800
ENDCHAR
STARTCHAR 00F7
ENCODING 247
SWIDTH 540 0
DWIDTH 21 0
BBX 17 16 2 6
BITMAP
01E000
01E000
01E000
01E000
000000
000000
FFFF80
FFFF80
FFFF80
000000
000000
000000
01E000
01E000
01E000
01E000
ENDCHAR
STARTCHAR 00F8
ENCODING 248
SWIDTH 617 0
DWIDTH 24 0
BBX 22 21 1 0
BITMAP
01FC30
07FFF8
0FFFFC
1FFFF8
3F03F0
3E03F0
7C07F8
780FF8
781E78
783C78
787878
78F078
7BE078
7FC0F8
7F80F0
3F01F0
3F03E0
7FFFE0
FFFFC0
77FF00
21FC00
ENDCHAR
STARTCHAR 00F9
ENCODING 249
SWIDTH 617 0
DWIDTH 24 0
BBX 19 31 2 0
BITMAP
038000
038000
01C000
01C000
01E000
00E000
00E000
000000
000000
000000
F001E0
F001E0
F001E0
F001E0
F001E0
F001E0
F001E0
F001E0
F001E0
F001E0
F001E0
F801E0
F801E0
F801E0
7803E0
7C03E0
7E0FE0
3FFFE0
1FFEE0
0FFCE0
03F0E0
ENDCHAR
STARTCHAR 00FA
ENCODING 250
SWIDTH 617 0
DWIDTH 24 0
BBX 19 31 2 0
BITMAP
001C00
003800
003800
007800
007000
007000
00E000
000000
000000
000000
F001E0
F001E0
F001E0
F001E0
F001E0
F001E0
F001E0
F001E0
F001E0
F001E0
F001E0
F801E0
F801E0
F801E0
7803E0
7C03E0
7E0FE0
3FFFE0
1FFEE0
0FFCE0
03F0E0
ENDCHAR
STARTCHAR 00FB
ENCODING 251
SWIDTH 617 0
DWIDTH 24 0
BBX 19 30 2 0
BITMAP
00F000
01F800
03FC00
079C00
0F1E00
1E0F00
000000
000000
000000
F001E0
F001E0
F001E0
F001E0
F001E0
F001E0
F001E0
F001E0
F001E0
F001E0
F001E0
F801E0
F801E0
F801E0
7803E0
7C03E0
7E0FE0
3FFFE0
1FFEE0
0FFCE0
03F0E0
ENDCHAR
STARTCHAR 00FC
ENCODING 252
SWIDTH 617 0
DWIDTH 24 0
BBX 19 28 2 0
BITMAP
0F0F00
0F0F00
0F0F00
0F0F00
000000
000000
000000
F001E0
F001E0
F001E0
F001E0
F001E0
F001E0
F001E0
F001E0
F001E0
F001E0
F001E0
F801E0
F801E0
F801E0
7803E0
7C03E0
7E0FE0
3FFFE0
1FFEE0
0FFCE0
03F0E0
ENDCHAR
STARTCHAR 00FD
ENCODING 253
SWIDTH 540 0
DWIDTH 21 0
BBX 20 40 1 -9
BITMAP
001C00
003C00
003800
003800
007000
007000
00F000
000000
000000
000000
F000F0
F001E0
7801E0
7801E0
7C03C0
3C03C0
3C07C0
1E0780
1E0780
1F0F00
0F0F00
0F0F00
079E00
079E00
07BC00
03FC00
03FC00
01F800
01F800
01F800
00F000
00F000
01E000
01E000
01E000
03C000
03C000
038000
078000
078000
ENDCHAR
STARTCHAR 00FE
ENCODING 254
SWIDTH 617 0
DWIDTH 24 0
BBX 19 37 3 -9
BITMAP
F00000
F00000
F00000
F00000
F00000
F00000
F00000
F3F800
FFFE00
FFFF00
FFFF80
FC0FC0
F807C0
F003C0
F003E0
E001E0
E001E0
E001E0
E001E0
E001E0
F003E0
F003C0
F807C0
FC0FC0
FFFF80
FFFF00
FFFE00
F3F800
F00000
F00000
F00000
F00000
F00000
F00000
F00000
F00000
F00000
ENDCHAR
STARTCHAR 00FF
ENCODING 255
SWIDTH 540 0
DWIDTH 21 0
BBX 20 37 1 -9
BITMAP
0F0F00
0F0F00
0F0F00
0F0F00
000000
000000
000000
F000F0
F001E0
7801E0
7801E0
7C03C0
3C03C0
3C07C0
1E0780
1E0780
1F0F00
0F0F00
0F0F00
079E00
079E00
07BC00
03FC00
03FC00
01F800
01F800
01F800
00F000
00F000
01E000
01E000
01E000
03C000
03C000
038000
078000
078000
ENDCHAR
ENDFONT
