STARTFONT 2.1
COMMENT
COMMENT Converted from OpenType font "Manrope-ExtraLight.otf" by "otf2bdf 3.0".
COMMENT
FONT -FreeType-Manrope ExtraLight-Medium-R-Normal--24-170-100-100-P-103-ISO10646-1
SIZE 17 100 100
FONTBOUNDINGBOX 21 29 0 -6
STARTPROPERTIES 19
FOUNDRY "FreeType"
FAMILY_NAME "Manrope ExtraLight"
WEIGHT_NAME "Medium"
SLANT "R"
SETWIDTH_NAME "Normal"
ADD_STYLE_NAME ""
PIXEL_SIZE 24
POINT_SIZE 170
RESOLUTION_X 100
RESOLUTION_Y 100
SPACING "P"
AVERAGE_WIDTH 103
CHARSET_REGISTRY "ISO10646"
CHARSET_ENCODING "1"
FONT_ASCENT 25
FONT_DESCENT 7
COPYRIGHT "Copyright 2019-2021 The Manrope Project Authors (https://github.com/sharanda/manrope)"
_OTF_FONTFILE "Manrope-ExtraLight.otf"
_OTF_PSNAME "Manrope-ExtraLight"
ENDPROPERTIES
CHARS 191
STARTCHAR 0020
ENCODING 32
SWIDTH 211 0
DWIDTH 5 0
BBX 0 0 0 0
BITMAP
ENDCHAR
STARTCHAR 0021
ENCODING 33
SWIDTH 296 0
DWIDTH 7 0
BBX 1 17 3 0
BITMAP
80
80
80
80
80
80
80
80
80
80
80
80
80
00
00
80
80
ENDCHAR
STARTCHAR 0022
ENCODING 34
SWIDTH 338 0
DWIDTH 8 0
BBX 5 4 1 13
BITMAP
88
88
88
88
ENDCHAR
STARTCHAR 0023
ENCODING 35
SWIDTH 931 0
DWIDTH 22 0
BBX 18 17 2 0
BITMAP
008400
010400
010400
010800
020800
7FFFC0
020800
021000
041000
041000
041000
FFFF80
082000
082000
082000
084000
104000
ENDCHAR
STARTCHAR 0024
ENCODING 36
SWIDTH 550 0
DWIDTH 13 0
BBX 12 21 1 -2
BITMAP
0400
0400
1F00
60C0
4060
8020
8020
4000
6000
3800
0700
00C0
0020
0020
8010
8020
C020
60C0
1F80
0400
0400
ENDCHAR
STARTCHAR 0025
ENCODING 37
SWIDTH 889 0
DWIDTH 21 0
BBX 19 17 1 0
BITMAP
1E0040
630080
418100
808200
808400
418800
631000
1E2000
004000
008780
0118C0
021060
042020
082020
101060
2018C0
400780
ENDCHAR
STARTCHAR 0026
ENCODING 38
SWIDTH 635 0
DWIDTH 15 0
BBX 14 17 1 0
BITMAP
0F00
30C0
2040
4000
4000
6000
2000
1000
3800
4410
C210
8190
8050
8030
4030
2068
1F84
ENDCHAR
STARTCHAR 0027
ENCODING 39
SWIDTH 169 0
DWIDTH 4 0
BBX 1 4 1 13
BITMAP
80
80
80
80
ENDCHAR
STARTCHAR 0028
ENCODING 40
SWIDTH 423 0
DWIDTH 10 0
BBX 5 23 3 -3
BITMAP
08
10
10
20
20
40
40
40
C0
80
80
80
80
80
40
40
40
60
20
30
10
08
08
ENDCHAR
STARTCHAR 0029
ENCODING 41
SWIDTH 423 0
DWIDTH 10 0
BBX 5 23 1 -3
BITMAP
40
40
20
30
10
10
08
08
08
08
08
08
08
08
08
08
10
10
10
20
60
40
80
ENDCHAR
STARTCHAR 002A
ENCODING 42
SWIDTH 423 0
DWIDTH 10 0
BBX 7 7 1 10
BITMAP
10
10
92
7C
38
28
44
ENDCHAR
STARTCHAR 002B
ENCODING 43
SWIDTH 592 0
DWIDTH 14 0
BBX 11 11 1 3
BITMAP
0400
0400
0400
0400
0400
FFE0
0400
0400
0400
0400
0400
ENDCHAR
STARTCHAR 002C
ENCODING 44
SWIDTH 254 0
DWIDTH 6 0
BBX 2 4 1 -2
BITMAP
C0
C0
40
C0
ENDCHAR
STARTCHAR 002D
ENCODING 45
SWIDTH 423 0
DWIDTH 10 0
BBX 8 1 1 7
BITMAP
FF
ENDCHAR
STARTCHAR 002E
ENCODING 46
SWIDTH 211 0
DWIDTH 5 0
BBX 1 1 2 0
BITMAP
80
ENDCHAR
STARTCHAR 002F
ENCODING 47
SWIDTH 338 0
DWIDTH 8 0
BBX 5 17 2 0
BITMAP
08
08
10
10
10
30
20
20
20
40
40
40
40
80
80
80
80
ENDCHAR
STARTCHAR 0030
ENCODING 48
SWIDTH 592 0
DWIDTH 14 0
BBX 10 17 2 0
BITMAP
1E00
6100
C080
8040
8040
8040
8040
8040
8040
8040
8040
8040
8040
8040
C080
6100
1E00
ENDCHAR
STARTCHAR 0031
ENCODING 49
SWIDTH 338 0
DWIDTH 8 0
BBX 5 17 1 0
BITMAP
18
68
88
08
08
08
08
08
08
08
08
08
08
08
08
08
08
ENDCHAR
STARTCHAR 0032
ENCODING 50
SWIDTH 550 0
DWIDTH 13 0
BBX 11 17 1 0
BITMAP
1F00
3080
4040
4060
8020
0020
0020
0040
0040
0080
0300
0600
0C00
1000
2000
4000
FFE0
ENDCHAR
STARTCHAR 0033
ENCODING 51
SWIDTH 550 0
DWIDTH 13 0
BBX 10 17 1 0
BITMAP
7FC0
00C0
0100
0200
0400
0800
3E00
0180
0080
0040
0040
0040
0040
8040
C080
6180
3E00
ENDCHAR
STARTCHAR 0034
ENCODING 52
SWIDTH 592 0
DWIDTH 14 0
BBX 11 17 1 0
BITMAP
0200
0400
0400
0800
0800
1000
1000
2080
2080
4080
4080
C080
FFE0
0080
0080
0080
0080
ENDCHAR
STARTCHAR 0035
ENCODING 53
SWIDTH 592 0
DWIDTH 14 0
BBX 11 17 1 0
BITMAP
7FC0
4000
4000
4000
4000
4000
5F00
70C0
4040
0020
0020
0020
0020
8020
4040
30C0
1F00
ENDCHAR
STARTCHAR 0036
ENCODING 54
SWIDTH 635 0
DWIDTH 15 0
BBX 11 17 2 0
BITMAP
1F00
6180
4040
8000
8000
8000
9F00
E180
C040
8060
8020
8020
8020
8060
4040
6180
1F00
ENDCHAR
STARTCHAR 0037
ENCODING 55
SWIDTH 465 0
DWIDTH 11 0
BBX 9 17 1 0
BITMAP
FF80
0080
0080
0100
0100
0200
0200
0600
0400
0400
0800
0800
1800
1000
1000
2000
2000
ENDCHAR
STARTCHAR 0038
ENCODING 56
SWIDTH 550 0
DWIDTH 13 0
BBX 11 17 1 0
BITMAP
1F00
2080
4040
4040
4040
4040
2080
1F00
2080
4040
4060
8020
8020
4060
4040
20C0
1F00
ENDCHAR
STARTCHAR 0039
ENCODING 57
SWIDTH 635 0
DWIDTH 15 0
BBX 11 17 2 0
BITMAP
1F00
6180
4040
8060
8020
8020
8020
8060
4060
61A0
1F20
0020
0020
0020
4040
6180
1F00
ENDCHAR
STARTCHAR 003A
ENCODING 58
SWIDTH 254 0
DWIDTH 6 0
BBX 1 8 3 2
BITMAP
80
00
00
00
00
00
00
80
ENDCHAR
STARTCHAR 003B
ENCODING 59
SWIDTH 296 0
DWIDTH 7 0
BBX 1 15 3 -2
BITMAP
80
00
00
00
00
00
00
00
00
00
00
80
80
80
80
ENDCHAR
STARTCHAR 003C
ENCODING 60
SWIDTH 592 0
DWIDTH 14 0
BBX 6 11 3 2
BITMAP
04
0C
18
30
60
C0
60
30
18
0C
04
ENDCHAR
STARTCHAR 003D
ENCODING 61
SWIDTH 762 0
DWIDTH 18 0
BBX 12 5 3 6
BITMAP
FFF0
0000
0000
0000
FFF0
ENDCHAR
STARTCHAR 003E
ENCODING 62
SWIDTH 592 0
DWIDTH 14 0
BBX 6 11 5 2
BITMAP
80
40
20
10
08
0C
18
30
60
C0
80
ENDCHAR
STARTCHAR 003F
ENCODING 63
SWIDTH 508 0
DWIDTH 12 0
BBX 10 17 1 0
BITMAP
1E00
6180
4080
8040
0040
00C0
0080
0100
0600
0400
0800
0800
0000
0000
0000
0800
0800
ENDCHAR
STARTCHAR 0040
ENCODING 64
SWIDTH 889 0
DWIDTH 21 0
BBX 17 17 2 -2
BITMAP
03F000
0C0C00
300200
200100
400180
C00080
81D080
823080
841080
841080
823080
C3DF00
400000
600000
300000
1C0C00
03F000
ENDCHAR
STARTCHAR 0041
ENCODING 65
SWIDTH 592 0
DWIDTH 14 0
BBX 13 17 1 0
BITMAP
0600
0600
0500
0900
0900
0880
1080
1080
1040
2040
2060
6020
7FE0
4030
C010
8010
8008
ENDCHAR
STARTCHAR 0042
ENCODING 66
SWIDTH 592 0
DWIDTH 14 0
BBX 12 17 2 0
BITMAP
FF00
80C0
8040
8060
8020
8060
8040
80C0
FF80
80C0
8020
8020
8030
8020
8020
8040
FF80
ENDCHAR
STARTCHAR 0043
ENCODING 67
SWIDTH 720 0
DWIDTH 17 0
BBX 15 17 1 0
BITMAP
0FC0
3830
2008
4004
C004
8006
8000
8000
8000
8000
8000
8004
C004
4004
2008
3830
0FC0
ENDCHAR
STARTCHAR 0044
ENCODING 68
SWIDTH 635 0
DWIDTH 15 0
BBX 12 17 2 0
BITMAP
FF00
80C0
8060
8020
8010
8010
8010
8010
8010
8010
8010
8010
8010
8020
8060
80C0
FF00
ENDCHAR
STARTCHAR 0045
ENCODING 69
SWIDTH 550 0
DWIDTH 13 0
BBX 10 17 2 0
BITMAP
FFC0
8000
8000
8000
8000
8000
8000
8000
FF80
8000
8000
8000
8000
8000
8000
8000
FFC0
ENDCHAR
STARTCHAR 0046
ENCODING 70
SWIDTH 508 0
DWIDTH 12 0
BBX 9 17 2 0
BITMAP
FF80
8000
8000
8000
8000
8000
8000
8000
FF00
8000
8000
8000
8000
8000
8000
8000
8000
ENDCHAR
STARTCHAR 0047
ENCODING 71
SWIDTH 677 0
DWIDTH 16 0
BBX 15 17 1 0
BITMAP
0FC0
3830
6008
400C
8000
8000
8000
8000
807E
8004
8004
8004
C004
400C
2008
1830
0FC0
ENDCHAR
STARTCHAR 0048
ENCODING 72
SWIDTH 677 0
DWIDTH 16 0
BBX 12 17 2 0
BITMAP
8010
8010
8010
8010
8010
8010
8010
8010
FFF0
8010
8010
8010
8010
8010
8010
8010
8010
ENDCHAR
STARTCHAR 0049
ENCODING 73
SWIDTH 211 0
DWIDTH 5 0
BBX 1 17 2 0
BITMAP
80
80
80
80
80
80
80
80
80
80
80
80
80
80
80
80
80
ENDCHAR
STARTCHAR 004A
ENCODING 74
SWIDTH 423 0
DWIDTH 10 0
BBX 8 17 0 0
BITMAP
01
01
01
01
01
01
01
01
01
01
01
01
01
01
81
43
3C
ENDCHAR
STARTCHAR 004B
ENCODING 75
SWIDTH 550 0
DWIDTH 13 0
BBX 11 17 2 0
BITMAP
8040
8180
8300
8600
8C00
9800
B000
E000
C000
A000
9800
8C00
8600
8300
8180
80C0
8060
ENDCHAR
STARTCHAR 004C
ENCODING 76
SWIDTH 508 0
DWIDTH 12 0
BBX 9 17 2 0
BITMAP
8000
8000
8000
8000
8000
8000
8000
8000
8000
8000
8000
8000
8000
8000
8000
8000
FF80
ENDCHAR
STARTCHAR 004D
ENCODING 77
SWIDTH 847 0
DWIDTH 20 0
BBX 16 17 2 0
BITMAP
8001
8003
C003
C005
A005
A00D
B009
9009
9011
8811
8821
8421
8441
8241
8281
8181
8181
ENDCHAR
STARTCHAR 004E
ENCODING 78
SWIDTH 677 0
DWIDTH 16 0
BBX 12 17 2 0
BITMAP
8010
C010
C010
A010
B010
9010
8810
8410
8410
8210
8110
8110
8090
8050
8050
8030
8010
ENDCHAR
STARTCHAR 004F
ENCODING 79
SWIDTH 720 0
DWIDTH 17 0
BBX 15 17 1 0
BITMAP
0FC0
3830
2008
4004
C004
8006
8002
8002
8002
8002
8002
8006
C004
4004
2008
3830
0FC0
ENDCHAR
STARTCHAR 0050
ENCODING 80
SWIDTH 592 0
DWIDTH 14 0
BBX 11 17 2 0
BITMAP
FF00
80C0
8040
8020
8020
8020
8020
8040
80C0
FF00
8000
8000
8000
8000
8000
8000
8000
ENDCHAR
STARTCHAR 0051
ENCODING 81
SWIDTH 720 0
DWIDTH 17 0
BBX 15 17 1 0
BITMAP
0FC0
3830
2008
4004
C004
8006
8002
8002
8002
8002
8002
8006
C024
4034
2018
3834
0FC2
ENDCHAR
STARTCHAR 0052
ENCODING 82
SWIDTH 592 0
DWIDTH 14 0
BBX 11 17 2 0
BITMAP
FF00
80C0
8040
8020
8020
8020
8020
8040
80C0
FF00
8100
8080
8080
8040
8040
8020
8020
ENDCHAR
STARTCHAR 0053
ENCODING 83
SWIDTH 592 0
DWIDTH 14 0
BBX 12 17 1 0
BITMAP
1F80
20C0
4020
C010
8010
4000
6000
1C00
0380
0060
0030
0010
8010
8010
4030
2060
1F80
ENDCHAR
STARTCHAR 0054
ENCODING 84
SWIDTH 592 0
DWIDTH 14 0
BBX 14 17 0 0
BITMAP
FFFC
0200
0200
0200
0200
0200
0200
0200
0200
0200
0200
0200
0200
0200
0200
0200
0200
ENDCHAR
STARTCHAR 0055
ENCODING 85
SWIDTH 677 0
DWIDTH 16 0
BBX 13 17 2 0
BITMAP
8008
8008
8008
8008
8008
8008
8008
8008
8008
8008
8008
8008
8010
8010
4020
3060
1F80
ENDCHAR
STARTCHAR 0056
ENCODING 86
SWIDTH 592 0
DWIDTH 14 0
BBX 13 17 0 0
BITMAP
8008
4008
4008
4010
2010
2030
3020
1020
1040
0840
0840
0880
0480
0480
0500
0300
0300
ENDCHAR
STARTCHAR 0057
ENCODING 87
SWIDTH 889 0
DWIDTH 21 0
BBX 20 17 1 0
BITMAP
804010
806010
80E020
C0A020
40B020
409040
411040
211040
210840
230880
320880
120C80
120500
140500
0C0500
0C0300
0C0200
ENDCHAR
STARTCHAR 0058
ENCODING 88
SWIDTH 592 0
DWIDTH 14 0
BBX 12 17 1 0
BITMAP
8010
C020
4040
2040
3080
1100
0B00
0600
0400
0E00
0900
1100
3080
2040
4060
8020
8010
ENDCHAR
STARTCHAR 0059
ENCODING 89
SWIDTH 508 0
DWIDTH 12 0
BBX 12 17 0 0
BITMAP
8010
4020
6020
2040
1040
1080
0980
0900
0600
0600
0200
0200
0200
0200
0200
0200
0200
ENDCHAR
STARTCHAR 005A
ENCODING 90
SWIDTH 592 0
DWIDTH 14 0
BBX 12 17 1 0
BITMAP
FFE0
0020
0040
00C0
0080
0100
0100
0200
0400
0400
0800
1800
1000
2000
2000
4000
FFF0
ENDCHAR
STARTCHAR 005B
ENCODING 91
SWIDTH 381 0
DWIDTH 9 0
BBX 4 26 3 -5
BITMAP
F0
80
80
80
80
80
80
80
80
80
80
80
80
80
80
80
80
80
80
80
80
80
80
80
80
F0
ENDCHAR
STARTCHAR 005C
ENCODING 92
SWIDTH 338 0
DWIDTH 8 0
BBX 5 17 2 0
BITMAP
80
80
80
80
40
40
40
40
20
20
20
30
10
10
10
08
08
ENDCHAR
STARTCHAR 005D
ENCODING 93
SWIDTH 381 0
DWIDTH 9 0
BBX 4 26 2 -5
BITMAP
F0
10
10
10
10
10
10
10
10
10
10
10
10
10
10
10
10
10
10
10
10
10
10
10
10
F0
ENDCHAR
STARTCHAR 005E
ENCODING 94
SWIDTH 677 0
DWIDTH 16 0
BBX 10 6 3 11
BITMAP
0C00
1E00
3300
6180
C0C0
8040
ENDCHAR
STARTCHAR 005F
ENCODING 95
SWIDTH 677 0
DWIDTH 16 0
BBX 16 1 0 -2
BITMAP
FFFF
ENDCHAR
STARTCHAR 0060
ENCODING 96
SWIDTH 465 0
DWIDTH 11 0
BBX 2 3 4 19
BITMAP
80
40
40
ENDCHAR
STARTCHAR 0061
ENCODING 97
SWIDTH 550 0
DWIDTH 13 0
BBX 10 13 1 0
BITMAP
1F00
6080
4040
4040
0040
07C0
3840
C040
8040
8040
80C0
41C0
3E40
ENDCHAR
STARTCHAR 0062
ENCODING 98
SWIDTH 592 0
DWIDTH 14 0
BBX 11 17 2 0
BITMAP
8000
8000
8000
8000
9F00
A180
C0C0
8040
8040
8020
8020
8020
8040
8040
C0C0
E180
9F00
ENDCHAR
STARTCHAR 0063
ENCODING 99
SWIDTH 550 0
DWIDTH 13 0
BBX 11 13 1 0
BITMAP
1F00
30C0
4060
C000
8000
8000
8000
8000
8000
C000
4060
20C0
1F00
ENDCHAR
STARTCHAR 0064
ENCODING 100
SWIDTH 592 0
DWIDTH 14 0
BBX 11 17 1 0
BITMAP
0020
0020
0020
0020
1F20
20A0
4060
C060
8020
8020
8020
8020
8020
C060
4060
20A0
1F20
ENDCHAR
STARTCHAR 0065
ENCODING 101
SWIDTH 592 0
DWIDTH 14 0
BBX 12 13 1 0
BITMAP
1F00
30C0
4040
C020
8020
8020
FFF0
8000
8000
C020
4020
20C0
1F00
ENDCHAR
STARTCHAR 0066
ENCODING 102
SWIDTH 338 0
DWIDTH 8 0
BBX 7 17 1 0
BITMAP
1E
20
20
20
FE
20
20
20
20
20
20
20
20
20
20
20
20
ENDCHAR
STARTCHAR 0067
ENCODING 103
SWIDTH 592 0
DWIDTH 14 0
BBX 11 19 1 -6
BITMAP
1F20
20A0
4060
C060
8020
8020
8020
8020
8020
C060
4060
20A0
1F20
0020
0020
0060
4040
20C0
1F00
ENDCHAR
STARTCHAR 0068
ENCODING 104
SWIDTH 592 0
DWIDTH 14 0
BBX 10 17 2 0
BITMAP
8000
8000
8000
8000
9E00
E180
C080
8040
8040
8040
8040
8040
8040
8040
8040
8040
8040
ENDCHAR
STARTCHAR 0069
ENCODING 105
SWIDTH 211 0
DWIDTH 5 0
BBX 1 17 2 0
BITMAP
80
80
00
00
80
80
80
80
80
80
80
80
80
80
80
80
80
ENDCHAR
STARTCHAR 006A
ENCODING 106
SWIDTH 211 0
DWIDTH 5 0
BBX 3 23 0 -6
BITMAP
20
20
00
00
20
20
20
20
20
20
20
20
20
20
20
20
20
20
20
20
20
20
C0
ENDCHAR
STARTCHAR 006B
ENCODING 107
SWIDTH 465 0
DWIDTH 11 0
BBX 9 17 2 0
BITMAP
8000
8000
8000
8000
8300
8600
8C00
9800
B000
E000
C000
E000
9000
8800
8600
8300
8180
ENDCHAR
STARTCHAR 006C
ENCODING 108
SWIDTH 211 0
DWIDTH 5 0
BBX 1 17 2 0
BITMAP
80
80
80
80
80
80
80
80
80
80
80
80
80
80
80
80
80
ENDCHAR
STARTCHAR 006D
ENCODING 109
SWIDTH 804 0
DWIDTH 19 0
BBX 16 13 2 0
BITMAP
BC3C
C2C6
8183
8101
8101
8101
8101
8101
8101
8101
8101
8101
8101
ENDCHAR
STARTCHAR 006E
ENCODING 110
SWIDTH 592 0
DWIDTH 14 0
BBX 10 13 2 0
BITMAP
9E00
E180
C080
8040
8040
8040
8040
8040
8040
8040
8040
8040
8040
ENDCHAR
STARTCHAR 006F
ENCODING 111
SWIDTH 592 0
DWIDTH 14 0
BBX 12 13 1 0
BITMAP
1F00
30C0
4060
C020
8020
8030
8010
8030
8020
C020
4060
20C0
1F00
ENDCHAR
STARTCHAR 0070
ENCODING 112
SWIDTH 592 0
DWIDTH 14 0
BBX 11 18 2 -5
BITMAP
9F00
E180
C0C0
8040
8040
8020
8020
8020
8040
8040
C0C0
A180
9F00
8000
8000
8000
8000
8000
ENDCHAR
STARTCHAR 0071
ENCODING 113
SWIDTH 592 0
DWIDTH 14 0
BBX 11 18 1 -5
BITMAP
1F20
20A0
4060
C060
8020
8020
8020
8020
8020
C060
4060
20A0
1F20
0020
0020
0020
0020
0020
ENDCHAR
STARTCHAR 0072
ENCODING 114
SWIDTH 338 0
DWIDTH 8 0
BBX 5 13 2 0
BITMAP
B8
C0
80
80
80
80
80
80
80
80
80
80
80
ENDCHAR
STARTCHAR 0073
ENCODING 115
SWIDTH 508 0
DWIDTH 12 0
BBX 10 13 1 0
BITMAP
3F00
6180
C040
8040
4000
3000
0F00
0080
0040
0040
8040
6080
3F00
ENDCHAR
STARTCHAR 0074
ENCODING 116
SWIDTH 381 0
DWIDTH 9 0
BBX 8 17 0 0
BITMAP
10
10
10
10
FF
10
10
10
10
10
10
10
10
10
10
08
07
ENDCHAR
STARTCHAR 0075
ENCODING 117
SWIDTH 592 0
DWIDTH 14 0
BBX 11 13 1 0
BITMAP
8020
8020
8020
8020
8020
8020
8020
8020
4020
4060
4060
20A0
1F20
ENDCHAR
STARTCHAR 0076
ENCODING 118
SWIDTH 465 0
DWIDTH 11 0
BBX 10 13 1 0
BITMAP
8040
8080
8080
4180
4100
4100
2200
2200
3200
1400
1400
0C00
0800
ENDCHAR
STARTCHAR 0077
ENCODING 119
SWIDTH 762 0
DWIDTH 18 0
BBX 16 13 1 0
BITMAP
8101
8181
8182
4282
4242
4244
4444
2464
2424
2828
1828
1818
1810
ENDCHAR
STARTCHAR 0078
ENCODING 120
SWIDTH 508 0
DWIDTH 12 0
BBX 10 13 1 0
BITMAP
8040
4080
6180
2100
1200
0C00
0C00
0C00
1200
2100
4080
C0C0
8040
ENDCHAR
STARTCHAR 0079
ENCODING 121
SWIDTH 508 0
DWIDTH 12 0
BBX 10 18 1 -5
BITMAP
8040
8040
C080
4080
4080
2100
2100
3100
1200
1200
0E00
0C00
0400
0800
0800
0800
1000
1000
ENDCHAR
STARTCHAR 007A
ENCODING 122
SWIDTH 508 0
DWIDTH 12 0
BBX 10 13 1 0
BITMAP
FFC0
00C0
0080
0100
0200
0400
0C00
0800
1000
2000
4000
C000
FFC0
ENDCHAR
STARTCHAR 007B
ENCODING 123
SWIDTH 381 0
DWIDTH 9 0
BBX 4 26 4 -5
BITMAP
30
40
40
40
40
40
40
40
40
40
40
80
80
80
80
40
40
40
40
40
40
40
40
40
40
30
ENDCHAR
STARTCHAR 007C
ENCODING 124
SWIDTH 211 0
DWIDTH 5 0
BBX 1 17 2 0
BITMAP
80
80
80
80
80
80
80
80
80
80
80
80
80
80
80
80
80
ENDCHAR
STARTCHAR 007D
ENCODING 125
SWIDTH 381 0
DWIDTH 9 0
BBX 5 26 1 -5
BITMAP
E0
30
10
10
10
10
10
10
10
10
10
10
08
08
10
10
10
10
10
10
10
10
10
10
30
E0
ENDCHAR
STARTCHAR 007E
ENCODING 126
SWIDTH 635 0
DWIDTH 15 0
BBX 9 3 3 6
BITMAP
7080
D980
8F00
ENDCHAR
STARTCHAR 00A0
ENCODING 160
SWIDTH 211 0
DWIDTH 5 0
BBX 0 0 0 0
BITMAP
ENDCHAR
STARTCHAR 00A1
ENCODING 161
SWIDTH 296 0
DWIDTH 7 0
BBX 1 17 3 -4
BITMAP
80
80
00
00
80
80
80
80
80
80
80
80
80
80
80
80
80
ENDCHAR
STARTCHAR 00A2
ENCODING 162
SWIDTH 550 0
DWIDTH 13 0
BBX 11 18 1 -1
BITMAP
0400
0400
1F00
30C0
4060
4000
8000
8000
8000
8000
8000
8000
4000
4040
30C0
1F00
0400
0400
ENDCHAR
STARTCHAR 00A3
ENCODING 163
SWIDTH 550 0
DWIDTH 13 0
BBX 12 17 1 0
BITMAP
0780
0C40
1820
1030
1000
1000
1000
1000
FF80
1000
1000
1000
1000
1000
1000
1000
FFE0
ENDCHAR
STARTCHAR 00A4
ENCODING 164
SWIDTH 635 0
DWIDTH 15 0
BBX 13 13 1 2
BITMAP
8F98
70F0
6020
4010
C010
8010
8008
8010
8010
4010
6020
70F0
8F98
ENDCHAR
STARTCHAR 00A5
ENCODING 165
SWIDTH 508 0
DWIDTH 12 0
BBX 12 17 0 0
BITMAP
8010
4020
6020
2040
1040
1080
0980
0900
0600
0600
3FC0
0200
0200
3FC0
0200
0200
0200
ENDCHAR
STARTCHAR 00A6
ENCODING 166
SWIDTH 211 0
DWIDTH 5 0
BBX 1 20 2 -3
BITMAP
80
80
80
80
80
80
80
80
00
00
00
00
80
80
80
80
80
80
80
80
ENDCHAR
STARTCHAR 00A7
ENCODING 167
SWIDTH 508 0
DWIDTH 12 0
BBX 10 19 1 -4
BITMAP
1E00
6180
4080
4040
4000
3000
3F00
40C0
8040
8040
C040
30C0
0F00
0080
0040
0040
4040
6180
1F00
ENDCHAR
STARTCHAR 00A8
ENCODING 168
SWIDTH 465 0
DWIDTH 11 0
BBX 6 1 3 20
BITMAP
8C
ENDCHAR
STARTCHAR 00A9
ENCODING 169
SWIDTH 762 0
DWIDTH 18 0
BBX 16 16 1 0
BITMAP
07E0
1838
200C
43C6
C422
8813
8801
8801
8801
8801
8813
C422
43C6
200C
1838
07E0
ENDCHAR
STARTCHAR 00AA
ENCODING 170
SWIDTH 296 0
DWIDTH 7 0
BBX 5 6 1 7
BITMAP
78
88
18
E8
88
F8
ENDCHAR
STARTCHAR 00AB
ENCODING 171
SWIDTH 508 0
DWIDTH 12 0
BBX 8 10 2 1
BITMAP
19
12
26
44
88
C8
44
26
12
09
ENDCHAR
STARTCHAR 00AC
ENCODING 172
SWIDTH 592 0
DWIDTH 14 0
BBX 12 4 1 5
BITMAP
FFF0
0010
0010
0010
ENDCHAR
STARTCHAR 00AD
ENCODING 173
SWIDTH 423 0
DWIDTH 10 0
BBX 8 1 1 7
BITMAP
FF
ENDCHAR
STARTCHAR 00AE
ENCODING 174
SWIDTH 592 0
DWIDTH 14 0
BBX 11 11 2 7
BITMAP
1E00
6180
40C0
9E40
9220
9E20
9240
9240
40C0
6180
1E00
ENDCHAR
STARTCHAR 00AF
ENCODING 175
SWIDTH 465 0
DWIDTH 11 0
BBX 6 1 3 20
BITMAP
FC
ENDCHAR
STARTCHAR 00B0
ENCODING 176
SWIDTH 465 0
DWIDTH 11 0
BBX 8 8 1 9
BITMAP
3C
42
81
81
81
81
42
3C
ENDCHAR
STARTCHAR 00B1
ENCODING 177
SWIDTH 592 0
DWIDTH 14 0
BBX 12 11 1 2
BITMAP
0200
0200
0200
FFF0
0200
0200
0200
0200
0000
0000
FFF0
ENDCHAR
STARTCHAR 00B2
ENCODING 178
SWIDTH 381 0
DWIDTH 9 0
BBX 7 11 1 6
BITMAP
38
46
82
02
02
04
0C
10
20
40
FE
ENDCHAR
STARTCHAR 00B3
ENCODING 179
SWIDTH 381 0
DWIDTH 9 0
BBX 7 11 1 6
BITMAP
FC
04
18
30
78
04
04
02
84
C4
78
ENDCHAR
STARTCHAR 00B4
ENCODING 180
SWIDTH 465 0
DWIDTH 11 0
BBX 1 3 5 19
BITMAP
80
80
80
ENDCHAR
STARTCHAR 00B5
ENCODING 181
SWIDTH 592 0
DWIDTH 14 0
BBX 10 18 2 -5
BITMAP
8040
8040
8040
8040
8040
8040
8040
8040
8040
8040
C0C0
E1C0
9E40
8000
8000
8000
8000
8000
ENDCHAR
STARTCHAR 00B6
ENCODING 182
SWIDTH 592 0
DWIDTH 14 0
BBX 10 20 2 -3
BITMAP
1E40
7E40
7E40
FE40
FE40
FE40
FE40
7E40
7E40
3E40
0240
0240
0240
0240
0240
0240
0240
0240
0240
0240
ENDCHAR
STARTCHAR 00B7
ENCODING 183
SWIDTH 211 0
DWIDTH 5 0
BBX 1 2 2 6
BITMAP
80
80
ENDCHAR
STARTCHAR 00B8
ENCODING 184
SWIDTH 381 0
DWIDTH 9 0
BBX 3 6 3 -6
BITMAP
40
40
60
20
20
E0
ENDCHAR
STARTCHAR 00B9
ENCODING 185
SWIDTH 296 0
DWIDTH 7 0
BBX 3 11 1 6
BITMAP
20
E0
20
20
20
20
20
20
20
20
20
ENDCHAR
STARTCHAR 00BA
ENCODING 186
SWIDTH 338 0
DWIDTH 8 0
BBX 6 7 1 6
BITMAP
78
CC
84
84
84
CC
78
ENDCHAR
STARTCHAR 00BB
ENCODING 187
SWIDTH 508 0
DWIDTH 12 0
BBX 8 10 2 1
BITMAP
90
C8
44
22
13
13
22
44
C8
90
ENDCHAR
STARTCHAR 00BC
ENCODING 188
SWIDTH 931 0
DWIDTH 22 0
BBX 18 17 1 0
BITMAP
200200
E00600
200C00
200800
201000
202000
206100
20C200
208200
210400
230400
060880
040880
081080
101FC0
300080
200080
ENDCHAR
STARTCHAR 00BD
ENCODING 189
SWIDTH 889 0
DWIDTH 21 0
BBX 19 17 1 0
BITMAP
200200
E00600
200C00
200800
201000
202000
206380
20CC40
208840
210020
230040
060040
0C0080
080100
100200
300C00
200FE0
ENDCHAR
STARTCHAR 00BE
ENCODING 190
SWIDTH 931 0
DWIDTH 22 0
BBX 20 17 1 0
BITMAP
FC0080
040100
180300
300600
780400
040800
041080
023080
846100
C44100
788300
010220
030620
060420
0407F0
080020
100020
ENDCHAR
STARTCHAR 00BF
ENCODING 191
SWIDTH 508 0
DWIDTH 12 0
BBX 10 18 1 -5
BITMAP
0400
0400
0000
0000
0000
0400
0400
0800
0800
3000
6000
4000
8000
8040
8040
4080
6180
1E00
ENDCHAR
STARTCHAR 00C0
ENCODING 192
SWIDTH 592 0
DWIDTH 14 0
BBX 13 22 1 0
BITMAP
0400
0400
0400
0000
0000
0600
0600
0500
0900
0900
0880
1080
1080
1040
2040
2060
6020
7FE0
4030
C010
8010
8008
ENDCHAR
STARTCHAR 00C1
ENCODING 193
SWIDTH 592 0
DWIDTH 14 0
BBX 13 22 1 0
BITMAP
0100
0200
0200
0000
0000
0600
0600
0500
0900
0900
0880
1080
1080
1040
2040
2060
6020
7FE0
4030
C010
8010
8008
ENDCHAR
STARTCHAR 00C2
ENCODING 194
SWIDTH 592 0
DWIDTH 14 0
BBX 13 22 1 0
BITMAP
0600
0D00
0880
0000
0000
0600
0600
0500
0900
0900
0880
1080
1080
1040
2040
2060
6020
7FE0
4030
C010
8010
8008
ENDCHAR
STARTCHAR 00C3
ENCODING 195
SWIDTH 592 0
DWIDTH 14 0
BBX 13 22 1 0
BITMAP
1C00
1680
1180
0000
0000
0600
0600
0500
0900
0900
0880
1080
1080
1040
2040
2060
6020
7FE0
4030
C010
8010
8008
ENDCHAR
STARTCHAR 00C4
ENCODING 196
SWIDTH 592 0
DWIDTH 14 0
BBX 13 21 1 0
BITMAP
1880
0000
0000
0000
0600
0600
0500
0900
0900
0880
1080
1080
1040
2040
2060
6020
7FE0
4030
C010
8010
8008
ENDCHAR
STARTCHAR 00C5
ENCODING 197
SWIDTH 592 0
DWIDTH 14 0
BBX 13 23 1 0
BITMAP
0700
0900
0900
0900
0700
0000
0600
0600
0500
0900
0900
0880
1080
1080
1040
2040
2060
6020
7FE0
4030
C010
8010
8008
ENDCHAR
STARTCHAR 00C6
ENCODING 198
SWIDTH 889 0
DWIDTH 21 0
BBX 19 17 1 0
BITMAP
07FFE0
044000
044000
084000
084000
084000
104000
104000
107FC0
204000
204000
604000
7FC000
404000
C04000
804000
807FE0
ENDCHAR
STARTCHAR 00C7
ENCODING 199
SWIDTH 720 0
DWIDTH 17 0
BBX 15 22 1 -5
BITMAP
0FC0
3830
2008
4004
C004
8006
8000
8000
8000
8000
8000
8004
C004
4004
2008
3830
0FC0
0100
0100
0080
0080
0380
ENDCHAR
STARTCHAR 00C8
ENCODING 200
SWIDTH 550 0
DWIDTH 13 0
BBX 10 22 2 0
BITMAP
0800
0800
0400
0000
0000
FFC0
8000
8000
8000
8000
8000
8000
8000
FF80
8000
8000
8000
8000
8000
8000
8000
FFC0
ENDCHAR
STARTCHAR 00C9
ENCODING 201
SWIDTH 550 0
DWIDTH 13 0
BBX 10 22 2 0
BITMAP
0400
0400
0400
0000
0000
FFC0
8000
8000
8000
8000
8000
8000
8000
FF80
8000
8000
8000
8000
8000
8000
8000
FFC0
ENDCHAR
STARTCHAR 00CA
ENCODING 202
SWIDTH 550 0
DWIDTH 13 0
BBX 10 22 2 0
BITMAP
0C00
1600
2200
0000
0000
FFC0
8000
8000
8000
8000
8000
8000
8000
FF80
8000
8000
8000
8000
8000
8000
8000
FFC0
ENDCHAR
STARTCHAR 00CB
ENCODING 203
SWIDTH 550 0
DWIDTH 13 0
BBX 10 21 2 0
BITMAP
2200
0000
0000
0000
FFC0
8000
8000
8000
8000
8000
8000
8000
FF80
8000
8000
8000
8000
8000
8000
8000
FFC0
ENDCHAR
STARTCHAR 00CC
ENCODING 204
SWIDTH 211 0
DWIDTH 5 0
BBX 2 22 1 0
BITMAP
80
80
40
00
00
40
40
40
40
40
40
40
40
40
40
40
40
40
40
40
40
40
ENDCHAR
STARTCHAR 00CD
ENCODING 205
SWIDTH 211 0
DWIDTH 5 0
BBX 2 22 2 0
BITMAP
40
80
80
00
00
80
80
80
80
80
80
80
80
80
80
80
80
80
80
80
80
80
ENDCHAR
STARTCHAR 00CE
ENCODING 206
SWIDTH 211 0
DWIDTH 5 0
BBX 5 22 0 0
BITMAP
60
50
88
00
00
20
20
20
20
20
20
20
20
20
20
20
20
20
20
20
20
20
ENDCHAR
STARTCHAR 00CF
ENCODING 207
SWIDTH 211 0
DWIDTH 5 0
BBX 5 21 0 0
BITMAP
88
00
00
00
20
20
20
20
20
20
20
20
20
20
20
20
20
20
20
20
20
ENDCHAR
STARTCHAR 00D0
ENCODING 208
SWIDTH 635 0
DWIDTH 15 0
BBX 14 17 0 0
BITMAP
7FC0
4030
4018
4008
400C
4004
4004
4004
FE04
4004
4004
4004
400C
4008
4018
4030
7FC0
ENDCHAR
STARTCHAR 00D1
ENCODING 209
SWIDTH 677 0
DWIDTH 16 0
BBX 12 22 2 0
BITMAP
1C00
1680
1180
0000
0000
8010
C010
C010
A010
B010
9010
8810
8410
8410
8210
8110
8110
8090
8050
8050
8030
8010
ENDCHAR
STARTCHAR 00D2
ENCODING 210
SWIDTH 720 0
DWIDTH 17 0
BBX 15 22 1 0
BITMAP
0200
0200
0100
0000
0000
0FC0
3830
2008
4004
C004
8006
8002
8002
8002
8002
8002
8006
C004
4004
2008
3830
0FC0
ENDCHAR
STARTCHAR 00D3
ENCODING 211
SWIDTH 720 0
DWIDTH 17 0
BBX 15 22 1 0
BITMAP
0080
0080
0100
0000
0000
0FC0
3830
2008
4004
C004
8006
8002
8002
8002
8002
8002
8006
C004
4004
2008
3830
0FC0
ENDCHAR
STARTCHAR 00D4
ENCODING 212
SWIDTH 720 0
DWIDTH 17 0
BBX 15 22 1 0
BITMAP
0100
0280
0440
0000
0000
0FC0
3830
2008
4004
C004
8006
8002
8002
8002
8002
8002
8006
C004
4004
2008
3830
0FC0
ENDCHAR
STARTCHAR 00D5
ENCODING 213
SWIDTH 720 0
DWIDTH 17 0
BBX 15 21 1 0
BITMAP
0620
0920
08C0
0000
0FC0
3830
2008
4004
C004
8006
8002
8002
8002
8002
8002
8006
C004
4004
2008
3830
0FC0
ENDCHAR
STARTCHAR 00D6
ENCODING 214
SWIDTH 720 0
DWIDTH 17 0
BBX 15 21 1 0
BITMAP
0C40
0000
0000
0000
0FC0
3830
2008
4004
C004
8006
8002
8002
8002
8002
8002
8006
C004
4004
2008
3830
0FC0
ENDCHAR
STARTCHAR 00D7
ENCODING 215
SWIDTH 465 0
DWIDTH 11 0
BBX 8 8 2 4
BITMAP
83
46
2C
18
38
64
C2
81
ENDCHAR
STARTCHAR 00D8
ENCODING 216
SWIDTH 720 0
DWIDTH 17 0
BBX 16 17 0 0
BITMAP
07E1
0C1B
1006
2006
600A
4013
4021
4041
4081
4101
4201
4403
4802
3002
3004
4C18
87E0
ENDCHAR
STARTCHAR 00D9
ENCODING 217
SWIDTH 677 0
DWIDTH 16 0
BBX 13 22 2 0
BITMAP
0400
0400
0200
0000
0000
8008
8008
8008
8008
8008
8008
8008
8008
8008
8008
8008
8008
8010
8010
4020
3060
1F80
ENDCHAR
STARTCHAR 00DA
ENCODING 218
SWIDTH 677 0
DWIDTH 16 0
BBX 13 22 2 0
BITMAP
0200
0200
0400
0000
0000
8008
8008
8008
8008
8008
8008
8008
8008
8008
8008
8008
8008
8010
8010
4020
3060
1F80
ENDCHAR
STARTCHAR 00DB
ENCODING 219
SWIDTH 677 0
DWIDTH 16 0
BBX 13 22 2 0
BITMAP
0600
0D00
0880
0000
0000
8008
8008
8008
8008
8008
8008
8008
8008
8008
8008
8008
8008
8010
8010
4020
3060
1F80
ENDCHAR
STARTCHAR 00DC
ENCODING 220
SWIDTH 677 0
DWIDTH 16 0
BBX 13 21 2 0
BITMAP
1880
0000
0000
0000
8008
8008
8008
8008
8008
8008
8008
8008
8008
8008
8008
8008
8010
8010
4020
3060
1F80
ENDCHAR
STARTCHAR 00DD
ENCODING 221
SWIDTH 508 0
DWIDTH 12 0
BBX 12 22 0 0
BITMAP
0200
0200
0400
0000
0000
8010
4020
6020
2040
1040
1080
0980
0900
0600
0600
0200
0200
0200
0200
0200
0200
0200
ENDCHAR
STARTCHAR 00DE
ENCODING 222
SWIDTH 550 0
DWIDTH 13 0
BBX 11 17 2 0
BITMAP
8000
8000
8000
FF00
8180
8040
8040
8020
8020
8020
8040
8040
8180
FF00
8000
8000
8000
ENDCHAR
STARTCHAR 00DF
ENCODING 223
SWIDTH 592 0
DWIDTH 14 0
BBX 10 17 2 0
BITMAP
3C00
4300
8100
8180
8080
8100
8100
8600
8F00
8180
80C0
8040
8040
8040
80C0
8180
9E00
ENDCHAR
STARTCHAR 00E0
ENCODING 224
SWIDTH 550 0
DWIDTH 13 0
BBX 10 18 1 0
BITMAP
0800
0C00
0400
0000
0000
1F00
6080
4040
4040
0040
07C0
3840
C040
8040
8040
80C0
41C0
3E40
ENDCHAR
STARTCHAR 00E1
ENCODING 225
SWIDTH 550 0
DWIDTH 13 0
BBX 10 18 1 0
BITMAP
0200
0200
0400
0000
0000
1F00
6080
4040
4040
0040
07C0
3840
C040
8040
8040
80C0
41C0
3E40
ENDCHAR
STARTCHAR 00E2
ENCODING 226
SWIDTH 550 0
DWIDTH 13 0
BBX 10 18 1 0
BITMAP
0400
0A00
1100
0000
0000
1F00
6080
4040
4040
0040
07C0
3840
C040
8040
8040
80C0
41C0
3E40
ENDCHAR
STARTCHAR 00E3
ENCODING 227
SWIDTH 550 0
DWIDTH 13 0
BBX 10 17 1 0
BITMAP
1880
2480
2300
0000
1F00
6080
4040
4040
0040
07C0
3840
C040
8040
8040
80C0
41C0
3E40
ENDCHAR
STARTCHAR 00E4
ENCODING 228
SWIDTH 550 0
DWIDTH 13 0
BBX 10 17 1 0
BITMAP
1180
0000
0000
0000
1F00
6080
4040
4040
0040
07C0
3840
C040
8040
8040
80C0
41C0
3E40
ENDCHAR
STARTCHAR 00E5
ENCODING 229
SWIDTH 550 0
DWIDTH 13 0
BBX 10 19 1 0
BITMAP
0E00
1900
1100
1900
0E00
0000
1F00
6080
4040
4040
0040
07C0
3840
C040
8040
8040
80C0
41C0
3E40
ENDCHAR
STARTCHAR 00E6
ENCODING 230
SWIDTH 931 0
DWIDTH 22 0
BBX 20 13 1 0
BITMAP
1F0780
609860
407020
406010
006010
006010
3FFFF0
404000
806000
806010
80E010
419860
3E0780
ENDCHAR
STARTCHAR 00E7
ENCODING 231
SWIDTH 550 0
DWIDTH 13 0
BBX 11 18 1 -5
BITMAP
1F00
30C0
4060
C000
8000
8000
8000
8000
8000
C000
4060
20C0
1F00
0400
0400
0200
0200
0C00
ENDCHAR
STARTCHAR 00E8
ENCODING 232
SWIDTH 592 0
DWIDTH 14 0
BBX 12 18 1 0
BITMAP
0400
0400
0400
0000
0000
1F00
30C0
4040
C020
8020
8020
FFF0
8000
8000
C020
4020
20C0
1F00
ENDCHAR
STARTCHAR 00E9
ENCODING 233
SWIDTH 592 0
DWIDTH 14 0
BBX 12 18 1 0
BITMAP
0300
0200
0200
0000
0000
1F00
30C0
4040
C020
8020
8020
FFF0
8000
8000
C020
4020
20C0
1F00
ENDCHAR
STARTCHAR 00EA
ENCODING 234
SWIDTH 592 0
DWIDTH 14 0
BBX 12 18 1 0
BITMAP
0600
0A00
1900
0000
0000
1F00
30C0
4040
C020
8020
8020
FFF0
8000
8000
C020
4020
20C0
1F00
ENDCHAR
STARTCHAR 00EB
ENCODING 235
SWIDTH 592 0
DWIDTH 14 0
BBX 12 17 1 0
BITMAP
1180
0000
0000
0000
1F00
30C0
4040
C020
8020
8020
FFF0
8000
8000
C020
4020
20C0
1F00
ENDCHAR
STARTCHAR 00EC
ENCODING 236
SWIDTH 211 0
DWIDTH 5 0
BBX 2 18 1 0
BITMAP
80
80
40
00
00
40
40
40
40
40
40
40
40
40
40
40
40
40
ENDCHAR
STARTCHAR 00ED
ENCODING 237
SWIDTH 211 0
DWIDTH 5 0
BBX 2 18 2 0
BITMAP
40
80
80
00
00
80
80
80
80
80
80
80
80
80
80
80
80
80
ENDCHAR
STARTCHAR 00EE
ENCODING 238
SWIDTH 211 0
DWIDTH 5 0
BBX 5 18 0 0
BITMAP
60
50
88
00
00
20
20
20
20
20
20
20
20
20
20
20
20
20
ENDCHAR
STARTCHAR 00EF
ENCODING 239
SWIDTH 211 0
DWIDTH 5 0
BBX 5 17 0 0
BITMAP
88
00
00
00
20
20
20
20
20
20
20
20
20
20
20
20
20
ENDCHAR
STARTCHAR 00F0
ENCODING 240
SWIDTH 592 0
DWIDTH 14 0
BBX 12 18 1 0
BITMAP
0080
0F80
0180
02C0
0040
0020
1F20
20E0
4060
C030
8030
8030
8030
8020
8020
4060
20C0
1F00
ENDCHAR
STARTCHAR 00F1
ENCODING 241
SWIDTH 592 0
DWIDTH 14 0
BBX 10 17 2 0
BITMAP
3100
2900
0600
0000
9E00
E180
C080
8040
8040
8040
8040
8040
8040
8040
8040
8040
8040
ENDCHAR
STARTCHAR 00F2
ENCODING 242
SWIDTH 592 0
DWIDTH 14 0
BBX 12 18 1 0
BITMAP
0800
0400
0400
0000
0000
1F00
30C0
4060
C020
8020
8030
8010
8030
8020
C020
4060
20C0
1F00
ENDCHAR
STARTCHAR 00F3
ENCODING 243
SWIDTH 592 0
DWIDTH 14 0
BBX 12 18 1 0
BITMAP
0200
0200
0400
0000
0000
1F00
30C0
4060
C020
8020
8030
8010
8030
8020
C020
4060
20C0
1F00
ENDCHAR
STARTCHAR 00F4
ENCODING 244
SWIDTH 592 0
DWIDTH 14 0
BBX 12 18 1 0
BITMAP
0600
0A00
1900
0000
0000
1F00
30C0
4060
C020
8020
8030
8010
8030
8020
C020
4060
20C0
1F00
ENDCHAR
STARTCHAR 00F5
ENCODING 245
SWIDTH 592 0
DWIDTH 14 0
BBX 12 17 1 0
BITMAP
1880
1480
0380
0000
1F00
30C0
4060
C020
8020
8030
8010
8030
8020
C020
4060
20C0
1F00
ENDCHAR
STARTCHAR 00F6
ENCODING 246
SWIDTH 592 0
DWIDTH 14 0
BBX 12 17 1 0
BITMAP
1180
0000
0000
0000
1F00
30C0
4060
C020
8020
8030
8010
8030
8020
C020
4060
20C0
1F00
ENDCHAR
STARTCHAR 00F7
ENCODING 247
SWIDTH 550 0
DWIDTH 13 0
BBX 10 7 1 5
BITMAP
0400
0000
0000
FFC0
0000
0000
0400
ENDCHAR
STARTCHAR 00F8
ENCODING 248
SWIDTH 592 0
DWIDTH 14 0
BBX 12 13 1 0
BITMAP
1F10
30E0
4060
C0E0
81A0
8230
8410
8820
9020
A020
4060
E0C0
9F00
ENDCHAR
STARTCHAR 00F9
ENCODING 249
SWIDTH 592 0
DWIDTH 14 0
BBX 11 18 1 0
BITMAP
0400
0400
0400
0000
0000
8020
8020
8020
8020
8020
8020
8020
8020
4020
4060
4060
20A0
1F20
ENDCHAR
STARTCHAR 00FA
ENCODING 250
SWIDTH 592 0
DWIDTH 14 0
BBX 11 18 1 0
BITMAP
0200
0200
0400
0000
0000
8020
8020
8020
8020
8020
8020
8020
8020
4020
4060
4060
20A0
1F20
ENDCHAR
STARTCHAR 00FB
ENCODING 251
SWIDTH 592 0
DWIDTH 14 0
BBX 11 18 1 0
BITMAP
0600
0A00
1100
0000
0000
8020
8020
8020
8020
8020
8020
8020
8020
4020
4060
4060
20A0
1F20
ENDCHAR
STARTCHAR 00FC
ENCODING 252
SWIDTH 592 0
DWIDTH 14 0
BBX 11 17 1 0
BITMAP
1100
0000
0000
0000
8020
8020
8020
8020
8020
8020
8020
8020
4020
4060
4060
20A0
1F20
ENDCHAR
STARTCHAR 00FD
ENCODING 253
SWIDTH 508 0
DWIDTH 12 0
BBX 10 23 1 -5
BITMAP
0400
0400
0800
0000
0000
8040
8040
C080
4080
4080
2100
2100
3100
1200
1200
0E00
0C00
0400
0800
0800
0800
1000
1000
ENDCHAR
STARTCHAR 00FE
ENCODING 254
SWIDTH 592 0
DWIDTH 14 0
BBX 11 22 2 -5
BITMAP
8000
8000
8000
8000
9F00
A180
C0C0
8040
8040
8020
8020
8020
8040
8040
C0C0
A180
9F00
8000
8000
8000
8000
8000
ENDCHAR
STARTCHAR 00FF
ENCODING 255
SWIDTH 508 0
DWIDTH 12 0
BBX 10 22 1 -5
BITMAP
3300
0000
0000
0000
8040
8040
C080
4080
4080
2100
2100
3100
1200
1200
0E00
0C00
0400
0800
0800
0800
1000
1000
ENDCHAR
ENDFONT
