STARTFONT 2.1
COMMENT
COMMENT Converted from OpenType font "manrope-medium.otf" by "otf2bdf 3.0".
COMMENT
FONT -FreeType-Manrope Medium-Medium-R-Normal--29-210-100-100-P-135-ISO10646-1
SIZE 21 100 100
FONTBOUNDINGBOX 28 37 -1 -7
STARTPROPERTIES 19
FOUNDRY "FreeType"
FAMILY_NAME "Manrope Medium"
WEIGHT_NAME "Medium"
SLANT "R"
SETWIDTH_NAME "Normal"
ADD_STYLE_NAME ""
PIXEL_SIZE 29
POINT_SIZE 210
RESOLUTION_X 100
RESOLUTION_Y 100
SPACING "P"
AVERAGE_WIDTH 135
CHARSET_REGISTRY "ISO10646"
CHARSET_ENCODING "1"
FONT_ASCENT 30
FONT_DESCENT 8
COPYRIGHT "Copyright 2019-2021 The Manrope Project Authors (https://github.com/sharanda/manrope)"
_OTF_FONTFILE "manrope-medium.otf"
_OTF_PSNAME "Manrope-Medium"
ENDPROPERTIES
CHARS 191
STARTCHAR 0020
ENCODING 32
SWIDTH 205 0
DWIDTH 6 0
BBX 0 0 0 0
BITMAP
ENDCHAR
STARTCHAR 0021
ENCODING 33
SWIDTH 342 0
DWIDTH 10 0
BBX 3 21 3 0
BITMAP
E0
E0
E0
E0
E0
E0
E0
E0
E0
E0
E0
E0
E0
E0
E0
E0
00
00
E0
E0
E0
ENDCHAR
STARTCHAR 0022
ENCODING 34
SWIDTH 411 0
DWIDTH 12 0
BBX 7 5 2 16
BITMAP
C6
C6
C6
C6
C6
ENDCHAR
STARTCHAR 0023
ENCODING 35
SWIDTH 925 0
DWIDTH 27 0
BBX 23 21 2 0
BITMAP
0070E0
0070E0
0060C0
00E1C0
00E1C0
00E1C0
3FFFFE
3FFFFE
01C380
018300
018300
038700
038700
FFFFF8
FFFFF8
070E00
070E00
060C00
061C00
0E1C00
0E1C00
ENDCHAR
STARTCHAR 0024
ENCODING 36
SWIDTH 617 0
DWIDTH 18 0
BBX 16 27 1 -3
BITMAP
0180
0180
0180
0FE0
1FF8
3C7C
701E
700E
6006
7000
7000
3E00
1FC0
0FF8
01FC
001E
000E
0007
E006
E006
700E
3C1C
1FF8
0FE0
0180
0180
0180
ENDCHAR
STARTCHAR 0025
ENCODING 37
SWIDTH 891 0
DWIDTH 26 0
BBX 22 21 2 0
BITMAP
1E0010
7F8038
738078
E1C0F0
C0C1E0
C0C3C0
C0C780
E1CF00
7F9E00
3F3C00
007800
00F1E0
01E3F8
03C73C
078E0C
0F0C0C
1E0C0C
3C0E0C
78073C
7003F8
2001F0
ENDCHAR
STARTCHAR 0026
ENCODING 38
SWIDTH 651 0
DWIDTH 19 0
BBX 18 21 1 0
BITMAP
07E000
1FF000
1FF800
381C00
300000
300000
300000
380000
1C0000
1E0000
3F0000
7B8600
71C600
60E600
E07E00
E03E00
701E00
701F00
3FFF80
1FF9C0
07E080
ENDCHAR
STARTCHAR 0027
ENCODING 39
SWIDTH 240 0
DWIDTH 7 0
BBX 2 5 2 16
BITMAP
C0
C0
C0
C0
C0
ENDCHAR
STARTCHAR 0028
ENCODING 40
SWIDTH 445 0
DWIDTH 13 0
BBX 7 30 4 -5
BITMAP
04
0E
0E
1C
18
38
30
70
70
60
E0
E0
E0
C0
E0
C0
C0
E0
E0
E0
60
60
70
30
38
18
1C
0E
0E
04
ENDCHAR
STARTCHAR 0029
ENCODING 41
SWIDTH 445 0
DWIDTH 13 0
BBX 8 30 1 -5
BITMAP
20
E0
70
38
38
1C
1C
0C
0E
0E
06
06
06
07
07
07
07
06
06
06
0E
0E
0C
1C
1C
38
38
70
E0
60
ENDCHAR
STARTCHAR 002A
ENCODING 42
SWIDTH 445 0
DWIDTH 13 0
BBX 10 10 1 11
BITMAP
0C00
0C00
0C40
FDC0
FFC0
1E00
1E00
3F00
7380
2100
ENDCHAR
STARTCHAR 002B
ENCODING 43
SWIDTH 582 0
DWIDTH 17 0
BBX 13 14 2 4
BITMAP
0600
0600
0600
0600
0600
0600
FFF8
FFF8
0600
0600
0600
0600
0600
0600
ENDCHAR
STARTCHAR 002C
ENCODING 44
SWIDTH 274 0
DWIDTH 8 0
BBX 3 6 2 -4
BITMAP
E0
E0
E0
60
40
C0
ENDCHAR
STARTCHAR 002D
ENCODING 45
SWIDTH 411 0
DWIDTH 12 0
BBX 9 2 2 8
BITMAP
FF80
FF80
ENDCHAR
STARTCHAR 002E
ENCODING 46
SWIDTH 274 0
DWIDTH 8 0
BBX 3 3 2 0
BITMAP
E0
E0
E0
ENDCHAR
STARTCHAR 002F
ENCODING 47
SWIDTH 411 0
DWIDTH 12 0
BBX 8 21 2 0
BITMAP
07
07
06
0E
0E
0E
0C
1C
1C
18
18
38
38
30
70
70
70
60
E0
E0
E0
ENDCHAR
STARTCHAR 0030
ENCODING 48
SWIDTH 617 0
DWIDTH 18 0
BBX 14 21 2 0
BITMAP
0FC0
1FF0
3FF8
7038
E01C
E01C
E00C
E00C
E00C
E00C
E00C
E00C
E00C
E00C
E00C
E01C
E01C
7038
3FF8
1FF0
0FC0
ENDCHAR
STARTCHAR 0031
ENCODING 49
SWIDTH 411 0
DWIDTH 12 0
BBX 6 21 2 0
BITMAP
1C
7C
FC
EC
8C
0C
0C
0C
0C
0C
0C
0C
0C
0C
0C
0C
0C
0C
0C
0C
0C
ENDCHAR
STARTCHAR 0032
ENCODING 50
SWIDTH 582 0
DWIDTH 17 0
BBX 14 21 1 0
BITMAP
07C0
1FF0
3FF8
783C
701C
600C
600C
000C
001C
001C
0038
0070
01E0
03C0
0780
0F00
1E00
3C00
7000
FFFC
FFFC
ENDCHAR
STARTCHAR 0033
ENCODING 51
SWIDTH 548 0
DWIDTH 16 0
BBX 14 21 1 0
BITMAP
7FF8
7FF8
0038
0070
00E0
01C0
0380
0F00
1FC0
0FF0
0078
0038
0018
001C
001C
001C
E038
7038
7DF0
3FE0
0FC0
ENDCHAR
STARTCHAR 0034
ENCODING 52
SWIDTH 582 0
DWIDTH 17 0
BBX 15 21 1 0
BITMAP
01C0
01C0
0380
0380
0700
0700
0E00
0E00
1C00
1C38
3838
3838
7038
7038
E038
FFFE
FFFE
0038
0038
0038
0038
ENDCHAR
STARTCHAR 0035
ENCODING 53
SWIDTH 582 0
DWIDTH 17 0
BBX 13 21 2 0
BITMAP
7FF0
7FF0
6000
6000
E000
E000
E000
E000
FFC0
FFE0
F0F0
6038
0038
0018
0018
4018
E038
E078
7FF0
3FE0
0F80
ENDCHAR
STARTCHAR 0036
ENCODING 54
SWIDTH 617 0
DWIDTH 18 0
BBX 14 21 2 0
BITMAP
07C0
1FF0
3EF8
7030
6000
E000
E000
E000
EFE0
FFF0
F878
F01C
E01C
E00C
E00C
E00C
E01C
7038
3FF8
1FF0
07C0
ENDCHAR
STARTCHAR 0037
ENCODING 55
SWIDTH 514 0
DWIDTH 15 0
BBX 12 21 1 0
BITMAP
FFF0
FFF0
FFF0
0070
0070
00E0
00E0
00C0
01C0
01C0
0380
0380
0300
0700
0700
0E00
0E00
0C00
1C00
1C00
3800
ENDCHAR
STARTCHAR 0038
ENCODING 56
SWIDTH 582 0
DWIDTH 17 0
BBX 13 21 2 0
BITMAP
0F80
3FE0
7FF0
7078
E038
E038
E038
7078
7DF0
3FE0
7FF0
7078
E038
E018
C018
E018
E038
F038
7DF0
3FE0
0F80
ENDCHAR
STARTCHAR 0039
ENCODING 57
SWIDTH 617 0
DWIDTH 18 0
BBX 14 21 2 0
BITMAP
0FC0
3FE0
7FF0
7038
E01C
E01C
C01C
C01C
E01C
E03C
787C
3FFC
1FDC
001C
001C
001C
001C
3038
7DF0
3FE0
0FC0
ENDCHAR
STARTCHAR 003A
ENCODING 58
SWIDTH 308 0
DWIDTH 9 0
BBX 3 12 3 2
BITMAP
E0
E0
E0
00
00
00
00
00
00
E0
E0
E0
ENDCHAR
STARTCHAR 003B
ENCODING 59
SWIDTH 308 0
DWIDTH 9 0
BBX 3 19 3 -4
BITMAP
E0
E0
E0
00
00
00
00
00
00
00
00
00
00
E0
E0
E0
20
60
C0
ENDCHAR
STARTCHAR 003C
ENCODING 60
SWIDTH 617 0
DWIDTH 18 0
BBX 8 13 4 2
BITMAP
02
07
0F
1E
3C
78
F0
70
38
1C
0E
07
03
ENDCHAR
STARTCHAR 003D
ENCODING 61
SWIDTH 754 0
DWIDTH 22 0
BBX 15 7 3 7
BITMAP
FFFE
FFFE
0000
0000
0000
FFFE
FFFE
ENDCHAR
STARTCHAR 003E
ENCODING 62
SWIDTH 617 0
DWIDTH 18 0
BBX 8 13 6 2
BITMAP
40
E0
F0
78
3C
1E
0F
0E
1C
38
70
E0
C0
ENDCHAR
STARTCHAR 003F
ENCODING 63
SWIDTH 548 0
DWIDTH 16 0
BBX 13 21 1 0
BITMAP
0FC0
3FE0
7FF0
7038
6038
E038
0038
0038
0070
00F0
01E0
0380
0700
0700
0700
0000
0000
0000
0700
0700
0700
ENDCHAR
STARTCHAR 0040
ENCODING 64
SWIDTH 891 0
DWIDTH 26 0
BBX 22 22 2 -3
BITMAP
00FE00
07FF80
0F83E0
1E00F0
380070
300038
700018
60FB1C
61FF0C
E1870C
E3870C
E3030C
E3870C
E1871C
61FFF8
70F9F0
300000
380000
1C0000
0F8300
07FF00
00FE00
ENDCHAR
STARTCHAR 0041
ENCODING 65
SWIDTH 651 0
DWIDTH 19 0
BBX 17 21 1 0
BITMAP
03C000
03E000
03E000
076000
077000
067000
0E3000
0E3800
0C3800
1C1800
1C1C00
181C00
380C00
380E00
3FFE00
7FFE00
700700
600700
E00300
E00380
C00380
ENDCHAR
STARTCHAR 0042
ENCODING 66
SWIDTH 617 0
DWIDTH 18 0
BBX 15 21 2 0
BITMAP
FFE0
FFF0
E0F8
E01C
E01C
E00C
E01C
E01C
E078
FFF0
FFF8
E01C
E00E
E00E
E00E
E00E
E00E
E01E
E07C
FFF8
FFF0
ENDCHAR
STARTCHAR 0043
ENCODING 67
SWIDTH 720 0
DWIDTH 21 0
BBX 19 21 1 0
BITMAP
03F800
0FFE00
1FFF00
3C0380
7801C0
7001C0
E000E0
E00000
E00000
E00000
E00000
E00000
E00000
E00000
E000E0
7001E0
7801C0
3C0380
1FBF00
0FFE00
03F800
ENDCHAR
STARTCHAR 0044
ENCODING 68
SWIDTH 685 0
DWIDTH 20 0
BBX 17 21 2 0
BITMAP
FFE000
FFF800
E1FC00
E01E00
E00E00
E00700
E00700
E00700
E00300
E00380
E00380
E00380
E00300
E00700
E00700
E00700
E00E00
E01E00
E1FC00
FFF800
FFE000
ENDCHAR
STARTCHAR 0045
ENCODING 69
SWIDTH 582 0
DWIDTH 17 0
BBX 13 21 2 0
BITMAP
FFF8
FFF8
E000
E000
E000
E000
E000
E000
E000
FFF0
FFF0
E000
E000
E000
E000
E000
E000
E000
E000
FFF8
FFF8
ENDCHAR
STARTCHAR 0046
ENCODING 70
SWIDTH 514 0
DWIDTH 15 0
BBX 12 21 2 0
BITMAP
FFF0
FFF0
FFF0
E000
E000
E000
E000
E000
E000
FFE0
FFE0
FFE0
E000
E000
E000
E000
E000
E000
E000
E000
E000
ENDCHAR
STARTCHAR 0047
ENCODING 71
SWIDTH 720 0
DWIDTH 21 0
BBX 19 21 1 0
BITMAP
03F800
0FFE00
1FFF00
3C0780
7803C0
7001C0
E00000
E00000
E00000
E00000
E00FE0
E00FE0
E000E0
E000E0
E000E0
7001C0
7801C0
3C0380
1F9F00
0FFE00
03F800
ENDCHAR
STARTCHAR 0048
ENCODING 72
SWIDTH 685 0
DWIDTH 20 0
BBX 16 21 2 0
BITMAP
E003
E003
E003
E003
E003
E003
E003
E003
E003
FFFF
FFFF
E003
E003
E003
E003
E003
E003
E003
E003
E003
E003
ENDCHAR
STARTCHAR 0049
ENCODING 73
SWIDTH 240 0
DWIDTH 7 0
BBX 3 21 2 0
BITMAP
E0
E0
E0
E0
E0
E0
E0
E0
E0
E0
E0
E0
E0
E0
E0
E0
E0
E0
E0
E0
E0
ENDCHAR
STARTCHAR 004A
ENCODING 74
SWIDTH 480 0
DWIDTH 14 0
BBX 12 21 0 0
BITMAP
0070
0070
0070
0070
0070
0070
0070
0070
0070
0070
0070
0070
0070
0070
0070
0070
6060
E0E0
7BE0
3FC0
1F00
ENDCHAR
STARTCHAR 004B
ENCODING 75
SWIDTH 617 0
DWIDTH 18 0
BBX 15 21 2 0
BITMAP
E01E
E03C
E078
E070
E0E0
E1C0
E380
E700
EE00
FC00
FC00
FE00
EF00
E780
E3C0
E1E0
E0F0
E078
E038
E01C
E00E
ENDCHAR
STARTCHAR 004C
ENCODING 76
SWIDTH 514 0
DWIDTH 15 0
BBX 13 21 2 0
BITMAP
E000
E000
E000
E000
E000
E000
E000
E000
E000
E000
E000
E000
E000
E000
E000
E000
E000
E000
E000
FFF8
FFF8
ENDCHAR
STARTCHAR 004D
ENCODING 77
SWIDTH 857 0
DWIDTH 25 0
BBX 21 21 2 0
BITMAP
E00038
E00038
F00078
F00078
F800F8
F800F8
F801F8
FC01B8
EC03B8
EE0338
E60738
E70638
E30E38
E38E38
E19C38
E1DC38
E0F838
E0F838
E0F038
E07038
E06038
ENDCHAR
STARTCHAR 004E
ENCODING 78
SWIDTH 685 0
DWIDTH 20 0
BBX 16 21 2 0
BITMAP
E003
F003
F003
F803
FC03
FC03
EE03
E703
E703
E383
E1C3
E1C3
E0E3
E073
E073
E03B
E01F
E01F
E00F
E007
E007
ENDCHAR
STARTCHAR 004F
ENCODING 79
SWIDTH 720 0
DWIDTH 21 0
BBX 19 21 1 0
BITMAP
03F800
0FFE00
1FFF00
3C0780
7801C0
7001C0
E000E0
E000E0
E00060
E00060
E00060
E00060
E00060
E000E0
E000E0
7001E0
7801C0
3C0380
1F9F80
0FFE00
03F800
ENDCHAR
STARTCHAR 0050
ENCODING 80
SWIDTH 617 0
DWIDTH 18 0
BBX 15 21 2 0
BITMAP
FFE0
FFF8
E07C
E01C
E00E
E00E
E00E
E00E
E00E
E00E
E03C
FFF8
FFF0
E000
E000
E000
E000
E000
E000
E000
E000
ENDCHAR
STARTCHAR 0051
ENCODING 81
SWIDTH 720 0
DWIDTH 21 0
BBX 19 21 1 0
BITMAP
03F800
0FFE00
1FFF00
3C0780
7801C0
7001C0
E000E0
E000E0
E00060
E00060
E00060
E00060
E000E0
E000E0
E004E0
700EE0
7807C0
3C0380
1F9FC0
0FFEE0
03F840
ENDCHAR
STARTCHAR 0052
ENCODING 82
SWIDTH 651 0
DWIDTH 19 0
BBX 15 21 2 0
BITMAP
FFE0
FFF8
E07C
E01C
E00E
E00E
E00E
E00E
E00E
E00E
E03C
FFF8
FFF0
E070
E070
E038
E038
E01C
E01C
E00E
E00E
ENDCHAR
STARTCHAR 0053
ENCODING 83
SWIDTH 617 0
DWIDTH 18 0
BBX 16 21 1 0
BITMAP
07E0
1FF8
3FFC
780E
7007
7007
7000
7800
3E00
1FE0
07FC
007E
000F
0007
0003
E003
F007
780F
3F7E
1FFC
07F0
ENDCHAR
STARTCHAR 0054
ENCODING 84
SWIDTH 617 0
DWIDTH 18 0
BBX 17 21 0 0
BITMAP
FFFF80
FFFF80
01C000
01C000
01C000
01C000
01C000
01C000
01C000
01C000
01C000
01C000
01C000
01C000
01C000
01C000
01C000
01C000
01C000
01C000
01C000
ENDCHAR
STARTCHAR 0055
ENCODING 85
SWIDTH 720 0
DWIDTH 21 0
BBX 17 21 2 0
BITMAP
E00380
E00380
E00380
E00380
E00380
E00380
E00380
E00380
E00380
E00380
E00380
E00380
E00380
E00380
E00300
E00700
700700
780E00
3F7E00
1FF800
07F000
ENDCHAR
STARTCHAR 0056
ENCODING 86
SWIDTH 617 0
DWIDTH 18 0
BBX 18 21 0 0
BITMAP
E001C0
600180
700380
700380
300300
380700
380700
180600
1C0E00
1C0E00
0C0C00
0E1C00
0E1C00
061800
073800
073800
033000
03F000
03F000
01E000
01E000
ENDCHAR
STARTCHAR 0057
ENCODING 87
SWIDTH 960 0
DWIDTH 28 0
BBX 26 21 1 0
BITMAP
C01C01C0
E01E01C0
E01E01C0
E03E0180
603E0380
703F0380
70370300
30730700
38738700
38638600
38618600
18E18E00
1CE1CE00
1CC1CC00
0DC0DC00
0FC0FC00
0F80F800
0F807800
07807800
07807800
07007000
ENDCHAR
STARTCHAR 0058
ENCODING 88
SWIDTH 617 0
DWIDTH 18 0
BBX 17 21 1 0
BITMAP
E00700
F00F00
700E00
381C00
1C1C00
1C3800
0E7000
077000
07E000
03C000
03C000
03C000
07E000
0E7000
0E7000
1C3800
381C00
381C00
700E00
E00700
E00780
ENDCHAR
STARTCHAR 0059
ENCODING 89
SWIDTH 582 0
DWIDTH 17 0
BBX 16 21 0 0
BITMAP
E007
7007
700E
380E
1C1C
1C1C
0E38
0E70
0770
07E0
03E0
01C0
01C0
01C0
01C0
01C0
01C0
01C0
01C0
01C0
01C0
ENDCHAR
STARTCHAR 005A
ENCODING 90
SWIDTH 617 0
DWIDTH 18 0
BBX 16 21 1 0
BITMAP
7FFF
7FFE
000E
001C
0038
0038
0070
00F0
00E0
01C0
01C0
0380
0780
0700
0E00
0E00
1C00
3C00
3800
7FFF
FFFF
ENDCHAR
STARTCHAR 005B
ENCODING 91
SWIDTH 411 0
DWIDTH 12 0
BBX 6 32 4 -6
BITMAP
FC
FC
C0
C0
C0
C0
C0
C0
C0
C0
C0
C0
C0
C0
C0
C0
C0
C0
C0
C0
C0
C0
C0
C0
C0
C0
C0
C0
C0
C0
FC
FC
ENDCHAR
STARTCHAR 005C
ENCODING 92
SWIDTH 411 0
DWIDTH 12 0
BBX 8 21 2 0
BITMAP
E0
E0
E0
60
70
70
70
30
38
38
18
18
1C
1C
0C
0E
0E
0E
06
07
07
ENDCHAR
STARTCHAR 005D
ENCODING 93
SWIDTH 411 0
DWIDTH 12 0
BBX 6 32 2 -6
BITMAP
FC
FC
0C
0C
0C
0C
0C
0C
0C
0C
0C
0C
0C
0C
0C
0C
0C
0C
0C
0C
0C
0C
0C
0C
0C
0C
0C
0C
0C
0C
FC
FC
ENDCHAR
STARTCHAR 005E
ENCODING 94
SWIDTH 685 0
DWIDTH 20 0
BBX 14 8 3 14
BITMAP
0300
0780
0FC0
1CE0
3870
7038
E01C
4008
ENDCHAR
STARTCHAR 005F
ENCODING 95
SWIDTH 651 0
DWIDTH 19 0
BBX 19 2 0 -3
BITMAP
FFFFE0
FFFFE0
ENDCHAR
STARTCHAR 0060
ENCODING 96
SWIDTH 514 0
DWIDTH 15 0
BBX 4 5 5 23
BITMAP
C0
60
60
60
30
ENDCHAR
STARTCHAR 0061
ENCODING 97
SWIDTH 548 0
DWIDTH 16 0
BBX 14 16 1 0
BITMAP
0FC0
3FF0
3EF8
7038
201C
001C
03FC
1FFC
7F1C
701C
E01C
E03C
E03C
70FC
7FDC
1F9C
ENDCHAR
STARTCHAR 0062
ENCODING 98
SWIDTH 617 0
DWIDTH 18 0
BBX 14 21 2 0
BITMAP
E000
E000
E000
E000
E000
E7C0
FFF0
FDF8
F038
E01C
E01C
C01C
C00C
C00C
C01C
E01C
E01C
F038
FCF8
DFF0
C7C0
ENDCHAR
STARTCHAR 0063
ENCODING 99
SWIDTH 548 0
DWIDTH 16 0
BBX 14 16 1 0
BITMAP
07E0
1FF0
3FF8
781C
701C
E000
E000
E000
E000
E000
E000
701C
781C
3EF8
1FF0
07E0
ENDCHAR
STARTCHAR 0064
ENCODING 100
SWIDTH 617 0
DWIDTH 18 0
BBX 14 21 1 0
BITMAP
000C
000C
000C
000C
000C
07CC
1FEC
3EFC
781C
701C
E00C
E00C
E00C
E00C
E00C
E00C
701C
701C
3EFC
1FEC
0FCC
ENDCHAR
STARTCHAR 0065
ENCODING 101
SWIDTH 582 0
DWIDTH 17 0
BBX 15 16 1 0
BITMAP
07E0
1FF0
3E78
781C
700C
E00E
E00E
FFFE
FFFE
E000
E000
700C
701C
3EFC
1FF8
07E0
ENDCHAR
STARTCHAR 0066
ENCODING 102
SWIDTH 377 0
DWIDTH 11 0
BBX 9 21 1 0
BITMAP
0F80
1F80
1C00
1800
1800
FF80
FF80
1800
1800
1800
1800
1800
1800
1800
1800
1800
1800
1800
1800
1800
1800
ENDCHAR
STARTCHAR 0067
ENCODING 103
SWIDTH 617 0
DWIDTH 18 0
BBX 14 23 1 -7
BITMAP
07CC
1FFC
3EFC
781C
701C
E00C
E00C
E00C
E00C
E00C
E00C
701C
701C
3EFC
1FEC
0FCC
000C
000C
101C
781C
3FF8
1FF0
07E0
ENDCHAR
STARTCHAR 0068
ENCODING 104
SWIDTH 617 0
DWIDTH 18 0
BBX 14 21 2 0
BITMAP
C000
C000
C000
C000
C000
C7C0
DFF0
FFF8
F038
E038
E01C
E01C
E01C
E01C
E01C
E01C
E01C
E01C
E01C
E01C
E01C
ENDCHAR
STARTCHAR 0069
ENCODING 105
SWIDTH 240 0
DWIDTH 7 0
BBX 3 21 2 0
BITMAP
E0
E0
E0
00
00
E0
E0
E0
E0
E0
E0
E0
E0
E0
E0
E0
E0
E0
E0
E0
E0
ENDCHAR
STARTCHAR 006A
ENCODING 106
SWIDTH 274 0
DWIDTH 8 0
BBX 5 28 0 -7
BITMAP
18
18
18
00
00
18
18
18
18
18
18
18
18
18
18
18
18
18
18
18
18
18
18
18
18
78
F8
F0
ENDCHAR
STARTCHAR 006B
ENCODING 107
SWIDTH 514 0
DWIDTH 15 0
BBX 13 21 2 0
BITMAP
E000
E000
E000
E000
E000
E070
E0E0
E1C0
E3C0
E780
E700
EE00
FC00
FC00
EE00
E700
E380
E1C0
E1E0
E0F0
E078
ENDCHAR
STARTCHAR 006C
ENCODING 108
SWIDTH 240 0
DWIDTH 7 0
BBX 3 21 2 0
BITMAP
E0
E0
E0
E0
E0
E0
E0
E0
E0
E0
E0
E0
E0
E0
E0
E0
E0
E0
E0
E0
E0
ENDCHAR
STARTCHAR 006D
ENCODING 109
SWIDTH 857 0
DWIDTH 25 0
BBX 21 16 2 0
BITMAP
CF83E0
DFEFF0
F9FEF8
E07838
E07018
E07018
E07018
E07018
E07018
E07018
E07018
E07018
E07018
E07018
E07018
E07018
ENDCHAR
STARTCHAR 006E
ENCODING 110
SWIDTH 617 0
DWIDTH 18 0
BBX 14 16 2 0
BITMAP
C7C0
DFF0
FFF8
F038
E038
E01C
E01C
E01C
E01C
E01C
E01C
E01C
E01C
E01C
E01C
E01C
ENDCHAR
STARTCHAR 006F
ENCODING 111
SWIDTH 617 0
DWIDTH 18 0
BBX 15 16 1 0
BITMAP
07E0
1FF0
3FFC
781C
700E
E00E
E00E
E006
E006
E00E
E00E
700E
781C
3FFC
1FF8
07E0
ENDCHAR
STARTCHAR 0070
ENCODING 112
SWIDTH 617 0
DWIDTH 18 0
BBX 14 23 2 -7
BITMAP
C7C0
DFF0
FDF8
F038
E01C
E01C
C01C
C00C
C00C
C01C
E01C
E01C
F038
FCF8
FFF0
E7C0
E000
E000
E000
E000
E000
E000
E000
ENDCHAR
STARTCHAR 0071
ENCODING 113
SWIDTH 617 0
DWIDTH 18 0
BBX 14 23 1 -7
BITMAP
07CC
1FFC
3EFC
781C
701C
E00C
E00C
E00C
E00C
E00C
E00C
701C
701C
3EFC
1FEC
0FCC
000C
000C
000C
000C
000C
000C
000C
ENDCHAR
STARTCHAR 0072
ENCODING 114
SWIDTH 377 0
DWIDTH 11 0
BBX 8 16 2 0
BITMAP
C7
DF
FC
F0
E0
E0
E0
E0
E0
E0
E0
E0
E0
E0
E0
E0
ENDCHAR
STARTCHAR 0073
ENCODING 115
SWIDTH 514 0
DWIDTH 15 0
BBX 13 16 1 0
BITMAP
0FC0
3FE0
78F0
7038
6038
7000
7C00
1FC0
07F0
0078
0038
E018
F038
7C78
3FF0
0FC0
ENDCHAR
STARTCHAR 0074
ENCODING 116
SWIDTH 411 0
DWIDTH 12 0
BBX 11 20 0 0
BITMAP
1C00
1C00
1C00
1C00
FFE0
FFE0
1C00
1C00
1C00
1C00
1C00
1C00
1C00
1C00
1C00
1C00
0C00
0F00
0FE0
03E0
ENDCHAR
STARTCHAR 0075
ENCODING 117
SWIDTH 617 0
DWIDTH 18 0
BBX 14 16 2 0
BITMAP
C01C
C01C
C01C
C01C
C01C
C01C
C01C
C01C
C01C
C01C
E01C
E03C
F03C
7DFC
3FDC
1F9C
ENDCHAR
STARTCHAR 0076
ENCODING 118
SWIDTH 514 0
DWIDTH 15 0
BBX 13 16 1 0
BITMAP
C018
E018
E038
6030
7070
3070
3060
38E0
18E0
1CC0
1DC0
0DC0
0F80
0F80
0700
0700
ENDCHAR
STARTCHAR 0077
ENCODING 119
SWIDTH 788 0
DWIDTH 23 0
BBX 21 16 1 0
BITMAP
C07038
E07038
E0F030
60F830
70D870
70D860
31D860
319CE0
398CE0
3B8CC0
1B0FC0
1F07C0
1F0780
0E0780
0E0380
0E0300
ENDCHAR
STARTCHAR 0078
ENCODING 120
SWIDTH 548 0
DWIDTH 16 0
BBX 14 16 1 0
BITMAP
E01C
7038
7070
3870
1CE0
1FC0
0F80
0780
0780
0F80
1DC0
1CE0
3870
7070
F038
E01C
ENDCHAR
STARTCHAR 0079
ENCODING 121
SWIDTH 548 0
DWIDTH 16 0
BBX 14 23 1 -7
BITMAP
C01C
E01C
E018
7038
7038
3030
3870
3860
1C60
1CE0
0CC0
0FC0
0FC0
0780
0780
0300
0300
0700
0600
0E00
0E00
0C00
1C00
ENDCHAR
STARTCHAR 007A
ENCODING 122
SWIDTH 514 0
DWIDTH 15 0
BBX 13 16 1 0
BITMAP
FFF8
FFF8
0070
00E0
00C0
01C0
0380
0700
0700
0E00
1C00
3800
3800
7000
FFF8
FFF8
ENDCHAR
STARTCHAR 007B
ENCODING 123
SWIDTH 445 0
DWIDTH 13 0
BBX 7 32 4 -6
BITMAP
1E
3E
3C
30
30
30
30
30
30
30
30
30
30
30
70
E0
E0
70
70
30
30
30
30
30
30
30
30
30
30
38
3E
1E
ENDCHAR
STARTCHAR 007C
ENCODING 124
SWIDTH 274 0
DWIDTH 8 0
BBX 2 21 3 0
BITMAP
C0
C0
C0
C0
C0
C0
C0
C0
C0
C0
C0
C0
C0
C0
C0
C0
C0
C0
C0
C0
C0
ENDCHAR
STARTCHAR 007D
ENCODING 125
SWIDTH 445 0
DWIDTH 13 0
BBX 7 32 1 -6
BITMAP
F0
F8
3C
1C
1C
1C
1C
1C
1C
1C
1C
1C
1C
1C
0E
0E
06
0E
1C
1C
1C
1C
1C
1C
1C
1C
1C
1C
1C
1C
F8
F8
ENDCHAR
STARTCHAR 007E
ENCODING 126
SWIDTH 685 0
DWIDTH 20 0
BBX 13 6 3 6
BITMAP
3800
7E18
FF98
E7F8
E1F8
00F0
ENDCHAR
STARTCHAR 00A0
ENCODING 160
SWIDTH 205 0
DWIDTH 6 0
BBX 0 0 0 0
BITMAP
ENDCHAR
STARTCHAR 00A1
ENCODING 161
SWIDTH 342 0
DWIDTH 10 0
BBX 3 21 3 -5
BITMAP
E0
E0
E0
00
00
E0
E0
E0
E0
E0
E0
E0
E0
E0
E0
E0
E0
E0
E0
E0
E0
ENDCHAR
STARTCHAR 00A2
ENCODING 162
SWIDTH 548 0
DWIDTH 16 0
BBX 14 22 1 -1
BITMAP
0180
0180
0180
0FE0
1FF8
3C3C
701C
7008
E000
E000
E000
E000
E000
E000
700C
701C
3C78
1FF8
0FE0
0180
0180
0180
ENDCHAR
STARTCHAR 00A3
ENCODING 163
SWIDTH 582 0
DWIDTH 17 0
BBX 14 21 1 0
BITMAP
03E0
07F8
0FF8
0E1C
1C0C
1C0C
1C00
1C00
1C00
1C00
FFE0
FFE0
1C00
1C00
1C00
1C00
1C00
1C00
7C00
FFFC
FFFC
ENDCHAR
STARTCHAR 00A4
ENCODING 164
SWIDTH 651 0
DWIDTH 19 0
BBX 17 17 1 2
BITMAP
400100
E7F380
7FFF00
3C1E00
380E00
700700
600700
600300
600300
600300
600700
700700
380E00
3C1E00
7FFF00
E7F380
400100
ENDCHAR
STARTCHAR 00A5
ENCODING 165
SWIDTH 582 0
DWIDTH 17 0
BBX 16 21 0 0
BITMAP
E007
7007
780E
380E
1C1C
1C3C
0E38
0E70
0770
03E0
03E0
1FFC
1FFC
01C0
01C0
01C0
1FFC
1FFC
01C0
01C0
01C0
ENDCHAR
STARTCHAR 00A6
ENCODING 166
SWIDTH 274 0
DWIDTH 8 0
BBX 2 26 3 -5
BITMAP
C0
C0
C0
C0
C0
C0
C0
C0
C0
C0
C0
00
00
00
00
C0
C0
C0
C0
C0
C0
C0
C0
C0
C0
C0
ENDCHAR
STARTCHAR 00A7
ENCODING 167
SWIDTH 514 0
DWIDTH 15 0
BBX 13 23 1 -4
BITMAP
1FC0
3FE0
70F0
7070
6030
7000
3E00
1FC0
3FF0
7078
E038
E018
F018
7C38
3FF0
07F0
00F8
0038
6038
7038
7878
3FF0
1FE0
ENDCHAR
STARTCHAR 00A8
ENCODING 168
SWIDTH 514 0
DWIDTH 15 0
BBX 9 3 3 24
BITMAP
E380
E380
E380
ENDCHAR
STARTCHAR 00A9
ENCODING 169
SWIDTH 822 0
DWIDTH 24 0
BBX 22 22 1 -1
BITMAP
00FC00
07FF80
0FFFC0
1E01E0
380070
707C38
71FE38
E1871C
E3831C
C3000C
C3000C
C3000C
C3000C
E3831C
E1871C
71FE38
707C38
380070
1E01E0
0FFFC0
07FF80
00FE00
ENDCHAR
STARTCHAR 00AA
ENCODING 170
SWIDTH 308 0
DWIDTH 9 0
BBX 7 8 1 8
BITMAP
3C
7E
46
3E
76
C6
CE
7A
ENDCHAR
STARTCHAR 00AB
ENCODING 171
SWIDTH 548 0
DWIDTH 16 0
BBX 12 13 2 1
BITMAP
0420
0E30
1C60
18C0
31C0
6380
E300
7180
31C0
18E0
0C60
0E30
0400
ENDCHAR
STARTCHAR 00AC
ENCODING 172
SWIDTH 617 0
DWIDTH 18 0
BBX 14 6 2 5
BITMAP
FFFC
FFFC
000C
000C
000C
000C
ENDCHAR
STARTCHAR 00AD
ENCODING 173
SWIDTH 411 0
DWIDTH 12 0
BBX 9 2 2 8
BITMAP
FF80
FF80
ENDCHAR
STARTCHAR 00AE
ENCODING 174
SWIDTH 651 0
DWIDTH 19 0
BBX 14 15 2 8
BITMAP
0780
1FE0
3878
7018
678C
C44C
C444
C784
C48C
C4CC
644C
7018
3870
1FE0
0780
ENDCHAR
STARTCHAR 00AF
ENCODING 175
SWIDTH 480 0
DWIDTH 14 0
BBX 8 2 3 25
BITMAP
FF
FF
ENDCHAR
STARTCHAR 00B0
ENCODING 176
SWIDTH 445 0
DWIDTH 13 0
BBX 10 10 1 11
BITMAP
1E00
7F80
73C0
E1C0
C0C0
C0C0
E0C0
E1C0
7F80
3F00
ENDCHAR
STARTCHAR 00B1
ENCODING 177
SWIDTH 617 0
DWIDTH 18 0
BBX 14 14 2 2
BITMAP
0300
0300
0300
0300
FFFC
FFFC
0300
0300
0300
0300
0000
0000
FFFC
FFFC
ENDCHAR
STARTCHAR 00B2
ENCODING 178
SWIDTH 411 0
DWIDTH 12 0
BBX 9 13 1 8
BITMAP
1E00
7F00
6180
4180
0180
0180
0380
0700
0E00
1800
7000
FF80
FF80
ENDCHAR
STARTCHAR 00B3
ENCODING 179
SWIDTH 411 0
DWIDTH 12 0
BBX 9 14 1 7
BITMAP
7F80
7F80
0700
0E00
1C00
3E00
1F00
0300
0180
0180
4180
E300
7F00
1C00
ENDCHAR
STARTCHAR 00B4
ENCODING 180
SWIDTH 514 0
DWIDTH 15 0
BBX 4 5 6 23
BITMAP
70
60
60
C0
C0
ENDCHAR
STARTCHAR 00B5
ENCODING 181
SWIDTH 617 0
DWIDTH 18 0
BBX 14 23 2 -7
BITMAP
E01C
E01C
E01C
E01C
E01C
E01C
E01C
E01C
E01C
E01C
E01C
E01C
F03C
FFFC
FFEC
CF8C
C000
C000
C000
C000
C000
C000
C000
ENDCHAR
STARTCHAR 00B6
ENCODING 182
SWIDTH 651 0
DWIDTH 19 0
BBX 15 25 2 -4
BITMAP
0FE6
3FE6
7FE6
FFE6
FFE6
FFE6
FFE6
FFE6
FFE6
FFE6
7FE6
3FE6
1FE6
00E6
00E6
00E6
00E6
00E6
00E6
00E6
00E6
00E6
00E6
00E6
00E6
ENDCHAR
STARTCHAR 00B7
ENCODING 183
SWIDTH 240 0
DWIDTH 7 0
BBX 3 4 2 7
BITMAP
E0
E0
E0
40
ENDCHAR
STARTCHAR 00B8
ENCODING 184
SWIDTH 411 0
DWIDTH 12 0
BBX 4 7 4 -7
BITMAP
60
60
F0
30
30
F0
E0
ENDCHAR
STARTCHAR 00B9
ENCODING 185
SWIDTH 342 0
DWIDTH 10 0
BBX 4 13 2 8
BITMAP
70
F0
B0
30
30
30
30
30
30
30
30
30
30
ENDCHAR
STARTCHAR 00BA
ENCODING 186
SWIDTH 342 0
DWIDTH 10 0
BBX 8 8 1 8
BITMAP
3C
7E
C3
C3
C3
C3
7E
3C
ENDCHAR
STARTCHAR 00BB
ENCODING 187
SWIDTH 548 0
DWIDTH 16 0
BBX 12 13 2 1
BITMAP
4200
E700
6380
31C0
18C0
1C60
0C70
1CE0
38C0
3180
6380
C700
4200
ENDCHAR
STARTCHAR 00BC
ENCODING 188
SWIDTH 994 0
DWIDTH 29 0
BBX 23 21 2 0
BITMAP
700040
F000E0
B000C0
3001C0
300380
300700
300600
300E00
301C38
303830
303070
306060
30E0E0
01C0CC
0180CC
03018C
07018C
0E03FE
0C03FE
18000C
08000C
ENDCHAR
STARTCHAR 00BD
ENCODING 189
SWIDTH 960 0
DWIDTH 28 0
BBX 25 21 2 0
BITMAP
70004000
F000E000
B000C000
3001C000
30038000
30070000
30060000
300C1800
301C7E00
3038E300
3030C300
3060C180
30E00180
01C00300
01800700
03000E00
07001C00
0E003000
0C006000
1800FF80
0800FF80
ENDCHAR
STARTCHAR 00BE
ENCODING 190
SWIDTH 994 0
DWIDTH 29 0
BBX 26 21 1 0
BITMAP
7F800800
7F801C00
07001800
0E003000
1C007000
3E00E000
1F00C000
03018000
01838600
01870600
41860C00
E30C0C00
7F1C1800
1C381800
00703180
00603180
00E06180
01C07FC0
03807FC0
03000180
03000180
ENDCHAR
STARTCHAR 00BF
ENCODING 191
SWIDTH 548 0
DWIDTH 16 0
BBX 13 21 1 -5
BITMAP
0300
0300
0300
0000
0000
0000
0300
0300
0700
0F00
1E00
3C00
7800
7000
6000
E000
E038
7038
7870
3FF0
1FC0
ENDCHAR
STARTCHAR 00C0
ENCODING 192
SWIDTH 651 0
DWIDTH 19 0
BBX 17 28 1 0
BITMAP
070000
030000
030000
018000
018000
000000
000000
03C000
03E000
03E000
076000
077000
077000
0E3000
0E3800
0C3800
1C1800
1C1C00
181C00
380C00
380E00
3FFE00
7FFE00
700700
600700
E00300
E00380
C00380
ENDCHAR
STARTCHAR 00C1
ENCODING 193
SWIDTH 651 0
DWIDTH 19 0
BBX 17 28 1 0
BITMAP
006000
006000
00E000
00C000
00C000
000000
000000
03C000
03E000
03E000
076000
077000
067000
0E3000
0E3800
0C3800
1C1800
1C1C00
181C00
380C00
380E00
3FFE00
7FFE00
700700
600700
E00300
E00380
C00380
ENDCHAR
STARTCHAR 00C2
ENCODING 194
SWIDTH 651 0
DWIDTH 19 0
BBX 17 27 1 0
BITMAP
01C000
03E000
077000
0E3800
000000
000000
03C000
03E000
03E000
076000
077000
067000
0E3000
0E3800
0C3800
1C1800
1C1C00
181C00
380C00
380E00
3FFE00
7FFE00
700700
600700
E00300
E00380
C00380
ENDCHAR
STARTCHAR 00C3
ENCODING 195
SWIDTH 651 0
DWIDTH 19 0
BBX 17 28 1 0
BITMAP
071800
0F9800
0DF800
0C7000
000000
000000
000000
03C000
03E000
03E000
076000
077000
067000
0E3000
0E3800
0C3800
1C1800
1C1C00
181C00
380C00
380E00
3FFE00
7FFE00
700700
600700
E00300
E00380
C00380
ENDCHAR
STARTCHAR 00C4
ENCODING 196
SWIDTH 651 0
DWIDTH 19 0
BBX 17 27 1 0
BITMAP
0E3800
0E3800
0E3800
000000
000000
000000
03C000
03E000
03E000
076000
077000
067000
0E3000
0E3800
0C3800
1C1800
1C1C00
181C00
380C00
380E00
3FFE00
7FFE00
700700
600700
E00300
E00380
C00380
ENDCHAR
STARTCHAR 00C5
ENCODING 197
SWIDTH 651 0
DWIDTH 19 0
BBX 17 30 1 0
BITMAP
01C000
03E000
063000
063000
063000
03E000
01C000
000000
000000
03C000
03E000
03E000
076000
077000
067000
0E3000
0E3800
0C3800
1C1800
1C1C00
181C00
380C00
380E00
3FFE00
7FFE00
700700
600700
E00300
E00380
C00380
ENDCHAR
STARTCHAR 00C6
ENCODING 198
SWIDTH 925 0
DWIDTH 27 0
BBX 25 21 1 0
BITMAP
03FFFF80
03FFFF80
031C0000
071C0000
071C0000
061C0000
0E1C0000
0E1C0000
0C1C0000
1C1FFE00
1C1FFE00
181C0000
381C0000
381C0000
3FFC0000
7FFC0000
701C0000
601C0000
E01C0000
E01FFF80
C01FFF80
ENDCHAR
STARTCHAR 00C7
ENCODING 199
SWIDTH 720 0
DWIDTH 21 0
BBX 19 28 1 -7
BITMAP
03F800
0FFE00
1FFF00
3C0380
7801C0
7001C0
E000E0
E00000
E00000
E00000
E00000
E00000
E00000
E00000
E000E0
7000E0
7801C0
3C0380
1FBF00
0FFE00
03F800
006000
006000
007000
003000
003000
00F000
00E000
ENDCHAR
STARTCHAR 00C8
ENCODING 200
SWIDTH 582 0
DWIDTH 17 0
BBX 13 28 2 0
BITMAP
0E00
0600
0600
0300
0300
0000
0000
FFF8
FFF8
E000
E000
E000
E000
E000
E000
E000
FFF0
FFF0
E000
E000
E000
E000
E000
E000
E000
E000
FFF8
FFF8
ENDCHAR
STARTCHAR 00C9
ENCODING 201
SWIDTH 582 0
DWIDTH 17 0
BBX 13 28 2 0
BITMAP
00C0
0180
0180
0380
0300
0000
0000
FFF8
FFF8
E000
E000
E000
E000
E000
E000
E000
FFF0
FFF0
E000
E000
E000
E000
E000
E000
E000
E000
FFF8
FFF8
ENDCHAR
STARTCHAR 00CA
ENCODING 202
SWIDTH 582 0
DWIDTH 17 0
BBX 13 27 2 0
BITMAP
0700
0D80
1DC0
38E0
0000
0000
FFF8
FFF8
E000
E000
E000
E000
E000
E000
E000
FFF0
FFF0
E000
E000
E000
E000
E000
E000
E000
E000
FFF8
FFF8
ENDCHAR
STARTCHAR 00CB
ENCODING 203
SWIDTH 582 0
DWIDTH 17 0
BBX 13 27 2 0
BITMAP
38E0
38E0
38E0
0000
0000
0000
FFF8
FFF8
E000
E000
E000
E000
E000
E000
E000
FFF0
FFF0
E000
E000
E000
E000
E000
E000
E000
E000
FFF8
FFF8
ENDCHAR
STARTCHAR 00CC
ENCODING 204
SWIDTH 240 0
DWIDTH 7 0
BBX 4 28 1 0
BITMAP
C0
C0
60
60
70
00
00
70
70
70
70
70
70
70
70
70
70
70
70
70
70
70
70
70
70
70
70
70
ENDCHAR
STARTCHAR 00CD
ENCODING 205
SWIDTH 240 0
DWIDTH 7 0
BBX 4 28 2 0
BITMAP
30
30
30
60
60
00
00
E0
E0
E0
E0
E0
E0
E0
E0
E0
E0
E0
E0
E0
E0
E0
E0
E0
E0
E0
E0
E0
ENDCHAR
STARTCHAR 00CE
ENCODING 206
SWIDTH 240 0
DWIDTH 7 0
BBX 9 27 -1 0
BITMAP
1C00
3E00
7700
E380
0000
0000
1C00
1C00
1C00
1C00
1C00
1C00
1C00
1C00
1C00
1C00
1C00
1C00
1C00
1C00
1C00
1C00
1C00
1C00
1C00
1C00
1C00
ENDCHAR
STARTCHAR 00CF
ENCODING 207
SWIDTH 240 0
DWIDTH 7 0
BBX 9 27 -1 0
BITMAP
E380
E380
E380
0000
0000
0000
1C00
1C00
1C00
1C00
1C00
1C00
1C00
1C00
1C00
1C00
1C00
1C00
1C00
1C00
1C00
1C00
1C00
1C00
1C00
1C00
1C00
ENDCHAR
STARTCHAR 00D0
ENCODING 208
SWIDTH 685 0
DWIDTH 20 0
BBX 18 21 0 0
BITMAP
3FF800
3FFE00
387F00
380780
380380
3801C0
3801C0
3801C0
3800C0
FFC0C0
FFC0C0
3800C0
3801C0
3801C0
3801C0
380180
380380
380700
387F00
3FFE00
3FF800
ENDCHAR
STARTCHAR 00D1
ENCODING 209
SWIDTH 685 0
DWIDTH 20 0
BBX 16 27 2 0
BITMAP
0718
0FD8
0DF8
0070
0000
0000
E003
F003
F003
F803
FC03
FC03
EE03
E703
E703
E383
E1C3
E1C3
E0E3
E073
E073
E03B
E01F
E01F
E00F
E007
E007
ENDCHAR
STARTCHAR 00D2
ENCODING 210
SWIDTH 720 0
DWIDTH 21 0
BBX 19 28 1 0
BITMAP
018000
018000
01C000
00C000
00C000
000000
000000
03F800
0FFE00
1FFF00
3C0780
7801C0
7001C0
E000E0
E000E0
E00060
E00060
E00060
E00060
E00060
E000E0
E000E0
7001E0
7801C0
3C0380
1F9F80
0FFE00
03F800
ENDCHAR
STARTCHAR 00D3
ENCODING 211
SWIDTH 720 0
DWIDTH 21 0
BBX 19 28 1 0
BITMAP
001800
003000
003000
007000
006000
000000
000000
03F800
0FFE00
1FFF00
3C0780
7801C0
7001C0
E000E0
E000E0
E00060
E00060
E00060
E00060
E00060
E000E0
E000E0
7001E0
7801C0
3C0380
1F9F80
0FFE00
03F800
ENDCHAR
STARTCHAR 00D4
ENCODING 212
SWIDTH 720 0
DWIDTH 21 0
BBX 19 27 1 0
BITMAP
00E000
01F000
039800
071C00
000000
000000
03F800
0FFE00
1FFF00
3C0780
7801C0
7001C0
E000E0
E000E0
E00060
E00060
E00060
E00060
E00060
E000E0
E000E0
7001E0
7801C0
3C0380
1F9F80
0FFE00
03F800
ENDCHAR
STARTCHAR 00D5
ENCODING 213
SWIDTH 720 0
DWIDTH 21 0
BBX 19 27 1 0
BITMAP
038400
07E600
067C00
063C00
000000
000000
03F800
0FFE00
1FFF00
3C0780
7801C0
7001C0
E000E0
E000E0
E00060
E00060
E00060
E00060
E00060
E000E0
E000E0
7001E0
7801C0
3C0380
1F9F80
0FFE00
03F800
ENDCHAR
STARTCHAR 00D6
ENCODING 214
SWIDTH 720 0
DWIDTH 21 0
BBX 19 26 1 0
BITMAP
071C00
071C00
071C00
000000
000000
03F800
0FFE00
1FFF00
3C0780
7801C0
7001C0
E000E0
E000E0
E00060
E00060
E00060
E00060
E00060
E000E0
E000E0
7001E0
7801C0
3C0380
1F9F80
0FFE00
03F800
ENDCHAR
STARTCHAR 00D7
ENCODING 215
SWIDTH 480 0
DWIDTH 14 0
BBX 11 11 2 5
BITMAP
4040
E0E0
71C0
3B80
1F00
0E00
1F00
3B80
71C0
E0E0
4040
ENDCHAR
STARTCHAR 00D8
ENCODING 216
SWIDTH 720 0
DWIDTH 21 0
BBX 20 21 1 0
BITMAP
03F820
0FFE70
1FFFE0
3C03C0
7803C0
7007E0
E00EE0
E01CE0
E03860
E07060
E0E060
E1C060
E3C060
E780E0
EF00E0
7E01C0
7C01C0
7C0380
FF9F00
EFFE00
43F800
ENDCHAR
STARTCHAR 00D9
ENCODING 217
SWIDTH 720 0
DWIDTH 21 0
BBX 17 28 2 0
BITMAP
030000
030000
018000
018000
00C000
000000
000000
E00380
E00380
E00380
E00380
E00380
E00380
E00380
E00380
E00380
E00380
E00380
E00380
E00380
E00380
E00300
E00700
700700
780E00
3F7E00
1FF800
07F000
ENDCHAR
STARTCHAR 00DA
ENCODING 218
SWIDTH 720 0
DWIDTH 21 0
BBX 17 28 2 0
BITMAP
006000
00C000
00C000
00C000
018000
000000
000000
E00380
E00380
E00380
E00380
E00380
E00380
E00380
E00380
E00380
E00380
E00380
E00380
E00380
E00380
E00300
E00700
700700
780E00
3F7E00
1FF800
07F000
ENDCHAR
STARTCHAR 00DB
ENCODING 219
SWIDTH 720 0
DWIDTH 21 0
BBX 17 27 2 0
BITMAP
01C000
03E000
067000
0E3800
000000
000000
E00380
E00380
E00380
E00380
E00380
E00380
E00380
E00380
E00380
E00380
E00380
E00380
E00380
E00380
E00300
E00700
700700
780E00
3F7E00
1FF800
07F000
ENDCHAR
STARTCHAR 00DC
ENCODING 220
SWIDTH 720 0
DWIDTH 21 0
BBX 17 27 2 0
BITMAP
0E3000
0E3000
0E3000
000000
000000
000000
E00380
E00380
E00380
E00380
E00380
E00380
E00380
E00380
E00380
E00380
E00380
E00380
E00380
E00380
E00300
E00700
700700
780E00
3F7E00
1FF800
07F000
ENDCHAR
STARTCHAR 00DD
ENCODING 221
SWIDTH 582 0
DWIDTH 17 0
BBX 16 28 0 0
BITMAP
0060
00C0
00C0
00C0
0180
0000
0000
E007
7007
700E
380E
1C1C
1C1C
0E38
0E70
0770
07E0
03E0
01C0
01C0
01C0
01C0
01C0
01C0
01C0
01C0
01C0
01C0
ENDCHAR
STARTCHAR 00DE
ENCODING 222
SWIDTH 617 0
DWIDTH 18 0
BBX 15 21 2 0
BITMAP
E000
E000
E000
E000
FFE0
FFF0
E0F8
E01C
E00C
E00E
E00E
E00E
E00C
E01C
E0F8
FFF0
FFE0
E000
E000
E000
E000
ENDCHAR
STARTCHAR 00DF
ENCODING 223
SWIDTH 617 0
DWIDTH 18 0
BBX 14 21 2 0
BITMAP
1F80
3FC0
7FE0
E070
E070
E030
E070
E070
E1E0
E3C0
E3F0
E078
E01C
E01C
E01C
E01C
E01C
E03C
E7F8
E7F0
E7C0
ENDCHAR
STARTCHAR 00E0
ENCODING 224
SWIDTH 548 0
DWIDTH 16 0
BBX 14 23 1 0
BITMAP
0600
0600
0700
0300
0300
0000
0000
0FC0
3FF0
3EF8
7038
201C
001C
03FC
1FFC
7F1C
701C
E01C
E03C
E03C
70FC
7FDC
1F9C
ENDCHAR
STARTCHAR 00E1
ENCODING 225
SWIDTH 548 0
DWIDTH 16 0
BBX 14 23 1 0
BITMAP
00C0
00C0
0180
0180
0180
0000
0000
0FC0
3FF0
3EF8
7038
201C
001C
03FC
1FFC
7F1C
701C
E01C
E03C
E03C
70FC
7FDC
1F9C
ENDCHAR
STARTCHAR 00E2
ENCODING 226
SWIDTH 548 0
DWIDTH 16 0
BBX 14 22 1 0
BITMAP
0380
07C0
0EE0
1C70
0000
0000
0FC0
3FF0
3EF8
7038
201C
001C
03FC
1FFC
7F1C
701C
E01C
E03C
E03C
70FC
7FDC
1F9C
ENDCHAR
STARTCHAR 00E3
ENCODING 227
SWIDTH 548 0
DWIDTH 16 0
BBX 14 22 1 0
BITMAP
0E30
1FB0
19F0
18E0
0000
0000
0FC0
3FF0
3EF8
7038
201C
001C
03FC
1FFC
7F1C
701C
E01C
E03C
E03C
70FC
7FDC
1F9C
ENDCHAR
STARTCHAR 00E4
ENCODING 228
SWIDTH 548 0
DWIDTH 16 0
BBX 14 21 1 0
BITMAP
1C70
1C70
1C70
0000
0000
0FC0
3FF0
3EF8
7038
201C
001C
03FC
1FFC
7F1C
701C
E01C
E03C
E03C
70FC
7FDC
1F9C
ENDCHAR
STARTCHAR 00E5
ENCODING 229
SWIDTH 548 0
DWIDTH 16 0
BBX 14 24 1 0
BITMAP
0380
07C0
0C60
0C60
0C60
07C0
0380
0000
0FC0
3FF0
3EF8
7038
201C
001C
03FC
1FFC
7F1C
701C
E01C
E03C
E03C
70FC
7FDC
1F9C
ENDCHAR
STARTCHAR 00E6
ENCODING 230
SWIDTH 925 0
DWIDTH 27 0
BBX 25 16 1 0
BITMAP
0FC0F800
1FF3FE00
3EFF9F00
703E0700
601E0380
001C0380
001C0180
0FFFFF80
3FFFFF80
701C0000
E01C0000
E01C0300
E03E0780
70F7DF00
7FE3FE00
1F80F800
ENDCHAR
STARTCHAR 00E7
ENCODING 231
SWIDTH 548 0
DWIDTH 16 0
BBX 14 23 1 -7
BITMAP
07E0
1FF0
3FF8
781C
701C
E000
E000
E000
E000
E000
E000
700C
701C
3E78
1FF0
07E0
0100
0380
03C0
00C0
00C0
0780
0780
ENDCHAR
STARTCHAR 00E8
ENCODING 232
SWIDTH 582 0
DWIDTH 17 0
BBX 15 23 1 0
BITMAP
0600
0700
0300
0300
0180
0000
0000
07E0
1FF0
3E78
781C
700C
E00E
E00E
FFFE
FFFE
E000
E000
700C
701C
3EFC
1FF8
07E0
ENDCHAR
STARTCHAR 00E9
ENCODING 233
SWIDTH 582 0
DWIDTH 17 0
BBX 15 23 1 0
BITMAP
0060
00E0
00C0
00C0
0180
0000
0000
07E0
1FF0
3E78
781C
700C
E00E
E00E
FFFE
FFFE
E000
E000
700C
701C
3EFC
1FF8
07E0
ENDCHAR
STARTCHAR 00EA
ENCODING 234
SWIDTH 582 0
DWIDTH 17 0
BBX 15 22 1 0
BITMAP
0380
07C0
0E60
1C70
0000
0000
07E0
1FF0
3E78
781C
700C
E00E
E00E
FFFE
FFFE
E000
E000
700C
701C
3EFC
1FF8
07E0
ENDCHAR
STARTCHAR 00EB
ENCODING 235
SWIDTH 582 0
DWIDTH 17 0
BBX 15 21 1 0
BITMAP
0C70
0C70
0C70
0000
0000
07E0
1FF0
3E78
781C
700C
E00E
E00E
FFFE
FFFE
E000
E000
700C
701C
3EFC
1FF8
07E0
ENDCHAR
STARTCHAR 00EC
ENCODING 236
SWIDTH 240 0
DWIDTH 7 0
BBX 4 23 1 0
BITMAP
C0
C0
60
60
70
00
00
70
70
70
70
70
70
70
70
70
70
70
70
70
70
70
70
ENDCHAR
STARTCHAR 00ED
ENCODING 237
SWIDTH 240 0
DWIDTH 7 0
BBX 4 23 2 0
BITMAP
30
30
70
60
60
00
00
E0
E0
E0
E0
E0
E0
E0
E0
E0
E0
E0
E0
E0
E0
E0
E0
ENDCHAR
STARTCHAR 00EE
ENCODING 238
SWIDTH 240 0
DWIDTH 7 0
BBX 9 22 -1 0
BITMAP
1C00
3E00
7300
E380
0000
0000
1C00
1C00
1C00
1C00
1C00
1C00
1C00
1C00
1C00
1C00
1C00
1C00
1C00
1C00
1C00
1C00
ENDCHAR
STARTCHAR 00EF
ENCODING 239
SWIDTH 240 0
DWIDTH 7 0
BBX 9 21 -1 0
BITMAP
E380
E380
E380
0000
0000
1C00
1C00
1C00
1C00
1C00
1C00
1C00
1C00
1C00
1C00
1C00
1C00
1C00
1C00
1C00
1C00
ENDCHAR
STARTCHAR 00F0
ENCODING 240
SWIDTH 582 0
DWIDTH 17 0
BBX 15 23 1 0
BITMAP
0030
03B0
07E0
01F0
01F8
0198
001C
000C
0FEC
3FFE
383E
701E
600E
E00E
E00E
E00E
E00E
E00E
600C
701C
3EF8
1FF0
07E0
ENDCHAR
STARTCHAR 00F1
ENCODING 241
SWIDTH 617 0
DWIDTH 18 0
BBX 14 22 2 0
BITMAP
1C20
3F20
33E0
31E0
0000
0000
C7C0
DFF0
FFF8
F038
E038
E01C
E01C
E01C
E01C
E01C
E01C
E01C
E01C
E01C
E01C
E01C
ENDCHAR
STARTCHAR 00F2
ENCODING 242
SWIDTH 617 0
DWIDTH 18 0
BBX 15 23 1 0
BITMAP
0600
0600
0300
0300
0300
0000
0000
07E0
1FF0
3FFC
781C
700E
E00E
E00E
E006
E006
E00E
E00E
700E
781C
3FFC
1FF8
07E0
ENDCHAR
STARTCHAR 00F3
ENCODING 243
SWIDTH 617 0
DWIDTH 18 0
BBX 15 23 1 0
BITMAP
00E0
00C0
00C0
0180
0180
0000
0000
07E0
1FF0
3FFC
781C
700E
E00E
E00E
E006
E006
E00E
E00E
700E
781C
3FFC
1FF8
07E0
ENDCHAR
STARTCHAR 00F4
ENCODING 244
SWIDTH 617 0
DWIDTH 18 0
BBX 15 22 1 0
BITMAP
0380
07C0
0E60
1C70
0000
0000
07E0
1FF0
3FFC
781C
700E
E00E
E00E
E006
E006
E00E
E00E
700E
781C
3FFC
1FF8
07E0
ENDCHAR
STARTCHAR 00F5
ENCODING 245
SWIDTH 617 0
DWIDTH 18 0
BBX 15 22 1 0
BITMAP
0E10
1F90
19F0
18F0
0000
0000
07E0
1FF0
3FFC
781C
700E
E00E
E00E
E006
E006
E00E
E00E
700E
781C
3FFC
1FF8
07E0
ENDCHAR
STARTCHAR 00F6
ENCODING 246
SWIDTH 617 0
DWIDTH 18 0
BBX 15 21 1 0
BITMAP
0C70
0C70
0C70
0000
0000
07E0
1FF0
3FFC
781C
700E
E00E
E00E
E006
E006
E00E
E00E
700E
781C
3FFC
1FF8
07E0
ENDCHAR
STARTCHAR 00F7
ENCODING 247
SWIDTH 548 0
DWIDTH 16 0
BBX 12 11 2 5
BITMAP
0600
0600
0600
0000
0000
FFF0
FFF0
0000
0600
0600
0600
ENDCHAR
STARTCHAR 00F8
ENCODING 248
SWIDTH 617 0
DWIDTH 18 0
BBX 16 16 1 0
BITMAP
07E2
1FFF
3FFE
781C
703E
E07E
E0EE
E1C6
E386
E70E
EE0E
7C0E
781C
FEF8
FFF0
47E0
ENDCHAR
STARTCHAR 00F9
ENCODING 249
SWIDTH 617 0
DWIDTH 18 0
BBX 14 23 2 0
BITMAP
0C00
0600
0600
0600
0300
0000
0000
C01C
C01C
C01C
C01C
C01C
C01C
C01C
C01C
C01C
C01C
E01C
E03C
F03C
7DFC
3FDC
1F9C
ENDCHAR
STARTCHAR 00FA
ENCODING 250
SWIDTH 617 0
DWIDTH 18 0
BBX 14 23 2 0
BITMAP
0180
0180
0300
0300
0300
0000
0000
C01C
C01C
C01C
C01C
C01C
C01C
C01C
C01C
C01C
C01C
E01C
E03C
F03C
7DFC
3FDC
1F9C
ENDCHAR
STARTCHAR 00FB
ENCODING 251
SWIDTH 617 0
DWIDTH 18 0
BBX 14 22 2 0
BITMAP
0700
0D80
18C0
38E0
0000
0000
C01C
C01C
C01C
C01C
C01C
C01C
C01C
C01C
C01C
C01C
E01C
E03C
F03C
7DFC
3FDC
1F9C
ENDCHAR
STARTCHAR 00FC
ENCODING 252
SWIDTH 617 0
DWIDTH 18 0
BBX 14 21 2 0
BITMAP
38E0
38E0
38E0
0000
0000
C01C
C01C
C01C
C01C
C01C
C01C
C01C
C01C
C01C
C01C
E01C
E03C
F03C
7DFC
3FDC
1F9C
ENDCHAR
STARTCHAR 00FD
ENCODING 253
SWIDTH 548 0
DWIDTH 16 0
BBX 14 30 1 -7
BITMAP
01C0
0180
0180
0300
0300
0000
0000
C01C
E01C
E018
7038
7038
3030
3870
3860
1C60
1CE0
0CC0
0FC0
0FC0
0780
0780
0300
0300
0700
0600
0E00
0E00
0C00
1C00
ENDCHAR
STARTCHAR 00FE
ENCODING 254
SWIDTH 617 0
DWIDTH 18 0
BBX 14 28 2 -7
BITMAP
E000
E000
E000
E000
E000
E7C0
FFF0
FDF8
F038
E01C
E01C
C01C
C00C
C00C
C01C
E01C
E01C
F038
FCF8
FFF0
E7C0
E000
E000
E000
E000
E000
E000
E000
ENDCHAR
STARTCHAR 00FF
ENCODING 255
SWIDTH 548 0
DWIDTH 16 0
BBX 14 28 1 -7
BITMAP
1860
1860
1860
0000
0000
C01C
E01C
E018
7038
7038
3030
3870
3860
1C60
1CE0
0CC0
0FC0
0FC0
0780
0780
0300
0300
0700
0600
0E00
0E00
0C00
1C00
ENDCHAR
ENDFONT
