STARTFONT 2.1
COMMENT
COMMENT Converted from OpenType font "manrope-semibold.otf" by "otf2bdf 3.0".
COMMENT
FONT -FreeType-Manrope SemiBold-Medium-R-Normal--17-120-100-100-P-81-ISO10646-1
SIZE 12 100 100
FONTBOUNDINGBOX 17 21 -1 -4
STARTPROPERTIES 19
FOUNDRY "FreeType"
FAMILY_NAME "Manrope SemiBold"
WEIGHT_NAME "Medium"
SLANT "R"
SETWIDTH_NAME "Normal"
ADD_STYLE_NAME ""
PIXEL_SIZE 17
POINT_SIZE 120
RESOLUTION_X 100
RESOLUTION_Y 100
SPACING "P"
AVERAGE_WIDTH 81
CHARSET_REGISTRY "ISO10646"
CHARSET_ENCODING "1"
FONT_ASCENT 18
FONT_DESCENT 5
COPYRIGHT "Copyright 2019-2021 The Manrope Project Authors (https://github.com/sharanda/manrope)"
_OTF_FONTFILE "manrope-semibold.otf"
_OTF_PSNAME "Manrope-SemiBold"
ENDPROPERTIES
CHARS 191
STARTCHAR 0020
ENCODING 32
SWIDTH 180 0
DWIDTH 3 0
BBX 0 0 0 0
BITMAP
ENDCHAR
STARTCHAR 0021
ENCODING 33
SWIDTH 360 0
DWIDTH 6 0
BBX 2 12 2 0
BITMAP
C0
C0
C0
C0
C0
C0
C0
C0
C0
00
C0
C0
ENDCHAR
STARTCHAR 0022
ENCODING 34
SWIDTH 420 0
DWIDTH 7 0
BBX 5 3 1 9
BITMAP
D8
D8
D8
ENDCHAR
STARTCHAR 0023
ENCODING 35
SWIDTH 900 0
DWIDTH 15 0
BBX 13 12 1 0
BITMAP
0660
0660
0440
7FF8
7FF8
0CC0
0880
FFF0
FFF0
1980
1100
3300
ENDCHAR
STARTCHAR 0024
ENCODING 36
SWIDTH 600 0
DWIDTH 10 0
BBX 9 14 1 -1
BITMAP
1800
3C00
7F00
C300
C100
E000
7C00
1F00
0300
8180
C100
FF00
3E00
1800
ENDCHAR
STARTCHAR 0025
ENCODING 37
SWIDTH 900 0
DWIDTH 15 0
BBX 13 12 1 0
BITMAP
7810
FC30
CC60
CCC0
7980
0300
0600
0CF0
1998
3198
61F8
40F0
ENDCHAR
STARTCHAR 0026
ENCODING 38
SWIDTH 660 0
DWIDTH 11 0
BBX 9 12 1 0
BITMAP
3C00
7E00
4200
C000
6000
3000
F900
CD00
C700
C300
7F80
3C80
ENDCHAR
STARTCHAR 0027
ENCODING 39
SWIDTH 240 0
DWIDTH 4 0
BBX 2 3 1 9
BITMAP
C0
C0
C0
ENDCHAR
STARTCHAR 0028
ENCODING 40
SWIDTH 420 0
DWIDTH 7 0
BBX 4 17 2 -3
BITMAP
10
30
30
60
60
40
C0
C0
C0
C0
C0
40
60
60
20
30
10
ENDCHAR
STARTCHAR 0029
ENCODING 41
SWIDTH 420 0
DWIDTH 7 0
BBX 4 17 1 -3
BITMAP
80
C0
60
60
20
30
30
30
30
30
30
30
30
60
60
C0
C0
ENDCHAR
STARTCHAR 002A
ENCODING 42
SWIDTH 480 0
DWIDTH 8 0
BBX 5 6 1 6
BITMAP
20
20
F8
70
50
50
ENDCHAR
STARTCHAR 002B
ENCODING 43
SWIDTH 600 0
DWIDTH 10 0
BBX 8 7 1 3
BITMAP
10
10
10
FF
10
10
10
ENDCHAR
STARTCHAR 002C
ENCODING 44
SWIDTH 300 0
DWIDTH 5 0
BBX 2 4 1 -2
BITMAP
C0
C0
40
80
ENDCHAR
STARTCHAR 002D
ENCODING 45
SWIDTH 420 0
DWIDTH 7 0
BBX 5 1 1 5
BITMAP
F8
ENDCHAR
STARTCHAR 002E
ENCODING 46
SWIDTH 300 0
DWIDTH 5 0
BBX 2 2 1 0
BITMAP
C0
C0
ENDCHAR
STARTCHAR 002F
ENCODING 47
SWIDTH 420 0
DWIDTH 7 0
BBX 5 12 1 0
BITMAP
18
18
10
30
30
20
60
60
60
40
C0
C0
ENDCHAR
STARTCHAR 0030
ENCODING 48
SWIDTH 660 0
DWIDTH 11 0
BBX 9 12 1 0
BITMAP
3C00
7F00
C300
C100
C180
C180
C180
C180
C100
C300
7F00
3C00
ENDCHAR
STARTCHAR 0031
ENCODING 49
SWIDTH 420 0
DWIDTH 7 0
BBX 4 12 1 0
BITMAP
70
F0
B0
30
30
30
30
30
30
30
30
30
ENDCHAR
STARTCHAR 0032
ENCODING 50
SWIDTH 600 0
DWIDTH 10 0
BBX 8 12 1 0
BITMAP
3C
7E
C3
C3
03
07
0E
1C
38
60
FF
FF
ENDCHAR
STARTCHAR 0033
ENCODING 51
SWIDTH 600 0
DWIDTH 10 0
BBX 8 12 1 0
BITMAP
FE
FE
0C
18
38
3E
06
02
03
C6
FE
7C
ENDCHAR
STARTCHAR 0034
ENCODING 52
SWIDTH 600 0
DWIDTH 10 0
BBX 8 12 1 0
BITMAP
18
18
18
30
30
66
66
C6
FF
FF
06
06
ENDCHAR
STARTCHAR 0035
ENCODING 53
SWIDTH 600 0
DWIDTH 10 0
BBX 8 12 1 0
BITMAP
7E
FE
C0
C0
FC
FE
03
03
03
C3
7E
3C
ENDCHAR
STARTCHAR 0036
ENCODING 54
SWIDTH 600 0
DWIDTH 10 0
BBX 8 12 1 0
BITMAP
3E
7F
E0
C0
C8
FE
E3
C1
C1
C3
7F
3C
ENDCHAR
STARTCHAR 0037
ENCODING 55
SWIDTH 540 0
DWIDTH 9 0
BBX 7 12 1 0
BITMAP
FE
FE
06
0C
0C
18
18
18
30
30
60
60
ENDCHAR
STARTCHAR 0038
ENCODING 56
SWIDTH 600 0
DWIDTH 10 0
BBX 8 12 1 0
BITMAP
3C
7E
C3
C3
67
7E
7E
C3
C3
C3
7E
3C
ENDCHAR
STARTCHAR 0039
ENCODING 57
SWIDTH 600 0
DWIDTH 10 0
BBX 8 12 1 0
BITMAP
3C
7E
C3
C3
C3
E3
7F
1B
03
03
7E
3C
ENDCHAR
STARTCHAR 003A
ENCODING 58
SWIDTH 300 0
DWIDTH 5 0
BBX 2 7 2 1
BITMAP
C0
C0
00
00
00
C0
C0
ENDCHAR
STARTCHAR 003B
ENCODING 59
SWIDTH 360 0
DWIDTH 6 0
BBX 2 11 2 -2
BITMAP
C0
C0
00
00
00
00
00
C0
C0
40
80
ENDCHAR
STARTCHAR 003C
ENCODING 60
SWIDTH 660 0
DWIDTH 11 0
BBX 4 8 3 1
BITMAP
10
30
60
C0
C0
60
30
10
ENDCHAR
STARTCHAR 003D
ENCODING 61
SWIDTH 780 0
DWIDTH 13 0
BBX 8 4 2 4
BITMAP
FF
00
00
FF
ENDCHAR
STARTCHAR 003E
ENCODING 62
SWIDTH 660 0
DWIDTH 11 0
BBX 5 8 3 1
BITMAP
40
60
30
18
18
70
E0
40
ENDCHAR
STARTCHAR 003F
ENCODING 63
SWIDTH 540 0
DWIDTH 9 0
BBX 7 12 1 0
BITMAP
3C
FE
C6
06
06
0C
18
10
30
00
30
30
ENDCHAR
STARTCHAR 0040
ENCODING 64
SWIDTH 900 0
DWIDTH 15 0
BBX 13 13 1 -2
BITMAP
0F80
3CE0
6030
6010
4F98
C898
C898
C898
4FF0
6020
3000
3C80
0F80
ENDCHAR
STARTCHAR 0041
ENCODING 65
SWIDTH 660 0
DWIDTH 11 0
BBX 10 12 0 0
BITMAP
0E00
0E00
1B00
1B00
1B00
3180
3180
3F80
7F80
60C0
60C0
C040
ENDCHAR
STARTCHAR 0042
ENCODING 66
SWIDTH 600 0
DWIDTH 10 0
BBX 9 12 1 0
BITMAP
FE00
FF00
C300
C100
C300
FE00
FF00
C180
C180
C180
FF00
FE00
ENDCHAR
STARTCHAR 0043
ENCODING 67
SWIDTH 720 0
DWIDTH 12 0
BBX 11 12 0 0
BITMAP
0F80
3FC0
7060
6060
6000
C000
C000
4000
6060
7060
3FC0
0F80
ENDCHAR
STARTCHAR 0044
ENCODING 68
SWIDTH 720 0
DWIDTH 12 0
BBX 10 12 1 0
BITMAP
FE00
FF00
C180
C180
C0C0
C0C0
C0C0
C0C0
C180
C180
FF00
FE00
ENDCHAR
STARTCHAR 0045
ENCODING 69
SWIDTH 600 0
DWIDTH 10 0
BBX 8 12 1 0
BITMAP
FF
FF
C0
C0
C0
FE
FE
C0
C0
C0
FF
FF
ENDCHAR
STARTCHAR 0046
ENCODING 70
SWIDTH 540 0
DWIDTH 9 0
BBX 7 12 1 0
BITMAP
FE
FE
C0
C0
C0
FC
FC
C0
C0
C0
C0
C0
ENDCHAR
STARTCHAR 0047
ENCODING 71
SWIDTH 720 0
DWIDTH 12 0
BBX 12 12 0 0
BITMAP
0F80
3FC0
7060
6060
4000
C000
41F0
6020
6060
7060
3FC0
0F80
ENDCHAR
STARTCHAR 0048
ENCODING 72
SWIDTH 720 0
DWIDTH 12 0
BBX 10 12 1 0
BITMAP
C0C0
C0C0
C0C0
C0C0
C0C0
FFC0
FFC0
C0C0
C0C0
C0C0
C0C0
C0C0
ENDCHAR
STARTCHAR 0049
ENCODING 73
SWIDTH 240 0
DWIDTH 4 0
BBX 2 12 1 0
BITMAP
C0
C0
C0
C0
C0
C0
C0
C0
C0
C0
C0
C0
ENDCHAR
STARTCHAR 004A
ENCODING 74
SWIDTH 480 0
DWIDTH 8 0
BBX 7 12 0 0
BITMAP
06
06
06
06
06
06
06
06
06
C6
FC
38
ENDCHAR
STARTCHAR 004B
ENCODING 75
SWIDTH 660 0
DWIDTH 11 0
BBX 9 12 1 0
BITMAP
C380
C300
C600
CC00
D800
F000
F000
D800
CC00
C600
C300
C180
ENDCHAR
STARTCHAR 004C
ENCODING 76
SWIDTH 540 0
DWIDTH 9 0
BBX 8 12 1 0
BITMAP
C0
C0
C0
C0
C0
C0
C0
C0
C0
C0
FF
FF
ENDCHAR
STARTCHAR 004D
ENCODING 77
SWIDTH 840 0
DWIDTH 14 0
BBX 12 12 1 0
BITMAP
C030
C030
E070
E070
F0F0
D0F0
D9B0
C9B0
CF30
C730
C630
C630
ENDCHAR
STARTCHAR 004E
ENCODING 78
SWIDTH 720 0
DWIDTH 12 0
BBX 10 12 1 0
BITMAP
C0C0
E0C0
F0C0
F0C0
D8C0
CCC0
CCC0
C6C0
C3C0
C3C0
C1C0
C1C0
ENDCHAR
STARTCHAR 004F
ENCODING 79
SWIDTH 720 0
DWIDTH 12 0
BBX 12 12 0 0
BITMAP
0F80
3FC0
7060
6060
6030
C030
C030
4030
6060
7060
3FC0
0F80
ENDCHAR
STARTCHAR 0050
ENCODING 80
SWIDTH 600 0
DWIDTH 10 0
BBX 9 12 1 0
BITMAP
FE00
FF00
C180
C180
C180
C180
FF00
FC00
C000
C000
C000
C000
ENDCHAR
STARTCHAR 0051
ENCODING 81
SWIDTH 720 0
DWIDTH 12 0
BBX 12 12 0 0
BITMAP
0F80
3FC0
7060
6060
6030
C030
C030
4030
61E0
70E0
3FE0
0FA0
ENDCHAR
STARTCHAR 0052
ENCODING 82
SWIDTH 660 0
DWIDTH 11 0
BBX 9 12 1 0
BITMAP
FE00
FF00
C180
C180
C180
C180
FF00
FE00
C600
C300
C300
C180
ENDCHAR
STARTCHAR 0053
ENCODING 83
SWIDTH 660 0
DWIDTH 11 0
BBX 9 12 1 0
BITMAP
3E00
7F00
C180
C180
E000
7C00
0F00
0180
C180
C180
7F00
3E00
ENDCHAR
STARTCHAR 0054
ENCODING 84
SWIDTH 600 0
DWIDTH 10 0
BBX 10 12 0 0
BITMAP
FFC0
FFC0
0C00
0C00
0C00
0C00
0C00
0C00
0C00
0C00
0C00
0C00
ENDCHAR
STARTCHAR 0055
ENCODING 85
SWIDTH 720 0
DWIDTH 12 0
BBX 10 12 1 0
BITMAP
C0C0
C0C0
C0C0
C0C0
C0C0
C0C0
C0C0
C0C0
C0C0
6180
7F80
1E00
ENDCHAR
STARTCHAR 0056
ENCODING 86
SWIDTH 600 0
DWIDTH 10 0
BBX 10 12 0 0
BITMAP
C0C0
40C0
60C0
6180
2180
3180
3300
1300
1B00
1E00
1E00
0E00
ENDCHAR
STARTCHAR 0057
ENCODING 87
SWIDTH 960 0
DWIDTH 16 0
BBX 16 12 0 0
BITMAP
C183
4182
63C6
63C6
23C4
324C
366C
366C
1428
1C38
1C38
0C30
ENDCHAR
STARTCHAR 0058
ENCODING 88
SWIDTH 660 0
DWIDTH 11 0
BBX 10 12 0 0
BITMAP
60C0
6180
3180
1B00
1E00
0E00
0E00
1E00
1B00
3180
6180
E0C0
ENDCHAR
STARTCHAR 0059
ENCODING 89
SWIDTH 600 0
DWIDTH 10 0
BBX 10 12 0 0
BITMAP
C0C0
6180
6300
3300
1E00
1E00
0C00
0C00
0C00
0C00
0C00
0C00
ENDCHAR
STARTCHAR 005A
ENCODING 90
SWIDTH 660 0
DWIDTH 11 0
BBX 9 12 1 0
BITMAP
FF80
FF00
0700
0600
0C00
0C00
1800
3800
3000
6000
7F80
FF80
ENDCHAR
STARTCHAR 005B
ENCODING 91
SWIDTH 420 0
DWIDTH 7 0
BBX 4 19 2 -4
BITMAP
F0
F0
C0
C0
C0
C0
C0
C0
C0
C0
C0
C0
C0
C0
C0
C0
C0
F0
F0
ENDCHAR
STARTCHAR 005C
ENCODING 92
SWIDTH 420 0
DWIDTH 7 0
BBX 5 12 1 0
BITMAP
C0
C0
40
60
60
60
20
30
30
10
18
18
ENDCHAR
STARTCHAR 005D
ENCODING 93
SWIDTH 420 0
DWIDTH 7 0
BBX 4 19 1 -4
BITMAP
F0
F0
30
30
30
30
30
30
30
30
30
30
30
30
30
30
30
F0
F0
ENDCHAR
STARTCHAR 005E
ENCODING 94
SWIDTH 660 0
DWIDTH 11 0
BBX 7 5 2 7
BITMAP
10
38
6C
C6
82
ENDCHAR
STARTCHAR 005F
ENCODING 95
SWIDTH 660 0
DWIDTH 11 0
BBX 11 1 0 -2
BITMAP
FFE0
ENDCHAR
STARTCHAR 0060
ENCODING 96
SWIDTH 540 0
DWIDTH 9 0
BBX 2 3 3 13
BITMAP
80
C0
40
ENDCHAR
STARTCHAR 0061
ENCODING 97
SWIDTH 600 0
DWIDTH 10 0
BBX 7 9 1 0
BITMAP
3C
FE
C2
02
7E
C2
86
CE
7A
ENDCHAR
STARTCHAR 0062
ENCODING 98
SWIDTH 600 0
DWIDTH 10 0
BBX 8 12 1 0
BITMAP
C0
C0
C0
FC
FF
C3
C3
C1
C3
C3
FF
FC
ENDCHAR
STARTCHAR 0063
ENCODING 99
SWIDTH 540 0
DWIDTH 9 0
BBX 8 9 1 0
BITMAP
3C
7E
C3
C0
C0
C0
C3
7E
3C
ENDCHAR
STARTCHAR 0064
ENCODING 100
SWIDTH 600 0
DWIDTH 10 0
BBX 8 12 1 0
BITMAP
03
03
03
3F
7F
C3
C3
C3
C3
C3
7F
3F
ENDCHAR
STARTCHAR 0065
ENCODING 101
SWIDTH 600 0
DWIDTH 10 0
BBX 8 9 1 0
BITMAP
3C
7E
C3
C3
FF
C0
C3
7F
3C
ENDCHAR
STARTCHAR 0066
ENCODING 102
SWIDTH 360 0
DWIDTH 6 0
BBX 6 12 0 0
BITMAP
1C
30
30
FC
30
30
30
30
30
30
30
30
ENDCHAR
STARTCHAR 0067
ENCODING 103
SWIDTH 600 0
DWIDTH 10 0
BBX 8 13 1 -4
BITMAP
3F
7F
C3
C3
C3
C3
C3
7F
3F
03
43
7E
3C
ENDCHAR
STARTCHAR 0068
ENCODING 104
SWIDTH 600 0
DWIDTH 10 0
BBX 8 12 1 0
BITMAP
C0
C0
C0
DE
FF
C3
C3
C3
C3
C3
C3
C3
ENDCHAR
STARTCHAR 0069
ENCODING 105
SWIDTH 240 0
DWIDTH 4 0
BBX 2 12 1 0
BITMAP
C0
C0
00
C0
C0
C0
C0
C0
C0
C0
C0
C0
ENDCHAR
STARTCHAR 006A
ENCODING 106
SWIDTH 300 0
DWIDTH 5 0
BBX 3 16 0 -4
BITMAP
20
20
00
20
20
20
20
20
20
20
20
20
20
20
E0
E0
ENDCHAR
STARTCHAR 006B
ENCODING 107
SWIDTH 540 0
DWIDTH 9 0
BBX 8 12 1 0
BITMAP
C0
C0
C0
C6
CC
DC
D8
F0
D8
CC
CE
C7
ENDCHAR
STARTCHAR 006C
ENCODING 108
SWIDTH 240 0
DWIDTH 4 0
BBX 2 12 1 0
BITMAP
C0
C0
C0
C0
C0
C0
C0
C0
C0
C0
C0
C0
ENDCHAR
STARTCHAR 006D
ENCODING 109
SWIDTH 900 0
DWIDTH 15 0
BBX 13 9 1 0
BITMAP
FCE0
FFF0
C718
C218
C218
C218
C218
C218
C218
ENDCHAR
STARTCHAR 006E
ENCODING 110
SWIDTH 600 0
DWIDTH 10 0
BBX 8 9 1 0
BITMAP
DE
FF
C3
C3
C3
C3
C3
C3
C3
ENDCHAR
STARTCHAR 006F
ENCODING 111
SWIDTH 600 0
DWIDTH 10 0
BBX 8 9 1 0
BITMAP
3C
7E
C3
C1
C1
C1
C3
7E
3C
ENDCHAR
STARTCHAR 0070
ENCODING 112
SWIDTH 600 0
DWIDTH 10 0
BBX 8 13 1 -4
BITMAP
FC
FF
C3
C3
C1
C3
C3
FF
FC
C0
C0
C0
C0
ENDCHAR
STARTCHAR 0071
ENCODING 113
SWIDTH 600 0
DWIDTH 10 0
BBX 8 13 1 -4
BITMAP
3F
7F
C3
C3
C3
C3
C3
7F
3F
03
03
03
03
ENDCHAR
STARTCHAR 0072
ENCODING 114
SWIDTH 360 0
DWIDTH 6 0
BBX 5 9 1 0
BITMAP
D8
F8
C0
C0
C0
C0
C0
C0
C0
ENDCHAR
STARTCHAR 0073
ENCODING 115
SWIDTH 540 0
DWIDTH 9 0
BBX 7 9 1 0
BITMAP
7C
FE
C6
E0
7C
06
C6
FE
7C
ENDCHAR
STARTCHAR 0074
ENCODING 116
SWIDTH 420 0
DWIDTH 7 0
BBX 6 11 0 0
BITMAP
30
30
FC
30
30
30
30
30
30
3C
1C
ENDCHAR
STARTCHAR 0075
ENCODING 117
SWIDTH 600 0
DWIDTH 10 0
BBX 8 9 1 0
BITMAP
C3
C3
C3
C3
C3
C3
C3
7F
3D
ENDCHAR
STARTCHAR 0076
ENCODING 118
SWIDTH 540 0
DWIDTH 9 0
BBX 7 9 1 0
BITMAP
82
C6
C6
44
6C
6C
28
38
38
ENDCHAR
STARTCHAR 0077
ENCODING 119
SWIDTH 780 0
DWIDTH 13 0
BBX 13 9 0 0
BITMAP
C218
6710
6730
6530
2DA0
3CE0
38E0
18E0
1840
ENDCHAR
STARTCHAR 0078
ENCODING 120
SWIDTH 540 0
DWIDTH 9 0
BBX 8 9 1 0
BITMAP
C6
C6
6C
38
38
38
6C
C6
C7
ENDCHAR
STARTCHAR 0079
ENCODING 121
SWIDTH 540 0
DWIDTH 9 0
BBX 9 13 0 -4
BITMAP
C180
6100
6300
2300
3200
3600
1E00
1C00
0C00
0800
1800
1800
1000
ENDCHAR
STARTCHAR 007A
ENCODING 122
SWIDTH 540 0
DWIDTH 9 0
BBX 8 9 0 0
BITMAP
7F
7E
06
0C
18
10
30
7F
FF
ENDCHAR
STARTCHAR 007B
ENCODING 123
SWIDTH 420 0
DWIDTH 7 0
BBX 5 19 2 -4
BITMAP
38
78
60
60
60
60
60
60
60
C0
60
60
60
60
60
60
60
38
18
ENDCHAR
STARTCHAR 007C
ENCODING 124
SWIDTH 300 0
DWIDTH 5 0
BBX 2 12 1 0
BITMAP
C0
C0
C0
C0
C0
C0
C0
C0
C0
C0
C0
C0
ENDCHAR
STARTCHAR 007D
ENCODING 125
SWIDTH 420 0
DWIDTH 7 0
BBX 4 19 1 -4
BITMAP
C0
E0
60
60
60
60
60
60
30
30
60
60
60
60
60
60
60
E0
C0
ENDCHAR
STARTCHAR 007E
ENCODING 126
SWIDTH 720 0
DWIDTH 12 0
BBX 8 4 2 3
BITMAP
E0
FB
DF
0E
ENDCHAR
STARTCHAR 00A0
ENCODING 160
SWIDTH 180 0
DWIDTH 3 0
BBX 0 0 0 0
BITMAP
ENDCHAR
STARTCHAR 00A1
ENCODING 161
SWIDTH 360 0
DWIDTH 6 0
BBX 2 12 2 -3
BITMAP
C0
C0
00
C0
C0
C0
C0
C0
C0
C0
C0
C0
ENDCHAR
STARTCHAR 00A2
ENCODING 162
SWIDTH 540 0
DWIDTH 9 0
BBX 8 13 1 -1
BITMAP
18
18
7E
E7
C2
C0
C0
C0
C3
7E
3C
18
18
ENDCHAR
STARTCHAR 00A3
ENCODING 163
SWIDTH 600 0
DWIDTH 10 0
BBX 8 12 1 0
BITMAP
1C
3E
63
60
60
FC
FC
60
60
60
FE
FE
ENDCHAR
STARTCHAR 00A4
ENCODING 164
SWIDTH 660 0
DWIDTH 11 0
BBX 9 10 1 1
BITMAP
8880
FF80
6300
C180
C180
C180
C180
6300
FF80
8880
ENDCHAR
STARTCHAR 00A5
ENCODING 165
SWIDTH 600 0
DWIDTH 10 0
BBX 10 12 0 0
BITMAP
C0C0
6180
7300
3300
1E00
1E00
3F00
0C00
0C00
3F00
0C00
0C00
ENDCHAR
STARTCHAR 00A6
ENCODING 166
SWIDTH 300 0
DWIDTH 5 0
BBX 2 15 1 -3
BITMAP
C0
C0
C0
C0
C0
C0
C0
00
00
C0
C0
C0
C0
C0
C0
ENDCHAR
STARTCHAR 00A7
ENCODING 167
SWIDTH 540 0
DWIDTH 9 0
BBX 7 14 1 -3
BITMAP
78
FC
C6
E0
7C
CE
C6
C6
7C
0E
06
C6
7C
10
ENDCHAR
STARTCHAR 00A8
ENCODING 168
SWIDTH 540 0
DWIDTH 9 0
BBX 5 2 2 13
BITMAP
D8
D8
ENDCHAR
STARTCHAR 00A9
ENCODING 169
SWIDTH 840 0
DWIDTH 14 0
BBX 14 14 0 -1
BITMAP
0380
0FE0
3870
3018
6798
4CCC
4C0C
C80C
4C0C
64C8
6798
3830
1FE0
0380
ENDCHAR
STARTCHAR 00AA
ENCODING 170
SWIDTH 300 0
DWIDTH 5 0
BBX 4 4 1 5
BITMAP
F0
30
D0
F0
ENDCHAR
STARTCHAR 00AB
ENCODING 171
SWIDTH 600 0
DWIDTH 10 0
BBX 7 7 1 1
BITMAP
12
26
6C
C8
6C
36
12
ENDCHAR
STARTCHAR 00AC
ENCODING 172
SWIDTH 600 0
DWIDTH 10 0
BBX 8 3 1 3
BITMAP
FF
01
01
ENDCHAR
STARTCHAR 00AD
ENCODING 173
SWIDTH 420 0
DWIDTH 7 0
BBX 5 1 1 5
BITMAP
F8
ENDCHAR
STARTCHAR 00AE
ENCODING 174
SWIDTH 660 0
DWIDTH 11 0
BBX 9 8 1 5
BITMAP
3C00
6300
5900
9580
9980
D500
6300
3E00
ENDCHAR
STARTCHAR 00AF
ENCODING 175
SWIDTH 480 0
DWIDTH 8 0
BBX 4 1 2 14
BITMAP
F0
ENDCHAR
STARTCHAR 00B0
ENCODING 176
SWIDTH 480 0
DWIDTH 8 0
BBX 5 6 1 6
BITMAP
70
F8
88
88
F8
70
ENDCHAR
STARTCHAR 00B1
ENCODING 177
SWIDTH 600 0
DWIDTH 10 0
BBX 8 8 1 1
BITMAP
18
18
FF
18
18
00
00
FF
ENDCHAR
STARTCHAR 00B2
ENCODING 178
SWIDTH 420 0
DWIDTH 7 0
BBX 5 8 1 4
BITMAP
70
98
88
18
30
60
C0
F8
ENDCHAR
STARTCHAR 00B3
ENCODING 179
SWIDTH 420 0
DWIDTH 7 0
BBX 5 8 1 4
BITMAP
F8
10
20
70
10
18
90
70
ENDCHAR
STARTCHAR 00B4
ENCODING 180
SWIDTH 540 0
DWIDTH 9 0
BBX 2 3 4 13
BITMAP
C0
80
80
ENDCHAR
STARTCHAR 00B5
ENCODING 181
SWIDTH 600 0
DWIDTH 10 0
BBX 8 13 1 -4
BITMAP
C3
C3
C3
C3
C3
C3
C3
FF
FD
C0
C0
C0
C0
ENDCHAR
STARTCHAR 00B6
ENCODING 182
SWIDTH 660 0
DWIDTH 11 0
BBX 10 14 1 -2
BITMAP
3CC0
7CC0
FCC0
FCC0
FCC0
FCC0
7CC0
3CC0
04C0
04C0
04C0
04C0
04C0
04C0
ENDCHAR
STARTCHAR 00B7
ENCODING 183
SWIDTH 240 0
DWIDTH 4 0
BBX 2 2 1 4
BITMAP
C0
C0
ENDCHAR
STARTCHAR 00B8
ENCODING 184
SWIDTH 420 0
DWIDTH 7 0
BBX 3 4 2 -4
BITMAP
40
60
60
C0
ENDCHAR
STARTCHAR 00B9
ENCODING 185
SWIDTH 360 0
DWIDTH 6 0
BBX 3 8 1 4
BITMAP
60
E0
60
60
60
60
60
60
ENDCHAR
STARTCHAR 00BA
ENCODING 186
SWIDTH 360 0
DWIDTH 6 0
BBX 4 5 1 4
BITMAP
E0
90
90
90
60
ENDCHAR
STARTCHAR 00BB
ENCODING 187
SWIDTH 600 0
DWIDTH 10 0
BBX 7 7 1 1
BITMAP
D8
4C
24
36
64
48
88
ENDCHAR
STARTCHAR 00BC
ENCODING 188
SWIDTH 1020 0
DWIDTH 17 0
BBX 14 12 1 0
BITMAP
6020
E060
60C0
6080
6180
6310
6230
6420
0C68
1848
107C
2008
ENDCHAR
STARTCHAR 00BD
ENCODING 189
SWIDTH 960 0
DWIDTH 16 0
BBX 15 12 1 0
BITMAP
E020
E060
60C0
6080
61BC
6324
6626
0404
0C0C
1818
3030
207E
ENDCHAR
STARTCHAR 00BE
ENCODING 190
SWIDTH 1020 0
DWIDTH 17 0
BBX 15 12 1 0
BITMAP
F810
1030
2060
7040
10C0
1988
9118
7210
0634
0C24
083E
1004
ENDCHAR
STARTCHAR 00BF
ENCODING 191
SWIDTH 540 0
DWIDTH 9 0
BBX 7 12 1 -3
BITMAP
18
18
00
18
18
30
60
C0
C0
C6
FE
7C
ENDCHAR
STARTCHAR 00C0
ENCODING 192
SWIDTH 660 0
DWIDTH 11 0
BBX 10 16 0 0
BITMAP
0800
0C00
0400
0000
0E00
0E00
1B00
1B00
1B00
3180
3180
3F80
7F80
60C0
60C0
C040
ENDCHAR
STARTCHAR 00C1
ENCODING 193
SWIDTH 660 0
DWIDTH 11 0
BBX 10 16 0 0
BITMAP
0200
0600
0400
0000
0E00
0E00
1B00
1B00
1B00
3180
3180
3F80
7F80
60C0
60C0
C040
ENDCHAR
STARTCHAR 00C2
ENCODING 194
SWIDTH 660 0
DWIDTH 11 0
BBX 10 16 0 0
BITMAP
0E00
1B00
1100
0000
0E00
0E00
1B00
1B00
1B00
3180
3180
3F80
7F80
60C0
60C0
C040
ENDCHAR
STARTCHAR 00C3
ENCODING 195
SWIDTH 660 0
DWIDTH 11 0
BBX 10 16 0 0
BITMAP
1D00
1700
0000
0000
0E00
0E00
1B00
1B00
1B00
3180
3180
3F80
7F80
60C0
60C0
C040
ENDCHAR
STARTCHAR 00C4
ENCODING 196
SWIDTH 660 0
DWIDTH 11 0
BBX 10 15 0 0
BITMAP
1B00
1B00
0000
0E00
0E00
1B00
1B00
1B00
3180
3180
3F80
7F80
60C0
60C0
C040
ENDCHAR
STARTCHAR 00C5
ENCODING 197
SWIDTH 660 0
DWIDTH 11 0
BBX 10 17 0 0
BITMAP
0E00
0A00
0A00
0E00
0000
0E00
0E00
1B00
1B00
1B00
3180
3180
3F80
7F80
60C0
60C0
C040
ENDCHAR
STARTCHAR 00C6
ENCODING 198
SWIDTH 960 0
DWIDTH 16 0
BBX 15 12 0 0
BITMAP
0FFE
0FFE
1980
1980
1980
31FC
31FC
3F80
7F80
6180
61FE
C1FE
ENDCHAR
STARTCHAR 00C7
ENCODING 199
SWIDTH 720 0
DWIDTH 12 0
BBX 11 16 0 -4
BITMAP
0F80
3FC0
7060
6060
6000
C000
C000
4000
6060
7060
3FC0
0F80
0200
0300
0300
0600
ENDCHAR
STARTCHAR 00C8
ENCODING 200
SWIDTH 600 0
DWIDTH 10 0
BBX 8 16 1 0
BITMAP
10
10
18
00
FF
FF
C0
C0
C0
FE
FE
C0
C0
C0
FF
FF
ENDCHAR
STARTCHAR 00C9
ENCODING 201
SWIDTH 600 0
DWIDTH 10 0
BBX 8 16 1 0
BITMAP
0C
08
08
00
FF
FF
C0
C0
C0
FE
FE
C0
C0
C0
FF
FF
ENDCHAR
STARTCHAR 00CA
ENCODING 202
SWIDTH 600 0
DWIDTH 10 0
BBX 8 16 1 0
BITMAP
18
2C
66
00
FF
FF
C0
C0
C0
FE
FE
C0
C0
C0
FF
FF
ENDCHAR
STARTCHAR 00CB
ENCODING 203
SWIDTH 600 0
DWIDTH 10 0
BBX 8 15 1 0
BITMAP
64
64
00
FF
FF
C0
C0
C0
FE
FE
C0
C0
C0
FF
FF
ENDCHAR
STARTCHAR 00CC
ENCODING 204
SWIDTH 240 0
DWIDTH 4 0
BBX 3 16 0 0
BITMAP
C0
40
60
00
60
60
60
60
60
60
60
60
60
60
60
60
ENDCHAR
STARTCHAR 00CD
ENCODING 205
SWIDTH 240 0
DWIDTH 4 0
BBX 3 16 1 0
BITMAP
20
40
40
00
C0
C0
C0
C0
C0
C0
C0
C0
C0
C0
C0
C0
ENDCHAR
STARTCHAR 00CE
ENCODING 206
SWIDTH 240 0
DWIDTH 4 0
BBX 6 16 -1 0
BITMAP
30
68
CC
00
30
30
30
30
30
30
30
30
30
30
30
30
ENDCHAR
STARTCHAR 00CF
ENCODING 207
SWIDTH 240 0
DWIDTH 4 0
BBX 5 15 0 0
BITMAP
98
98
00
60
60
60
60
60
60
60
60
60
60
60
60
ENDCHAR
STARTCHAR 00D0
ENCODING 208
SWIDTH 720 0
DWIDTH 12 0
BBX 11 12 0 0
BITMAP
7F00
7F80
60C0
60C0
6060
FC60
6060
6060
60C0
60C0
7F80
7F00
ENDCHAR
STARTCHAR 00D1
ENCODING 209
SWIDTH 720 0
DWIDTH 12 0
BBX 10 16 1 0
BITMAP
1900
3700
0000
0000
C0C0
E0C0
F0C0
F0C0
D8C0
CCC0
CCC0
C6C0
C3C0
C3C0
C1C0
C1C0
ENDCHAR
STARTCHAR 00D2
ENCODING 210
SWIDTH 720 0
DWIDTH 12 0
BBX 12 16 0 0
BITMAP
0C00
0400
0600
0000
0F80
3FC0
7060
6060
6030
C030
C030
4030
6060
7060
3FC0
0F80
ENDCHAR
STARTCHAR 00D3
ENCODING 211
SWIDTH 720 0
DWIDTH 12 0
BBX 12 16 0 0
BITMAP
0100
0300
0200
0000
0F80
3FC0
7060
6060
6030
C030
C030
4030
6060
7060
3FC0
0F80
ENDCHAR
STARTCHAR 00D4
ENCODING 212
SWIDTH 720 0
DWIDTH 12 0
BBX 12 15 0 0
BITMAP
0700
0980
0000
0F80
3FC0
7060
6060
6030
C030
C030
4030
6060
7060
3FC0
0F80
ENDCHAR
STARTCHAR 00D5
ENCODING 213
SWIDTH 720 0
DWIDTH 12 0
BBX 12 15 0 0
BITMAP
0E80
1B80
0000
0F80
3FC0
7060
6060
6030
C030
C030
4030
6060
7060
3FC0
0F80
ENDCHAR
STARTCHAR 00D6
ENCODING 214
SWIDTH 720 0
DWIDTH 12 0
BBX 12 15 0 0
BITMAP
0980
0980
0000
0F80
3FC0
7060
6060
6030
C030
C030
4030
6060
7060
3FC0
0F80
ENDCHAR
STARTCHAR 00D7
ENCODING 215
SWIDTH 480 0
DWIDTH 8 0
BBX 6 6 1 3
BITMAP
84
CC
78
30
78
CC
ENDCHAR
STARTCHAR 00D8
ENCODING 216
SWIDTH 720 0
DWIDTH 12 0
BBX 12 12 0 0
BITMAP
0FA0
3FF0
7060
60E0
61B0
C330
C630
6C30
7860
7060
7FC0
4F80
ENDCHAR
STARTCHAR 00D9
ENCODING 217
SWIDTH 720 0
DWIDTH 12 0
BBX 10 16 1 0
BITMAP
0800
0800
0C00
0000
C0C0
C0C0
C0C0
C0C0
C0C0
C0C0
C0C0
C0C0
C0C0
6180
7F80
1E00
ENDCHAR
STARTCHAR 00DA
ENCODING 218
SWIDTH 720 0
DWIDTH 12 0
BBX 10 16 1 0
BITMAP
0400
0400
0C00
0000
C0C0
C0C0
C0C0
C0C0
C0C0
C0C0
C0C0
C0C0
C0C0
6180
7F80
1E00
ENDCHAR
STARTCHAR 00DB
ENCODING 219
SWIDTH 720 0
DWIDTH 12 0
BBX 10 16 1 0
BITMAP
0C00
1E00
3300
0000
C0C0
C0C0
C0C0
C0C0
C0C0
C0C0
C0C0
C0C0
C0C0
6180
7F80
1E00
ENDCHAR
STARTCHAR 00DC
ENCODING 220
SWIDTH 720 0
DWIDTH 12 0
BBX 10 15 1 0
BITMAP
3200
3200
0000
C0C0
C0C0
C0C0
C0C0
C0C0
C0C0
C0C0
C0C0
C0C0
6180
7F80
1E00
ENDCHAR
STARTCHAR 00DD
ENCODING 221
SWIDTH 600 0
DWIDTH 10 0
BBX 10 16 0 0
BITMAP
0400
0400
0C00
0000
C0C0
6180
6300
3300
1E00
1E00
0C00
0C00
0C00
0C00
0C00
0C00
ENDCHAR
STARTCHAR 00DE
ENCODING 222
SWIDTH 600 0
DWIDTH 10 0
BBX 9 12 1 0
BITMAP
C000
C000
FE00
FF00
C180
C180
C180
C180
FF00
FE00
C000
C000
ENDCHAR
STARTCHAR 00DF
ENCODING 223
SWIDTH 600 0
DWIDTH 10 0
BBX 8 12 1 0
BITMAP
3C
7E
C6
C2
C6
CC
CF
C3
C1
C3
DF
DE
ENDCHAR
STARTCHAR 00E0
ENCODING 224
SWIDTH 600 0
DWIDTH 10 0
BBX 7 13 1 0
BITMAP
30
10
10
00
3C
FE
C2
02
7E
C2
86
CE
7A
ENDCHAR
STARTCHAR 00E1
ENCODING 225
SWIDTH 600 0
DWIDTH 10 0
BBX 7 13 1 0
BITMAP
0C
08
18
00
3C
FE
C2
02
7E
C2
86
CE
7A
ENDCHAR
STARTCHAR 00E2
ENCODING 226
SWIDTH 600 0
DWIDTH 10 0
BBX 7 12 1 0
BITMAP
38
64
00
3C
FE
C2
02
7E
C2
86
CE
7A
ENDCHAR
STARTCHAR 00E3
ENCODING 227
SWIDTH 600 0
DWIDTH 10 0
BBX 7 12 1 0
BITMAP
72
4C
00
3C
FE
C2
02
7E
E2
86
CE
7A
ENDCHAR
STARTCHAR 00E4
ENCODING 228
SWIDTH 600 0
DWIDTH 10 0
BBX 7 12 1 0
BITMAP
64
64
00
3C
FE
C2
02
7E
C2
86
CE
7A
ENDCHAR
STARTCHAR 00E5
ENCODING 229
SWIDTH 600 0
DWIDTH 10 0
BBX 7 14 1 0
BITMAP
18
24
24
38
00
3C
FE
C2
02
7E
C2
86
CE
7A
ENDCHAR
STARTCHAR 00E6
ENCODING 230
SWIDTH 960 0
DWIDTH 16 0
BBX 14 9 1 0
BITMAP
3CF0
FFF8
C30C
030C
7FFC
C300
870C
CDF8
78F0
ENDCHAR
STARTCHAR 00E7
ENCODING 231
SWIDTH 540 0
DWIDTH 9 0
BBX 8 13 1 -4
BITMAP
3C
7E
C3
C0
C0
C0
C3
7E
3C
10
18
08
18
ENDCHAR
STARTCHAR 00E8
ENCODING 232
SWIDTH 600 0
DWIDTH 10 0
BBX 8 13 1 0
BITMAP
30
10
18
00
3C
7E
C3
C3
FF
C0
C3
7F
3C
ENDCHAR
STARTCHAR 00E9
ENCODING 233
SWIDTH 600 0
DWIDTH 10 0
BBX 8 13 1 0
BITMAP
04
0C
08
00
3C
7E
C3
C3
FF
C0
C3
7F
3C
ENDCHAR
STARTCHAR 00EA
ENCODING 234
SWIDTH 600 0
DWIDTH 10 0
BBX 8 12 1 0
BITMAP
3C
26
00
3C
7E
C3
C3
FF
C0
C3
7F
3C
ENDCHAR
STARTCHAR 00EB
ENCODING 235
SWIDTH 600 0
DWIDTH 10 0
BBX 8 12 1 0
BITMAP
26
26
00
3C
7E
C3
C3
FF
C0
C3
7F
3C
ENDCHAR
STARTCHAR 00EC
ENCODING 236
SWIDTH 240 0
DWIDTH 4 0
BBX 2 13 1 0
BITMAP
80
80
C0
00
C0
C0
C0
C0
C0
C0
C0
C0
C0
ENDCHAR
STARTCHAR 00ED
ENCODING 237
SWIDTH 240 0
DWIDTH 4 0
BBX 3 13 1 0
BITMAP
60
40
40
00
C0
C0
C0
C0
C0
C0
C0
C0
C0
ENDCHAR
STARTCHAR 00EE
ENCODING 238
SWIDTH 240 0
DWIDTH 4 0
BBX 6 13 -1 0
BITMAP
30
68
C4
00
30
30
30
30
30
30
30
30
30
ENDCHAR
STARTCHAR 00EF
ENCODING 239
SWIDTH 240 0
DWIDTH 4 0
BBX 5 12 0 0
BITMAP
98
98
00
60
60
60
60
60
60
60
60
60
ENDCHAR
STARTCHAR 00F0
ENCODING 240
SWIDTH 600 0
DWIDTH 10 0
BBX 8 13 1 0
BITMAP
04
1C
0E
0A
1B
7F
C3
C3
83
83
C3
7E
3C
ENDCHAR
STARTCHAR 00F1
ENCODING 241
SWIDTH 600 0
DWIDTH 10 0
BBX 8 12 1 0
BITMAP
7A
4E
00
DE
FF
C3
C3
C3
C3
C3
C3
C3
ENDCHAR
STARTCHAR 00F2
ENCODING 242
SWIDTH 600 0
DWIDTH 10 0
BBX 8 13 1 0
BITMAP
30
10
10
00
3C
7E
C3
C1
C1
C1
C3
7E
3C
ENDCHAR
STARTCHAR 00F3
ENCODING 243
SWIDTH 600 0
DWIDTH 10 0
BBX 8 13 1 0
BITMAP
0C
08
08
00
3C
7E
C3
C1
C1
C1
C3
7E
3C
ENDCHAR
STARTCHAR 00F4
ENCODING 244
SWIDTH 600 0
DWIDTH 10 0
BBX 8 12 1 0
BITMAP
3C
26
00
3C
7E
C3
C1
C1
C1
C3
7E
3C
ENDCHAR
STARTCHAR 00F5
ENCODING 245
SWIDTH 600 0
DWIDTH 10 0
BBX 8 12 1 0
BITMAP
7A
4E
00
3C
7E
C3
C1
C1
C1
C3
7E
3C
ENDCHAR
STARTCHAR 00F6
ENCODING 246
SWIDTH 600 0
DWIDTH 10 0
BBX 8 12 1 0
BITMAP
26
26
00
3C
7E
C3
C1
C1
C1
C3
7E
3C
ENDCHAR
STARTCHAR 00F7
ENCODING 247
SWIDTH 540 0
DWIDTH 9 0
BBX 7 7 1 3
BITMAP
10
10
00
FE
00
10
10
ENDCHAR
STARTCHAR 00F8
ENCODING 248
SWIDTH 600 0
DWIDTH 10 0
BBX 8 9 1 0
BITMAP
3D
7F
C7
CD
D9
F1
E3
FE
BC
ENDCHAR
STARTCHAR 00F9
ENCODING 249
SWIDTH 600 0
DWIDTH 10 0
BBX 8 13 1 0
BITMAP
10
10
18
00
C3
C3
C3
C3
C3
C3
C3
7F
3D
ENDCHAR
STARTCHAR 00FA
ENCODING 250
SWIDTH 600 0
DWIDTH 10 0
BBX 8 13 1 0
BITMAP
0C
08
18
00
C3
C3
C3
C3
C3
C3
C3
7F
3D
ENDCHAR
STARTCHAR 00FB
ENCODING 251
SWIDTH 600 0
DWIDTH 10 0
BBX 8 13 1 0
BITMAP
18
3C
66
00
C3
C3
C3
C3
C3
C3
C3
7F
3D
ENDCHAR
STARTCHAR 00FC
ENCODING 252
SWIDTH 600 0
DWIDTH 10 0
BBX 8 12 1 0
BITMAP
26
26
00
C3
C3
C3
C3
C3
C3
C3
7F
3D
ENDCHAR
STARTCHAR 00FD
ENCODING 253
SWIDTH 540 0
DWIDTH 9 0
BBX 9 17 0 -4
BITMAP
0400
0C00
0800
0000
C180
6100
6300
2300
3200
3600
1E00
1C00
0C00
0800
1800
1800
1000
ENDCHAR
STARTCHAR 00FE
ENCODING 254
SWIDTH 600 0
DWIDTH 10 0
BBX 8 16 1 -4
BITMAP
C0
C0
C0
FC
FF
C3
C3
C1
C3
C3
FF
FC
C0
C0
C0
C0
ENDCHAR
STARTCHAR 00FF
ENCODING 255
SWIDTH 540 0
DWIDTH 9 0
BBX 9 16 0 -4
BITMAP
3600
3600
0000
C180
6100
6300
2300
3200
3600
1E00
1C00
0C00
0800
1800
1800
1000
ENDCHAR
ENDFONT
