STARTFONT 2.1
COMMENT
COMMENT Converted from OpenType font "manrope-regular.otf" by "otf2bdf 3.0".
COMMENT
FONT -FreeType-Manrope-Medium-R-Normal--26-190-100-100-P-120-ISO10646-1
SIZE 19 100 100
FONTBOUNDINGBOX 25 33 -1 -7
STARTPROPERTIES 19
FOUNDRY "FreeType"
FAMILY_NAME "Manrope"
WEIGHT_NAME "Medium"
SLANT "R"
SETWIDTH_NAME "Normal"
ADD_STYLE_NAME ""
PIXEL_SIZE 26
POINT_SIZE 190
RESOLUTION_X 100
RESOLUTION_Y 100
SPACING "P"
AVERAGE_WIDTH 120
CHARSET_REGISTRY "ISO10646"
CHARSET_ENCODING "1"
FONT_ASCENT 27
FONT_DESCENT 7
COPYRIGHT "Copyright 2019-2021 The Manrope Project Authors (https://github.com/sharanda/manrope)"
_OTF_FONTFILE "manrope-regular.otf"
_OTF_PSNAME "Manrope-Regular"
ENDPROPERTIES
CHARS 191
STARTCHAR 0020
ENCODING 32
SWIDTH 189 0
DWIDTH 5 0
BBX 0 0 0 0
BITMAP
ENDCHAR
STARTCHAR 0021
ENCODING 33
SWIDTH 303 0
DWIDTH 8 0
BBX 2 19 3 0
BITMAP
C0
C0
C0
C0
C0
C0
C0
C0
C0
C0
C0
C0
C0
C0
00
00
00
C0
C0
ENDCHAR
STARTCHAR 0022
ENCODING 34
SWIDTH 378 0
DWIDTH 10 0
BBX 6 5 2 14
BITMAP
CC
CC
CC
CC
CC
ENDCHAR
STARTCHAR 0023
ENCODING 35
SWIDTH 909 0
DWIDTH 24 0
BBX 21 19 2 0
BITMAP
00C180
00C300
00C300
008300
018300
3FFFF8
7FFFF0
030600
030C00
030C00
030C00
FFFFE0
FFFFE0
061800
041800
0C1800
0C3000
0C3000
083000
ENDCHAR
STARTCHAR 0024
ENCODING 36
SWIDTH 606 0
DWIDTH 16 0
BBX 14 23 1 -2
BITMAP
0300
0300
0FC0
3FE0
7070
6018
6018
6008
6000
7800
3F00
07E0
00F0
0018
000C
400C
C00C
E018
7038
3FF0
0FC0
0300
0300
ENDCHAR
STARTCHAR 0025
ENCODING 37
SWIDTH 909 0
DWIDTH 24 0
BBX 20 19 2 0
BITMAP
3C0020
7F0060
C380C0
C18180
818300
C18600
C38C00
7F1800
3E3000
006000
00C7C0
018FE0
031870
061830
0C1030
181830
301870
600FE0
4007C0
ENDCHAR
STARTCHAR 0026
ENCODING 38
SWIDTH 644 0
DWIDTH 17 0
BBX 16 19 1 0
BITMAP
0FC0
1FE0
3870
3020
6000
7000
3000
3800
1C00
3E00
770C
618C
C0CC
C06C
C03C
6018
703E
3FF7
0FC2
ENDCHAR
STARTCHAR 0027
ENCODING 39
SWIDTH 227 0
DWIDTH 6 0
BBX 2 5 2 14
BITMAP
C0
C0
C0
C0
C0
ENDCHAR
STARTCHAR 0028
ENCODING 40
SWIDTH 416 0
DWIDTH 11 0
BBX 6 27 4 -5
BITMAP
08
1C
18
30
30
60
60
40
C0
C0
C0
C0
80
80
80
C0
C0
C0
C0
40
60
60
30
30
18
0C
08
ENDCHAR
STARTCHAR 0029
ENCODING 41
SWIDTH 416 0
DWIDTH 11 0
BBX 7 27 1 -5
BITMAP
40
E0
60
30
30
18
18
0C
0C
0C
0C
04
06
06
06
04
0C
0C
0C
0C
18
18
30
30
60
E0
40
ENDCHAR
STARTCHAR 002A
ENCODING 42
SWIDTH 454 0
DWIDTH 12 0
BBX 9 9 1 10
BITMAP
1800
1800
8800
FF80
7E00
1C00
3600
6700
2200
ENDCHAR
STARTCHAR 002B
ENCODING 43
SWIDTH 568 0
DWIDTH 15 0
BBX 12 12 2 4
BITMAP
0400
0400
0400
0400
0400
FFF0
FFF0
0400
0400
0400
0400
0400
ENDCHAR
STARTCHAR 002C
ENCODING 44
SWIDTH 265 0
DWIDTH 7 0
BBX 2 6 2 -3
BITMAP
C0
C0
C0
40
40
80
ENDCHAR
STARTCHAR 002D
ENCODING 45
SWIDTH 416 0
DWIDTH 11 0
BBX 8 2 2 7
BITMAP
FF
FF
ENDCHAR
STARTCHAR 002E
ENCODING 46
SWIDTH 265 0
DWIDTH 7 0
BBX 2 2 2 0
BITMAP
C0
C0
ENDCHAR
STARTCHAR 002F
ENCODING 47
SWIDTH 378 0
DWIDTH 10 0
BBX 7 19 2 0
BITMAP
0E
0C
0C
0C
18
18
18
18
30
30
30
30
60
60
60
60
C0
C0
C0
ENDCHAR
STARTCHAR 0030
ENCODING 48
SWIDTH 606 0
DWIDTH 16 0
BBX 12 19 2 0
BITMAP
1F80
3FC0
70E0
E070
C030
C030
C030
C030
C030
C030
C030
C030
C030
C030
C030
E070
70E0
3FC0
1F80
ENDCHAR
STARTCHAR 0031
ENCODING 49
SWIDTH 378 0
DWIDTH 10 0
BBX 5 19 2 0
BITMAP
38
78
F8
98
18
18
18
18
18
18
18
18
18
18
18
18
18
18
18
ENDCHAR
STARTCHAR 0032
ENCODING 50
SWIDTH 568 0
DWIDTH 15 0
BBX 13 19 1 0
BITMAP
0F80
3FE0
3070
6030
6038
C018
0018
0038
0030
0070
00E0
01C0
0380
0600
1C00
3800
7000
FFF8
FFF8
ENDCHAR
STARTCHAR 0033
ENCODING 51
SWIDTH 568 0
DWIDTH 15 0
BBX 12 19 1 0
BITMAP
7FF0
7FF0
0060
01C0
0380
0700
0E00
1F80
1FC0
00E0
0070
0030
0030
0030
4030
C060
70E0
3FC0
1F00
ENDCHAR
STARTCHAR 0034
ENCODING 52
SWIDTH 606 0
DWIDTH 16 0
BBX 13 19 1 0
BITMAP
0380
0300
0700
0600
0600
0C00
0C00
1800
1860
3060
3060
6060
6060
FFF8
FFF8
0060
0060
0060
0060
ENDCHAR
STARTCHAR 0035
ENCODING 53
SWIDTH 568 0
DWIDTH 15 0
BBX 13 19 1 0
BITMAP
7FF0
7FF0
6000
6000
6000
6000
6000
6F80
7FE0
7070
2030
0018
0018
0018
C018
6030
7070
3FE0
0F80
ENDCHAR
STARTCHAR 0036
ENCODING 54
SWIDTH 606 0
DWIDTH 16 0
BBX 13 19 2 0
BITMAP
0F80
3FE0
7070
6020
C000
C000
C000
CF80
DFE0
F070
E030
C038
C018
C018
C030
E030
7060
3FC0
0F80
ENDCHAR
STARTCHAR 0037
ENCODING 55
SWIDTH 492 0
DWIDTH 13 0
BBX 11 19 1 0
BITMAP
FFE0
FFE0
0060
00C0
00C0
0180
0180
0180
0300
0300
0600
0600
0600
0C00
0C00
1800
1800
3800
3000
ENDCHAR
STARTCHAR 0038
ENCODING 56
SWIDTH 568 0
DWIDTH 15 0
BBX 12 19 2 0
BITMAP
1F00
7FC0
60E0
C060
C060
C060
C060
60E0
3FC0
7FC0
E0E0
C060
C030
C030
C030
C060
E0E0
7FC0
1F00
ENDCHAR
STARTCHAR 0039
ENCODING 57
SWIDTH 606 0
DWIDTH 16 0
BBX 13 19 2 0
BITMAP
0F80
3FC0
70E0
E030
C030
C010
C018
C038
C038
7078
3FD8
1F18
0018
0030
0030
0070
70E0
3FC0
1F80
ENDCHAR
STARTCHAR 003A
ENCODING 58
SWIDTH 303 0
DWIDTH 8 0
BBX 2 10 3 2
BITMAP
C0
C0
00
00
00
00
00
00
C0
C0
ENDCHAR
STARTCHAR 003B
ENCODING 59
SWIDTH 303 0
DWIDTH 8 0
BBX 2 18 3 -3
BITMAP
C0
C0
00
00
00
00
00
00
00
00
00
00
C0
C0
C0
40
40
C0
ENDCHAR
STARTCHAR 003C
ENCODING 60
SWIDTH 606 0
DWIDTH 16 0
BBX 7 12 4 3
BITMAP
04
0E
1C
38
70
E0
C0
60
30
18
0C
06
ENDCHAR
STARTCHAR 003D
ENCODING 61
SWIDTH 757 0
DWIDTH 20 0
BBX 14 7 3 6
BITMAP
FFFC
FFFC
0000
0000
0000
FFFC
FFFC
ENDCHAR
STARTCHAR 003E
ENCODING 62
SWIDTH 606 0
DWIDTH 16 0
BBX 7 12 5 3
BITMAP
40
E0
70
38
1C
0E
06
0C
18
30
60
C0
ENDCHAR
STARTCHAR 003F
ENCODING 63
SWIDTH 530 0
DWIDTH 14 0
BBX 11 19 1 0
BITMAP
1F80
3FC0
70E0
6060
C060
0060
0060
0060
01C0
0380
0700
0600
0600
0600
0000
0000
0600
0600
0600
ENDCHAR
STARTCHAR 0040
ENCODING 64
SWIDTH 909 0
DWIDTH 24 0
BBX 20 20 2 -3
BITMAP
01F800
0FFF00
1C0380
3800C0
3000E0
600060
60FC60
C3FC30
C30C30
C20C30
C20C30
C30C20
C31C60
61FFE0
6063C0
300000
380000
1E0600
07FE00
00E000
ENDCHAR
STARTCHAR 0041
ENCODING 65
SWIDTH 644 0
DWIDTH 17 0
BBX 15 19 1 0
BITMAP
0380
0380
07C0
06C0
04C0
0C60
0C60
1860
1830
1830
3030
3018
3FF8
7FF8
600C
600C
C00C
C006
C006
ENDCHAR
STARTCHAR 0042
ENCODING 66
SWIDTH 606 0
DWIDTH 16 0
BBX 13 19 2 0
BITMAP
FFC0
FFE0
C070
C030
C030
C030
C030
C070
FFE0
FFE0
C030
C018
C018
C018
C018
C018
C038
FFF0
FFC0
ENDCHAR
STARTCHAR 0043
ENCODING 67
SWIDTH 720 0
DWIDTH 19 0
BBX 17 19 1 0
BITMAP
07F000
1FFC00
380E00
700700
600300
E00380
C00000
C00000
C00000
C00000
C00000
C00000
C00000
E00380
600300
700700
380E00
1FFC00
07F000
ENDCHAR
STARTCHAR 0044
ENCODING 68
SWIDTH 682 0
DWIDTH 18 0
BBX 15 19 2 0
BITMAP
FFC0
FFE0
C070
C018
C01C
C00C
C00C
C00C
C00E
C006
C00E
C00C
C00C
C00C
C01C
C018
C070
FFE0
FFC0
ENDCHAR
STARTCHAR 0045
ENCODING 69
SWIDTH 568 0
DWIDTH 15 0
BBX 12 19 2 0
BITMAP
FFF0
FFF0
C000
C000
C000
C000
C000
C000
FFC0
FFC0
C000
C000
C000
C000
C000
C000
C000
FFF0
FFF0
ENDCHAR
STARTCHAR 0046
ENCODING 70
SWIDTH 492 0
DWIDTH 13 0
BBX 11 19 2 0
BITMAP
FFE0
FFE0
C000
C000
C000
C000
C000
C000
FF80
FF80
C000
C000
C000
C000
C000
C000
C000
C000
C000
ENDCHAR
STARTCHAR 0047
ENCODING 71
SWIDTH 720 0
DWIDTH 19 0
BBX 17 19 1 0
BITMAP
07F000
1FFC00
381E00
700600
600300
E00000
C00000
C00000
C00000
C03F80
C03F80
C00180
C00180
E00300
600300
700700
380E00
1FFC00
07F000
ENDCHAR
STARTCHAR 0048
ENCODING 72
SWIDTH 682 0
DWIDTH 18 0
BBX 14 19 2 0
BITMAP
C00C
C00C
C00C
C00C
C00C
C00C
C00C
C00C
FFFC
FFFC
C00C
C00C
C00C
C00C
C00C
C00C
C00C
C00C
C00C
ENDCHAR
STARTCHAR 0049
ENCODING 73
SWIDTH 227 0
DWIDTH 6 0
BBX 2 19 2 0
BITMAP
C0
C0
C0
C0
C0
C0
C0
C0
C0
C0
C0
C0
C0
C0
C0
C0
C0
C0
C0
ENDCHAR
STARTCHAR 004A
ENCODING 74
SWIDTH 454 0
DWIDTH 12 0
BBX 10 19 0 0
BITMAP
00C0
00C0
00C0
00C0
00C0
00C0
00C0
00C0
00C0
00C0
00C0
00C0
00C0
00C0
00C0
C0C0
61C0
7F80
1F00
ENDCHAR
STARTCHAR 004B
ENCODING 75
SWIDTH 606 0
DWIDTH 16 0
BBX 13 19 2 0
BITMAP
C030
C070
C0E0
C1C0
C380
C700
CE00
DC00
F800
F000
D800
CC00
C600
C300
C180
C0C0
C060
C030
C018
ENDCHAR
STARTCHAR 004C
ENCODING 76
SWIDTH 492 0
DWIDTH 13 0
BBX 11 19 2 0
BITMAP
C000
C000
C000
C000
C000
C000
C000
C000
C000
C000
C000
C000
C000
C000
C000
C000
C000
FFE0
FFE0
ENDCHAR
STARTCHAR 004D
ENCODING 77
SWIDTH 833 0
DWIDTH 22 0
BBX 18 19 2 0
BITMAP
C000C0
C000C0
E001C0
E001C0
F003C0
F003C0
D806C0
D806C0
CC06C0
CC0CC0
C60CC0
C618C0
C618C0
C330C0
C330C0
C1E0C0
C1E0C0
C0C0C0
C0C0C0
ENDCHAR
STARTCHAR 004E
ENCODING 78
SWIDTH 682 0
DWIDTH 18 0
BBX 14 19 2 0
BITMAP
C00C
E00C
E00C
F00C
D80C
DC0C
CC0C
C60C
C70C
C30C
C18C
C1CC
C0CC
C06C
C07C
C03C
C01C
C01C
C00C
ENDCHAR
STARTCHAR 004F
ENCODING 79
SWIDTH 720 0
DWIDTH 19 0
BBX 17 19 1 0
BITMAP
07F000
1FFC00
380E00
700700
600300
E00380
C00180
C00180
C00180
C00180
C00180
C00180
C00180
E00380
600300
700700
380E00
1FFC00
07F000
ENDCHAR
STARTCHAR 0050
ENCODING 80
SWIDTH 606 0
DWIDTH 16 0
BBX 13 19 2 0
BITMAP
FFC0
FFE0
C030
C038
C018
C018
C018
C018
C038
C070
FFE0
FFC0
C000
C000
C000
C000
C000
C000
C000
ENDCHAR
STARTCHAR 0051
ENCODING 81
SWIDTH 720 0
DWIDTH 19 0
BBX 17 19 1 0
BITMAP
07F000
1FFC00
380E00
700700
600300
E00380
C00180
C00180
C00180
C00180
C00180
C00180
C00180
E01B80
601F00
700F00
380F00
1FFF80
07F100
ENDCHAR
STARTCHAR 0052
ENCODING 82
SWIDTH 644 0
DWIDTH 17 0
BBX 13 19 2 0
BITMAP
FFC0
FFE0
C030
C038
C018
C018
C018
C018
C038
C070
FFE0
FFC0
C0C0
C060
C060
C030
C030
C018
C018
ENDCHAR
STARTCHAR 0053
ENCODING 83
SWIDTH 606 0
DWIDTH 16 0
BBX 14 19 1 0
BITMAP
0FC0
3FF0
7038
601C
600C
600C
6000
7800
1F00
07F0
0078
001C
000C
400C
C00C
600C
7038
3FF8
0FE0
ENDCHAR
STARTCHAR 0054
ENCODING 84
SWIDTH 606 0
DWIDTH 16 0
BBX 15 19 0 0
BITMAP
FFFE
FFFE
0180
0180
0180
0180
0180
0180
0180
0180
0180
0180
0180
0180
0180
0180
0180
0180
0180
ENDCHAR
STARTCHAR 0055
ENCODING 85
SWIDTH 720 0
DWIDTH 19 0
BBX 15 19 2 0
BITMAP
C006
C006
C006
C006
C006
C006
C006
C006
C006
C006
C006
C006
C006
C00C
C00C
601C
7838
3FF0
0FC0
ENDCHAR
STARTCHAR 0056
ENCODING 86
SWIDTH 606 0
DWIDTH 16 0
BBX 16 19 0 0
BITMAP
C003
6006
6006
6006
300C
300C
300C
1818
1818
1838
0C30
0C30
0C60
0660
0660
06C0
03C0
03C0
0380
ENDCHAR
STARTCHAR 0057
ENCODING 87
SWIDTH 947 0
DWIDTH 25 0
BBX 23 19 1 0
BITMAP
C03806
C03806
C03806
C0780C
606C0C
606C0C
60CC18
30CC18
30C618
30C618
318630
198330
198330
190360
0F0160
0F01E0
0F01E0
0E01C0
0600C0
ENDCHAR
STARTCHAR 0058
ENCODING 88
SWIDTH 606 0
DWIDTH 16 0
BBX 14 19 1 0
BITMAP
C00C
E01C
6018
3030
3870
18E0
0CC0
0780
0780
0300
0780
0FC0
0CC0
1860
3870
3030
6018
E01C
C00C
ENDCHAR
STARTCHAR 0059
ENCODING 89
SWIDTH 568 0
DWIDTH 15 0
BBX 14 19 0 0
BITMAP
E00C
600C
7018
3038
1830
1870
0C60
0EC0
06C0
0780
0380
0300
0300
0300
0300
0300
0300
0300
0300
ENDCHAR
STARTCHAR 005A
ENCODING 90
SWIDTH 606 0
DWIDTH 16 0
BBX 14 19 1 0
BITMAP
7FFC
7FF8
0038
0030
0060
00E0
00C0
01C0
0180
0300
0700
0600
0C00
1C00
1800
3800
3000
7FFC
FFFC
ENDCHAR
STARTCHAR 005B
ENCODING 91
SWIDTH 416 0
DWIDTH 11 0
BBX 5 30 4 -6
BITMAP
F8
F8
80
80
80
80
80
80
80
80
80
80
80
80
80
80
80
80
80
80
80
80
80
80
80
80
80
80
F8
F8
ENDCHAR
STARTCHAR 005C
ENCODING 92
SWIDTH 378 0
DWIDTH 10 0
BBX 7 19 2 0
BITMAP
C0
C0
C0
60
60
60
60
30
30
30
30
18
18
18
18
0C
0C
0C
0E
ENDCHAR
STARTCHAR 005D
ENCODING 93
SWIDTH 416 0
DWIDTH 11 0
BBX 5 30 2 -6
BITMAP
F8
F8
18
18
18
18
18
18
18
18
18
18
18
18
18
18
18
18
18
18
18
18
18
18
18
18
18
18
F8
F8
ENDCHAR
STARTCHAR 005E
ENCODING 94
SWIDTH 682 0
DWIDTH 18 0
BBX 12 7 3 12
BITMAP
0600
0F00
1B80
31C0
60E0
C070
8020
ENDCHAR
STARTCHAR 005F
ENCODING 95
SWIDTH 644 0
DWIDTH 17 0
BBX 17 2 0 -3
BITMAP
FFFF80
FFFF80
ENDCHAR
STARTCHAR 0060
ENCODING 96
SWIDTH 492 0
DWIDTH 13 0
BBX 3 4 5 21
BITMAP
80
C0
40
60
ENDCHAR
STARTCHAR 0061
ENCODING 97
SWIDTH 568 0
DWIDTH 15 0
BBX 12 15 1 0
BITMAP
0F80
3FE0
7060
6030
2030
0030
03F0
3FF0
7030
E030
C030
C070
E0F0
7FB0
3F30
ENDCHAR
STARTCHAR 0062
ENCODING 98
SWIDTH 606 0
DWIDTH 16 0
BBX 13 19 2 0
BITMAP
C000
C000
C000
C000
CF80
FFC0
F0E0
E070
C030
C030
C038
C038
C030
C030
C030
E070
F0E0
FFC0
CF80
ENDCHAR
STARTCHAR 0063
ENCODING 99
SWIDTH 568 0
DWIDTH 15 0
BBX 13 15 1 0
BITMAP
0F80
3FE0
7070
6038
E000
C000
C000
C000
C000
C000
E000
6038
7070
3FE0
0FC0
ENDCHAR
STARTCHAR 0064
ENCODING 100
SWIDTH 606 0
DWIDTH 16 0
BBX 13 19 1 0
BITMAP
0018
0018
0018
0018
0F98
3FD8
7078
6038
E018
C018
C018
C018
C018
C018
E018
6038
7078
3FD8
0F98
ENDCHAR
STARTCHAR 0065
ENCODING 101
SWIDTH 568 0
DWIDTH 15 0
BBX 13 15 1 0
BITMAP
0F80
3FE0
7070
6038
E018
C018
FFF8
FFF8
C000
C000
E010
6018
7070
3FE0
0FC0
ENDCHAR
STARTCHAR 0066
ENCODING 102
SWIDTH 341 0
DWIDTH 9 0
BBX 8 19 1 0
BITMAP
0F
1F
30
30
FF
FF
30
30
30
30
30
30
30
30
30
30
30
30
30
ENDCHAR
STARTCHAR 0067
ENCODING 103
SWIDTH 606 0
DWIDTH 16 0
BBX 13 21 1 -6
BITMAP
0F98
3FF8
7078
6038
E018
C018
C018
C018
C018
C018
E018
6038
7078
3FD8
0F98
0018
0018
2030
7070
3FE0
0FC0
ENDCHAR
STARTCHAR 0068
ENCODING 104
SWIDTH 606 0
DWIDTH 16 0
BBX 12 19 2 0
BITMAP
C000
C000
C000
C000
CF80
FFC0
F0E0
E060
C030
C030
C030
C030
C030
C030
C030
C030
C030
C030
C030
ENDCHAR
STARTCHAR 0069
ENCODING 105
SWIDTH 227 0
DWIDTH 6 0
BBX 2 19 2 0
BITMAP
C0
C0
00
00
C0
C0
C0
C0
C0
C0
C0
C0
C0
C0
C0
C0
C0
C0
C0
ENDCHAR
STARTCHAR 006A
ENCODING 106
SWIDTH 265 0
DWIDTH 7 0
BBX 5 25 0 -6
BITMAP
18
18
00
00
18
18
18
18
18
18
18
18
18
18
18
18
18
18
18
18
18
18
30
F0
E0
ENDCHAR
STARTCHAR 006B
ENCODING 107
SWIDTH 492 0
DWIDTH 13 0
BBX 11 19 2 0
BITMAP
C000
C000
C000
C000
C0C0
C180
C380
C700
CE00
DC00
F800
F000
F800
DC00
CE00
C700
C380
C1C0
C0E0
ENDCHAR
STARTCHAR 006C
ENCODING 108
SWIDTH 227 0
DWIDTH 6 0
BBX 2 19 2 0
BITMAP
C0
C0
C0
C0
C0
C0
C0
C0
C0
C0
C0
C0
C0
C0
C0
C0
C0
C0
C0
ENDCHAR
STARTCHAR 006D
ENCODING 109
SWIDTH 833 0
DWIDTH 22 0
BBX 19 15 2 0
BITMAP
DF0F00
FFBFC0
E1F0C0
C0E0E0
C0C060
C0C060
C0C060
C0C060
C0C060
C0C060
C0C060
C0C060
C0C060
C0C060
C0C060
ENDCHAR
STARTCHAR 006E
ENCODING 110
SWIDTH 606 0
DWIDTH 16 0
BBX 12 15 2 0
BITMAP
CF80
FFC0
F0E0
E060
C030
C030
C030
C030
C030
C030
C030
C030
C030
C030
C030
ENDCHAR
STARTCHAR 006F
ENCODING 111
SWIDTH 606 0
DWIDTH 16 0
BBX 14 15 1 0
BITMAP
0F80
3FE0
7070
6038
E018
C018
C018
C01C
C018
C018
E018
6038
7070
3FE0
0FC0
ENDCHAR
STARTCHAR 0070
ENCODING 112
SWIDTH 606 0
DWIDTH 16 0
BBX 13 21 2 -6
BITMAP
CF80
FFC0
F0E0
E070
C030
C030
C038
C038
C030
C030
C030
E070
F0E0
FFC0
CF80
C000
C000
C000
C000
C000
C000
ENDCHAR
STARTCHAR 0071
ENCODING 113
SWIDTH 606 0
DWIDTH 16 0
BBX 13 21 1 -6
BITMAP
0F98
3FF8
7078
6038
E018
C018
C018
C018
C018
C018
E018
6038
7078
3FD8
0F98
0018
0018
0018
0018
0018
0018
ENDCHAR
STARTCHAR 0072
ENCODING 114
SWIDTH 378 0
DWIDTH 10 0
BBX 7 15 2 0
BITMAP
CE
FE
F0
E0
C0
C0
C0
C0
C0
C0
C0
C0
C0
C0
C0
ENDCHAR
STARTCHAR 0073
ENCODING 115
SWIDTH 530 0
DWIDTH 14 0
BBX 12 15 1 0
BITMAP
1F80
3FC0
60E0
6070
E000
7000
3E00
0FC0
01E0
0070
0030
C030
6060
7FE0
1F80
ENDCHAR
STARTCHAR 0074
ENCODING 116
SWIDTH 416 0
DWIDTH 11 0
BBX 10 19 0 0
BITMAP
1800
1800
1800
1800
FFC0
FFC0
1800
1800
1800
1800
1800
1800
1800
1800
1800
1800
0C00
0FC0
07C0
ENDCHAR
STARTCHAR 0075
ENCODING 117
SWIDTH 606 0
DWIDTH 16 0
BBX 12 15 2 0
BITMAP
C030
C030
C030
C030
C030
C030
C030
C030
C030
C030
C070
C070
60F0
7FB0
1F30
ENDCHAR
STARTCHAR 0076
ENCODING 118
SWIDTH 492 0
DWIDTH 13 0
BBX 12 15 1 0
BITMAP
C030
C060
C060
6060
60C0
60C0
30C0
3180
3180
1980
1B00
1B00
0F00
0E00
0E00
ENDCHAR
STARTCHAR 0077
ENCODING 119
SWIDTH 757 0
DWIDTH 20 0
BBX 19 15 1 0
BITMAP
C0C060
C0C0C0
C0E0C0
41E0C0
61A180
613180
633180
333180
331300
361B00
1E1B00
1E0E00
1C0E00
1C0E00
0C0600
ENDCHAR
STARTCHAR 0078
ENCODING 120
SWIDTH 530 0
DWIDTH 14 0
BBX 12 15 1 0
BITMAP
C030
E060
70E0
30C0
1980
1F00
0F00
0600
0F00
1F80
1980
30C0
60E0
E070
C030
ENDCHAR
STARTCHAR 0079
ENCODING 121
SWIDTH 530 0
DWIDTH 14 0
BBX 12 21 1 -6
BITMAP
C030
C030
C030
6060
6060
30C0
30C0
30C0
1980
1980
0D80
0F00
0700
0600
0600
0600
0C00
0C00
0C00
1800
1800
ENDCHAR
STARTCHAR 007A
ENCODING 122
SWIDTH 530 0
DWIDTH 14 0
BBX 12 15 1 0
BITMAP
FFF0
FFE0
00C0
01C0
0180
0300
0700
0600
0C00
1800
3800
3000
6000
FFE0
FFE0
ENDCHAR
STARTCHAR 007B
ENCODING 123
SWIDTH 416 0
DWIDTH 11 0
BBX 6 30 4 -6
BITMAP
1C
3C
60
60
60
60
60
60
60
60
60
60
60
60
C0
C0
60
60
60
60
60
60
60
60
60
60
60
60
3C
1C
ENDCHAR
STARTCHAR 007C
ENCODING 124
SWIDTH 265 0
DWIDTH 7 0
BBX 2 19 2 0
BITMAP
C0
C0
C0
C0
C0
C0
C0
C0
C0
C0
C0
C0
C0
C0
C0
C0
C0
C0
C0
ENDCHAR
STARTCHAR 007D
ENCODING 125
SWIDTH 416 0
DWIDTH 11 0
BBX 6 30 1 -6
BITMAP
E0
F0
18
18
18
18
18
18
18
18
18
18
18
1C
0C
0C
1C
18
18
18
18
18
18
18
18
18
18
18
F0
E0
ENDCHAR
STARTCHAR 007E
ENCODING 126
SWIDTH 644 0
DWIDTH 17 0
BBX 11 4 3 6
BITMAP
7860
FE60
C7E0
C1C0
ENDCHAR
STARTCHAR 00A0
ENCODING 160
SWIDTH 189 0
DWIDTH 5 0
BBX 0 0 0 0
BITMAP
ENDCHAR
STARTCHAR 00A1
ENCODING 161
SWIDTH 303 0
DWIDTH 8 0
BBX 2 19 3 -4
BITMAP
C0
C0
00
00
00
C0
C0
C0
C0
C0
C0
C0
C0
C0
C0
C0
C0
C0
C0
ENDCHAR
STARTCHAR 00A2
ENCODING 162
SWIDTH 568 0
DWIDTH 15 0
BBX 12 20 1 -1
BITMAP
0300
0300
0300
1FE0
3CF0
7030
6010
C000
C000
C000
C000
C000
C000
6010
7030
38F0
1FE0
0700
0300
0300
ENDCHAR
STARTCHAR 00A3
ENCODING 163
SWIDTH 568 0
DWIDTH 15 0
BBX 13 19 1 0
BITMAP
03C0
0FE0
0C30
1818
1818
1800
1800
1800
1800
FFC0
FFC0
1800
1800
1800
1800
1800
1800
FFF0
FFF0
ENDCHAR
STARTCHAR 00A4
ENCODING 164
SWIDTH 644 0
DWIDTH 17 0
BBX 15 15 1 2
BITMAP
C386
FFEE
783C
3018
600C
600C
4004
4004
4004
600C
600C
3018
783C
FFEC
C386
ENDCHAR
STARTCHAR 00A5
ENCODING 165
SWIDTH 568 0
DWIDTH 15 0
BBX 14 19 0 0
BITMAP
E00C
600C
7018
3038
1830
1860
0C60
0EC0
07C0
0380
3FF0
3FF0
0300
0300
3FF0
3FF0
0300
0300
0300
ENDCHAR
STARTCHAR 00A6
ENCODING 166
SWIDTH 265 0
DWIDTH 7 0
BBX 2 23 2 -4
BITMAP
C0
C0
C0
C0
C0
C0
C0
C0
C0
C0
00
00
00
C0
C0
C0
C0
C0
C0
C0
C0
C0
C0
ENDCHAR
STARTCHAR 00A7
ENCODING 167
SWIDTH 530 0
DWIDTH 14 0
BBX 12 21 1 -4
BITMAP
1F00
3FC0
60E0
6060
6000
7000
3E00
3FC0
60E0
C030
C030
E030
7C60
1FC0
01E0
0060
0070
6060
7060
3FC0
1F80
ENDCHAR
STARTCHAR 00A8
ENCODING 168
SWIDTH 492 0
DWIDTH 13 0
BBX 7 2 3 22
BITMAP
C6
C6
ENDCHAR
STARTCHAR 00A9
ENCODING 169
SWIDTH 795 0
DWIDTH 21 0
BBX 19 20 1 -1
BITMAP
01F000
07FE00
1E0F00
380380
7001C0
61F8C0
C31C60
C60C60
C60060
C40060
C40060
C60060
C60C60
C31C60
61F8C0
7041C0
380380
1E0F00
0FFE00
01F000
ENDCHAR
STARTCHAR 00AA
ENCODING 170
SWIDTH 303 0
DWIDTH 8 0
BBX 6 8 1 7
BITMAP
30
7C
C4
1C
74
C4
CC
74
ENDCHAR
STARTCHAR 00AB
ENCODING 171
SWIDTH 530 0
DWIDTH 14 0
BBX 10 11 2 2
BITMAP
0840
18C0
1980
3300
6300
C600
6600
6300
3180
18C0
0CC0
ENDCHAR
STARTCHAR 00AC
ENCODING 172
SWIDTH 606 0
DWIDTH 16 0
BBX 12 5 2 5
BITMAP
FFF0
FFF0
0010
0010
0010
ENDCHAR
STARTCHAR 00AD
ENCODING 173
SWIDTH 416 0
DWIDTH 11 0
BBX 8 2 2 7
BITMAP
FF
FF
ENDCHAR
STARTCHAR 00AE
ENCODING 174
SWIDTH 644 0
DWIDTH 17 0
BBX 13 12 2 8
BITMAP
1FC0
30E0
6030
CF30
C890
8898
8F18
C910
C9B0
6030
30E0
1FC0
ENDCHAR
STARTCHAR 00AF
ENCODING 175
SWIDTH 492 0
DWIDTH 13 0
BBX 7 2 3 22
BITMAP
FE
FE
ENDCHAR
STARTCHAR 00B0
ENCODING 176
SWIDTH 454 0
DWIDTH 12 0
BBX 9 9 1 10
BITMAP
3E00
7F00
E180
C180
C080
C180
C180
7F00
3E00
ENDCHAR
STARTCHAR 00B1
ENCODING 177
SWIDTH 606 0
DWIDTH 16 0
BBX 12 13 2 2
BITMAP
0600
0600
0600
FFF0
FFF0
0600
0600
0600
0600
0000
0000
FFF0
FFF0
ENDCHAR
STARTCHAR 00B2
ENCODING 178
SWIDTH 416 0
DWIDTH 11 0
BBX 8 12 1 7
BITMAP
3C
76
43
C1
01
03
06
0C
18
30
60
FF
ENDCHAR
STARTCHAR 00B3
ENCODING 179
SWIDTH 378 0
DWIDTH 10 0
BBX 8 12 1 7
BITMAP
7F
02
0C
18
3C
26
02
03
03
C2
6E
3C
ENDCHAR
STARTCHAR 00B4
ENCODING 180
SWIDTH 492 0
DWIDTH 13 0
BBX 3 4 5 21
BITMAP
60
60
40
C0
ENDCHAR
STARTCHAR 00B5
ENCODING 181
SWIDTH 606 0
DWIDTH 16 0
BBX 12 21 2 -6
BITMAP
C030
C030
C030
C030
C030
C030
C030
C030
C030
C030
C030
E070
F0F0
FFF0
DF30
C000
C000
C000
C000
C000
C000
ENDCHAR
STARTCHAR 00B6
ENCODING 182
SWIDTH 644 0
DWIDTH 17 0
BBX 13 23 2 -4
BITMAP
1F98
3F98
7F98
FF98
FF98
FF98
FF98
FF98
FF98
7F98
3F98
0F98
0198
0198
0198
0198
0198
0198
0198
0198
0198
0198
0198
ENDCHAR
STARTCHAR 00B7
ENCODING 183
SWIDTH 227 0
DWIDTH 6 0
BBX 2 3 2 7
BITMAP
C0
C0
C0
ENDCHAR
STARTCHAR 00B8
ENCODING 184
SWIDTH 378 0
DWIDTH 10 0
BBX 4 6 3 -7
BITMAP
20
60
70
10
10
F0
ENDCHAR
STARTCHAR 00B9
ENCODING 185
SWIDTH 303 0
DWIDTH 8 0
BBX 3 12 2 7
BITMAP
60
E0
20
20
20
20
20
20
20
20
20
20
ENDCHAR
STARTCHAR 00BA
ENCODING 186
SWIDTH 341 0
DWIDTH 9 0
BBX 7 8 1 7
BITMAP
38
6C
C6
C6
C2
C6
6C
38
ENDCHAR
STARTCHAR 00BB
ENCODING 187
SWIDTH 530 0
DWIDTH 14 0
BBX 10 11 2 2
BITMAP
8400
C600
6200
3300
1980
18C0
1880
3180
6300
6600
CC00
ENDCHAR
STARTCHAR 00BC
ENCODING 188
SWIDTH 985 0
DWIDTH 26 0
BBX 21 19 2 0
BITMAP
600100
E00380
A00300
200600
200C00
201800
201800
2030C0
206080
20C180
21C100
218300
030220
060620
0E0620
0C0C20
180FF8
300020
200020
ENDCHAR
STARTCHAR 00BD
ENCODING 189
SWIDTH 947 0
DWIDTH 25 0
BBX 21 19 2 0
BITMAP
600100
E00380
A00300
200600
200C00
201800
201800
2031E0
2063B8
20C218
21C608
218008
030018
060030
0E0060
0C00C0
180180
300300
2007F8
ENDCHAR
STARTCHAR 00BE
ENCODING 190
SWIDTH 985 0
DWIDTH 26 0
BBX 23 19 1 0
BITMAP
7F0020
020060
0C00C0
1800C0
3C0180
260300
020600
030610
030C30
C21820
6E3060
3C3060
0060C4
00C0C4
018084
030184
0301FE
060004
040004
ENDCHAR
STARTCHAR 00BF
ENCODING 191
SWIDTH 530 0
DWIDTH 14 0
BBX 11 20 1 -5
BITMAP
0600
0600
0600
0000
0000
0600
0600
0600
0E00
1C00
3800
7000
6000
E000
C000
C060
6060
70E0
3FC0
1F80
ENDCHAR
STARTCHAR 00C0
ENCODING 192
SWIDTH 644 0
DWIDTH 17 0
BBX 15 25 1 0
BITMAP
0600
0600
0200
0300
0000
0000
0380
0380
07C0
06C0
06C0
0C60
0C60
1860
1830
1830
3030
3018
3FF8
7FF8
600C
600C
C00C
C006
C006
ENDCHAR
STARTCHAR 00C1
ENCODING 193
SWIDTH 644 0
DWIDTH 17 0
BBX 15 25 1 0
BITMAP
00C0
0080
0180
0100
0000
0000
0380
0380
07C0
06C0
04C0
0C60
0C60
1860
1830
1830
3030
3018
3FF8
7FF8
600C
600C
C00C
C006
C006
ENDCHAR
STARTCHAR 00C2
ENCODING 194
SWIDTH 644 0
DWIDTH 17 0
BBX 15 25 1 0
BITMAP
0380
06C0
0CC0
1860
0000
0000
0380
0380
07C0
06C0
04C0
0C60
0C60
1860
1830
1830
3030
3018
3FF8
7FF8
600C
600C
C00C
C006
C006
ENDCHAR
STARTCHAR 00C3
ENCODING 195
SWIDTH 644 0
DWIDTH 17 0
BBX 15 25 1 0
BITMAP
0E20
1FE0
18E0
0000
0000
0000
0380
0380
07C0
06C0
04C0
0C60
0C60
1860
1830
1830
3030
3018
3FF8
7FF8
600C
600C
C00C
C006
C006
ENDCHAR
STARTCHAR 00C4
ENCODING 196
SWIDTH 644 0
DWIDTH 17 0
BBX 15 24 1 0
BITMAP
0C60
0C60
0000
0000
0000
0380
0380
07C0
06C0
04C0
0C60
0C60
1860
1830
1830
3030
3018
3FF8
7FF8
600C
600C
C00C
C006
C006
ENDCHAR
STARTCHAR 00C5
ENCODING 197
SWIDTH 644 0
DWIDTH 17 0
BBX 15 26 1 0
BITMAP
0780
04C0
0C40
04C0
07C0
0000
0000
0380
0380
07C0
06C0
04C0
0C60
0C60
1860
1830
1830
3030
3018
3FF8
7FF8
600C
600C
C00C
C006
C006
ENDCHAR
STARTCHAR 00C6
ENCODING 198
SWIDTH 909 0
DWIDTH 24 0
BBX 22 19 1 0
BITMAP
03FFFC
03FFFC
063000
063000
043000
0C3000
0C3000
183000
183FF0
183FF0
303000
303000
3FF000
7FF000
603000
603000
C03000
C03FFC
C03FFC
ENDCHAR
STARTCHAR 00C7
ENCODING 199
SWIDTH 720 0
DWIDTH 19 0
BBX 17 25 1 -6
BITMAP
07F000
1FFC00
380E00
700700
600300
E00380
C00000
C00000
C00000
C00000
C00000
C00000
C00000
E00380
600300
700700
380E00
1FFC00
07F000
00C000
00C000
006000
006000
01E000
01C000
ENDCHAR
STARTCHAR 00C8
ENCODING 200
SWIDTH 568 0
DWIDTH 15 0
BBX 12 25 2 0
BITMAP
0C00
0C00
0400
0600
0000
0000
FFF0
FFF0
C000
C000
C000
C000
C000
C000
FFC0
FFC0
C000
C000
C000
C000
C000
C000
C000
FFF0
FFF0
ENDCHAR
STARTCHAR 00C9
ENCODING 201
SWIDTH 568 0
DWIDTH 15 0
BBX 12 25 2 0
BITMAP
0100
0300
0200
0600
0000
0000
FFF0
FFF0
C000
C000
C000
C000
C000
C000
FFC0
FFC0
C000
C000
C000
C000
C000
C000
C000
FFF0
FFF0
ENDCHAR
STARTCHAR 00CA
ENCODING 202
SWIDTH 568 0
DWIDTH 15 0
BBX 12 25 2 0
BITMAP
0E00
1B00
1980
3180
0000
0000
FFF0
FFF0
C000
C000
C000
C000
C000
C000
FFC0
FFC0
C000
C000
C000
C000
C000
C000
C000
FFF0
FFF0
ENDCHAR
STARTCHAR 00CB
ENCODING 203
SWIDTH 568 0
DWIDTH 15 0
BBX 12 24 2 0
BITMAP
3180
3180
0000
0000
0000
FFF0
FFF0
C000
C000
C000
C000
C000
C000
FFC0
FFC0
C000
C000
C000
C000
C000
C000
C000
FFF0
FFF0
ENDCHAR
STARTCHAR 00CC
ENCODING 204
SWIDTH 227 0
DWIDTH 6 0
BBX 3 25 1 0
BITMAP
C0
C0
40
60
00
00
60
60
60
60
60
60
60
60
60
60
60
60
60
60
60
60
60
60
60
ENDCHAR
STARTCHAR 00CD
ENCODING 205
SWIDTH 227 0
DWIDTH 6 0
BBX 3 25 2 0
BITMAP
20
60
60
C0
00
00
C0
C0
C0
C0
C0
C0
C0
C0
C0
C0
C0
C0
C0
C0
C0
C0
C0
C0
C0
ENDCHAR
STARTCHAR 00CE
ENCODING 206
SWIDTH 227 0
DWIDTH 6 0
BBX 8 25 -1 0
BITMAP
18
3C
66
C3
00
00
18
18
18
18
18
18
18
18
18
18
18
18
18
18
18
18
18
18
18
ENDCHAR
STARTCHAR 00CF
ENCODING 207
SWIDTH 227 0
DWIDTH 6 0
BBX 8 24 -1 0
BITMAP
E3
E3
00
00
00
18
18
18
18
18
18
18
18
18
18
18
18
18
18
18
18
18
18
18
ENDCHAR
STARTCHAR 00D0
ENCODING 208
SWIDTH 682 0
DWIDTH 18 0
BBX 16 19 0 0
BITMAP
3FE0
3FF8
301C
3006
3007
3003
3003
3003
FF83
FF83
3003
3003
3003
3003
3006
300E
301C
3FF8
3FF0
ENDCHAR
STARTCHAR 00D1
ENCODING 209
SWIDTH 682 0
DWIDTH 18 0
BBX 14 25 2 0
BITMAP
0400
0F20
19E0
0040
0000
0000
C00C
E00C
E00C
F00C
D80C
DC0C
CC0C
C60C
C70C
C30C
C18C
C1CC
C0CC
C06C
C07C
C03C
C01C
C01C
C00C
ENDCHAR
STARTCHAR 00D2
ENCODING 210
SWIDTH 720 0
DWIDTH 19 0
BBX 17 25 1 0
BITMAP
030000
010000
018000
018000
000000
000000
07F000
1FFC00
380E00
700700
600300
E00380
C00180
C00180
C00180
C00180
C00180
C00180
C00180
E00380
600300
700700
380E00
1FFC00
07F000
ENDCHAR
STARTCHAR 00D3
ENCODING 211
SWIDTH 720 0
DWIDTH 19 0
BBX 17 25 1 0
BITMAP
006000
006000
004000
00C000
000000
000000
07F000
1FFC00
380E00
700700
600300
E00380
C00180
C00180
C00180
C00180
C00180
C00180
C00180
E00380
600300
700700
380E00
1FFC00
07F000
ENDCHAR
STARTCHAR 00D4
ENCODING 212
SWIDTH 720 0
DWIDTH 19 0
BBX 17 25 1 0
BITMAP
008000
01C000
036000
063000
000000
000000
07F000
1FFC00
380E00
700700
600300
E00380
C00180
C00180
C00180
C00180
C00180
C00180
C00180
E00380
600300
700700
380E00
1FFC00
07F000
ENDCHAR
STARTCHAR 00D5
ENCODING 213
SWIDTH 720 0
DWIDTH 19 0
BBX 17 24 1 0
BITMAP
071800
07F800
047000
000000
000000
07F000
1FFC00
380E00
700700
600300
E00380
C00180
C00180
C00180
C00180
C00180
C00180
C00180
E00380
600300
700700
380E00
1FFC00
07F000
ENDCHAR
STARTCHAR 00D6
ENCODING 214
SWIDTH 720 0
DWIDTH 19 0
BBX 17 23 1 0
BITMAP
063000
063000
000000
000000
07F000
1FFC00
380E00
700700
600300
E00380
C00180
C00180
C00180
C00180
C00180
C00180
C00180
E00380
600300
700700
380E00
1FFC00
07F000
ENDCHAR
STARTCHAR 00D7
ENCODING 215
SWIDTH 492 0
DWIDTH 13 0
BBX 9 9 2 5
BITMAP
8080
C180
6300
3600
1C00
1C00
3600
6300
C180
ENDCHAR
STARTCHAR 00D8
ENCODING 216
SWIDTH 720 0
DWIDTH 19 0
BBX 18 19 1 0
BITMAP
07F080
1FFDC0
380F80
700700
600F00
E01F80
C03980
C07180
C0E180
C1C180
C18180
C30180
C60180
EC0380
780300
700700
780E00
DFFC00
87F000
ENDCHAR
STARTCHAR 00D9
ENCODING 217
SWIDTH 720 0
DWIDTH 19 0
BBX 15 25 2 0
BITMAP
0600
0200
0300
0300
0000
0000
C006
C006
C006
C006
C006
C006
C006
C006
C006
C006
C006
C006
C006
C00C
C00C
601C
7838
3FF0
0FC0
ENDCHAR
STARTCHAR 00DA
ENCODING 218
SWIDTH 720 0
DWIDTH 19 0
BBX 15 25 2 0
BITMAP
0180
0180
0100
0300
0000
0000
C006
C006
C006
C006
C006
C006
C006
C006
C006
C006
C006
C006
C006
C00C
C00C
601C
7838
3FF0
0FC0
ENDCHAR
STARTCHAR 00DB
ENCODING 219
SWIDTH 720 0
DWIDTH 19 0
BBX 15 25 2 0
BITMAP
0380
0780
0CC0
1860
0000
0000
C006
C006
C006
C006
C006
C006
C006
C006
C006
C006
C006
C006
C006
C00C
C00C
601C
7838
3FF0
0FC0
ENDCHAR
STARTCHAR 00DC
ENCODING 220
SWIDTH 720 0
DWIDTH 19 0
BBX 15 24 2 0
BITMAP
0C60
0C60
0000
0000
0000
C006
C006
C006
C006
C006
C006
C006
C006
C006
C006
C006
C006
C006
C00C
C00C
601C
7838
3FF0
0FC0
ENDCHAR
STARTCHAR 00DD
ENCODING 221
SWIDTH 568 0
DWIDTH 15 0
BBX 14 25 0 0
BITMAP
0080
0180
0100
0300
0000
0000
E00C
600C
7018
3038
1830
1870
0C60
0EC0
06C0
0780
0380
0300
0300
0300
0300
0300
0300
0300
0300
ENDCHAR
STARTCHAR 00DE
ENCODING 222
SWIDTH 606 0
DWIDTH 16 0
BBX 13 19 2 0
BITMAP
C000
C000
C000
C000
FF80
FFE0
C070
C030
C018
C018
C018
C030
C070
FFE0
FF80
C000
C000
C000
C000
ENDCHAR
STARTCHAR 00DF
ENCODING 223
SWIDTH 606 0
DWIDTH 16 0
BBX 12 19 2 0
BITMAP
1F00
7F80
E1C0
C0C0
C0E0
C060
C0C0
C1C0
C780
C7C0
C0E0
C030
C030
C030
C030
C030
C0E0
CFE0
CF80
ENDCHAR
STARTCHAR 00E0
ENCODING 224
SWIDTH 568 0
DWIDTH 15 0
BBX 12 21 1 0
BITMAP
0C00
0400
0600
0600
0000
0000
0F80
3FE0
7060
6030
2030
0030
03F0
3FF0
7030
E030
C030
C070
E0F0
7FB0
3F30
ENDCHAR
STARTCHAR 00E1
ENCODING 225
SWIDTH 568 0
DWIDTH 15 0
BBX 12 21 1 0
BITMAP
0180
0100
0300
0300
0000
0000
0F80
3FE0
7060
6030
2030
0030
03F0
3FF0
7030
E030
C030
C070
E0F0
7FB0
3F30
ENDCHAR
STARTCHAR 00E2
ENCODING 226
SWIDTH 568 0
DWIDTH 15 0
BBX 12 21 1 0
BITMAP
0200
0700
0D80
18C0
0000
0000
0F80
3FE0
7060
6030
2030
0030
03F0
3FF0
7030
E030
C030
C070
E0F0
7FB0
3F30
ENDCHAR
STARTCHAR 00E3
ENCODING 227
SWIDTH 568 0
DWIDTH 15 0
BBX 12 20 1 0
BITMAP
1C60
1FE0
11C0
0000
0000
0F80
3FE0
7060
6030
2030
0030
03F0
3FF0
7030
E030
C030
C070
E0F0
7FB0
3F30
ENDCHAR
STARTCHAR 00E4
ENCODING 228
SWIDTH 568 0
DWIDTH 15 0
BBX 12 19 1 0
BITMAP
18C0
18C0
0000
0000
0F80
3FE0
7060
6030
2030
0030
03F0
3FF0
7030
E030
C030
C070
E0F0
7FB0
3F30
ENDCHAR
STARTCHAR 00E5
ENCODING 229
SWIDTH 568 0
DWIDTH 15 0
BBX 12 22 1 0
BITMAP
0700
0D80
0880
0880
0D80
0700
0000
0F80
3FE0
7060
6030
2030
0030
03F0
3FF0
7030
E030
C030
C070
E0F0
7FB0
3F30
ENDCHAR
STARTCHAR 00E6
ENCODING 230
SWIDTH 947 0
DWIDTH 25 0
BBX 23 15 1 0
BITMAP
0F83E0
3FEFF8
706C18
60380C
00380C
003006
00FFFE
3FFFFE
703000
C03000
C03800
C0780C
E0CC1C
7FCFF8
3F03E0
ENDCHAR
STARTCHAR 00E7
ENCODING 231
SWIDTH 568 0
DWIDTH 15 0
BBX 13 21 1 -6
BITMAP
0F80
3FE0
7070
6038
E000
C000
C000
C000
C000
C000
E000
6038
7070
3FE0
0FC0
0200
0300
0300
0180
0700
0F00
ENDCHAR
STARTCHAR 00E8
ENCODING 232
SWIDTH 568 0
DWIDTH 15 0
BBX 13 21 1 0
BITMAP
0400
0600
0200
0300
0000
0000
0F80
3FE0
7070
6038
E018
C018
FFF8
FFF8
C000
C000
E010
6018
7070
3FE0
0FC0
ENDCHAR
STARTCHAR 00E9
ENCODING 233
SWIDTH 568 0
DWIDTH 15 0
BBX 13 21 1 0
BITMAP
0080
0180
0180
0300
0000
0000
0F80
3FE0
7070
6038
E018
C018
FFF8
FFF8
C000
C000
E010
6018
7070
3FE0
0FC0
ENDCHAR
STARTCHAR 00EA
ENCODING 234
SWIDTH 568 0
DWIDTH 15 0
BBX 13 21 1 0
BITMAP
0300
0780
0D80
18C0
0000
0000
0F80
3FE0
7070
6038
E018
C018
FFF8
FFF8
C000
C000
E010
6018
7070
3FE0
0FC0
ENDCHAR
STARTCHAR 00EB
ENCODING 235
SWIDTH 568 0
DWIDTH 15 0
BBX 13 19 1 0
BITMAP
18C0
18C0
0000
0000
0F80
3FE0
7070
6038
E018
C018
FFF8
FFF8
C000
C000
E010
6018
7070
3FE0
0FC0
ENDCHAR
STARTCHAR 00EC
ENCODING 236
SWIDTH 227 0
DWIDTH 6 0
BBX 3 21 1 0
BITMAP
C0
C0
40
60
00
00
60
60
60
60
60
60
60
60
60
60
60
60
60
60
60
ENDCHAR
STARTCHAR 00ED
ENCODING 237
SWIDTH 227 0
DWIDTH 6 0
BBX 3 21 2 0
BITMAP
20
60
40
C0
00
00
C0
C0
C0
C0
C0
C0
C0
C0
C0
C0
C0
C0
C0
C0
C0
ENDCHAR
STARTCHAR 00EE
ENCODING 238
SWIDTH 227 0
DWIDTH 6 0
BBX 8 21 -1 0
BITMAP
18
3C
66
C3
00
00
18
18
18
18
18
18
18
18
18
18
18
18
18
18
18
ENDCHAR
STARTCHAR 00EF
ENCODING 239
SWIDTH 227 0
DWIDTH 6 0
BBX 8 19 -1 0
BITMAP
E3
E3
00
00
18
18
18
18
18
18
18
18
18
18
18
18
18
18
18
ENDCHAR
STARTCHAR 00F0
ENCODING 240
SWIDTH 568 0
DWIDTH 15 0
BBX 13 21 1 0
BITMAP
0040
0760
07C0
01E0
0360
0030
0010
0F98
3FF8
7078
6038
C018
C018
C018
C018
C018
C018
6038
7070
3FE0
0F80
ENDCHAR
STARTCHAR 00F1
ENCODING 241
SWIDTH 606 0
DWIDTH 16 0
BBX 12 20 2 0
BITMAP
3CC0
3FC0
2380
0000
0000
CF80
FFC0
F0E0
E060
C030
C030
C030
C030
C030
C030
C030
C030
C030
C030
C030
ENDCHAR
STARTCHAR 00F2
ENCODING 242
SWIDTH 606 0
DWIDTH 16 0
BBX 14 21 1 0
BITMAP
0C00
0600
0600
0200
0000
0000
0F80
3FE0
7070
6038
E018
C018
C018
C01C
C018
C018
E018
6038
7070
3FE0
0FC0
ENDCHAR
STARTCHAR 00F3
ENCODING 243
SWIDTH 606 0
DWIDTH 16 0
BBX 14 21 1 0
BITMAP
0180
0180
0100
0300
0000
0000
0F80
3FE0
7070
6038
E018
C018
C018
C01C
C018
C018
E018
6038
7070
3FE0
0FC0
ENDCHAR
STARTCHAR 00F4
ENCODING 244
SWIDTH 606 0
DWIDTH 16 0
BBX 14 21 1 0
BITMAP
0300
0780
0D80
18C0
0000
0000
0F80
3FE0
7070
6038
E018
C018
C018
C01C
C018
C018
E018
6038
7070
3FE0
0FC0
ENDCHAR
STARTCHAR 00F5
ENCODING 245
SWIDTH 606 0
DWIDTH 16 0
BBX 14 20 1 0
BITMAP
1C60
1FE0
11C0
0000
0000
0F80
3FE0
7070
6038
E018
C018
C018
C01C
C018
C018
E018
6038
7070
3FE0
0FC0
ENDCHAR
STARTCHAR 00F6
ENCODING 246
SWIDTH 606 0
DWIDTH 16 0
BBX 14 19 1 0
BITMAP
18C0
18C0
0000
0000
0F80
3FE0
7070
6038
E018
C018
C018
C01C
C018
C018
E018
6038
7070
3FE0
0FC0
ENDCHAR
STARTCHAR 00F7
ENCODING 247
SWIDTH 530 0
DWIDTH 14 0
BBX 11 9 2 5
BITMAP
0C00
0C00
0000
FFE0
FFE0
0000
0000
0C00
0C00
ENDCHAR
STARTCHAR 00F8
ENCODING 248
SWIDTH 606 0
DWIDTH 16 0
BBX 14 15 1 0
BITMAP
0FC8
3FFC
7078
6038
E078
C0D8
C19C
C31C
C618
CC18
F818
7038
7070
FFE0
8F80
ENDCHAR
STARTCHAR 00F9
ENCODING 249
SWIDTH 606 0
DWIDTH 16 0
BBX 12 21 2 0
BITMAP
0800
0C00
0400
0600
0000
0000
C030
C030
C030
C030
C030
C030
C030
C030
C030
C030
C070
C070
60F0
7FB0
1F30
ENDCHAR
STARTCHAR 00FA
ENCODING 250
SWIDTH 606 0
DWIDTH 16 0
BBX 12 21 2 0
BITMAP
0300
0200
0600
0600
0000
0000
C030
C030
C030
C030
C030
C030
C030
C030
C030
C030
C070
C070
60F0
7FB0
1F30
ENDCHAR
STARTCHAR 00FB
ENCODING 251
SWIDTH 606 0
DWIDTH 16 0
BBX 12 21 2 0
BITMAP
0E00
0F00
1980
30C0
0000
0000
C030
C030
C030
C030
C030
C030
C030
C030
C030
C030
C070
C070
60F0
7FB0
1F30
ENDCHAR
STARTCHAR 00FC
ENCODING 252
SWIDTH 606 0
DWIDTH 16 0
BBX 12 19 2 0
BITMAP
3180
3180
0000
0000
C030
C030
C030
C030
C030
C030
C030
C030
C030
C030
C070
C070
60F0
7FB0
1F30
ENDCHAR
STARTCHAR 00FD
ENCODING 253
SWIDTH 530 0
DWIDTH 14 0
BBX 12 27 1 -6
BITMAP
0300
0300
0200
0600
0000
0000
C030
C030
C030
6060
6060
30C0
30C0
30C0
1980
1980
0D80
0F00
0700
0600
0600
0600
0C00
0C00
0C00
1800
1800
ENDCHAR
STARTCHAR 00FE
ENCODING 254
SWIDTH 606 0
DWIDTH 16 0
BBX 13 25 2 -6
BITMAP
C000
C000
C000
C000
CF80
FFC0
F0E0
E070
C030
C030
C038
C038
C030
C030
C030
E070
F0E0
FFC0
CF80
C000
C000
C000
C000
C000
C000
ENDCHAR
STARTCHAR 00FF
ENCODING 255
SWIDTH 530 0
DWIDTH 14 0
BBX 12 25 1 -6
BITMAP
18C0
18C0
0000
0000
C030
C030
C030
6060
6060
30C0
30C0
30C0
1980
1980
0D80
0F00
0700
0600
0600
0600
0C00
0C00
0C00
1800
1800
ENDCHAR
ENDFONT
