STARTFONT 2.1
COMMENT
COMMENT Converted from OpenType font "Manrope-ExtraLight.otf" by "otf2bdf 3.0".
COMMENT
FONT -FreeType-Manrope ExtraLight-Medium-R-Normal--19-140-100-100-P-86-ISO10646-1
SIZE 14 100 100
FONTBOUNDINGBOX 18 24 0 -5
STARTPROPERTIES 19
FOUNDRY "FreeType"
FAMILY_NAME "Manrope ExtraLight"
WEIGHT_NAME "Medium"
SLANT "R"
SETWIDTH_NAME "Normal"
ADD_STYLE_NAME ""
PIXEL_SIZE 19
POINT_SIZE 140
RESOLUTION_X 100
RESOLUTION_Y 100
SPACING "P"
AVERAGE_WIDTH 86
CHARSET_REGISTRY "ISO10646"
CHARSET_ENCODING "1"
FONT_ASCENT 20
FONT_DESCENT 5
COPYRIGHT "Copyright 2019-2021 The Manrope Project Authors (https://github.com/sharanda/manrope)"
_OTF_FONTFILE "Manrope-ExtraLight.otf"
_OTF_PSNAME "Manrope-ExtraLight"
ENDPROPERTIES
CHARS 191
STARTCHAR 0020
ENCODING 32
SWIDTH 205 0
DWIDTH 4 0
BBX 0 0 0 0
BITMAP
ENDCHAR
STARTCHAR 0021
ENCODING 33
SWIDTH 257 0
DWIDTH 5 0
BBX 1 14 2 0
BITMAP
80
80
80
80
80
80
80
80
80
80
80
00
00
80
ENDCHAR
STARTCHAR 0022
ENCODING 34
SWIDTH 360 0
DWIDTH 7 0
BBX 4 4 1 10
BITMAP
90
90
90
90
ENDCHAR
STARTCHAR 0023
ENCODING 35
SWIDTH 925 0
DWIDTH 18 0
BBX 15 14 1 0
BITMAP
0110
0210
0210
0210
7FFE
0420
0420
0420
0440
FFFC
0840
0880
1080
1080
ENDCHAR
STARTCHAR 0024
ENCODING 36
SWIDTH 565 0
DWIDTH 11 0
BBX 9 18 1 -2
BITMAP
0800
0800
3E00
4100
8080
8080
8000
4000
3800
0700
0080
0080
0080
8080
4180
3E00
0800
0800
ENDCHAR
STARTCHAR 0025
ENCODING 37
SWIDTH 925 0
DWIDTH 18 0
BBX 15 14 1 0
BITMAP
3802
4604
8208
8210
8220
4440
3880
0100
023C
0442
0882
1082
2042
403C
ENDCHAR
STARTCHAR 0026
ENCODING 38
SWIDTH 617 0
DWIDTH 12 0
BBX 11 14 1 0
BITMAP
1E00
6100
4000
4000
4000
6000
3000
4800
8440
8240
8140
8080
41C0
3E20
ENDCHAR
STARTCHAR 0027
ENCODING 39
SWIDTH 205 0
DWIDTH 4 0
BBX 1 4 1 10
BITMAP
80
80
80
80
ENDCHAR
STARTCHAR 0028
ENCODING 40
SWIDTH 411 0
DWIDTH 8 0
BBX 4 19 3 -4
BITMAP
10
20
20
40
40
80
80
80
80
80
80
80
80
80
80
40
40
20
10
ENDCHAR
STARTCHAR 0029
ENCODING 41
SWIDTH 411 0
DWIDTH 8 0
BBX 4 19 1 -4
BITMAP
80
40
40
20
20
10
10
10
10
10
10
10
10
10
20
20
20
40
80
ENDCHAR
STARTCHAR 002A
ENCODING 42
SWIDTH 411 0
DWIDTH 8 0
BBX 5 6 1 8
BITMAP
20
20
F8
30
58
08
ENDCHAR
STARTCHAR 002B
ENCODING 43
SWIDTH 565 0
DWIDTH 11 0
BBX 9 9 1 2
BITMAP
0800
0800
0800
0800
FF80
0800
0800
0800
0800
ENDCHAR
STARTCHAR 002C
ENCODING 44
SWIDTH 257 0
DWIDTH 5 0
BBX 1 4 1 -2
BITMAP
80
80
80
80
ENDCHAR
STARTCHAR 002D
ENCODING 45
SWIDTH 411 0
DWIDTH 8 0
BBX 6 1 1 6
BITMAP
FC
ENDCHAR
STARTCHAR 002E
ENCODING 46
SWIDTH 205 0
DWIDTH 4 0
BBX 1 1 2 0
BITMAP
80
ENDCHAR
STARTCHAR 002F
ENCODING 47
SWIDTH 360 0
DWIDTH 7 0
BBX 5 14 1 0
BITMAP
08
10
10
10
10
20
20
20
40
40
40
40
80
80
ENDCHAR
STARTCHAR 0030
ENCODING 48
SWIDTH 565 0
DWIDTH 11 0
BBX 9 14 1 0
BITMAP
1E00
6100
4080
8080
8080
8080
8080
8080
8080
8080
8080
4080
6100
1E00
ENDCHAR
STARTCHAR 0031
ENCODING 49
SWIDTH 360 0
DWIDTH 7 0
BBX 4 14 1 0
BITMAP
30
D0
10
10
10
10
10
10
10
10
10
10
10
10
ENDCHAR
STARTCHAR 0032
ENCODING 50
SWIDTH 565 0
DWIDTH 11 0
BBX 9 14 1 0
BITMAP
3C00
4300
8100
8080
0080
0080
0100
0300
0400
0800
1000
2000
4000
FF80
ENDCHAR
STARTCHAR 0033
ENCODING 51
SWIDTH 514 0
DWIDTH 10 0
BBX 8 14 1 0
BITMAP
FF
02
04
08
10
3C
02
01
01
01
01
81
C2
3C
ENDCHAR
STARTCHAR 0034
ENCODING 52
SWIDTH 565 0
DWIDTH 11 0
BBX 9 14 1 0
BITMAP
0800
0800
1000
1000
1000
2000
2100
4100
4100
8100
FF80
0100
0100
0100
ENDCHAR
STARTCHAR 0035
ENCODING 53
SWIDTH 565 0
DWIDTH 11 0
BBX 9 14 1 0
BITMAP
7F00
8000
8000
8000
8000
BE00
C100
0080
0080
0080
8080
8080
4100
3E00
ENDCHAR
STARTCHAR 0036
ENCODING 54
SWIDTH 617 0
DWIDTH 12 0
BBX 10 14 1 0
BITMAP
1E00
2100
4080
8000
8000
9E00
A100
C080
8040
8040
8040
4080
2100
1E00
ENDCHAR
STARTCHAR 0037
ENCODING 55
SWIDTH 462 0
DWIDTH 9 0
BBX 7 14 1 0
BITMAP
FE
02
02
04
04
08
08
08
10
10
20
20
20
40
ENDCHAR
STARTCHAR 0038
ENCODING 56
SWIDTH 565 0
DWIDTH 11 0
BBX 9 14 1 0
BITMAP
3E00
4100
4100
8100
8100
4100
3E00
4300
8100
8080
8080
8100
4100
3E00
ENDCHAR
STARTCHAR 0039
ENCODING 57
SWIDTH 617 0
DWIDTH 12 0
BBX 10 14 1 0
BITMAP
1E00
2100
4080
8040
8040
8040
40C0
2140
1E40
0040
0040
4080
2180
1E00
ENDCHAR
STARTCHAR 003A
ENCODING 58
SWIDTH 257 0
DWIDTH 5 0
BBX 1 7 2 2
BITMAP
80
00
00
00
00
00
80
ENDCHAR
STARTCHAR 003B
ENCODING 59
SWIDTH 257 0
DWIDTH 5 0
BBX 1 13 2 -2
BITMAP
80
00
00
00
00
00
00
00
00
80
80
80
80
ENDCHAR
STARTCHAR 003C
ENCODING 60
SWIDTH 617 0
DWIDTH 12 0
BBX 5 9 3 2
BITMAP
08
10
20
40
80
40
20
10
08
ENDCHAR
STARTCHAR 003D
ENCODING 61
SWIDTH 771 0
DWIDTH 15 0
BBX 10 4 2 5
BITMAP
FFC0
0000
0000
FFC0
ENDCHAR
STARTCHAR 003E
ENCODING 62
SWIDTH 617 0
DWIDTH 12 0
BBX 5 9 4 2
BITMAP
80
40
20
10
08
10
20
40
80
ENDCHAR
STARTCHAR 003F
ENCODING 63
SWIDTH 514 0
DWIDTH 10 0
BBX 8 14 1 0
BITMAP
3C
42
81
81
01
02
04
08
10
10
00
00
00
10
ENDCHAR
STARTCHAR 0040
ENCODING 64
SWIDTH 874 0
DWIDTH 17 0
BBX 14 15 2 -2
BITMAP
0780
1860
6010
4008
8008
8784
8884
8884
8884
88C8
8778
4000
6000
3020
0FC0
ENDCHAR
STARTCHAR 0041
ENCODING 65
SWIDTH 617 0
DWIDTH 12 0
BBX 11 14 0 0
BITMAP
0600
0600
0A00
0900
0900
1100
1080
1080
2080
3FC0
4040
4020
4020
8020
ENDCHAR
STARTCHAR 0042
ENCODING 66
SWIDTH 617 0
DWIDTH 12 0
BBX 10 14 1 0
BITMAP
FF00
8080
8080
8080
8080
8080
FF00
8080
8040
8040
8040
8040
8080
FF00
ENDCHAR
STARTCHAR 0043
ENCODING 67
SWIDTH 720 0
DWIDTH 14 0
BBX 12 14 1 0
BITMAP
1F80
2040
4020
8020
8010
8000
8000
8000
8000
8010
8020
4020
2040
1F80
ENDCHAR
STARTCHAR 0044
ENCODING 68
SWIDTH 668 0
DWIDTH 13 0
BBX 11 14 1 0
BITMAP
FF00
8080
8040
8040
8020
8020
8020
8020
8020
8020
8040
8040
8080
FF00
ENDCHAR
STARTCHAR 0045
ENCODING 69
SWIDTH 565 0
DWIDTH 11 0
BBX 9 14 1 0
BITMAP
FF80
8000
8000
8000
8000
8000
8000
FF00
8000
8000
8000
8000
8000
FF80
ENDCHAR
STARTCHAR 0046
ENCODING 70
SWIDTH 514 0
DWIDTH 10 0
BBX 8 14 1 0
BITMAP
FF
80
80
80
80
80
80
FE
80
80
80
80
80
80
ENDCHAR
STARTCHAR 0047
ENCODING 71
SWIDTH 668 0
DWIDTH 13 0
BBX 12 14 1 0
BITMAP
1F00
20C0
4020
8000
8000
8000
8000
81F0
8010
8010
8020
4020
2040
1F80
ENDCHAR
STARTCHAR 0048
ENCODING 72
SWIDTH 668 0
DWIDTH 13 0
BBX 10 14 1 0
BITMAP
8040
8040
8040
8040
8040
8040
8040
FFC0
8040
8040
8040
8040
8040
8040
ENDCHAR
STARTCHAR 0049
ENCODING 73
SWIDTH 205 0
DWIDTH 4 0
BBX 1 14 1 0
BITMAP
80
80
80
80
80
80
80
80
80
80
80
80
80
80
ENDCHAR
STARTCHAR 004A
ENCODING 74
SWIDTH 462 0
DWIDTH 9 0
BBX 7 14 0 0
BITMAP
02
02
02
02
02
02
02
02
02
02
02
82
44
38
ENDCHAR
STARTCHAR 004B
ENCODING 75
SWIDTH 565 0
DWIDTH 11 0
BBX 9 14 1 0
BITMAP
8080
8100
8200
8C00
9800
B000
E000
A000
9000
8800
8400
8200
8100
8080
ENDCHAR
STARTCHAR 004C
ENCODING 76
SWIDTH 514 0
DWIDTH 10 0
BBX 7 14 2 0
BITMAP
80
80
80
80
80
80
80
80
80
80
80
80
80
FE
ENDCHAR
STARTCHAR 004D
ENCODING 77
SWIDTH 822 0
DWIDTH 16 0
BBX 14 14 1 0
BITMAP
8004
C00C
C00C
A014
A014
9024
9024
8844
8844
8844
8484
8484
8304
8304
ENDCHAR
STARTCHAR 004E
ENCODING 78
SWIDTH 668 0
DWIDTH 13 0
BBX 11 14 1 0
BITMAP
C020
C020
A020
9020
9020
8820
8420
8420
8220
8120
8120
80A0
8060
8060
ENDCHAR
STARTCHAR 004F
ENCODING 79
SWIDTH 720 0
DWIDTH 14 0
BBX 12 14 1 0
BITMAP
1F80
2040
4020
8020
8010
8010
8010
8010
8010
8010
8020
4020
2040
1F80
ENDCHAR
STARTCHAR 0050
ENCODING 80
SWIDTH 565 0
DWIDTH 11 0
BBX 10 14 1 0
BITMAP
FF00
8080
8080
8040
8040
8080
8080
FF00
8000
8000
8000
8000
8000
8000
ENDCHAR
STARTCHAR 0051
ENCODING 81
SWIDTH 720 0
DWIDTH 14 0
BBX 12 14 1 0
BITMAP
1F80
2040
4020
8020
8010
8010
8010
8010
8010
8010
80A0
4060
2060
1F90
ENDCHAR
STARTCHAR 0052
ENCODING 82
SWIDTH 617 0
DWIDTH 12 0
BBX 10 14 1 0
BITMAP
FF00
8080
8080
8040
8040
8080
8080
FF00
8100
8100
8100
8080
8080
8040
ENDCHAR
STARTCHAR 0053
ENCODING 83
SWIDTH 565 0
DWIDTH 11 0
BBX 10 14 1 0
BITMAP
3E00
4180
8080
8040
8000
4000
3C00
0300
0080
0040
0040
8040
4080
3F00
ENDCHAR
STARTCHAR 0054
ENCODING 84
SWIDTH 565 0
DWIDTH 11 0
BBX 11 14 0 0
BITMAP
FFE0
0400
0400
0400
0400
0400
0400
0400
0400
0400
0400
0400
0400
0400
ENDCHAR
STARTCHAR 0055
ENCODING 85
SWIDTH 668 0
DWIDTH 13 0
BBX 11 14 1 0
BITMAP
8020
8020
8020
8020
8020
8020
8020
8020
8020
8020
4020
4040
20C0
1F00
ENDCHAR
STARTCHAR 0056
ENCODING 86
SWIDTH 565 0
DWIDTH 11 0
BBX 11 14 0 0
BITMAP
8020
4020
4040
4040
2040
2080
2080
1100
1100
1100
0A00
0A00
0A00
0400
ENDCHAR
STARTCHAR 0057
ENCODING 87
SWIDTH 925 0
DWIDTH 18 0
BBX 17 14 0 0
BITMAP
808080
40C080
40C080
414100
212100
212100
222200
222200
121200
121200
141400
0C0C00
0C0C00
080800
ENDCHAR
STARTCHAR 0058
ENCODING 88
SWIDTH 565 0
DWIDTH 11 0
BBX 11 14 0 0
BITMAP
4040
4040
2080
1100
1100
0A00
0400
0400
0A00
1100
1080
2080
4040
8020
ENDCHAR
STARTCHAR 0059
ENCODING 89
SWIDTH 514 0
DWIDTH 10 0
BBX 10 14 0 0
BITMAP
8040
4080
4080
2100
1200
1200
0C00
0C00
0800
0800
0800
0800
0800
0800
ENDCHAR
STARTCHAR 005A
ENCODING 90
SWIDTH 565 0
DWIDTH 11 0
BBX 9 14 1 0
BITMAP
FF80
0080
0100
0200
0200
0400
0800
0800
1000
1000
2000
4000
4000
FF80
ENDCHAR
STARTCHAR 005B
ENCODING 91
SWIDTH 411 0
DWIDTH 8 0
BBX 3 21 3 -4
BITMAP
E0
80
80
80
80
80
80
80
80
80
80
80
80
80
80
80
80
80
80
80
E0
ENDCHAR
STARTCHAR 005C
ENCODING 92
SWIDTH 360 0
DWIDTH 7 0
BBX 5 14 1 0
BITMAP
80
80
40
40
40
40
20
20
20
10
10
10
10
08
ENDCHAR
STARTCHAR 005D
ENCODING 93
SWIDTH 411 0
DWIDTH 8 0
BBX 3 21 2 -4
BITMAP
E0
20
20
20
20
20
20
20
20
20
20
20
20
20
20
20
20
20
20
20
E0
ENDCHAR
STARTCHAR 005E
ENCODING 94
SWIDTH 668 0
DWIDTH 13 0
BBX 9 5 2 9
BITMAP
0800
1400
2200
4100
8080
ENDCHAR
STARTCHAR 005F
ENCODING 95
SWIDTH 668 0
DWIDTH 13 0
BBX 13 1 0 -2
BITMAP
FFF8
ENDCHAR
STARTCHAR 0060
ENCODING 96
SWIDTH 462 0
DWIDTH 9 0
BBX 2 3 3 16
BITMAP
80
40
40
ENDCHAR
STARTCHAR 0061
ENCODING 97
SWIDTH 565 0
DWIDTH 11 0
BBX 8 11 1 0
BITMAP
3E
41
81
01
07
79
81
81
81
83
7C
ENDCHAR
STARTCHAR 0062
ENCODING 98
SWIDTH 565 0
DWIDTH 11 0
BBX 9 14 1 0
BITMAP
8000
8000
8000
9E00
A100
C080
8080
8080
8080
8080
8080
C080
A100
9E00
ENDCHAR
STARTCHAR 0063
ENCODING 99
SWIDTH 514 0
DWIDTH 10 0
BBX 9 11 1 0
BITMAP
3E00
4100
8080
8000
8000
8000
8000
8000
8080
4100
3E00
ENDCHAR
STARTCHAR 0064
ENCODING 100
SWIDTH 565 0
DWIDTH 11 0
BBX 9 14 1 0
BITMAP
0080
0080
0080
3C80
4280
8180
8080
8080
8080
8080
8080
8180
4280
3C80
ENDCHAR
STARTCHAR 0065
ENCODING 101
SWIDTH 565 0
DWIDTH 11 0
BBX 9 11 1 0
BITMAP
3E00
4100
8080
8080
8080
FF80
8000
8000
8080
4100
3E00
ENDCHAR
STARTCHAR 0066
ENCODING 102
SWIDTH 360 0
DWIDTH 7 0
BBX 5 14 1 0
BITMAP
38
40
40
F8
40
40
40
40
40
40
40
40
40
40
ENDCHAR
STARTCHAR 0067
ENCODING 103
SWIDTH 565 0
DWIDTH 11 0
BBX 9 16 1 -5
BITMAP
3C80
4380
8180
8080
8080
8080
8080
8080
8180
4280
3C80
0080
0080
8100
4300
3C00
ENDCHAR
STARTCHAR 0068
ENCODING 104
SWIDTH 565 0
DWIDTH 11 0
BBX 9 14 1 0
BITMAP
8000
8000
8000
9E00
E100
C080
8080
8080
8080
8080
8080
8080
8080
8080
ENDCHAR
STARTCHAR 0069
ENCODING 105
SWIDTH 205 0
DWIDTH 4 0
BBX 1 14 1 0
BITMAP
80
00
00
80
80
80
80
80
80
80
80
80
80
80
ENDCHAR
STARTCHAR 006A
ENCODING 106
SWIDTH 205 0
DWIDTH 4 0
BBX 3 19 0 -5
BITMAP
20
00
00
20
20
20
20
20
20
20
20
20
20
20
20
20
20
20
C0
ENDCHAR
STARTCHAR 006B
ENCODING 107
SWIDTH 462 0
DWIDTH 9 0
BBX 8 14 1 0
BITMAP
80
80
80
82
84
88
90
A0
C0
A0
90
8C
86
81
ENDCHAR
STARTCHAR 006C
ENCODING 108
SWIDTH 205 0
DWIDTH 4 0
BBX 1 14 1 0
BITMAP
80
80
80
80
80
80
80
80
80
80
80
80
80
80
ENDCHAR
STARTCHAR 006D
ENCODING 109
SWIDTH 822 0
DWIDTH 16 0
BBX 14 11 1 0
BITMAP
BCF0
C308
8304
8204
8204
8204
8204
8204
8204
8204
8204
ENDCHAR
STARTCHAR 006E
ENCODING 110
SWIDTH 565 0
DWIDTH 11 0
BBX 9 11 1 0
BITMAP
9E00
E100
C080
8080
8080
8080
8080
8080
8080
8080
8080
ENDCHAR
STARTCHAR 006F
ENCODING 111
SWIDTH 565 0
DWIDTH 11 0
BBX 9 11 1 0
BITMAP
3E00
4100
8080
8080
8080
8080
8080
8080
8080
4100
3E00
ENDCHAR
STARTCHAR 0070
ENCODING 112
SWIDTH 565 0
DWIDTH 11 0
BBX 9 15 1 -4
BITMAP
9E00
A100
C080
8080
8080
8080
8080
8080
C080
A100
9E00
8000
8000
8000
8000
ENDCHAR
STARTCHAR 0071
ENCODING 113
SWIDTH 565 0
DWIDTH 11 0
BBX 9 15 1 -4
BITMAP
3C80
4380
8180
8080
8080
8080
8080
8080
8180
4280
3C80
0080
0080
0080
0080
ENDCHAR
STARTCHAR 0072
ENCODING 114
SWIDTH 360 0
DWIDTH 7 0
BBX 5 11 1 0
BITMAP
B8
C0
C0
80
80
80
80
80
80
80
80
ENDCHAR
STARTCHAR 0073
ENCODING 115
SWIDTH 514 0
DWIDTH 10 0
BBX 8 11 1 0
BITMAP
3C
C3
81
80
60
1C
03
01
81
C1
3E
ENDCHAR
STARTCHAR 0074
ENCODING 116
SWIDTH 360 0
DWIDTH 7 0
BBX 7 13 0 1
BITMAP
20
20
FE
20
20
20
20
20
20
20
20
10
0E
ENDCHAR
STARTCHAR 0075
ENCODING 117
SWIDTH 565 0
DWIDTH 11 0
BBX 9 11 1 0
BITMAP
8080
8080
8080
8080
8080
8080
8080
8080
8180
4180
3E80
ENDCHAR
STARTCHAR 0076
ENCODING 118
SWIDTH 462 0
DWIDTH 9 0
BBX 9 11 0 0
BITMAP
8080
4100
4100
4100
2200
2200
1200
1400
1400
0C00
0800
ENDCHAR
STARTCHAR 0077
ENCODING 119
SWIDTH 720 0
DWIDTH 14 0
BBX 14 11 0 0
BITMAP
8104
4304
4308
4288
2488
2490
2450
2850
1850
1820
1820
ENDCHAR
STARTCHAR 0078
ENCODING 120
SWIDTH 514 0
DWIDTH 10 0
BBX 8 11 1 0
BITMAP
81
82
42
24
18
10
18
24
42
81
81
ENDCHAR
STARTCHAR 0079
ENCODING 121
SWIDTH 514 0
DWIDTH 10 0
BBX 9 15 0 -4
BITMAP
8080
4080
4100
2100
2100
2200
1200
1200
0C00
0C00
0400
0800
0800
1000
1000
ENDCHAR
STARTCHAR 007A
ENCODING 122
SWIDTH 514 0
DWIDTH 10 0
BBX 8 11 1 0
BITMAP
FF
03
02
04
08
10
10
20
40
80
FF
ENDCHAR
STARTCHAR 007B
ENCODING 123
SWIDTH 411 0
DWIDTH 8 0
BBX 4 21 3 -4
BITMAP
70
40
40
40
40
40
40
40
40
80
80
80
40
40
40
40
40
40
40
40
70
ENDCHAR
STARTCHAR 007C
ENCODING 124
SWIDTH 205 0
DWIDTH 4 0
BBX 1 14 2 0
BITMAP
80
80
80
80
80
80
80
80
80
80
80
80
80
80
ENDCHAR
STARTCHAR 007D
ENCODING 125
SWIDTH 411 0
DWIDTH 8 0
BBX 4 21 1 -4
BITMAP
C0
20
20
20
20
20
20
20
20
20
10
20
20
20
20
20
20
20
20
20
C0
ENDCHAR
STARTCHAR 007E
ENCODING 126
SWIDTH 617 0
DWIDTH 12 0
BBX 8 3 2 4
BITMAP
71
99
86
ENDCHAR
STARTCHAR 00A0
ENCODING 160
SWIDTH 205 0
DWIDTH 4 0
BBX 0 0 0 0
BITMAP
ENDCHAR
STARTCHAR 00A1
ENCODING 161
SWIDTH 257 0
DWIDTH 5 0
BBX 1 14 2 -3
BITMAP
80
00
00
80
80
80
80
80
80
80
80
80
80
80
ENDCHAR
STARTCHAR 00A2
ENCODING 162
SWIDTH 514 0
DWIDTH 10 0
BBX 9 15 1 -1
BITMAP
0800
0800
3E00
4100
8080
8000
8000
8000
8000
8000
8080
6100
1E00
0800
0800
ENDCHAR
STARTCHAR 00A3
ENCODING 163
SWIDTH 565 0
DWIDTH 11 0
BBX 9 14 1 0
BITMAP
0F00
1080
2080
2000
2000
2000
FE00
2000
2000
2000
2000
2000
2000
FF80
ENDCHAR
STARTCHAR 00A4
ENCODING 164
SWIDTH 617 0
DWIDTH 12 0
BBX 10 10 1 2
BITMAP
9E40
6180
4080
8040
8040
8040
8040
4080
6180
9E40
ENDCHAR
STARTCHAR 00A5
ENCODING 165
SWIDTH 514 0
DWIDTH 10 0
BBX 10 14 0 0
BITMAP
8040
4080
4080
2100
1200
1200
0C00
0C00
3F80
0800
0800
3F80
0800
0800
ENDCHAR
STARTCHAR 00A6
ENCODING 166
SWIDTH 205 0
DWIDTH 4 0
BBX 1 16 2 -2
BITMAP
80
80
80
80
80
80
80
00
00
00
80
80
80
80
80
80
ENDCHAR
STARTCHAR 00A7
ENCODING 167
SWIDTH 514 0
DWIDTH 10 0
BBX 8 16 1 -3
BITMAP
3C
42
81
80
40
3C
C3
81
81
61
1E
03
01
81
43
3C
ENDCHAR
STARTCHAR 00A8
ENCODING 168
SWIDTH 462 0
DWIDTH 9 0
BBX 5 1 2 16
BITMAP
88
ENDCHAR
STARTCHAR 00A9
ENCODING 169
SWIDTH 771 0
DWIDTH 15 0
BBX 13 14 1 0
BITMAP
0F00
30C0
4020
4F10
9090
9008
9008
9008
9008
9090
4F10
4020
3040
0F80
ENDCHAR
STARTCHAR 00AA
ENCODING 170
SWIDTH 308 0
DWIDTH 6 0
BBX 4 5 1 6
BITMAP
70
90
70
90
F0
ENDCHAR
STARTCHAR 00AB
ENCODING 171
SWIDTH 514 0
DWIDTH 10 0
BBX 6 8 2 1
BITMAP
24
48
48
90
90
48
24
24
ENDCHAR
STARTCHAR 00AC
ENCODING 172
SWIDTH 617 0
DWIDTH 12 0
BBX 9 3 1 4
BITMAP
FF80
0080
0080
ENDCHAR
STARTCHAR 00AD
ENCODING 173
SWIDTH 411 0
DWIDTH 8 0
BBX 6 1 1 6
BITMAP
FC
ENDCHAR
STARTCHAR 00AE
ENCODING 174
SWIDTH 617 0
DWIDTH 12 0
BBX 9 9 1 6
BITMAP
1E00
2100
5C80
9280
9C80
9480
5280
2100
1E00
ENDCHAR
STARTCHAR 00AF
ENCODING 175
SWIDTH 462 0
DWIDTH 9 0
BBX 5 1 2 16
BITMAP
F8
ENDCHAR
STARTCHAR 00B0
ENCODING 176
SWIDTH 462 0
DWIDTH 9 0
BBX 7 7 1 7
BITMAP
78
84
84
82
84
C4
38
ENDCHAR
STARTCHAR 00B1
ENCODING 177
SWIDTH 617 0
DWIDTH 12 0
BBX 9 9 1 2
BITMAP
0800
0800
0800
FF80
0800
0800
0000
0000
FF80
ENDCHAR
STARTCHAR 00B2
ENCODING 178
SWIDTH 411 0
DWIDTH 8 0
BBX 6 9 1 5
BITMAP
70
88
84
04
08
10
20
40
FC
ENDCHAR
STARTCHAR 00B3
ENCODING 179
SWIDTH 360 0
DWIDTH 7 0
BBX 5 9 1 5
BITMAP
F8
10
20
70
08
08
08
88
70
ENDCHAR
STARTCHAR 00B4
ENCODING 180
SWIDTH 462 0
DWIDTH 9 0
BBX 1 2 4 17
BITMAP
80
80
ENDCHAR
STARTCHAR 00B5
ENCODING 181
SWIDTH 565 0
DWIDTH 11 0
BBX 9 15 1 -4
BITMAP
8080
8080
8080
8080
8080
8080
8080
8080
C080
C180
BE80
8000
8000
8000
8000
ENDCHAR
STARTCHAR 00B6
ENCODING 182
SWIDTH 565 0
DWIDTH 11 0
BBX 8 17 2 -3
BITMAP
3D
7D
FD
FD
FD
FD
FD
7D
05
05
05
05
05
05
05
05
05
ENDCHAR
STARTCHAR 00B7
ENCODING 183
SWIDTH 205 0
DWIDTH 4 0
BBX 2 1 1 5
BITMAP
C0
ENDCHAR
STARTCHAR 00B8
ENCODING 184
SWIDTH 411 0
DWIDTH 8 0
BBX 3 4 2 -4
BITMAP
40
20
20
C0
ENDCHAR
STARTCHAR 00B9
ENCODING 185
SWIDTH 308 0
DWIDTH 6 0
BBX 3 9 1 5
BITMAP
60
A0
20
20
20
20
20
20
20
ENDCHAR
STARTCHAR 00BA
ENCODING 186
SWIDTH 360 0
DWIDTH 7 0
BBX 5 6 1 5
BITMAP
70
88
88
88
90
70
ENDCHAR
STARTCHAR 00BB
ENCODING 187
SWIDTH 514 0
DWIDTH 10 0
BBX 7 8 1 1
BITMAP
48
48
24
12
12
24
48
90
ENDCHAR
STARTCHAR 00BC
ENCODING 188
SWIDTH 925 0
DWIDTH 18 0
BBX 15 14 1 0
BITMAP
6010
A030
2020
2040
2080
2108
2310
2210
2420
0824
1844
107E
2004
4004
ENDCHAR
STARTCHAR 00BD
ENCODING 189
SWIDTH 874 0
DWIDTH 17 0
BBX 15 14 1 0
BITMAP
6010
A030
2020
2040
2080
211C
2122
2202
2402
0802
180C
1018
2020
407E
ENDCHAR
STARTCHAR 00BE
ENCODING 190
SWIDTH 925 0
DWIDTH 18 0
BBX 16 14 1 0
BITMAP
F804
1008
2010
7030
0820
0844
0888
8908
7308
0212
0412
083F
1002
1002
ENDCHAR
STARTCHAR 00BF
ENCODING 191
SWIDTH 514 0
DWIDTH 10 0
BBX 8 15 1 -4
BITMAP
08
00
00
00
08
10
10
20
40
80
80
81
81
42
3C
ENDCHAR
STARTCHAR 00C0
ENCODING 192
SWIDTH 617 0
DWIDTH 12 0
BBX 11 18 0 1
BITMAP
0400
0400
0000
0000
0600
0600
0A00
0900
0900
1100
1080
1080
2080
3FC0
4040
4020
4020
8020
ENDCHAR
STARTCHAR 00C1
ENCODING 193
SWIDTH 617 0
DWIDTH 12 0
BBX 11 18 0 0
BITMAP
0200
0200
0000
0000
0600
0600
0A00
0900
0900
1100
1080
1080
2080
3FC0
4040
4020
4020
8020
ENDCHAR
STARTCHAR 00C2
ENCODING 194
SWIDTH 617 0
DWIDTH 12 0
BBX 11 18 0 0
BITMAP
0600
0900
0000
0000
0600
0600
0A00
0900
0900
1100
1080
1080
2080
3FC0
4040
4020
4020
8020
ENDCHAR
STARTCHAR 00C3
ENCODING 195
SWIDTH 617 0
DWIDTH 12 0
BBX 11 18 0 0
BITMAP
1C80
1300
0000
0000
0600
0600
0A00
0900
0900
1100
1080
1080
2080
3FC0
4040
4020
4020
8020
ENDCHAR
STARTCHAR 00C4
ENCODING 196
SWIDTH 617 0
DWIDTH 12 0
BBX 11 17 0 0
BITMAP
0900
0000
0000
0600
0600
0A00
0900
0900
1100
1080
1080
2080
3FC0
4040
4020
4020
8020
ENDCHAR
STARTCHAR 00C5
ENCODING 197
SWIDTH 617 0
DWIDTH 12 0
BBX 11 19 0 0
BITMAP
0600
0900
0900
0600
0000
0600
0600
0A00
0900
0900
1100
1080
1080
2080
3FC0
4040
4020
4020
8020
ENDCHAR
STARTCHAR 00C6
ENCODING 198
SWIDTH 925 0
DWIDTH 18 0
BBX 17 14 0 0
BITMAP
07FF80
048000
088000
088000
088000
108000
108000
10FE00
208000
3F8000
408000
408000
408000
80FF80
ENDCHAR
STARTCHAR 00C7
ENCODING 199
SWIDTH 720 0
DWIDTH 14 0
BBX 12 18 1 -4
BITMAP
1F80
2040
4020
8020
8010
8000
8000
8000
8000
8010
8020
4020
2040
1F80
0400
0200
0200
0600
ENDCHAR
STARTCHAR 00C8
ENCODING 200
SWIDTH 565 0
DWIDTH 11 0
BBX 9 19 1 0
BITMAP
0800
0800
0800
0000
0000
FF80
8000
8000
8000
8000
8000
8000
FF00
8000
8000
8000
8000
8000
FF80
ENDCHAR
STARTCHAR 00C9
ENCODING 201
SWIDTH 565 0
DWIDTH 11 0
BBX 9 18 1 0
BITMAP
0400
0400
0000
0000
FF80
8000
8000
8000
8000
8000
8000
FF00
8000
8000
8000
8000
8000
FF80
ENDCHAR
STARTCHAR 00CA
ENCODING 202
SWIDTH 565 0
DWIDTH 11 0
BBX 9 18 1 0
BITMAP
0800
1400
0000
0000
FF80
8000
8000
8000
8000
8000
8000
FF00
8000
8000
8000
8000
8000
FF80
ENDCHAR
STARTCHAR 00CB
ENCODING 203
SWIDTH 565 0
DWIDTH 11 0
BBX 9 17 1 0
BITMAP
2600
0000
0000
FF80
8000
8000
8000
8000
8000
8000
FF00
8000
8000
8000
8000
8000
FF80
ENDCHAR
STARTCHAR 00CC
ENCODING 204
SWIDTH 205 0
DWIDTH 4 0
BBX 1 18 1 1
BITMAP
80
80
00
00
80
80
80
80
80
80
80
80
80
80
80
80
80
80
ENDCHAR
STARTCHAR 00CD
ENCODING 205
SWIDTH 205 0
DWIDTH 4 0
BBX 1 18 2 0
BITMAP
80
80
00
00
80
80
80
80
80
80
80
80
80
80
80
80
80
80
ENDCHAR
STARTCHAR 00CE
ENCODING 206
SWIDTH 205 0
DWIDTH 4 0
BBX 4 18 0 0
BITMAP
60
90
00
00
40
40
40
40
40
40
40
40
40
40
40
40
40
40
ENDCHAR
STARTCHAR 00CF
ENCODING 207
SWIDTH 205 0
DWIDTH 4 0
BBX 4 17 0 0
BITMAP
90
00
00
40
40
40
40
40
40
40
40
40
40
40
40
40
40
ENDCHAR
STARTCHAR 00D0
ENCODING 208
SWIDTH 617 0
DWIDTH 12 0
BBX 12 14 0 0
BITMAP
7F00
40C0
4020
4020
4020
4010
4010
FC10
4010
4020
4020
4020
4040
7F80
ENDCHAR
STARTCHAR 00D1
ENCODING 209
SWIDTH 668 0
DWIDTH 13 0
BBX 11 18 1 0
BITMAP
0800
1500
1300
0000
C020
C020
A020
9020
9020
8820
8420
8420
8220
8120
8120
80A0
8060
8060
ENDCHAR
STARTCHAR 00D2
ENCODING 210
SWIDTH 720 0
DWIDTH 14 0
BBX 12 18 1 0
BITMAP
0400
0400
0400
0000
1F80
2040
4020
8020
8010
8010
8010
8010
8010
8010
8020
4020
2040
1F80
ENDCHAR
STARTCHAR 00D3
ENCODING 211
SWIDTH 720 0
DWIDTH 14 0
BBX 12 18 1 0
BITMAP
0200
0200
0200
0000
1F80
2040
4020
8020
8010
8010
8010
8010
8010
8010
8020
4020
2040
1F80
ENDCHAR
STARTCHAR 00D4
ENCODING 212
SWIDTH 720 0
DWIDTH 14 0
BBX 12 18 1 0
BITMAP
0400
0A00
0900
0000
1F80
2040
4020
8020
8010
8010
8010
8010
8010
8010
8020
4020
2040
1F80
ENDCHAR
STARTCHAR 00D5
ENCODING 213
SWIDTH 720 0
DWIDTH 14 0
BBX 12 18 1 0
BITMAP
0880
1680
1100
0000
1F80
2040
4020
8020
8010
8010
8010
8010
8010
8010
8020
4020
2040
1F80
ENDCHAR
STARTCHAR 00D6
ENCODING 214
SWIDTH 720 0
DWIDTH 14 0
BBX 12 17 1 0
BITMAP
0900
0000
0000
1F80
2040
4020
8020
8010
8010
8010
8010
8010
8010
8020
4020
2040
1F80
ENDCHAR
STARTCHAR 00D7
ENCODING 215
SWIDTH 462 0
DWIDTH 9 0
BBX 7 7 1 3
BITMAP
82
44
28
10
28
44
82
ENDCHAR
STARTCHAR 00D8
ENCODING 216
SWIDTH 720 0
DWIDTH 14 0
BBX 14 14 0 0
BITMAP
0FC4
1028
2010
4028
4048
4088
8108
8208
4408
4808
5010
2010
5020
8FC0
ENDCHAR
STARTCHAR 00D9
ENCODING 217
SWIDTH 668 0
DWIDTH 13 0
BBX 11 18 1 1
BITMAP
0400
0400
0000
0000
8020
8020
8020
8020
8020
8020
8020
8020
8020
8020
4020
4040
20C0
1F00
ENDCHAR
STARTCHAR 00DA
ENCODING 218
SWIDTH 668 0
DWIDTH 13 0
BBX 11 18 1 0
BITMAP
0200
0400
0000
0000
8020
8020
8020
8020
8020
8020
8020
8020
8020
8020
4020
4040
20C0
1F00
ENDCHAR
STARTCHAR 00DB
ENCODING 219
SWIDTH 668 0
DWIDTH 13 0
BBX 11 18 1 0
BITMAP
0600
0A00
0100
0000
8020
8020
8020
8020
8020
8020
8020
8020
8020
8020
4020
4040
20C0
1F00
ENDCHAR
STARTCHAR 00DC
ENCODING 220
SWIDTH 668 0
DWIDTH 13 0
BBX 11 17 1 0
BITMAP
1900
0000
0000
8020
8020
8020
8020
8020
8020
8020
8020
8020
8020
4020
4040
20C0
1F00
ENDCHAR
STARTCHAR 00DD
ENCODING 221
SWIDTH 514 0
DWIDTH 10 0
BBX 10 18 0 0
BITMAP
0400
0800
0000
0000
8040
4080
4080
2100
1200
1200
0C00
0C00
0800
0800
0800
0800
0800
0800
ENDCHAR
STARTCHAR 00DE
ENCODING 222
SWIDTH 565 0
DWIDTH 11 0
BBX 9 14 1 0
BITMAP
8000
8000
8000
FE00
8180
8080
8080
8080
8080
8180
FE00
8000
8000
8000
ENDCHAR
STARTCHAR 00DF
ENCODING 223
SWIDTH 565 0
DWIDTH 11 0
BBX 9 14 1 0
BITMAP
3C00
4200
8100
8100
8100
8200
8C00
8300
8080
8080
8080
8080
8100
9E00
ENDCHAR
STARTCHAR 00E0
ENCODING 224
SWIDTH 565 0
DWIDTH 11 0
BBX 8 15 1 0
BITMAP
10
10
08
00
3E
41
81
01
07
79
81
81
81
83
7C
ENDCHAR
STARTCHAR 00E1
ENCODING 225
SWIDTH 565 0
DWIDTH 11 0
BBX 8 15 1 0
BITMAP
04
08
08
00
3E
41
81
01
07
79
81
81
81
83
7C
ENDCHAR
STARTCHAR 00E2
ENCODING 226
SWIDTH 565 0
DWIDTH 11 0
BBX 8 15 1 0
BITMAP
08
14
00
00
3E
41
81
01
07
79
81
81
81
83
7C
ENDCHAR
STARTCHAR 00E3
ENCODING 227
SWIDTH 565 0
DWIDTH 11 0
BBX 8 15 1 0
BITMAP
32
2A
26
00
3E
41
81
01
07
79
81
81
81
83
7C
ENDCHAR
STARTCHAR 00E4
ENCODING 228
SWIDTH 565 0
DWIDTH 11 0
BBX 8 14 1 0
BITMAP
22
00
00
3E
41
81
01
07
79
81
81
81
83
7C
ENDCHAR
STARTCHAR 00E5
ENCODING 229
SWIDTH 565 0
DWIDTH 11 0
BBX 8 16 1 0
BITMAP
18
14
24
1C
00
3E
41
81
01
07
79
81
81
81
83
7C
ENDCHAR
STARTCHAR 00E6
ENCODING 230
SWIDTH 925 0
DWIDTH 18 0
BBX 17 11 1 0
BITMAP
3E3C00
414200
818100
018100
010080
7FFF80
810000
818000
818100
824300
7C3C00
ENDCHAR
STARTCHAR 00E7
ENCODING 231
SWIDTH 514 0
DWIDTH 10 0
BBX 9 15 1 -4
BITMAP
3E00
4100
8080
8000
8000
8000
8000
8000
8080
4100
3E00
0800
0800
0400
1800
ENDCHAR
STARTCHAR 00E8
ENCODING 232
SWIDTH 565 0
DWIDTH 11 0
BBX 9 15 1 0
BITMAP
1000
0800
0800
0000
3E00
4100
8080
8080
8080
FF80
8000
8000
8080
4100
3E00
ENDCHAR
STARTCHAR 00E9
ENCODING 233
SWIDTH 565 0
DWIDTH 11 0
BBX 9 15 1 0
BITMAP
0400
0400
0800
0000
3E00
4100
8080
8080
8080
FF80
8000
8000
8080
4100
3E00
ENDCHAR
STARTCHAR 00EA
ENCODING 234
SWIDTH 565 0
DWIDTH 11 0
BBX 9 15 1 0
BITMAP
0800
1400
2200
0000
3E00
4100
8080
8080
8080
FF80
8000
8000
8080
4100
3E00
ENDCHAR
STARTCHAR 00EB
ENCODING 235
SWIDTH 565 0
DWIDTH 11 0
BBX 9 14 1 0
BITMAP
2200
0000
0000
3E00
4100
8080
8080
8080
FF80
8000
8000
8080
4100
3E00
ENDCHAR
STARTCHAR 00EC
ENCODING 236
SWIDTH 205 0
DWIDTH 4 0
BBX 1 15 1 1
BITMAP
80
80
00
00
80
80
80
80
80
80
80
80
80
80
80
ENDCHAR
STARTCHAR 00ED
ENCODING 237
SWIDTH 205 0
DWIDTH 4 0
BBX 1 15 2 0
BITMAP
80
80
00
00
80
80
80
80
80
80
80
80
80
80
80
ENDCHAR
STARTCHAR 00EE
ENCODING 238
SWIDTH 205 0
DWIDTH 4 0
BBX 4 15 0 0
BITMAP
60
90
00
00
40
40
40
40
40
40
40
40
40
40
40
ENDCHAR
STARTCHAR 00EF
ENCODING 239
SWIDTH 205 0
DWIDTH 4 0
BBX 4 14 0 0
BITMAP
90
00
00
40
40
40
40
40
40
40
40
40
40
40
ENDCHAR
STARTCHAR 00F0
ENCODING 240
SWIDTH 565 0
DWIDTH 11 0
BBX 9 14 1 1
BITMAP
0E00
0600
0900
0080
3E80
4180
8080
8080
8080
8080
8080
8080
4100
3E00
ENDCHAR
STARTCHAR 00F1
ENCODING 241
SWIDTH 565 0
DWIDTH 11 0
BBX 9 15 1 0
BITMAP
3000
2A00
2600
0000
9E00
E100
C080
8080
8080
8080
8080
8080
8080
8080
8080
ENDCHAR
STARTCHAR 00F2
ENCODING 242
SWIDTH 565 0
DWIDTH 11 0
BBX 9 15 1 0
BITMAP
1000
0800
0800
0000
3E00
4100
8080
8080
8080
8080
8080
8080
8080
4100
3E00
ENDCHAR
STARTCHAR 00F3
ENCODING 243
SWIDTH 565 0
DWIDTH 11 0
BBX 9 15 1 0
BITMAP
0400
0800
0800
0000
3E00
4100
8080
8080
8080
8080
8080
8080
8080
4100
3E00
ENDCHAR
STARTCHAR 00F4
ENCODING 244
SWIDTH 565 0
DWIDTH 11 0
BBX 9 15 1 0
BITMAP
0800
1400
2200
0000
3E00
4100
8080
8080
8080
8080
8080
8080
8080
4100
3E00
ENDCHAR
STARTCHAR 00F5
ENCODING 245
SWIDTH 565 0
DWIDTH 11 0
BBX 9 15 1 0
BITMAP
3000
2A00
2600
0000
3E00
4100
8080
8080
8080
8080
8080
8080
8080
4100
3E00
ENDCHAR
STARTCHAR 00F6
ENCODING 246
SWIDTH 565 0
DWIDTH 11 0
BBX 9 14 1 0
BITMAP
2200
0000
0000
3E00
4100
8080
8080
8080
8080
8080
8080
8080
4100
3E00
ENDCHAR
STARTCHAR 00F7
ENCODING 247
SWIDTH 565 0
DWIDTH 11 0
BBX 8 6 1 4
BITMAP
08
00
00
FF
00
08
ENDCHAR
STARTCHAR 00F8
ENCODING 248
SWIDTH 565 0
DWIDTH 11 0
BBX 11 11 0 0
BITMAP
1F20
20C0
40C0
4140
4240
4440
4840
5040
6040
6080
9F00
ENDCHAR
STARTCHAR 00F9
ENCODING 249
SWIDTH 565 0
DWIDTH 11 0
BBX 9 16 1 0
BITMAP
1000
0800
0800
0000
0000
8080
8080
8080
8080
8080
8080
8080
8080
8180
4180
3E80
ENDCHAR
STARTCHAR 00FA
ENCODING 250
SWIDTH 565 0
DWIDTH 11 0
BBX 9 15 1 0
BITMAP
0800
0800
0000
0000
8080
8080
8080
8080
8080
8080
8080
8080
8180
4180
3E80
ENDCHAR
STARTCHAR 00FB
ENCODING 251
SWIDTH 565 0
DWIDTH 11 0
BBX 9 15 1 0
BITMAP
0800
1400
0000
0000
8080
8080
8080
8080
8080
8080
8080
8080
8180
4180
3E80
ENDCHAR
STARTCHAR 00FC
ENCODING 252
SWIDTH 565 0
DWIDTH 11 0
BBX 9 14 1 0
BITMAP
2200
0000
0000
8080
8080
8080
8080
8080
8080
8080
8080
8180
4180
3E80
ENDCHAR
STARTCHAR 00FD
ENCODING 253
SWIDTH 514 0
DWIDTH 10 0
BBX 9 19 0 -4
BITMAP
0400
0400
0000
0000
8080
4080
4100
2100
2100
2200
1200
1200
0C00
0C00
0400
0800
0800
1000
1000
ENDCHAR
STARTCHAR 00FE
ENCODING 254
SWIDTH 565 0
DWIDTH 11 0
BBX 9 18 1 -4
BITMAP
8000
8000
8000
9E00
A100
C080
8080
8080
8080
8080
8080
C080
A100
9E00
8000
8000
8000
8000
ENDCHAR
STARTCHAR 00FF
ENCODING 255
SWIDTH 514 0
DWIDTH 10 0
BBX 9 18 0 -4
BITMAP
1200
0000
0000
8080
4080
4100
2100
2100
2200
1200
1200
0C00
0C00
0400
0800
0800
1000
1000
ENDCHAR
ENDFONT
