STARTFONT 2.1
COMMENT
COMMENT Converted from OpenType font "manrope-medium.otf" by "otf2bdf 3.0".
COMMENT
FONT -FreeType-Manrope Medium-Medium-R-Normal--28-200-100-100-P-129-ISO10646-1
SIZE 20 100 100
FONTBOUNDINGBOX 27 35 -1 -7
STARTPROPERTIES 19
FOUNDRY "FreeType"
FAMILY_NAME "Manrope Medium"
WEIGHT_NAME "Medium"
SLANT "R"
SETWIDTH_NAME "Normal"
ADD_STYLE_NAME ""
PIXEL_SIZE 28
POINT_SIZE 200
RESOLUTION_X 100
RESOLUTION_Y 100
SPACING "P"
AVERAGE_WIDTH 129
CHARSET_REGISTRY "ISO10646"
CHARSET_ENCODING "1"
FONT_ASCENT 29
FONT_DESCENT 8
COPYRIGHT "Copyright 2019-2021 The Manrope Project Authors (https://github.com/sharanda/manrope)"
_OTF_FONTFILE "manrope-medium.otf"
_OTF_PSNAME "Manrope-Medium"
ENDPROPERTIES
CHARS 191
STARTCHAR 0020
ENCODING 32
SWIDTH 216 0
DWIDTH 6 0
BBX 0 0 0 0
BITMAP
ENDCHAR
STARTCHAR 0021
ENCODING 33
SWIDTH 324 0
DWIDTH 9 0
BBX 3 20 3 0
BITMAP
E0
E0
E0
E0
E0
E0
E0
E0
E0
E0
E0
E0
E0
E0
E0
00
00
E0
E0
E0
ENDCHAR
STARTCHAR 0022
ENCODING 34
SWIDTH 432 0
DWIDTH 12 0
BBX 7 5 2 15
BITMAP
CE
CE
CE
CE
CE
ENDCHAR
STARTCHAR 0023
ENCODING 35
SWIDTH 936 0
DWIDTH 26 0
BBX 22 20 2 0
BITMAP
0061C0
0061C0
00E180
00C180
00C380
01C380
3FFFFC
7FFFFC
018700
038600
038600
030E00
FFFFF0
FFFFF0
060C00
061C00
0E1C00
0E1800
0C1800
0C3800
ENDCHAR
STARTCHAR 0024
ENCODING 36
SWIDTH 612 0
DWIDTH 17 0
BBX 15 25 1 -3
BITMAP
0380
0380
0FC0
3FF0
3878
701C
600C
600E
7000
7800
3F00
1FE0
03F8
007C
001C
000E
E00E
E00E
700C
783C
3FF8
0FE0
0380
0380
0380
ENDCHAR
STARTCHAR 0025
ENCODING 37
SWIDTH 900 0
DWIDTH 25 0
BBX 21 20 2 0
BITMAP
1E0020
7F0070
E380F0
C181E0
C1C3C0
C1C780
C18F00
E39E00
7F3C00
1E7800
00F000
01E3E0
03C7F0
078E38
0F1C18
1E1C18
3C1C18
780E38
7007F0
2003E0
ENDCHAR
STARTCHAR 0026
ENCODING 38
SWIDTH 648 0
DWIDTH 18 0
BBX 17 20 1 0
BITMAP
07C000
1FF000
3E7800
383800
300000
700000
300000
380000
1C0000
1E0000
3F0E00
738E00
61CE00
E0FE00
E07E00
601C00
701E00
7EFF00
3FF380
0FE100
ENDCHAR
STARTCHAR 0027
ENCODING 39
SWIDTH 216 0
DWIDTH 6 0
BBX 2 5 2 15
BITMAP
C0
C0
C0
C0
C0
ENDCHAR
STARTCHAR 0028
ENCODING 40
SWIDTH 432 0
DWIDTH 12 0
BBX 7 28 4 -5
BITMAP
0C
0C
1C
38
30
70
60
60
E0
E0
C0
C0
C0
C0
C0
C0
C0
C0
E0
60
60
70
30
38
18
1C
0E
04
ENDCHAR
STARTCHAR 0029
ENCODING 41
SWIDTH 432 0
DWIDTH 12 0
BBX 7 28 1 -5
BITMAP
60
60
70
38
18
1C
0C
0C
0E
0E
06
06
06
06
06
06
06
06
0E
0C
0C
1C
18
38
30
70
E0
40
ENDCHAR
STARTCHAR 002A
ENCODING 42
SWIDTH 432 0
DWIDTH 12 0
BBX 10 9 1 11
BITMAP
0C00
0C00
8C80
FF80
FFC0
1C00
3E00
7700
2300
ENDCHAR
STARTCHAR 002B
ENCODING 43
SWIDTH 576 0
DWIDTH 16 0
BBX 12 12 2 4
BITMAP
0600
0600
0600
0600
0600
FFF0
FFF0
0600
0600
0600
0600
0600
ENDCHAR
STARTCHAR 002C
ENCODING 44
SWIDTH 288 0
DWIDTH 8 0
BBX 2 6 2 -3
BITMAP
C0
C0
C0
40
40
C0
ENDCHAR
STARTCHAR 002D
ENCODING 45
SWIDTH 432 0
DWIDTH 12 0
BBX 8 2 2 8
BITMAP
FF
FF
ENDCHAR
STARTCHAR 002E
ENCODING 46
SWIDTH 288 0
DWIDTH 8 0
BBX 3 3 2 0
BITMAP
E0
E0
E0
ENDCHAR
STARTCHAR 002F
ENCODING 47
SWIDTH 396 0
DWIDTH 11 0
BBX 7 20 2 0
BITMAP
06
06
0E
0E
0C
0C
1C
1C
18
38
38
30
30
70
70
60
60
E0
E0
C0
ENDCHAR
STARTCHAR 0030
ENCODING 48
SWIDTH 612 0
DWIDTH 17 0
BBX 13 20 2 0
BITMAP
0F80
3FE0
7DF0
7038
E038
E018
C018
C018
C018
C018
C018
C018
C018
C018
E018
E038
7038
7DF0
3FE0
0F80
ENDCHAR
STARTCHAR 0031
ENCODING 49
SWIDTH 396 0
DWIDTH 11 0
BBX 6 20 2 0
BITMAP
1C
7C
FC
DC
9C
1C
1C
1C
1C
1C
1C
1C
1C
1C
1C
1C
1C
1C
1C
1C
ENDCHAR
STARTCHAR 0032
ENCODING 50
SWIDTH 576 0
DWIDTH 16 0
BBX 14 20 1 0
BITMAP
0FC0
1FE0
3CF0
7038
6018
601C
001C
001C
0018
0038
0070
00E0
03C0
0780
0F00
1E00
3800
7000
FFFC
FFFC
ENDCHAR
STARTCHAR 0033
ENCODING 51
SWIDTH 576 0
DWIDTH 16 0
BBX 13 20 1 0
BITMAP
7FF8
7FF8
0078
00E0
01C0
0380
0700
1F80
0FE0
08F0
0070
0038
0038
0038
0038
E038
F070
79F0
3FE0
0F80
ENDCHAR
STARTCHAR 0034
ENCODING 52
SWIDTH 612 0
DWIDTH 17 0
BBX 14 20 1 0
BITMAP
01C0
0380
0380
0700
0700
0E00
0E00
1C00
1C30
3830
3830
3030
7030
6030
FFFC
FFFC
0030
0030
0030
0030
ENDCHAR
STARTCHAR 0035
ENCODING 53
SWIDTH 576 0
DWIDTH 16 0
BBX 14 20 1 0
BITMAP
3FF0
3FF0
7000
7000
7000
7000
7000
77C0
7FE0
7CF0
3038
0018
001C
001C
001C
E018
7038
3DF0
1FE0
0F80
ENDCHAR
STARTCHAR 0036
ENCODING 54
SWIDTH 612 0
DWIDTH 17 0
BBX 14 20 2 0
BITMAP
0FC0
3FE0
7CF0
7020
E000
E000
C000
C7C0
DFE0
FCF0
F038
E018
E01C
C01C
E018
E038
7038
7DF0
3FE0
0F80
ENDCHAR
STARTCHAR 0037
ENCODING 55
SWIDTH 504 0
DWIDTH 14 0
BBX 12 20 1 0
BITMAP
FFF0
FFF0
0070
0060
00E0
00E0
01C0
01C0
0180
0380
0380
0700
0700
0600
0E00
0E00
1C00
1C00
1800
3800
ENDCHAR
STARTCHAR 0038
ENCODING 56
SWIDTH 576 0
DWIDTH 16 0
BBX 13 20 2 0
BITMAP
1F80
3FE0
79E0
E070
E070
E030
E070
70F0
7FE0
3FE0
79F0
E070
E038
C038
C038
E038
E070
79F0
3FE0
1F80
ENDCHAR
STARTCHAR 0039
ENCODING 57
SWIDTH 612 0
DWIDTH 17 0
BBX 13 20 2 0
BITMAP
0F80
3FE0
7DF0
F070
E038
C018
C018
C018
E038
E038
78F8
3FD8
0F98
0018
0018
0038
2078
7DF0
3FE0
1F80
ENDCHAR
STARTCHAR 003A
ENCODING 58
SWIDTH 324 0
DWIDTH 9 0
BBX 3 11 3 2
BITMAP
E0
E0
E0
00
00
00
00
00
E0
E0
E0
ENDCHAR
STARTCHAR 003B
ENCODING 59
SWIDTH 324 0
DWIDTH 9 0
BBX 3 18 3 -3
BITMAP
E0
E0
E0
00
00
00
00
00
00
00
00
00
E0
E0
E0
60
60
C0
ENDCHAR
STARTCHAR 003C
ENCODING 60
SWIDTH 612 0
DWIDTH 17 0
BBX 8 13 4 2
BITMAP
02
07
0E
1C
38
70
E0
70
38
1C
0E
07
02
ENDCHAR
STARTCHAR 003D
ENCODING 61
SWIDTH 756 0
DWIDTH 21 0
BBX 14 6 3 7
BITMAP
FFFC
FFFC
0000
0000
FFFC
FFFC
ENDCHAR
STARTCHAR 003E
ENCODING 62
SWIDTH 612 0
DWIDTH 17 0
BBX 8 13 5 2
BITMAP
40
E0
70
38
1C
0E
07
0E
1C
38
70
E0
40
ENDCHAR
STARTCHAR 003F
ENCODING 63
SWIDTH 540 0
DWIDTH 15 0
BBX 12 20 1 0
BITMAP
0F80
3FE0
79F0
7070
E030
0030
0030
0070
00E0
01E0
0380
0700
0700
0600
0600
0000
0000
0600
0600
0600
ENDCHAR
STARTCHAR 0040
ENCODING 64
SWIDTH 900 0
DWIDTH 25 0
BBX 21 21 2 -3
BITMAP
01FC00
07FF00
0F03C0
1C00E0
380070
700030
60F630
61FE38
E38E18
C30618
C30618
C30618
E38E38
61FFF0
60FBE0
700000
380000
1C0000
0F0600
07FE00
01FC00
ENDCHAR
STARTCHAR 0041
ENCODING 65
SWIDTH 648 0
DWIDTH 18 0
BBX 16 20 1 0
BITMAP
03C0
03C0
07E0
07E0
0660
0E70
0E70
0C30
1C38
1C38
1818
381C
381C
3FFC
7FFE
700E
6006
E007
E007
C003
ENDCHAR
STARTCHAR 0042
ENCODING 66
SWIDTH 612 0
DWIDTH 17 0
BBX 14 20 2 0
BITMAP
FFC0
FFF0
C078
C038
C018
C018
C018
C038
C078
FFF0
FFF0
C038
C01C
C00C
C00C
C00C
C01C
C07C
FFF8
FFE0
ENDCHAR
STARTCHAR 0043
ENCODING 67
SWIDTH 720 0
DWIDTH 20 0
BBX 18 20 1 0
BITMAP
03F000
0FFE00
3F3F00
380780
700380
6001C0
E00180
E00000
E00000
C00000
C00000
E00000
E00000
E00180
6001C0
700380
380780
1F3F00
0FFE00
03F000
ENDCHAR
STARTCHAR 0044
ENCODING 68
SWIDTH 684 0
DWIDTH 19 0
BBX 16 20 2 0
BITMAP
FFC0
FFF0
C0F8
C01C
C00E
C00E
C006
C006
C007
C007
C007
C007
C006
C006
C00E
C00E
C01C
C0F8
FFF0
FFC0
ENDCHAR
STARTCHAR 0045
ENCODING 69
SWIDTH 576 0
DWIDTH 16 0
BBX 13 20 2 0
BITMAP
FFF8
FFF8
C000
C000
C000
C000
C000
C000
C000
FFE0
FFE0
C000
C000
C000
C000
C000
C000
C000
FFF8
FFF8
ENDCHAR
STARTCHAR 0046
ENCODING 70
SWIDTH 504 0
DWIDTH 14 0
BBX 12 20 2 0
BITMAP
FFF0
FFF0
C000
C000
C000
C000
C000
C000
C000
FFC0
FFC0
C000
C000
C000
C000
C000
C000
C000
C000
C000
ENDCHAR
STARTCHAR 0047
ENCODING 71
SWIDTH 720 0
DWIDTH 20 0
BBX 18 20 1 0
BITMAP
03F000
0FFC00
1F3E00
380700
700380
700380
E00000
E00000
E00000
C00000
C01FC0
C01FC0
E001C0
E001C0
600180
700380
380700
3F1F00
0FFC00
03F000
ENDCHAR
STARTCHAR 0048
ENCODING 72
SWIDTH 684 0
DWIDTH 19 0
BBX 15 20 2 0
BITMAP
C006
C006
C006
C006
C006
C006
C006
C006
C006
FFFE
FFFE
C006
C006
C006
C006
C006
C006
C006
C006
C006
ENDCHAR
STARTCHAR 0049
ENCODING 73
SWIDTH 252 0
DWIDTH 7 0
BBX 3 20 2 0
BITMAP
E0
E0
E0
E0
E0
E0
E0
E0
E0
E0
E0
E0
E0
E0
E0
E0
E0
E0
E0
E0
ENDCHAR
STARTCHAR 004A
ENCODING 74
SWIDTH 468 0
DWIDTH 13 0
BBX 11 20 0 0
BITMAP
00E0
00E0
00E0
00E0
00E0
00E0
00E0
00E0
00E0
00E0
00E0
00E0
00E0
00E0
00E0
60E0
E0E0
7BC0
3FC0
1F00
ENDCHAR
STARTCHAR 004B
ENCODING 75
SWIDTH 612 0
DWIDTH 17 0
BBX 15 20 2 0
BITMAP
C01C
C038
C070
C0E0
C1C0
C380
C700
CE00
DC00
F800
DC00
CE00
C700
C380
C3C0
C1E0
C0F0
C078
C03C
C01E
ENDCHAR
STARTCHAR 004C
ENCODING 76
SWIDTH 504 0
DWIDTH 14 0
BBX 12 20 2 0
BITMAP
E000
E000
E000
E000
E000
E000
E000
E000
E000
E000
E000
E000
E000
E000
E000
E000
E000
E000
FFF0
FFF0
ENDCHAR
STARTCHAR 004D
ENCODING 77
SWIDTH 828 0
DWIDTH 23 0
BBX 20 20 2 0
BITMAP
C00070
E00070
E000F0
F000F0
F001F0
F801F0
D803F0
DC0370
CC0770
CE0670
C60E70
C70C70
C31C70
C39870
C3B870
C1F070
C1F070
C0F070
C0E070
C06070
ENDCHAR
STARTCHAR 004E
ENCODING 78
SWIDTH 684 0
DWIDTH 19 0
BBX 15 20 2 0
BITMAP
E006
E006
F006
F806
D806
DC06
CE06
C606
C706
C386
C186
C1C6
C0E6
C066
C076
C03E
C01E
C01E
C00E
C006
ENDCHAR
STARTCHAR 004F
ENCODING 79
SWIDTH 720 0
DWIDTH 20 0
BBX 18 20 1 0
BITMAP
03F000
0FFE00
3F3F00
380780
700380
6001C0
E001C0
E000C0
E000C0
C000C0
C000C0
E000C0
E000C0
E001C0
6001C0
700380
380780
1F1F00
0FFE00
03F000
ENDCHAR
STARTCHAR 0050
ENCODING 80
SWIDTH 612 0
DWIDTH 17 0
BBX 14 20 2 0
BITMAP
FFE0
FFF0
C078
C01C
C01C
C00C
C00C
C00C
C01C
C038
FFF8
FFF0
C000
C000
C000
C000
C000
C000
C000
C000
ENDCHAR
STARTCHAR 0051
ENCODING 81
SWIDTH 720 0
DWIDTH 20 0
BBX 18 20 1 0
BITMAP
03F000
0FFE00
3F3F00
380780
700380
6001C0
E001C0
E000C0
E000C0
C000C0
C000C0
E000C0
E000C0
E009C0
601DC0
700F80
380780
1F1F80
0FFDC0
03F880
ENDCHAR
STARTCHAR 0052
ENCODING 82
SWIDTH 648 0
DWIDTH 18 0
BBX 14 20 2 0
BITMAP
FFE0
FFF0
C078
C01C
C01C
C00C
C00C
C00C
C01C
C038
FFF8
FFE0
C0E0
C070
C070
C038
C038
C01C
C01C
C00C
ENDCHAR
STARTCHAR 0053
ENCODING 83
SWIDTH 648 0
DWIDTH 18 0
BBX 16 20 1 0
BITMAP
07E0
1FF8
3E7C
701E
700E
6006
7000
7800
3F00
1FF0
03FC
003E
000E
0006
E007
E006
700E
3E7C
1FF8
07E0
ENDCHAR
STARTCHAR 0054
ENCODING 84
SWIDTH 612 0
DWIDTH 17 0
BBX 16 20 0 0
BITMAP
FFFF
FFFF
01C0
01C0
01C0
01C0
01C0
01C0
01C0
01C0
01C0
01C0
01C0
01C0
01C0
01C0
01C0
01C0
01C0
01C0
ENDCHAR
STARTCHAR 0055
ENCODING 85
SWIDTH 720 0
DWIDTH 20 0
BBX 16 20 2 0
BITMAP
C007
C007
C007
C007
C007
C007
C007
C007
C007
C007
C007
C007
C007
E007
E006
E00E
701E
3E7C
1FF8
07E0
ENDCHAR
STARTCHAR 0056
ENCODING 86
SWIDTH 612 0
DWIDTH 17 0
BBX 17 20 0 0
BITMAP
E00380
600300
700300
700700
300600
380600
380E00
180C00
1C0C00
1C1C00
0C1800
0E1800
0E3800
063000
077000
077000
036000
03E000
03E000
01C000
ENDCHAR
STARTCHAR 0057
ENCODING 87
SWIDTH 936 0
DWIDTH 26 0
BBX 25 20 1 0
BITMAP
C01C0380
C03C0300
E03C0300
E03C0700
603E0700
707E0600
70760600
30670E00
30E70C00
38E30C00
38C31C00
18C39C00
1DC19800
1DC19800
0D81F800
0D81F000
0F80F000
0F00F000
0700F000
07006000
ENDCHAR
STARTCHAR 0058
ENCODING 88
SWIDTH 612 0
DWIDTH 17 0
BBX 16 20 1 0
BITMAP
E00F
E00E
701C
3838
3838
1C70
0E60
06E0
07C0
0380
03C0
07C0
0EE0
0E70
1C70
3838
381C
701C
E00E
E007
ENDCHAR
STARTCHAR 0059
ENCODING 89
SWIDTH 576 0
DWIDTH 16 0
BBX 16 20 0 0
BITMAP
E007
700E
700E
381C
1838
1C38
0E70
0E70
07E0
07C0
03C0
0180
0180
0180
0180
0180
0180
0180
0180
0180
ENDCHAR
STARTCHAR 005A
ENCODING 90
SWIDTH 648 0
DWIDTH 18 0
BBX 15 20 1 0
BITMAP
7FFE
7FFC
001C
0038
0038
0070
00E0
00E0
01C0
01C0
0380
0700
0700
0E00
1E00
1C00
3800
3800
7FFE
FFFE
ENDCHAR
STARTCHAR 005B
ENCODING 91
SWIDTH 396 0
DWIDTH 11 0
BBX 5 31 4 -6
BITMAP
F8
F8
C0
C0
C0
C0
C0
C0
C0
C0
C0
C0
C0
C0
C0
C0
C0
C0
C0
C0
C0
C0
C0
C0
C0
C0
C0
C0
C0
F8
F8
ENDCHAR
STARTCHAR 005C
ENCODING 92
SWIDTH 396 0
DWIDTH 11 0
BBX 7 20 2 0
BITMAP
C0
E0
E0
60
60
70
70
30
30
38
38
18
1C
1C
0C
0C
0E
0E
06
06
ENDCHAR
STARTCHAR 005D
ENCODING 93
SWIDTH 396 0
DWIDTH 11 0
BBX 6 31 2 -6
BITMAP
FC
FC
1C
1C
1C
1C
1C
1C
1C
1C
1C
1C
1C
1C
1C
1C
1C
1C
1C
1C
1C
1C
1C
1C
1C
1C
1C
1C
1C
FC
FC
ENDCHAR
STARTCHAR 005E
ENCODING 94
SWIDTH 684 0
DWIDTH 19 0
BBX 13 8 3 12
BITMAP
0200
0700
0F80
1DC0
38E0
7070
E038
4010
ENDCHAR
STARTCHAR 005F
ENCODING 95
SWIDTH 648 0
DWIDTH 18 0
BBX 18 2 0 -3
BITMAP
FFFFC0
FFFFC0
ENDCHAR
STARTCHAR 0060
ENCODING 96
SWIDTH 504 0
DWIDTH 14 0
BBX 3 5 5 22
BITMAP
C0
C0
60
60
60
ENDCHAR
STARTCHAR 0061
ENCODING 97
SWIDTH 576 0
DWIDTH 16 0
BBX 13 15 1 0
BITMAP
0FC0
3FE0
78F0
7038
2038
0038
03F8
3FF8
7C38
E038
E038
E078
F0F8
7FD8
1F18
ENDCHAR
STARTCHAR 0062
ENCODING 98
SWIDTH 612 0
DWIDTH 17 0
BBX 14 20 2 0
BITMAP
C000
C000
C000
C000
C000
CF80
DFE0
F8F0
E038
E038
C018
C018
C01C
C018
C018
E038
E038
F8F0
FFE0
CF80
ENDCHAR
STARTCHAR 0063
ENCODING 99
SWIDTH 576 0
DWIDTH 16 0
BBX 13 15 1 0
BITMAP
0FC0
1FF0
3EF8
7038
6018
E000
E000
E000
E000
E000
6010
7038
3CF8
1FF0
0FC0
ENDCHAR
STARTCHAR 0064
ENCODING 100
SWIDTH 612 0
DWIDTH 17 0
BBX 14 20 1 0
BITMAP
001C
001C
001C
001C
001C
0F9C
1FFC
3CFC
703C
601C
E01C
E01C
E00C
E01C
E01C
601C
703C
3CFC
1FEC
0F8C
ENDCHAR
STARTCHAR 0065
ENCODING 101
SWIDTH 576 0
DWIDTH 16 0
BBX 14 15 1 0
BITMAP
0FC0
1FF0
3C78
7018
601C
E00C
FFFC
FFFC
E000
E000
6018
701C
3C78
1FF0
07C0
ENDCHAR
STARTCHAR 0066
ENCODING 102
SWIDTH 360 0
DWIDTH 10 0
BBX 9 20 1 0
BITMAP
0F80
1F80
1C00
3800
3800
FF80
FF80
3800
3800
3800
3800
3800
3800
3800
3800
3800
3800
3800
3800
3800
ENDCHAR
STARTCHAR 0067
ENCODING 103
SWIDTH 612 0
DWIDTH 17 0
BBX 14 21 1 -6
BITMAP
0FCC
1FEC
3CFC
703C
601C
E01C
E01C
E00C
E01C
E01C
601C
703C
3CFC
1FFC
0F9C
001C
001C
3038
7878
3FF0
1FE0
ENDCHAR
STARTCHAR 0068
ENCODING 104
SWIDTH 612 0
DWIDTH 17 0
BBX 13 20 2 0
BITMAP
C000
C000
C000
C000
C000
CFC0
DFE0
FDF0
F070
E038
E038
C018
C018
C018
C018
C018
C018
C018
C018
C018
ENDCHAR
STARTCHAR 0069
ENCODING 105
SWIDTH 252 0
DWIDTH 7 0
BBX 3 20 2 0
BITMAP
E0
E0
E0
00
00
E0
E0
E0
E0
E0
E0
E0
E0
E0
E0
E0
E0
E0
E0
E0
ENDCHAR
STARTCHAR 006A
ENCODING 106
SWIDTH 252 0
DWIDTH 7 0
BBX 5 26 0 -6
BITMAP
18
18
18
00
00
18
18
18
18
18
18
18
18
18
18
18
18
18
18
18
18
18
18
38
F8
F0
ENDCHAR
STARTCHAR 006B
ENCODING 107
SWIDTH 504 0
DWIDTH 14 0
BBX 12 20 2 0
BITMAP
C000
C000
C000
C000
C000
C0F0
C1E0
C1C0
C380
C700
CE00
DC00
F800
DC00
CE00
C700
C380
C1C0
C0E0
C070
ENDCHAR
STARTCHAR 006C
ENCODING 108
SWIDTH 252 0
DWIDTH 7 0
BBX 3 20 2 0
BITMAP
E0
E0
E0
E0
E0
E0
E0
E0
E0
E0
E0
E0
E0
E0
E0
E0
E0
E0
E0
E0
ENDCHAR
STARTCHAR 006D
ENCODING 109
SWIDTH 864 0
DWIDTH 24 0
BBX 20 15 2 0
BITMAP
CF87C0
DFDFE0
F1F8F0
E0F070
E07030
C06030
C06030
C06030
C06030
C06030
C06030
C06030
C06030
C06030
C06030
ENDCHAR
STARTCHAR 006E
ENCODING 110
SWIDTH 612 0
DWIDTH 17 0
BBX 13 15 2 0
BITMAP
CFC0
DFE0
FDF0
F070
E038
E038
C018
C018
C018
C018
C018
C018
C018
C018
C018
ENDCHAR
STARTCHAR 006F
ENCODING 111
SWIDTH 612 0
DWIDTH 17 0
BBX 15 15 1 0
BITMAP
0FC0
1FF0
3EF8
703C
601C
E00C
E00E
E00E
E00C
E00C
601C
703C
3CF8
1FF0
07C0
ENDCHAR
STARTCHAR 0070
ENCODING 112
SWIDTH 612 0
DWIDTH 17 0
BBX 14 21 2 -6
BITMAP
CF80
DFE0
F8F0
E038
E038
C018
C018
C01C
C018
C018
E038
E038
F8F0
DFE0
CF80
C000
C000
C000
C000
C000
C000
ENDCHAR
STARTCHAR 0071
ENCODING 113
SWIDTH 612 0
DWIDTH 17 0
BBX 14 21 1 -6
BITMAP
0FCC
1FEC
3CFC
703C
601C
E01C
E01C
E00C
E01C
E01C
601C
703C
3CFC
1FFC
0F9C
001C
001C
001C
001C
001C
001C
ENDCHAR
STARTCHAR 0072
ENCODING 114
SWIDTH 360 0
DWIDTH 10 0
BBX 8 15 2 0
BITMAP
CF
DF
F8
F0
E0
E0
C0
C0
C0
C0
C0
C0
C0
C0
C0
ENDCHAR
STARTCHAR 0073
ENCODING 115
SWIDTH 540 0
DWIDTH 15 0
BBX 13 15 1 0
BITMAP
1F80
3FE0
78F0
6070
6020
7000
3F00
1FE0
01F0
0030
6038
E030
78F0
3FE0
0FC0
ENDCHAR
STARTCHAR 0074
ENCODING 116
SWIDTH 396 0
DWIDTH 11 0
BBX 10 19 0 0
BITMAP
1C00
1C00
1C00
1C00
FFC0
FFC0
1C00
1C00
1C00
1C00
1C00
1C00
1C00
1C00
1C00
1C00
0E00
0FC0
07C0
ENDCHAR
STARTCHAR 0075
ENCODING 117
SWIDTH 612 0
DWIDTH 17 0
BBX 13 15 2 0
BITMAP
C038
C038
C038
C038
C038
C038
C038
C038
C038
C038
E038
E078
7DF8
3FD8
1F18
ENDCHAR
STARTCHAR 0076
ENCODING 118
SWIDTH 540 0
DWIDTH 15 0
BBX 13 15 1 0
BITMAP
C038
E030
E030
6070
7060
30E0
30E0
38C0
19C0
19C0
1D80
0F80
0F00
0F00
0700
ENDCHAR
STARTCHAR 0077
ENCODING 119
SWIDTH 792 0
DWIDTH 22 0
BBX 20 15 1 0
BITMAP
C06070
C0E070
E0F060
60F060
61F0E0
71B8C0
3198C0
3399C0
3B1D80
3B0D80
1B0F80
1E0F80
1E0700
0E0700
0C0700
ENDCHAR
STARTCHAR 0078
ENCODING 120
SWIDTH 540 0
DWIDTH 15 0
BBX 13 15 1 0
BITMAP
E038
6070
7070
38E0
1DC0
0F80
0F80
0700
0F80
1D80
1DC0
38E0
7070
E030
E038
ENDCHAR
STARTCHAR 0079
ENCODING 121
SWIDTH 540 0
DWIDTH 15 0
BBX 13 22 1 -7
BITMAP
C018
E018
E038
6030
7070
3070
3860
38E0
18C0
1CC0
0DC0
0F80
0F80
0780
0700
0700
0600
0600
0E00
0C00
1C00
1800
ENDCHAR
STARTCHAR 007A
ENCODING 122
SWIDTH 540 0
DWIDTH 15 0
BBX 13 15 1 0
BITMAP
FFF8
FFF0
00E0
00C0
01C0
0380
0700
0600
0E00
1C00
1800
3000
7000
FFF0
FFF0
ENDCHAR
STARTCHAR 007B
ENCODING 123
SWIDTH 432 0
DWIDTH 12 0
BBX 7 31 4 -6
BITMAP
1E
3E
38
70
70
70
70
70
70
70
70
70
70
70
E0
C0
E0
70
70
70
70
70
70
70
70
70
70
70
38
3E
1E
ENDCHAR
STARTCHAR 007C
ENCODING 124
SWIDTH 252 0
DWIDTH 7 0
BBX 3 20 2 0
BITMAP
E0
E0
E0
E0
E0
E0
E0
E0
E0
E0
E0
E0
E0
E0
E0
E0
E0
E0
E0
E0
ENDCHAR
STARTCHAR 007D
ENCODING 125
SWIDTH 432 0
DWIDTH 12 0
BBX 7 31 1 -6
BITMAP
F0
F8
38
18
18
18
18
18
18
18
18
18
18
1C
0E
0E
0E
1C
18
18
18
18
18
18
18
18
18
18
38
F8
F0
ENDCHAR
STARTCHAR 007E
ENCODING 126
SWIDTH 684 0
DWIDTH 19 0
BBX 13 5 3 6
BITMAP
3838
7E38
FFF8
E3F0
E040
ENDCHAR
STARTCHAR 00A0
ENCODING 160
SWIDTH 216 0
DWIDTH 6 0
BBX 0 0 0 0
BITMAP
ENDCHAR
STARTCHAR 00A1
ENCODING 161
SWIDTH 324 0
DWIDTH 9 0
BBX 3 20 3 -5
BITMAP
E0
E0
E0
00
00
E0
E0
E0
E0
E0
E0
E0
E0
E0
E0
E0
E0
E0
E0
E0
ENDCHAR
STARTCHAR 00A2
ENCODING 162
SWIDTH 576 0
DWIDTH 16 0
BBX 14 21 1 -1
BITMAP
0300
0300
0300
1FE0
3FF0
7838
701C
E010
E000
E000
E000
E000
E000
6010
7018
3878
3FF0
0FE0
0300
0300
0300
ENDCHAR
STARTCHAR 00A3
ENCODING 163
SWIDTH 576 0
DWIDTH 16 0
BBX 14 20 1 0
BITMAP
03E0
07F0
0F78
1C18
1C1C
1C00
1C00
1C00
1C00
FFC0
FFC0
1C00
1C00
1C00
1C00
1C00
1C00
3C00
FFF8
FFF8
ENDCHAR
STARTCHAR 00A4
ENCODING 164
SWIDTH 648 0
DWIDTH 18 0
BBX 16 16 1 2
BITMAP
4002
E7E7
7FFE
3C3C
300C
700E
6006
6006
6006
6006
700E
300C
3C3C
7FFE
E7E7
4002
ENDCHAR
STARTCHAR 00A5
ENCODING 165
SWIDTH 576 0
DWIDTH 16 0
BBX 16 20 0 0
BITMAP
E007
700E
700E
381C
1818
1C38
0E70
0E70
07E0
07E0
03C0
1FF8
1FF8
0180
0180
1FF8
1FF8
0180
0180
0180
ENDCHAR
STARTCHAR 00A6
ENCODING 166
SWIDTH 252 0
DWIDTH 7 0
BBX 3 25 2 -5
BITMAP
E0
E0
E0
E0
E0
E0
E0
E0
E0
E0
E0
00
00
00
E0
E0
E0
E0
E0
E0
E0
E0
E0
E0
E0
ENDCHAR
STARTCHAR 00A7
ENCODING 167
SWIDTH 540 0
DWIDTH 15 0
BBX 13 22 1 -4
BITMAP
1F80
3FC0
70E0
6070
6040
7000
3E00
1FC0
7BF0
6070
E038
E038
7830
3FF0
0FE0
01F0
0070
2030
7030
7870
3FE0
1FC0
ENDCHAR
STARTCHAR 00A8
ENCODING 168
SWIDTH 540 0
DWIDTH 15 0
BBX 8 3 3 22
BITMAP
E3
E3
E3
ENDCHAR
STARTCHAR 00A9
ENCODING 169
SWIDTH 828 0
DWIDTH 23 0
BBX 21 21 1 -1
BITMAP
01FC00
07FF00
0F8F80
1C01C0
3800E0
70F870
61FE30
E38638
C30418
C70018
C60018
C70018
C30418
E38638
61FC30
70F870
3800E0
1C01C0
0F8F80
07FF00
01FC00
ENDCHAR
STARTCHAR 00AA
ENCODING 170
SWIDTH 324 0
DWIDTH 9 0
BBX 7 7 1 8
BITMAP
7C
C6
06
7E
C6
C6
FE
ENDCHAR
STARTCHAR 00AB
ENCODING 171
SWIDTH 540 0
DWIDTH 15 0
BBX 10 12 3 2
BITMAP
0840
18C0
3180
7380
E300
C600
C600
E700
6380
3180
18C0
0840
ENDCHAR
STARTCHAR 00AC
ENCODING 172
SWIDTH 612 0
DWIDTH 17 0
BBX 13 5 2 6
BITMAP
FFF8
FFF8
0018
0018
0018
ENDCHAR
STARTCHAR 00AD
ENCODING 173
SWIDTH 432 0
DWIDTH 12 0
BBX 8 2 2 8
BITMAP
FF
FF
ENDCHAR
STARTCHAR 00AE
ENCODING 174
SWIDTH 648 0
DWIDTH 18 0
BBX 14 14 2 8
BITMAP
0780
1FE0
3870
6038
C798
C488
C48C
C78C
C58C
C498
6018
7070
3FE0
0F80
ENDCHAR
STARTCHAR 00AF
ENCODING 175
SWIDTH 504 0
DWIDTH 14 0
BBX 7 2 3 23
BITMAP
FE
FE
ENDCHAR
STARTCHAR 00B0
ENCODING 176
SWIDTH 468 0
DWIDTH 13 0
BBX 10 10 1 10
BITMAP
1E00
7F00
F380
C1C0
C0C0
C0C0
C1C0
F380
7F00
1E00
ENDCHAR
STARTCHAR 00B1
ENCODING 177
SWIDTH 612 0
DWIDTH 17 0
BBX 13 13 2 2
BITMAP
0600
0600
0600
FFF8
FFF8
0600
0600
0600
0600
0000
0000
FFF8
FFF8
ENDCHAR
STARTCHAR 00B2
ENCODING 178
SWIDTH 396 0
DWIDTH 11 0
BBX 9 13 1 7
BITMAP
1E00
7F00
6380
C180
0180
0180
0300
0E00
1C00
3800
7000
FF80
FF80
ENDCHAR
STARTCHAR 00B3
ENCODING 179
SWIDTH 396 0
DWIDTH 11 0
BBX 8 13 1 7
BITMAP
7F
7F
06
0C
18
3C
1F
03
03
03
C3
7E
3C
ENDCHAR
STARTCHAR 00B4
ENCODING 180
SWIDTH 504 0
DWIDTH 14 0
BBX 3 5 6 22
BITMAP
60
60
C0
C0
C0
ENDCHAR
STARTCHAR 00B5
ENCODING 181
SWIDTH 612 0
DWIDTH 17 0
BBX 13 21 2 -6
BITMAP
C018
C018
C018
C018
C018
C018
C018
C018
C018
E038
E038
F078
FDF8
FFD8
DF18
C000
C000
C000
C000
C000
C000
ENDCHAR
STARTCHAR 00B6
ENCODING 182
SWIDTH 648 0
DWIDTH 18 0
BBX 15 24 2 -4
BITMAP
1FCE
3FCE
7FCE
FFCE
FFCE
FFCE
FFCE
FFCE
FFCE
FFCE
7FCE
3FCE
07CE
01CE
01CE
01CE
01CE
01CE
01CE
01CE
01CE
01CE
01CE
01CE
ENDCHAR
STARTCHAR 00B7
ENCODING 183
SWIDTH 252 0
DWIDTH 7 0
BBX 3 3 2 7
BITMAP
E0
E0
E0
ENDCHAR
STARTCHAR 00B8
ENCODING 184
SWIDTH 396 0
DWIDTH 11 0
BBX 4 7 4 -7
BITMAP
60
40
E0
30
30
E0
E0
ENDCHAR
STARTCHAR 00B9
ENCODING 185
SWIDTH 324 0
DWIDTH 9 0
BBX 4 13 2 7
BITMAP
70
F0
B0
30
30
30
30
30
30
30
30
30
30
ENDCHAR
STARTCHAR 00BA
ENCODING 186
SWIDTH 360 0
DWIDTH 10 0
BBX 7 8 1 7
BITMAP
3C
7E
C6
C2
C2
C2
7E
3C
ENDCHAR
STARTCHAR 00BB
ENCODING 187
SWIDTH 540 0
DWIDTH 15 0
BBX 11 12 2 2
BITMAP
4200
C600
6300
3180
38C0
1CE0
1CE0
18C0
3180
6300
E700
C600
ENDCHAR
STARTCHAR 00BC
ENCODING 188
SWIDTH 1008 0
DWIDTH 28 0
BBX 22 20 2 0
BITMAP
700080
F001C0
B00180
300300
300700
300E00
300C00
301830
303860
307060
3060C0
30C0C0
01C180
038198
030318
060318
0E03FC
1C03FC
180018
100018
ENDCHAR
STARTCHAR 00BD
ENCODING 189
SWIDTH 972 0
DWIDTH 27 0
BBX 23 20 2 0
BITMAP
700080
F000C0
B00180
300300
300700
300E00
300C00
301830
3038FC
3071C6
306186
30C006
31C006
03800E
03001C
060038
0E0070
1C00E0
1801FE
1001FE
ENDCHAR
STARTCHAR 00BE
ENCODING 190
SWIDTH 1008 0
DWIDTH 28 0
BBX 25 20 1 0
BITMAP
7F001000
7F003800
06003000
0C006000
1800E000
3C01C000
1F018000
03030000
03070C00
030E0C00
C30C1800
7E181800
3C303000
00703300
00606300
00C06300
0180FF80
0380FF80
07000300
02000300
ENDCHAR
STARTCHAR 00BF
ENCODING 191
SWIDTH 540 0
DWIDTH 15 0
BBX 12 20 1 -5
BITMAP
0700
0700
0700
0000
0000
0700
0700
0700
0700
0E00
3C00
3800
7000
6000
E000
E030
6070
70F0
3FE0
1FC0
ENDCHAR
STARTCHAR 00C0
ENCODING 192
SWIDTH 648 0
DWIDTH 18 0
BBX 16 27 1 0
BITMAP
0600
0600
0300
0300
0180
0000
0000
03C0
03C0
07E0
07E0
0660
0E70
0E70
0C30
1C38
1C38
1818
381C
381C
3FFC
7FFE
700E
6006
E007
E007
C003
ENDCHAR
STARTCHAR 00C1
ENCODING 193
SWIDTH 648 0
DWIDTH 18 0
BBX 16 27 1 0
BITMAP
0060
00E0
00C0
00C0
0180
0000
0000
03C0
03C0
07E0
07E0
0660
0E70
0E70
0C30
1C38
1C38
1818
381C
381C
3FFC
7FFE
700E
6006
E007
E007
C003
ENDCHAR
STARTCHAR 00C2
ENCODING 194
SWIDTH 648 0
DWIDTH 18 0
BBX 16 26 1 0
BITMAP
0380
03C0
0660
0C30
0000
0000
03C0
03C0
07E0
07E0
0660
0E70
0E70
0C30
1C38
1C38
1818
381C
381C
3FFC
7FFE
700E
6006
E007
E007
C003
ENDCHAR
STARTCHAR 00C3
ENCODING 195
SWIDTH 648 0
DWIDTH 18 0
BBX 16 27 1 0
BITMAP
0E00
0F90
19F0
08F0
0000
0000
0000
03C0
03C0
07E0
07E0
0660
0E70
0E70
0C30
1C38
1C38
1818
381C
381C
3FFC
7FFE
700E
6006
E007
E007
C003
ENDCHAR
STARTCHAR 00C4
ENCODING 196
SWIDTH 648 0
DWIDTH 18 0
BBX 16 25 1 0
BITMAP
0E70
0E70
0E70
0000
0000
03C0
03C0
07E0
07E0
0660
0E70
0E70
0C30
1C38
1C38
1818
381C
381C
3FFC
7FFE
700E
6006
E007
E007
C003
ENDCHAR
STARTCHAR 00C5
ENCODING 197
SWIDTH 648 0
DWIDTH 18 0
BBX 16 28 1 0
BITMAP
03C0
07E0
0660
0460
0660
07C0
0180
0000
03C0
03C0
07E0
07E0
0660
0E70
0E70
0C30
1C38
1C38
1818
381C
381C
3FFC
7FFE
700E
6006
E007
E007
C003
ENDCHAR
STARTCHAR 00C6
ENCODING 198
SWIDTH 936 0
DWIDTH 26 0
BBX 23 20 1 0
BITMAP
03FFFE
03FFFE
071800
071800
061800
0E1800
0E1800
0C1800
1C1800
1C1FFC
181FFC
381800
381800
3FF800
7FF800
701800
601800
E01800
E01FFE
C01FFE
ENDCHAR
STARTCHAR 00C7
ENCODING 199
SWIDTH 720 0
DWIDTH 20 0
BBX 18 26 1 -6
BITMAP
03F000
0FFE00
3F3F00
380780
700380
6001C0
E00180
E00000
E00000
C00000
C00000
E00000
E00000
E00180
6001C0
700380
380780
1E3F00
0FFE00
03F000
00C000
00E000
007000
003000
01E000
01E000
ENDCHAR
STARTCHAR 00C8
ENCODING 200
SWIDTH 576 0
DWIDTH 16 0
BBX 13 27 2 0
BITMAP
0C00
0C00
0600
0600
0300
0000
0000
FFF8
FFF8
C000
C000
C000
C000
C000
C000
C000
FFE0
FFE0
C000
C000
C000
C000
C000
C000
C000
FFF8
FFF8
ENDCHAR
STARTCHAR 00C9
ENCODING 201
SWIDTH 576 0
DWIDTH 16 0
BBX 13 27 2 0
BITMAP
0180
0180
0300
0300
0300
0000
0000
FFF8
FFF8
C000
C000
C000
C000
C000
C000
C000
FFE0
FFE0
C000
C000
C000
C000
C000
C000
C000
FFF8
FFF8
ENDCHAR
STARTCHAR 00CA
ENCODING 202
SWIDTH 576 0
DWIDTH 16 0
BBX 13 26 2 0
BITMAP
0700
0F00
1980
30C0
0000
0000
FFF8
FFF8
C000
C000
C000
C000
C000
C000
C000
FFE0
FFE0
C000
C000
C000
C000
C000
C000
C000
FFF8
FFF8
ENDCHAR
STARTCHAR 00CB
ENCODING 203
SWIDTH 576 0
DWIDTH 16 0
BBX 13 25 2 0
BITMAP
39C0
39C0
39C0
0000
0000
FFF8
FFF8
C000
C000
C000
C000
C000
C000
C000
FFE0
FFE0
C000
C000
C000
C000
C000
C000
C000
FFF8
FFF8
ENDCHAR
STARTCHAR 00CC
ENCODING 204
SWIDTH 252 0
DWIDTH 7 0
BBX 4 27 1 0
BITMAP
C0
C0
60
60
60
00
00
70
70
70
70
70
70
70
70
70
70
70
70
70
70
70
70
70
70
70
70
ENDCHAR
STARTCHAR 00CD
ENCODING 205
SWIDTH 252 0
DWIDTH 7 0
BBX 4 27 2 0
BITMAP
30
30
60
60
60
00
00
E0
E0
E0
E0
E0
E0
E0
E0
E0
E0
E0
E0
E0
E0
E0
E0
E0
E0
E0
E0
ENDCHAR
STARTCHAR 00CE
ENCODING 206
SWIDTH 252 0
DWIDTH 7 0
BBX 9 26 -1 0
BITMAP
1C00
3E00
7700
E380
0000
0000
1C00
1C00
1C00
1C00
1C00
1C00
1C00
1C00
1C00
1C00
1C00
1C00
1C00
1C00
1C00
1C00
1C00
1C00
1C00
1C00
ENDCHAR
STARTCHAR 00CF
ENCODING 207
SWIDTH 252 0
DWIDTH 7 0
BBX 8 25 -1 0
BITMAP
E3
E3
E3
00
00
1C
1C
1C
1C
1C
1C
1C
1C
1C
1C
1C
1C
1C
1C
1C
1C
1C
1C
1C
1C
ENDCHAR
STARTCHAR 00D0
ENCODING 208
SWIDTH 684 0
DWIDTH 19 0
BBX 18 20 0 0
BITMAP
3FF000
3FFC00
303E00
300F00
300700
300380
300380
300180
300180
FF81C0
FF81C0
300180
300180
300380
300380
300700
300F00
303E00
3FFC00
3FF000
ENDCHAR
STARTCHAR 00D1
ENCODING 209
SWIDTH 684 0
DWIDTH 19 0
BBX 15 26 2 0
BITMAP
0E00
0F90
09F0
0070
0000
0000
E006
E006
F006
F806
D806
DC06
CE06
C606
C706
C386
C186
C1C6
C0E6
C066
C076
C03E
C01E
C01E
C00E
C006
ENDCHAR
STARTCHAR 00D2
ENCODING 210
SWIDTH 720 0
DWIDTH 20 0
BBX 18 26 1 0
BITMAP
018000
018000
018000
00C000
000000
000000
03F000
0FFE00
3F3F00
380780
700380
6001C0
E001C0
E000C0
E000C0
C000C0
C000C0
E000C0
E000C0
E001C0
6001C0
700380
380780
1F1F00
0FFE00
03F000
ENDCHAR
STARTCHAR 00D3
ENCODING 211
SWIDTH 720 0
DWIDTH 20 0
BBX 18 26 1 0
BITMAP
003000
006000
006000
006000
000000
000000
03F000
0FFE00
3F3F00
380780
700380
6001C0
E001C0
E000C0
E000C0
C000C0
C000C0
E000C0
E000C0
E001C0
6001C0
700380
380780
1F1F00
0FFE00
03F000
ENDCHAR
STARTCHAR 00D4
ENCODING 212
SWIDTH 720 0
DWIDTH 20 0
BBX 18 26 1 0
BITMAP
00E000
01E000
033000
071800
000000
000000
03F000
0FFE00
3F3F00
380780
700380
6001C0
E001C0
E000C0
E000C0
C000C0
C000C0
E000C0
E000C0
E001C0
6001C0
700380
380780
1F1F00
0FFE00
03F000
ENDCHAR
STARTCHAR 00D5
ENCODING 213
SWIDTH 720 0
DWIDTH 20 0
BBX 18 26 1 0
BITMAP
038000
07CC00
06FC00
063800
000000
000000
03F000
0FFE00
3F3F00
380780
700380
6001C0
E001C0
E000C0
E000C0
C000C0
C000C0
E000C0
E000C0
E001C0
6001C0
700380
380780
1F1F00
0FFE00
03F000
ENDCHAR
STARTCHAR 00D6
ENCODING 214
SWIDTH 720 0
DWIDTH 20 0
BBX 18 25 1 0
BITMAP
071800
071800
071800
000000
000000
03F000
0FFE00
3F3F00
380780
700380
6001C0
E001C0
E000C0
E000C0
C000C0
C000C0
E000C0
E000C0
E001C0
6001C0
700380
380780
1F1F00
0FFE00
03F000
ENDCHAR
STARTCHAR 00D7
ENCODING 215
SWIDTH 504 0
DWIDTH 14 0
BBX 10 10 2 5
BITMAP
4080
E1C0
7380
3F00
1E00
1E00
3F00
7380
E1C0
C0C0
ENDCHAR
STARTCHAR 00D8
ENCODING 216
SWIDTH 720 0
DWIDTH 20 0
BBX 19 20 1 0
BITMAP
03F040
0FFEE0
3F3FC0
380780
700780
600FC0
E01DC0
E038C0
E070C0
C0E0C0
C1C0C0
E380C0
E700C0
EF01C0
7E01C0
7C0380
780780
7F1F00
EFFE00
43F000
ENDCHAR
STARTCHAR 00D9
ENCODING 217
SWIDTH 720 0
DWIDTH 20 0
BBX 16 27 2 0
BITMAP
0600
0300
0300
0180
0180
0000
0000
C007
C007
C007
C007
C007
C007
C007
C007
C007
C007
C007
C007
C007
E007
E006
E00E
701E
3E7C
1FF8
07E0
ENDCHAR
STARTCHAR 00DA
ENCODING 218
SWIDTH 720 0
DWIDTH 20 0
BBX 16 27 2 0
BITMAP
00C0
00C0
00C0
0180
0180
0000
0000
C007
C007
C007
C007
C007
C007
C007
C007
C007
C007
C007
C007
C007
E007
E006
E00E
701E
3E7C
1FF8
07E0
ENDCHAR
STARTCHAR 00DB
ENCODING 219
SWIDTH 720 0
DWIDTH 20 0
BBX 16 26 2 0
BITMAP
0380
07C0
0660
0C70
0000
0000
C007
C007
C007
C007
C007
C007
C007
C007
C007
C007
C007
C007
C007
E007
E006
E00E
701E
3E7C
1FF8
07E0
ENDCHAR
STARTCHAR 00DC
ENCODING 220
SWIDTH 720 0
DWIDTH 20 0
BBX 16 25 2 0
BITMAP
0C70
0C70
0C70
0000
0000
C007
C007
C007
C007
C007
C007
C007
C007
C007
C007
C007
C007
C007
E007
E006
E00E
701E
3E7C
1FF8
07E0
ENDCHAR
STARTCHAR 00DD
ENCODING 221
SWIDTH 576 0
DWIDTH 16 0
BBX 16 27 0 0
BITMAP
00C0
00C0
00C0
0180
0180
0000
0000
E007
700E
700E
381C
1838
1C38
0E70
0E70
07E0
07C0
03C0
0180
0180
0180
0180
0180
0180
0180
0180
0180
ENDCHAR
STARTCHAR 00DE
ENCODING 222
SWIDTH 612 0
DWIDTH 17 0
BBX 14 20 2 0
BITMAP
C000
C000
C000
C000
FFE0
FFF0
C078
C018
C01C
C01C
C01C
C01C
C018
C078
FFF0
FFE0
C000
C000
C000
C000
ENDCHAR
STARTCHAR 00DF
ENCODING 223
SWIDTH 612 0
DWIDTH 17 0
BBX 13 20 2 0
BITMAP
1F00
7FC0
79E0
E0E0
E070
C070
C060
C0E0
C3C0
C3C0
C0F0
C038
C038
C018
C018
C038
C038
CDF0
CFF0
CFC0
ENDCHAR
STARTCHAR 00E0
ENCODING 224
SWIDTH 576 0
DWIDTH 16 0
BBX 13 22 1 0
BITMAP
0C00
0600
0600
0600
0300
0000
0000
0FC0
3FE0
78F0
7038
2038
0038
03F8
3FF8
7C38
E038
E038
E078
F0F8
7FD8
1F18
ENDCHAR
STARTCHAR 00E1
ENCODING 225
SWIDTH 576 0
DWIDTH 16 0
BBX 13 22 1 0
BITMAP
00C0
0180
0180
0180
0300
0000
0000
0FC0
3FE0
78F0
7038
2038
0038
03F8
3FF8
7C38
E038
E038
E078
F0F8
7FD8
1F18
ENDCHAR
STARTCHAR 00E2
ENCODING 226
SWIDTH 576 0
DWIDTH 16 0
BBX 13 21 1 0
BITMAP
0380
0780
0CC0
1860
0000
0000
0FC0
3FE0
78F0
7038
2038
0038
03F8
3FF8
7C38
E038
E038
E078
F0F8
7FD8
1F18
ENDCHAR
STARTCHAR 00E3
ENCODING 227
SWIDTH 576 0
DWIDTH 16 0
BBX 13 21 1 0
BITMAP
0C00
1F30
1BF0
18E0
0000
0000
0FC0
3FE0
78F0
7038
2038
0038
03F8
3FF8
7C38
E038
E038
E078
F0F8
7FD8
1F18
ENDCHAR
STARTCHAR 00E4
ENCODING 228
SWIDTH 576 0
DWIDTH 16 0
BBX 13 20 1 0
BITMAP
1C60
1C60
1C60
0000
0000
0FC0
3FE0
78F0
7038
2038
0038
03F8
3FF8
7C38
E038
E038
E078
F0F8
7FD8
1F18
ENDCHAR
STARTCHAR 00E5
ENCODING 229
SWIDTH 576 0
DWIDTH 16 0
BBX 13 23 1 0
BITMAP
0300
0F80
0CC0
0840
0CC0
0FC0
0300
0000
0FC0
3FE0
78F0
7038
2038
0038
03F8
3FF8
7C38
E038
E038
E078
F0F8
7FD8
1F18
ENDCHAR
STARTCHAR 00E6
ENCODING 230
SWIDTH 936 0
DWIDTH 26 0
BBX 24 15 1 0
BITMAP
0FC1F0
3FE7FC
78FF1E
703C06
003C07
003807
07FFFF
3FFFFF
783800
E03800
E03C04
E07C0E
F0EF9E
7FC7FC
1F01F0
ENDCHAR
STARTCHAR 00E7
ENCODING 231
SWIDTH 576 0
DWIDTH 16 0
BBX 13 21 1 -6
BITMAP
0FC0
1FF0
3EF8
7038
6018
E000
E000
E000
E000
E000
6010
7038
3878
1FF0
0FC0
0300
0300
0180
0180
0780
0700
ENDCHAR
STARTCHAR 00E8
ENCODING 232
SWIDTH 576 0
DWIDTH 16 0
BBX 14 21 1 0
BITMAP
0600
0600
0300
0300
0000
0000
0FC0
1FF0
3C78
7018
601C
E00C
FFFC
FFFC
E000
E000
6018
701C
3C78
1FF0
07C0
ENDCHAR
STARTCHAR 00E9
ENCODING 233
SWIDTH 576 0
DWIDTH 16 0
BBX 14 21 1 0
BITMAP
00C0
00C0
0180
0180
0000
0000
0FC0
1FF0
3C78
7018
601C
E00C
FFFC
FFFC
E000
E000
6018
701C
3C78
1FF0
07C0
ENDCHAR
STARTCHAR 00EA
ENCODING 234
SWIDTH 576 0
DWIDTH 16 0
BBX 14 21 1 0
BITMAP
0380
07C0
0EE0
1C60
0000
0000
0FC0
1FF0
3C78
7018
601C
E00C
FFFC
FFFC
E000
E000
6018
701C
3C78
1FF0
07C0
ENDCHAR
STARTCHAR 00EB
ENCODING 235
SWIDTH 576 0
DWIDTH 16 0
BBX 14 20 1 0
BITMAP
1C60
1C60
1C60
0000
0000
0FC0
1FF0
3C78
7018
601C
E00C
FFFC
FFFC
E000
E000
6018
701C
3C78
1FF0
07C0
ENDCHAR
STARTCHAR 00EC
ENCODING 236
SWIDTH 252 0
DWIDTH 7 0
BBX 4 22 1 0
BITMAP
C0
C0
60
60
60
00
00
70
70
70
70
70
70
70
70
70
70
70
70
70
70
70
ENDCHAR
STARTCHAR 00ED
ENCODING 237
SWIDTH 252 0
DWIDTH 7 0
BBX 4 22 2 0
BITMAP
30
30
60
60
60
00
00
E0
E0
E0
E0
E0
E0
E0
E0
E0
E0
E0
E0
E0
E0
E0
ENDCHAR
STARTCHAR 00EE
ENCODING 238
SWIDTH 252 0
DWIDTH 7 0
BBX 9 21 -1 0
BITMAP
1C00
3E00
7700
E380
0000
0000
1C00
1C00
1C00
1C00
1C00
1C00
1C00
1C00
1C00
1C00
1C00
1C00
1C00
1C00
1C00
ENDCHAR
STARTCHAR 00EF
ENCODING 239
SWIDTH 252 0
DWIDTH 7 0
BBX 8 20 -1 0
BITMAP
E3
E3
E3
00
00
1C
1C
1C
1C
1C
1C
1C
1C
1C
1C
1C
1C
1C
1C
1C
ENDCHAR
STARTCHAR 00F0
ENCODING 240
SWIDTH 576 0
DWIDTH 16 0
BBX 14 22 1 0
BITMAP
0020
0770
07E0
01E0
01F0
0138
0018
0FDC
1FEC
3C7C
703C
601C
E01C
E00C
E00C
E00C
E01C
601C
7038
3C78
1FF0
0FC0
ENDCHAR
STARTCHAR 00F1
ENCODING 241
SWIDTH 612 0
DWIDTH 17 0
BBX 13 21 2 0
BITMAP
1C00
3E60
37E0
31C0
0000
0000
CFC0
DFE0
FDF0
F070
E038
E038
C018
C018
C018
C018
C018
C018
C018
C018
C018
ENDCHAR
STARTCHAR 00F2
ENCODING 242
SWIDTH 612 0
DWIDTH 17 0
BBX 15 21 1 0
BITMAP
0600
0600
0300
0300
0000
0000
0FC0
1FF0
3EF8
703C
601C
E00C
E00E
E00E
E00C
E00C
601C
703C
3CF8
1FF0
07C0
ENDCHAR
STARTCHAR 00F3
ENCODING 243
SWIDTH 612 0
DWIDTH 17 0
BBX 15 21 1 0
BITMAP
00C0
0180
0180
0180
0000
0000
0FC0
1FF0
3EF8
703C
601C
E00C
E00E
E00E
E00C
E00C
601C
703C
3CF8
1FF0
07C0
ENDCHAR
STARTCHAR 00F4
ENCODING 244
SWIDTH 612 0
DWIDTH 17 0
BBX 15 21 1 0
BITMAP
0380
07C0
0EE0
1C60
0000
0000
0FC0
1FF0
3EF8
703C
601C
E00C
E00E
E00E
E00C
E00C
601C
703C
3CF8
1FF0
07C0
ENDCHAR
STARTCHAR 00F5
ENCODING 245
SWIDTH 612 0
DWIDTH 17 0
BBX 15 21 1 0
BITMAP
0E00
1F30
1BF0
18E0
0000
0000
0FC0
1FF0
3EF8
703C
601C
E00C
E00E
E00E
E00C
E00C
601C
703C
3CF8
1FF0
07C0
ENDCHAR
STARTCHAR 00F6
ENCODING 246
SWIDTH 612 0
DWIDTH 17 0
BBX 15 20 1 0
BITMAP
1C60
1C60
1C60
0000
0000
0FC0
1FF0
3EF8
703C
601C
E00C
E00E
E00E
E00C
E00C
601C
703C
3CF8
1FF0
07C0
ENDCHAR
STARTCHAR 00F7
ENCODING 247
SWIDTH 540 0
DWIDTH 15 0
BBX 11 11 2 4
BITMAP
0E00
0E00
0E00
0000
FFE0
FFE0
0000
0000
0E00
0E00
0E00
ENDCHAR
STARTCHAR 00F8
ENCODING 248
SWIDTH 612 0
DWIDTH 17 0
BBX 15 15 1 0
BITMAP
0FC4
1FFE
3EFC
703C
607C
E0EC
E1CE
E38E
E70C
EE0C
781C
703C
FCF8
FFF0
4FC0
ENDCHAR
STARTCHAR 00F9
ENCODING 249
SWIDTH 612 0
DWIDTH 17 0
BBX 13 22 2 0
BITMAP
0C00
0C00
0600
0600
0600
0000
0000
C038
C038
C038
C038
C038
C038
C038
C038
C038
C038
E038
E078
7DF8
3FD8
1F18
ENDCHAR
STARTCHAR 00FA
ENCODING 250
SWIDTH 612 0
DWIDTH 17 0
BBX 13 22 2 0
BITMAP
0180
0300
0300
0300
0600
0000
0000
C038
C038
C038
C038
C038
C038
C038
C038
C038
C038
E038
E078
7DF8
3FD8
1F18
ENDCHAR
STARTCHAR 00FB
ENCODING 251
SWIDTH 612 0
DWIDTH 17 0
BBX 13 21 2 0
BITMAP
0700
0F80
1980
30C0
0000
0000
C038
C038
C038
C038
C038
C038
C038
C038
C038
C038
E038
E078
7DF8
3FD8
1F18
ENDCHAR
STARTCHAR 00FC
ENCODING 252
SWIDTH 612 0
DWIDTH 17 0
BBX 13 20 2 0
BITMAP
38C0
38C0
38C0
0000
0000
C038
C038
C038
C038
C038
C038
C038
C038
C038
C038
E038
E078
7DF8
3FD8
1F18
ENDCHAR
STARTCHAR 00FD
ENCODING 253
SWIDTH 540 0
DWIDTH 15 0
BBX 13 29 1 -7
BITMAP
0180
0180
0300
0300
0300
0000
0000
C018
E018
E038
6030
7070
3070
3860
38E0
18C0
1CC0
0DC0
0F80
0F80
0780
0700
0700
0600
0600
0E00
0C00
1C00
1800
ENDCHAR
STARTCHAR 00FE
ENCODING 254
SWIDTH 612 0
DWIDTH 17 0
BBX 14 26 2 -6
BITMAP
C000
C000
C000
C000
C000
CF80
DFE0
F8F0
E038
E038
C018
C018
C01C
C018
C018
E038
E038
F8F0
DFE0
CF80
C000
C000
C000
C000
C000
C000
ENDCHAR
STARTCHAR 00FF
ENCODING 255
SWIDTH 540 0
DWIDTH 15 0
BBX 13 27 1 -7
BITMAP
18E0
18E0
18E0
0000
0000
C018
E018
E038
6030
7070
3070
3860
38E0
18C0
1CC0
0DC0
0F80
0F80
0780
0700
0700
0600
0600
0E00
0C00
1C00
1800
ENDCHAR
ENDFONT
