STARTFONT 2.1
COMMENT
COMMENT Converted from OpenType font "manrope-regular.otf" by "otf2bdf 3.0".
COMMENT
FONT -FreeType-Manrope-Medium-R-Normal--30-220-100-100-P-139-ISO10646-1
SIZE 22 100 100
FONTBOUNDINGBOX 29 38 -1 -7
STARTPROPERTIES 19
FOUNDRY "FreeType"
FAMILY_NAME "Manrope"
WEIGHT_NAME "Medium"
SLANT "R"
SETWIDTH_NAME "Normal"
ADD_STYLE_NAME ""
PIXEL_SIZE 30
POINT_SIZE 220
RESOLUTION_X 100
RESOLUTION_Y 100
SPACING "P"
AVERAGE_WIDTH 139
CHARSET_REGISTRY "ISO10646"
CHARSET_ENCODING "1"
FONT_ASCENT 33
FONT_DESCENT 9
COPYRIGHT "Copyright 2019-2021 The Manrope Project Authors (https://github.com/sharanda/manrope)"
_OTF_FONTFILE "manrope-regular.otf"
_OTF_PSNAME "Manrope-Regular"
ENDPROPERTIES
CHARS 191
STARTCHAR 0020
ENCODING 32
SWIDTH 196 0
DWIDTH 6 0
BBX 0 0 0 0
BITMAP
ENDCHAR
STARTCHAR 0021
ENCODING 33
SWIDTH 327 0
DWIDTH 10 0
BBX 2 22 4 0
BITMAP
C0
C0
C0
C0
C0
C0
C0
C0
C0
C0
C0
C0
C0
C0
C0
C0
C0
00
00
C0
C0
C0
ENDCHAR
STARTCHAR 0022
ENCODING 34
SWIDTH 392 0
DWIDTH 12 0
BBX 7 6 2 16
BITMAP
C6
C6
C6
C6
C6
C6
ENDCHAR
STARTCHAR 0023
ENCODING 35
SWIDTH 916 0
DWIDTH 28 0
BBX 24 22 2 0
BITMAP
003070
003060
007060
006060
0060C0
0060C0
3FFFFF
3FFFFF
00C180
00C180
01C180
018380
018300
FFFFFC
FFFFFC
030700
030600
070600
060E00
060C00
060C00
0E0C00
ENDCHAR
STARTCHAR 0024
ENCODING 36
SWIDTH 589 0
DWIDTH 18 0
BBX 16 28 1 -3
BITMAP
0180
0180
0180
07E0
1FF8
3C3C
700E
6006
6007
6000
7000
3800
1F00
0FF0
00FC
001E
0007
0007
0003
E003
E007
7006
3C1E
1FFC
07F0
0180
0180
0180
ENDCHAR
STARTCHAR 0025
ENCODING 37
SWIDTH 916 0
DWIDTH 28 0
BBX 24 22 2 0
BITMAP
1F0004
3F800E
71C01C
E0C038
C06070
C060E0
C061C0
E0C380
71C700
3F8E00
1F1C00
003800
0070F8
00E3FC
01C70E
038606
070603
0E0603
1C0606
38070E
7003FC
2000F8
ENDCHAR
STARTCHAR 0026
ENCODING 38
SWIDTH 654 0
DWIDTH 20 0
BBX 19 22 1 0
BITMAP
07E000
0FF800
1E3C00
380C00
300000
300000
300000
380000
180000
1C0000
1E0000
3F8000
71C300
60E300
607300
E03B00
601F00
600700
700F00
3C1F80
1FF8E0
07E040
ENDCHAR
STARTCHAR 0027
ENCODING 39
SWIDTH 229 0
DWIDTH 7 0
BBX 2 6 2 16
BITMAP
C0
C0
C0
C0
C0
C0
ENDCHAR
STARTCHAR 0028
ENCODING 40
SWIDTH 425 0
DWIDTH 13 0
BBX 8 31 4 -5
BITMAP
02
07
0E
0C
18
38
30
30
70
60
60
60
E0
C0
C0
C0
C0
C0
E0
60
60
60
70
30
30
38
18
1C
0E
06
06
ENDCHAR
STARTCHAR 0029
ENCODING 41
SWIDTH 425 0
DWIDTH 13 0
BBX 8 31 1 -5
BITMAP
40
E0
70
30
18
18
0C
0C
0E
06
06
06
07
03
03
03
03
03
07
06
06
06
0E
0C
0C
1C
18
38
70
60
60
ENDCHAR
STARTCHAR 002A
ENCODING 42
SWIDTH 425 0
DWIDTH 13 0
BBX 10 10 1 12
BITMAP
0C00
0C00
0C00
EDC0
FFC0
1F00
1E00
3B00
3380
2100
ENDCHAR
STARTCHAR 002B
ENCODING 43
SWIDTH 589 0
DWIDTH 18 0
BBX 14 14 2 4
BITMAP
0300
0300
0300
0300
0300
0300
FFFC
FFFC
0300
0300
0300
0300
0300
0300
ENDCHAR
STARTCHAR 002C
ENCODING 44
SWIDTH 261 0
DWIDTH 8 0
BBX 2 6 2 -3
BITMAP
C0
C0
C0
40
40
C0
ENDCHAR
STARTCHAR 002D
ENCODING 45
SWIDTH 425 0
DWIDTH 13 0
BBX 9 2 2 9
BITMAP
FF80
FF80
ENDCHAR
STARTCHAR 002E
ENCODING 46
SWIDTH 261 0
DWIDTH 8 0
BBX 2 3 3 0
BITMAP
C0
C0
C0
ENDCHAR
STARTCHAR 002F
ENCODING 47
SWIDTH 392 0
DWIDTH 12 0
BBX 8 22 2 0
BITMAP
03
07
06
06
0E
0E
0C
0C
1C
18
18
18
38
30
30
30
70
60
60
E0
E0
C0
ENDCHAR
STARTCHAR 0030
ENCODING 48
SWIDTH 621 0
DWIDTH 19 0
BBX 14 22 2 0
BITMAP
07C0
1FF0
3C78
701C
600C
E00C
C00C
C00C
C00C
C00C
C00C
C00C
C00C
C00C
C00C
C00C
E00C
600C
701C
3878
1FF0
07C0
ENDCHAR
STARTCHAR 0031
ENCODING 49
SWIDTH 392 0
DWIDTH 12 0
BBX 6 22 2 0
BITMAP
1C
7C
FC
CC
8C
0C
0C
0C
0C
0C
0C
0C
0C
0C
0C
0C
0C
0C
0C
0C
0C
0C
ENDCHAR
STARTCHAR 0032
ENCODING 50
SWIDTH 556 0
DWIDTH 17 0
BBX 14 22 2 0
BITMAP
0FC0
3FE0
7870
E038
E018
C01C
C00C
000C
001C
0018
0038
0070
00E0
01C0
0380
0700
1E00
3C00
7000
E000
FFFC
FFFC
ENDCHAR
STARTCHAR 0033
ENCODING 51
SWIDTH 556 0
DWIDTH 17 0
BBX 14 22 1 0
BITMAP
7FFC
7FFC
0018
0070
00E0
01C0
0380
0700
0FC0
0FF0
0878
0018
001C
000C
000C
000C
000C
E01C
6038
7878
3FF0
0FC0
ENDCHAR
STARTCHAR 0034
ENCODING 52
SWIDTH 589 0
DWIDTH 18 0
BBX 14 22 2 0
BITMAP
0180
0380
0300
0700
0600
0E00
0C00
1C00
1800
3830
3830
3030
7030
6030
E030
C030
FFFC
FFFC
0030
0030
0030
0030
ENDCHAR
STARTCHAR 0035
ENCODING 53
SWIDTH 589 0
DWIDTH 18 0
BBX 14 22 2 0
BITMAP
7FF8
7FF8
6000
6000
6000
E000
E000
E000
CFC0
FFE0
F070
E038
001C
000C
000C
000C
C00C
C01C
E038
78F0
3FE0
0F80
ENDCHAR
STARTCHAR 0036
ENCODING 54
SWIDTH 621 0
DWIDTH 19 0
BBX 15 22 2 0
BITMAP
07C0
1FF0
3C38
7018
6000
E000
C000
C000
C7E0
DFF0
F838
F01C
E00E
E006
C006
C006
E00E
600C
701C
3C78
1FF0
07C0
ENDCHAR
STARTCHAR 0037
ENCODING 55
SWIDTH 490 0
DWIDTH 15 0
BBX 13 22 1 0
BITMAP
FFF8
FFF8
0038
0030
0070
0060
0060
00E0
00C0
01C0
0180
0180
0380
0300
0700
0600
0600
0E00
0C00
1C00
1800
1800
ENDCHAR
STARTCHAR 0038
ENCODING 56
SWIDTH 589 0
DWIDTH 18 0
BBX 14 22 2 0
BITMAP
0FC0
3FE0
7870
6038
E018
E018
E018
6038
7070
3FF0
3FE0
7870
E038
E01C
C01C
C01C
C01C
E01C
E038
7878
3FF0
0FC0
ENDCHAR
STARTCHAR 0039
ENCODING 57
SWIDTH 621 0
DWIDTH 19 0
BBX 15 22 2 0
BITMAP
07C0
1FF0
3C78
701C
E00C
C00E
C00E
C006
C00E
E00E
701E
383E
1FF6
0FC6
0006
000E
000E
000C
301C
3878
1FF0
0FC0
ENDCHAR
STARTCHAR 003A
ENCODING 58
SWIDTH 294 0
DWIDTH 9 0
BBX 3 12 3 2
BITMAP
E0
E0
E0
00
00
00
00
00
00
E0
E0
E0
ENDCHAR
STARTCHAR 003B
ENCODING 59
SWIDTH 294 0
DWIDTH 9 0
BBX 3 20 3 -3
BITMAP
E0
E0
E0
00
00
00
00
00
00
00
00
00
00
00
E0
E0
E0
20
20
C0
ENDCHAR
STARTCHAR 003C
ENCODING 60
SWIDTH 621 0
DWIDTH 19 0
BBX 8 14 5 3
BITMAP
02
07
0E
1C
38
70
E0
C0
60
30
18
0C
06
02
ENDCHAR
STARTCHAR 003D
ENCODING 61
SWIDTH 752 0
DWIDTH 23 0
BBX 15 8 4 7
BITMAP
FFFE
FFFE
0000
0000
0000
0000
FFFE
FFFE
ENDCHAR
STARTCHAR 003E
ENCODING 62
SWIDTH 621 0
DWIDTH 19 0
BBX 8 14 6 3
BITMAP
40
E0
70
38
1C
0E
07
07
0E
1C
38
70
E0
C0
ENDCHAR
STARTCHAR 003F
ENCODING 63
SWIDTH 523 0
DWIDTH 16 0
BBX 12 22 2 0
BITMAP
1F80
7FE0
70E0
E070
C030
C030
0030
0030
0070
00E0
01C0
0380
0700
0600
0E00
0E00
0000
0000
0000
0E00
0E00
0E00
ENDCHAR
STARTCHAR 0040
ENCODING 64
SWIDTH 916 0
DWIDTH 28 0
BBX 23 23 2 -3
BITMAP
007E00
03FFC0
0781E0
1E0078
180018
30000C
70000C
607806
60FF06
61C706
E18306
E18306
E18306
618306
61C78E
60FFFC
707CF8
300000
380000
1C0000
0F0180
03FFC0
00FE00
ENDCHAR
STARTCHAR 0041
ENCODING 65
SWIDTH 621 0
DWIDTH 19 0
BBX 18 22 1 0
BITMAP
01C000
01E000
03E000
036000
037000
073000
063000
063800
0E1800
0C1800
0C1C00
1C0C00
180C00
180E00
380600
3FFF00
7FFF00
700300
600380
E00380
C00180
C001C0
ENDCHAR
STARTCHAR 0042
ENCODING 66
SWIDTH 621 0
DWIDTH 19 0
BBX 16 22 2 0
BITMAP
FFE0
FFF8
C03C
C00C
C00E
C00E
C00E
C00C
C01C
FFF8
FFF8
C01C
C00E
C006
C007
C007
C007
C007
C00E
C01E
FFFC
FFF0
ENDCHAR
STARTCHAR 0043
ENCODING 67
SWIDTH 720 0
DWIDTH 22 0
BBX 19 22 1 0
BITMAP
01F800
0FFF00
1F0F80
3801C0
7000E0
7000E0
600060
E00040
C00000
C00000
C00000
C00000
C00000
C00000
E00000
600060
7000E0
7000E0
3801C0
1F0F80
0FFF00
03FC00
ENDCHAR
STARTCHAR 0044
ENCODING 68
SWIDTH 687 0
DWIDTH 21 0
BBX 17 22 2 0
BITMAP
FFE000
FFF800
C03C00
C00E00
C00700
C00300
C00380
C00380
C00180
C00180
C00180
C00180
C00180
C00180
C00380
C00380
C00300
C00700
C00E00
C03C00
FFF800
FFE000
ENDCHAR
STARTCHAR 0045
ENCODING 69
SWIDTH 556 0
DWIDTH 17 0
BBX 14 22 2 0
BITMAP
FFFC
FFFC
C000
C000
C000
C000
C000
C000
C000
C000
FFF0
FFF0
C000
C000
C000
C000
C000
C000
C000
C000
FFFC
FFFC
ENDCHAR
STARTCHAR 0046
ENCODING 70
SWIDTH 490 0
DWIDTH 15 0
BBX 13 22 2 0
BITMAP
FFF8
FFF8
C000
C000
C000
C000
C000
C000
C000
C000
FFE0
FFE0
C000
C000
C000
C000
C000
C000
C000
C000
C000
C000
ENDCHAR
STARTCHAR 0047
ENCODING 71
SWIDTH 720 0
DWIDTH 22 0
BBX 20 22 1 0
BITMAP
03F800
0FFE00
1F0F80
3C03C0
3001C0
7000E0
600080
E00000
E00000
C00000
C00000
C00FF0
C00FF0
C00070
E00060
600060
6000E0
7000C0
3801C0
1F0780
0FFF00
01F800
ENDCHAR
STARTCHAR 0048
ENCODING 72
SWIDTH 687 0
DWIDTH 21 0
BBX 17 22 2 0
BITMAP
C00180
C00180
C00180
C00180
C00180
C00180
C00180
C00180
C00180
C00180
FFFF80
FFFF80
C00180
C00180
C00180
C00180
C00180
C00180
C00180
C00180
C00180
C00180
ENDCHAR
STARTCHAR 0049
ENCODING 73
SWIDTH 229 0
DWIDTH 7 0
BBX 3 22 2 0
BITMAP
E0
E0
E0
E0
E0
E0
E0
E0
E0
E0
E0
E0
E0
E0
E0
E0
E0
E0
E0
E0
E0
E0
ENDCHAR
STARTCHAR 004A
ENCODING 74
SWIDTH 458 0
DWIDTH 14 0
BBX 12 22 0 0
BITMAP
0070
0070
0070
0070
0070
0070
0070
0070
0070
0070
0070
0070
0070
0070
0070
0070
0070
C070
E060
71E0
3FC0
1F80
ENDCHAR
STARTCHAR 004B
ENCODING 75
SWIDTH 589 0
DWIDTH 18 0
BBX 16 22 2 0
BITMAP
C00E
C01C
C038
C070
C0E0
C1C0
C380
C700
CE00
DC00
F800
DC00
CE00
C700
C380
C1C0
C0E0
C070
C038
C01C
C00E
C007
ENDCHAR
STARTCHAR 004C
ENCODING 76
SWIDTH 523 0
DWIDTH 16 0
BBX 13 22 2 0
BITMAP
E000
E000
E000
E000
E000
E000
E000
E000
E000
E000
E000
E000
E000
E000
E000
E000
E000
E000
E000
E000
FFF8
FFF8
ENDCHAR
STARTCHAR 004D
ENCODING 77
SWIDTH 850 0
DWIDTH 26 0
BBX 22 22 2 0
BITMAP
C0001C
E0001C
E0003C
F0003C
F0007C
F8007C
D800FC
DC00DC
CC01DC
CE019C
C6019C
C7031C
C3031C
C3861C
C1861C
C18E1C
C0CC1C
C0DC1C
C0F81C
C0781C
C0701C
C0301C
ENDCHAR
STARTCHAR 004E
ENCODING 78
SWIDTH 687 0
DWIDTH 21 0
BBX 17 22 2 0
BITMAP
E00380
E00380
F00380
F80380
D80380
DC0380
CE0380
C60380
C70380
C38380
C18380
C1C380
C0E380
C06380
C07380
C03B80
C01B80
C01F80
C00F80
C00780
C00780
C00380
ENDCHAR
STARTCHAR 004F
ENCODING 79
SWIDTH 720 0
DWIDTH 22 0
BBX 20 22 1 0
BITMAP
01F800
0FFF00
1F0780
3801C0
7000E0
7000E0
600070
E00070
E00030
E00030
C00030
C00030
C00030
C00030
E00070
600060
7000E0
7000E0
3801C0
1E0780
0FFF00
03FC00
ENDCHAR
STARTCHAR 0050
ENCODING 80
SWIDTH 589 0
DWIDTH 18 0
BBX 16 22 2 0
BITMAP
FFF0
FFF8
C01C
C00E
C006
C006
C007
C007
C006
C006
C00E
C01C
FFF8
FFF0
C000
C000
C000
C000
C000
C000
C000
C000
ENDCHAR
STARTCHAR 0051
ENCODING 81
SWIDTH 720 0
DWIDTH 22 0
BBX 20 22 1 0
BITMAP
01F800
0FFF00
1F0780
3801C0
7000E0
7000E0
600070
E00070
E00030
E00030
C00030
C00030
C00030
C00030
E00070
600660
7007E0
7003E0
3801C0
1E07E0
0FFF70
03F820
ENDCHAR
STARTCHAR 0052
ENCODING 82
SWIDTH 621 0
DWIDTH 19 0
BBX 16 22 2 0
BITMAP
FFF0
FFF8
C01C
C00E
C006
C006
C007
C007
C006
C006
C00E
C01C
FFF8
FFF0
C030
C038
C018
C01C
C00C
C00E
C006
C007
ENDCHAR
STARTCHAR 0053
ENCODING 83
SWIDTH 621 0
DWIDTH 19 0
BBX 17 22 1 0
BITMAP
07F000
1FFC00
3C1E00
700F00
700700
600300
600200
700000
380000
1F8000
0FF000
00FE00
001F00
000700
000380
000380
E00380
600380
700700
3C1E00
1FFC00
07F000
ENDCHAR
STARTCHAR 0054
ENCODING 84
SWIDTH 589 0
DWIDTH 18 0
BBX 18 22 0 0
BITMAP
FFFFC0
FFFFC0
00C000
00C000
00C000
00C000
00C000
00C000
00C000
00C000
00C000
00C000
00C000
00C000
00C000
00C000
00C000
00C000
00C000
00C000
00C000
00C000
ENDCHAR
STARTCHAR 0055
ENCODING 85
SWIDTH 687 0
DWIDTH 21 0
BBX 17 22 2 0
BITMAP
C00180
C00180
C00180
C00180
C00180
C00180
C00180
C00180
C00180
C00180
C00180
C00180
C00180
C00180
C00180
E00180
600380
700300
780700
3C1E00
1FFC00
03F000
ENDCHAR
STARTCHAR 0056
ENCODING 86
SWIDTH 589 0
DWIDTH 18 0
BBX 18 22 0 0
BITMAP
E000C0
6001C0
600180
700180
300380
300300
380300
180700
180600
1C0600
0C0E00
0C0C00
0E0C00
061C00
061800
071800
033800
03B000
03B000
01F000
01E000
00E000
ENDCHAR
STARTCHAR 0057
ENCODING 87
SWIDTH 949 0
DWIDTH 29 0
BBX 27 22 1 0
BITMAP
C00E0060
C00E00E0
E01E00C0
E01E00C0
601F01C0
601B0180
703B0180
30338180
30318380
38718300
18618300
1861C700
1860C600
1CE0C600
0CC0E600
0CC06E00
0FC06C00
07806C00
07807C00
07803800
07803800
03003800
ENDCHAR
STARTCHAR 0058
ENCODING 88
SWIDTH 621 0
DWIDTH 19 0
BBX 17 22 1 0
BITMAP
E00380
600700
700600
380E00
181C00
1C1800
0E3800
067000
076000
03E000
01C000
03C000
03E000
076000
0E7000
0C3800
1C1800
381C00
300E00
700700
E00700
C00380
ENDCHAR
STARTCHAR 0059
ENCODING 89
SWIDTH 556 0
DWIDTH 17 0
BBX 17 22 0 0
BITMAP
E00380
600300
700700
380E00
180C00
1C1C00
0C1800
0E3800
073000
077000
03E000
01C000
01C000
01C000
01C000
01C000
01C000
01C000
01C000
01C000
01C000
01C000
ENDCHAR
STARTCHAR 005A
ENCODING 90
SWIDTH 621 0
DWIDTH 19 0
BBX 15 22 2 0
BITMAP
FFFE
FFFE
001C
0018
0038
0070
0070
00E0
00C0
01C0
0380
0300
0700
0E00
0E00
1C00
1800
3800
7000
7000
FFFE
FFFE
ENDCHAR
STARTCHAR 005B
ENCODING 91
SWIDTH 392 0
DWIDTH 12 0
BBX 6 34 4 -7
BITMAP
FC
FC
C0
C0
C0
C0
C0
C0
C0
C0
C0
C0
C0
C0
C0
C0
C0
C0
C0
C0
C0
C0
C0
C0
C0
C0
C0
C0
C0
C0
C0
C0
FC
FC
ENDCHAR
STARTCHAR 005C
ENCODING 92
SWIDTH 392 0
DWIDTH 12 0
BBX 8 22 2 0
BITMAP
C0
E0
E0
60
60
70
30
30
30
38
18
18
18
1C
0C
0C
0E
0E
06
06
07
03
ENDCHAR
STARTCHAR 005D
ENCODING 93
SWIDTH 392 0
DWIDTH 12 0
BBX 6 34 2 -7
BITMAP
FC
FC
0C
0C
0C
0C
0C
0C
0C
0C
0C
0C
0C
0C
0C
0C
0C
0C
0C
0C
0C
0C
0C
0C
0C
0C
0C
0C
0C
0C
0C
0C
FC
FC
ENDCHAR
STARTCHAR 005E
ENCODING 94
SWIDTH 654 0
DWIDTH 20 0
BBX 14 8 3 15
BITMAP
0300
0780
0EC0
1C60
3830
7018
E00C
4004
ENDCHAR
STARTCHAR 005F
ENCODING 95
SWIDTH 654 0
DWIDTH 20 0
BBX 20 2 0 -3
BITMAP
FFFFF0
FFFFF0
ENDCHAR
STARTCHAR 0060
ENCODING 96
SWIDTH 490 0
DWIDTH 15 0
BBX 4 5 5 24
BITMAP
C0
60
60
30
30
ENDCHAR
STARTCHAR 0061
ENCODING 97
SWIDTH 556 0
DWIDTH 17 0
BBX 14 17 1 0
BITMAP
07E0
1FF0
3838
701C
600C
000C
00FC
1FFC
3F0C
700C
E00C
C01C
C01C
E03C
707C
3FEC
1F8C
ENDCHAR
STARTCHAR 0062
ENCODING 98
SWIDTH 589 0
DWIDTH 18 0
BBX 15 22 2 0
BITMAP
C000
C000
C000
C000
C000
C7C0
DFF0
F878
F01C
E00C
E00C
C00E
C00E
C00E
C00E
C00E
E00C
E00C
F01C
F878
DFF0
C7C0
ENDCHAR
STARTCHAR 0063
ENCODING 99
SWIDTH 556 0
DWIDTH 17 0
BBX 15 17 1 0
BITMAP
07E0
1FF8
3C3C
700C
700E
6000
E000
E000
E000
E000
E000
6000
700E
700C
3C3C
1FF8
07E0
ENDCHAR
STARTCHAR 0064
ENCODING 100
SWIDTH 589 0
DWIDTH 18 0
BBX 15 22 1 0
BITMAP
0006
0006
0006
0006
0006
07C6
1FF6
3C3E
701E
700E
600E
E006
E006
E006
E006
E006
600E
600E
701E
3C3E
1FF6
07C6
ENDCHAR
STARTCHAR 0065
ENCODING 101
SWIDTH 589 0
DWIDTH 18 0
BBX 16 17 1 0
BITMAP
07E0
1FF8
3C3C
700C
600E
6006
E006
FFFF
FFFF
E000
E000
6000
7006
700E
3C3C
1FF8
07E0
ENDCHAR
STARTCHAR 0066
ENCODING 102
SWIDTH 360 0
DWIDTH 11 0
BBX 10 22 1 0
BITMAP
07C0
0FC0
1C00
1800
1800
FFC0
FFC0
1800
1800
1800
1800
1800
1800
1800
1800
1800
1800
1800
1800
1800
1800
1800
ENDCHAR
STARTCHAR 0067
ENCODING 103
SWIDTH 589 0
DWIDTH 18 0
BBX 15 24 1 -7
BITMAP
07C6
1FF6
3C3E
701E
700E
600E
E006
E006
E006
E006
E006
600E
600E
701E
3C3E
1FF6
07C6
0006
000E
000E
700C
383C
1FF8
0FE0
ENDCHAR
STARTCHAR 0068
ENCODING 104
SWIDTH 589 0
DWIDTH 18 0
BBX 14 22 2 0
BITMAP
C000
C000
C000
C000
C000
C7C0
DFF0
F878
F018
E01C
E00C
C00C
C00C
C00C
C00C
C00C
C00C
C00C
C00C
C00C
C00C
C00C
ENDCHAR
STARTCHAR 0069
ENCODING 105
SWIDTH 229 0
DWIDTH 7 0
BBX 3 22 2 0
BITMAP
E0
E0
E0
00
00
E0
E0
E0
E0
E0
E0
E0
E0
E0
E0
E0
E0
E0
E0
E0
E0
E0
ENDCHAR
STARTCHAR 006A
ENCODING 106
SWIDTH 261 0
DWIDTH 8 0
BBX 5 29 0 -7
BITMAP
18
18
18
00
00
18
18
18
18
18
18
18
18
18
18
18
18
18
18
18
18
18
18
18
18
18
38
F8
F0
ENDCHAR
STARTCHAR 006B
ENCODING 107
SWIDTH 490 0
DWIDTH 15 0
BBX 13 22 2 0
BITMAP
C000
C000
C000
C000
C000
C070
C0E0
C1C0
C1C0
C380
C700
CE00
DC00
F800
DC00
CE00
C700
C380
C1C0
C0E0
C070
C038
ENDCHAR
STARTCHAR 006C
ENCODING 108
SWIDTH 229 0
DWIDTH 7 0
BBX 3 22 2 0
BITMAP
E0
E0
E0
E0
E0
E0
E0
E0
E0
E0
E0
E0
E0
E0
E0
E0
E0
E0
E0
E0
E0
E0
ENDCHAR
STARTCHAR 006D
ENCODING 109
SWIDTH 850 0
DWIDTH 26 0
BBX 22 17 2 0
BITMAP
CF83E0
DFE7F8
F0EC38
E0781C
E0300C
C0300C
C0300C
C0300C
C0300C
C0300C
C0300C
C0300C
C0300C
C0300C
C0300C
C0300C
C0300C
ENDCHAR
STARTCHAR 006E
ENCODING 110
SWIDTH 589 0
DWIDTH 18 0
BBX 14 17 2 0
BITMAP
C7C0
DFF0
F878
F018
E01C
E00C
C00C
C00C
C00C
C00C
C00C
C00C
C00C
C00C
C00C
C00C
C00C
ENDCHAR
STARTCHAR 006F
ENCODING 111
SWIDTH 589 0
DWIDTH 18 0
BBX 16 17 1 0
BITMAP
07E0
1FF8
3C3C
700E
700E
6006
E007
E007
E007
E007
E007
6006
700E
700E
3C3C
1FF8
07E0
ENDCHAR
STARTCHAR 0070
ENCODING 112
SWIDTH 589 0
DWIDTH 18 0
BBX 15 24 2 -7
BITMAP
C7C0
DFF0
F878
F01C
E00C
E00C
C00E
C00E
C00E
C00E
C00E
E00C
E00C
F01C
F878
DFF0
C7C0
C000
C000
C000
C000
C000
C000
C000
ENDCHAR
STARTCHAR 0071
ENCODING 113
SWIDTH 589 0
DWIDTH 18 0
BBX 15 24 1 -7
BITMAP
07C6
1FF6
3C3E
701E
700E
600E
E006
E006
E006
E006
E006
600E
600E
701E
3C3E
1FF6
07C6
0006
0006
0006
0006
0006
0006
0006
ENDCHAR
STARTCHAR 0072
ENCODING 114
SWIDTH 360 0
DWIDTH 11 0
BBX 8 17 2 0
BITMAP
C7
DF
F8
F0
E0
E0
C0
C0
C0
C0
C0
C0
C0
C0
C0
C0
C0
ENDCHAR
STARTCHAR 0073
ENCODING 115
SWIDTH 523 0
DWIDTH 16 0
BBX 14 17 1 0
BITMAP
0FC0
3FF0
7878
6018
601C
6000
7800
3F00
07E0
00F8
001C
001C
E01C
601C
7838
3FF0
0FC0
ENDCHAR
STARTCHAR 0074
ENCODING 116
SWIDTH 392 0
DWIDTH 12 0
BBX 11 22 0 0
BITMAP
0C00
0C00
0C00
0C00
0C00
FFE0
FFE0
0C00
0C00
0C00
0C00
0C00
0C00
0C00
0C00
0C00
0C00
0C00
0C00
0E00
07E0
03E0
ENDCHAR
STARTCHAR 0075
ENCODING 117
SWIDTH 589 0
DWIDTH 18 0
BBX 14 17 2 0
BITMAP
C00C
C00C
C00C
C00C
C00C
C00C
C00C
C00C
C00C
C00C
C00C
E01C
E01C
603C
787C
3FEC
0F8C
ENDCHAR
STARTCHAR 0076
ENCODING 118
SWIDTH 523 0
DWIDTH 16 0
BBX 14 17 1 0
BITMAP
C01C
C018
E018
6038
6030
3030
3070
3860
1860
18E0
1CC0
0CC0
0D80
0F80
0780
0700
0700
ENDCHAR
STARTCHAR 0077
ENCODING 119
SWIDTH 752 0
DWIDTH 23 0
BBX 22 17 1 0
BITMAP
C0301C
C07018
E07018
607818
60D838
60D830
30CC30
318C70
318C60
398660
1986E0
1B06C0
1F06C0
0F03C0
0E03C0
0E0380
0E0180
ENDCHAR
STARTCHAR 0078
ENCODING 120
SWIDTH 523 0
DWIDTH 16 0
BBX 14 17 1 0
BITMAP
E00C
601C
7038
3870
1860
0CE0
0FC0
0780
0300
0780
0FC0
1CE0
1860
3870
7038
E01C
C00C
ENDCHAR
STARTCHAR 0079
ENCODING 121
SWIDTH 523 0
DWIDTH 16 0
BBX 14 24 1 -7
BITMAP
C00C
C00C
601C
6018
7018
3038
3030
1830
1860
1C60
0CE0
0CC0
06C0
07C0
0780
0380
0300
0300
0700
0600
0600
0E00
0C00
0C00
ENDCHAR
STARTCHAR 007A
ENCODING 122
SWIDTH 523 0
DWIDTH 16 0
BBX 14 17 1 0
BITMAP
FFFC
FFF8
0030
0070
00E0
00C0
01C0
0380
0300
0600
0E00
1C00
1800
3000
7000
FFF8
FFF8
ENDCHAR
STARTCHAR 007B
ENCODING 123
SWIDTH 425 0
DWIDTH 13 0
BBX 7 34 4 -7
BITMAP
1E
1E
38
30
30
30
30
30
30
30
30
30
30
30
30
70
E0
E0
70
30
30
30
30
30
30
30
30
30
30
30
30
38
1E
0E
ENDCHAR
STARTCHAR 007C
ENCODING 124
SWIDTH 261 0
DWIDTH 8 0
BBX 2 22 3 0
BITMAP
C0
C0
C0
C0
C0
C0
C0
C0
C0
C0
C0
C0
C0
C0
C0
C0
C0
C0
C0
C0
C0
C0
ENDCHAR
STARTCHAR 007D
ENCODING 125
SWIDTH 425 0
DWIDTH 13 0
BBX 7 34 1 -7
BITMAP
F0
F8
1C
0C
0C
0C
0C
0C
0C
0C
0C
0C
0C
0C
0C
0E
06
06
0E
0C
0C
0C
0C
0C
0C
0C
0C
0C
0C
0C
0C
1C
F8
F0
ENDCHAR
STARTCHAR 007E
ENCODING 126
SWIDTH 654 0
DWIDTH 20 0
BBX 13 5 4 7
BITMAP
7838
FE38
FFF8
C7F0
C1E0
ENDCHAR
STARTCHAR 00A0
ENCODING 160
SWIDTH 196 0
DWIDTH 6 0
BBX 0 0 0 0
BITMAP
ENDCHAR
STARTCHAR 00A1
ENCODING 161
SWIDTH 327 0
DWIDTH 10 0
BBX 2 22 4 -5
BITMAP
C0
C0
C0
00
00
C0
C0
C0
C0
C0
C0
C0
C0
C0
C0
C0
C0
C0
C0
C0
C0
C0
ENDCHAR
STARTCHAR 00A2
ENCODING 162
SWIDTH 556 0
DWIDTH 17 0
BBX 15 23 1 -1
BITMAP
0180
0180
0180
0FE0
1FF8
383C
700E
600C
6000
E000
E000
E000
E000
E000
6000
600C
700C
3C3C
1FF8
07E0
0180
0180
0180
ENDCHAR
STARTCHAR 00A3
ENCODING 163
SWIDTH 556 0
DWIDTH 17 0
BBX 15 22 1 0
BITMAP
01F0
07F8
071C
0E0E
0C06
0C06
0C00
0C00
0C00
0C00
FFF0
FFF0
0C00
0C00
0C00
0C00
0C00
0C00
0C00
1C00
FFFE
FFFE
ENDCHAR
STARTCHAR 00A4
ENCODING 164
SWIDTH 654 0
DWIDTH 20 0
BBX 18 18 1 2
BITMAP
400080
E3F1C0
7FFF80
3C1F00
380600
300300
600300
600180
600180
600180
600180
600300
300300
380600
3C1F00
7FFB80
E3F1C0
400080
ENDCHAR
STARTCHAR 00A5
ENCODING 165
SWIDTH 556 0
DWIDTH 17 0
BBX 17 22 0 0
BITMAP
E00380
600700
700700
380E00
180C00
1C1C00
0C1800
0E3800
077000
036000
03E000
01C000
1FFC00
1FFC00
01C000
01C000
01C000
1FFC00
1FFC00
01C000
01C000
01C000
ENDCHAR
STARTCHAR 00A6
ENCODING 166
SWIDTH 261 0
DWIDTH 8 0
BBX 2 27 3 -5
BITMAP
C0
C0
C0
C0
C0
C0
C0
C0
C0
C0
C0
00
00
00
00
C0
C0
C0
C0
C0
C0
C0
C0
C0
C0
C0
C0
ENDCHAR
STARTCHAR 00A7
ENCODING 167
SWIDTH 523 0
DWIDTH 16 0
BBX 14 25 1 -5
BITMAP
0FC0
3FE0
7870
6038
6018
6000
7800
3F00
1FE0
38F8
601C
E01C
E00C
701C
7C18
1FF8
03F0
0078
0018
0018
6018
7018
3878
1FF0
0FC0
ENDCHAR
STARTCHAR 00A8
ENCODING 168
SWIDTH 523 0
DWIDTH 16 0
BBX 8 2 4 25
BITMAP
C7
C7
ENDCHAR
STARTCHAR 00A9
ENCODING 169
SWIDTH 818 0
DWIDTH 25 0
BBX 23 23 1 -1
BITMAP
00FC00
03FF80
0F83C0
1E00E0
380070
307C38
71FE18
61831C
E3038C
C3000C
C3000E
C3000E
C3000E
C3000C
E3038C
61871C
70FE18
303C38
380070
1E00E0
0F83C0
03FF80
00FE00
ENDCHAR
STARTCHAR 00AA
ENCODING 170
SWIDTH 327 0
DWIDTH 10 0
BBX 7 9 1 8
BITMAP
3C
7E
42
1E
7E
C2
C6
7E
3A
ENDCHAR
STARTCHAR 00AB
ENCODING 171
SWIDTH 523 0
DWIDTH 16 0
BBX 11 13 3 2
BITMAP
0820
0C60
18C0
3180
6380
E300
C600
C700
6300
3180
38C0
1C60
0C60
ENDCHAR
STARTCHAR 00AC
ENCODING 172
SWIDTH 589 0
DWIDTH 18 0
BBX 14 6 2 6
BITMAP
FFFC
FFFC
0004
0004
0004
0004
ENDCHAR
STARTCHAR 00AD
ENCODING 173
SWIDTH 425 0
DWIDTH 13 0
BBX 9 2 2 9
BITMAP
FF80
FF80
ENDCHAR
STARTCHAR 00AE
ENCODING 174
SWIDTH 621 0
DWIDTH 19 0
BBX 15 15 2 9
BITMAP
0380
1FF0
3838
701C
67CC
C446
C466
C446
C7C6
C4C6
644C
600C
3838
1FF0
07C0
ENDCHAR
STARTCHAR 00AF
ENCODING 175
SWIDTH 490 0
DWIDTH 15 0
BBX 7 2 4 26
BITMAP
FE
FE
ENDCHAR
STARTCHAR 00B0
ENCODING 176
SWIDTH 458 0
DWIDTH 14 0
BBX 11 11 1 11
BITMAP
1F00
3F80
71C0
E0E0
C060
C060
C060
E0E0
71C0
3F80
1F00
ENDCHAR
STARTCHAR 00B1
ENCODING 177
SWIDTH 589 0
DWIDTH 18 0
BBX 14 15 2 2
BITMAP
0300
0300
0300
0300
FFFC
FFFC
0300
0300
0300
0300
0000
0000
0000
FFFC
FFFC
ENDCHAR
STARTCHAR 00B2
ENCODING 178
SWIDTH 392 0
DWIDTH 12 0
BBX 9 14 2 8
BITMAP
3C00
7F00
C300
8180
0180
0180
0300
0700
0C00
1800
3000
6000
FF80
FF80
ENDCHAR
STARTCHAR 00B3
ENCODING 179
SWIDTH 392 0
DWIDTH 12 0
BBX 9 14 1 8
BITMAP
7F80
7F80
0300
0600
1C00
3E00
1700
0180
0180
0180
4180
E180
7F00
3E00
ENDCHAR
STARTCHAR 00B4
ENCODING 180
SWIDTH 490 0
DWIDTH 15 0
BBX 4 5 6 24
BITMAP
30
60
60
C0
C0
ENDCHAR
STARTCHAR 00B5
ENCODING 181
SWIDTH 589 0
DWIDTH 18 0
BBX 14 24 2 -7
BITMAP
C00C
C00C
C00C
C00C
C00C
C00C
C00C
C00C
C00C
C00C
E00C
E00C
E01C
F01C
F87C
DFEC
CFCC
C000
C000
C000
C000
C000
C000
C000
ENDCHAR
STARTCHAR 00B6
ENCODING 182
SWIDTH 621 0
DWIDTH 19 0
BBX 15 26 2 -4
BITMAP
0FE6
3FE6
3FE6
7FE6
7FE6
FFE6
FFE6
FFE6
FFE6
7FE6
7FE6
3FE6
1FE6
07E6
00E6
00E6
00E6
00E6
00E6
00E6
00E6
00E6
00E6
00E6
00E6
00E6
ENDCHAR
STARTCHAR 00B7
ENCODING 183
SWIDTH 229 0
DWIDTH 7 0
BBX 3 3 2 8
BITMAP
E0
E0
E0
ENDCHAR
STARTCHAR 00B8
ENCODING 184
SWIDTH 392 0
DWIDTH 12 0
BBX 4 8 4 -7
BITMAP
20
60
60
70
30
10
F0
E0
ENDCHAR
STARTCHAR 00B9
ENCODING 185
SWIDTH 327 0
DWIDTH 10 0
BBX 4 14 2 8
BITMAP
30
F0
B0
30
30
30
30
30
30
30
30
30
30
30
ENDCHAR
STARTCHAR 00BA
ENCODING 186
SWIDTH 360 0
DWIDTH 11 0
BBX 8 8 1 8
BITMAP
3C
7E
43
C1
C1
C3
63
7E
ENDCHAR
STARTCHAR 00BB
ENCODING 187
SWIDTH 523 0
DWIDTH 16 0
BBX 12 13 2 2
BITMAP
4200
E300
6380
3180
18C0
0C60
0E30
0C60
18C0
31C0
7180
6300
C200
ENDCHAR
STARTCHAR 00BC
ENCODING 188
SWIDTH 981 0
DWIDTH 30 0
BBX 24 22 2 0
BITMAP
300020
F00070
B000E0
3000C0
300180
300380
300700
300600
300C18
301818
303830
307030
306060
30C060
01C0C6
0380C6
030186
060186
0E01FF
1C01FF
180006
100006
ENDCHAR
STARTCHAR 00BD
ENCODING 189
SWIDTH 949 0
DWIDTH 29 0
BBX 25 22 2 0
BITMAP
30002000
F0007000
B000E000
3000C000
30018000
30038000
30070000
30060000
300C3E00
30187F00
3038C380
3070C180
30600180
30C00180
01C00380
03800700
03000E00
06001C00
0E003800
1C006000
3800FF80
1000FF80
ENDCHAR
STARTCHAR 00BE
ENCODING 190
SWIDTH 981 0
DWIDTH 30 0
BBX 27 22 1 0
BITMAP
7F800400
7F800E00
03001C00
06001800
1C003000
3E007000
1700E000
0180C000
01818300
01838600
41870600
E1860600
7F0C0C00
3E180C00
003818C0
007018C0
006030C0
00C030C0
01C03FE0
03803FE0
030000C0
020000C0
ENDCHAR
STARTCHAR 00BF
ENCODING 191
SWIDTH 523 0
DWIDTH 16 0
BBX 12 23 2 -6
BITMAP
0700
0700
0700
0000
0000
0000
0700
0600
0600
0600
0E00
3C00
7800
6000
E000
C000
C000
C030
C030
E070
70E0
7FE0
1F80
ENDCHAR
STARTCHAR 00C0
ENCODING 192
SWIDTH 621 0
DWIDTH 19 0
BBX 18 29 1 0
BITMAP
030000
030000
018000
018000
018000
000000
000000
01C000
01E000
03E000
036000
037000
073000
063000
063800
0E1800
0C1800
0C1C00
1C0C00
180C00
180E00
380600
3FFF00
7FFF00
700300
600380
E00380
C00180
C001C0
ENDCHAR
STARTCHAR 00C1
ENCODING 193
SWIDTH 621 0
DWIDTH 19 0
BBX 18 29 1 0
BITMAP
006000
006000
006000
00C000
000000
000000
000000
01C000
01E000
03E000
036000
037000
073000
063000
063800
0E1800
0C1800
0C1C00
1C0C00
180C00
180E00
380600
3FFF00
7FFF00
700300
600380
E00380
C00180
C001C0
ENDCHAR
STARTCHAR 00C2
ENCODING 194
SWIDTH 621 0
DWIDTH 19 0
BBX 18 29 1 0
BITMAP
01C000
03E000
033000
063800
000000
000000
000000
01C000
01E000
03E000
036000
037000
073000
063000
063800
0E1800
0C1800
0C1C00
1C0C00
180C00
180E00
380600
3FFF00
7FFF00
700300
600380
E00380
C00180
C001C0
ENDCHAR
STARTCHAR 00C3
ENCODING 195
SWIDTH 621 0
DWIDTH 19 0
BBX 18 29 1 0
BITMAP
070800
0FC800
0CF800
003000
000000
000000
000000
01C000
01E000
03E000
036000
037000
073000
063000
063800
0E1800
0C1800
0C1C00
1C0C00
180C00
180E00
380600
3FFF00
7FFF00
700300
600380
E00380
C00180
C001C0
ENDCHAR
STARTCHAR 00C4
ENCODING 196
SWIDTH 621 0
DWIDTH 19 0
BBX 18 27 1 0
BITMAP
063800
063800
000000
000000
000000
01C000
01E000
03E000
036000
037000
073000
063000
063800
0E1800
0C1800
0C1C00
1C0C00
180C00
180E00
380600
3FFF00
7FFF00
700300
600380
E00380
C00180
C001C0
ENDCHAR
STARTCHAR 00C5
ENCODING 197
SWIDTH 621 0
DWIDTH 19 0
BBX 18 31 1 0
BITMAP
008000
03E000
033000
063000
063000
03E000
01C000
000000
000000
01C000
01E000
03E000
036000
037000
073000
063000
063800
0E1800
0C1800
0C1C00
1C0C00
180C00
180E00
380600
3FFF00
7FFF00
700300
600380
E00380
C00180
C001C0
ENDCHAR
STARTCHAR 00C6
ENCODING 198
SWIDTH 916 0
DWIDTH 28 0
BBX 26 22 1 0
BITMAP
01FFFFC0
01FFFFC0
038C0000
030C0000
030C0000
070C0000
060C0000
060C0000
0E0C0000
0C0C0000
0C0FFF00
1C0FFF00
180C0000
180C0000
380C0000
3FFC0000
7FFC0000
700C0000
600C0000
E00C0000
C00FFFC0
C00FFFC0
ENDCHAR
STARTCHAR 00C7
ENCODING 199
SWIDTH 720 0
DWIDTH 22 0
BBX 19 29 1 -7
BITMAP
01F800
0FFF00
1F0F80
3801C0
7000E0
7000E0
600060
E00040
C00000
C00000
C00000
C00000
C00000
C00000
E00000
600060
7000E0
7000E0
3801C0
1F0F80
0FFF00
01F800
002000
006000
007000
001800
001800
00F000
006000
ENDCHAR
STARTCHAR 00C8
ENCODING 200
SWIDTH 556 0
DWIDTH 17 0
BBX 14 29 2 0
BITMAP
0600
0600
0300
0300
0300
0000
0000
FFFC
FFFC
C000
C000
C000
C000
C000
C000
C000
C000
FFF0
FFF0
C000
C000
C000
C000
C000
C000
C000
C000
FFFC
FFFC
ENDCHAR
STARTCHAR 00C9
ENCODING 201
SWIDTH 556 0
DWIDTH 17 0
BBX 14 29 2 0
BITMAP
00C0
0080
0180
0180
0000
0000
0000
FFFC
FFFC
C000
C000
C000
C000
C000
C000
C000
C000
FFF0
FFF0
C000
C000
C000
C000
C000
C000
C000
C000
FFFC
FFFC
ENDCHAR
STARTCHAR 00CA
ENCODING 202
SWIDTH 556 0
DWIDTH 17 0
BBX 14 29 2 0
BITMAP
0700
0780
0CC0
1860
0000
0000
0000
FFFC
FFFC
C000
C000
C000
C000
C000
C000
C000
C000
FFF0
FFF0
C000
C000
C000
C000
C000
C000
C000
C000
FFFC
FFFC
ENDCHAR
STARTCHAR 00CB
ENCODING 203
SWIDTH 556 0
DWIDTH 17 0
BBX 14 27 2 0
BITMAP
18E0
18E0
0000
0000
0000
FFFC
FFFC
C000
C000
C000
C000
C000
C000
C000
C000
FFF0
FFF0
C000
C000
C000
C000
C000
C000
C000
C000
FFFC
FFFC
ENDCHAR
STARTCHAR 00CC
ENCODING 204
SWIDTH 229 0
DWIDTH 7 0
BBX 4 29 1 0
BITMAP
C0
C0
60
60
60
00
00
70
70
70
70
70
70
70
70
70
70
70
70
70
70
70
70
70
70
70
70
70
70
ENDCHAR
STARTCHAR 00CD
ENCODING 205
SWIDTH 229 0
DWIDTH 7 0
BBX 4 29 2 0
BITMAP
30
30
20
60
60
00
00
E0
E0
E0
E0
E0
E0
E0
E0
E0
E0
E0
E0
E0
E0
E0
E0
E0
E0
E0
E0
E0
E0
ENDCHAR
STARTCHAR 00CE
ENCODING 206
SWIDTH 229 0
DWIDTH 7 0
BBX 9 29 -1 0
BITMAP
1C00
3E00
7700
6380
8000
0000
0000
1C00
1C00
1C00
1C00
1C00
1C00
1C00
1C00
1C00
1C00
1C00
1C00
1C00
1C00
1C00
1C00
1C00
1C00
1C00
1C00
1C00
1C00
ENDCHAR
STARTCHAR 00CF
ENCODING 207
SWIDTH 229 0
DWIDTH 7 0
BBX 9 27 -1 0
BITMAP
E380
E380
0000
0000
0000
1C00
1C00
1C00
1C00
1C00
1C00
1C00
1C00
1C00
1C00
1C00
1C00
1C00
1C00
1C00
1C00
1C00
1C00
1C00
1C00
1C00
1C00
ENDCHAR
STARTCHAR 00D0
ENCODING 208
SWIDTH 654 0
DWIDTH 20 0
BBX 19 22 0 0
BITMAP
3FF800
3FFE00
300F00
300380
3001C0
3001C0
3000C0
3000E0
3000E0
300060
FFC060
FFC060
300060
3000E0
3000E0
3000C0
3001C0
3001C0
300380
300F00
3FFE00
3FF800
ENDCHAR
STARTCHAR 00D1
ENCODING 209
SWIDTH 687 0
DWIDTH 21 0
BBX 17 28 2 0
BITMAP
070800
0FF800
0C7800
000000
000000
000000
E00380
E00380
F00380
F80380
D80380
DC0380
CE0380
C60380
C70380
C38380
C18380
C1C380
C0E380
C06380
C07380
C03B80
C01B80
C01F80
C00F80
C00780
C00780
C00380
ENDCHAR
STARTCHAR 00D2
ENCODING 210
SWIDTH 720 0
DWIDTH 22 0
BBX 20 29 1 0
BITMAP
018000
00C000
00C000
004000
006000
000000
000000
01F800
0FFF00
1F0780
3801C0
7000E0
7000E0
600070
E00070
E00030
E00030
C00030
C00030
C00030
C00030
E00070
600060
7000E0
7000E0
3801C0
1E0780
0FFF00
03FC00
ENDCHAR
STARTCHAR 00D3
ENCODING 211
SWIDTH 720 0
DWIDTH 22 0
BBX 20 29 1 0
BITMAP
001800
001800
003000
003000
006000
000000
000000
01F800
0FFF00
1F0780
3801C0
7000E0
7000E0
600070
E00070
E00030
E00030
C00030
C00030
C00030
C00030
E00070
600060
7000E0
7000E0
3801C0
1E0780
0FFF00
03FC00
ENDCHAR
STARTCHAR 00D4
ENCODING 212
SWIDTH 720 0
DWIDTH 22 0
BBX 20 28 1 0
BITMAP
00F000
00F000
019800
030C00
000000
000000
01F800
0FFF00
1F0780
3801C0
7000E0
7000E0
600070
E00070
E00030
E00030
C00030
C00030
C00030
C00030
E00070
600060
7000E0
7000E0
3801C0
1E0780
0FFF00
03FC00
ENDCHAR
STARTCHAR 00D5
ENCODING 213
SWIDTH 720 0
DWIDTH 22 0
BBX 20 28 1 0
BITMAP
018600
03E600
027E00
021C00
000000
000000
01F800
0FFF00
1F0780
3801C0
7000E0
7000E0
600070
E00070
E00030
E00030
C00030
C00030
C00030
C00030
E00070
600060
7000E0
7000E0
3801C0
1E0780
0FFF00
03FC00
ENDCHAR
STARTCHAR 00D6
ENCODING 214
SWIDTH 720 0
DWIDTH 22 0
BBX 20 27 1 0
BITMAP
030C00
030C00
000000
000000
000000
01F800
0FFF00
1F0780
3801C0
7000E0
7000E0
600070
E00070
E00030
E00030
C00030
C00030
C00030
C00030
E00070
600060
7000E0
7000E0
3801C0
1E0780
0FFF00
03FC00
ENDCHAR
STARTCHAR 00D7
ENCODING 215
SWIDTH 490 0
DWIDTH 15 0
BBX 11 11 2 6
BITMAP
4040
E0E0
71C0
3B80
1F00
0E00
1F00
3B80
71C0
E0E0
C040
ENDCHAR
STARTCHAR 00D8
ENCODING 216
SWIDTH 720 0
DWIDTH 22 0
BBX 21 22 1 0
BITMAP
01F810
0FFF38
1F0FF0
3801E0
7001E0
7003E0
600770
E00E70
E01C30
C03830
C07030
C0E030
C1C030
C38030
E70070
660060
7C00E0
7800E0
3801C0
7F0780
EFFF00
43FC00
ENDCHAR
STARTCHAR 00D9
ENCODING 217
SWIDTH 687 0
DWIDTH 21 0
BBX 17 29 2 0
BITMAP
030000
018000
018000
00C000
00C000
000000
000000
C00180
C00180
C00180
C00180
C00180
C00180
C00180
C00180
C00180
C00180
C00180
C00180
C00180
C00180
C00180
E00180
600380
700300
780700
3C1E00
1FFC00
03F000
ENDCHAR
STARTCHAR 00DA
ENCODING 218
SWIDTH 687 0
DWIDTH 21 0
BBX 17 29 2 0
BITMAP
006000
006000
00C000
00C000
000000
000000
000000
C00180
C00180
C00180
C00180
C00180
C00180
C00180
C00180
C00180
C00180
C00180
C00180
C00180
C00180
C00180
E00180
600380
700300
780700
3C1E00
1FFC00
03F000
ENDCHAR
STARTCHAR 00DB
ENCODING 219
SWIDTH 687 0
DWIDTH 21 0
BBX 17 29 2 0
BITMAP
01C000
03E000
033000
063800
000000
000000
000000
C00180
C00180
C00180
C00180
C00180
C00180
C00180
C00180
C00180
C00180
C00180
C00180
C00180
C00180
C00180
E00180
600380
700300
780700
3C1E00
1FFC00
03F000
ENDCHAR
STARTCHAR 00DC
ENCODING 220
SWIDTH 687 0
DWIDTH 21 0
BBX 17 27 2 0
BITMAP
063800
063800
000000
000000
000000
C00180
C00180
C00180
C00180
C00180
C00180
C00180
C00180
C00180
C00180
C00180
C00180
C00180
C00180
C00180
E00180
600380
700300
780700
3C1E00
1FFC00
03F000
ENDCHAR
STARTCHAR 00DD
ENCODING 221
SWIDTH 556 0
DWIDTH 17 0
BBX 17 29 0 0
BITMAP
006000
00C000
00C000
00C000
000000
000000
000000
E00380
600300
700700
380E00
180C00
1C1C00
0C1800
0E3800
073000
077000
03E000
01C000
01C000
01C000
01C000
01C000
01C000
01C000
01C000
01C000
01C000
01C000
ENDCHAR
STARTCHAR 00DE
ENCODING 222
SWIDTH 589 0
DWIDTH 18 0
BBX 15 22 2 0
BITMAP
C000
C000
C000
C000
FFE0
FFF8
C03C
C01C
C00E
C006
C006
C006
C006
C00E
C01C
C03C
FFF8
FFE0
C000
C000
C000
C000
ENDCHAR
STARTCHAR 00DF
ENCODING 223
SWIDTH 589 0
DWIDTH 18 0
BBX 14 22 2 0
BITMAP
1F80
3FE0
78F0
6070
E030
E038
C030
C030
C070
C3E0
C3E0
C3F8
C01C
C00C
C00C
C00C
C00C
C00C
C01C
C478
C7F0
C7E0
ENDCHAR
STARTCHAR 00E0
ENCODING 224
SWIDTH 556 0
DWIDTH 17 0
BBX 14 24 1 0
BITMAP
0600
0600
0300
0300
0180
0000
0000
07E0
1FF0
3838
701C
600C
000C
00FC
1FFC
3F0C
700C
E00C
C01C
C01C
E03C
707C
3FEC
1F8C
ENDCHAR
STARTCHAR 00E1
ENCODING 225
SWIDTH 556 0
DWIDTH 17 0
BBX 14 24 1 0
BITMAP
00C0
00C0
0080
0180
0180
0000
0000
07E0
1FF0
3838
701C
600C
000C
00FC
1FFC
3F0C
700C
E00C
C01C
C01C
E03C
707C
3FEC
1F8C
ENDCHAR
STARTCHAR 00E2
ENCODING 226
SWIDTH 556 0
DWIDTH 17 0
BBX 14 23 1 0
BITMAP
0380
07C0
0E60
0C30
0000
0000
07E0
1FF0
3838
701C
600C
000C
00FC
1FFC
3F0C
700C
E00C
C01C
C01C
E03C
707C
3FEC
1F8C
ENDCHAR
STARTCHAR 00E3
ENCODING 227
SWIDTH 556 0
DWIDTH 17 0
BBX 14 23 1 0
BITMAP
0E10
1F98
19F0
1860
0000
0000
07E0
1FF0
3838
701C
600C
000C
00FC
1FFC
3F0C
700C
E00C
C01C
C01C
E03C
707C
3FEC
1F8C
ENDCHAR
STARTCHAR 00E4
ENCODING 228
SWIDTH 556 0
DWIDTH 17 0
BBX 14 22 1 0
BITMAP
0C30
0C30
0000
0000
0000
07E0
1FF0
3838
701C
600C
000C
00FC
1FFC
3F0C
700C
E00C
C01C
C01C
E03C
707C
3FEC
1F8C
ENDCHAR
STARTCHAR 00E5
ENCODING 229
SWIDTH 556 0
DWIDTH 17 0
BBX 14 25 1 0
BITMAP
0380
07E0
0C60
0C60
0660
07C0
0180
0000
07E0
1FF0
3838
701C
600C
000C
00FC
1FFC
3F0C
700C
E00C
C01C
C01C
E03C
707C
3FEC
1F8C
ENDCHAR
STARTCHAR 00E6
ENCODING 230
SWIDTH 949 0
DWIDTH 29 0
BBX 27 17 1 0
BITMAP
07E07C00
1FF1FF00
383B8380
701F0180
600E00C0
000E00C0
000C00C0
07FFFFC0
3FFFFFE0
780C0000
600C0000
E00E0000
C01E00C0
E03F01C0
70738780
3FE1FF00
1F807C00
ENDCHAR
STARTCHAR 00E7
ENCODING 231
SWIDTH 556 0
DWIDTH 17 0
BBX 15 24 1 -7
BITMAP
07E0
1FF8
3C3C
700C
700E
6000
E000
E000
E000
E000
E000
6000
700C
700C
3C3C
1FF8
07E0
0180
0100
03C0
00C0
00C0
03C0
0780
ENDCHAR
STARTCHAR 00E8
ENCODING 232
SWIDTH 589 0
DWIDTH 18 0
BBX 16 24 1 0
BITMAP
0300
0300
0300
0180
0180
0000
0000
07E0
1FF8
3C3C
700C
600E
6006
E006
FFFF
FFFF
E000
E000
6000
7006
700E
3C3C
1FF8
07E0
ENDCHAR
STARTCHAR 00E9
ENCODING 233
SWIDTH 589 0
DWIDTH 18 0
BBX 16 24 1 0
BITMAP
0060
0060
00C0
00C0
0080
0000
0000
07E0
1FF8
3C3C
700C
600E
6006
E006
FFFF
FFFF
E000
E000
6000
7006
700E
3C3C
1FF8
07E0
ENDCHAR
STARTCHAR 00EA
ENCODING 234
SWIDTH 589 0
DWIDTH 18 0
BBX 16 23 1 0
BITMAP
03C0
03C0
0660
0C30
0000
0000
07E0
1FF8
3C3C
700C
600E
6006
E006
FFFF
FFFF
E000
E000
6000
7006
700E
3C3C
1FF8
07E0
ENDCHAR
STARTCHAR 00EB
ENCODING 235
SWIDTH 589 0
DWIDTH 18 0
BBX 16 22 1 0
BITMAP
0C30
0C30
0000
0000
0000
07E0
1FF8
3C3C
700C
600E
6006
E006
FFFF
FFFF
E000
E000
6000
7006
700E
3C3C
1FF8
07E0
ENDCHAR
STARTCHAR 00EC
ENCODING 236
SWIDTH 229 0
DWIDTH 7 0
BBX 4 24 1 0
BITMAP
C0
C0
60
60
60
00
00
70
70
70
70
70
70
70
70
70
70
70
70
70
70
70
70
70
ENDCHAR
STARTCHAR 00ED
ENCODING 237
SWIDTH 229 0
DWIDTH 7 0
BBX 4 24 2 0
BITMAP
30
30
60
60
00
00
00
E0
E0
E0
E0
E0
E0
E0
E0
E0
E0
E0
E0
E0
E0
E0
E0
E0
ENDCHAR
STARTCHAR 00EE
ENCODING 238
SWIDTH 229 0
DWIDTH 7 0
BBX 8 24 0 0
BITMAP
38
7C
EE
C7
00
00
00
38
38
38
38
38
38
38
38
38
38
38
38
38
38
38
38
38
ENDCHAR
STARTCHAR 00EF
ENCODING 239
SWIDTH 229 0
DWIDTH 7 0
BBX 9 22 -1 0
BITMAP
E380
E380
0000
0000
0000
1C00
1C00
1C00
1C00
1C00
1C00
1C00
1C00
1C00
1C00
1C00
1C00
1C00
1C00
1C00
1C00
1C00
ENDCHAR
STARTCHAR 00F0
ENCODING 240
SWIDTH 589 0
DWIDTH 18 0
BBX 16 24 1 0
BITMAP
0010
03B8
03F0
00F0
00F8
019C
000C
0006
07E6
1FFE
383E
700E
600E
E007
E007
E007
E007
E006
6006
600E
700C
3C3C
1FF8
07E0
ENDCHAR
STARTCHAR 00F1
ENCODING 241
SWIDTH 589 0
DWIDTH 18 0
BBX 14 23 2 0
BITMAP
0C30
1F30
33E0
10E0
0000
0000
C7C0
DFF0
F878
F018
E01C
E00C
C00C
C00C
C00C
C00C
C00C
C00C
C00C
C00C
C00C
C00C
C00C
ENDCHAR
STARTCHAR 00F2
ENCODING 242
SWIDTH 589 0
DWIDTH 18 0
BBX 16 24 1 0
BITMAP
0600
0300
0300
0300
0180
0000
0000
07E0
1FF8
3C3C
700E
700E
6006
E007
E007
E007
E007
E007
6006
700E
700E
3C3C
1FF8
07E0
ENDCHAR
STARTCHAR 00F3
ENCODING 243
SWIDTH 589 0
DWIDTH 18 0
BBX 16 24 1 0
BITMAP
0060
00C0
00C0
00C0
0180
0000
0000
07E0
1FF8
3C3C
700E
700E
6006
E007
E007
E007
E007
E007
6006
700E
700E
3C3C
1FF8
07E0
ENDCHAR
STARTCHAR 00F4
ENCODING 244
SWIDTH 589 0
DWIDTH 18 0
BBX 16 23 1 0
BITMAP
03C0
03C0
0660
0C30
0000
0000
07E0
1FF8
3C3C
700E
700E
6006
E007
E007
E007
E007
E007
6006
700E
700E
3C3C
1FF8
07E0
ENDCHAR
STARTCHAR 00F5
ENCODING 245
SWIDTH 589 0
DWIDTH 18 0
BBX 16 23 1 0
BITMAP
0E18
0F98
19F0
1870
0000
0000
07E0
1FF8
3C3C
700E
700E
6006
E007
E007
E007
E007
E007
6006
700E
700E
3C3C
1FF8
07E0
ENDCHAR
STARTCHAR 00F6
ENCODING 246
SWIDTH 589 0
DWIDTH 18 0
BBX 16 22 1 0
BITMAP
0C30
0C30
0000
0000
0000
07E0
1FF8
3C3C
700E
700E
6006
E007
E007
E007
E007
E007
6006
700E
700E
3C3C
1FF8
07E0
ENDCHAR
STARTCHAR 00F7
ENCODING 247
SWIDTH 556 0
DWIDTH 17 0
BBX 13 12 2 5
BITMAP
0700
0700
0700
0000
0000
FFF8
FFF8
0000
0000
0700
0700
0700
ENDCHAR
STARTCHAR 00F8
ENCODING 248
SWIDTH 589 0
DWIDTH 18 0
BBX 16 17 1 0
BITMAP
07E2
1FFF
3C3E
700E
701E
6037
E067
E0C7
E187
E307
E607
6C06
780E
700E
7C3C
FFF8
47E0
ENDCHAR
STARTCHAR 00F9
ENCODING 249
SWIDTH 589 0
DWIDTH 18 0
BBX 14 24 2 0
BITMAP
0600
0600
0600
0300
0300
0000
0000
C00C
C00C
C00C
C00C
C00C
C00C
C00C
C00C
C00C
C00C
C00C
E01C
E01C
603C
787C
3FEC
0F8C
ENDCHAR
STARTCHAR 00FA
ENCODING 250
SWIDTH 589 0
DWIDTH 18 0
BBX 14 24 2 0
BITMAP
0180
0180
0180
0300
0000
0000
0000
C00C
C00C
C00C
C00C
C00C
C00C
C00C
C00C
C00C
C00C
C00C
E01C
E01C
603C
787C
3FEC
0F8C
ENDCHAR
STARTCHAR 00FB
ENCODING 251
SWIDTH 589 0
DWIDTH 18 0
BBX 14 24 2 0
BITMAP
0700
0780
0CC0
1860
0000
0000
0000
C00C
C00C
C00C
C00C
C00C
C00C
C00C
C00C
C00C
C00C
C00C
E01C
E01C
603C
787C
3FEC
0F8C
ENDCHAR
STARTCHAR 00FC
ENCODING 252
SWIDTH 589 0
DWIDTH 18 0
BBX 14 22 2 0
BITMAP
1860
1860
0000
0000
0000
C00C
C00C
C00C
C00C
C00C
C00C
C00C
C00C
C00C
C00C
C00C
E01C
E01C
603C
787C
3FEC
0F8C
ENDCHAR
STARTCHAR 00FD
ENCODING 253
SWIDTH 523 0
DWIDTH 16 0
BBX 14 31 1 -7
BITMAP
00C0
0180
0180
0300
0000
0000
0000
C00C
C00C
601C
6018
7018
3038
3030
1830
1860
1C60
0CE0
0CC0
06C0
07C0
0780
0380
0300
0300
0700
0600
0600
0E00
0C00
0C00
ENDCHAR
STARTCHAR 00FE
ENCODING 254
SWIDTH 589 0
DWIDTH 18 0
BBX 15 29 2 -7
BITMAP
C000
C000
C000
C000
C000
C7C0
DFF0
F878
F01C
E00C
E00C
C00E
C00E
C00E
C00E
C00E
E00C
E00C
F01C
F878
DFF0
C7C0
C000
C000
C000
C000
C000
C000
C000
ENDCHAR
STARTCHAR 00FF
ENCODING 255
SWIDTH 523 0
DWIDTH 16 0
BBX 14 29 1 -7
BITMAP
1C60
1C60
0000
0000
0000
C00C
C00C
601C
6018
7018
3038
3030
1830
1860
1C60
0CE0
0CC0
06C0
07C0
0780
0380
0300
0300
0700
0600
0600
0E00
0C00
0C00
ENDCHAR
ENDFONT
