STARTFONT 2.1
COMMENT
COMMENT Converted from OpenType font "manrope-regular.otf" by "otf2bdf 3.0".
COMMENT
FONT -FreeType-Manrope-Medium-R-Normal--35-250-100-100-P-158-ISO10646-1
SIZE 25 100 100
FONTBOUNDINGBOX 33 43 -1 -8
STARTPROPERTIES 19
FOUNDRY "FreeType"
FAMILY_NAME "Manrope"
WEIGHT_NAME "Medium"
SLANT "R"
SETWIDTH_NAME "Normal"
ADD_STYLE_NAME ""
PIXEL_SIZE 35
POINT_SIZE 250
RESOLUTION_X 100
RESOLUTION_Y 100
SPACING "P"
AVERAGE_WIDTH 158
CHARSET_REGISTRY "ISO10646"
CHARSET_ENCODING "1"
FONT_ASCENT 37
FONT_DESCENT 10
COPYRIGHT "Copyright 2019-2021 The Manrope Project Authors (https://github.com/sharanda/manrope)"
_OTF_FONTFILE "manrope-regular.otf"
_OTF_PSNAME "Manrope-Regular"
ENDPROPERTIES
CHARS 191
STARTCHAR 0020
ENCODING 32
SWIDTH 201 0
DWIDTH 7 0
BBX 0 0 0 0
BITMAP
ENDCHAR
STARTCHAR 0021
ENCODING 33
SWIDTH 316 0
DWIDTH 11 0
BBX 3 25 4 0
BITMAP
E0
E0
E0
E0
E0
E0
E0
E0
E0
E0
E0
E0
E0
E0
E0
E0
E0
E0
E0
00
00
00
E0
E0
E0
ENDCHAR
STARTCHAR 0022
ENCODING 34
SWIDTH 403 0
DWIDTH 14 0
BBX 8 6 2 19
BITMAP
E3
E3
E3
E3
E3
E3
ENDCHAR
STARTCHAR 0023
ENCODING 35
SWIDTH 921 0
DWIDTH 32 0
BBX 28 25 2 0
BITMAP
000C0E00
001C0C00
001C1C00
00181C00
00181800
00381800
00383800
1FFFFFF0
3FFFFFE0
00703000
00707000
00607000
00E06000
00E06000
00C0E000
7FFFFFC0
FFFFFF80
01C1C000
0181C000
01818000
03818000
03838000
03038000
03030000
07030000
ENDCHAR
STARTCHAR 0024
ENCODING 36
SWIDTH 576 0
DWIDTH 20 0
BBX 18 31 1 -3
BITMAP
00E000
00E000
00E000
03F800
0FFE00
1F3F00
380780
700380
7001C0
7001C0
700000
700000
3C0000
1F0000
0FF000
01FE00
003F00
000780
0001C0
0001C0
0000C0
E000C0
6001C0
7001C0
380380
3FBF80
0FFE00
03F800
00E000
00E000
00E000
ENDCHAR
STARTCHAR 0025
ENCODING 37
SWIDTH 892 0
DWIDTH 31 0
BBX 27 25 2 0
BITMAP
0F800080
3FC001C0
79E00380
60700700
E0300E00
C0381C00
C0383800
E0307000
7070E000
79E1C000
3FC38000
0F870000
000E0000
001C1E00
00387F80
0070F3C0
00E1C0E0
01C18060
03818060
07018060
0E018060
1C01C0E0
3800F3C0
70007F80
20003F00
ENDCHAR
STARTCHAR 0026
ENCODING 38
SWIDTH 662 0
DWIDTH 23 0
BBX 20 25 2 0
BITMAP
07F000
0FF800
1F7C00
380E00
700400
700000
700000
700000
700000
380000
1C0000
0E0000
3F0000
7B8180
F1C180
E0F180
C07980
C01D80
C00F80
E00780
E00380
7007C0
3F7EE0
1FFC70
07F020
ENDCHAR
STARTCHAR 0027
ENCODING 39
SWIDTH 201 0
DWIDTH 7 0
BBX 3 6 2 19
BITMAP
E0
E0
E0
E0
E0
E0
ENDCHAR
STARTCHAR 0028
ENCODING 40
SWIDTH 432 0
DWIDTH 15 0
BBX 8 35 5 -6
BITMAP
02
07
0E
0E
1C
18
38
30
70
70
60
60
E0
E0
C0
C0
C0
C0
C0
C0
C0
C0
E0
E0
60
60
70
30
38
18
1C
0C
0E
07
03
ENDCHAR
STARTCHAR 0029
ENCODING 41
SWIDTH 432 0
DWIDTH 15 0
BBX 8 35 2 -6
BITMAP
40
E0
E0
70
30
38
18
1C
0C
0E
0E
06
06
07
07
07
03
03
03
07
07
07
06
06
06
0E
0C
1C
1C
18
38
70
70
E0
C0
ENDCHAR
STARTCHAR 002A
ENCODING 42
SWIDTH 432 0
DWIDTH 15 0
BBX 12 11 1 14
BITMAP
0600
0600
0600
4630
FFF0
7FE0
0F00
0F80
1D80
39C0
30C0
ENDCHAR
STARTCHAR 002B
ENCODING 43
SWIDTH 576 0
DWIDTH 20 0
BBX 16 16 2 5
BITMAP
0180
0180
0180
0180
0180
0180
0180
FFFF
FFFF
0180
0180
0180
0180
0180
0180
0180
ENDCHAR
STARTCHAR 002C
ENCODING 44
SWIDTH 259 0
DWIDTH 9 0
BBX 3 8 2 -4
BITMAP
E0
E0
E0
E0
20
20
60
C0
ENDCHAR
STARTCHAR 002D
ENCODING 45
SWIDTH 432 0
DWIDTH 15 0
BBX 11 2 2 10
BITMAP
FFE0
FFE0
ENDCHAR
STARTCHAR 002E
ENCODING 46
SWIDTH 259 0
DWIDTH 9 0
BBX 3 3 3 0
BITMAP
E0
E0
E0
ENDCHAR
STARTCHAR 002F
ENCODING 47
SWIDTH 374 0
DWIDTH 13 0
BBX 9 25 2 0
BITMAP
0180
0380
0380
0300
0300
0700
0700
0600
0E00
0E00
0E00
0C00
1C00
1C00
1C00
1800
3800
3800
3000
3000
7000
7000
6000
E000
E000
ENDCHAR
STARTCHAR 0030
ENCODING 48
SWIDTH 604 0
DWIDTH 21 0
BBX 17 25 2 0
BITMAP
03E000
0FF800
1F7E00
380E00
700700
700300
600380
E00380
E00380
E00380
E00380
E00380
E00380
E00380
E00380
E00380
E00380
E00380
600380
700300
700700
380E00
1F7E00
0FF800
03E000
ENDCHAR
STARTCHAR 0031
ENCODING 49
SWIDTH 403 0
DWIDTH 14 0
BBX 7 25 2 0
BITMAP
0E
3E
7E
F6
C6
06
06
06
06
06
06
06
06
06
06
06
06
06
06
06
06
06
06
06
06
ENDCHAR
STARTCHAR 0032
ENCODING 50
SWIDTH 576 0
DWIDTH 20 0
BBX 16 25 2 0
BITMAP
07E0
1FF8
3FFC
781E
700E
E007
E007
C007
0007
0007
0007
000E
001E
003C
0078
00F0
01E0
0380
0F00
1E00
3C00
7800
F000
FFFF
FFFF
ENDCHAR
STARTCHAR 0033
ENCODING 51
SWIDTH 547 0
DWIDTH 19 0
BBX 16 25 1 0
BITMAP
7FFF
7FFF
0007
001E
003C
0070
00E0
01C0
0380
0FE0
0FF8
067C
000E
000E
0007
0007
0007
0007
0007
E007
700E
781E
3EFC
1FF8
07E0
ENDCHAR
STARTCHAR 0034
ENCODING 52
SWIDTH 576 0
DWIDTH 20 0
BBX 17 25 2 0
BITMAP
00E000
01C000
01C000
038000
038000
070000
070000
060000
0E0000
0C0000
1C1C00
181C00
381C00
381C00
701C00
701C00
E01C00
E01C00
FFFF80
FFFF80
001C00
001C00
001C00
001C00
001C00
ENDCHAR
STARTCHAR 0035
ENCODING 53
SWIDTH 576 0
DWIDTH 20 0
BBX 16 25 2 0
BITMAP
7FFE
7FFE
7000
6000
6000
6000
6000
6000
6000
6FF0
7FF8
783C
F00E
2007
0007
0003
0003
0003
4007
E007
E00E
781E
3FFC
1FF8
07E0
ENDCHAR
STARTCHAR 0036
ENCODING 54
SWIDTH 633 0
DWIDTH 22 0
BBX 17 25 2 0
BITMAP
03F000
0FFC00
1FBE00
3C0F00
700200
700000
600000
E00000
E00000
E3F000
EFFC00
FF7E00
F80F00
F00780
F00380
E00180
E00180
E00180
600180
700380
700700
380F00
1FFE00
0FFC00
03F000
ENDCHAR
STARTCHAR 0037
ENCODING 55
SWIDTH 489 0
DWIDTH 17 0
BBX 15 25 1 0
BITMAP
FFFE
FFFE
000E
000C
001C
0018
0038
0038
0030
0070
0060
00E0
00E0
01C0
01C0
0180
0380
0380
0700
0700
0600
0E00
0E00
1C00
1C00
ENDCHAR
STARTCHAR 0038
ENCODING 56
SWIDTH 576 0
DWIDTH 20 0
BBX 16 25 2 0
BITMAP
07E0
1FF8
3FFC
781E
700E
6006
6006
6006
700E
781E
3FFC
1FF8
3FFC
781E
700E
E007
E007
E007
E007
E007
7007
700E
3FFC
1FF8
07E0
ENDCHAR
STARTCHAR 0039
ENCODING 57
SWIDTH 633 0
DWIDTH 22 0
BBX 17 25 2 0
BITMAP
03F000
0FFC00
1FFE00
380F00
700700
600380
E00380
E00380
E00380
E00380
600380
700780
380F80
3F7D80
0FF980
03E180
000180
000380
000380
000380
100700
780F00
3F7E00
0FFC00
03E000
ENDCHAR
STARTCHAR 003A
ENCODING 58
SWIDTH 288 0
DWIDTH 10 0
BBX 3 13 4 3
BITMAP
E0
E0
E0
00
00
00
00
00
00
00
E0
E0
E0
ENDCHAR
STARTCHAR 003B
ENCODING 59
SWIDTH 316 0
DWIDTH 11 0
BBX 3 23 4 -4
BITMAP
E0
E0
E0
00
00
00
00
00
00
00
00
00
00
00
00
E0
E0
E0
E0
60
60
40
C0
ENDCHAR
STARTCHAR 003C
ENCODING 60
SWIDTH 604 0
DWIDTH 21 0
BBX 10 16 5 3
BITMAP
0180
03C0
0780
0F00
1E00
3C00
7800
F000
E000
7000
3800
1C00
0E00
0700
0380
0180
ENDCHAR
STARTCHAR 003D
ENCODING 61
SWIDTH 748 0
DWIDTH 26 0
BBX 18 7 4 9
BITMAP
FFFFC0
FFFFC0
000000
000000
000000
FFFFC0
FFFFC0
ENDCHAR
STARTCHAR 003E
ENCODING 62
SWIDTH 604 0
DWIDTH 21 0
BBX 9 16 7 3
BITMAP
4000
E000
7000
3800
1C00
0E00
0700
0380
0380
0700
0E00
1C00
3800
7000
E000
C000
ENDCHAR
STARTCHAR 003F
ENCODING 63
SWIDTH 518 0
DWIDTH 18 0
BBX 14 25 2 0
BITMAP
0FC0
3FF0
7FF8
F03C
E01C
C00C
C00C
000C
001C
001C
0038
00F0
01E0
03C0
0380
0300
0700
0700
0000
0000
0000
0000
0700
0700
0700
ENDCHAR
STARTCHAR 0040
ENCODING 64
SWIDTH 892 0
DWIDTH 31 0
BBX 26 26 3 -4
BITMAP
00FF8000
03FFF000
0F80F800
1E001C00
3C000E00
38000700
70000300
60000380
E03EC180
E0FFC180
C0E3C1C0
C1C1C1C0
C181C1C0
C181C180
C1C1C180
C0E3C380
E0FFFF00
603E7F00
70001800
70000000
38000000
1C000000
0F002000
07C1E000
01FFE000
007F8000
ENDCHAR
STARTCHAR 0041
ENCODING 65
SWIDTH 633 0
DWIDTH 22 0
BBX 20 25 1 0
BITMAP
00F000
00F000
01F800
01F800
019800
039C00
039C00
030C00
070E00
070E00
060600
0E0700
0E0700
0C0300
1C0380
1C0380
180180
3FFFC0
3FFFC0
3000C0
7000E0
7000E0
600060
E00070
E00070
ENDCHAR
STARTCHAR 0042
ENCODING 66
SWIDTH 604 0
DWIDTH 21 0
BBX 18 25 2 0
BITMAP
FFF800
FFFE00
E01F00
E00700
E00380
E00380
E00380
E00380
E00380
E00700
E01F00
FFFC00
FFFF00
E00780
E00380
E001C0
E001C0
E000C0
E000C0
E001C0
E001C0
E00380
E01F80
FFFF00
FFFC00
ENDCHAR
STARTCHAR 0043
ENCODING 67
SWIDTH 720 0
DWIDTH 25 0
BBX 22 25 1 0
BITMAP
00FE00
07FFC0
0FEFE0
1E00F0
3C0078
380038
70001C
70001C
E00000
E00000
E00000
E00000
E00000
E00000
E00000
E00000
E00000
70001C
70001C
380038
3C0078
1E00F0
0FEFE0
07FFC0
00FE00
ENDCHAR
STARTCHAR 0044
ENCODING 68
SWIDTH 662 0
DWIDTH 23 0
BBX 20 25 2 0
BITMAP
FFF800
FFFE00
E07F00
E00780
E001C0
E001C0
E000E0
E000E0
E00060
E00070
E00070
E00070
E00070
E00070
E00070
E00070
E00060
E000E0
E000E0
E001C0
E001C0
E00780
E07F00
FFFE00
FFF800
ENDCHAR
STARTCHAR 0045
ENCODING 69
SWIDTH 576 0
DWIDTH 20 0
BBX 16 25 2 0
BITMAP
FFFF
FFFF
E000
E000
E000
E000
E000
E000
E000
E000
E000
FFFC
FFFC
E000
E000
E000
E000
E000
E000
E000
E000
E000
E000
FFFF
FFFF
ENDCHAR
STARTCHAR 0046
ENCODING 70
SWIDTH 489 0
DWIDTH 17 0
BBX 15 25 2 0
BITMAP
FFFE
FFFE
FFFE
E000
E000
E000
E000
E000
E000
E000
E000
FFF8
FFF8
FFF8
E000
E000
E000
E000
E000
E000
E000
E000
E000
E000
E000
ENDCHAR
STARTCHAR 0047
ENCODING 71
SWIDTH 691 0
DWIDTH 24 0
BBX 22 25 1 0
BITMAP
00FE00
07FF80
0FEFE0
1E00F0
3C0070
380038
700018
700000
E00000
E00000
E00000
E00000
E003FC
E003FC
E0000C
E0000C
60001C
70001C
70001C
380038
3C0078
1E00F0
0FE7E0
07FFC0
00FE00
ENDCHAR
STARTCHAR 0048
ENCODING 72
SWIDTH 691 0
DWIDTH 24 0
BBX 19 25 2 0
BITMAP
E00060
E00060
E00060
E00060
E00060
E00060
E00060
E00060
E00060
E00060
E00060
FFFFE0
FFFFE0
E00060
E00060
E00060
E00060
E00060
E00060
E00060
E00060
E00060
E00060
E00060
E00060
ENDCHAR
STARTCHAR 0049
ENCODING 73
SWIDTH 230 0
DWIDTH 8 0
BBX 2 25 3 0
BITMAP
C0
C0
C0
C0
C0
C0
C0
C0
C0
C0
C0
C0
C0
C0
C0
C0
C0
C0
C0
C0
C0
C0
C0
C0
C0
ENDCHAR
STARTCHAR 004A
ENCODING 74
SWIDTH 460 0
DWIDTH 16 0
BBX 13 25 0 0
BITMAP
0018
0018
0018
0018
0018
0018
0018
0018
0018
0018
0018
0018
0018
0018
0018
0018
0018
0018
0018
2018
E038
7078
7DF0
3FE0
0FC0
ENDCHAR
STARTCHAR 004B
ENCODING 75
SWIDTH 604 0
DWIDTH 21 0
BBX 18 25 2 0
BITMAP
E00380
E00700
E00E00
E01C00
E03800
E07000
E0E000
E1C000
E38000
E78000
EF0000
FE0000
FC0000
EE0000
E70000
E38000
E1C000
E0E000
E07000
E03800
E01C00
E00E00
E00700
E00380
E001C0
ENDCHAR
STARTCHAR 004C
ENCODING 76
SWIDTH 518 0
DWIDTH 18 0
BBX 14 25 3 0
BITMAP
C000
C000
C000
C000
C000
C000
C000
C000
C000
C000
C000
C000
C000
C000
C000
C000
C000
C000
C000
C000
C000
C000
C000
FFFC
FFFC
ENDCHAR
STARTCHAR 004D
ENCODING 77
SWIDTH 835 0
DWIDTH 29 0
BBX 25 25 2 0
BITMAP
E0000380
E0000380
F0000780
F0000780
F8000F80
F8000F80
FC001F80
EC001B80
EE003B80
E6003B80
E7007380
E3007380
E3806380
E380E380
E1C0C380
E1C1C380
E0C18380
E0E38380
E0630380
E0770380
E0360380
E03E0380
E01E0380
E01C0380
E00C0380
ENDCHAR
STARTCHAR 004E
ENCODING 78
SWIDTH 691 0
DWIDTH 24 0
BBX 19 25 2 0
BITMAP
E00060
F00060
F80060
F80060
FC0060
EE0060
EE0060
E70060
E38060
E38060
E1C060
E0E060
E0E060
E07060
E03860
E03860
E01C60
E00E60
E00E60
E00760
E003E0
E003E0
E001E0
E000E0
E000E0
ENDCHAR
STARTCHAR 004F
ENCODING 79
SWIDTH 720 0
DWIDTH 25 0
BBX 23 25 1 0
BITMAP
00FE00
07FFC0
0FEFE0
1E00F0
3C0078
38003C
70001C
70001C
E0000E
E0000E
E0000E
E0000E
E0000E
E0000E
E0000E
E0000E
E0000E
70001C
70001C
380038
3C0078
1E00F0
0FE7E0
07FFC0
00FE00
ENDCHAR
STARTCHAR 0050
ENCODING 80
SWIDTH 604 0
DWIDTH 21 0
BBX 18 25 2 0
BITMAP
FFF800
FFFE00
E01F00
E00780
E00380
E001C0
E001C0
E001C0
E001C0
E001C0
E00180
E00380
E00780
FFFF00
FFFC00
E00000
E00000
E00000
E00000
E00000
E00000
E00000
E00000
E00000
E00000
ENDCHAR
STARTCHAR 0051
ENCODING 81
SWIDTH 720 0
DWIDTH 25 0
BBX 23 25 1 0
BITMAP
00FE00
07FFC0
0FEFE0
1E00F0
3C0078
38003C
70001C
70001C
E0000E
E0000E
E0000E
E0000E
E0000E
E0000E
E0000E
E0000E
E0000E
70019C
7003DC
3801F8
3C00F8
1E00F8
0FEFFC
07FFCE
00FE04
ENDCHAR
STARTCHAR 0052
ENCODING 82
SWIDTH 633 0
DWIDTH 22 0
BBX 18 25 2 0
BITMAP
FFF800
FFFE00
E01F00
E00780
E00380
E001C0
E001C0
E001C0
E001C0
E001C0
E00180
E00380
E00780
FFFF00
FFFC00
E01C00
E01C00
E00E00
E00E00
E00700
E00700
E00380
E00380
E001C0
E001C0
ENDCHAR
STARTCHAR 0053
ENCODING 83
SWIDTH 604 0
DWIDTH 21 0
BBX 19 25 1 0
BITMAP
03F800
0FFE00
1FBF80
3C0380
7801C0
7000E0
7000E0
700080
780000
3C0000
1F8000
0FF800
01FF00
001F80
0003C0
0000E0
0000E0
000060
E00060
7000E0
7000E0
3C03C0
1FDF80
0FFF00
03FC00
ENDCHAR
STARTCHAR 0054
ENCODING 84
SWIDTH 604 0
DWIDTH 21 0
BBX 20 25 0 0
BITMAP
FFFFF0
FFFFF0
007000
007000
007000
007000
007000
007000
007000
007000
007000
007000
007000
007000
007000
007000
007000
007000
007000
007000
007000
007000
007000
007000
007000
ENDCHAR
STARTCHAR 0055
ENCODING 85
SWIDTH 691 0
DWIDTH 24 0
BBX 20 25 2 0
BITMAP
E00070
E00070
E00070
E00070
E00070
E00070
E00070
E00070
E00070
E00070
E00070
E00070
E00070
E00070
E00070
E00070
E00070
600070
700070
7000E0
3801E0
3C03C0
1FDF80
0FFF00
01FC00
ENDCHAR
STARTCHAR 0056
ENCODING 86
SWIDTH 604 0
DWIDTH 21 0
BBX 21 25 0 0
BITMAP
E00038
600030
700070
700070
300060
3800E0
3800E0
1800C0
1C01C0
1C01C0
0C0380
0E0380
0E0300
070700
070700
070600
038E00
038E00
018C00
01DC00
01DC00
00D800
00F800
00F800
007000
ENDCHAR
STARTCHAR 0057
ENCODING 87
SWIDTH 921 0
DWIDTH 32 0
BBX 31 25 1 0
BITMAP
C003800E
E007800C
E007800C
6007C01C
7007C01C
700EC018
700EC038
300CE038
381CE030
381C6030
181C7070
18187070
1C383060
1C3830E0
0C3038E0
0E3038C0
0E7018C0
06701DC0
06601DC0
07E00D80
07E00F80
03C00F80
03C00F00
03C00700
01C00700
ENDCHAR
STARTCHAR 0058
ENCODING 88
SWIDTH 604 0
DWIDTH 21 0
BBX 19 25 1 0
BITMAP
E000E0
7001C0
7001C0
380380
1C0700
1C0700
0E0E00
071C00
071C00
03B800
01F000
01F000
00E000
01F000
01F800
03B800
071C00
0F0E00
0E0E00
1C0700
380380
380380
7001C0
E000E0
E000E0
ENDCHAR
STARTCHAR 0059
ENCODING 89
SWIDTH 547 0
DWIDTH 19 0
BBX 19 25 0 0
BITMAP
E000E0
7001C0
7001C0
380380
1C0380
1C0700
0E0700
0E0E00
071C00
071C00
03B800
01F800
01F000
00F000
00E000
00E000
00E000
00E000
00E000
00E000
00E000
00E000
00E000
00E000
00E000
ENDCHAR
STARTCHAR 005A
ENCODING 90
SWIDTH 604 0
DWIDTH 21 0
BBX 18 25 2 0
BITMAP
FFFFC0
FFFF80
000700
000700
000E00
001E00
001C00
003800
003800
007000
00E000
00E000
01C000
01C000
038000
070000
070000
0E0000
1E0000
1C0000
380000
380000
700000
FFFF80
FFFF80
ENDCHAR
STARTCHAR 005B
ENCODING 91
SWIDTH 403 0
DWIDTH 14 0
BBX 6 38 5 -7
BITMAP
FC
FC
C0
C0
C0
C0
C0
C0
C0
C0
C0
C0
C0
C0
C0
C0
C0
C0
C0
C0
C0
C0
C0
C0
C0
C0
C0
C0
C0
C0
C0
C0
C0
C0
C0
C0
FC
FC
ENDCHAR
STARTCHAR 005C
ENCODING 92
SWIDTH 374 0
DWIDTH 13 0
BBX 9 25 2 0
BITMAP
E000
E000
6000
7000
7000
3000
3000
3800
3800
1800
1C00
1C00
1C00
0C00
0E00
0E00
0E00
0600
0700
0700
0300
0300
0380
0380
0180
ENDCHAR
STARTCHAR 005D
ENCODING 93
SWIDTH 403 0
DWIDTH 14 0
BBX 6 38 3 -7
BITMAP
FC
FC
0C
0C
0C
0C
0C
0C
0C
0C
0C
0C
0C
0C
0C
0C
0C
0C
0C
0C
0C
0C
0C
0C
0C
0C
0C
0C
0C
0C
0C
0C
0C
0C
0C
0C
FC
FC
ENDCHAR
STARTCHAR 005E
ENCODING 94
SWIDTH 662 0
DWIDTH 23 0
BBX 16 9 4 17
BITMAP
0180
03C0
07E0
0E70
1C38
381C
700E
E007
4002
ENDCHAR
STARTCHAR 005F
ENCODING 95
SWIDTH 662 0
DWIDTH 23 0
BBX 23 2 0 -4
BITMAP
FFFFFE
FFFFFE
ENDCHAR
STARTCHAR 0060
ENCODING 96
SWIDTH 489 0
DWIDTH 17 0
BBX 4 5 6 28
BITMAP
E0
60
60
70
30
ENDCHAR
STARTCHAR 0061
ENCODING 97
SWIDTH 547 0
DWIDTH 19 0
BBX 16 19 1 0
BITMAP
07F0
1FFC
3F7E
380F
7007
1003
0003
007F
0FFF
3FC3
7803
7007
E007
E007
E00F
701F
787B
3FF3
0FC0
ENDCHAR
STARTCHAR 0062
ENCODING 98
SWIDTH 604 0
DWIDTH 21 0
BBX 17 25 2 0
BITMAP
E00000
E00000
E00000
E00000
E00000
E00000
E3F000
EFFC00
FE3E00
F80E00
F00700
E00380
E00380
E00380
E00380
E00380
E00380
E00380
E00380
F00300
F00700
F80F00
FE3E00
EFFC00
E3F000
ENDCHAR
STARTCHAR 0063
ENCODING 99
SWIDTH 547 0
DWIDTH 19 0
BBX 17 19 1 0
BITMAP
03F000
0FFC00
1FBE00
3C0700
780380
700300
700000
600000
E00000
E00000
E00000
600000
700000
700200
780380
3C0700
1FBE00
0FFC00
03F000
ENDCHAR
STARTCHAR 0064
ENCODING 100
SWIDTH 604 0
DWIDTH 21 0
BBX 17 25 1 0
BITMAP
000180
000180
000180
000180
000180
000180
03E180
0FF980
1F3D80
3C0F80
700780
700380
600380
600180
E00180
E00180
E00180
E00180
700380
700380
700780
380F80
1F3D80
0FF980
03F180
ENDCHAR
STARTCHAR 0065
ENCODING 101
SWIDTH 576 0
DWIDTH 20 0
BBX 18 19 1 0
BITMAP
03F000
0FFC00
1F3F00
380700
700380
700180
6001C0
6001C0
FFFFC0
FFFFC0
E00000
600000
600000
700100
700380
3C0780
1FBF00
0FFE00
03F000
ENDCHAR
STARTCHAR 0066
ENCODING 102
SWIDTH 345 0
DWIDTH 12 0
BBX 11 25 1 0
BITMAP
03E0
0FE0
0E00
1C00
1C00
1C00
FFE0
FFE0
1C00
1C00
1C00
1C00
1C00
1C00
1C00
1C00
1C00
1C00
1C00
1C00
1C00
1C00
1C00
1C00
1C00
ENDCHAR
STARTCHAR 0067
ENCODING 103
SWIDTH 604 0
DWIDTH 21 0
BBX 17 27 1 -8
BITMAP
03F180
0FFD80
1F3F80
3C0F80
700780
700380
600380
600180
E00180
E00180
E00180
E00180
700380
700380
700780
380F80
1F3D80
0FF980
03F180
000380
000380
000380
100380
380700
3C0F00
1FFE00
07FC00
ENDCHAR
STARTCHAR 0068
ENCODING 104
SWIDTH 604 0
DWIDTH 21 0
BBX 17 25 2 0
BITMAP
E00000
E00000
E00000
E00000
E00000
E00000
E3F000
EFFC00
FF7E00
F80E00
F00700
F00700
E00300
E00300
E00380
E00380
E00380
E00380
E00380
E00380
E00380
E00380
E00380
E00380
E00380
ENDCHAR
STARTCHAR 0069
ENCODING 105
SWIDTH 230 0
DWIDTH 8 0
BBX 2 25 3 0
BITMAP
C0
C0
C0
00
00
00
C0
C0
C0
C0
C0
C0
C0
C0
C0
C0
C0
C0
C0
C0
C0
C0
C0
C0
C0
ENDCHAR
STARTCHAR 006A
ENCODING 106
SWIDTH 259 0
DWIDTH 9 0
BBX 6 33 0 -8
BITMAP
1C
1C
1C
00
00
00
1C
1C
1C
1C
1C
1C
1C
1C
1C
1C
1C
1C
1C
1C
1C
1C
1C
1C
1C
1C
1C
1C
1C
1C
3C
F8
F8
ENDCHAR
STARTCHAR 006B
ENCODING 107
SWIDTH 489 0
DWIDTH 17 0
BBX 15 25 2 0
BITMAP
E000
E000
E000
E000
E000
E000
E01C
E038
E070
E0F0
E1E0
E3C0
E780
EF00
EE00
FC00
EE00
E700
E380
E1C0
E0E0
E070
E038
E01C
E00E
ENDCHAR
STARTCHAR 006C
ENCODING 108
SWIDTH 230 0
DWIDTH 8 0
BBX 2 25 3 0
BITMAP
C0
C0
C0
C0
C0
C0
C0
C0
C0
C0
C0
C0
C0
C0
C0
C0
C0
C0
C0
C0
C0
C0
C0
C0
C0
ENDCHAR
STARTCHAR 006D
ENCODING 109
SWIDTH 835 0
DWIDTH 29 0
BBX 25 19 2 0
BITMAP
E7E0FC00
EFF1FE00
FCFB8F00
F03E0380
E01E0380
E01C0180
E00C0180
E00C0180
E00C0180
E00C0180
E00C0180
E00C0180
E00C0180
E00C0180
E00C0180
E00C0180
E00C0180
E00C0180
E00C0180
ENDCHAR
STARTCHAR 006E
ENCODING 110
SWIDTH 604 0
DWIDTH 21 0
BBX 17 19 2 0
BITMAP
E3F000
EFFC00
FF7E00
F80E00
F00700
F00700
E00300
E00300
E00380
E00380
E00380
E00380
E00380
E00380
E00380
E00380
E00380
E00380
E00380
ENDCHAR
STARTCHAR 006F
ENCODING 111
SWIDTH 604 0
DWIDTH 21 0
BBX 18 19 1 0
BITMAP
03F000
0FFC00
1FFF00
3C0700
780380
700180
7001C0
6001C0
E001C0
E001C0
E001C0
6001C0
7001C0
700180
780380
3C0700
1FBF00
0FFC00
03F800
ENDCHAR
STARTCHAR 0070
ENCODING 112
SWIDTH 604 0
DWIDTH 21 0
BBX 17 27 2 -8
BITMAP
E3F000
EFFC00
FE3E00
F80E00
F00700
E00380
E00380
E00380
E00380
E00380
E00380
E00380
E00380
F00300
F00700
F80F00
FE3E00
EFFC00
E3F000
E00000
E00000
E00000
E00000
E00000
E00000
E00000
E00000
ENDCHAR
STARTCHAR 0071
ENCODING 113
SWIDTH 604 0
DWIDTH 21 0
BBX 17 27 1 -8
BITMAP
03F180
0FFD80
1F3F80
3C0F80
700780
700380
600380
600180
E00180
E00180
E00180
E00180
700380
700380
700780
380F80
1F3D80
0FF980
03F180
000180
000180
000180
000180
000180
000180
000180
000180
ENDCHAR
STARTCHAR 0072
ENCODING 114
SWIDTH 374 0
DWIDTH 13 0
BBX 10 19 2 0
BITMAP
E3C0
EFC0
FE40
F800
F000
F000
E000
E000
E000
E000
E000
E000
E000
E000
E000
E000
E000
E000
E000
ENDCHAR
STARTCHAR 0073
ENCODING 115
SWIDTH 518 0
DWIDTH 18 0
BBX 15 19 2 0
BITMAP
0FC0
3FF0
78F8
E01C
E00E
E00C
E000
7800
3F80
0FF0
00FC
001C
000E
400E
C00E
E01C
7C7C
3FF8
0FE0
ENDCHAR
STARTCHAR 0074
ENCODING 116
SWIDTH 403 0
DWIDTH 14 0
BBX 13 24 0 0
BITMAP
0E00
0E00
0E00
0E00
0E00
FFF8
FFF8
0E00
0E00
0E00
0E00
0E00
0E00
0E00
0E00
0E00
0E00
0E00
0E00
0E00
0600
0788
03F8
01F8
ENDCHAR
STARTCHAR 0075
ENCODING 117
SWIDTH 604 0
DWIDTH 21 0
BBX 16 19 2 0
BITMAP
E003
E003
E003
E003
E003
E003
E003
E003
E003
E003
E003
E003
E007
E007
700F
781F
3EFB
1FF3
07E3
ENDCHAR
STARTCHAR 0076
ENCODING 118
SWIDTH 518 0
DWIDTH 18 0
BBX 16 19 1 0
BITMAP
C007
E006
600E
700E
700C
301C
381C
3818
1838
1C38
1C30
0C70
0E60
0660
06E0
07C0
03C0
03C0
0380
ENDCHAR
STARTCHAR 0077
ENCODING 119
SWIDTH 777 0
DWIDTH 27 0
BBX 25 19 1 0
BITMAP
C01C0380
E01C0380
E03C0300
603E0700
703E0700
70760600
30760E00
38670E00
38630C00
18E30C00
18C39C00
1CC19800
1DC19800
0D81F800
0F80F800
0F80F000
0700F000
07007000
07006000
ENDCHAR
STARTCHAR 0078
ENCODING 120
SWIDTH 518 0
DWIDTH 18 0
BBX 17 19 1 0
BITMAP
E00700
700700
700E00
381C00
1C3800
0E3800
0E7000
07E000
03C000
01C000
03C000
07E000
0E7000
0E3800
1C3C00
381C00
700E00
F00700
E00780
ENDCHAR
STARTCHAR 0079
ENCODING 121
SWIDTH 518 0
DWIDTH 18 0
BBX 17 27 1 -8
BITMAP
C00380
E00300
600700
700600
700E00
300E00
380C00
181C00
1C1C00
1C1800
0C3800
0E3000
063000
077000
076000
03E000
03E000
01C000
01C000
018000
018000
038000
030000
070000
070000
060000
0E0000
ENDCHAR
STARTCHAR 007A
ENCODING 122
SWIDTH 518 0
DWIDTH 18 0
BBX 16 19 1 0
BITMAP
7FFF
7FFE
000E
001C
0038
0070
0070
00E0
01C0
0380
0380
0700
0E00
1C00
1C00
3800
7000
FFFE
FFFE
ENDCHAR
STARTCHAR 007B
ENCODING 123
SWIDTH 432 0
DWIDTH 15 0
BBX 8 38 5 -7
BITMAP
0F
1F
3C
30
30
30
30
30
30
30
30
30
30
30
30
30
30
70
E0
E0
E0
70
30
30
30
30
30
30
30
30
30
30
30
30
30
38
3F
1F
ENDCHAR
STARTCHAR 007C
ENCODING 124
SWIDTH 259 0
DWIDTH 9 0
BBX 3 25 3 0
BITMAP
E0
E0
E0
E0
E0
E0
E0
E0
E0
E0
E0
E0
E0
E0
E0
E0
E0
E0
E0
E0
E0
E0
E0
E0
E0
ENDCHAR
STARTCHAR 007D
ENCODING 125
SWIDTH 432 0
DWIDTH 15 0
BBX 9 38 1 -7
BITMAP
F800
FC00
1C00
0E00
0E00
0E00
0E00
0E00
0E00
0E00
0E00
0E00
0E00
0E00
0E00
0E00
0E00
0700
0700
0380
0700
0600
0E00
0E00
0E00
0E00
0E00
0E00
0E00
0E00
0E00
0E00
0E00
0E00
0E00
0E00
FC00
F800
ENDCHAR
STARTCHAR 007E
ENCODING 126
SWIDTH 662 0
DWIDTH 23 0
BBX 15 6 4 8
BITMAP
3800
7F0E
FF8E
E7FE
E1FC
0078
ENDCHAR
STARTCHAR 00A0
ENCODING 160
SWIDTH 201 0
DWIDTH 7 0
BBX 0 0 0 0
BITMAP
ENDCHAR
STARTCHAR 00A1
ENCODING 161
SWIDTH 316 0
DWIDTH 11 0
BBX 3 25 4 -6
BITMAP
E0
E0
E0
00
00
00
E0
E0
E0
E0
E0
E0
E0
E0
E0
E0
E0
E0
E0
E0
E0
E0
E0
E0
E0
ENDCHAR
STARTCHAR 00A2
ENCODING 162
SWIDTH 547 0
DWIDTH 19 0
BBX 17 26 1 -1
BITMAP
00C000
00C000
00C000
01F000
0FFC00
1FFE00
3C0F00
380380
700380
700000
600000
E00000
E00000
E00000
E00000
600000
700000
700300
380380
3C0700
1FFE00
0FFC00
03F000
00C000
00C000
00C000
ENDCHAR
STARTCHAR 00A3
ENCODING 163
SWIDTH 576 0
DWIDTH 20 0
BBX 17 25 1 0
BITMAP
00F800
01FE00
03FF00
070700
060380
0E0180
0E0180
0E0000
0E0000
0E0000
0E0000
0E0000
FFF800
FFF800
0E0000
0E0000
0E0000
0E0000
0E0000
0E0000
0E0000
0E0000
3E0000
FFFF80
FFFF80
ENDCHAR
STARTCHAR 00A4
ENCODING 164
SWIDTH 633 0
DWIDTH 22 0
BBX 20 19 1 3
BITMAP
600020
F3FC70
7FFFE0
3F07C0
1C03C0
3801C0
3000E0
700060
600060
600060
600060
700060
3000E0
3801C0
1C03C0
3F07C0
7FFFE0
F3FC70
600020
ENDCHAR
STARTCHAR 00A5
ENCODING 165
SWIDTH 547 0
DWIDTH 19 0
BBX 19 25 0 0
BITMAP
E000E0
7001C0
7001C0
380380
1C0380
1C0700
0E0700
0E0E00
071C00
071C00
03B800
01F800
01F000
00F000
1FFF00
1FFF00
00E000
00E000
00E000
1FFF00
1FFF00
00E000
00E000
00E000
00E000
ENDCHAR
STARTCHAR 00A6
ENCODING 166
SWIDTH 259 0
DWIDTH 9 0
BBX 3 30 3 -5
BITMAP
E0
E0
E0
E0
E0
E0
E0
E0
E0
E0
E0
E0
E0
00
00
00
00
00
E0
E0
E0
E0
E0
E0
E0
E0
E0
E0
E0
E0
ENDCHAR
STARTCHAR 00A7
ENCODING 167
SWIDTH 518 0
DWIDTH 18 0
BBX 15 28 2 -5
BITMAP
0FC0
3FF0
78F8
7038
E01C
E01C
E000
7800
3F00
1FE0
7BF8
E03C
E00E
C00E
C00E
E00E
F81E
3FBC
0FF0
00F8
003C
000C
000C
E00C
F01C
783C
3FF8
0FF0
ENDCHAR
STARTCHAR 00A8
ENCODING 168
SWIDTH 518 0
DWIDTH 18 0
BBX 10 3 4 29
BITMAP
E1C0
E1C0
E1C0
ENDCHAR
STARTCHAR 00A9
ENCODING 169
SWIDTH 806 0
DWIDTH 28 0
BBX 26 26 1 -1
BITMAP
007F0000
01FFE000
07FFF000
0F807C00
1E001E00
3C000E00
383F0700
707F8380
70E1C380
61C0E180
E18001C0
E18001C0
E18001C0
E38001C0
E18001C0
E18001C0
61C0E180
70E1C380
707F8380
383F0700
3C000E00
1E001E00
0F807C00
07FFF000
01FFE000
003F8000
ENDCHAR
STARTCHAR 00AA
ENCODING 170
SWIDTH 316 0
DWIDTH 11 0
BBX 9 10 1 9
BITMAP
3E00
7700
6180
0380
3F80
6180
C380
C380
7D80
3000
ENDCHAR
STARTCHAR 00AB
ENCODING 171
SWIDTH 547 0
DWIDTH 19 0
BBX 13 15 3 2
BITMAP
0410
0618
0C30
1C60
38E0
71C0
6180
C300
6380
71C0
38E0
1860
0C30
0638
0618
ENDCHAR
STARTCHAR 00AC
ENCODING 172
SWIDTH 604 0
DWIDTH 21 0
BBX 17 6 2 7
BITMAP
FFFF80
FFFF80
000180
000180
000180
000180
ENDCHAR
STARTCHAR 00AD
ENCODING 173
SWIDTH 432 0
DWIDTH 15 0
BBX 11 2 2 10
BITMAP
FFE0
FFE0
ENDCHAR
STARTCHAR 00AE
ENCODING 174
SWIDTH 633 0
DWIDTH 22 0
BBX 17 17 2 10
BITMAP
03E000
0FF800
1E1E00
380600
300300
63E380
621180
621180
C23180
C3E180
622180
623180
721300
380700
1C1E00
0FFC00
03F000
ENDCHAR
STARTCHAR 00AF
ENCODING 175
SWIDTH 489 0
DWIDTH 17 0
BBX 9 2 4 29
BITMAP
FF80
FF80
ENDCHAR
STARTCHAR 00B0
ENCODING 176
SWIDTH 460 0
DWIDTH 16 0
BBX 13 12 1 13
BITMAP
0F80
3FC0
79E0
7070
E030
C030
C038
E030
E070
70F0
3FE0
1F80
ENDCHAR
STARTCHAR 00B1
ENCODING 177
SWIDTH 604 0
DWIDTH 21 0
BBX 17 16 2 3
BITMAP
01C000
01C000
01C000
01C000
01C000
FFFF80
FFFF80
01C000
01C000
01C000
01C000
000000
000000
000000
FFFF80
FFFF80
ENDCHAR
STARTCHAR 00B2
ENCODING 178
SWIDTH 403 0
DWIDTH 14 0
BBX 10 16 2 9
BITMAP
1E00
7F80
E180
C0C0
C0C0
00C0
00C0
01C0
0380
0700
0E00
1C00
3000
E000
FFC0
FFC0
ENDCHAR
STARTCHAR 00B3
ENCODING 179
SWIDTH 403 0
DWIDTH 14 0
BBX 10 16 1 9
BITMAP
7FC0
7FC0
01C0
0380
0700
0E00
1F00
1F80
01C0
00C0
00C0
00C0
C0C0
61C0
3F80
1F00
ENDCHAR
STARTCHAR 00B4
ENCODING 180
SWIDTH 489 0
DWIDTH 17 0
BBX 4 5 7 28
BITMAP
70
60
60
E0
C0
ENDCHAR
STARTCHAR 00B5
ENCODING 181
SWIDTH 604 0
DWIDTH 21 0
BBX 17 27 2 -8
BITMAP
E00380
E00380
E00380
E00380
E00380
E00380
E00380
E00380
E00380
E00380
E00380
E00380
E00380
F00780
F00780
F80F80
FF7F80
EFFB80
E7E380
E00000
E00000
E00000
E00000
E00000
E00000
E00000
E00000
ENDCHAR
STARTCHAR 00B6
ENCODING 182
SWIDTH 633 0
DWIDTH 22 0
BBX 17 30 3 -5
BITMAP
0FE380
3FE380
7FE380
7FE380
FFE380
FFE380
FFE380
FFE380
FFE380
FFE380
FFE380
FFE380
7FE380
3FE380
1FE380
01E380
006380
006380
006380
006380
006380
006380
006380
006380
006380
006380
006380
006380
006380
006380
ENDCHAR
STARTCHAR 00B7
ENCODING 183
SWIDTH 230 0
DWIDTH 8 0
BBX 4 4 2 9
BITMAP
60
F0
F0
60
ENDCHAR
STARTCHAR 00B8
ENCODING 184
SWIDTH 403 0
DWIDTH 14 0
BBX 6 9 4 -8
BITMAP
30
30
30
78
18
0C
1C
78
F0
ENDCHAR
STARTCHAR 00B9
ENCODING 185
SWIDTH 316 0
DWIDTH 11 0
BBX 5 16 2 9
BITMAP
38
78
D8
98
18
18
18
18
18
18
18
18
18
18
18
18
ENDCHAR
STARTCHAR 00BA
ENCODING 186
SWIDTH 345 0
DWIDTH 12 0
BBX 10 10 1 9
BITMAP
1E00
7F00
6180
4180
C0C0
C0C0
6180
6180
3F00
0C00
ENDCHAR
STARTCHAR 00BB
ENCODING 187
SWIDTH 547 0
DWIDTH 19 0
BBX 13 15 3 2
BITMAP
8200
C700
E380
71C0
30C0
1860
0C70
0E38
0C30
1860
38C0
71C0
E380
C300
8200
ENDCHAR
STARTCHAR 00BC
ENCODING 188
SWIDTH 979 0
DWIDTH 34 0
BBX 28 25 2 0
BITMAP
38000400
F8000E00
D8001C00
98003800
18003000
18007000
1800E000
1801C000
18018000
18038300
18070700
180E0600
181C0600
18180C00
18380C00
18701800
00E018C0
00C030C0
01C030C0
038060C0
07007FF0
0E007FF0
0E0000C0
1C0000C0
080000C0
ENDCHAR
STARTCHAR 00BD
ENCODING 189
SWIDTH 921 0
DWIDTH 32 0
BBX 29 25 2 0
BITMAP
38000400
78000E00
D8001C00
98003800
18003000
18007000
1800E000
1801C000
18018000
180387C0
18070FE0
180E1C70
181C1830
18183018
18380018
18700038
00E00030
00C00060
01C000C0
03800380
07000700
06000E00
0E001C00
1C003FF8
08003FF8
ENDCHAR
STARTCHAR 00BE
ENCODING 190
SWIDTH 979 0
DWIDTH 34 0
BBX 31 25 1 0
BITMAP
7FC00080
7FC001C0
01C00180
03800380
07000700
0E000E00
1F001C00
1F801800
01C03800
00C07060
00C0E060
00C0C0E0
C0C1C0C0
61C381C0
3F870180
1F0E0380
000E0318
001C0718
00380618
00700E18
00600FFE
00E00FFE
01C00018
03800018
01000018
ENDCHAR
STARTCHAR 00BF
ENCODING 191
SWIDTH 518 0
DWIDTH 18 0
BBX 14 26 2 -7
BITMAP
0380
0380
0380
0000
0000
0000
0000
0380
0380
0380
0300
0700
0E00
3C00
7800
7000
E000
E000
C000
C00C
E00C
E01C
F03C
7EF8
3FF0
0FC0
ENDCHAR
STARTCHAR 00C0
ENCODING 192
SWIDTH 633 0
DWIDTH 22 0
BBX 20 33 1 0
BITMAP
018000
01C000
00C000
00C000
00E000
000000
000000
000000
00F000
00F000
01F800
01F800
019800
039C00
039C00
030C00
070E00
070E00
060600
0E0700
0E0700
0C0300
1C0380
1C0380
180180
3FFFC0
3FFFC0
3000C0
7000E0
7000E0
600060
E00070
E00070
ENDCHAR
STARTCHAR 00C1
ENCODING 193
SWIDTH 633 0
DWIDTH 22 0
BBX 20 33 1 0
BITMAP
001800
001800
003000
003000
007000
000000
000000
000000
00F000
00F000
01F800
01F800
019800
039C00
039C00
030C00
070E00
070E00
060600
0E0700
0E0700
0C0300
1C0380
1C0380
180180
3FFFC0
3FFFC0
3000C0
7000E0
7000E0
600060
E00070
E00070
ENDCHAR
STARTCHAR 00C2
ENCODING 194
SWIDTH 633 0
DWIDTH 22 0
BBX 20 33 1 0
BITMAP
006000
00F000
01F800
039C00
070E00
000000
000000
000000
00F000
00F000
01F800
01F800
019800
039C00
039C00
030C00
070E00
070E00
060600
0E0700
0E0700
0C0300
1C0380
1C0380
180180
3FFFC0
3FFFC0
3000C0
7000E0
7000E0
600060
E00070
E00070
ENDCHAR
STARTCHAR 00C3
ENCODING 195
SWIDTH 633 0
DWIDTH 22 0
BBX 20 33 1 0
BITMAP
038600
07E600
067E00
061C00
000000
000000
000000
000000
00F000
00F000
01F800
01F800
019800
039C00
039C00
030C00
070E00
070E00
060600
0E0700
0E0700
0C0300
1C0380
1C0380
180180
3FFFC0
3FFFC0
3000C0
7000E0
7000E0
600060
E00070
E00070
ENDCHAR
STARTCHAR 00C4
ENCODING 196
SWIDTH 633 0
DWIDTH 22 0
BBX 20 32 1 0
BITMAP
070E00
070E00
070E00
000000
000000
000000
000000
00F000
00F000
01F800
01F800
019800
039C00
039C00
030C00
070E00
070E00
060600
0E0700
0E0700
0C0300
1C0380
1C0380
180180
3FFFC0
3FFFC0
3000C0
7000E0
7000E0
600060
E00070
E00070
ENDCHAR
STARTCHAR 00C5
ENCODING 197
SWIDTH 633 0
DWIDTH 22 0
BBX 20 35 1 0
BITMAP
00F000
01F800
019C00
030C00
030C00
039C00
01F800
00F000
000000
000000
00F000
00F000
01F800
01F800
019800
039C00
039C00
030C00
070E00
070E00
060600
0E0700
0E0700
0C0300
1C0380
1C0380
180180
3FFFC0
3FFFC0
3000C0
7000E0
7000E0
600060
E00070
E00070
ENDCHAR
STARTCHAR 00C6
ENCODING 198
SWIDTH 921 0
DWIDTH 32 0
BBX 29 25 1 0
BITMAP
00FFFFF8
00FFFFF8
01C30000
01C30000
01830000
03830000
03830000
03030000
07030000
07030000
06030000
0E03FFE0
0E03FFE0
0C030000
1C030000
1C030000
18030000
3FFF0000
3FFF0000
30030000
70030000
70030000
60030000
E003FFF8
E003FFF8
ENDCHAR
STARTCHAR 00C7
ENCODING 199
SWIDTH 720 0
DWIDTH 25 0
BBX 22 33 1 -8
BITMAP
00FE00
07FFC0
0FEFE0
1E00F0
3C0078
380038
70001C
70001C
E00000
E00000
E00000
E00000
E00000
E00000
E00000
E00000
E00000
70001C
70001C
380038
3C0078
1E00F0
0FEFE0
07FFC0
00FE00
001800
001800
003C00
000C00
000E00
000C00
007C00
007800
ENDCHAR
STARTCHAR 00C8
ENCODING 200
SWIDTH 576 0
DWIDTH 20 0
BBX 16 33 2 0
BITMAP
0300
0380
0180
0180
01C0
0000
0000
0000
FFFF
FFFF
E000
E000
E000
E000
E000
E000
E000
E000
E000
FFFC
FFFC
E000
E000
E000
E000
E000
E000
E000
E000
E000
E000
FFFF
FFFF
ENDCHAR
STARTCHAR 00C9
ENCODING 201
SWIDTH 576 0
DWIDTH 20 0
BBX 16 33 2 0
BITMAP
0070
0060
0060
00C0
00C0
0000
0000
0000
FFFF
FFFF
E000
E000
E000
E000
E000
E000
E000
E000
E000
FFFC
FFFC
E000
E000
E000
E000
E000
E000
E000
E000
E000
E000
FFFF
FFFF
ENDCHAR
STARTCHAR 00CA
ENCODING 202
SWIDTH 576 0
DWIDTH 20 0
BBX 16 33 2 0
BITMAP
0180
03C0
07E0
0E70
1C38
0000
0000
0000
FFFF
FFFF
E000
E000
E000
E000
E000
E000
E000
E000
E000
FFFC
FFFC
E000
E000
E000
E000
E000
E000
E000
E000
E000
E000
FFFF
FFFF
ENDCHAR
STARTCHAR 00CB
ENCODING 203
SWIDTH 576 0
DWIDTH 20 0
BBX 16 32 2 0
BITMAP
1C38
1C38
1C38
0000
0000
0000
0000
FFFF
FFFF
E000
E000
E000
E000
E000
E000
E000
E000
E000
FFFC
FFFC
E000
E000
E000
E000
E000
E000
E000
E000
E000
E000
FFFF
FFFF
ENDCHAR
STARTCHAR 00CC
ENCODING 204
SWIDTH 230 0
DWIDTH 8 0
BBX 4 33 1 0
BITMAP
C0
60
60
70
30
00
00
00
30
30
30
30
30
30
30
30
30
30
30
30
30
30
30
30
30
30
30
30
30
30
30
30
30
ENDCHAR
STARTCHAR 00CD
ENCODING 205
SWIDTH 230 0
DWIDTH 8 0
BBX 4 33 3 0
BITMAP
30
70
60
60
C0
00
00
00
C0
C0
C0
C0
C0
C0
C0
C0
C0
C0
C0
C0
C0
C0
C0
C0
C0
C0
C0
C0
C0
C0
C0
C0
C0
ENDCHAR
STARTCHAR 00CE
ENCODING 206
SWIDTH 230 0
DWIDTH 8 0
BBX 10 33 -1 0
BITMAP
0C00
1E00
3F00
7380
E1C0
0000
0000
0000
0C00
0C00
0C00
0C00
0C00
0C00
0C00
0C00
0C00
0C00
0C00
0C00
0C00
0C00
0C00
0C00
0C00
0C00
0C00
0C00
0C00
0C00
0C00
0C00
0C00
ENDCHAR
STARTCHAR 00CF
ENCODING 207
SWIDTH 230 0
DWIDTH 8 0
BBX 10 32 -1 0
BITMAP
E1C0
E1C0
E1C0
0000
0000
0000
0000
0C00
0C00
0C00
0C00
0C00
0C00
0C00
0C00
0C00
0C00
0C00
0C00
0C00
0C00
0C00
0C00
0C00
0C00
0C00
0C00
0C00
0C00
0C00
0C00
0C00
ENDCHAR
STARTCHAR 00D0
ENCODING 208
SWIDTH 662 0
DWIDTH 23 0
BBX 22 25 0 0
BITMAP
3FFC00
3FFF80
383FC0
3801E0
3800F0
380070
380038
380038
380038
380018
38001C
FFE01C
FFE01C
38001C
380018
380018
380038
380038
380038
380070
3800F0
3801E0
381FC0
3FFF80
3FFC00
ENDCHAR
STARTCHAR 00D1
ENCODING 209
SWIDTH 691 0
DWIDTH 24 0
BBX 19 32 2 0
BITMAP
03C300
07E300
067E00
061E00
000000
000000
000000
E00060
F00060
F80060
F80060
FC0060
EE0060
EE0060
E70060
E38060
E38060
E1C060
E0E060
E0E060
E07060
E03860
E03860
E01C60
E00E60
E00E60
E00760
E003E0
E003E0
E001E0
E000E0
E000E0
ENDCHAR
STARTCHAR 00D2
ENCODING 210
SWIDTH 720 0
DWIDTH 25 0
BBX 23 33 1 0
BITMAP
00E000
006000
006000
003000
003000
000000
000000
000000
00FE00
07FFC0
0FEFE0
1E00F0
3C0078
38003C
70001C
70001C
E0000E
E0000E
E0000E
E0000E
E0000E
E0000E
E0000E
E0000E
E0000E
70001C
70001C
380038
3C0078
1E00F0
0FE7E0
07FFC0
00FE00
ENDCHAR
STARTCHAR 00D3
ENCODING 211
SWIDTH 720 0
DWIDTH 25 0
BBX 23 33 1 0
BITMAP
000600
000E00
000C00
000C00
001800
001800
000000
000000
00FE00
07FFC0
0FEFE0
1E00F0
3C0078
38003C
70001C
70001C
E0000E
E0000E
E0000E
E0000E
E0000E
E0000E
E0000E
E0000E
E0000E
70001C
70001C
380038
3C0078
1E00F0
0FE7E0
07FFC0
00FE00
ENDCHAR
STARTCHAR 00D4
ENCODING 212
SWIDTH 720 0
DWIDTH 25 0
BBX 23 32 1 0
BITMAP
003800
007C00
00EE00
01C700
018380
000000
000000
00FE00
07FFC0
0FEFE0
1E00F0
3C0078
38003C
70001C
70001C
E0000E
E0000E
E0000E
E0000E
E0000E
E0000E
E0000E
E0000E
E0000E
70001C
70001C
380038
3C0078
1E00F0
0FE7E0
07FFC0
00FE00
ENDCHAR
STARTCHAR 00D5
ENCODING 213
SWIDTH 720 0
DWIDTH 25 0
BBX 23 31 1 0
BITMAP
01E180
01F980
031F80
010F00
000000
000000
00FE00
07FFC0
0FEFE0
1E00F0
3C0078
38003C
70001C
70001C
E0000E
E0000E
E0000E
E0000E
E0000E
E0000E
E0000E
E0000E
E0000E
70001C
70001C
380038
3C0078
1E00F0
0FE7E0
07FFC0
00FE00
ENDCHAR
STARTCHAR 00D6
ENCODING 214
SWIDTH 720 0
DWIDTH 25 0
BBX 23 31 1 0
BITMAP
01C700
01C700
01C700
000000
000000
000000
00FE00
07FFC0
0FEFE0
1E00F0
3C0078
38003C
70001C
70001C
E0000E
E0000E
E0000E
E0000E
E0000E
E0000E
E0000E
E0000E
E0000E
70001C
70001C
380038
3C0078
1E00F0
0FE7E0
07FFC0
00FE00
ENDCHAR
STARTCHAR 00D7
ENCODING 215
SWIDTH 489 0
DWIDTH 17 0
BBX 13 13 2 6
BITMAP
4010
E038
7070
38E0
1DC0
0F80
0700
0F80
1DC0
38E0
7070
E038
4010
ENDCHAR
STARTCHAR 00D8
ENCODING 216
SWIDTH 720 0
DWIDTH 25 0
BBX 24 25 1 0
BITMAP
00FE04
07FFCF
0FEFEE
1E00FC
3C0078
38007C
7000FC
7001DC
E0038E
E0070E
E00E0E
E01C0E
E0380E
E0700E
E0E00E
E1C00E
E3C00E
77801C
7F001C
3E0038
3C0078
7E00F0
7FE7E0
E7FFC0
40FE00
ENDCHAR
STARTCHAR 00D9
ENCODING 217
SWIDTH 691 0
DWIDTH 24 0
BBX 20 33 2 0
BITMAP
00C000
00C000
00E000
006000
006000
000000
000000
000000
E00070
E00070
E00070
E00070
E00070
E00070
E00070
E00070
E00070
E00070
E00070
E00070
E00070
E00070
E00070
E00070
E00070
600070
700070
7000E0
3801E0
3C03C0
1FDF80
0FFF00
01FC00
ENDCHAR
STARTCHAR 00DA
ENCODING 218
SWIDTH 691 0
DWIDTH 24 0
BBX 20 33 2 0
BITMAP
001800
003000
003000
007000
006000
000000
000000
000000
E00070
E00070
E00070
E00070
E00070
E00070
E00070
E00070
E00070
E00070
E00070
E00070
E00070
E00070
E00070
E00070
E00070
600070
700070
7000E0
3801E0
3C03C0
1FDF80
0FFF00
01FC00
ENDCHAR
STARTCHAR 00DB
ENCODING 219
SWIDTH 691 0
DWIDTH 24 0
BBX 20 33 2 0
BITMAP
007000
00F000
01D800
039C00
070E00
000000
000000
000000
E00070
E00070
E00070
E00070
E00070
E00070
E00070
E00070
E00070
E00070
E00070
E00070
E00070
E00070
E00070
E00070
E00070
600070
700070
7000E0
3801E0
3C03C0
1FDF80
0FFF00
01FC00
ENDCHAR
STARTCHAR 00DC
ENCODING 220
SWIDTH 691 0
DWIDTH 24 0
BBX 20 32 2 0
BITMAP
070E00
070E00
070E00
000000
000000
000000
000000
E00070
E00070
E00070
E00070
E00070
E00070
E00070
E00070
E00070
E00070
E00070
E00070
E00070
E00070
E00070
E00070
E00070
600070
700070
7000E0
3801E0
3C03C0
1FDF80
0FFF00
01FC00
ENDCHAR
STARTCHAR 00DD
ENCODING 221
SWIDTH 547 0
DWIDTH 19 0
BBX 19 33 0 0
BITMAP
003000
003000
006000
006000
00E000
000000
000000
000000
E000E0
7001C0
7001C0
380380
1C0380
1C0700
0E0700
0E0E00
071C00
071C00
03B800
01F800
01F000
00F000
00E000
00E000
00E000
00E000
00E000
00E000
00E000
00E000
00E000
00E000
00E000
ENDCHAR
STARTCHAR 00DE
ENCODING 222
SWIDTH 604 0
DWIDTH 21 0
BBX 18 25 2 0
BITMAP
E00000
E00000
E00000
E00000
E00000
FFF800
FFFE00
E00F00
E00780
E00380
E00180
E001C0
E001C0
E001C0
E00180
E00380
E00780
E00F00
FFFE00
FFFC00
E00000
E00000
E00000
E00000
E00000
ENDCHAR
STARTCHAR 00DF
ENCODING 223
SWIDTH 604 0
DWIDTH 21 0
BBX 17 25 2 0
BITMAP
0FC000
1FF000
3EF800
701C00
701C00
E00C00
E00E00
E00C00
E01C00
E01C00
E07800
E1F000
E1FC00
E01E00
E00700
E00300
E00380
E00380
E00380
E00300
E00700
E00F00
E3FE00
E3FC00
E3F000
ENDCHAR
STARTCHAR 00E0
ENCODING 224
SWIDTH 547 0
DWIDTH 19 0
BBX 16 27 1 0
BITMAP
0300
0380
0180
0180
01C0
0000
0000
0000
07F0
1FFC
3F7E
380F
7007
1003
0003
007F
0FFF
3FC3
7803
7007
E007
E007
E00F
701F
787B
3FF3
0FC0
ENDCHAR
STARTCHAR 00E1
ENCODING 225
SWIDTH 547 0
DWIDTH 19 0
BBX 16 27 1 0
BITMAP
0030
0060
0060
00E0
00C0
0000
0000
0000
07F0
1FFC
3F7E
380F
7007
1003
0003
007F
0FFF
3FC3
7803
7007
E007
E007
E00F
701F
787B
3FF3
0FC0
ENDCHAR
STARTCHAR 00E2
ENCODING 226
SWIDTH 547 0
DWIDTH 19 0
BBX 16 26 1 0
BITMAP
01E0
03E0
0330
0638
0E1C
0000
0000
07F0
1FFC
3F7E
380F
7007
1003
0003
007F
0FFF
3FC3
7803
7007
E007
E007
E00F
701F
787B
3FF3
0FC0
ENDCHAR
STARTCHAR 00E3
ENCODING 227
SWIDTH 547 0
DWIDTH 19 0
BBX 16 25 1 0
BITMAP
070C
0FCC
0CFC
0C38
0000
0000
07F0
1FFC
3F7E
380F
7007
1003
0003
007F
0FFF
3FC3
7803
7007
E007
E007
E00F
701F
787B
3FF3
0FC0
ENDCHAR
STARTCHAR 00E4
ENCODING 228
SWIDTH 547 0
DWIDTH 19 0
BBX 16 25 1 0
BITMAP
0E1C
0E1C
0E1C
0000
0000
0000
07F0
1FFC
3F7E
380F
7007
1003
0003
007F
0FFF
3FC3
7803
7007
E007
E007
E00F
701F
787B
3FF3
0FC3
ENDCHAR
STARTCHAR 00E5
ENCODING 229
SWIDTH 547 0
DWIDTH 19 0
BBX 16 28 1 0
BITMAP
01E0
03F0
0730
0618
0618
0730
03F0
01E0
0000
07F0
1FFC
3F7E
380F
7007
1003
0003
007F
0FFF
3FC3
7803
7007
E007
E007
E00F
701F
787B
3FF3
0FC0
ENDCHAR
STARTCHAR 00E6
ENCODING 230
SWIDTH 950 0
DWIDTH 33 0
BBX 30 19 1 0
BITMAP
03F01F80
0FFC7FE0
3F7EF9F0
380FE038
7007C018
1007801C
0003801C
0003000C
07FFFFFC
1FFFFFFC
7C030000
70030000
E0078000
E0078018
E00FC01C
701DE038
787CFDF0
3FF07FE0
0FC01F80
ENDCHAR
STARTCHAR 00E7
ENCODING 231
SWIDTH 547 0
DWIDTH 19 0
BBX 17 27 1 -8
BITMAP
03F000
0FFC00
1FBE00
3C0700
780380
700300
700000
600000
E00000
E00000
E00000
600000
700000
700200
780380
380700
1FBF00
0FFC00
03F800
00C000
00C000
01E000
006000
003000
007000
03E000
03C000
ENDCHAR
STARTCHAR 00E8
ENCODING 232
SWIDTH 576 0
DWIDTH 20 0
BBX 18 27 1 0
BITMAP
018000
018000
01C000
00C000
00C000
000000
000000
000000
03F000
0FFC00
1F3F00
380700
700380
700180
6001C0
6001C0
FFFFC0
FFFFC0
E00000
600000
600000
700100
700380
3C0780
1FBF00
0FFE00
03F000
ENDCHAR
STARTCHAR 00E9
ENCODING 233
SWIDTH 576 0
DWIDTH 20 0
BBX 18 27 1 0
BITMAP
003800
003000
003000
007000
006000
006000
000000
000000
03F000
0FFC00
1F3F00
380700
700380
700180
6001C0
6001C0
FFFFC0
FFFFC0
E00000
600000
600000
700100
700380
3C0780
1FBF00
0FFE00
03F000
ENDCHAR
STARTCHAR 00EA
ENCODING 234
SWIDTH 576 0
DWIDTH 20 0
BBX 18 26 1 0
BITMAP
00E000
01F000
03B800
071800
0E0C00
000000
000000
03F000
0FFC00
1F3F00
380700
700380
700180
6001C0
6001C0
FFFFC0
FFFFC0
E00000
600000
600000
700100
700380
3C0780
1FBF00
0FFE00
03F000
ENDCHAR
STARTCHAR 00EB
ENCODING 235
SWIDTH 576 0
DWIDTH 20 0
BBX 18 25 1 0
BITMAP
061C00
061C00
061C00
000000
000000
000000
03F000
0FFC00
1F3F00
380700
700380
700180
6001C0
6001C0
FFFFC0
FFFFC0
E00000
600000
600000
700100
700380
3C0780
1FBF00
0FFE00
03F000
ENDCHAR
STARTCHAR 00EC
ENCODING 236
SWIDTH 230 0
DWIDTH 8 0
BBX 4 27 1 0
BITMAP
C0
60
60
70
30
00
00
00
30
30
30
30
30
30
30
30
30
30
30
30
30
30
30
30
30
30
30
ENDCHAR
STARTCHAR 00ED
ENCODING 237
SWIDTH 230 0
DWIDTH 8 0
BBX 4 27 3 0
BITMAP
30
70
60
60
C0
00
00
00
C0
C0
C0
C0
C0
C0
C0
C0
C0
C0
C0
C0
C0
C0
C0
C0
C0
C0
C0
ENDCHAR
STARTCHAR 00EE
ENCODING 238
SWIDTH 230 0
DWIDTH 8 0
BBX 10 27 -1 0
BITMAP
0E00
1E00
3B00
7380
E1C0
0000
0000
0000
0C00
0C00
0C00
0C00
0C00
0C00
0C00
0C00
0C00
0C00
0C00
0C00
0C00
0C00
0C00
0C00
0C00
0C00
0C00
ENDCHAR
STARTCHAR 00EF
ENCODING 239
SWIDTH 230 0
DWIDTH 8 0
BBX 10 25 -1 0
BITMAP
E1C0
E1C0
E1C0
0000
0000
0000
0C00
0C00
0C00
0C00
0C00
0C00
0C00
0C00
0C00
0C00
0C00
0C00
0C00
0C00
0C00
0C00
0C00
0C00
0C00
ENDCHAR
STARTCHAR 00F0
ENCODING 240
SWIDTH 576 0
DWIDTH 20 0
BBX 18 27 1 1
BITMAP
000C00
01CC00
01F800
007C00
007E00
00E600
004700
000300
000180
07F980
1FFD80
3C0FC0
3807C0
7003C0
7001C0
6001C0
E001C0
E001C0
E001C0
E001C0
6001C0
700380
700380
380700
1F3F00
0FFC00
03F000
ENDCHAR
STARTCHAR 00F1
ENCODING 241
SWIDTH 604 0
DWIDTH 21 0
BBX 17 26 2 0
BITMAP
0F0C00
1F8C00
19F800
187800
000000
000000
000000
E3F000
EFFC00
FF7E00
F80E00
F00700
F00700
E00300
E00300
E00380
E00380
E00380
E00380
E00380
E00380
E00380
E00380
E00380
E00380
E00380
ENDCHAR
STARTCHAR 00F2
ENCODING 242
SWIDTH 604 0
DWIDTH 21 0
BBX 18 27 1 0
BITMAP
030000
038000
018000
018000
00C000
000000
000000
000000
03F000
0FFC00
1FFF00
3C0700
780380
700180
7001C0
6001C0
E001C0
E001C0
E001C0
6001C0
7001C0
700180
780380
3C0700
1FBF00
0FFC00
03F800
ENDCHAR
STARTCHAR 00F3
ENCODING 243
SWIDTH 604 0
DWIDTH 21 0
BBX 18 27 1 0
BITMAP
003000
003000
007000
006000
006000
00C000
000000
000000
03F000
0FFC00
1FFF00
3C0700
780380
700180
7001C0
6001C0
E001C0
E001C0
E001C0
6001C0
7001C0
700180
780380
3C0700
1FBF00
0FFC00
03F800
ENDCHAR
STARTCHAR 00F4
ENCODING 244
SWIDTH 604 0
DWIDTH 21 0
BBX 18 26 1 0
BITMAP
00E000
01F000
03B800
071800
0E0C00
000000
000000
03F000
0FFC00
1FFF00
3C0700
780380
700180
7001C0
6001C0
E001C0
E001C0
E001C0
6001C0
7001C0
700180
780380
3C0700
1FBF00
0FFC00
03F800
ENDCHAR
STARTCHAR 00F5
ENCODING 245
SWIDTH 604 0
DWIDTH 21 0
BBX 18 25 1 0
BITMAP
078600
0FC600
0CFC00
0C3C00
000000
000000
03F000
0FFC00
1FFF00
3C0700
780380
700180
7001C0
6001C0
E001C0
E001C0
E001C0
6001C0
7001C0
700180
780380
3C0700
1FBF00
0FFC00
03F800
ENDCHAR
STARTCHAR 00F6
ENCODING 246
SWIDTH 604 0
DWIDTH 21 0
BBX 18 25 1 0
BITMAP
061C00
061C00
061C00
000000
000000
000000
03F000
0FFC00
1FFF00
3C0700
780380
700180
7001C0
6001C0
E001C0
E001C0
E001C0
6001C0
7001C0
700180
780380
3C0700
1FBF00
0FFC00
03F800
ENDCHAR
STARTCHAR 00F7
ENCODING 247
SWIDTH 547 0
DWIDTH 19 0
BBX 15 13 2 6
BITMAP
0380
0380
0380
0000
0000
FFFE
FFFE
0000
0000
0000
0380
0380
0380
ENDCHAR
STARTCHAR 00F8
ENCODING 248
SWIDTH 604 0
DWIDTH 21 0
BBX 19 19 1 0
BITMAP
03F840
0FFEE0
1FBFC0
3C0780
780780
700FC0
701DC0
6039C0
E071C0
E0E1C0
E1C1C0
E381C0
6701C0
7E0180
780380
3C0700
7FBF00
EFFC00
43F800
ENDCHAR
STARTCHAR 00F9
ENCODING 249
SWIDTH 604 0
DWIDTH 21 0
BBX 16 27 2 0
BITMAP
0300
0300
0380
0180
0180
0000
0000
0000
E003
E003
E003
E003
E003
E003
E003
E003
E003
E003
E003
E003
E007
E007
700F
781F
3EFB
1FF3
07E3
ENDCHAR
STARTCHAR 00FA
ENCODING 250
SWIDTH 604 0
DWIDTH 21 0
BBX 16 27 2 0
BITMAP
0060
00E0
00C0
00C0
0180
0000
0000
0000
E003
E003
E003
E003
E003
E003
E003
E003
E003
E003
E003
E003
E007
E007
700F
781F
3EFB
1FF3
07E3
ENDCHAR
STARTCHAR 00FB
ENCODING 251
SWIDTH 604 0
DWIDTH 21 0
BBX 16 27 2 0
BITMAP
0180
03C0
07E0
0E70
1C38
0000
0000
0000
E003
E003
E003
E003
E003
E003
E003
E003
E003
E003
E003
E003
E007
E007
700F
781F
3EFB
1FF3
07E3
ENDCHAR
STARTCHAR 00FC
ENCODING 252
SWIDTH 604 0
DWIDTH 21 0
BBX 16 25 2 0
BITMAP
1C38
1C38
1C38
0000
0000
0000
E003
E003
E003
E003
E003
E003
E003
E003
E003
E003
E003
E003
E007
E007
700F
781F
3EFB
1FF3
07E3
ENDCHAR
STARTCHAR 00FD
ENCODING 253
SWIDTH 518 0
DWIDTH 18 0
BBX 17 35 1 -8
BITMAP
006000
00E000
00C000
00C000
018000
000000
000000
000000
C00380
E00300
600700
700600
700E00
300E00
380C00
181C00
1C1C00
1C1800
0C3800
0E3000
063000
077000
076000
03E000
03E000
01C000
01C000
018000
018000
038000
030000
070000
070000
060000
0E0000
ENDCHAR
STARTCHAR 00FE
ENCODING 254
SWIDTH 604 0
DWIDTH 21 0
BBX 17 33 2 -8
BITMAP
E00000
E00000
E00000
E00000
E00000
E00000
E3F000
EFFC00
FE3E00
F80E00
F00700
E00380
E00380
E00380
E00380
E00380
E00380
E00380
E00380
F00300
F00700
F80F00
FE3E00
EFFC00
E3F000
E00000
E00000
E00000
E00000
E00000
E00000
E00000
E00000
ENDCHAR
STARTCHAR 00FF
ENCODING 255
SWIDTH 518 0
DWIDTH 18 0
BBX 17 33 1 -8
BITMAP
0C3800
0C3800
0C3800
000000
000000
000000
C00380
E00300
600700
700600
700E00
300E00
380C00
181C00
1C1C00
1C1800
0C3800
0E3000
063000
077000
076000
03E000
03E000
01C000
01C000
018000
018000
038000
030000
070000
070000
060000
0E0000
ENDCHAR
ENDFONT
