STARTFONT 2.1
COMMENT
COMMENT Converted from OpenType font "manrope-extrabold.otf" by "otf2bdf 3.0".
COMMENT
FONT -FreeType-Manrope ExtraBold-Medium-R-Normal--29-210-100-100-P-144-ISO10646-1
SIZE 21 100 100
FONTBOUNDINGBOX 30 37 -1 -7
STARTPROPERTIES 19
FOUNDRY "FreeType"
FAMILY_NAME "Manrope ExtraBold"
WEIGHT_NAME "Medium"
SLANT "R"
SETWIDTH_NAME "Normal"
ADD_STYLE_NAME ""
PIXEL_SIZE 29
POINT_SIZE 210
RESOLUTION_X 100
RESOLUTION_Y 100
SPACING "P"
AVERAGE_WIDTH 144
CHARSET_REGISTRY "ISO10646"
CHARSET_ENCODING "1"
FONT_ASCENT 30
FONT_DESCENT 8
COPYRIGHT "Copyright 2019-2021 The Manrope Project Authors (https://github.com/sharanda/manrope)"
_OTF_FONTFILE "manrope-extrabold.otf"
_OTF_PSNAME "Manrope-ExtraBold"
ENDPROPERTIES
CHARS 191
STARTCHAR 0020
ENCODING 32
SWIDTH 205 0
DWIDTH 6 0
BBX 0 0 0 0
BITMAP
ENDCHAR
STARTCHAR 0021
ENCODING 33
SWIDTH 377 0
DWIDTH 11 0
BBX 4 21 3 0
BITMAP
F0
F0
F0
F0
F0
F0
F0
F0
F0
F0
F0
F0
F0
F0
F0
F0
00
F0
F0
F0
F0
ENDCHAR
STARTCHAR 0022
ENCODING 34
SWIDTH 480 0
DWIDTH 14 0
BBX 9 5 2 16
BITMAP
F780
F780
F780
F780
F780
ENDCHAR
STARTCHAR 0023
ENCODING 35
SWIDTH 925 0
DWIDTH 27 0
BBX 23 21 2 0
BITMAP
0078F0
0070E0
00F1E0
00F1E0
00F1E0
3FFFFE
3FFFFE
3FFFFE
3FFFFE
03C780
03C780
03C780
7FFFFC
FFFFF8
FFFFF8
FFFFF8
070E00
0F1E00
0F1E00
0F1E00
0E1C00
ENDCHAR
STARTCHAR 0024
ENCODING 36
SWIDTH 651 0
DWIDTH 19 0
BBX 17 27 1 -3
BITMAP
01C000
01C000
01C000
07F000
1FFC00
3FFE00
7E7E00
781F00
780F00
780000
7C0000
3FC000
3FF800
1FFE00
03FF00
007F00
000F00
F00780
F80700
7C0F00
7F7F00
3FFE00
1FFC00
07F000
01C000
01C000
01C000
ENDCHAR
STARTCHAR 0025
ENCODING 37
SWIDTH 891 0
DWIDTH 26 0
BBX 22 21 2 0
BITMAP
1E0020
7F8070
7F80F8
F3C1F8
E1C3F0
E1C7E0
F3CFC0
FFDF80
7FBF00
3F7E00
00FC00
01F9E0
03F3F8
07E7FC
0FCFBC
1F8E1C
3F0E1C
7E0FBC
7C07FC
3803F8
1001E0
ENDCHAR
STARTCHAR 0026
ENCODING 38
SWIDTH 685 0
DWIDTH 20 0
BBX 18 21 1 0
BITMAP
07E000
1FF800
1FFC00
3FFC00
3C3E00
780000
7C0000
3C0000
3E0000
1F0000
3F8700
7FE700
7BF700
78FF00
F07F00
F83F00
781F00
7FFF80
3FFFC0
1FFF80
07F100
ENDCHAR
STARTCHAR 0027
ENCODING 39
SWIDTH 274 0
DWIDTH 8 0
BBX 4 5 2 16
BITMAP
F0
F0
F0
F0
F0
ENDCHAR
STARTCHAR 0028
ENCODING 40
SWIDTH 445 0
DWIDTH 13 0
BBX 8 30 4 -6
BITMAP
04
0E
0F
1E
3E
3C
38
78
78
70
F0
F0
F0
F0
F0
F0
F0
F0
F0
F0
70
70
78
78
3C
3C
1E
1F
0F
0E
ENDCHAR
STARTCHAR 0029
ENCODING 41
SWIDTH 445 0
DWIDTH 13 0
BBX 8 30 1 -6
BITMAP
30
70
F8
78
3C
3C
1E
1E
0E
0F
0F
0F
07
07
07
07
07
07
07
0F
0F
0F
0E
1E
1E
3C
3C
78
F8
30
ENDCHAR
STARTCHAR 002A
ENCODING 42
SWIDTH 480 0
DWIDTH 14 0
BBX 11 10 1 10
BITMAP
0E00
0E00
4E40
FFC0
FFE0
FFE0
1F00
3F80
7BC0
3380
ENDCHAR
STARTCHAR 002B
ENCODING 43
SWIDTH 582 0
DWIDTH 17 0
BBX 13 13 2 4
BITMAP
0700
0700
0700
0700
0700
FFF8
FFF8
FFF8
0700
0700
0700
0700
0700
ENDCHAR
STARTCHAR 002C
ENCODING 44
SWIDTH 308 0
DWIDTH 9 0
BBX 4 8 2 -4
BITMAP
F0
F0
F0
F0
30
30
E0
C0
ENDCHAR
STARTCHAR 002D
ENCODING 45
SWIDTH 411 0
DWIDTH 12 0
BBX 9 3 2 8
BITMAP
FF80
FF80
FF80
ENDCHAR
STARTCHAR 002E
ENCODING 46
SWIDTH 308 0
DWIDTH 9 0
BBX 4 4 3 0
BITMAP
F0
F0
F0
F0
ENDCHAR
STARTCHAR 002F
ENCODING 47
SWIDTH 445 0
DWIDTH 13 0
BBX 9 21 2 0
BITMAP
0780
0780
0780
0F00
0F00
0F00
0F00
1E00
1E00
1E00
1E00
3C00
3C00
3C00
7800
7800
7800
7800
F000
F000
F000
ENDCHAR
STARTCHAR 0030
ENCODING 48
SWIDTH 685 0
DWIDTH 20 0
BBX 16 21 2 0
BITMAP
07E0
1FF8
3FFC
7FFE
7C3E
F81E
F01F
F00F
F00F
F00F
F00F
F00F
F00F
F00F
F01F
F81E
783E
7FFE
3FFC
1FF8
07E0
ENDCHAR
STARTCHAR 0031
ENCODING 49
SWIDTH 445 0
DWIDTH 13 0
BBX 8 21 2 0
BITMAP
1F
7F
FF
FF
EF
CF
0F
0F
0F
0F
0F
0F
0F
0F
0F
0F
0F
0F
0F
0F
0F
ENDCHAR
STARTCHAR 0032
ENCODING 50
SWIDTH 617 0
DWIDTH 18 0
BBX 15 21 1 0
BITMAP
07E0
1FF8
3FFC
7FFC
7C3E
781E
F81E
001E
001E
003E
007C
01F8
03F0
07E0
0FC0
1F80
3F00
7FFE
FFFE
FFFE
FFFE
ENDCHAR
STARTCHAR 0033
ENCODING 51
SWIDTH 582 0
DWIDTH 17 0
BBX 14 21 1 0
BITMAP
7FFC
7FFC
7FFC
7FFC
00F8
01F0
03E0
07C0
0FF0
0FF8
07FC
007C
003C
003C
003C
303C
F87C
7FFC
3FF8
1FF0
07C0
ENDCHAR
STARTCHAR 0034
ENCODING 52
SWIDTH 617 0
DWIDTH 18 0
BBX 15 21 1 0
BITMAP
01E0
03E0
03C0
07C0
07C0
0F80
0F80
0F00
1F00
1E3C
3E3C
3C3C
7C3C
783C
FFFE
FFFE
FFFE
FFFE
003C
003C
003C
ENDCHAR
STARTCHAR 0035
ENCODING 53
SWIDTH 582 0
DWIDTH 17 0
BBX 14 21 2 0
BITMAP
7FF0
7FF0
7FF0
7FF0
7000
7000
F000
F000
FFE0
FFF0
FFF8
30F8
007C
003C
003C
607C
F0F8
FFF8
7FF0
3FE0
0F80
ENDCHAR
STARTCHAR 0036
ENCODING 54
SWIDTH 617 0
DWIDTH 18 0
BBX 15 21 2 0
BITMAP
07E0
1FF8
3FF8
7FF0
7820
F000
F000
F000
FFF0
FFF8
FFFC
FC7C
F83C
F01E
F01E
F03E
787C
7FFC
3FF8
1FF0
07C0
ENDCHAR
STARTCHAR 0037
ENCODING 55
SWIDTH 548 0
DWIDTH 16 0
BBX 13 21 1 0
BITMAP
FFF8
FFF8
FFF8
FFF8
0078
00F8
00F0
00F0
01E0
01E0
03E0
03C0
03C0
0780
0780
0F80
0F00
0F00
1E00
1E00
3E00
ENDCHAR
STARTCHAR 0038
ENCODING 56
SWIDTH 617 0
DWIDTH 18 0
BBX 14 21 2 0
BITMAP
0FC0
3FF0
7FF8
7FF8
F87C
F83C
F83C
787C
7FF8
3FF0
7FF8
FFFC
F87C
F03C
F03C
F03C
F87C
FFFC
7FF8
3FF0
0FC0
ENDCHAR
STARTCHAR 0039
ENCODING 57
SWIDTH 617 0
DWIDTH 18 0
BBX 15 21 1 0
BITMAP
07C0
1FF0
3FF8
7FFC
7C3E
781E
F01E
F81E
781E
7C7E
7FFE
3FFE
1FFE
011E
001E
001E
083E
1FFC
3FF8
3FF0
0FC0
ENDCHAR
STARTCHAR 003A
ENCODING 58
SWIDTH 342 0
DWIDTH 10 0
BBX 4 12 3 2
BITMAP
F0
F0
F0
F0
00
00
00
00
F0
F0
F0
F0
ENDCHAR
STARTCHAR 003B
ENCODING 59
SWIDTH 342 0
DWIDTH 10 0
BBX 4 20 3 -4
BITMAP
F0
F0
F0
F0
00
00
00
00
00
00
00
00
F0
F0
F0
F0
30
30
F0
E0
ENDCHAR
STARTCHAR 003C
ENCODING 60
SWIDTH 651 0
DWIDTH 19 0
BBX 9 14 5 2
BITMAP
0200
0700
0F00
1E00
3C00
7800
F000
F000
7800
3C00
1F00
0F80
0700
0200
ENDCHAR
STARTCHAR 003D
ENCODING 61
SWIDTH 754 0
DWIDTH 22 0
BBX 15 9 3 6
BITMAP
FFFE
FFFE
FFFE
0000
0000
0000
FFFE
FFFE
FFFE
ENDCHAR
STARTCHAR 003E
ENCODING 62
SWIDTH 651 0
DWIDTH 19 0
BBX 9 14 5 2
BITMAP
2000
7000
F800
7C00
3E00
1F00
0780
0F80
1F00
3E00
7C00
F800
7000
2000
ENDCHAR
STARTCHAR 003F
ENCODING 63
SWIDTH 548 0
DWIDTH 16 0
BBX 14 21 1 0
BITMAP
0FC0
1FF0
3FF8
7FF8
787C
F83C
003C
007C
0078
00F8
01F0
03E0
07C0
0780
0780
0000
0000
0780
0780
0780
0780
ENDCHAR
STARTCHAR 0040
ENCODING 64
SWIDTH 925 0
DWIDTH 27 0
BBX 22 22 2 -3
BITMAP
00FE00
07FF80
0FFFE0
1F83F0
3E00F0
3C0078
78FF3C
71FF3C
73FF1C
F3C71C
F3871C
F7831C
F3871C
F3C79C
73FFFC
71FFF8
78F8F0
3C0000
1F0000
0FFE00
07FE00
01FE00
ENDCHAR
STARTCHAR 0041
ENCODING 65
SWIDTH 685 0
DWIDTH 20 0
BBX 18 21 1 0
BITMAP
03F000
03F000
07F800
07F800
07F800
0F7C00
0F3C00
0F3C00
1E3E00
1E1E00
1E1E00
3E1E00
3C0F00
3FFF00
3FFF00
7FFF80
7FFF80
780780
F007C0
F003C0
F003C0
ENDCHAR
STARTCHAR 0042
ENCODING 66
SWIDTH 651 0
DWIDTH 19 0
BBX 16 21 2 0
BITMAP
FFE0
FFF8
FFFC
FFFC
F03E
F01E
F01E
F03E
FFFC
FFF8
FFFC
FFFE
F01E
F01F
F00F
F00F
F01F
FFFE
FFFE
FFFC
FFF0
ENDCHAR
STARTCHAR 0043
ENCODING 67
SWIDTH 754 0
DWIDTH 22 0
BBX 20 21 1 0
BITMAP
01F800
0FFF00
1FFF80
3FFFC0
7E07E0
7C03E0
F801F0
F00000
F00000
F00000
F00000
F00000
F00000
F80000
F801F0
7C03E0
7E07E0
3FFFC0
1FFF80
0FFF00
01FC00
ENDCHAR
STARTCHAR 0044
ENCODING 68
SWIDTH 720 0
DWIDTH 21 0
BBX 17 21 2 0
BITMAP
FFE000
FFF800
FFFC00
FFFE00
F01F00
F00F00
F00F80
F00780
F00780
F00780
F00780
F00780
F00780
F00780
F00F80
F00F00
F01F00
FFFE00
FFFC00
FFF800
FFE000
ENDCHAR
STARTCHAR 0045
ENCODING 69
SWIDTH 582 0
DWIDTH 17 0
BBX 14 21 2 0
BITMAP
FFFC
FFFC
FFFC
FFFC
F000
F000
F000
F000
FFF0
FFF0
FFF0
FFF0
F000
F000
F000
F000
F000
FFFC
FFFC
FFFC
FFFC
ENDCHAR
STARTCHAR 0046
ENCODING 70
SWIDTH 514 0
DWIDTH 15 0
BBX 13 21 2 0
BITMAP
FFF8
FFF8
FFF8
FFF8
F000
F000
F000
F000
FFE0
FFE0
FFE0
FFE0
F000
F000
F000
F000
F000
F000
F000
F000
F000
ENDCHAR
STARTCHAR 0047
ENCODING 71
SWIDTH 754 0
DWIDTH 22 0
BBX 20 21 1 0
BITMAP
01F800
0FFF00
1FFF80
3FFFC0
7E07C0
7C03E0
F801E0
F80100
F00000
F00000
F00FF0
F00FF0
F00FF0
F001E0
F801E0
7C03E0
7E07C0
3FFFC0
1FFF80
0FFE00
03F800
ENDCHAR
STARTCHAR 0048
ENCODING 72
SWIDTH 720 0
DWIDTH 21 0
BBX 17 21 2 0
BITMAP
F00780
F00780
F00780
F00780
F00780
F00780
F00780
F00780
FFFF80
FFFF80
FFFF80
FFFF80
F00780
F00780
F00780
F00780
F00780
F00780
F00780
F00780
F00780
ENDCHAR
STARTCHAR 0049
ENCODING 73
SWIDTH 308 0
DWIDTH 9 0
BBX 4 21 2 0
BITMAP
F0
F0
F0
F0
F0
F0
F0
F0
F0
F0
F0
F0
F0
F0
F0
F0
F0
F0
F0
F0
F0
ENDCHAR
STARTCHAR 004A
ENCODING 74
SWIDTH 514 0
DWIDTH 15 0
BBX 13 21 0 0
BITMAP
0078
0078
0078
0078
0078
0078
0078
0078
0078
0078
0078
0078
0078
0078
0078
10F8
F8F8
FFF0
7FF0
3FE0
0F80
ENDCHAR
STARTCHAR 004B
ENCODING 75
SWIDTH 651 0
DWIDTH 19 0
BBX 17 21 2 0
BITMAP
F00F00
F01F00
F03E00
F07C00
F0F800
F1F000
F1E000
F3C000
F7C000
FF8000
FF0000
FF8000
F7C000
F3E000
F1F000
F0F800
F0F800
F07C00
F03E00
F01F00
F00F80
ENDCHAR
STARTCHAR 004C
ENCODING 76
SWIDTH 548 0
DWIDTH 16 0
BBX 13 21 2 0
BITMAP
F000
F000
F000
F000
F000
F000
F000
F000
F000
F000
F000
F000
F000
F000
F000
F000
F000
FFF8
FFF8
FFF8
FFF8
ENDCHAR
STARTCHAR 004D
ENCODING 77
SWIDTH 857 0
DWIDTH 25 0
BBX 21 21 2 0
BITMAP
F00078
F00078
F800F8
F800F8
FC01F8
FC01F8
FE03F8
FE03F8
FF07F8
FF07F8
F78F78
F78F78
F3DE78
F3DE78
F1FC78
F1FC78
F0F878
F0F878
F07078
F07078
F02078
ENDCHAR
STARTCHAR 004E
ENCODING 78
SWIDTH 720 0
DWIDTH 21 0
BBX 17 21 2 0
BITMAP
F00780
F80780
FC0780
FC0780
FE0780
FF0780
FF0780
FF8780
F7C780
F3C780
F3E780
F1F780
F0F780
F0FF80
F07F80
F03F80
F03F80
F01F80
F00F80
F00F80
F00780
ENDCHAR
STARTCHAR 004F
ENCODING 79
SWIDTH 754 0
DWIDTH 22 0
BBX 20 21 1 0
BITMAP
01FC00
0FFF00
1FFF80
3FFFC0
7E07E0
7C03E0
F801F0
F000F0
F000F0
F000F0
F000F0
F000F0
F000F0
F000F0
F801F0
7C03E0
7E07E0
3FFFC0
1FFF80
0FFF00
01FC00
ENDCHAR
STARTCHAR 0050
ENCODING 80
SWIDTH 651 0
DWIDTH 19 0
BBX 16 21 2 0
BITMAP
FFF0
FFFC
FFFE
FFFE
F01F
F00F
F00F
F00F
F00F
F01F
FFFE
FFFE
FFFC
FFF0
F000
F000
F000
F000
F000
F000
F000
ENDCHAR
STARTCHAR 0051
ENCODING 81
SWIDTH 754 0
DWIDTH 22 0
BBX 20 21 1 0
BITMAP
01FC00
0FFF00
1FFF80
3FFFC0
7E07E0
7C03E0
F801F0
F000F0
F000F0
F000F0
F000F0
F000F0
F000F0
F006F0
F80FF0
7C0FE0
7E07E0
3FFFE0
1FFFF0
0FFFE0
01FC40
ENDCHAR
STARTCHAR 0052
ENCODING 82
SWIDTH 685 0
DWIDTH 20 0
BBX 16 21 2 0
BITMAP
FFF0
FFFC
FFFE
FFFE
F01F
F00F
F00F
F00F
F00F
F01F
FFFE
FFFE
FFFC
FFF8
F078
F07C
F03C
F03E
F01E
F01F
F00F
ENDCHAR
STARTCHAR 0053
ENCODING 83
SWIDTH 685 0
DWIDTH 20 0
BBX 17 21 1 0
BITMAP
07F000
1FFC00
3FFE00
3FFF00
7C1F80
780F80
780400
7C0000
7FC000
3FF800
0FFE00
03FF00
003F80
000780
F80780
F80780
7C0F80
7FFF80
3FFF00
1FFE00
03F800
ENDCHAR
STARTCHAR 0054
ENCODING 84
SWIDTH 617 0
DWIDTH 18 0
BBX 18 21 0 0
BITMAP
FFFFC0
FFFFC0
FFFFC0
FFFFC0
01E000
01E000
01E000
01E000
01E000
01E000
01E000
01E000
01E000
01E000
01E000
01E000
01E000
01E000
01E000
01E000
01E000
ENDCHAR
STARTCHAR 0055
ENCODING 85
SWIDTH 720 0
DWIDTH 21 0
BBX 17 21 2 0
BITMAP
F00780
F00780
F00780
F00780
F00780
F00780
F00780
F00780
F00780
F00780
F00780
F00780
F00780
F00780
F00780
F80F80
7C1F00
7FFF00
3FFE00
1FFC00
07F000
ENDCHAR
STARTCHAR 0056
ENCODING 86
SWIDTH 651 0
DWIDTH 19 0
BBX 19 21 0 0
BITMAP
F001E0
7803C0
7803C0
7803C0
3C07C0
3C0780
3C0780
3E0F80
1E0F00
1E0F00
1E0F00
0F1E00
0F1E00
0F1E00
07BC00
07BC00
07BC00
07FC00
03F800
03F800
03F800
ENDCHAR
STARTCHAR 0057
ENCODING 87
SWIDTH 994 0
DWIDTH 29 0
BBX 28 21 0 0
BITMAP
F80F80F0
780F80F0
780F80F0
781F81F0
3C1FC1E0
3C1FC1E0
3C1FC1E0
3E3DE3C0
1E3DE3C0
1E3DE3C0
1E79E380
0F78F780
0F78F780
0F70F780
07F07F00
07F07F00
07F07F00
07E07E00
03E03E00
03E03E00
03C03E00
ENDCHAR
STARTCHAR 0058
ENCODING 88
SWIDTH 685 0
DWIDTH 20 0
BBX 18 21 1 0
BITMAP
F807C0
F80F80
7C0F00
3E1F00
3E3E00
1F3E00
0FFC00
0FF800
07F800
03F000
03E000
03F000
07F800
0FF800
0F7C00
1F3E00
3E1E00
3C1F00
7C0F80
F80F80
F807C0
ENDCHAR
STARTCHAR 0059
ENCODING 89
SWIDTH 617 0
DWIDTH 18 0
BBX 18 21 0 0
BITMAP
F807C0
7C07C0
7C0F80
3E0F00
1E1F00
1F1E00
0F3E00
0FFC00
07F800
07F800
03F000
01F000
01E000
01E000
01E000
01E000
01E000
01E000
01E000
01E000
01E000
ENDCHAR
STARTCHAR 005A
ENCODING 90
SWIDTH 685 0
DWIDTH 20 0
BBX 17 21 1 0
BITMAP
7FFF80
7FFF80
7FFF00
7FFF00
003E00
007C00
007C00
00F800
00F800
01F000
03E000
03E000
07C000
07C000
0F8000
1F8000
1F0000
3FFF80
3FFF80
7FFF80
FFFF80
ENDCHAR
STARTCHAR 005B
ENCODING 91
SWIDTH 445 0
DWIDTH 13 0
BBX 7 33 4 -6
BITMAP
FE
FE
FE
FE
F0
F0
F0
F0
F0
F0
F0
F0
F0
F0
F0
F0
F0
F0
F0
F0
F0
F0
F0
F0
F0
F0
F0
F0
F0
FE
FE
FE
FE
ENDCHAR
STARTCHAR 005C
ENCODING 92
SWIDTH 445 0
DWIDTH 13 0
BBX 9 21 2 0
BITMAP
F000
F000
F000
7800
7800
7800
7800
3C00
3C00
3C00
1E00
1E00
1E00
1E00
0F00
0F00
0F00
0F00
0780
0780
0780
ENDCHAR
STARTCHAR 005D
ENCODING 93
SWIDTH 445 0
DWIDTH 13 0
BBX 6 33 2 -6
BITMAP
FC
FC
FC
FC
1C
1C
1C
1C
1C
1C
1C
1C
1C
1C
1C
1C
1C
1C
1C
1C
1C
1C
1C
1C
1C
1C
1C
1C
1C
FC
FC
FC
FC
ENDCHAR
STARTCHAR 005E
ENCODING 94
SWIDTH 685 0
DWIDTH 20 0
BBX 14 10 3 11
BITMAP
0100
0380
07C0
0FE0
1FF0
3CF8
787C
F03C
7018
2000
ENDCHAR
STARTCHAR 005F
ENCODING 95
SWIDTH 651 0
DWIDTH 19 0
BBX 19 3 0 -4
BITMAP
FFFFE0
FFFFE0
FFFFE0
ENDCHAR
STARTCHAR 0060
ENCODING 96
SWIDTH 548 0
DWIDTH 16 0
BBX 5 6 5 23
BITMAP
E0
E0
70
70
38
38
ENDCHAR
STARTCHAR 0061
ENCODING 97
SWIDTH 582 0
DWIDTH 17 0
BBX 14 16 1 0
BITMAP
0FE0
1FF8
3FF8
7FFC
783C
003C
07FC
3FFC
7FFC
FC3C
F03C
F07C
F8FC
7FFC
7FDC
1F1C
ENDCHAR
STARTCHAR 0062
ENCODING 98
SWIDTH 617 0
DWIDTH 18 0
BBX 15 21 2 0
BITMAP
F000
F000
F000
F000
F000
F7C0
FFF0
FFF8
FFFC
F83C
F03E
F01E
F01E
F01E
F01E
F03E
F83C
FFFC
FFF8
FFF0
F7C0
ENDCHAR
STARTCHAR 0063
ENCODING 99
SWIDTH 582 0
DWIDTH 17 0
BBX 15 16 1 0
BITMAP
07E0
1FF8
3FFC
7FFE
7C3E
F81C
F800
F000
F000
F800
F818
7C3E
7FFC
3FFC
1FF8
07E0
ENDCHAR
STARTCHAR 0064
ENCODING 100
SWIDTH 617 0
DWIDTH 18 0
BBX 15 21 1 0
BITMAP
001E
001E
001E
001E
001E
07DE
1FFE
3FFE
7FFE
7C1E
F81E
F80E
F00E
F00E
F80E
F81E
7C1E
7FFE
3FFE
1FFE
07CE
ENDCHAR
STARTCHAR 0065
ENCODING 101
SWIDTH 617 0
DWIDTH 18 0
BBX 16 16 1 0
BITMAP
07E0
1FF8
3FFC
7F7C
781E
F81E
FFFE
FFFF
FFFF
F800
F810
7C1E
7FFE
3FFC
1FF8
07E0
ENDCHAR
STARTCHAR 0066
ENCODING 102
SWIDTH 377 0
DWIDTH 11 0
BBX 10 21 1 0
BITMAP
07C0
1FC0
1FC0
3E00
3C00
FFC0
FFC0
FFC0
3C00
3C00
3C00
3C00
3C00
3C00
3C00
3C00
3C00
3C00
3C00
3C00
3C00
ENDCHAR
STARTCHAR 0067
ENCODING 103
SWIDTH 617 0
DWIDTH 18 0
BBX 15 23 1 -7
BITMAP
07CE
1FFE
3FFE
7FFE
7C1E
F81E
F80E
F00E
F00E
F80E
F81E
7C1E
7FFE
3FFE
1FFE
07DE
001E
001E
0C3E
3FFE
3FFC
1FF8
07E0
ENDCHAR
STARTCHAR 0068
ENCODING 104
SWIDTH 651 0
DWIDTH 19 0
BBX 15 21 2 0
BITMAP
F000
F000
F000
F000
F000
F3E0
FFF8
FFFC
FFFC
F83C
F03E
F01E
F01E
F01E
F01E
F01E
F01E
F01E
F01E
F01E
F01E
ENDCHAR
STARTCHAR 0069
ENCODING 105
SWIDTH 308 0
DWIDTH 9 0
BBX 4 21 2 0
BITMAP
F0
F0
F0
F0
00
F0
F0
F0
F0
F0
F0
F0
F0
F0
F0
F0
F0
F0
F0
F0
F0
ENDCHAR
STARTCHAR 006A
ENCODING 106
SWIDTH 308 0
DWIDTH 9 0
BBX 7 28 0 -7
BITMAP
1E
1E
1E
1E
00
1E
1E
1E
1E
1E
1E
1E
1E
1E
1E
1E
1E
1E
1E
1E
1E
1E
1E
3E
FE
FC
FC
F8
ENDCHAR
STARTCHAR 006B
ENCODING 107
SWIDTH 548 0
DWIDTH 16 0
BBX 14 21 2 0
BITMAP
F000
F000
F000
F000
F000
F07C
F0F8
F0F8
F1F0
F3E0
F3C0
F7C0
FF80
FF80
F7C0
F3E0
F3E0
F1F0
F0F8
F0FC
F07C
ENDCHAR
STARTCHAR 006C
ENCODING 108
SWIDTH 308 0
DWIDTH 9 0
BBX 4 21 2 0
BITMAP
F0
F0
F0
F0
F0
F0
F0
F0
F0
F0
F0
F0
F0
F0
F0
F0
F0
F0
F0
F0
F0
ENDCHAR
STARTCHAR 006D
ENCODING 109
SWIDTH 925 0
DWIDTH 27 0
BBX 23 16 2 0
BITMAP
F3E1F0
FFF3F8
FFFFFC
FFFFFE
F87C3E
F07C1E
F0781E
F0381E
F0381E
F0381E
F0381E
F0381E
F0381E
F0381E
F0381E
F0381E
ENDCHAR
STARTCHAR 006E
ENCODING 110
SWIDTH 651 0
DWIDTH 19 0
BBX 15 17 2 0
BITMAP
01C0
FFF8
FFF8
FFFC
FC7C
F83E
F03E
F01E
F01E
F01E
F01E
F01E
F01E
F01E
F01E
F01E
F01E
ENDCHAR
STARTCHAR 006F
ENCODING 111
SWIDTH 617 0
DWIDTH 18 0
BBX 16 16 1 0
BITMAP
07E0
1FF8
3FFC
7FFE
7C1E
F81F
F80F
F00F
F00F
F80F
F81F
7C1E
7FFE
3FFC
1FF8
07E0
ENDCHAR
STARTCHAR 0070
ENCODING 112
SWIDTH 617 0
DWIDTH 18 0
BBX 15 23 2 -7
BITMAP
F7C0
FFF0
FFF8
FFFC
F83C
F03E
F01E
F01E
F01E
F01E
F03E
F83C
FFFC
FFF8
FFF0
F7C0
F000
F000
F000
F000
F000
F000
F000
ENDCHAR
STARTCHAR 0071
ENCODING 113
SWIDTH 617 0
DWIDTH 18 0
BBX 15 23 1 -7
BITMAP
07CE
1FFE
3FFE
7FFE
7C1E
F81E
F00E
F00E
F00E
F80E
F81E
7C1E
7FFE
3FFE
1FFE
07DE
001E
001E
001E
001E
001E
001E
001E
ENDCHAR
STARTCHAR 0072
ENCODING 114
SWIDTH 411 0
DWIDTH 12 0
BBX 9 16 2 0
BITMAP
F380
FF80
FF80
FF80
F800
F800
F000
F000
F000
F000
F000
F000
F000
F000
F000
F000
ENDCHAR
STARTCHAR 0073
ENCODING 115
SWIDTH 548 0
DWIDTH 16 0
BBX 14 16 1 0
BITMAP
0FC0
3FF0
7FF8
7DF8
787C
7800
7F80
3FF0
0FF8
01FC
103C
F83C
7EFC
7FF8
3FF0
0FC0
ENDCHAR
STARTCHAR 0074
ENCODING 116
SWIDTH 445 0
DWIDTH 13 0
BBX 11 20 0 0
BITMAP
1E00
1E00
1E00
1E00
FFE0
FFE0
FFE0
1E00
1E00
1E00
1E00
1E00
1E00
1E00
1E00
1E00
1F80
1FE0
0FE0
03E0
ENDCHAR
STARTCHAR 0075
ENCODING 117
SWIDTH 651 0
DWIDTH 19 0
BBX 15 17 2 -1
BITMAP
F01E
F01E
F01E
F01E
F01E
F01E
F01E
F01E
F03E
F03E
F03E
F83E
F87E
7FFE
7FFE
3FDE
0F00
ENDCHAR
STARTCHAR 0076
ENCODING 118
SWIDTH 582 0
DWIDTH 17 0
BBX 15 16 1 0
BITMAP
F01E
F01C
F03C
783C
7878
3878
3C78
3CF0
1CF0
1EF0
1FE0
0FE0
0FE0
0FC0
07C0
0780
ENDCHAR
STARTCHAR 0077
ENCODING 119
SWIDTH 822 0
DWIDTH 24 0
BBX 22 16 1 0
BITMAP
F0783C
F0783C
F0F838
78FC78
78FC78
78FC78
39FEF0
3DDEF0
3DCEF0
3FCFE0
1F8FE0
1F87E0
1F87C0
0F07C0
0F03C0
0F03C0
ENDCHAR
STARTCHAR 0078
ENCODING 120
SWIDTH 548 0
DWIDTH 16 0
BBX 15 16 1 0
BITMAP
F03E
F87C
7C78
3CF8
1FF0
1FE0
0FC0
07C0
07C0
0FE0
1FE0
3FF0
3CF8
7C78
F87C
F03E
ENDCHAR
STARTCHAR 0079
ENCODING 121
SWIDTH 582 0
DWIDTH 17 0
BBX 16 23 0 -7
BITMAP
F80F
780F
780F
3C1E
3C1E
1E1C
1E3C
1E3C
0F78
0F78
0778
07F0
07F0
03E0
03E0
01E0
03C0
03C0
0380
0780
0780
0700
0F00
ENDCHAR
STARTCHAR 007A
ENCODING 122
SWIDTH 548 0
DWIDTH 16 0
BBX 13 16 1 0
BITMAP
FFF8
FFF8
FFF0
01F0
01E0
03C0
07C0
0780
0F00
1F00
1E00
3C00
3C00
7FF8
FFF8
FFF8
ENDCHAR
STARTCHAR 007B
ENCODING 123
SWIDTH 445 0
DWIDTH 13 0
BBX 8 32 4 -6
BITMAP
0F
1F
3F
3F
3C
3C
3C
3C
3C
3C
3C
3C
3C
7C
78
F8
F8
78
7C
3C
3C
3C
3C
3C
3C
3C
3C
3C
3F
3F
1F
0F
ENDCHAR
STARTCHAR 007C
ENCODING 124
SWIDTH 308 0
DWIDTH 9 0
BBX 4 21 3 0
BITMAP
F0
F0
F0
F0
F0
F0
F0
F0
F0
F0
F0
F0
F0
F0
F0
F0
F0
F0
F0
F0
F0
ENDCHAR
STARTCHAR 007D
ENCODING 125
SWIDTH 445 0
DWIDTH 13 0
BBX 8 32 1 -6
BITMAP
F0
FC
FC
FC
1E
1E
1E
1E
1E
1E
1E
1E
1E
1E
1F
0F
0F
1F
1E
1E
1E
1E
1E
1E
1E
1E
1E
1E
FC
FC
FC
F0
ENDCHAR
STARTCHAR 007E
ENCODING 126
SWIDTH 720 0
DWIDTH 21 0
BBX 15 7 3 6
BITMAP
3C00
7F0E
FF9E
FFFE
F3FE
F0FE
0078
ENDCHAR
STARTCHAR 00A0
ENCODING 160
SWIDTH 205 0
DWIDTH 6 0
BBX 0 0 0 0
BITMAP
ENDCHAR
STARTCHAR 00A1
ENCODING 161
SWIDTH 377 0
DWIDTH 11 0
BBX 4 21 3 -5
BITMAP
F0
F0
F0
F0
00
F0
F0
F0
F0
F0
F0
F0
F0
F0
F0
F0
F0
F0
F0
F0
F0
ENDCHAR
STARTCHAR 00A2
ENCODING 162
SWIDTH 582 0
DWIDTH 17 0
BBX 15 22 1 -1
BITMAP
01C0
01C0
01C0
0FF0
1FF8
3FFC
7E7E
783E
F818
F000
F000
F000
F800
F818
783E
7FFE
3FFC
1FF8
0FF0
01C0
01C0
01C0
ENDCHAR
STARTCHAR 00A3
ENCODING 163
SWIDTH 582 0
DWIDTH 17 0
BBX 14 21 1 0
BITMAP
03E0
0FF0
1FF8
1FFC
3E3C
3C1C
3C00
3C00
3C00
FFE0
FFE0
FFE0
FFE0
3C00
3C00
3C00
3C00
FFF8
FFF8
FFF8
FFF8
ENDCHAR
STARTCHAR 00A4
ENCODING 164
SWIDTH 685 0
DWIDTH 20 0
BBX 18 17 1 2
BITMAP
200300
73F780
FFFFC0
7FFF80
3F3F00
3C0F00
380700
780780
780780
780780
380700
3C0F00
3F3F00
7FFF80
FFFFC0
73F780
200300
ENDCHAR
STARTCHAR 00A5
ENCODING 165
SWIDTH 617 0
DWIDTH 18 0
BBX 18 21 0 0
BITMAP
F807C0
7C0780
7C0F80
3E0F00
1E1F00
1F3E00
0F3E00
0FFC00
07F800
03F800
1FFE00
1FFE00
1FFE00
01E000
01E000
1FFE00
1FFE00
1FFE00
01E000
01E000
01E000
ENDCHAR
STARTCHAR 00A6
ENCODING 166
SWIDTH 308 0
DWIDTH 9 0
BBX 4 27 3 -6
BITMAP
F0
F0
F0
F0
F0
F0
F0
F0
F0
F0
F0
F0
00
00
00
F0
F0
F0
F0
F0
F0
F0
F0
F0
F0
F0
F0
ENDCHAR
STARTCHAR 00A7
ENCODING 167
SWIDTH 548 0
DWIDTH 16 0
BBX 14 23 1 -4
BITMAP
1FC0
3FE0
7FF0
78F8
7870
7C00
7F80
3FF0
3FF8
7DFC
707C
F03C
FC78
7FF8
3FF0
0FF8
00F8
1878
7878
7EF8
7FF8
3FF0
0FC0
ENDCHAR
STARTCHAR 00A8
ENCODING 168
SWIDTH 582 0
DWIDTH 17 0
BBX 10 4 3 23
BITMAP
F1C0
F1C0
F1C0
F1C0
ENDCHAR
STARTCHAR 00A9
ENCODING 169
SWIDTH 925 0
DWIDTH 27 0
BBX 25 25 1 -2
BITMAP
007F0000
03FFC000
07FFF000
0FFFF800
1F80FC00
3E003E00
7C1E1E00
787F1F00
78FF8F00
F1E3C700
F1C18780
F1C00780
F1C00780
F1C00780
F1C10780
F1E3C700
70FF8F00
787F0F00
7C1E1E00
3E003E00
1F80FC00
0FFFF800
07FFF000
03FFC000
007F0000
ENDCHAR
STARTCHAR 00AA
ENCODING 170
SWIDTH 308 0
DWIDTH 9 0
BBX 7 8 1 8
BITMAP
3C
7E
46
3E
7E
C6
CE
7E
ENDCHAR
STARTCHAR 00AB
ENCODING 171
SWIDTH 617 0
DWIDTH 18 0
BBX 14 13 2 1
BITMAP
0410
0E1C
0E38
1C70
38F0
71E0
F1C0
71E0
38F0
1C70
1E38
0E1C
0410
ENDCHAR
STARTCHAR 00AC
ENCODING 172
SWIDTH 617 0
DWIDTH 18 0
BBX 14 6 2 6
BITMAP
FFFC
FFFC
FFFC
001C
001C
001C
ENDCHAR
STARTCHAR 00AD
ENCODING 173
SWIDTH 411 0
DWIDTH 12 0
BBX 9 3 2 8
BITMAP
FF80
FF80
FF80
ENDCHAR
STARTCHAR 00AE
ENCODING 174
SWIDTH 651 0
DWIDTH 19 0
BBX 15 15 2 8
BITMAP
07C0
1FF0
3FF8
781C
77CE
E64E
E666
E646
E7C6
E6CE
664E
781C
3FF8
1FF0
07E0
ENDCHAR
STARTCHAR 00AF
ENCODING 175
SWIDTH 514 0
DWIDTH 15 0
BBX 8 3 3 25
BITMAP
FF
FF
FF
ENDCHAR
STARTCHAR 00B0
ENCODING 176
SWIDTH 445 0
DWIDTH 13 0
BBX 10 10 1 11
BITMAP
1E00
7F80
7FC0
F3C0
E1C0
E1C0
F3C0
FFC0
7F80
3F00
ENDCHAR
STARTCHAR 00B1
ENCODING 177
SWIDTH 617 0
DWIDTH 18 0
BBX 14 14 2 2
BITMAP
0700
0700
0700
FFFC
FFFC
FFFC
0700
0700
0700
0000
0000
FFFC
FFFC
FFFC
ENDCHAR
STARTCHAR 00B2
ENCODING 178
SWIDTH 411 0
DWIDTH 12 0
BBX 10 13 1 8
BITMAP
1E00
7F80
7380
61C0
01C0
01C0
0380
0700
0E00
3C00
7800
FFC0
FFC0
ENDCHAR
STARTCHAR 00B3
ENCODING 179
SWIDTH 411 0
DWIDTH 12 0
BBX 9 13 1 8
BITMAP
7F80
7F80
0380
0700
1E00
3E00
1F00
0380
0180
0180
E380
7F00
3E00
ENDCHAR
STARTCHAR 00B4
ENCODING 180
SWIDTH 548 0
DWIDTH 16 0
BBX 5 6 6 23
BITMAP
38
38
70
70
70
E0
ENDCHAR
STARTCHAR 00B5
ENCODING 181
SWIDTH 651 0
DWIDTH 19 0
BBX 15 23 2 -7
BITMAP
F01E
F01E
F01E
F01E
F01E
F01E
F01E
F01E
F01E
F01E
F03E
F83E
FC7E
FFFE
FFFE
FFDE
FF00
F000
F000
F000
F000
F000
F000
ENDCHAR
STARTCHAR 00B6
ENCODING 182
SWIDTH 754 0
DWIDTH 22 0
BBX 19 25 1 -4
BITMAP
0FF9E0
3FF9E0
7FF9E0
7FF9E0
FFF9E0
FFF9E0
FFF9E0
FFF9E0
FFF9E0
FFF9E0
7FF9E0
7FF9E0
3FF9E0
0FF9E0
0079E0
0079E0
0079E0
0079E0
0079E0
0079E0
0079E0
0079E0
0079E0
0079E0
0079E0
ENDCHAR
STARTCHAR 00B7
ENCODING 183
SWIDTH 274 0
DWIDTH 8 0
BBX 4 5 2 7
BITMAP
60
F0
F0
F0
70
ENDCHAR
STARTCHAR 00B8
ENCODING 184
SWIDTH 411 0
DWIDTH 12 0
BBX 5 8 4 -7
BITMAP
60
60
F0
F0
38
F8
F0
E0
ENDCHAR
STARTCHAR 00B9
ENCODING 185
SWIDTH 342 0
DWIDTH 10 0
BBX 5 13 2 8
BITMAP
78
F8
F8
B8
38
38
38
38
38
38
38
38
38
ENDCHAR
STARTCHAR 00BA
ENCODING 186
SWIDTH 342 0
DWIDTH 10 0
BBX 8 8 1 8
BITMAP
3C
7E
E3
C3
C3
E3
7E
3C
ENDCHAR
STARTCHAR 00BB
ENCODING 187
SWIDTH 617 0
DWIDTH 18 0
BBX 13 13 2 1
BITMAP
4180
E380
F1C0
79E0
38F0
1C70
0E38
1C70
38F0
79E0
F1C0
E380
4100
ENDCHAR
STARTCHAR 00BC
ENCODING 188
SWIDTH 1062 0
DWIDTH 31 0
BBX 25 21 2 0
BITMAP
78002000
F8007000
F800F000
B800E000
3801C000
3803C000
38078000
38070000
380E0E00
381E1C00
381C1C00
38383800
38703800
00F07300
00E07300
01C0E300
03C0E300
0780FF80
0700FF80
0E000300
02000300
ENDCHAR
STARTCHAR 00BD
ENCODING 189
SWIDTH 1028 0
DWIDTH 30 0
BBX 27 21 2 0
BITMAP
78002000
F8007000
F800F000
B800E000
3801C000
3803C000
38078000
38070000
380E1F80
381E3FC0
383C38E0
383830E0
387000E0
00F000E0
00E001C0
01C00780
03C00F00
07801E00
07003C00
0E003FE0
02003FE0
ENDCHAR
STARTCHAR 00BE
ENCODING 190
SWIDTH 1028 0
DWIDTH 30 0
BBX 28 21 1 0
BITMAP
7F800C00
7F800E00
03801C00
07003C00
1E003800
3E007000
1F00E000
0381E000
0181C380
01838380
E3878700
7F0F0700
3E0E0E00
001C0EE0
003C1CE0
00381CE0
007038E0
00F03FF0
01E03FF0
01C000E0
008000E0
ENDCHAR
STARTCHAR 00BF
ENCODING 191
SWIDTH 548 0
DWIDTH 16 0
BBX 14 22 1 -6
BITMAP
07C0
07C0
07C0
07C0
0000
0000
07C0
0780
0780
0F80
1F00
3E00
7C00
7800
7800
F800
F83C
787C
7FF8
3FF0
1FE0
0780
ENDCHAR
STARTCHAR 00C0
ENCODING 192
SWIDTH 685 0
DWIDTH 20 0
BBX 18 29 1 0
BITMAP
070000
070000
038000
038000
018000
01C000
000000
000000
03F000
03F000
07F800
07F800
07F800
0F3C00
0F3C00
0F3C00
1F3E00
1E1E00
1E1E00
3E1E00
3C0F00
3FFF00
3FFF00
7FFF80
7FFF80
780780
F007C0
F003C0
F003C0
ENDCHAR
STARTCHAR 00C1
ENCODING 193
SWIDTH 685 0
DWIDTH 20 0
BBX 18 29 1 0
BITMAP
003800
003800
007000
007000
00E000
00E000
000000
000000
03F000
03F000
07F800
07F800
07F800
0F7C00
0F3C00
0F3C00
1E3E00
1E1E00
1E1E00
3E1E00
3C0F00
3FFF00
3FFF00
7FFF80
7FFF80
780780
F007C0
F003C0
F003C0
ENDCHAR
STARTCHAR 00C2
ENCODING 194
SWIDTH 685 0
DWIDTH 20 0
BBX 18 28 1 0
BITMAP
01E000
03F000
07F800
0F3C00
1E1C00
000000
000000
03F000
03F000
07F800
07F800
07F800
0F7C00
0F3C00
0F3C00
1E3E00
1E1E00
1E1E00
3E1E00
3C0F00
3FFF00
3FFF00
7FFF80
7FFF80
780780
F007C0
F003C0
F003C0
ENDCHAR
STARTCHAR 00C3
ENCODING 195
SWIDTH 685 0
DWIDTH 20 0
BBX 18 29 1 0
BITMAP
070C00
0FCC00
0FFC00
0CFC00
0C3800
000000
000000
000000
03F000
03F000
07F800
07F800
07F800
0F7C00
0F3C00
0F3C00
1E3E00
1E1E00
1E1E00
3E1E00
3C0F00
3FFF00
3FFF00
7FFF80
7FFF80
780780
F007C0
F003C0
F003C0
ENDCHAR
STARTCHAR 00C4
ENCODING 196
SWIDTH 685 0
DWIDTH 20 0
BBX 18 27 1 0
BITMAP
0F3C00
0F3C00
0F3C00
0F3C00
000000
000000
03F000
03F000
07F800
07F800
07F800
0F7C00
0F3C00
0F3C00
1E3E00
1E1E00
1E1E00
3E1E00
3C0F00
3FFF00
3FFF00
7FFF80
7FFF80
780780
F007C0
F003C0
F003C0
ENDCHAR
STARTCHAR 00C5
ENCODING 197
SWIDTH 685 0
DWIDTH 20 0
BBX 18 30 1 0
BITMAP
01E000
03F000
073800
061800
073800
03F000
03E000
000000
000000
03F000
03F000
07F800
07F800
07F800
0F7C00
0F3C00
0F3C00
1E3E00
1E1E00
1E1E00
3E1E00
3C0F00
3FFF00
3FFF00
7FFF80
7FFF80
780780
F007C0
F003C0
F003C0
ENDCHAR
STARTCHAR 00C6
ENCODING 198
SWIDTH 960 0
DWIDTH 28 0
BBX 25 21 1 0
BITMAP
03FFFF80
03FFFF80
07FFFF80
07FFFF80
079E0000
0F1E0000
0F1E0000
0F1E0000
1E1FFE00
1E1FFE00
1E1FFE00
3E1FFE00
3C1E0000
3FFE0000
3FFE0000
7FFE0000
7FFE0000
781FFF80
F01FFF80
F01FFF80
F01FFF80
ENDCHAR
STARTCHAR 00C7
ENCODING 199
SWIDTH 754 0
DWIDTH 22 0
BBX 20 28 1 -7
BITMAP
01F800
0FFF00
1FFF80
3FFFC0
7E07E0
7C03E0
7801F0
F80000
F00000
F00000
F00000
F00000
F00000
F00000
F801E0
7801E0
7E03E0
3FFFC0
1FFF80
0FFF00
03FC00
006000
00F000
007800
003800
00F800
00F000
004000
ENDCHAR
STARTCHAR 00C8
ENCODING 200
SWIDTH 582 0
DWIDTH 17 0
BBX 14 29 2 0
BITMAP
1C00
0E00
0E00
0700
0700
0300
0000
0000
FFFC
FFFC
FFFC
FFFC
F000
F000
F000
F000
FFF0
FFF0
FFF0
FFF0
F000
F000
F000
F000
F000
FFFC
FFFC
FFFC
FFFC
ENDCHAR
STARTCHAR 00C9
ENCODING 201
SWIDTH 582 0
DWIDTH 17 0
BBX 14 29 2 0
BITMAP
00E0
00E0
01C0
01C0
0380
0380
0000
0000
FFFC
FFFC
FFFC
FFFC
F000
F000
F000
F000
FFF0
FFF0
FFF0
FFF0
F000
F000
F000
F000
F000
FFFC
FFFC
FFFC
FFFC
ENDCHAR
STARTCHAR 00CA
ENCODING 202
SWIDTH 582 0
DWIDTH 17 0
BBX 14 28 2 0
BITMAP
0780
0FC0
1DE0
3CE0
7870
0000
0000
FFFC
FFFC
FFFC
FFFC
F000
F000
F000
F000
FFF0
FFF0
FFF0
FFF0
F000
F000
F000
F000
F000
FFFC
FFFC
FFFC
FFFC
ENDCHAR
STARTCHAR 00CB
ENCODING 203
SWIDTH 582 0
DWIDTH 17 0
BBX 14 27 2 0
BITMAP
3CF0
3CF0
3CF0
3CF0
0000
0000
FFFC
FFFC
FFFC
FFFC
F000
F000
F000
F000
FFF0
FFF0
FFF0
FFF0
F000
F000
F000
F000
F000
FFFC
FFFC
FFFC
FFFC
ENDCHAR
STARTCHAR 00CC
ENCODING 204
SWIDTH 308 0
DWIDTH 9 0
BBX 5 29 1 0
BITMAP
E0
E0
E0
70
70
38
00
00
78
78
78
78
78
78
78
78
78
78
78
78
78
78
78
78
78
78
78
78
78
ENDCHAR
STARTCHAR 00CD
ENCODING 205
SWIDTH 308 0
DWIDTH 9 0
BBX 6 29 2 0
BITMAP
1C
1C
38
38
70
70
00
00
F0
F0
F0
F0
F0
F0
F0
F0
F0
F0
F0
F0
F0
F0
F0
F0
F0
F0
F0
F0
F0
ENDCHAR
STARTCHAR 00CE
ENCODING 206
SWIDTH 308 0
DWIDTH 9 0
BBX 11 28 -1 0
BITMAP
1E00
3F00
7F80
73C0
E1E0
0000
0000
1E00
1E00
1E00
1E00
1E00
1E00
1E00
1E00
1E00
1E00
1E00
1E00
1E00
1E00
1E00
1E00
1E00
1E00
1E00
1E00
1E00
ENDCHAR
STARTCHAR 00CF
ENCODING 207
SWIDTH 308 0
DWIDTH 9 0
BBX 10 27 -1 0
BITMAP
F1C0
F1C0
F1C0
F1C0
0000
0000
1E00
1E00
1E00
1E00
1E00
1E00
1E00
1E00
1E00
1E00
1E00
1E00
1E00
1E00
1E00
1E00
1E00
1E00
1E00
1E00
1E00
ENDCHAR
STARTCHAR 00D0
ENCODING 208
SWIDTH 720 0
DWIDTH 21 0
BBX 19 21 0 0
BITMAP
3FF800
3FFE00
3FFF00
3FFF80
3C07C0
3C03C0
3C03E0
3C01E0
3C01E0
FFC1E0
FFC1E0
FFC1E0
3C01E0
3C01E0
3C03E0
3C03C0
3C07C0
3FFF80
3FFF00
3FFE00
3FF800
ENDCHAR
STARTCHAR 00D1
ENCODING 209
SWIDTH 720 0
DWIDTH 21 0
BBX 17 28 2 0
BITMAP
070C00
0FCC00
0FFC00
0CFC00
003800
000000
000000
F00780
F80780
FC0780
FC0780
FE0780
FF0780
FF0780
FF8780
F7C780
F3C780
F3E780
F1F780
F0F780
F0FF80
F07F80
F03F80
F03F80
F01F80
F00F80
F00F80
F00780
ENDCHAR
STARTCHAR 00D2
ENCODING 210
SWIDTH 754 0
DWIDTH 22 0
BBX 20 28 1 0
BITMAP
038000
01C000
01C000
01C000
00E000
000000
000000
01FC00
0FFF00
1FFF80
3FFFC0
7E07E0
7C03E0
F801F0
F000F0
F000F0
F000F0
F000F0
F000F0
F000F0
F000F0
F801F0
7C03E0
7E07E0
3FFFC0
1FFF80
0FFF00
01FC00
ENDCHAR
STARTCHAR 00D3
ENCODING 211
SWIDTH 754 0
DWIDTH 22 0
BBX 20 28 1 0
BITMAP
001C00
003800
003800
007000
007000
000000
000000
01FC00
0FFF00
1FFF80
3FFFC0
7E07E0
7C03E0
F801F0
F000F0
F000F0
F000F0
F000F0
F000F0
F000F0
F000F0
F801F0
7C03E0
7E07E0
3FFFC0
1FFF80
0FFF00
01FC00
ENDCHAR
STARTCHAR 00D4
ENCODING 212
SWIDTH 754 0
DWIDTH 22 0
BBX 20 28 1 0
BITMAP
00F000
01F800
03FC00
079E00
070E00
000000
000000
01FC00
0FFF00
1FFF80
3FFFC0
7E07E0
7C03E0
F801F0
F000F0
F000F0
F000F0
F000F0
F000F0
F000F0
F000F0
F801F0
7C03E0
7E07E0
3FFFC0
1FFF80
0FFF00
01FC00
ENDCHAR
STARTCHAR 00D5
ENCODING 213
SWIDTH 754 0
DWIDTH 22 0
BBX 20 28 1 0
BITMAP
038600
07E700
07FF00
067E00
061C00
000000
000000
01FC00
0FFF00
1FFF80
3FFFC0
7E07E0
7C03E0
F801F0
F000F0
F000F0
F000F0
F000F0
F000F0
F000F0
F000F0
F801F0
7C03E0
7E07E0
3FFFC0
1FFF80
0FFF00
01FC00
ENDCHAR
STARTCHAR 00D6
ENCODING 214
SWIDTH 754 0
DWIDTH 22 0
BBX 20 27 1 0
BITMAP
079E00
079E00
079E00
079E00
000000
000000
01FC00
0FFF00
1FFF80
3FFFC0
7E07E0
7C03E0
F801F0
F000F0
F000F0
F000F0
F000F0
F000F0
F000F0
F000F0
F801F0
7C03E0
7E07E0
3FFFC0
1FFF80
0FFF00
01FC00
ENDCHAR
STARTCHAR 00D7
ENCODING 215
SWIDTH 514 0
DWIDTH 15 0
BBX 11 11 2 5
BITMAP
60C0
F1E0
7BC0
3F80
1F00
1F00
3F80
7BC0
F1E0
E0E0
4040
ENDCHAR
STARTCHAR 00D8
ENCODING 216
SWIDTH 754 0
DWIDTH 22 0
BBX 20 21 1 0
BITMAP
01F840
0FFFE0
1FFFF0
3FFFE0
7E07E0
7C07E0
F80FF0
F01FF0
F03EF0
F07CF0
F0F8F0
F1F0F0
F3E0F0
FFC0F0
FF81F0
7F03E0
7E07E0
7FFFC0
FFFF80
7FFF00
11FC00
ENDCHAR
STARTCHAR 00D9
ENCODING 217
SWIDTH 720 0
DWIDTH 21 0
BBX 17 29 2 0
BITMAP
070000
030000
038000
038000
01C000
01C000
000000
000000
F00780
F00780
F00780
F00780
F00780
F00780
F00780
F00780
F00780
F00780
F00780
F00780
F00780
F00780
F00780
F80F80
7C1F00
7FFF00
3FFE00
1FFC00
07F000
ENDCHAR
STARTCHAR 00DA
ENCODING 218
SWIDTH 720 0
DWIDTH 21 0
BBX 17 29 2 0
BITMAP
007000
007000
00E000
00E000
00E000
01C000
000000
000000
F00780
F00780
F00780
F00780
F00780
F00780
F00780
F00780
F00780
F00780
F00780
F00780
F00780
F00780
F00780
F80F80
7C1F00
7FFF00
3FFE00
1FFC00
07F000
ENDCHAR
STARTCHAR 00DB
ENCODING 219
SWIDTH 720 0
DWIDTH 21 0
BBX 17 28 2 0
BITMAP
03E000
03E000
077000
0E3800
1E3C00
000000
000000
F00780
F00780
F00780
F00780
F00780
F00780
F00780
F00780
F00780
F00780
F00780
F00780
F00780
F00780
F00780
F80F80
7C1F00
7FFF00
3FFE00
1FFC00
07F000
ENDCHAR
STARTCHAR 00DC
ENCODING 220
SWIDTH 720 0
DWIDTH 21 0
BBX 17 27 2 0
BITMAP
0E3800
0E3800
0E3800
0E3800
000000
000000
F00780
F00780
F00780
F00780
F00780
F00780
F00780
F00780
F00780
F00780
F00780
F00780
F00780
F00780
F00780
F80F80
7C1F00
7FFF00
3FFE00
1FFC00
07F000
ENDCHAR
STARTCHAR 00DD
ENCODING 221
SWIDTH 617 0
DWIDTH 18 0
BBX 18 29 0 0
BITMAP
003800
003000
007000
007000
00E000
00E000
000000
000000
F807C0
7C07C0
7C0F80
3E0F00
1E1F00
1F1E00
0F3E00
0FFC00
07F800
07F800
03F000
01F000
01E000
01E000
01E000
01E000
01E000
01E000
01E000
01E000
01E000
ENDCHAR
STARTCHAR 00DE
ENCODING 222
SWIDTH 651 0
DWIDTH 19 0
BBX 16 21 2 0
BITMAP
F000
F000
F000
FFC0
FFF8
FFFC
FFFE
F03E
F01F
F00F
F00F
F00F
F01F
F03E
FFFE
FFFC
FFF8
FFE0
F000
F000
F000
ENDCHAR
STARTCHAR 00DF
ENCODING 223
SWIDTH 651 0
DWIDTH 19 0
BBX 15 21 2 0
BITMAP
0F80
3FE0
7FF0
FFF8
F878
F078
F078
F078
F1F8
F1F0
F1F8
F1FC
F03E
F01E
F01E
F01E
F03E
F3FE
F3FC
F3F8
F3F0
ENDCHAR
STARTCHAR 00E0
ENCODING 224
SWIDTH 582 0
DWIDTH 17 0
BBX 14 24 1 0
BITMAP
0E00
0E00
0700
0700
0380
0380
0000
0000
0FE0
1FF8
3FF8
7FFC
783C
003C
07FC
3FFC
7FFC
FC3C
F03C
F07C
F8FC
7FFC
7FDC
1F1C
ENDCHAR
STARTCHAR 00E1
ENCODING 225
SWIDTH 582 0
DWIDTH 17 0
BBX 14 24 1 0
BITMAP
0070
00E0
00E0
01C0
01C0
01C0
0000
0000
0FE0
1FF8
3FF8
7FFC
783C
003C
07FC
3FFC
7FFC
FC3C
F03C
F07C
F8FC
7FFC
7FDC
1F1C
ENDCHAR
STARTCHAR 00E2
ENCODING 226
SWIDTH 582 0
DWIDTH 17 0
BBX 14 23 1 0
BITMAP
03C0
07C0
0FE0
1E70
3C78
0000
0000
0FE0
1FF8
3FF8
7FFC
783C
003C
07FC
3FFC
7FFC
FC3C
F03C
F07C
F8FC
7FFC
7FDC
1F1C
ENDCHAR
STARTCHAR 00E3
ENCODING 227
SWIDTH 582 0
DWIDTH 17 0
BBX 14 23 1 0
BITMAP
0E18
1F18
1FF8
19F8
1870
0000
0000
0FE0
1FF8
3FF8
7FFC
783C
003C
07FC
3FFC
7FFC
FE3C
F83C
F03C
F07C
7FFC
7FDC
1F1C
ENDCHAR
STARTCHAR 00E4
ENCODING 228
SWIDTH 582 0
DWIDTH 17 0
BBX 14 22 1 0
BITMAP
1C78
1C78
1C78
1C78
0000
0000
0FE0
1FF8
3FF8
7FFC
783C
003C
07FC
3FFC
7FFC
FC3C
F03C
F07C
F8FC
7FFC
7FDC
1F1C
ENDCHAR
STARTCHAR 00E5
ENCODING 229
SWIDTH 582 0
DWIDTH 17 0
BBX 14 25 1 0
BITMAP
03C0
07E0
0EE0
0C70
0C70
0EE0
07E0
03C0
0000
0FE0
1FF8
3FF8
7FFC
783C
003C
07FC
3FFC
7FFC
7C3C
F03C
F07C
F8FC
7FFC
7FDC
1F1C
ENDCHAR
STARTCHAR 00E6
ENCODING 230
SWIDTH 925 0
DWIDTH 27 0
BBX 25 16 1 0
BITMAP
07E1F800
1FF7FC00
3FFFFE00
7FFFFF00
783E0700
003E0780
01FFFF80
1FFFFF80
7FFFFF80
7C3E0000
F03E0000
F07F0F80
F8FFFF00
7FFFFF00
7FE3FE00
1F81F800
ENDCHAR
STARTCHAR 00E7
ENCODING 231
SWIDTH 582 0
DWIDTH 17 0
BBX 15 23 1 -7
BITMAP
07E0
1FF8
3FFC
7FFC
7C3E
F81C
F800
F000
F000
F000
F810
783E
7FFE
3FFC
1FF8
07E0
0180
03C0
01E0
00E0
03E0
03C0
0300
ENDCHAR
STARTCHAR 00E8
ENCODING 232
SWIDTH 617 0
DWIDTH 18 0
BBX 16 23 1 0
BITMAP
0700
0700
0700
0380
0380
0000
0000
07E0
1FF8
3FFC
7F7C
781E
F81E
FFFE
FFFF
FFFF
F800
F810
7C1E
7FFE
3FFC
1FF8
07E0
ENDCHAR
STARTCHAR 00E9
ENCODING 233
SWIDTH 617 0
DWIDTH 18 0
BBX 16 23 1 0
BITMAP
0070
0070
00E0
00E0
01C0
0000
0000
07E0
1FF8
3FFC
7F7C
781E
F81E
FFFE
FFFF
FFFF
F800
F810
7C1E
7FFE
3FFC
1FF8
07E0
ENDCHAR
STARTCHAR 00EA
ENCODING 234
SWIDTH 617 0
DWIDTH 18 0
BBX 16 23 1 0
BITMAP
03C0
07E0
0FF0
0E78
1C38
0000
0000
07E0
1FF8
3FFC
7F7C
781E
F81E
FFFE
FFFF
FFFF
F800
F810
7C1E
7FFE
3FFC
1FF8
07E0
ENDCHAR
STARTCHAR 00EB
ENCODING 235
SWIDTH 617 0
DWIDTH 18 0
BBX 16 22 1 0
BITMAP
1E78
1E78
1E78
1E78
0000
0000
07E0
1FF8
3FFC
7F7C
781E
F81E
FFFE
FFFF
FFFF
F800
F810
7C1E
7FFE
3FFC
1FF8
07E0
ENDCHAR
STARTCHAR 00EC
ENCODING 236
SWIDTH 308 0
DWIDTH 9 0
BBX 5 24 1 0
BITMAP
C0
E0
E0
70
70
38
00
00
78
78
78
78
78
78
78
78
78
78
78
78
78
78
78
78
ENDCHAR
STARTCHAR 00ED
ENCODING 237
SWIDTH 308 0
DWIDTH 9 0
BBX 6 24 2 0
BITMAP
1C
1C
38
38
70
70
00
00
F0
F0
F0
F0
F0
F0
F0
F0
F0
F0
F0
F0
F0
F0
F0
F0
ENDCHAR
STARTCHAR 00EE
ENCODING 238
SWIDTH 308 0
DWIDTH 9 0
BBX 11 23 -1 0
BITMAP
1F00
1F00
3B80
71C0
F1E0
0000
0000
1E00
1E00
1E00
1E00
1E00
1E00
1E00
1E00
1E00
1E00
1E00
1E00
1E00
1E00
1E00
1E00
ENDCHAR
STARTCHAR 00EF
ENCODING 239
SWIDTH 308 0
DWIDTH 9 0
BBX 10 22 -1 0
BITMAP
F1C0
F1C0
F1C0
F1C0
0000
0000
1E00
1E00
1E00
1E00
1E00
1E00
1E00
1E00
1E00
1E00
1E00
1E00
1E00
1E00
1E00
1E00
ENDCHAR
STARTCHAR 00F0
ENCODING 240
SWIDTH 617 0
DWIDTH 18 0
BBX 15 22 1 1
BITMAP
0730
07F8
07F0
01F8
03F8
01BC
009C
07DE
1FFE
3FFE
7FFE
783E
F01E
F01E
F01E
F01E
F01E
783E
7FFC
3FFC
1FF8
07E0
ENDCHAR
STARTCHAR 00F1
ENCODING 241
SWIDTH 651 0
DWIDTH 19 0
BBX 15 23 2 0
BITMAP
1C38
3F38
3FF8
39F0
00E0
0000
01C0
FFF8
FFF8
FFFC
FC7C
F83E
F03E
F01E
F01E
F01E
F01E
F01E
F01E
F01E
F01E
F01E
F01E
ENDCHAR
STARTCHAR 00F2
ENCODING 242
SWIDTH 617 0
DWIDTH 18 0
BBX 16 23 1 0
BITMAP
0E00
0700
0700
0380
0380
0000
0000
07E0
1FF8
3FFC
7FFE
7C1E
F81F
F80F
F00F
F00F
F80F
F81F
7C1E
7FFE
3FFC
1FF8
07E0
ENDCHAR
STARTCHAR 00F3
ENCODING 243
SWIDTH 617 0
DWIDTH 18 0
BBX 16 23 1 0
BITMAP
0070
00E0
00E0
01C0
01C0
0000
0000
07E0
1FF8
3FFC
7FFE
7C1E
F81F
F80F
F00F
F00F
F80F
F81F
7C1E
7FFE
3FFC
1FF8
07E0
ENDCHAR
STARTCHAR 00F4
ENCODING 244
SWIDTH 617 0
DWIDTH 18 0
BBX 16 23 1 0
BITMAP
03C0
07E0
0FF0
0E78
1C3C
0000
0000
07E0
1FF8
3FFC
7FFE
7C1E
F81F
F80F
F00F
F00F
F80F
F81F
7C1E
7FFE
3FFC
1FF8
07E0
ENDCHAR
STARTCHAR 00F5
ENCODING 245
SWIDTH 617 0
DWIDTH 18 0
BBX 16 23 1 0
BITMAP
0E18
1F98
1FF8
19F8
1870
0000
0000
07E0
1FF8
3FFC
7FFE
7C1E
F81F
F80F
F00F
F00F
F80F
F81F
7C1E
7FFE
3FFC
1FF8
07E0
ENDCHAR
STARTCHAR 00F6
ENCODING 246
SWIDTH 617 0
DWIDTH 18 0
BBX 16 22 1 0
BITMAP
1E78
1E78
1E78
1E78
0000
0000
07E0
1FF8
3FFC
7FFE
7C1E
F81F
F80F
F00F
F00F
F80F
F81F
7C1E
7FFE
3FFC
1FF8
07E0
ENDCHAR
STARTCHAR 00F7
ENCODING 247
SWIDTH 548 0
DWIDTH 16 0
BBX 12 13 2 4
BITMAP
0F00
0F00
0F00
0F00
0000
FFF0
FFF0
FFF0
0000
0F00
0F00
0F00
0F00
ENDCHAR
STARTCHAR 00F8
ENCODING 248
SWIDTH 617 0
DWIDTH 18 0
BBX 16 16 1 0
BITMAP
07E4
1FFE
3FFF
7FFF
7C3E
F87F
F8FF
F1EF
F3CF
FF8F
FF1F
7C1E
7FFE
FFFC
7FF8
27E0
ENDCHAR
STARTCHAR 00F9
ENCODING 249
SWIDTH 651 0
DWIDTH 19 0
BBX 15 25 2 -1
BITMAP
1C00
0E00
0E00
0700
0700
0700
0000
0000
F01E
F01E
F01E
F01E
F01E
F01E
F01E
F01E
F03E
F03E
F03E
F83E
F87E
7FFE
7FFE
3FDE
0F00
ENDCHAR
STARTCHAR 00FA
ENCODING 250
SWIDTH 651 0
DWIDTH 19 0
BBX 15 25 2 -1
BITMAP
00E0
01C0
01C0
0380
0380
0380
0000
0000
F01E
F01E
F01E
F01E
F01E
F01E
F01E
F01E
F03E
F03E
F03E
F83E
F87E
7FFE
7FFE
3FDE
0F00
ENDCHAR
STARTCHAR 00FB
ENCODING 251
SWIDTH 651 0
DWIDTH 19 0
BBX 15 24 2 -1
BITMAP
0780
0FC0
1FE0
3CF0
3878
0000
0000
F01E
F01E
F01E
F01E
F01E
F01E
F01E
F01E
F03E
F03E
F03E
F83E
F87E
7FFE
7FFE
3FDE
0F00
ENDCHAR
STARTCHAR 00FC
ENCODING 252
SWIDTH 651 0
DWIDTH 19 0
BBX 15 23 2 -1
BITMAP
3CF0
3CF0
3CF0
3CF0
0000
0000
F01E
F01E
F01E
F01E
F01E
F01E
F01E
F01E
F03E
F03E
F03E
F83E
F87E
7FFE
7FFE
3FDE
0F00
ENDCHAR
STARTCHAR 00FD
ENCODING 253
SWIDTH 582 0
DWIDTH 17 0
BBX 16 31 0 -7
BITMAP
0070
0070
00E0
00E0
00E0
01C0
0000
0000
F80F
780F
780F
3C1E
3C1E
1E1C
1E3C
1E3C
0F78
0F78
0778
07F0
07F0
03E0
03E0
01E0
03C0
03C0
0380
0780
0780
0700
0F00
ENDCHAR
STARTCHAR 00FE
ENCODING 254
SWIDTH 617 0
DWIDTH 18 0
BBX 15 28 2 -7
BITMAP
F000
F000
F000
F000
F000
F7C0
FFF0
FFF8
FFFC
F83C
F03E
F01E
F01E
F01E
F01E
F03E
F83C
FFFC
FFF8
FFF0
F7C0
F000
F000
F000
F000
F000
F000
F000
ENDCHAR
STARTCHAR 00FF
ENCODING 255
SWIDTH 582 0
DWIDTH 17 0
BBX 16 29 0 -7
BITMAP
0E38
0E38
0E38
0E38
0000
0000
F80F
780F
780F
3C1E
3C1E
1E1C
1E3C
1E3C
0F78
0F78
0778
07F0
07F0
03E0
03E0
01E0
03C0
03C0
0380
0780
0780
0700
0F00
ENDCHAR
ENDFONT
