STARTFONT 2.1
COMMENT
COMMENT Converted from OpenType font "manrope-bold.otf" by "otf2bdf 3.0".
COMMENT
FONT -FreeType-Manrope-Bold-R-Normal--14-100-100-100-P-68-ISO10646-1
SIZE 10 100 100
FONTBOUNDINGBOX 13 18 0 -4
STARTPROPERTIES 19
FOUNDRY "FreeType"
FAMILY_NAME "Manrope"
WEIGHT_NAME "Bold"
SLANT "R"
SETWIDTH_NAME "Normal"
ADD_STYLE_NAME ""
PIXEL_SIZE 14
POINT_SIZE 100
RESOLUTION_X 100
RESOLUTION_Y 100
SPACING "P"
AVERAGE_WIDTH 68
CHARSET_REGISTRY "ISO10646"
CHARSET_ENCODING "1"
FONT_ASCENT 14
FONT_DESCENT 4
COPYRIGHT "Copyright 2019-2021 The Manrope Project Authors (https://github.com/sharanda/manrope)"
_OTF_FONTFILE "manrope-bold.otf"
_OTF_PSNAME "Manrope-Bold"
ENDPROPERTIES
CHARS 191
STARTCHAR 0020
ENCODING 32
SWIDTH 216 0
DWIDTH 3 0
BBX 0 0 0 0
BITMAP
ENDCHAR
STARTCHAR 0021
ENCODING 33
SWIDTH 360 0
DWIDTH 5 0
BBX 1 10 2 0
BITMAP
80
80
80
80
80
80
80
80
80
80
ENDCHAR
STARTCHAR 0022
ENCODING 34
SWIDTH 432 0
DWIDTH 6 0
BBX 4 3 1 7
BITMAP
F0
F0
F0
ENDCHAR
STARTCHAR 0023
ENCODING 35
SWIDTH 936 0
DWIDTH 13 0
BBX 11 10 1 0
BITMAP
0D80
0980
7FE0
7FE0
1B00
FFC0
FFC0
3200
3600
2600
ENDCHAR
STARTCHAR 0024
ENCODING 36
SWIDTH 648 0
DWIDTH 9 0
BBX 7 12 1 -1
BITMAP
10
7C
EE
C6
C0
78
1E
06
86
EE
7C
10
ENDCHAR
STARTCHAR 0025
ENCODING 37
SWIDTH 936 0
DWIDTH 13 0
BBX 11 10 1 0
BITMAP
7040
D8C0
9980
DB00
7600
0C00
3BC0
7260
E360
41C0
ENDCHAR
STARTCHAR 0026
ENCODING 38
SWIDTH 648 0
DWIDTH 9 0
BBX 8 10 1 0
BITMAP
78
FC
C0
C0
60
F2
9A
CE
FF
79
ENDCHAR
STARTCHAR 0027
ENCODING 39
SWIDTH 288 0
DWIDTH 4 0
BBX 2 3 1 7
BITMAP
C0
C0
C0
ENDCHAR
STARTCHAR 0028
ENCODING 40
SWIDTH 432 0
DWIDTH 6 0
BBX 4 14 2 -2
BITMAP
20
60
60
40
C0
C0
80
80
C0
C0
C0
40
60
30
ENDCHAR
STARTCHAR 0029
ENCODING 41
SWIDTH 432 0
DWIDTH 6 0
BBX 3 14 1 -2
BITMAP
80
C0
40
60
60
20
20
20
20
20
60
60
C0
C0
ENDCHAR
STARTCHAR 002A
ENCODING 42
SWIDTH 432 0
DWIDTH 6 0
BBX 4 4 1 5
BITMAP
60
F0
60
F0
ENDCHAR
STARTCHAR 002B
ENCODING 43
SWIDTH 576 0
DWIDTH 8 0
BBX 6 6 1 2
BITMAP
30
30
FC
30
30
30
ENDCHAR
STARTCHAR 002C
ENCODING 44
SWIDTH 288 0
DWIDTH 4 0
BBX 2 4 1 -2
BITMAP
C0
C0
40
80
ENDCHAR
STARTCHAR 002D
ENCODING 45
SWIDTH 432 0
DWIDTH 6 0
BBX 4 1 1 4
BITMAP
F0
ENDCHAR
STARTCHAR 002E
ENCODING 46
SWIDTH 288 0
DWIDTH 4 0
BBX 2 2 1 0
BITMAP
C0
C0
ENDCHAR
STARTCHAR 002F
ENCODING 47
SWIDTH 432 0
DWIDTH 6 0
BBX 4 10 1 0
BITMAP
30
30
30
20
60
60
40
C0
C0
C0
ENDCHAR
STARTCHAR 0030
ENCODING 48
SWIDTH 648 0
DWIDTH 9 0
BBX 7 10 1 0
BITMAP
3C
7E
C6
C6
C6
C6
C6
C6
7E
3C
ENDCHAR
STARTCHAR 0031
ENCODING 49
SWIDTH 432 0
DWIDTH 6 0
BBX 3 10 1 0
BITMAP
60
E0
A0
20
20
20
20
20
20
20
ENDCHAR
STARTCHAR 0032
ENCODING 50
SWIDTH 576 0
DWIDTH 8 0
BBX 7 10 1 0
BITMAP
78
FC
C4
06
0C
1C
38
60
FE
FE
ENDCHAR
STARTCHAR 0033
ENCODING 51
SWIDTH 576 0
DWIDTH 8 0
BBX 6 10 1 0
BITMAP
FC
FC
18
30
78
0C
04
8C
FC
78
ENDCHAR
STARTCHAR 0034
ENCODING 52
SWIDTH 576 0
DWIDTH 8 0
BBX 7 10 1 0
BITMAP
18
30
30
60
6C
CC
CC
FE
FE
0C
ENDCHAR
STARTCHAR 0035
ENCODING 53
SWIDTH 576 0
DWIDTH 8 0
BBX 6 10 1 0
BITMAP
FC
FC
C0
C0
FC
4C
04
84
FC
78
ENDCHAR
STARTCHAR 0036
ENCODING 54
SWIDTH 648 0
DWIDTH 9 0
BBX 7 10 1 0
BITMAP
3C
7C
C0
C0
FC
C6
C6
C6
7C
38
ENDCHAR
STARTCHAR 0037
ENCODING 55
SWIDTH 504 0
DWIDTH 7 0
BBX 6 10 1 0
BITMAP
FC
FC
08
18
18
30
30
60
60
40
ENDCHAR
STARTCHAR 0038
ENCODING 56
SWIDTH 648 0
DWIDTH 9 0
BBX 7 10 1 0
BITMAP
78
FC
C4
CC
7C
FC
C6
C6
FC
78
ENDCHAR
STARTCHAR 0039
ENCODING 57
SWIDTH 648 0
DWIDTH 9 0
BBX 7 10 1 0
BITMAP
78
FC
C6
86
CE
7E
06
06
7C
78
ENDCHAR
STARTCHAR 003A
ENCODING 58
SWIDTH 360 0
DWIDTH 5 0
BBX 1 6 2 1
BITMAP
80
80
00
00
80
80
ENDCHAR
STARTCHAR 003B
ENCODING 59
SWIDTH 360 0
DWIDTH 5 0
BBX 1 10 2 -2
BITMAP
80
80
00
00
00
00
80
80
80
80
ENDCHAR
STARTCHAR 003C
ENCODING 60
SWIDTH 648 0
DWIDTH 9 0
BBX 4 6 2 1
BITMAP
10
30
60
C0
60
30
ENDCHAR
STARTCHAR 003D
ENCODING 61
SWIDTH 720 0
DWIDTH 10 0
BBX 7 4 2 3
BITMAP
FE
00
00
FE
ENDCHAR
STARTCHAR 003E
ENCODING 62
SWIDTH 648 0
DWIDTH 9 0
BBX 4 7 3 1
BITMAP
80
C0
60
30
60
C0
80
ENDCHAR
STARTCHAR 003F
ENCODING 63
SWIDTH 576 0
DWIDTH 8 0
BBX 6 10 1 0
BITMAP
78
FC
8C
0C
18
30
30
00
30
30
ENDCHAR
STARTCHAR 0040
ENCODING 64
SWIDTH 936 0
DWIDTH 13 0
BBX 11 10 1 -1
BITMAP
1F00
3180
40C0
DF40
D360
D360
DB40
4FC0
6000
3E00
ENDCHAR
STARTCHAR 0041
ENCODING 65
SWIDTH 648 0
DWIDTH 9 0
BBX 9 10 0 0
BITMAP
1C00
1C00
1600
3600
3200
2300
7F00
7F00
6180
C180
ENDCHAR
STARTCHAR 0042
ENCODING 66
SWIDTH 648 0
DWIDTH 9 0
BBX 7 10 1 0
BITMAP
FC
FE
C6
C6
FC
FE
C2
C2
FE
FC
ENDCHAR
STARTCHAR 0043
ENCODING 67
SWIDTH 720 0
DWIDTH 10 0
BBX 9 10 0 0
BITMAP
1E00
3F80
6180
4000
C000
C000
4000
6180
3F80
1E00
ENDCHAR
STARTCHAR 0044
ENCODING 68
SWIDTH 720 0
DWIDTH 10 0
BBX 8 10 1 0
BITMAP
FC
FE
C3
C3
C3
C3
C3
C3
FE
FC
ENDCHAR
STARTCHAR 0045
ENCODING 69
SWIDTH 576 0
DWIDTH 8 0
BBX 6 10 1 0
BITMAP
FC
FC
C0
C0
FC
FC
C0
C0
FC
FC
ENDCHAR
STARTCHAR 0046
ENCODING 70
SWIDTH 504 0
DWIDTH 7 0
BBX 6 10 1 0
BITMAP
FC
FC
C0
C0
F8
F8
C0
C0
C0
C0
ENDCHAR
STARTCHAR 0047
ENCODING 71
SWIDTH 720 0
DWIDTH 10 0
BBX 10 10 0 0
BITMAP
1E00
3F80
6180
4000
C000
C3C0
40C0
6180
3F80
1E00
ENDCHAR
STARTCHAR 0048
ENCODING 72
SWIDTH 720 0
DWIDTH 10 0
BBX 8 10 1 0
BITMAP
C3
C3
C3
C3
FF
FF
C3
C3
C3
C3
ENDCHAR
STARTCHAR 0049
ENCODING 73
SWIDTH 288 0
DWIDTH 4 0
BBX 2 10 1 0
BITMAP
C0
C0
C0
C0
C0
C0
C0
C0
C0
C0
ENDCHAR
STARTCHAR 004A
ENCODING 74
SWIDTH 504 0
DWIDTH 7 0
BBX 6 10 0 0
BITMAP
0C
0C
0C
0C
0C
0C
0C
4C
FC
78
ENDCHAR
STARTCHAR 004B
ENCODING 75
SWIDTH 648 0
DWIDTH 9 0
BBX 8 10 1 0
BITMAP
C6
CC
D8
D8
F0
F0
D8
CC
C6
C7
ENDCHAR
STARTCHAR 004C
ENCODING 76
SWIDTH 504 0
DWIDTH 7 0
BBX 6 10 1 0
BITMAP
C0
C0
C0
C0
C0
C0
C0
C0
FC
FC
ENDCHAR
STARTCHAR 004D
ENCODING 77
SWIDTH 864 0
DWIDTH 12 0
BBX 10 10 1 0
BITMAP
C0C0
C0C0
E1C0
E1C0
F3C0
F2C0
DEC0
DCC0
CCC0
CCC0
ENDCHAR
STARTCHAR 004E
ENCODING 78
SWIDTH 720 0
DWIDTH 10 0
BBX 8 10 1 0
BITMAP
C3
E3
E3
F3
DB
DB
CF
C7
C7
C3
ENDCHAR
STARTCHAR 004F
ENCODING 79
SWIDTH 720 0
DWIDTH 10 0
BBX 10 10 0 0
BITMAP
1E00
3F80
6180
40C0
C0C0
C0C0
40C0
6180
3F80
1E00
ENDCHAR
STARTCHAR 0050
ENCODING 80
SWIDTH 648 0
DWIDTH 9 0
BBX 7 10 1 0
BITMAP
FC
FE
C2
C2
C6
FE
F8
C0
C0
C0
ENDCHAR
STARTCHAR 0051
ENCODING 81
SWIDTH 720 0
DWIDTH 10 0
BBX 10 10 0 0
BITMAP
1E00
3F80
6180
40C0
C0C0
C0C0
40C0
6380
3F80
1E80
ENDCHAR
STARTCHAR 0052
ENCODING 82
SWIDTH 648 0
DWIDTH 9 0
BBX 7 10 1 0
BITMAP
FC
FE
C2
C2
C6
FE
FC
CC
C6
C6
ENDCHAR
STARTCHAR 0053
ENCODING 83
SWIDTH 648 0
DWIDTH 9 0
BBX 8 10 1 0
BITMAP
7C
FE
C6
C0
78
1E
03
C3
FE
7C
ENDCHAR
STARTCHAR 0054
ENCODING 84
SWIDTH 576 0
DWIDTH 8 0
BBX 8 10 0 0
BITMAP
FF
FF
18
18
18
18
18
18
18
18
ENDCHAR
STARTCHAR 0055
ENCODING 85
SWIDTH 720 0
DWIDTH 10 0
BBX 8 10 1 0
BITMAP
C3
C3
C3
C3
C3
C3
C3
C3
7E
3C
ENDCHAR
STARTCHAR 0056
ENCODING 86
SWIDTH 648 0
DWIDTH 9 0
BBX 9 10 0 0
BITMAP
C180
4100
6300
6300
6200
3600
3600
3400
1C00
1C00
ENDCHAR
STARTCHAR 0057
ENCODING 87
SWIDTH 1008 0
DWIDTH 14 0
BBX 13 10 0 0
BITMAP
C318
4718
6718
6790
65B0
2CB0
3CA0
38E0
18E0
1860
ENDCHAR
STARTCHAR 0058
ENCODING 88
SWIDTH 648 0
DWIDTH 9 0
BBX 9 10 0 0
BITMAP
6380
6300
3600
1E00
1C00
1C00
3600
3600
6300
E180
ENDCHAR
STARTCHAR 0059
ENCODING 89
SWIDTH 648 0
DWIDTH 9 0
BBX 8 10 0 0
BITMAP
C3
63
66
34
1C
18
18
18
18
18
ENDCHAR
STARTCHAR 005A
ENCODING 90
SWIDTH 648 0
DWIDTH 9 0
BBX 7 10 1 0
BITMAP
FE
FE
0C
1C
18
30
30
60
FE
FE
ENDCHAR
STARTCHAR 005B
ENCODING 91
SWIDTH 432 0
DWIDTH 6 0
BBX 3 15 2 -3
BITMAP
E0
80
80
80
80
80
80
80
80
80
80
80
80
80
E0
ENDCHAR
STARTCHAR 005C
ENCODING 92
SWIDTH 432 0
DWIDTH 6 0
BBX 4 10 1 0
BITMAP
C0
C0
C0
40
60
60
20
30
30
30
ENDCHAR
STARTCHAR 005D
ENCODING 93
SWIDTH 432 0
DWIDTH 6 0
BBX 3 15 1 -3
BITMAP
E0
60
60
60
60
60
60
60
60
60
60
60
60
60
E0
ENDCHAR
STARTCHAR 005E
ENCODING 94
SWIDTH 648 0
DWIDTH 9 0
BBX 6 4 2 6
BITMAP
20
70
D8
8C
ENDCHAR
STARTCHAR 005F
ENCODING 95
SWIDTH 648 0
DWIDTH 9 0
BBX 9 1 0 -2
BITMAP
FF80
ENDCHAR
STARTCHAR 0060
ENCODING 96
SWIDTH 504 0
DWIDTH 7 0
BBX 2 3 2 11
BITMAP
C0
40
40
ENDCHAR
STARTCHAR 0061
ENCODING 97
SWIDTH 576 0
DWIDTH 8 0
BBX 6 8 1 0
BITMAP
78
FC
0C
7C
EC
8C
DC
F4
ENDCHAR
STARTCHAR 0062
ENCODING 98
SWIDTH 648 0
DWIDTH 9 0
BBX 7 10 1 0
BITMAP
C0
C0
F8
FC
C6
86
86
C6
FC
B8
ENDCHAR
STARTCHAR 0063
ENCODING 99
SWIDTH 576 0
DWIDTH 8 0
BBX 6 8 1 0
BITMAP
78
FC
C4
80
80
C4
FC
78
ENDCHAR
STARTCHAR 0064
ENCODING 100
SWIDTH 648 0
DWIDTH 9 0
BBX 7 10 1 0
BITMAP
06
06
7E
FE
C6
86
86
C6
FE
7E
ENDCHAR
STARTCHAR 0065
ENCODING 101
SWIDTH 576 0
DWIDTH 8 0
BBX 7 8 1 0
BITMAP
78
EC
C6
FE
80
C4
FC
78
ENDCHAR
STARTCHAR 0066
ENCODING 102
SWIDTH 360 0
DWIDTH 5 0
BBX 5 10 0 0
BITMAP
38
20
F8
20
20
20
20
20
20
20
ENDCHAR
STARTCHAR 0067
ENCODING 103
SWIDTH 648 0
DWIDTH 9 0
BBX 7 12 1 -4
BITMAP
7E
FE
C6
86
86
C6
FE
7E
06
4C
7C
30
ENDCHAR
STARTCHAR 0068
ENCODING 104
SWIDTH 648 0
DWIDTH 9 0
BBX 7 10 1 0
BITMAP
80
80
98
FC
C6
C6
C6
C6
C6
C6
ENDCHAR
STARTCHAR 0069
ENCODING 105
SWIDTH 288 0
DWIDTH 4 0
BBX 2 10 1 0
BITMAP
C0
C0
C0
C0
C0
C0
C0
C0
C0
C0
ENDCHAR
STARTCHAR 006A
ENCODING 106
SWIDTH 288 0
DWIDTH 4 0
BBX 3 14 0 -4
BITMAP
60
60
60
60
60
60
60
60
60
60
60
60
E0
C0
ENDCHAR
STARTCHAR 006B
ENCODING 107
SWIDTH 504 0
DWIDTH 7 0
BBX 6 10 1 0
BITMAP
C0
C0
CC
D8
D8
F0
F0
D8
DC
CC
ENDCHAR
STARTCHAR 006C
ENCODING 108
SWIDTH 288 0
DWIDTH 4 0
BBX 2 10 1 0
BITMAP
C0
C0
C0
C0
C0
C0
C0
C0
C0
C0
ENDCHAR
STARTCHAR 006D
ENCODING 109
SWIDTH 864 0
DWIDTH 12 0
BBX 11 8 1 0
BITMAP
BBC0
FFC0
CC60
CC60
CC60
CC60
CC60
CC60
ENDCHAR
STARTCHAR 006E
ENCODING 110
SWIDTH 648 0
DWIDTH 9 0
BBX 7 8 1 0
BITMAP
BC
FC
C6
C6
C6
C6
C6
C6
ENDCHAR
STARTCHAR 006F
ENCODING 111
SWIDTH 648 0
DWIDTH 9 0
BBX 7 8 1 0
BITMAP
78
FC
C6
86
86
C6
FC
78
ENDCHAR
STARTCHAR 0070
ENCODING 112
SWIDTH 648 0
DWIDTH 9 0
BBX 7 11 1 -3
BITMAP
B8
FC
C6
86
86
C6
FC
F8
C0
C0
C0
ENDCHAR
STARTCHAR 0071
ENCODING 113
SWIDTH 648 0
DWIDTH 9 0
BBX 7 11 1 -3
BITMAP
7E
FE
C6
86
86
C6
FE
7E
06
06
06
ENDCHAR
STARTCHAR 0072
ENCODING 114
SWIDTH 432 0
DWIDTH 6 0
BBX 4 8 1 0
BITMAP
B0
F0
C0
C0
C0
C0
C0
C0
ENDCHAR
STARTCHAR 0073
ENCODING 115
SWIDTH 576 0
DWIDTH 8 0
BBX 6 8 1 0
BITMAP
78
DC
C0
F0
3C
8C
CC
78
ENDCHAR
STARTCHAR 0074
ENCODING 116
SWIDTH 432 0
DWIDTH 6 0
BBX 5 10 0 0
BITMAP
60
60
F8
60
60
60
60
60
30
38
ENDCHAR
STARTCHAR 0075
ENCODING 117
SWIDTH 648 0
DWIDTH 9 0
BBX 7 8 1 0
BITMAP
C6
C6
C6
C6
C6
C6
FE
7E
ENDCHAR
STARTCHAR 0076
ENCODING 118
SWIDTH 576 0
DWIDTH 8 0
BBX 7 8 0 0
BITMAP
C2
46
66
64
2C
3C
38
18
ENDCHAR
STARTCHAR 0077
ENCODING 119
SWIDTH 792 0
DWIDTH 11 0
BBX 11 8 0 0
BITMAP
C460
4E40
6E40
6AC0
2BC0
3B80
3180
3180
ENDCHAR
STARTCHAR 0078
ENCODING 120
SWIDTH 576 0
DWIDTH 8 0
BBX 7 8 0 0
BITMAP
46
64
3C
18
18
3C
66
C6
ENDCHAR
STARTCHAR 0079
ENCODING 121
SWIDTH 576 0
DWIDTH 8 0
BBX 8 11 0 -3
BITMAP
C3
46
66
24
3C
3C
18
18
10
30
30
ENDCHAR
STARTCHAR 007A
ENCODING 122
SWIDTH 504 0
DWIDTH 7 0
BBX 7 8 0 0
BITMAP
7E
0C
08
18
30
30
60
FE
ENDCHAR
STARTCHAR 007B
ENCODING 123
SWIDTH 432 0
DWIDTH 6 0
BBX 4 16 2 -3
BITMAP
30
70
40
40
40
40
40
C0
C0
40
40
40
40
40
70
70
ENDCHAR
STARTCHAR 007C
ENCODING 124
SWIDTH 288 0
DWIDTH 4 0
BBX 2 10 1 0
BITMAP
C0
C0
C0
C0
C0
C0
C0
C0
C0
C0
ENDCHAR
STARTCHAR 007D
ENCODING 125
SWIDTH 432 0
DWIDTH 6 0
BBX 3 16 1 -3
BITMAP
80
C0
40
40
40
40
40
60
60
60
40
40
40
40
C0
C0
ENDCHAR
STARTCHAR 007E
ENCODING 126
SWIDTH 720 0
DWIDTH 10 0
BBX 6 3 2 3
BITMAP
E4
FC
9C
ENDCHAR
STARTCHAR 00A0
ENCODING 160
SWIDTH 216 0
DWIDTH 3 0
BBX 0 0 0 0
BITMAP
ENDCHAR
STARTCHAR 00A1
ENCODING 161
SWIDTH 360 0
DWIDTH 5 0
BBX 1 10 2 -2
BITMAP
80
80
80
80
80
80
80
80
80
80
ENDCHAR
STARTCHAR 00A2
ENCODING 162
SWIDTH 576 0
DWIDTH 8 0
BBX 7 10 1 0
BITMAP
10
38
FC
C6
80
80
C0
EC
78
10
ENDCHAR
STARTCHAR 00A3
ENCODING 163
SWIDTH 576 0
DWIDTH 8 0
BBX 6 10 1 0
BITMAP
38
7C
44
40
F8
F8
40
40
FC
FC
ENDCHAR
STARTCHAR 00A4
ENCODING 164
SWIDTH 648 0
DWIDTH 9 0
BBX 7 8 1 1
BITMAP
82
FE
C6
82
82
C6
FE
82
ENDCHAR
STARTCHAR 00A5
ENCODING 165
SWIDTH 648 0
DWIDTH 9 0
BBX 8 10 0 0
BITMAP
C3
63
66
3C
1C
7E
18
7E
18
18
ENDCHAR
STARTCHAR 00A6
ENCODING 166
SWIDTH 288 0
DWIDTH 4 0
BBX 2 13 1 -3
BITMAP
C0
C0
C0
C0
C0
C0
00
C0
C0
C0
C0
C0
C0
ENDCHAR
STARTCHAR 00A7
ENCODING 167
SWIDTH 576 0
DWIDTH 8 0
BBX 6 11 1 -2
BITMAP
70
D8
C0
F0
DC
8C
FC
38
0C
FC
78
ENDCHAR
STARTCHAR 00A8
ENCODING 168
SWIDTH 576 0
DWIDTH 8 0
BBX 4 2 2 11
BITMAP
90
90
ENDCHAR
STARTCHAR 00A9
ENCODING 169
SWIDTH 864 0
DWIDTH 12 0
BBX 12 12 0 -1
BITMAP
0600
1FC0
30E0
6760
49B0
C830
C830
49B0
6720
7060
3FC0
0F00
ENDCHAR
STARTCHAR 00AA
ENCODING 170
SWIDTH 288 0
DWIDTH 4 0
BBX 3 4 1 4
BITMAP
E0
20
E0
E0
ENDCHAR
STARTCHAR 00AB
ENCODING 171
SWIDTH 576 0
DWIDTH 8 0
BBX 6 6 1 1
BITMAP
24
6C
58
D8
6C
24
ENDCHAR
STARTCHAR 00AC
ENCODING 172
SWIDTH 576 0
DWIDTH 8 0
BBX 6 3 1 2
BITMAP
FC
04
04
ENDCHAR
STARTCHAR 00AD
ENCODING 173
SWIDTH 432 0
DWIDTH 6 0
BBX 4 1 1 4
BITMAP
F0
ENDCHAR
STARTCHAR 00AE
ENCODING 174
SWIDTH 648 0
DWIDTH 9 0
BBX 7 7 1 4
BITMAP
38
44
BA
BA
AA
46
3C
ENDCHAR
STARTCHAR 00AF
ENCODING 175
SWIDTH 504 0
DWIDTH 7 0
BBX 3 1 2 12
BITMAP
E0
ENDCHAR
STARTCHAR 00B0
ENCODING 176
SWIDTH 432 0
DWIDTH 6 0
BBX 5 5 0 5
BITMAP
70
78
C8
78
70
ENDCHAR
STARTCHAR 00B1
ENCODING 177
SWIDTH 576 0
DWIDTH 8 0
BBX 6 7 1 1
BITMAP
30
30
FC
30
30
00
FC
ENDCHAR
STARTCHAR 00B2
ENCODING 178
SWIDTH 432 0
DWIDTH 6 0
BBX 4 6 1 4
BITMAP
E0
90
10
20
C0
F0
ENDCHAR
STARTCHAR 00B3
ENCODING 179
SWIDTH 432 0
DWIDTH 6 0
BBX 4 6 1 4
BITMAP
F0
20
60
10
90
E0
ENDCHAR
STARTCHAR 00B4
ENCODING 180
SWIDTH 504 0
DWIDTH 7 0
BBX 2 3 3 11
BITMAP
40
C0
80
ENDCHAR
STARTCHAR 00B5
ENCODING 181
SWIDTH 648 0
DWIDTH 9 0
BBX 7 11 1 -3
BITMAP
C6
C6
C6
C6
C6
C6
FE
FE
80
80
80
ENDCHAR
STARTCHAR 00B6
ENCODING 182
SWIDTH 720 0
DWIDTH 10 0
BBX 8 12 1 -2
BITMAP
79
F9
F9
F9
F9
F9
19
09
09
09
09
09
ENDCHAR
STARTCHAR 00B7
ENCODING 183
SWIDTH 288 0
DWIDTH 4 0
BBX 2 2 1 3
BITMAP
C0
C0
ENDCHAR
STARTCHAR 00B8
ENCODING 184
SWIDTH 432 0
DWIDTH 6 0
BBX 2 3 2 -3
BITMAP
80
40
C0
ENDCHAR
STARTCHAR 00B9
ENCODING 185
SWIDTH 360 0
DWIDTH 5 0
BBX 2 6 1 4
BITMAP
C0
40
40
40
40
40
ENDCHAR
STARTCHAR 00BA
ENCODING 186
SWIDTH 360 0
DWIDTH 5 0
BBX 3 4 1 4
BITMAP
E0
A0
A0
E0
ENDCHAR
STARTCHAR 00BB
ENCODING 187
SWIDTH 576 0
DWIDTH 8 0
BBX 6 6 1 1
BITMAP
90
D8
6C
6C
58
90
ENDCHAR
STARTCHAR 00BC
ENCODING 188
SWIDTH 1008 0
DWIDTH 14 0
BBX 12 10 1 0
BITMAP
C080
4180
4100
4200
4640
4CC0
08A0
10A0
31F0
2020
ENDCHAR
STARTCHAR 00BD
ENCODING 189
SWIDTH 1008 0
DWIDTH 14 0
BBX 12 10 1 0
BITMAP
C080
C180
4100
4200
4670
4C90
4810
1030
3040
20F0
ENDCHAR
STARTCHAR 00BE
ENCODING 190
SWIDTH 1008 0
DWIDTH 14 0
BBX 12 10 1 0
BITMAP
F040
20C0
6180
1120
9220
E640
0450
0890
18F0
1010
ENDCHAR
STARTCHAR 00BF
ENCODING 191
SWIDTH 576 0
DWIDTH 8 0
BBX 6 11 1 -3
BITMAP
30
30
00
30
70
60
C0
80
CC
F8
30
ENDCHAR
STARTCHAR 00C0
ENCODING 192
SWIDTH 648 0
DWIDTH 9 0
BBX 9 14 0 0
BITMAP
1000
1800
0800
0000
1C00
1C00
1600
3600
3200
2300
7F00
7F00
6180
C180
ENDCHAR
STARTCHAR 00C1
ENCODING 193
SWIDTH 648 0
DWIDTH 9 0
BBX 9 14 0 0
BITMAP
0400
0400
0C00
0000
1C00
1C00
1600
3600
3200
2300
7F00
7F00
6180
C180
ENDCHAR
STARTCHAR 00C2
ENCODING 194
SWIDTH 648 0
DWIDTH 9 0
BBX 9 13 0 0
BITMAP
1C00
3600
0000
1C00
1C00
1600
3600
3200
2300
7F00
7F00
6180
C180
ENDCHAR
STARTCHAR 00C3
ENCODING 195
SWIDTH 648 0
DWIDTH 9 0
BBX 9 14 0 0
BITMAP
3A00
2E00
0000
0000
1C00
1C00
1600
3600
3200
2300
7F00
7F00
6180
C180
ENDCHAR
STARTCHAR 00C4
ENCODING 196
SWIDTH 648 0
DWIDTH 9 0
BBX 9 13 0 0
BITMAP
3600
3600
0000
1C00
1C00
1600
3600
3200
2300
7F00
7F00
6180
C180
ENDCHAR
STARTCHAR 00C5
ENCODING 197
SWIDTH 648 0
DWIDTH 9 0
BBX 9 14 0 0
BITMAP
1C00
1400
1C00
0000
1C00
1C00
1600
3600
3200
2300
7F00
7F00
6180
C180
ENDCHAR
STARTCHAR 00C6
ENCODING 198
SWIDTH 936 0
DWIDTH 13 0
BBX 12 10 0 0
BITMAP
1FF0
1FF0
1300
3300
33F0
23F0
7F00
7F00
43F0
C3F0
ENDCHAR
STARTCHAR 00C7
ENCODING 199
SWIDTH 720 0
DWIDTH 10 0
BBX 9 13 0 -3
BITMAP
1E00
3F80
6180
4000
C000
C000
4000
6080
3F80
1F00
0400
0400
0C00
ENDCHAR
STARTCHAR 00C8
ENCODING 200
SWIDTH 576 0
DWIDTH 8 0
BBX 6 14 1 0
BITMAP
20
20
10
00
FC
FC
C0
C0
FC
FC
C0
C0
FC
FC
ENDCHAR
STARTCHAR 00C9
ENCODING 201
SWIDTH 576 0
DWIDTH 8 0
BBX 6 14 1 0
BITMAP
08
18
10
00
FC
FC
C0
C0
FC
FC
C0
C0
FC
FC
ENDCHAR
STARTCHAR 00CA
ENCODING 202
SWIDTH 576 0
DWIDTH 8 0
BBX 6 13 1 0
BITMAP
30
48
00
FC
FC
C0
C0
FC
FC
C0
C0
FC
FC
ENDCHAR
STARTCHAR 00CB
ENCODING 203
SWIDTH 576 0
DWIDTH 8 0
BBX 6 13 1 0
BITMAP
48
48
00
FC
FC
C0
C0
FC
FC
C0
C0
FC
FC
ENDCHAR
STARTCHAR 00CC
ENCODING 204
SWIDTH 288 0
DWIDTH 4 0
BBX 3 14 0 0
BITMAP
C0
40
40
00
60
60
60
60
60
60
60
60
60
60
ENDCHAR
STARTCHAR 00CD
ENCODING 205
SWIDTH 288 0
DWIDTH 4 0
BBX 3 14 1 0
BITMAP
60
40
40
00
C0
C0
C0
C0
C0
C0
C0
C0
C0
C0
ENDCHAR
STARTCHAR 00CE
ENCODING 206
SWIDTH 288 0
DWIDTH 4 0
BBX 4 13 0 0
BITMAP
60
90
00
60
60
60
60
60
60
60
60
60
60
ENDCHAR
STARTCHAR 00CF
ENCODING 207
SWIDTH 288 0
DWIDTH 4 0
BBX 4 13 0 0
BITMAP
90
90
00
60
60
60
60
60
60
60
60
60
60
ENDCHAR
STARTCHAR 00D0
ENCODING 208
SWIDTH 720 0
DWIDTH 10 0
BBX 9 10 0 0
BITMAP
7E00
7F00
6180
6180
F980
6180
6180
6180
7F00
7E00
ENDCHAR
STARTCHAR 00D1
ENCODING 209
SWIDTH 720 0
DWIDTH 10 0
BBX 8 13 1 0
BITMAP
3E
2C
00
C3
E3
E3
F3
DB
DB
CF
C7
C7
C3
ENDCHAR
STARTCHAR 00D2
ENCODING 210
SWIDTH 720 0
DWIDTH 10 0
BBX 10 13 0 0
BITMAP
0800
0800
0000
1E00
3F80
6180
40C0
C0C0
C0C0
40C0
6180
3F80
1E00
ENDCHAR
STARTCHAR 00D3
ENCODING 211
SWIDTH 720 0
DWIDTH 10 0
BBX 10 13 0 0
BITMAP
0600
0400
0000
1E00
3F80
6180
40C0
C0C0
C0C0
40C0
6180
3F80
1E00
ENDCHAR
STARTCHAR 00D4
ENCODING 212
SWIDTH 720 0
DWIDTH 10 0
BBX 10 13 0 0
BITMAP
0C00
1A00
0000
1E00
3F80
6180
40C0
C0C0
C0C0
40C0
6180
3F80
1E00
ENDCHAR
STARTCHAR 00D5
ENCODING 213
SWIDTH 720 0
DWIDTH 10 0
BBX 10 13 0 0
BITMAP
1900
1700
0000
1E00
3F80
6180
40C0
C0C0
C0C0
40C0
6180
3F80
1E00
ENDCHAR
STARTCHAR 00D6
ENCODING 214
SWIDTH 720 0
DWIDTH 10 0
BBX 10 13 0 0
BITMAP
1A00
1A00
0000
1E00
3F80
6180
40C0
C0C0
C0C0
40C0
6180
3F80
1E00
ENDCHAR
STARTCHAR 00D7
ENCODING 215
SWIDTH 504 0
DWIDTH 7 0
BBX 5 5 1 3
BITMAP
88
D8
70
70
D8
ENDCHAR
STARTCHAR 00D8
ENCODING 216
SWIDTH 720 0
DWIDTH 10 0
BBX 10 10 0 0
BITMAP
1F80
3FC0
6180
43C0
C6C0
CCC0
58C0
7180
7F80
5E00
ENDCHAR
STARTCHAR 00D9
ENCODING 217
SWIDTH 720 0
DWIDTH 10 0
BBX 8 14 1 0
BITMAP
30
10
18
00
C3
C3
C3
C3
C3
C3
C3
C3
7E
3C
ENDCHAR
STARTCHAR 00DA
ENCODING 218
SWIDTH 720 0
DWIDTH 10 0
BBX 8 14 1 0
BITMAP
0C
08
18
00
C3
C3
C3
C3
C3
C3
C3
C3
7E
3C
ENDCHAR
STARTCHAR 00DB
ENCODING 219
SWIDTH 720 0
DWIDTH 10 0
BBX 8 13 1 0
BITMAP
18
24
00
C3
C3
C3
C3
C3
C3
C3
C3
7E
3C
ENDCHAR
STARTCHAR 00DC
ENCODING 220
SWIDTH 720 0
DWIDTH 10 0
BBX 8 13 1 0
BITMAP
24
24
00
C3
C3
C3
C3
C3
C3
C3
C3
7E
3C
ENDCHAR
STARTCHAR 00DD
ENCODING 221
SWIDTH 648 0
DWIDTH 9 0
BBX 8 14 0 0
BITMAP
04
08
08
00
C3
63
66
34
1C
18
18
18
18
18
ENDCHAR
STARTCHAR 00DE
ENCODING 222
SWIDTH 648 0
DWIDTH 9 0
BBX 7 10 1 0
BITMAP
C0
C0
FC
FE
C2
C2
FE
FC
C0
C0
ENDCHAR
STARTCHAR 00DF
ENCODING 223
SWIDTH 648 0
DWIDTH 9 0
BBX 7 10 1 0
BITMAP
78
FC
CC
CC
D8
CE
C6
C6
FE
FC
ENDCHAR
STARTCHAR 00E0
ENCODING 224
SWIDTH 576 0
DWIDTH 8 0
BBX 6 12 1 0
BITMAP
60
20
30
00
78
FC
0C
7C
EC
8C
DC
F4
ENDCHAR
STARTCHAR 00E1
ENCODING 225
SWIDTH 576 0
DWIDTH 8 0
BBX 6 12 1 0
BITMAP
08
10
10
00
78
FC
0C
7C
EC
8C
DC
F4
ENDCHAR
STARTCHAR 00E2
ENCODING 226
SWIDTH 576 0
DWIDTH 8 0
BBX 6 11 1 0
BITMAP
30
68
00
78
FC
0C
7C
EC
8C
DC
F4
ENDCHAR
STARTCHAR 00E3
ENCODING 227
SWIDTH 576 0
DWIDTH 8 0
BBX 6 11 1 0
BITMAP
64
58
00
78
FC
0C
7C
EC
8C
DC
F4
ENDCHAR
STARTCHAR 00E4
ENCODING 228
SWIDTH 576 0
DWIDTH 8 0
BBX 6 10 1 0
BITMAP
48
48
78
FC
0C
7C
EC
8C
DC
F4
ENDCHAR
STARTCHAR 00E5
ENCODING 229
SWIDTH 576 0
DWIDTH 8 0
BBX 6 12 1 0
BITMAP
30
48
30
00
78
FC
0C
7C
EC
8C
DC
F4
ENDCHAR
STARTCHAR 00E6
ENCODING 230
SWIDTH 936 0
DWIDTH 13 0
BBX 11 8 1 0
BITMAP
7BC0
FF60
0C20
7FE0
C400
8E00
DFE0
F3C0
ENDCHAR
STARTCHAR 00E7
ENCODING 231
SWIDTH 576 0
DWIDTH 8 0
BBX 6 11 1 -3
BITMAP
78
FC
C4
80
80
C4
FC
78
10
10
30
ENDCHAR
STARTCHAR 00E8
ENCODING 232
SWIDTH 576 0
DWIDTH 8 0
BBX 7 11 1 0
BITMAP
20
30
00
78
EC
C6
FE
80
C4
FC
78
ENDCHAR
STARTCHAR 00E9
ENCODING 233
SWIDTH 576 0
DWIDTH 8 0
BBX 7 11 1 0
BITMAP
18
10
00
78
EC
C6
FE
80
C4
FC
78
ENDCHAR
STARTCHAR 00EA
ENCODING 234
SWIDTH 576 0
DWIDTH 8 0
BBX 7 11 1 0
BITMAP
30
68
00
78
EC
C6
FE
80
C4
FC
78
ENDCHAR
STARTCHAR 00EB
ENCODING 235
SWIDTH 576 0
DWIDTH 8 0
BBX 7 10 1 0
BITMAP
68
68
78
EC
C6
FE
80
C4
FC
78
ENDCHAR
STARTCHAR 00EC
ENCODING 236
SWIDTH 288 0
DWIDTH 4 0
BBX 3 12 0 0
BITMAP
C0
40
40
00
60
60
60
60
60
60
60
60
ENDCHAR
STARTCHAR 00ED
ENCODING 237
SWIDTH 288 0
DWIDTH 4 0
BBX 3 12 1 0
BITMAP
60
40
40
00
C0
C0
C0
C0
C0
C0
C0
C0
ENDCHAR
STARTCHAR 00EE
ENCODING 238
SWIDTH 288 0
DWIDTH 4 0
BBX 4 11 0 0
BITMAP
60
90
00
60
60
60
60
60
60
60
60
ENDCHAR
STARTCHAR 00EF
ENCODING 239
SWIDTH 288 0
DWIDTH 4 0
BBX 4 10 0 0
BITMAP
90
90
60
60
60
60
60
60
60
60
ENDCHAR
STARTCHAR 00F0
ENCODING 240
SWIDTH 576 0
DWIDTH 8 0
BBX 7 11 1 0
BITMAP
08
38
1C
04
7E
CE
86
86
86
FC
78
ENDCHAR
STARTCHAR 00F1
ENCODING 241
SWIDTH 648 0
DWIDTH 9 0
BBX 7 11 1 0
BITMAP
64
5C
00
18
FC
C6
C6
C6
C6
C6
C6
ENDCHAR
STARTCHAR 00F2
ENCODING 242
SWIDTH 648 0
DWIDTH 9 0
BBX 7 11 1 0
BITMAP
20
30
00
78
FC
C6
86
86
C6
FC
78
ENDCHAR
STARTCHAR 00F3
ENCODING 243
SWIDTH 648 0
DWIDTH 9 0
BBX 7 11 1 0
BITMAP
18
10
00
78
FC
C6
86
86
C6
FC
78
ENDCHAR
STARTCHAR 00F4
ENCODING 244
SWIDTH 648 0
DWIDTH 9 0
BBX 7 11 1 0
BITMAP
30
68
00
78
FC
C6
86
86
C6
FC
78
ENDCHAR
STARTCHAR 00F5
ENCODING 245
SWIDTH 648 0
DWIDTH 9 0
BBX 7 11 1 0
BITMAP
64
5C
00
78
FC
C6
86
86
C6
FC
78
ENDCHAR
STARTCHAR 00F6
ENCODING 246
SWIDTH 648 0
DWIDTH 9 0
BBX 7 10 1 0
BITMAP
68
68
78
FC
C6
86
86
C6
FC
78
ENDCHAR
STARTCHAR 00F7
ENCODING 247
SWIDTH 576 0
DWIDTH 8 0
BBX 6 6 1 2
BITMAP
30
30
FC
FC
30
30
ENDCHAR
STARTCHAR 00F8
ENCODING 248
SWIDTH 648 0
DWIDTH 9 0
BBX 7 8 1 0
BITMAP
7A
FE
CE
9E
B6
E6
FC
F8
ENDCHAR
STARTCHAR 00F9
ENCODING 249
SWIDTH 648 0
DWIDTH 9 0
BBX 7 12 1 0
BITMAP
20
20
30
00
C6
C6
C6
C6
C6
C6
FE
7E
ENDCHAR
STARTCHAR 00FA
ENCODING 250
SWIDTH 648 0
DWIDTH 9 0
BBX 7 12 1 0
BITMAP
08
10
10
00
C6
C6
C6
C6
C6
C6
FE
7E
ENDCHAR
STARTCHAR 00FB
ENCODING 251
SWIDTH 648 0
DWIDTH 9 0
BBX 7 11 1 0
BITMAP
38
68
00
C6
C6
C6
C6
C6
C6
FE
7E
ENDCHAR
STARTCHAR 00FC
ENCODING 252
SWIDTH 648 0
DWIDTH 9 0
BBX 7 10 1 0
BITMAP
68
68
C6
C6
C6
C6
C6
C6
FE
7E
ENDCHAR
STARTCHAR 00FD
ENCODING 253
SWIDTH 576 0
DWIDTH 8 0
BBX 8 15 0 -3
BITMAP
0C
08
08
00
C3
46
66
24
3C
3C
18
18
10
30
30
ENDCHAR
STARTCHAR 00FE
ENCODING 254
SWIDTH 648 0
DWIDTH 9 0
BBX 7 13 1 -3
BITMAP
C0
C0
F8
FC
C6
86
86
C6
FC
F8
C0
C0
C0
ENDCHAR
STARTCHAR 00FF
ENCODING 255
SWIDTH 576 0
DWIDTH 8 0
BBX 8 13 0 -3
BITMAP
24
24
C3
46
66
24
3C
3C
18
18
10
30
30
ENDCHAR
ENDFONT
