STARTFONT 2.1
COMMENT
COMMENT Converted from OpenType font "manrope-bold.otf" by "otf2bdf 3.0".
COMMENT
FONT -FreeType-Manrope-Bold-R-Normal--37-270-100-100-P-181-ISO10646-1
SIZE 27 100 100
FONTBOUNDINGBOX 37 48 -1 -9
STARTPROPERTIES 19
FOUNDRY "FreeType"
FAMILY_NAME "Manrope"
WEIGHT_NAME "Bold"
SLANT "R"
SETWIDTH_NAME "Normal"
ADD_STYLE_NAME ""
PIXEL_SIZE 37
POINT_SIZE 270
RESOLUTION_X 100
RESOLUTION_Y 100
SPACING "P"
AVERAGE_WIDTH 181
CHARSET_REGISTRY "ISO10646"
CHARSET_ENCODING "1"
FONT_ASCENT 40
FONT_DESCENT 11
COPYRIGHT "Copyright 2019-2021 The Manrope Project Authors (https://github.com/sharanda/manrope)"
_OTF_FONTFILE "manrope-bold.otf"
_OTF_PSNAME "Manrope-Bold"
ENDPROPERTIES
CHARS 191
STARTCHAR 0020
ENCODING 32
SWIDTH 213 0
DWIDTH 8 0
BBX 0 0 0 0
BITMAP
ENDCHAR
STARTCHAR 0021
ENCODING 33
SWIDTH 373 0
DWIDTH 14 0
BBX 5 27 4 0
BITMAP
F8
F8
F8
F8
F8
F8
F8
F8
F8
F8
F8
F8
F8
F8
F8
F8
F8
F8
F8
F8
00
00
00
F8
F8
F8
F8
ENDCHAR
STARTCHAR 0022
ENCODING 34
SWIDTH 480 0
DWIDTH 18 0
BBX 12 7 2 20
BITMAP
F9F0
F9F0
F9F0
F9F0
F9F0
F9F0
F9F0
ENDCHAR
STARTCHAR 0023
ENCODING 35
SWIDTH 933 0
DWIDTH 35 0
BBX 31 27 2 0
BITMAP
000F87C0
000F0780
000F0780
001F0F80
001E0F00
001E0F00
0FFFFFFE
1FFFFFFC
1FFFFFFC
1FFFFFFC
007C3E00
00783C00
00783C00
00783C00
00F87C00
7FFFFFF0
7FFFFFF0
7FFFFFF0
FFFFFFE0
01E0F000
01E0F000
03E1F000
03E1F000
03C1E000
03C1E000
07C3E000
0783C000
ENDCHAR
STARTCHAR 0024
ENCODING 36
SWIDTH 640 0
DWIDTH 24 0
BBX 20 33 2 -3
BITMAP
00F000
00F000
00F000
03FC00
0FFF00
3FFF80
3FFFC0
7E0FE0
7C03E0
7801F0
F801F0
F80000
7C0000
7F8000
3FF800
1FFF00
0FFF80
01FFE0
003FE0
0007F0
0001F0
3000F0
F000F0
F801F0
FC01F0
7E07E0
7FFFE0
3FFFC0
0FFF80
03FC00
00F000
00F000
00F000
ENDCHAR
STARTCHAR 0025
ENCODING 37
SWIDTH 906 0
DWIDTH 34 0
BBX 30 27 2 0
BITMAP
07C00040
1FE000E0
3FF001F0
7FF803F0
787807E0
F03C0FC0
F03C1F80
F03C3F00
78787E00
7FF8FC00
3FF1F800
1FE3F000
0FC7E000
000FC000
001F8F80
007F1FE0
00FE3FF0
01FC7FF8
03F8F878
07F0F078
0FE0F03C
1FC0F078
3F80F878
7F007FF8
3E007FF0
1C003FE0
08000F80
ENDCHAR
STARTCHAR 0026
ENCODING 38
SWIDTH 666 0
DWIDTH 25 0
BBX 22 27 2 0
BITMAP
03F800
0FFE00
1FFF00
3FFF80
3F1FC0
7C07C0
7C0400
7C0000
7C0000
3C0000
3E0000
1F8000
1FC000
3FE0F0
7FF0F0
7DF8F0
F8FCF0
F87EF0
F01FF0
F80FF0
F807E0
FC03F0
7F1FF8
7FFFFC
3FFFFC
1FFF38
03FC10
ENDCHAR
STARTCHAR 0027
ENCODING 39
SWIDTH 266 0
DWIDTH 10 0
BBX 5 7 2 20
BITMAP
F8
F8
F8
F8
F8
F8
F8
ENDCHAR
STARTCHAR 0028
ENCODING 40
SWIDTH 453 0
DWIDTH 17 0
BBX 10 39 5 -7
BITMAP
0100
0380
07C0
07C0
0F80
1F00
1F00
1E00
3E00
3C00
7C00
7800
7800
7800
7800
F800
F000
F000
F000
F000
F000
F000
F000
F800
7800
7800
7800
7800
7C00
3C00
3E00
1E00
1F00
1F00
0F80
07C0
07C0
0380
0100
ENDCHAR
STARTCHAR 0029
ENCODING 41
SWIDTH 453 0
DWIDTH 17 0
BBX 10 39 2 -7
BITMAP
2000
7000
F800
F800
7C00
3C00
3E00
1E00
1F00
0F00
0F00
0F80
0780
0780
0780
07C0
07C0
03C0
03C0
03C0
03C0
03C0
07C0
07C0
0780
0780
0780
0F80
0F00
0F00
1F00
1E00
3E00
3E00
7C00
F800
F800
7000
2000
ENDCHAR
STARTCHAR 002A
ENCODING 42
SWIDTH 453 0
DWIDTH 17 0
BBX 14 13 1 14
BITMAP
0780
0780
0780
77B8
7FFC
FFFC
3FF0
0FC0
1FE0
3FF0
3CF8
1C60
0840
ENDCHAR
STARTCHAR 002B
ENCODING 43
SWIDTH 560 0
DWIDTH 21 0
BBX 17 17 2 5
BITMAP
01E000
01E000
01E000
01E000
01E000
01E000
FFFF80
FFFF80
FFFF80
FFFF80
01E000
01E000
01E000
01E000
01E000
01E000
01E000
ENDCHAR
STARTCHAR 002C
ENCODING 44
SWIDTH 293 0
DWIDTH 11 0
BBX 5 10 2 -5
BITMAP
F8
F8
F8
F8
F8
18
18
38
F0
E0
ENDCHAR
STARTCHAR 002D
ENCODING 45
SWIDTH 426 0
DWIDTH 16 0
BBX 12 4 2 10
BITMAP
FFF0
FFF0
FFF0
FFF0
ENDCHAR
STARTCHAR 002E
ENCODING 46
SWIDTH 293 0
DWIDTH 11 0
BBX 5 5 3 0
BITMAP
F8
F8
F8
F8
F8
ENDCHAR
STARTCHAR 002F
ENCODING 47
SWIDTH 426 0
DWIDTH 16 0
BBX 12 27 2 0
BITMAP
01F0
01F0
01E0
03E0
03E0
03E0
03C0
07C0
07C0
0780
0780
0F80
0F80
0F00
0F00
1F00
1F00
1E00
1E00
3E00
3E00
3C00
7C00
7C00
7800
7800
F800
ENDCHAR
STARTCHAR 0030
ENCODING 48
SWIDTH 666 0
DWIDTH 25 0
BBX 19 27 3 0
BITMAP
03F800
0FFE00
3FFF00
3FFF80
7F1FC0
FC07C0
F803E0
F803E0
F003E0
F003E0
F003E0
F003E0
F003E0
F003E0
F003E0
F003E0
F003E0
F003E0
F003E0
F803E0
F803E0
FC07C0
7F3FC0
3FFF80
3FFF00
0FFE00
03F800
ENDCHAR
STARTCHAR 0031
ENCODING 49
SWIDTH 426 0
DWIDTH 16 0
BBX 10 27 2 0
BITMAP
0FC0
1FC0
7FC0
FFC0
FFC0
F7C0
E7C0
87C0
07C0
07C0
07C0
07C0
07C0
07C0
07C0
07C0
07C0
07C0
07C0
07C0
07C0
07C0
07C0
07C0
07C0
07C0
07C0
ENDCHAR
STARTCHAR 0032
ENCODING 50
SWIDTH 586 0
DWIDTH 22 0
BBX 18 27 2 0
BITMAP
03F000
0FFE00
3FFF00
3FFF80
7F1F80
FC0FC0
F807C0
F803C0
F803C0
0003C0
0007C0
0007C0
000FC0
001F80
003F00
007E00
01FC00
03F800
07F000
0FE000
1F8000
3F0000
7E0000
FFFFC0
FFFFC0
FFFFC0
FFFFC0
ENDCHAR
STARTCHAR 0033
ENCODING 51
SWIDTH 586 0
DWIDTH 22 0
BBX 18 27 2 0
BITMAP
7FFF80
7FFF80
7FFF80
7FFF80
001F80
003F00
007E00
00FC00
01F800
07F000
0FF800
0FFC00
07FF00
03FF00
001F80
000F80
000780
0007C0
0007C0
000780
F00F80
F80F80
FE3F00
7FFF00
3FFE00
1FFC00
07F000
ENDCHAR
STARTCHAR 0034
ENCODING 52
SWIDTH 613 0
DWIDTH 23 0
BBX 19 27 2 0
BITMAP
00F800
00F800
01F000
01F000
03F000
03E000
07E000
07C000
0FC000
0F8000
1F8000
1F0F00
1F0F00
3E0F00
3E0F00
7C0F00
7C0F00
F80F00
FFFFE0
FFFFE0
FFFFE0
FFFFE0
000F00
000F00
000F00
000F00
000F00
ENDCHAR
STARTCHAR 0035
ENCODING 53
SWIDTH 586 0
DWIDTH 22 0
BBX 18 27 2 0
BITMAP
3FFF00
3FFF00
7FFF00
7FFF00
7C0000
7C0000
780000
780000
780000
780000
7BF800
7FFE00
7FFF00
7FFF80
7C1F80
080FC0
0007C0
0007C0
0003C0
0007C0
F807C0
FC0F80
7F3F80
7FFF00
3FFE00
0FFC00
03F000
ENDCHAR
STARTCHAR 0036
ENCODING 54
SWIDTH 613 0
DWIDTH 23 0
BBX 18 27 3 0
BITMAP
03F800
0FFE00
1FFF00
3FFF00
7F1E00
FC0400
F80000
F80000
F00000
F00000
F1F800
F7FE00
FFFF00
FFFF80
FE1F80
F807C0
F807C0
F003C0
F003C0
F003C0
F807C0
FC0FC0
7F3F80
3FFF00
3FFE00
0FFC00
03F000
ENDCHAR
STARTCHAR 0037
ENCODING 55
SWIDTH 533 0
DWIDTH 20 0
BBX 17 27 1 0
BITMAP
FFFF80
FFFF80
FFFF80
FFFF80
000F80
000F80
001F00
001F00
001E00
003E00
003E00
007C00
007C00
007800
00F800
00F800
01F000
01F000
03E000
03E000
03E000
07C000
07C000
0F8000
0F8000
0F0000
1F0000
ENDCHAR
STARTCHAR 0038
ENCODING 56
SWIDTH 613 0
DWIDTH 23 0
BBX 19 27 2 0
BITMAP
03F800
0FFE00
1FFF00
3FFF80
3F1F80
7C07C0
7C07C0
7C07C0
7C07C0
7C07C0
3F1F80
3FFF80
1FFF00
3FFF00
3FFF80
7E0FC0
7C07C0
F803E0
F803E0
F803E0
F803E0
7C07C0
7F1FC0
3FFF80
1FFF00
0FFE00
03F800
ENDCHAR
STARTCHAR 0039
ENCODING 57
SWIDTH 613 0
DWIDTH 23 0
BBX 19 27 2 0
BITMAP
03F000
0FFE00
1FFF00
3FFF80
7F3F80
7C07C0
F807C0
F803C0
F803E0
F803E0
F803E0
FC07E0
7E1FE0
7FFFE0
3FFFE0
1FFFE0
07F3E0
0003E0
0003E0
0003C0
0007C0
080FC0
1F3F80
3FFF80
3FFF00
1FFC00
07F000
ENDCHAR
STARTCHAR 003A
ENCODING 58
SWIDTH 346 0
DWIDTH 13 0
BBX 5 16 4 2
BITMAP
F8
F8
F8
F8
F8
00
00
00
00
00
00
F8
F8
F8
F8
F8
ENDCHAR
STARTCHAR 003B
ENCODING 59
SWIDTH 346 0
DWIDTH 13 0
BBX 5 26 4 -5
BITMAP
F8
F8
F8
F8
F8
00
00
00
00
00
00
00
00
00
00
00
F8
F8
F8
F8
F8
18
38
30
F0
E0
ENDCHAR
STARTCHAR 003C
ENCODING 60
SWIDTH 640 0
DWIDTH 24 0
BBX 11 18 6 3
BITMAP
0080
01C0
03E0
07C0
0F80
1F00
3E00
7C00
F800
F800
7C00
3E00
1F00
0F80
07C0
03E0
01C0
0080
ENDCHAR
STARTCHAR 003D
ENCODING 61
SWIDTH 746 0
DWIDTH 28 0
BBX 20 11 4 8
BITMAP
FFFFF0
FFFFF0
FFFFF0
FFFFF0
000000
000000
000000
FFFFF0
FFFFF0
FFFFF0
FFFFF0
ENDCHAR
STARTCHAR 003E
ENCODING 62
SWIDTH 640 0
DWIDTH 24 0
BBX 11 18 7 3
BITMAP
2000
7000
F800
7C00
3E00
1F00
0F80
07C0
03E0
03E0
07C0
0F80
1F00
3E00
7C00
F800
7000
2000
ENDCHAR
STARTCHAR 003F
ENCODING 63
SWIDTH 560 0
DWIDTH 21 0
BBX 17 27 2 0
BITMAP
07F000
1FFC00
3FFE00
7FFF00
7E3F00
F81F80
F80F80
000F80
000F80
000F80
001F00
003F00
007E00
00FC00
01F800
03F000
03E000
03E000
03C000
03C000
000000
000000
03C000
03C000
03C000
03C000
03C000
ENDCHAR
STARTCHAR 0040
ENCODING 64
SWIDTH 906 0
DWIDTH 34 0
BBX 28 28 3 -4
BITMAP
003FC000
01FFF800
07FFFE00
0FFFFF00
1F801F80
3F0007C0
3C0003E0
7C1F01E0
787FF1E0
78FFF0F0
F0FFF0F0
F1F0F0F0
F1E070F0
F1E070F0
F1E070F0
F1E070F0
F1F0F8F0
F0FFFFF0
78FFFFE0
787FFFC0
7C1F0F80
3E000000
3F000000
1F800000
0FFFE000
03FFE000
01FFF000
003FC000
ENDCHAR
STARTCHAR 0041
ENCODING 65
SWIDTH 666 0
DWIDTH 25 0
BBX 23 27 1 0
BITMAP
00FE00
00FE00
01FF00
01FF00
01EF00
01EF80
03EF80
03EF80
03C7C0
07C7C0
07C7C0
0783E0
0F83E0
0F83E0
0F01E0
1F01F0
1F01F0
1FFFF0
3FFFF8
3FFFF8
3FFFF8
7C007C
7C007C
7C003C
78003E
F8003E
F8001E
ENDCHAR
STARTCHAR 0042
ENCODING 66
SWIDTH 640 0
DWIDTH 24 0
BBX 20 27 3 0
BITMAP
FFF800
FFFE00
FFFF00
FFFF80
F00FC0
F007C0
F003C0
F003C0
F003C0
F007C0
F00FC0
FFFF80
FFFF00
FFFF80
FFFFC0
F007E0
F003E0
F001E0
F001F0
F001F0
F001E0
F003E0
F00FE0
FFFFC0
FFFFC0
FFFF80
FFFE00
ENDCHAR
STARTCHAR 0043
ENCODING 67
SWIDTH 746 0
DWIDTH 28 0
BBX 25 27 1 0
BITMAP
007F8000
03FFE000
07FFF800
0FFFFC00
1FE1FE00
3F003F00
3E001F00
7C000F80
7C000F80
78000000
F8000000
F8000000
F8000000
F8000000
F8000000
F8000000
F8000000
78000000
7C000F80
7C000F80
3E001F00
3F003F00
1FE1FE00
0FFFFC00
07FFF800
01FFF000
007F8000
ENDCHAR
STARTCHAR 0044
ENCODING 68
SWIDTH 693 0
DWIDTH 26 0
BBX 21 27 3 0
BITMAP
FFF800
FFFF00
FFFF80
FFFFC0
F01FE0
F007F0
F001F0
F001F0
F000F8
F000F8
F000F8
F00078
F00078
F00078
F00078
F00078
F000F8
F000F8
F000F8
F001F0
F001F0
F003F0
F01FE0
FFFFC0
FFFF80
FFFF00
FFF800
ENDCHAR
STARTCHAR 0045
ENCODING 69
SWIDTH 586 0
DWIDTH 22 0
BBX 17 27 3 0
BITMAP
FFFF80
FFFF80
FFFF80
FFFF80
F00000
F00000
F00000
F00000
F00000
F00000
F00000
FFFE00
FFFE00
FFFE00
FFFE00
F00000
F00000
F00000
F00000
F00000
F00000
F00000
F00000
FFFF80
FFFF80
FFFF80
FFFF80
ENDCHAR
STARTCHAR 0046
ENCODING 70
SWIDTH 533 0
DWIDTH 20 0
BBX 16 27 3 0
BITMAP
FFFF
FFFF
FFFF
FFFF
FFFF
F000
F000
F000
F000
F000
F000
FFFC
FFFC
FFFC
FFFC
FFFC
F000
F000
F000
F000
F000
F000
F000
F000
F000
F000
F000
ENDCHAR
STARTCHAR 0047
ENCODING 71
SWIDTH 720 0
DWIDTH 27 0
BBX 25 27 1 0
BITMAP
007F8000
03FFE000
07FFF800
0FFFFC00
1FE1FE00
3F007E00
3E003F00
7C001F00
7C000F80
7C000000
F8000000
F8000000
F8000000
F800FF80
F800FF80
F800FF80
F800FF80
78000F80
7C000F80
7C001F00
3E001F00
3F003E00
1FE1FE00
0FFFFC00
07FFF800
01FFE000
007F8000
ENDCHAR
STARTCHAR 0048
ENCODING 72
SWIDTH 720 0
DWIDTH 27 0
BBX 21 27 3 0
BITMAP
F00078
F00078
F00078
F00078
F00078
F00078
F00078
F00078
F00078
F00078
F00078
FFFFF8
FFFFF8
FFFFF8
FFFFF8
F00078
F00078
F00078
F00078
F00078
F00078
F00078
F00078
F00078
F00078
F00078
F00078
ENDCHAR
STARTCHAR 0049
ENCODING 73
SWIDTH 293 0
DWIDTH 11 0
BBX 5 27 3 0
BITMAP
F8
F8
F8
F8
F8
F8
F8
F8
F8
F8
F8
F8
F8
F8
F8
F8
F8
F8
F8
F8
F8
F8
F8
F8
F8
F8
F8
ENDCHAR
STARTCHAR 004A
ENCODING 74
SWIDTH 506 0
DWIDTH 19 0
BBX 16 27 0 0
BITMAP
001F
001F
001F
001F
001F
001F
001F
001F
001F
001F
001F
001F
001F
001F
001F
001F
001F
001F
001F
001F
381F
F81F
7E7E
7FFE
3FFC
1FF8
07E0
ENDCHAR
STARTCHAR 004B
ENCODING 75
SWIDTH 640 0
DWIDTH 24 0
BBX 21 27 3 0
BITMAP
F003F0
F003E0
F007C0
F00F80
F01F80
F03F00
F07E00
F0FC00
F0F800
F1F000
F3E000
F7C000
FFC000
FF8000
FFC000
F7E000
F3F000
F1F800
F0FC00
F07E00
F03E00
F01F00
F01F80
F00FC0
F007E0
F003F0
F001F8
ENDCHAR
STARTCHAR 004C
ENCODING 76
SWIDTH 533 0
DWIDTH 20 0
BBX 16 27 3 0
BITMAP
F800
F800
F800
F800
F800
F800
F800
F800
F800
F800
F800
F800
F800
F800
F800
F800
F800
F800
F800
F800
F800
F800
F800
FFFF
FFFF
FFFF
FFFF
ENDCHAR
STARTCHAR 004D
ENCODING 77
SWIDTH 853 0
DWIDTH 32 0
BBX 26 27 3 0
BITMAP
F00003C0
F00003C0
F80007C0
F80007C0
FC000FC0
FC000FC0
FE001FC0
FE001FC0
FF003FC0
FF003FC0
FF807FC0
F7807BC0
F7C0FBC0
F3C0F3C0
F3E1F3C0
F1E1E3C0
F1F3E3C0
F0F3C3C0
F0FFC3C0
F07FC3C0
F07F83C0
F07F83C0
F03F03C0
F03F03C0
F01E03C0
F01E03C0
F00C03C0
ENDCHAR
STARTCHAR 004E
ENCODING 78
SWIDTH 720 0
DWIDTH 27 0
BBX 21 27 3 0
BITMAP
F80078
F80078
FC0078
FE0078
FE0078
FF0078
FF0078
FF8078
F7C078
F7C078
F3E078
F3F078
F1F078
F0F878
F0FC78
F07C78
F03E78
F03F78
F01F78
F00FF8
F00FF8
F007F8
F003F8
F003F8
F001F8
F000F8
F000F8
ENDCHAR
STARTCHAR 004F
ENCODING 79
SWIDTH 746 0
DWIDTH 28 0
BBX 26 27 1 0
BITMAP
007F8000
03FFE000
07FFF800
0FFFFC00
1FE1FE00
3F003F00
3E001F00
7C000F80
7C000F80
780007C0
F80007C0
F80007C0
F80007C0
F80007C0
F80007C0
F80007C0
F80007C0
780007C0
7C000F80
7C000F80
3E001F00
3F003F00
1FE1FE00
0FFFFC00
07FFF800
01FFF000
007F8000
ENDCHAR
STARTCHAR 0050
ENCODING 80
SWIDTH 640 0
DWIDTH 24 0
BBX 20 27 3 0
BITMAP
FFFC00
FFFF00
FFFFC0
FFFFC0
F007E0
F003E0
F001F0
F001F0
F001F0
F001F0
F001F0
F003E0
F007E0
FFFFE0
FFFFC0
FFFF80
FFFE00
F00000
F00000
F00000
F00000
F00000
F00000
F00000
F00000
F00000
F00000
ENDCHAR
STARTCHAR 0051
ENCODING 81
SWIDTH 746 0
DWIDTH 28 0
BBX 26 27 1 0
BITMAP
007F8000
03FFE000
07FFF800
0FFFFC00
1FE1FE00
3F003F00
3E001F00
7C000F80
7C000F80
780007C0
F80007C0
F80007C0
F80007C0
F80007C0
F80007C0
F80007C0
F80007C0
780067C0
7C00FF80
7C01FF80
3E00FF00
3F007F00
1FE1FF00
0FFFFF80
07FFFF80
01FFF700
007F8200
ENDCHAR
STARTCHAR 0052
ENCODING 82
SWIDTH 666 0
DWIDTH 25 0
BBX 20 27 3 0
BITMAP
FFFC00
FFFF00
FFFFC0
FFFFC0
F007E0
F003E0
F001F0
F001F0
F001F0
F001F0
F001F0
F003E0
F007E0
FFFFE0
FFFFC0
FFFF80
FFFE00
F01F00
F01F00
F00F80
F00F80
F007C0
F007C0
F007E0
F003E0
F003F0
F001F0
ENDCHAR
STARTCHAR 0053
ENCODING 83
SWIDTH 666 0
DWIDTH 25 0
BBX 21 27 2 0
BITMAP
03FC00
0FFF00
1FFFC0
3FFFE0
7F0FF0
7C03F0
7801F8
F800F8
780000
7C0000
7F8000
3FF800
1FFF00
0FFFC0
00FFF0
001FF0
0003F8
0000F8
7000F8
F800F8
F800F8
FE01F8
7F87F0
3FFFF0
1FFFE0
0FFF80
01FE00
ENDCHAR
STARTCHAR 0054
ENCODING 84
SWIDTH 613 0
DWIDTH 23 0
BBX 22 27 0 0
BITMAP
FFFFFC
FFFFFC
FFFFFC
FFFFFC
007C00
007C00
007C00
007C00
007C00
007C00
007C00
007C00
007C00
007C00
007C00
007C00
007C00
007C00
007C00
007C00
007C00
007C00
007C00
007C00
007C00
007C00
007C00
ENDCHAR
STARTCHAR 0055
ENCODING 85
SWIDTH 720 0
DWIDTH 27 0
BBX 21 27 3 0
BITMAP
F00078
F00078
F00078
F00078
F00078
F00078
F00078
F00078
F00078
F00078
F00078
F00078
F00078
F00078
F00078
F00078
F00078
F00078
F000F8
F800F8
FC01F8
7E03F0
7F8FF0
3FFFE0
1FFFC0
07FF80
01FC00
ENDCHAR
STARTCHAR 0056
ENCODING 86
SWIDTH 640 0
DWIDTH 24 0
BBX 24 27 0 0
BITMAP
F8001F
78001E
7C003E
7C003E
3C003C
3E007C
3E007C
1E0078
1F00F8
1F00F8
1F00F8
0F01F0
0F81F0
0F81F0
0781E0
07C3E0
07C3E0
03C3C0
03E7C0
03E7C0
01E780
01FF80
01FF80
00FF00
00FF00
00FF00
007E00
ENDCHAR
STARTCHAR 0057
ENCODING 87
SWIDTH 986 0
DWIDTH 37 0
BBX 35 27 1 0
BITMAP
F001F003E0
F801F003E0
F803F003C0
F803F807C0
7803F807C0
7C07F807C0
7C07F80780
3C07FC0F80
3E07FC0F80
3E0FBC0F00
3E0FBE0F00
1E0F3E1F00
1F1F1E1F00
1F1F1E1E00
0F1E1F3E00
0F1E1F3E00
0FBE0F3C00
07BE0FBC00
07BC0FFC00
07FC07F800
07FC07F800
03F807F800
03F803F800
03F803F000
01F803F000
01F003F000
01F001E000
ENDCHAR
STARTCHAR 0058
ENCODING 88
SWIDTH 666 0
DWIDTH 25 0
BBX 23 27 1 0
BITMAP
F8007E
7C00FC
7E00F8
3E01F8
1F01F0
1F83E0
0F87E0
07C7C0
07EF80
03FF80
01FF00
01FE00
00FE00
00FC00
00FE00
01FF00
03FF00
03FF80
07CFC0
0FC7C0
0F87E0
1F83F0
3F01F0
3E01F8
7E00FC
FC007C
F8007E
ENDCHAR
STARTCHAR 0059
ENCODING 89
SWIDTH 613 0
DWIDTH 23 0
BBX 23 27 0 0
BITMAP
FC007E
7C007C
7E00F8
3E00F8
1F01F0
1F01F0
0F83E0
0FC7E0
07C7C0
07EF80
03EF80
01FF00
01FF00
00FE00
00FE00
007C00
007C00
007C00
007C00
007C00
007C00
007C00
007C00
007C00
007C00
007C00
007C00
ENDCHAR
STARTCHAR 005A
ENCODING 90
SWIDTH 666 0
DWIDTH 25 0
BBX 21 27 2 0
BITMAP
7FFFF8
7FFFF0
7FFFF0
7FFFE0
0007E0
000FC0
000F80
001F80
001F00
003F00
007E00
007E00
00FC00
00F800
01F800
03F000
03F000
07E000
07C000
0FC000
1F8000
1F8000
3F0000
3FFFF8
7FFFF8
FFFFF8
FFFFF8
ENDCHAR
STARTCHAR 005B
ENCODING 91
SWIDTH 426 0
DWIDTH 16 0
BBX 8 42 5 -8
BITMAP
FF
FF
FF
FF
F0
F0
F0
F0
F0
F0
F0
F0
F0
F0
F0
F0
F0
F0
F0
F0
F0
F0
F0
F0
F0
F0
F0
F0
F0
F0
F0
F0
F0
F0
F0
F0
F0
F0
FF
FF
FF
FF
ENDCHAR
STARTCHAR 005C
ENCODING 92
SWIDTH 426 0
DWIDTH 16 0
BBX 12 27 2 0
BITMAP
F800
7800
7800
7C00
7C00
3C00
3E00
3E00
1E00
1E00
1F00
1F00
0F00
0F00
0F80
0F80
0780
0780
07C0
07C0
03C0
03E0
03E0
03E0
01E0
01F0
01F0
ENDCHAR
STARTCHAR 005D
ENCODING 93
SWIDTH 426 0
DWIDTH 16 0
BBX 9 42 2 -8
BITMAP
FF80
FF80
FF80
FF80
0780
0780
0780
0780
0780
0780
0780
0780
0780
0780
0780
0780
0780
0780
0780
0780
0780
0780
0780
0780
0780
0780
0780
0780
0780
0780
0780
0780
0780
0780
0780
0780
0780
0780
FF80
FF80
FF80
FF80
ENDCHAR
STARTCHAR 005E
ENCODING 94
SWIDTH 693 0
DWIDTH 26 0
BBX 17 12 4 16
BITMAP
008000
01C000
03E000
07F000
0FF800
1FFC00
3F3E00
7E1F00
FC0F80
F80780
700300
200000
ENDCHAR
STARTCHAR 005F
ENCODING 95
SWIDTH 666 0
DWIDTH 25 0
BBX 25 4 0 -5
BITMAP
FFFFFF80
FFFFFF80
FFFFFF80
FFFFFF80
ENDCHAR
STARTCHAR 0060
ENCODING 96
SWIDTH 533 0
DWIDTH 20 0
BBX 6 7 6 30
BITMAP
F0
70
78
38
38
3C
1C
ENDCHAR
STARTCHAR 0061
ENCODING 97
SWIDTH 586 0
DWIDTH 22 0
BBX 18 21 1 0
BITMAP
03F800
0FFF00
1FFF80
3FFF80
3F0FC0
7C07C0
0803C0
0007C0
01FFC0
0FFFC0
3FFFC0
7FE3C0
7E03C0
7803C0
F807C0
F807C0
7C1FC0
7FFFC0
3FFFC0
1FFBC0
0FE000
ENDCHAR
STARTCHAR 0062
ENCODING 98
SWIDTH 613 0
DWIDTH 23 0
BBX 19 27 3 0
BITMAP
F00000
F00000
F00000
F00000
F00000
F00000
F3F000
FFFC00
FFFF00
FFFF00
FC1F80
F80FC0
F007C0
F007C0
F003C0
F003E0
F003E0
F003E0
F003C0
F007C0
F007C0
F80FC0
FC1F80
FFFF00
FFFF00
FFFC00
F3F000
ENDCHAR
STARTCHAR 0063
ENCODING 99
SWIDTH 586 0
DWIDTH 22 0
BBX 19 21 1 0
BITMAP
01FC00
07FF00
0FFF80
1FFFC0
3F8FE0
7E03E0
7C03E0
7C0000
780000
780000
F80000
780000
780000
7C0000
7C03E0
7E03E0
3F8FE0
1FFFC0
0FFF80
07FF00
01FC00
ENDCHAR
STARTCHAR 0064
ENCODING 100
SWIDTH 613 0
DWIDTH 23 0
BBX 20 27 1 0
BITMAP
0001F0
0001F0
0001F0
0001F0
0001F0
0001F0
01F9F0
07FFF0
1FFFF0
1FFFF0
3F07F0
7E03F0
7C01F0
7C01F0
7801F0
7801F0
F800F0
7801F0
7801F0
7C01F0
7C01F0
7E03F0
3F07F0
1FFFF0
0FFFF0
07FEF0
01F8F0
ENDCHAR
STARTCHAR 0065
ENCODING 101
SWIDTH 613 0
DWIDTH 23 0
BBX 20 21 1 0
BITMAP
01FC00
07FF00
0FFF80
1FFFC0
3F07E0
3E03E0
7C01E0
7C01F0
7801F0
7FFFF0
FFFFF0
FFFFF0
780000
7C0000
7C0180
7E03F0
3F8FE0
1FFFC0
0FFFC0
07FF00
01FC00
ENDCHAR
STARTCHAR 0066
ENCODING 102
SWIDTH 373 0
DWIDTH 14 0
BBX 13 27 1 0
BITMAP
01F8
07F8
0FF8
0FF8
1F00
1F00
FFF8
FFF8
FFF8
FFF8
1F00
1F00
1F00
1F00
1F00
1F00
1F00
1F00
1F00
1F00
1F00
1F00
1F00
1F00
1F00
1F00
1F00
ENDCHAR
STARTCHAR 0067
ENCODING 103
SWIDTH 613 0
DWIDTH 23 0
BBX 19 30 1 -9
BITMAP
01F8E0
07FFE0
1FFFE0
1FFFE0
3F07E0
7E03E0
7C01E0
7C01E0
7801E0
7801E0
F800E0
7801E0
7801E0
7C01E0
7C01E0
7E03E0
3F07E0
1FFFE0
0FFFE0
07FFE0
01F9E0
0001E0
0001E0
0003E0
0E03E0
3F8FE0
1FFFC0
0FFF80
07FF00
01FC00
ENDCHAR
STARTCHAR 0068
ENCODING 104
SWIDTH 613 0
DWIDTH 23 0
BBX 18 27 3 0
BITMAP
F00000
F00000
F00000
F00000
F00000
F00000
F1F800
F7FE00
FFFF00
FFFF80
FE3F80
FC0FC0
F807C0
F807C0
F007C0
F003C0
F003C0
F003C0
F003C0
F003C0
F003C0
F003C0
F003C0
F003C0
F003C0
F003C0
F003C0
ENDCHAR
STARTCHAR 0069
ENCODING 105
SWIDTH 293 0
DWIDTH 11 0
BBX 5 27 3 0
BITMAP
F8
F8
F8
F8
00
00
F8
F8
F8
F8
F8
F8
F8
F8
F8
F8
F8
F8
F8
F8
F8
F8
F8
F8
F8
F8
F8
ENDCHAR
STARTCHAR 006A
ENCODING 106
SWIDTH 293 0
DWIDTH 11 0
BBX 8 36 0 -9
BITMAP
0F
0F
0F
0F
00
00
0F
0F
0F
0F
0F
0F
0F
0F
0F
0F
0F
0F
0F
0F
0F
0F
0F
0F
0F
0F
0F
0F
0F
0F
1F
3F
FF
FE
FE
F8
ENDCHAR
STARTCHAR 006B
ENCODING 107
SWIDTH 533 0
DWIDTH 20 0
BBX 18 27 3 0
BITMAP
F00000
F00000
F00000
F00000
F00000
F00000
F01F80
F01F00
F03E00
F07E00
F0FC00
F0F800
F1F000
F3F000
F7E000
F7C000
FF8000
F7C000
F7E000
F3F000
F1F800
F0F800
F0FC00
F07E00
F03F00
F01F80
F00FC0
ENDCHAR
STARTCHAR 006C
ENCODING 108
SWIDTH 293 0
DWIDTH 11 0
BBX 5 27 3 0
BITMAP
F8
F8
F8
F8
F8
F8
F8
F8
F8
F8
F8
F8
F8
F8
F8
F8
F8
F8
F8
F8
F8
F8
F8
F8
F8
F8
F8
ENDCHAR
STARTCHAR 006D
ENCODING 109
SWIDTH 906 0
DWIDTH 34 0
BBX 28 21 3 0
BITMAP
F1F01F00
F7FC7FC0
FFFEFFE0
FFFFFFF0
FC3FC3F0
F81F81F0
F01F80F0
F00F00F0
F00F00F0
F00F00F0
F00F00F0
F00F00F0
F00F00F0
F00F00F0
F00F00F0
F00F00F0
F00F00F0
F00F00F0
F00F00F0
F00F00F0
F00F00F0
ENDCHAR
STARTCHAR 006E
ENCODING 110
SWIDTH 613 0
DWIDTH 23 0
BBX 18 21 3 0
BITMAP
F3FC00
F7FE00
FFFF00
FFFF80
FE1F80
F80FC0
F807C0
F007C0
F007C0
F003C0
F003C0
F003C0
F003C0
F003C0
F003C0
F003C0
F003C0
F003C0
F003C0
F003C0
F003C0
ENDCHAR
STARTCHAR 006F
ENCODING 111
SWIDTH 613 0
DWIDTH 23 0
BBX 21 21 1 0
BITMAP
01FC00
07FF00
0FFF80
1FFFC0
3F8FE0
3E03F0
7C01F0
7C01F0
7800F8
7800F8
F800F8
7800F8
7800F0
7C01F0
7C01F0
3E03F0
3F8FE0
1FFFC0
0FFF80
07FF00
01FC00
ENDCHAR
STARTCHAR 0070
ENCODING 112
SWIDTH 613 0
DWIDTH 23 0
BBX 19 29 3 -8
BITMAP
F3F000
FFFC00
FFFF00
FFFF00
FC1F80
F80FC0
F007C0
F007C0
F003C0
F003E0
F003E0
F003E0
F003C0
F007C0
F007C0
F80FC0
FC1F80
FFFF00
FFFF00
FFFC00
F3F000
F00000
F00000
F00000
F00000
F00000
F00000
F00000
F00000
ENDCHAR
STARTCHAR 0071
ENCODING 113
SWIDTH 613 0
DWIDTH 23 0
BBX 20 29 1 -8
BITMAP
01F8F0
07FFF0
1FFFF0
1FFFF0
3F07F0
7E03F0
7C01F0
7C01F0
7801F0
7801F0
F800F0
7801F0
7801F0
7C01F0
7C01F0
7E03F0
3F07F0
1FFFF0
0FFFF0
07FFF0
01F9F0
0001F0
0001F0
0001F0
0001F0
0001F0
0001F0
0001F0
0001F0
ENDCHAR
STARTCHAR 0072
ENCODING 114
SWIDTH 400 0
DWIDTH 15 0
BBX 11 21 3 0
BITMAP
F1E0
F7E0
FFE0
FFE0
FF00
FC00
F800
F800
F000
F000
F000
F000
F000
F000
F000
F000
F000
F000
F000
F000
F000
ENDCHAR
STARTCHAR 0073
ENCODING 115
SWIDTH 533 0
DWIDTH 20 0
BBX 17 21 2 0
BITMAP
07F000
1FFC00
7FFE00
7FFF00
FC3F00
F80F80
F80800
FC0000
7F8000
7FF800
1FFE00
03FF00
007F00
000F80
F00F80
F80F80
FC1F00
7FFF00
7FFE00
1FFC00
07F000
ENDCHAR
STARTCHAR 0074
ENCODING 116
SWIDTH 426 0
DWIDTH 16 0
BBX 14 27 0 0
BITMAP
0F80
0F80
0F80
0F80
0F80
0F80
FFFC
FFFC
FFFC
FFFC
0F80
0F80
0F80
0F80
0F80
0F80
0F80
0F80
0F80
0F80
0F80
0F80
0FC0
0FFC
07FC
03FC
00FC
ENDCHAR
STARTCHAR 0075
ENCODING 117
SWIDTH 613 0
DWIDTH 23 0
BBX 19 21 2 0
BITMAP
F803E0
F803E0
F803E0
F803E0
F803E0
F803E0
F803E0
F803E0
F803E0
F803E0
F803E0
F803E0
F803E0
F803E0
FC03E0
7C07E0
7E0FE0
7FFFE0
3FFFE0
1FFDE0
07F1E0
ENDCHAR
STARTCHAR 0076
ENCODING 118
SWIDTH 560 0
DWIDTH 21 0
BBX 19 21 1 0
BITMAP
F003E0
F803C0
7803C0
7807C0
7C0780
3C0780
3C0F80
3E0F00
1E0F00
1E1F00
1F1E00
0F1E00
0F3E00
0FBC00
07BC00
07FC00
03F800
03F800
03F800
01F000
01F000
ENDCHAR
STARTCHAR 0077
ENCODING 119
SWIDTH 800 0
DWIDTH 30 0
BBX 28 21 1 0
BITMAP
F00F00F0
F80F01F0
F81F81F0
781F81E0
781F81E0
7C3FC3E0
3C3FC3C0
3C3FC3C0
3E39C7C0
1E79E7C0
1E79E780
1F70E780
1FF0FF80
0FF0FF00
0FF07F00
0FE07F00
07E07E00
07E07E00
07C03E00
07C03E00
03C03C00
ENDCHAR
STARTCHAR 0078
ENCODING 120
SWIDTH 560 0
DWIDTH 21 0
BBX 19 21 1 0
BITMAP
F803E0
7C07C0
7E0F80
3E0F80
1F1F00
1FBE00
0FBE00
07FC00
07F800
03F800
01F000
03F800
07F800
07FC00
0FBE00
1F3F00
1F1F00
3E0F80
7C0FC0
FC07C0
F803E0
ENDCHAR
STARTCHAR 0079
ENCODING 121
SWIDTH 560 0
DWIDTH 21 0
BBX 20 29 1 -8
BITMAP
F001F0
F801E0
F803E0
7C03C0
7C03C0
3C07C0
3E0780
3E0F80
1E0F80
1F0F00
0F1F00
0F9E00
079E00
07BE00
07FC00
03FC00
03F800
01F800
01F800
01F000
01F000
01F000
01E000
03E000
03C000
03C000
07C000
078000
078000
ENDCHAR
STARTCHAR 007A
ENCODING 122
SWIDTH 533 0
DWIDTH 20 0
BBX 18 21 1 0
BITMAP
7FFFC0
7FFF80
7FFF00
7FFF00
003E00
007C00
007C00
00F800
00F000
01F000
03E000
03C000
07C000
0F8000
0F0000
1F0000
3E0000
3FFF80
7FFF80
FFFF80
FFFF80
ENDCHAR
STARTCHAR 007B
ENCODING 123
SWIDTH 453 0
DWIDTH 17 0
BBX 10 42 5 -8
BITMAP
07C0
0FC0
1FC0
1FC0
1F00
3E00
3E00
3E00
3E00
3E00
3E00
3E00
3E00
3E00
3E00
3E00
3E00
3E00
3C00
7C00
F800
F800
7C00
7C00
3E00
3E00
3E00
3E00
3E00
3E00
3E00
3E00
3E00
3E00
3E00
3E00
3E00
1E00
1FC0
1FC0
0FC0
07C0
ENDCHAR
STARTCHAR 007C
ENCODING 124
SWIDTH 293 0
DWIDTH 11 0
BBX 5 27 3 0
BITMAP
F8
F8
F8
F8
F8
F8
F8
F8
F8
F8
F8
F8
F8
F8
F8
F8
F8
F8
F8
F8
F8
F8
F8
F8
F8
F8
F8
ENDCHAR
STARTCHAR 007D
ENCODING 125
SWIDTH 453 0
DWIDTH 17 0
BBX 10 42 2 -8
BITMAP
F800
FC00
FE00
FE00
3E00
1E00
1E00
1E00
1E00
1E00
1E00
1E00
1E00
1E00
1E00
1E00
1E00
1F00
1F00
0F80
07C0
07C0
0F80
1F00
1F00
1E00
1E00
1E00
1E00
1E00
1E00
1E00
1E00
1E00
1E00
1E00
1E00
3E00
FE00
FE00
FC00
F800
ENDCHAR
STARTCHAR 007E
ENCODING 126
SWIDTH 720 0
DWIDTH 27 0
BBX 19 9 4 7
BITMAP
1E0000
7F83C0
7FE1E0
FFF3E0
FFFFE0
F1FFC0
F07FC0
F03F80
000600
ENDCHAR
STARTCHAR 00A0
ENCODING 160
SWIDTH 213 0
DWIDTH 8 0
BBX 0 0 0 0
BITMAP
ENDCHAR
STARTCHAR 00A1
ENCODING 161
SWIDTH 373 0
DWIDTH 14 0
BBX 5 27 4 -6
BITMAP
F8
F8
F8
F8
00
00
00
F8
F8
F8
F8
F8
F8
F8
F8
F8
F8
F8
F8
F8
F8
F8
F8
F8
F8
F8
F8
ENDCHAR
STARTCHAR 00A2
ENCODING 162
SWIDTH 586 0
DWIDTH 22 0
BBX 19 28 1 -1
BITMAP
007000
007000
007000
007000
03FE00
0FFF80
1FFFC0
3FFFC0
3F07E0
7E03E0
7C0180
7C0000
780000
F80000
F80000
780000
7C0000
7C0100
7C03E0
3E07E0
3FDFC0
1FFFC0
0FFF80
07FF00
00F800
007000
007000
007000
ENDCHAR
STARTCHAR 00A3
ENCODING 163
SWIDTH 560 0
DWIDTH 21 0
BBX 19 27 1 0
BITMAP
00FC00
01FF00
07FF80
07FF80
0FCFC0
0F83C0
0F03E0
0F0180
0F0000
0F0000
0F0000
0F0000
FFFC00
FFFC00
FFFC00
FFFC00
0F0000
0F0000
0F0000
0F0000
0F0000
1F0000
3F0000
FFFF80
FFFF80
FFFF80
FFFF80
ENDCHAR
STARTCHAR 00A4
ENCODING 164
SWIDTH 666 0
DWIDTH 25 0
BBX 23 21 1 3
BITMAP
300018
78FE3C
FFFFFE
7FFFFC
3FFFF8
1F83F0
1E00F0
3C0078
3C0078
3C0078
3C0038
3C0078
3C0078
3C0078
1E00F0
1F83F0
3FFFF8
7FFFFC
FFFFFE
78FE3C
300018
ENDCHAR
STARTCHAR 00A5
ENCODING 165
SWIDTH 613 0
DWIDTH 23 0
BBX 23 27 0 0
BITMAP
FC007E
7C007C
7E00F8
3E00F8
1F01F0
1F03F0
0F83E0
0FC7E0
07C7C0
03EF80
03EF80
01FF00
01FF00
0FFFE0
0FFFE0
0FFFE0
0FFFE0
007C00
007C00
007C00
0FFFE0
0FFFE0
0FFFE0
0FFFE0
007C00
007C00
007C00
ENDCHAR
STARTCHAR 00A6
ENCODING 166
SWIDTH 293 0
DWIDTH 11 0
BBX 5 35 3 -8
BITMAP
F8
F8
F8
F8
F8
F8
F8
F8
F8
F8
F8
F8
F8
F8
F8
00
00
00
00
F8
F8
F8
F8
F8
F8
F8
F8
F8
F8
F8
F8
F8
F8
F8
F8
ENDCHAR
STARTCHAR 00A7
ENCODING 167
SWIDTH 533 0
DWIDTH 20 0
BBX 17 30 2 -5
BITMAP
07C000
1FF800
3FFC00
7FFE00
FC7E00
F83E00
F81800
FC0000
7F8000
7FF000
1FFC00
3FFF00
7C7F00
F81F80
F00F80
F80F80
FC0F80
FFDF00
7FFE00
1FFE00
07FF00
007F00
001F00
F80F00
F80F00
FC1F00
7FFF00
3FFE00
1FFC00
07F000
ENDCHAR
STARTCHAR 00A8
ENCODING 168
SWIDTH 560 0
DWIDTH 21 0
BBX 12 4 4 30
BITMAP
F8F0
F8F0
F8F0
F8F0
ENDCHAR
STARTCHAR 00A9
ENCODING 169
SWIDTH 880 0
DWIDTH 33 0
BBX 31 31 1 -2
BITMAP
000FE000
007FFC00
01FFFF00
03FFFF80
07F83FC0
0FE007E0
1F8003F0
3F0001F8
3E07E0F8
7C1FF87C
7C3FFC3C
787C3C3C
F8781E3E
F870101E
F070001E
F0F0001E
F0F0001E
F070001E
F878101E
F8781E3E
783E7C3C
7C3FF87C
3C1FF87C
3E07E0F8
1F0001F8
1FC007F0
0FF01FE0
07FFFFC0
01FFFF80
00FFFE00
001FF000
ENDCHAR
STARTCHAR 00AA
ENCODING 170
SWIDTH 320 0
DWIDTH 12 0
BBX 10 11 1 10
BITMAP
1F00
3F80
7380
0180
1FC0
7FC0
71C0
E1C0
77C0
7FC0
1800
ENDCHAR
STARTCHAR 00AB
ENCODING 171
SWIDTH 586 0
DWIDTH 22 0
BBX 16 17 3 2
BITMAP
0200
0307
0787
0F0F
1E1E
1C3C
3C78
7878
F0F0
78F0
7878
3C3C
1E1E
0F1E
078F
0787
0202
ENDCHAR
STARTCHAR 00AC
ENCODING 172
SWIDTH 613 0
DWIDTH 23 0
BBX 18 8 2 7
BITMAP
FFFFC0
FFFFC0
FFFFC0
FFFFC0
0001C0
0001C0
0001C0
0001C0
ENDCHAR
STARTCHAR 00AD
ENCODING 173
SWIDTH 426 0
DWIDTH 16 0
BBX 12 4 2 10
BITMAP
FFF0
FFF0
FFF0
FFF0
ENDCHAR
STARTCHAR 00AE
ENCODING 174
SWIDTH 666 0
DWIDTH 25 0
BBX 19 20 3 10
BITMAP
03F000
0FFC00
1FFF00
3E0F80
780780
73C3C0
F3F1C0
E319E0
E318E0
E318E0
E3F0E0
E3F0E0
E331E0
E319C0
731BC0
780780
3E0F80
1FFF00
0FFC00
03F000
ENDCHAR
STARTCHAR 00AF
ENCODING 175
SWIDTH 506 0
DWIDTH 19 0
BBX 10 4 4 31
BITMAP
FFC0
FFC0
FFC0
FFC0
ENDCHAR
STARTCHAR 00B0
ENCODING 176
SWIDTH 453 0
DWIDTH 17 0
BBX 14 13 1 14
BITMAP
0F80
1FE0
3FF0
7FF8
F878
F07C
F03C
F03C
F878
7FF8
3FF0
1FE0
0F80
ENDCHAR
STARTCHAR 00B1
ENCODING 177
SWIDTH 613 0
DWIDTH 23 0
BBX 18 19 2 2
BITMAP
01E000
01E000
01E000
01E000
FFFFC0
FFFFC0
FFFFC0
FFFFC0
01E000
01E000
01E000
01E000
01E000
000000
000000
FFFFC0
FFFFC0
FFFFC0
FFFFC0
ENDCHAR
STARTCHAR 00B2
ENCODING 178
SWIDTH 400 0
DWIDTH 15 0
BBX 12 17 2 10
BITMAP
1F00
3FC0
7FE0
F0E0
E0E0
E070
00E0
00E0
01E0
03C0
0F80
1F00
3C00
7800
FFF0
FFF0
FFF0
ENDCHAR
STARTCHAR 00B3
ENCODING 179
SWIDTH 400 0
DWIDTH 15 0
BBX 11 17 2 10
BITMAP
FFE0
FFE0
FFE0
03C0
0780
0E00
3F00
1F80
1FC0
01E0
00E0
00E0
60E0
E1C0
FFC0
7F80
1E00
ENDCHAR
STARTCHAR 00B4
ENCODING 180
SWIDTH 533 0
DWIDTH 20 0
BBX 6 7 8 30
BITMAP
3C
38
38
78
70
F0
E0
ENDCHAR
STARTCHAR 00B5
ENCODING 181
SWIDTH 640 0
DWIDTH 24 0
BBX 18 30 3 -9
BITMAP
F003C0
F003C0
F003C0
F003C0
F003C0
F003C0
F003C0
F003C0
F003C0
F003C0
F003C0
F003C0
F007C0
F807C0
F807C0
FC0FC0
FE1FC0
FFFFC0
FFFFC0
FFFBC0
FFE3C0
F00000
F00000
F00000
F00000
F00000
F00000
F00000
F00000
F00000
ENDCHAR
STARTCHAR 00B6
ENCODING 182
SWIDTH 720 0
DWIDTH 27 0
BBX 23 32 2 -5
BITMAP
07FE3E
1FFE3E
3FFE3E
7FFE3E
7FFE3E
FFFE3E
FFFE3E
FFFE3E
FFFE3E
FFFE3E
FFFE3E
FFFE3E
FFFE3E
7FFE3E
7FFE3E
3FFE3E
0FFE3E
00FE3E
001E3E
001E3E
001E3E
001E3E
001E3E
001E3E
001E3E
001E3E
001E3E
001E3E
001E3E
001E3E
001E3E
001E3E
ENDCHAR
STARTCHAR 00B7
ENCODING 183
SWIDTH 266 0
DWIDTH 10 0
BBX 6 5 2 10
BITMAP
78
FC
FC
78
78
ENDCHAR
STARTCHAR 00B8
ENCODING 184
SWIDTH 426 0
DWIDTH 16 0
BBX 6 10 5 -9
BITMAP
30
70
70
78
7C
1C
1C
FC
F8
F0
ENDCHAR
STARTCHAR 00B9
ENCODING 185
SWIDTH 346 0
DWIDTH 13 0
BBX 6 17 2 10
BITMAP
1C
7C
FC
FC
9C
1C
1C
1C
1C
1C
1C
1C
1C
1C
1C
1C
1C
ENDCHAR
STARTCHAR 00BA
ENCODING 186
SWIDTH 346 0
DWIDTH 13 0
BBX 11 11 1 10
BITMAP
1F00
3F80
79C0
60C0
60E0
E0E0
60E0
60C0
71C0
3F80
1F00
ENDCHAR
STARTCHAR 00BB
ENCODING 187
SWIDTH 586 0
DWIDTH 22 0
BBX 17 16 2 3
BITMAP
706000
F0F000
787800
3C3C00
1E3C00
0F1E00
0F0F00
078780
078F00
0F0F00
1E1E00
3C3C00
3C7800
78F000
70F000
202000
ENDCHAR
STARTCHAR 00BC
ENCODING 188
SWIDTH 1040 0
DWIDTH 39 0
BBX 32 27 2 0
BITMAP
1C000100
7C0001C0
FC0003C0
FC000780
9C000F00
1C000F00
1C001E00
1C003C00
1C007800
1C007800
1C00F038
1C01E070
1C03C070
1C03C0E0
1C0780E0
1C0F01E0
1C1E01C0
001E03CE
003C038E
0078078E
00F8070E
00F00FFF
01E00FFF
03C00FFF
07C0000E
0380000E
0100000E
ENDCHAR
STARTCHAR 00BD
ENCODING 189
SWIDTH 1013 0
DWIDTH 38 0
BBX 34 27 2 0
BITMAP
1C00010000
7C0001C000
FC0003C000
FC00078000
9C000F0000
1C000F0000
1C001E0000
1C003C0000
1C00780000
1C00780000
1C00F03E00
1C01E0FF00
1C03C1FF80
1C03C1C3C0
1C0781C1C0
1C0F0381C0
1C1F0001C0
001E0003C0
003C000780
0078000F00
0078001E00
00F0003C00
01E0007800
03C000F000
03C003FFC0
038003FFC0
010003FFC0
ENDCHAR
STARTCHAR 00BE
ENCODING 190
SWIDTH 1040 0
DWIDTH 39 0
BBX 34 27 2 0
BITMAP
FFE0002000
FFE0007000
FFE000F000
03C001E000
078001E000
0E0003C000
3F00078000
1F800F0000
1FC00F0000
01E01E0000
00E03C1E00
00E0781C00
60E0783C00
E1C0F03800
FFC1E07800
7F83E07000
1E03C07000
000780E380
000F00E380
001F01E380
001E01C380
003C03FFC0
007803FFC0
00F803FFC0
00F0000380
00E0000380
0040000380
ENDCHAR
STARTCHAR 00BF
ENCODING 191
SWIDTH 560 0
DWIDTH 21 0
BBX 17 28 2 -7
BITMAP
03E000
03E000
03E000
03E000
03E000
000000
000000
03E000
03E000
03E000
03E000
07E000
0FC000
1F8000
3F0000
3E0000
7C0000
F80000
F80000
F80000
F80000
F80F80
F80F00
FC1F00
7FFF00
3FFE00
1FFC00
0FF000
ENDCHAR
STARTCHAR 00C0
ENCODING 192
SWIDTH 666 0
DWIDTH 25 0
BBX 23 37 1 0
BITMAP
01C000
01C000
01E000
00E000
00F000
007000
007800
000000
000000
000000
00FE00
00FE00
01FF00
01FF00
01FF00
01EF80
03EF80
03E780
03C7C0
07C7C0
07C3C0
0783E0
0F83E0
0F83E0
0F01E0
1F01F0
1F01F0
1FFFF0
3FFFF8
3FFFF8
3FFFF8
7C007C
7C007C
7C003C
78003E
F8003E
F8001E
ENDCHAR
STARTCHAR 00C1
ENCODING 193
SWIDTH 666 0
DWIDTH 25 0
BBX 23 37 1 0
BITMAP
000780
000700
000F00
000E00
001E00
001C00
001C00
000000
000000
000000
00FE00
00FE00
01FF00
01FF00
01EF00
01EF80
03EF80
03EF80
03C7C0
07C7C0
07C7C0
0783E0
0F83E0
0F83E0
0F01E0
1F01F0
1F01F0
1FFFF0
3FFFF8
3FFFF8
3FFFF8
7C007C
7C007C
7C003C
78003E
F8003E
F8001E
ENDCHAR
STARTCHAR 00C2
ENCODING 194
SWIDTH 666 0
DWIDTH 25 0
BBX 23 36 1 0
BITMAP
007C00
00FE00
00FF00
01EF00
03C780
0783C0
000000
000000
000000
00FE00
00FE00
01FF00
01FF00
01EF00
01EF80
03EF80
03EF80
03C7C0
07C7C0
07C7C0
0783E0
0F83E0
0F83E0
0F01E0
1F01F0
1F01F0
1FFFF0
3FFFF8
3FFFF8
3FFFF8
7C007C
7C007C
7C003C
78003E
F8003E
F8001E
ENDCHAR
STARTCHAR 00C3
ENCODING 195
SWIDTH 666 0
DWIDTH 25 0
BBX 23 37 1 0
BITMAP
03C000
07F1C0
07FDC0
077FC0
071FC0
000780
000000
000000
000000
000000
00FE00
00FE00
01FF00
01FF00
01EF00
01EF80
03EF80
03EF80
03C7C0
07C7C0
07C7C0
0783E0
0F83E0
0F83E0
0F01E0
1F01F0
1F01F0
1FFFF0
3FFFF8
3FFFF8
3FFFF8
7C007C
7C007C
7C003C
78003E
F8003E
F8001E
ENDCHAR
STARTCHAR 00C4
ENCODING 196
SWIDTH 666 0
DWIDTH 25 0
BBX 23 34 1 0
BITMAP
03C7C0
03C7C0
03C7C0
03C7C0
000000
000000
000000
00FE00
00FE00
01FF00
01FF00
01EF00
01EF80
03EF80
03EF80
03C7C0
07C7C0
07C7C0
0783E0
0F83E0
0F83E0
0F01E0
1F01F0
1F01F0
1FFFF0
3FFFF8
3FFFF8
3FFFF8
7C007C
7C007C
7C003C
78003E
F8003E
F8001E
ENDCHAR
STARTCHAR 00C5
ENCODING 197
SWIDTH 666 0
DWIDTH 25 0
BBX 23 39 1 0
BITMAP
003800
00FE00
00FF00
01C700
01C300
01C300
01C700
01FF00
00FE00
003C00
000000
000000
00FE00
00FE00
01FF00
01FF00
01EF00
01EF80
03EF80
03EF80
03C7C0
07C7C0
07C7C0
0783E0
0F83E0
0F83E0
0F01E0
1F01F0
1F01F0
1FFFF0
3FFFF8
3FFFF8
3FFFF8
7C007C
7C007C
7C003C
78003E
F8003E
F8001E
ENDCHAR
STARTCHAR 00C6
ENCODING 198
SWIDTH 933 0
DWIDTH 35 0
BBX 32 27 1 0
BITMAP
00FFFFFF
00FFFFFF
01FFFFFF
01FFFFFF
01E1E000
01E1E000
03E1E000
03E1E000
03C1E000
07C1E000
07C1E000
0781FFFC
0F81FFFC
0F81FFFC
0F01FFFC
1F01E000
1F01E000
1FFFE000
3FFFE000
3FFFE000
3FFFE000
7C01E000
7C01E000
7C01FFFF
7801FFFF
F801FFFF
F801FFFF
ENDCHAR
STARTCHAR 00C7
ENCODING 199
SWIDTH 746 0
DWIDTH 28 0
BBX 25 35 1 -8
BITMAP
007F8000
03FFE000
07FFF800
0FFFFC00
1FE1FE00
3F003F00
3E001F00
7C000F80
7C000F80
78000000
F8000000
F8000000
F8000000
F8000000
F8000000
F8000000
F8000000
78000000
7C000F00
7C000F80
3E001F00
3F003F00
1FC0FE00
0FFFFC00
07FFF800
03FFF000
007F8000
000C0000
001E0000
001F0000
00070000
00078000
001F0000
003F0000
003E0000
ENDCHAR
STARTCHAR 00C8
ENCODING 200
SWIDTH 586 0
DWIDTH 22 0
BBX 17 37 3 0
BITMAP
0F0000
070000
078000
078000
038000
03C000
01C000
000000
000000
000000
FFFF80
FFFF80
FFFF80
FFFF80
F00000
F00000
F00000
F00000
F00000
F00000
F00000
FFFE00
FFFE00
FFFE00
FFFE00
F00000
F00000
F00000
F00000
F00000
F00000
F00000
F00000
FFFF80
FFFF80
FFFF80
FFFF80
ENDCHAR
STARTCHAR 00C9
ENCODING 201
SWIDTH 586 0
DWIDTH 22 0
BBX 17 37 3 0
BITMAP
003800
007800
007000
007000
00F000
00E000
01E000
000000
000000
000000
FFFF80
FFFF80
FFFF80
FFFF80
F00000
F00000
F00000
F00000
F00000
F00000
F00000
FFFE00
FFFE00
FFFE00
FFFE00
F00000
F00000
F00000
F00000
F00000
F00000
F00000
F00000
FFFF80
FFFF80
FFFF80
FFFF80
ENDCHAR
STARTCHAR 00CA
ENCODING 202
SWIDTH 586 0
DWIDTH 22 0
BBX 17 36 3 0
BITMAP
03C000
07E000
0FF000
1E7800
3E3C00
7C3E00
000000
000000
000000
FFFF80
FFFF80
FFFF80
FFFF80
F00000
F00000
F00000
F00000
F00000
F00000
F00000
FFFE00
FFFE00
FFFE00
FFFE00
F00000
F00000
F00000
F00000
F00000
F00000
F00000
F00000
FFFF80
FFFF80
FFFF80
FFFF80
ENDCHAR
STARTCHAR 00CB
ENCODING 203
SWIDTH 586 0
DWIDTH 22 0
BBX 17 34 3 0
BITMAP
3C3C00
3C3C00
3C3C00
3C3C00
000000
000000
000000
FFFF80
FFFF80
FFFF80
FFFF80
F00000
F00000
F00000
F00000
F00000
F00000
F00000
FFFE00
FFFE00
FFFE00
FFFE00
F00000
F00000
F00000
F00000
F00000
F00000
F00000
F00000
FFFF80
FFFF80
FFFF80
FFFF80
ENDCHAR
STARTCHAR 00CC
ENCODING 204
SWIDTH 293 0
DWIDTH 11 0
BBX 7 37 1 0
BITMAP
E0
F0
70
70
78
38
3C
00
00
00
3E
3E
3E
3E
3E
3E
3E
3E
3E
3E
3E
3E
3E
3E
3E
3E
3E
3E
3E
3E
3E
3E
3E
3E
3E
3E
3E
ENDCHAR
STARTCHAR 00CD
ENCODING 205
SWIDTH 293 0
DWIDTH 11 0
BBX 7 37 3 0
BITMAP
1E
1C
3C
3C
38
78
70
00
00
00
F8
F8
F8
F8
F8
F8
F8
F8
F8
F8
F8
F8
F8
F8
F8
F8
F8
F8
F8
F8
F8
F8
F8
F8
F8
F8
F8
ENDCHAR
STARTCHAR 00CE
ENCODING 206
SWIDTH 293 0
DWIDTH 11 0
BBX 13 36 -1 0
BITMAP
0F00
1F80
3FC0
7DE0
F8F0
F078
0000
0000
0000
0F80
0F80
0F80
0F80
0F80
0F80
0F80
0F80
0F80
0F80
0F80
0F80
0F80
0F80
0F80
0F80
0F80
0F80
0F80
0F80
0F80
0F80
0F80
0F80
0F80
0F80
0F80
ENDCHAR
STARTCHAR 00CF
ENCODING 207
SWIDTH 293 0
DWIDTH 11 0
BBX 12 34 -1 0
BITMAP
F0F0
F0F0
F0F0
F0F0
0000
0000
0000
0F80
0F80
0F80
0F80
0F80
0F80
0F80
0F80
0F80
0F80
0F80
0F80
0F80
0F80
0F80
0F80
0F80
0F80
0F80
0F80
0F80
0F80
0F80
0F80
0F80
0F80
0F80
ENDCHAR
STARTCHAR 00D0
ENCODING 208
SWIDTH 693 0
DWIDTH 26 0
BBX 24 27 0 0
BITMAP
1FFF00
1FFFE0
1FFFF0
1FFFF8
1E03FC
1E007E
1E003E
1E003F
1E001F
1E001F
1E001F
FFF80F
FFF80F
FFF80F
FFF80F
1E000F
1E001F
1E001F
1E001F
1E003E
1E003E
1E007E
1E03FC
1FFFF8
1FFFF0
1FFFE0
1FFF00
ENDCHAR
STARTCHAR 00D1
ENCODING 209
SWIDTH 720 0
DWIDTH 27 0
BBX 21 36 3 0
BITMAP
03C000
07E180
0FFB80
0F7F80
0E3F80
000F00
000000
000000
000000
F80078
F80078
FC0078
FE0078
FE0078
FF0078
FF0078
FF8078
F7C078
F7C078
F3E078
F3F078
F1F078
F0F878
F0FC78
F07C78
F03E78
F03F78
F01F78
F00FF8
F00FF8
F007F8
F003F8
F003F8
F001F8
F000F8
F000F8
ENDCHAR
STARTCHAR 00D2
ENCODING 210
SWIDTH 746 0
DWIDTH 28 0
BBX 26 36 1 0
BITMAP
00F00000
00700000
00780000
00380000
00380000
003C0000
001C0000
00000000
00000000
007F8000
03FFE000
07FFF800
0FFFFC00
1FE1FE00
3F003F00
3E001F00
7C000F80
7C000F80
780007C0
F80007C0
F80007C0
F80007C0
F80007C0
F80007C0
F80007C0
F80007C0
780007C0
7C000F80
7C000F80
3E001F00
3F003F00
1FE1FE00
0FFFFC00
07FFF800
01FFF000
007F8000
ENDCHAR
STARTCHAR 00D3
ENCODING 211
SWIDTH 746 0
DWIDTH 28 0
BBX 26 36 1 0
BITMAP
0003C000
00038000
00078000
00070000
000F0000
000E0000
000E0000
00000000
00000000
007F8000
03FFE000
07FFF800
0FFFFC00
1FE1FE00
3F003F00
3E001F00
7C000F80
7C000F80
780007C0
F80007C0
F80007C0
F80007C0
F80007C0
F80007C0
F80007C0
F80007C0
780007C0
7C000F80
7C000F80
3E001F00
3F003F00
1FE1FE00
0FFFFC00
07FFF800
01FFF000
007F8000
ENDCHAR
STARTCHAR 00D4
ENCODING 212
SWIDTH 746 0
DWIDTH 28 0
BBX 26 35 1 0
BITMAP
001E0000
003F0000
007F8000
00F3C000
01E1E000
03E1F000
00000000
00000000
007F8000
03FFE000
07FFF800
0FFFFC00
1FE1FE00
3F003F00
3E001F00
7C000F80
7C000F80
780007C0
F80007C0
F80007C0
F80007C0
F80007C0
F80007C0
F80007C0
F80007C0
780007C0
7C000F80
7C000F80
3E001F00
3F003F00
1FE1FE00
0FFFFC00
07FFF800
01FFF000
007F8000
ENDCHAR
STARTCHAR 00D5
ENCODING 213
SWIDTH 746 0
DWIDTH 28 0
BBX 26 35 1 0
BITMAP
00F87000
01FC7000
01FFF000
01CFF000
01C3E000
00000000
00000000
00000000
007F8000
03FFE000
07FFF800
0FFFFC00
1FE1FE00
3F003F00
3E001F00
7C000F80
7C000F80
780007C0
F80007C0
F80007C0
F80007C0
F80007C0
F80007C0
F80007C0
F80007C0
780007C0
7C000F80
7C000F80
3E001F00
3F003F00
1FE1FE00
0FFFFC00
07FFF800
01FFF000
007F8000
ENDCHAR
STARTCHAR 00D6
ENCODING 214
SWIDTH 746 0
DWIDTH 28 0
BBX 26 34 1 0
BITMAP
01E1E000
01E1E000
01E1E000
01E1E000
00000000
00000000
00000000
007F8000
03FFE000
07FFF800
0FFFFC00
1FE1FE00
3F003F00
3E001F00
7C000F80
7C000F80
780007C0
F80007C0
F80007C0
F80007C0
F80007C0
F80007C0
F80007C0
F80007C0
780007C0
7C000F80
7C000F80
3E001F00
3F003F00
1FE1FE00
0FFFFC00
07FFF800
01FFF000
007F8000
ENDCHAR
STARTCHAR 00D7
ENCODING 215
SWIDTH 506 0
DWIDTH 19 0
BBX 15 14 2 6
BITMAP
2008
701C
F83E
7C7C
3EF8
1FF0
0FE0
07C0
0FE0
1FF0
3EF8
7C7C
783C
3018
ENDCHAR
STARTCHAR 00D8
ENCODING 216
SWIDTH 746 0
DWIDTH 28 0
BBX 26 27 1 0
BITMAP
007F8300
03FFF380
07FFFFC0
0FFFFF80
1FE1FF80
3F003F00
3E007F80
7C00FF80
7C01FF80
7803F7C0
F807E7C0
F80FC7C0
F80F87C0
F81F07C0
F83E07C0
F87C07C0
F8F807C0
79F007C0
7FE00F80
7FC00F80
3F801F00
3F803F00
3FE1FE00
7FFFFC00
7FFFF800
3BFFF000
107F8000
ENDCHAR
STARTCHAR 00D9
ENCODING 217
SWIDTH 720 0
DWIDTH 27 0
BBX 21 37 3 0
BITMAP
03C000
01C000
01E000
00E000
00E000
00F000
007000
000000
000000
000000
F00078
F00078
F00078
F00078
F00078
F00078
F00078
F00078
F00078
F00078
F00078
F00078
F00078
F00078
F00078
F00078
F00078
F00078
F000F8
F800F8
FC01F8
7E03F0
7F8FF0
3FFFE0
1FFFC0
07FF80
01FC00
ENDCHAR
STARTCHAR 00DA
ENCODING 218
SWIDTH 720 0
DWIDTH 27 0
BBX 21 37 3 0
BITMAP
001E00
001C00
001C00
003C00
003800
007800
007000
000000
000000
000000
F00078
F00078
F00078
F00078
F00078
F00078
F00078
F00078
F00078
F00078
F00078
F00078
F00078
F00078
F00078
F00078
F00078
F00078
F000F8
F800F8
FC01F8
7E03F0
7F8FF0
3FFFE0
1FFFC0
07FF80
01FC00
ENDCHAR
STARTCHAR 00DB
ENCODING 219
SWIDTH 720 0
DWIDTH 27 0
BBX 21 36 3 0
BITMAP
00F800
01FC00
03FC00
03DE00
078F00
0F0780
000000
000000
000000
F00078
F00078
F00078
F00078
F00078
F00078
F00078
F00078
F00078
F00078
F00078
F00078
F00078
F00078
F00078
F00078
F00078
F00078
F000F8
F800F8
FC01F8
7E03F0
7F8FF0
3FFFE0
1FFFC0
07FF80
01FC00
ENDCHAR
STARTCHAR 00DC
ENCODING 220
SWIDTH 720 0
DWIDTH 27 0
BBX 21 34 3 0
BITMAP
078F00
078F00
078F00
078F00
000000
000000
000000
F00078
F00078
F00078
F00078
F00078
F00078
F00078
F00078
F00078
F00078
F00078
F00078
F00078
F00078
F00078
F00078
F00078
F00078
F000F8
F800F8
FC01F8
7E03F0
7F8FF0
3FFFE0
1FFFC0
07FF80
01FC00
ENDCHAR
STARTCHAR 00DD
ENCODING 221
SWIDTH 613 0
DWIDTH 23 0
BBX 23 37 0 0
BITMAP
000F00
000E00
000E00
001E00
001C00
003C00
003800
000000
000000
000000
FC007E
7C007C
7E00F8
3E00F8
1F01F0
1F01F0
0F83E0
0FC7E0
07C7C0
07EF80
03EF80
01FF00
01FF00
00FE00
00FE00
007C00
007C00
007C00
007C00
007C00
007C00
007C00
007C00
007C00
007C00
007C00
007C00
ENDCHAR
STARTCHAR 00DE
ENCODING 222
SWIDTH 640 0
DWIDTH 24 0
BBX 20 27 3 0
BITMAP
F00000
F00000
F00000
F00000
F00000
FFFC00
FFFF00
FFFF80
FFFFC0
F00FC0
F003E0
F003E0
F001E0
F001F0
F001E0
F003E0
F003E0
F00FC0
FFFFC0
FFFF80
FFFF00
FFFC00
F00000
F00000
F00000
F00000
F00000
ENDCHAR
STARTCHAR 00DF
ENCODING 223
SWIDTH 640 0
DWIDTH 24 0
BBX 19 27 3 0
BITMAP
07E000
3FF800
7FFC00
7FFE00
FE7F00
F81F00
F00F00
F00F00
F00F00
F01F00
F03F00
F0FE00
F0FC00
F0FF00
F0FF80
F01FC0
F007C0
F003C0
F003E0
F003C0
F003C0
F007C0
F33FC0
F3FF80
F3FF80
F3FE00
F3F800
ENDCHAR
STARTCHAR 00E0
ENCODING 224
SWIDTH 586 0
DWIDTH 22 0
BBX 18 30 1 0
BITMAP
038000
03C000
03C000
01C000
01E000
00E000
00F000
000000
000000
03F800
0FFF00
1FFF80
3FFF80
3F0FC0
7C07C0
0803C0
0007C0
01FFC0
0FFFC0
3FFFC0
7FE3C0
7E03C0
7803C0
F807C0
F807C0
7C1FC0
7FFFC0
3FFFC0
1FFBC0
0FE000
ENDCHAR
STARTCHAR 00E1
ENCODING 225
SWIDTH 586 0
DWIDTH 22 0
BBX 18 30 1 0
BITMAP
001E00
001C00
003C00
003800
007800
007000
007000
000000
000000
03F800
0FFF00
1FFF80
3FFF80
3F0FC0
7C07C0
0803C0
0007C0
01FFC0
0FFFC0
3FFFC0
7FE3C0
7E03C0
7803C0
F807C0
F807C0
7C1FC0
7FFFC0
3FFFC0
1FFBC0
0FE000
ENDCHAR
STARTCHAR 00E2
ENCODING 226
SWIDTH 586 0
DWIDTH 22 0
BBX 18 29 1 0
BITMAP
00F000
01F800
03FC00
079E00
0F0F00
1F0F80
000000
000000
03F800
0FFF00
1FFF80
3FFF80
3F0FC0
7C07C0
0803C0
0007C0
01FFC0
0FFFC0
3FFFC0
7FE3C0
7E03C0
7803C0
7807C0
F807C0
7C1FC0
7FFFC0
3FFFC0
1FFBC0
0FE1C0
ENDCHAR
STARTCHAR 00E3
ENCODING 227
SWIDTH 586 0
DWIDTH 22 0
BBX 18 29 1 0
BITMAP
07C380
0FE380
0FFF80
0E7F80
0E1F00
000000
000000
000000
03F800
0FFF00
1FFF80
3FFF80
3F0FC0
7C07C0
0803C0
0007C0
01FFC0
0FFFC0
3FFFC0
7FE3C0
7E03C0
7C03C0
F807C0
F807C0
7C1FC0
7FFFC0
3FFFC0
1FFBC0
0FE000
ENDCHAR
STARTCHAR 00E4
ENCODING 228
SWIDTH 586 0
DWIDTH 22 0
BBX 18 27 1 0
BITMAP
0F0F00
0F0F00
0F0F00
0F0F00
000000
000000
03F800
0FFF00
1FFF80
3FFF80
3F0FC0
7C07C0
0803C0
0007C0
01FFC0
0FFFC0
3FFFC0
7FE3C0
7E03C0
7803C0
7807C0
F807C0
7C1FC0
7FFFC0
3FFFC0
1FFBC0
0FE1C0
ENDCHAR
STARTCHAR 00E5
ENCODING 229
SWIDTH 586 0
DWIDTH 22 0
BBX 18 32 1 0
BITMAP
00F000
01FC00
03FC00
078E00
070E00
070E00
079E00
03FC00
01F800
006000
000000
03F800
0FFF00
1FFF80
3FFF80
3F0FC0
7C07C0
0803C0
0007C0
01FFC0
0FFFC0
3FFFC0
7FE3C0
7E03C0
7803C0
F807C0
F807C0
7C1FC0
7FFFC0
3FFFC0
1FFBC0
0FE000
ENDCHAR
STARTCHAR 00E6
ENCODING 230
SWIDTH 933 0
DWIDTH 35 0
BBX 33 21 1 0
BITMAP
01F80FE000
07FE3FF800
1FFFFFFC00
3FFFFFFE00
3F0FF83E00
7C07F01F00
0C03E00F00
0003E00F00
0007FFFF00
03FFFFFF80
1FFFFFFF80
3FFFFFFF80
7F03E00000
7C03E00000
7807E00800
F807F01F00
781FFC7F00
7FFEFFFE00
3FFC7FFC00
3FF83FF800
0FE00FE000
ENDCHAR
STARTCHAR 00E7
ENCODING 231
SWIDTH 586 0
DWIDTH 22 0
BBX 19 30 1 -9
BITMAP
01FC00
07FF00
0FFF80
1FFFC0
3F8FE0
3E03E0
7C03E0
7C0000
780000
780000
F80000
780000
780000
7C0000
7C03C0
7E03E0
3F07E0
1FFFC0
0FFF80
07FF00
01FC00
007000
007000
00F800
007800
003C00
003C00
00F800
01F800
01F000
ENDCHAR
STARTCHAR 00E8
ENCODING 232
SWIDTH 613 0
DWIDTH 23 0
BBX 20 30 1 0
BITMAP
03C000
01C000
01E000
00E000
00E000
00F000
007000
000000
000000
01FC00
07FF00
0FFF80
1FFFC0
3F07E0
3E03E0
7C01E0
7C01F0
7801F0
7FFFF0
FFFFF0
FFFFF0
780000
7C0000
7C0180
7E03F0
3F8FE0
1FFFC0
0FFFC0
07FF00
01FC00
ENDCHAR
STARTCHAR 00E9
ENCODING 233
SWIDTH 613 0
DWIDTH 23 0
BBX 20 30 1 0
BITMAP
000E00
001E00
001C00
001C00
003C00
003800
007800
000000
000000
01FC00
07FF00
0FFF80
1FFFC0
3F07E0
3E03E0
7C01E0
7C01F0
7801F0
7FFFF0
FFFFF0
FFFFF0
780000
7C0000
7C0180
7E03F0
3F8FE0
1FFFC0
0FFFC0
07FF00
01FC00
ENDCHAR
STARTCHAR 00EA
ENCODING 234
SWIDTH 613 0
DWIDTH 23 0
BBX 20 29 1 0
BITMAP
00F800
01FC00
03FE00
03DE00
078F00
0F0780
000000
000000
01FC00
07FF00
0FFF80
1FFFC0
3F07E0
3E03E0
7C01E0
7C01F0
7801F0
7FFFF0
FFFFF0
FFFFF0
780000
7C0000
7C0180
7E03F0
3F8FE0
1FFFC0
0FFFC0
07FF00
01FC00
ENDCHAR
STARTCHAR 00EB
ENCODING 235
SWIDTH 613 0
DWIDTH 23 0
BBX 20 27 1 0
BITMAP
078F80
078F80
078F80
078F80
000000
000000
01FC00
07FF00
0FFF80
1FFFC0
3F07E0
3E03E0
7C01E0
7C01F0
7801F0
7FFFF0
FFFFF0
FFFFF0
780000
7C0000
7C0180
7E03F0
3F8FE0
1FFFC0
0FFFC0
07FF00
01FC00
ENDCHAR
STARTCHAR 00EC
ENCODING 236
SWIDTH 293 0
DWIDTH 11 0
BBX 7 31 1 0
BITMAP
E0
F0
70
70
78
38
3C
00
00
00
3E
3E
3E
3E
3E
3E
3E
3E
3E
3E
3E
3E
3E
3E
3E
3E
3E
3E
3E
3E
3E
ENDCHAR
STARTCHAR 00ED
ENCODING 237
SWIDTH 293 0
DWIDTH 11 0
BBX 7 31 3 0
BITMAP
1E
1C
1C
3C
38
78
70
00
00
00
F8
F8
F8
F8
F8
F8
F8
F8
F8
F8
F8
F8
F8
F8
F8
F8
F8
F8
F8
F8
F8
ENDCHAR
STARTCHAR 00EE
ENCODING 238
SWIDTH 293 0
DWIDTH 11 0
BBX 13 30 -1 0
BITMAP
0F80
1FC0
3FC0
3DE0
78F0
F078
0000
0000
0000
0F80
0F80
0F80
0F80
0F80
0F80
0F80
0F80
0F80
0F80
0F80
0F80
0F80
0F80
0F80
0F80
0F80
0F80
0F80
0F80
0F80
ENDCHAR
STARTCHAR 00EF
ENCODING 239
SWIDTH 293 0
DWIDTH 11 0
BBX 12 27 -1 0
BITMAP
F0F0
F0F0
F0F0
F0F0
0000
0000
0F80
0F80
0F80
0F80
0F80
0F80
0F80
0F80
0F80
0F80
0F80
0F80
0F80
0F80
0F80
0F80
0F80
0F80
0F80
0F80
0F80
ENDCHAR
STARTCHAR 00F0
ENCODING 240
SWIDTH 586 0
DWIDTH 22 0
BBX 20 29 1 0
BITMAP
000200
01E700
01FF00
01FF00
007F00
007F80
007FC0
0033C0
0001C0
01F9E0
07FFE0
1FFFE0
1FFFE0
3F07F0
7C03F0
7C01F0
7801F0
7801F0
F801F0
F801F0
7801F0
7801F0
7C01E0
7C03E0
3F07E0
1FFFC0
1FFF80
07FF00
01FC00
ENDCHAR
STARTCHAR 00F1
ENCODING 241
SWIDTH 613 0
DWIDTH 23 0
BBX 18 29 3 0
BITMAP
1F0000
1F8E00
3FEE00
39FE00
38FE00
383C00
000000
000000
01F800
F7FE00
FFFF00
FFFF80
FE3F80
FC0FC0
F807C0
F807C0
F007C0
F003C0
F003C0
F003C0
F003C0
F003C0
F003C0
F003C0
F003C0
F003C0
F003C0
F003C0
F003C0
ENDCHAR
STARTCHAR 00F2
ENCODING 242
SWIDTH 613 0
DWIDTH 23 0
BBX 21 30 1 0
BITMAP
03C000
03C000
01C000
01E000
00E000
00F000
007000
000000
000000
01FC00
07FF00
0FFF80
1FFFC0
3F8FE0
3E03F0
7C01F0
7C01F0
7800F8
7800F8
F800F8
7800F8
7800F0
7C01F0
7C01F0
3E03F0
3F8FE0
1FFFC0
0FFF80
07FF00
01FC00
ENDCHAR
STARTCHAR 00F3
ENCODING 243
SWIDTH 613 0
DWIDTH 23 0
BBX 21 30 1 0
BITMAP
001E00
001C00
001C00
003C00
003800
007800
007000
000000
000000
01FC00
07FF00
0FFF80
1FFFC0
3F8FE0
3E03F0
7C01F0
7C01F0
7800F8
7800F8
F800F8
7800F8
7800F0
7C01F0
7C01F0
3E03F0
3F8FE0
1FFFC0
0FFF80
07FF00
01FC00
ENDCHAR
STARTCHAR 00F4
ENCODING 244
SWIDTH 613 0
DWIDTH 23 0
BBX 21 29 1 0
BITMAP
00F800
01FC00
03FE00
03DE00
078F00
0F0780
000000
000000
01FC00
07FF00
0FFF80
1FFFC0
3F8FE0
3E03F0
7C01F0
7C01F0
7800F8
7800F8
F800F8
7800F8
7800F0
7C01F0
7C01F0
3E03F0
3F8FE0
1FFFC0
0FFF80
07FF00
01FC00
ENDCHAR
STARTCHAR 00F5
ENCODING 245
SWIDTH 613 0
DWIDTH 23 0
BBX 21 29 1 0
BITMAP
07C380
0FF380
0FFF80
0E3F80
0E1F00
000000
000000
000000
01FC00
07FF00
0FFF80
1FFFC0
3F8FE0
3E03F0
7C01F0
7C01F0
7800F8
7800F8
F800F8
7800F8
7800F0
7C01F0
7C01F0
3E03F0
3F8FE0
1FFFC0
0FFF80
07FF00
01FC00
ENDCHAR
STARTCHAR 00F6
ENCODING 246
SWIDTH 613 0
DWIDTH 23 0
BBX 21 27 1 0
BITMAP
078F80
078F80
078F80
078F80
000000
000000
01FC00
07FF00
0FFF80
1FFFC0
3F8FE0
3E03F0
7C01F0
7C01F0
7800F8
7800F8
F800F8
7800F8
7800F0
7C01F0
7C01F0
3E03F0
3F8FE0
1FFFC0
0FFF80
07FF00
01FC00
ENDCHAR
STARTCHAR 00F7
ENCODING 247
SWIDTH 533 0
DWIDTH 20 0
BBX 16 15 2 6
BITMAP
03C0
03C0
03C0
03C0
0000
FFFF
FFFF
FFFF
FFFF
0000
0000
03C0
03C0
03C0
03C0
ENDCHAR
STARTCHAR 00F8
ENCODING 248
SWIDTH 613 0
DWIDTH 23 0
BBX 21 21 1 0
BITMAP
01FC20
07FF70
0FFFF8
1FFFF8
3F8FF0
3E07F0
7C0FF0
7C1FF0
783EF8
787CF8
F8F8F8
79F0F8
7BE0F0
7FC1F0
7F81F0
3F03F0
7F8FE0
FFFFC0
7FFF80
37FF00
21FC00
ENDCHAR
STARTCHAR 00F9
ENCODING 249
SWIDTH 613 0
DWIDTH 23 0
BBX 19 31 2 0
BITMAP
078000
038000
038000
03C000
01C000
01E000
00E000
000000
000000
000000
F803E0
F803E0
F803E0
F803E0
F803E0
F803E0
F803E0
F803E0
F803E0
F803E0
F803E0
F803E0
F803E0
F803E0
FC03E0
7C07E0
7E0FE0
7FFFE0
3FFFE0
1FFDE0
07F1E0
ENDCHAR
STARTCHAR 00FA
ENCODING 250
SWIDTH 613 0
DWIDTH 23 0
BBX 19 31 2 0
BITMAP
003C00
003800
003800
007800
007000
00F000
00E000
000000
000000
000000
F803E0
F803E0
F803E0
F803E0
F803E0
F803E0
F803E0
F803E0
F803E0
F803E0
F803E0
F803E0
F803E0
F803E0
FC03E0
7C07E0
7E0FE0
7FFFE0
3FFFE0
1FFDE0
07F1E0
ENDCHAR
STARTCHAR 00FB
ENCODING 251
SWIDTH 613 0
DWIDTH 23 0
BBX 19 30 2 0
BITMAP
01F000
03F800
07F800
07BC00
0F1E00
1E0F00
000000
000000
000000
F803E0
F803E0
F803E0
F803E0
F803E0
F803E0
F803E0
F803E0
F803E0
F803E0
F803E0
F803E0
F803E0
F803E0
FC03E0
7C07E0
7E0FE0
7FFFE0
3FFFE0
1FFDE0
07F1E0
ENDCHAR
STARTCHAR 00FC
ENCODING 252
SWIDTH 613 0
DWIDTH 23 0
BBX 19 27 2 0
BITMAP
0F1E00
0F1E00
0F1E00
0F1E00
000000
000000
F803E0
F803E0
F803E0
F803E0
F803E0
F803E0
F803E0
F803E0
F803E0
F803E0
F803E0
F803E0
F803E0
F803E0
FC03E0
7C07E0
7E0FE0
7FFFE0
3FFFE0
1FFDE0
07F1E0
ENDCHAR
STARTCHAR 00FD
ENCODING 253
SWIDTH 560 0
DWIDTH 21 0
BBX 20 39 1 -8
BITMAP
001C00
003C00
003800
003800
007800
007000
00F000
000000
000000
000000
F001F0
F801E0
F803E0
7C03C0
7C03C0
3C07C0
3E0780
3E0F80
1E0F80
1F0F00
0F1F00
0F9E00
079E00
07BE00
07FC00
03FC00
03F800
01F800
01F800
01F000
01F000
01F000
01E000
03E000
03C000
03C000
07C000
078000
078000
ENDCHAR
STARTCHAR 00FE
ENCODING 254
SWIDTH 613 0
DWIDTH 23 0
BBX 19 35 3 -8
BITMAP
F00000
F00000
F00000
F00000
F00000
F00000
F3F000
FFFC00
FFFF00
FFFF00
FC1F80
F80FC0
F007C0
F007C0
F003C0
F003E0
F003E0
F003E0
F003C0
F007C0
F007C0
F80FC0
FC1F80
FFFF00
FFFF00
FFFC00
F3F000
F00000
F00000
F00000
F00000
F00000
F00000
F00000
F00000
ENDCHAR
STARTCHAR 00FF
ENCODING 255
SWIDTH 560 0
DWIDTH 21 0
BBX 20 35 1 -8
BITMAP
0F0F00
0F0F00
0F0F00
0F0F00
000000
000000
F001F0
F801E0
F803E0
7C03C0
7C03C0
3C07C0
3E0780
3E0F80
1E0F80
1F0F00
0F1F00
0F9E00
079E00
07BE00
07FC00
03FC00
03F800
01F800
01F800
01F000
01F000
01F000
01E000
03E000
03C000
03C000
07C000
078000
078000
ENDCHAR
ENDFONT
