STARTFONT 2.1
COMMENT
COMMENT Converted from OpenType font "manrope-extrabold.otf" by "otf2bdf 3.0".
COMMENT
FONT -FreeType-Manrope ExtraBold-Medium-R-Normal--32-230-100-100-P-158-ISO10646-1
SIZE 23 100 100
FONTBOUNDINGBOX 33 42 -1 -8
STARTPROPERTIES 19
FOUNDRY "FreeType"
FAMILY_NAME "Manrope ExtraBold"
WEIGHT_NAME "Medium"
SLANT "R"
SETWIDTH_NAME "Normal"
ADD_STYLE_NAME ""
PIXEL_SIZE 32
POINT_SIZE 230
RESOLUTION_X 100
RESOLUTION_Y 100
SPACING "P"
AVERAGE_WIDTH 158
CHARSET_REGISTRY "ISO10646"
CHARSET_ENCODING "1"
FONT_ASCENT 34
FONT_DESCENT 9
COPYRIGHT "Copyright 2019-2021 The Manrope Project Authors (https://github.com/sharanda/manrope)"
_OTF_FONTFILE "manrope-extrabold.otf"
_OTF_PSNAME "Manrope-ExtraBold"
ENDPROPERTIES
CHARS 191
STARTCHAR 0020
ENCODING 32
SWIDTH 187 0
DWIDTH 6 0
BBX 0 0 0 0
BITMAP
ENDCHAR
STARTCHAR 0021
ENCODING 33
SWIDTH 375 0
DWIDTH 12 0
BBX 4 23 4 0
BITMAP
F0
F0
F0
F0
F0
F0
F0
F0
F0
F0
F0
F0
F0
F0
F0
F0
F0
00
00
F0
F0
F0
F0
ENDCHAR
STARTCHAR 0022
ENCODING 34
SWIDTH 500 0
DWIDTH 16 0
BBX 11 6 2 17
BITMAP
F3E0
F3E0
F3E0
F3E0
F3E0
F3E0
ENDCHAR
STARTCHAR 0023
ENCODING 35
SWIDTH 939 0
DWIDTH 30 0
BBX 26 23 2 0
BITMAP
003C3C00
003C7800
00787800
00787800
0078F800
1FFFFFC0
1FFFFFC0
3FFFFF80
3FFFFF80
01F1E000
01E1E000
01E1E000
01E3E000
7FFFFF00
7FFFFF00
FFFFFE00
FFFFFE00
07C78000
07878000
078F8000
078F0000
0F0F0000
0F0F0000
ENDCHAR
STARTCHAR 0024
ENCODING 36
SWIDTH 626 0
DWIDTH 20 0
BBX 18 29 1 -3
BITMAP
01F000
01F000
01F000
07F800
1FFE00
3FFF00
3FFF80
7C0F80
7C07C0
780780
7C0000
7F0000
3FE000
1FFC00
0FFF00
03FF80
003FC0
0007C0
1803C0
F803C0
7C03C0
7E07C0
3FFF80
3FFF80
0FFE00
03FC00
01F000
01F000
01F000
ENDCHAR
STARTCHAR 0025
ENCODING 37
SWIDTH 907 0
DWIDTH 29 0
BBX 25 23 2 0
BITMAP
1F000C00
3FC01C00
7FC03E00
FFE07E00
F1E0FC00
F0E1F800
F1E3F000
FFE7E000
7FCFC000
3FDF8000
1F3F0000
007E0000
00FC7800
01F9FE00
03F3FF00
07E3FF00
0FC78780
1F878780
3F078780
7E03FF00
3C03FF00
3801FE00
10007C00
ENDCHAR
STARTCHAR 0026
ENCODING 38
SWIDTH 688 0
DWIDTH 22 0
BBX 19 23 2 0
BITMAP
07E000
1FF800
3FFC00
7FFE00
7C3E00
781800
780000
780000
7C0000
3E0000
3F0000
7F8780
FFE780
FBF780
F1FF80
F0FF80
F07F80
F83F00
FC3F80
FFFFC0
7FFFE0
3FFDC0
0FF080
ENDCHAR
STARTCHAR 0027
ENCODING 39
SWIDTH 281 0
DWIDTH 9 0
BBX 4 6 2 17
BITMAP
F0
F0
F0
F0
F0
F0
ENDCHAR
STARTCHAR 0028
ENCODING 40
SWIDTH 469 0
DWIDTH 15 0
BBX 9 33 4 -6
BITMAP
0700
0780
0F80
0F00
1F00
1E00
3C00
3C00
3C00
7800
7800
7800
7800
7800
F000
F000
F000
F000
7000
7800
7800
7800
7800
7800
3C00
3C00
3E00
1E00
1F00
0F80
0F80
0700
0200
ENDCHAR
STARTCHAR 0029
ENCODING 41
SWIDTH 469 0
DWIDTH 15 0
BBX 9 33 1 -6
BITMAP
3000
7800
7C00
7C00
3E00
1E00
1F00
0F00
0F00
0F00
0780
0780
0780
0780
0780
0780
0780
0780
0780
0780
0780
0780
0780
0F00
0F00
1F00
1E00
3E00
3C00
7C00
F800
7800
1000
ENDCHAR
STARTCHAR 002A
ENCODING 42
SWIDTH 469 0
DWIDTH 15 0
BBX 12 11 1 11
BITMAP
0F00
0F00
4F20
7FE0
FFF0
FFF0
3FC0
1F80
3FC0
7DE0
19C0
ENDCHAR
STARTCHAR 002B
ENCODING 43
SWIDTH 563 0
DWIDTH 18 0
BBX 14 15 2 4
BITMAP
0780
0780
0780
0780
0780
0780
FFFC
FFFC
FFFC
0780
0780
0780
0780
0780
0780
ENDCHAR
STARTCHAR 002C
ENCODING 44
SWIDTH 313 0
DWIDTH 10 0
BBX 4 8 2 -5
BITMAP
F0
F0
F0
F0
30
30
F0
E0
ENDCHAR
STARTCHAR 002D
ENCODING 45
SWIDTH 406 0
DWIDTH 13 0
BBX 10 3 2 9
BITMAP
FFC0
FFC0
FFC0
ENDCHAR
STARTCHAR 002E
ENCODING 46
SWIDTH 313 0
DWIDTH 10 0
BBX 4 4 3 0
BITMAP
F0
F0
F0
F0
ENDCHAR
STARTCHAR 002F
ENCODING 47
SWIDTH 438 0
DWIDTH 14 0
BBX 10 23 2 0
BITMAP
03C0
03C0
07C0
0780
0780
0780
0F80
0F00
0F00
0F00
1F00
1E00
1E00
3E00
3E00
3C00
3C00
7C00
7800
7800
7800
F800
F000
ENDCHAR
STARTCHAR 0030
ENCODING 48
SWIDTH 688 0
DWIDTH 22 0
BBX 17 23 2 0
BITMAP
03F000
0FFC00
3FFE00
3FFF00
7E1F00
7C0F80
F80780
F80780
F80780
F80780
F80780
F80780
F80780
F80780
F80780
F80780
F80780
7C0F80
7E1F00
3FFF00
3FFE00
1FFC00
07F000
ENDCHAR
STARTCHAR 0031
ENCODING 49
SWIDTH 469 0
DWIDTH 15 0
BBX 9 23 2 0
BITMAP
1F80
3F80
FF80
FF80
FF80
EF80
8F80
0F80
0F80
0F80
0F80
0F80
0F80
0F80
0F80
0F80
0F80
0F80
0F80
0F80
0F80
0F80
0F80
ENDCHAR
STARTCHAR 0032
ENCODING 50
SWIDTH 594 0
DWIDTH 19 0
BBX 16 23 2 0
BITMAP
07E0
1FF8
7FFC
7FFE
FC7E
F81E
F01F
F01F
001F
001E
003E
007E
01FC
03F8
07F0
0FC0
1F80
3F00
FE00
FFFF
FFFF
FFFF
FFFF
ENDCHAR
STARTCHAR 0033
ENCODING 51
SWIDTH 594 0
DWIDTH 19 0
BBX 16 23 1 0
BITMAP
7FFF
7FFF
7FFF
7FFF
003E
007C
01F8
03F0
07E0
0FF8
07FC
03FE
003E
001F
001F
000F
081F
F81F
7C3E
7FFE
3FFC
1FF8
07E0
ENDCHAR
STARTCHAR 0034
ENCODING 52
SWIDTH 626 0
DWIDTH 20 0
BBX 16 23 2 0
BITMAP
01F0
03E0
03E0
07C0
07C0
0F80
0F80
1F00
1F00
3E3C
3E3C
7C3C
7C3C
F83C
F83C
FFFF
FFFF
FFFF
FFFF
003C
003C
003C
003C
ENDCHAR
STARTCHAR 0035
ENCODING 53
SWIDTH 594 0
DWIDTH 19 0
BBX 15 23 2 0
BITMAP
7FFC
7FFC
7FFC
7FFC
7800
7800
7800
7800
7BC0
7FF0
7FF8
FFFC
387E
003E
001E
001E
101E
F03E
FC7C
7FFC
7FF8
3FF0
0FC0
ENDCHAR
STARTCHAR 0036
ENCODING 54
SWIDTH 626 0
DWIDTH 20 0
BBX 16 23 2 0
BITMAP
03F0
1FFC
3FFC
3FF8
7E10
7C00
F800
F800
F9E0
FFF8
FFFC
FFFE
FC3F
F81F
F80F
F80F
F80F
781F
7E3F
3FFE
3FFC
1FF8
07E0
ENDCHAR
STARTCHAR 0037
ENCODING 55
SWIDTH 532 0
DWIDTH 17 0
BBX 15 23 1 0
BITMAP
FFFE
FFFE
FFFE
FFFE
003E
003C
007C
0078
00F8
00F8
01F0
01F0
01E0
03E0
03E0
07C0
07C0
0780
0F80
0F80
1F00
1F00
1E00
ENDCHAR
STARTCHAR 0038
ENCODING 56
SWIDTH 626 0
DWIDTH 20 0
BBX 16 23 2 0
BITMAP
07E0
1FF8
3FFC
7FFE
7C3E
781E
781E
781E
7C7E
7FFE
3FFC
7FFC
7FFE
F83F
F81F
F81F
F81F
F81F
FC3E
7FFE
3FFC
1FF8
07E0
ENDCHAR
STARTCHAR 0039
ENCODING 57
SWIDTH 626 0
DWIDTH 20 0
BBX 16 23 2 0
BITMAP
07C0
1FF0
3FF8
7FFC
FC7E
F83E
F01E
F01F
F01F
F81F
FC7F
7FFF
7FFF
3FFF
0F9F
001F
001E
003E
087E
1FFC
7FFC
3FF0
0FC0
ENDCHAR
STARTCHAR 003A
ENCODING 58
SWIDTH 344 0
DWIDTH 11 0
BBX 5 13 3 2
BITMAP
78
78
78
78
00
00
00
00
00
F8
F8
F8
F8
ENDCHAR
STARTCHAR 003B
ENCODING 59
SWIDTH 344 0
DWIDTH 11 0
BBX 5 22 3 -5
BITMAP
F8
F8
F8
F8
00
00
00
00
00
00
00
00
00
00
F8
F8
F8
F8
18
18
70
70
ENDCHAR
STARTCHAR 003C
ENCODING 60
SWIDTH 657 0
DWIDTH 21 0
BBX 10 15 5 3
BITMAP
0100
0380
07C0
0F80
1F00
3E00
7C00
F800
F800
7C00
3F00
1F80
0FC0
0780
0300
ENDCHAR
STARTCHAR 003D
ENCODING 61
SWIDTH 751 0
DWIDTH 24 0
BBX 16 9 4 7
BITMAP
FFFF
FFFF
FFFF
0000
0000
0000
FFFF
FFFF
FFFF
ENDCHAR
STARTCHAR 003E
ENCODING 62
SWIDTH 657 0
DWIDTH 21 0
BBX 10 15 6 3
BITMAP
2000
7000
F800
7C00
3E00
1F00
0F80
07C0
0F80
1F00
3E00
7C00
F800
F000
6000
ENDCHAR
STARTCHAR 003F
ENCODING 63
SWIDTH 563 0
DWIDTH 18 0
BBX 14 23 2 0
BITMAP
0FC0
3FF0
7FF8
7FFC
F87C
F03C
003C
003C
007C
007C
01F8
03F0
07E0
07C0
0780
0F80
0F80
0000
0F80
0F80
0F80
0F80
0F80
ENDCHAR
STARTCHAR 0040
ENCODING 64
SWIDTH 907 0
DWIDTH 29 0
BBX 24 23 3 -3
BITMAP
01FF80
0FFFE0
1FFFF0
3F01F8
7C007C
787DBE
F1FF9E
F3FF8E
E3EF8F
E7838F
E7838F
E7838F
E7838F
E3C7CE
F3FFFE
F1FFFE
F0FCFC
780000
3C0000
3F0000
1FFE00
07FF00
01FF00
ENDCHAR
STARTCHAR 0041
ENCODING 65
SWIDTH 688 0
DWIDTH 22 0
BBX 20 23 1 0
BITMAP
03F800
03FC00
03FC00
03FC00
07FE00
07BE00
079E00
0F9E00
0F1F00
0F0F00
1F0F00
1F0F80
1E0F80
1E0780
3FFFC0
3FFFC0
3FFFC0
7FFFE0
7803E0
7801E0
F801E0
F801F0
F000F0
ENDCHAR
STARTCHAR 0042
ENCODING 66
SWIDTH 626 0
DWIDTH 20 0
BBX 17 23 2 0
BITMAP
FFF000
FFFC00
FFFE00
FFFF00
F81F00
F80F00
F80F00
F80F00
F81F00
FFFF00
FFFE00
FFFE00
FFFF00
F80F80
F80780
F80780
F80780
F80780
F80F80
FFFF80
FFFF00
FFFE00
FFFC00
ENDCHAR
STARTCHAR 0043
ENCODING 67
SWIDTH 751 0
DWIDTH 24 0
BBX 21 23 1 0
BITMAP
01FE00
07FF80
0FFFC0
1FFFE0
3F83F0
7E01F8
7C00F8
F80070
F80000
F80000
F80000
F80000
F80000
F80000
F80000
F80070
7C00F8
7E01F8
3F83F0
1FFFF0
0FFFE0
07FF80
01FE00
ENDCHAR
STARTCHAR 0044
ENCODING 68
SWIDTH 720 0
DWIDTH 23 0
BBX 19 23 2 0
BITMAP
FFF000
FFFC00
FFFF00
FFFF80
F81F80
F80FC0
F807C0
F803E0
F803E0
F803E0
F803E0
F803E0
F803E0
F803E0
F803E0
F803E0
F807C0
F80FC0
F81F80
FFFF80
FFFF00
FFFC00
FFF000
ENDCHAR
STARTCHAR 0045
ENCODING 69
SWIDTH 594 0
DWIDTH 19 0
BBX 15 23 2 0
BITMAP
FFFE
FFFE
FFFE
FFFE
F800
F800
F800
F800
F800
FFF8
FFF8
FFF8
FFF8
F800
F800
F800
F800
F800
F800
FFFE
FFFE
FFFE
FFFE
ENDCHAR
STARTCHAR 0046
ENCODING 70
SWIDTH 532 0
DWIDTH 17 0
BBX 14 23 2 0
BITMAP
FFFC
FFFC
FFFC
FFFC
F800
F800
F800
F800
F800
FFF0
FFF0
FFF0
FFF0
F800
F800
F800
F800
F800
F800
F800
F800
F800
F800
ENDCHAR
STARTCHAR 0047
ENCODING 71
SWIDTH 751 0
DWIDTH 24 0
BBX 22 23 1 0
BITMAP
01FE00
07FF80
0FFFC0
1FFFE0
3F87F0
7E01F8
7C00F8
F800F8
F80000
F80000
F80000
F807FC
F807FC
F807FC
F80078
780078
7C00F8
7E01F0
3F83F0
1FFFE0
0FFFC0
07FF80
01FC00
ENDCHAR
STARTCHAR 0048
ENCODING 72
SWIDTH 720 0
DWIDTH 23 0
BBX 19 23 2 0
BITMAP
F801E0
F801E0
F801E0
F801E0
F801E0
F801E0
F801E0
F801E0
F801E0
FFFFE0
FFFFE0
FFFFE0
FFFFE0
F801E0
F801E0
F801E0
F801E0
F801E0
F801E0
F801E0
F801E0
F801E0
F801E0
ENDCHAR
STARTCHAR 0049
ENCODING 73
SWIDTH 281 0
DWIDTH 9 0
BBX 4 23 3 0
BITMAP
F0
F0
F0
F0
F0
F0
F0
F0
F0
F0
F0
F0
F0
F0
F0
F0
F0
F0
F0
F0
F0
F0
F0
ENDCHAR
STARTCHAR 004A
ENCODING 74
SWIDTH 500 0
DWIDTH 16 0
BBX 14 23 0 0
BITMAP
007C
007C
007C
007C
007C
007C
007C
007C
007C
007C
007C
007C
007C
007C
007C
007C
007C
787C
F8FC
7FF8
7FF8
3FF0
0FC0
ENDCHAR
STARTCHAR 004B
ENCODING 75
SWIDTH 657 0
DWIDTH 21 0
BBX 19 23 2 0
BITMAP
F807C0
F80F80
F81F80
F83F00
F83E00
F87C00
F8F800
F9F000
FBE000
FFE000
FFC000
FF8000
FFC000
FFE000
FBF000
F9F800
F8FC00
F87C00
F83E00
F81F00
F80F80
F80FC0
F807E0
ENDCHAR
STARTCHAR 004C
ENCODING 76
SWIDTH 532 0
DWIDTH 17 0
BBX 14 23 3 0
BITMAP
F000
F000
F000
F000
F000
F000
F000
F000
F000
F000
F000
F000
F000
F000
F000
F000
F000
F000
F000
FFFC
FFFC
FFFC
FFFC
ENDCHAR
STARTCHAR 004D
ENCODING 77
SWIDTH 845 0
DWIDTH 27 0
BBX 23 23 2 0
BITMAP
F0001E
F8001E
F8003E
FC003E
FC007E
FE007E
FE00FE
FF00FE
FF01FE
FF81FE
F783FE
F7C3DE
F3C7DE
F3E79E
F1EF9E
F1FF1E
F0FF1E
F0FE1E
F07E1E
F07C1E
F03C1E
F0381E
F0181E
ENDCHAR
STARTCHAR 004E
ENCODING 78
SWIDTH 720 0
DWIDTH 23 0
BBX 19 23 2 0
BITMAP
F801E0
FC01E0
FC01E0
FE01E0
FF01E0
FF01E0
FF81E0
FFC1E0
FFC1E0
FBE1E0
FBF1E0
F9F1E0
F8F9E0
F8F9E0
F87DE0
F83FE0
F83FE0
F81FE0
F80FE0
F80FE0
F807E0
F803E0
F803E0
ENDCHAR
STARTCHAR 004F
ENCODING 79
SWIDTH 751 0
DWIDTH 24 0
BBX 22 23 1 0
BITMAP
01FE00
07FF80
0FFFC0
1FFFF0
3F87F0
7E01F8
7C00F8
F8007C
F8007C
F8007C
F8003C
F8003C
F8003C
F8007C
F8007C
F8007C
7C00F8
7E01F8
3F83F0
1FFFF0
0FFFE0
07FF80
01FE00
ENDCHAR
STARTCHAR 0050
ENCODING 80
SWIDTH 657 0
DWIDTH 21 0
BBX 18 23 2 0
BITMAP
FFF800
FFFE00
FFFF00
FFFF80
F80F80
F807C0
F807C0
F807C0
F807C0
F807C0
F80F80
FFFF80
FFFF00
FFFE00
FFFC00
F80000
F80000
F80000
F80000
F80000
F80000
F80000
F80000
ENDCHAR
STARTCHAR 0051
ENCODING 81
SWIDTH 751 0
DWIDTH 24 0
BBX 22 23 1 0
BITMAP
01FE00
07FF80
0FFFC0
1FFFF0
3F87F0
7E01F8
7C00F8
F8007C
F8007C
F8007C
F8003C
F8003C
F8003C
F8007C
F8017C
F803FC
7C07F8
7E03F8
3F83F0
1FFFF8
0FFFFC
07FFB8
01FE10
ENDCHAR
STARTCHAR 0052
ENCODING 82
SWIDTH 657 0
DWIDTH 21 0
BBX 18 23 2 0
BITMAP
FFF800
FFFE00
FFFF00
FFFF80
F80F80
F807C0
F807C0
F807C0
F807C0
F807C0
F80F80
FFFF80
FFFF00
FFFE00
FFFC00
F83E00
F83E00
F81F00
F81F00
F80F00
F80F80
F80F80
F807C0
ENDCHAR
STARTCHAR 0053
ENCODING 83
SWIDTH 657 0
DWIDTH 21 0
BBX 19 23 1 0
BITMAP
03F800
0FFE00
1FFF80
3FFF80
3E0FC0
7C07E0
7C03E0
7C0000
7F0000
3FE000
1FFE00
0FFF80
01FFC0
003FE0
0007E0
3803E0
F801E0
7C03E0
7F07E0
3FFFC0
1FFF80
0FFF00
03FC00
ENDCHAR
STARTCHAR 0054
ENCODING 84
SWIDTH 594 0
DWIDTH 19 0
BBX 19 23 0 0
BITMAP
FFFFE0
FFFFE0
FFFFE0
FFFFE0
00F000
00F000
00F000
00F000
00F000
00F000
00F000
00F000
00F000
00F000
00F000
00F000
00F000
00F000
00F000
00F000
00F000
00F000
00F000
ENDCHAR
STARTCHAR 0055
ENCODING 85
SWIDTH 720 0
DWIDTH 23 0
BBX 19 23 2 0
BITMAP
F801E0
F801E0
F801E0
F801E0
F801E0
F801E0
F801E0
F801E0
F801E0
F801E0
F801E0
F801E0
F801E0
F801E0
F801E0
F803E0
F803E0
7C07C0
7E0FC0
3FFF80
1FFF00
0FFE00
03F800
ENDCHAR
STARTCHAR 0056
ENCODING 86
SWIDTH 657 0
DWIDTH 21 0
BBX 21 23 0 0
BITMAP
F800F8
7800F0
7801F0
7C01F0
3C01E0
3C01E0
3E03E0
3E03C0
1E03C0
1F07C0
1F0780
0F0780
0F0F80
0F8F80
078F00
079F00
07DF00
07DE00
03DE00
03FE00
03FC00
01FC00
01FC00
ENDCHAR
STARTCHAR 0057
ENCODING 87
SWIDTH 1001 0
DWIDTH 32 0
BBX 31 23 0 0
BITMAP
F807C01E
7807E03E
7C07E03E
7C07E03C
3C0FE07C
3C0FF07C
3E0FF078
3E1FF078
1E1FF0F8
1E1EF8F0
1F1E78F0
0F3E78F0
0F3C7DF0
0FBC3DE0
07BC3DE0
07F83FE0
07F83FC0
07F81FC0
03F81FC0
03F01FC0
03F00F80
01F00F80
01E00F80
ENDCHAR
STARTCHAR 0058
ENCODING 88
SWIDTH 657 0
DWIDTH 21 0
BBX 20 23 1 0
BITMAP
F803F0
7C03E0
7C07C0
3E0FC0
3F0F80
1F1F00
0FBF00
0FFE00
07FC00
03FC00
03F800
01F800
03F800
03FC00
07FE00
0FFE00
0F9F00
1F1F80
3F0F80
3E07C0
7C07E0
FC03E0
F803F0
ENDCHAR
STARTCHAR 0059
ENCODING 89
SWIDTH 626 0
DWIDTH 20 0
BBX 20 23 0 0
BITMAP
F801F0
7C03E0
7E03E0
3E07C0
1F0FC0
1F0F80
0F9F00
0F9F00
07FE00
07FE00
03FC00
01FC00
01F800
00F000
00F000
00F000
00F000
00F000
00F000
00F000
00F000
00F000
00F000
ENDCHAR
STARTCHAR 005A
ENCODING 90
SWIDTH 688 0
DWIDTH 22 0
BBX 18 23 2 0
BITMAP
7FFFC0
7FFFC0
7FFF80
7FFF00
003F00
003E00
007E00
00FC00
00F800
01F800
01F000
03F000
03E000
07C000
0FC000
0F8000
1F8000
1F0000
3F0000
7FFFC0
7FFFC0
FFFFC0
FFFFC0
ENDCHAR
STARTCHAR 005B
ENCODING 91
SWIDTH 438 0
DWIDTH 14 0
BBX 8 36 4 -7
BITMAP
FF
FF
FF
FF
F0
F0
F0
F0
F0
F0
F0
F0
F0
F0
F0
F0
F0
F0
F0
F0
F0
F0
F0
F0
F0
F0
F0
F0
F0
F0
F0
F0
FF
FF
FF
FF
ENDCHAR
STARTCHAR 005C
ENCODING 92
SWIDTH 438 0
DWIDTH 14 0
BBX 10 23 2 0
BITMAP
F000
F800
7800
7800
7800
7C00
3C00
3C00
3E00
3E00
1E00
1E00
1F00
0F00
0F00
0F00
0F80
0780
0780
0780
07C0
03C0
03C0
ENDCHAR
STARTCHAR 005D
ENCODING 93
SWIDTH 438 0
DWIDTH 14 0
BBX 7 36 2 -7
BITMAP
FE
FE
FE
FE
1E
1E
1E
1E
1E
1E
1E
1E
1E
1E
1E
1E
1E
1E
1E
1E
1E
1E
1E
1E
1E
1E
1E
1E
1E
1E
1E
1E
FE
FE
FE
FE
ENDCHAR
STARTCHAR 005E
ENCODING 94
SWIDTH 688 0
DWIDTH 22 0
BBX 15 10 4 14
BITMAP
0100
0380
07C0
0FE0
1FF0
3FF8
7CFC
F87E
F03C
6018
ENDCHAR
STARTCHAR 005F
ENCODING 95
SWIDTH 657 0
DWIDTH 21 0
BBX 21 3 0 -4
BITMAP
FFFFF8
FFFFF8
FFFFF8
ENDCHAR
STARTCHAR 0060
ENCODING 96
SWIDTH 563 0
DWIDTH 18 0
BBX 6 6 5 26
BITMAP
F0
70
70
38
38
3C
ENDCHAR
STARTCHAR 0061
ENCODING 97
SWIDTH 594 0
DWIDTH 19 0
BBX 16 18 1 0
BITMAP
07F0
1FFC
3FFE
7FFE
7C3E
181F
001F
07FF
1FFF
7FFF
7F1F
F81F
F81F
F83F
7EFF
7FFF
3FEF
1F8F
ENDCHAR
STARTCHAR 0062
ENCODING 98
SWIDTH 626 0
DWIDTH 20 0
BBX 17 23 2 0
BITMAP
F80000
F80000
F80000
F80000
F80000
FBE000
FFF800
FFFC00
FFFE00
FC3F00
F81F00
F00F00
F00F80
F00F80
F00F80
F00F80
F00F00
F81F00
FC3F00
FFFE00
FFFC00
FFF800
F3E000
ENDCHAR
STARTCHAR 0063
ENCODING 99
SWIDTH 594 0
DWIDTH 19 0
BBX 17 18 1 0
BITMAP
03F000
0FFC00
1FFE00
3FFF00
7E3F00
7C0F80
780C00
F80000
F80000
F80000
F80000
780800
7C0F80
7E1F00
3FFF00
1FFE00
0FFC00
03F000
ENDCHAR
STARTCHAR 0064
ENCODING 100
SWIDTH 626 0
DWIDTH 20 0
BBX 17 23 1 0
BITMAP
000F80
000F80
000F80
000F80
000F80
03EF80
0FFF80
1FFF80
3FFF80
7E1F80
7C0F80
780780
F80780
F80780
F80780
F80780
F80780
7C0F80
7E1F80
3FFF80
1FFF80
0FFF80
07E780
ENDCHAR
STARTCHAR 0065
ENCODING 101
SWIDTH 594 0
DWIDTH 19 0
BBX 17 18 1 0
BITMAP
03F000
0FFC00
1FFE00
3FFF00
7E0F00
7C0F80
780780
FFFF80
FFFF80
FFFF80
F80000
F80000
7C0E00
7E1F80
3FFF00
1FFE00
0FFC00
03F000
ENDCHAR
STARTCHAR 0066
ENCODING 102
SWIDTH 375 0
DWIDTH 12 0
BBX 11 23 1 0
BITMAP
07E0
0FE0
1FE0
1FE0
1E00
FFE0
FFE0
FFE0
1E00
1E00
1E00
1E00
1E00
1E00
1E00
1E00
1E00
1E00
1E00
1E00
1E00
1E00
1E00
ENDCHAR
STARTCHAR 0067
ENCODING 103
SWIDTH 626 0
DWIDTH 20 0
BBX 17 26 1 -8
BITMAP
03E780
0FFF80
1FFF80
3FFF80
7E1F80
7C0F80
780780
F80780
F80780
F80780
F80780
780780
7C0F80
7E1F80
3FFF80
1FFF80
0FFF80
07EF80
000F80
000F80
040F80
1E3F00
3FFF00
1FFE00
0FFC00
03F000
ENDCHAR
STARTCHAR 0068
ENCODING 104
SWIDTH 626 0
DWIDTH 20 0
BBX 16 23 2 0
BITMAP
F000
F000
F000
F000
F000
F1F0
F7FC
FFFE
FFFF
FE3F
F81F
F80F
F80F
F80F
F80F
F80F
F80F
F80F
F80F
F80F
F80F
F80F
F80F
ENDCHAR
STARTCHAR 0069
ENCODING 105
SWIDTH 281 0
DWIDTH 9 0
BBX 4 23 3 0
BITMAP
F0
F0
F0
F0
00
F0
F0
F0
F0
F0
F0
F0
F0
F0
F0
F0
F0
F0
F0
F0
F0
F0
F0
ENDCHAR
STARTCHAR 006A
ENCODING 106
SWIDTH 313 0
DWIDTH 10 0
BBX 7 31 0 -8
BITMAP
1E
1E
1E
1E
00
1E
1E
1E
1E
1E
1E
1E
1E
1E
1E
1E
1E
1E
1E
1E
1E
1E
1E
1E
1E
1E
3E
FE
FE
FC
F8
ENDCHAR
STARTCHAR 006B
ENCODING 107
SWIDTH 563 0
DWIDTH 18 0
BBX 16 23 2 0
BITMAP
F800
F800
F800
F800
F800
F83F
F87E
F87C
F8F8
F9F8
F9F0
FBE0
FFE0
FFC0
FFC0
FFE0
FBE0
F9F0
F9F8
F8FC
F87C
F83E
F83F
ENDCHAR
STARTCHAR 006C
ENCODING 108
SWIDTH 281 0
DWIDTH 9 0
BBX 4 23 3 0
BITMAP
F0
F0
F0
F0
F0
F0
F0
F0
F0
F0
F0
F0
F0
F0
F0
F0
F0
F0
F0
F0
F0
F0
F0
ENDCHAR
STARTCHAR 006D
ENCODING 109
SWIDTH 907 0
DWIDTH 29 0
BBX 25 18 2 0
BITMAP
F1F07C00
F7F9FF00
FFFFFF00
FFFFFF80
FC7F0F80
F83E0780
F83E0780
F81E0780
F81E0780
F81E0780
F81E0780
F81E0780
F81E0780
F81E0780
F81E0780
F81E0780
F81E0780
F81E0780
ENDCHAR
STARTCHAR 006E
ENCODING 110
SWIDTH 626 0
DWIDTH 20 0
BBX 16 18 2 0
BITMAP
F3F8
F7FC
FFFE
FFFF
FC3F
F81F
F80F
F80F
F80F
F80F
F80F
F80F
F80F
F80F
F80F
F80F
F80F
F80F
ENDCHAR
STARTCHAR 006F
ENCODING 111
SWIDTH 626 0
DWIDTH 20 0
BBX 18 18 1 0
BITMAP
03F000
0FFC00
1FFE00
3FFF00
7E1F80
7C0F80
780780
F807C0
F807C0
F807C0
F807C0
780780
7C0F80
7E1F80
3FFF00
1FFE00
0FFC00
03F000
ENDCHAR
STARTCHAR 0070
ENCODING 112
SWIDTH 626 0
DWIDTH 20 0
BBX 17 25 2 -7
BITMAP
F3E000
FFF800
FFFC00
FFFE00
FC3F00
F81F00
F00F00
F00F80
F00F80
F00F80
F00F80
F00F00
F81F00
FC3F00
FFFE00
FFFC00
FFF800
FBE000
F80000
F80000
F80000
F80000
F80000
F80000
F80000
ENDCHAR
STARTCHAR 0071
ENCODING 113
SWIDTH 626 0
DWIDTH 20 0
BBX 17 25 1 -7
BITMAP
03E780
0FFF80
1FFF80
3FFF80
7E1F80
7C0F80
780780
F80780
F80780
F80780
F80780
780780
7C0F80
7E1F80
3FFF80
1FFF80
0FFF80
07EF80
000F80
000F80
000F80
000F80
000F80
000F80
000F80
ENDCHAR
STARTCHAR 0072
ENCODING 114
SWIDTH 406 0
DWIDTH 13 0
BBX 10 18 2 0
BITMAP
F1C0
F7C0
FFC0
FFC0
FE00
FC00
F800
F800
F800
F800
F800
F800
F800
F800
F800
F800
F800
F800
ENDCHAR
STARTCHAR 0073
ENCODING 115
SWIDTH 532 0
DWIDTH 17 0
BBX 15 18 1 0
BITMAP
07E0
1FF8
3FFC
7FFE
783E
7838
7E00
7FC0
3FF8
0FFC
01FE
003E
F81E
7C3E
7FFE
3FFC
1FF8
07E0
ENDCHAR
STARTCHAR 0074
ENCODING 116
SWIDTH 438 0
DWIDTH 14 0
BBX 13 23 0 0
BITMAP
1F00
1F00
1F00
1F00
1F00
FFF8
FFF8
FFF8
1F00
1F00
1F00
1F00
1F00
1F00
1F00
1F00
1F00
1F00
1F00
1FF8
0FF8
07F8
03F8
ENDCHAR
STARTCHAR 0075
ENCODING 117
SWIDTH 626 0
DWIDTH 20 0
BBX 16 18 2 0
BITMAP
F00F
F00F
F00F
F00F
F00F
F00F
F00F
F00F
F00F
F00F
F00F
F81F
F81F
FC3F
7FFF
7FFF
3FFF
0FCF
ENDCHAR
STARTCHAR 0076
ENCODING 118
SWIDTH 563 0
DWIDTH 18 0
BBX 16 18 1 0
BITMAP
F00F
F00F
F81F
781E
781E
3C3E
3C3C
3C3C
1E7C
1E78
1E78
0FF8
0FF0
0FF0
07E0
07E0
07E0
03C0
ENDCHAR
STARTCHAR 0077
ENCODING 119
SWIDTH 813 0
DWIDTH 26 0
BBX 24 18 1 0
BITMAP
F03C0F
F03C0F
F87E1F
787E1E
787E1E
787E1E
3CFF3C
3CFF3C
3CE73C
3FE7FC
1FE7F8
1FC3F8
1FC3F8
0FC3F0
0F81F0
0F81F0
0F81F0
0700E0
ENDCHAR
STARTCHAR 0078
ENCODING 120
SWIDTH 563 0
DWIDTH 18 0
BBX 16 18 1 0
BITMAP
F81F
FC3E
7C3E
3E7C
3E78
1FF8
0FF0
07E0
07E0
07E0
0FF0
0FF0
1FF8
3E7C
3E7C
7C3E
F81F
F81F
ENDCHAR
STARTCHAR 0079
ENCODING 121
SWIDTH 563 0
DWIDTH 18 0
BBX 17 25 1 -7
BITMAP
F00780
F00F80
F80F00
780F00
7C1E00
3C1E00
3C3E00
3E3C00
1E3C00
1F7800
0F7800
0FF800
0FF000
07F000
07F000
03E000
03E000
03C000
03C000
07C000
078000
078000
0F0000
0F0000
0F0000
ENDCHAR
STARTCHAR 007A
ENCODING 122
SWIDTH 532 0
DWIDTH 17 0
BBX 15 18 1 0
BITMAP
7FFE
7FFC
7FFC
7FF8
00F0
01F0
03E0
03E0
07C0
0780
0F80
1F00
1E00
3E00
7FFC
7FFC
FFFC
FFFC
ENDCHAR
STARTCHAR 007B
ENCODING 123
SWIDTH 469 0
DWIDTH 15 0
BBX 9 36 4 -7
BITMAP
0780
1F80
1F80
1F80
3E00
3E00
3E00
3E00
3E00
3E00
3E00
3E00
3E00
3E00
3C00
3C00
7C00
7800
F800
7C00
3C00
3C00
3E00
3E00
3E00
3E00
3E00
3E00
3E00
3E00
3E00
3E00
1F80
1F80
1F80
0780
ENDCHAR
STARTCHAR 007C
ENCODING 124
SWIDTH 313 0
DWIDTH 10 0
BBX 4 23 3 0
BITMAP
F0
F0
F0
F0
F0
F0
F0
F0
F0
F0
F0
F0
F0
F0
F0
F0
F0
F0
F0
F0
F0
F0
F0
ENDCHAR
STARTCHAR 007D
ENCODING 125
SWIDTH 469 0
DWIDTH 15 0
BBX 9 36 1 -7
BITMAP
F800
FC00
FE00
FE00
1E00
1E00
1E00
1E00
1E00
1E00
1E00
1E00
1E00
1E00
1E00
1F00
0F80
0F80
0F80
0F80
1F00
1E00
1E00
1E00
1E00
1E00
1E00
1E00
1E00
1E00
1E00
1E00
FE00
FE00
FC00
F800
ENDCHAR
STARTCHAR 007E
ENCODING 126
SWIDTH 720 0
DWIDTH 23 0
BBX 17 8 3 6
BITMAP
1E0000
7F8780
7FC780
7FFF80
FBFF80
F1FF80
707F00
003E00
ENDCHAR
STARTCHAR 00A0
ENCODING 160
SWIDTH 187 0
DWIDTH 6 0
BBX 0 0 0 0
BITMAP
ENDCHAR
STARTCHAR 00A1
ENCODING 161
SWIDTH 375 0
DWIDTH 12 0
BBX 4 23 4 -5
BITMAP
F0
F0
F0
F0
00
00
F0
F0
F0
F0
F0
F0
F0
F0
F0
F0
F0
F0
F0
F0
F0
F0
F0
ENDCHAR
STARTCHAR 00A2
ENCODING 162
SWIDTH 594 0
DWIDTH 19 0
BBX 17 24 1 -1
BITMAP
01E000
01E000
01E000
03F000
0FFC00
1FFE00
3FFF00
7E1F00
7C0F80
780800
F80000
F80000
F80000
F80000
780000
7C0F80
7E1F00
3FFF00
1FFE00
0FFC00
03F000
01E000
01E000
01E000
ENDCHAR
STARTCHAR 00A3
ENCODING 163
SWIDTH 563 0
DWIDTH 18 0
BBX 16 23 1 0
BITMAP
01F0
07F8
0FFC
1FFE
1F1E
1E1F
1E0C
1E00
1E00
1E00
FFF0
FFF0
FFF0
FFF0
1E00
1E00
1E00
1E00
3E00
FFFC
FFFC
FFFC
FFFC
ENDCHAR
STARTCHAR 00A4
ENCODING 164
SWIDTH 688 0
DWIDTH 22 0
BBX 20 19 1 2
BITMAP
3000C0
79F9E0
FFFFF0
7FFFE0
3FFFC0
3E0F80
3C07C0
3C03C0
3803C0
7801C0
3803C0
3C03C0
3C03C0
3E0780
3FFFC0
7FFFE0
FFFFF0
79F9E0
3000C0
ENDCHAR
STARTCHAR 00A5
ENCODING 165
SWIDTH 626 0
DWIDTH 20 0
BBX 20 23 0 0
BITMAP
F801F0
7C03E0
7E03E0
3E07C0
1F0F80
1F0F80
0F9F00
0FDF00
07FE00
03FE00
03FC00
1FFF80
1FFF80
1FFF80
00F000
00F000
00F000
1FFF80
1FFF80
1FFF80
00F000
00F000
00F000
ENDCHAR
STARTCHAR 00A6
ENCODING 166
SWIDTH 313 0
DWIDTH 10 0
BBX 4 30 3 -7
BITMAP
F0
F0
F0
F0
F0
F0
F0
F0
F0
F0
F0
F0
F0
00
00
00
00
F0
F0
F0
F0
F0
F0
F0
F0
F0
F0
F0
F0
F0
ENDCHAR
STARTCHAR 00A7
ENCODING 167
SWIDTH 532 0
DWIDTH 17 0
BBX 14 25 2 -4
BITMAP
1F80
3FE0
7FF0
FFF8
F0F8
F060
FC00
FF80
7FF0
3FF8
FFFC
F07C
F03C
F87C
FFFC
7FF8
3FF8
03FC
007C
F07C
F87C
FFF8
7FF8
3FF0
0FC0
ENDCHAR
STARTCHAR 00A8
ENCODING 168
SWIDTH 563 0
DWIDTH 18 0
BBX 10 4 4 25
BITMAP
F1C0
F1C0
F1C0
F1C0
ENDCHAR
STARTCHAR 00A9
ENCODING 169
SWIDTH 907 0
DWIDTH 29 0
BBX 27 27 1 -2
BITMAP
003F8000
01FFF000
03FFF800
0FFFFE00
1FE07F00
1F801F80
3E000F80
7C1F87C0
7C3FC3C0
787FE3E0
F8F1F1E0
F0E0E1E0
F1E001E0
F1E001E0
F1E001E0
F0E0C1E0
F8F0E1E0
787FE3E0
783FC3C0
7C1F87C0
3E000F80
1F001F80
1FE07F00
0FFFFE00
03FFFC00
01FFF000
003FC000
ENDCHAR
STARTCHAR 00AA
ENCODING 170
SWIDTH 313 0
DWIDTH 10 0
BBX 8 9 1 9
BITMAP
3E
7F
63
0F
7F
E3
C7
FF
7B
ENDCHAR
STARTCHAR 00AB
ENCODING 171
SWIDTH 594 0
DWIDTH 19 0
BBX 14 14 3 2
BITMAP
0408
0E1C
1E3C
3C78
3870
78E0
F1E0
F1C0
71E0
78F0
3C78
1E3C
0E1C
0418
ENDCHAR
STARTCHAR 00AC
ENCODING 172
SWIDTH 594 0
DWIDTH 19 0
BBX 15 7 2 6
BITMAP
FFFE
FFFE
FFFE
000E
000E
000E
000E
ENDCHAR
STARTCHAR 00AD
ENCODING 173
SWIDTH 406 0
DWIDTH 13 0
BBX 10 3 2 9
BITMAP
FFC0
FFC0
FFC0
ENDCHAR
STARTCHAR 00AE
ENCODING 174
SWIDTH 657 0
DWIDTH 21 0
BBX 17 17 2 8
BITMAP
03F000
0FFC00
3FFE00
3C0F00
73E700
727380
E23380
E23380
E3E380
E26380
726380
723700
780F00
3C1E00
1FFC00
0FF800
03E000
ENDCHAR
STARTCHAR 00AF
ENCODING 175
SWIDTH 500 0
DWIDTH 16 0
BBX 9 3 4 27
BITMAP
FF80
FF80
FF80
ENDCHAR
STARTCHAR 00B0
ENCODING 176
SWIDTH 438 0
DWIDTH 14 0
BBX 11 12 1 11
BITMAP
1F00
3FC0
7FC0
FFE0
F1E0
F0E0
F0E0
F1E0
7FE0
7FC0
3F80
0600
ENDCHAR
STARTCHAR 00B1
ENCODING 177
SWIDTH 594 0
DWIDTH 19 0
BBX 15 16 2 2
BITMAP
0380
0380
0380
0380
FFFE
FFFE
FFFE
0380
0380
0380
0380
0000
0000
FFFE
FFFE
FFFE
ENDCHAR
STARTCHAR 00B2
ENCODING 178
SWIDTH 406 0
DWIDTH 13 0
BBX 10 15 2 8
BITMAP
3E00
7F00
FF80
E3C0
C1C0
01C0
0380
0780
0F00
1E00
3C00
F000
FFC0
FFC0
FFC0
ENDCHAR
STARTCHAR 00B3
ENCODING 179
SWIDTH 406 0
DWIDTH 13 0
BBX 10 15 1 8
BITMAP
7FC0
7FC0
7FC0
0780
0F00
1F00
1F80
03C0
01C0
01C0
21C0
F3C0
7F80
3F00
0C00
ENDCHAR
STARTCHAR 00B4
ENCODING 180
SWIDTH 563 0
DWIDTH 18 0
BBX 5 6 7 26
BITMAP
38
38
78
70
F0
E0
ENDCHAR
STARTCHAR 00B5
ENCODING 181
SWIDTH 657 0
DWIDTH 21 0
BBX 16 26 2 -8
BITMAP
F80F
F80F
F80F
F80F
F80F
F80F
F80F
F80F
F80F
F80F
F80F
F80F
F81F
FC3F
FFFF
FFFF
FFF7
FFC7
F000
F000
F000
F000
F000
F000
F000
F000
ENDCHAR
STARTCHAR 00B6
ENCODING 182
SWIDTH 751 0
DWIDTH 24 0
BBX 21 28 1 -5
BITMAP
07FC78
1FFC78
3FFC78
7FFC78
7FFC78
FFFC78
FFFC78
FFFC78
FFFC78
FFFC78
7FFC78
7FFC78
3FFC78
1FFC78
0FFC78
003C78
003C78
003C78
003C78
003C78
003C78
003C78
003C78
003C78
003C78
003C78
003C78
003C78
ENDCHAR
STARTCHAR 00B7
ENCODING 183
SWIDTH 281 0
DWIDTH 9 0
BBX 5 5 2 8
BITMAP
70
F8
F8
F8
70
ENDCHAR
STARTCHAR 00B8
ENCODING 184
SWIDTH 406 0
DWIDTH 13 0
BBX 6 8 4 -8
BITMAP
70
70
78
38
3C
F8
F8
F0
ENDCHAR
STARTCHAR 00B9
ENCODING 185
SWIDTH 344 0
DWIDTH 11 0
BBX 5 14 2 9
BITMAP
38
F8
F8
D8
18
18
18
18
18
18
18
18
18
18
ENDCHAR
STARTCHAR 00BA
ENCODING 186
SWIDTH 344 0
DWIDTH 11 0
BBX 9 9 1 9
BITMAP
3E00
7F00
6380
E180
E180
E180
6380
7F00
3E00
ENDCHAR
STARTCHAR 00BB
ENCODING 187
SWIDTH 594 0
DWIDTH 19 0
BBX 14 14 2 2
BITMAP
2080
E1C0
F1E0
78F0
3C78
1E38
0E1C
0F1C
1E3C
3C78
78F0
70E0
F1C0
60C0
ENDCHAR
STARTCHAR 00BC
ENCODING 188
SWIDTH 1064 0
DWIDTH 34 0
BBX 28 23 2 0
BITMAP
38000800
F8001C00
F8003C00
D8003800
18007000
1800F000
1801E000
1801C000
1803C000
18078380
180F0700
180E0700
181E0E00
183C0E00
00781C00
00781CE0
00F038E0
01E038E0
01C03FF0
03C03FF0
07803FF0
070000E0
020000E0
ENDCHAR
STARTCHAR 00BD
ENCODING 189
SWIDTH 1033 0
DWIDTH 33 0
BBX 30 23 2 0
BITMAP
38000800
F8001C00
F8003C00
D8003800
18007000
1800F000
1801E000
1801C000
1803C080
180787F0
180F0FF8
180E0E38
181E0C1C
183C001C
00380038
00780078
00F000F0
01E001E0
01C003C0
03C00780
07800FFC
07000FFC
02000FFC
ENDCHAR
STARTCHAR 00BE
ENCODING 190
SWIDTH 1033 0
DWIDTH 33 0
BBX 30 23 1 0
BITMAP
7FC00100
7FC00380
7FC00780
07800F00
0F000E00
1F001E00
1F803C00
03C07800
01C07070
01C0F0E0
21C1E0E0
F3C3C1C0
7F83C1C0
3F078380
0C0F03B8
000E0738
001E0738
003C0F38
00780FFC
00700FFC
00F00FFC
00E00038
00400038
ENDCHAR
STARTCHAR 00BF
ENCODING 191
SWIDTH 563 0
DWIDTH 18 0
BBX 14 24 2 -6
BITMAP
07C0
07C0
07C0
07C0
07C0
0000
07C0
07C0
0780
0F80
1F80
3F00
7E00
7C00
F800
F800
F000
F03C
F03C
F87C
FFF8
7FF8
3FF0
0FC0
ENDCHAR
STARTCHAR 00C0
ENCODING 192
SWIDTH 688 0
DWIDTH 22 0
BBX 20 32 1 0
BITMAP
070000
038000
038000
03C000
01C000
01E000
00E000
000000
000000
03F800
03FC00
03FC00
03FC00
07FE00
07BE00
079E00
0F9E00
0F9F00
0F0F00
1F0F00
1F0F80
1E0780
1E0780
3FFFC0
3FFFC0
3FFFC0
7FFFE0
7803E0
7801E0
F801E0
F801F0
F000F0
ENDCHAR
STARTCHAR 00C1
ENCODING 193
SWIDTH 688 0
DWIDTH 22 0
BBX 20 32 1 0
BITMAP
001E00
001C00
003C00
003800
003800
007000
007000
000000
000000
03F800
03FC00
03FC00
03FC00
07FE00
07BE00
079E00
0F9E00
0F1F00
0F0F00
1F0F00
1F0F80
1E0F80
1E0780
3FFFC0
3FFFC0
3FFFC0
7FFFE0
7803E0
7801E0
F801E0
F801F0
F000F0
ENDCHAR
STARTCHAR 00C2
ENCODING 194
SWIDTH 688 0
DWIDTH 22 0
BBX 20 31 1 0
BITMAP
00F000
01F800
03FC00
079E00
0F0F00
000000
000000
000000
03F800
03FC00
03FC00
03FC00
07FE00
07BE00
079E00
0F9E00
0F1F00
0F0F00
1F0F00
1F0F80
1E0F80
1E0780
3FFFC0
3FFFC0
3FFFC0
7FFFE0
7803E0
7801E0
F801E0
F801F0
F000F0
ENDCHAR
STARTCHAR 00C3
ENCODING 195
SWIDTH 688 0
DWIDTH 22 0
BBX 20 32 1 0
BITMAP
078000
0FC700
0FF700
0EFF00
0E7E00
001E00
000000
000000
000000
03F800
03FC00
03FC00
03FC00
07FE00
07BE00
079E00
0F9E00
0F1F00
0F0F00
1F0F00
1F0F80
1E0F80
1E0780
3FFFC0
3FFFC0
3FFFC0
7FFFE0
7803E0
7801E0
F801E0
F801F0
F000F0
ENDCHAR
STARTCHAR 00C4
ENCODING 196
SWIDTH 688 0
DWIDTH 22 0
BBX 20 29 1 0
BITMAP
071E00
071E00
071E00
071E00
000000
000000
03F800
03FC00
03FC00
03FC00
07FE00
07BE00
079E00
0F9E00
0F1F00
0F0F00
1F0F00
1F0F80
1E0F80
1E0780
3FFFC0
3FFFC0
3FFFC0
7FFFE0
7803E0
7801E0
F801E0
F801F0
F000F0
ENDCHAR
STARTCHAR 00C5
ENCODING 197
SWIDTH 688 0
DWIDTH 22 0
BBX 20 33 1 1
BITMAP
01F800
03FC00
039C00
030C00
031C00
03FC00
01F800
00F000
000000
000000
03F800
03FC00
03FC00
03FC00
07FE00
07BE00
079E00
0F9E00
0F1F00
0F0F00
1F0F00
1F0F80
1E0F80
1E0780
3FFFC0
3FFFC0
3FFFC0
7FFFE0
7803E0
7801E0
F801E0
F801F0
F000F0
ENDCHAR
STARTCHAR 00C6
ENCODING 198
SWIDTH 939 0
DWIDTH 30 0
BBX 28 23 1 0
BITMAP
03FFFFF0
03FFFFF0
03FFFFF0
03FFFFF0
07C78000
07878000
07878000
0F878000
0F078000
0F07FFC0
1F07FFC0
1F07FFC0
1E07FFC0
1E078000
3FFF8000
3FFF8000
3FFF8000
7FFF8000
78078000
7807FFF0
F807FFF0
F807FFF0
F007FFF0
ENDCHAR
STARTCHAR 00C7
ENCODING 199
SWIDTH 751 0
DWIDTH 24 0
BBX 21 30 1 -7
BITMAP
01FE00
07FF80
0FFFC0
1FFFE0
3F83F0
7E01F8
7C00F8
780070
F80000
F80000
F80000
F80000
F80000
F80000
F80000
F80060
7C00F8
7E00F8
3F03F0
1FFFF0
0FFFE0
07FF80
01FE00
003000
007800
003C00
001C00
007C00
007C00
007800
ENDCHAR
STARTCHAR 00C8
ENCODING 200
SWIDTH 594 0
DWIDTH 19 0
BBX 15 32 2 0
BITMAP
0E00
0E00
0700
0700
0780
0380
03C0
0000
0000
FFFE
FFFE
FFFE
FFFE
F800
F800
F800
F800
F800
FFF8
FFF8
FFF8
FFF8
F800
F800
F800
F800
F800
F800
FFFE
FFFE
FFFE
FFFE
ENDCHAR
STARTCHAR 00C9
ENCODING 201
SWIDTH 594 0
DWIDTH 19 0
BBX 15 32 2 0
BITMAP
0070
0070
00F0
00E0
01E0
01C0
01C0
0000
0000
FFFE
FFFE
FFFE
FFFE
F800
F800
F800
F800
F800
FFF8
FFF8
FFF8
FFF8
F800
F800
F800
F800
F800
F800
FFFE
FFFE
FFFE
FFFE
ENDCHAR
STARTCHAR 00CA
ENCODING 202
SWIDTH 594 0
DWIDTH 19 0
BBX 15 31 2 0
BITMAP
07C0
0FE0
0EE0
1EF0
3C78
0000
0000
0000
FFFE
FFFE
FFFE
FFFE
F800
F800
F800
F800
F800
FFF8
FFF8
FFF8
FFF8
F800
F800
F800
F800
F800
F800
FFFE
FFFE
FFFE
FFFE
ENDCHAR
STARTCHAR 00CB
ENCODING 203
SWIDTH 594 0
DWIDTH 19 0
BBX 15 29 2 0
BITMAP
3C78
3C78
3C78
3C78
0000
0000
FFFE
FFFE
FFFE
FFFE
F800
F800
F800
F800
F800
FFF8
FFF8
FFF8
FFF8
F800
F800
F800
F800
F800
F800
FFFE
FFFE
FFFE
FFFE
ENDCHAR
STARTCHAR 00CC
ENCODING 204
SWIDTH 281 0
DWIDTH 9 0
BBX 6 32 1 0
BITMAP
E0
E0
F0
70
78
38
00
00
00
3C
3C
3C
3C
3C
3C
3C
3C
3C
3C
3C
3C
3C
3C
3C
3C
3C
3C
3C
3C
3C
3C
3C
ENDCHAR
STARTCHAR 00CD
ENCODING 205
SWIDTH 281 0
DWIDTH 9 0
BBX 6 32 3 0
BITMAP
1C
38
38
78
70
F0
00
00
00
F0
F0
F0
F0
F0
F0
F0
F0
F0
F0
F0
F0
F0
F0
F0
F0
F0
F0
F0
F0
F0
F0
F0
ENDCHAR
STARTCHAR 00CE
ENCODING 206
SWIDTH 281 0
DWIDTH 9 0
BBX 12 31 -1 0
BITMAP
1F00
1F80
3FC0
79E0
F1E0
0010
0000
0000
0F00
0F00
0F00
0F00
0F00
0F00
0F00
0F00
0F00
0F00
0F00
0F00
0F00
0F00
0F00
0F00
0F00
0F00
0F00
0F00
0F00
0F00
0F00
ENDCHAR
STARTCHAR 00CF
ENCODING 207
SWIDTH 281 0
DWIDTH 9 0
BBX 11 29 -1 0
BITMAP
F1E0
F1E0
F1E0
F1E0
0000
0000
0F00
0F00
0F00
0F00
0F00
0F00
0F00
0F00
0F00
0F00
0F00
0F00
0F00
0F00
0F00
0F00
0F00
0F00
0F00
0F00
0F00
0F00
0F00
ENDCHAR
STARTCHAR 00D0
ENCODING 208
SWIDTH 720 0
DWIDTH 23 0
BBX 21 23 0 0
BITMAP
3FFC00
3FFF00
3FFFC0
3FFFE0
3E07E0
3E01F0
3E01F0
3E00F8
3E00F8
3E00F8
FFE078
FFE078
FFE078
3E00F8
3E00F8
3E00F8
3E01F0
3E01F0
3E07E0
3FFFE0
3FFFC0
3FFF00
3FFC00
ENDCHAR
STARTCHAR 00D1
ENCODING 209
SWIDTH 720 0
DWIDTH 23 0
BBX 19 31 2 0
BITMAP
078700
0FE700
0FFF00
0E7E00
0E1E00
000000
000000
000000
F801E0
FC01E0
FC01E0
FE01E0
FF01E0
FF01E0
FF81E0
FFC1E0
FFC1E0
FBE1E0
FBF1E0
F9F1E0
F8F9E0
F8F9E0
F87DE0
F83FE0
F83FE0
F81FE0
F80FE0
F80FE0
F807E0
F803E0
F803E0
ENDCHAR
STARTCHAR 00D2
ENCODING 210
SWIDTH 751 0
DWIDTH 24 0
BBX 22 31 1 0
BITMAP
01C000
01C000
01E000
00E000
00F000
007000
000000
000000
01FE00
07FF80
0FFFC0
1FFFF0
3F87F0
7E01F8
7C00F8
F8007C
F8007C
F8007C
F8003C
F8003C
F8003C
F8007C
F8007C
F8007C
7C00F8
7E01F8
3F83F0
1FFFF0
0FFFE0
07FF80
01FE00
ENDCHAR
STARTCHAR 00D3
ENCODING 211
SWIDTH 751 0
DWIDTH 24 0
BBX 22 31 1 0
BITMAP
000E00
000E00
001C00
001C00
003C00
003800
000000
000000
01FE00
07FF80
0FFFC0
1FFFF0
3F87F0
7E01F8
7C00F8
F8007C
F8007C
F8007C
F8003C
F8003C
F8003C
F8007C
F8007C
F8007C
7C00F8
7E01F8
3F83F0
1FFFF0
0FFFE0
07FF80
01FE00
ENDCHAR
STARTCHAR 00D4
ENCODING 212
SWIDTH 751 0
DWIDTH 24 0
BBX 22 30 1 0
BITMAP
007C00
00FC00
01FE00
03CF00
078780
000000
000000
01FE00
07FF80
0FFFC0
1FFFF0
3F87F0
7E01F8
7C00F8
F8007C
F8007C
F8007C
F8003C
F8003C
F8003C
F8007C
F8007C
F8007C
7C00F8
7E01F8
3F83F0
1FFFF0
0FFFE0
07FF80
01FE00
ENDCHAR
STARTCHAR 00D5
ENCODING 213
SWIDTH 751 0
DWIDTH 24 0
BBX 22 30 1 0
BITMAP
01C380
03F380
07FF80
071F80
030F00
000000
000000
01FE00
07FF80
0FFFC0
1FFFF0
3F87F0
7E01F8
7C00F8
F8007C
F8007C
F8007C
F8003C
F8003C
F8003C
F8007C
F8007C
F8007C
7C00F8
7E01F8
3F83F0
1FFFF0
0FFFE0
07FF80
01FE00
ENDCHAR
STARTCHAR 00D6
ENCODING 214
SWIDTH 751 0
DWIDTH 24 0
BBX 22 29 1 0
BITMAP
03C700
03C700
03C700
03C700
000000
000000
01FE00
07FF80
0FFFC0
1FFFF0
3F87F0
7E01F8
7C00F8
F8007C
F8007C
F8007C
F8003C
F8003C
F8003C
F8007C
F8007C
F8007C
7C00F8
7E01F8
3F83F0
1FFFF0
0FFFE0
07FF80
01FE00
ENDCHAR
STARTCHAR 00D7
ENCODING 215
SWIDTH 500 0
DWIDTH 16 0
BBX 12 12 2 5
BITMAP
2020
7070
F8F0
7DE0
3FC0
1F80
0F80
1FC0
3FE0
79F0
F0F0
6060
ENDCHAR
STARTCHAR 00D8
ENCODING 216
SWIDTH 751 0
DWIDTH 24 0
BBX 22 23 1 0
BITMAP
01FE10
07FFB8
0FFFFC
1FFFF8
3F83F8
7E03F8
7C07F8
F807FC
F80FFC
F81F7C
F83E3C
F87C3C
F8F83C
F9F07C
FBE07C
FFC07C
7F80F8
7F01F8
3F83F0
7FFFF0
7FFFE0
3FFF80
11FE00
ENDCHAR
STARTCHAR 00D9
ENCODING 217
SWIDTH 720 0
DWIDTH 23 0
BBX 19 32 2 0
BITMAP
038000
038000
03C000
01C000
01E000
00E000
00E000
000000
000000
F801E0
F801E0
F801E0
F801E0
F801E0
F801E0
F801E0
F801E0
F801E0
F801E0
F801E0
F801E0
F801E0
F801E0
F801E0
F803E0
F803E0
7C07C0
7E0FC0
3FFF80
1FFF00
0FFE00
03F800
ENDCHAR
STARTCHAR 00DA
ENCODING 218
SWIDTH 720 0
DWIDTH 23 0
BBX 19 32 2 0
BITMAP
001C00
003800
003800
007800
007000
00F000
00E000
000000
000000
F801E0
F801E0
F801E0
F801E0
F801E0
F801E0
F801E0
F801E0
F801E0
F801E0
F801E0
F801E0
F801E0
F801E0
F801E0
F803E0
F803E0
7C07C0
7E0FC0
3FFF80
1FFF00
0FFE00
03F800
ENDCHAR
STARTCHAR 00DB
ENCODING 219
SWIDTH 720 0
DWIDTH 23 0
BBX 19 31 2 0
BITMAP
01F000
03F800
03BC00
07BC00
0F1E00
000000
000000
000000
F801E0
F801E0
F801E0
F801E0
F801E0
F801E0
F801E0
F801E0
F801E0
F801E0
F801E0
F801E0
F801E0
F801E0
F801E0
F803E0
F803E0
7C07C0
7E0FC0
3FFF80
1FFF00
0FFE00
03F800
ENDCHAR
STARTCHAR 00DC
ENCODING 220
SWIDTH 720 0
DWIDTH 23 0
BBX 19 29 2 0
BITMAP
0F1E00
0F1E00
0F1E00
0F1E00
000000
000000
F801E0
F801E0
F801E0
F801E0
F801E0
F801E0
F801E0
F801E0
F801E0
F801E0
F801E0
F801E0
F801E0
F801E0
F801E0
F803E0
F803E0
7C07C0
7E0FC0
3FFF80
1FFF00
0FFE00
03F800
ENDCHAR
STARTCHAR 00DD
ENCODING 221
SWIDTH 626 0
DWIDTH 20 0
BBX 20 32 0 0
BITMAP
001C00
001C00
003800
003800
007800
007000
00F000
000000
000000
F801F0
7C03E0
7E03E0
3E07C0
1F0FC0
1F0F80
0F9F00
0F9F00
07FE00
07FE00
03FC00
01FC00
01F800
00F000
00F000
00F000
00F000
00F000
00F000
00F000
00F000
00F000
00F000
ENDCHAR
STARTCHAR 00DE
ENCODING 222
SWIDTH 657 0
DWIDTH 21 0
BBX 18 23 2 0
BITMAP
F80000
F80000
F80000
F80000
FFF800
FFFE00
FFFF00
FFFF00
F81F80
F80F80
F80780
F807C0
F80780
F80F80
F81F80
FFFF00
FFFF00
FFFE00
FFF800
F80000
F80000
F80000
F80000
ENDCHAR
STARTCHAR 00DF
ENCODING 223
SWIDTH 657 0
DWIDTH 21 0
BBX 17 23 2 0
BITMAP
0FC000
3FF000
7FF800
7FFC00
FC7E00
F83E00
F83E00
F83E00
F83E00
F8FC00
F8F800
F8FE00
F8FF00
F81F00
F80F80
F80F80
F80F80
F80F80
FA3F00
FBFF00
FBFF00
FBFE00
FBF800
ENDCHAR
STARTCHAR 00E0
ENCODING 224
SWIDTH 594 0
DWIDTH 19 0
BBX 16 26 1 0
BITMAP
0700
0700
0780
0380
0380
01C0
0000
0000
07F0
1FFC
3FFE
7FFE
7C3E
181F
001F
07FF
1FFF
7FFF
7F1F
F81F
F81F
F83F
7EFF
7FFF
3FEF
1F8F
ENDCHAR
STARTCHAR 00E1
ENCODING 225
SWIDTH 594 0
DWIDTH 19 0
BBX 16 26 1 0
BITMAP
0078
0070
0070
00E0
00E0
01C0
0000
0000
07F0
1FFC
3FFE
7FFE
7C3E
181F
001F
07FF
1FFF
7FFF
7F1F
F81F
F81F
F83F
7EFF
7FFF
3FEF
1F8F
ENDCHAR
STARTCHAR 00E2
ENCODING 226
SWIDTH 594 0
DWIDTH 19 0
BBX 16 25 1 0
BITMAP
03E0
07F0
0F78
1E3C
1E3C
0000
0000
07F0
1FFC
3FFE
7FFE
7C3E
181F
001F
07FF
1FFF
7FFF
7F1F
F81F
F81F
F83F
7EFF
7FFF
3FEF
1F8F
ENDCHAR
STARTCHAR 00E3
ENCODING 227
SWIDTH 594 0
DWIDTH 19 0
BBX 16 25 1 0
BITMAP
0F0E
1FCE
1FFE
1CFC
1C38
0000
0000
07F0
1FFC
3FFE
7FFE
7C3E
181F
001F
07FF
1FFF
7FFF
7F9F
FC1F
F81F
F83F
787F
7FFF
3FEF
1F8F
ENDCHAR
STARTCHAR 00E4
ENCODING 228
SWIDTH 594 0
DWIDTH 19 0
BBX 16 24 1 0
BITMAP
1E3C
1E3C
1E3C
1E3C
0000
0000
07F0
1FFC
3FFE
7FFE
7C3E
181F
001F
07FF
1FFF
7FFF
7F1F
F81F
F81F
F83F
7EFF
7FFF
3FEF
1F8F
ENDCHAR
STARTCHAR 00E5
ENCODING 229
SWIDTH 594 0
DWIDTH 19 0
BBX 16 28 1 0
BITMAP
01E0
07F0
07F0
0E38
0E38
0E38
07F0
03E0
0080
0000
07F0
1FFC
3FFE
7FFE
7C3E
181F
001F
07FF
1FFF
7FFF
7F1F
F81F
F81F
F83F
FEFF
7FFF
3FEF
1F8F
ENDCHAR
STARTCHAR 00E6
ENCODING 230
SWIDTH 939 0
DWIDTH 30 0
BBX 28 18 1 0
BITMAP
07E07E00
0FF9FF00
3FFFFFC0
3FFFFFC0
7C3FC3E0
181F81E0
001F01E0
00FFFFE0
0FFFFFF0
3FFFFFF0
7F1F0000
F81F0000
F81F8180
F83FC3E0
FCFFFFE0
7FFBFFC0
3FE1FF80
1FC07E00
ENDCHAR
STARTCHAR 00E7
ENCODING 231
SWIDTH 594 0
DWIDTH 19 0
BBX 17 25 1 -7
BITMAP
03F000
0FFC00
1FFE00
3FFF00
7E3F00
7C0F80
780C00
F80000
F80000
F80000
F80000
F80000
7C0F80
7E1F00
3FFF00
1FFE00
0FFC00
03F000
01C000
01E000
00F000
007000
01F000
03E000
03C000
ENDCHAR
STARTCHAR 00E8
ENCODING 232
SWIDTH 594 0
DWIDTH 19 0
BBX 17 26 1 0
BITMAP
070000
078000
038000
038000
01C000
01C000
000000
000000
03F000
0FFC00
1FFE00
3FFF00
7E0F00
7C0F80
780780
FFFF80
FFFF80
FFFF80
F80000
F80000
7C0E00
7E1F80
3FFF00
1FFE00
0FFC00
03F000
ENDCHAR
STARTCHAR 00E9
ENCODING 233
SWIDTH 594 0
DWIDTH 19 0
BBX 17 26 1 0
BITMAP
003800
003800
007000
007000
00F000
00E000
000000
000000
03F000
0FFC00
1FFE00
3FFF00
7E0F00
7C0F80
780780
FFFF80
FFFF80
FFFF80
F80000
F80000
7C0E00
7E1F80
3FFF00
1FFE00
0FFC00
03F000
ENDCHAR
STARTCHAR 00EA
ENCODING 234
SWIDTH 594 0
DWIDTH 19 0
BBX 17 25 1 0
BITMAP
03E000
03F000
07F800
0F3C00
1E1E00
000000
000000
03F000
0FFC00
1FFE00
3FFF00
7E0F00
7C0F80
780780
FFFF80
FFFF80
FFFF80
F80000
F80000
7C0E00
7E1F80
3FFF00
1FFE00
0FFC00
03F000
ENDCHAR
STARTCHAR 00EB
ENCODING 235
SWIDTH 594 0
DWIDTH 19 0
BBX 17 24 1 0
BITMAP
0F3C00
0F3C00
0F3C00
0F3C00
000000
000000
03F000
0FFC00
1FFE00
3FFF00
7E0F00
7C0F80
780780
FFFF80
FFFF80
FFFF80
F80000
F80000
7C0E00
7E1F80
3FFF00
1FFE00
0FFC00
03F000
ENDCHAR
STARTCHAR 00EC
ENCODING 236
SWIDTH 281 0
DWIDTH 9 0
BBX 7 27 0 0
BITMAP
F0
70
78
38
38
1C
1C
00
00
1E
1E
1E
1E
1E
1E
1E
1E
1E
1E
1E
1E
1E
1E
1E
1E
1E
1E
ENDCHAR
STARTCHAR 00ED
ENCODING 237
SWIDTH 281 0
DWIDTH 9 0
BBX 6 27 3 0
BITMAP
1C
3C
38
38
70
70
E0
00
00
F0
F0
F0
F0
F0
F0
F0
F0
F0
F0
F0
F0
F0
F0
F0
F0
F0
F0
ENDCHAR
STARTCHAR 00EE
ENCODING 238
SWIDTH 281 0
DWIDTH 9 0
BBX 12 26 -1 0
BITMAP
0F00
1F80
3FC0
79E0
F0F0
0000
0000
0000
0F00
0F00
0F00
0F00
0F00
0F00
0F00
0F00
0F00
0F00
0F00
0F00
0F00
0F00
0F00
0F00
0F00
0F00
ENDCHAR
STARTCHAR 00EF
ENCODING 239
SWIDTH 281 0
DWIDTH 9 0
BBX 11 24 -1 0
BITMAP
F1E0
F1E0
F1E0
F1E0
0000
0000
0F00
0F00
0F00
0F00
0F00
0F00
0F00
0F00
0F00
0F00
0F00
0F00
0F00
0F00
0F00
0F00
0F00
0F00
ENDCHAR
STARTCHAR 00F0
ENCODING 240
SWIDTH 594 0
DWIDTH 19 0
BBX 17 24 1 1
BITMAP
039C00
03FC00
03F800
01FC00
01FE00
00FE00
004F00
03E700
0FFF00
1FFF00
3FFF80
7E1F80
780F80
F80F80
F80F80
F80780
F80780
F80F80
780F00
7C1F00
3FFF00
3FFE00
0FFC00
07F000
ENDCHAR
STARTCHAR 00F1
ENCODING 241
SWIDTH 626 0
DWIDTH 20 0
BBX 16 26 2 0
BITMAP
0E1C
1F9C
3FFC
39FC
3878
0000
0000
0000
F3F8
F7FC
FFFE
FFFF
FC3F
F81F
F80F
F80F
F80F
F80F
F80F
F80F
F80F
F80F
F80F
F80F
F80F
F80F
ENDCHAR
STARTCHAR 00F2
ENCODING 242
SWIDTH 626 0
DWIDTH 20 0
BBX 18 26 1 0
BITMAP
070000
070000
038000
038000
03C000
01C000
000000
000000
03F000
0FFC00
1FFE00
3FFF00
7E1F80
7C0F80
780780
F807C0
F807C0
F807C0
F807C0
780780
7C0F80
7E1F80
3FFF00
1FFE00
0FFC00
03F000
ENDCHAR
STARTCHAR 00F3
ENCODING 243
SWIDTH 626 0
DWIDTH 20 0
BBX 18 26 1 0
BITMAP
003800
007800
007000
007000
00E000
00E000
000000
000000
03F000
0FFC00
1FFE00
3FFF00
7E1F80
7C0F80
780780
F807C0
F807C0
F807C0
F807C0
780780
7C0F80
7E1F80
3FFF00
1FFE00
0FFC00
03F000
ENDCHAR
STARTCHAR 00F4
ENCODING 244
SWIDTH 626 0
DWIDTH 20 0
BBX 18 25 1 0
BITMAP
03E000
03F000
07F800
0F3C00
1E1E00
000000
000000
03F000
0FFC00
1FFE00
3FFF00
7E1F80
7C0F80
780780
F807C0
F807C0
F807C0
F807C0
780780
7C0F80
7E1F80
3FFF00
1FFE00
0FFC00
03F000
ENDCHAR
STARTCHAR 00F5
ENCODING 245
SWIDTH 626 0
DWIDTH 20 0
BBX 18 25 1 0
BITMAP
0F0E00
1FCE00
1FFE00
1CFE00
1C3C00
000000
000000
03F000
0FFC00
1FFE00
3FFF00
7E1F80
7C0F80
780780
F807C0
F807C0
F807C0
F807C0
780780
7C0F80
7E1F80
3FFF00
1FFE00
0FFC00
03F000
ENDCHAR
STARTCHAR 00F6
ENCODING 246
SWIDTH 626 0
DWIDTH 20 0
BBX 18 24 1 0
BITMAP
0F3C00
0F3C00
0F3C00
0F3C00
000000
000000
03F000
0FFC00
1FFE00
3FFF00
7E1F80
7C0F80
780780
F807C0
F807C0
F807C0
F807C0
780780
7C0F80
7E1F80
3FFF00
1FFE00
0FFC00
03F000
ENDCHAR
STARTCHAR 00F7
ENCODING 247
SWIDTH 532 0
DWIDTH 17 0
BBX 13 15 2 4
BITMAP
0780
0780
0780
0780
0000
0000
FFF8
FFF8
FFF8
0000
0000
0780
0780
0780
0780
ENDCHAR
STARTCHAR 00F8
ENCODING 248
SWIDTH 626 0
DWIDTH 20 0
BBX 18 18 1 0
BITMAP
03F100
0FFF80
1FFFC0
3FFFC0
7E1F80
7C3F80
787F80
F8FFC0
F9F7C0
FBE7C0
FFC7C0
7F8780
7F0F80
7E1F80
7FFF00
FFFE00
7FFC00
23F000
ENDCHAR
STARTCHAR 00F9
ENCODING 249
SWIDTH 626 0
DWIDTH 20 0
BBX 16 27 2 0
BITMAP
0E00
0E00
0700
0700
0780
0380
03C0
0000
0000
F00F
F00F
F00F
F00F
F00F
F00F
F00F
F00F
F00F
F00F
F00F
F81F
F81F
FC3F
7FFF
7FFF
3FFF
0FCF
ENDCHAR
STARTCHAR 00FA
ENCODING 250
SWIDTH 626 0
DWIDTH 20 0
BBX 16 27 2 0
BITMAP
0070
00F0
00E0
00E0
01C0
01C0
0380
0000
0000
F00F
F00F
F00F
F00F
F00F
F00F
F00F
F00F
F00F
F00F
F00F
F81F
F81F
FC3F
7FFF
7FFF
3FFF
0FCF
ENDCHAR
STARTCHAR 00FB
ENCODING 251
SWIDTH 626 0
DWIDTH 20 0
BBX 16 26 2 0
BITMAP
03C0
07E0
0FF0
1E78
3C3C
0000
0000
0000
F00F
F00F
F00F
F00F
F00F
F00F
F00F
F00F
F00F
F00F
F00F
F81F
F81F
FC3F
7FFF
7FFF
3FFF
0FCF
ENDCHAR
STARTCHAR 00FC
ENCODING 252
SWIDTH 626 0
DWIDTH 20 0
BBX 16 24 2 0
BITMAP
1E78
1E78
1E78
1E78
0000
0000
F00F
F00F
F00F
F00F
F00F
F00F
F00F
F00F
F00F
F00F
F00F
F81F
F81F
FC3F
7FFF
7FFF
3FFF
0FCF
ENDCHAR
STARTCHAR 00FD
ENCODING 253
SWIDTH 563 0
DWIDTH 18 0
BBX 17 34 1 -7
BITMAP
007800
007000
00F000
00E000
00E000
01C000
01C000
000000
000000
F00780
F00F80
F80F00
780F00
7C1E00
3C1E00
3C3E00
3E3C00
1E3C00
1F7800
0F7800
0FF800
0FF000
07F000
07F000
03E000
03E000
03C000
03C000
07C000
078000
078000
0F0000
0F0000
0F0000
ENDCHAR
STARTCHAR 00FE
ENCODING 254
SWIDTH 626 0
DWIDTH 20 0
BBX 17 30 2 -7
BITMAP
F80000
F80000
F80000
F80000
F80000
FBE000
FFF800
FFFC00
FFFE00
FC3F00
F81F00
F00F00
F00F80
F00F80
F00F80
F00F80
F00F00
F81F00
FC3F00
FFFE00
FFFC00
FFF800
FBE000
F80000
F80000
F80000
F80000
F80000
F80000
F80000
ENDCHAR
STARTCHAR 00FF
ENCODING 255
SWIDTH 563 0
DWIDTH 18 0
BBX 17 31 1 -7
BITMAP
1E3C00
1E3C00
1E3C00
1E3C00
000000
000000
F00780
F00F80
F80F00
780F00
7C1E00
3C1E00
3C3E00
3E3C00
1E3C00
1F7800
0F7800
0FF800
0FF000
07F000
07F000
03E000
03E000
03C000
03C000
07C000
078000
078000
0F0000
0F0000
0F0000
ENDCHAR
ENDFONT
