STARTFONT 2.1
COMMENT
COMMENT Converted from OpenType font "manrope-light.otf" by "otf2bdf 3.0".
COMMENT
FONT -FreeType-Manrope Light-Medium-R-Normal--26-190-100-100-P-117-ISO10646-1
SIZE 19 100 100
FONTBOUNDINGBOX 25 33 -1 -7
STARTPROPERTIES 19
FOUNDRY "FreeType"
FAMILY_NAME "Manrope Light"
WEIGHT_NAME "Medium"
SLANT "R"
SETWIDTH_NAME "Normal"
ADD_STYLE_NAME ""
PIXEL_SIZE 26
POINT_SIZE 190
RESOLUTION_X 100
RESOLUTION_Y 100
SPACING "P"
AVERAGE_WIDTH 117
CHARSET_REGISTRY "ISO10646"
CHARSET_ENCODING "1"
FONT_ASCENT 27
FONT_DESCENT 7
COPYRIGHT "Copyright 2019-2021 The Manrope Project Authors (https://github.com/sharanda/manrope)"
_OTF_FONTFILE "manrope-light.otf"
_OTF_PSNAME "Manrope-Light"
ENDPROPERTIES
CHARS 191
STARTCHAR 0020
ENCODING 32
SWIDTH 189 0
DWIDTH 5 0
BBX 0 0 0 0
BITMAP
ENDCHAR
STARTCHAR 0021
ENCODING 33
SWIDTH 303 0
DWIDTH 8 0
BBX 2 19 3 0
BITMAP
C0
C0
C0
C0
C0
C0
C0
C0
C0
C0
C0
C0
C0
C0
00
00
00
C0
C0
ENDCHAR
STARTCHAR 0022
ENCODING 34
SWIDTH 378 0
DWIDTH 10 0
BBX 5 5 2 14
BITMAP
88
88
88
88
88
ENDCHAR
STARTCHAR 0023
ENCODING 35
SWIDTH 909 0
DWIDTH 24 0
BBX 20 19 2 0
BITMAP
004100
00C100
00C300
008300
018200
018200
7FFFF0
010600
030400
030C00
020C00
020800
FFFFE0
061800
041800
0C1000
0C1000
083000
083000
ENDCHAR
STARTCHAR 0024
ENCODING 36
SWIDTH 568 0
DWIDTH 15 0
BBX 13 23 1 -2
BITMAP
0200
0200
0F80
3DE0
6030
4018
4018
4000
6000
7000
1E00
07C0
0070
0018
0008
0008
C008
C018
6018
3FF0
0FC0
0200
0200
ENDCHAR
STARTCHAR 0025
ENCODING 37
SWIDTH 909 0
DWIDTH 24 0
BBX 20 19 2 0
BITMAP
3C0020
770060
C180C0
818180
808300
818600
C18C00
771800
3E3000
006000
00C7C0
018EE0
031830
061010
0C1010
181010
301830
600EE0
4007C0
ENDCHAR
STARTCHAR 0026
ENCODING 38
SWIDTH 644 0
DWIDTH 17 0
BBX 15 19 1 0
BITMAP
0F80
1FE0
3030
2000
6000
6000
2000
3000
1800
3C00
730C
418C
C0CC
C06C
C038
4018
603C
3FF6
0FC2
ENDCHAR
STARTCHAR 0027
ENCODING 39
SWIDTH 189 0
DWIDTH 5 0
BBX 1 5 2 14
BITMAP
80
80
80
80
80
ENDCHAR
STARTCHAR 0028
ENCODING 40
SWIDTH 416 0
DWIDTH 11 0
BBX 6 26 4 -5
BITMAP
08
18
18
30
20
60
40
40
C0
C0
80
80
80
80
80
80
80
C0
C0
40
60
60
30
30
18
0C
ENDCHAR
STARTCHAR 0029
ENCODING 41
SWIDTH 416 0
DWIDTH 11 0
BBX 6 26 1 -5
BITMAP
40
40
60
30
10
18
08
08
0C
0C
04
04
04
04
04
04
04
0C
0C
08
18
18
30
30
60
C0
ENDCHAR
STARTCHAR 002A
ENCODING 42
SWIDTH 416 0
DWIDTH 11 0
BBX 9 8 1 10
BITMAP
1800
1800
8800
FF80
3C00
1C00
3600
6200
ENDCHAR
STARTCHAR 002B
ENCODING 43
SWIDTH 568 0
DWIDTH 15 0
BBX 12 12 2 4
BITMAP
0400
0400
0400
0400
0400
0400
FFF0
0400
0400
0400
0400
0400
ENDCHAR
STARTCHAR 002C
ENCODING 44
SWIDTH 265 0
DWIDTH 7 0
BBX 1 6 2 -3
BITMAP
80
80
80
80
80
80
ENDCHAR
STARTCHAR 002D
ENCODING 45
SWIDTH 416 0
DWIDTH 11 0
BBX 8 1 2 8
BITMAP
FF
ENDCHAR
STARTCHAR 002E
ENCODING 46
SWIDTH 227 0
DWIDTH 6 0
BBX 2 2 2 0
BITMAP
C0
C0
ENDCHAR
STARTCHAR 002F
ENCODING 47
SWIDTH 378 0
DWIDTH 10 0
BBX 6 19 2 0
BITMAP
0C
0C
0C
08
18
18
18
10
30
30
20
20
60
60
40
40
C0
C0
80
ENDCHAR
STARTCHAR 0030
ENCODING 48
SWIDTH 606 0
DWIDTH 16 0
BBX 12 19 2 0
BITMAP
1F00
3FC0
6060
C020
C030
8030
8030
8030
8030
8030
8030
8030
8030
8030
C030
C020
6060
3FC0
1F00
ENDCHAR
STARTCHAR 0031
ENCODING 49
SWIDTH 378 0
DWIDTH 10 0
BBX 5 19 2 0
BITMAP
38
78
D8
18
18
18
18
18
18
18
18
18
18
18
18
18
18
18
18
ENDCHAR
STARTCHAR 0032
ENCODING 50
SWIDTH 568 0
DWIDTH 15 0
BBX 13 19 1 0
BITMAP
0F80
3FE0
3060
6030
4010
C010
0010
0010
0030
0060
00E0
0180
0300
0600
0C00
1800
3000
E000
FFF8
ENDCHAR
STARTCHAR 0033
ENCODING 51
SWIDTH 530 0
DWIDTH 14 0
BBX 12 19 1 0
BITMAP
7FF0
7FF0
00E0
0180
0300
0600
0C00
1F80
1BC0
0060
0020
0030
0030
0030
0030
C020
6060
3BC0
1F00
ENDCHAR
STARTCHAR 0034
ENCODING 52
SWIDTH 568 0
DWIDTH 15 0
BBX 13 19 1 0
BITMAP
0100
0300
0200
0600
0400
0C00
0800
1800
1060
3060
2060
6060
6060
C060
FFF8
0060
0060
0060
0060
ENDCHAR
STARTCHAR 0035
ENCODING 53
SWIDTH 568 0
DWIDTH 15 0
BBX 13 19 1 0
BITMAP
7FE0
6000
6000
6000
6000
6000
6000
5FC0
7060
6030
0010
0018
0018
0018
C018
6030
6070
3FE0
0F80
ENDCHAR
STARTCHAR 0036
ENCODING 54
SWIDTH 606 0
DWIDTH 16 0
BBX 13 19 2 0
BITMAP
0F80
3FC0
6060
C020
C000
8000
8000
8F80
BFC0
E060
C030
C010
8018
8018
C010
C030
6060
3FC0
0F80
ENDCHAR
STARTCHAR 0037
ENCODING 55
SWIDTH 492 0
DWIDTH 13 0
BBX 11 19 1 0
BITMAP
FFE0
FFE0
0040
00C0
0080
0180
0180
0100
0300
0200
0600
0600
0400
0C00
0800
1800
1800
3000
3000
ENDCHAR
STARTCHAR 0038
ENCODING 56
SWIDTH 568 0
DWIDTH 15 0
BBX 11 19 2 0
BITMAP
1F00
7FC0
60C0
C060
C060
C060
C060
60C0
3F80
7FC0
C060
C060
8020
8020
8020
C060
C060
7BC0
1F00
ENDCHAR
STARTCHAR 0039
ENCODING 57
SWIDTH 606 0
DWIDTH 16 0
BBX 13 19 2 0
BITMAP
0F80
3FC0
6060
C030
C010
8010
8018
C018
C038
6078
3FD8
1F18
0018
0010
0010
0030
6060
3FC0
0F80
ENDCHAR
STARTCHAR 003A
ENCODING 58
SWIDTH 303 0
DWIDTH 8 0
BBX 2 10 3 2
BITMAP
C0
C0
00
00
00
00
00
00
C0
C0
ENDCHAR
STARTCHAR 003B
ENCODING 59
SWIDTH 303 0
DWIDTH 8 0
BBX 2 18 3 -3
BITMAP
C0
C0
00
00
00
00
00
00
00
00
00
00
C0
C0
C0
40
40
80
ENDCHAR
STARTCHAR 003C
ENCODING 60
SWIDTH 606 0
DWIDTH 16 0
BBX 7 12 4 3
BITMAP
04
0C
18
30
60
C0
C0
60
30
18
0C
06
ENDCHAR
STARTCHAR 003D
ENCODING 61
SWIDTH 757 0
DWIDTH 20 0
BBX 14 5 3 7
BITMAP
FFFC
0000
0000
0000
FFFC
ENDCHAR
STARTCHAR 003E
ENCODING 62
SWIDTH 606 0
DWIDTH 16 0
BBX 7 12 5 3
BITMAP
40
60
30
18
0C
06
06
0C
18
30
60
C0
ENDCHAR
STARTCHAR 003F
ENCODING 63
SWIDTH 530 0
DWIDTH 14 0
BBX 11 19 1 0
BITMAP
1F00
3FC0
6060
4060
C020
0020
0060
0060
01C0
0300
0600
0400
0400
0400
0000
0000
0000
0400
0400
ENDCHAR
STARTCHAR 0040
ENCODING 64
SWIDTH 909 0
DWIDTH 24 0
BBX 20 20 2 -3
BITMAP
01F800
079F00
1C0380
3000C0
200040
600060
400020
C1FC20
C31C30
C20C30
C20C30
C20C20
C31C60
41F7C0
600380
200000
300000
1C0200
0F9E00
01F800
ENDCHAR
STARTCHAR 0041
ENCODING 65
SWIDTH 606 0
DWIDTH 16 0
BBX 15 19 1 0
BITMAP
0300
0380
0780
0680
04C0
0CC0
0C40
0860
1860
1830
1030
3010
3018
7FF8
6008
400C
C00C
C004
8006
ENDCHAR
STARTCHAR 0042
ENCODING 66
SWIDTH 606 0
DWIDTH 16 0
BBX 13 19 2 0
BITMAP
FF80
81E0
8030
8030
8010
8010
8030
8030
81E0
FFE0
8030
8018
8018
8008
8008
8018
8038
81F0
FFC0
ENDCHAR
STARTCHAR 0043
ENCODING 67
SWIDTH 720 0
DWIDTH 19 0
BBX 16 19 1 0
BITMAP
07F0
1FFC
380E
6006
6003
C001
C000
C000
8000
8000
8000
C000
C000
C001
6003
6006
380E
1F7C
07F0
ENDCHAR
STARTCHAR 0044
ENCODING 68
SWIDTH 644 0
DWIDTH 17 0
BBX 14 19 2 0
BITMAP
FF80
FFE0
8030
8018
8008
800C
800C
8004
8004
8004
8004
8004
800C
800C
8008
8018
8030
83E0
FFC0
ENDCHAR
STARTCHAR 0045
ENCODING 69
SWIDTH 568 0
DWIDTH 15 0
BBX 12 19 2 0
BITMAP
FFF0
8000
8000
8000
8000
8000
8000
8000
8000
FFC0
8000
8000
8000
8000
8000
8000
8000
8000
FFF0
ENDCHAR
STARTCHAR 0046
ENCODING 70
SWIDTH 492 0
DWIDTH 13 0
BBX 11 19 2 0
BITMAP
FFE0
FFE0
8000
8000
8000
8000
8000
8000
FF80
FF80
8000
8000
8000
8000
8000
8000
8000
8000
8000
ENDCHAR
STARTCHAR 0047
ENCODING 71
SWIDTH 682 0
DWIDTH 18 0
BBX 17 19 1 0
BITMAP
07E000
1F7800
380C00
600600
600300
C00000
C00000
C00000
800000
800000
803F80
C00180
C00100
C00100
400300
600200
300E00
1F7C00
07F000
ENDCHAR
STARTCHAR 0048
ENCODING 72
SWIDTH 682 0
DWIDTH 18 0
BBX 14 19 2 0
BITMAP
800C
800C
800C
800C
800C
800C
800C
800C
800C
FFFC
800C
800C
800C
800C
800C
800C
800C
800C
800C
ENDCHAR
STARTCHAR 0049
ENCODING 73
SWIDTH 227 0
DWIDTH 6 0
BBX 2 19 2 0
BITMAP
C0
C0
C0
C0
C0
C0
C0
C0
C0
C0
C0
C0
C0
C0
C0
C0
C0
C0
C0
ENDCHAR
STARTCHAR 004A
ENCODING 74
SWIDTH 454 0
DWIDTH 12 0
BBX 10 19 0 0
BITMAP
00C0
00C0
00C0
00C0
00C0
00C0
00C0
00C0
00C0
00C0
00C0
00C0
00C0
00C0
00C0
C0C0
C180
7F80
1E00
ENDCHAR
STARTCHAR 004B
ENCODING 75
SWIDTH 568 0
DWIDTH 15 0
BBX 13 19 2 0
BITMAP
8030
8060
80C0
8180
8300
8600
8C00
9800
B000
F000
9800
8C00
8600
8300
8180
80C0
8060
8030
8018
ENDCHAR
STARTCHAR 004C
ENCODING 76
SWIDTH 492 0
DWIDTH 13 0
BBX 11 19 2 0
BITMAP
C000
C000
C000
C000
C000
C000
C000
C000
C000
C000
C000
C000
C000
C000
C000
C000
C000
C000
FFE0
ENDCHAR
STARTCHAR 004D
ENCODING 77
SWIDTH 833 0
DWIDTH 22 0
BBX 18 19 2 0
BITMAP
C00040
C000C0
C000C0
E001C0
A00140
B00340
900240
980640
880440
8C0C40
840C40
861840
861840
831040
833040
812040
81E040
80C040
80C040
ENDCHAR
STARTCHAR 004E
ENCODING 78
SWIDTH 682 0
DWIDTH 18 0
BBX 14 19 2 0
BITMAP
C00C
C00C
E00C
B00C
900C
980C
8C0C
840C
860C
830C
810C
818C
80CC
806C
806C
803C
801C
801C
800C
ENDCHAR
STARTCHAR 004F
ENCODING 79
SWIDTH 720 0
DWIDTH 19 0
BBX 17 19 1 0
BITMAP
07F000
1FFC00
380E00
600600
600300
C00100
C00180
C00180
800180
800180
800180
C00180
C00180
C00100
600300
600600
380E00
1F7C00
07F000
ENDCHAR
STARTCHAR 0050
ENCODING 80
SWIDTH 606 0
DWIDTH 16 0
BBX 13 19 2 0
BITMAP
FFC0
81E0
8030
8010
8018
8018
8018
8018
8030
8070
FFE0
FF00
8000
8000
8000
8000
8000
8000
8000
ENDCHAR
STARTCHAR 0051
ENCODING 81
SWIDTH 720 0
DWIDTH 19 0
BBX 17 19 1 0
BITMAP
07F000
1FFC00
380E00
600600
600300
C00100
C00180
C00180
800180
800180
800180
C00180
C00180
C00100
601B00
600E00
380E00
1F7F00
07F100
ENDCHAR
STARTCHAR 0052
ENCODING 82
SWIDTH 606 0
DWIDTH 16 0
BBX 13 19 2 0
BITMAP
FFC0
81E0
8030
8010
8018
8018
8018
8018
8030
8070
FFE0
FFC0
80C0
8060
8060
8030
8030
8018
8018
ENDCHAR
STARTCHAR 0053
ENCODING 83
SWIDTH 606 0
DWIDTH 16 0
BBX 14 19 1 0
BITMAP
0FC0
3FF0
6038
6018
400C
4008
6000
3000
1F00
03E0
0078
001C
000C
000C
C00C
C00C
6018
3EF0
0FE0
ENDCHAR
STARTCHAR 0054
ENCODING 84
SWIDTH 606 0
DWIDTH 16 0
BBX 15 19 0 0
BITMAP
FFFE
0180
0180
0180
0180
0180
0180
0180
0180
0180
0180
0180
0180
0180
0180
0180
0180
0180
0180
ENDCHAR
STARTCHAR 0055
ENCODING 85
SWIDTH 682 0
DWIDTH 18 0
BBX 15 19 2 0
BITMAP
8006
8006
8006
8006
8006
8006
8006
8006
8006
8006
8006
8006
8004
C004
C00C
600C
7018
3EF0
0FC0
ENDCHAR
STARTCHAR 0056
ENCODING 86
SWIDTH 606 0
DWIDTH 16 0
BBX 15 19 0 0
BITMAP
C002
4006
6006
6004
200C
300C
3008
1018
1810
1830
0830
0C20
0460
0660
0640
02C0
03C0
0380
0180
ENDCHAR
STARTCHAR 0057
ENCODING 87
SWIDTH 909 0
DWIDTH 24 0
BBX 23 19 1 0
BITMAP
803006
803004
C03804
C0780C
40680C
604C08
604C18
20C418
20C410
308610
318630
118230
190320
190360
0B0160
0A0140
0E01C0
0E01C0
0600C0
ENDCHAR
STARTCHAR 0058
ENCODING 88
SWIDTH 606 0
DWIDTH 16 0
BBX 14 19 1 0
BITMAP
C00C
C018
6010
3030
1060
1840
0CC0
0580
0700
0300
0700
0D80
0CC0
1860
3060
2030
6018
C018
800C
ENDCHAR
STARTCHAR 0059
ENCODING 89
SWIDTH 530 0
DWIDTH 14 0
BBX 14 19 0 0
BITMAP
C00C
6008
6018
3030
1030
1860
0C40
0CC0
0680
0780
0300
0300
0300
0300
0300
0300
0300
0300
0300
ENDCHAR
STARTCHAR 005A
ENCODING 90
SWIDTH 606 0
DWIDTH 16 0
BBX 13 19 1 0
BITMAP
FFF8
0018
0030
0030
0060
0040
00C0
0180
0100
0300
0600
0600
0C00
1800
1800
3000
2000
6000
FFF8
ENDCHAR
STARTCHAR 005B
ENCODING 91
SWIDTH 416 0
DWIDTH 11 0
BBX 4 29 4 -6
BITMAP
F0
80
80
80
80
80
80
80
80
80
80
80
80
80
80
80
80
80
80
80
80
80
80
80
80
80
80
80
F0
ENDCHAR
STARTCHAR 005C
ENCODING 92
SWIDTH 378 0
DWIDTH 10 0
BBX 6 19 2 0
BITMAP
80
C0
C0
40
40
60
60
20
20
30
30
10
18
18
18
08
0C
0C
0C
ENDCHAR
STARTCHAR 005D
ENCODING 93
SWIDTH 416 0
DWIDTH 11 0
BBX 5 29 2 -6
BITMAP
F8
18
18
18
18
18
18
18
18
18
18
18
18
18
18
18
18
18
18
18
18
18
18
18
18
18
18
18
F8
ENDCHAR
STARTCHAR 005E
ENCODING 94
SWIDTH 682 0
DWIDTH 18 0
BBX 12 7 3 12
BITMAP
0600
0F00
1980
30C0
6060
C030
8010
ENDCHAR
STARTCHAR 005F
ENCODING 95
SWIDTH 644 0
DWIDTH 17 0
BBX 17 1 0 -2
BITMAP
FFFF80
ENDCHAR
STARTCHAR 0060
ENCODING 96
SWIDTH 492 0
DWIDTH 13 0
BBX 2 4 5 21
BITMAP
80
C0
40
40
ENDCHAR
STARTCHAR 0061
ENCODING 97
SWIDTH 530 0
DWIDTH 14 0
BBX 12 15 1 0
BITMAP
0F80
3DE0
6060
4030
0030
0030
0FF0
3C30
6030
C030
C030
C070
C0D0
7390
3F10
ENDCHAR
STARTCHAR 0062
ENCODING 98
SWIDTH 568 0
DWIDTH 15 0
BBX 12 19 2 0
BITMAP
8000
8000
8000
8000
8F80
BFC0
E060
C030
C030
8010
8010
8010
8010
8010
C030
C030
E060
BFC0
8F80
ENDCHAR
STARTCHAR 0063
ENCODING 99
SWIDTH 530 0
DWIDTH 14 0
BBX 12 15 1 0
BITMAP
0F80
3FE0
7030
6010
C000
C000
C000
C000
C000
C000
C000
6010
7030
3FE0
0F80
ENDCHAR
STARTCHAR 0064
ENCODING 100
SWIDTH 568 0
DWIDTH 15 0
BBX 13 19 1 0
BITMAP
0018
0018
0018
0018
0F98
3DD8
6078
6038
C018
C018
C018
C018
C018
C018
C018
6038
6078
3DD8
0F98
ENDCHAR
STARTCHAR 0065
ENCODING 101
SWIDTH 568 0
DWIDTH 15 0
BBX 13 15 1 0
BITMAP
0F80
3DE0
7030
6010
C018
C018
C008
FFF8
C000
C000
C000
6018
7030
3FE0
0F80
ENDCHAR
STARTCHAR 0066
ENCODING 102
SWIDTH 341 0
DWIDTH 9 0
BBX 8 19 1 0
BITMAP
0F
18
30
30
FF
30
30
30
30
30
30
30
30
30
30
30
30
30
30
ENDCHAR
STARTCHAR 0067
ENCODING 103
SWIDTH 568 0
DWIDTH 15 0
BBX 13 22 1 -7
BITMAP
0F98
3DD8
6078
6038
C018
C018
C018
C018
C018
C018
C018
6038
6078
3DD8
0F98
0018
0010
0010
6030
3060
1FC0
0300
ENDCHAR
STARTCHAR 0068
ENCODING 104
SWIDTH 568 0
DWIDTH 15 0
BBX 12 19 2 0
BITMAP
8000
8000
8000
8000
8F00
BFC0
E060
C060
C030
8030
8030
8030
8030
8030
8030
8030
8030
8030
8030
ENDCHAR
STARTCHAR 0069
ENCODING 105
SWIDTH 227 0
DWIDTH 6 0
BBX 2 19 2 0
BITMAP
C0
C0
00
00
C0
C0
C0
C0
C0
C0
C0
C0
C0
C0
C0
C0
C0
C0
C0
ENDCHAR
STARTCHAR 006A
ENCODING 106
SWIDTH 227 0
DWIDTH 6 0
BBX 4 26 0 -7
BITMAP
10
10
00
00
10
10
10
10
10
10
10
10
10
10
10
10
10
10
10
10
10
10
10
30
F0
C0
ENDCHAR
STARTCHAR 006B
ENCODING 107
SWIDTH 492 0
DWIDTH 13 0
BBX 11 19 2 0
BITMAP
8000
8000
8000
8000
80C0
8180
8300
8600
8C00
9800
B000
E000
B000
9800
8C00
8600
8380
81C0
80E0
ENDCHAR
STARTCHAR 006C
ENCODING 108
SWIDTH 227 0
DWIDTH 6 0
BBX 2 19 2 0
BITMAP
C0
C0
C0
C0
C0
C0
C0
C0
C0
C0
C0
C0
C0
C0
C0
C0
C0
C0
C0
ENDCHAR
STARTCHAR 006D
ENCODING 109
SWIDTH 833 0
DWIDTH 22 0
BBX 18 15 2 0
BITMAP
9E1F00
B3BB80
C1E0C0
C0C040
80C040
80C040
80C040
80C040
80C040
80C040
80C040
80C040
80C040
80C040
80C040
ENDCHAR
STARTCHAR 006E
ENCODING 110
SWIDTH 568 0
DWIDTH 15 0
BBX 12 15 2 0
BITMAP
8F00
BFC0
E060
C060
C030
8030
8030
8030
8030
8030
8030
8030
8030
8030
8030
ENDCHAR
STARTCHAR 006F
ENCODING 111
SWIDTH 568 0
DWIDTH 15 0
BBX 13 15 1 0
BITMAP
0F80
3FE0
7030
6018
C018
C018
C008
C008
C008
C018
C018
6010
7030
3FE0
0F80
ENDCHAR
STARTCHAR 0070
ENCODING 112
SWIDTH 568 0
DWIDTH 15 0
BBX 12 21 2 -6
BITMAP
8F80
BFC0
E060
C030
C030
8010
8010
8010
8010
8010
C030
C030
E060
BFC0
8F80
8000
8000
8000
8000
8000
8000
ENDCHAR
STARTCHAR 0071
ENCODING 113
SWIDTH 568 0
DWIDTH 15 0
BBX 13 21 1 -6
BITMAP
0F98
3DD8
6078
6038
C018
C018
C018
C018
C018
C018
C018
6038
6078
3DD8
0F98
0018
0018
0018
0018
0018
0018
ENDCHAR
STARTCHAR 0072
ENCODING 114
SWIDTH 341 0
DWIDTH 9 0
BBX 7 15 2 0
BITMAP
9E
BA
E0
C0
C0
80
80
80
80
80
80
80
80
80
80
ENDCHAR
STARTCHAR 0073
ENCODING 115
SWIDTH 530 0
DWIDTH 14 0
BBX 12 15 1 0
BITMAP
1F80
7BC0
6060
C030
C000
6000
3C00
0F80
00E0
0020
0030
C030
6060
7DE0
1F80
ENDCHAR
STARTCHAR 0074
ENCODING 116
SWIDTH 378 0
DWIDTH 10 0
BBX 9 19 0 0
BITMAP
1800
1800
1800
1800
FF80
1800
1800
1800
1800
1800
1800
1800
1800
1800
1800
1800
0800
0E00
0780
ENDCHAR
STARTCHAR 0075
ENCODING 117
SWIDTH 568 0
DWIDTH 15 0
BBX 12 15 2 0
BITMAP
8030
8030
8030
8030
8030
8030
8030
8030
8030
8030
8030
C070
60F0
7BB0
1F30
ENDCHAR
STARTCHAR 0076
ENCODING 118
SWIDTH 492 0
DWIDTH 13 0
BBX 11 15 1 0
BITMAP
8020
C060
C060
4040
60C0
60C0
2080
3180
3180
1100
1B00
1B00
0A00
0E00
0C00
ENDCHAR
STARTCHAR 0077
ENCODING 119
SWIDTH 757 0
DWIDTH 20 0
BBX 18 15 1 0
BITMAP
80C040
C0C0C0
C0C0C0
41E080
412080
612180
633180
223100
321300
361300
161A00
140A00
1C0E00
1C0C00
080C00
ENDCHAR
STARTCHAR 0078
ENCODING 120
SWIDTH 530 0
DWIDTH 14 0
BBX 12 15 1 0
BITMAP
C030
C060
6040
30C0
1980
1B00
0E00
0600
0F00
1B00
1180
30C0
6060
C060
C030
ENDCHAR
STARTCHAR 0079
ENCODING 121
SWIDTH 530 0
DWIDTH 14 0
BBX 12 21 1 -6
BITMAP
8030
C030
C020
6060
6040
20C0
30C0
1080
1980
1980
0900
0F00
0600
0600
0600
0400
0C00
0C00
0800
1800
1800
ENDCHAR
STARTCHAR 007A
ENCODING 122
SWIDTH 530 0
DWIDTH 14 0
BBX 12 15 1 0
BITMAP
FFF0
FFE0
0040
00C0
0180
0300
0200
0600
0C00
1800
1000
3000
6000
C000
FFE0
ENDCHAR
STARTCHAR 007B
ENCODING 123
SWIDTH 416 0
DWIDTH 11 0
BBX 6 29 4 -6
BITMAP
3C
60
60
60
60
60
60
60
60
60
60
60
40
C0
C0
C0
60
60
60
60
60
60
60
60
60
60
60
30
3C
ENDCHAR
STARTCHAR 007C
ENCODING 124
SWIDTH 227 0
DWIDTH 6 0
BBX 2 19 2 0
BITMAP
C0
C0
C0
C0
C0
C0
C0
C0
C0
C0
C0
C0
C0
C0
C0
C0
C0
C0
C0
ENDCHAR
STARTCHAR 007D
ENCODING 125
SWIDTH 416 0
DWIDTH 11 0
BBX 6 29 1 -6
BITMAP
F0
10
18
18
18
18
18
18
18
18
18
18
18
0C
0C
08
18
18
18
18
18
18
18
18
18
18
18
30
E0
ENDCHAR
STARTCHAR 007E
ENCODING 126
SWIDTH 644 0
DWIDTH 17 0
BBX 11 5 3 6
BITMAP
7060
FC60
CE60
C7C0
C1C0
ENDCHAR
STARTCHAR 00A0
ENCODING 160
SWIDTH 189 0
DWIDTH 5 0
BBX 0 0 0 0
BITMAP
ENDCHAR
STARTCHAR 00A1
ENCODING 161
SWIDTH 303 0
DWIDTH 8 0
BBX 2 19 3 -4
BITMAP
C0
C0
00
00
00
C0
C0
C0
C0
C0
C0
C0
C0
C0
C0
C0
C0
C0
C0
ENDCHAR
STARTCHAR 00A2
ENCODING 162
SWIDTH 530 0
DWIDTH 14 0
BBX 12 20 1 -1
BITMAP
0200
0200
0700
1FC0
3070
6030
4010
C000
C000
C000
C000
C000
C000
4010
6030
3060
1FC0
0200
0200
0200
ENDCHAR
STARTCHAR 00A3
ENCODING 163
SWIDTH 568 0
DWIDTH 15 0
BBX 13 19 1 0
BITMAP
03C0
07E0
0C30
0818
1808
1800
1800
1800
1800
FFC0
FFC0
1800
1800
1800
1800
1800
1800
3800
FFF8
ENDCHAR
STARTCHAR 00A4
ENCODING 164
SWIDTH 644 0
DWIDTH 17 0
BBX 14 15 1 2
BITMAP
8004
CFEC
7838
3018
600C
400C
C004
C004
C004
400C
600C
3018
7838
CFEC
8004
ENDCHAR
STARTCHAR 00A5
ENCODING 165
SWIDTH 530 0
DWIDTH 14 0
BBX 14 19 0 0
BITMAP
C00C
6008
6018
3030
1030
1860
0860
0CC0
0680
0780
0300
3FF0
0300
0300
0300
3FF0
0300
0300
0300
ENDCHAR
STARTCHAR 00A6
ENCODING 166
SWIDTH 227 0
DWIDTH 6 0
BBX 2 23 2 -4
BITMAP
C0
C0
C0
C0
C0
C0
C0
C0
C0
00
00
00
00
C0
C0
C0
C0
C0
C0
C0
C0
C0
C0
ENDCHAR
STARTCHAR 00A7
ENCODING 167
SWIDTH 530 0
DWIDTH 14 0
BBX 12 21 1 -4
BITMAP
3F80
70C0
6060
4060
6000
7000
1F00
73C0
4060
C030
C030
6030
3C60
0FC0
00E0
0060
0020
4020
6060
3DC0
1F80
ENDCHAR
STARTCHAR 00A8
ENCODING 168
SWIDTH 492 0
DWIDTH 13 0
BBX 7 2 3 22
BITMAP
C6
C6
ENDCHAR
STARTCHAR 00A9
ENCODING 169
SWIDTH 757 0
DWIDTH 20 0
BBX 19 20 1 -1
BITMAP
03F000
0FFC00
1C0700
300300
61F180
43B8C0
C60CC0
C40040
8C0060
8C0060
8C0060
C40040
C60C40
4718C0
63F080
300180
380300
0E0E00
07F800
00C000
ENDCHAR
STARTCHAR 00AA
ENCODING 170
SWIDTH 303 0
DWIDTH 8 0
BBX 6 8 1 7
BITMAP
30
7C
44
1C
E4
84
CC
74
ENDCHAR
STARTCHAR 00AB
ENCODING 171
SWIDTH 530 0
DWIDTH 14 0
BBX 10 11 2 2
BITMAP
08C0
1880
1180
2300
6600
C400
4600
2200
3100
1980
0CC0
ENDCHAR
STARTCHAR 00AC
ENCODING 172
SWIDTH 606 0
DWIDTH 16 0
BBX 12 5 2 5
BITMAP
FFF0
0010
0010
0010
0010
ENDCHAR
STARTCHAR 00AD
ENCODING 173
SWIDTH 416 0
DWIDTH 11 0
BBX 8 1 2 8
BITMAP
FF
ENDCHAR
STARTCHAR 00AE
ENCODING 174
SWIDTH 606 0
DWIDTH 16 0
BBX 12 12 2 8
BITMAP
1F80
30C0
6020
CF30
8990
8990
8F10
8910
C930
6020
30E0
1F80
ENDCHAR
STARTCHAR 00AF
ENCODING 175
SWIDTH 492 0
DWIDTH 13 0
BBX 7 1 3 22
BITMAP
FE
ENDCHAR
STARTCHAR 00B0
ENCODING 176
SWIDTH 454 0
DWIDTH 12 0
BBX 9 9 1 10
BITMAP
3E00
7700
C180
8080
8080
8080
C180
6300
3E00
ENDCHAR
STARTCHAR 00B1
ENCODING 177
SWIDTH 606 0
DWIDTH 16 0
BBX 12 12 2 3
BITMAP
0600
0600
0600
0600
FFF0
0600
0600
0600
0600
0000
0000
FFF0
ENDCHAR
STARTCHAR 00B2
ENCODING 178
SWIDTH 378 0
DWIDTH 10 0
BBX 8 12 1 7
BITMAP
3C
66
43
C1
01
03
06
0C
18
30
60
FF
ENDCHAR
STARTCHAR 00B3
ENCODING 179
SWIDTH 378 0
DWIDTH 10 0
BBX 8 12 1 7
BITMAP
7E
06
0C
18
3C
06
02
03
03
C2
66
3C
ENDCHAR
STARTCHAR 00B4
ENCODING 180
SWIDTH 492 0
DWIDTH 13 0
BBX 3 4 5 21
BITMAP
60
40
40
C0
ENDCHAR
STARTCHAR 00B5
ENCODING 181
SWIDTH 606 0
DWIDTH 16 0
BBX 12 21 2 -6
BITMAP
8030
8030
8030
8030
8030
8030
8030
8030
8030
8030
C030
C070
E070
BFF0
9F30
8000
8000
8000
8000
8000
8000
ENDCHAR
STARTCHAR 00B6
ENCODING 182
SWIDTH 606 0
DWIDTH 16 0
BBX 12 23 2 -4
BITMAP
1FB0
3FB0
7FB0
7FB0
FFB0
FFB0
FFB0
FFB0
7FB0
7FB0
3FB0
07B0
01B0
01B0
01B0
01B0
01B0
01B0
01B0
01B0
01B0
01B0
01B0
ENDCHAR
STARTCHAR 00B7
ENCODING 183
SWIDTH 227 0
DWIDTH 6 0
BBX 2 2 2 7
BITMAP
C0
C0
ENDCHAR
STARTCHAR 00B8
ENCODING 184
SWIDTH 378 0
DWIDTH 10 0
BBX 4 6 3 -6
BITMAP
20
60
70
10
10
F0
ENDCHAR
STARTCHAR 00B9
ENCODING 185
SWIDTH 303 0
DWIDTH 8 0
BBX 3 12 2 7
BITMAP
60
E0
20
20
20
20
20
20
20
20
20
20
ENDCHAR
STARTCHAR 00BA
ENCODING 186
SWIDTH 341 0
DWIDTH 9 0
BBX 7 8 1 7
BITMAP
38
44
C6
82
82
C6
44
38
ENDCHAR
STARTCHAR 00BB
ENCODING 187
SWIDTH 530 0
DWIDTH 14 0
BBX 9 11 2 2
BITMAP
8800
C400
6600
3300
1180
0880
1980
3100
6200
4600
CC00
ENDCHAR
STARTCHAR 00BC
ENCODING 188
SWIDTH 947 0
DWIDTH 25 0
BBX 20 19 2 0
BITMAP
600100
E00300
200600
200600
200C00
201800
203000
202080
206180
20C100
218300
230200
020660
060460
0C0C60
180860
100FF0
300060
200060
ENDCHAR
STARTCHAR 00BD
ENCODING 189
SWIDTH 909 0
DWIDTH 24 0
BBX 21 19 2 0
BITMAP
600100
E00300
200600
200400
200C00
201800
203000
2023E0
206630
20C410
218418
230018
020010
060020
0C00C0
180180
300300
300600
2007F8
ENDCHAR
STARTCHAR 00BE
ENCODING 190
SWIDTH 947 0
DWIDTH 25 0
BBX 23 19 1 0
BITMAP
7E0020
060060
0C00C0
180080
3C0180
060300
020600
030C30
030820
C21860
663040
3C6040
0040CC
00C08C
01818C
03010C
0601FE
04000C
04000C
ENDCHAR
STARTCHAR 00BF
ENCODING 191
SWIDTH 530 0
DWIDTH 14 0
BBX 11 20 1 -5
BITMAP
0600
0600
0000
0000
0000
0600
0600
0600
0400
0C00
3800
7000
6000
C000
C000
C020
C060
6060
3FC0
1F00
ENDCHAR
STARTCHAR 00C0
ENCODING 192
SWIDTH 606 0
DWIDTH 16 0
BBX 15 25 1 0
BITMAP
0600
0600
0200
0300
0000
0000
0300
0380
0780
0680
04C0
0CC0
0C40
0860
1860
1830
1030
3010
3018
7FF8
6008
400C
C00C
C004
8006
ENDCHAR
STARTCHAR 00C1
ENCODING 193
SWIDTH 606 0
DWIDTH 16 0
BBX 15 25 1 0
BITMAP
0080
0180
0100
0100
0000
0000
0300
0380
0780
0680
04C0
0CC0
0C40
0860
1860
1830
1030
3010
3018
7FF8
6008
400C
C00C
C004
8006
ENDCHAR
STARTCHAR 00C2
ENCODING 194
SWIDTH 606 0
DWIDTH 16 0
BBX 15 25 1 0
BITMAP
0300
0780
0CC0
0840
0000
0000
0300
0380
0780
0680
04C0
0CC0
0C40
0860
1860
1830
1030
3010
3018
7FF8
6008
400C
C00C
C004
8006
ENDCHAR
STARTCHAR 00C3
ENCODING 195
SWIDTH 606 0
DWIDTH 16 0
BBX 15 25 1 0
BITMAP
0E20
1B20
19E0
0000
0000
0000
0300
0380
0780
0680
04C0
0CC0
0C40
0860
1860
1830
1030
3010
3018
7FF8
6008
400C
C00C
C004
8006
ENDCHAR
STARTCHAR 00C4
ENCODING 196
SWIDTH 606 0
DWIDTH 16 0
BBX 15 24 1 0
BITMAP
0C60
0C60
0000
0000
0000
0300
0380
0780
0680
04C0
0CC0
0C40
0860
1860
1830
1030
3010
3018
7FF8
6008
400C
C00C
C004
8006
ENDCHAR
STARTCHAR 00C5
ENCODING 197
SWIDTH 606 0
DWIDTH 16 0
BBX 15 26 1 0
BITMAP
0380
06C0
0C40
04C0
0780
0000
0000
0300
0380
0780
0680
04C0
0CC0
0C40
0860
1860
1830
1030
3010
3018
7FF8
6008
400C
C00C
C004
8006
ENDCHAR
STARTCHAR 00C6
ENCODING 198
SWIDTH 909 0
DWIDTH 24 0
BBX 22 19 1 0
BITMAP
03FFFC
023000
063000
063000
043000
0C3000
0C3000
083000
183000
183FF0
103000
303000
303000
7FF000
603000
403000
C03000
C03000
803FFC
ENDCHAR
STARTCHAR 00C7
ENCODING 199
SWIDTH 720 0
DWIDTH 19 0
BBX 16 25 1 -6
BITMAP
07F0
1FFC
380E
6006
6003
C001
C000
C000
8000
8000
8000
C000
C000
C001
6003
6006
380E
1F7C
07F0
0080
0080
00C0
0060
0040
01C0
ENDCHAR
STARTCHAR 00C8
ENCODING 200
SWIDTH 568 0
DWIDTH 15 0
BBX 12 25 2 0
BITMAP
0C00
0400
0400
0600
0000
0000
FFF0
8000
8000
8000
8000
8000
8000
8000
8000
FFC0
8000
8000
8000
8000
8000
8000
8000
8000
FFF0
ENDCHAR
STARTCHAR 00C9
ENCODING 201
SWIDTH 568 0
DWIDTH 15 0
BBX 12 25 2 0
BITMAP
0300
0300
0200
0600
0000
0000
FFF0
8000
8000
8000
8000
8000
8000
8000
8000
FFC0
8000
8000
8000
8000
8000
8000
8000
8000
FFF0
ENDCHAR
STARTCHAR 00CA
ENCODING 202
SWIDTH 568 0
DWIDTH 15 0
BBX 12 25 2 0
BITMAP
0E00
0A00
1300
3180
0000
0000
FFF0
8000
8000
8000
8000
8000
8000
8000
8000
FFC0
8000
8000
8000
8000
8000
8000
8000
8000
FFF0
ENDCHAR
STARTCHAR 00CB
ENCODING 203
SWIDTH 568 0
DWIDTH 15 0
BBX 12 24 2 0
BITMAP
3180
3180
0000
0000
0000
FFF0
8000
8000
8000
8000
8000
8000
8000
8000
FFC0
8000
8000
8000
8000
8000
8000
8000
8000
FFF0
ENDCHAR
STARTCHAR 00CC
ENCODING 204
SWIDTH 227 0
DWIDTH 6 0
BBX 3 25 1 0
BITMAP
80
C0
40
40
00
00
60
60
60
60
60
60
60
60
60
60
60
60
60
60
60
60
60
60
60
ENDCHAR
STARTCHAR 00CD
ENCODING 205
SWIDTH 227 0
DWIDTH 6 0
BBX 3 25 2 0
BITMAP
60
40
40
C0
00
00
C0
C0
C0
C0
C0
C0
C0
C0
C0
C0
C0
C0
C0
C0
C0
C0
C0
C0
C0
ENDCHAR
STARTCHAR 00CE
ENCODING 206
SWIDTH 227 0
DWIDTH 6 0
BBX 6 24 0 0
BITMAP
70
48
8C
00
00
30
30
30
30
30
30
30
30
30
30
30
30
30
30
30
30
30
30
30
ENDCHAR
STARTCHAR 00CF
ENCODING 207
SWIDTH 227 0
DWIDTH 6 0
BBX 7 24 -1 0
BITMAP
C6
C6
00
00
00
18
18
18
18
18
18
18
18
18
18
18
18
18
18
18
18
18
18
18
ENDCHAR
STARTCHAR 00D0
ENCODING 208
SWIDTH 644 0
DWIDTH 17 0
BBX 16 19 0 0
BITMAP
3FE0
3FF8
200C
2006
2006
2003
2003
2003
2003
FF03
2003
2003
2003
2003
2006
2006
200C
20F8
3FE0
ENDCHAR
STARTCHAR 00D1
ENCODING 209
SWIDTH 682 0
DWIDTH 18 0
BBX 14 24 2 0
BITMAP
0E20
1BA0
18C0
0000
0000
C00C
C00C
E00C
B00C
900C
980C
8C0C
840C
860C
830C
810C
818C
80CC
806C
806C
803C
801C
801C
800C
ENDCHAR
STARTCHAR 00D2
ENCODING 210
SWIDTH 720 0
DWIDTH 19 0
BBX 17 25 1 0
BITMAP
030000
010000
018000
008000
000000
000000
07F000
1FFC00
380E00
600600
600300
C00100
C00180
C00180
800180
800180
800180
C00180
C00180
C00100
600300
600600
380E00
1F7C00
07F000
ENDCHAR
STARTCHAR 00D3
ENCODING 211
SWIDTH 720 0
DWIDTH 19 0
BBX 17 25 1 0
BITMAP
006000
004000
004000
00C000
000000
000000
07F000
1FFC00
380E00
600600
600300
C00100
C00180
C00180
800180
800180
800180
C00180
C00180
C00100
600300
600600
380E00
1F7C00
07F000
ENDCHAR
STARTCHAR 00D4
ENCODING 212
SWIDTH 720 0
DWIDTH 19 0
BBX 17 24 1 0
BITMAP
01C000
036000
063000
000000
000000
07F000
1FFC00
380E00
600600
600300
C00100
C00180
C00180
800180
800180
800180
C00180
C00180
C00100
600300
600600
380E00
1F7C00
07F000
ENDCHAR
STARTCHAR 00D5
ENCODING 213
SWIDTH 720 0
DWIDTH 19 0
BBX 17 24 1 0
BITMAP
071000
059000
047000
000000
000000
07F000
1FFC00
380E00
600600
600300
C00100
C00180
C00180
800180
800180
800180
C00180
C00180
C00100
600300
600600
380E00
1F7C00
07F000
ENDCHAR
STARTCHAR 00D6
ENCODING 214
SWIDTH 720 0
DWIDTH 19 0
BBX 17 23 1 0
BITMAP
063000
063000
000000
000000
07F000
1FFC00
380E00
600600
600300
C00100
C00180
C00180
800180
800180
800180
C00180
C00180
C00100
600300
600600
380E00
1F7C00
07F000
ENDCHAR
STARTCHAR 00D7
ENCODING 215
SWIDTH 492 0
DWIDTH 13 0
BBX 9 9 2 5
BITMAP
8080
C180
6300
3600
1C00
1C00
3600
6300
C180
ENDCHAR
STARTCHAR 00D8
ENCODING 216
SWIDTH 720 0
DWIDTH 19 0
BBX 17 19 1 0
BITMAP
07F080
1FFD80
380F00
600700
600F00
C01900
C03180
C02180
806180
80C180
818180
C30180
C60180
CC0100
780300
700600
780E00
DF7C00
87F000
ENDCHAR
STARTCHAR 00D9
ENCODING 217
SWIDTH 682 0
DWIDTH 18 0
BBX 15 25 2 0
BITMAP
0200
0200
0300
0100
0000
0000
8006
8006
8006
8006
8006
8006
8006
8006
8006
8006
8006
8006
8004
C004
C00C
600C
7018
3EF0
0FC0
ENDCHAR
STARTCHAR 00DA
ENCODING 218
SWIDTH 682 0
DWIDTH 18 0
BBX 15 25 2 0
BITMAP
0180
0100
0100
0300
0000
0000
8006
8006
8006
8006
8006
8006
8006
8006
8006
8006
8006
8006
8004
C004
C00C
600C
7018
3EF0
0FC0
ENDCHAR
STARTCHAR 00DB
ENCODING 219
SWIDTH 682 0
DWIDTH 18 0
BBX 15 25 2 0
BITMAP
0300
0780
0CC0
0840
0000
0000
8006
8006
8006
8006
8006
8006
8006
8006
8006
8006
8006
8006
8004
C004
C00C
600C
7018
3EF0
0FC0
ENDCHAR
STARTCHAR 00DC
ENCODING 220
SWIDTH 682 0
DWIDTH 18 0
BBX 15 24 2 0
BITMAP
0C60
0C60
0000
0000
0000
8006
8006
8006
8006
8006
8006
8006
8006
8006
8006
8006
8006
8004
C004
C00C
600C
7018
3EF0
0FC0
ENDCHAR
STARTCHAR 00DD
ENCODING 221
SWIDTH 530 0
DWIDTH 14 0
BBX 14 25 0 0
BITMAP
0180
0100
0100
0300
0000
0000
C00C
6008
6018
3030
1030
1860
0C40
0CC0
0680
0780
0300
0300
0300
0300
0300
0300
0300
0300
0300
ENDCHAR
STARTCHAR 00DE
ENCODING 222
SWIDTH 568 0
DWIDTH 15 0
BBX 13 19 2 0
BITMAP
8000
8000
8000
8000
FFC0
8060
8030
8030
8010
8018
8010
8010
8030
8060
FFC0
8000
8000
8000
8000
ENDCHAR
STARTCHAR 00DF
ENCODING 223
SWIDTH 568 0
DWIDTH 15 0
BBX 12 19 2 0
BITMAP
3F00
7F80
C0C0
C0C0
C040
8040
80C0
8180
8700
87C0
80E0
8020
8030
8030
8030
8030
8060
8FC0
8F80
ENDCHAR
STARTCHAR 00E0
ENCODING 224
SWIDTH 530 0
DWIDTH 14 0
BBX 12 21 1 0
BITMAP
0C00
0400
0600
0200
0000
0000
0F80
3DE0
6060
4030
0030
0030
0FF0
3C30
6030
C030
C030
C070
C0D0
7390
3F10
ENDCHAR
STARTCHAR 00E1
ENCODING 225
SWIDTH 530 0
DWIDTH 14 0
BBX 12 21 1 0
BITMAP
0100
0100
0300
0200
0000
0000
0F80
3DE0
6060
4030
0030
0030
0FF0
3C30
6030
C030
C030
C070
C0D0
7390
3F10
ENDCHAR
STARTCHAR 00E2
ENCODING 226
SWIDTH 530 0
DWIDTH 14 0
BBX 12 20 1 0
BITMAP
0700
0D80
18C0
0000
0000
0F80
3DE0
6060
4030
0030
0030
0FF0
3C30
6030
C030
C030
C070
C0D0
7390
3F10
ENDCHAR
STARTCHAR 00E3
ENCODING 227
SWIDTH 530 0
DWIDTH 14 0
BBX 12 19 1 0
BITMAP
1C40
17C0
0000
0000
0F80
3DE0
6060
4030
0030
0030
0FF0
3C30
6030
C030
C030
C070
C0D0
7390
3F10
ENDCHAR
STARTCHAR 00E4
ENCODING 228
SWIDTH 530 0
DWIDTH 14 0
BBX 12 19 1 0
BITMAP
18C0
18C0
0000
0000
0F80
3DE0
6060
4030
0030
0030
0FF0
3C30
6030
C030
C030
C070
C0D0
7390
3F10
ENDCHAR
STARTCHAR 00E5
ENCODING 229
SWIDTH 530 0
DWIDTH 14 0
BBX 12 21 1 0
BITMAP
0700
0880
0880
0D80
0700
0000
0F80
3DE0
6060
4030
0030
0030
0FF0
3C30
6030
C030
C030
C070
C0D0
7390
3F10
ENDCHAR
STARTCHAR 00E6
ENCODING 230
SWIDTH 947 0
DWIDTH 25 0
BBX 23 15 1 0
BITMAP
0F83E0
3DC778
606C0C
40380C
003004
003006
003006
3FFFFE
603000
C03000
C03000
C07804
C06C0C
73C7F8
3F03E0
ENDCHAR
STARTCHAR 00E7
ENCODING 231
SWIDTH 530 0
DWIDTH 14 0
BBX 12 21 1 -6
BITMAP
0F80
3FE0
7030
6010
C000
C000
C000
C000
C000
C000
C000
6010
7030
3DE0
0F80
0200
0600
0300
0100
0300
0E00
ENDCHAR
STARTCHAR 00E8
ENCODING 232
SWIDTH 568 0
DWIDTH 15 0
BBX 13 21 1 0
BITMAP
0400
0600
0200
0200
0000
0000
0F80
3DE0
7030
6010
C018
C018
C008
FFF8
C000
C000
C000
6018
7030
3FE0
0F80
ENDCHAR
STARTCHAR 00E9
ENCODING 233
SWIDTH 568 0
DWIDTH 15 0
BBX 13 21 1 0
BITMAP
0080
0180
0100
0300
0000
0000
0F80
3DE0
7030
6010
C018
C018
C008
FFF8
C000
C000
C000
6018
7030
3FE0
0F80
ENDCHAR
STARTCHAR 00EA
ENCODING 234
SWIDTH 568 0
DWIDTH 15 0
BBX 13 20 1 0
BITMAP
0700
0580
08C0
0000
0000
0F80
3DE0
7030
6010
C018
C018
C008
FFF8
C000
C000
C000
6018
7030
3FE0
0F80
ENDCHAR
STARTCHAR 00EB
ENCODING 235
SWIDTH 568 0
DWIDTH 15 0
BBX 13 19 1 0
BITMAP
18C0
18C0
0000
0000
0F80
3DE0
7030
6010
C018
C018
C008
FFF8
C000
C000
C000
6018
7030
3FE0
0F80
ENDCHAR
STARTCHAR 00EC
ENCODING 236
SWIDTH 227 0
DWIDTH 6 0
BBX 3 21 1 0
BITMAP
80
C0
40
40
00
00
60
60
60
60
60
60
60
60
60
60
60
60
60
60
60
ENDCHAR
STARTCHAR 00ED
ENCODING 237
SWIDTH 227 0
DWIDTH 6 0
BBX 3 21 2 0
BITMAP
60
40
40
C0
00
00
C0
C0
C0
C0
C0
C0
C0
C0
C0
C0
C0
C0
C0
C0
C0
ENDCHAR
STARTCHAR 00EE
ENCODING 238
SWIDTH 227 0
DWIDTH 6 0
BBX 7 21 -1 0
BITMAP
18
3C
64
C6
00
00
18
18
18
18
18
18
18
18
18
18
18
18
18
18
18
ENDCHAR
STARTCHAR 00EF
ENCODING 239
SWIDTH 227 0
DWIDTH 6 0
BBX 7 19 -1 0
BITMAP
C6
C6
00
00
18
18
18
18
18
18
18
18
18
18
18
18
18
18
18
ENDCHAR
STARTCHAR 00F0
ENCODING 240
SWIDTH 568 0
DWIDTH 15 0
BBX 13 21 1 0
BITMAP
0060
07C0
03C0
01E0
0320
0030
0010
0F98
3DF8
6038
6018
C018
C018
C008
C008
C018
C018
4010
6030
3DE0
0F80
ENDCHAR
STARTCHAR 00F1
ENCODING 241
SWIDTH 568 0
DWIDTH 15 0
BBX 12 19 2 0
BITMAP
3880
2780
0000
0000
8F00
BFC0
E060
C060
C030
8030
8030
8030
8030
8030
8030
8030
8030
8030
8030
ENDCHAR
STARTCHAR 00F2
ENCODING 242
SWIDTH 568 0
DWIDTH 15 0
BBX 13 21 1 0
BITMAP
0400
0400
0600
0200
0000
0000
0F80
3FE0
7030
6018
C018
C018
C008
C008
C008
C018
C018
6010
7030
3FE0
0F80
ENDCHAR
STARTCHAR 00F3
ENCODING 243
SWIDTH 568 0
DWIDTH 15 0
BBX 13 21 1 0
BITMAP
0180
0100
0100
0300
0000
0000
0F80
3FE0
7030
6018
C018
C018
C008
C008
C008
C018
C018
6010
7030
3FE0
0F80
ENDCHAR
STARTCHAR 00F4
ENCODING 244
SWIDTH 568 0
DWIDTH 15 0
BBX 13 20 1 0
BITMAP
0700
0580
08C0
0000
0000
0F80
3FE0
7030
6018
C018
C018
C008
C008
C008
C018
C018
6010
7030
3FE0
0F80
ENDCHAR
STARTCHAR 00F5
ENCODING 245
SWIDTH 568 0
DWIDTH 15 0
BBX 13 19 1 0
BITMAP
1C40
13C0
0000
0000
0F80
3FE0
7030
6018
C018
C018
C008
C008
C008
C018
C018
6010
7030
3FE0
0F80
ENDCHAR
STARTCHAR 00F6
ENCODING 246
SWIDTH 568 0
DWIDTH 15 0
BBX 13 19 1 0
BITMAP
18C0
18C0
0000
0000
0F80
3FE0
7030
6018
C018
C018
C008
C008
C008
C018
C018
6010
7030
3FE0
0F80
ENDCHAR
STARTCHAR 00F7
ENCODING 247
SWIDTH 530 0
DWIDTH 14 0
BBX 11 9 2 5
BITMAP
0C00
0C00
0000
0000
FFE0
0000
0000
0C00
0C00
ENDCHAR
STARTCHAR 00F8
ENCODING 248
SWIDTH 568 0
DWIDTH 15 0
BBX 13 15 1 0
BITMAP
0F88
3FF8
7030
6038
C078
C0D8
C188
C308
C608
CC18
D818
7010
7030
FFE0
8F80
ENDCHAR
STARTCHAR 00F9
ENCODING 249
SWIDTH 568 0
DWIDTH 15 0
BBX 12 21 2 0
BITMAP
0800
0C00
0400
0400
0000
0000
8030
8030
8030
8030
8030
8030
8030
8030
8030
8030
8030
C070
60F0
7BB0
1F30
ENDCHAR
STARTCHAR 00FA
ENCODING 250
SWIDTH 568 0
DWIDTH 15 0
BBX 12 21 2 0
BITMAP
0200
0200
0600
0400
0000
0000
8030
8030
8030
8030
8030
8030
8030
8030
8030
8030
8030
C070
60F0
7BB0
1F30
ENDCHAR
STARTCHAR 00FB
ENCODING 251
SWIDTH 568 0
DWIDTH 15 0
BBX 12 21 2 0
BITMAP
0E00
0A00
1300
3180
0000
0000
8030
8030
8030
8030
8030
8030
8030
8030
8030
8030
8030
C070
60F0
7BB0
1F30
ENDCHAR
STARTCHAR 00FC
ENCODING 252
SWIDTH 568 0
DWIDTH 15 0
BBX 12 19 2 0
BITMAP
3180
3180
0000
0000
8030
8030
8030
8030
8030
8030
8030
8030
8030
8030
8030
C070
60F0
7BB0
1F30
ENDCHAR
STARTCHAR 00FD
ENCODING 253
SWIDTH 530 0
DWIDTH 14 0
BBX 12 27 1 -6
BITMAP
0300
0200
0600
0600
0000
0000
8030
C030
C020
6060
6040
20C0
30C0
1080
1980
1980
0900
0F00
0600
0600
0600
0400
0C00
0C00
0800
1800
1800
ENDCHAR
STARTCHAR 00FE
ENCODING 254
SWIDTH 568 0
DWIDTH 15 0
BBX 12 25 2 -6
BITMAP
8000
8000
8000
8000
8F80
BFC0
E060
C030
C030
8010
8010
8010
8010
8010
C030
C030
E060
BFC0
8F80
8000
8000
8000
8000
8000
8000
ENDCHAR
STARTCHAR 00FF
ENCODING 255
SWIDTH 530 0
DWIDTH 14 0
BBX 12 25 1 -6
BITMAP
1180
1180
0000
0000
8030
C030
C020
6060
6040
20C0
30C0
1080
1980
1980
0900
0F00
0600
0600
0600
0400
0C00
0C00
0800
1800
1800
ENDCHAR
ENDFONT
